<?xml version="1.0" standalone="no"?>
<!DOCTYPE svg PUBLIC "-//W3C//DTD SVG 1.1//EN" "http://www.w3.org/Graphics/SVG/1.1/DTD/svg11.dtd" >
<svg xmlns="http://www.w3.org/2000/svg" xmlns:xlink="http://www.w3.org/1999/xlink" version="1.1">
<metadata>
Created by FontForge 20170924 at Thu Jul 15 21:30:07 2004
 By www-data
Uyghur Computer Science Association. Free distributed and all rights reserved. http://www.ukij.org
</metadata>
<defs>
<font id="UKIJZilwa" horiz-adv-x="1983" >
  <font-face 
    font-family="UKIJ Zilwa"
    font-weight="400"
    font-stretch="normal"
    units-per-em="2048"
    panose-1="2 2 6 3 7 5 5 2 3 4"
    ascent="1638"
    descent="-410"
    x-height="889"
    cap-height="1317"
    bbox="-431 -1021 3538 1815"
    underline-thickness="180"
    underline-position="-940"
    unicode-range="U+0020-FEFC"
  />
<missing-glyph horiz-adv-x="1620" 
d="M284 248v1313h1051v-1313h-1051zM318 280h984v1247h-984v-1247z" />
    <glyph glyph-name="uni2163" unicode="&#x651;&#x64b;" horiz-adv-x="1931" 
d="M1804 1345q-130 0 -157 -107l-407 -1267l-388 1201q-66 173 -167 173v50h432v-50q-173 0 -124 -149l283 -895l266 846q14 67 35 132.5t-119 65.5v50h346v-50zM273 83v1203q-18 59 -175 59v50h497v-50q-148 0 -175 -50v-1194q19 -48 175 -48v-51h-497v51q157 0 175 30z
" />
    <glyph glyph-name="uni2467" unicode="&#x651;&#x64c;" 
d="M992 1387q220 0 412 -112t302.5 -303t110.5 -412q0 -219 -111 -410t-303 -302t-411 -111q-220 0 -412 111t-303 302t-111 410q0 221 110.5 413t302.5 303t413 111zM992 -138q286 0 494 206t208 492q0 187 -95 350t-257.5 257.5t-349.5 94.5q-290 0 -496 -207t-206 -495
q0 -286 207.5 -492t494.5 -206zM1118 605q171 -55 171 -234q0 -120 -83.5 -199t-216.5 -79q-134 0 -218 80.5t-84 201.5q0 88 47.5 151.5t127.5 78.5v3q-139 42 -139 185q0 100 72.5 168t190.5 68q120 0 193.5 -69t73.5 -170q0 -135 -135 -182v-3zM989 649q64 0 106.5 40.5
t42.5 100.5q0 63 -44 106t-106 43q-64 0 -106.5 -42.5t-42.5 -99.5q0 -68 44 -108t106 -40zM989 187q79 0 132 51t53 133t-54.5 133.5t-133.5 51.5q-81 0 -132.5 -54t-51.5 -129q0 -80 52 -133t135 -53z" />
    <glyph glyph-name="uni2468" unicode="&#x651;&#x64d;" 
d="M992 1387q220 0 412 -112t302.5 -303t110.5 -412q0 -219 -111 -410t-303 -302t-411 -111q-220 0 -412 111t-303 302t-111 410q0 221 110.5 413t302.5 303t413 111zM992 -138q286 0 494 206t208 492q0 187 -95 350t-257.5 257.5t-349.5 94.5q-290 0 -496 -207t-206 -495
q0 -286 207.5 -492t494.5 -206zM1188 541q-79 -122 -216 -122q-114 0 -193 83t-79 219q0 135 80.5 221.5t207.5 86.5q128 0 220.5 -98t92.5 -346q0 -246 -81.5 -369t-244.5 -123q-105 0 -174.5 56.5t-84.5 172.5l108 7q25 -142 152 -142q102 0 158.5 93t56.5 261h-3z
M998 519q82 0 131 58t49 148q0 92 -50 153t-127 61q-79 0 -133 -65.5t-54 -157.5q0 -87 53.5 -142t130.5 -55z" />
    <glyph glyph-name="uni2469" unicode="&#x651;&#x64e;" 
d="M992 1387q220 0 412 -112t302.5 -303t110.5 -412q0 -219 -111 -410t-303 -302t-411 -111q-220 0 -412 111t-303 302t-111 410q0 221 110.5 413t302.5 303t413 111zM992 -138q286 0 494 206t208 492q0 187 -95 350t-257.5 257.5t-349.5 94.5q-290 0 -496 -207t-206 -495
q0 -286 207.5 -492t494.5 -206zM1197 1029q147 0 222 -117.5t75 -351.5q0 -233 -75 -350t-222 -117q-150 0 -225 117t-75 350q0 234 75 351.5t225 117.5zM1197 187q91 0 136.5 93t45.5 280q0 203 -46.5 291t-138.5 88q-90 0 -135.5 -90t-45.5 -289t46.5 -286t137.5 -87z
M785 109h-113v717q-85 -79 -226 -135v108q194 94 266 230h73v-920z" />
    <glyph glyph-name="uni246A" unicode="&#x651;&#x64f;" 
d="M992 1387q220 0 412 -112t302.5 -303t110.5 -412q0 -219 -111 -410t-303 -302t-411 -111q-220 0 -412 111t-303 302t-111 410q0 221 110.5 413t302.5 303t413 111zM992 -138q286 0 494 206t208 492q0 187 -95 350t-257.5 257.5t-349.5 94.5q-290 0 -496 -207t-206 -495
q0 -286 207.5 -492t494.5 -206zM1329 109h-113v717q-85 -79 -227 -135v108q195 94 267 230h73v-920zM839 109h-111v717q-86 -79 -227 -135v108q193 94 266 230h72v-920z" />
    <glyph glyph-name="uni246B" unicode="&#x651;&#x650;" 
d="M992 1387q220 0 412 -112t302.5 -303t110.5 -412q0 -219 -111 -410t-303 -302t-411 -111q-220 0 -412 111t-303 302t-111 410q0 221 110.5 413t302.5 303t413 111zM992 -138q286 0 494 206t208 492q0 187 -95 350t-257.5 257.5t-349.5 94.5q-290 0 -496 -207t-206 -495
q0 -286 207.5 -492t494.5 -206zM1490 109h-608q0 78 53.5 156t204.5 201q99 79 165.5 155t66.5 156q0 70 -48.5 116t-123.5 46t-126.5 -47t-51.5 -141l-117 14q11 125 90 194.5t208 69.5q134 0 209.5 -74t75.5 -180q0 -90 -55 -169t-169 -173q-148 -124 -175 -150.5
t-51 -65.5h452v-108zM770 109h-113v717q-85 -79 -227 -135v108q193 94 266 230h74v-920z" />
    <glyph glyph-name="afii64184" unicode="&#xfedf;&#xfee0;&#xfeea;" horiz-adv-x="1539" arabic-form="isolated" 
d="M895 1252q-16 36 -38 69t-52 63q-7 11 -27.5 27t-54.5 45q13 51 57 51q40 0 69 -44q17 -36 27 -55.5t16 -28.5q10 -22 16.5 -51.5t11.5 -65.5zM1101.5 1057q-29.5 -63 -79.5 -63q-52 0 -100 29q-15 -36 -43 -64q-41 -36 -77 -36q-50 0 -74.5 32t-24.5 82q0 24 5.5 51
t7.5 39l36 15q0 -58 16 -79t52 -21q15 0 29.5 14.5t27 38t21.5 48.5t11 48l28 7q12 -41 21 -56q12 -19 62 -19q30 0 52 48q14 25 26 75l28 9q3 -14 4 -24.5t1 -25.5q0 -85 -29.5 -148zM1474 170.5q-2 -19.5 -4 -39.5q-14 -58 -33 -104l-17 -27q-134 0 -230 39
q-68 36 -127 104q-46 -82 -112 -116q-62 -27 -133 -27q-76 0 -148 43t-99 117q-46 -69 -112.5 -114.5t-130.5 -45.5q-132 0 -211 18.5t-79 49.5q0 97 138 227q66 62 149 116t180 97q-6 17 -13.5 49.5t-7.5 47.5q0 44 30 89q11 21 25 42.5t35 44.5q8 -52 15 -98t18 -96
q12 -74 25 -140t25 -133q27 -119 159 -119q55 0 86 16q25 9 73 86l-66 320q-5 22 -7 35t-5 27q-11 40 -11 67q0 39 29 90q12 21 26.5 41t31.5 44q8 -31 13 -61.5t12.5 -68.5t18 -88t22.5 -118l43 -204q20 -86 56 -131q44 -53 126 -53q30 0 52 26.5t29 73.5l-69 320
q-4 24 -6.5 40.5t-5.5 21.5q-8 45 -8 67q0 35 28 90q20 39 58 85q3 -26 39 -190q20 -94 37 -168.5t24 -122.5q34 -166 34 -229q0 -21 -2 -40.5zM523 374q-51 -19 -90 -36.5t-65 -35.5q-31 -23 -58 -49.5t-46 -59.5q26 -11 58 -17t90 -6q72 0 134 73z" />
    <glyph glyph-name="afii62834" unicode="&#xfedf;&#xfe82;" horiz-adv-x="1117" arabic-form="isolated" 
d="M500 1594q-44 -51 -86 -71.5t-104 -20.5q-35 0 -68 7t-81 28q-30 13 -50 19t-37 6q-15 0 -60 -16l-14 16q47 78 108 78q38 0 103 -27q41 -18 78 -25.5t70 -7.5q31 0 54 4.5t69 24.5zM43 1318q479 -306 742 -830q85 187 94.5 424.5t-2.5 468.5l198 -172q-59 -43 -57 -88
q6 -434 -186 -717q81 -174 44.5 -288.5t-250.5 -122.5q-27 -2 -52 -2q-166 0 -209 47q-52 53 17 155.5t325 233.5q-232 442 -664 694v197zM696 146q80 -15 87.5 55t-35.5 136q-140 -76 -176 -133.5t45 -57.5h79z" />
    <glyph glyph-name="afii62835" unicode="&#xfee0;&#xfe82;" horiz-adv-x="1189" arabic-form="final" 
d="M500 1594q-44 -51 -86 -71.5t-104 -20.5q-35 0 -68 7t-81 28q-30 13 -50 19t-37 6q-15 0 -60 -16l-14 16q47 78 108 78q38 0 103 -27q41 -18 78 -25.5t70 -7.5q31 0 54 4.5t69 24.5zM637 191q107 111 192 375q11 561 -50 779l169 99l2 -1032q12 -253 191 -270h67v-143
h-81q-283 6 -283 376q-90 -302 -242 -466q-78 -105 -280 -105h-122q220 130 371 327q-29 670 -571 1043l88 171q547 -441 549 -1154z" />
    <glyph glyph-name="afii62836" unicode="&#xfedf;&#xfe84;" horiz-adv-x="1070" arabic-form="isolated" 
d="M23 1364v67l58 41q-52 18 -62 61q-2 11 -2 22q0 31 22 54q28 31 76 33h12q39 0 58 -13q22 -13 24 -21t-6 -13q-94 14 -112 -15q-18 -28 0 -48q17 -21 36 -19q11 0 24.5 4t28.5 10.5t30.5 14.5t29.5 16v-57zM11 1318q479 -306 742 -830q85 187 94.5 424.5t-2.5 468.5
l198 -172q-59 -43 -58 -88q6 -434 -186 -717q82 -174 45.5 -288.5t-250.5 -122.5q-27 -2 -53 -2q-165 0 -208 47q-52 53 17 155.5t325 233.5q-232 442 -664 694v197zM664 146q80 -15 87.5 55t-36.5 136q-139 -76 -175 -133.5t45 -57.5h79z" />
    <glyph glyph-name="afii62837" unicode="&#xfee0;&#xfe84;" horiz-adv-x="1183" arabic-form="final" 
d="M24 1364v67l57 41q-51 18 -61 61q-2 11 -2 22q0 31 21 54q29 31 77 33h12q38 0 58 -13q21 -13 23.5 -21t-5.5 -13q-94 14 -112 -15q-18 -28 0 -48q17 -21 36 -19q11 0 24 4t28 10.5t30.5 14.5t30.5 16v-57zM639 191q107 111 192 375q11 561 -50 779l169 99l2 -1032
q12 -253 191 -270h67v-143h-81q-283 6 -283 376q-90 -302 -242 -466q-78 -105 -280 -105h-122q220 130 371 327q-29 670 -571 1043l88 171q547 -441 549 -1154z" />
    <glyph glyph-name="afii62838" unicode="&#xfedf;&#xfe88;" horiz-adv-x="1069" arabic-form="isolated" 
d="M400 -420v67l57 41q-51 18 -61 61q-2 11 -2 22q0 31 21 54q29 31 77 33h12q38 0 58 -13q21 -13 23.5 -21t-5.5 -13q-94 14 -112 -15q-18 -28 0 -48q17 -21 36 -19q11 0 24 4t28 10.5t30.5 14.5t30.5 16v-57zM12 1318q479 -306 742 -830q85 187 94.5 424.5t-2.5 468.5
l198 -172q-59 -43 -58 -88q6 -434 -186 -717q82 -174 45.5 -288.5t-250.5 -122.5q-27 -2 -53 -2q-165 0 -208 47q-52 53 17 155.5t325 233.5q-232 442 -664 694v197zM665 146q80 -15 87.5 55t-36.5 136q-139 -76 -175 -133.5t45 -57.5h79z" />
    <glyph glyph-name="afii62839" unicode="&#xfee0;&#xfe88;" horiz-adv-x="1179" arabic-form="final" 
d="M236 -557v67l57 41q-51 18 -61 61q-2 11 -2 22q0 31 21 54q29 31 77 33h12q38 0 58 -13q21 -13 23.5 -21t-5.5 -12q-94 13 -112 -16q-18 -28 0 -48q17 -20 36 -19q11 0 24 4t28 10.5t30.5 14.5t30.5 16v-57zM635 191q107 111 192 375q11 561 -50 779l169 99l2 -1032
q12 -253 191 -270h67v-143h-81q-283 6 -283 376q-90 -302 -242 -466q-78 -105 -280 -105h-122q220 130 371 327q-29 670 -571 1043l88 171q547 -441 549 -1154z" />
    <glyph glyph-name="afii62840" unicode="&#xfedf;&#xfe8e;" horiz-adv-x="681" arabic-form="isolated" 
d="M618 1180q-14 -29 -21.5 -48.5t-8.5 -24.5q0 -13 -3 -49.5t-7 -78t-6.5 -80t-3.5 -55.5q-9 -72 -21 -136t-27 -123l-4.5 -13t-11.5 -32.5t-15 -42t-15 -42.5t-13 -34.5t-7 -15.5l30 -92q13 -44 19.5 -78.5t7.5 -61.5q0 -46 -10 -78t-33.5 -51t-64 -28t-100.5 -9
q-45 0 -73.5 4.5t-45.5 16t-23.5 29.5t-6.5 46q0 10 10 29.5t23.5 40t28.5 37.5t25 27q11 8 26 24.5t31.5 36t32 40t28 38.5t20.5 30.5t8 16.5q-3 5 -8.5 14.5t-12.5 25.5l-42 84q-206 410 -343 560v174q5 7 15 7q9 0 127 -188q52 -88 85 -145t48 -87l171 -359
q9 0 18.5 17.5t15.5 54.5q17 107 24.5 171.5t7.5 84.5v475h24q101 -126 101 -132zM439 211q0 45 -27 120h-16q-7 -8 -26 -27.5t-39.5 -45.5t-36 -52.5t-15.5 -45.5q0 -5 8 -38h101q6 0 15 9.5t16.5 23.5t13.5 29t6 27z" />
    <glyph glyph-name="afii62841" unicode="&#xfee0;&#xfe8e;" horiz-adv-x="846" arabic-form="final" 
d="M879 1h-46q-114 0 -153 81q-6 12 -21 71.5t-40 169.5q-4 0 -16 -16q-25 -105 -44 -171.5t-29 -98.5q-20 -53 -43 -90.5t-50.5 -64.5t-63 -43.5t-83.5 -25.5q-32 -8 -56 -12t-40 -4q-3 0 -19 18q8 13 26 28t37 28.5t34 23t17 11.5q154 146 154 243q0 12 -11.5 90
t-34.5 222q-14 93 -60 194q-23 51 -53 109.5t-68 127.5q-22 28 -64.5 78.5t-106.5 125.5q-2 6 -2 16q2 0 44 129h16l154 -237q32 -53 64 -115t65 -137q19 -46 33.5 -120.5t29.5 -180.5l43 -233q0 -4 8 -4q13 0 25 52q44 96 65.5 210.5t22.5 250.5q-1 8 -1 23v45l-5 130
l-46 303q0 27 122 118v-970q0 -18 6 -49.5t15 -64.5t18.5 -60t17.5 -33q30 -28 139 -28v-140z" />
    <glyph glyph-name="afii62882" unicode="&#xfc5e;" horiz-adv-x="447" arabic-form="isolated" 
d="M442 1559q-4 -22 -10.5 -44.5t-27.5 -55.5q15 -12 22.5 -22.5t7.5 -22.5q0 -18 -1 -38.5t-5 -45.5l-82 65q-45 -52 -100 -80q-68 -35 -152 -35l34 57q20 35 20 64q0 20 -10 39t-28 19q-20 0 -37 -24l-25 -42q7 68 17 97q19 53 63 53q33 0 51.5 -32.5t18.5 -72.5
q0 -17 -3.5 -33.5t-10.5 -47.5q66 19 127 63q-30 30 -40 42q-17 23 -17 49q0 45 36 88q44 53 92 54q28 -1 46 -19q15 -15 15 -53q0 -10 -1 -22zM418 1235q0 -72 -26 -117q-27 -53 -76 -53q-17 0 -31.5 6t-32.5 18q-19 -32 -38 -50q-30 -32 -64 -32q-41 0 -60.5 27t-19.5 75
q0 26 6.5 50t18.5 55l20 8q0 -8 -1.5 -25t-1.5 -29q0 -21 8 -38t26 -17q41 0 66 54q11 24 29 97l21 6q7 -47 12 -57q12 -30 38 -30q36 0 58 48q16 39 16 81l21 6l7 -42t4 -41zM378 1533q0 23 -11 41.5t-23 18.5q-18 0 -24 -8.5t-6 -20.5q0 -17 18 -36q5 -6 34 -31
q12 16 12 36z" />
    <glyph glyph-name="afii62883" unicode="&#xfc5f;" horiz-adv-x="418" arabic-form="isolated" 
d="M418 1563q0 -73 -24 -119q-29 -51 -77 -51q-17 0 -32.5 6.5t-32.5 17.5q-18 -33 -37 -51q-31 -30 -65 -30q-39 0 -59.5 27t-20.5 74q0 24 7 52q5 18 19 51l20 9q0 -9 -2 -25.5t-2 -28.5q0 -22 8.5 -38t26.5 -16q41 0 66 54q13 26 29 96l20 6q8 -47 12 -58q12 -31 38 -31
q38 0 58 48q18 39 18 83l20 7q4 -24 7 -45t3 -38zM404 1375q0 -45 -50 -87q-85 -33 -278 -113q0 44 41 82q80 34 287 118zM404 1257q0 -46 -48 -89q-87 -35 -280 -113q0 42 41 82q80 34 287 120z" />
    <glyph glyph-name="afii62884" unicode="&#xfc60;" horiz-adv-x="418" arabic-form="isolated" 
d="M404 1639q0 -45 -50 -89q-85 -34 -278 -111q0 41 43 81q78 32 285 119zM418 1403q0 -72 -24 -117q-29 -53 -77 -53q-17 0 -32.5 6.5t-32.5 17.5q-19 -32 -37 -50q-31 -32 -65 -32q-39 0 -59.5 27t-20.5 75q0 26 7 53q5 18 19 52l20 8q0 -8 -2 -25t-2 -29q0 -21 9 -38
t26 -17q41 0 66 54q12 24 29 97l20 6q7 -47 12 -57q12 -30 38 -30q38 0 58 48q18 39 18 81l20 6q4 -18 7 -42t3 -41z" />
    <glyph glyph-name="afii57506" unicode="&#x67e;" horiz-adv-x="1244" arabic-form="isolated" 
d="M1131 352q-5 0 -7 -11.5t-4.5 -30t-8.5 -43.5t-16.5 -54t-30 -59t-50.5 -57q-38 -36 -81.5 -56t-90.5 -29t-97 -10.5t-100 -1.5q-323 0 -454 208q-24 39 -24 154t24 159q12 -10 32 -126q9 -70 36.5 -122t78.5 -85t127 -49t180 -16q404 0 404 187q0 34 -77 172
q13 15 36.5 38.5t57.5 56.5q65 -189 65 -225zM543 -239l63 -106l-63 -106l-63 106zM731 -237l64 -108l-64 -104l-62 107zM641 -492l65 -105l-65 -106l-62 106z" />
    <glyph glyph-name="afii62958" unicode="&#x67e;" horiz-adv-x="1359" arabic-form="final" 
d="M1387 1h-160q-23 0 -48.5 15.5t-48.5 40t-40 54.5t-21 58q-8 -4 -52 -80q-25 -28 -43 -48t-39 -33t-49.5 -21t-72.5 -12q-95 -16 -160.5 -20t-107.5 -4q-58 0 -98.5 6.5t-65.5 17.5l-61 25q-19 7 -33.5 15t-24.5 22q-11 7 -28 25t-34 45t-29 61t-12 73t42 157h23
q-9 -53 -12.5 -80.5t-3.5 -32.5q0 -34 8 -61t19.5 -47t22 -33t17.5 -17q72 -58 232 -58h144q221 0 298 68q18 17 46.5 56.5t73.5 104.5h18q6 -37 15.5 -64t25.5 -45.5t40 -29.5t59 -18h160v-140zM669 -492l64 -105l-64 -108l-65 108zM760 -237l64 -105l-64 -108l-65 108z
M569 -239l63 -103l-63 -109l-64 106z" />
    <glyph glyph-name="afii62956" unicode="&#x67e;" horiz-adv-x="470" arabic-form="initial" 
d="M390 261q0 -260 -213 -260h-199v140h118q228 0 228 106q0 58 -95 170l68 96q3 0 6 -0.5l9 -1.5q78 -120 78 -250zM220 -490l69 -105l-69 -108l-69 108zM321 -237l67 -105l-69 -107l-70 107zM112 -238l69 -104l-69 -108l-70 107z" />
    <glyph glyph-name="afii52957" unicode="&#x67e;" horiz-adv-x="539" arabic-form="medial" 
d="M565 1h-158q-86 39 -127 148h-17q-6 -24 -20 -50t-34 -48t-42 -36t-43 -14h-145v140h83q44 0 76.5 9.5t57.5 35.5t45 70.5t39 114.5q10 -49 15.5 -74.5t6.5 -27.5q6 -21 18 -43.5t27.5 -41.5t33.5 -31t37 -12h147v-140zM181 -239l60 -107l-60 -107l-60 107zM274 -492
l60 -106l-60 -107l-61 107zM361 -238l57 -105l-57 -107l-60 107z" />
    <glyph glyph-name="afii57507" unicode="&#x686;" horiz-adv-x="1012" arabic-form="isolated" 
d="M971 -797q-155 -192 -349 -192q-266 0 -416 248q-116 192 -116 368q0 154 58 295q16 43 37 77t45 64t51 57.5t57 57.5q51 24 116 64l126 91q-18 13 -46 19q-68 15 -122 20t-98 8q-130 0 -147 -172q-3 -7 -17 -20q-18 6 -18 48q0 21 2.5 55t9.5 78q4 26 19 48.5t38 40.5
t54 30t65 15l387 -80q17 0 20.5 -0.5t4 -1t4.5 -1.5t23 -1.5t57 -1t108 -0.5v-30l-5 -15t-10 -32t-10.5 -31t-6.5 -16q-118 -16 -194 -36t-115 -43l-132 -78q-135 -80 -195 -182q-16 -29 -31 -69.5t-26.5 -84t-18.5 -82.5t-7 -63q0 -61 15.5 -124.5t43 -123t65 -110
t81.5 -82.5q118 -89 244 -88q57 0 248 52q14 10 40.5 22t60.5 26v-24zM521 -61l67 -110l-67 -103l-67 103zM724 -60l67 -111l-67 -100l-69 104zM628 -312l66 -108l-66 -106l-69 106z" />
    <glyph glyph-name="afii62961" unicode="&#x686;" horiz-adv-x="1038" arabic-form="final" 
d="M1070 1h-208q-62 0 -102 9t-64 30t-35.5 55t-16.5 83q-2 13 -7 26.5t-10 25.5h-15q-35 -27 -58 -43.5t-46.5 -33.5t-52.5 -37.5t-77 -53.5q-202 -139 -201 -404q0 -88 24 -172.5t66 -154.5t99.5 -120.5t123.5 -69.5q44 -12 69 -17t30 -5q77 0 177 46q15 7 173 90v-23
q-173 -226 -387 -226q-156 0 -258 100q-93 87 -165 273q-17 45 -27 105t-9 139q0 185 65 307q61 115 196 213l235 174q-3 2 -7 11q-227 40 -258 40q-70 0 -107 -54q-7 -10 -28 -49t-59 -105q-19 -9 -22 -9v22q0 22 7.5 57.5t21 73t29.5 73.5t34 62q5 9 14.5 17t21.5 14.5
t26.5 11.5t27.5 5q11 0 14 -2l390 -66l154 20h37q-3 -26 -6 -60.5t-8 -77.5q-51 -9 -78.5 -13t-44 -9.5t-28 -14t-26.5 -23.5q0 -14 7 -30.5t15 -31.5t17 -26.5t15 -11.5h322v-140zM662 -243l66 -105l-66 -106l-65 106zM464 -243l67 -105l-67 -108l-64 107zM570 -496
l62 -105l-62 -106l-68 106z" />
    <glyph glyph-name="afii62959" unicode="&#x686;" horiz-adv-x="892" arabic-form="initial" 
d="M823 321q-6 -28 -12 -60t-12 -71q-12 -2 -31 -2h-10.5t-11.5 1h-81q-23 0 -40 -3t-38 -14.5t-49 -32.5t-74 -57q-13 -13 -41 -27.5t-60 -26.5t-61.5 -19.5t-48.5 -7.5h-276v140h386q63 0 171 98q0 5 -11 11.5t-27.5 14.5t-36 15t-36 14t-29.5 11t-16 6q-131 52 -159 52
q-72 0 -145 -92h-18v22q0 2 10.5 24.5t26 51.5t30.5 56.5t23 38.5q31 42 67 42q4 0 18.5 -7.5t34 -17.5t42 -23t40.5 -23.5l30 -17.5l12 -7q60 -31 216 -79q2 -4 25 -10h192zM325 -492l67 -106l-67 -107l-67 107zM420 -238l67 -105l-67 -107l-66 107zM221 -239l66 -104
l-66 -110l-66 107z" />
    <glyph glyph-name="afii62960" unicode="&#x686;" horiz-adv-x="965" arabic-form="medial" 
d="M991 1h-220q-45 0 -75.5 10t-49.5 34t-26 60.5t-7 89.5v18v7.5v8.5q0 7 -5 18l-233 -152q-146 -94 -237 -94h-161v140h211q25 0 52 6.5t61 21.5q19 8 75 42t151 100q0 2 -5 4q-240 91 -287 91q-56 0 -125 -111q-11 9 -12 9q3 47 15 88.5t30.5 72t42.5 48t53 17.5
q57 0 226 -87l98 -26q26 -7 26 -10v-1h293l-48 -96l-93 -24q-62 -29 -62 -89q0 -46 38 -56h274v-140zM378 -237l63 -105l-63 -108l-65 108zM570 -233l65 -109l-65 -106l-63 107zM479 -489l63 -105l-63 -107l-64 107z" />
    <glyph glyph-name="afii57508" unicode="&#x698;" horiz-adv-x="510" arabic-form="isolated" 
d="M430 659l-71 106l71 107l71 -107zM220 656l-68 109l68 104l71 -106zM320 910l-71 107l71 108l72 -108zM450 -162q0 -95 -29 -178.5t-81 -147.5t-124 -106t-156 -54q-24 -1 -43 -6.5t-37 -14.5h-18v21q15 19 22 23q403 262 403 430q0 17 -8.5 42.5t-20 49.5t-24 45.5
t-19.5 30.5q-97 115 -97 127q0 23 74 112q41 -43 70.5 -92t49 -98t29 -97t9.5 -87z" />
    <glyph glyph-name="afii62962" unicode="&#x698;" horiz-adv-x="573" arabic-form="final" 
d="M605 1h-179q-14 0 -24 -11v-86q0 -117 -43.5 -235t-131.5 -245q-62 -72 -259 -96q0 18 16 27q49 30 105.5 86.5t120.5 144.5q69 95 100.5 173t34.5 141q0 39 -4.5 64.5t-18 51t-40.5 58.5t-72 84q5 25 17 54t28 62q27 -32 58.5 -65.5t67.5 -67.5h224v-140zM419 669
l-65 108l65 106l65 -106zM230 668l-64 109l64 104l63 -106zM320 922l-64 107l64 106l63 -106z" />
    <glyph glyph-name="afii57567" unicode="&#x6a9;" horiz-adv-x="1612" arabic-form="isolated" 
d="M1293 287q-3 93 -158 204.5t-302 193.5v174l745 340v-109l-659 -289q174 -97 309 -225.5t143.5 -266t-96.5 -224.5q-104 -86 -260 -86h-600q-144 0 -229 59q-93 64 -101 177q0 142 88 279q20 13 27 -9q-39 -111 -29.5 -205t114.5 -127t206 -31h481q98 -2 201.5 32.5
t119.5 112.5z" />
    <glyph glyph-name="afii62964" unicode="&#x6a9;" horiz-adv-x="1839" arabic-form="final" 
d="M1228 322q-128 168 -299 301l31 206l772 400v-112l-690 -378q218 -257 405 -513q43 -74 135 -84h277v-143h-289q-78 2 -138 70t-106 140q-64 -204 -284 -210h-738q-146 2 -204 65q-58 60 -58 150q0 6 2 10q2 96 80 203q19 16 31 0q-25 -111 -3.5 -193.5t130.5 -87.5h760
q86 -6 155.5 52t30.5 124z" />
    <glyph glyph-name="afii52305" unicode="&#x6a9;" horiz-adv-x="989" arabic-form="initial" 
d="M794 369q20 -137 -55 -251.5t-246 -118.5h-493v143h541q112 6 153.5 84.5t-14.5 170.5q-184 265 -463 432l33 200l741 430v-114l-686 -400q168 -137 313.5 -288.5t175.5 -287.5z" />
    <glyph glyph-name="afii52306" unicode="&#x6a9;" horiz-adv-x="1039" arabic-form="medial" 
d="M508 427q-146 255 -400 402l28 200l777 430v-114l-690 -400q313 -256 457 -637q41 -143 192 -166h200v-143h-238q-90 2 -146.5 62.5t-85.5 133.5q-88 -192 -321 -196h-281v143h270q138 3 219.5 83t18.5 202z" />
    <glyph glyph-name="afii57509" unicode="&#x6af;" horiz-adv-x="1209" arabic-form="isolated" 
d="M1159 1168v-13.5v-13.5v-24q0 -45 -5 -72q-75 -50 -188 -119.5t-268 -162.5q0 -4 -2 -8t-6 -9v-16q346 -248 346 -439q0 -11 -5.5 -33.5t-13 -47.5t-17 -46.5t-15.5 -30.5q-29 -38 -74 -62t-95 -37.5t-100.5 -19.5t-92.5 -6q-72 0 -123 1t-84 2q-19 3 -60.5 13.5
t-108.5 30.5q-151 40 -151 247q0 20 3.5 47t9.5 53t14.5 44t16.5 20q-1 -6 -1.5 -12t-0.5 -11v-24q0 -200 137 -261q38 -17 107.5 -26.5t173.5 -8.5q10 0 34 2t63 5l99 7q101 9 150.5 42.5t49.5 97.5q0 104 -104 202l-87 84l-9 4q-12 5 -42.5 21.5t-80.5 46.5q-18 10 -18 34
q0 134 33 166q105 92 249 177zM1159 1383v-61q0 -7 -7 -22q-79 -55 -198.5 -135t-282.5 -189v97z" />
    <glyph glyph-name="afii62967" unicode="&#x6af;" horiz-adv-x="1459" arabic-form="final" 
d="M1380 1300q-1 -2 -2.5 -11.5t-3.5 -27.5q-18 -12 -54.5 -36t-83 -55t-100.5 -64.5t-104.5 -64.5t-94 -57.5t-69.5 -43.5q0 16 18 95q114 70 236 147t258 164v-46zM1480 1h-80q-159 0 -208 58q-14 14 -40 51.5t-66 101.5q-4 -4 -12.5 -17.5t-17 -30t-16.5 -32t-10 -22.5
q-20 -27 -51.5 -46t-79 -31.5t-111.5 -18.5t-149 -6q-467 0 -467 233q0 64 54 200q29 -11 29 -58v-74q3 -32 29 -101q60 -89 308 -89h173q48 0 81 5.5t57.5 17t42 29.5t35.5 43q17 27 27 45t10 36q0 16 -48.5 100t-150.5 234q-9 12 -12.5 22t-3.5 22q0 45 5 75t17 41
q47 41 113.5 87.5t150.5 99.5l273 172q0 -30 -1 -53.5t-1 -43.5q-16 -18 -42 -38q-72 -43 -178 -109.5t-252 -156.5q6 -18 43.5 -89t103.5 -194l101 -187q67 -136 128 -136h216v-140z" />
    <glyph glyph-name="afii62965" unicode="&#x6af;" horiz-adv-x="679" arabic-form="initial" 
d="M619 1258l-531 -337v97l507 324zM619 1047l-513 -316v-3q0 -16 46 -45q5 -4 63.5 -50t174.5 -132l136 -145q40 -55 40 -124q0 -31 -12 -68t-34 -83q-40 -80 -176 -80h-372v140h439q13 0 26.5 5.5t25 17t18 29.5t6.5 43q0 26 -17 53.5t-50.5 61.5t-83.5 75t-113 97
q-5 2 -21 11.5t-37 23t-44.5 29t-43.5 30.5t-32.5 28t-12.5 22q0 7 4 28.5t10 45t13 41.5t9 21q13 10 144 95t383 247z" />
    <glyph glyph-name="afii62966" unicode="&#x6af;" horiz-adv-x="828" arabic-form="medial" 
d="M721 1257l-523 -324h-17v76q0 16 294 198l246 146v-96zM855 1h-223q-50 0 -91 39q-8 9 -35 48t-74 113q-25 -60 -48.5 -108t-54.5 -66q-51 -26 -66 -26h-286v140h277q19 0 39.5 12t36 29t26 38.5t10.5 40.5q0 20 -6 39.5t-15.5 38t-23 36t-25.5 36.5q-38 56 -68.5 97
t-52.5 70t-34 48t-12 33q0 148 23 167q48 40 117 86t162 99l290 168q-2 -49 -8 -104q-6 -4 -19.5 -12t-33.5 -23l-460 -287l166 -302q49 -90 95 -158.5t93 -117.5q28 -34 131 -34h170v-140z" />
    <glyph glyph-name="afii57555" unicode="&#x6cc;" horiz-adv-x="1112" arabic-form="isolated" 
d="M1029 440q0 -33 -36 -33q-8 0 -21.5 3t-28 7t-29 7t-20.5 3q-115 0 -216 -130q-9 -12 -13.5 -33t-4.5 -49q0 -62 67 -82l94 -10q28 -1 50.5 -15t40.5 -33.5t32 -43.5t22.5 -48t12.5 -44.5t4 -32.5q0 -53 -19 -96t-46 -93q-120 -152 -338 -162q-5 0 -13 -2l-16 -4t-16 -3
t-14 -1q-77 0 -152.5 21.5t-135 66.5t-96 114t-36.5 164q0 100 36 184q24 41 45.5 79.5t40.5 78.5h20q-80 -301 -80 -324q0 -18 4.5 -44t17 -54.5t35.5 -58t61 -53t91.5 -38t129.5 -14.5q78 0 153 16.5t133 44.5t93 64t35 76q0 15 -7.5 34.5t-19.5 37t-27 29.5t-29 14
q-128 4 -170 28q-65 40 -65 164q0 37 10 80.5t27.5 84.5t40.5 77t45 55q11 10 29 22t39.5 23.5t45.5 18.5t47 7q21 0 46 -8.5t47 -22t38 -32.5t16 -40z" />
    <glyph glyph-name="afii52364" unicode="&#x6cc;" horiz-adv-x="1029" arabic-form="final" 
d="M1056 1h-335q-14 0 -40 -32v-30q15 -14 33.5 -20.5t38.5 -10.5t38 -9.5t33 -15.5t23.5 -29.5t8.5 -52.5q0 -29 -12 -61.5t-32 -63t-44 -56t-50 -38.5q-120 -63 -259 -63q-72 0 -131.5 23t-102 66.5t-65.5 103.5t-23 132q0 59 30 160q1 7 17.5 42.5t46.5 101.5h15
q-49 -173 -49 -238q0 -5 2 -13.5t3.5 -17.5t3.5 -17.5t2 -11.5q3 -30 19 -62t38.5 -59.5t49 -46t51.5 -22.5q45 -8 85 -10.5t76 -2.5q26 0 49 0.5t45 5t44 12.5t47 23q51 30 51 65q0 27 -10 34q-38 5 -122 33q-39 20 -39 81q0 48 16 87t42.5 69.5t61.5 51.5t73 32h271v-140z
" />
    <glyph glyph-name="afii62885" unicode="&#xfc61;" horiz-adv-x="418" arabic-form="isolated" 
d="M418 1400q-34 0 -71 8q-7 3 -41 12q-55 -47 -76 -60q-58 -37 -112 -37q-13 0 -26.5 4t-27.5 13q73 32 103 47q46 21 101 54q-22 20 -32 34q-16 23 -16 45q0 42 33.5 82.5t76.5 40.5q29 0 51.5 -19.5t22.5 -47.5q0 -20 -10 -43q-2 -6 -22 -40q30 -14 36 -25q10 -17 10 -68
zM418 1298q0 -72 -25 -119q-28 -52 -77 -52q-16 0 -32 6t-32 18q-19 -32 -37 -50q-31 -31 -65 -31q-40 0 -60 27t-20 75q0 25 7 53q5 16 18 51l21 7q0 -7 -2 -24.5t-2 -27.5q0 -22 8.5 -39t26.5 -17q41 0 66 54q12 24 29 96l20 6q8 -48 12 -57q12 -30 38 -30q38 0 58 48
q18 39 18 83l19 4q5 -19 8 -42.5t3 -38.5zM340 1546q0 21 -14.5 40t-34.5 19q-7 0 -10 -7t-3 -16q0 -20 9.5 -34t42.5 -32q4 7 7 15.5t3 14.5z" />
    <glyph glyph-name="afii62886" unicode="&#xfc62;" horiz-adv-x="443" arabic-form="isolated" 
d="M443 1558q0 -77 -27 -126q-30 -53 -83 -53q-18 0 -33 5.5t-36 18.5q-20 -33 -39 -54q-33 -32 -69 -32q-43 0 -64.5 29t-21.5 80q0 25 8 55q5 18 20 54l21 9q0 -9 -1.5 -27.5t-1.5 -30.5q0 -23 9 -39.5t27 -16.5q44 0 70 56q14 28 32 102l21 7q9 -51 13 -61q14 -32 42 -32
q39 0 62 51q18 42 18 87l21 7q4 -20 8 -45.5t4 -43.5zM426 1339q0 -50 -51 -95q-93 -37 -299 -119q0 44 46 85q85 36 304 129z" />
    <glyph glyph-name="afii52399" unicode="&#x621;" horiz-adv-x="530" arabic-form="isolated" 
d="M437 223l-337 -213v105l90 63q-83 28 -97 96q-4 16 -4 31q0 48 34 86q44 49 120 52h18q62 0 90 -20q33 -22 37.5 -33t-9.5 -20q-145 21 -173.5 -23t-1 -76t58.5 -30t80.5 23.5t93.5 48.5v-90z" />
    <glyph glyph-name="afii52400" unicode="&#x622;" horiz-adv-x="500" arabic-form="isolated" 
d="M500 1606q-44 -51 -86 -71.5t-104 -20.5q-35 0 -68 7t-81 28q-30 13 -50 19t-37 6q-15 0 -60 -16l-14 16q47 78 108 78q38 0 103 -27q41 -18 78 -25.5t70 -7.5q31 0 54 4.5t69 24.5zM233 1432q63 -360 63 -725q0 -364 -63 -735q-6 -8 -12 -8t-12 8q42 666 -115 1315z" />
    <glyph glyph-name="afii62753" unicode="&#x622;" horiz-adv-x="605" arabic-form="final" 
d="M509 1606q-44 -51 -86 -71.5t-104 -20.5q-35 0 -68 7t-81 28q-30 13 -50 19t-37 6q-15 0 -60 -16l-14 16q47 78 108 78q38 0 103 -27q41 -18 78 -25.5t70 -7.5q31 0 54 4.5t69 24.5zM278 331q-18 -180 145 -189h222v-143h-211q-252 16 -255 292v796q0 112 -61 226
l160 130v-1112z" />
    <glyph glyph-name="afii57411" unicode="&#x623;" horiz-adv-x="420" arabic-form="isolated" 
d="M98 1373v68l58 40q-52 18 -62 62q-2 10 -2 21q0 31 22 54q28 31 76 34h12q39 0 58 -13q22 -14 24 -21.5t-6 -12.5q-94 13 -112 -16q-18 -27 0 -48q17 -20 36 -19q11 0 24.5 4.5t28.5 11t30.5 14t29.5 16.5v-58zM277 1432q63 -360 63 -725q0 -364 -63 -735q-6 -8 -12 -8
t-12 8q42 666 -115 1315z" />
    <glyph glyph-name="afii62754" unicode="&#x623;" horiz-adv-x="597" arabic-form="final" 
d="M57 1364v67l58 41q-52 18 -62 61q-2 11 -2 22q0 31 22 54q28 31 76 33h12q39 0 58 -13q22 -13 24 -21t-6 -13q-94 14 -112 -15q-18 -28 0 -48q17 -21 36 -19q11 0 24.5 4t28.5 10.5t30.5 14.5t29.5 16v-57zM269 331q-18 -180 146 -189h222v-143h-212q-252 16 -254 292
v796q0 112 -61 226l159 130v-1112z" />
    <glyph glyph-name="afii57412" unicode="&#x624;" horiz-adv-x="805" arabic-form="isolated" 
d="M743 -28q-9 -249 -171 -446.5t-315 -240.5q-117 -33 -207 -33q-29 0 -55 3q246 145 426 319.5t238 424.5h-316q-94 2 -141 80t25.5 233t219.5 170q15 2 27 2q125 0 193 -119q72 -133 76 -228v-165zM312 251.5q-36 -97.5 31 -109.5h295q-25 88 -84.5 166t-132.5 59.5
t-109 -116zM477 992v-96l-463 -258v104l154 90q-120 31 -114 150.5t127 162.5q36 12 76 12q81 0 163 -58q14 -21 0 -34q-133 17 -191.5 -9t-66 -74.5t29 -77.5t87.5 -19z" />
    <glyph glyph-name="afii62755" unicode="&#x624;" horiz-adv-x="841" arabic-form="final" 
d="M666 -1q-17 -276 -179 -473.5t-315 -240.5q-117 -33 -205 -33q-29 0 -57 3q246 145 426 319.5t238 424.5h-316q-94 2 -141 80t25.5 233t219.5 170q15 2 27 2q125 0 198 -127t78 -216h201v-142h-200zM227 251.5q-36 -97.5 31 -109.5h295q-25 88 -84.5 166t-132.5 59.5
t-109 -116zM494 992v-96l-463 -258v104l154 90q-120 31 -114 150.5t127 162.5q36 12 76 12q81 0 163 -58q14 -21 0 -34q-133 17 -191.5 -9t-66 -74.5t29 -77.5t87.5 -19z" />
    <glyph glyph-name="afii57413" unicode="&#x625;" horiz-adv-x="451" arabic-form="isolated" 
d="M137 -365v67l58 41q-52 18 -61 61q-3 11 -3 22q0 31 22 54q29 31 77 33h12q38 0 57 -13q22 -13 24.5 -21t-6.5 -12q-93 13 -111 -16q-18 -28 0 -48q16 -20 36 -19q10 0 23.5 4t28.5 10.5t30.5 14.5t29.5 16v-57zM239 1432q64 -360 64 -725q0 -364 -64 -735q-6 -8 -12 -8
t-12 8q42 666 -115 1315z" />
    <glyph glyph-name="afii62756" unicode="&#x625;" horiz-adv-x="581" arabic-form="final" 
d="M266 -381v68l57 40q-51 18 -61 62q-2 10 -2 21q0 31 21 54q29 31 77 34h12q38 0 58 -13q21 -14 23.5 -21.5t-5.5 -12.5q-94 13 -112 -16q-18 -27 0 -48q17 -20 36 -19q11 0 24 4.5t28 11t30.5 14t30.5 16.5v-58zM254 331q-18 -180 145 -189h222v-143h-211
q-252 16 -255 292v796q0 112 -61 226l160 130v-1112z" />
    <glyph glyph-name="afii57414" unicode="&#x626;" horiz-adv-x="442" arabic-form="isolated" 
d="M361 265q0 -264 -217 -264h-173v140h240q82 36 82 115q0 13 -10.5 38t-25 49.5t-29.5 46.5t-25 31q12 18 31 43.5t47 59.5q80 -155 80 -259zM361 925q-1 -12 -98 -80l-254 -176q-22 0 -22 34q0 19 5 31t18.5 23.5t37.5 26.5t63 43q-63 60 -63 160q0 28 13 53.5t34.5 45.5
t46.5 32.5t47 12.5q30 0 107 -55v-19h-92q-16 0 -29.5 -7.5t-24.5 -20.5t-17 -30.5t-6 -36.5q0 -77 58 -77q7 0 27.5 8.5t43.5 20t43.5 22.5t29.5 17t20 6q12 0 12 -34z" />
    <glyph glyph-name="afii62759" unicode="&#x626;" horiz-adv-x="567" arabic-form="final" 
d="M591 1h-167q-93 39 -134 150h-18q-5 -28 -21 -55t-37.5 -48t-44.5 -34t-42 -13h-155v140h88q48 0 82 11t61 37t47.5 70.5t39.5 113.5q18 -98 24 -102q5 -23 17.5 -45.5t29.5 -41.5t36 -31t38 -12h156v-140zM494 904q-18 -110 -130 -179q-63 -38 -106.5 -52t-74.5 -14
q-50 0 -84 29q6 19 163 101q-33 14 -54.5 31.5t-35 38.5t-18 44t-4.5 48q0 40 13 70t34.5 50t49 30t56.5 10q53 0 142 -34l6 -13q-42 -11 -78.5 -24t-63.5 -28t-43 -32.5t-16 -40.5q0 -36 23.5 -65.5t60.5 -47.5q15 9 37 27t43 36t37.5 31t19.5 13q23 0 23 -29z" />
    <glyph glyph-name="afii62757" unicode="&#x626;" horiz-adv-x="442" arabic-form="initial" 
d="M361 265q0 -264 -217 -264h-173v140h240q82 36 82 115q0 13 -10.5 38t-25 49.5t-29.5 46.5t-25 31q12 18 31 43.5t47 59.5q80 -155 80 -259zM361 925q-1 -12 -98 -80l-254 -176q-22 0 -22 34q0 19 5 31t18.5 23.5t37.5 26.5t63 43q-63 60 -63 160q0 28 13 53.5t34.5 45.5
t46.5 32.5t47 12.5q30 0 107 -55v-19h-92q-16 0 -29.5 -7.5t-24.5 -20.5t-17 -30.5t-6 -36.5q0 -77 58 -77q7 0 27.5 8.5t43.5 20t43.5 22.5t29.5 17t20 6q12 0 12 -34z" />
    <glyph glyph-name="afii62758" unicode="&#x626;" horiz-adv-x="567" arabic-form="medial" 
d="M591 1h-167q-93 39 -134 150h-18q-5 -28 -21 -55t-37.5 -48t-44.5 -34t-42 -13h-155v140h88q48 0 82 11t61 37t47.5 70.5t39.5 113.5q18 -98 24 -102q5 -23 17.5 -45.5t29.5 -41.5t36 -31t38 -12h156v-140zM494 904q-18 -110 -130 -179q-63 -38 -106.5 -52t-74.5 -14
q-50 0 -84 29q6 19 163 101q-33 14 -54.5 31.5t-35 38.5t-18 44t-4.5 48q0 40 13 70t34.5 50t49 30t56.5 10q53 0 142 -34l6 -13q-42 -11 -78.5 -24t-63.5 -28t-43 -32.5t-16 -40.5q0 -36 23.5 -65.5t60.5 -47.5q15 9 37 27t43 36t37.5 31t19.5 13q23 0 23 -29z" />
    <glyph glyph-name="afii57415" unicode="&#x627;" horiz-adv-x="400" arabic-form="isolated" 
d="M319 578l-15 -370q-3 -47 -11.5 -96.5t-24.5 -104.5q-8 0 -14 3.5t-12 16.5v397q0 372 -146 792q60 48 106 97h24q40 -126 72 -362q10 -98 17 -177.5t7 -145.5q0 -13 -1.5 -25t-1.5 -25z" />
    <glyph glyph-name="afii62760" unicode="&#x627;" horiz-adv-x="288" arabic-form="final" 
d="M320 1h-77q-11 1 -29 10t-37 21.5t-35.5 27.5t-19.5 29q-9 28 -17.5 73.5t-13.5 90.5t-9.5 80t-4.5 41v461l-37 390q0 2 10 20.5t23.5 40t26.5 39t19 20.5h22v-695q0 -36 2.5 -117t5.5 -211l9 -27q0 -16 2 -39.5t11 -46t24 -41.5t42 -27h83v-140z" />
    <glyph glyph-name="afii57416" unicode="&#x628;" horiz-adv-x="1129" arabic-form="isolated" 
d="M1068 358q-1 -2 -4.5 -25t-12.5 -56t-26 -72t-42 -73.5t-60.5 -62.5t-84.5 -37q-52 -11 -104 -19t-108 -8q-168 0 -281.5 49t-178.5 160q-12 21 -18 58t-6 97q0 118 24 158q10 -9 30 -127q6 -51 20 -91.5t38 -70.5t60 -50.5t87 -33.5q108 -24 201 -24q390 0 390 187
q0 33 -75 171q19 27 89 95q62 -192 62 -225zM641 -336q0 -11 -53 -79q-56 72 -56 81l56 97q53 -87 53 -99z" />
    <glyph glyph-name="afii62763" unicode="&#x628;" horiz-adv-x="1177" arabic-form="final" 
d="M1205 1h-147q-21 2 -45 19.5t-45 42.5t-36.5 54.5t-19.5 57.5q-3 -2 -48 -80q-21 -27 -36.5 -47t-34.5 -33t-45 -22t-68 -14q-80 -12 -134 -17t-86 -5q-122 0 -175 22l-57 25q-9 4 -33 19.5t-49.5 45t-44.5 73t-19 105.5q0 36 37 156h23q-7 -53 -10.5 -80.5t-3.5 -32.5
q0 -35 6.5 -62t15.5 -46t19 -31t17 -20q65 -57 215 -57h130q201 0 271 71q19 18 46.5 57.5t63.5 101.5h17q5 -27 9 -47t11.5 -35t19.5 -28t32 -25q18 -12 31.5 -20t25.5 -8h147v-140zM522 -209l58 -107l-58 -108l-58 108z" />
    <glyph glyph-name="afii62761" unicode="&#x628;" horiz-adv-x="398" arabic-form="initial" 
d="M353 262q0 -258 -195 -261h-184v140h108q209 0 209 107q0 59 -85 170l62 96l13 -2q72 -120 72 -250zM225 -214l63 -107l-63 -105l-64 105z" />
    <glyph glyph-name="afii62762" unicode="&#x628;" horiz-adv-x="529" arabic-form="medial" 
d="M556 1h-155q-85 39 -126 150h-15q-8 -29 -23 -55.5t-33.5 -47t-39.5 -33.5t-40 -14h-144v140h82q45 2 78.5 13.5t57.5 37.5t43 70.5t34 110.5q19 -100 23 -102q5 -22 16.5 -45t26.5 -42t31 -31t32 -12h3h4h145v-140zM263 -215l58 -107l-58 -107l-59 107z" />
    <glyph glyph-name="afii57417" unicode="&#x629;" horiz-adv-x="694" arabic-form="isolated" 
d="M526.5 45q-70.5 -68 -172.5 -73h-17q-96 0 -175 41q-89 40 -101 152q0 78 53.5 150.5t155.5 156.5l-47 47l113 110q153 -124 215 -219q52 -88 52 -178v-18q-6 -101 -76.5 -169zM440 299.5q-29 40.5 -104 104.5q-127 -113 -131.5 -170t31.5 -83t98.5 -29t97.5 27t36 70
t-28 80.5zM69 993l84 115l84 -113l-84 -116zM417 993l84 115l84 -113l-84 -116z" />
    <glyph glyph-name="afii62764" unicode="&#x629;" horiz-adv-x="851" arabic-form="final" 
d="M654 230q15 -79 85 -88h124v-143h-160q-124 0 -164 170q-136 -70 -245 -77t-155 39q-32 34 -32 83q0 21 6 42q18 77 100 154t260 156l-18 145l131 58zM519 256l-32 223q-168 -64 -220.5 -162.5t32 -116t220.5 55.5zM264 1145l84 116l84 -113l-84 -117zM612 1145l84 116
l84 -113l-84 -117z" />
    <glyph glyph-name="afii57418" unicode="&#x62a;" horiz-adv-x="1117" arabic-form="isolated" 
d="M1039 358l-28 -117q-7 -35 -28.5 -70t-50.5 -64.5t-62 -49.5t-63 -25q-111 -25 -234 -25q-309 0 -433 207q-13 23 -19 61.5t-6 94.5q0 113 25 157q5 -7 11 -37t17 -87q9 -54 22.5 -95t37 -70.5t58 -50t87.5 -33.5q58 -14 106 -18.5t94 -5.5q388 0 388 187q0 38 -73 171
q23 32 89 95q62 -185 62 -225zM475 740l60 -108l-59 -107l-60 106zM656 740l59 -109l-59 -101l-61 103z" />
    <glyph glyph-name="afii62767" unicode="&#x62a;" horiz-adv-x="1180" arabic-form="final" 
d="M1204 1h-144q-21 0 -44 16t-44 40.5t-35.5 54t-17.5 57.5q-8 -4 -46 -80q-22 -28 -37.5 -47.5t-35 -32t-44.5 -20.5t-66 -16q-72 -13 -124.5 -17.5t-87.5 -3.5q-61 0 -105 4t-69 17l-55 27q-33 11 -50 37q-20 13 -66 79q-26 60 -26 125q0 34 37 157h19q-6 -53 -9.5 -80.5
t-3.5 -32.5q0 -35 7.5 -62.5t17.5 -46.5t20 -32t15 -17q65 -58 208 -58h128q99 0 166 17t98 51q17 18 43 57t66 104h16q6 -39 15 -66t23.5 -44.5t35.5 -28.5t51 -18h144v-140zM473 731l56 -105l-55 -109l-57 109zM642 734l57 -108l-57 -105l-55 105z" />
    <glyph glyph-name="afii62765" unicode="&#x62a;" horiz-adv-x="431" arabic-form="initial" 
d="M340 256q0 -255 -188 -255h-170v140h102q98 0 147.5 24t49.5 79q0 59 -83 171l60 94q5 0 13 -3q69 -117 69 -250zM167 917l59 -109l-59 -107l-61 106zM347 917l59 -110l-62 -102l-57 104z" />
    <glyph glyph-name="afii62766" unicode="&#x62a;" horiz-adv-x="561" arabic-form="medial" 
d="M581 1h-163q-86 34 -131 147h-16q-6 -26 -21 -52.5t-35.5 -47.5t-43 -34t-41.5 -13h-151v140h85q47 0 80.5 11t60 36.5t45.5 70t37 111.5q11 -49 17 -74t7 -29q5 -20 17 -42.5t28.5 -41t35.5 -30.5t38 -12h151v-140zM205 917l60 -109l-59 -107l-63 106zM387 917l61 -110
l-61 -102l-61 104z" />
    <glyph glyph-name="afii57419" unicode="&#x62b;" horiz-adv-x="1501" arabic-form="isolated" 
d="M115 380q12 -252 243 -238h528q183 -5 276.5 17t114.5 106t-79 249l119 109q41 -84 70 -182q14 -52 14 -108q0 -52 -13 -107q-24 -119 -139 -174q-112 -53 -320 -53h-591q-241 6 -285 257q-2 29 -2 58q0 135 64 258q14 17 26 0q-29 -127 -26 -192zM463 699l84 115
l84 -113l-84 -116zM811 699l84 115l84 -113l-84 -116zM641 1001l84 116l84 -113l-84 -117z" />
    <glyph glyph-name="afii62770" unicode="&#x62b;" horiz-adv-x="1693" arabic-form="final" 
d="M465 662l88 107l84 -107l-84 -117zM758 662l87 107l83 -107l-83 -117zM1327 314q16 17 31 0q25 -145 176 -172h178v-143h-178q-165 20 -207 170q-131 -137 -293.5 -198.5t-306.5 -61.5h-178q-380 2 -486 207q-24 67 -24 133q0 122 86 235q12 9 18 9q9 0 12 -9
q-40 -113 -23 -233t132 -160.5t271 -37.5h223q307 -1 569 261zM615 938l88 107l82 -107l-82 -117z" />
    <glyph glyph-name="afii62768" unicode="&#x62b;" horiz-adv-x="614" arabic-form="initial" 
d="M626 986l-87 -119l-82 119l82 115zM342 986l-88 -119l-82 119l82 115zM455 597q107 -173 86 -367q-17 -211 -252 -231h-289v143h328q124 10 124 121.5t-116 189.5q59 76 119 144zM302 1241l89 107l82 -107l-82 -116z" />
    <glyph glyph-name="afii62769" unicode="&#x62b;" horiz-adv-x="700" arabic-form="medial" 
d="M311 890l-88 -121l-87 121l87 113zM598 890l-90 -121l-88 121l88 113zM336 458q17 15 30 0q17 -109 78.5 -209.5t167.5 -106.5h110v-143h-136q-164 20 -220 201q-42 -181 -230 -201h-136v143h104q101 6 160.5 104.5t71.5 211.5zM266 1178l89 107l82 -107l-82 -117z" />
    <glyph glyph-name="afii57420" unicode="&#x62c;" horiz-adv-x="965" arabic-form="isolated" 
d="M899 -787q-143 -192 -322 -192q-240 0 -379 248q-108 192 -108 366q0 155 54 296q54 144 146 223q6 6 13 13.5t17 20.5q20 11 30.5 16t19.5 9.5t18.5 11.5t27 19.5t47 36t76.5 62.5q-24 14 -57.5 23t-68 14t-65.5 6t-52 1q-118 0 -136 -170q0 -3 -12 -22q-20 6 -20 49
q0 41 12 136q3 25 18 48t37 41t50.5 30t56.5 14l353 -82q19 -3 33.5 -5t20.5 -2h149v-26q0 -3 -4 -17t-10 -31t-11.5 -31.5t-5.5 -16.5q-216 -35 -283 -79l-122 -78q-62 -41 -107 -86t-71 -96q-11 -22 -24.5 -61t-25.5 -83t-19.5 -86.5t-7.5 -68.5q0 -113 36 -209t94.5 -167
t132 -111.5t147.5 -40.5q58 0 228 54q17 7 40 19t54 26v-22zM574 -261l63 -105l-63 -108l-60 108z" />
    <glyph glyph-name="afii62773" unicode="&#x62c;" horiz-adv-x="1028" arabic-form="final" 
d="M1055 1h-205q-60 0 -99.5 8t-63.5 29t-35.5 55t-16.5 85q-2 12 -5.5 25.5t-10.5 26.5h-15q-6 -4 -24 -16.5t-41.5 -28.5t-49 -35.5t-49 -37t-41.5 -30.5t-25 -20q-197 -140 -197 -404q0 -88 23.5 -172.5t64 -154.5t97 -120.5t123.5 -69.5q44 -12 67 -17.5t29 -4.5
q38 0 81.5 10t94.5 36q12 7 54.5 28.5t114.5 61.5v-23q-168 -226 -382 -226q-151 0 -253 100q-46 43 -85.5 111.5t-76.5 161.5q-36 93 -36 244q0 182 65 307q31 58 78 111t114 102l231 174l-2 4t-5 7q-218 40 -253 40q-34 0 -60 -12.5t-46 -41.5q-8 -10 -28 -50.5
t-57 -103.5q-17 -9 -20 -9v22q0 21 4.5 48t14.5 57.5t22 61t25.5 57.5t28.5 46.5t30 28.5q28 16 51 16q6 0 16 -3l383 -66l152 20h37q-2 -28 -6.5 -62t-8.5 -76q-48 -10 -76 -14t-44 -9t-27 -13t-27 -24q0 -10 5 -27t14 -33t18 -28t17 -12h316v-140zM553 -220l63 -105
l-63 -110l-64 110z" />
    <glyph glyph-name="afii62771" unicode="&#x62c;" horiz-adv-x="851" arabic-form="initial" 
d="M764 322q-8 -27 -13 -59.5t-10 -71.5q-5 -3 -25 -3q-5 0 -11.5 0.5t-14.5 0.5h-74q-22 0 -38 -3t-36 -14.5t-45 -32.5t-66 -56q-13 -10 -39 -24.5t-54.5 -28t-56 -21.5t-44.5 -8h-257v140h358q58 0 157 100q0 6 -20.5 17t-46.5 22.5t-48.5 20.5t-28.5 12q-121 52 -148 52
q-65 0 -134 -92h-16v24q0 2 5.5 14t12.5 29t17 37t19.5 38t16.5 31.5t11 18.5q30 41 63 41q5 0 25 -10.5t44 -25.5t47.5 -30.5t35.5 -23.5q7 -6 14 -11t26.5 -13.5t59 -22.5t112.5 -38q6 -8 23 -9h179zM294 -215l62 -107l-62 -107l-62 107z" />
    <glyph glyph-name="afii62772" unicode="&#x62c;" horiz-adv-x="924" arabic-form="medial" 
d="M949 1h-211q-47 0 -76.5 11t-45.5 36.5t-22 64t-6 94.5v11t1 11q0 3 -7 18l-222 -149q-141 -97 -228 -97h-155v140h203q49 0 108 30q21 11 74.5 44.5t141.5 97.5l-4 6q-233 88 -275 88q-56 0 -120 -110q-9 7 -12 7q2 43 12 84.5t28 73t42 50t52 18.5q58 0 218 -85l94 -27
l26 -8q0 -3 -5 -3l282 17l-44 -114l-89 -23q-59 -27 -59 -90q0 -56 39 -56h260v-140zM450 -213l61 -106l-61 -106l-63 106z" />
    <glyph glyph-name="afii57421" unicode="&#x62d;" horiz-adv-x="965" arabic-form="isolated" 
d="M899 -787q-143 -192 -322 -192q-240 0 -379 248q-108 192 -108 366q0 155 54 296q54 144 146 223q6 6 13 13.5t17 20.5q20 11 30.5 16t19.5 9.5t18.5 11.5t27 19.5t47 36t76.5 62.5q-24 14 -57.5 23t-68 14t-65.5 6t-52 1q-118 0 -136 -170q0 -3 -12 -22q-20 6 -20 49
q0 41 12 136q3 25 18 48t37 41t50.5 30t56.5 14l353 -82q19 -3 33.5 -5t20.5 -2h149v-26q0 -3 -4 -17t-10 -31t-11.5 -31.5t-5.5 -16.5q-216 -35 -283 -79l-122 -78q-62 -41 -107 -86t-71 -96q-11 -22 -24.5 -61t-25.5 -83t-19.5 -86.5t-7.5 -68.5q0 -113 36 -209t94.5 -167
t132 -111.5t147.5 -40.5q58 0 228 54q17 7 40 19t54 26v-22z" />
    <glyph glyph-name="afii62776" unicode="&#x62d;" horiz-adv-x="1028" arabic-form="final" 
d="M1055 1h-205q-60 0 -99.5 8t-63.5 29t-35.5 55t-16.5 85q-2 12 -5.5 25.5t-10.5 26.5h-15q-6 -4 -24 -16.5t-41.5 -28.5t-49 -35.5t-49 -37t-41.5 -30.5t-25 -20q-197 -140 -197 -404q0 -88 23.5 -172.5t64 -154.5t97 -120.5t123.5 -69.5q44 -12 67 -17.5t29 -4.5
q38 0 81.5 10t94.5 36q12 7 54.5 28.5t114.5 61.5v-23q-168 -226 -382 -226q-151 0 -253 100q-46 43 -85.5 111.5t-76.5 161.5q-36 93 -36 244q0 182 65 307q31 58 78 111t114 102l231 174l-2 4t-5 7q-218 40 -253 40q-34 0 -60 -12.5t-46 -41.5q-8 -10 -28 -50.5
t-57 -103.5q-17 -9 -20 -9v22q0 21 4.5 48t14.5 57.5t22 61t25.5 57.5t28.5 46.5t30 28.5q28 16 51 16q6 0 16 -3l383 -66l152 20h37q-2 -28 -6.5 -62t-8.5 -76q-48 -10 -76 -14t-44 -9t-27 -13t-27 -24q0 -10 5 -27t14 -33t18 -28t17 -12h316v-140z" />
    <glyph glyph-name="afii62774" unicode="&#x62d;" horiz-adv-x="851" arabic-form="initial" 
d="M764 322q-8 -27 -13 -59.5t-10 -71.5q-5 -3 -25 -3q-5 0 -11.5 0.5t-14.5 0.5h-74q-22 0 -38 -3t-36 -14.5t-45 -32.5t-66 -56q-13 -10 -39 -24.5t-54.5 -28t-56 -21.5t-44.5 -8h-257v140h358q58 0 157 100q0 6 -20.5 17t-46.5 22.5t-48.5 20.5t-28.5 12q-121 52 -148 52
q-65 0 -134 -92h-16v24q0 2 5.5 14t12.5 29t17 37t19.5 38t16.5 31.5t11 18.5q30 41 63 41q5 0 25 -10.5t44 -25.5t47.5 -30.5t35.5 -23.5q7 -6 14 -11t26.5 -13.5t59 -22.5t112.5 -38q6 -8 23 -9h179z" />
    <glyph glyph-name="afii62775" unicode="&#x62d;" horiz-adv-x="924" arabic-form="medial" 
d="M949 1h-211q-47 0 -76.5 11t-45.5 36.5t-22 64t-6 94.5v11t1 11q0 3 -7 18l-222 -149q-141 -97 -228 -97h-155v140h203q49 0 108 30q21 11 74.5 44.5t141.5 97.5l-4 6q-233 88 -275 88q-56 0 -120 -110q-9 7 -12 7q2 43 12 84.5t28 73t42 50t52 18.5q58 0 218 -85l94 -27
l26 -8q0 -3 -5 -3l282 17l-44 -114l-89 -23q-59 -27 -59 -90q0 -56 39 -56h260v-140z" />
    <glyph glyph-name="afii57422" unicode="&#x62e;" horiz-adv-x="985" arabic-form="isolated" 
d="M923 -803q-140 -192 -314 -192q-239 0 -374 248q-106 195 -106 368q0 151 52 295q14 43 32.5 77t41 64.5t47.5 57.5t53 56q15 10 39.5 26t62.5 40q2 1 30 23.5t84 66.5q-8 6 -17.5 11t-21.5 7q-60 16 -109.5 21t-90.5 7q-117 0 -133 -171q-3 -3 -6.5 -8t-8.5 -13
q-17 7 -17 48q0 21 2 54.5t8 79.5q2 25 16 48t35 41t48.5 30t61.5 15l347 -80q15 0 18 -0.5t3.5 -1t5 -1.5t21 -2t51.5 -1.5t97 -0.5v-29l-4 -14.5t-9.5 -32t-10 -31.5t-6.5 -17q-106 -17 -174.5 -36t-103.5 -42l-119 -78q-63 -42 -106.5 -87.5t-67.5 -95.5
q-12 -23 -25 -62.5t-25 -83.5t-19.5 -84.5t-7.5 -68.5q0 -59 14.5 -122.5t39 -123.5t58.5 -110.5t73 -83.5q111 -87 221 -87q54 0 223 53q15 9 38 21t53 26v-24zM423 859l61 -107l-61 -106l-61 106z" />
    <glyph glyph-name="afii62779" unicode="&#x62e;" horiz-adv-x="947" arabic-form="final" 
d="M974 1h-185q-58 0 -93 9t-56 29t-31 54t-16 82q-2 14 -5.5 27t-8.5 27h-13q-27 -26 -45 -42t-31 -27t-25 -20t-26 -19t-33 -24t-48 -36q-179 -142 -179 -406q0 -87 22 -171t59 -154.5t88.5 -120.5t110.5 -70q37 -13 58 -17.5t28 -4.5q33 0 73 10t86 35q13 7 51 31t101 60
v-22q-150 -226 -344 -226q-130 0 -219 89q-90 89 -157 284q-31 90 -31 243q0 182 59 308q49 109 173 212l208 173l-6 13q-100 19 -157 29.5t-73 10.5q-31 0 -54 -14t-41 -40q-13 -22 -78 -155q-14 -7 -18 -7v20q0 25 7.5 60.5t19.5 73.5t26 73t29 61q3 6 11.5 15t19.5 16
t23 12t23 5q2 0 6 -1t9 -2l347 -67l136 18h33q-2 -20 -4 -54.5t-8 -81.5q-38 -8 -58.5 -11.5t-24.5 -3.5q-46 -11 -74 -45q0 -9 5.5 -25.5t12.5 -32.5t15.5 -28t15.5 -12h286v-140zM429 913l56 -107l-56 -106l-60 106z" />
    <glyph glyph-name="afii62777" unicode="&#x62e;" horiz-adv-x="827" arabic-form="initial" 
d="M754 319q-5 -28 -11 -59t-13 -71q-5 -2 -13.5 -3t-21.5 -1q-8 0 -13 3h-74q-22 0 -37.5 -3.5t-34 -14.5t-44.5 -32t-68 -57q-13 -12 -38.5 -26.5t-54 -26.5t-56 -19.5t-45.5 -7.5h-256v140h356q57 0 156 97q0 7 -20 18t-46 22.5t-49 21t-27 10.5q-62 28 -98.5 40
t-48.5 13q-67 0 -134 -92h-16v20q0 2 10.5 24.5t23.5 51t27 56.5t22 40q14 21 28.5 32t33.5 11q3 0 16 -7.5t31 -18.5t38.5 -24t38 -23.5t29 -18t9.5 -7.5q60 -31 200 -79q1 -3 22 -9h178zM226 917l60 -108l-60 -105l-61 105z" />
    <glyph glyph-name="afii62778" unicode="&#x62e;" horiz-adv-x="902" arabic-form="medial" 
d="M925 1h-205q-42 0 -70.5 10t-45.5 34t-24.5 62.5t-7.5 95.5v27q0 6 -6 17l-217 -149q-138 -97 -221 -97h-151v140h198q46 0 104 34q41 15 212 138q0 2 -4 6q-226 91 -268 91q-52 0 -117 -112q-11 6 -12 6q1 45 12 86t28 72.5t40.5 50t50.5 18.5q56 0 214 -86l90 -27
q24 -7 24 -8l274 14l-44 -113l-88 -24q-58 -27 -58 -88q0 -58 38 -58h254v-140zM343 922l61 -105l-61 -107l-60 107z" />
    <glyph glyph-name="afii57423" unicode="&#x62f;" horiz-adv-x="644" arabic-form="isolated" 
d="M557 297q0 -66 -17.5 -117t-43 -87t-52.5 -56.5t-46 -26.5q-24 -9 -134 -9q-85 0 -114 13q-10 20 -22 52t-25 75h272q21 0 43 12.5t39.5 32.5t29.5 42.5t12 44.5q0 126 -239 295q11 22 26.5 55t34.5 78h17q70 -81 112.5 -133.5t55.5 -73.5q51 -85 51 -197z" />
    <glyph glyph-name="afii62780" unicode="&#x62f;" horiz-adv-x="848" arabic-form="final" 
d="M879 1h-135q-9 0 -25.5 4t-34 10t-32.5 12.5t-19 10.5q-33 15 -44 47l-42 127q-22 -37 -55.5 -87t-80.5 -114q0 -4 -15 -13.5t-33.5 -19t-36 -17t-23.5 -7.5q-35 0 -68 25t-57.5 66t-40 91.5t-15.5 100.5q0 6 0.5 10t0.5 9q24 -14 78 -115q37 -52 76 -52h15q28 0 69 28.5
t92 85.5q34 36 49.5 59t15.5 31q-16 44 -39 87.5t-52 94.5l-96 120q5 2 61 145q5 0 11 -3q24 -51 49 -102.5t50 -107.5l112 -300q17 -74 62 -86h203v-140z" />
    <glyph glyph-name="afii57424" unicode="&#x630;" horiz-adv-x="881" arabic-form="isolated" 
d="M785 250q-29 -247 -324 -251h-308l-58 143h342q127 0 208.5 56.5t12.5 140.5q-141 157 -336 281l126 143q119 -116 235 -240q104 -111 104 -239q0 -17 -2 -34zM460 1185l-95 -130l-92 130l92 131z" />
    <glyph glyph-name="afii62781" unicode="&#x630;" horiz-adv-x="1126" arabic-form="final" 
d="M877 200q40 -58 109 -58h157v-143h-208q-87 0 -230 231q-88 -160 -158.5 -209t-183.5 -49h-6q-165 0 -217 80q-43 64 -43 162q0 24 2 49q0 45 27 24q47 -121 144 -154.5t192.5 -3t185.5 180.5l-232 319l115 177zM509 1185l-95 -130l-93 130l93 131z" />
    <glyph glyph-name="afii57425" unicode="&#x631;" horiz-adv-x="513" arabic-form="isolated" 
d="M453 -154q0 -93 -25.5 -176t-71 -148t-108.5 -108t-139 -54q-32 -1 -68 -20h-16v20q16 21 19 23q353 263 353 430q0 16 -8 41.5t-18.5 50.5t-21 46t-14.5 32q-87 114 -87 127q0 21 66 110q35 -41 61 -90t43 -99t26 -98t9 -87z" />
    <glyph glyph-name="afii62782" unicode="&#x631;" horiz-adv-x="630" arabic-form="final" 
d="M664 1h-177q-17 0 -24 -10v-86q0 -119 -44.5 -234.5t-129.5 -245.5q-63 -71 -257 -95q0 16 14 27q101 61 226 230q133 194 133 314q0 38 -3.5 64t-17.5 53t-40 59.5t-72 82.5q6 17 16 46.5t28 68.5q58 -68 126 -134h222v-140z" />
    <glyph glyph-name="afii57426" unicode="&#x632;" horiz-adv-x="542" arabic-form="isolated" 
d="M350 903l66 -106l-66 -108l-66 108zM472 -166q0 -93 -28 -176.5t-77.5 -149t-116 -108t-144.5 -52.5q-42 -1 -74 -20h-17v20q10 10 14.5 16t5.5 7q376 263 376 430q0 18 -7 42.5t-18 49t-22.5 46t-19.5 32.5q-43 55 -67 85t-24 41q0 10 16.5 37t55.5 74q37 -43 64 -93
t46 -99t28 -96t9 -86z" />
    <glyph glyph-name="afii62783" unicode="&#x632;" horiz-adv-x="655" arabic-form="final" 
d="M684 1h-187q-17 0 -24 -10v-85q0 -120 -47.5 -236.5t-134.5 -244.5q-66 -73 -269 -95q0 16 14 27q102 57 237 232q72 95 105.5 173t34.5 139q0 78 -43 148q-10 13 -34 40.5t-63 70.5q5 17 16 46t31 69q31 -34 62.5 -67t69.5 -67h232v-140zM311 920l66 -107l-66 -106
l-66 106z" />
    <glyph glyph-name="afii57427" unicode="&#x633;" horiz-adv-x="1591" arabic-form="isolated" 
d="M1503 218q0 -23 -8.5 -53.5t-20.5 -60t-27 -51.5t-29 -27q-32 -12 -53 -16.5t-33 -5.5q-102 0 -171 137q-16 -30 -40 -60t-49 -60q-13 -10 -52 -10q-25 0 -43 7t-31 14.5t-23.5 16t-20.5 12.5q-3 -5 -3 -12q0 -11 3 -30t7.5 -40.5t8.5 -41t4 -27.5q0 -61 -6.5 -105.5
t-23.5 -80.5t-45.5 -68.5t-74.5 -73.5l-7 -8q-54 -47 -102 -76.5t-90.5 -47t-81 -24.5t-73.5 -7q-86 0 -137 19q-21 10 -125 93q-8 9 -18 35.5t-18 59.5t-14 67t-6 57q0 17 3.5 46.5t9.5 65t14 72t15 67.5t13.5 53t11.5 29h22v-28q0 -12 -4.5 -39t-8.5 -56.5t-7.5 -57
t-3.5 -41.5q0 -257 143 -279q1 0 14 -3.5t28.5 -7.5t31.5 -7t23 -3q56 0 116.5 16.5t117.5 45t106 65.5t77 79q36 48 36 137q0 127 -123 226q15 46 60 117q11 -8 33.5 -26.5t55.5 -49.5q38 -37 97 -37q110 0 173 165q8 0 18 -19q44 -152 171 -152q79 0 79 41
q-9 18 -17.5 37.5t-15 35t-11.5 26l-5 10.5l76 95q7 -5 16 -26.5t17.5 -47.5t14.5 -49t6 -32z" />
    <glyph glyph-name="afii62786" unicode="&#x633;" horiz-adv-x="1495" arabic-form="final" 
d="M1525 1h-91q-18 0 -35.5 13.5t-34 32t-30 39t-20.5 33.5l-5 -1q-60 -111 -107 -111q-36 0 -74 61l-39 56q-2 0 -10.5 -13.5t-17.5 -31.5t-16 -34.5t-7 -22.5q-26 -15 -74 -15l-96 55q20 -183 22 -183q0 -208 -194 -338q-159 -103 -309 -103q-176 0 -295 163
q-42 59 -41 190q0 169 81 315h19q-41 -219 -41 -255q0 -25 9 -57t24 -63t35.5 -60t41.5 -47q63 -50 195 -50q31 0 77 6.5t111 20.5q5 3 14 8.5t22 13.5q51 26 87 63t58.5 76.5t33.5 78t11 69.5q0 115 -142 241q11 22 24 50.5t33 65.5q124 -113 200 -113q49 0 83 43
q8 10 23.5 41t41.5 85q2 0 24 -82q21 -87 85 -87q18 0 31 7.5t26.5 26.5t27 52.5t30.5 87.5q8 -30 20 -65.5t28 -77.5q28 -44 78 -44h83v-140z" />
    <glyph glyph-name="afii62784" unicode="&#x633;" horiz-adv-x="939" arabic-form="initial" 
d="M861 208q0 -14 -8 -40.5t-20.5 -53t-25.5 -48t-25 -26.5l-75 -29q-109 0 -170 119q-3 -3 -13 -22.5t-27.5 -41t-40 -38.5t-50.5 -17q-80 0 -136 119q-8 -26 -43 -92q-37 -37 -92 -37h-155v140h106q96 0 124 41q18 25 45 155q18 -54 33.5 -88.5t31.5 -54t33.5 -27
t39.5 -7.5q31 0 52 15.5t34 40.5t22 55t19 60q12 -36 32.5 -70.5t44.5 -61t49.5 -42.5t48.5 -16q70 0 70 58q0 7 -6.5 20.5t-15 28t-17.5 26.5t-14 16q8 14 23 41t39 66q18 -11 34 -32t27 -47.5t18.5 -54.5t7.5 -55z" />
    <glyph glyph-name="afii62785" unicode="&#x633;" horiz-adv-x="904" arabic-form="medial" 
d="M935 1h-145q-6 0 -18.5 9.5t-26 22t-23 25t-10.5 21.5q-4 6 -7.5 19.5t-10.5 37.5q-34 -67 -56 -100t-55 -33q-25 0 -53.5 32t-70.5 95q-3 -8 -11.5 -29t-22 -42.5t-34 -38.5t-49.5 -17q-68 0 -116 124q-7 -20 -17 -42t-26.5 -40.5t-40.5 -31t-63 -12.5h-98v140h156
q17 16 27 29t18.5 33t19.5 50t29 79q7 -21 19 -54.5t32 -84.5q22 -42 63 -42q18 0 34 13.5t30 37t26.5 56.5t23.5 74l3 -1q3 -28 12.5 -56t24 -51.5t31.5 -38t34 -14.5h13q21 0 36 6t27 23t23.5 46t25.5 77q12 -45 26 -79.5t31 -56.5t39.5 -34t52.5 -12h97v-140z" />
    <glyph glyph-name="afii57428" unicode="&#x634;" horiz-adv-x="1562" arabic-form="isolated" 
d="M1448 214q0 -21 -7 -52t-19 -60t-26.5 -52t-29.5 -29q-27 -10 -45.5 -15t-32.5 -5q-99 0 -164 135q-7 -17 -19 -39.5t-28 -42.5t-36.5 -33.5t-46.5 -13.5q-22 0 -38 5t-29 13t-24 16.5t-22 13.5q-4 -2 -4 -10q0 -10 3.5 -29t7.5 -41l8 -40q5 -17 5 -29q0 -62 -7.5 -107.5
t-25 -82.5t-44.5 -70t-66 -69l-4 -7q-48 -44 -92 -73.5t-85.5 -47.5t-79 -26t-72.5 -8q-88 0 -130 18q-13 5 -41 28.5t-74 64.5q-10 11 -19.5 39.5t-17 62t-12.5 67.5t-5 52q0 12 3.5 39t8.5 61t12 71t14.5 70t13.5 57.5t9 33.5h22v-27q0 -14 -4.5 -41.5t-8.5 -57t-7 -56.5
t-3 -39q0 -258 134 -281q28 -7 51 -14t43 -7q50 0 108 16.5t112.5 45t100 65.5t71.5 79q34 52 34 137q0 127 -116 228q6 21 19.5 50.5t36.5 64.5q24 -12 83 -75q36 -37 93 -37q100 0 164 165q4 0 15 -18q43 -154 165 -154q73 0 73 42q-19 41 -33.5 72.5t-14.5 36.5l73 95
q4 -5 13 -26.5t16.5 -46.5t14 -49t6.5 -33zM1086 925l-64 106l64 106l62 -106zM1183 673l-62 106l62 106l64 -106zM996 669l-61 110l61 102l62 -105z" />
    <glyph glyph-name="afii62789" unicode="&#x634;" horiz-adv-x="1350" arabic-form="final" 
d="M1378 1h-77q-17 0 -34 13.5t-31.5 32t-26 38t-15.5 31.5l-6 -4q-46 -110 -91 -110q-31 0 -63 61l-34 58q-5 0 -12 -16.5t-15 -35.5t-15 -36.5t-12 -21.5q-11 -9 -53 -9q0 5 -86 56q18 -178 20 -184q-3 -208 -168 -336q-134 -105 -267 -105q-154 0 -256 165
q-36 59 -36 189q0 172 70 316h18q-18 -110 -26.5 -172.5t-8.5 -83.5q0 -25 7.5 -57.5t21 -64t30 -60t36.5 -44.5q56 -51 168 -51q12 0 34 0.5t48.5 5.5t56 15t55.5 28q106 62 139 173q11 37 19 65t6 49q0 114 -122 242q10 21 22.5 50t27.5 67q105 -114 173 -114
q19 0 38.5 10t33.5 32q7 10 20 41.5t34 86.5q4 1 4 2q36 -172 91 -172q16 0 27 5t22 24t22.5 52.5t29.5 90.5q6 -26 16.5 -61.5t26.5 -79.5q20 -41 65 -41h73v-140zM918 669l-57 107l57 105l58 -105zM1000 923l-58 108l58 106l56 -106zM1090 670l-56 109l56 106l58 -106z
" />
    <glyph glyph-name="afii62787" unicode="&#x634;" horiz-adv-x="912" arabic-form="initial" 
d="M833 212q0 -13 -7.5 -40t-19.5 -55t-25.5 -50t-25.5 -26l-70 -26q-107 0 -166 118q-6 -14 -17.5 -34t-28 -39t-36.5 -32t-44 -13q-79 0 -132 118q-6 -17 -15.5 -40t-24 -42.5t-37.5 -34t-54 -15.5h-151v140h103q90 0 120 43q16 22 45 155q14 -49 28.5 -82.5t30.5 -54
t34 -29.5t40 -9q33 0 53 15.5t32 40t20.5 54.5t17.5 58q11 -35 29.5 -68t41.5 -60t49 -43t50 -16q67 0 67 56q0 7 -6 20.5t-14 26.5t-15.5 25t-13.5 18q7 19 22.5 45t37.5 64q16 -11 31 -32.5t26.5 -48t18 -55t6.5 -52.5zM598 673l-65 106l65 106l66 -106zM400 669l-65 110
l65 102l66 -105zM495 925l-67 106l67 106l66 -106z" />
    <glyph glyph-name="afii62788" unicode="&#x634;" horiz-adv-x="976" arabic-form="medial" 
d="M996 2h-155q-7 0 -20 8.5t-26.5 20.5t-24 25.5t-11.5 23.5q-4 6 -8 19.5t-13 35.5q-17 -36 -31 -60.5t-28 -40t-28 -23t-30 -7.5q-52 0 -132 127q-4 -9 -12.5 -30t-23.5 -42.5t-37.5 -38t-54.5 -16.5q-72 0 -122 124q-11 -24 -22.5 -47t-29.5 -41t-43 -28t-63 -10h-106
v140h166q18 13 29 28t21.5 37t22 52.5t29.5 73.5q7 -20 20 -54t34 -85q25 -42 68 -42q20 0 36 13t29.5 36.5t27.5 57t31 74.5l1 -4q3 -27 14 -55.5t25.5 -51t33 -36.5t37.5 -14h13q23 0 39.5 6t29 23t24.5 46.5t27 77.5q14 -46 28 -79.5t33 -56.5t42 -35t57 -12h103v-140z
M593 674l-67 107l67 105l67 -105zM391 670l-68 111l68 102l66 -106zM489 926l-69 107l69 105l67 -105z" />
    <glyph glyph-name="afii57429" unicode="&#x635;" horiz-adv-x="2045" arabic-form="isolated" 
d="M2054 10h-697q-74 4 -112 40q24 -143 6 -290q-16 -149 -100 -237q-84 -87 -206 -128q-117 -41 -243 -41q-61 0 -121 6.5t-119 20.5q-117 25 -208 123q-91 99 -107 231q-4 27 -6 53.5t-2 52.5q0 74 14 141q24 115 87 256l36 -17q-57 -195 -34 -364t147 -264.5t308.5 -88.5
t301.5 85t129 198q13 124 -16 213q-13 45 -33.5 96t-46.5 109l84 166h23q86 -237 138 -232h93q133 349 466 349h11q195 -5 208 -311zM1421 139l500 -2q-20 209 -185 208t-315 -206z" />
    <glyph glyph-name="afii62792" unicode="&#x635;" horiz-adv-x="2046" arabic-form="final" 
d="M2049 10h-697q-74 4 -112 40q24 -143 6 -290q-16 -149 -100 -237q-84 -87 -206 -128q-117 -41 -243 -41q-61 0 -121 6.5t-119 20.5q-117 25 -208 123q-91 99 -107 231q-4 27 -6 53.5t-2 52.5q0 74 14 141q24 115 87 256l36 -17q-57 -195 -34 -364t147 -264.5t308.5 -88.5
t301.5 85t129 198q13 124 -16 213q-13 45 -33.5 96t-46.5 109l84 166h23q86 -237 138 -232h93q133 349 466 349h11q195 -5 208 -311zM1416 139l500 -2q-20 209 -185 208t-315 -206z" />
    <glyph glyph-name="afii62790" unicode="&#x635;" horiz-adv-x="1520" arabic-form="initial" 
d="M1535 -1h-697v2h-126q-33 1 -67 11.5t-66 30t-60 47.5t-47 64q-47 -73 -115 -112t-165 -41h-205v136h197q162 0 276 296q5 8 12 8q5 0 14 -6q58 -188 115 -236q60 -50 126 -60h122q135 337 468 337h10q196 -5 209 -311zM899 139l487 -2q6 210 -169 204t-318 -202z" />
    <glyph glyph-name="afii62791" unicode="&#x635;" horiz-adv-x="1520" arabic-form="medial" 
d="M1528 -1h-697v2h-126q-33 1 -67 11.5t-66 30t-60 47.5t-47 64q-47 -73 -115 -112t-165 -41h-205v136h197q162 0 276 296q5 8 12 8q5 0 14 -6q58 -188 115 -236q60 -50 126 -60h122q135 337 468 337h10q196 -5 209 -311zM892 139l487 -2q6 210 -169 204t-318 -202z" />
    <glyph glyph-name="afii57430" unicode="&#x636;" horiz-adv-x="2045" arabic-form="isolated" 
d="M2054 10h-697q-74 4 -112 40q24 -143 6 -290q-16 -149 -100 -237q-84 -87 -206 -128q-117 -41 -243 -41q-61 0 -121 6.5t-119 20.5q-117 25 -208 123q-91 99 -107 231q-4 27 -6 53.5t-2 52.5q0 74 14 141q24 115 87 256l36 -17q-57 -195 -34 -364t147 -264.5t308.5 -88.5
t301.5 85t129 198q13 124 -16 213q-13 45 -33.5 96t-46.5 109l84 166h23q86 -237 138 -232h93q133 349 466 349h11q195 -5 208 -311zM1421 139l500 -2q-20 209 -185 208t-315 -206zM1655 669l-84 119l84 116l86 -116z" />
    <glyph glyph-name="afii62795" unicode="&#x636;" horiz-adv-x="2046" arabic-form="final" 
d="M2040 10h-697q-74 4 -112 40q24 -143 6 -290q-16 -149 -100 -237q-84 -87 -206 -128q-117 -41 -243 -41q-61 0 -121 6.5t-119 20.5q-117 25 -208 123q-91 99 -107 231q-4 27 -6 53.5t-2 52.5q0 74 14 141q24 115 87 256l36 -17q-57 -195 -34 -364t147 -264.5t308.5 -88.5
t301.5 85t129 198q13 124 -16 213q-13 45 -33.5 96t-46.5 109l84 166h23q86 -237 138 -232h93q133 349 466 349h11q195 -5 208 -311zM1407 139l500 -2q-20 209 -185 208t-315 -206zM1641 669l-84 119l84 116l86 -116z" />
    <glyph glyph-name="afii62793" unicode="&#x636;" horiz-adv-x="1520" arabic-form="initial" 
d="M1535 -1h-697v2h-126q-33 1 -67 11.5t-66 30t-60 47.5t-47 64q-47 -73 -115 -112t-165 -41h-205v136h197q162 0 276 296q5 8 12 8q5 0 14 -6q58 -188 115 -236q60 -50 126 -60h122q135 337 468 337h10q196 -5 209 -311zM899 139l487 -2q6 210 -169 204t-318 -202z
M1103 670l-84 119l84 116l86 -116z" />
    <glyph glyph-name="afii62794" unicode="&#x636;" horiz-adv-x="1520" arabic-form="medial" 
d="M1538 -1h-697v2h-126q-33 1 -67 11.5t-66 30t-60 47.5t-47 64q-47 -73 -115 -112t-165 -41h-205v136h197q162 0 276 296q5 8 12 8q5 0 14 -6q58 -188 115 -236q60 -50 126 -60h122q135 337 468 337h10q196 -5 209 -311zM902 139l487 -2q6 210 -169 204t-318 -202z
M1106 670l-84 119l84 116l86 -116z" />
    <glyph glyph-name="afii57431" unicode="&#x637;" horiz-adv-x="820" arabic-form="isolated" 
d="M372 1204q-57 -38 -54 -86q47 -307 10 -690q96 67 218 71q278 9 276 -334l2 -166h-832v137h139q22 81 47.5 124t54.5 79q19 530 -80 871q0 47 27 84t81 69q55 32 60 32q2 -50 15.5 -97t35.5 -94zM182 136l477 1q1 209 -155.5 216.5t-321.5 -217.5z" />
    <glyph glyph-name="afii62798" unicode="&#x637;" horiz-adv-x="821" arabic-form="final" 
d="M380 1204q-57 -38 -54 -86q47 -307 10 -690q96 67 218 71q278 9 276 -334l2 -166h-832v137h139q22 81 47.5 124t54.5 79q19 530 -80 871q0 47 27 84t81 69q55 32 60 32q2 -50 15.5 -97t35.5 -94zM190 136l477 1q1 209 -155.5 216.5t-321.5 -217.5z" />
    <glyph glyph-name="afii62796" unicode="&#x637;" horiz-adv-x="821" arabic-form="initial" 
d="M380 1204q-57 -38 -54 -86q47 -307 10 -690q96 67 218 71q278 9 276 -334l2 -166h-832v137h139q22 81 47.5 124t54.5 79q19 530 -80 871q0 47 27 84t81 69q55 32 60 32q2 -50 15.5 -97t35.5 -94zM190 136l477 1q1 209 -155.5 216.5t-321.5 -217.5z" />
    <glyph glyph-name="afii62797" unicode="&#x637;" horiz-adv-x="821" arabic-form="medial" 
d="M380 1204q-57 -38 -54 -86q47 -307 10 -690q96 67 218 71q278 9 276 -334l2 -166h-832v137h139q22 81 47.5 124t54.5 79q19 530 -80 871q0 47 27 84t81 69q55 32 60 32q2 -50 15.5 -97t35.5 -94zM190 136l477 1q1 209 -155.5 216.5t-321.5 -217.5z" />
    <glyph glyph-name="afii57432" unicode="&#x638;" horiz-adv-x="820" arabic-form="isolated" 
d="M372 1204q-57 -38 -54 -86q47 -307 10 -690q96 67 218 71q278 9 276 -334l2 -166h-832v137h139q22 81 47.5 124t54.5 79q19 530 -80 871q0 47 27 84t81 69q55 32 60 32q2 -50 15.5 -97t35.5 -94zM182 136l477 1q1 209 -155.5 216.5t-321.5 -217.5zM522 685l-84 118
l84 117l87 -117z" />
    <glyph glyph-name="afii62801" unicode="&#x638;" horiz-adv-x="821" arabic-form="final" 
d="M380 1204q-57 -38 -54 -86q47 -307 10 -690q96 67 218 71q278 9 276 -334l2 -166h-832v137h139q22 81 47.5 124t54.5 79q19 530 -80 871q0 47 27 84t81 69q55 32 60 32q2 -50 15.5 -97t35.5 -94zM190 136l477 1q1 209 -155.5 216.5t-321.5 -217.5zM530 685l-84 118
l84 117l87 -117z" />
    <glyph glyph-name="afii62799" unicode="&#x638;" horiz-adv-x="821" arabic-form="initial" 
d="M380 1204q-57 -38 -54 -86q47 -307 10 -690q96 67 218 71q278 9 276 -334l2 -166h-832v137h139q22 81 47.5 124t54.5 79q19 530 -80 871q0 47 27 84t81 69q55 32 60 32q2 -50 15.5 -97t35.5 -94zM190 136l477 1q1 209 -155.5 216.5t-321.5 -217.5zM530 685l-84 118
l84 117l87 -117z" />
    <glyph glyph-name="afii62800" unicode="&#x638;" horiz-adv-x="821" arabic-form="medial" 
d="M380 1204q-57 -38 -54 -86q47 -307 10 -690q96 67 218 71q278 9 276 -334l2 -166h-832v137h139q22 81 47.5 124t54.5 79q19 530 -80 871q0 47 27 84t81 69q55 32 60 32q2 -50 15.5 -97t35.5 -94zM190 136l477 1q1 209 -155.5 216.5t-321.5 -217.5zM530 685l-84 118
l84 117l87 -117z" />
    <glyph glyph-name="afii57433" unicode="&#x639;" horiz-adv-x="891" arabic-form="isolated" 
d="M290 -885q-190 160 -190 413q0 167 86 307q39 64 90 118t118 97v23q-18 6 -32 18q-99 116 -99 202q0 56 19.5 108t51.5 91.5t75.5 63.5t90.5 24q24 0 60.5 -15.5t75 -41.5t73.5 -56.5t56 -59.5q-23 -26 -40 -26q-213 56 -248 56q-125 0 -125 -106q0 -39 12 -66.5t36 -48
t59 -36t80 -31.5h237q-9 -38 -17.5 -73.5t-14.5 -67.5h-174q-12 0 -36 -7t-48.5 -17.5t-47 -21.5t-31.5 -19q-110 -84 -164 -176t-54 -194q0 -75 22 -143.5t62.5 -124.5t93 -96t115.5 -56q79 -48 182 -48q13 0 60.5 6t131.5 18v-24q-152 -113 -300 -113q-22 0 -75 17.5
t-134 71.5z" />
    <glyph glyph-name="afii62804" unicode="&#x639;" horiz-adv-x="942" arabic-form="final" 
d="M418 -960q-347 173 -347 523q0 254 214 477q126 132 126 149q0 11 -19.5 33.5t-46.5 45.5t-56.5 43.5t-49.5 27.5q-1 17 -1 29.5v20.5q0 32 17.5 50.5t61.5 24.5q5 1 17 11q75 9 121 14t67 5q149 0 267 -88v-121q-110 -49 -156 -90q26 -20 45 -33.5t31 -20.5h264v-140
h-237q-34 0 -214 116q-6 0 -99 -83q-201 -176 -234 -287q-14 -42 -19 -80.5t-5 -72.5q0 -96 32 -181t89 -149.5t134.5 -101.5t166.5 -37q31 0 68.5 5.5t80.5 16.5l138 37l5 -6v-18q-112 -102 -239 -135q0 -12 -48 -12q-34 0 -78.5 7t-95.5 20zM643 328v22q-69 21 -123 21
q-31 -1 -55 -4q-21 -2 -37.5 -5t-16.5 -5q0 -8 13.5 -25.5t30.5 -34.5t33.5 -30.5t25.5 -13.5q3 0 20.5 10t39 23t41.5 25t28 17z" />
    <glyph glyph-name="afii62802" unicode="&#x639;" horiz-adv-x="562" arabic-form="initial" 
d="M493 371q-12 0 -35 7t-50.5 14.5t-57.5 17t-57.5 18.5t-51.5 14.5t-38 5.5q-85 0 -85 -91q0 -49 25.5 -90.5t75.5 -77.5q31 -24 55 -36t45 -12q55 0 170 34q0 -10 -2 -24t-4 -29.5t-4 -32t-2 -30.5q-48 -15 -79 -24t-51.5 -14t-32 -7.5t-20 -3t-16 -1.5t-18.5 -2
q-23 -12 -108 -12q-34 0 -77 1t-96 5v140h112q3 0 3 10q0 24 -26 56q-31 72 -31 121q0 174 141 226q34 13 51 13q36 0 74 -16t74 -42.5t67 -62.5t49 -75z" />
    <glyph glyph-name="afii62803" unicode="&#x639;" horiz-adv-x="642" arabic-form="medial" 
d="M662 1h-77q-38 0 -62 1.5t-42.5 8t-38.5 20.5t-49 38l-61 49q-40 -27 -70.5 -49t-55.5 -37.5t-49 -23t-52 -7.5h-127v140h161q63 0 110 44q-5 20 -22 43t-39.5 44t-46 36t-38.5 15v77q0 27 19 40q82 20 131.5 29.5t71.5 9.5q6 0 59.5 -13t155.5 -37q4 -29 6.5 -51
t2.5 -40q-2 -7 -4 -13t-3 -8q-67 -61 -132 -129q0 -15 17.5 -26t40.5 -21h194v-140zM436 352q-63 0 -114.5 -1t-89.5 -1q102 -107 106 -107q10 0 25 13t30 30.5t27 37t16 28.5z" />
    <glyph glyph-name="afii57434" unicode="&#x63a;" horiz-adv-x="891" arabic-form="isolated" 
d="M290 -885q-190 160 -190 413q0 167 86 307q39 64 90 118t118 97v23q-18 6 -32 18q-99 116 -99 202q0 56 19.5 108t51.5 91.5t75.5 63.5t90.5 24q24 0 60.5 -15.5t75 -41.5t73.5 -56.5t56 -59.5q-23 -26 -40 -26q-213 56 -248 56q-125 0 -125 -106q0 -39 12 -66.5t36 -48
t59 -36t80 -31.5h237q-9 -38 -17.5 -73.5t-14.5 -67.5h-174q-12 0 -36 -7t-48.5 -17.5t-47 -21.5t-31.5 -19q-110 -84 -164 -176t-54 -194q0 -75 22 -143.5t62.5 -124.5t93 -96t115.5 -56q79 -48 182 -48q13 0 60.5 6t131.5 18v-24q-152 -113 -300 -113q-22 0 -75 17.5
t-134 71.5zM498 1087l69 -106l-69 -107l-68 107z" />
    <glyph glyph-name="afii62807" unicode="&#x63a;" horiz-adv-x="942" arabic-form="final" 
d="M418 -960q-347 173 -347 523q0 254 214 477q126 132 126 149q0 11 -19.5 33.5t-46.5 45.5t-56.5 43.5t-49.5 27.5q-1 17 -1 29.5v20.5q0 32 17.5 50.5t61.5 24.5q5 1 17 11q75 9 121 14t67 5q149 0 267 -88v-121q-110 -49 -156 -90q26 -20 45 -33.5t31 -20.5h264v-140
h-237q-34 0 -214 116q-6 0 -99 -83q-201 -176 -234 -287q-14 -42 -19 -80.5t-5 -72.5q0 -96 32 -181t89 -149.5t134.5 -101.5t166.5 -37q31 0 68.5 5.5t80.5 16.5l138 37l5 -6v-18q-112 -102 -239 -135q0 -12 -48 -12q-34 0 -78.5 7t-95.5 20zM643 328v22q-69 21 -123 21
q-31 -1 -55 -4q-21 -2 -37.5 -5t-16.5 -5q0 -8 13.5 -25.5t30.5 -34.5t33.5 -30.5t25.5 -13.5q3 0 20.5 10t39 23t41.5 25t28 17zM515 925l76 -107l-76 -107l-72 107z" />
    <glyph glyph-name="afii62805" unicode="&#x63a;" horiz-adv-x="562" arabic-form="initial" 
d="M493 371q-12 0 -35 7t-50.5 14.5t-57.5 17t-57.5 18.5t-51.5 14.5t-38 5.5q-85 0 -85 -91q0 -49 25.5 -90.5t75.5 -77.5q31 -24 55 -36t45 -12q55 0 170 34q0 -10 -2 -24t-4 -29.5t-4 -32t-2 -30.5q-48 -15 -79 -24t-51.5 -14t-32 -7.5t-20 -3t-16 -1.5t-18.5 -2
q-23 -12 -108 -12q-34 0 -77 1t-96 5v140h112q3 0 3 10q0 24 -26 56q-31 72 -31 121q0 174 141 226q34 13 51 13q36 0 74 -16t74 -42.5t67 -62.5t49 -75zM241 925l64 -107l-64 -107l-64 107z" />
    <glyph glyph-name="afii62806" unicode="&#x63a;" horiz-adv-x="642" arabic-form="medial" 
d="M662 1h-77q-38 0 -62 1.5t-42.5 8t-38.5 20.5t-49 38l-61 49q-40 -27 -70.5 -49t-55.5 -37.5t-49 -23t-52 -7.5h-127v140h161q63 0 110 44q-5 20 -22 43t-39.5 44t-46 36t-38.5 15v77q0 27 19 40q82 20 131.5 29.5t71.5 9.5q6 0 59.5 -13t155.5 -37q4 -29 6.5 -51
t2.5 -40q-2 -7 -4 -13t-3 -8q-67 -61 -132 -129q0 -15 17.5 -26t40.5 -21h194v-140zM307 943l59 -106l-59 -107l-59 107zM436 352q-63 0 -114.5 -1t-89.5 -1q102 -107 106 -107q10 0 25 13t30 30.5t27 37t16 28.5z" />
    <glyph glyph-name="afii57441" unicode="&#x641;" horiz-adv-x="1084" arabic-form="isolated" 
d="M966 58q0 -111 -32.5 -203.5t-91 -159t-140 -103t-178.5 -36.5q-104 0 -229 39q-10 10 -23 21.5t-32 24.5q-130 78 -130 246q0 140 92 338h17v-36q0 -16 -4.5 -48t-10 -68t-10.5 -68.5t-5 -47.5q0 -264 366 -264h37q24 0 53 4t60 18t65 40t67 71q65 90 65 157q0 10 -8 19
h-227q-21 0 -31 19t-10 67q0 61 12.5 122t35 110t53 79.5t67.5 30.5q25 0 54 -30q118 -125 118 -342zM885 140v33q0 5 -7 24.5t-16.5 41.5t-18.5 40t-12 20q-23 14 -43 14q-56 0 -83 -122v-34q39 -17 78 -17h102zM794 970l62 -107l-62 -105l-61 105z" />
    <glyph glyph-name="afii62810" unicode="&#x641;" horiz-adv-x="1071" arabic-form="final" 
d="M1095 1h-105q-21 -7 -24 -7q-5 -16 -13.5 -48.5t-20.5 -78.5q-25 -66 -63 -124t-84.5 -100.5t-103 -67t-118.5 -24.5h-64q-82 0 -210 32q-13 11 -30 22.5t-37 24.5q-137 87 -137 250q0 122 88 338q8 11 24 11v-32q0 -4 -2 -14.5t-4.5 -21t-4 -20.5t-1.5 -13
q-8 -63 -12 -104t-5 -68t-1 -40v-18q0 -3 -1.5 -7t1.5 -13.5t11.5 -28t27.5 -50.5q11 -19 76 -66q6 -6 35.5 -13t63.5 -14t66 -12t44 -5h49q27 0 63 3.5t80 14.5q27 7 59 30.5t60.5 56.5t50.5 72t30 76l11 55q-3 4 -217 4q-66 13 -66 97q0 33 6.5 71.5t18 76t27 72t34.5 61
t42 42.5t47 16q65 0 127 -127l22 -68q4 -22 12.5 -47t18.5 -54h129v-140zM884 151v16q-17 50 -29 79t-22 45.5t-21 22t-26 5.5q-19 0 -36 -13t-29.5 -33t-20 -45.5t-7.5 -50.5q0 -6 3 -16l3 -10h185zM842 899q0 -8 -59 -102q-28 45 -42 69t-15 29q0 18 57 105
q54 -87 59 -101z" />
    <glyph glyph-name="afii62808" unicode="&#x641;" horiz-adv-x="536" arabic-form="initial" 
d="M486 377q0 -208 -121 -330q-46 -46 -185 -46h-203v140h222q155 0 198 124q-4 4 -206 4q-87 9 -87 144q0 26 10.5 68.5t32.5 102.5q53 138 123 138q38 0 68.5 -18t54.5 -47.5t42 -66.5t29 -75.5t16.5 -74.5t5.5 -63zM396 429q-9 24 -16 50.5t-18.5 48t-31 36t-52.5 14.5
q-77 0 -96 -120q-11 -17 -11 -24q0 -10 5 -15l1 -6h130h60.5t28.5 -2v18zM275 1217l67 -105l-67 -107l-69 107z" />
    <glyph glyph-name="afii62809" unicode="&#x641;" horiz-adv-x="592" arabic-form="medial" 
d="M611 1h-174q-18 0 -77 50l-59 46l-40 -33q-25 -19 -43 -31.5t-30 -20t-21.5 -9.5t-17.5 -2h-172v140h113q138 0 158 40q0 2 -4.5 8t-10 14.5t-12 17.5t-11.5 16q-4 5 -11.5 15t-15 30.5t-13.5 52.5t-6 83q0 41 11 81t32 72.5t49.5 52.5t63.5 20q39 0 70 -18t52.5 -48
t33.5 -70.5t12 -84.5q0 -92 -108 -235q18 -47 52 -47h179v-140zM403 428q0 108 -79 108q-22 0 -40 -9.5t-31.5 -25.5t-21.5 -37.5t-8 -44.5q0 -12 5 -30.5t12.5 -39.5t18.5 -42.5t23 -39.5t24.5 -29t23.5 -11t24 19.5t24 50t18 65.5t7 66zM309 1127l64 -106l-64 -107
l-66 107z" />
    <glyph glyph-name="afii57442" unicode="&#x642;" horiz-adv-x="1046" arabic-form="isolated" 
d="M967 57q0 -112 -33 -204.5t-93 -158.5t-143 -102.5t-182 -36.5q-106 0 -235 39q-14 12 -27.5 23.5t-29.5 22.5q-133 79 -133 245q0 136 94 338h18v-34q0 -16 -4.5 -49t-10.5 -69t-10 -68.5t-4 -47.5q0 -264 373 -264h36q29 0 59 4.5t62.5 19t65.5 40.5t66 70
q33 43 48.5 83t16.5 75q0 7 -8 18h-232q-19 0 -31 18.5t-12 67.5q0 61 13 122.5t36.5 110t55.5 79t69 30.5q26 0 55 -29q120 -127 120 -343zM885 137v34q0 6 -7.5 25t-17 41t-18.5 40t-13 21q-22 13 -43 13q-59 0 -83 -121v-35q38 -18 77 -18h105zM667 855l62 -108l-61 -107
l-63 106zM854 855l61 -109l-62 -102l-61 104z" />
    <glyph glyph-name="afii62813" unicode="&#x642;" horiz-adv-x="1039" arabic-form="final" 
d="M1061 1h-104q-14 -7 -22 -7q-7 -22 -15.5 -53.5t-18.5 -73.5q-26 -66 -62.5 -124t-82 -100.5t-100.5 -67t-117 -24.5h-58q-83 0 -207 32q-14 11 -30.5 22.5t-36.5 24.5q-132 87 -132 250q0 116 85 338q9 11 23 11v-32q0 -8 -2 -18t-4 -20.5t-4 -19t-2 -11.5
q-6 -51 -9 -87.5t-5.5 -61.5t-2.5 -41v-25v-10v-5q0 -3 -1 -3q2 -18 6.5 -35t16.5 -36.5t33 -41.5t57 -49q3 -4 17.5 -8.5t35 -10t43.5 -10t44.5 -7.5t39 -5.5t25.5 -2.5h48q47 0 138 17q25 8 57 32t60.5 57.5t51 72t28.5 74.5l9 55q-3 4 -212 4q-60 12 -60 97
q0 53 12.5 113t35.5 109.5t53.5 82t66.5 32.5q64 0 122 -125l22 -68q12 -43 32 -101h126v-140zM856 151v16q-15 45 -27 73.5t-22.5 46t-22 25t-25.5 7.5q-19 0 -36 -14t-29 -34.5t-18.5 -45.5t-6.5 -48q0 -6 2 -14t2 -12v0h183zM663 1010l62 -108l-60 -107l-63 106z
M847 1010l58 -109l-60 -102l-60 104z" />
    <glyph glyph-name="afii62811" unicode="&#x642;" horiz-adv-x="511" arabic-form="initial" 
d="M457 380q0 -210 -114 -331q-44 -48 -174 -48h-190v140h209q144 0 187 125q-5 5 -196 5q-82 9 -82 144q0 16 6.5 46t16.5 65t25 70.5t32.5 63.5t37.5 46.5t39 18.5q33 0 61.5 -18.5t51 -47t39.5 -66t28 -76t17 -75t6 -62.5zM374 421l-37 115q-36 45 -75 45
q-26 -4 -44.5 -21t-30 -39t-17 -46t-5.5 -44q0 -3 0.5 -7.5t1.5 -8.5q32 -4 59 -4.5t48 -0.5q72 0 100 11zM158 1127l65 -109l-62 -111l-66 109zM351 1127l61 -111l-61 -101l-66 106z" />
    <glyph glyph-name="afii62812" unicode="&#x642;" horiz-adv-x="562" arabic-form="medial" 
d="M588 1h-168q-11 0 -27 12.5t-46 36.5l-57 45l-39 -32q-26 -19 -42.5 -31t-28 -19.5t-20 -9.5t-17.5 -2h-166v140h108q131 0 154 38q0 2 -5 8.5t-10.5 15.5t-12 17.5t-10.5 14.5q-3 4 -10.5 15t-14.5 31t-12.5 53t-5.5 83q0 42 11 82t30.5 72t47.5 52t62 20q35 0 64.5 -18
t51 -48t33.5 -70.5t12 -85.5q0 -93 -105 -236q21 -44 49 -44h174v-140zM387 427q0 108 -76 108q-21 0 -38.5 -10t-30.5 -25.5t-20 -37t-7 -44.5q0 -18 9.5 -50.5t25 -64t33.5 -54.5t35 -23q11 0 23.5 20t22.5 49.5t16.5 64.5t6.5 67zM207 1129l62 -110l-60 -105l-63 105z
M395 1129l60 -110l-63 -102l-61 105z" />
    <glyph glyph-name="afii57443" unicode="&#x643;" horiz-adv-x="974" arabic-form="isolated" 
d="M933 1207q-16 -34 -25.5 -55t-9.5 -25q-2 -16 -3.5 -93t-1.5 -216v-316q0 -329 -99 -427q-77 -73 -296 -73q-122 0 -194 32q-58 25 -108 80t-96 137v29q12 0 22 -9q109 -106 206 -125q26 -6 194 -6h156q38 0 63.5 19.5t42.5 48t25.5 58t8.5 48.5v750q0 9 -5.5 32.5
t-12 49t-12 48t-5.5 31.5q0 6 8.5 20t19.5 30.5t23 29t20 12.5q10 0 73 -90zM675 837q0 -23 -16 -23h-140q-17 0 -37 -8.5t-38 -22.5t-30 -33.5t-12 -40.5q0 -16 16.5 -26t40.5 -17t51.5 -11t47.5 -8q94 -32 94 -106q0 -20 -10 -41t-25 -39t-33 -30t-33 -12
q-45 -6 -77.5 -10t-49.5 -4q-30 0 -71.5 5.5t-94.5 16.5q-13 2 -21 26q24 25 134 34h91q62 9 62 54q0 40 -66 68l-66 8q-83 11 -83 125q0 27 4.5 49.5t23.5 40t58 27.5t108 10q43 0 65 -2t36 -6.5t28.5 -10.5t42.5 -13z" />
    <glyph glyph-name="afii62816" unicode="&#x643;" horiz-adv-x="1175" arabic-form="final" 
d="M1209 1h-113q-52 0 -106 88q-10 10 -78 154q-12 -30 -32 -60.5t-55 -70.5q-14 -17 -46.5 -34t-76.5 -31.5t-99 -23.5t-116 -9q-90 0 -152 10.5t-88 25.5q-35 18 -65 48t-51 69t-33 85.5t-12 99.5q0 7 4 37t11 65t14 65t13 38q4 -6 6 -11t6 -10q0 -11 -2 -28l-4 -34
t-4 -33t-2 -24q0 -158 108 -228q13 -1 43 -7.5t76 -16.5l235 -8q12 -2 48.5 6t97.5 21q38 9 68.5 31t53 55.5t34.5 77t12 91.5q0 9 -1.5 50.5t-4.5 117.5q-3 74 -4.5 113t-1.5 44v215q0 109 -31 295q0 2 49 32l46 27v-867l18 -135q2 -29 6.5 -53.5t11.5 -45t19 -37.5t31 -30
q16 -11 25.5 -17.5t14.5 -6.5h127v-140zM744 826q0 -13 -8.5 -21t-29 -13t-53 -9t-77.5 -8q-77 -9 -94 -92q11 -14 29.5 -21t37.5 -12t35 -8t23 -7q93 -26 93 -112q0 -38 -18 -67t-47 -49.5t-67 -31t-79 -10.5q-57 0 -155 28l-12 17v29q16 14 74 14l9 -1t19 -2.5t20 -2
t14 -0.5q6 0 20 4t18 4q22 3 39 6t28 10t18 21t7 35q0 41 -35 53q-167 55 -167 137q0 139 227 142q0 -3 9.5 -3h24t32 -1t31.5 -4t24 -8.5t10 -16.5z" />
    <glyph glyph-name="afii57410" unicode="&#x643;" horiz-adv-x="716" arabic-form="initial" 
d="M675 1238l-499 -377q11 -18 61.5 -76t145.5 -159q3 -4 15.5 -22.5t30 -48.5t37.5 -66.5t36 -76t27.5 -79.5t11.5 -73q0 -55 -13 -102t-37 -82.5t-57 -55t-74 -19.5h-383v140h420q14 0 29 9.5t27 24.5t20 33.5t8 38.5q0 9 -11 47.5t-34 89t-57.5 107t-79.5 102.5l-116 122
q-73 46 -73 79q0 8 3.5 34t9 53.5t10.5 51.5t8 28l534 375v-98z" />
    <glyph glyph-name="afii62815" unicode="&#x643;" horiz-adv-x="782" arabic-form="medial" 
d="M804 1h-186q-12 0 -30.5 14t-40.5 40t-46 61.5t-44 77.5h-10q-8 -9 -15.5 -33.5t-22 -54.5t-38.5 -59.5t-60 -45.5h-336v140h269q12 0 31 5t39.5 14t38.5 23t28 34q19 43 26.5 71.5t7.5 39.5q0 15 -9 43t-22 58t-26 58t-21 43q-108 144 -225 249v147q134 104 269.5 208
t273.5 208l32 -78l-498 -384v-5q0 -19 60 -70q92 -101 190 -308q14 -25 29.5 -75.5t35.5 -128.5q6 -25 11 -40.5t10.5 -28.5t15.5 -26t28 -29q28 -28 40 -28h195v-140z" />
    <glyph glyph-name="afii57444" unicode="&#x644;" horiz-adv-x="1019" arabic-form="isolated" 
d="M939 1081q0 -9 -4.5 -19t-9.5 -19.5t-11 -18t-9 -11.5l4 3q-16 -47 -16 -87v-759q0 -13 -0.5 -26t-0.5 -23v-22v-10.5t1 -9.5v-96q0 -178 -42 -336q-19 -70 -42 -117t-50 -81t-59 -57t-70 -45q-57 -19 -142 -19q-111 0 -160 47q-198 111 -198 345q0 28 8.5 73t22 90.5
t29.5 83t30 53.5q11 -11 11 -27l-17 -200q0 -154 85 -252q4 -8 9.5 -18t16.5 -20t32 -19.5t57 -18.5q30 -11 52 -14t32 -3q252 0 309 420l7 1061l-10.5 129t-5.5 47q0 18 6 42t16.5 45t22.5 35t23 14q27 0 73 -160z" />
    <glyph glyph-name="afii62819" unicode="&#x644;" horiz-adv-x="1056" arabic-form="final" 
d="M1091 1h-126q-45 0 -122 91q-8 -39 -8 -60v-138q0 -85 -15 -156q-23 -103 -51.5 -176t-66 -122t-84.5 -74t-105 -33q-8 0 -25.5 -4.5t-26.5 -4.5q-74 0 -139 29t-111 80t-73 120.5t-27 152.5q0 129 78 298q6 0 11 7q0 -14 -1.5 -42.5t-2.5 -61t-2 -63.5t-1 -51
q0 -55 6 -101t22 -84t43 -69t70 -58q65 -38 107 -38h35q37 0 77 18t77.5 56.5t67.5 98t44 141.5q16 87 23 144.5t7 89.5v263q0 17 -6 139l-6 143q0 6 -1 30t-2.5 57.5t-3 73t-3.5 76t-2.5 67.5t-0.5 45q0 85 -12 164.5t-29 153.5q21 13 51 35.5t72 53.5l6 -919
q-2 -10 -2 -18v-17q0 -27 2.5 -57.5t6.5 -63.5q7 -41 46 -58.5t111 -17.5h92v-140z" />
    <glyph glyph-name="afii62817" unicode="&#x644;" horiz-adv-x="352" arabic-form="initial" 
d="M260 1192q0 -2 -5 -12.5t-10 -22.5t-10 -22l-5 -10v-598q0 -526 -154 -526h-98v140h67q120 0 120 264v210q0 7 -3.5 24t-3.5 28q-7 168 -19.5 299t-32.5 233q-1 3 -1 46q0 1 14 12.5t29.5 26t29.5 25l14 10.5q16 0 68 -127z" />
    <glyph glyph-name="afii62818" unicode="&#x644;" horiz-adv-x="536" arabic-form="medial" 
d="M573 1h-142q-20 0 -42 12t-43 31t-38 43.5t-23 48.5q-3 0 -8 -9q-52 -126 -170 -126h-130v140h206q70 36 70 191q0 5 -2 24.5t-4 41t-3.5 41t-1.5 22.5v198q-1 0 -3 72v154q0 4 -2.5 37.5t-6.5 99.5q-1 24 -7.5 72t-18.5 120q17 17 46 44t70 67l6 -1075q0 -14 5 -33.5
t12 -35.5t15.5 -28t15.5 -12h199v-140z" />
    <glyph glyph-name="afii57445" unicode="&#x645;" horiz-adv-x="632" arabic-form="isolated" 
d="M557 165q0 -46 -8.5 -76.5t-26.5 -49t-48 -25.5t-72 -7h-18.5h-21.5h-111q-6 0 -17 -4t-21.5 -11t-19 -13.5t-11.5 -12.5q-7 -21 -10.5 -40.5t-3.5 -33.5l37 -867q-6 0 -11 -8q-18 8 -26 84q-32 300 -31 384l-41 505q0 41 6 70t23 48.5t46 29.5t76 13q5 3 10 16
q53 251 146 251q34 0 62 -21.5t48.5 -57t32 -81t11.5 -93.5zM464 195q0 104 -63 104q-9 0 -17 -1.5t-18 -8t-19.5 -21t-17.5 -39.5q-7 -22 -9.5 -37.5t-3.5 -22.5v-18h139q9 13 9 44z" />
    <glyph glyph-name="afii62822" unicode="&#x645;" horiz-adv-x="673" arabic-form="final" 
d="M708 1h-131q-16 0 -64 27q-21 -47 -35.5 -80t-26.5 -54t-24 -30t-29 -9q-58 0 -115 173q-58 0 -84.5 -31t-26.5 -97l23 -847q0 -20 -14 -55q-18 11 -21 38q-10 84 -17.5 149.5t-9.5 114.5l-35 639q0 19 3.5 45.5t9.5 52t15 46t21 27.5q9 3 18 7.5t22.5 10t33 12
t47.5 15.5q58 35 92 192q4 -2 18 -22.5t34 -57.5q27 -47 49 -72t43 -30q21 -7 38 -12.5t29 -11.5h137v-140zM453 75q0 10 -12 28t-27.5 35t-31.5 31.5t-22 19.5q-29 -53 -29 -118q0 -37 15.5 -65t41.5 -28q12 0 24 8.5t21 21.5t14.5 30.5t5.5 36.5z" />
    <glyph glyph-name="afii62820" unicode="&#x645;" horiz-adv-x="512" arabic-form="initial" 
d="M478 220q0 -47 -10.5 -87t-30.5 -69.5t-47 -46t-58 -16.5q-55 0 -79 34l-58 102q-1 -6 -7 -20t-17.5 -31t-29.5 -34t-44 -29q-46 -22 -70 -22h-55v140h97q15 0 30.5 18.5t31.5 48.5t31.5 69t29.5 79.5t25.5 80t17.5 70.5q1 8 21 32q21 0 82 -57q140 -163 140 -262z
M397 177q0 24 -12 57t-30.5 63.5t-40.5 55t-40 33.5q-32 -83 -32 -112q0 -24 6.5 -48.5t18.5 -43.5t29.5 -32t37.5 -13q6 0 17 2.5t21 8t17.5 12.5t7.5 17z" />
    <glyph glyph-name="afii62821" unicode="&#x645;" horiz-adv-x="649" arabic-form="medial" 
d="M682 1h-124q-22 0 -40 5t-34 19v-4q0 -22 -47 -75q-83 -93 -101 -93q-81 0 -152 202q-30 -47 -88 -54h-122v140h127q21 2 34.5 5t24.5 11t21 22.5t23.5 39.5t33.5 63t50 92q12 0 24 -25q50 -110 131 -159t199 -49h40v-140zM408 79q-15 19 -35 45.5t-38 49t-31.5 38
t-16.5 15.5q-11 0 -19 -9.5t-14 -22.5t-9 -28.5t-3 -29.5q0 -28 6.5 -54t17 -46t26.5 -31t32 -11q54 0 84 84z" />
    <glyph glyph-name="afii57446" unicode="&#x646;" horiz-adv-x="1003" arabic-form="isolated" 
d="M574 617l-56 -91q-54 73 -54 93q0 3 48 99q10 -15 25 -41t37 -60zM936 165q0 -5 0.5 -13.5t0.5 -21.5q0 -67 -7.5 -124t-26 -106.5t-50 -92t-82.5 -81.5q-134 -107 -284 -107h-59q-24 0 -57 14.5t-66 35.5t-62 43.5t-41 38.5q-62 77 -62 213q0 101 92 297q3 5 21 20v-24
q0 -3 -6.5 -26t-20.5 -66q-4 -46 -8.5 -78t-4.5 -53q0 -161 88 -229q14 -7 27.5 -14.5t34.5 -14.5t53 -11.5t84 -4.5h98q41 7 87.5 30t84.5 60t63 87t25 110q0 32 -11 66t-29 66.5t-42 59.5t-48 45q38 113 61 113q4 0 20.5 -16.5t36.5 -37.5t37.5 -42t22.5 -30z" />
    <glyph glyph-name="afii62825" unicode="&#x646;" horiz-adv-x="1045" arabic-form="final" 
d="M1077 1h-178q-4 -4 -4 -18q0 -24 3.5 -46t3.5 -36q0 -204 -157 -340q-138 -114 -288 -114h-60q-26 0 -59.5 13.5t-67 34t-62.5 43.5t-42 38q-61 76 -61 216q0 105 94 294q1 3 21 21v-24q-2 -4 -8 -26.5t-18 -65.5q-7 -40 -11 -74t-4 -58q0 -159 87 -229q15 -7 28.5 -14
t33 -14.5t53.5 -11.5t90 -4h100q40 8 86.5 31t85.5 59.5t64.5 85.5t25.5 112q0 29 -10 62t-28 64.5t-42 60t-50 49.5q38 113 61 113q1 0 21.5 -13t44.5 -28.5t43 -28t18 -12.5h186v-140zM545 442l-57 -90q-54 72 -54 91q0 9 49 101q8 -17 24 -42t38 -60z" />
    <glyph glyph-name="afii62823" unicode="&#x646;" horiz-adv-x="407" arabic-form="initial" 
d="M331 257q0 -256 -190 -256h-178v140h104q204 0 204 106q0 54 -85 168l63 96q6 0 10 -4q72 -118 72 -250zM205 916l63 -107l-63 -106l-61 106z" />
    <glyph glyph-name="afii62824" unicode="&#x646;" horiz-adv-x="561" arabic-form="medial" 
d="M591 1h-166q-94 36 -136 147h-18q-5 -23 -20.5 -49t-36 -48t-44 -36t-44.5 -14h-155v140h88q49 0 83.5 10t60.5 36t46.5 70.5t39.5 112.5q22 -101 24 -103q4 -17 16 -39t28.5 -41.5t37 -32.5t40.5 -13h156v-140zM285 917l63 -108l-63 -105l-64 105z" />
    <glyph glyph-name="afii57447" unicode="&#x647;" horiz-adv-x="487" arabic-form="isolated" 
d="M436 214q0 -96 -47 -151.5t-126 -55.5q-37 0 -69.5 12t-57 32t-39 48.5t-14.5 61.5q0 66 36 129q10 17 101 129q-7 10 -15 21t-16 23l74 91q23 -23 44.5 -50t39.5 -51.5t32 -46t18 -35.5q39 -73 39 -157zM354 225q0 18 -9.5 41.5t-23.5 44.5t-30.5 35.5t-32.5 14.5
q-11 0 -24.5 -19t-25.5 -43.5t-20.5 -49.5t-8.5 -36q0 -34 20.5 -58t50.5 -24h27q15 0 28 8.5t24 22t18 30t7 33.5z" />
    <glyph glyph-name="afii62828" unicode="&#x647;" horiz-adv-x="588" arabic-form="final" 
d="M613 1h-64q-25 1 -52 17.5t-49.5 41.5t-39.5 56.5t-23 64.5q-109 -87 -163 -87q-24 0 -48 9.5t-44 26.5t-32.5 40t-12.5 48q0 163 252 278q-17 139 -19 139v-2q0 10 12.5 23.5t30 27.5t35.5 26l27 18v-28q2 -5 2 -8.5v-8.5q0 -13 -1 -23t-2 -19l-5 -60v-162
q0 -19 7 -63.5t23 -114.5q6 -29 17 -48.5t30 -30.5t48 -16t71 -5v-140zM369 265q-4 30 -10 64t-12 74h-23q-131 -81 -131 -141q0 -63 55 -63h15q39 0 106 66z" />
    <glyph glyph-name="afii57470" unicode="&#x647;" horiz-adv-x="715" arabic-form="initial" 
d="M675 239q0 -40 -9.5 -75t-26 -59.5t-40.5 -38t-56 -13.5t-183 57q-35 -29 -61 -49t-33 -24q-86 -36 -123 -36h-166v140h274q4 0 18 14q-35 30 -55.5 49t-26.5 25q-35 46 -35 114q0 22 5.5 48t15 50t23 44t28.5 30q27 21 85 39q6 5 11 9q0 12 -48 34q21 30 37 56t28 48
l139 -106q21 -16 47 -43t62 -63q90 -144 90 -250zM611 229q0 50 -13 88t-31 65.5t-38 44t-35 27.5h-18q0 -61 -3.5 -108t-22.5 -93q-9 -17 -14 -27.5t-4 -14.5q0 -12 3 -17l2 -9q13 -4 26.5 -10t33.5 -15h40q23 0 37.5 3t22.5 11.5t11 21t3 33.5zM411 347q0 118 -91 118
q-19 0 -29 -1t-18.5 -5.5t-15 -13.5t-16.5 -26q-22 -34 -22 -57q0 -19 11 -39.5t28.5 -36t38 -26t40.5 -10.5q14 0 27.5 8.5t24 22.5t16.5 31t6 35z" />
    <glyph glyph-name="afii62827" unicode="&#x6be;" horiz-adv-x="618" arabic-form="final" 
d="M653 141q-2 -17 -2 -33.5v-34.5v-35.5t2 -36.5h-185q8 -8 17.5 -28.5t17.5 -44t14 -46.5t6 -35q0 -32 -11.5 -62t-30.5 -54.5t-45 -39.5t-53 -15q-40 0 -73.5 17.5t-60.5 56.5t-47.5 100t-34.5 151h-196v140h193q16 88 25.5 137t14.5 63q9 32 25 66.5t38.5 66t54 55.5
t74.5 34q14 0 30.5 -10t29 -25.5t20 -35.5t7.5 -38q0 -56 -49 -159l-66 -154h285zM423 -136q0 12 -3 30.5t-10.5 39t-20 40t-32.5 33.5v0q0 -6 -122 -6q4 -28 19 -62.5t34.5 -65t42 -51.5t41.5 -21q18 0 34.5 19.5t16.5 43.5zM375 381q0 1 1 5.5t1 6.5q0 26 -23 26
q-24 0 -42 -18.5t-31.5 -45.5t-21.5 -59.5t-13.5 -60t-7.5 -45.5t-3 -18v3v-34h78q1 8 6 25.5t11.5 40.5t14.5 48t15 49t11 44.5t4 32.5z" />
    <glyph glyph-name="afii57448" unicode="&#x648;" horiz-adv-x="504" arabic-form="isolated" 
d="M414 39q0 -170 -53 -343q-76 -242 -353 -359v29q103 106 174.5 202.5t111.5 186.5l52 125q5 20 11.5 49t16.5 66q-4 2 -13 6h-229q-20 2 -35.5 16.5t-27 37t-18 52t-6.5 62.5q0 27 6.5 60.5t18.5 67.5t28 65.5t34 56t39 39t41 14.5q25 0 54.5 -20.5t56 -55t47.5 -80
t32 -97.5q7 -30 9.5 -75.5t2.5 -104.5zM355 148q-12 21 -24.5 51.5t-29.5 60t-37 50.5t-46 21q-19 0 -38.5 -12t-34.5 -31t-24.5 -41.5t-9.5 -44.5q0 -61 150 -61q57 0 94 7z" />
    <glyph glyph-name="afii62829" unicode="&#x648;" horiz-adv-x="598" arabic-form="final" 
d="M627 1h-108q-12 -4 -26.5 -64t-34.5 -187q-76 -251 -202 -341q-55 -40 -202 -86l-10 5q0 11 6.5 21.5t22 25t39 34.5t58.5 48q6 10 15 21.5t20 23.5q57 66 103 135.5t78 143.5q11 23 27 77.5t39 142.5h-223q-78 22 -78 111q0 27 6.5 61.5t17.5 71t26 72t31.5 63t34.5 45
t34 17.5q143 0 206 -301h120v-140zM434 141q-35 121 -52 149q-28 44 -74 44q-31 0 -48 -19.5t-24.5 -46.5t-9.5 -53t-2 -38q0 -36 35 -36h175z" />
    <glyph glyph-name="afii57449" unicode="&#x649;" horiz-adv-x="1112" arabic-form="isolated" 
d="M1029 440q0 -33 -36 -33q-8 0 -21.5 3t-28 7t-29 7t-20.5 3q-115 0 -216 -130q-9 -12 -13.5 -33t-4.5 -49q0 -62 67 -82l94 -10q28 -1 50.5 -15t40.5 -33.5t32 -43.5t22.5 -48t12.5 -44.5t4 -32.5q0 -53 -19 -96t-46 -93q-120 -152 -338 -162q-5 0 -13 -2l-16 -4t-16 -3
t-14 -1q-77 0 -152.5 21.5t-135 66.5t-96 114t-36.5 164q0 100 36 184q24 41 45.5 79.5t40.5 78.5h20q-80 -301 -80 -324q0 -18 4.5 -44t17 -54.5t35.5 -58t61 -53t91.5 -38t129.5 -14.5q78 0 153 16.5t133 44.5t93 64t35 76q0 15 -7.5 34.5t-19.5 37t-27 29.5t-29 14
q-128 4 -170 28q-65 40 -65 164q0 37 10 80.5t27.5 84.5t40.5 77t45 55q11 10 29 22t39.5 23.5t45.5 18.5t47 7q21 0 46 -8.5t47 -22t38 -32.5t16 -40z" />
    <glyph glyph-name="afii62830" unicode="&#x649;" horiz-adv-x="1029" arabic-form="final" 
d="M1056 1h-335q-14 0 -40 -32v-30q15 -14 33.5 -20.5t38.5 -10.5t38 -9.5t33 -15.5t23.5 -29.5t8.5 -52.5q0 -29 -12 -61.5t-32 -63t-44 -56t-50 -38.5q-120 -63 -259 -63q-72 0 -131.5 23t-102 66.5t-65.5 103.5t-23 132q0 59 30 160q1 7 17.5 42.5t46.5 101.5h15
q-49 -173 -49 -238q0 -5 2 -13.5t3.5 -17.5t3.5 -17.5t2 -11.5q3 -30 19 -62t38.5 -59.5t49 -46t51.5 -22.5q45 -8 85 -10.5t76 -2.5q26 0 49 0.5t45 5t44 12.5t47 23q51 30 51 65q0 27 -10 34q-38 5 -122 33q-39 20 -39 81q0 48 16 87t42.5 69.5t61.5 51.5t73 32h271v-140z
" />
    <glyph glyph-name="afii57450" unicode="&#x64a;" horiz-adv-x="1125" arabic-form="isolated" 
d="M1050 439q0 -34 -36 -34q-9 0 -21.5 3t-26 6t-26.5 6t-20 3q-109 0 -209 -128q-15 -22 -15 -82q0 -64 65 -83l90 -9q39 -5 68.5 -32.5t48.5 -62.5t29 -70t10 -55q0 -25 -5 -47t-13.5 -44.5t-20 -45.5t-23.5 -51q-117 -150 -326 -163q-7 0 -25 -4.5t-31 -4.5
q-76 0 -148.5 22.5t-129.5 67.5t-92.5 114t-35.5 162q0 54 11 99t27.5 85t38 78.5t43.5 79.5h17q-76 -297 -76 -324q0 -16 4.5 -42t16.5 -55.5t33.5 -59t57.5 -52t88 -37.5t124 -15q77 0 149 16.5t128 44.5t89.5 65t33.5 77q0 15 -8 34.5t-19.5 36t-25 28.5t-25.5 13
q-129 3 -167 29q-62 42 -62 162q0 36 9.5 78.5t25.5 84.5t37.5 78.5t47.5 59.5q14 11 31 23t35.5 21.5t40.5 16.5t49 7q20 0 44.5 -8t45 -21.5t35 -32.5t14.5 -38zM491 -642l62 -106l-62 -107l-62 106zM677 -639l62 -110l-61 -106l-63 108z" />
    <glyph glyph-name="afii62833" unicode="&#x64a;" horiz-adv-x="977" arabic-form="final" 
d="M1013 1h-328q-15 0 -41 -31v-30q8 -7 28.5 -14.5t42.5 -14.5t42 -13t28 -11q33 -26 33 -83q0 -27 -12.5 -60t-32 -64.5t-44.5 -57t-49 -39.5q-58 -31 -115.5 -46.5t-122.5 -15.5q-73 0 -133.5 21.5t-104.5 63t-68.5 102.5t-24.5 139q0 54 31 160q0 10 63 144h15
q-49 -174 -49 -239q0 -1 2 -9t3.5 -18t3.5 -19t2 -13q3 -31 18 -62.5t38 -58.5t49 -46t50 -25q67 -14 139 -14q31 0 55.5 1t47 5t45 13t51.5 24q24 15 38 33t14 32q0 30 -14 36q-39 4 -117 31q-39 21 -39 83q0 47 16 86.5t42 70t60 50t72 29.5h266v-140zM590 -653l61 -106
l-59 -109l-61 109zM411 -655l61 -104l-61 -109l-59 105z" />
    <glyph glyph-name="afii62831" unicode="&#x6cc;" horiz-adv-x="431" arabic-form="initial" 
d="M340 260q0 -259 -192 -259h-180v140h106q206 0 206 106q0 57 -86 170l62 95q5 0 12 -3q72 -120 72 -249zM278 -238l62 -105l-64 -108l-61 108zM89 -239l61 -104l-61 -108l-62 106z" />
    <glyph glyph-name="afii62832" unicode="&#x6cc;" horiz-adv-x="564" arabic-form="medial" 
d="M581 1h-164q-88 39 -132 147h-18q-4 -26 -18.5 -52.5t-35 -47.5t-43.5 -34t-42 -13h-151v140h85q48 0 82.5 11.5t59.5 38t44 70t37 109.5q21 -97 24 -101q6 -21 18 -43.5t28 -41.5t34.5 -31t38.5 -12h153v-140zM368 -238l61 -107l-61 -109l-60 109zM186 -243l60 -102
l-60 -109l-61 106z" />
    <glyph glyph-name="uniFBEA" unicode="&#xfbea;" horiz-adv-x="715" arabic-form="isolated" 
d="M665 273q0 -263 -218 -263h-64l1 -3h-144q-10 0 -29 9.5t-37.5 22.5t-34 28t-19.5 26q-6 19 -12 46t-10.5 57.5t-8 60t-6 55t-4.5 42t-2 20.5v453l-37 386q0 3 10 20.5t23 38.5t26 38.5t19 19.5h20v-684q0 -36 3 -115t7 -208l8 -26q0 -17 3 -39t11 -44.5t23.5 -39
t40.5 -21.5h82v-2h74q57 0 96 6t63.5 19t35.5 34.5t11 54.5q0 15 -10.5 39t-24 48t-28.5 45.5t-26 32.5q21 33 78 103q80 -157 80 -260zM665 933q0 -7 -25.5 -25.5t-72.5 -52.5l-255 -176q-22 0 -22 32q0 20 5 32t19 22.5t38.5 26t63.5 45.5q-65 58 -65 158q0 28 13.5 54
t35.5 46t46.5 32t47.5 12q28 0 105 -55v-18h-91q-17 0 -30.5 -7.5t-24.5 -21t-17 -30t-6 -36.5q0 -78 59 -78q7 0 32 11t51.5 25t48 26t21.5 13q23 0 23 -35z" />
    <glyph glyph-name="uniFBEB" unicode="&#xfbeb;" horiz-adv-x="852" arabic-form="final" 
d="M879 1h-17q-68 0 -115 7.5t-79.5 26t-53.5 48t-38 72.5h-16q-5 -26 -21.5 -52.5t-38 -48t-44 -36.5t-40.5 -17l-173 1q-10 0 -28.5 9t-38.5 21.5t-35.5 28t-18.5 28.5q-9 28 -17.5 73.5t-13.5 90.5t-9.5 80t-4.5 41v461l-37 390q0 2 10 20.5t23.5 40t26.5 39t19 20.5h22
v-695q0 -36 2.5 -117t5.5 -211l9 -27q0 -17 2 -40t11 -45t24 -39t42 -22l110 -1q48 0 83 10.5t61.5 36t46.5 70t38 112.5q21 -97 24 -102q8 -21 21 -44.5t30 -43.5t36 -33t37 -13h155v-140zM782 909q-18 -110 -130 -179q-64 -38 -106.5 -52t-74.5 -14q-51 0 -83 29
q4 18 162 101q-34 13 -55.5 30.5t-34.5 38.5t-18 45t-5 49q0 38 13.5 68t35 50t48.5 30t56 10q55 0 144 -33l4 -12q-42 -13 -78.5 -26t-63 -28t-42.5 -32t-16 -41q0 -34 24 -63.5t61 -48.5q15 10 36.5 27t43 35t37.5 31.5t20 14.5q22 0 22 -30z" />
    <glyph glyph-name="uniFBEC" unicode="&#xfbec;" horiz-adv-x="976" arabic-form="isolated" 
d="M951 265q0 -264 -217 -264l-185 1q-25 0 -52 16.5t-49.5 41.5t-39.5 57t-23 64q-109 -87 -163 -87q-24 0 -48 9.5t-44 26.5t-32.5 40t-12.5 48q0 163 252 278q-17 137 -19 139q2 10 15.5 24.5t30 28t33.5 24.5t26 16v-28q2 -5 2 -8.5v-8.5q0 -13 -1 -23t-2 -19l-5 -60
v-162q0 -19 8 -62.5t22 -115.5q5 -28 15.5 -47t27 -30t42 -16t59.5 -5l86 -2h15q53 0 89 7t59 21.5t33 36t10 50.5q0 15 -10 39t-24.5 48.5t-30 46.5t-25.5 31q12 18 31 43.5t47 59.5q80 -155 80 -259zM951 925q0 -8 -25 -26.5t-72 -53.5l-254 -176q-23 0 -23 34q0 19 5 31
t18.5 23.5t38 26.5t63.5 43q-64 60 -64 160q0 28 14 53.5t34.5 45.5t46 32.5t48.5 12.5q29 0 106 -55v-19h-93q-15 0 -29.5 -7.5t-25 -20.5t-17 -30.5t-6.5 -36.5q0 -77 59 -77q6 0 19 5t30 13t36 18t33.5 18t25 13.5t10.5 6.5q22 0 22 -34zM369 265q-4 30 -10 64t-12 74
h-23q-131 -81 -131 -141q0 -63 55 -63h15q39 0 106 66z" />
    <glyph glyph-name="uniFBED" unicode="&#xfbed;" horiz-adv-x="1175" arabic-form="final" 
d="M1201 1h-17q-116 0 -151 15q-91 29 -134 137h-18q-4 -26 -20 -52.5t-38 -48t-45 -36t-41 -15.5h-188q-25 1 -52 17.5t-49.5 41.5t-39.5 56.5t-23 64.5q-109 -87 -163 -87q-24 0 -48 9.5t-44 26.5t-32.5 40t-12.5 48q0 163 252 278q-17 137 -19 139q2 10 15.5 24.5t30 28
t33.5 24.5t26 16v-28q2 -5 2 -8.5v-8.5q0 -13 -1 -23t-2 -19l-5 -60v-162q0 -19 7 -63.5t23 -114.5q6 -29 17 -48.5t30 -30.5t48 -16t71 -5h55q48 2 83.5 13t62 37.5t46 71t39.5 113.5q19 -98 24 -103q6 -22 19.5 -46t30.5 -43t36 -31t36 -12h156v-140zM1104 907
q-19 -112 -130 -179q-63 -39 -106 -53t-75 -14q-50 0 -84 30q4 18 162 99q-34 15 -55.5 33t-34 38t-17.5 43.5t-5 48.5q0 41 13 70.5t34.5 50t49 30t57.5 9.5q52 0 142 -34l4 -12q-40 -12 -77 -25t-64 -28t-42.5 -33.5t-15.5 -40.5q0 -35 24 -64t59 -49q16 10 38 28t43 36
t37 32t20 14q23 0 23 -30zM369 265q-4 30 -10 64t-12 74h-23q-131 -81 -131 -141q0 -63 55 -63h15q39 0 106 66z" />
    <glyph glyph-name="uniFBEE" unicode="&#xfbee;" horiz-adv-x="1010" arabic-form="isolated" 
d="M925 277q0 -276 -217 -276h-220q-14 0 -18 -7q-2 -21 -11.5 -73t-30.5 -134q0 -15 -3 -30q-76 -249 -207 -343q-27 -19 -80 -39.5t-127 -44.5l-10 4q0 15 11 26.5t31 28.5t50 44t71 75q120 134 186 279q11 26 28.5 78t38.5 136h-225q-82 30 -82 118q0 27 6.5 62.5t18 72
t26.5 72t32 62.5t35.5 43.5t35.5 16.5q147 0 210 -307h176q105 0 155 34t50 92q0 16 -9.5 40t-23 49t-29.5 46.5t-26 31.5q12 18 31 43t47 59q80 -155 80 -259zM1002 967q0 -9 -24 -27.5t-73 -52.5l-255 -176q-23 0 -23 34q0 19 5 30.5t19 22.5t38.5 27t62.5 43
q-63 60 -63 161q0 26 13.5 52t34.5 46.5t46.5 32.5t47.5 12q28 0 106 -55v-20h-92q-16 0 -30 -7.5t-24.5 -20t-17 -29.5t-6.5 -36q0 -78 58 -78q6 0 19.5 5.5t30 13t36 17t34 18t24.5 14.5l10 6q23 0 23 -33zM401 141q-20 65 -33.5 101t-20.5 48q-14 21 -32 32.5t-44 11.5
q-32 0 -49.5 -19.5t-26 -45.5t-9 -52.5t-0.5 -39.5q0 -36 33 -36h182z" />
    <glyph glyph-name="uniFBEF" unicode="&#xfbef;" horiz-adv-x="1096" arabic-form="final" 
d="M1147 1h-17q-114 0 -149 22q-94 32 -135 141h-17q-6 -29 -23.5 -58.5t-39.5 -52t-44.5 -37.5t-37.5 -15h-196q-14 0 -18 -7q-2 -21 -11.5 -73t-30.5 -134q0 -15 -3 -30q-76 -249 -207 -343q-27 -19 -80 -39.5t-127 -44.5l-10 4q0 15 11 26.5t31 28.5t50 44t71 75
q120 134 186 279q11 26 28.5 78t38.5 136h-225q-82 30 -82 118q0 27 6.5 62.5t18 72t26.5 72t32 62.5t35.5 43.5t35.5 16.5q147 0 210 -307h143q43 0 77 12t62.5 41t50 75t39.5 117q20 -100 24 -102q6 -23 19.5 -48t31.5 -46t37 -35t34 -14h155v-140zM1050 917
q-18 -111 -130 -180q-63 -38 -106 -52t-74 -15q-50 0 -84 31q5 20 162 100q-33 13 -55 31t-35 39t-18 44t-5 48q0 41 13.5 70.5t35 49.5t49 30.5t56.5 10.5q52 0 143 -34l5 -13q-41 -13 -77.5 -25.5t-63.5 -27t-43 -32.5t-16 -41q0 -35 24 -64.5t60 -48.5q15 9 36.5 27
l43 36t38 31.5t19.5 13.5q22 0 22 -29zM401 141q-20 65 -33.5 101t-20.5 48q-14 21 -32 32.5t-44 11.5q-32 0 -49.5 -19.5t-26 -45.5t-9 -52.5t-0.5 -39.5q0 -36 33 -36h182z" />
    <glyph glyph-name="uniFBF0" unicode="&#xfbf0;" horiz-adv-x="1010" arabic-form="isolated" 
d="M925 277q0 -276 -217 -276h-220q-14 0 -18 -7q-2 -21 -11.5 -73t-30.5 -134q0 -15 -3 -30q-76 -249 -207 -343q-27 -19 -80 -39.5t-127 -44.5l-10 4q0 15 11 26.5t31 28.5t50 44t71 75q120 134 186 279q11 26 28.5 78t38.5 136h-225q-82 30 -82 118q0 27 6.5 62.5t18 72
t26.5 72t32 62.5t35.5 43.5t35.5 16.5q147 0 210 -307h176q105 0 155 34t50 92q0 16 -9.5 40t-23 49t-29.5 46.5t-26 31.5q12 18 31 43t47 59q80 -155 80 -259zM1002 967q0 -9 -24 -27.5t-73 -52.5l-255 -176q-23 0 -23 34q0 19 5 30.5t19 22.5t38.5 27t62.5 43
q-63 60 -63 161q0 26 13.5 52t34.5 46.5t46.5 32.5t47.5 12q28 0 106 -55v-20h-92q-16 0 -30 -7.5t-24.5 -20t-17 -29.5t-6.5 -36q0 -78 58 -78q6 0 19.5 5.5t30 13t36 17t34 18t24.5 14.5l10 6q23 0 23 -33zM339 1018q0 -30 -12 -69.5t-31 -82t-44 -84.5t-52 -77h-24
q3 8 14 34t24.5 57t23.5 60t10 43q-66 40 -66 100q0 116 76 116q81 0 81 -97zM401 141q-20 65 -33.5 101t-20.5 48q-14 21 -32 32.5t-44 11.5q-32 0 -49.5 -19.5t-26 -45.5t-9 -52.5t-0.5 -39.5q0 -36 33 -36h182z" />
    <glyph glyph-name="uniFBF1" unicode="&#xfbf1;" horiz-adv-x="1096" arabic-form="final" 
d="M1147 1h-17q-66 0 -112 8t-79 28t-54.5 50.5t-38.5 76.5h-17q-6 -29 -23.5 -58.5t-39.5 -52t-44.5 -37.5t-37.5 -15h-196q-5 1 -8 1q-6 0 -10.5 -16.5t-9.5 -48.5t-13 -77.5t-22 -102.5q-76 -249 -207 -343q-27 -19 -80 -39.5t-127 -44.5l-10 4q0 15 11 26.5t31 28.5
t50 44t71 75q120 134 186 279q11 26 28.5 78t38.5 136h-225q-82 30 -82 118q0 27 6.5 62.5t18 72t26.5 72t32 62.5t35.5 43.5t35.5 16.5q147 0 210 -307h143q43 0 77 12t62.5 41t50 75t39.5 117q20 -100 24 -102q6 -23 19.5 -48t31.5 -46t37 -35t34 -14h155v-140zM1050 917
q-18 -111 -130 -180q-63 -38 -106 -52t-74 -15q-50 0 -84 31q5 20 162 100q-33 13 -55 31t-35 39t-18 44t-5 48q0 41 13.5 70.5t35 49.5t49 30.5t56.5 10.5q52 0 143 -34l5 -13q-41 -13 -77.5 -25.5t-63.5 -27t-43 -32.5t-16 -41q0 -35 24 -64.5t60 -48.5q15 9 36.5 27
l43 36t38 31.5t19.5 13.5q22 0 22 -29zM339 1018q0 -30 -12 -69.5t-31 -82t-44 -84.5t-52 -77h-24q3 8 14 34t24.5 57t23.5 60t10 43q-66 40 -66 100q0 116 76 116q81 0 81 -97zM401 141q-20 65 -33.5 101t-20.5 48q-14 21 -32 32.5t-44 11.5q-32 0 -49.5 -19.5t-26 -45.5
t-9 -52.5t-0.5 -39.5q0 -36 33 -36h182z" />
    <glyph glyph-name="uniFBF2" unicode="&#xfbf2;" horiz-adv-x="1010" arabic-form="isolated" 
d="M925 277q0 -276 -217 -276h-220q-14 0 -18 -7q-2 -21 -11.5 -73t-30.5 -134q0 -15 -3 -30q-76 -249 -207 -343q-27 -19 -80 -39.5t-127 -44.5l-10 4q0 15 11 26.5t31 28.5t50 44t71 75q120 134 186 279q11 26 28.5 78t38.5 136h-225q-82 30 -82 118q0 27 6.5 62.5t18 72
t26.5 72t32 62.5t35.5 43.5t35.5 16.5q147 0 210 -307h176q105 0 155 34t50 92q0 16 -9.5 40t-23 49t-29.5 46.5t-26 31.5q12 18 31 43t47 59q80 -155 80 -259zM463 1096l-173 -411q-80 0 -147 237q-18 61 -32 102t-24 63q0 13 41 45h16q21 -44 53 -112t79 -158h19l116 286
q14 -13 26.5 -26.5t25.5 -25.5zM1002 967q0 -9 -24 -27.5t-73 -52.5l-255 -176q-23 0 -23 34q0 19 5 30.5t19 22.5t38.5 27t62.5 43q-63 60 -63 161q0 26 13.5 52t34.5 46.5t46.5 32.5t47.5 12q28 0 106 -55v-20h-92q-16 0 -30 -7.5t-24.5 -20t-17 -29.5t-6.5 -36
q0 -78 58 -78q6 0 19.5 5.5t30 13t36 17t34 18t24.5 14.5l10 6q23 0 23 -33zM401 141q-20 65 -33.5 101t-20.5 48q-14 21 -32 32.5t-44 11.5q-32 0 -49.5 -19.5t-26 -45.5t-9 -52.5t-0.5 -39.5q0 -36 33 -36h182z" />
    <glyph glyph-name="uniFBF3" unicode="&#xfbf3;" horiz-adv-x="1096" arabic-form="final" 
d="M1147 1h-17q-67 0 -114 9t-78.5 28t-53 50t-38.5 76h-17q-6 -29 -23.5 -58.5t-39.5 -52t-44.5 -37.5t-37.5 -15h-196q-14 0 -18 -7q-2 -21 -11.5 -73t-30.5 -134q0 -15 -3 -30q-76 -249 -207 -343q-27 -19 -80 -39.5t-127 -44.5l-10 4q0 15 11 26.5t31 28.5t50 44t71 75
q120 134 186 279q11 26 28.5 78t38.5 136h-225q-82 30 -82 118q0 27 6.5 62.5t18 72t26.5 72t32 62.5t35.5 43.5t35.5 16.5q147 0 210 -307h143q43 0 77 12t62.5 41t50 75t39.5 117q20 -100 24 -102q6 -23 19.5 -48t31.5 -46t37 -35t34 -14h155v-140zM1050 917
q-18 -111 -130 -180q-63 -38 -106 -52t-74 -15q-50 0 -84 31q5 20 162 100q-33 13 -55 31t-35 39t-18 44t-5 48q0 41 13.5 70.5t35 49.5t49 30.5t56.5 10.5q52 0 143 -34l5 -13q-41 -13 -77.5 -25.5t-63.5 -27t-43 -32.5t-16 -41q0 -35 24 -64.5t60 -48.5q15 9 36.5 27
l43 36t38 31.5t19.5 13.5q22 0 22 -29zM463 1090l-173 -411q-80 0 -147 237q-18 61 -32 101.5t-24 61.5q0 15 41 46h16q21 -43 53 -111t79 -158h19l116 285q24 -27 52 -51zM401 141q-20 65 -33.5 101t-20.5 48q-14 21 -32 32.5t-44 11.5q-32 0 -49.5 -19.5t-26 -45.5
t-9 -52.5t-0.5 -39.5q0 -36 33 -36h182z" />
    <glyph glyph-name="uniFBF4" unicode="&#xfbf4;" horiz-adv-x="1010" arabic-form="isolated" 
d="M925 277q0 -276 -217 -276h-220q-14 0 -18 -7q-2 -21 -11.5 -73t-30.5 -134q0 -15 -3 -30q-76 -249 -207 -343q-27 -19 -80 -39.5t-127 -44.5l-10 4q0 15 11 26.5t31 28.5t50 44t71 75q120 134 186 279q11 26 28.5 78t38.5 136h-225q-82 30 -82 118q0 27 6.5 62.5t18 72
t26.5 72t32 62.5t35.5 43.5t35.5 16.5q147 0 210 -307h176q105 0 155 34t50 92q0 16 -9.5 40t-23 49t-29.5 46.5t-26 31.5q12 18 31 43t47 59q80 -155 80 -259zM1002 967q0 -9 -24 -27.5t-73 -52.5l-255 -176q-23 0 -23 34q0 19 5 30.5t19 22.5t38.5 27t62.5 43
q-63 60 -63 161q0 26 13.5 52t34.5 46.5t46.5 32.5t47.5 12q28 0 106 -55v-20h-92q-16 0 -30 -7.5t-24.5 -20t-17 -29.5t-6.5 -36q0 -78 58 -78q6 0 19.5 5.5t30 13t36 17t34 18t24.5 14.5l10 6q23 0 23 -33zM401 141q-20 65 -33.5 101t-20.5 48q-14 21 -32 32.5t-44 11.5
q-32 0 -49.5 -19.5t-26 -45.5t-9 -52.5t-0.5 -39.5q0 -36 33 -36h182zM305 731q-8 -1 -23 -5t-42 -13v272q0 8 -3 25.5t-5.5 37t-5.5 37.5t-3 29q0 6 42 65h19q11 -84 16 -146t5 -102v-200z" />
    <glyph glyph-name="uniFBF5" unicode="&#xfbf5;" horiz-adv-x="1096" arabic-form="final" 
d="M1147 1h-17q-66 0 -112 9t-79 28.5t-54.5 51t-38.5 74.5h-17q-6 -29 -23.5 -58.5t-39.5 -52t-44.5 -37.5t-37.5 -15h-196q-14 0 -18 -7q-2 -21 -11.5 -73t-30.5 -134q0 -15 -3 -30q-76 -249 -207 -343q-27 -19 -80 -39.5t-127 -44.5l-10 4q0 15 11 26.5t31 28.5t50 44
t71 75q120 134 186 279q11 26 28.5 78t38.5 136h-225q-82 30 -82 118q0 27 6.5 62.5t18 72t26.5 72t32 62.5t35.5 43.5t35.5 16.5q147 0 210 -307h143q43 0 77 12t62.5 41t50 75t39.5 117q20 -100 24 -102q6 -23 19.5 -48t31.5 -46t37 -35t34 -14h155v-140zM1050 917
q-18 -111 -130 -180q-63 -38 -106 -52t-74 -15q-50 0 -84 31q5 20 162 100q-33 13 -55 31t-35 39t-18 44t-5 48q0 41 13.5 70.5t35 49.5t49 30.5t56.5 10.5q52 0 143 -34l5 -13q-41 -13 -77.5 -25.5t-63.5 -27t-43 -32.5t-16 -41q0 -35 24 -64.5t60 -48.5q15 9 36.5 27
l43 36t38 31.5t19.5 13.5q22 0 22 -29zM401 141q-20 65 -33.5 101t-20.5 48q-14 21 -32 32.5t-44 11.5q-32 0 -49.5 -19.5t-26 -45.5t-9 -52.5t-0.5 -39.5q0 -36 33 -36h182zM305 731q-8 -1 -23 -5t-42 -13v272q0 8 -3 25.5t-5.5 37t-5.5 37.5t-3 29q0 6 42 65h19
q11 -84 16 -146t5 -102v-200z" />
    <glyph glyph-name="uniFBF6" unicode="&#xfbf6;" horiz-adv-x="1414" arabic-form="isolated" 
d="M1395 261q0 -136 -54 -198t-165 -62h-453q-15 0 -41 -30v-30q15 -12 34.5 -18.5t39 -11t38.5 -9.5t33 -16t23 -30t9 -51q0 -28 -12.5 -62t-33 -64.5t-45 -55.5t-49.5 -38q-61 -30 -124 -46.5t-135 -16.5q-71 0 -131 23.5t-102.5 66t-66 102.5t-23.5 135q0 56 30 159
q1 8 17.5 44t46.5 99h16q-50 -180 -50 -236q0 -6 2 -14.5t4 -17.5t4 -17t2 -13q2 -28 18 -60t38.5 -59t49 -46t52.5 -24q35 -7 70.5 -10t71.5 -3q37 0 63 0.5t48.5 4t44.5 12t49 23.5q52 29 52 65q0 30 -12 35q-46 6 -121 32q-40 21 -40 83q0 47 16 86.5t44 70t62.5 50.5
t71.5 28h458q80 34 80 110q0 15 -9.5 39t-24 49t-29.5 47.5t-27 31.5q13 17 32.5 43t46.5 59q81 -155 81 -259zM1395 921q0 -7 -25.5 -26.5t-73.5 -52.5l-254 -175q-23 0 -23 31q0 21 5.5 32.5t18.5 23t37.5 26.5t64.5 44q-65 59 -65 159q0 27 14.5 53.5t35.5 46t45.5 32
t48.5 12.5q28 0 106 -55v-19h-93q-16 0 -30 -7t-25 -20t-17 -30t-6 -38q0 -77 59 -77q6 0 19.5 5.5t30 14t35 18t33.5 17.5t25.5 14t10.5 7q23 0 23 -36zM547 -803l-57 -77l-59 77q34 55 52 94q6 0 16 -13t21.5 -29.5t19 -32t7.5 -19.5zM552 -577l-62 -104q-7 14 -20.5 33
t-32.5 43q5 14 20.5 40t37.5 63z" />
    <glyph glyph-name="uniFBF7" unicode="&#xfbf7;" horiz-adv-x="1550" arabic-form="final" 
d="M1584 1h-168q-92 33 -134 144h-17q-6 -28 -21 -54t-36 -45.5t-44.5 -32t-44.5 -12.5h-396q-15 0 -41 -30v-30q15 -12 34.5 -18.5t39 -11t38.5 -9.5t33 -16t23 -30t9 -51q0 -28 -12.5 -62t-33 -64.5t-45 -55.5t-49.5 -38q-61 -30 -124 -46.5t-135 -16.5q-71 0 -131 23.5
t-102.5 66t-66 102.5t-23.5 135q0 56 30 159q1 8 17.5 44t46.5 99h16q-50 -180 -50 -236q0 -6 2 -14.5t4 -17.5t4 -17t2 -13q2 -28 18 -60t38.5 -59t49 -46t52.5 -24q35 -7 70.5 -10t71.5 -3q37 0 63 0.5t48.5 4t44.5 12t49 23.5q52 29 52 65q0 30 -12 35q-46 6 -121 32
q-40 21 -40 83q0 47 16 86.5t44 70t62.5 50.5t71.5 28h273q45 2 79.5 13t60 35.5t45.5 67t37 110.5q20 -100 24 -102q5 -21 17 -43t28.5 -39.5t36 -29.5t39.5 -12h157v-140zM1487 899q-18 -112 -130 -181q-64 -38 -107 -51.5t-74 -14.5q-50 0 -84 31q4 17 162 100
q-33 13 -55.5 31t-34.5 38.5t-16.5 43.5t-4.5 48q0 41 12.5 71t34 49.5t49 30t57.5 10.5q49 0 142 -34l5 -13q-41 -13 -77.5 -26t-63.5 -27t-43 -31.5t-16 -40.5q0 -36 23.5 -65.5t59.5 -47.5q16 7 38 25t42.5 36t36.5 32t21 14q23 0 23 -28zM547 -803l-57 -77l-59 77
q34 55 52 94q6 0 16 -13t21.5 -29.5t19 -32t7.5 -19.5zM552 -577l-62 -104q-7 14 -20.5 33t-32.5 43q5 14 20.5 40t37.5 63z" />
    <glyph glyph-name="uniFBF8" unicode="&#xfbf8;" horiz-adv-x="945" arabic-form="initial" 
d="M917 256q0 -255 -209 -255h-271q-96 43 -137 150h-18q-6 -24 -22.5 -51t-37.5 -49.5t-43.5 -36t-44.5 -13.5h-157v140h89q48 0 84 11t63 37t48 71t39 114q20 -99 25 -101q4 -20 16.5 -43t29 -43t37 -33t41.5 -13h324q79 30 79 107q0 13 -9.5 36.5t-23.5 48t-28.5 45.5
t-25.5 28q11 17 30.5 41.5t45.5 58.5q76 -149 76 -250zM917 889q0 -10 -94 -76l-244 -168q-21 0 -21 31q0 21 4 31t17.5 19.5t36.5 24.5t62 44q-61 56 -61 152q0 27 12.5 52t33 44.5t44.5 31.5t45 12q29 0 102 -53v-18h-89q-13 0 -26 -7.5t-24 -19.5t-17.5 -28.5t-6.5 -35.5
q0 -74 56 -74q9 0 33.5 11t50.5 24t45.5 24.5l19.5 11.5q21 0 21 -33zM342 -576q0 -9 -55 -96l-63 96q10 17 26 40t37 53q55 -87 55 -93zM342 -312q0 -7 -55 -95q-57 83 -57 97q10 21 57 91q55 -86 55 -93z" />
    <glyph glyph-name="uniFBF9" unicode="&#xfbf9;" horiz-adv-x="1404" arabic-form="isolated" 
d="M1381 262q0 -135 -54 -198t-164 -63h-442q-14 0 -40 -32v-30q15 -14 33.5 -20.5t38.5 -10.5t38 -9.5t33 -15.5t23.5 -29.5t8.5 -52.5q0 -29 -12 -61.5t-32 -63t-44 -56t-50 -38.5q-120 -63 -259 -63q-72 0 -131.5 23t-102 66.5t-65.5 103.5t-23 132q0 59 30 160
q1 7 17.5 42.5t46.5 101.5h15q-49 -173 -49 -238q0 -5 2 -13.5t3.5 -17.5t3.5 -17.5t2 -11.5q3 -30 19 -62t38.5 -59.5t49 -46t51.5 -22.5q45 -8 85 -10.5t76 -2.5q26 0 49 0.5t45 5t44 12.5t47 23q51 30 51 65q0 27 -10 34q-38 5 -122 33q-39 20 -39 81q0 48 16 87
t42.5 69.5t61.5 51.5t73 32h320q58 0 97.5 5.5t64 18.5t35 34.5t10.5 53.5q0 14 -10.5 38t-24.5 49t-29 47.5t-26 31.5q12 18 31 43.5t48 58.5q80 -154 80 -259zM1381 922q0 -7 -25.5 -25.5t-72.5 -53.5l-254 -175q-23 0 -23 32q0 22 5.5 33.5t18.5 22t37.5 25.5t64.5 43
q-65 61 -65 161q0 26 14 52t35 46t45.5 33t48.5 13q29 0 105 -56v-18h-91q-17 0 -30.5 -7.5t-24.5 -21t-17 -30.5t-6 -37q0 -78 59 -78q7 0 32.5 11.5t51.5 26t48 26.5l22 12q22 0 22 -35z" />
    <glyph glyph-name="uniFBFA" unicode="&#xfbfa;" horiz-adv-x="1553" arabic-form="final" 
d="M1584 1h-163q-86 34 -131 144h-15q-6 -27 -22 -52.5t-36 -46t-42.5 -33t-40.5 -12.5h-413q-14 0 -40 -32v-30q15 -14 33.5 -20.5t38.5 -10.5t38 -9.5t33 -15.5t23.5 -29.5t8.5 -52.5q0 -29 -12 -61.5t-32 -63t-44 -56t-50 -38.5q-120 -63 -259 -63q-72 0 -131.5 23
t-102 66.5t-65.5 103.5t-23 132q0 59 30 160q1 7 17.5 42.5t46.5 101.5h15q-49 -173 -49 -238q0 -5 2 -13.5t3.5 -17.5t3.5 -17.5t2 -11.5q3 -30 19 -62t38.5 -59.5t49 -46t51.5 -22.5q45 -8 85 -10.5t76 -2.5q26 0 49 0.5t45 5t44 12.5t47 23q51 30 51 65q0 27 -10 34
q-38 5 -122 33q-39 20 -39 81q0 48 16 87t42.5 69.5t61.5 51.5t73 32h283q49 0 83.5 9.5t59.5 33.5t43 66.5t36 108.5q21 -96 24 -99q6 -19 17.5 -40t27 -38t35 -29t39.5 -12h151v-140zM1488 874q-5 -41 -25 -74t-48 -59t-61.5 -46t-64.5 -32.5t-57.5 -20t-43.5 -7.5
q-50 0 -80 30q6 20 157 96q-32 14 -53 31t-34 37.5t-17.5 43t-4.5 46.5q0 38 12.5 67t33.5 48t48 29t55 10q49 0 135 -33l6 -11q-41 -13 -76 -25.5t-61 -26.5t-40.5 -31.5t-14.5 -38.5q0 -33 21.5 -61t59.5 -49q14 10 35.5 27.5t42 34t36 30t19.5 13.5q20 0 20 -28z" />
    <glyph glyph-name="uniFBFB" unicode="&#xfbfb;" horiz-adv-x="905" arabic-form="initial" 
d="M896 250q0 -249 -209 -249h-250q-96 39 -137 147h-18q-6 -25 -21.5 -51t-36 -47.5t-44 -35t-47.5 -13.5h-156v140h90q48 0 83.5 10t62.5 36t48 70t39 113q20 -99 23 -101q6 -21 18.5 -43.5t28 -41.5t33.5 -31t35 -12h11h183q42 0 72 1t48 3q78 22 78 97q0 13 -9.5 36.5
t-22.5 48t-28 45t-26 28.5q23 34 75 99q77 -149 77 -249zM920 919q0 -9 -24 -27t-72 -51l-254 -177q-23 0 -23 33q0 20 5 31.5t18.5 22t37.5 26.5t63 44q-63 60 -63 160q0 26 14 52t35 46.5t46 33t47 12.5q30 0 107 -55v-19h-93q-17 0 -30.5 -8t-24 -20.5t-16.5 -29.5
t-6 -36q0 -78 58 -78q7 0 27.5 8.5t43.5 20t44.5 23.5t29.5 16q10 6 21 6q9 0 9 -34z" />
    <glyph glyph-name="uni0677" unicode="&#x677;" horiz-adv-x="946" arabic-form="isolated" 
d="M427 38q0 -171 -56 -342q-81 -242 -374 -359v29q112 106 186 202t115 186l58 125q5 20 12 49.5t15 66.5q-4 1 -12 6h-242q-20 2 -37 16t-29.5 36t-19 51.5t-6.5 64.5q0 39 15 91.5t39 99t56 79.5t66 33q26 0 56 -20.5t58.5 -54.5t52 -80t33.5 -98q8 -29 11 -74.5
t3 -106.5zM328 1011q0 -30 -13 -69.5t-34 -81.5t-48 -84t-56 -78h-24q0 8 12.5 33.5t26.5 56t25.5 59t11.5 45.5q-71 45 -71 100q0 116 84 116q86 0 86 -97zM363 147q-24 50 -41 84.5t-32.5 56.5t-31 32.5t-38.5 10.5q-19 0 -39 -11.5t-36.5 -30t-28 -41.5t-11.5 -47
q0 -60 161 -60q29 0 53 2t44 4zM883 946q0 -8 -24 -26.5t-74 -52.5l-254 -176q-23 0 -23 33q0 19 5 30.5t18.5 23t38.5 27t63 43.5q-64 60 -64 161q0 26 14 52t35 46t46 32t48 12q28 0 106 -55v-19h-93q-15 0 -29 -8t-24.5 -20.5t-17.5 -29t-7 -36.5q0 -78 59 -78
q6 0 19.5 5.5t30 13.5t36 17.5t33.5 18t24.5 14.5l10.5 6q23 0 23 -34z" />
    <glyph glyph-name="afii57543-3" unicode="&#x6ad;" horiz-adv-x="1036" arabic-form="isolated" 
d="M952 1210q-16 -31 -26 -52.5t-10 -26.5q-5 -24 -5 -311v-314q0 -329 -103 -427q-77 -75 -300 -75q-130 0 -200 33q-118 52 -208 219v28q14 0 23 -10q107 -104 211 -125q32 -8 198 -8h158q33 0 60 17.5t45 43t28 57t10 60.5v750q0 6 -5.5 28.5t-12.5 48.5t-12.5 50
t-5.5 32q0 6 9.5 21t22.5 30.5t25 28.5t16 13q6 0 25.5 -23t48.5 -69q4 -8 6 -13.5zM688 842q0 -24 -18 -24h-143q-17 0 -38 -9.5t-38 -24t-29 -34t-12 -39.5q0 -16 16.5 -25.5t41 -15.5t52.5 -10.5t48 -8.5q97 -34 97 -107q0 -19 -10 -39t-25 -38.5t-33.5 -30.5t-33.5 -15
q-55 -6 -87.5 -10t-44.5 -4q-67 0 -169 23q-13 4 -22 25q12 16 46.5 25t91.5 9h93q62 8 62 55q0 37 -66 67l-69 10q-84 12 -84 125q0 26 4.5 49t24 41t56 28t99.5 10q46 0 72.5 -4t45.5 -9t34 -10.5t38 -8.5zM588 1000l-63 107l63 107l66 -107zM394 998l-66 109l66 104
l66 -106zM486 1253l-63 107l63 106l66 -106z" />
    <glyph glyph-name="afii57454-3" unicode="&#x6ad;" horiz-adv-x="1233" arabic-form="final" 
d="M1272 1h-117q-57 0 -114 87q-3 5 -23.5 42t-56.5 111q-7 -17 -15.5 -32t-19.5 -30.5t-25 -34.5t-34 -41q-15 -20 -53.5 -36t-90 -28.5t-110 -20.5t-114.5 -8q-83 0 -143.5 11t-90.5 25q-38 19 -69 50t-53 70.5t-34 85.5t-12 97q0 10 6 42t13 67t14.5 63.5t10.5 32.5
l14 -19q0 -5 -2 -23.5t-4 -39t-4 -38t-2 -19.5q0 -160 114 -227l122 -27q102 -2 175 -2q107 0 176 12.5t110.5 36t63 57.5t35.5 78q14 38 14 129q0 53 -2 106t-4.5 94t-5 66t-2.5 23v216q0 111 -31 296l100 57v-865l18 -137q3 -29 7 -53t11 -45t20 -37.5t34 -28.5
q17 -11 26 -17t16 -6h132v-140zM786 824q0 -13 -9.5 -21t-30 -13.5t-54 -9t-81.5 -8.5q-81 -7 -99 -92q12 -12 30.5 -20t38.5 -13.5t37.5 -8.5t24.5 -5q98 -28 98 -113q0 -38 -19 -67t-50 -49.5t-71.5 -31t-81.5 -10.5q-50 0 -160 29l-15 15v33q19 13 77 13q5 0 14 -2t19 -3
t19 -2.5t14 -1.5q8 0 21 5t20 5q18 0 34.5 3t30 11t22 21.5t8.5 36.5q0 19 -9 33.5t-26 19.5q-90 29 -133.5 60.5t-43.5 76.5q0 141 239 141q1 0 30 -2.5t90 -6.5q16 -12 16 -23zM674 995l-60 106l60 107l59 -107zM495 994l-61 107l61 106l59 -107zM579 1247l-60 107l60 107
l60 -107z" />
    <glyph glyph-name="afii57451-3" unicode="&#x6ad;" horiz-adv-x="778" arabic-form="initial" 
d="M724 1238l-539 -377q11 -18 66 -77t155 -161q2 -2 14 -16t29 -37t35.5 -55.5t34.5 -69.5q57 -107 57 -188q0 -54 -13.5 -100.5t-39 -81.5t-61.5 -54.5t-81 -19.5h-413v140h454q16 0 32.5 9.5t29.5 24.5t21 33.5t8 38.5q0 8 -12 46t-36.5 89t-62.5 107t-87 104l-124 122
q-43 25 -61 44.5t-18 34.5q0 8 3.5 34t8.5 54t11.5 51.5t11.5 25.5l577 375v-96zM472 1249l-66 106l66 106l68 -106zM287 1154l-67 107l67 105l69 -105zM345 1408l-66 107l66 106l69 -106z" />
    <glyph glyph-name="glyph1051" unicode="&#x6ad;" horiz-adv-x="846" arabic-form="medial" 
d="M875 1h-202q-14 0 -35 15t-45.5 41t-49.5 61t-46 75h-13q-11 -14 -22.5 -45.5t-32 -64.5t-54 -57.5t-88.5 -24.5h-317v140h292q13 0 35 5t45 14t42 22.5t28 32.5q19 44 28.5 71.5t9.5 40.5q0 14 -9 40.5t-22 56t-28 57.5t-26 46q-61 75 -122.5 137.5t-121.5 114.5v146
q148 104 294.5 206.5t297.5 209.5l33 -79l-543 -384q0 -3 -1 -3l-2 -1q0 -24 69 -71q101 -102 207 -307q15 -25 31.5 -75.5t38.5 -129.5q6 -23 11 -38t12 -27.5t18.5 -25t30.5 -31.5q13 -15 25 -21.5t19 -6.5h213v-140zM293 1153l-70 106l70 107l68 -107zM352 1408l-70 106
l70 107l67 -107zM476 1249l-57 105l57 107l70 -107z" />
    <glyph glyph-name="glyph1052" unicode="&#x6c7;" horiz-adv-x="493" arabic-form="isolated" 
d="M427 38q0 -171 -56 -342q-81 -242 -374 -359v29q112 106 186 202t115 186l58 125q5 20 12 49.5t15 66.5q-4 1 -12 6h-242q-20 2 -37 16t-29.5 36t-19 51.5t-6.5 64.5q0 39 15 91.5t39 99t56 79.5t66 33q26 0 56 -20.5t58.5 -54.5t52 -80t33.5 -98q8 -29 11 -74.5
t3 -106.5zM328 1011q0 -30 -13 -69.5t-34 -81.5t-48 -84t-56 -78h-24q0 8 12.5 33.5t26.5 56t25.5 59t11.5 45.5q-71 45 -71 100q0 116 84 116q86 0 86 -97zM363 147q-24 50 -41 84.5t-32.5 56.5t-31 32.5t-38.5 10.5q-19 0 -39 -11.5t-36.5 -30t-28 -41.5t-11.5 -47
q0 -60 161 -60q29 0 53 2t44 4z" />
    <glyph glyph-name="afii57471-3" unicode="&#x6c7;" horiz-adv-x="640" arabic-form="final" 
d="M666 1h-116q-9 0 -14.5 -14.5t-12 -42.5t-14.5 -69.5t-21 -96.5q0 -6 -0.5 -13.5t-1.5 -15.5q-83 -252 -216 -342q-56 -36 -216 -84l-10 4q0 15 9.5 24.5t30 26.5t53.5 44t79 76q63 67 110 138.5t80 143.5q14 25 32.5 78t39.5 143h-236q-84 20 -84 111q0 28 7 63.5
t18.5 72t28.5 71t33.5 61.5t36 44t36.5 17q151 0 218 -300h130v-140zM417 1018q0 -30 -11.5 -69.5t-30.5 -82t-44 -84.5t-53 -77h-22q2 10 13 35.5t24 56t23.5 59.5t10.5 43q-65 40 -65 100q0 116 76 116q79 0 79 -97zM459 141q-19 61 -32 97t-23 52q-28 43 -79 43
q-34 0 -51.5 -20.5t-26.5 -47t-10 -52t-1 -38.5q0 -34 36 -34h187z" />
    <glyph glyph-name="afii57458-3" unicode="&#x6c6;" horiz-adv-x="542" arabic-form="isolated" 
d="M445 40q0 -167 -50 -343q-37 -122 -124 -210t-224 -147v27q204 209 278 389l56 125q4 20 11 49t15 66q-7 5 -12 5h-226q-19 2 -34.5 16.5t-27 38t-18 53.5t-6.5 63q0 40 13 91.5t36 98.5t52.5 78.5t61.5 31.5q18 0 26 -2.5t14 -7t15 -13t28 -20.5q14 -10 30.5 -32.5
t31 -52t26.5 -62t16 -62.5q12 -60 12 -180zM463 1082l-181 -409q-85 0 -156 236q-19 61 -33 102.5t-24 61.5q0 14 44 47h16q16 -37 51 -103.5t87 -168.5h19l122 285q13 -13 26.5 -26t28.5 -25zM387 149q-21 42 -35.5 76.5t-28.5 58t-30.5 36t-36.5 12.5q-22 0 -41 -12
t-34 -30.5t-24 -42t-9 -45.5q0 -61 150 -61q55 0 89 8z" />
    <glyph glyph-name="afii57457-3" unicode="&#x6c6;" horiz-adv-x="564" arabic-form="final" 
d="M597 1h-109q-11 0 -17 -15.5t-11 -46t-12.5 -77.5t-22.5 -111q-76 -248 -207 -342q-27 -20 -80 -40.5t-127 -45.5l-10 5q0 15 11 26.5t31 28.5t50 43.5t71 75.5q121 135 186 279q12 24 29 79t38 141h-225q-82 22 -82 111q0 28 6.5 62.5t18 72t26.5 72t32 62.5t35.5 44.5
t35.5 16.5q147 0 210 -301h123v-140zM463 1090l-173 -411q-80 0 -147 237q-18 61 -32 101.5t-24 61.5q0 15 41 46h16q21 -43 53 -111t79 -158h19l116 285q24 -27 52 -51zM401 141q-20 65 -33.5 101t-20.5 48q-14 21 -32 32.5t-44 11.5q-32 0 -49.5 -19.5t-26 -45.5t-9 -52.5
t-0.5 -39.5q0 -36 33 -36h182z" />
    <glyph glyph-name="afii57494-3" unicode="&#x6c8;" horiz-adv-x="570" arabic-form="isolated" 
d="M451 41q0 -168 -58 -342q-38 -122 -130.5 -210.5t-241.5 -147.5v28q222 218 300 388l58 125q6 22 12 50t16 65q-4 4 -14 4h-240q-18 0 -35 12.5t-29.5 36t-20 54.5t-7.5 67q0 42 15 95t39.5 99t55.5 78.5t65 32.5q19 0 48 -16.5t59 -47.5t55.5 -79t37.5 -110
q6 -30 10.5 -75t4.5 -107zM387 151q-23 43 -39 77t-31 57.5t-32.5 36t-41.5 12.5q-18 0 -38 -11.5t-36.5 -30t-27.5 -42t-11 -45.5q0 -62 161 -62q62 0 96 8zM277 730q-11 -2 -27.5 -7.5t-38.5 -11.5v270q0 11 -3 29t-7 37t-7 36.5t-3 28.5q0 8 45 65h19q8 -88 15 -150.5
t7 -98.5v-198z" />
    <glyph glyph-name="afii57459-3" unicode="&#x6c8;" horiz-adv-x="643" arabic-form="final" 
d="M680 1h-122q-14 0 -25.5 -57t-39.5 -167q0 -5 -0.5 -12.5t-0.5 -16.5q-85 -251 -226 -342q-60 -39 -225 -85l-11 3q0 11 8.5 22.5t26 27t43 34.5t60.5 46q7 8 17.5 19t23.5 25q68 67 116 137.5t85 142.5q11 26 30.5 80.5t43.5 142.5h-246q-90 20 -90 110q0 25 7 59.5
t19.5 71t29.5 72t35.5 63.5t37.5 45.5t39 17.5q158 0 229 -299h135v-140zM464 141q-38 119 -57 146q-29 45 -83 45q-23 0 -38.5 -9t-26.5 -23.5t-16 -32.5t-8 -35.5t-4.5 -32.5t-1.5 -24q0 -34 40 -34h195zM348 731q-7 -1 -22 -5t-43 -13v272q0 8 -3 25.5t-5.5 37t-5.5 37.5
t-3 29q0 6 42 65h20q9 -84 14.5 -146t5.5 -102v-200z" />
    <glyph glyph-name="afii57455-3" unicode="&#x6c5;" horiz-adv-x="817" arabic-form="isolated" 
d="M775 79v-30q0 -100 -13 -176q-17 -89 -91 -192q-83 -118 -172 -158q-156 -70 -252 -70h-16q-99 6 -155.5 54.5t-61.5 126.5q-1 20 -1 38q0 106 30 163q34 68 89 93t115.5 23t134 -53.5t119.5 -201.5q138 125 170 235v68h-118q-143 0 -194 23q-96 47 -96 157q0 47 37 192
q9 32 21 62q38 124 146 124q30 0 88 -36q99 -56 158.5 -190.5t61.5 -251.5zM663 171q-97 186 -182 181q-110 0 -110 -109q0 -108 103 -108h163q19 0 26 12v24zM332 -181.5q-69 21.5 -128 0.5q-82 -22 -83.5 -108.5t75.5 -102t266 66.5q-61 122 -130 143.5z" />
    <glyph glyph-name="afii57452-3" unicode="&#x6c5;" horiz-adv-x="960" arabic-form="final" 
d="M773 2q-3 -21 -10 -90t-25.5 -118.5t-59.5 -108t-93 -103.5t-122 -73.5t-191 -33.5q-13 -1 -25 -1q-103 0 -158 40q-64 44 -75 105q-7 33 -7 65q0 30 6 60q10 63 32 99.5t65 67t111 38.5t129 -20q111 -52 167 -258q79 65 116.5 131t43.5 137v66h-118q-140 -6 -194 24
q-96 47 -96 158q0 46 23 134.5t35 118.5q38 125 146 137h9q60 0 143 -87q88 -93 126 -326q2 -27 31 -27h192v-135h-201zM624 170q-99 240 -173 232.5t-86 -140.5q0 -125 91 -125h145q17 0 23 10v23zM338 -174.5q-69 21.5 -148.5 0t-80.5 -113t97.5 -117.5t270.5 53
q-70 156 -139 177.5z" />
    <glyph glyph-name="glyph1060" unicode="&#x6c9;" horiz-adv-x="542" arabic-form="isolated" 
d="M445 40q0 -167 -50 -343q-37 -122 -124 -210t-224 -147v27q204 209 278 389l56 125q4 20 11 49t15 66q-7 5 -12 5h-226q-19 2 -34.5 16.5t-27 38t-18 53.5t-6.5 63q0 40 13 91.5t36 98.5t52.5 78.5t61.5 31.5q18 0 26 -2.5t14 -7t15 -13t28 -20.5q14 -10 30.5 -32.5
t31 -52t26.5 -62t16 -62.5q12 -60 12 -180zM69 723l182 410q85 0 155 -236q19 -61 33 -102.5t24 -63.5q0 -13 -44 -45h-14q-18 36 -52.5 103t-87.5 168h-19l-121 -284q-13 13 -27 26t-29 24zM387 149q-21 42 -35.5 76.5t-28.5 58t-30.5 36t-36.5 12.5q-22 0 -41 -12
t-34 -30.5t-24 -42t-9 -45.5q0 -61 150 -61q55 0 89 8z" />
    <glyph glyph-name="glyph1061" unicode="&#x6c9;" horiz-adv-x="564" arabic-form="final" 
d="M597 1h-109q-11 0 -17 -15.5t-11 -46t-12.5 -77.5t-22.5 -111q-76 -248 -207 -342q-27 -20 -80 -40.5t-127 -45.5l-10 5q0 15 11 26.5t31 28.5t50 43.5t71 75.5q121 135 186 279q12 24 29 79t38 141h-225q-82 22 -82 111q0 28 6.5 62.5t18 72t26.5 72t32 62.5t35.5 44.5
t35.5 16.5q147 0 210 -301h123v-140zM87 730l173 411q79 0 147 -237q19 -62 32.5 -102.5t23.5 -60.5q0 -14 -42 -47h-14q-22 43 -54.5 111.5t-77.5 158.5h-20l-117 -285q-24 27 -51 51zM401 141q-20 65 -33.5 101t-20.5 48q-14 21 -32 32.5t-44 11.5q-32 0 -49.5 -19.5
t-26 -45.5t-9 -52.5t-0.5 -39.5q0 -36 33 -36h182z" />
    <glyph glyph-name="glyph1062" unicode="&#x6cb;" horiz-adv-x="527" arabic-form="isolated" 
d="M465 34q0 -171 -55 -347q-80 -244 -370 -363v28q218 212 299 395l56 126q5 20 11.5 49.5t15.5 66.5q-9 6 -12 6h-239q-19 0 -35.5 14t-29 37.5t-19.5 54t-7 64.5q0 38 14 91t38 101t56 81.5t66 33.5q16 0 25 -3t17 -8.5t17.5 -13.5t28.5 -19q12 -5 28 -26.5t32 -53
t30.5 -66.5t19.5 -65q6 -29 10 -75.5t3 -107.5zM402 145q-10 20 -23.5 52t-31 60.5t-38.5 50t-47 21.5q-20 0 -40 -12t-36 -30t-26.5 -41t-10.5 -47q0 -63 157 -63q58 0 96 9zM149 669l-65 108l65 108l64 -108zM342 673l-64 104l64 110l64 -108zM242 927l-65 109l65 107
l63 -107z" />
    <glyph glyph-name="afii62884-3" unicode="&#x6cb;" horiz-adv-x="651" arabic-form="final" 
d="M683 -5h-118q-11 0 -27.5 -62t-38.5 -191q-79 -257 -216 -348q-49 -34 -218 -85l-11 4q0 22 34 51t102 80q76 81 134.5 162.5t96.5 165.5q12 25 30 80t42 143h-237q-87 21 -87 112q0 27 7.5 61.5t18.5 72t27 73.5t34 64t37 45.5t38 17.5q154 0 221 -304h131v-142z
M475 137q-39 126 -55 150q-31 44 -80 44q-17 0 -29 -4t-20 -10t-11.5 -12.5t-5.5 -12.5q-27 -75 -27 -120q0 -35 37 -35h191zM330 934l-61 108l61 108l61 -108zM425 679l-61 108l61 106l61 -106zM245 676l-60 111l60 106l59 -109z" />
    <glyph glyph-name="afii62881-3" unicode="&#x6d0;" horiz-adv-x="1199" arabic-form="isolated" 
d="M1075 469q0 -34 -36 -34q-5 0 -17 2.5t-27 5.5l-30 8q-12 3 -23 3q-109 0 -215 -132q-16 -21 -16 -81q0 -64 65 -84l95 -10q41 -4 71 -31.5t49.5 -63.5t29.5 -71t10 -53q0 -30 -5.5 -53.5t-14.5 -46.5t-21 -45t-23 -48q-119 -150 -334 -164q-13 0 -32.5 -4.5t-27.5 -4.5
q-78 0 -153 22t-133 68.5t-94 116t-36 164.5q0 50 10 93.5t27.5 84.5t40 81.5t47.5 86.5h17q-80 -304 -80 -328q0 -17 4 -43t16.5 -55.5t35 -59.5t59.5 -53t91 -38t128 -15q79 0 153 16t131 44t91 65t34 77q0 16 -7 36.5t-19 38t-26 29t-27 11.5q-133 5 -170 30
q-34 22 -49.5 61t-15.5 104q0 36 10 79.5t27.5 86t39.5 78.5t48 57q6 7 22.5 19t38 24t47 20.5t49.5 8.5q18 0 43 -8t48 -21.5t38.5 -33t15.5 -40.5zM625 -805l-58 -78l-60 78q18 28 31.5 51.5t21.5 42.5q6 0 17.5 -13.5t21.5 -30t18 -31.5t8 -19zM630 -579l-63 -103
q-8 13 -21 32.5t-34 45.5q7 13 21.5 39t37.5 63z" />
    <glyph glyph-name="afii62886-3" unicode="&#x6d0;" horiz-adv-x="1037" arabic-form="final" 
d="M1071 -5h-341q-15 0 -41 -30v-30q16 -13 35 -19t39.5 -10.5t39 -9.5t33.5 -16.5t23.5 -31t8.5 -51.5q0 -29 -12.5 -62.5t-33 -64.5t-46 -57t-50.5 -39q-62 -30 -125.5 -46.5t-137.5 -16.5q-72 0 -132 23.5t-103 67t-67 104t-24 135.5q0 57 30 162q2 7 18 43.5t47 100.5
h17q-52 -182 -52 -240q0 -6 2 -14t5 -17t4.5 -17t1.5 -13q3 -30 18.5 -61.5t38 -59.5t50.5 -47t53 -24q36 -7 72 -10t72 -3h63.5t49 4t44.5 12.5t50 24.5q53 30 53 66q0 30 -13 36q-46 5 -122 31q-40 20 -40 84q0 48 16 88t44 70.5t64 51t72 28.5h276v-142zM552 -819
l-59 -78l-58 78q33 57 52 95q5 0 16 -13t22.5 -30t19 -32.5t7.5 -19.5zM558 -591l-63 -103q-8 12 -21 32t-33 45q6 13 21.5 39.5t35.5 63.5z" />
    <glyph glyph-name="afii62883-3" unicode="&#x6d0;" horiz-adv-x="456" arabic-form="initial" 
d="M380 257q0 -262 -209 -262h-197v142h116q224 0 224 107q0 58 -94 171l68 98q2 0 5 -1t10 -1q77 -122 77 -254zM303 -592q0 -12 -60 -96l-66 96q9 13 25 37t41 58q60 -88 60 -95zM303 -324q0 -9 -60 -96q-59 85 -59 98q4 9 19 32t40 62q60 -89 60 -96z" />
    <glyph glyph-name="afii62885-3" unicode="&#x6d0;" horiz-adv-x="580" arabic-form="medial" 
d="M614 -5h-171q-98 44 -140 152h-16q-8 -25 -24 -52t-37 -49.5t-44.5 -36.5t-44.5 -14h-160v142h90q48 0 84.5 11t64 38t48.5 72.5t39 114.5q21 -99 26 -102q3 -21 16.5 -44.5t30.5 -43t37.5 -33t41.5 -13.5h159v-142zM347 -589q0 -8 -56 -96l-63 96q9 18 25.5 41t37.5 55
q56 -89 56 -96zM347 -322q0 -7 -56 -96q-57 84 -57 99q9 21 57 93q56 -87 56 -96z" />
    <glyph glyph-name="afii62882-3" unicode="&#x649;" horiz-adv-x="392" arabic-form="initial" 
d="M339 257q0 -262 -188 -262h-174v142h103q201 0 201 107q0 55 -84 173l60 96q7 0 12 -2q70 -122 70 -254z" />
    <glyph glyph-name="afii57504-3" unicode="&#x649;" horiz-adv-x="583" arabic-form="medial" 
d="M611 -5h-171q-98 40 -140 150h-18q-6 -26 -21.5 -52t-36.5 -48t-45 -36t-47 -14h-158v142h91q49 0 85 10.5t63 36t48 70.5t39 115q22 -101 24 -102q6 -23 19 -45.5t30 -41.5t37.5 -31t41.5 -12h159v-142z" />
    <glyph glyph-name=".notdef" horiz-adv-x="1620" 
d="M284 248v1313h1051v-1313h-1051zM318 280h984v1247h-984v-1247z" />
    <glyph glyph-name=".null" horiz-adv-x="0" 
 />
    <glyph glyph-name="nonmarkingreturn" horiz-adv-x="512" 
 />
    <glyph glyph-name="space" unicode=" " horiz-adv-x="512" 
 />
    <glyph glyph-name="space" unicode="&#xa0;" horiz-adv-x="512" 
 />
    <glyph glyph-name="exclam" unicode="!" horiz-adv-x="676" 
d="M356 347h-37l-85 788q-6 51 -6 76q0 62 32.5 99t77.5 37q46 0 78 -37t32 -111q0 -22 -4 -64zM337 187q45 0 76.5 -32t31.5 -75q0 -46 -31.5 -77t-76.5 -31t-76.5 31t-31.5 77q0 43 31.5 75t76.5 32z" />
    <glyph glyph-name="quotedbl" unicode="&#x22;" horiz-adv-x="820" 
d="M564 779l-53 284l-22 117q-1 25 -1 49q0 62 27 90t72 28q42 0 69.5 -28t27.5 -76q0 -83 -18 -179l-55 -285h-47zM207 779l-52 287q-22 119 -22 162q0 63 26 91t69 28t71 -29t28 -77q0 -37 -25 -175l-53 -287h-42z" />
    <glyph glyph-name="numbersign" unicode="#" horiz-adv-x="998" 
d="M113 -28l91 441h-167v81h181l67 332h-248v78h268l87 443h82l-89 -443h328l94 443h81l-93 -443h166v-78h-180l-68 -332h248v-81h-265l-90 -441h-79l88 441h-330l-92 -441h-80zM301 494h329l69 332h-331z" />
    <glyph glyph-name="dollar" unicode="$" horiz-adv-x="1002" 
d="M108 323h43q11 -133 83.5 -203.5t217.5 -85.5v568q-219 135 -291 240q-52 73 -52 179q0 120 89 209t254 107v90h63v-90q79 -4 133 -18q29 -7 187 -67v-290h-38q-12 155 -80 226t-202 85v-494q245 -171 314.5 -252t69.5 -202q0 -134 -102 -235.5t-282 -117.5v-125h-63v125
q-91 4 -170 20.5t-174 56.5v274zM452 820v451q-97 -10 -144.5 -60.5t-47.5 -126.5q0 -71 43 -132.5t149 -131.5zM515 34q72 13 111 36q54 35 86 89.5t32 117.5t-38.5 120.5t-190.5 162.5v-526z" />
    <glyph glyph-name="percent" unicode="%" horiz-adv-x="1662" 
d="M1355 1347l-960 -1402h-87l960 1402h87zM356 1347q131 0 203.5 -109t72.5 -250q0 -169 -82 -261.5t-196 -92.5q-77 0 -141 42.5t-102.5 126t-38.5 185.5t39 188t106 128.5t139 42.5zM353 1292q-49 0 -87.5 -58.5t-38.5 -244.5q0 -135 21 -206q16 -54 52 -83
q20 -17 50 -17q47 0 80 51q49 74 49 249q0 185 -48 260q-31 49 -78 49zM1310 652q69 0 138 -43t106 -127t37 -184q0 -173 -82.5 -263t-195.5 -90q-71 0 -137.5 43.5t-105 124.5t-38.5 185q0 102 38.5 186.5t105 126t134.5 41.5zM1312 601q-47 0 -81 -52q-44 -68 -44 -258
q0 -174 44 -242q34 -50 81 -50q44 0 79 53q47 71 47 244q0 182 -47 255q-33 50 -79 50z" />
    <glyph glyph-name="ampersand" unicode="&#x26;" horiz-adv-x="1552" 
d="M1018 847h408v-36q-85 -6 -125 -37t-125.5 -185.5t-192.5 -289.5q87 -100 154.5 -140.5t137.5 -40.5q66 0 113 36.5t66 107.5l36 -26q-36 -137 -115.5 -202t-185.5 -65q-80 0 -162 43t-179 146q-120 -107 -217.5 -148t-206.5 -41q-161 0 -255 85.5t-94 204.5
q0 117 84.5 234t317.5 242q-46 102 -62 166t-16 124q0 166 122 254q95 68 216 68q117 0 189.5 -68.5t72.5 -169.5q0 -103 -70 -180.5t-249 -169.5q123 -220 257 -403q171 204 171 344q0 45 -29 81q-21 25 -61 30v36zM646 821q121 58 180.5 131t59.5 162q0 70 -43 116
t-107 46q-85 0 -128 -58.5t-43 -115.5q0 -48 16.5 -106.5t64.5 -174.5zM797 214q-128 175 -178 255.5t-108 200.5q-117 -67 -175.5 -147.5t-58.5 -175.5q0 -104 66.5 -182.5t180.5 -78.5q61 0 118 24.5t155 103.5z" />
    <glyph glyph-name="quotesingle" unicode="'" horiz-adv-x="364" 
d="M155 779l-51 287q-23 120 -23 162q0 63 25 91t70 28q43 0 72 -29t29 -75q0 -36 -26 -177l-52 -287h-44z" />
    <glyph glyph-name="parenleft" unicode="(" horiz-adv-x="666" 
d="M620 -391v-35q-146 73 -244 173q-141 140 -216.5 331t-75.5 398q0 301 149 549.5t387 355.5v-41q-120 -66 -196 -180.5t-114.5 -290.5t-38.5 -368q0 -208 33 -378q25 -134 61 -215t96.5 -156t158.5 -143z" />
    <glyph glyph-name="parenright" unicode=")" horiz-adv-x="666" 
d="M46 1340v41q148 -74 246 -172q139 -143 214.5 -333.5t75.5 -397.5q0 -301 -148 -549t-388 -355v35q120 67 197 181.5t114.5 290.5t37.5 367q0 208 -32 378q-24 135 -60.5 216t-96.5 155t-160 143z" />
    <glyph glyph-name="asterisk" unicode="*" horiz-adv-x="1004" 
d="M485 1013q-5 68 -28 134q-34 94 -34 130q0 51 24 77.5t59 26.5q30 0 53 -26.5t23 -74.5q0 -45 -26 -123t-32 -144q53 34 96 83q66 77 98.5 95.5t64.5 18.5q33 0 54.5 -22t21.5 -52q0 -36 -32 -64.5t-160 -55.5q-74 -17 -125 -39q51 -26 124 -39q117 -22 154 -54.5
t37 -69.5q0 -29 -22.5 -50.5t-51.5 -21.5q-28 0 -63.5 20.5t-95.5 91.5q-41 48 -100 90q3 -57 23 -121q35 -114 35 -156q0 -40 -23.5 -66.5t-49.5 -26.5q-36 0 -65 28q-21 20 -21 66q0 45 22.5 111t28.5 91t11 74q-58 -39 -101 -85q-71 -80 -107 -101q-25 -16 -53 -16
q-32 0 -55.5 22.5t-23.5 49.5q0 24 20 51t59 44q27 12 120 31q60 13 118 37q-53 27 -125 41q-120 25 -149 46q-43 32 -43 78q0 26 21.5 47.5t51.5 21.5q31 0 67 -20t90 -82t110 -96z" />
    <glyph glyph-name="plus" unicode="+" horiz-adv-x="1125" 
d="M521 136v485h-484v79h484v484h78v-484h486v-79h-486v-485h-78z" />
    <glyph glyph-name="comma" unicode="," horiz-adv-x="503" 
d="M110 -333v44q100 32 155 101.5t55 147.5q0 18 -8 31q-8 9 -15 9q-11 0 -47 -19q-16 -9 -36 -9q-48 0 -76 28t-28 77q0 48 36.5 82t88.5 34q65 0 114.5 -56t49.5 -148q0 -100 -69 -186t-220 -136z" />
    <glyph glyph-name="hyphen" unicode="-" horiz-adv-x="906" 
d="M743 -1h-533v143h533v-143z" />
    <glyph glyph-name="hyphen" unicode="&#xad;" horiz-adv-x="906" 
d="M743 -1h-533v143h533v-143z" />
    <glyph glyph-name="period" unicode="." horiz-adv-x="600" 
d="M302 224q53 0 89.5 -36.5t36.5 -88.5q0 -54 -37 -90.5t-89 -36.5q-53 0 -90 36.5t-37 90.5q0 53 37 89t90 36z" />
    <glyph glyph-name="slash" unicode="/" horiz-adv-x="554" 
d="M559 1381l-478 -1409h-78l478 1409h78z" />
    <glyph glyph-name="zero" unicode="0" horiz-adv-x="999" 
d="M74 650q0 225 68 388t180 243q88 62 182 62q151 0 272 -153q150 -192 150 -520q0 -229 -66 -389t-168.5 -232.5t-197.5 -72.5q-188 0 -314 221q-106 189 -106 453zM265 626q0 -273 67 -444q55 -145 164 -145q53 0 109.5 46.5t85.5 158.5q45 167 45 471q0 226 -46 376
q-35 112 -92 158q-39 33 -96 33q-66 0 -117 -60q-70 -81 -95 -253.5t-25 -340.5z" />
    <glyph glyph-name="one" unicode="1" horiz-adv-x="1010" 
d="M240 1187l320 156h33v-1112q0 -110 9 -138t38.5 -42t119.5 -17v-35h-497v35q93 3 121 16.5t38 37.5t10 143v712q0 144 -10 184q-6 32 -24 46t-43 14q-36 0 -101 -30z" />
    <glyph glyph-name="two" unicode="2" horiz-adv-x="999" 
d="M914 253l-92 -254h-778v35q343 313 483 512t140 362q0 126 -77 206.5t-184 80.5q-97 0 -174.5 -56.5t-113.5 -167.5h-36q24 180 125 276t251 96q161 0 268.5 -102.5t107.5 -242.5q0 -100 -47 -201q-72 -157 -234 -333q-241 -264 -301 -318h343q105 0 147 7.5t76.5 31
t59.5 68.5h36z" />
    <glyph glyph-name="three" unicode="3" horiz-adv-x="1003" 
d="M103 1066q57 133 142.5 205t214.5 72q158 0 243 -103q64 -77 64 -163q0 -144 -180 -298q121 -48 183.5 -136t62.5 -208q0 -172 -109 -296q-142 -163 -412 -163q-133 0 -181 32.5t-48 71.5q0 27 23 49t55 22q24 0 49 -9q17 -5 75 -35.5t81 -36.5q36 -11 77 -11
q98 0 172 77t74 183q0 76 -35 150q-25 54 -55 81q-42 40 -114.5 71t-148.5 31h-31v30q77 10 153.5 55.5t112 109.5t35.5 141q0 100 -63 161.5t-155 61.5q-151 0 -252 -160z" />
    <glyph glyph-name="four" unicode="4" horiz-adv-x="998" 
d="M927 484v-138h-176v-347h-161v347h-558v125l611 872h108v-859h176zM590 484v654l-463 -654h463z" />
    <glyph glyph-name="five" unicode="5" horiz-adv-x="1002" 
d="M867 1317l-75 -166h-398l-86 -176q258 -38 408 -192q130 -132 130 -311q0 -104 -43 -192.5t-106.5 -150.5t-142.5 -101q-112 -52 -229 -52q-119 0 -173 40t-54 89q0 26 22 47t57 21q25 0 44 -7.5t64 -40.5q73 -50 148 -50q114 0 200.5 86.5t86.5 209.5q0 119 -77 223
t-213 160q-105 43 -289 51l253 512h473z" />
    <glyph glyph-name="six" unicode="6" horiz-adv-x="1000" 
d="M894 1343v-36q-128 -12 -209 -50t-160 -117t-131.5 -176t-87.5 -230q141 97 281 97q136 0 235 -109t99 -280q0 -165 -100 -301q-121 -165 -319 -165q-136 0 -229 88q-185 174 -185 451q0 178 71 337t203 282.5t252.5 166t223.5 42.5h56zM290 663q-17 -131 -17 -211
q0 -94 34 -203t103 -174q49 -46 121 -46q84 0 150.5 80t66.5 228q0 166 -66 287.5t-187 121.5q-37 0 -80 -15.5t-125 -67.5z" />
    <glyph glyph-name="seven" unicode="7" horiz-adv-x="1000" 
d="M202 1317h707v-37l-439 -1308h-110l394 1187h-362q-110 0 -156 -27q-82 -45 -132 -138l-28 11z" />
    <glyph glyph-name="eight" unicode="8" horiz-adv-x="1003" 
d="M386 663q-158 127 -203 205t-45 162q0 129 99 221t264 92q159 0 256.5 -86t97.5 -197q0 -74 -52.5 -151t-218.5 -180q171 -133 226 -209q74 -98 74 -209q0 -139 -106 -237t-278 -98q-188 0 -292 117q-84 94 -84 206q0 87 59 173.5t203 190.5zM538 766
q116 106 147.5 166.5t31.5 137.5q0 102 -57 159.5t-157 57.5q-99 0 -161 -57t-62 -134q0 -50 26 -101t72 -97zM431 626q-80 -69 -119 -149t-39 -173q0 -126 68.5 -201t173.5 -75q106 0 169 59t63 144q0 70 -37 125q-69 103 -279 270z" />
    <glyph glyph-name="nine" unicode="9" horiz-adv-x="1001" 
d="M107 -28v36q126 1 235.5 58t211 198.5t140.5 312.5q-152 -99 -276 -99q-139 0 -238 107.5t-99 286.5q0 173 100 307q118 164 312 164q162 0 277 -133q143 -167 143 -410q0 -220 -108 -410t-302 -316q-156 -102 -340 -102h-56zM710 649q18 126 18 202q0 94 -32.5 203
t-91.5 168t-133 59q-86 0 -151.5 -78t-65.5 -232q0 -205 86 -320q64 -84 156 -84q45 0 106 21.5t108 60.5z" />
    <glyph glyph-name="colon" unicode=":" horiz-adv-x="563" 
d="M286 916q45 0 76 -31.5t31 -76.5q0 -44 -31 -76t-76 -32t-76.5 32t-31.5 76q0 45 31.5 76.5t76.5 31.5zM284 188q46 0 77.5 -32t31.5 -76q0 -46 -32.5 -77t-76.5 -31t-76 31t-32 77q0 44 32 76t76 32z" />
    <glyph glyph-name="semicolon" unicode=";" horiz-adv-x="560" 
d="M278 917q45 0 76.5 -31t31.5 -75q0 -46 -31.5 -77t-76.5 -31t-76.5 31t-31.5 77q0 44 31.5 75t76.5 31zM142 -333v44q100 32 155 101.5t55 147.5q0 18 -8 31q-8 9 -15 9q-11 0 -47 -19q-16 -9 -36 -9q-48 0 -76 28t-28 77q0 48 36.5 82t88.5 34q65 0 114.5 -56t49.5 -148
q0 -100 -69 -186t-220 -136z" />
    <glyph glyph-name="semicolon" unicode="&#x37e;" horiz-adv-x="560" 
d="M278 917q45 0 76.5 -31t31.5 -75q0 -46 -31.5 -77t-76.5 -31t-76.5 31t-31.5 77q0 44 31.5 75t76.5 31zM142 -333v44q100 32 155 101.5t55 147.5q0 18 -8 31q-8 9 -15 9q-11 0 -47 -19q-16 -9 -36 -9q-48 0 -76 28t-28 77q0 48 36.5 82t88.5 34q65 0 114.5 -56t49.5 -148
q0 -100 -69 -186t-220 -136z" />
    <glyph glyph-name="less" unicode="&#x3c;" horiz-adv-x="1124" 
d="M37 685l1046 453v-85l-900 -390l900 -395v-87l-1046 456v48z" />
    <glyph glyph-name="equal" unicode="=" horiz-adv-x="1125" 
d="M37 857h1049v-80h-1049v80zM37 539h1049v-79h-1049v79z" />
    <glyph glyph-name="greater" unicode="&#x3e;" horiz-adv-x="1124" 
d="M1083 633l-1046 -452v82l901 392l-901 394v89l1046 -457v-48z" />
    <glyph glyph-name="question" unicode="?" horiz-adv-x="889" 
d="M444 309h-40q7 124 30.5 203.5t99.5 222.5q57 110 75 169t18 119q0 124 -66 196.5t-161 72.5q-85 0 -133.5 -39.5t-48.5 -86.5q0 -36 29.5 -88.5t29.5 -79.5q0 -35 -22.5 -59t-54.5 -24q-41 0 -74.5 40t-33.5 112q0 111 94 195.5t256 84.5q200 0 294 -116q70 -87 70 -190
q0 -72 -31 -146.5t-120 -175.5q-141 -159 -172.5 -225.5t-38.5 -184.5zM430 189q46 0 78 -32t32 -77t-32.5 -76.5t-77.5 -31.5q-44 0 -76 31.5t-32 76.5t32 77t76 32z" />
    <glyph glyph-name="at" unicode="@" horiz-adv-x="1837" 
d="M1371 929l-114 -387q-63 -217 -76.5 -276t-13.5 -94q0 -31 21 -52t53 -21q70 0 170 71t170.5 230.5t70.5 332.5q0 165 -80.5 306t-226 216.5t-323.5 75.5q-224 0 -416.5 -119t-305 -342.5t-112.5 -464.5q0 -223 99 -406t278 -276.5t384 -93.5q256 0 463 137t319 400h57
q-88 -266 -318.5 -431.5t-525.5 -165.5q-230 0 -428.5 110t-308.5 310t-110 441q0 257 120.5 479t338 347t460.5 125q202 0 364 -83t246.5 -243t84.5 -340q0 -178 -79 -352.5t-202 -254.5t-257 -80q-73 0 -110 35.5t-37 97.5q0 56 17 143q-144 -174 -230.5 -225t-152.5 -51
q-70 0 -123.5 61.5t-53.5 164.5q0 141 92 316t244 285q112 80 201 80q65 0 108 -33.5t59 -100.5l32 107zM1031 890q-74 0 -149 -77q-109 -113 -187 -304q-58 -140 -58 -225q0 -61 35 -99.5t78 -38.5q55 0 117.5 42.5t131 131.5t98.5 179q55 153 55 250q0 65 -35.5 103
t-85.5 38z" />
    <glyph glyph-name="A" unicode="A" horiz-adv-x="1438" 
d="M911 440h-510l-90 -208q-32 -77 -32 -115q0 -30 28 -53t124 -30v-35h-415v35q83 15 107 39q49 46 110 189l463 1085h34l460 -1097q55 -132 100 -171.5t125 -44.5v-35h-519v35q79 5 106.5 27t27.5 54q0 43 -40 135zM884 512l-224 533l-229 -533h453z" />
    <glyph glyph-name="B" unicode="B" horiz-adv-x="1332" 
d="M921 671q137 -28 205 -93q94 -89 94 -219q0 -98 -62 -188t-170.5 -131t-331.5 -41h-622v35h49q83 0 119 53q23 34 23 145v851q0 122 -29 155q-37 43 -113 43h-49v36h570q160 0 256 -24q145 -35 221.5 -123.5t76.5 -205.5q0 -98 -60 -176.5t-177 -116.5zM411 724
q36 -7 82 -10.5t101 -3.5q143 0 214.5 30.5t109.5 94t38 138.5q0 115 -94.5 196.5t-275.5 81.5q-97 0 -175 -20v-507zM411 94q113 -26 223 -26q175 0 267.5 79t92.5 196q0 76 -41.5 147t-136 112t-232.5 41q-62 0 -104.5 -2t-68.5 -7v-540z" />
    <glyph glyph-name="C" unicode="C" horiz-adv-x="1332" 
d="M1201 1347l30 -449h-30q-60 202 -172.5 290t-268.5 88q-130 0 -236.5 -66.5t-167 -212.5t-60.5 -362q0 -178 57 -309.5t172 -202t263 -70.5q128 0 226.5 55.5t216.5 218.5l30 -19q-100 -177 -232 -258t-313 -81q-328 0 -508 243q-134 180 -134 425q0 198 88 363
t243.5 256t339.5 91q143 0 282 -71q41 -20 57 -20q27 0 46 18q26 26 36 73h35z" />
    <glyph glyph-name="D" unicode="D" horiz-adv-x="1440" 
d="M35 -1v35h49q84 0 119 54q22 33 22 144v851q0 124 -28 155q-37 43 -113 43h-49v36h536q296 0 450 -67t247.5 -224t93.5 -362q0 -275 -167 -459q-187 -206 -571 -206h-589zM411 94q123 -27 207 -27q226 0 374.5 158t148.5 430q0 273 -148.5 430.5t-381.5 157.5
q-88 0 -200 -28v-1121z" />
    <glyph glyph-name="E" unicode="E" horiz-adv-x="1218" 
d="M418 1245v-521h289q113 0 151 34q50 44 56 157h36v-458h-36q-14 96 -27 123q-18 34 -57.5 53t-122.5 19h-289v-434q0 -88 7.5 -106.5t27 -30t73.5 -11.5h224q112 0 162 15.5t97 61.5q60 60 124 182h38l-114 -330h-1015v35h47q47 0 89 23q31 16 41.5 47t10.5 127v856
q0 126 -25 154q-35 40 -116 40h-47v36h1015l16 -289h-39q-20 104 -44.5 143t-73.5 60q-39 14 -137 14h-361z" />
    <glyph glyph-name="F" unicode="F" horiz-adv-x="1111" 
d="M409 1245v-518h240q82 0 120.5 36.5t50.5 144.5h36v-447h-36q-1 77 -19.5 113t-52 54t-99.5 18h-240v-414q0 -101 12 -132q9 -25 40 -42q44 -24 90 -24h47v-35h-565v35h47q81 0 119 48q22 31 22 150v851q0 101 -12 132q-9 25 -40 42q-41 24 -89 24h-47v36h980l14 -290
h-35q-25 92 -58 135t-82.5 63t-152.5 20h-290z" />
    <glyph glyph-name="G" unicode="G" horiz-adv-x="1440" 
d="M1224 1347l34 -416h-34q-52 156 -133 234q-118 114 -303 114q-252 0 -382 -200q-111 -168 -111 -400q0 -189 73.5 -344.5t191.5 -228t242 -72.5q73 0 140.5 18.5t131.5 54.5v382q0 98 -15 129t-47 47t-111 16v37h510v-37h-24q-75 0 -104 -50q-19 -36 -19 -142v-404
q-112 -60 -221 -88t-241 -28q-383 0 -581 244q-149 184 -149 424q0 174 84 333q98 190 271 292q145 85 343 85q72 0 131 -12t166 -52q55 -20 73 -20q19 0 31.5 17t16.5 67h36z" />
    <glyph glyph-name="H" unicode="H" horiz-adv-x="1440" 
d="M411 705h612v377q0 102 -14 133q-9 25 -40 42q-41 24 -88 24h-47v36h564v-36h-47q-46 0 -88 -23q-32 -15 -43 -47t-11 -129v-850q0 -101 13 -132q9 -25 39 -42q44 -24 90 -24h47v-35h-564v35h47q80 0 118 48q24 31 24 150v401h-612v-401q0 -101 12 -132q9 -25 40 -42
q42 -24 89 -24h48v-35h-565v35h47q81 0 119 48q22 31 22 150v850q0 102 -12 133q-9 25 -40 42q-42 24 -89 24h-47v36h565v-36h-48q-47 0 -89 -23q-30 -15 -41 -47t-11 -129v-377z" />
    <glyph glyph-name="I" unicode="I" horiz-adv-x="666" 
d="M616 34v-35h-565v35h47q81 0 119 48q22 31 22 150v851q0 101 -12 132q-9 25 -40 42q-42 24 -89 24h-47v36h565v-36h-48q-80 0 -117 -48q-24 -31 -24 -150v-851q0 -101 12 -132q9 -25 40 -42q42 -24 89 -24h48z" />
    <glyph glyph-name="J" unicode="J" horiz-adv-x="776" 
d="M199 1281v36h565v-36h-48q-80 0 -117 -48q-23 -31 -23 -150v-644q0 -149 -33 -241.5t-112 -160.5t-192 -68q-93 0 -145 45t-52 103q0 48 24 72q32 30 76 30q31 0 55.5 -20.5t61.5 -109.5q23 -51 58 -51q26 0 49 31.5t23 113.5v900q0 101 -12 132q-10 25 -41 42
q-42 24 -89 24h-48z" />
    <glyph glyph-name="K" unicode="K" horiz-adv-x="1438" 
d="M596 729l486 -482q120 -120 204.5 -163.5t168.5 -49.5v-35h-627v35q57 0 81.5 19.5t24.5 41.5q0 24 -9 43t-61 69l-454 450v-425q0 -101 12 -132q9 -25 40 -42q42 -24 89 -24h45v-35h-562v35h47q81 0 119 48q22 31 22 150v851q0 101 -12 133q-9 24 -40 41q-42 24 -89 24
h-47v36h562v-36h-45q-45 0 -89 -23q-30 -15 -41 -46.5t-11 -128.5v-403q19 18 133 123q288 264 348 353q26 39 26 69q0 21 -20.5 38.5t-68.5 17.5h-30v36h484v-36q-43 -1 -78 -12t-85.5 -41.5t-124.5 -98.5q-22 -20 -197 -200z" />
    <glyph glyph-name="L" unicode="L" horiz-adv-x="1218" 
d="M1143 363l31 -7l-112 -357h-1021v35h49q84 0 120 55q21 32 21 144v850q0 124 -28 155q-37 43 -113 43h-49v36h596v-36q-104 0 -146.5 -20.5t-58 -51t-15.5 -148.5v-828q0 -81 15 -111q12 -21 36.5 -30.5t152.5 -9.5h96q151 0 212 22.5t112 79.5t102 179z" />
    <glyph glyph-name="M" unicode="M" horiz-adv-x="1773" 
d="M815 -1l-509 1109v-881q0 -122 27 -152q36 -41 113 -41h46v-35h-458v35h47q84 0 119 51q21 31 21 142v861q0 87 -20 127q-13 28 -50 47t-117 19v36h373l479 -1032l470 1032h374v-36h-46q-85 0 -120 -50q-22 -32 -22 -143v-861q0 -122 28 -152q36 -41 114 -41h46v-35h-561
v35h47q84 0 119 51q21 31 21 142v881l-508 -1109h-33z" />
    <glyph glyph-name="N" unicode="N" horiz-adv-x="1437" 
d="M-27 1317h358l806 -989v760q0 122 -28 152q-36 41 -114 41h-45v36h458v-36h-47q-82 0 -117 -50q-22 -32 -22 -143v-1111h-35l-868 1062v-812q0 -122 25 -152q37 -41 114 -41h47v-35h-459v35h46q84 0 119 51q21 31 21 142v916q-57 67 -86.5 88.5t-87.5 39.5q-27 10 -85 10
v36z" />
    <glyph glyph-name="O" unicode="O" horiz-adv-x="1441" 
d="M730 1347q256 0 444.5 -195t188.5 -487q0 -300 -189.5 -498t-459.5 -198q-271 0 -456.5 193.5t-185.5 500.5q0 313 214 511q186 173 444 173zM712 1276q-177 0 -285 -132q-133 -163 -133 -477q0 -323 139 -497q106 -132 280 -132q186 0 306.5 144.5t120.5 456.5
q0 338 -133 504q-107 133 -295 133z" />
    <glyph glyph-name="P" unicode="P" horiz-adv-x="1110" 
d="M410 616v-384q0 -125 26 -155q37 -43 112 -43h51v-35h-565v35h49q84 0 120 55q19 30 19 143v851q0 125 -26 155q-37 43 -113 43h-49v36h484q176 0 278 -36.5t172 -123t70 -205.5q0 -162 -106.5 -262.5t-301.5 -100.5q-46 0 -102 6.5t-118 20.5zM410 671q51 -9 90.5 -14
t68.5 -5q101 0 174 78t73 203q0 85 -34.5 158.5t-99 110t-145.5 36.5q-51 0 -127 -18v-549z" />
    <glyph glyph-name="Q" unicode="Q" horiz-adv-x="1441" 
d="M878 -16q100 -170 215 -251t262 -93v-31q-135 6 -287 54.5t-289 135.5t-235 185q-141 56 -222 120q-119 93 -184.5 231t-65.5 326q0 295 191.5 490.5t463.5 195.5q258 0 447 -196t189 -494q0 -242 -134.5 -425t-350.5 -248zM715 1271q-176 0 -284 -126
q-137 -158 -137 -484q0 -321 139 -494q107 -133 282 -133q184 0 295 133q131 158 131 465q0 236 -72 398q-55 124 -147 182.5t-207 58.5z" />
    <glyph glyph-name="R" unicode="R" horiz-adv-x="1329" 
d="M1347 -1h-353l-445 616q-51 -2 -82 -2q-12 0 -26.5 0.5t-29.5 1.5v-383q0 -125 26 -155q37 -43 112 -43h51v-35h-565v35h49q84 0 120 55q21 30 21 143v851q0 125 -28 155q-37 43 -113 43h-49v36h480q210 0 309.5 -30.5t169 -113t69.5 -196.5q0 -121 -79 -210.5
t-246 -126.5l273 -378q93 -131 160.5 -173.5t175.5 -54.5v-35zM411 676q18 0 31.5 -0.5t22.5 -0.5q188 0 284 81.5t96 207.5q0 124 -77.5 201.5t-204.5 77.5q-56 0 -152 -18v-549z" />
    <glyph glyph-name="S" unicode="S" horiz-adv-x="1114" 
d="M916 1347v-456h-36q-18 131 -63 209t-128 123.5t-173 45.5q-101 0 -167 -62t-66 -141q0 -60 42 -109q60 -73 287 -194q183 -100 251 -153t104.5 -125t36.5 -150q0 -150 -116.5 -258t-298.5 -108q-58 0 -108 8q-30 6 -125 36.5t-120 30.5q-24 0 -38.5 -15t-20.5 -60h-36
v452h36q25 -142 68 -213t130.5 -117.5t192.5 -46.5q122 0 192.5 64t70.5 152q0 49 -27 98t-83 93q-37 28 -206.5 123t-241 151.5t-108.5 125t-37 149.5q0 142 108.5 244.5t277.5 102.5q105 0 222 -52q54 -24 77 -24q25 0 41.5 15t25.5 61h36z" />
    <glyph glyph-name="T" unicode="T" horiz-adv-x="1219" 
d="M1154 1317l14 -310h-37q-11 82 -29 117q-30 56 -80 83t-132 27h-186v-1007q0 -122 26 -152q38 -41 114 -41h46v-35h-559v35h47q84 0 118 51q22 31 22 142v1007h-158q-93 0 -131 -14q-52 -18 -88 -70.5t-42 -142.5h-37l16 310h1076z" />
    <glyph glyph-name="U" unicode="U" horiz-adv-x="1438" 
d="M949 1281v36h467v-36h-49q-78 0 -120 -66q-20 -30 -20 -139v-535q0 -198 -39 -307.5t-154.5 -188t-314.5 -78.5q-215 0 -327 75t-159 201q-30 88 -30 325v515q0 122 -33.5 160t-109.5 38h-49v36h570v-36h-50q-82 0 -118 -52q-24 -34 -24 -146v-574q0 -76 14.5 -176
t51 -155t106 -91t170.5 -36q130 0 232 56.5t139 144.5t37 298v533q0 124 -26 155q-39 43 -113 43h-51z" />
    <glyph glyph-name="V" unicode="V" horiz-adv-x="1439" 
d="M1414 1317v-36q-70 -13 -106 -46q-52 -46 -91 -145l-460 -1121h-36l-494 1136q-37 87 -53 106q-25 30 -60.5 47.5t-95.5 22.5v36h539v-36q-91 -10 -119 -32t-28 -57q0 -49 46 -151l335 -773l311 763q45 112 45 156q0 28 -28 54t-95 36q-5 2 -16 4v36h406z" />
    <glyph glyph-name="W" unicode="W" horiz-adv-x="1880" 
d="M1864 1317v-36q-51 0 -83 -18.5t-62 -69.5q-19 -34 -61 -162l-367 -1062h-39l-301 842l-298 -842h-36l-391 1094q-43 122 -55 145q-19 37 -52.5 55t-91.5 18v36h488v-36h-24q-51 0 -78 -23.5t-27 -56.5q0 -34 43 -156l259 -741l219 630l-39 111l-31 88q-20 48 -46 86
q-13 18 -31 31q-25 17 -49 25q-18 6 -58 6v36h513v-36h-35q-54 0 -79 -23.5t-25 -62.5q0 -51 43 -174l253 -717l251 727q42 120 42 167q0 22 -14 41.5t-35 27.5q-38 14 -96 14v36h393z" />
    <glyph glyph-name="X" unicode="X" horiz-adv-x="1438" 
d="M813 729l283 -422q118 -176 175 -222t143 -51v-35h-565v35q56 1 84 12q20 9 33.5 27t13.5 37q0 21 -10 44q-6 17 -53 85l-224 339l-276 -354q-43 -57 -52 -75.5t-9 -38.5q0 -31 26.5 -51.5t100.5 -24.5v-35h-468v35q49 5 85 21q61 25 115 68t125 131l311 393l-260 380
q-106 154 -180 202t-170 52v36h610v-36q-78 -4 -107 -26t-29 -50q0 -36 47 -104l203 -302l234 296q41 53 50 72t9 40q0 20 -12 36q-15 20 -37 28.5t-92 9.5v36h467v-36q-55 -4 -90 -18q-53 -23 -96.5 -60.5t-122.5 -139.5z" />
    <glyph glyph-name="Y" unicode="Y" horiz-adv-x="1439" 
d="M949 1317h460v-36h-26q-25 0 -73.5 -23t-88 -64t-98.5 -136l-318 -501v-330q0 -122 28 -152q37 -41 116 -41h43v-35h-560v35h47q84 0 118 51q22 31 22 142v312l-362 552q-64 98 -87 122t-95 58q-19 10 -56 10v36h564v-36h-29q-47 0 -85 -21.5t-38 -64.5q0 -35 60 -126
l274 -425l260 407q57 91 57 135q0 28 -13.5 49t-40 33.5t-79.5 12.5v36z" />
    <glyph glyph-name="Z" unicode="Z" horiz-adv-x="1218" 
d="M1146 1317l-867 -1238h541q124 0 190.5 54t118.5 220l32 -6l-62 -348h-1073v35l846 1204h-422q-105 0 -152.5 -23t-72 -66t-44.5 -162h-37l27 330h975z" />
    <glyph glyph-name="bracketleft" unicode="[" horiz-adv-x="669" 
d="M595 -396h-427v1743h427v-77h-281v-1589h281v-77z" />
    <glyph glyph-name="backslash" unicode="\" horiz-adv-x="553" 
d="M81 1381l476 -1409h-78l-476 1409h78z" />
    <glyph glyph-name="bracketright" unicode="]" horiz-adv-x="669" 
d="M75 1347h427v-1743h-427v77h282v1589h-282v77z" />
    <glyph glyph-name="asciicircum" unicode="^" horiz-adv-x="936" 
d="M485 1343l414 -696h-90l-340 569l-341 -569h-91l419 696h29z" />
    <glyph glyph-name="underscore" unicode="_" horiz-adv-x="995" 
d="M1001 0h-1002v138h1002v-138z" />
    <glyph glyph-name="grave" unicode="`" horiz-adv-x="672" 
d="M118 1349h217l102 -334h-33z" />
    <glyph glyph-name="a" unicode="a" horiz-adv-x="886" 
d="M569 127q-137 -106 -172 -123q-53 -23 -112 -23q-92 0 -152 62.5t-60 165.5q0 65 29 113q41 66 139 124.5t328 142.5v34q0 134 -42 183.5t-124 49.5q-61 0 -97 -33t-36 -76l1 -56q0 -45 -23 -69.5t-60 -24.5q-36 0 -58.5 25t-22.5 70q0 83 85.5 153t240.5 70
q119 0 194 -40q57 -30 84 -94q18 -41 18 -171v-302q0 -127 5 -156t16 -38.5t26 -9.5q16 0 27 6q20 13 79 72v-55q-109 -145 -208 -145q-48 0 -76 32.5t-29 112.5zM569 190v340q-147 -59 -190 -83q-77 -43 -110 -90t-33 -102q0 -70 42 -116t96 -46q75 0 195 97z" />
    <glyph glyph-name="b" unicode="b" horiz-adv-x="997" 
d="M306 735q129 180 279 180q137 0 239 -117t102 -320q0 -237 -157 -383q-136 -123 -301 -123q-78 0 -158.5 28t-163.5 85v921q0 153 -7.5 187.5t-23.5 47t-38 12.5q-28 0 -69 -15l-13 33l268 110h43v-646zM306 673v-532q50 -49 103 -73.5t108 -24.5q89 0 165 97t76 282
q0 171 -76 263t-173 92q-52 0 -104 -26q-39 -20 -99 -78z" />
    <glyph glyph-name="c" unicode="c" horiz-adv-x="888" 
d="M820 337q-36 -176 -141 -270.5t-232 -94.5q-151 0 -264 127t-113 343q0 210 125 341.5t300 131.5q131 0 215.5 -69.5t84.5 -144.5q0 -37 -23.5 -59.5t-66.5 -22.5q-58 0 -87 37q-16 20 -21.5 77t-39.5 88q-35 29 -95 29q-97 0 -156 -72q-79 -95 -79 -252
q0 -159 78.5 -281t212.5 -122q94 0 170 65q54 45 104 163z" />
    <glyph glyph-name="d" unicode="d" horiz-adv-x="998" 
d="M693 99q-65 -68 -127 -97.5t-134 -29.5q-147 0 -255.5 121.5t-108.5 312.5q0 192 120.5 351t310.5 159q117 0 194 -74v163q0 154 -7 188.5t-22.5 47t-39.5 12.5q-26 0 -68 -15l-12 33l266 110h43v-1030q0 -156 7.5 -191t23.5 -48t37 -13q27 0 71 16l10 -34l-264 -109h-45
v127zM693 166v460q-6 66 -35.5 120.5t-77.5 82t-93 27.5q-85 0 -153 -77q-88 -102 -88 -296q0 -196 85.5 -300t190.5 -104q88 0 171 87z" />
    <glyph glyph-name="e" unicode="e" horiz-adv-x="888" 
d="M214 554q-1 -198 96 -311t229 -113q87 0 151.5 48t109.5 165l30 -20q-21 -133 -119.5 -242t-245.5 -109q-161 0 -275 124.5t-114 336.5q0 228 117 355.5t295 127.5q148 0 245 -98.5t97 -263.5h-616zM214 610h412q-5 85 -21 120q-24 55 -72 86t-101 31q-80 0 -143.5 -62.5
t-74.5 -174.5z" />
    <glyph glyph-name="f" unicode="f" horiz-adv-x="659" 
d="M413 819v-586q0 -123 27 -157q35 -43 96 -43h81v-34h-532v34h40q38 0 70.5 20t44.5 53t12 127v586h-173v70h173v58q0 134 42.5 226t130.5 148.5t199 56.5q102 0 187 -66q56 -43 56 -97q0 -30 -25 -56t-55 -26q-22 0 -46.5 16.5t-60.5 69t-66 72.5q-31 18 -67 18
q-46 0 -76.5 -24t-44 -74t-13.5 -258v-64h229v-70h-229z" />
    <glyph glyph-name="g" unicode="g" horiz-adv-x="998" 
d="M302 323q-81 40 -125 111.5t-44 157.5q0 132 99.5 227.5t255.5 95.5q127 0 220 -62h189q41 0 48.5 -2.5t9.5 -8.5q6 -9 6 -31q0 -26 -5 -35q-2 -5 -10 -8t-49 -3h-116q55 -70 55 -179q0 -123 -95.5 -212t-255.5 -89q-66 0 -135 19q-43 -36 -58 -64t-15 -47
q0 -16 16 -31.5t62 -22.5q28 -4 137 -8q200 -4 259 -13q90 -13 144 -67t54 -134q0 -109 -103 -205q-151 -143 -395 -143q-188 0 -317 85q-73 48 -73 101q0 23 11 47q17 36 68 99q6 10 99 106q-51 30 -72 54t-21 54q0 33 27.5 78.5t128.5 129.5zM471 868q-72 0 -120.5 -57
t-48.5 -176q0 -153 66 -238q51 -64 129 -64q73 0 121 55t48 174q0 155 -67 243q-50 63 -128 63zM293 -1q-46 -50 -69.5 -92.5t-23.5 -78.5q0 -47 57 -81q97 -62 280 -62q176 0 258.5 62t82.5 133q0 50 -49 72q-50 20 -200 25q-219 6 -336 22z" />
    <glyph glyph-name="h" unicode="h" horiz-adv-x="996" 
d="M324 1381v-652q108 119 171 152.5t126 33.5q76 0 130.5 -42t81.5 -131q18 -62 18 -228v-314q0 -85 14 -115q10 -24 33 -38t85 -14v-34h-437v34h20q63 0 87 19t33 57q4 15 4 91v314q0 147 -15 192.5t-48 68t-80 22.5q-48 0 -99.5 -25t-123.5 -102v-470q0 -91 10 -113.5
t37.5 -38t96.5 -15.5v-34h-442v34q60 0 94 19q19 10 31 37t12 111v805q0 154 -7 188.5t-23 47t-41 12.5q-20 0 -66 -15l-13 33l266 110h45z" />
    <glyph glyph-name="i" unicode="i" horiz-adv-x="556" 
d="M290 1381q41 0 70 -29t29 -70t-29 -69.5t-70 -28.5q-40 0 -69.5 28.5t-29.5 69.5t28.5 70t70.5 29zM371 915v-715q0 -84 12 -111.5t36 -41.5t87 -14v-34h-433v34q66 0 88.5 13t35.5 42t13 112v343q0 145 -10 187q-6 31 -21 43t-40 12q-26 0 -66 -14l-13 35l269 109h42z
" />
    <glyph glyph-name="j" unicode="j" horiz-adv-x="553" 
d="M283 1382q42 0 71 -29.5t29 -71.5q0 -41 -29 -69.5t-71 -28.5q-40 0 -69.5 28.5t-29.5 69.5q0 42 29.5 71.5t69.5 29.5zM367 915v-896q0 -228 -97 -339t-253 -111q-87 0 -130.5 32.5t-43.5 65.5q0 34 24 58.5t57 24.5q25 0 51 -13q17 -6 63.5 -48.5t78.5 -42.5
q24 0 46 18t33 60.5t11 182.5v634q0 147 -9 188q-7 32 -21.5 44t-39.5 12q-28 0 -66 -14l-14 35l268 109h42z" />
    <glyph glyph-name="k" unicode="k" horiz-adv-x="995" 
d="M327 1381v-887l225 207q72 66 84 84q7 11 7 23q0 19 -15.5 33.5t-52.5 15.5v32h386v-32q-79 -1 -131.5 -23.5t-116.5 -79.5l-228 -211l228 -289q95 -119 128 -151q47 -46 82 -59q24 -11 84 -11v-34h-432v34q37 1 50.5 11.5t13.5 29.5q0 21 -40 72l-272 348v-295
q0 -87 12 -114t34 -39t96 -13v-34h-452v34q68 0 102 17q20 11 31 33q15 32 15 111v811q0 154 -7 188.5t-22.5 48t-40.5 13.5q-20 0 -61 -17l-17 33l264 110h46z" />
    <glyph glyph-name="l" unicode="l" horiz-adv-x="555" 
d="M371 1381v-1181q0 -84 12 -111t37 -41.5t93 -14.5v-34h-435v34q61 0 83 13t35 42t13 112v809q0 150 -7 184.5t-22 47t-39 12.5q-25 0 -63 -15l-17 33l265 110h45z" />
    <glyph glyph-name="m" unicode="m" horiz-adv-x="1549" 
d="M327 725q97 98 115 112q43 37 94 57.5t100 20.5q84 0 144 -48.5t81 -141.5q100 117 169 153.5t141 36.5q71 0 126.5 -36.5t87.5 -118.5q20 -56 20 -177v-383q0 -84 14 -115q9 -21 35.5 -36.5t85.5 -15.5v-34h-439v34h19q56 0 89 23q22 15 32 49q4 17 4 95v383
q0 109 -27 153q-37 63 -121 63q-52 0 -104 -26t-125 -96l-3 -10l3 -42v-425q0 -91 10 -113.5t38.5 -38t95.5 -15.5v-34h-450v34q74 0 101.5 18t38.5 53q5 17 5 96v383q0 109 -32 157q-42 61 -119 61q-53 0 -105 -28q-80 -43 -124 -96v-477q0 -88 12.5 -114.5t36 -39.5
t96.5 -13v-34h-441v34q62 0 86.5 13t37 42t12.5 112v339q0 148 -10 190q-6 32 -21 44t-40 12q-26 0 -65 -14l-14 35l269 109h41v-190z" />
    <glyph glyph-name="n" unicode="n" horiz-adv-x="996" 
d="M322 727q157 188 298 188q74 0 126 -36.5t83 -119.5q22 -59 22 -179v-380q0 -85 13 -115q11 -24 35 -38t87 -14v-34h-439v34h18q63 0 87.5 19t33.5 57q4 14 4 91v365q0 121 -31 175.5t-107 54.5q-115 0 -230 -126v-469q0 -90 10 -112q15 -29 38.5 -42t96.5 -13v-34h-441
v34h20q68 0 92 35t24 132v330q0 161 -7 195.5t-23 47t-41 12.5q-26 0 -65 -14l-14 35l269 109h41v-188z" />
    <glyph glyph-name="o" unicode="o" horiz-adv-x="999" 
d="M500 915q201 0 324 -154q104 -130 104 -301q0 -120 -57.5 -242.5t-157.5 -184t-224 -61.5q-202 0 -320 159q-100 136 -100 304q0 122 60.5 243.5t159.5 179t211 57.5zM470 851q-52 0 -104 -30.5t-84 -107t-32 -196.5q0 -195 77 -336t204 -141q94 0 155 78t61 268
q0 236 -102 373q-68 92 -175 92z" />
    <glyph glyph-name="p" unicode="p" horiz-adv-x="998" 
d="M-1 801l272 110h38v-207q69 117 138.5 164t146.5 47q133 0 223 -104q110 -129 110 -335q0 -231 -132 -382q-108 -122 -274 -122q-72 0 -125 21q-38 14 -87 57v-271q0 -91 11 -115.5t39 -39.5t101 -15v-35h-467v35h24q54 0 91 20q19 11 29.5 35t10.5 121v842
q0 86 -8 109.5t-25.5 35t-45.5 11.5q-23 0 -59 -13zM309 646v-332q0 -108 9 -143q13 -56 66 -99t133 -43q98 0 159 76q78 100 78 280q0 204 -89 313q-62 77 -148 77q-46 0 -92 -24q-36 -17 -116 -105z" />
    <glyph glyph-name="q" unicode="q" horiz-adv-x="997" 
d="M853 915v-1144q0 -86 11.5 -110.5t36 -38t96.5 -13.5v-35h-449v35h19q54 0 82 15q20 11 31.5 39t11.5 108v382q-89 -104 -155 -142.5t-137 -38.5q-129 0 -230.5 117.5t-101.5 314.5q0 227 134.5 369t323.5 142q56 0 102 -15.5t83 -46.5q57 27 108 62h34zM692 214v418
q0 73 -19 115t-68 71t-110 29q-108 0 -186 -92t-78 -280q0 -180 79.5 -273t190.5 -93q58 0 103 24.5t88 80.5z" />
    <glyph glyph-name="r" unicode="r" horiz-adv-x="663" 
d="M323 915v-200q112 200 230 200q53 0 87.5 -32.5t34.5 -75.5q0 -37 -25 -63.5t-60 -26.5q-33 0 -76 33.5t-63 33.5q-17 0 -37 -19q-45 -41 -91 -132v-426q0 -74 19 -113q12 -25 44.5 -43t92.5 -18v-34h-456v34q68 0 100 22q26 15 35 50q5 16 5 94v345q0 155 -6.5 185
t-23.5 43t-42 13q-30 0 -68 -14l-10 35l269 109h41z" />
    <glyph glyph-name="s" unicode="s" horiz-adv-x="780" 
d="M640 915v-304h-31q-37 143 -95.5 194.5t-147.5 51.5q-68 0 -109.5 -36t-41.5 -79q0 -54 31 -93q30 -40 123 -84l141 -70q197 -96 197 -253q0 -121 -91.5 -195.5t-205.5 -74.5q-82 0 -186 29q-33 9 -53 9q-22 0 -35 -25h-32v318h32q28 -137 104.5 -206t171.5 -69
q67 0 109 39.5t42 95.5q0 67 -46.5 112.5t-187.5 115.5t-186 127q-43 55 -43 139q0 110 75.5 184t194.5 74q53 0 127 -23q51 -14 66 -14q16 0 25 7t21 30h31z" />
    <glyph glyph-name="t" unicode="t" horiz-adv-x="553" 
d="M321 1181v-292h208v-68h-208v-578q0 -86 24.5 -116t64.5 -30q32 0 62 19.5t47 59.5h37q-33 -96 -95.5 -144t-128.5 -48q-44 0 -87.5 24.5t-64 70.5t-20.5 144v598h-140v32q54 21 110 72t99 121q23 37 62 135h30z" />
    <glyph glyph-name="u" unicode="u" horiz-adv-x="995" 
d="M843 889v-539q0 -155 7.5 -190t23.5 -48t36 -13q30 0 69 16l13 -34l-266 -109h-44v188q-115 -125 -175 -156.5t-127 -31.5q-74 0 -129.5 43t-76.5 111t-21 193v397q0 63 -13.5 87t-40.5 37.5t-97 12.5v36h312v-596q0 -124 43 -163t105 -39q42 0 94.5 26t125.5 101v504
q0 75 -27.5 102t-114.5 29v36h303z" />
    <glyph glyph-name="v" unicode="v" horiz-adv-x="996" 
d="M17 889h419v-36h-28q-37 0 -57 -18t-20 -50q0 -34 21 -81l206 -492l209 511q22 54 22 83q0 13 -8 21q-10 15 -27 20.5t-67 5.5v36h290v-36q-50 -4 -70 -21q-33 -29 -61 -97l-315 -763h-41l-317 751q-22 52 -41.5 75t-49.5 39q-16 8 -65 16v36z" />
    <glyph glyph-name="w" unicode="w" horiz-adv-x="1438" 
d="M13 889h373v-36q-51 -4 -67.5 -18.5t-16.5 -41.5q0 -30 17 -74l191 -512l191 418l-51 130q-23 59 -61 82q-20 13 -79 16v36h423v-36q-69 -3 -99 -26q-19 -15 -19 -49q0 -19 8 -39l202 -512l188 492q19 53 19 84q0 18 -19 33t-74 17v36h280v-36q-84 -12 -124 -114
l-297 -767h-41l-222 567l-259 -567h-36l-287 747q-27 71 -54 96.5t-86 37.5v36z" />
    <glyph glyph-name="x" unicode="x" horiz-adv-x="997" 
d="M27 889h419v-36q-40 0 -56 -13.5t-16 -36.5q0 -22 35 -72q9 -15 31 -48l63 -102l74 102q69 96 69 122q0 20 -16.5 34t-52.5 14v36h301v-36q-48 -3 -83 -27q-48 -32 -131 -143l-121 -163l222 -318q82 -117 116.5 -141t89.5 -28v-34h-420v34q45 0 69 20q18 14 18 36
t-61 113l-131 190l-143 -190q-66 -89 -66 -105q0 -23 21.5 -42.5t66.5 -21.5v-34h-291v34q35 6 61 25q36 28 124 144l187 247l-169 245q-72 106 -111.5 132.5t-98.5 26.5v36z" />
    <glyph glyph-name="y" unicode="y" horiz-adv-x="996" 
d="M12 889h415v-36h-20q-45 0 -66.5 -19t-21.5 -47q0 -38 33 -105l216 -449l199 491q17 41 17 79q0 18 -8 27q-7 11 -23.5 17t-57.5 6v36h289v-36q-36 -4 -55 -15.5t-43 -43.5q-9 -13 -33 -75l-362 -888q-53 -130 -138 -196t-165 -66q-56 0 -93 33t-37 76q0 41 27 65.5
t73 24.5q32 0 87 -20q39 -16 49 -16q29 0 63.5 30.5t69.5 117.5l64 153l-321 672q-14 30 -46 76q-24 33 -40 45q-23 16 -72 27v36z" />
    <glyph glyph-name="z" unicode="z" horiz-adv-x="886" 
d="M837 272l-11 -273h-785v34l590 788h-291q-94 0 -123.5 -12.5t-47.5 -45.5q-26 -50 -30 -120h-39l6 246h746v-36l-596 -789h325q102 0 138 17t59 60q15 30 26 131h33z" />
    <glyph glyph-name="braceleft" unicode="{" horiz-adv-x="967" 
d="M825 -396v-35q-162 23 -264 132t-102 242q0 70 23 163t23 144q0 70 -59 131t-163 74v40q104 14 163 74t59 131q0 52 -23 144.5t-23 162.5q0 132 102 242t264 132v-34q-114 -28 -166.5 -89.5t-52.5 -134.5q0 -58 21.5 -151.5t21.5 -160.5q0 -98 -72 -190t-215 -143
q141 -51 214 -145.5t73 -192.5q0 -66 -21.5 -160t-21.5 -151q0 -74 52.5 -136t166.5 -89z" />
    <glyph glyph-name="bar" unicode="|" horiz-adv-x="408" 
d="M241 1381v-1812h-80v1812h80z" />
    <glyph glyph-name="braceright" unicode="}" horiz-adv-x="967" 
d="M177 1347v34q162 -22 264 -131t102 -244q0 -69 -23 -161.5t-23 -144.5q0 -69 59 -130t163 -75v-40q-104 -13 -163 -74t-59 -131q0 -51 23 -144t23 -163q0 -132 -102 -241.5t-264 -132.5v35q114 27 167 88.5t53 136.5q0 57 -22.5 151t-22.5 159q0 99 72 191t216 143
q-140 52 -214 146t-74 192q0 67 22.5 160.5t22.5 151.5q0 73 -53 134.5t-167 89.5z" />
    <glyph glyph-name="asciitilde" unicode="~" horiz-adv-x="1078" 
d="M1014 655h43q-4 -126 -71.5 -197.5t-166.5 -71.5q-44 0 -95.5 15t-266.5 102q-150 63 -214 63q-67 0 -114 -42t-66 -137h-43q6 132 72 201t156 69q42 0 86 -13q102 -29 266.5 -100t231.5 -71q74 0 123.5 47t58.5 135z" />
    <glyph glyph-name="Adieresis" unicode="&#xc4;" horiz-adv-x="1432" 
d="M909 440h-510l-90 -208q-32 -77 -32 -115q0 -30 28 -53t124 -30v-35h-415v35q83 15 107 39q49 46 110 189l463 1085h34l460 -1097q55 -132 100 -171.5t125 -44.5v-35h-519v35q79 5 106.5 27t27.5 54q0 43 -40 135zM882 512l-224 533l-229 -533h453zM883 1647
q43 0 73.5 -31t30.5 -75q0 -43 -30.5 -74t-73.5 -31q-45 0 -75.5 31t-30.5 74q0 44 30.5 75t75.5 31zM540 1647q44 0 74.5 -31t30.5 -75q0 -43 -31 -74t-73 -31q-45 0 -76 31t-31 74q0 44 30.5 75t75.5 31z" />
    <glyph glyph-name="Aring" unicode="&#xc5;" horiz-adv-x="1451" 
d="M909 424h-510l-90 -200q-32 -75 -32 -111q0 -30 28 -51.5t124 -28.5v-34h-415v34q83 14 107 37q49 45 110 183l463 1047h34l460 -1058q55 -129 100 -166.5t125 -42.5v-34h-519v34q79 4 106.5 25.5t27.5 52.5q0 41 -40 131zM882 494l-224 513l-229 -513h453zM708 1655
q76 0 131 -52.5t55 -127.5q0 -74 -55 -127t-131 -53q-77 0 -131.5 53t-54.5 127q0 75 54 127.5t132 52.5zM708 1591q-51 0 -85 -34t-34 -82q0 -46 34 -80t85 -34q49 0 83 34t34 80q0 48 -34 82t-83 34z" />
    <glyph glyph-name="Ccedilla" unicode="&#xc7;" horiz-adv-x="1300" 
d="M1201 1347l30 -449h-30q-60 202 -172.5 290t-268.5 88q-130 0 -236.5 -66.5t-167 -212.5t-60.5 -362q0 -178 57 -309.5t172 -202t263 -70.5q128 0 226.5 55.5t216.5 218.5l30 -19q-100 -177 -232 -258t-313 -81q-328 0 -508 243q-134 180 -134 425q0 198 88 363
t243.5 256t339.5 91q143 0 282 -71q41 -20 57 -20q27 0 46 18q26 26 36 73h35zM679 14h59l-48 -77q61 -15 91 -51.5t30 -89.5q0 -70 -58.5 -123.5t-150.5 -53.5q-36 0 -91 8v42q26 -4 45 -4q51 0 84.5 32.5t33.5 74.5q0 29 -22 50.5t-55 21.5q-9 0 -25 -3z" />
    <glyph glyph-name="Eacute" unicode="&#xc9;" horiz-adv-x="1186" 
d="M418 1192v-499h289q113 0 151 32q50 44 56 152h36v-440h-36q-14 92 -27 118q-18 32 -57.5 51t-122.5 19h-289v-416q0 -84 7.5 -102t27 -28.5t73.5 -10.5h224q112 0 162 14.5t97 58.5q60 58 124 174h38l-114 -316h-1015v34h47q47 0 89 22q31 14 41.5 44t10.5 122v820
q0 120 -25 148q-35 37 -116 37h-47v35h1015l16 -276h-39q-20 99 -44.5 136.5t-73.5 56.5q-39 14 -137 14h-361zM830 1645l-286 -321h-34l103 321h217z" />
    <glyph glyph-name="Ntilde" unicode="&#xd1;" horiz-adv-x="1445" 
d="M-27 1317h358l806 -989v760q0 122 -28 152q-36 41 -114 41h-45v36h458v-36h-47q-82 0 -117 -50q-22 -32 -22 -143v-1111h-35l-868 1062v-812q0 -122 25 -152q37 -41 114 -41h47v-35h-459v35h46q84 0 119 51q21 31 21 142v916q-57 67 -86.5 88.5t-87.5 39.5q-27 10 -85 10
v36zM434 1399h-31q3 133 54.5 192.5t127.5 59.5q40 0 73 -14q43 -16 123.5 -69t119.5 -53q31 0 55 26.5t37 109.5h30q1 -92 -23.5 -144.5t-70 -82t-91.5 -29.5q-77 0 -189 77q-62 42 -83.5 51t-41.5 9q-40 0 -64 -35q-11 -17 -26 -98z" />
    <glyph glyph-name="Odieresis" unicode="&#xd6;" horiz-adv-x="1419" 
d="M730 1322q256 0 444.5 -191.5t188.5 -478.5q0 -294 -189.5 -488.5t-459.5 -194.5q-271 0 -456.5 190t-185.5 491q0 308 214 503q186 169 444 169zM712 1252q-177 0 -285 -129q-133 -160 -133 -470q0 -316 139 -487q106 -129 280 -129q186 0 306.5 142t120.5 448
q0 332 -133 496q-107 129 -295 129zM884 1652q44 0 74.5 -30.5t30.5 -72.5q0 -44 -30.5 -74t-74.5 -30t-75 30t-31 74q0 42 31 72.5t75 30.5zM541 1652q45 0 75.5 -30.5t30.5 -72.5q0 -44 -31.5 -74t-74.5 -30t-74 30t-31 74q0 42 30.5 72.5t74.5 30.5z" />
    <glyph glyph-name="Udieresis" unicode="&#xdc;" horiz-adv-x="1434" 
d="M949 1281v36h467v-36h-49q-78 0 -120 -66q-20 -30 -20 -139v-535q0 -198 -39 -307.5t-154.5 -188t-314.5 -78.5q-215 0 -327 75t-159 201q-30 88 -30 325v515q0 122 -33.5 160t-109.5 38h-49v36h570v-36h-50q-82 0 -118 -52q-24 -34 -24 -146v-574q0 -76 14.5 -176
t51 -155t106 -91t170.5 -36q130 0 232 56.5t139 144.5t37 298v533q0 124 -26 155q-39 43 -113 43h-51zM943 1647q44 0 74.5 -31t30.5 -75q0 -43 -30.5 -74t-74.5 -31t-74.5 31t-30.5 74q0 44 30.5 75t74.5 31zM600 1647q45 0 75.5 -31t30.5 -75q0 -43 -31.5 -74t-73.5 -31
q-44 0 -74.5 31t-30.5 74q0 44 30.5 75t73.5 31z" />
    <glyph glyph-name="aacute" unicode="&#xe1;" horiz-adv-x="942" 
d="M569 127q-137 -106 -172 -123q-53 -23 -112 -23q-92 0 -152 62.5t-60 165.5q0 65 29 113q41 66 139 124.5t328 142.5v34q0 134 -42 183.5t-124 49.5q-61 0 -97 -33t-36 -76l1 -56q0 -45 -23 -69.5t-60 -24.5q-36 0 -58.5 25t-22.5 70q0 83 85.5 153t240.5 70
q119 0 194 -40q57 -30 84 -94q18 -41 18 -171v-302q0 -127 5 -156t16 -38.5t26 -9.5q16 0 27 6q20 13 79 72v-55q-109 -145 -208 -145q-48 0 -76 32.5t-29 112.5zM569 190v340q-147 -59 -190 -83q-77 -43 -110 -90t-33 -102q0 -70 42 -116t96 -46q75 0 195 97zM666 1349
l-287 -334h-34l102 334h219z" />
    <glyph glyph-name="agrave" unicode="&#xe0;" horiz-adv-x="934" 
d="M569 127q-137 -106 -172 -123q-53 -23 -112 -23q-92 0 -152 62.5t-60 165.5q0 65 29 113q41 66 139 124.5t328 142.5v34q0 134 -42 183.5t-124 49.5q-61 0 -97 -33t-36 -76l1 -56q0 -45 -23 -69.5t-60 -24.5q-36 0 -58.5 25t-22.5 70q0 83 85.5 153t240.5 70
q119 0 194 -40q57 -30 84 -94q18 -41 18 -171v-302q0 -127 5 -156t16 -38.5t26 -9.5q16 0 27 6q20 13 79 72v-55q-109 -145 -208 -145q-48 0 -76 32.5t-29 112.5zM569 190v340q-147 -59 -190 -83q-77 -43 -110 -90t-33 -102q0 -70 42 -116t96 -46q75 0 195 97zM263 1349h216
l103 -334h-34z" />
    <glyph glyph-name="acircumflex" unicode="&#xe2;" horiz-adv-x="934" 
d="M569 127q-137 -106 -172 -123q-53 -23 -112 -23q-92 0 -152 62.5t-60 165.5q0 65 29 113q41 66 139 124.5t328 142.5v34q0 134 -42 183.5t-124 49.5q-61 0 -97 -33t-36 -76l1 -56q0 -45 -23 -69.5t-60 -24.5q-36 0 -58.5 25t-22.5 70q0 83 85.5 153t240.5 70
q119 0 194 -40q57 -30 84 -94q18 -41 18 -171v-302q0 -127 5 -156t16 -38.5t26 -9.5q16 0 27 6q20 13 79 72v-55q-109 -145 -208 -145q-48 0 -76 32.5t-29 112.5zM569 190v340q-147 -59 -190 -83q-77 -43 -110 -90t-33 -102q0 -70 42 -116t96 -46q75 0 195 97zM359 1345h178
l185 -322h-30l-265 208l-222 -208h-30z" />
    <glyph glyph-name="adieresis" unicode="&#xe4;" horiz-adv-x="934" 
d="M569 127q-137 -106 -172 -123q-53 -23 -112 -23q-92 0 -152 62.5t-60 165.5q0 65 29 113q41 66 139 124.5t328 142.5v34q0 134 -42 183.5t-124 49.5q-61 0 -97 -33t-36 -76l1 -56q0 -45 -23 -69.5t-60 -24.5q-36 0 -58.5 25t-22.5 70q0 83 85.5 153t240.5 70
q119 0 194 -40q57 -30 84 -94q18 -41 18 -171v-302q0 -127 5 -156t16 -38.5t26 -9.5q16 0 27 6q20 13 79 72v-55q-109 -145 -208 -145q-48 0 -76 32.5t-29 112.5zM569 190v340q-147 -59 -190 -83q-77 -43 -110 -90t-33 -102q0 -70 42 -116t96 -46q75 0 195 97zM619 1298
q44 0 75 -31.5t31 -74.5t-31 -74t-75 -31q-43 0 -74.5 31t-31.5 74t31.5 74.5t74.5 31.5zM276 1298q45 0 76 -31.5t31 -74.5t-31.5 -74t-74.5 -31t-74.5 31t-31.5 74t31 74.5t74 31.5z" />
    <glyph glyph-name="atilde" unicode="&#xe3;" horiz-adv-x="934" 
d="M569 127q-137 -106 -172 -123q-53 -23 -112 -23q-92 0 -152 62.5t-60 165.5q0 65 29 113q41 66 139 124.5t328 142.5v34q0 134 -42 183.5t-124 49.5q-61 0 -97 -33t-36 -76l1 -56q0 -45 -23 -69.5t-60 -24.5q-36 0 -58.5 25t-22.5 70q0 83 85.5 153t240.5 70
q119 0 194 -40q57 -30 84 -94q18 -41 18 -171v-302q0 -127 5 -156t16 -38.5t26 -9.5q16 0 27 6q20 13 79 72v-55q-109 -145 -208 -145q-48 0 -76 32.5t-29 112.5zM569 190v340q-147 -59 -190 -83q-77 -43 -110 -90t-33 -102q0 -70 42 -116t96 -46q75 0 195 97zM169 1065h-31
q5 133 56.5 192.5t126.5 59.5q40 0 72 -13q45 -17 125.5 -70t118.5 -53q31 0 55 26.5t37 109.5h30q2 -91 -23 -144t-70.5 -82.5t-90.5 -29.5q-77 0 -191 77q-61 42 -82 51t-42 9q-41 0 -63 -35q-11 -16 -28 -98z" />
    <glyph glyph-name="aring" unicode="&#xe5;" horiz-adv-x="934" 
d="M569 127q-137 -106 -172 -123q-53 -23 -112 -23q-92 0 -152 62.5t-60 165.5q0 65 29 113q41 66 139 124.5t328 142.5v34q0 134 -42 183.5t-124 49.5q-61 0 -97 -33t-36 -76l1 -56q0 -45 -23 -69.5t-60 -24.5q-36 0 -58.5 25t-22.5 70q0 83 85.5 153t240.5 70
q119 0 194 -40q57 -30 84 -94q18 -41 18 -171v-302q0 -127 5 -156t16 -38.5t26 -9.5q16 0 27 6q20 13 79 72v-55q-109 -145 -208 -145q-48 0 -76 32.5t-29 112.5zM569 190v340q-147 -59 -190 -83q-77 -43 -110 -90t-33 -102q0 -70 42 -116t96 -46q75 0 195 97zM449 1385
q78 0 132 -54.5t54 -131.5q0 -78 -54 -132t-132 -54q-77 0 -131.5 54t-54.5 132q0 77 54 131.5t132 54.5zM449 1318q-50 0 -84.5 -34.5t-34.5 -84.5q0 -48 34.5 -83t84.5 -35q49 0 83.5 35t34.5 83q0 50 -34.5 84.5t-83.5 34.5z" />
    <glyph glyph-name="ccedilla" unicode="&#xe7;" horiz-adv-x="886" 
d="M820 337q-36 -176 -141 -270.5t-232 -94.5q-151 0 -264 127t-113 343q0 210 125 341.5t300 131.5q131 0 215.5 -69.5t84.5 -144.5q0 -37 -23.5 -59.5t-66.5 -22.5q-58 0 -87 37q-16 20 -21.5 77t-39.5 88q-35 29 -95 29q-97 0 -156 -72q-79 -95 -79 -252
q0 -159 78.5 -281t212.5 -122q94 0 170 65q54 45 104 163zM458 14h58l-49 -77q61 -15 91 -51.5t30 -89.5q0 -70 -58 -123.5t-150 -53.5q-36 0 -92 8v42q28 -4 47 -4q49 0 83.5 32.5t34.5 74.5q0 29 -22.5 50.5t-55.5 21.5q-10 0 -25 -3z" />
    <glyph glyph-name="eacute" unicode="&#xe9;" horiz-adv-x="929" 
d="M214 554q-1 -198 96 -311t229 -113q87 0 151.5 48t109.5 165l30 -20q-21 -133 -119.5 -242t-245.5 -109q-161 0 -275 124.5t-114 336.5q0 228 117 355.5t295 127.5q148 0 245 -98.5t97 -263.5h-616zM214 610h412q-5 85 -21 120q-24 55 -72 86t-101 31q-80 0 -143.5 -62.5
t-74.5 -174.5zM681 1349l-287 -334h-32l102 334h217z" />
    <glyph glyph-name="egrave" unicode="&#xe8;" horiz-adv-x="925" 
d="M214 554q-1 -198 96 -311t229 -113q87 0 151.5 48t109.5 165l30 -20q-21 -133 -119.5 -242t-245.5 -109q-161 0 -275 124.5t-114 336.5q0 228 117 355.5t295 127.5q148 0 245 -98.5t97 -263.5h-616zM214 610h412q-5 85 -21 120q-24 55 -72 86t-101 31q-80 0 -143.5 -62.5
t-74.5 -174.5zM292 1349h217l103 -334h-34z" />
    <glyph glyph-name="ecircumflex" unicode="&#xea;" horiz-adv-x="925" 
d="M214 554q-1 -198 96 -311t229 -113q87 0 151.5 48t109.5 165l30 -20q-21 -133 -119.5 -242t-245.5 -109q-161 0 -275 124.5t-114 336.5q0 228 117 355.5t295 127.5q148 0 245 -98.5t97 -263.5h-616zM214 610h412q-5 85 -21 120q-24 55 -72 86t-101 31q-80 0 -143.5 -62.5
t-74.5 -174.5zM404 1345h178l185 -322h-31l-265 208l-222 -208h-29z" />
    <glyph glyph-name="edieresis" unicode="&#xeb;" horiz-adv-x="925" 
d="M214 554q-1 -198 96 -311t229 -113q87 0 151.5 48t109.5 165l30 -20q-21 -133 -119.5 -242t-245.5 -109q-161 0 -275 124.5t-114 336.5q0 228 117 355.5t295 127.5q148 0 245 -98.5t97 -263.5h-616zM214 610h412q-5 85 -21 120q-24 55 -72 86t-101 31q-80 0 -143.5 -62.5
t-74.5 -174.5zM664 1297q43 0 73.5 -31.5t30.5 -74.5t-30.5 -74.5t-73.5 -31.5q-44 0 -75.5 31.5t-31.5 74.5t31.5 74.5t75.5 31.5zM321 1297q44 0 74.5 -31.5t30.5 -74.5t-31 -74.5t-74 -31.5t-74.5 31.5t-31.5 74.5t30.5 74.5t75.5 31.5z" />
    <glyph glyph-name="iacute" unicode="&#xed;" horiz-adv-x="573" 
d="M370 915v-715q0 -84 12.5 -111.5t36.5 -41.5t87 -14v-34h-433v34q66 0 88.5 13t35.5 42t13 112v343q0 145 -10 187q-6 31 -21 43t-40 12q-26 0 -66 -14l-13 35l269 109h41zM482 1349l-286 -334h-33l102 334h217z" />
    <glyph glyph-name="igrave" unicode="&#xec;" horiz-adv-x="573" 
d="M370 915v-715q0 -84 12.5 -111.5t36.5 -41.5t87 -14v-34h-433v34q66 0 88.5 13t35.5 42t13 112v343q0 145 -10 187q-6 31 -21 43t-40 12q-26 0 -66 -14l-13 35l269 109h41zM80 1349h218l103 -334h-35z" />
    <glyph glyph-name="icircumflex" unicode="&#xee;" horiz-adv-x="569" 
d="M367 915v-715q0 -84 12.5 -111.5t36 -41.5t87.5 -14v-34h-432v34q64 0 86.5 13t35.5 42t13 112v343q0 145 -8 187q-7 31 -21.5 43t-39.5 12q-28 0 -66 -14l-15 35l269 109h42zM197 1345h178l185 -322h-30l-265 208l-223 -208h-29z" />
    <glyph glyph-name="idieresis" unicode="&#xef;" horiz-adv-x="558" 
d="M368 915v-715q0 -84 12.5 -111.5t36.5 -41.5t87 -14v-34h-432v34q64 0 87 13t35.5 42t12.5 112v343q0 145 -8 187q-7 31 -21.5 43t-39.5 12q-28 0 -66 -14l-14 35l268 109h42zM450 1297q44 0 74.5 -31.5t30.5 -74.5t-30.5 -74.5t-74.5 -31.5t-75 31.5t-31 74.5t31 74.5
t75 31.5zM106 1297q46 0 76.5 -31.5t30.5 -74.5t-31 -74.5t-74 -31.5q-44 0 -75 31.5t-31 74.5t30.5 74.5t73.5 31.5z" />
    <glyph glyph-name="ntilde" unicode="&#xf1;" horiz-adv-x="1028" 
d="M322 727q157 188 298 188q74 0 126 -36.5t83 -119.5q22 -59 22 -179v-380q0 -85 13 -115q11 -24 35 -38t87 -14v-34h-439v34h18q63 0 87.5 19t33.5 57q4 14 4 91v365q0 121 -31 175.5t-107 54.5q-115 0 -230 -126v-469q0 -90 10 -112q15 -29 38.5 -42t96.5 -13v-34h-441
v34h20q68 0 92 35t24 132v330q0 161 -7 195.5t-23 47t-41 12.5q-26 0 -65 -14l-14 35l269 109h41v-188zM220 1065h-32q4 133 55.5 192.5t127.5 59.5q39 0 73 -13q43 -17 123.5 -70t118.5 -53q32 0 56 26.5t37 109.5h30q1 -91 -23.5 -144t-70 -82.5t-91.5 -29.5
q-77 0 -190 77q-61 42 -82.5 51t-41.5 9q-40 0 -64 -35q-11 -16 -26 -98z" />
    <glyph glyph-name="oacute" unicode="&#xf3;" horiz-adv-x="988" 
d="M500 915q201 0 324 -154q104 -130 104 -301q0 -120 -57.5 -242.5t-157.5 -184t-224 -61.5q-202 0 -320 159q-100 136 -100 304q0 122 60.5 243.5t159.5 179t211 57.5zM470 851q-52 0 -104 -30.5t-84 -107t-32 -196.5q0 -195 77 -336t204 -141q94 0 155 78t61 268
q0 236 -102 373q-68 92 -175 92zM701 1349l-286 -334h-34l102 334h218z" />
    <glyph glyph-name="ograve" unicode="&#xf2;" horiz-adv-x="1005" 
d="M500 915q201 0 324 -154q104 -130 104 -301q0 -120 -57.5 -242.5t-157.5 -184t-224 -61.5q-202 0 -320 159q-100 136 -100 304q0 122 60.5 243.5t159.5 179t211 57.5zM470 851q-52 0 -104 -30.5t-84 -107t-32 -196.5q0 -195 77 -336t204 -141q94 0 155 78t61 268
q0 236 -102 373q-68 92 -175 92zM298 1349h216l103 -334h-33z" />
    <glyph glyph-name="ocircumflex" unicode="&#xf4;" horiz-adv-x="988" 
d="M500 915q201 0 324 -154q104 -130 104 -301q0 -120 -57.5 -242.5t-157.5 -184t-224 -61.5q-202 0 -320 159q-100 136 -100 304q0 122 60.5 243.5t159.5 179t211 57.5zM470 851q-52 0 -104 -30.5t-84 -107t-32 -196.5q0 -195 77 -336t204 -141q94 0 155 78t61 268
q0 236 -102 373q-68 92 -175 92zM423 1345h179l185 -322h-30l-266 208l-222 -208h-30z" />
    <glyph glyph-name="odieresis" unicode="&#xf6;" horiz-adv-x="992" 
d="M500 915q201 0 324 -154q104 -130 104 -301q0 -120 -57.5 -242.5t-157.5 -184t-224 -61.5q-202 0 -320 159q-100 136 -100 304q0 122 60.5 243.5t159.5 179t211 57.5zM470 851q-52 0 -104 -30.5t-84 -107t-32 -196.5q0 -195 77 -336t204 -141q94 0 155 78t61 268
q0 236 -102 373q-68 92 -175 92zM669 1297q44 0 75 -31.5t31 -74.5t-31 -74.5t-75 -31.5q-43 0 -74.5 31.5t-31.5 74.5t31.5 74.5t74.5 31.5zM326 1297q44 0 75.5 -31.5t31.5 -74.5t-31.5 -74.5t-74.5 -31.5t-74.5 31.5t-31.5 74.5t31 74.5t74 31.5z" />
    <glyph glyph-name="otilde" unicode="&#xf5;" horiz-adv-x="1005" 
d="M500 915q201 0 324 -154q104 -130 104 -301q0 -120 -57.5 -242.5t-157.5 -184t-224 -61.5q-202 0 -320 159q-100 136 -100 304q0 122 60.5 243.5t159.5 179t211 57.5zM470 851q-52 0 -104 -30.5t-84 -107t-32 -196.5q0 -195 77 -336t204 -141q94 0 155 78t61 268
q0 236 -102 373q-68 92 -175 92zM219 1065h-31q5 133 56.5 192.5t126.5 59.5q40 0 72 -13q45 -17 125.5 -70t118.5 -53q31 0 55 26.5t37 109.5h30q2 -91 -23.5 -144t-70.5 -82.5t-90 -29.5q-77 0 -191 77q-61 42 -82 51t-42 9q-41 0 -63 -35q-11 -16 -28 -98z" />
    <glyph glyph-name="uacute" unicode="&#xfa;" horiz-adv-x="997" 
d="M843 889v-539q0 -155 7.5 -190t23.5 -48t36 -13q30 0 69 16l13 -34l-266 -109h-44v188q-115 -125 -175 -156.5t-127 -31.5q-74 0 -129.5 43t-76.5 111t-21 193v397q0 63 -13.5 87t-40.5 37.5t-97 12.5v36h312v-596q0 -124 43 -163t105 -39q42 0 94.5 26t125.5 101v504
q0 75 -27.5 102t-114.5 29v36h303zM670 1349l-286 -334h-34l103 334h217z" />
    <glyph glyph-name="ugrave" unicode="&#xf9;" horiz-adv-x="997" 
d="M843 889v-539q0 -155 7.5 -190t23.5 -48t36 -13q30 0 69 16l13 -34l-266 -109h-44v188q-115 -125 -175 -156.5t-127 -31.5q-74 0 -129.5 43t-76.5 111t-21 193v397q0 63 -13.5 87t-40.5 37.5t-97 12.5v36h312v-596q0 -124 43 -163t105 -39q42 0 94.5 26t125.5 101v504
q0 75 -27.5 102t-114.5 29v36h303zM303 1349h217l104 -334h-35z" />
    <glyph glyph-name="ucircumflex" unicode="&#xfb;" horiz-adv-x="997" 
d="M843 889v-539q0 -155 7.5 -190t23.5 -48t36 -13q30 0 69 16l13 -34l-266 -109h-44v188q-115 -125 -175 -156.5t-127 -31.5q-74 0 -129.5 43t-76.5 111t-21 193v397q0 63 -13.5 87t-40.5 37.5t-97 12.5v36h312v-596q0 -124 43 -163t105 -39q42 0 94.5 26t125.5 101v504
q0 75 -27.5 102t-114.5 29v36h303zM412 1345h179l185 -322h-31l-265 208l-222 -208h-29z" />
    <glyph glyph-name="udieresis" unicode="&#xfc;" horiz-adv-x="1001" 
d="M843 889v-539q0 -155 7.5 -190t23.5 -48t36 -13q30 0 69 16l13 -34l-266 -109h-44v188q-115 -125 -175 -156.5t-127 -31.5q-74 0 -129.5 43t-76.5 111t-21 193v397q0 63 -13.5 87t-40.5 37.5t-97 12.5v36h312v-596q0 -124 43 -163t105 -39q42 0 94.5 26t125.5 101v504
q0 75 -27.5 102t-114.5 29v36h303zM667 1297q44 0 74.5 -31.5t30.5 -74.5t-30.5 -74.5t-74.5 -31.5q-43 0 -74.5 31.5t-31.5 74.5t31.5 74.5t74.5 31.5zM325 1297q44 0 74.5 -31.5t30.5 -74.5t-31 -74.5t-74 -31.5t-74.5 31.5t-31.5 74.5t30.5 74.5t75.5 31.5z" />
    <glyph glyph-name="dagger" unicode="&#x2020;" horiz-adv-x="1001" 
d="M513 -411h-36q-5 424 -32 683q-20 193 -67 367q49 43 71 90.5t28 139.5q-64 -7 -129 -33q-102 -43 -149 -43q-44 0 -71 26t-27 66q0 41 29 68.5t71 27.5q25 0 45 -6q11 -2 102 -42q58 -25 129 -30q-2 41 -8 61q-7 30 -28 83q-53 125 -53 188q0 57 31.5 92.5t77.5 35.5
q41 0 73.5 -37t32.5 -91q0 -28 -9 -57q-9 -39 -43.5 -123t-37.5 -152q68 6 128 30q96 37 112 42q21 5 43 5q47 0 75.5 -27t28.5 -68q0 -38 -28.5 -66t-72.5 -28q-52 0 -159 46q-47 20 -67.5 25t-59.5 7q4 -91 26 -140.5t71 -89.5q-47 -178 -65.5 -353.5t-31.5 -696.5z" />
    <glyph glyph-name="degree" unicode="&#xb0;" horiz-adv-x="803" 
d="M397 1346q125 0 212 -87.5t87 -212.5q0 -123 -88 -210.5t-211 -87.5q-124 0 -211.5 87.5t-87.5 210.5q0 125 87 212.5t212 87.5zM397 1264q-91 0 -154 -63t-63 -154q0 -89 63 -152.5t154 -63.5q89 0 152.5 63.5t63.5 152.5q0 91 -63 154t-153 63z" />
    <glyph glyph-name="cent" unicode="&#xa2;" horiz-adv-x="1003" 
d="M879 338q-47 -183 -160 -285q-86 -77 -214 -77q-78 0 -158 33l-138 -379h-67l150 415q-79 74 -114 150q-49 107 -49 242q0 248 152 380q117 102 266 102q20 0 60 -4l135 372h70l-141 -390q99 -44 135 -85q47 -52 47 -112q0 -37 -23.5 -60t-68.5 -23q-54 0 -84 38
q-18 21 -25 79q-3 31 -17 63l-222 -613q56 -37 92 -49q27 -10 67 -10q60 0 114 25t82 58.5t81 142.5zM363 242l217 597q-27 12 -59 12q-98 0 -157 -72q-79 -97 -79 -260q0 -73 17 -134.5t61 -142.5z" />
    <glyph glyph-name="sterling" unicode="&#xa3;" horiz-adv-x="998" 
d="M704 639h-251q2 -44 2 -66q0 -91 -13.5 -169t-46.5 -179q190 -61 217 -67q50 -12 99 -12q81 0 131.5 37.5t74.5 118.5l34 -9q-20 -157 -100.5 -237t-178.5 -80q-66 0 -119.5 23.5t-197.5 130.5q-38 -77 -83 -115.5t-97 -38.5q-49 0 -81.5 33.5t-32.5 90.5q0 66 45 109.5
t115 43.5q16 0 36.5 -2.5t45.5 -6.5q2 25 2.5 44t0.5 32q0 85 -21 319h-188v92h188q-12 146 -12 194q0 118 47.5 216.5t131.5 150t180 51.5q123 0 184.5 -66t61.5 -132q0 -31 -23.5 -55t-51.5 -24q-38 0 -62 36q-10 18 -14 75.5t-34 85.5t-84 28q-76 0 -126.5 -61
t-50.5 -212q0 -71 12 -181q7 -73 9 -106h251v-92zM291 166q-21 13 -41.5 20t-40.5 7q-44 0 -68.5 -23.5t-24.5 -62.5q0 -34 19.5 -54.5t44.5 -20.5q32 0 62.5 30t48.5 104z" />
    <glyph glyph-name="section" unicode="&#xa7;" horiz-adv-x="1004" 
d="M371 818q-65 72 -92.5 131.5t-27.5 120.5q0 114 79 193.5t197 79.5q107 0 176.5 -64.5t69.5 -148.5q0 -37 -27 -67q-18 -21 -50 -21q-34 0 -55.5 22.5t-21.5 53.5q0 14 9 51q4 22 4 41q0 41 -28 67t-77 26q-72 0 -120.5 -49.5t-48.5 -120.5q0 -62 26 -103
q43 -68 146 -143q196 -141 268 -253q50 -79 50 -167t-51.5 -176.5t-162.5 -155.5q67 -76 92.5 -129.5t25.5 -117.5q0 -119 -79 -198.5t-197 -79.5q-104 0 -173.5 66.5t-69.5 152.5q0 36 22.5 61t52.5 25t52 -23t22 -63q0 -26 -8 -57t-8 -48q0 -28 24 -47q38 -29 92 -29
q65 0 118.5 50.5t53.5 110.5t-30 107q-47 73 -169 165q-184 137 -250 240q-49 79 -49 168t52 176t163 153zM402 788q-146 -89 -146 -216q0 -69 36 -125q50 -79 190 -186q69 -52 119 -98q149 91 149 213q0 64 -42.5 132.5t-175.5 172.5q-81 61 -130 107z" />
    <glyph glyph-name="bullet" unicode="&#x2022;" horiz-adv-x="703" 
d="M356 901q102 0 173 -71.5t71 -172.5q0 -102 -71 -173.5t-173 -71.5q-101 0 -172.5 71.5t-71.5 173.5q0 101 71 172.5t173 71.5z" />
    <glyph glyph-name="paragraph" unicode="&#xb6;" horiz-adv-x="902" 
d="M776 1263v-1694h-71v1694h-181v-1694h-71v1014q-186 8 -278 49t-140.5 127t-48.5 193t42 175q56 93 150 141.5t246 48.5h480v-54h-128z" />
    <glyph glyph-name="germandbls" unicode="&#xdf;" horiz-adv-x="999" 
d="M35 -1v34q59 6 83.5 21t34.5 43t10 121v720q0 241 90 343q92 100 257 100q157 0 249.5 -89t92.5 -227q0 -103 -53 -175q-38 -53 -132 -94q131 -38 198.5 -134t67.5 -253q0 -170 -89 -296t-238 -126q-84 0 -135 46.5t-51 109.5q0 41 21 62.5t56 21.5q37 0 58 -20t21 -56
q0 -15 -3 -32q-6 -24 -6 -34q0 -17 14 -32q14 -13 40 -13q58 0 97 52q49 68 49 210q0 201 -71.5 320t-215.5 129v55q103 0 156 61t53 203q0 129 -51 188t-135 59q-79 0 -129 -62.5t-50 -248.5v-1007h-289z" />
    <glyph glyph-name="registered" unicode="&#xae;" horiz-adv-x="1516" 
d="M758 1347q174 0 339.5 -89t258 -255t92.5 -346q0 -179 -91.5 -342.5t-255.5 -254.5t-343 -91t-343 91t-255 254.5t-91 342.5q0 180 93 346t258 255t338 89zM758 1287q-159 0 -309.5 -81.5t-235 -233t-84.5 -315.5q0 -163 83.5 -312.5t233 -233t312.5 -83.5t313.5 83.5
t233.5 233t83 312.5q0 164 -84.5 315.5t-235.5 233t-310 81.5zM377 1082h375q141 0 215 -63.5t74 -155.5q0 -73 -50 -129.5t-166 -86.5l203 -289q37 -51 67 -71q18 -12 50 -14v-32h-178l-286 393h-73v-300q6 -32 27.5 -46.5t86.5 -14.5v-32h-357v32q47 0 66.5 11t28.5 32
q6 16 6 90v509q0 72 -2 85q-7 22 -25 34t-62 12v36zM608 676q114 0 167.5 22.5t81.5 62.5t28 92q0 79 -55 132.5t-141 53.5q-37 0 -81 -16v-347z" />
    <glyph glyph-name="copyright" unicode="&#xa9;" horiz-adv-x="1516" 
d="M758 1347q174 0 339.5 -89t258 -255t92.5 -346q0 -179 -91.5 -342.5t-255.5 -254.5t-343 -91t-343 91t-255 254.5t-91 342.5q0 180 93 346t258 255t338 89zM758 1287q-159 0 -309.5 -81.5t-235 -233t-84.5 -315.5q0 -163 83.5 -312.5t233 -233t312.5 -83.5t313.5 83.5
t233.5 233t83 312.5q0 164 -84.5 315.5t-235.5 233t-310 81.5zM1100 1101l19 -272h-38q-35 115 -111.5 172t-182.5 57q-81 0 -142.5 -33t-102.5 -88q-29 -42 -48 -111t-19 -146q0 -207 88 -304t233 -97q190 0 304 157l36 -19q-136 -197 -373 -197q-195 0 -322.5 126
t-127.5 306q0 186 136 318t348 132q45 0 74.5 -6t105.5 -31q24 -8 36 -8q15 0 25.5 8t21.5 36h40z" />
    <glyph glyph-name="trademark" unicode="&#x2122;" horiz-adv-x="1953" 
d="M50 1317h708l22 -196h-34q-9 70 -50.5 103.5t-137.5 33.5h-73v-563q0 -81 19 -102.5t84 -25.5v-35h-364v35q64 6 81 27t17 100v564h-75q-92 0 -130.5 -30.5t-52.5 -106.5h-34zM1124 1317l266 -557l258 557h271v-36q-55 -1 -72.5 -10.5t-26.5 -31.5t-9 -90v-455
q0 -83 18.5 -103t89.5 -24v-35h-388v35q58 1 77.5 12t29.5 31.5t10 82.5v479l-299 -640h-31l-299 631v-469q0 -66 8.5 -85.5t26.5 -30.5t55 -11h35v-35h-298v35q55 0 73.5 9.5t27.5 30t9 87.5v454q0 73 -8 93t-27.5 30t-74.5 10v36h278z" />
    <glyph glyph-name="acute" unicode="&#xb4;" horiz-adv-x="672" 
d="M555 1349l-285 -334h-34l102 334h217z" />
    <glyph glyph-name="dieresis" unicode="&#xa8;" horiz-adv-x="666" 
d="M505 1298q44 0 74.5 -31.5t30.5 -74.5t-30.5 -74t-74.5 -31t-75 31t-31 74t31 74.5t75 31.5zM161 1298q46 0 76.5 -31.5t30.5 -74.5t-31 -74t-74 -31q-44 0 -75 31t-31 74t30.5 74.5t73.5 31.5z" />
    <glyph glyph-name="notequal" unicode="&#x2260;" horiz-adv-x="1094" 
d="M25 794h586l204 518h78l-201 -518h377v-91h-413l-140 -360h553v-90h-588l-205 -516h-78l203 516h-376v90h412l140 360h-552v91z" />
    <glyph glyph-name="AE" unicode="&#xc6;" horiz-adv-x="1771" 
d="M997 1245v-521h250q113 0 158.5 41.5t52.5 149.5h35v-457h-35q-11 97 -31.5 130.5t-66.5 54.5q-22 9 -113 9h-250v-435q0 -89 7.5 -106t28.5 -29t76 -12h177q106 0 163.5 17.5t110.5 69.5q71 66 118 174h36l-105 -332h-990v35h51q80 0 117 48q24 31 24 149v278h-385
l-120 -226q-68 -129 -68 -168q0 -28 29 -51t123 -30v-35h-414v35q43 1 73.5 18.5t66.5 63t92 149.5l400 750q75 139 75 187q0 31 -27 49q-33 24 -141 30v36h1080l14 -290h-33q-12 100 -48 152q-27 38 -76 56q-29 10 -133 10h-322zM811 1245l-347 -665h347v665z" />
    <glyph glyph-name="Oslash" unicode="&#xd8;" horiz-adv-x="1441" 
d="M1117 1202l127 157l57 -42l-130 -163q102 -109 147.5 -222t45.5 -265q0 -334 -237 -540q-183 -158 -401 -158q-101 0 -211.5 36t-191.5 102l-125 -154l-58 46l129 159q-196 201 -196 513q0 286 191 481t458 195q221 0 395 -145zM1035 1102q-112 175 -318 175
q-90 0 -142 -21q-74 -29 -131 -93q-77 -86 -113 -209t-36 -278q0 -224 72 -397zM1073 1031l-666 -822q52 -79 112 -116q87 -54 192 -54q102 0 167.5 30.5t122.5 94t98 180.5t41 293q0 118 -18 220q-13 76 -49 174z" />
    <glyph glyph-name="infinity" unicode="&#x221e;" horiz-adv-x="1422" 
d="M636 647q66 152 144.5 210.5t215.5 58.5q156 0 264 -112.5t108 -292.5q0 -178 -105 -293t-234 -115q-96 0 -179 70q-54 47 -149 208q-62 -121 -136 -174t-178 -53q-141 0 -237.5 100.5t-96.5 258.5q0 160 89.5 258t209.5 98q83 0 147 -43t137 -179zM730 449
q73 -151 144 -203t158 -52q120 0 200.5 85.5t80.5 231.5q0 142 -84.5 236t-190.5 94q-67 0 -117 -34.5t-90 -108.5q-23 -45 -101 -249zM609 572q-48 107 -109.5 158t-151.5 51q-103 0 -172 -73t-69 -194q0 -129 68.5 -206.5t154.5 -77.5q93 0 163 83q46 54 116 259z" />
    <glyph glyph-name="plusminus" unicode="&#xb1;" horiz-adv-x="1094" 
d="M8 136v78h484v407h-484v79h484v484h78v-484h486v-79h-486v-407h487v-78h-1049z" />
    <glyph glyph-name="lessequal" unicode="&#x2264;" horiz-adv-x="1093" 
d="M1068 238l-1043 443v80l1043 442v-100l-924 -381l924 -385v-99zM24 -69h1046v-91h-1046v91z" />
    <glyph glyph-name="greaterequal" unicode="&#x2265;" horiz-adv-x="1093" 
d="M25 1203l1043 -443v-81l-1043 -441v99l923 382l-923 384v100zM24 -69h1046v-91h-1046v91z" />
    <glyph glyph-name="yen" unicode="&#xa5;" horiz-adv-x="995" 
d="M580 412h414v-72h-414v-104q0 -109 11 -139q9 -22 33 -38q36 -20 82 -20h40v-40h-500v40h31q68 0 101 25q24 18 32 55q4 18 4 117v104h-412v72h412v139l-15 35h-397v71h366l-206 482q-36 86 -71 113t-89 28v37h430v-37q-70 -5 -94 -22.5t-24 -37.5q0 -16 18 -58l208 -505
l206 491q20 48 20 72q0 20 -20 41q-13 12 -61 15q-10 0 -27 4v37h336v-37q-58 0 -84 -23q-42 -34 -84 -128l-207 -472h375v-71h-406l-8 -15v-159z" />
    <glyph glyph-name="mu1" unicode="&#xb5;" horiz-adv-x="1154" 
d="M194 889h160v-518q0 -141 18 -193q12 -38 46 -62.5t74 -24.5q115 0 229 130v668h161v-635q0 -97 7 -129q7 -22 24 -35.5t35 -13.5q25 0 43 22q25 30 36 99h41q-10 -117 -62 -171t-132 -54q-75 0 -116 56q-29 41 -37 129q-84 -100 -157.5 -142.5t-147.5 -42.5
q-52 0 -90 21q-26 15 -61 60v-44q0 -76 32 -231q13 -60 13 -102q0 -47 -27.5 -77t-64.5 -30q-35 0 -59.5 28t-24.5 79q0 44 28 159q20 78 21 101q12 101 12 174q0 5 -1 73v706z" />
    <glyph glyph-name="partialdiff" unicode="&#x2202;" horiz-adv-x="986" 
d="M905 695q11 111 11 182q0 175 -92 270.5t-244 95.5q-103 0 -171 -39t-122 -116h-44q74 153 161 223t210 70q87 0 170 -47.5t134 -154t51 -287.5q0 -343 -150 -618q-168 -305 -425 -305q-152 0 -241 87t-89 239q0 112 45 222t114 185.5t154 120.5q109 58 223 58
q81 0 145 -30.5t106 -74.5q27 -27 54 -81zM888 609q-38 108 -113 163t-166 55q-87 0 -171.5 -60t-147 -211t-62.5 -302q0 -111 53.5 -171t136.5 -60q119 0 244 128q158 160 226 458z" />
    <glyph glyph-name="summation" unicode="&#x2211;" horiz-adv-x="1421" 
d="M1320 -431h-1277v36l650 876l-650 862v35h1242l26 -326h-38q-16 133 -76 190.5t-166 57.5h-719l546 -735l-612 -823h795q69 0 149 26q55 17 92 64.5t61 148.5l38 -9z" />
    <glyph glyph-name="product" unicode="&#x220f;" horiz-adv-x="1642" 
d="M1206 1303h-772v-1546q0 -81 36 -116t121 -35h36v-37h-581v37h34q86 0 122 35t36 116v1435q0 81 -36 116t-122 35h-34v35h1549v-35h-33q-86 0 -122 -35t-36 -116v-1435q0 -81 36 -116t122 -35h33v-37h-579v37h33q85 0 121 35t36 116v1546z" />
    <glyph glyph-name="pi1" horiz-adv-x="1097" 
d="M997 889v-142h-226q-15 -101 -26 -233.5t-11 -211.5q0 -88 34 -128t87 -40q43 0 72 27t35 81h35q-17 -147 -73.5 -208.5t-127.5 -61.5q-72 0 -120.5 67t-48.5 269q0 89 11 198q16 177 25 241h-228l-14 -227q-12 -144 -38 -289t-53 -197q-20 -37 -41 -49.5t-42 -12.5
q-39 0 -63.5 23.5t-24.5 56.5q0 28 10 51q6 14 54 80q31 44 49 94.5t32 164.5q3 21 23 305h-27q-69 0 -111.5 -27t-91.5 -110h-35q31 117 78.5 180t92.5 81t143 18h621z" />
    <glyph glyph-name="integral" unicode="&#x222b;" horiz-adv-x="546" 
d="M194 868l18 565q8 150 48 248q27 66 72.5 97t89.5 31q50 0 86.5 -32.5t36.5 -70.5q0 -46 -26 -74t-64 -28q-34 0 -73 36q-23 19 -40 19t-27.5 -14.5t-10.5 -47.5q0 -40 8 -142q36 -398 36 -644q0 -68 -16 -573q-7 -286 -87 -388q-53 -65 -130 -65q-51 0 -83 33t-32 85
q0 44 24.5 70t63.5 26q38 0 66 -31.5t48 -31.5q16 0 27 14t11 46q0 41 -8 116q-17 139 -26 329q-12 242 -12 427z" />
    <glyph glyph-name="ordfeminine" unicode="&#xaa;" horiz-adv-x="549" 
d="M330 1145q0 106 -26 139t-77 33q-46 0 -68.5 -21t-22.5 -65q0 -45 -16 -64.5t-41 -19.5q-21 0 -37.5 16t-16.5 42q0 53 54.5 95.5t172.5 42.5q90 0 138 -30t61 -61.5t13 -106.5v-211q0 -51 3 -60q2 -12 11 -19q6 -6 12 -6q13 0 56 29v-47q-71 -50 -95.5 -60.5
t-49.5 -10.5q-24 0 -42.5 20t-28.5 71q-61 -43 -113.5 -65t-95.5 -22q-51 0 -89 36.5t-38 83.5q0 43 22 75q28 45 103 90q51 30 211 96zM330 1108q-116 -38 -158 -85t-42 -94q0 -32 24.5 -57t61.5 -25q22 0 50 10t64 32v219z" />
    <glyph glyph-name="ordmasculine" unicode="&#xba;" horiz-adv-x="619" 
d="M316 1343q120 0 199 -82t79 -202t-86.5 -207.5t-204.5 -87.5q-114 0 -194 79t-80 200q0 135 80.5 217.5t206.5 82.5zM288 1303q-50 0 -86 -44t-36 -140q0 -155 67 -251q38 -55 100 -55q55 0 91.5 43t36.5 137q0 152 -70 248q-43 62 -103 62z" />
    <glyph glyph-name="Ohm" unicode="&#x2126;" horiz-adv-x="1533" 
d="M629 280l29 -281h-587v324h34q19 -76 44.5 -98t96.5 -22h294v29q-153 46 -241 115t-139 186t-51 237q0 149 79 286t229.5 211.5t349.5 74.5q198 0 348.5 -73.5t230 -211.5t79.5 -287q0 -121 -52 -237.5t-139 -185.5t-241 -115v-29h294q70 0 96.5 22t45.5 98h34v-324h-588
l30 281q120 45 180 127q101 142 101 366q0 249 -112.5 375.5t-301.5 126.5q-199 0 -298 -112q-126 -141 -126 -388q0 -143 39 -250.5t110 -169.5q47 -44 132 -75z" />
    <glyph glyph-name="ae" unicode="&#xe6;" horiz-adv-x="1331" 
d="M715 550v-72q0 -195 69.5 -278t178.5 -83q95 0 172 60q48 37 103 154l31 -22q-34 -157 -150 -262q-84 -75 -210 -75q-104 0 -178 45q-36 22 -108 110q-12 -9 -54 -42q-57 -46 -76 -57q-46 -25 -97.5 -40.5t-105.5 -15.5q-92 0 -154.5 64t-62.5 158q0 85 42 144t166 122
q152 78 268 119v89q0 105 -39 148.5t-103 43.5q-65 0 -101 -31q-36 -33 -36 -71q0 -82 -8.5 -106.5t-26 -37t-43.5 -12.5q-39 0 -59 23q-29 31 -29 69q0 51 35.5 102t111.5 85.5t178 34.5q122 0 183 -34.5t80 -85.5q47 59 99 85q68 35 163 35q140 0 227.5 -94t87.5 -272
h-554zM715 613h368q-2 122 -52 178t-128 56t-132 -61t-56 -173zM595 177q-20 44 -33 114.5t-13 137.5v86q-130 -40 -241 -123q-72 -57 -72 -143q0 -77 46.5 -125.5t109.5 -48.5q39 0 81.5 20t121.5 82z" />
    <glyph glyph-name="oslash" unicode="&#xf8;" horiz-adv-x="997" 
d="M784 807l130 143l44 -42l-131 -148q104 -131 104 -302q0 -115 -56.5 -238t-156 -185.5t-224.5 -62.5q-81 0 -143 24.5t-136 85.5l-130 -148l-46 42l137 154q-48 60 -75.5 147.5t-27.5 163.5q0 115 58.5 232.5t158 179.5t217.5 62q80 0 145 -25t132 -83zM686 698
q-51 86 -99 119.5t-111 33.5q-96 0 -159 -78t-63 -258q0 -120 38 -254zM712 634l-391 -437q49 -90 97 -123.5t114 -33.5q97 0 158 78t61 271q0 118 -39 245z" />
    <glyph glyph-name="questiondown" unicode="&#xbf;" horiz-adv-x="889" 
d="M442 946q44 0 76 -31.5t32 -76.5q0 -44 -32 -76t-76 -32q-45 0 -76.5 32t-31.5 76q0 45 31.5 76.5t76.5 31.5zM431 607h38q-4 -120 -23.5 -191t-100 -239.5t-80.5 -281.5q0 -127 64.5 -197t166.5 -70q84 0 132.5 39.5t48.5 87.5q0 30 -30 82t-30 84t23.5 55t54.5 23
q41 0 74.5 -40.5t33.5 -107.5q0 -112 -95 -197t-258 -85q-165 0 -263 91t-98 217q0 81 28 148q42 96 146 216t133 186t35 180z" />
    <glyph glyph-name="exclamdown" unicode="&#xa1;" horiz-adv-x="676" 
d="M338 945q46 0 77 -31t31 -77q0 -44 -31 -75.5t-77 -31.5q-44 0 -75 31.5t-31 75.5q0 46 31 77t75 31zM319 569h37l87 -786q5 -52 5 -77q0 -61 -32.5 -99t-77.5 -38q-46 0 -78 37t-32 111q0 24 5 66z" />
    <glyph glyph-name="logicalnot" unicode="&#xac;" horiz-adv-x="1125" 
d="M36 851h1050v-393h-77v315h-973v78z" />
    <glyph glyph-name="radical" unicode="&#x221a;" horiz-adv-x="1094" 
d="M1021 1815h72l-302 -1892l-482 992l-192 -89l-34 63l293 147l393 -800z" />
    <glyph glyph-name="florin" unicode="&#x192;" horiz-adv-x="996" 
d="M668 849h173l-17 -64h-169q-51 -261 -167 -688q-91 -331 -199 -437q-82 -80 -168 -80q-55 0 -87 30t-32 72q0 38 23 62t51 24q26 0 45 -17.5t19 -36.5q0 -21 -13 -37q-10 -12 -10 -18q0 -8 6.5 -14t17.5 -6q19 0 36 9q29 17 57 62.5t58 171.5q6 22 84 403q8 35 119 500
h-171l14 64q96 7 121 15t42 31q25 33 58 130q71 206 137 264q63 58 142 58q60 0 97 -32.5t37 -76.5q0 -34 -20 -54.5t-48 -20.5q-25 0 -43 17t-18 37q0 16 11 34t11 25q0 11 -9 19q-8 8 -25 8q-31 0 -56 -24q-34 -33 -45 -82q-26 -118 -62 -348z" />
    <glyph glyph-name="approxequal" unicode="&#x2248;" horiz-adv-x="1095" 
d="M1024 1007h42q-4 -122 -71 -193.5t-165 -71.5q-45 0 -95.5 14.5t-266.5 103.5q-152 62 -216 62q-67 0 -114.5 -42.5t-65.5 -134.5h-42q4 86 32.5 142.5t84 89.5t109.5 33q42 0 86 -13q101 -29 283 -107q94 -41 151 -57q29 -7 65 -7q73 0 123 46.5t60 134.5zM1024 530h42
q-4 -124 -71 -195.5t-165 -71.5q-45 0 -146 32l-216 87q-152 61 -216 61q-67 0 -114.5 -42t-65.5 -135h-42q4 86 32 143t83 90t109 33q42 0 87 -13q102 -30 284 -107q95 -41 151 -56q29 -7 65 -7q73 0 123 46t60 135z" />
    <glyph glyph-name="glyph168" unicode="&#x2206;" horiz-adv-x="1219" 
d="M1192 -1h-1166l611 1348zM963 79l-387 939l-429 -939h816z" />
    <glyph glyph-name="guillemotleft" unicode="&#xab;" horiz-adv-x="998" 
d="M496 -9h-56l-376 458l376 458h56l-238 -458zM935 -9h-56l-383 458l383 458h56l-236 -458z" />
    <glyph glyph-name="guillemotright" unicode="&#xbb;" horiz-adv-x="998" 
d="M503 907h55l377 -459l-377 -457h-55l238 457zM64 907h56l383 -459l-383 -457h-56l236 457z" />
    <glyph glyph-name="ellipsis" unicode="&#x2026;" horiz-adv-x="2003" 
d="M338 187q46 0 77 -31.5t31 -75.5q0 -46 -32 -77t-76 -31t-76 31t-32 77q0 45 32 76t76 31zM1002 187q44 0 76 -31.5t32 -75.5q0 -46 -32 -77t-76 -31q-45 0 -76.5 31t-31.5 77q0 45 31.5 76t76.5 31zM1665 187q46 0 77 -31.5t31 -75.5q0 -46 -31 -77t-77 -31
q-44 0 -76 31t-32 77q0 45 31.5 76t76.5 31z" />
    <glyph glyph-name="Agrave" unicode="&#xc0;" horiz-adv-x="1428" 
d="M909 418h-510l-90 -198q-32 -73 -32 -109q0 -29 28 -50.5t124 -27.5v-34h-415v34q83 13 107 36q49 44 110 180l463 1031h34l460 -1042q55 -126 100 -163t125 -42v-34h-519v34q79 4 106.5 25t27.5 52q0 41 -40 128zM882 487l-224 506l-229 -506h453zM496 1655h218
l103 -318h-34z" />
    <glyph glyph-name="Atilde" unicode="&#xc3;" horiz-adv-x="1439" 
d="M909 440h-510l-90 -208q-32 -77 -32 -115q0 -30 28 -53t124 -30v-35h-415v35q83 15 107 39q49 46 110 189l463 1085h34l460 -1097q55 -132 100 -171.5t125 -44.5v-35h-519v35q79 5 106.5 27t27.5 54q0 43 -40 135zM882 512l-224 533l-229 -533h453zM434 1451h-31
q3 106 55 153t127 47q41 0 73 -11q45 -13 124.5 -54.5t119.5 -41.5q31 0 54.5 20.5t37.5 86.5h30q2 -72 -23.5 -113.5t-70.5 -65t-90 -23.5q-77 0 -191 61q-61 33 -83 40t-42 7q-40 0 -62 -28q-11 -13 -28 -78z" />
    <glyph glyph-name="Otilde" unicode="&#xd5;" horiz-adv-x="1421" 
d="M730 1347q256 0 444.5 -195t188.5 -487q0 -300 -189.5 -498t-459.5 -198q-271 0 -456.5 193.5t-185.5 500.5q0 313 214 511q186 173 444 173zM712 1276q-177 0 -285 -132q-133 -163 -133 -477q0 -323 139 -497q106 -132 280 -132q186 0 306.5 144.5t120.5 456.5
q0 338 -133 504q-107 133 -295 133zM434 1457h-31q4 96 55.5 139t127.5 43q39 0 73 -10q43 -12 123.5 -50t118.5 -38q31 0 55 19t38 79h30q1 -65 -23.5 -103.5t-69.5 -59.5t-92 -21q-77 0 -190 55q-61 30 -82.5 36.5t-42.5 6.5q-39 0 -63 -25q-11 -12 -27 -71z" />
    <glyph glyph-name="OE" unicode="&#x152;" horiz-adv-x="1773" 
d="M1075 1245v-521h178q112 0 159 46.5t45 144.5h38v-458h-38q-8 118 -49.5 156.5t-154.5 38.5h-178v-434q0 -78 10 -101.5t32 -36.5q14 -7 75 -7h101q116 0 162.5 12.5t95.5 56.5q73 66 126 187h38l-104 -330h-472q-136 0 -166 -2q-11 0 -162 -8q-105 -6 -141 -6
q-164 0 -299.5 83t-215.5 243t-80 347q0 251 137 441q164 231 480 231q21 0 188 -6q136 -5 259 -5h460l12 -290h-31q-24 115 -42 145q-24 38 -75 60q-32 13 -139 13h-249zM889 1011q0 127 -18 167.5t-52 59.5q-49 29 -124 29q-121 0 -212.5 -71.5t-138 -218t-46.5 -330.5
q0 -150 41 -292t132 -222.5t221 -80.5q73 0 118 24.5t62 69.5t17 183v682z" />
    <glyph glyph-name="oe" unicode="&#x153;" horiz-adv-x="1442" 
d="M841 555q-2 -24 -2 -36q0 -91 32 -190.5t96.5 -148.5t141.5 -49q78 0 138 50t94 163l33 -17q-36 -187 -123 -271t-208 -84q-94 0 -160.5 45.5t-101.5 110.5q-60 -78 -137.5 -117t-170.5 -39q-172 0 -289 124.5t-117 332.5q0 223 120 354.5t292 131.5q103 0 179.5 -42.5
t122.5 -111.5q58 83 121 119t155 36q143 0 232 -96q90 -96 85 -265h-533zM443 862q-35 0 -83.5 -25.5t-75.5 -88.5q-36 -80 -36 -225q0 -251 100 -395q60 -88 149 -88q86 0 143 72t57 253q0 227 -65.5 362t-188.5 135zM841 619h341q1 68 -23 130q-18 46 -60 74t-88 28
q-64 0 -114 -58.5t-56 -173.5z" />
    <glyph glyph-name="endash" unicode="&#x2013;" horiz-adv-x="1360" 
d="M1158 -1h-964v138h964v-138z" />
    <glyph glyph-name="emdash" unicode="&#x2014;" horiz-adv-x="1839" 
d="M1637 -3h-1438v140h1438v-140z" />
    <glyph glyph-name="quotedblleft" unicode="&#x201c;" horiz-adv-x="887" 
d="M319 1347v-40q-85 -45 -122.5 -93.5t-37.5 -105.5q0 -35 10 -47q8 -14 22 -14q12 0 33.5 7t39.5 7q39 0 68.5 -29t29.5 -73q0 -45 -36 -78.5t-89 -33.5q-66 0 -118 56t-52 138q0 97 65 181.5t187 124.5zM782 1343v-36q-98 -56 -128.5 -101t-30.5 -105q0 -28 9 -41
q11 -14 23 -14q11 0 32.5 7.5t41.5 7.5q41 0 70.5 -28t29.5 -70q0 -48 -37 -83t-93 -35q-63 0 -114.5 55.5t-51.5 138.5q0 102 65 186t184 118z" />
    <glyph glyph-name="quotedblright" unicode="&#x201d;" horiz-adv-x="1036" 
d="M114 875v41q98 57 128.5 102t30.5 103q0 28 -9 41q-11 15 -24 15q-10 0 -31 -9q-22 -7 -42 -7q-41 0 -70.5 29t-29.5 71q0 46 37 81t91 35q64 0 116 -55t52 -141q0 -102 -65 -186.5t-184 -119.5zM577 875v41q85 45 122.5 94t37.5 105q0 35 -10 48q-10 14 -22 14t-33 -9
q-23 -7 -40 -7q-39 0 -68.5 30t-29.5 72q0 47 36 80.5t87 33.5q68 0 120 -56.5t52 -139.5q0 -97 -65 -181t-187 -125z" />
    <glyph glyph-name="quoteleft" unicode="&#x2018;" horiz-adv-x="674" 
d="M437 1347v-42q-100 -60 -136 -112q-26 -38 -26 -90q0 -31 12 -45q11 -15 25 -15q10 0 28 8q26 8 42 8q39 0 69 -29.5t30 -72.5q0 -49 -30 -77q-42 -37 -97 -37q-66 0 -117.5 56t-51.5 137q0 114 85 209q58 62 167 102z" />
    <glyph glyph-name="quoteright" unicode="&#x2019;" horiz-adv-x="674" 
d="M236 843v46q101 60 137 111q25 36 25 88q0 30 -11 45q-12 15 -25 15q-11 0 -29 -7q-25 -9 -40 -9q-40 0 -70 29t-30 73q0 48 30 76q41 37 97 37q65 0 117 -55t52 -137q0 -114 -86 -209q-58 -62 -167 -103z" />
    <glyph glyph-name="divide" unicode="&#xf7;" horiz-adv-x="1094" 
d="M547 1043q35 0 59.5 -24.5t24.5 -59.5q0 -36 -24.5 -60.5t-60.5 -24.5q-35 0 -60 24.5t-25 60.5q0 35 25 59.5t61 24.5zM1071 621h-1048v79h1048v-79zM547 441q36 0 61 -25t25 -60q0 -36 -25.5 -61.5t-60.5 -25.5q-36 0 -61 25.5t-25 61.5q0 35 25 60t61 25z" />
    <glyph glyph-name="lozenge" unicode="&#x25ca;" horiz-adv-x="986" 
d="M535 1381l406 -693l-406 -689h-108l-380 689l380 693h108zM483 1287l-332 -599l332 -599l349 599z" />
    <glyph glyph-name="ydieresis" unicode="&#xff;" horiz-adv-x="990" 
d="M12 889h415v-36h-20q-45 0 -66.5 -19t-21.5 -47q0 -38 33 -105l216 -449l199 491q17 41 17 79q0 18 -8 27q-7 11 -23.5 17t-57.5 6v36h289v-36q-36 -4 -55 -15.5t-43 -43.5q-9 -13 -33 -75l-362 -888q-53 -130 -138 -196t-165 -66q-56 0 -93 33t-37 76q0 41 27 65.5
t73 24.5q32 0 87 -20q39 -16 49 -16q29 0 63.5 30.5t69.5 117.5l64 153l-321 672q-14 30 -46 76q-24 33 -40 45q-23 16 -72 27v36zM713 1298q44 0 74.5 -31.5t30.5 -74.5t-30.5 -74t-74.5 -31q-43 0 -74.5 31t-31.5 74t31.5 74.5t74.5 31.5zM370 1298q45 0 75.5 -31.5
t30.5 -74.5t-31 -74t-74 -31t-74.5 31t-31.5 74t30.5 74.5t74.5 31.5z" />
    <glyph glyph-name="Ydieresis" unicode="&#x178;" horiz-adv-x="1432" 
d="M949 1317h460v-36h-26q-25 0 -73.5 -23t-88 -64t-98.5 -136l-318 -501v-330q0 -122 28 -152q37 -41 116 -41h43v-35h-560v35h47q84 0 118 51q22 31 22 142v312l-362 552q-64 98 -87 122t-95 58q-19 10 -56 10v36h564v-36h-29q-47 0 -85 -21.5t-38 -64.5q0 -35 60 -126
l274 -425l260 407q57 91 57 135q0 28 -13.5 49t-40 33.5t-79.5 12.5v36zM914 1647q45 0 75.5 -31t30.5 -75q0 -43 -30.5 -74t-75.5 -31q-43 0 -74 31t-31 74q0 44 31 75t74 31zM571 1647q46 0 76.5 -31t30.5 -75q0 -43 -31.5 -74t-74.5 -31t-74 31t-31 74q0 44 30.5 75
t73.5 31z" />
    <glyph glyph-name="fraction" unicode="&#x2044;" horiz-adv-x="314" 
d="M654 1343l-907 -1396h-88l908 1396h87z" />
    <glyph glyph-name="fraction" unicode="&#x2215;" horiz-adv-x="314" 
d="M654 1343l-907 -1396h-88l908 1396h87z" />
    <glyph glyph-name="Euro" unicode="&#x20ac;" horiz-adv-x="996" 
d="M823 715h-558q-4 -41 -4 -81h537l-22 -75h-512q7 -206 81 -342q87 -160 233 -160q131 0 219 67q52 40 133 151l30 -19q-84 -132 -151 -188q-113 -92 -269 -92q-223 0 -346 185q-101 152 -119 398h-98l23 75h72v16q0 29 1 65h-96l23 75h81q33 231 158 381q142 172 364 172
q167 0 332 -85v-290h-39q-25 312 -293 312q-153 0 -242 -162q-70 -127 -90 -328h574z" />
    <glyph glyph-name="guilsinglleft" unicode="&#x2039;" horiz-adv-x="670" 
d="M551 -9h-56l-376 458l376 458h56l-238 -458z" />
    <glyph glyph-name="guilsinglright" unicode="&#x203a;" horiz-adv-x="669" 
d="M115 907h56l383 -459l-383 -457h-56l236 457z" />
    <glyph glyph-name="fi" unicode="&#xf001;" horiz-adv-x="1110" 
d="M357 889h372q110 0 142 6h42v-690q0 -108 26 -139t117 -33v-34h-444v34q96 0 122 42q21 30 21 130v471q0 90 -11 109q-7 15 -29.5 23.5t-139.5 8.5h-218v-580q0 -106 12 -137q9 -23 36 -39q42 -28 74 -28h40v-34h-486v34h35q69 0 99 38t30 166v580h-172v72h172
q0 177 49 277.5t145.5 157.5t217.5 57q83 0 151.5 -28t101 -71t32.5 -81q0 -33 -21.5 -55.5t-51.5 -22.5q-34 0 -57.5 17t-78.5 95q-32 46 -68 68q-27 14 -68 14q-50 0 -99 -40t-67 -92q-26 -70 -26 -245v-51z" />
    <glyph glyph-name="fi" unicode="&#xfb01;" horiz-adv-x="1110" 
d="M357 889h372q110 0 142 6h42v-690q0 -108 26 -139t117 -33v-34h-444v34q96 0 122 42q21 30 21 130v471q0 90 -11 109q-7 15 -29.5 23.5t-139.5 8.5h-218v-580q0 -106 12 -137q9 -23 36 -39q42 -28 74 -28h40v-34h-486v34h35q69 0 99 38t30 166v580h-172v72h172
q0 177 49 277.5t145.5 157.5t217.5 57q83 0 151.5 -28t101 -71t32.5 -81q0 -33 -21.5 -55.5t-51.5 -22.5q-34 0 -57.5 17t-78.5 95q-32 46 -68 68q-27 14 -68 14q-50 0 -99 -40t-67 -92q-26 -70 -26 -245v-51z" />
    <glyph glyph-name="fl" unicode="&#xf002;" horiz-adv-x="1109" 
d="M756 815h-399v-577q0 -104 14 -136.5t48 -51t103 -17.5v-34h-489v34h39q55 0 89 31t34 168v583h-172v74h172q7 195 47.5 288t128.5 148.5t175 55.5q99 0 195 -72l136 72h39v-1176q0 -88 10 -114.5t38.5 -41.5t92.5 -16v-34h-442v34q64 1 98 20q19 10 31 36t12 116v610z
M756 889v290q-31 -36 -67 -36q-44 0 -100.5 82t-113.5 82q-33 0 -56 -20q-35 -29 -50 -83q-12 -41 -12 -228v-87h399z" />
    <glyph glyph-name="fl" unicode="&#xfb02;" horiz-adv-x="1109" 
d="M756 815h-399v-577q0 -104 14 -136.5t48 -51t103 -17.5v-34h-489v34h39q55 0 89 31t34 168v583h-172v74h172q7 195 47.5 288t128.5 148.5t175 55.5q99 0 195 -72l136 72h39v-1176q0 -88 10 -114.5t38.5 -41.5t92.5 -16v-34h-442v34q64 1 98 20q19 10 31 36t12 116v610z
M756 889v290q-31 -36 -67 -36q-44 0 -100.5 82t-113.5 82q-33 0 -56 -20q-35 -29 -50 -83q-12 -41 -12 -228v-87h399z" />
    <glyph glyph-name="daggerdbl" unicode="&#x2021;" horiz-adv-x="1003" 
d="M519 947q8 -64 25 -95t67 -70q-50 -71 -71 -140t-21 -173q0 -98 20.5 -164.5t71.5 -140.5q-47 -40 -65 -71.5t-27 -93.5q38 5 55 10t69 26q83 34 131 34q39 0 64.5 -24t25.5 -61q0 -38 -25.5 -63.5t-63.5 -25.5q-40 0 -124 36q-44 18 -72 26q-20 4 -60 6
q8 -59 12.5 -78.5t20.5 -53.5q49 -107 49 -160q0 -43 -28 -72.5t-70 -29.5q-41 0 -69.5 30t-28.5 76q0 21 6 47t39 112q24 63 30 129q-43 -2 -68 -8t-73 -27q-74 -33 -110 -33q-40 0 -64 23.5t-24 62.5t26 63.5t67 24.5q39 0 110 -30q48 -22 73 -26q21 -5 63 -8
q-9 59 -27 89.5t-66 69.5q45 59 64 116q30 89 30 201q0 115 -31 199q-18 53 -63 102q46 35 64 66.5t29 98.5q-40 -3 -56.5 -7.5t-84 -30.5t-115.5 -26q-36 0 -60.5 24t-24.5 61q0 36 24 60t60 24q46 0 128 -34q50 -20 74 -26q18 -5 55 -7q-1 40 -7 61q-11 38 -45 125
q-20 51 -21 58q-4 17 -4 44q0 49 27.5 78.5t69.5 29.5t68.5 -28.5t26.5 -83.5q0 -30 -5.5 -50t-35 -88t-35.5 -146q42 2 61 6t74 28q74 33 122 33q40 0 64 -24t24 -61q0 -39 -25.5 -63t-65.5 -24q-46 0 -123 33q-49 21 -69 26t-62 8z" />
    <glyph glyph-name="periodcentered" unicode="&#xb7;" horiz-adv-x="506" 
d="M253 765q46 0 77 -31t31 -77q0 -44 -32 -75.5t-76 -31.5t-76 31.5t-32 75.5q0 46 32 77t76 31z" />
    <glyph glyph-name="periodcentered" unicode="&#x2219;" horiz-adv-x="506" 
d="M253 765q46 0 77 -31t31 -77q0 -44 -32 -75.5t-76 -31.5t-76 31.5t-32 75.5q0 46 32 77t76 31z" />
    <glyph glyph-name="quotesinglbase" unicode="&#x201a;" horiz-adv-x="730" 
d="M193 -333v44q100 32 155 101.5t55 147.5q0 18 -8 31q-8 9 -15 9q-11 0 -47 -19q-16 -9 -36 -9q-48 0 -76 28t-28 77q0 48 36.5 82t88.5 34q65 0 114.5 -56t49.5 -148q0 -100 -69 -186t-220 -136z" />
    <glyph glyph-name="quotedblbase" unicode="&#x201e;" horiz-adv-x="887" 
d="M114 -309v41q98 57 128.5 102t30.5 103q0 28 -9 41q-11 15 -24 15q-10 0 -31 -9q-22 -7 -42 -7q-41 0 -70.5 28.5t-29.5 70.5q0 47 37 82t91 35q64 0 116 -55.5t52 -140.5q0 -102 -65 -186.5t-184 -119.5zM577 -309v41q85 45 122.5 94t37.5 105q0 35 -10 48
q-10 14 -22 14t-33 -9q-23 -7 -40 -7q-39 0 -68.5 30t-29.5 72q0 46 36 80t87 34q68 0 120 -56.5t52 -139.5q0 -97 -65 -181t-187 -125z" />
    <glyph glyph-name="perthousand" unicode="&#x2030;" horiz-adv-x="1994" 
d="M1188 1347l-945 -1401h-87l945 1401h87zM345 1347q75 0 141 -44t103.5 -127t37.5 -185q0 -165 -83 -258.5t-195 -93.5q-72 0 -139.5 42.5t-106 124t-38.5 186.5q0 101 38 186t104 127t138 42zM341 1295q-29 0 -48 -15q-32 -29 -50 -85q-22 -75 -22 -208q0 -180 46 -251
q32 -48 80 -48q44 0 77 51q48 75 48 261q0 174 -47 245q-35 50 -84 50zM1002 652q70 0 136 -43t104.5 -126.5t38.5 -180.5q0 -106 -38 -187.5t-106.5 -125t-137.5 -43.5q-110 0 -195 94.5t-85 257.5q0 102 39 186.5t107.5 126t136.5 41.5zM999 601q-32 0 -53 -18
q-34 -28 -52.5 -89t-18.5 -204q0 -175 44 -244q32 -47 78 -47q47 0 80 48q48 74 48 246q0 183 -50 258q-31 50 -76 50zM1645 652q66 0 137 -42t108 -122.5t37 -178.5q0 -118 -34.5 -197t-104 -122.5t-140.5 -43.5t-137.5 43t-104.5 122.5t-38 179.5q0 114 37.5 197.5
t108 123.5t131.5 40zM1645 601q-48 0 -78 -46q-43 -71 -43 -260q0 -179 45 -248q32 -48 80 -48q30 0 52 18q33 28 51.5 91.5t18.5 210.5q0 164 -45 232q-34 50 -81 50z" />
    <glyph glyph-name="Acircumflex" unicode="&#xc2;" horiz-adv-x="1436" 
d="M909 440h-510l-90 -208q-32 -77 -32 -115q0 -30 28 -53t124 -30v-35h-415v35q83 15 107 39q49 46 110 189l463 1085h34l460 -1097q55 -132 100 -171.5t125 -44.5v-35h-519v35q79 5 106.5 27t27.5 54q0 43 -40 135zM882 512l-224 533l-229 -533h453zM622 1642h179
l185 -276h-30l-265 178l-223 -178h-29z" />
    <glyph glyph-name="Ecircumflex" unicode="&#xca;" horiz-adv-x="1194" 
d="M418 1245v-521h289q113 0 151 34q50 44 56 157h36v-458h-36q-14 96 -27 123q-18 34 -57.5 53t-122.5 19h-289v-434q0 -88 7.5 -106.5t27 -30t73.5 -11.5h224q112 0 162 15.5t97 61.5q60 60 124 182h38l-114 -330h-1015v35h47q47 0 89 23q31 16 41.5 47t10.5 127v856
q0 126 -25 154q-35 40 -116 40h-47v36h1015l16 -289h-39q-20 104 -44.5 143t-73.5 60q-39 14 -137 14h-361zM524 1642h179l185 -254h-31l-265 164l-222 -164h-29z" />
    <glyph glyph-name="Aacute" unicode="&#xc1;" horiz-adv-x="1433" 
d="M911 422h-510l-90 -199q-32 -74 -32 -111q0 -29 28 -50.5t124 -28.5v-34h-415v34q83 14 107 36q49 46 110 182l463 1042h34l460 -1052q55 -128 100 -165.5t125 -42.5v-34h-519v34q79 4 106.5 25.5t27.5 52.5q0 41 -40 130zM884 491l-224 512l-229 -512h453zM930 1649
l-286 -273h-33l102 273h217z" />
    <glyph glyph-name="Edieresis" unicode="&#xcb;" horiz-adv-x="1184" 
d="M418 1245v-521h289q113 0 151 34q50 44 56 157h36v-458h-36q-14 96 -27 123q-18 34 -57.5 53t-122.5 19h-289v-434q0 -88 7.5 -106.5t27 -30t73.5 -11.5h224q112 0 162 15.5t97 61.5q60 60 124 182h38l-114 -330h-1015v35h47q47 0 89 23q31 16 41.5 47t10.5 127v856
q0 126 -25 154q-35 40 -116 40h-47v36h1015l16 -289h-39q-20 104 -44.5 143t-73.5 60q-39 14 -137 14h-361zM784 1647q44 0 74.5 -31t30.5 -75q0 -43 -30.5 -74t-74.5 -31t-75 31t-31 74q0 44 31 75t75 31zM442 1647q44 0 74.5 -31t30.5 -75q0 -43 -31 -74t-74 -31
q-44 0 -75 31t-31 74q0 44 30.5 75t75.5 31z" />
    <glyph glyph-name="Egrave" unicode="&#xc8;" horiz-adv-x="1186" 
d="M418 1245v-521h289q113 0 151 34q50 44 56 157h36v-458h-36q-14 96 -27 123q-18 34 -57.5 53t-122.5 19h-289v-434q0 -88 7.5 -106.5t27 -30t73.5 -11.5h224q112 0 162 15.5t97 61.5q60 60 124 182h38l-114 -330h-1015v35h47q47 0 89 23q31 16 41.5 47t10.5 127v856
q0 126 -25 154q-35 40 -116 40h-47v36h1015l16 -289h-39q-20 104 -44.5 143t-73.5 60q-39 14 -137 14h-361zM397 1646h217l104 -280h-35z" />
    <glyph glyph-name="Iacute" unicode="&#xcd;" horiz-adv-x="635" 
d="M616 33v-34h-565v34h47q81 0 119 46q22 30 22 142v816q0 96 -12 126q-9 24 -40 41q-42 22 -89 22h-47v35h565v-35h-48q-80 0 -117 -46q-24 -30 -24 -143v-816q0 -94 12 -126q9 -22 40 -39q42 -23 89 -23h48zM550 1645l-287 -281h-33l102 281h218z" />
    <glyph glyph-name="Icircumflex" unicode="&#xce;" horiz-adv-x="647" 
d="M615 33v-34h-565v34h47q81 0 119 46q22 30 22 144v818q0 96 -12 127q-9 23 -40 40q-42 23 -89 23h-47v34h565v-34h-48q-80 0 -117 -46q-24 -30 -24 -144v-818q0 -96 12 -128q9 -22 40 -39q42 -23 89 -23h48zM242 1647h179l185 -257h-30l-266 166l-222 -166h-30z" />
    <glyph glyph-name="Idieresis" unicode="&#xcf;" horiz-adv-x="647" 
d="M615 34v-35h-565v35h47q81 0 119 47q22 30 22 146v837q0 97 -12 129q-9 24 -40 41q-42 23 -89 23h-47v35h565v-35h-48q-80 0 -117 -47q-24 -30 -24 -146v-837q0 -98 12 -129q9 -24 40 -41q42 -23 89 -23h48zM502 1652q45 0 75.5 -30.5t30.5 -72.5q0 -44 -30.5 -74
t-75.5 -30q-43 0 -74 30t-31 74q0 42 31 72.5t74 30.5zM159 1652q46 0 76.5 -30.5t30.5 -72.5q0 -44 -31 -74t-75 -30q-43 0 -74 30t-31 74q0 42 30.5 72.5t73.5 30.5z" />
    <glyph glyph-name="Igrave" unicode="&#xcc;" horiz-adv-x="635" 
d="M615 33v-34h-565v34h47q81 0 119 46q22 30 22 144v817q0 96 -12 127q-9 24 -40 41q-42 21 -89 21h-47v35h565v-35h-48q-80 0 -117 -45q-24 -30 -24 -144v-817q0 -96 12 -128q9 -22 40 -39q42 -23 89 -23h48zM117 1649h216l103 -268h-33z" />
    <glyph glyph-name="Oacute" unicode="&#xd3;" horiz-adv-x="1437" 
d="M730 1303q256 0 444.5 -188.5t188.5 -471.5q0 -291 -189.5 -482.5t-459.5 -191.5q-271 0 -456.5 187t-185.5 484q0 304 214 496q186 167 444 167zM712 1234q-177 0 -285 -127q-133 -158 -133 -463q0 -312 139 -480q106 -129 280 -129q186 0 306.5 140.5t120.5 441.5
q0 328 -133 489q-107 128 -295 128zM930 1648l-287 -259h-32l102 259h217z" />
    <glyph glyph-name="Ocircumflex" unicode="&#xd4;" horiz-adv-x="1454" 
d="M730 1303q256 0 444.5 -188.5t188.5 -471.5q0 -291 -189.5 -482.5t-459.5 -191.5q-271 0 -456.5 187t-185.5 484q0 304 214 496q186 167 444 167zM712 1234q-177 0 -285 -127q-133 -158 -133 -463q0 -312 139 -480q106 -129 280 -129q186 0 306.5 140.5t120.5 441.5
q0 328 -133 489q-107 128 -295 128zM624 1647h179l185 -254h-32l-265 164l-222 -164h-29z" />
    <glyph glyph-name="Ograve" unicode="&#xd2;" horiz-adv-x="1415" 
d="M730 1289q256 0 444.5 -187t188.5 -465q0 -288 -189.5 -478t-459.5 -190q-271 0 -456.5 185t-185.5 479q0 301 214 491q186 165 444 165zM712 1221q-177 0 -285 -126q-133 -156 -133 -458q0 -309 139 -476q106 -127 280 -127q186 0 306.5 139.5t120.5 437.5
q0 324 -133 483q-107 127 -295 127zM498 1645h217l103 -258h-34z" />
    </font>
</defs>
</svg>
