<?xml version="1.0" standalone="no"?>
<!DOCTYPE svg PUBLIC "-//W3C//DTD SVG 1.1//EN" "http://www.w3.org/Graphics/SVG/1.1/DTD/svg11.dtd" >
<svg xmlns="http://www.w3.org/2000/svg" xmlns:xlink="http://www.w3.org/1999/xlink" version="1.1">
<metadata>
Created by FontForge 20170924 at Wed Feb 11 21:35:17 2004
 By www-data
Uyghur Computer Science Association. Free distributed and all rights reserved. http://www.ukij.org
</metadata>
<defs>
<font id="UKIJMerdane-Bold" horiz-adv-x="1983" >
  <font-face 
    font-family="UKIJ Merdane"
    font-weight="700"
    font-stretch="normal"
    units-per-em="2048"
    panose-1="2 7 8 9 2 2 5 2 4 4"
    ascent="1638"
    descent="-410"
    x-height="735"
    cap-height="1163"
    bbox="-431 -1115 2552 1718"
    underline-thickness="120"
    underline-position="-860"
    unicode-range="U+0020-FEFF"
  />
<missing-glyph horiz-adv-x="1620" 
d="M284 221v1313h1051v-1313h-1051zM318 254h984v1247h-984v-1247z" />
    <glyph glyph-name="afii64240" unicode="&#xfedf;&#xfee4;&#xfea0;" horiz-adv-x="1229" 
d="M1104 219l-42 -122q-56 4 -103 4q-207 0 -397 -66q-84 -30 -275 -123q-135 -66 -203 -66h-84v145h84q84 0 248 55q202 67 255 77l-514 91q6 25 15 47q20 49 50 68q240 195 560 288q-24 106 -78 304q-38 140 -38 168q0 48 60 119q48 -63 85 -124q-50 -53 -50 -96
q0 -48 80 -361q29 5 37 5q111 0 198 -130l-40 -133q-83 71 -130 95q-64 31 -151 31q-171 0 -427 -157q145 -46 279 -72q227 -45 581 -47zM978 -415l-131 -132l-133 132l133 131z" />
    <glyph glyph-name="afii64241" unicode="&#xfb58;&#xfbab;" horiz-adv-x="898" 
d="M846 109q0 -169 -110 -169q-54 0 -184.5 29.5t-169.5 50.5q-57 -49 -114 -97q-102 -77 -183 -77h-85v145h84q104 0 184 61q-36 43 -36 82q0 97 147 279q-8 15 -18 28q-12 23 -12 53q0 44 102 152q75 79 208 183q79 -29 79 -51q0 -24 -101 -110q-110 -95 -122 -115
q62 -47 195 -177q136 -159 136 -267zM850 -232l-75 -133l-132 82l-66 -111l-126 81l75 130l127 -79l66 119zM805 -471l-73 -136l-124 80l75 133zM806 59q-61 130 -225 256q-23 -126 -82 -204q177 -52 280 -52h27zM514 235q0 33 -25.5 71.5t-55.5 38.5q-38 0 -85.5 -47
t-47.5 -84q0 -26 44 -47l87 -33q83 43 83 101z" />
    <glyph glyph-name="afii63954" unicode="&#xfee7;&#xfbab;" horiz-adv-x="897" 
d="M722 1077l-85 -126l-114 96l84 124zM846 109q0 -169 -110 -169q-54 0 -184.5 29.5t-169.5 50.5q-57 -49 -114 -97q-102 -77 -183 -77h-85v145h84q104 0 184 61q-36 43 -36 82q0 97 147 279q-8 15 -18 28q-12 23 -12 53q0 44 102 152q75 79 208 183q79 -29 79 -51
q0 -24 -101 -110q-110 -95 -122 -115q62 -47 195 -177q136 -159 136 -267zM806 59q-61 130 -225 256q-23 -126 -82 -204q177 -52 280 -52h27zM514 235q0 33 -25.5 71.5t-55.5 38.5q-38 0 -85.5 -47t-47.5 -84q0 -26 44 -47l87 -33q83 43 83 101z" />
    <glyph glyph-name="afii64242" unicode="&#xfb7c;&#xfee4;" horiz-adv-x="1229" 
d="M1434 190h-44q-130 0 -330 56.5t-353 56.5q-87 0 -177 -22q81 -68 110.5 -119.5t29.5 -126.5q0 -144 -95 -144q-109 0 -325 110q-59 -155 -166 -155h-84v145h84q148 0 158 120q23 256 448 256q47 0 199 -12q-207 189 -384 189q-30 0 -89 -13q57 145 215 145q73 0 204 -91
q216 -152 247 -170q161 -92 308 -92h30zM625 28q0 17 -29 39q-105 78 -254 132q-17 6 -28 6q-18 0 -18 -23q0 -30 62 -57q37 -18 184 -94q48 -26 66 -26q17 0 17 23zM1155 -134l-130 -132l-132 133l132 131l120 -119l131 128l132 -131l-132 -133zM1282 -377l-132 -132
l-132 132l132 131z" />
    <glyph glyph-name="afii62881" unicode="&#x651;&#x64b;" horiz-adv-x="362" 
d="M373 1342q0 -72 -24 -119q-29 -51 -77 -51q-18 0 -32.5 6t-32.5 18q-20 -35 -37 -52q-31 -31 -65 -31q-39 0 -59.5 27.5t-20.5 75.5q0 25 6.5 49t19.5 54l20 10q0 -9 -2 -26t-2 -28q0 -22 9 -38.5t26 -16.5q41 0 66 54q12 25 29 97l20 6q7 -48 12 -58q12 -30 38 -30
q38 0 58 48q18 39 18 79l20 6q4 -18 7 -40.5t3 -39.5zM411 1716q0 -79 -42 -103l-364 -207q4 49 17.5 71.5t61.5 49.5zM411 1541q0 -80 -42 -104l-364 -206q4 49 17.5 71.5t61.5 49.5z" />
    <glyph glyph-name="afii57369" unicode="&#xe832;&#x650;" horiz-adv-x="516" 
d="M95 -795l9 52q57 40 92 84q-118 7 -118 108q0 70 47 137t108 67q96 0 96 -88q0 -28 -15 -57q-87 63 -126 63q-61 0 -61 -51q1 -43 63.5 -81.5t110.5 -38.5q45 0 106 26v-87zM121 -966h-3q-10 0 -10 29q0 30 16 37l297 126q11 0 14 -5t3 -22q0 -34 -17 -40z" />
    <glyph glyph-name="afii57370" unicode="&#xe832;&#x64d;" horiz-adv-x="521" 
d="M112 -726l9 51q57 40 92 84q-118 8 -118 108q0 69 47 136.5t108 67.5q96 0 96 -87q0 -29 -15 -58q-87 64 -126 64q-61 0 -61 -52q0 -43 63 -81.5t111 -38.5q45 0 106 27v-88zM129 -867q-14 0 -14 30t16 36l298 126q10 0 13 -4t3 -22q0 -34 -16 -41zM129 -999
q-14 0 -14 30t16 36l298 126q10 0 13 -3.5t3 -20.5q0 -32 -16 -39z" />
    <glyph glyph-name="afii57371" unicode="&#x674;&#x64e;" horiz-adv-x="558" 
d="M89 1490q-13 0 -13 30t16 36l297 126q11 0 14 -3.5t3 -20.5q0 -33 -17 -40zM147 991l9 51q56 40 92 84q-118 7 -118 108q0 70 47 137t108 67q96 0 96 -87q0 -29 -15 -58q-87 64 -126 64q-61 0 -61 -52q0 -42 63 -81t111 -39q42 0 106 26v-87z" />
    <glyph glyph-name="afii57372" unicode="&#x674;&#x64b;" horiz-adv-x="512" 
d="M54 1514q-14 0 -14 30t17 36l297 126q11 0 14 -3.5t3 -23.5q0 -33 -17 -40zM54 1394q-13 0 -13 30t16 36l297 126q11 0 14 -3.5t3 -20.5q0 -33 -17 -40zM112 943l10 51q55 40 91 84q-118 7 -118 108q0 70 47 137t108 67q96 0 96 -87q0 -29 -14 -58q-88 64 -126 64
q-62 0 -62 -52q0 -42 63 -81t111 -39q42 0 106 26v-87z" />
    <glyph glyph-name="afii57373" unicode="&#x674;&#x652;" horiz-adv-x="525" 
d="M347 1522q0 -79 -62.5 -129.5t-124.5 -50.5q-55 0 -84 44t-29 99q0 82 42.5 144t117.5 62q67 0 103.5 -50t36.5 -119zM91 1522q0 -60 104 -60q87 0 87 33q0 24 -43 64.5t-86 40.5q-62 0 -62 -78zM108 860l10 51q55 40 91 84q-118 8 -118 108q0 71 47 137.5t108 66.5
q96 0 96 -87q0 -28 -14 -58q-88 64 -126 64q-61 0 -61 -52q0 -42 63 -81t111 -39q42 0 105 27v-88z" />
    <glyph glyph-name="afii57374" unicode="&#x674;&#x64f;" horiz-adv-x="441" 
d="M96 903l9 52q57 39 92 84q-118 7 -118 108q0 69 47 136.5t108 67.5q96 0 96 -88q0 -29 -15 -58q-87 64 -126 64q-61 0 -61 -52q0 -43 63 -81.5t111 -38.5q43 0 106 27v-88zM371 1428q0 -15 -3 -32.5t-6 -35.5l-80 48q-48 -53 -64 -70q-72 -69 -120 -69h-70q50 24 119 78
q61 49 93 86q-30 18 -45 39q-19 25 -19 55q0 63 37 111t80 48q25 0 45 -26t20 -65q0 -19 -5.5 -38t-24.5 -72q16 -15 32 -27q11 -10 11 -30zM299 1538q0 25 -18.5 47t-35.5 22q-9 0 -14.5 -6.5t-5.5 -13.5q0 -21 24 -45l42 -32q8 19 8 28z" />
    <glyph glyph-name="afii57375" unicode="&#x674;&#x64c;" horiz-adv-x="574" 
d="M79 1216v15q8 4 37 25q29 45 29 115q0 44 -26 44q-11 0 -35 -21q-25 -23 -31 -23q-10 0 -10 10q1 24 42.5 63.5t75.5 39.5q51 0 51 -63q0 -54 -44 -144q90 41 152 131q-69 37 -69 111q1 61 55.5 130t96.5 69q30 0 48.5 -33.5t18.5 -77.5q0 -73 -44 -140q56 -28 56 -59
l-5 -56q-39 0 -121 37q-43 -66 -115 -123t-126 -57q-24 0 -36 7zM386 1486q23 39 23 77q0 71 -53 71q-43 0 -43 -57q0 -66 73 -91zM211 751l10 51q56 40 91 84q-118 7 -118 108q0 71 47 137.5t108 66.5q96 0 96 -87q0 -28 -14 -58q-88 64 -126 64q-62 0 -62 -52
q0 -42 63 -81t111 -39q42 0 106 26v-87z" />
    <glyph glyph-name="afii57460" unicode="&#x627;&#xe83b;" horiz-adv-x="304" 
d="M268 183v-12l-2 -41q0 -19 -4 -32l-4 -36v-13l-5 -16q-2 -28 -17 -75q-15 -65 -42 -123l-16 8l12 32l6 22l3 26l6 70l5 96q0 53 -20 178l-38 221l-20 143q0 38 26 87l17 29l22 35l8 -10l-3 -38v-30l15 -115l33 -213l12 -116zM118 1440q122 161 167 184t79 23q29 0 48 -34
t19 -78q0 -75 -29.5 -121.5t-88 -59.5t-258.5 -13q-38 0 -55 -38q-26 -62 -31 -62q-18 0 -18 56q0 54 25 89.5t48 45t94 8.5zM165 1439h133q91 0 91 45q0 67 -65 67q-25 0 -81 -39.5t-78 -72.5z" />
    <glyph glyph-name="afii52258" unicode="&#xfe8e;&#xe83b;" horiz-adv-x="418" arabic-form="final" 
d="M533 -157h-47q-43 0 -99 20q-63 24 -103 66q-17 23 -29 42q-9 19 -16 45q-11 46 -11 125v42v16v12v12v9q0 16 -0.5 33.5t-3.5 33.5q0 27 -3.5 52t-11.5 70l-29 133l-12 60q-4 26 -5 29l-6 18l52 103q2 -1 18 -55l8 -50l6 -46l24 -180q0 -114 17 -261q0 -36 32 -79
q25 -31 60 -56l28 -16l33 -13q33 -13 56 -13h42v-152zM113 1440q122 161 167 184t79 23q29 0 48 -34t19 -78q0 -75 -29.5 -121.5t-88 -59.5t-258.5 -13q-38 0 -55 -38q-26 -62 -31 -62q-18 0 -18 56q0 54 25 89.5t48 45t94 8.5zM160 1439h133q91 0 91 45q0 67 -65 67
q-25 0 -81 -39.5t-78 -72.5z" />
    <glyph glyph-name="afii63753" unicode="&#xfe91;&#xfee2;" horiz-adv-x="681" arabic-form="isolated" 
d="M725 436q0 -35 -9 -61q-12 -34 -35 -32q-7 0 -32 30.5t-59 30.5q-74 0 -174 -67q-95 -64 -168 -153q12 -7 86 -43q34 -17 73 -54q4 -10 4 -30q0 -34 -9 -68t-20 -42q-102 -16 -174 -35q-138 -37 -138 -103q0 -26 28 -131q36 -138 51 -216q29 -146 29 -258v-30t1 -31
q0 -32 -2.5 -48t-9.5 -16q-6 0 -18 18q-2 6 -7 38q-13 105 -18 128q-12 70 -31 155q-12 47 -23 93q-23 92 -44 183q-10 47 -10 108q0 74 38 141.5t87 88.5q-9 2 -14 4.5t-10 7.5q-7 7 -7 19t10.5 31t23.5 41q12 53 96 154q93 109 190 180q120 86 205 86q40 0 65 -35t25 -84z
M612 -388q-25 -79 -40 -93q-8 -6 -46 4q-83 22 -83 52q0 7 5 12q7 11 30 66q17 38 34 38q4 0 12 -2q31 -16 63 -31q28 -17 28 -35q0 -4 -3 -11z" />
    <glyph glyph-name="afii63754" unicode="&#xfe91;&#xfef0;" horiz-adv-x="1283" arabic-form="isolated" 
d="M1221 -171q0 -154 -184 -283q-273 -192 -550 -192q-168 0 -272 96.5t-104 252.5q0 160 132 420l28 -7q-96 -199 -96 -314q0 -121 97.5 -203t244.5 -82q216 0 476 130q164 82 164 126q0 34 -164 65l-199 36q12 66 24 75q5 4 65 23q82 27 82 153q0 141 -75 263l114 167
q66 -136 66 -347q0 -163 -81 -251q65 -15 129 -29q103 -35 103 -99zM1142 -702l-82 -131l-117 89l76 128z" />
    <glyph glyph-name="afii63759" unicode="&#xfe97;&#xfee2;" horiz-adv-x="556" arabic-form="isolated" 
d="M590 956q0 -16 -15 -54q-20 -52 -43 -54q-19 2 -51.5 31t-43.5 48q7 19 28 61t30 47q15 0 63 -41q29 -24 32 -38zM419 891q4 -13 -11.5 -57t-31.5 -44q-13 0 -56 27q-47 30 -50 44q-3 6 12 37q22 43 40 70q13 -7 43 -30q34 -25 54 -47zM725 436q0 -35 -9 -61
q-12 -34 -35 -32q-7 0 -32 30.5t-59 30.5q-74 0 -174 -67q-95 -64 -168 -153q12 -7 86 -43q34 -17 73 -54q4 -10 4 -30q0 -34 -9 -68t-20 -42q-102 -16 -174 -35q-138 -37 -138 -103q0 -26 28 -131q36 -138 51 -216q29 -146 29 -258v-30t1 -31q0 -32 -2.5 -48t-9.5 -16
q-6 0 -18 18q-2 6 -7 38q-13 105 -18 128q-12 70 -31 155q-12 47 -23 93q-23 92 -44 183q-10 47 -10 108q0 74 38 141.5t87 88.5q-9 2 -14 4.5t-10 7.5q-7 7 -7 19t10.5 31t23.5 41q12 53 96 154q93 109 190 180q120 86 205 86q40 0 65 -35t25 -84z" />
    <glyph glyph-name="afii63763" unicode="&#xfe9b;&#xfee2;" horiz-adv-x="901" arabic-form="isolated" 
d="M613 1210l-74 -133l-123 77l74 137zM770 997l-74 -131l-127 79l-66 -119l-131 89l74 133l132 -81l66 110zM841 9q-12 -60 -37 -87.5t-83 -41.5q-19 -4 -57.5 11.5t-86.5 44.5q-65 -107 -80 -125q-55 -67 -166 -126q-87 -27 -142 -51.5t-111 -51.5q-14 -5 -22 -5
q-14 0 -14 10q0 12 16 18q100 47 236 150q154 116 244 228q0 51 9 97q6 30 25 90q6 18 57 42t78 24q39 29 47 36q24 24 20 48q-7 68 -79 161q-34 40 -66 81q0 6 -3.5 33.5t-3.5 48.5q0 19 3.5 40t15.5 21q36 0 105.5 -113t69.5 -180q0 -21 0.5 -55.5t0.5 -48.5
q0 -40 -7 -66.5t-29 -46.5q34 -46 47 -71q18 -36 18 -73v-16q-4 -16 -5 -26zM766 8q-10 36 -21 54q-2 5 -32 37q-9 8 -24 12.5t-30 4.5q-11 0 -22 -1.5t-14 -1.5q0 -30 33 -66.5t74 -42.5q19 -2 26 -2q10 0 10 6z" />
    <glyph glyph-name="afii63795" unicode="&#xfed3;&#xfef0;" horiz-adv-x="1703" arabic-form="isolated" 
d="M227 1411q-29 -86 -44 -100q-12 -8 -75 13.5t-63 48.5q0 6 5.5 14.5t30.5 66.5q17 39 36 39q7 0 14 -3q34 -17 67 -33q30 -16 30 -37q0 -6 -1 -9zM1642 93q29 0 29 -35q0 -33 -24 -71t-55 -46q-98 0 -187 -4t-201 -14q-17 0 -229 -19q-35 0 -184 -14.5t-303 -29
t-221 -14.5q-89 0 -155 18q-96 28 -88 83q10 62 34 112q8 15 101 141q60 47 155 90q100 45 120 61q48 36 48 96q0 26 -28 91q-31 71 -68 121q-15 -67 -26 -86q-27 -50 -90 -50q-48 0 -77 45.5t-29 102.5q0 75 45 155q42 76 70 76q24 0 79 -48q68 -59 112 -138
q56 -103 56 -220q0 -165 -86 -259q-50 -54 -177 -112q-113 -51 -139 -96q28 -16 82 -21.5t132 -5.5q234 0 512 23q55 4 450 44q240 24 342 24zM316 711q-7 7 -14 16q-11 9 -20 9q-4 0 -14 -3q-22 -10 -22 -29q0 -5 5.5 -10t12 -9t14.5 -4t17.5 7t20.5 23z" />
    <glyph glyph-name="afii62891" unicode="&#xfed3;&#xfef2;" horiz-adv-x="1703" arabic-form="isolated" 
d="M227 1411q-29 -86 -44 -100q-12 -8 -75 13.5t-63 48.5q0 6 5.5 14.5t30.5 66.5q17 39 36 39q7 0 14 -3q34 -17 67 -33q30 -16 30 -37q0 -6 -1 -9zM1642 93q29 0 29 -35q0 -33 -24 -71t-55 -46q-98 0 -187 -4t-201 -14q-17 0 -229 -19q-35 0 -184 -14.5t-303 -29
t-221 -14.5q-89 0 -155 18q-96 28 -88 83q10 62 34 112q8 15 101 141q60 47 155 90q100 45 120 61q48 36 48 96q0 26 -28 91q-31 71 -68 121q-15 -67 -26 -86q-27 -50 -90 -50q-48 0 -77 45.5t-29 102.5q0 75 45 155q42 76 70 76q24 0 79 -48q68 -59 112 -138
q56 -103 56 -220q0 -165 -86 -259q-50 -54 -177 -112q-113 -51 -139 -96q28 -16 82 -21.5t132 -5.5q234 0 512 23q55 4 450 44q240 24 342 24zM999 -306q0 -16 -16 -57q-20 -54 -45 -58q-23 3 -59 34q-31 29 -43 52q7 25 29 67.5t33 46.5q10 0 53 -32t48 -53zM797 -347
q3 -16 -13.5 -63t-31.5 -47q-17 2 -62 30q-49 30 -51 45q-4 9 22 59t32 56q18 -8 47 -30q34 -25 57 -50zM316 711q-7 7 -14 16q-11 9 -20 9q-4 0 -14 -3q-22 -10 -22 -29q0 -5 5.5 -10t12 -9t14.5 -4t17.5 7t20.5 23z" />
    <glyph glyph-name="afii63808" unicode="&#xfedf;&#xfe9e;" horiz-adv-x="1258" arabic-form="isolated" 
d="M1221 -889l-420 -141q-42 -5 -100 -5q-312 0 -488 137.5t-176 360.5q0 437 457 700q-105 34 -199 34q-73 0 -180 -22l23 118q109 74 260 74q77 0 103.5 24t26.5 97q0 113 -36.5 318.5t-36.5 218.5q0 48 61 153l96 -148q-59 -74 -59 -132q0 -13 18.5 -150.5t18.5 -268.5
q0 -73 -39 -154q201 -29 319 -29q26 0 75 2q60 4 107 5l-56 -118q-292 -40 -424 -88q-219 -80 -340.5 -218t-121.5 -312q0 -197 191.5 -323t528.5 -126q172 0 387 23zM770 -333l-81 -128l-120 89l80 126z" />
    <glyph glyph-name="afii62938" unicode="&#xfedf;&#xfea2;" horiz-adv-x="1258" arabic-form="isolated" 
d="M1221 -889l-420 -141q-42 -5 -100 -5q-312 0 -488 137.5t-176 360.5q0 437 457 700q-105 34 -199 34q-73 0 -180 -22l23 118q109 74 260 74q77 0 103.5 24t26.5 97q0 113 -36.5 318.5t-36.5 218.5q0 48 61 153l96 -148q-59 -74 -59 -132q0 -13 18.5 -150.5t18.5 -268.5
q0 -73 -39 -154q201 -29 319 -29q26 0 75 2q60 4 107 5l-56 -118q-292 -40 -424 -88q-219 -80 -340.5 -218t-121.5 -312q0 -221 191.5 -335t528.5 -114q172 0 387 23z" />
    <glyph glyph-name="afii63810" unicode="&#xfedf;&#xfea6;" horiz-adv-x="1258" arabic-form="isolated" 
d="M1221 -889l-420 -141q-42 -5 -100 -5q-312 0 -488 137.5t-176 360.5q0 437 457 700q-105 34 -199 34q-73 0 -180 -22l23 118q109 74 260 74q77 0 103.5 24t26.5 97q0 113 -36.5 318.5t-36.5 218.5q0 48 61 153l96 -148q-59 -74 -59 -132q0 -13 18.5 -150.5t18.5 -268.5
q0 -73 -39 -154q201 -29 319 -29q26 0 75 2q60 4 107 5l-56 -118q-292 -40 -424 -88q-219 -80 -340.5 -218t-121.5 -312q0 -221 191.5 -335t528.5 -114q172 0 387 23zM372 691l-82 -129l-120 89l81 126z" />
    <glyph glyph-name="afii62942" unicode="&#xfedf;&#xfee2;" horiz-adv-x="437" arabic-form="isolated" 
d="M435 11q2 -15 2 -27q0 -27 -11 -56q-6 -19 -18 -40q-9 -13 -13 -13q-3 0 -11 6.5t-12 10.5q-38 30 -67 44q-41 18 -87 18q-71 0 -117 -32q-55 -39 -55 -113l71 -478q0 -64 -4 -126q-7 -121 -24 -121q-7 0 -14 17q1 24 3.5 42t2.5 42q0 84 -21 215q-1 9 -39 228
q-23 127 -23 169q0 113 46 191q32 56 86 91q26 14 54 27q-28 55 -48 183q-13 79 -26.5 205.5t-17.5 138.5q-12 8 -24 36q-16 34 -16 68q0 10 11.5 49t24.5 64q5 6 8 6q6 0 20.5 -46.5t33.5 -56.5q23 -14 24 -16q14 -9 14 -16q0 -5 -2 -11t-6 -15q-4 -10 -9 -21
q-7 -22 -13 -49q0 -41 17 -176.5t34 -177.5q22 -53 48 -95q19 -31 42 -59q11 -6 76 -41q27 -14 45 -36q8 -9 9 -11t6 -18z" />
    <glyph glyph-name="afii62947" unicode="&#xfedf;&#xfef0;" horiz-adv-x="940" arabic-form="isolated" 
d="M918 3q9 -16 13.5 -32t4.5 -32q0 -23 -7.5 -51.5t-14.5 -55.5q-41 -75 -156 -159q-107 -76 -233.5 -130t-204.5 -54q-150 0 -235 110q-77 98 -77 245q0 110 34 215q26 84 64 140q9 10 12 10q4 0 4 -12q0 -10 -2 -27q-18 -48 -36 -95q-15 -64 -15 -148q0 -140 85 -216
q77 -69 191 -69q53 0 171 44t218 101q113 64 140 112q-15 22 -127.5 32.5t-144.5 28.5q-19 19 -19 48q0 17 8 30q10 9 79 30t108 56q-6 48 -33.5 168t-53.5 237q-33 144 -42 204q-11 30 -22.5 40.5t-14 17t-2.5 17.5q0 31 10 67t25 71q9 6 10 6q6 -12 25 -41.5t59 -66.5
q3 -9 3 -24q0 -20 -8 -45q-11 -27 -20 -51q0 -17 28 -114q36 -121 54 -210q32 -146 32 -257q0 -13 -10 -36q-24 -60 -25 -63q43 0 68 -11q33 -18 57 -30z" />
    <glyph glyph-name="afii63813" unicode="&#xfedf;&#xfef2;" horiz-adv-x="940" arabic-form="isolated" 
d="M918 3q9 -16 13.5 -32t4.5 -32q0 -23 -7.5 -51.5t-14.5 -55.5q-41 -75 -156 -159q-107 -76 -233.5 -130t-204.5 -54q-150 0 -235 110q-77 98 -77 245q0 110 34 215q26 84 64 140q9 10 12 10q4 0 4 -12q0 -10 -2 -27q-18 -48 -36 -95q-15 -64 -15 -148q0 -140 85 -216
q77 -69 191 -69q53 0 171 44t218 101q113 64 140 112q-15 22 -127.5 32.5t-144.5 28.5q-19 19 -19 48q0 17 8 30q10 9 79 30t108 56q-6 48 -33.5 168t-53.5 237q-33 144 -42 204q-11 30 -22.5 40.5t-14 17t-2.5 17.5q0 31 10 67t25 71q9 6 10 6q6 -12 25 -41.5t59 -66.5
q3 -9 3 -24q0 -20 -8 -45q-11 -27 -20 -51q0 -17 28 -114q36 -121 54 -210q32 -146 32 -257q0 -13 -10 -36q-24 -60 -25 -63q43 0 68 -11q33 -18 57 -30zM832 -586q0 -17 -14 -57q-19 -56 -43 -58q-23 2 -58 33t-47 52q9 27 29 65q24 44 36 48q10 0 52 -29q45 -33 45 -54z
M654 -654q3 -15 -14.5 -62t-32.5 -47t-62 28.5t-50 44.5q-6 11 21 61t33 56q17 -8 47 -31q36 -26 58 -50z" />
    <glyph glyph-name="afii63823" unicode="&#xfee7;&#xfee2;" horiz-adv-x="566" arabic-form="isolated" 
d="M495 981q-24 -80 -41 -95q-10 -8 -69 12.5t-59 45.5q0 6 4 12q11 14 24 48q22 55 41 55q5 0 12 -2q31 -16 63 -32q27 -16 27 -34q0 -4 -2 -10zM725 436q0 -35 -9 -61q-12 -34 -35 -32q-7 0 -32 30.5t-59 30.5q-74 0 -174 -67q-95 -64 -168 -153q12 -7 86 -43
q34 -17 73 -54q4 -10 4 -30q0 -34 -9 -68t-20 -42q-102 -16 -174 -35q-138 -37 -138 -103q0 -26 28 -131q36 -138 51 -216q29 -146 29 -258v-30t1 -31q0 -32 -2.5 -48t-9.5 -16q-6 0 -18 18q-2 6 -7 38q-13 105 -18 128q-12 70 -31 155q-12 47 -23 93q-23 92 -44 183
q-10 47 -10 108q0 74 38 141.5t87 88.5q-9 2 -14 4.5t-10 7.5q-7 7 -7 19t10.5 31t23.5 41q12 53 96 154q93 109 190 180q120 86 205 86q40 0 65 -35t25 -84z" />
    <glyph glyph-name="afii63824" unicode="&#xfee7;&#xfef0;" horiz-adv-x="1283" arabic-form="isolated" 
d="M1221 -171q0 -154 -184 -283q-273 -192 -550 -192q-168 0 -272 96.5t-104 252.5q0 160 132 420l28 -7q-96 -199 -96 -314q0 -121 97.5 -203t244.5 -82q216 0 476 130q164 82 164 126q0 34 -164 65l-199 36q12 66 24 75q5 4 65 23q82 27 82 153q0 141 -75 263l114 167
q66 -136 66 -347q0 -163 -81 -251q65 -15 129 -29q103 -35 103 -99zM776 560l-78 -129l-119 82l74 125z" />
    <glyph glyph-name="afii63833" unicode="&#xfbfe;&#xfee2;" horiz-adv-x="732" arabic-form="isolated" 
d="M823 -241q0 -16 -16 -58q-22 -53 -46 -58q-22 4 -57 35q-31 28 -43 51q9 27 28 66q23 45 33 49q15 0 68 -43q30 -27 33 -42zM641 -309q5 -14 -12.5 -61.5t-32.5 -47.5q-16 1 -61 30q-50 30 -53 46q-3 6 13 37.5t42 77.5q17 -7 48.5 -31t55.5 -51zM694 9
q-12 -60 -37 -87.5t-83 -41.5q-19 -4 -57.5 11.5t-86.5 44.5q-65 -107 -80 -125q-55 -67 -166 -126q-87 -27 -141.5 -51.5t-109.5 -51.5q-15 -5 -22 -5q-16 0 -16 10q0 12 17 18q99 47 235 150q154 116 244 228q0 51 9 97q6 30 25 90q6 18 57 42t78 24q39 29 47 36
q24 24 20 48q-7 68 -79 161q-34 40 -66 81q0 6 -3.5 33.5t-3.5 48.5q0 19 3.5 40t15.5 21q36 0 105.5 -113t69.5 -180q0 -21 0.5 -55.5t0.5 -48.5q0 -40 -7 -66.5t-29 -46.5q34 -46 47 -71q18 -36 18 -73v-16q-4 -16 -5 -26zM619 8q-10 36 -21 54q-2 5 -32 37q-9 8 -24 12.5
t-30 4.5q-11 0 -22 -1.5t-14 -1.5q0 -30 33 -66.5t74 -42.5q19 -2 26 -2q10 0 10 6z" />
    <glyph glyph-name="afii63844" unicode="&#xfbfe;&#xfef0;" horiz-adv-x="1291" arabic-form="isolated" 
d="M1221 -171q0 -154 -184 -283q-273 -192 -550 -192q-168 0 -272 96.5t-104 252.5q0 160 132 420l28 -7q-96 -199 -96 -314q0 -121 97.5 -203t244.5 -82q216 0 476 130q164 82 164 126q0 34 -164 65l-199 36q12 66 24 75q5 4 65 23q82 27 82 153q0 141 -75 263l114 167
q66 -136 66 -347q0 -163 -81 -251q65 -15 129 -29q103 -35 103 -99zM1268 -675l-78 -130l-133 86l-66 -121l-129 93l77 131l125 -81l72 110z" />
    <glyph glyph-name="afii62882" unicode="&#x651;&#x64c;" horiz-adv-x="543" arabic-form="isolated" 
d="M63 1195v14q9 5 37 25q29 45 29 115q0 45 -26 45q-11 0 -36 -23q-25 -22 -30 -22q-11 0 -11 9q0 24 42.5 64t76.5 40q50 0 50 -62q0 -55 -43 -144q89 41 152 131q-69 36 -69 110q0 60 55 129.5t97 69.5q29 0 48 -33.5t19 -76.5q0 -75 -44 -141q56 -28 56 -58l-4 -57
q-41 0 -122 37q-43 -66 -115.5 -123t-126.5 -57q-23 0 -35 8zM370 1465q22 38 22 76q0 71 -52 71q-43 0 -43 -56q0 -66 73 -91zM301 1003q-52 -104 -111 -104q-79 0 -79 113q0 99 35 99q16 0 16 -17q0 -6 -3 -21q-2 -15 -2 -24q0 -32 33 -32q52 0 72 79q21 78 27 78
q13 0 19 -42q5 -44 47 -44q38 0 47 75q8 78 21 78q37 0 37 -130q2 -62 -30 -105t-75 -43q-36 0 -54 40z" />
    <glyph glyph-name="afii62883" unicode="&#x651;&#x64d;" horiz-adv-x="488" arabic-form="isolated" 
d="M237 1465q-51 -101 -111 -101q-79 0 -79 101q0 31 10 64.5t22 33.5q14 0 14 -18q0 -6 -3 -22q-2 -16 -2 -24q0 -32 33 -32q52 0 74 79q20 81 28 81q11 0 18 -44q8 -43 50 -43q38 0 46 76q9 77 22 77q32 0 32 -128q0 -55 -34.5 -96.5t-68.5 -41.5q-36 0 -51 38zM79 1160
q-15 -6 -15 30q0 29 18 36l297 126q11 0 14 -4.5t3 -20.5q0 -33 -17 -40zM79 968q-2 -1 -3 -1q-11 0 -11 30t17 37l297 128q11 0 14 -4.5t3 -21.5q0 -33 -17 -40z" />
    <glyph glyph-name="afii62884" unicode="&#x651;&#x64e;" horiz-adv-x="461" arabic-form="isolated" 
d="M73 1507q-15 -6 -15 30q0 30 15 36l298 127q11 0 14 -5t3 -22q0 -32 -17 -39zM243 1324q-47 -103 -108 -103q-82 0 -82 110q0 101 35 101q15 0 15 -19q0 -6 -1 -20q-2 -16 -2 -24q0 -33 32 -33q52 0 73 81q22 79 23 79q18 0 23 -43q5 -45 44 -45q41 0 50 78q9 77 21 77
q36 0 36 -131q0 -61 -31 -105t-72 -45q-32 0 -56 42z" />
    <glyph glyph-name="afii62885" unicode="&#x651;&#x64f;" horiz-adv-x="470" arabic-form="isolated" 
d="M21 1198v16q172 78 236 171q-70 45 -70 108q1 54 52.5 128t97.5 74q27 0 47.5 -35t20.5 -78q0 -59 -42 -138q59 -27 59 -61v-59q-31 0 -125 45q-140 -180 -239 -180q-19 0 -37 9zM326 1462q20 37 20 76q0 73 -49 73q-47 0 -47 -61q0 -72 76 -88zM251 1000
q-51 -103 -110 -103q-79 0 -79 113q0 101 35 101q15 0 15 -20q0 -6 -2 -20q-3 -16 -3 -24q0 -32 34 -32q52 0 72 79q22 80 24 80q17 0 22 -44q4 -45 46 -45q39 0 47 76q9 77 22 77q37 0 37 -130q1 -61 -30.5 -104t-75.5 -43q-36 0 -54 39z" />
    <glyph glyph-name="afii62886" unicode="&#x651;&#x650;" horiz-adv-x="461" arabic-form="isolated" 
d="M230 1468q-51 -101 -111 -101q-79 0 -79 101q0 31 10 65t22 34q14 0 14 -18q0 -6 -3 -22q-2 -17 -2 -24q0 -32 33 -32q52 0 74 79q20 80 28 80q12 0 18 -43q8 -43 50 -43q38 0 46 75q9 77 22 77q32 0 32 -127q0 -55 -34.5 -96.5t-68.5 -41.5q-35 0 -51 37zM72 1163
q-2 -1 -3 -1q-12 0 -12 31q0 29 18 36l297 126q11 0 14 -4t3 -21q0 -32 -17 -39z" />
    <glyph glyph-name="afii63846" unicode="&#xfe92;&#xfeae;" horiz-adv-x="861" arabic-form="final" 
d="M860 -157q-20 0 -41.5 0.5t-44.5 6.5q-66 15 -108 77q-31 48 -54 128q-15 66 -30 133q-26 -102 -84 -127q-31 -9 -38 -12v-12q0 -22 -6 -56t-13 -65t-37 -88q-38 -72 -82 -131q-58 -73 -119 -112q-18 -11 -31.5 -16.5t-39.5 -5.5h-14q-11 2 -17 2q-45 4 -104.5 13.5
t-101 18.5t-41.5 21q0 7 23 9.5t62.5 3t55.5 5.5q61 17 94.5 30t60.5 30q88 54 158 130q54 60 88 121q28 49 28 67q-6 17 -20 29q-17 15 -50 24q-10 0 -10 16q0 10 6.5 49t6.5 63q3 16 8.5 22.5t12.5 6.5q6 0 21 -12q8 -6 12 -7q15 -6 32 -6q34 0 61.5 19.5t37.5 48.5
q8 41 16 80q10 26 16.5 34t13.5 8q5 0 8 -5t4 -13q15 -68 29 -136q27 -111 69 -168q60 -82 162 -82v-142zM772 -459q-16 -51 -22 -66q-9 -19 -21 -28q-10 -9 -68 11.5t-58 44.5q0 8 4.5 15t28.5 63q16 37 35 37q5 0 12 -2q31 -15 63 -30q27 -16 27 -34q0 -3 -1 -11z" />
    <glyph glyph-name="afii63849" unicode="&#xfe92;&#xfee6;" horiz-adv-x="1498" arabic-form="final" 
d="M1568 -154h-168q-91 0 -138 72q-61 93 -98 355q-89 -148 -202 -155q10 -72 10 -124q0 -221 -161.5 -368.5t-401.5 -147.5q-165 0 -256 76t-91 217q0 128 106 360l22 -13q-66 -163 -66 -253q0 -102 91 -171t226 -69q208 0 347 97.5t139 241.5q0 111 -80 203l42 119
q67 -30 113 -30q96 0 181 136l23 -3q30 -234 70 -316t124 -82h168v-145zM637 561l-82 -128l-120 88l81 126zM1381 -402l-77 -126l-122 81l74 136z" />
    <glyph glyph-name="afii63850" unicode="&#xfe92;&#xfef0;" horiz-adv-x="1349" arabic-form="final" 
d="M1400 -154h-180q-83 0 -171 84.5t-131 84.5q-77 0 -143 -66q-61 -61 -61 -120q0 -78 141 -97l239 -32q131 -18 131 -79q0 -156 -251 -282t-560 -126q-189 0 -297.5 90.5t-108.5 249.5q0 208 145 408l16 -8q-96 -185 -96 -292q0 -127 111 -214t272 -87q187 0 434 70
q252 71 252 128q0 24 -60 30l-302 31q-160 17 -160 110q0 100 134 259.5t218 159.5q38 0 125 -78.5t123 -78.5h180v-145zM1514 -377l-77 -126l-122 82l74 135z" />
    <glyph glyph-name="afii63851" unicode="&#xfe92;&#xfef2;" horiz-adv-x="1063" arabic-form="final" 
d="M1038 -705q-16 -55 -24 -71.5t-21 -27.5q-11 -10 -73 11.5t-62 48.5q0 7 6 14t30 67q16 41 36 41q7 0 14 -3q34 -16 66 -32q30 -16 30 -37q0 -3 -2 -11zM1063 -156q-84 0 -145 32q-39 21 -88 68t-79 59q-23 8 -114 -66q-96 -80 -96 -135q0 -12 6 -23q13 -23 67.5 -39
t132.5 -16q52 0 95 -4.5t55 -14.5q18 -12 30 -39q10 -21 10 -37q0 -48 -12 -80t-46 -66q-127 -134 -302 -212q-151 -66 -269 -66q-150 0 -230 100q-76 94 -76 256q0 80 46 199q43 111 75 141q12 10 22 10q8 0 8 -8t-3 -15q-42 -87 -58 -128q-24 -69 -24 -131q0 -36 8 -71
q20 -77 70 -123q71 -65 198 -65q113 0 269 62q168 67 260 161q-12 7 -26.5 10t-56.5 3q-145 0 -210 17q-99 28 -99 108q0 119 87 257q102 155 228 155q74 -57 132 -99q64 -48 135 -48v-152zM694 -937q0 -17 -15 -58q-21 -55 -46 -58q-23 3 -57 34q-32 28 -45 52q10 26 30 64
q23 46 33 51q9 0 52.5 -32t47.5 -53zM513 -1006q4 -14 -13.5 -61.5t-31.5 -47.5q-16 0 -64 30t-50 46q-3 6 12.5 38t42.5 78q19 -10 48.5 -32.5t55.5 -50.5z" />
    <glyph glyph-name="afii63852" unicode="&#xfe98;&#xfeae;" horiz-adv-x="861" arabic-form="final" 
d="M650 787q0 -17 -15 -56q-19 -50 -42 -52q-20 0 -53 28.5t-43 50.5q7 24 27 63.5t32 44.5q8 0 47 -29q43 -32 47 -50zM479 722q5 -15 -11 -60t-32 -45q-16 3 -56 28q-47 29 -51 46q-3 6 23 55q20 39 30 53q13 -8 43 -30q36 -28 54 -47zM860 -157q-20 0 -41.5 0.5
t-44.5 6.5q-66 15 -108 77q-31 48 -54 128q-15 66 -30 133q-26 -102 -84 -127q-31 -9 -38 -12v-12q0 -22 -6 -56t-13 -65t-37 -88q-38 -72 -82 -131q-58 -73 -119 -112q-18 -11 -31.5 -16.5t-39.5 -5.5h-14q-11 2 -17 2q-45 4 -104.5 13.5t-101 18.5t-41.5 21q0 7 23 9.5
t62.5 3t55.5 5.5q61 17 94.5 30t60.5 30q88 54 158 130q54 60 88 121q28 49 28 67q-6 17 -20 29q-17 15 -50 24q-10 0 -10 16q0 10 6.5 49t6.5 63q3 16 8.5 22.5t12.5 6.5q6 0 21 -12q8 -6 12 -7q15 -6 32 -6q34 0 61.5 19.5t37.5 48.5q8 41 16 80q10 26 16.5 34t13.5 8
q5 0 8 -5t4 -13q15 -68 29 -136q27 -111 69 -168q60 -82 162 -82v-142z" />
    <glyph glyph-name="afii63855" unicode="&#xfe98;&#xfee6;" horiz-adv-x="1498" arabic-form="final" 
d="M1568 -154h-168q-91 0 -138 72q-61 93 -98 355q-89 -148 -202 -155q10 -72 10 -124q0 -221 -161.5 -368.5t-401.5 -147.5q-165 0 -256 76t-91 217q0 128 106 360l22 -13q-66 -163 -66 -253q0 -102 91 -171t226 -69q208 0 347 97.5t139 241.5q0 111 -80 203l42 119
q67 -30 113 -30q96 0 181 136l23 -3q30 -234 70 -316t124 -82h168v-145zM637 561l-82 -128l-120 88l81 126zM1375 766l-73 -137l-131 78l-69 -110l-130 74l79 142l132 -83l67 111z" />
    <glyph glyph-name="afii63856" unicode="&#xfe98;&#xfef0;" horiz-adv-x="1330" arabic-form="final" 
d="M1400 -154h-180q-83 0 -171 84.5t-131 84.5q-77 0 -143 -66q-61 -61 -61 -120q0 -78 141 -97l239 -32q131 -18 131 -79q0 -156 -251 -282t-560 -126q-189 0 -297.5 90.5t-108.5 249.5q0 208 145 408l16 -8q-96 -185 -96 -292q0 -127 111 -214t272 -87q187 0 434 70
q252 71 252 128q0 24 -60 30l-302 31q-160 17 -160 110q0 100 134 259.5t218 159.5q38 0 125 -78.5t123 -78.5h180v-145zM1134 542l-76 -125l-126 90l-73 -110l-123 93l81 125l126 -95l73 111z" />
    <glyph glyph-name="afii63761" unicode="&#xfe98;&#xfef2;" horiz-adv-x="1063" arabic-form="final" 
d="M793 495q0 -16 -16 -58q-21 -54 -45 -57q-23 2 -59 33q-31 28 -43 51q9 29 28 67q23 46 34 49q16 0 67 -44q30 -25 34 -41zM610 427q5 -15 -12.5 -62.5t-32.5 -47.5q-16 3 -60 30q-51 30 -53 46q-4 6 12.5 38.5t41.5 76.5q18 -6 49 -30.5t55 -50.5zM1063 -156
q-84 0 -145 32q-39 21 -88 68t-79 59q-23 8 -114 -66q-96 -80 -96 -135q0 -12 6 -23q13 -23 67.5 -39t132.5 -16q52 0 95 -4.5t55 -14.5q18 -12 30 -39q10 -21 10 -37q0 -48 -12 -80t-46 -66q-127 -134 -302 -212q-151 -66 -269 -66q-150 0 -230 100q-76 94 -76 256
q0 80 46 199q43 111 75 141q12 10 22 10q8 0 8 -8t-3 -15q-42 -87 -58 -128q-24 -69 -24 -131q0 -36 8 -71q20 -77 70 -123q71 -65 198 -65q113 0 269 62q168 67 260 161q-12 7 -26.5 10t-56.5 3q-145 0 -210 17q-99 28 -99 108q0 119 87 257q102 155 228 155
q74 -57 132 -99q64 -48 135 -48v-152zM694 -937q0 -17 -15 -58q-21 -55 -46 -58q-23 3 -57 34q-32 28 -45 52q10 26 30 64q23 46 33 51q9 0 52.5 -32t47.5 -53zM513 -1006q4 -14 -13.5 -61.5t-31.5 -47.5q-16 0 -64 30t-50 46q-3 6 12.5 38t42.5 78q19 -10 48.5 -32.5
t55.5 -50.5z" />
    <glyph glyph-name="afii63882" unicode="&#xfee8;&#xfef0;" horiz-adv-x="1330" arabic-form="final" 
d="M1400 -154h-180q-83 0 -171 84.5t-131 84.5q-77 0 -143 -66q-61 -61 -61 -120q0 -78 141 -97l239 -32q131 -18 131 -79q0 -156 -251 -282t-560 -126q-189 0 -297.5 90.5t-108.5 249.5q0 208 145 408l16 -8q-96 -185 -96 -292q0 -127 111 -214t272 -87q187 0 434 70
q252 71 252 128q0 24 -60 30l-302 31q-160 17 -160 110q0 100 134 259.5t218 159.5q38 0 125 -78.5t123 -78.5h180v-145zM654 422l-77 -126l-123 81l75 136z" />
    <glyph glyph-name="afii63825" unicode="&#xfee8;&#xfef2;" horiz-adv-x="1063" arabic-form="final" 
d="M781 431l-19 -57q-11 -33 -24 -43q-9 -6 -48 4q-89 24 -89 57q0 5 3 12q11 14 24 50q24 59 45 59q6 0 13 -2q34 -16 67 -32q29 -16 29 -38q0 -2 -1 -10zM1063 -156q-84 0 -145 32q-39 21 -88 68t-79 59q-23 8 -114 -66q-96 -80 -96 -135q0 -12 6 -23q13 -23 67.5 -39
t132.5 -16q52 0 95 -4.5t55 -14.5q18 -12 30 -39q10 -21 10 -37q0 -48 -12 -80t-46 -66q-127 -134 -302 -212q-151 -66 -269 -66q-150 0 -230 100q-76 94 -76 256q0 80 46 199q43 111 75 141q12 10 22 10q8 0 8 -8t-3 -15q-42 -87 -58 -128q-24 -69 -24 -131q0 -36 8 -71
q20 -77 70 -123q71 -65 198 -65q113 0 269 62q168 67 260 161q-12 7 -26.5 10t-56.5 3q-145 0 -210 17q-99 28 -99 108q0 119 87 257q102 155 228 155q74 -57 132 -99q64 -48 135 -48v-152zM694 -937q0 -17 -15 -58q-21 -55 -46 -58q-23 3 -57 34q-32 28 -45 52q10 26 30 64
q23 46 33 51q9 0 52.5 -32t47.5 -53zM513 -1006q4 -14 -13.5 -61.5t-31.5 -47.5q-16 0 -64 30t-50 46q-3 6 12.5 38t42.5 78q19 -10 48.5 -32.5t55.5 -50.5z" />
    <glyph glyph-name="afii63885" unicode="&#xfbff;&#xfeae;" horiz-adv-x="861" arabic-form="final" 
d="M860 -157q-20 0 -41.5 0.5t-44.5 6.5q-66 15 -108 77q-31 48 -54 128q-15 66 -30 133q-26 -102 -84 -127q-31 -9 -38 -12v-12q0 -22 -6 -56t-13 -65t-37 -88q-38 -72 -82 -131q-58 -73 -119 -112q-18 -11 -31.5 -16.5t-39.5 -5.5h-14q-11 2 -17 2q-45 4 -104.5 13.5
t-101 18.5t-41.5 21q0 7 23 9.5t62.5 3t55.5 5.5q61 17 94.5 30t60.5 30q88 54 158 130q54 60 88 121q28 49 28 67q-6 17 -20 29q-17 15 -50 24q-10 0 -10 16q0 10 6.5 49t6.5 63q3 16 8.5 22.5t12.5 6.5q6 0 21 -12q8 -6 12 -7q15 -6 32 -6q34 0 61.5 19.5t37.5 48.5
q8 41 16 80q10 26 16.5 34t13.5 8q5 0 8 -5t4 -13q15 -68 29 -136q27 -111 69 -168q60 -82 162 -82v-142zM848 -513q0 -14 -15 -52q-19 -52 -42 -56q-20 3 -55 34q-31 26 -42 47q10 25 28 62q22 42 32 46q14 0 61 -41q29 -25 33 -40zM678 -574q4 -15 -11.5 -59.5
t-31.5 -44.5q-15 1 -57 27q-46 29 -50 44q-2 7 23 56.5t28 53.5q15 -7 46.5 -30.5t52.5 -46.5z" />
    <glyph glyph-name="afii63888" unicode="&#xfbff;&#xfee6;" horiz-adv-x="1498" arabic-form="final" 
d="M1568 -154h-168q-91 0 -138 72q-61 93 -98 355q-89 -148 -202 -155q10 -72 10 -124q0 -221 -161.5 -368.5t-401.5 -147.5q-165 0 -256 76t-91 217q0 128 106 360l22 -13q-66 -163 -66 -253q0 -102 91 -171t226 -69q208 0 347 97.5t139 241.5q0 111 -80 203l42 119
q67 -30 113 -30q96 0 181 136l23 -3q30 -234 70 -316t124 -82h168v-145zM637 561l-82 -128l-120 88l81 126zM1474 -390l-73 -137l-131 78l-68 -110l-131 74l79 142l132 -83l68 110z" />
    <glyph glyph-name="afii63896" unicode="&#xfe91;&#xfea0;" horiz-adv-x="1126" arabic-form="initial" 
d="M1082 197l-44 -99h-31q-274 0 -469 -65q-93 -31 -254 -122q-116 -65 -200 -65h-84v145h84q94 0 192 40q150 60 252 85q-234 63 -428 103q15 67 45 97t109 58q320 114 472 431q31 63 55 63q91 0 123 -331l-39 -5q-18 198 -84 198q-26 0 -78 -65q-87 -110 -132 -157
q-108 -109 -247 -191q304 -120 626 -120h132zM1044 -168l-73 -133l-123 81l71 132zM587 -168l-73 -133l-123 81l71 132z" />
    <glyph glyph-name="afii63897" unicode="&#xfe91;&#xfea4;" horiz-adv-x="1126" arabic-form="initial" 
d="M1082 197l-44 -99h-31q-274 0 -469 -65q-93 -31 -254 -122q-116 -65 -200 -65h-84v145h84q94 0 192 40q150 60 252 85q-234 63 -428 103q15 67 45 97t109 58q320 114 472 431q31 63 55 63q91 0 123 -331l-39 -5q-18 198 -84 198q-26 0 -78 -65q-87 -110 -132 -157
q-108 -109 -247 -191q304 -120 626 -120h132zM1044 -168l-73 -133l-123 81l71 132z" />
    <glyph glyph-name="afii63898" unicode="&#xfe91;&#xfea8;" horiz-adv-x="1126" arabic-form="initial" 
d="M1082 197l-44 -99h-31q-274 0 -469 -65q-93 -31 -254 -122q-116 -65 -200 -65h-84v145h84q94 0 192 40q150 60 252 85q-234 63 -428 103q15 67 45 97t109 58q320 114 472 431q31 63 55 63q91 0 123 -331l-39 -5q-18 198 -84 198q-26 0 -78 -65q-87 -110 -132 -157
q-108 -109 -247 -191q304 -120 626 -120h132zM314 721l-78 -125l-118 75l74 134zM1044 -168l-73 -133l-123 81l71 132z" />
    <glyph glyph-name="afii63899" unicode="&#xfe91;&#xfee4;" horiz-adv-x="800" arabic-form="initial" 
d="M706 627q0 -19 -9 -43l-29 -84q-94 51 -162 51q-86 0 -146 -51.5t-60 -125.5q0 -73 48.5 -131t179.5 -139q24 -15 89 -54l-57 -174q-85 40 -208 93q-32 -45 -125 -84q-87 -39 -143 -39h-84v145h84q41 0 100.5 26t85.5 57q-44 107 -44 192q0 175 118 323q101 124 221 124
q52 0 96.5 -24.5t44.5 -61.5zM943 -175l-77 -126l-122 81l74 136z" />
    <glyph glyph-name="afii63900" unicode="&#xfe91;&#xfbab;" horiz-adv-x="897" arabic-form="initial" 
d="M846 109q0 -169 -110 -169q-54 0 -184.5 29.5t-169.5 50.5q-57 -49 -114 -97q-102 -77 -183 -77h-85v145h84q104 0 184 61q-36 43 -36 82q0 97 147 279q-8 15 -18 28q-12 23 -12 53q0 44 102 152q75 79 208 183q79 -29 79 -51q0 -24 -101 -110q-110 -95 -122 -115
q62 -47 195 -177q136 -159 136 -267zM805 -227l-85 -132l-121 88l81 128zM806 59q-61 130 -225 256q-23 -126 -82 -204q177 -52 280 -52h27zM514 235q0 33 -25.5 71.5t-55.5 38.5q-38 0 -85.5 -47t-47.5 -84q0 -26 44 -47l87 -33q83 43 83 101z" />
    <glyph glyph-name="afii63901" unicode="&#xfe97;&#xfea0;" horiz-adv-x="1126" arabic-form="initial" 
d="M1082 197l-44 -99h-31q-274 0 -469 -65q-93 -31 -254 -122q-116 -65 -200 -65h-84v145h84q94 0 192 40q150 60 252 85q-234 63 -428 103q15 67 45 97t109 58q320 114 472 431q31 63 55 63q91 0 123 -331l-39 -5q-18 198 -84 198q-26 0 -78 -65q-87 -110 -132 -157
q-108 -109 -247 -191q304 -120 626 -120h132zM966 1187l-84 -127l-122 91l-75 -111l-127 93l84 129l125 -91l73 110zM943 -175l-77 -126l-122 81l74 136z" />
    <glyph glyph-name="afii63902" unicode="&#xfe97;&#xfea4;" horiz-adv-x="1126" arabic-form="initial" 
d="M1082 197l-44 -99h-31q-274 0 -469 -65q-93 -31 -254 -122q-116 -65 -200 -65h-84v145h84q94 0 192 40q150 60 252 85q-234 63 -428 103q15 67 45 97t109 58q320 114 472 431q31 63 55 63q91 0 123 -331l-39 -5q-18 198 -84 198q-26 0 -78 -65q-87 -110 -132 -157
q-108 -109 -247 -191q304 -120 626 -120h132zM966 1187l-84 -127l-122 91l-75 -111l-127 93l84 129l125 -91l73 110z" />
    <glyph glyph-name="afii63903" unicode="&#xfe97;&#xfea8;" horiz-adv-x="1126" arabic-form="initial" 
d="M1082 197l-44 -99h-31q-274 0 -469 -65q-93 -31 -254 -122q-116 -65 -200 -65h-84v145h84q94 0 192 40q150 60 252 85q-234 63 -428 103q15 67 45 97t109 58q320 114 472 431q31 63 55 63q91 0 123 -331l-39 -5q-18 198 -84 198q-26 0 -78 -65q-87 -110 -132 -157
q-108 -109 -247 -191q304 -120 626 -120h132zM966 1187l-84 -127l-122 91l-75 -111l-127 93l84 129l125 -91l73 110zM314 721l-78 -125l-118 75l74 134z" />
    <glyph glyph-name="afii63904" unicode="&#xfe97;&#xfee4;" horiz-adv-x="761" arabic-form="initial" 
d="M706 627q0 -19 -9 -43l-29 -84q-94 51 -162 51q-86 0 -146 -51.5t-60 -125.5q0 -73 48.5 -131t179.5 -139q24 -15 89 -54l-57 -174q-85 40 -208 93q-32 -45 -125 -84q-87 -39 -143 -39h-84v145h84q41 0 100.5 26t85.5 57q-44 107 -44 192q0 175 118 323q101 124 221 124
q52 0 96.5 -24.5t44.5 -61.5zM695 943l-73 -134l-129 89l-73 -115l-119 85l75 129l124 -84l70 114z" />
    <glyph glyph-name="afii63905" unicode="&#xfe97;&#xfbab;" horiz-adv-x="897" arabic-form="initial" 
d="M791 1079l-78 -128l-126 82l-73 -116l-134 81l82 133l131 -82l73 111zM846 109q0 -169 -110 -169q-54 0 -184.5 29.5t-169.5 50.5q-57 -49 -114 -97q-102 -77 -183 -77h-85v145h84q104 0 184 61q-36 43 -36 82q0 97 147 279q-8 15 -18 28q-12 23 -12 53q0 44 102 152
q75 79 208 183q79 -29 79 -51q0 -24 -101 -110q-110 -95 -122 -115q62 -47 195 -177q136 -159 136 -267zM806 59q-61 130 -225 256q-23 -126 -82 -204q177 -52 280 -52h27zM514 235q0 33 -25.5 71.5t-55.5 38.5q-38 0 -85.5 -47t-47.5 -84q0 -26 44 -47l87 -33q83 43 83 101
z" />
    <glyph glyph-name="afii63906" unicode="&#xfe9b;&#xfee4;" horiz-adv-x="762" arabic-form="initial" 
d="M706 627q0 -19 -9 -43l-29 -84q-94 51 -162 51q-86 0 -146 -51.5t-60 -125.5q0 -73 48.5 -131t179.5 -139q24 -15 89 -54l-57 -174q-85 40 -208 93q-32 -45 -125 -84q-87 -39 -143 -39h-84v145h84q41 0 100.5 26t85.5 57q-44 107 -44 192q0 175 118 323q101 124 221 124
q52 0 96.5 -24.5t44.5 -61.5zM550 1109l-77 -126l-123 82l75 136zM714 899l-85 -130l-124 86l-75 -110l-117 81l72 126l127 -80l74 109z" />
    <glyph glyph-name="afii63908" unicode="&#xfe9f;&#xfee4;" horiz-adv-x="1486" arabic-form="initial" 
d="M1434 190h-44q-130 0 -330 56.5t-353 56.5q-87 0 -177 -22q81 -68 110.5 -119.5t29.5 -126.5q0 -144 -95 -144q-109 0 -325 110q-59 -155 -166 -155h-84v145h84q148 0 158 120q23 256 448 256q47 0 199 -12q-207 189 -384 189q-30 0 -89 -13q57 145 215 145q73 0 204 -91
q216 -152 247 -170q161 -92 308 -92h30zM625 28q0 17 -29 39q-105 78 -254 132q-17 6 -28 6q-18 0 -18 -23q0 -30 62 -57q37 -18 184 -94q48 -26 66 -26q17 0 17 23zM943 -175l-77 -126l-122 81l74 136z" />
    <glyph glyph-name="afii63910" unicode="&#xfea3;&#xfee4;" horiz-adv-x="1486" arabic-form="initial" 
d="M1434 190h-44q-130 0 -330 56.5t-353 56.5q-87 0 -177 -22q81 -68 110.5 -119.5t29.5 -126.5q0 -144 -95 -144q-109 0 -325 110q-59 -155 -166 -155h-84v145h84q148 0 158 120q23 256 448 256q47 0 199 -12q-207 189 -384 189q-30 0 -89 -13q57 145 215 145q73 0 204 -91
q216 -152 247 -170q161 -92 308 -92h30zM625 28q0 17 -29 39q-105 78 -254 132q-17 6 -28 6q-18 0 -18 -23q0 -30 62 -57q37 -18 184 -94q48 -26 66 -26q17 0 17 23z" />
    <glyph glyph-name="afii63912" unicode="&#xfea7;&#xfee4;" horiz-adv-x="1486" arabic-form="initial" 
d="M1434 190h-44q-130 0 -330 56.5t-353 56.5q-87 0 -177 -22q81 -68 110.5 -119.5t29.5 -126.5q0 -144 -95 -144q-109 0 -325 110q-59 -155 -166 -155h-84v145h84q148 0 158 120q23 256 448 256q47 0 199 -12q-207 189 -384 189q-30 0 -89 -13q57 145 215 145q73 0 204 -91
q216 -152 247 -170q161 -92 308 -92h30zM625 28q0 17 -29 39q-105 78 -254 132q-17 6 -28 6q-18 0 -18 -23q0 -30 62 -57q37 -18 184 -94q48 -26 66 -26q17 0 17 23zM664 854l-78 -125l-119 76l74 133z" />
    <glyph glyph-name="afii62927" unicode="&#xfeb3;&#xfee4;" horiz-adv-x="1167" arabic-form="initial" 
d="M1177 559q0 -89 -31 -142q-35 -62 -102 -62q-44 0 -77 15q-24 12 -69 47q-40 -66 -66 -86q-56 -44 -160 -44q-72 0 -125 42q-2 3 -72 81q-39 43 -79 43q-43 0 -100.5 -69.5t-57.5 -115.5q0 -63 14 -91q8 -14 49 -56q23 -20 53.5 -35t51.5 -24.5t27 -41.5q1 -5 1 -18
q0 -24 -6 -51t-15 -48q-4 -11 -12 -11q-4 0 -9 1q-38 25 -73 40.5t-72 15.5q-63 -42 -126 -74t-121 -32v144q28 0 100.5 29.5t84.5 45.5q-9 18 -13 40t-4 56q0 50 11.5 104.5t37.5 119.5q34 88 101 152.5t132 64.5q24 0 62 -42q58 -64 80 -81q56 -43 121 -43q66 0 109 21
q29 13 60 45q13 12 25 43q17 45 19 49q6 13 14.5 21t18.5 16q13 13 18 13q3 0 3 -9v-11q0 -18 -4.5 -39t-14.5 -40q18 -13 36 -25q16 -9 51 -18q10 -3 22 -6.5t16 -3.5q16 0 20 18.5t4 77.5q-2 16 4 25q18 29 21.5 49t9.5 20q9 0 20.5 -43t11.5 -77z" />
    <glyph glyph-name="afii63941" unicode="&#xfedf;&#xfea0;" horiz-adv-x="1266" arabic-form="initial" 
d="M1228 200l-66 -120q-232 21 -338 21q-147 0 -302 -66q-31 -13 -239 -123q-126 -66 -199 -66h-84v145h84q115 0 254 58q209 85 288 106q-201 75 -501 75q17 102 83 133q46 22 172 22q93 0 122 16q40 23 40 101q0 93 -37 312.5t-37 238.5q0 59 77 142l78 -142
q-52 -61 -52 -140q0 -40 16.5 -201t16.5 -191q0 -115 -47 -188q233 -73 314 -90q130 -29 357 -43zM943 -175l-77 -126l-122 81l74 136z" />
    <glyph glyph-name="afii62939" unicode="&#xfedf;&#xfea4;" horiz-adv-x="1266" arabic-form="initial" 
d="M1228 200l-66 -120q-232 21 -338 21q-147 0 -302 -66q-31 -13 -239 -123q-126 -66 -199 -66h-84v145h84q115 0 254 58q209 85 288 106q-201 75 -501 75q17 102 83 133q46 22 172 22q93 0 122 16q40 23 40 101q0 93 -37 312.5t-37 238.5q0 59 77 142l78 -142
q-52 -61 -52 -140q0 -40 16.5 -201t16.5 -191q0 -115 -47 -188q233 -73 314 -90q130 -29 357 -43z" />
    <glyph glyph-name="afii63943" unicode="&#xfedf;&#xfea8;" horiz-adv-x="1266" arabic-form="initial" 
d="M1228 200l-66 -120q-232 21 -338 21q-147 0 -302 -66q-31 -13 -239 -123q-126 -66 -199 -66h-84v145h84q115 0 254 58q209 85 288 106q-201 75 -501 75q17 102 83 133q46 22 172 22q93 0 122 16q40 23 40 101q0 93 -37 312.5t-37 238.5q0 59 77 142l78 -142
q-52 -61 -52 -140q0 -40 16.5 -201t16.5 -191q0 -115 -47 -188q233 -73 314 -90q130 -29 357 -43zM314 721l-78 -125l-118 75l74 134z" />
    <glyph glyph-name="afii62943" unicode="&#xfedf;&#xfee4;" horiz-adv-x="626" arabic-form="initial" 
d="M589 -51q0 -46 -47 -133q-109 119 -206 119q-40 0 -118 -44.5t-134 -44.5h-84v145h84q53 0 115 32q72 38 102 44q-17 60 -82 489.5t-65 480.5q0 92 67 155l95 -155q-66 -55 -66 -152q0 -152 63 -523q25 -147 56.5 -201t116.5 -97q103 -53 103 -115z" />
    <glyph glyph-name="afii62946" unicode="&#xfedf;&#xfbab;" horiz-adv-x="703" arabic-form="initial" 
d="M697 181q0 -77 -26.5 -137.5t-62.5 -80.5q-49 -26 -98 -37t-97 -11q-25 0 -38.5 1.5t-32.5 5.5q-11 -21 -109 -47q-117 -32 -233 -32v144q48 0 95.5 5t80.5 10q16 128 69 221q39 70 93 112q44 32 69 32q-22 171 -36 304q-17 149 -17 226q-12 10 -18 35.5t-6 48.5
q4 29 22 67.5t30 38.5q6 0 9 -18q3 -32 17 -60q18 -29 29 -50q0 -22 -10 -46q-12 -26 -17 -35q9 -87 22 -178q16 -125 19 -164q9 -88 9 -172q3 -13 5 -18t5 -23q9 -14 40.5 -30t66.5 -27q66 -18 96 -42q24 -19 24 -43zM631 106q-8 5 -53 27q-91 44 -124 58
q-4 -37 -19.5 -85.5t-33.5 -78.5q60 0 147.5 25t87.5 47q0 2 -5 7zM395 160v11q0 23 -5 36.5t-19 12.5q-53 -8 -94 -59q-33 -40 -32 -63q0 -24 19 -40q12 -9 46 -21q46 21 65.5 48t19.5 75z" />
    <glyph glyph-name="afii63946" unicode="&#xfee3;&#xfea0;" horiz-adv-x="1126" arabic-form="initial" 
d="M1082 185l-36 -96l-142 -9q-245 -17 -418 -78q-65 -23 -220 -104q-100 -52 -182 -52h-84v145h84q108 0 446 113q-342 107 -430 115q50 118 133 170q186 120 434 200l-73 45q44 112 80 171q159 -48 276 -141q-24 -84 -68 -176l-97 -6q-376 -23 -531 -149
q364 -140 828 -148zM943 -175l-77 -126l-122 81l74 136z" />
    <glyph glyph-name="afii62951" unicode="&#xfee3;&#xfea4;" horiz-adv-x="1126" arabic-form="initial" 
d="M1082 185l-36 -96l-142 -9q-245 -17 -418 -78q-65 -23 -220 -104q-100 -52 -182 -52h-84v145h84q108 0 446 113q-342 107 -430 115q50 118 133 170q186 120 434 200l-73 45q44 112 80 171q159 -48 276 -141q-24 -84 -68 -176l-97 -6q-376 -23 -531 -149
q364 -140 828 -148z" />
    <glyph glyph-name="afii63948" unicode="&#xfee3;&#xfea8;" horiz-adv-x="1126" arabic-form="initial" 
d="M1082 185l-36 -96l-142 -9q-245 -17 -418 -78q-65 -23 -220 -104q-100 -52 -182 -52h-84v145h84q108 0 446 113q-342 107 -430 115q50 118 133 170q186 120 434 200l-73 45q44 112 80 171q159 -48 276 -141q-24 -84 -68 -176l-97 -6q-376 -23 -531 -149
q364 -140 828 -148zM314 721l-78 -125l-118 75l74 134z" />
    <glyph glyph-name="afii62953" unicode="&#xfee3;&#xfee4;" horiz-adv-x="856" arabic-form="initial" 
d="M822 671l-73 -178q-406 -53 -406 -168q0 -124 209 -243q118 -67 118 -95q0 -38 -54 -155q-130 66 -243 152q-143 -138 -289 -138h-84v145h84q112 0 215 103q-37 76 -37 125q0 53 76 214q33 67 65 94q27 22 117 62l-88 54l127 204q133 -38 263 -176z" />
    <glyph glyph-name="afii63950" unicode="&#xfee7;&#xfea0;" horiz-adv-x="1126" arabic-form="initial" 
d="M1082 197l-44 -99h-31q-274 0 -469 -65q-93 -31 -254 -122q-116 -65 -200 -65h-84v145h84q94 0 192 40q150 60 252 85q-234 63 -428 103q15 67 45 97t109 58q320 114 472 431q31 63 55 63q91 0 123 -331l-39 -5q-18 198 -84 198q-26 0 -78 -65q-87 -110 -132 -157
q-108 -109 -247 -191q304 -120 626 -120h132zM889 1173l-85 -126l-114 96l84 124zM943 -175l-77 -126l-122 81l74 136z" />
    <glyph glyph-name="afii63951" unicode="&#xfee7;&#xfea4;" horiz-adv-x="1126" arabic-form="initial" 
d="M1082 197l-44 -99h-31q-274 0 -469 -65q-93 -31 -254 -122q-116 -65 -200 -65h-84v145h84q94 0 192 40q150 60 252 85q-234 63 -428 103q15 67 45 97t109 58q320 114 472 431q31 63 55 63q91 0 123 -331l-39 -5q-18 198 -84 198q-26 0 -78 -65q-87 -110 -132 -157
q-108 -109 -247 -191q304 -120 626 -120h132zM889 1173l-85 -126l-114 96l84 124z" />
    <glyph glyph-name="afii63952" unicode="&#xfee7;&#xfea8;" horiz-adv-x="1126" arabic-form="initial" 
d="M1082 197l-44 -99h-31q-274 0 -469 -65q-93 -31 -254 -122q-116 -65 -200 -65h-84v145h84q94 0 192 40q150 60 252 85q-234 63 -428 103q15 67 45 97t109 58q320 114 472 431q31 63 55 63q91 0 123 -331l-39 -5q-18 198 -84 198q-26 0 -78 -65q-87 -110 -132 -157
q-108 -109 -247 -191q304 -120 626 -120h132zM889 1173l-85 -126l-114 96l84 124zM314 721l-78 -125l-118 75l74 134z" />
    <glyph glyph-name="afii63953" unicode="&#xfee7;&#xfee4;" horiz-adv-x="761" arabic-form="initial" 
d="M706 627q0 -19 -9 -43l-29 -84q-94 51 -162 51q-86 0 -146 -51.5t-60 -125.5q0 -73 48.5 -131t179.5 -139q24 -15 89 -54l-57 -174q-85 40 -208 93q-32 -45 -125 -84q-87 -39 -143 -39h-84v145h84q41 0 100.5 26t85.5 57q-44 107 -44 192q0 175 118 323q101 124 221 124
q52 0 96.5 -24.5t44.5 -61.5zM613 1030l-78 -125l-119 76l75 133z" />
    <glyph glyph-name="afii63956" unicode="&#x6be;&#xfee4;" horiz-adv-x="1260" arabic-form="initial" 
d="M1192 517q0 -86 -34 -146.5t-82 -60.5q-98 0 -274 35q-95 -78 -246 -121q26 -49 26 -99q0 -68 -39 -123t-88 -55q-120 0 -237 68q-80 -169 -160 -169h-58v145h58q28 0 69 22q47 25 54 56q33 132 90 185.5t169 53.5h57q137 0 221 61q-113 31 -113 89q0 146 176 285
q-36 18 -105 29q24 157 117 157q118 0 258.5 -145.5t140.5 -266.5zM1142 465q0 84 -178 206q-9 -144 -57 -206q97 -26 181 -26q54 0 54 26zM889 568q0 108 -80 108q-41 0 -83.5 -46t-42.5 -79q0 -43 155 -68q51 40 51 85zM516 87q0 36 -78.5 77t-135.5 41q-30 0 -30 -35
q0 -27 98 -67q90 -39 124 -39q22 0 22 23z" />
    <glyph glyph-name="afii63958" unicode="&#xfbfe;&#xfea0;" horiz-adv-x="1126" arabic-form="initial" 
d="M1082 197l-44 -99h-31q-274 0 -469 -65q-93 -31 -254 -122q-116 -65 -200 -65h-84v145h84q94 0 192 40q150 60 252 85q-234 63 -428 103q15 67 45 97t109 58q320 114 472 431q31 63 55 63q91 0 123 -331l-39 -5q-18 198 -84 198q-26 0 -78 -65q-87 -110 -132 -157
q-108 -109 -247 -191q304 -120 626 -120h132zM1081 -171l-78 -130l-133 86l-66 -121l-128 93l76 131l125 -81l72 110zM516 -381l-77 -126l-122 82l74 136z" />
    <glyph glyph-name="afii63959" unicode="&#xfbfe;&#xfea4;" horiz-adv-x="1126" arabic-form="initial" 
d="M1082 197l-44 -99h-31q-274 0 -469 -65q-93 -31 -254 -122q-116 -65 -200 -65h-84v145h84q94 0 192 40q150 60 252 85q-234 63 -428 103q15 67 45 97t109 58q320 114 472 431q31 63 55 63q91 0 123 -331l-39 -5q-18 198 -84 198q-26 0 -78 -65q-87 -110 -132 -157
q-108 -109 -247 -191q304 -120 626 -120h132zM1081 -171l-78 -130l-133 86l-66 -121l-128 93l76 131l125 -81l72 110z" />
    <glyph glyph-name="afii63960" unicode="&#xfbfe;&#xfea8;" horiz-adv-x="1126" arabic-form="initial" 
d="M1082 197l-44 -99h-31q-274 0 -469 -65q-93 -31 -254 -122q-116 -65 -200 -65h-84v145h84q94 0 192 40q150 60 252 85q-234 63 -428 103q15 67 45 97t109 58q320 114 472 431q31 63 55 63q91 0 123 -331l-39 -5q-18 198 -84 198q-26 0 -78 -65q-87 -110 -132 -157
q-108 -109 -247 -191q304 -120 626 -120h132zM314 721l-78 -125l-118 75l74 134zM1081 -171l-78 -130l-133 86l-66 -121l-128 93l76 131l125 -81l72 110z" />
    <glyph glyph-name="afii63961" unicode="&#xfbfe;&#xfee4;" horiz-adv-x="794" arabic-form="initial" 
d="M706 627q0 -19 -9 -43l-29 -84q-94 51 -162 51q-86 0 -146 -51.5t-60 -125.5q0 -73 48.5 -131t179.5 -139q24 -15 89 -54l-57 -174q-85 40 -208 93q-32 -45 -125 -84q-87 -39 -143 -39h-84v145h84q41 0 100.5 26t85.5 57q-44 107 -44 192q0 175 118 323q101 124 221 124
q52 0 96.5 -24.5t44.5 -61.5zM904 -252l-74 -133l-128 88l-73 -115l-119 85l74 129l125 -84l70 114z" />
    <glyph glyph-name="afii64046" unicode="&#xfeb7;&#xfee4;" horiz-adv-x="1167" arabic-form="initial" 
d="M770 1213q0 -16 -12 -48t-33 -71q-5 -7 -25 8.5t-29 23.5q-34 25 -40 31q-8 11 -6 17q6 23 15 47.5t22 49.5q0 15 15 15q17 0 40 -14t37 -27q16 -17 16 -32zM889 1035q0 -12 -17 -58q-20 -54 -38 -54q-12 0 -50 33q-42 36 -42 55q8 23 20 52q16 43 22 63q40 -18 63 -35
q42 -30 42 -56zM708 1011q-8 -34 -13 -50q-17 -52 -33 -60q-10 -4 -55 27q-14 11 -43 34q0 36 29 99q18 41 32 33q35 -22 71 -42q12 -9 12 -24v-17zM1177 559q0 -89 -31 -142q-35 -62 -102 -62q-44 0 -77 15q-24 12 -69 47q-40 -66 -66 -86q-56 -44 -160 -44q-72 0 -125 42
q-2 3 -72 81q-39 43 -79 43q-43 0 -100.5 -69.5t-57.5 -115.5q0 -63 14 -91q8 -14 49 -56q23 -20 53.5 -35t51.5 -24.5t27 -41.5q1 -5 1 -18q0 -24 -6 -51t-15 -48q-4 -11 -12 -11q-4 0 -9 1q-38 25 -73 40.5t-72 15.5q-63 -42 -126 -74t-121 -32v144q28 0 100.5 29.5
t84.5 45.5q-9 18 -13 40t-4 56q0 50 11.5 104.5t37.5 119.5q34 88 101 152.5t132 64.5q24 0 62 -42q58 -64 80 -81q56 -43 121 -43q66 0 109 21q29 13 60 45q13 12 25 43q17 45 19 49q6 13 14.5 21t18.5 16q13 13 18 13q3 0 3 -9v-11q0 -18 -4.5 -39t-14.5 -40
q18 -13 36 -25q16 -9 51 -18q10 -3 22 -6.5t16 -3.5q16 0 20 18.5t4 77.5q-2 16 4 25q18 29 21.5 49t9.5 20q9 0 20.5 -43t11.5 -77z" />
    <glyph glyph-name="afii64058" unicode="&#xfe8e;&#x64b;" horiz-adv-x="642" arabic-form="final" 
d="M712 -154h-168q-203 0 -223 228q-11 120 -52 465q-36 300 -36 332q0 48 87 152l76 -870q15 -162 148 -162h168v-145zM476 1484q0 -79 -42 -103l-364 -207q4 49 17.5 71.5t61.5 49.5zM476 1309q0 -80 -42 -104l-364 -206q4 49 17.5 71.5t61.5 49.5z" />
    <glyph glyph-name="afii64059" unicode="&#x627;&#x64b;" horiz-adv-x="547" arabic-form="isolated" 
d="M394 146q0 -109 -64 -300l-24 7q15 96 15 131q0 90 -15 199l-61 466q-11 81 -11 121q0 95 80 253q2 -194 16 -305l50 -393q14 -116 14 -179zM476 1484q0 -79 -42 -103l-364 -207q4 49 17.5 71.5t61.5 49.5zM476 1309q0 -80 -42 -104l-364 -206q4 49 17.5 71.5t61.5 49.5z
" />
    <glyph glyph-name="afii62945" unicode="&#xfedf;&#xfee4;&#xfea4;" horiz-adv-x="1167" arabic-form="initial" 
d="M1104 219l-42 -122q-56 4 -103 4q-207 0 -397 -66q-84 -30 -275 -123q-135 -66 -203 -66h-84v145h84q84 0 248 55q202 67 255 77l-514 91q6 25 15 47q20 49 50 68q240 195 560 288q-24 106 -78 304q-38 140 -38 168q0 48 60 119q48 -63 85 -124q-50 -53 -50 -96
q0 -48 80 -361q29 5 37 5q111 0 198 -130l-40 -133q-83 71 -130 95q-64 31 -151 31q-171 0 -427 -157q145 -46 279 -72q227 -45 581 -47z" />
    <glyph glyph-name="afii64184" unicode="&#xfedf;&#xfee0;&#xfeea;" horiz-adv-x="1074" arabic-form="isolated" 
d="M546 1304q11 -39 11 -76q0 -45 -20 -152q-17 -27 -23 -27q-4 0 -8.5 71.5t-28.5 140.5q-37 104 -120 188l19 140q38 -16 91 -105t79 -180zM669 895q-6 -42 -20 -80t-34 -58q-16 -17 -30.5 -23t-26.5 -6q-14 0 -27 8q-7 4 -23 18q-19 -23 -37 -45q-27 -24 -61 -24
q-39 0 -55 35t-16 92q0 21 19.5 76t35.5 55q6 0 9.5 -9t3.5 -20q0 -10 -5.5 -30.5t-5.5 -32.5q0 -42 27 -42q11 0 24 4q39 7 61.5 81.5t28.5 74.5t13.5 -11.5t7.5 -23.5q0 -7 -3 -19q-9 -26 -7 -40q27 -22 45 -22t30 44q12 58 16.5 75t11.5 17t13 -22t6 -51q0 -15 -1 -21z
M1017 74q2 -24 2 -48q0 -83 -30 -137q-33 -58 -90 -58q-59 0 -104 45q-12 12 -101 158q-11 -74 -64 -151q-67 -96 -152 -96q-82 0 -142 77q-50 64 -50 120q-37 -38 -79 -65q-51 -28 -87 -28q-44 0 -82 26q-46 30 -46 74q0 28 31 76.5t55 66.5q81 66 153 95q48 19 67 56
q8 11 23 133q2 17 9 17q3 0 9 -8t11.5 -18t9 -62t3.5 -120q0 -32 -0.5 -62.5t-2.5 -60.5q0 -65 37 -108t98 -43q83 0 125 60q18 25 48 111q-8 57 -18 135q-15 96 -28 193q0 17 13 57q11 32 17 51t11 19q8 0 20 -55q1 -11 24 -143q19 -106 37 -190q23 -88 53.5 -131t81.5 -55
q8 -2 20 -4t23 -2q18 0 28 7t10 27q0 14 -4 30q-26 84 -42 131q-23 61 -35 97q-30 86 -48 153.5t-18 91.5q0 12 12 51q8 27 11 44.5t10 17.5q17 0 56 -125q30 -99 68 -252q6 -22 47 -198zM285 77v96q-5 -13 -62 -41t-113 -55q-8 -4 -8 -8q0 -10 22 -17.5t52 -7.5t56 7t53 26
z" />
    <glyph glyph-name="afii52400" unicode="&#x627;&#x6e4;" horiz-adv-x="577" 
d="M408 146q0 -109 -64 -300l-24 7q15 96 15 131q0 90 -15 199l-61 466q-11 81 -11 121q0 95 80 253q2 -194 16 -305l50 -393q14 -116 14 -179zM589 1185q-102 -112 -253 -112q-40 0 -117 22t-118 22q-36 0 -84 -26l-17 14q65 110 128 110q51 0 149.5 -26.5t148.5 -26.5
q52 0 149 37z" />
    <glyph glyph-name="afii62753" unicode="&#xfe8e;&#x6e4;" horiz-adv-x="656" arabic-form="final" 
d="M726 -154h-168q-203 0 -223 228q-11 120 -52 465q-36 300 -36 332q0 48 87 152l76 -870q15 -162 148 -162h168v-145zM589 1185q-102 -112 -253 -112q-40 0 -117 22t-118 22q-36 0 -84 -26l-17 14q65 110 128 110q51 0 149.5 -26.5t148.5 -26.5q52 0 149 37z" />
    <glyph glyph-name="afii57411" unicode="&#x627;&#x674;" horiz-adv-x="406" 
d="M291 146q0 -109 -64 -300l-24 7q15 96 15 131q0 90 -15 199l-61 466q-11 81 -11 121q0 95 80 253q2 -194 16 -305l50 -393q14 -116 14 -179zM417 1201q-7 -34 -12 -45q-11 -29 -29 -33l-331 -95q11 45 35 65q20 18 86 42q-79 38 -79 93q0 25 20 53q104 142 196 142
q62 0 62 -68q0 -28 -34 -81q-62 39 -98 39q-33 0 -80 -39q96 -90 170 -90q30 0 94 17z" />
    <glyph glyph-name="afii62754" unicode="&#xfe8e;&#x674;" horiz-adv-x="543" arabic-form="final" 
d="M613 -154h-168q-203 0 -224 228q-10 120 -51 465q-36 300 -36 332q0 48 86 152l77 -870q14 -162 148 -162h168v-145zM417 1201q-7 -34 -12 -45q-11 -29 -29 -33l-331 -95q11 45 35 65q20 18 86 42q-79 38 -79 93q0 25 20 53q104 142 196 142q62 0 62 -68q0 -28 -34 -81
q-62 39 -98 39q-33 0 -80 -39q96 -90 170 -90q30 0 94 17z" />
    <glyph glyph-name="afii57412" unicode="&#x648;&#x674;" horiz-adv-x="844" 
d="M789 28q0 -290 -141.5 -522t-317.5 -232q-112 0 -293 96l22 19q73 -29 145 -29q171 0 327 149q89 84 144 197q54 109 54 199q0 55 -24 96q-58 -82 -115 -82t-100 44t-43 104q0 67 74 222q49 103 110 103q64 0 111 -109.5t47 -254.5zM643 145q-19 52 -64 52q-40 0 -40 -44
q0 -52 44 -52q43 0 60 44zM735 645q-7 -34 -12 -44q-10 -29 -28 -34l-332 -95q11 46 35 65q21 18 87 42q-80 38 -80 94q0 25 21 52q103 142 195 142q63 0 63 -67q0 -29 -35 -82q-61 40 -97 40q-34 0 -81 -40q96 -90 171 -90q30 0 93 17z" />
    <glyph glyph-name="afii62755" unicode="&#xfeee;&#x674;" horiz-adv-x="873" arabic-form="final" 
d="M943 -154h-180q-59 -231 -135 -351q-141 -221 -329 -221q-102 0 -281 101l20 21q84 -33 143 -33q180 0 336.5 142.5t195.5 340.5h-39q-103 0 -169 34.5t-66 90.5q0 66 93 219q50 83 96 83q52 0 94 -83.5t46 -198.5h175v-145zM704 -9q-37 132 -117 132q-17 0 -36 -16
t-19 -40q0 -32 45 -52q48 -24 127 -24zM794 485q-7 -33 -12 -44q-10 -29 -28 -34l-332 -94q11 45 35 64q21 18 87 42q-80 39 -80 94q0 25 21 53q103 141 195 141q63 0 63 -67q0 -29 -35 -81q-61 39 -97 39q-34 0 -81 -39q96 -90 171 -90q30 0 93 16z" />
    <glyph glyph-name="afii57413" unicode="&#x627;&#xe832;" horiz-adv-x="406" 
d="M267 146q0 -109 -63 -300l-24 7q14 96 14 131q0 90 -14 199l-62 466q-10 81 -10 121q0 95 79 253q2 -194 17 -305l49 -393q14 -116 14 -179zM392 -471q-7 -33 -12 -44q-11 -29 -29 -34l-331 -94q11 45 35 64q20 18 86 42q-79 39 -79 94q0 25 20 53q104 141 196 141
q62 0 62 -67q0 -30 -34 -81q-62 39 -98 39q-33 0 -80 -39q96 -90 170 -90q30 0 94 16z" />
    <glyph glyph-name="afii62756" unicode="&#xfe8e;&#xe832;" horiz-adv-x="500" arabic-form="final" 
d="M570 -154h-168q-203 0 -223 228q-11 120 -52 465q-36 300 -36 332q0 48 86 152l77 -870q15 -162 148 -162h168v-145zM479 -471q-8 -33 -12 -44q-11 -29 -29 -34l-331 -94q10 45 34 64q21 18 87 42q-79 39 -79 94q0 25 20 53q103 141 196 141q62 0 62 -67q0 -30 -35 -81
q-61 39 -97 39q-34 0 -80 -39q96 -90 170 -90q30 0 94 16z" />
    <glyph glyph-name="afii57414" unicode="&#x64a;&#x674;" horiz-adv-x="1378" 
d="M1299 610l-35 -174q-46 45 -96 45q-96 0 -228.5 -88t-132.5 -188q0 -83 140 -108l180 -33q107 -19 107 -77q0 -95 -39 -158q-61 -99 -292.5 -194.5t-415.5 -95.5q-199 0 -313.5 87.5t-114.5 238.5q0 122 61 263q31 73 126 241l28 -22q-131 -249 -131 -368
q0 -124 106 -200t283 -76q173 0 404 86q217 80 217 123q0 34 -61 42l-168 23q-206 27 -206 162q0 115 185 312q163 174 316 174q35 0 80 -15zM468 645q-7 -34 -12 -44q-11 -29 -29 -34l-331 -95q11 46 35 65q20 18 86 42q-79 38 -79 94q0 25 21 52q103 142 195 142
q63 0 63 -67q0 -29 -35 -82q-61 40 -97 40q-34 0 -81 -40q96 -90 171 -90q30 0 93 17z" />
    <glyph glyph-name="afii62759" unicode="&#xfef2;&#x674;" horiz-adv-x="1177" arabic-form="final" 
d="M1247 -154h-166q-107 0 -171 -32.5t-64 -80.5q0 -34 73 -49l101 -20q147 -30 147 -157q0 -142 -234 -245q-212 -94 -441 -94q-190 0 -295.5 93.5t-105.5 260.5q0 171 128 406l22 -18q-89 -189 -89 -292q0 -132 98.5 -208.5t267.5 -76.5q161 0 375 61q218 62 218 113
q0 54 -96 62l-169 14q-111 10 -111 78q0 114 110 220q112 110 252 110h150v-145zM457 241q-7 -34 -12 -45q-11 -29 -29 -33l-331 -95q11 45 35 65q20 18 86 42q-79 38 -79 93q0 25 20 53q104 142 196 142q62 0 62 -68q0 -28 -34 -81q-62 39 -98 39q-33 0 -80 -39
q96 -90 170 -90q30 0 94 17z" />
    <glyph glyph-name="afii62834" unicode="&#xfedf;&#xfe82;" horiz-adv-x="1117" arabic-form="isolated" 
d="M1027 934q-78 -71 -78 -236q0 -390 -116 -649q56 -113 56 -206q0 -160 -206 -160h-243v145h26q94 0 175 63q73 56 111 146q-109 198 -194 309l-115 154q-76 96 -145 161l-47 -45q-57 54 -113 107q-50 56 -50 120q0 65 51 164q178 -147 273 -266q24 -29 190 -270
q60 -86 200 -346q90 190 90 448q0 43 -10 172t-10 177q0 79 59 148zM823 -135q0 44 -37 104q-46 -87 -108 -141h25q120 0 120 37zM589 1251q-102 -112 -253 -112q-40 0 -117 22t-118 22q-36 0 -84 -26l-17 14q65 110 128 110q51 0 149.5 -26.5t148.5 -26.5q52 0 149 37z" />
    <glyph glyph-name="afii62835" unicode="&#xfee0;&#xfe82;" horiz-adv-x="1422" arabic-form="final" 
d="M1492 -154h-170q-98 0 -138 105q-20 53 -55 279l-60 395q-59 -371 -143 -566q-78 -180 -218 -257q-112 -61 -391 -103v27q458 171 572 399q-33 195 -295 396q-96 75 -122 75q-17 0 -34.5 -29.5t-31.5 -29.5q-28 0 -162 80q-70 42 -70 148q0 148 54 148q64 0 236 -123
q168 -120 278 -239q144 -157 180 -351q103 278 103 641q0 132 59 229q6 -57 14 -143q30 -266 89 -694q23 -124 45 -174q32 -68 90 -68h170v-145zM589 1251q-102 -112 -253 -112q-40 0 -117 22t-118 22q-36 0 -84 -26l-17 14q65 110 128 110q51 0 149.5 -26.5t148.5 -26.5
q52 0 149 37z" />
    <glyph glyph-name="afii62836" unicode="&#xfedf;&#xfe84;" horiz-adv-x="1103" arabic-form="isolated" 
d="M1013 934q-78 -71 -78 -236q0 -390 -116 -649q56 -113 56 -206q0 -160 -206 -160h-243v145h25q95 0 176 63q73 56 111 146q-109 198 -194 309l-115 154q-76 96 -146 161l-46 -45q-57 54 -113 107q-51 56 -51 120q0 65 52 164q178 -147 272 -266q24 -29 191 -270
q60 -86 199 -346q90 190 90 448q0 43 -9.5 172t-9.5 177q0 79 59 148zM809 -135q0 44 -37 104q-46 -87 -108 -141h25q120 0 120 37zM443 1209q-16 -71 -40 -78l-332 -95q11 46 32.5 64.5t88.5 42.5q-79 36 -79 92q0 22 19 54q107 142 197 142q64 0 64 -67q0 -29 -36 -82
q-59 40 -99 40q-32 0 -79 -40q97 -91 170 -91q28 0 94 18z" />
    <glyph glyph-name="afii62837" unicode="&#xfee0;&#xfe84;" horiz-adv-x="1281" arabic-form="final" 
d="M1351 -154h-170q-98 0 -138 105q-20 53 -55 279l-60 395q-59 -371 -143 -566q-78 -180 -218 -257q-112 -61 -391 -103v27q458 171 572 399q-33 195 -295 396q-96 75 -122 75q-17 0 -34.5 -29.5t-31.5 -29.5q-28 0 -162 80q-70 42 -70 148q0 148 54 148q64 0 236 -123
q168 -120 278 -239q144 -157 180 -351q103 278 103 641q0 132 59 229q6 -57 14 -143q30 -266 89 -694q23 -124 45 -174q32 -68 90 -68h170v-145zM451 1209q-16 -71 -40 -78l-332 -95q10 46 32 64.5t89 42.5q-79 36 -79 92q0 22 19 54q107 142 197 142q63 0 63 -67
q0 -29 -36 -82q-59 40 -98 40q-33 0 -79 -40q97 -91 170 -91q28 0 94 18z" />
    <glyph glyph-name="afii62838" unicode="&#xfedf;&#xfe88;" horiz-adv-x="1103" arabic-form="isolated" 
d="M1013 934q-78 -71 -78 -236q0 -390 -117 -649q57 -113 57 -206q0 -160 -207 -160h-242v145h25q95 0 175 63q73 56 112 146q-109 198 -195 309l-115 154q-75 96 -145 161l-47 -45q-56 54 -113 107q-50 56 -50 120q0 65 52 164q177 -147 272 -266q24 -29 191 -270
q60 -86 199 -346q90 190 90 448q0 43 -9.5 172t-9.5 177q0 79 59 148zM809 -135q0 44 -38 104q-45 -87 -108 -141h26q120 0 120 37zM842 -603q-7 -33 -12 -44q-11 -29 -29 -34l-331 -94q11 45 35 64q20 18 86 42q-79 39 -79 94q0 25 21 53q103 141 195 141q63 0 63 -67
q0 -30 -35 -81q-61 39 -97 39q-34 0 -81 -39q96 -90 171 -90q30 0 93 16z" />
    <glyph glyph-name="afii62839" unicode="&#xfee0;&#xfe88;" horiz-adv-x="1281" arabic-form="final" 
d="M1351 -154h-170q-98 0 -138 105q-20 53 -55 279l-60 395q-59 -371 -143 -566q-78 -180 -218 -257q-112 -61 -391 -103v27q458 171 572 399q-33 195 -295 396q-96 75 -122 75q-17 0 -34.5 -29.5t-31.5 -29.5q-28 0 -162 80q-70 42 -70 148q0 148 54 148q64 0 236 -123
q168 -120 278 -239q144 -157 180 -351q103 278 103 641q0 132 59 229q6 -57 14 -143q30 -266 89 -694q23 -124 45 -174q32 -68 90 -68h170v-145zM850 -603q-7 -33 -12 -44q-11 -29 -29 -34l-331 -94q11 45 35 64q20 18 86 42q-79 39 -79 94q0 25 21 53q103 141 195 141
q63 0 63 -67q0 -30 -35 -81q-61 39 -97 39q-34 0 -81 -39q96 -90 171 -90q30 0 93 16z" />
    <glyph glyph-name="afii62840" unicode="&#xfedf;&#xfe8e;" horiz-adv-x="896" arabic-form="isolated" 
d="M833 719l-53 -138l-41 18l-12 -9l-4 -12q0 -61 -21 -144q-6 -27 -11 -45t-11 -38q-11 -40 -27 -78l36 -94q13 -37 13 -51q0 -138 -18.5 -200.5t-51.5 -77.5l-27 -6l-57 -1l-73 1l-76 1q-40 0 -63 15.5t-42 49.5q-13 26 -13 71v27l3 33q3 23 18 74h13l-1 -21
q0 -42 19.5 -61.5t52.5 -25.5q47 27 98.5 80.5t98.5 123.5l-42 72q-34 54 -120 148l-77 82q-31 31 -75 71q-69 63 -84 57q-6 -7 -11 -37l-5 -43l-6 -1l-4 -5l-34 62l-23 35q-36 60 -41 87q0 14 17 69t25 61q96 -48 179 -118q37 -30 71 -64l74 -79q54 -64 119 -151l25 -35
l23 -39l41 -74l20 58l16 58q12 59 12 123q0 29 -1.5 41t-4.5 39l-58 51q-26 25 -26 68q0 22 25 82l27 67q6 15 15 29l17 27l12 -5l-14 -26l-8 -36l-4 -29q0 -45 72 -89zM663 1q-22 82 -27 88l-15 36l-19 41l-19 -35l-22 -30l-7 -9l-12 -13l-26 -29l-58 -57l47 -6l62 -3l65 4
q21 2 31 13z" />
    <glyph glyph-name="afii62841" unicode="&#xfee0;&#xfe8e;" horiz-adv-x="1370" arabic-form="final" 
d="M1375 -157h-40q-27 0 -69 15.5t-70 44.5q-60 60 -91 178l-22 102q-4 28 -7 65.5t-3 65.5l-16 225q-83 -344 -181 -488q-112 -160 -330 -224q-67 -18 -191 -29.5t-212 -11.5l-101 3q-19 0 -34 2t-31 7l12 17q102 16 195 38t177 53q138 45 263 116l2 58q0 77 -18.5 143
t-58.5 134q-58 100 -87 100q-3 0 -7 -2l-12 -30l-9 -42l-6 -4l-12 -4l-66 154l-27 72l7 21l8 23l13 30q27 62 35 68q48 -18 136 -115q96 -105 143 -218l8 -22l7 -39q6 -32 6 -78q0 -65 -12 -125q-5 -31 -12 -57.5t-20 -55.5q43 25 44 26q18 14 27 20q18 12 30 21
q16 12 24 19q40 35 84 91t112 231q35 86 53.5 147.5t24.5 99.5q0 40 18 71q10 22 30 38q3 -6 6.5 -18.5t8.5 -35.5q7 -40 7 -90l7 -228v-43l4 -51v-18.5t1 -15.5l8 -28q16 -67 45 -119.5t72 -94.5q63 -60 114 -60h13v-152z" />
    <glyph glyph-name="glyph1025" unicode="&#xfef7;&#x64e;" horiz-adv-x="949" 
d="M827 719l-53 -138l-41 18l-12 -9l-4 -12q0 -61 -21 -144q-6 -27 -11 -45t-11 -38q-11 -40 -27 -78l36 -94q13 -37 13 -51q0 -138 -18.5 -200.5t-51.5 -77.5l-27 -6l-57 -1l-73 1l-76 1q-40 0 -63 15.5t-42 49.5q-13 26 -13 71v27l3 33q3 23 18 74h13l-1 -21
q0 -42 19.5 -61.5t52.5 -25.5q47 27 98.5 80.5t98.5 123.5l-42 72q-34 54 -120 148l-77 82q-31 31 -75 71q-69 63 -84 57q-6 -7 -11 -37l-5 -43l-6 -1l-4 -5l-34 62l-23 35q-36 60 -41 87q0 14 17 69t25 61q96 -48 179 -118q37 -30 71 -64l74 -79q54 -64 119 -151l25 -35
l23 -39l41 -74l20 58l16 58q12 59 12 123q0 29 -1.5 41t-4.5 39l-58 51q-26 25 -26 68q0 22 25 82l27 67q6 15 15 29l17 27l12 -5l-14 -26l-8 -36l-4 -29q0 -45 72 -89zM657 1q-22 82 -27 88l-15 36l-19 41l-19 -35l-22 -30l-7 -9l-12 -13l-26 -29l-58 -57l47 -6l62 -3l65 4
q21 2 31 13zM-208 1422q-13 0 -13 30t16 36l297 126q11 0 14 -3.5t3 -20.5q0 -33 -17 -40zM-150 923l9 51q56 40 92 84q-118 7 -118 108q0 70 47 137t108 67q96 0 96 -87q0 -29 -15 -58q-87 64 -126 64q-61 0 -61 -52q0 -42 63 -81t111 -39q42 0 106 26v-87z" />
    <glyph glyph-name="glyph1026" unicode="&#xfef7;&#x64b;" horiz-adv-x="949" 
d="M809 719l-53 -138l-41 18l-12 -9l-4 -12q0 -61 -21 -144q-6 -27 -11 -45t-11 -38q-11 -40 -27 -78l36 -94q13 -37 13 -51q0 -138 -18.5 -200.5t-51.5 -77.5l-27 -6l-57 -1l-73 1l-76 1q-40 0 -63 15.5t-42 49.5q-13 26 -13 71v27l3 33q3 23 18 74h13l-1 -21
q0 -42 19.5 -61.5t52.5 -25.5q47 27 98.5 80.5t98.5 123.5l-42 72q-34 54 -120 148l-77 82q-31 31 -75 71q-69 63 -84 57q-6 -7 -11 -37l-5 -43l-6 -1l-4 -5l-34 62l-23 35q-36 60 -41 87q0 14 17 69t25 61q96 -48 179 -118q37 -30 71 -64l74 -79q54 -64 119 -151l25 -35
l23 -39l41 -74l20 58l16 58q12 59 12 123q0 29 -1.5 41t-4.5 39l-58 51q-26 25 -26 68q0 22 25 82l27 67q6 15 15 29l17 27l12 -5l-14 -26l-8 -36l-4 -29q0 -45 72 -89zM639 1q-22 82 -27 88l-15 36l-19 41l-19 -35l-22 -30l-7 -9l-12 -13l-26 -29l-58 -57l47 -6l62 -3l65 4
q21 2 31 13zM-287 1446q-14 0 -14 30t17 36l297 126q11 0 14 -3.5t3 -23.5q0 -33 -17 -40zM-287 1326q-13 0 -13 30t16 36l297 126q11 0 14 -3.5t3 -20.5q0 -33 -17 -40zM-229 875l10 51q55 40 91 84q-118 7 -118 108q0 70 47 137t108 67q96 0 96 -87q0 -29 -14 -58
q-88 64 -126 64q-62 0 -62 -52q0 -42 63 -81t111 -39q42 0 106 26v-87z" />
    <glyph glyph-name="glyph1034" unicode="&#xfef7;&#x652;" horiz-adv-x="949" 
d="M826 719l-53 -138l-41 18l-12 -9l-4 -12q0 -61 -21 -144q-6 -27 -11 -45t-11 -38q-11 -40 -27 -78l36 -94q13 -37 13 -51q0 -138 -18.5 -200.5t-51.5 -77.5l-27 -6l-57 -1l-73 1l-76 1q-40 0 -63 15.5t-42 49.5q-13 26 -13 71v27l3 33q3 23 18 74h13l-1 -21
q0 -42 19.5 -61.5t52.5 -25.5q47 27 98.5 80.5t98.5 123.5l-42 72q-34 54 -120 148l-77 82q-31 31 -75 71q-69 63 -84 57q-6 -7 -11 -37l-5 -43l-6 -1l-4 -5l-34 62l-23 35q-36 60 -41 87q0 14 17 69t25 61q96 -48 179 -118q37 -30 71 -64l74 -79q54 -64 119 -151l25 -35
l23 -39l41 -74l20 58l16 58q12 59 12 123q0 29 -1.5 41t-4.5 39l-58 51q-26 25 -26 68q0 22 25 82l27 67q6 15 15 29l17 27l12 -5l-14 -26l-8 -36l-4 -29q0 -45 72 -89zM656 1q-22 82 -27 88l-15 36l-19 41l-19 -35l-22 -30l-7 -9l-12 -13l-26 -29l-58 -57l47 -6l62 -3l65 4
q21 2 31 13zM33 1454q0 -79 -62.5 -129.5t-124.5 -50.5q-55 0 -84 44t-29 99q0 82 42.5 144t117.5 62q67 0 103.5 -50t36.5 -119zM-223 1454q0 -60 104 -60q87 0 87 33q0 24 -43 64.5t-86 40.5q-62 0 -62 -78zM-206 792l10 51q55 40 91 84q-118 8 -118 108q0 71 47 137.5
t108 66.5q96 0 96 -87q0 -28 -14 -58q-88 64 -126 64q-61 0 -61 -52q0 -42 63 -81t111 -39q42 0 105 27v-88z" />
    <glyph glyph-name="glyph1035" unicode="&#xfef7;&#x64f;" horiz-adv-x="949" 
d="M783 719l-53 -138l-41 18l-12 -9l-4 -12q0 -61 -21 -144q-6 -27 -11 -45t-11 -38q-11 -40 -27 -78l36 -94q13 -37 13 -51q0 -138 -18.5 -200.5t-51.5 -77.5l-27 -6l-57 -1l-73 1l-76 1q-40 0 -63 15.5t-42 49.5q-13 26 -13 71v27l3 33q3 23 18 74h13l-1 -21
q0 -42 19.5 -61.5t52.5 -25.5q47 27 98.5 80.5t98.5 123.5l-42 72q-34 54 -120 148l-77 82q-31 31 -75 71q-69 63 -84 57q-6 -7 -11 -37l-5 -43l-6 -1l-4 -5l-34 62l-23 35q-36 60 -41 87q0 14 17 69t25 61q96 -48 179 -118q37 -30 71 -64l74 -79q54 -64 119 -151l25 -35
l23 -39l41 -74l20 58l16 58q12 59 12 123q0 29 -1.5 41t-4.5 39l-58 51q-26 25 -26 68q0 22 25 82l27 67q6 15 15 29l17 27l12 -5l-14 -26l-8 -36l-4 -29q0 -45 72 -89zM613 1q-22 82 -27 88l-15 36l-19 41l-19 -35l-22 -30l-7 -9l-12 -13l-26 -29l-58 -57l47 -6l62 -3l65 4
q21 2 31 13zM-235 835l9 52q57 39 92 84q-118 7 -118 108q0 69 47 136.5t108 67.5q96 0 96 -88q0 -29 -15 -58q-87 64 -126 64q-61 0 -61 -52q0 -43 63 -81.5t111 -38.5q43 0 106 27v-88zM40 1360q0 -15 -3 -32.5t-6 -35.5l-80 48q-48 -53 -64 -70q-72 -69 -120 -69h-70
q50 24 119 78q61 49 93 86q-30 18 -45 39q-19 25 -19 55q0 63 37 111t80 48q25 0 45 -26t20 -65q0 -19 -5.5 -38t-24.5 -72q16 -15 32 -27q11 -10 11 -30zM-32 1470q0 25 -18.5 47t-35.5 22q-9 0 -14.5 -6.5t-5.5 -13.5q0 -21 24 -45l42 -32q8 19 8 28z" />
    <glyph glyph-name="glyph1036" unicode="&#xfef7;&#x64c;" horiz-adv-x="949" 
d="M801 719l-53 -138l-41 18l-12 -9l-4 -12q0 -61 -21 -144q-6 -27 -11 -45t-11 -38q-11 -40 -27 -78l36 -94q13 -37 13 -51q0 -138 -18.5 -200.5t-51.5 -77.5l-27 -6l-57 -1l-73 1l-76 1q-40 0 -63 15.5t-42 49.5q-13 26 -13 71v27l3 33q3 23 18 74h13l-1 -21
q0 -42 19.5 -61.5t52.5 -25.5q47 27 98.5 80.5t98.5 123.5l-42 72q-34 54 -120 148l-77 82q-31 31 -75 71q-69 63 -84 57q-6 -7 -11 -37l-5 -43l-6 -1l-4 -5l-34 62l-23 35q-36 60 -41 87q0 14 17 69t25 61q96 -48 179 -118q37 -30 71 -64l74 -79q54 -64 119 -151l25 -35
l23 -39l41 -74l20 58l16 58q12 59 12 123q0 29 -1.5 41t-4.5 39l-58 51q-26 25 -26 68q0 22 25 82l27 67q6 15 15 29l17 27l12 -5l-14 -26l-8 -36l-4 -29q0 -45 72 -89zM631 1q-22 82 -27 88l-15 36l-19 41l-19 -35l-22 -30l-7 -9l-12 -13l-26 -29l-58 -57l47 -6l62 -3l65 4
q21 2 31 13zM-263 1148v15q8 4 37 25q29 45 29 115q0 44 -26 44q-11 0 -35 -21q-25 -23 -31 -23q-10 0 -10 10q1 24 42.5 63.5t75.5 39.5q51 0 51 -63q0 -54 -44 -144q90 41 152 131q-69 37 -69 111q1 61 55.5 130t96.5 69q30 0 48.5 -33.5t18.5 -77.5q0 -73 -44 -140
q56 -28 56 -59l-5 -56q-39 0 -121 37q-43 -66 -115 -123t-126 -57q-24 0 -36 7zM44 1418q23 39 23 77q0 71 -53 71q-43 0 -43 -57q0 -66 73 -91zM-131 683l10 51q56 40 91 84q-118 7 -118 108q0 71 47 137.5t108 66.5q96 0 96 -87q0 -28 -14 -58q-88 64 -126 64
q-62 0 -62 -52q0 -42 63 -81t111 -39q42 0 106 26v-87z" />
    <glyph glyph-name="glyph1046" unicode="&#xfef9;&#x650;" horiz-adv-x="948" 
d="M928 719l-53 -138l-41 18l-12 -9l-4 -12q0 -61 -21 -144q-6 -27 -11 -45t-11 -38q-11 -40 -27 -78l36 -94q13 -37 13 -51q0 -138 -18.5 -200.5t-51.5 -77.5l-27 -6l-57 -1l-73 1l-76 1q-40 0 -63 15.5t-42 49.5q-13 26 -13 71v27l3 33q3 23 18 74h13l-1 -21
q0 -42 19.5 -61.5t52.5 -25.5q47 27 98.5 80.5t98.5 123.5l-42 72q-34 54 -120 148l-77 82q-31 31 -75 71q-69 63 -84 57q-6 -7 -11 -37l-5 -43l-6 -1l-4 -5l-34 62l-23 35q-36 60 -41 87q0 14 17 69t25 61q96 -48 179 -118q37 -30 71 -64l74 -79q54 -64 119 -151l25 -35
l23 -39l41 -74l20 58l16 58q12 59 12 123q0 29 -1.5 41t-4.5 39l-58 51q-26 25 -26 68q0 22 25 82l27 67q6 15 15 29l17 27l12 -5l-14 -26l-8 -36l-4 -29q0 -45 72 -89zM758 1q-22 82 -27 88l-15 36l-19 41l-19 -35l-22 -30l-7 -9l-12 -13l-26 -29l-58 -57l47 -6l62 -3l65 4
q21 2 31 13zM448 -826l9 52q57 40 92 84q-118 7 -118 108q0 70 47 137t108 67q96 0 96 -88q0 -28 -15 -57q-87 63 -126 63q-61 0 -61 -51q1 -43 63.5 -81.5t110.5 -38.5q45 0 106 26v-87zM474 -997h-3q-10 0 -10 29q0 30 16 37l297 126q11 0 14 -5t3 -22q0 -34 -17 -40z" />
    <glyph glyph-name="glyph1047" unicode="&#xfef9;&#x64d;" horiz-adv-x="943" 
d="M928 719l-53 -138l-41 18l-12 -9l-4 -12q0 -61 -21 -144q-6 -27 -11 -45t-11 -38q-11 -40 -27 -78l36 -94q13 -37 13 -51q0 -138 -18.5 -200.5t-51.5 -77.5l-27 -6l-57 -1l-73 1l-76 1q-40 0 -63 15.5t-42 49.5q-13 26 -13 71v27l3 33q3 23 18 74h13l-1 -21
q0 -42 19.5 -61.5t52.5 -25.5q47 27 98.5 80.5t98.5 123.5l-42 72q-34 54 -120 148l-77 82q-31 31 -75 71q-69 63 -84 57q-6 -7 -11 -37l-5 -43l-6 -1l-4 -5l-34 62l-23 35q-36 60 -41 87q0 14 17 69t25 61q96 -48 179 -118q37 -30 71 -64l74 -79q54 -64 119 -151l25 -35
l23 -39l41 -74l20 58l16 58q12 59 12 123q0 29 -1.5 41t-4.5 39l-58 51q-26 25 -26 68q0 22 25 82l27 67q6 15 15 29l17 27l12 -5l-14 -26l-8 -36l-4 -29q0 -45 72 -89zM758 1q-22 82 -27 88l-15 36l-19 41l-19 -35l-22 -30l-7 -9l-12 -13l-26 -29l-58 -57l47 -6l62 -3l65 4
q21 2 31 13zM305 -742l9 51q57 40 92 84q-118 8 -118 108q0 69 47 136.5t108 67.5q96 0 96 -87q0 -29 -15 -58q-87 64 -126 64q-61 0 -61 -52q0 -43 63 -81.5t111 -38.5q45 0 106 27v-88zM322 -883q-14 0 -14 30t16 36l298 126q10 0 13 -4t3 -22q0 -34 -16 -41zM322 -1015
q-14 0 -14 30t16 36l298 126q10 0 13 -3.5t3 -20.5q0 -32 -16 -39z" />
    <glyph glyph-name="glyph1051" unicode="&#xfef8;&#x64e;" horiz-adv-x="1063" 
d="M1375 -157h-40q-27 0 -69 15.5t-70 44.5q-60 60 -91 178l-22 102q-4 28 -7 65.5t-3 65.5l-16 225q-83 -344 -181 -488q-112 -160 -330 -224q-67 -18 -191 -29.5t-212 -11.5l-101 3q-19 0 -34 2t-31 7l12 17q102 16 195 38t177 53q138 45 263 116l2 58q0 77 -18.5 143
t-58.5 134q-58 100 -87 100q-3 0 -7 -2l-12 -30l-9 -42l-6 -4l-12 -4l-66 154l-27 72l7 21l8 23l13 30q27 62 35 68q48 -18 136 -115q96 -105 143 -218l8 -22l7 -39q6 -32 6 -78q0 -65 -12 -125q-5 -31 -12 -57.5t-20 -55.5q43 25 44 26q18 14 27 20q18 12 30 21
q16 12 24 19q40 35 84 91t112 231q35 86 53.5 147.5t24.5 99.5q0 40 18 71q10 22 30 38q3 -6 6.5 -18.5t8.5 -35.5q7 -40 7 -90l7 -228v-43l4 -51v-18.5t1 -15.5l8 -28q16 -67 45 -119.5t72 -94.5q63 -60 114 -60h13v-152zM-128 1304q-13 0 -13 30t16 36l297 126
q11 0 14 -3.5t3 -20.5q0 -33 -17 -40zM-70 805l9 51q56 40 92 84q-118 7 -118 108q0 70 47 137t108 67q96 0 96 -87q0 -29 -15 -58q-87 64 -126 64q-61 0 -61 -52q0 -42 63 -81t111 -39q42 0 106 26v-87z" />
    <glyph glyph-name="glyph1052" unicode="&#xfef8;&#x64b;" horiz-adv-x="1063" 
d="M1368 -157h-40q-27 0 -69 15.5t-70 44.5q-60 60 -91 178l-22 102q-4 28 -7 65.5t-3 65.5l-16 225q-83 -344 -181 -488q-112 -160 -330 -224q-67 -18 -191 -29.5t-212 -11.5l-101 3q-19 0 -34 2t-31 7l12 17q102 16 195 38t177 53q138 45 263 116l2 58q0 77 -18.5 143
t-58.5 134q-58 100 -87 100q-3 0 -7 -2l-12 -30l-9 -42l-6 -4l-12 -4l-66 154l-27 72l7 21l8 23l13 30q27 62 35 68q48 -18 136 -115q96 -105 143 -218l8 -22l7 -39q6 -32 6 -78q0 -65 -12 -125q-5 -31 -12 -57.5t-20 -55.5q43 25 44 26q18 14 27 20q18 12 30 21
q16 12 24 19q40 35 84 91t112 231q35 86 53.5 147.5t24.5 99.5q0 40 18 71q10 22 30 38q3 -6 6.5 -18.5t8.5 -35.5q7 -40 7 -90l7 -228v-43l4 -51v-18.5t1 -15.5l8 -28q16 -67 45 -119.5t72 -94.5q63 -60 114 -60h13v-152zM-185 1328q-14 0 -14 30t17 36l297 126
q11 0 14 -3.5t3 -23.5q0 -33 -17 -40zM-185 1208q-13 0 -13 30t16 36l297 126q11 0 14 -3.5t3 -20.5q0 -33 -17 -40zM-127 757l10 51q55 40 91 84q-118 7 -118 108q0 70 47 137t108 67q96 0 96 -87q0 -29 -14 -58q-88 64 -126 64q-62 0 -62 -52q0 -42 63 -81t111 -39
q42 0 106 26v-87z" />
    <glyph glyph-name="glyph1060" unicode="&#xfef8;&#x652;" horiz-adv-x="1063" 
d="M1388 -157h-40q-27 0 -69 15.5t-70 44.5q-60 60 -91 178l-22 102q-4 28 -7 65.5t-3 65.5l-16 225q-83 -344 -181 -488q-112 -160 -330 -224q-67 -18 -191 -29.5t-212 -11.5l-101 3q-19 0 -34 2t-31 7l12 17q102 16 195 38t177 53q138 45 263 116l2 58q0 77 -18.5 143
t-58.5 134q-58 100 -87 100q-3 0 -7 -2l-12 -30l-9 -42l-6 -4l-12 -4l-66 154l-27 72l7 21l8 23l13 30q27 62 35 68q48 -18 136 -115q96 -105 143 -218l8 -22l7 -39q6 -32 6 -78q0 -65 -12 -125q-5 -31 -12 -57.5t-20 -55.5q43 25 44 26q18 14 27 20q18 12 30 21
q16 12 24 19q40 35 84 91t112 231q35 86 53.5 147.5t24.5 99.5q0 40 18 71q10 22 30 38q3 -6 6.5 -18.5t8.5 -35.5q7 -40 7 -90l7 -228v-43l4 -51v-18.5t1 -15.5l8 -28q16 -67 45 -119.5t72 -94.5q63 -60 114 -60h13v-152zM136 1450q0 -79 -62.5 -129.5t-124.5 -50.5
q-55 0 -84 44t-29 99q0 82 42.5 144t117.5 62q67 0 103.5 -50t36.5 -119zM-120 1450q0 -60 104 -60q87 0 87 33q0 24 -43 64.5t-86 40.5q-62 0 -62 -78zM-103 788l10 51q55 40 91 84q-118 8 -118 108q0 71 47 137.5t108 66.5q96 0 96 -87q0 -28 -14 -58q-88 64 -126 64
q-61 0 -61 -52q0 -42 63 -81t111 -39q42 0 105 27v-88z" />
    <glyph glyph-name="glyph1061" unicode="&#xfef8;&#x64f;" horiz-adv-x="1055" 
d="M1303 -157h-40q-27 0 -69 15.5t-70 44.5q-60 60 -91 178l-22 102q-4 28 -7 65.5t-3 65.5l-16 225q-83 -344 -181 -488q-112 -160 -330 -224q-67 -18 -191 -29.5t-212 -11.5l-101 3q-19 0 -34 2t-31 7l12 17q102 16 195 38t177 53q138 45 263 116l2 58q0 77 -18.5 143
t-58.5 134q-58 100 -87 100q-3 0 -7 -2l-12 -30l-9 -42l-6 -4l-12 -4l-66 154l-27 72l7 21l8 23l13 30q27 62 35 68q48 -18 136 -115q96 -105 143 -218l8 -22l7 -39q6 -32 6 -78q0 -65 -12 -125q-5 -31 -12 -57.5t-20 -55.5q43 25 44 26q18 14 27 20q18 12 30 21
q16 12 24 19q40 35 84 91t112 231q35 86 53.5 147.5t24.5 99.5q0 40 18 71q10 22 30 38q3 -6 6.5 -18.5t8.5 -35.5q7 -40 7 -90l7 -228v-43l4 -51v-18.5t1 -15.5l8 -28q16 -67 45 -119.5t72 -94.5q63 -60 114 -60h13v-152zM-202 839l9 52q57 39 92 84q-118 7 -118 108
q0 69 47 136.5t108 67.5q96 0 96 -88q0 -29 -15 -58q-87 64 -126 64q-61 0 -61 -52q0 -43 63 -81.5t111 -38.5q43 0 106 27v-88zM73 1364q0 -15 -3 -32.5t-6 -35.5l-80 48q-48 -53 -64 -70q-72 -69 -120 -69h-70q50 24 119 78q61 49 93 86q-30 18 -45 39q-19 25 -19 55
q0 63 37 111t80 48q25 0 45 -26t20 -65q0 -19 -5.5 -38t-24.5 -72q16 -15 32 -27q11 -10 11 -30zM1 1474q0 25 -18.5 47t-35.5 22q-9 0 -14.5 -6.5t-5.5 -13.5q0 -21 24 -45l42 -32q8 19 8 28z" />
    <glyph glyph-name="glyph1062" unicode="&#xfef8;&#x64c;" horiz-adv-x="1063" 
d="M1303 -157h-40q-27 0 -69 15.5t-70 44.5q-60 60 -91 178l-22 102q-4 28 -7 65.5t-3 65.5l-16 225q-83 -344 -181 -488q-112 -160 -330 -224q-67 -18 -191 -29.5t-212 -11.5l-101 3q-19 0 -34 2t-31 7l12 17q102 16 195 38t177 53q138 45 263 116l2 58q0 77 -18.5 143
t-58.5 134q-58 100 -87 100q-3 0 -7 -2l-12 -30l-9 -42l-6 -4l-12 -4l-66 154l-27 72l7 21l8 23l13 30q27 62 35 68q48 -18 136 -115q96 -105 143 -218l8 -22l7 -39q6 -32 6 -78q0 -65 -12 -125q-5 -31 -12 -57.5t-20 -55.5q43 25 44 26q18 14 27 20q18 12 30 21
q16 12 24 19q40 35 84 91t112 231q35 86 53.5 147.5t24.5 99.5q0 40 18 71q10 22 30 38q3 -6 6.5 -18.5t8.5 -35.5q7 -40 7 -90l7 -228v-43l4 -51v-18.5t1 -15.5l8 -28q16 -67 45 -119.5t72 -94.5q63 -60 114 -60h13v-152zM-246 1167v15q8 4 37 25q29 45 29 115q0 44 -26 44
q-11 0 -35 -21q-25 -23 -31 -23q-10 0 -10 10q1 24 42.5 63.5t75.5 39.5q51 0 51 -63q0 -54 -44 -144q90 41 152 131q-69 37 -69 111q1 61 55.5 130t96.5 69q30 0 48.5 -33.5t18.5 -77.5q0 -73 -44 -140q56 -28 56 -59l-5 -56q-39 0 -121 37q-43 -66 -115 -123t-126 -57
q-24 0 -36 7zM61 1437q23 39 23 77q0 71 -53 71q-43 0 -43 -57q0 -66 73 -91zM-114 702l10 51q56 40 91 84q-118 7 -118 108q0 71 47 137.5t108 66.5q96 0 96 -87q0 -28 -14 -58q-88 64 -126 64q-62 0 -62 -52q0 -42 63 -81t111 -39q42 0 106 26v-87z" />
    <glyph glyph-name="glyph1072" unicode="&#xfefa;&#x650;" horiz-adv-x="1253" 
d="M1469 -157h-40q-27 0 -69 15.5t-70 44.5q-60 60 -91 178l-22 102q-4 28 -7 65.5t-3 65.5l-16 225q-83 -344 -181 -488q-112 -160 -330 -224q-67 -18 -191 -29.5t-212 -11.5l-101 3q-19 0 -34 2t-31 7l12 17q102 16 195 38t177 53q138 45 263 116l2 58q0 77 -18.5 143
t-58.5 134q-58 100 -87 100q-3 0 -7 -2l-12 -30l-9 -42l-6 -4l-12 -4l-66 154l-27 72l7 21l8 23l13 30q27 62 35 68q48 -18 136 -115q96 -105 143 -218l8 -22l7 -39q6 -32 6 -78q0 -65 -12 -125q-5 -31 -12 -57.5t-20 -55.5q43 25 44 26q18 14 27 20q18 12 30 21
q16 12 24 19q40 35 84 91t112 231q35 86 53.5 147.5t24.5 99.5q0 40 18 71q10 22 30 38q3 -6 6.5 -18.5t8.5 -35.5q7 -40 7 -90l7 -228v-43l4 -51v-18.5t1 -15.5l8 -28q16 -67 45 -119.5t72 -94.5q63 -60 114 -60h13v-152zM84 -795l9 52q57 40 92 84q-118 7 -118 108
q0 70 47 137t108 67q96 0 96 -88q0 -28 -15 -57q-87 63 -126 63q-61 0 -61 -51q1 -43 63.5 -81.5t110.5 -38.5q45 0 106 26v-87zM110 -966h-3q-10 0 -10 29q0 30 16 37l297 126q11 0 14 -5t3 -22q0 -34 -17 -40z" />
    <glyph glyph-name="glyph1073" unicode="&#xfefa;&#x64d;" horiz-adv-x="1255" 
d="M1480 -157h-40q-27 0 -69 15.5t-70 44.5q-60 60 -91 178l-22 102q-4 28 -7 65.5t-3 65.5l-16 225q-83 -344 -181 -488q-112 -160 -330 -224q-67 -18 -191 -29.5t-212 -11.5l-101 3q-19 0 -34 2t-31 7l12 17q102 16 195 38t177 53q138 45 263 116l2 58q0 77 -18.5 143
t-58.5 134q-58 100 -87 100q-3 0 -7 -2l-12 -30l-9 -42l-6 -4l-12 -4l-66 154l-27 72l7 21l8 23l13 30q27 62 35 68q48 -18 136 -115q96 -105 143 -218l8 -22l7 -39q6 -32 6 -78q0 -65 -12 -125q-5 -31 -12 -57.5t-20 -55.5q43 25 44 26q18 14 27 20q18 12 30 21
q16 12 24 19q40 35 84 91t112 231q35 86 53.5 147.5t24.5 99.5q0 40 18 71q10 22 30 38q3 -6 6.5 -18.5t8.5 -35.5q7 -40 7 -90l7 -228v-43l4 -51v-18.5t1 -15.5l8 -28q16 -67 45 -119.5t72 -94.5q63 -60 114 -60h13v-152zM113 -726l9 51q57 40 92 84q-118 8 -118 108
q0 69 47 136.5t108 67.5q96 0 96 -87q0 -29 -15 -58q-87 64 -126 64q-61 0 -61 -52q0 -43 63 -81.5t111 -38.5q45 0 106 27v-88zM130 -867q-14 0 -14 30t16 36l298 126q10 0 13 -4t3 -22q0 -34 -16 -41zM130 -999q-14 0 -14 30t16 36l298 126q10 0 13 -3.5t3 -20.5
q0 -32 -16 -39z" />
    <glyph glyph-name="glyph1077" unicode="&#x623;&#x64e;" horiz-adv-x="664" 
d="M145 1521q-13 0 -13 29q0 30 16 37l297 126q17 0 17 -25q0 -31 -17 -39zM203 1070l9 51q56 41 92 84q-118 8 -118 108q0 70 47 137t108 67q96 0 96 -87q0 -29 -15 -58q-87 64 -126 64q-61 0 -61 -52q0 -42 63 -81t111 -39q11 0 106 27v-88zM360 -238q0 281 -23 576
q-23 311 -23 475l123 199l-4 -186q0 -188 6 -331q10 -223 10 -331q0 -351 -89 -402z" />
    <glyph glyph-name="glyph1078" unicode="&#x623;&#x64b;" horiz-adv-x="663" 
d="M167 1515q-13 0 -13 29q0 30 16 37l297 126q17 0 17 -26q0 -34 -17 -41zM167 1359q-13 0 -13 29q0 30 16 37l297 126q17 0 17 -25q0 -31 -17 -39zM213 931l9 51q56 41 92 84q-118 7 -118 108q0 70 47 137t108 67q96 0 96 -87q0 -29 -15 -58q-87 64 -126 64q-61 0 -61 -52
q0 -42 63 -81t111 -39q11 0 106 26v-87zM370 -257q0 280 -23 576q-23 310 -23 475l123 199l-4 -186q0 -188 6 -331q10 -223 10 -331q0 -352 -89 -402z" />
    <glyph glyph-name="glyph1086" unicode="&#x623;&#x652;" horiz-adv-x="684" 
d="M356 1540q0 -79 -62.5 -129.5t-124.5 -50.5q-52 0 -82.5 41t-30.5 102q0 80 42 143t118 63q66 0 103 -50t37 -119zM100 1540q0 -60 104 -60q87 0 87 33q0 22 -43 63.5t-86 41.5q-62 0 -62 -78zM268 944l10 51q55 41 91 84q-117 8 -117 108q0 70 46.5 137t107.5 67
q96 0 96 -87q0 -29 -14 -58q-88 64 -126 64q-61 0 -61 -52q0 -42 63 -81t111 -39q11 0 105 27v-88zM416 -235q0 280 -23 575q-23 311 -23 475l123 200l-4 -186q0 -189 6 -332q10 -223 10 -331q0 -351 -89 -401z" />
    <glyph glyph-name="glyph1087" unicode="&#x623;&#x64f;" horiz-adv-x="689" 
d="M158 1306v12q134 61 187 137q-59 37 -59 84q0 43 41.5 102.5t78.5 59.5q22 0 37.5 -28t15.5 -62q0 -48 -31 -109q47 -23 47 -49v-48q-17 0 -51 14q-42 19 -49 20q-113 -141 -187 -141q-17 0 -30 8zM399 1517q16 28 16 58q0 59 -40 59q-36 0 -36 -47q0 -59 60 -70z
M274 1007l9 41q43 33 72 67q-94 6 -94 86q0 56 37.5 109.5t85.5 53.5q76 0 76 -70q0 -24 -12 -47q-69 51 -99 51q-48 0 -48 -41q0 -34 49.5 -64.5t87.5 -30.5q9 0 84 21v-70zM367 -238q0 281 -23 576q-23 311 -23 475l123 199l-4 -186q0 -188 6 -331q10 -223 10 -331
q0 -351 -89 -402z" />
    <glyph glyph-name="glyph1088" unicode="&#x623;&#x64c;" horiz-adv-x="638" 
d="M108 1316v11q7 3 30 19q22 35 22 91q0 35 -21 35q-9 0 -28 -18q-20 -17 -24 -17q-7 0 -7 7q0 19 32.5 50t59.5 31q40 0 40 -48q0 -44 -35 -113q70 31 120 102q-54 27 -54 86q0 47 43.5 101.5t75.5 54.5q23 0 38 -26.5t15 -59.5q0 -59 -35 -111q44 -22 44 -45l-3 -45
q-33 0 -96 29q-100 -140 -190 -140q-18 0 -27 6zM349 1527q17 30 17 60q0 55 -41 55q-34 0 -34 -44q0 -52 58 -71zM252 965l8 41q43 33 71 66q-93 5 -93 84q0 55 37 107.5t85 52.5q75 0 75 -69q0 -22 -11 -44q-68 49 -99 49q-48 0 -48 -41q0 -32 49.5 -62.5t87.5 -30.5
q8 0 82 20v-68zM336 -247q0 280 -23 575q-23 311 -23 475l122 200l-3 -186q0 -189 6 -332q9 -223 9 -331q0 -351 -88 -401z" />
    <glyph glyph-name="glyph1098" unicode="&#x625;&#x650;" horiz-adv-x="291" 
d="M246 183v-12l-2 -41q0 -19 -4 -32l-4 -36v-13l-5 -16q-2 -28 -17 -75q-15 -65 -42 -123l-16 8l12 32l6 22l3 26l6 70l5 96q0 53 -20 178l-38 221l-20 143q0 38 26 87l17 29l22 35l8 -10l-3 -38v-30l15 -115l33 -213l12 -116zM13 -721l9 52q57 40 92 84q-118 7 -118 108
q0 70 47 137t108 67q96 0 96 -88q0 -28 -15 -57q-87 63 -126 63q-61 0 -61 -51q1 -43 63.5 -81.5t110.5 -38.5q45 0 106 26v-87zM39 -892h-3q-10 0 -10 29q0 30 16 37l297 126q11 0 14 -5t3 -22q0 -34 -17 -40z" />
    <glyph glyph-name="glyph1099" unicode="&#x625;&#x64d;" horiz-adv-x="303" 
d="M241 183v-12l-2 -41q0 -19 -4 -32l-4 -36v-13l-5 -16q-2 -28 -17 -75q-15 -65 -42 -123l-16 8l12 32l6 22l3 26l6 70l5 96q0 53 -20 178l-38 221l-20 143q0 38 26 87l17 29l22 35l8 -10l-3 -38v-30l15 -115l33 -213l12 -116zM26 -652l9 51q57 40 92 84q-118 8 -118 108
q0 69 47 136.5t108 67.5q96 0 96 -87q0 -29 -15 -58q-87 64 -126 64q-61 0 -61 -52q0 -43 63 -81.5t111 -38.5q45 0 106 27v-88zM43 -793q-14 0 -14 30t16 36l298 126q10 0 13 -4t3 -22q0 -34 -16 -41zM43 -925q-14 0 -14 30t16 36l298 126q10 0 13 -3.5t3 -20.5
q0 -32 -16 -39z" />
    <glyph glyph-name="glyph1120" unicode="&#xfe84;&#x64e;" horiz-adv-x="564" 
d="M43 1513q-13 0 -13 28q0 30 16 38l297 126q17 0 17 -26q0 -31 -17 -38zM119 1033l9 51q56 41 92 84q-118 7 -118 108q0 70 47 137t108 67q96 0 96 -87q0 -29 -15 -58q-87 64 -126 64q-61 0 -61 -52q0 -42 63 -81t111 -39q11 0 106 26v-87zM582 -154h-168q-203 0 -223 228
q-11 120 -52 465q-36 300 -36 332q0 48 87 152l76 -870q15 -162 148 -162h168v-145z" />
    <glyph glyph-name="glyph1121" unicode="&#xfe84;&#x64b;" horiz-adv-x="558" 
d="M27 1509q-11 0 -11 26q0 28 12 34l235 115q13 0 13 -24q0 -31 -13 -37zM35 1387q-11 0 -11 26q0 28 12 34l236 115q13 0 13 -23q0 -29 -13 -35zM78 994l8 47q44 37 72 77q-93 6 -93 98q0 64 36.5 125t86.5 61q75 0 75 -80q0 -25 -12 -52q-68 58 -98 58q-49 0 -49 -47
q0 -38 49.5 -73.5t88.5 -35.5q8 0 82 24v-81zM585 -154h-168q-203 0 -223 228q-11 120 -52 465q-36 300 -36 332q0 48 86 152l77 -870q15 -162 148 -162h168v-145z" />
    <glyph glyph-name="glyph1122" unicode="&#xfe84;&#x652;" horiz-adv-x="537" 
d="M240 1534q0 -51 -40.5 -83.5t-80.5 -32.5q-33 0 -53 26.5t-20 64.5q0 53 27 93.5t76 40.5q43 0 67 -33t24 -76zM75 1534q0 -38 66 -38q56 0 56 20q0 16 -27.5 42.5t-55.5 26.5q-39 0 -39 -51zM90 1064l6 33q36 28 59 56q-75 3 -75 69q0 46 30.5 89t69.5 43q62 0 62 -56
q0 -19 -10 -37q-56 40 -80 40q-40 0 -40 -33q0 -28 40 -53t72 -25q7 0 68 17v-57zM579 -154h-168q-203 0 -223 228q-11 120 -52 465q-36 300 -36 332q0 48 86 152l77 -870q15 -162 148 -162h168v-145z" />
    <glyph glyph-name="glyph1123" unicode="&#xfe84;&#x64f;" horiz-adv-x="555" 
d="M24 1360v10q110 50 154 111q-48 30 -48 70q0 35 34 83.5t64 48.5q19 0 31 -23t12 -51q0 -39 -24 -89q37 -18 37 -40v-41q-14 0 -42 14q-33 14 -39 16q-93 -116 -154 -116q-14 0 -25 7zM222 1532q13 23 13 48q0 49 -32 49q-30 0 -30 -40q0 -48 49 -57zM148 1064l6 33
q36 28 58 56q-75 4 -75 70q0 45 30.5 88.5t70.5 43.5q62 0 62 -56q0 -19 -10 -38q-57 43 -81 43q-40 0 -40 -35q0 -28 41 -53t72 -25q7 0 68 17v-57zM574 -154h-168q-203 0 -224 228q-10 120 -51 465q-36 300 -36 332q0 48 86 152l77 -870q14 -162 148 -162h168v-145z" />
    <glyph glyph-name="glyph1124" unicode="&#xfe84;&#x64c;" horiz-adv-x="552" 
d="M32 1365v10q5 3 24 16q18 28 18 72q0 29 -17 29q-7 0 -23 -14q-15 -15 -19 -15q-6 0 -6 6q0 16 26.5 41t47.5 25q33 0 33 -39q0 -35 -28 -91q57 26 96 82q-44 23 -44 70q0 38 34.5 82t62.5 44q17 0 29.5 -21t12.5 -49q0 -46 -28 -88q35 -18 35 -38l-3 -34q-26 0 -76 22
q-82 -114 -154 -114q-14 0 -21 4zM225 1537q14 25 14 48q0 44 -32 44q-26 0 -26 -35q0 -42 44 -57zM148 1083l6 34q34 25 57 51q-74 5 -74 69q0 44 29.5 86t68.5 42q61 0 61 -54q0 -19 -10 -37q-54 41 -79 41q-38 0 -38 -33q0 -26 39.5 -51.5t69.5 -25.5q7 0 67 17v-54z
M586 -154h-168q-203 0 -223 228q-11 120 -52 465q-36 300 -36 332q0 48 87 152l77 -870q14 -162 147 -162h168v-145z" />
    <glyph glyph-name="glyph1125" unicode="&#xfe88;&#x650;" horiz-adv-x="429" 
d="M533 -157h-47q-43 0 -99 20q-63 24 -103 66q-17 23 -29 42q-9 19 -16 45q-11 46 -11 125v42v16v12v12v9q0 16 -0.5 33.5t-3.5 33.5q0 27 -3.5 52t-11.5 70l-29 133l-12 60q-4 26 -5 29l-6 18l52 103q2 -1 18 -55l8 -50l6 -46l24 -180q0 -114 17 -261q0 -36 32 -79
q25 -31 60 -56l28 -16l33 -13q33 -13 56 -13h42v-152zM61 -748l9 52q57 40 92 84q-118 7 -118 108q0 70 47 137t108 67q96 0 96 -88q0 -28 -15 -57q-87 63 -126 63q-61 0 -61 -51q1 -43 63.5 -81.5t110.5 -38.5q45 0 106 26v-87zM87 -919h-3q-10 0 -10 29q0 30 16 37
l297 126q11 0 14 -5t3 -22q0 -34 -17 -40z" />
    <glyph glyph-name="glyph1126" unicode="&#xfe88;&#x64d;" horiz-adv-x="422" 
d="M532 -157h-47q-43 0 -99 20q-63 24 -103 66q-17 23 -29 42q-9 19 -16 45q-11 46 -11 125v42v16v12v12v9q0 16 -0.5 33.5t-3.5 33.5q0 27 -3.5 52t-11.5 70l-29 133l-12 60q-4 26 -5 29l-6 18l52 103q2 -1 18 -55l8 -50l6 -46l24 -180q0 -114 17 -261q0 -36 32 -79
q25 -31 60 -56l28 -16l33 -13q33 -13 56 -13h42v-152zM81 -679l9 51q57 40 92 84q-118 8 -118 108q0 69 47 136.5t108 67.5q96 0 96 -87q0 -29 -15 -58q-87 64 -126 64q-61 0 -61 -52q0 -43 63 -81.5t111 -38.5q45 0 106 27v-88zM98 -820q-14 0 -14 30t16 36l298 126
q10 0 13 -4t3 -22q0 -34 -16 -41zM98 -952q-14 0 -14 30t16 36l298 126q10 0 13 -3.5t3 -20.5q0 -32 -16 -39z" />
    <glyph glyph-name="afii57506" unicode="&#x67e;" horiz-adv-x="1855" arabic-form="isolated" 
d="M1835 208l2 -19l1 -22q0 -64 -21 -139l-18 -52q-7 -11 -64 -29l-89 -23l-90 -21q-45 -10 -124 -23l-174 -24l-191 -15l-96 -2l-87 -4q-237 0 -424 40q-211 47 -302 136q-41 38 -60 100q-7 31 -12 67q-4 36 -4.5 50t-0.5 22q0 54 22 111q18 52 37 78l18 -9l-15 -38l-8 -27
q-12 -50 -12 -80l4 -24q8 -66 43 -104q29 -36 92 -65q34 -16 83 -31q46 -14 112 -28l61 -8q13 -2 24 -3t32 -7q24 -2 51.5 -4t57.5 -2l135 -4l81 -1l62 -2q141 0 261 12l82 2l179 27q50 6 91 13l104 18l64 13q36 8 43 26q-5 45 -23 82q-15 38 -44 72l-73 78l15 68
q13 47 28 69q32 -24 78 -96q54 -87 69 -178zM932 -595l75 103l114 -83l-79 -97zM824 -432l78 97l113 -78l-78 -100zM1021 -444l75 97l115 -78l-78 -100z" />
    <glyph glyph-name="afii62958" unicode="&#x67e;" horiz-adv-x="1843" arabic-form="final" 
d="M1891 -157h-46q-84 0 -143 46q-35 29 -61 80q-45 -50 -100 -78q-11 -6 -23.5 -12t-27.5 -11.5t-34 -11.5t-41 -12q-44 -12 -243.5 -29t-297.5 -17q-17 0 -51 0.5t-50 0.5l-149 6q-54 0 -90 5.5t-89 18.5q-172 36 -277 140q-36 34 -54.5 96.5t-18.5 145.5v21l4 30l3 27
l9 26q14 50 32 77l18 -6l-8 -22l-12 -42q-10 -43 -10 -77l2 -25q8 -62 42.5 -107t95.5 -74q30 -14 80 -29q42 -10 106 -23l107 -16l49 -5l48 -1l284 -5q21 0 72.5 2t59.5 2q30 0 67 3t83 8q165 15 216 30q97 22 128 33q58 23 74 54l30 71l29 63l13 -12l-12 -35
q-12 -46 -12 -78q23 -43 47 -66q48 -40 125 -40h26v-152zM903 -594l75 103l114 -83l-79 -98zM795 -432l78 98l112 -79l-78 -98zM991 -444l76 98l115 -79l-78 -98z" />
    <glyph glyph-name="afii62956" unicode="&#x67e;" horiz-adv-x="274" arabic-form="initial" 
d="M315 197q0 -70 -27 -174.5t-53 -141.5q-6 -5 -59 -25q-57 -13 -84 -13h-40v152h58q35 0 48.5 1t38.5 6q53 8 62 35q-5 61 -23 109q-16 51 -42 90l-61 79q2 20 21 65l16 37q5 11 18 28q36 -21 78 -93q49 -84 49 -155zM39 -487l74 102l116 -82l-80 -98zM-69 -325l78 97
l113 -78l-78 -99zM128 -337l75 97l116 -78l-78 -99z" />
    <glyph glyph-name="afii52957" unicode="&#x67e;" horiz-adv-x="444" arabic-form="medial" 
d="M510 -157h-64q-84 0 -144 46q-34 27 -62 80q-25 -41 -76 -80q-68 -46 -126 -46h-46v152h47q30 0 60.5 6.5t65.5 23.5q66 31 81 67l24 54l35 80l13 -12l-12 -35q-12 -46 -12 -78q23 -43 47 -66q48 -40 125 -40h44v-152zM162 -491l75 103l115 -81l-79 -99zM54 -328l78 97
l113 -78l-78 -98zM251 -340l76 97l115 -78l-78 -98z" />
    <glyph glyph-name="afii57505" unicode="&#x6a4;" horiz-adv-x="1777" arabic-form="isolated" 
d="M1691 315q0 -132 -63 -198.5t-264 -145.5q-379 -149 -752 -149q-516 0 -516 301q0 119 103 298l30 -10q-72 -108 -72 -197q0 -105 127.5 -174t322.5 -69q425 0 861 192q184 81 184 133q0 43 -49 115q-53 -74 -69 -91q-44 -42 -101 -42q-60 0 -101 41.5t-41 101.5
q0 62 69 189q72 133 138 133q63 0 124 -120q69 -133 69 -308zM1507 507q0 17 -25.5 35.5t-58.5 18.5q-51 0 -51 -47q0 -15 22 -37t47 -22q66 0 66 52zM1357 1195l-78 -125l-119 75l75 134zM1507 981l-73 -133l-128 89l-74 -116l-118 86l74 128l125 -84l69 114z" />
    <glyph glyph-name="afii62889" unicode="&#x6a4;" horiz-adv-x="1808" arabic-form="final" 
d="M1878 -154h-167q-159 0 -255 69q-324 -140 -495 -186q-188 -52 -401 -52q-214 0 -339 83t-125 227q0 138 113 269l15 -12q-61 -117 -61 -173q0 -107 122.5 -173t326.5 -66q178 0 322 33.5t364 128.5q-44 47 -44 86q0 69 61 201q93 198 169 198q51 0 101 -88
q47 -84 47 -149q0 -115 -59 -222q47 -29 138 -29h167v-145zM1573 183q0 34 -35 85q-37 57 -68 57q-34 0 -88.5 -56t-54.5 -99q0 -24 35.5 -57t75.5 -46q135 75 135 116zM1448 938l-78 -125l-118 76l74 133zM1598 724l-73 -133l-128 89l-73 -115l-119 85l74 128l125 -84
l70 114z" />
    <glyph glyph-name="afii62887" unicode="&#x6a4;" horiz-adv-x="538" arabic-form="initial" 
d="M500 170q0 -147 -91 -213q-150 -111 -325 -111h-84v145h84q114 0 241 47q136 50 136 108q0 49 -57 84q-64 -126 -150 -126q-58 0 -95 33t-37 84q0 53 33 162q55 185 137 185q73 0 140.5 -132t67.5 -266zM329 338q0 11 -32.5 31t-54.5 20q-39 0 -39 -42q0 -66 54 -66
q26 0 49 20t23 37zM324 1046l-78 -125l-119 76l75 133zM474 832l-73 -133l-129 89l-73 -115l-119 85l75 128l125 -84l69 114z" />
    <glyph glyph-name="afii62888" unicode="&#x6a4;" horiz-adv-x="741" arabic-form="medial" 
d="M811 -154h-165q-152 0 -292 99q-128 -99 -270 -99h-84v145h84q91 0 142 44q-8 36 -8 52q0 85 54 179q131 227 234 227q50 0 88 -77q37 -72 37 -153q0 -98 -101 -232q71 -40 128 -40h153v-145zM568 197q0 40 -33 78q-36 42 -80 42q-51 0 -105.5 -38t-54.5 -67
q0 -64 103 -118q170 54 170 103zM431 938l-78 -125l-119 76l74 133zM581 724l-73 -133l-129 89l-73 -115l-119 85l75 128l124 -84l70 114z" />
    <glyph glyph-name="afii57507" unicode="&#x686;" horiz-adv-x="1020" arabic-form="isolated" 
d="M1225 -769l-2 -29l-343 -154q-98 -42 -130 -53q-49 -9 -104 -9q-129 0 -265.5 42t-205.5 110q-47 46 -87 127q-28 63 -28 144q0 69 10 128.5t40 137.5q56 153 158 261q73 79 171 132l105 56q-42 15 -116.5 28.5t-138.5 13.5q-59 0 -90 -18q-47 -24 -85 -90l-16 6
q40 118 86 172q64 78 169 78h32l21 -5l160 -25l17 -3l27 -6l75 -16l25 -4l30 -2l65 -3h151h96l-72 -137q-102 0 -240 -26q-93 -18 -157 -42q-171 -68 -287 -183q-21 -22 -38.5 -43t-36.5 -48q-33 -48 -58 -105q-18 -45 -47 -143q-2 -12 -4 -24.5t-2 -26.5q0 -93 50 -132.5
t154 -92.5q34 -13 82 -28l53 -12l60 -14q138 -21 270 -21q122 0 225 14l59 7l52 10q57 11 110 28zM610 -515l75 103l115 -81l-79 -99zM503 -352l78 97l113 -78l-78 -99zM700 -364l75 97l115 -78l-78 -99z" />
    <glyph glyph-name="afii62961" unicode="&#x686;" horiz-adv-x="1060" arabic-form="final" 
d="M763 87q-60 -10 -111 -23q-45 -8 -69 -19q-171 -68 -287 -183q-21 -22 -38.5 -43t-36.5 -48q-33 -48 -58 -105q-18 -45 -47 -143q-2 -12 -4 -24.5t-2 -26.5q0 -93 62 -132.5t166 -92.5q34 -13 82 -28l53 -12l60 -14q138 -21 270 -21q122 0 225 14l59 7l52 10
q57 11 110 28l-2 -29l-343 -154q-98 -42 -130 -53q-49 -9 -104 -9q-129 0 -265.5 42t-205.5 110q-47 46 -87 127q-52 111 -52 144q0 69 10 128.5t40 137.5q56 153 158 261q73 79 171 132l105 56q-42 15 -116.5 28.5t-138.5 13.5q-59 0 -90 -18q-47 -24 -85 -90l-16 6
q40 118 86 172q64 78 169 78h32l21 -5l160 -25l17 -3l27 -6l75 -16l25 -4l30 -2l65 -3h247l-72 -137q-37 0 -90 -8l-76 -10q0 -37 51 -70q29 -16 60 -23q33 -7 73 -7h60v-152h-78q-72 0 -132.5 31.5t-81.5 88.5q-10 24 -10 68v31zM547 -510l76 103l115 -83l-79 -97z
M440 -347l78 97l113 -79l-78 -98zM637 -360l76 98l115 -79l-78 -98z" />
    <glyph glyph-name="afii62959" unicode="&#x686;" horiz-adv-x="1130" arabic-form="initial" 
d="M1154 172l-74 -141q-46 8 -98 13l-96 5l-75 -3q-17 0 -26.5 -0.5t-44.5 -6.5q-66 -10 -97 -24q-65 -25 -173 -78q-88 -42 -157 -66q-91 -28 -185 -28h-138v152h138q70 0 144 13.5t164 44.5q156 52 170 87q-44 27 -141 59q-44 14 -88 22t-81 8l-32 -2l-35 -4
q-78 -16 -124.5 -53t-94.5 -117l-15 6q59 141 143 224q97 90 234 90q87 0 168 -28q9 -4 46.5 -19.5t97.5 -42.5q81 -35 168 -57l142 -30zM588 -435l75 104l114 -83l-78 -99zM481 -273l78 98l111 -78l-76 -99zM678 -285l74 98l115 -78l-78 -99z" />
    <glyph glyph-name="afii62960" unicode="&#x686;" horiz-adv-x="1151" arabic-form="medial" 
d="M1155 214l-61 -147l-58 3l-37 1l-43 -1h-42q10 -32 42 -51q46 -24 120 -24h92v-152h-114q-86 0 -145 42q-37 28 -60 84l-7 41l-2 52q-27 -3 -54 -8t-59 -15q-37 -8 -69 -25l-171 -86l-42 -19l-45 -18l-86 -28l-40 -8l-46 -8l-50 -3l-49 -1h-139v152h139q70 0 147 13
q37 6 77.5 16t82.5 25q166 50 178 87q-31 16 -67.5 31.5t-72.5 26.5l-52 14l-47 12q-19 4 -42 6.5t-43 2.5l-30 -2q-10 0 -29 -4q-39 -9 -70.5 -22.5t-54.5 -33.5q-43 -32 -94 -114l-14 6q58 142 142 224q97 90 234 90q92 0 188 -34l203 -72l84 -25l153 -19l74 -6zM588 -485
l75 103l114 -83l-78 -98zM481 -323l78 98l111 -79l-76 -98zM678 -335l74 97l115 -78l-78 -98z" />
    <glyph glyph-name="afii57508" unicode="&#x698;" horiz-adv-x="802" arabic-form="isolated" 
d="M783 77l-3 -68q0 -18 -2 -36.5t-5 -29.5q-11 -63 -31 -121q-30 -87 -89 -163q-33 -47 -77 -83q-25 -24 -61.5 -50.5t-85.5 -56.5q-85 -54 -132 -68q-49 12 -148 62q-66 34 -151 87l-72 43l8 13l58 -26l79 -31q72 -22 117 -22h15l11 1q4 0 16 2.5t26 7.5t31.5 11.5
t39.5 15.5q53 22 99.5 49t88.5 59q55 40 97 83q39 41 70 94l23 53q12 34 12 64l-1 23q0 10 -4 17q-2 16 -18 38q-36 60 -52 78l-79 85l63 192q34 -30 61 -66l41 -59q19 -28 38 -73q7 -27 12 -58.5t5 -66.5zM496 686l-82 -131l-142 89l80 125zM743 731l-81 -130l-143 88
l80 125zM551 904l-81 -131l-143 89l80 125z" />
    <glyph glyph-name="afii62962" unicode="&#x698;" horiz-adv-x="906" arabic-form="final" 
d="M915 -157h-82q-21 0 -60 13l-74 33l-23 -4q0 -60 -7 -100q-10 -60 -40 -110q-33 -62 -161 -168t-156 -106q-45 0 -99.5 24.5t-116.5 75.5q-96 76 -152 156l14 8q47 -60 106 -103q66 -49 119 -49q26 0 62 13t78 39q77 44 203 166q115 115 115 140q0 27 -32 82l-33 54
l-50 81q-8 16 -13 27.5t-6 17.5l12 67q13 65 26 78l42 -63l31 -50l36 -64q16 -21 80 -61q76 -45 128 -45h53v-152zM401 567l-81 -131l-143 89l80 125zM648 613l-81 -131l-143 89l80 124zM456 785l-81 -130l-143 88l80 125z" />
    <glyph glyph-name="afii57567" unicode="&#x6a9;" horiz-adv-x="2035" arabic-form="isolated" 
d="M2039 1185l-66 -148q-408 -134 -668 -240q-298 -120 -298 -165q0 -22 165 -108q280 -148 280 -415q0 -82 -33 -133q-25 -39 -95 -89q-120 -89 -373 -146q-247 -57 -495 -57q-416 0 -416 299q0 103 60 259l25 -7q-25 -69 -25 -154q0 -96 115 -159.5t293 -63.5
q355 0 652 107q248 90 248 151q0 56 -106 156q-99 91 -192 134q-103 48 -125 74t-22 100q0 93 23 133q20 38 206 136q298 157 847 336z" />
    <glyph glyph-name="afii62964" unicode="&#x6a9;" horiz-adv-x="1998" arabic-form="final" 
d="M2068 -154h-157q-45 0 -95 35q-42 29 -155 132l-129 118q-89 76 -165 120q9 -32 9 -68q0 -174 -118 -306q-70 -78 -304 -135q-237 -58 -498 -58q-416 0 -416 299q0 103 60 259l25 -7q-25 -69 -25 -154q0 -96 115 -159.5t293 -63.5q293 0 544 75q291 86 291 220
q0 80 -120 179q-116 95 -255 135q-101 137 -101 212q0 70 52.5 134.5t196.5 165.5q273 192 765 415l-43 -150q-455 -217 -706 -373q-222 -138 -222 -185q0 -37 116 -83q221 -86 425 -241q45 -34 285 -244q145 -127 192 -127h140v-145z" />
    <glyph glyph-name="afii52305" unicode="&#x6a9;" horiz-adv-x="771" arabic-form="initial" 
d="M314 -66q-36 -53 -102 -76q-47 -15 -99 -15h-118v152h113q36 0 82 7.5t77 28.5l21 18l27 31q10 12 21 37q-6 11 -13.5 22.5t-17.5 24.5l-47 65l-81 99l-38 -31l-66 120q-49 94 -52 104q0 23 8.5 67t24.5 103q29 118 51 141l219 66l384 118l222 65q-4 -28 -25.5 -93.5
t-35.5 -79.5l-736 -225q-18 -4 -18 -27q0 -9 2 -10l147 -215l78 -114q37 -60 37 -153q0 -61 -17 -125t-48 -105z" />
    <glyph glyph-name="afii52306" unicode="&#x6a9;" horiz-adv-x="734" arabic-form="medial" 
d="M70 659q10 -22 36 -58l64 -98l144 -201l60 -82l46 -61q24 -34 45.5 -59.5t39.5 -41.5q71 -63 132 -63h123v-152h-107l-55 2q-11 1 -23 3.5t-24 6.5q-66 14 -108 57l-73 84l-41 54l-42 63l5 -55q0 -37 -9 -70q-5 -19 -9 -27l-8 -18l-8 -14q-28 -48 -92 -73
q-39 -13 -92 -13h-82v152h48h36q79 0 115 14q61 23 61 84q0 34 -22 85l-75 113l-105 156q-53 86 -68 113q0 47 26 156.5t50 130.5l817 175q-1 -16 -6.5 -34t-9 -27.5t-12.5 -27.5q-24 -56 -39 -74l-724 -162q-18 -8 -20 -21q0 -7 6 -17z" />
    <glyph glyph-name="afii57509" unicode="&#x6af;" horiz-adv-x="1364" arabic-form="isolated" 
d="M834 -66q-36 -53 -103 -76q-564 -59 -715 41l-28 35l-28 74l-16 125l4 98l29 1l23 -105q63 -108 148 -119q84 -9 580 -6l42 13l36 29q62 57 -213 373q-49 94 -51 104q0 23 8 67t24 103q29 118 52 141l10 3l592 181l222 65q-4 -28 -25.5 -93.5t-35.5 -79.5l-736 -225
q-18 -4 -18 -27q0 -9 3 -10l146 -215l78 -114q37 -60 37 -153q0 -61 -17.5 -125t-47.5 -105zM636 933l27 64q-4 -15 -24 -58l173 54q19 7 276 101l165 59l130 44q-49 -24 -3 2l68 120l6 20l7 15l-85 -31l34 13l-79 -31l-138 -56l-506 -197z" />
    <glyph glyph-name="afii62967" unicode="&#x6af;" horiz-adv-x="1003" arabic-form="final" 
d="M360 659q11 -22 35 -58l66 -98l143 -201l61 -82l45 -61q24 -34 46 -59.5t40 -41.5q70 -63 132 -63h122v-152h-107l-55 2q-11 1 -23 3.5t-24 6.5q-66 14 -108 57l-73 84l-41 54l-42 63l5 -55q0 -37 -10 -70q-3 -19 -8 -27l-7 -18l-9 -14q-27 -48 -81 -79l-82 -12l-289 -3
q-66 21 -95 72l-17 59l-6 61v95l-2 32l25 1q33 -155 111 -168q312 -20 369 22q60 23 60 84q0 34 -20 85l-76 113l-104 156q-55 86 -69 113q0 47 26 156.5t50 130.5l817 175q-1 -16 -7 -34t-9 -27.5t-13 -27.5q-22 -56 -38 -74l-724 -162q-18 -8 -20 -21q0 -7 6 -17zM354 928
l35 59q-6 -14 -31 -54l177 34q21 4 287 67l172 38l132 29q-51 -18 -2 2l82 112l8 18l9 16l-88 -23l36 11l-83 -23l-144 -40l-526 -134z" />
    <glyph glyph-name="afii62965" unicode="&#x6af;" horiz-adv-x="768" arabic-form="initial" 
d="M314 -66q-36 -53 -102 -76q-47 -15 -99 -15h-118v152h113q36 0 82 7.5t77 28.5l21 18l27 31q10 12 21 37q-6 11 -13.5 22.5t-17.5 24.5l-47 65l-81 99l-38 -31l-66 120q-49 94 -52 104q0 23 8.5 67t24.5 103q29 118 51 141l219 66l384 118l222 65q-4 -28 -25.5 -93.5
t-35.5 -79.5l-736 -225q-18 -4 -18 -27q0 -9 2 -10l147 -215l78 -114q37 -60 37 -153q0 -61 -17 -125t-48 -105zM101 921l30 62q-5 -15 -28 -57l176 47q20 6 281 86l168 50l131 39q-49 -22 -1 2l73 117l7 19l7 15l-85 -27l35 12l-82 -29l-140 -49l-516 -171z" />
    <glyph glyph-name="afii62966" unicode="&#x6af;" horiz-adv-x="724" arabic-form="medial" 
d="M70 659q10 -22 36 -58l64 -98l144 -201l60 -82l46 -61q24 -34 45.5 -59.5t39.5 -41.5q71 -63 132 -63h123v-152h-107l-55 2q-11 1 -23 3.5t-24 6.5q-66 14 -108 57l-73 84l-41 54l-42 63l5 -55q0 -37 -9 -70q-5 -19 -9 -27l-8 -18l-8 -14q-28 -48 -92 -73
q-39 -13 -92 -13h-82v152h48h36q79 0 115 14q61 23 61 84q0 34 -22 85l-75 113l-105 156q-53 86 -68 113q0 47 26 156.5t50 130.5l817 175q-1 -16 -6.5 -34t-9 -27.5t-12.5 -27.5q-24 -56 -39 -74l-724 -162q-18 -8 -20 -21q0 -7 6 -17zM64 928l34 59q-6 -14 -31 -54l178 34
q20 4 287 67l171 38l132 29q-50 -18 -1 2l82 112l9 18l7 16l-87 -23l36 11l-83 -23l-144 -40l-527 -134z" />
    <glyph glyph-name="afii57555" unicode="&#x6cc;" horiz-adv-x="2396" arabic-form="isolated" 
d="M2362 167l1 -10q0 -42 -18.5 -123.5t-45.5 -121.5q-21 -29 -119 -79q-64 -32 -133 -56t-164 -50q-217 -51 -464 -51l-115 2l-181 9q-78 0 -167 13l-97 17q-204 33 -376 98q-130 49 -221 113l-53 38l-60 45q-60 48 -98 90l41 12l132 -64l129 -59q154 -62 460 -109
q74 -12 154.5 -23.5t143.5 -11.5q43 0 106 -2q143 -9 179 -9q285 0 498 46q84 16 156 38q35 12 64.5 24t58.5 28q82 40 94 74q0 16 -51 36l-16 6l-32 11l-64 15q-84 16 -164 51q-95 41 -105 75v15q0 17 3 47t12 75q15 88 24 106q56 129 185 207q108 68 210 68q54 0 76 -22
q8 -8 14 -35l3 -56q0 -60 -15 -81q-14 6 -29 10q-3 1 -29 8q-16 3 -29.5 4.5t-31.5 1.5q-117 0 -225 -92q-87 -76 -82 -104q10 -39 117 -77l195 -57q109 -37 129 -90z" />
    <glyph glyph-name="afii52364" unicode="&#x6cc;" horiz-adv-x="2315" arabic-form="final" 
d="M2327 -157h-27q-180 0 -256 -24q-50 -15 -44 -38q15 -6 48 -19t63 -27l91 -41q93 -43 116 -93v-10q0 -29 -16 -98q-20 -91 -43 -123q-21 -33 -121 -84q-125 -65 -296 -105q-219 -51 -464 -51l-116 2l-182 9q-78 0 -166 13l-98 18q-210 31 -374 97q-56 20 -119 52l-41 20
q-25 16 -61 41q-62 41 -113 84q-31 24 -58 49l-21 21t-19 21l40 11l133 -63l129 -60q152 -62 460 -108t584 -46q144 0 266 10t231 33q162 31 277 91q81 41 94 76q0 14 -42 43q-38 24 -88 43l-139 53q-67 29 -71 59q-2 20 25.5 98t40.5 98q18 27 84 59q89 41 190 41h103v-152
z" />
    <glyph glyph-name="afii52399" unicode="&#x621;" horiz-adv-x="570" arabic-form="isolated" 
d="M409 785q-10 -49 -23 -62.5t-61 -28.5l-288 -87q22 49 42 67.5t74 37.5q-76 39 -76 89q0 46 86 133q65 66 124 66q63 0 63 -60q0 -29 -32 -87q-64 42 -96 42q-41 0 -79 -44q106 -86 166 -86q68 0 100 20z" />
    <glyph glyph-name="afii62757" unicode="&#x626;" horiz-adv-x="414" arabic-form="initial" 
d="M279 135q0 -152 -65 -229q-55 -61 -145 -61h-77v148h77q26 0 52.5 -1t54.5 7q54 22 54 59l-3 13q0 9 -8 22l-47 74l-12 26l-2 21l1 21q1 9 12 22l59 92q30 -70 38 -112q11 -41 11 -102zM377 566q-13 -59 -37 -71l-299 -85q9 35 29 55q18 17 80 41q-38 18 -56 38
q-14 19 -14 47q0 19 18 47q42 56 88.5 92t87.5 36q23 0 40 -18q16 -15 16 -43q0 -25 -31 -73q-55 36 -87 36q-27 0 -74 -36l40 -34q5 -3 16.5 -10.5t24.5 -14.5q39 -23 74 -23l34 4z" />
    <glyph glyph-name="afii62758" unicode="&#x626;" horiz-adv-x="400" arabic-form="medial" 
d="M466 -152h-151q-18 0 -57 41q-34 46 -34 83q-21 -43 -64 -79q-53 -45 -103 -45h-77v131h77q31 0 83 29q60 37 124 124l14 -5q9 -73 16 -90q21 -58 80 -58h92v-131zM408 377q-13 -60 -37 -71l-299 -85q10 37 28 53.5t82 42.5q-39 16 -57 37q-15 20 -15 47q0 12 3 19.5
t6 14t9 14.5q43 55 91.5 91.5t85.5 36.5q23 0 39 -17q18 -15 18 -44q0 -27 -32 -73q-56 36 -87 36q-28 0 -73 -36q36 -34 79.5 -58t73.5 -24h15l19 4q26 2 29 4z" />
    <glyph glyph-name="afii57415" unicode="&#x627;" horiz-adv-x="308" arabic-form="isolated" 
d="M239 183v-12l-2 -41q0 -19 -4 -32l-4 -36v-13l-5 -16q-2 -28 -17 -75q-15 -65 -42 -123l-16 8l12 32l6 22l3 26l6 70l5 96q0 53 -20 178l-38 221l-20 143q0 38 26 87l17 29l22 35l8 -10l-3 -38v-30l15 -115l33 -213l12 -116z" />
    <glyph glyph-name="afii62760" unicode="&#x627;" horiz-adv-x="522" arabic-form="final" 
d="M550 -157h-47q-43 0 -99 20q-63 24 -103 66q-17 23 -29 42q-9 19 -16 45q-11 46 -11 125v42v16v12v12v9q0 16 -0.5 33.5t-3.5 33.5q0 27 -3.5 52t-11.5 70l-29 133l-12 60q-4 26 -5 29l-6 18l52 103q2 -1 18 -55l8 -50l6 -46l24 -180q0 -114 17 -261q0 -36 32 -79
q25 -31 60 -56l28 -16l33 -13q33 -13 56 -13h42v-152z" />
    <glyph glyph-name="afii57416" unicode="&#x628;" horiz-adv-x="1855" arabic-form="isolated" 
d="M1835 208l2 -19l1 -22q0 -64 -21 -139l-18 -52q-7 -11 -64 -29l-89 -23l-90 -21q-45 -10 -124 -23l-174 -24l-191 -15l-96 -2l-87 -4q-237 0 -424 40q-211 47 -302 136q-41 38 -60 100q-7 31 -12 67q-4 36 -4.5 50t-0.5 22q0 54 22 111q18 52 37 78l18 -9l-15 -38l-8 -27
q-12 -50 -12 -80l4 -24q8 -66 43 -104q29 -36 92 -65q34 -16 83 -31q46 -14 112 -28l61 -8q13 -2 24 -3t32 -7q24 -2 51.5 -4t57.5 -2l135 -4l81 -1l62 -2q141 0 261 12l82 2l179 27q50 6 91 13l104 18l64 13q36 8 43 26q-5 45 -23 82q-15 38 -44 72l-73 78l15 68
q13 47 28 69q32 -24 78 -96q54 -87 69 -178zM1203 -419l-84 -128l-139 84l78 128z" />
    <glyph glyph-name="afii62763" unicode="&#x628;" horiz-adv-x="1843" arabic-form="final" 
d="M1891 -157h-46q-84 0 -143 46q-35 29 -61 80q-45 -50 -100 -78q-11 -6 -23.5 -12t-27.5 -11.5t-34 -11.5t-41 -12q-44 -12 -243.5 -29t-297.5 -17q-17 0 -51 0.5t-50 0.5l-149 6q-54 0 -90 5.5t-89 18.5q-172 36 -277 140q-36 34 -54.5 96.5t-18.5 145.5v21l4 30l3 27
l9 26q14 50 32 77l18 -6l-8 -22l-12 -42q-10 -43 -10 -77l2 -25q8 -62 42.5 -107t95.5 -74q30 -14 80 -29q42 -10 106 -23l107 -16l49 -5l48 -1l284 -5q21 0 72.5 2t59.5 2q30 0 67 3t83 8q165 15 216 30q97 22 128 33q58 23 74 54l30 71l29 63l13 -12l-12 -35
q-12 -46 -12 -78q23 -43 47 -66q48 -40 125 -40h26v-152zM1163 -432l-85 -129l-139 84l82 130z" />
    <glyph glyph-name="afii62761" unicode="&#x628;" horiz-adv-x="292" arabic-form="initial" 
d="M194 197q0 -70 -27 -174.5t-54 -141.5q-6 -5 -58 -25q-56 -13 -83 -13h-41v152h58q34 0 48 1t39 6q53 8 61 35q-4 61 -22 109q-16 51 -42 90l-60 79q1 20 19 65l15 37q6 11 20 28q36 -21 78 -93q49 -84 49 -155zM187 -437l-78 -126l-143 85l78 124z" />
    <glyph glyph-name="afii62762" unicode="&#x628;" horiz-adv-x="444" arabic-form="medial" 
d="M510 -157h-64q-84 0 -144 46q-34 27 -62 80q-25 -41 -76 -80q-68 -46 -126 -46h-46v152h47q30 0 60.5 6.5t65.5 23.5q66 31 81 67l24 54l35 80l13 -12l-12 -35q-12 -46 -12 -78q23 -43 47 -66q48 -40 125 -40h44v-152zM368 -372l-80 -130l-145 85l82 124z" />
    <glyph glyph-name="afii57417" unicode="&#x629;" horiz-adv-x="345" arabic-form="isolated" 
d="M323 610q0 -15 -15 -56q-21 -54 -45 -57q-21 0 -56 31.5t-48 51.5q10 28 30 66q24 46 35 51q9 0 49 -32q47 -34 50 -55zM142 543q7 -22 -19 -79q-14 -31 -26 -31q-12 1 -42 19q-66 36 -71 56q-5 9 23 61q22 42 31 57q17 -9 47 -31q37 -28 57 -52zM352 95q0 -73 -27 -136
q-32 -73 -92 -112q-32 -7 -65.5 -19.5t-57.5 -12.5q-46 0 -78 44.5t-32 106.5q0 59 54.5 194t94.5 184q110 -57 153 -105q50 -56 50 -144zM241 23q0 42 -34 76t-78 38q-22 -21 -33 -45.5t-11 -50.5q0 -20 37 -37q5 -2 17 -5h15q28 0 51.5 4.5t35.5 19.5z" />
    <glyph glyph-name="afii62764" unicode="&#x629;" horiz-adv-x="606" arabic-form="final" 
d="M343 777q0 -17 -15 -56q-21 -56 -45 -57q-21 0 -56 30.5t-48 52.5q10 26 30 66q24 46 35 49q9 0 49 -30q47 -36 50 -55zM162 709q7 -21 -19 -78q-14 -32 -26 -32q-12 2 -42 18q-66 38 -71 58q-5 8 23 61q22 41 31 57q17 -9 47 -33q37 -27 57 -51zM606 -156
q-122 0 -188 67q-53 56 -101 200q-59 -77 -67 -84q-51 -42 -144 -42q-105 0 -105 66q0 90 65 164q47 54 124 98q38 19 77 37q2 6 2 20q0 6 -1 21.5t-1 27.5q0 20 1 33t6 36q2 13 8.5 27.5t14.5 14.5q4 0 9.5 -11t9.5 -37q21 -130 37 -192q32 -123 85 -192q67 -90 168 -102
v-152zM301 177q-8 32 -15 65t-10 50q-18 -42 -74 -87q-46 -34 -72 -53q9 -3 21 -4t30 -1q24 0 42 4t31.5 8.5t46.5 17.5z" />
    <glyph glyph-name="afii57418" unicode="&#x62a;" horiz-adv-x="1798" arabic-form="isolated" 
d="M1167 573l-83 -128l-144 82l85 125zM951 573l-77 -128l-145 82l80 125zM1777 208l2 -19v-22q0 -34 -5 -68q-4 -31 -16 -71l-17 -52q-8 -11 -64 -29l-90 -23l-90 -21q-42 -10 -125 -23l-173 -24l-190 -15l-97 -2l-86 -4q-238 0 -425 40q-211 47 -302 136q-41 38 -59 102
q-9 32 -13 65.5t-4 71.5q0 57 22 111q16 52 36 78l18 -9l-15 -38l-7 -27q-12 -50 -12 -80l2 -24q8 -64 44 -104q28 -36 93.5 -67t192.5 -57l62 -8q14 -2 24 -3t32 -7q24 -2 51.5 -4t58.5 -2l135 -4l81 -1l62 -2q140 0 260 12l83 2l177 27l93 13l104 18l63 13q36 8 43 26
q-3 23 -7.5 41.5t-14.5 40.5q-15 40 -45 72l-72 78l14 68q13 47 28 69q30 -24 79 -96q53 -84 69 -178z" />
    <glyph glyph-name="afii62767" unicode="&#x62a;" horiz-adv-x="1882" arabic-form="final" 
d="M1194 573l-81 -128l-144 82l82 125zM978 573l-78 -128l-143 82l80 125zM1891 -157h-46q-84 0 -143 46q-35 29 -61 80q-45 -50 -100 -78q-11 -6 -23.5 -12t-27.5 -11.5t-34 -11.5t-41 -12q-44 -12 -243.5 -29t-297.5 -17q-17 0 -51 0.5t-50 0.5l-149 6q-54 0 -90 5.5
t-89 18.5q-172 36 -277 140q-36 34 -54.5 96.5t-18.5 145.5v21l4 30l3 27l9 26q14 50 32 77l18 -6l-8 -22l-12 -42q-10 -43 -10 -77l2 -25q8 -62 42.5 -107t95.5 -74q30 -14 80 -29q42 -10 106 -23l107 -16l49 -5l48 -1l284 -5q21 0 72.5 2t59.5 2q30 0 67 3t83 8
q165 15 216 30q97 22 128 33q58 23 74 54l30 71l29 63l13 -12l-12 -35q-12 -46 -12 -78q23 -43 47 -66q48 -40 125 -40h26v-152z" />
    <glyph glyph-name="afii62765" unicode="&#x62a;" horiz-adv-x="328" arabic-form="initial" 
d="M372 633l-83 -127l-145 86l84 125zM158 633l-80 -127l-144 86l83 125zM277 197q0 -73 -26 -174q-7 -24 -13 -46.5t-14 -41t-14 -31.5t-14 -23l-33 -16q-63 -22 -108 -22h-71v152h88q48 0 93.5 7.5t54.5 34.5q-15 126 -64 199l-62 79l26 67l6 16l10 19l8 16l10 12
q33 -22 74 -93q49 -84 49 -155z" />
    <glyph glyph-name="afii62766" unicode="&#x62a;" horiz-adv-x="444" arabic-form="medial" 
d="M488 495l-81 -125l-144 85l81 123zM274 495l-80 -125l-144 85l84 123zM510 -157h-64q-84 0 -144 46q-34 27 -62 80q-25 -41 -76 -80q-68 -46 -126 -46h-46v152h47q30 0 60.5 6.5t65.5 23.5q66 31 81 67l24 54l35 80l13 -12l-12 -35q-12 -46 -12 -78q23 -43 47 -66
q48 -40 125 -40h44v-152z" />
    <glyph glyph-name="afii57419" unicode="&#x62b;" horiz-adv-x="1645" arabic-form="isolated" 
d="M1561 256q0 -217 -195 -307q-333 -154 -736 -154q-260 0 -402 74t-142 211q0 95 115 275l30 -10q-63 -102 -63 -160q0 -105 130 -164.5t360 -59.5q311 0 605 91q232 72 232 131q0 17 -9 29l-51 91q-10 17 -10 44q0 23 18 64l36 82q82 -154 82 -237zM838 751l-76 -125
l-118 83l73 126zM986 532l-77 -125l-125 86l-72 -111l-124 89l78 127l128 -90l66 113z" />
    <glyph glyph-name="afii62770" unicode="&#x62b;" horiz-adv-x="1721" arabic-form="final" 
d="M1791 -154h-168q-53 0 -92 31q-43 34 -48 87q-239 -209 -786 -209q-605 0 -605 332q0 104 94 282l27 -12q-49 -98 -49 -164q0 -124 161 -200t428 -76q265 0 472 52q219 54 253 142q41 -120 145 -120h168v-145zM859 733l-76 -126l-123 81l79 133zM1014 524l-76 -131
l-131 79l-68 -108l-126 81l77 130l124 -79l80 108z" />
    <glyph glyph-name="afii62768" unicode="&#x62b;" horiz-adv-x="453" arabic-form="initial" 
d="M317 167q0 -321 -233 -321h-84v145h84q62 0 118 25q61 28 61 66q0 19 -12 39l-52 84q-17 27 -17 51q0 25 15 47l66 101q54 -119 54 -237zM289 1088l-74 -133l-123 76l74 137zM446 874l-74 -131l-127 80l-66 -119l-131 89l74 133l132 -82l66 111z" />
    <glyph glyph-name="afii62769" unicode="&#x62b;" horiz-adv-x="469" arabic-form="medial" 
d="M539 -154h-168q-27 0 -63 47t-38 91q-72 -138 -186 -138h-84v145h84q107 0 230 169l15 -5q13 -93 30 -124q23 -40 77 -40h103v-145zM314 721l-78 -125l-118 75l74 134zM464 507l-73 -133l-128 89l-73 -116l-119 86l74 128l125 -84l70 114z" />
    <glyph glyph-name="afii57420" unicode="&#x62c;" horiz-adv-x="1020" arabic-form="isolated" 
d="M1225 -769l-2 -29l-343 -154q-98 -42 -130 -53q-49 -9 -104 -9q-129 0 -265.5 42t-205.5 110q-47 46 -87 127q-28 63 -28 144q0 69 10 128.5t40 137.5q56 153 158 261q73 79 171 132l105 56q-42 15 -116.5 28.5t-138.5 13.5q-59 0 -90 -18q-47 -24 -85 -90l-16 6
q40 118 86 172q64 78 169 78h32l21 -5l160 -25l17 -3l27 -6l75 -16l25 -4l30 -2l65 -3h247l-72 -137q-102 0 -240 -26q-93 -18 -157 -42q-171 -68 -287 -183q-21 -22 -38.5 -43t-36.5 -48q-33 -48 -58 -105q-18 -45 -47 -143q-2 -12 -4 -24.5t-2 -26.5q0 -93 50 -132.5
t154 -92.5q34 -13 82 -28l53 -12l60 -14q138 -21 270 -21q122 0 225 14l59 7l52 10q57 11 110 28zM475 -425l78 98l113 -79l-78 -99z" />
    <glyph glyph-name="afii62773" unicode="&#x62c;" horiz-adv-x="1024" arabic-form="final" 
d="M763 87q-60 -10 -111 -23q-45 -8 -69 -19q-171 -68 -287 -183q-21 -22 -38.5 -43t-36.5 -48q-33 -48 -58 -105q-18 -45 -47 -143q-2 -12 -4 -24.5t-2 -26.5q0 -93 62 -132.5t166 -92.5q34 -13 82 -28l53 -12l60 -14q138 -21 270 -21q122 0 225 14l59 7l52 10
q57 11 110 28l-2 -29l-343 -154q-98 -42 -130 -53q-49 -9 -104 -9q-129 0 -265.5 42t-205.5 110q-47 46 -87 127q-52 111 -52 144q0 69 10 128.5t40 137.5q56 153 158 261q73 79 171 132l105 56q-42 15 -116.5 28.5t-138.5 13.5q-59 0 -90 -18q-47 -24 -85 -90l-16 6
q40 118 86 172q64 78 169 78h32l21 -5l160 -25l17 -3l27 -6l75 -16l25 -4l30 -2l65 -3h247l-72 -137q-37 0 -90 -8l-76 -10q0 -37 51 -70q29 -16 60 -23q33 -7 73 -7h60v-152h-78q-72 0 -132.5 31.5t-81.5 88.5q-10 24 -10 68v31zM484 -419l75 103l115 -83l-79 -97z" />
    <glyph glyph-name="afii62771" unicode="&#x62c;" horiz-adv-x="1130" arabic-form="initial" 
d="M1154 172l-74 -141q-46 8 -98 13l-96 5l-75 -3q-17 0 -26.5 -0.5t-44.5 -6.5q-66 -10 -97 -24q-65 -25 -173 -78q-88 -42 -157 -66q-91 -28 -185 -28h-138v152h138q70 0 144 13.5t164 44.5q156 52 170 87q-44 27 -141 59q-44 14 -88 22t-81 8l-32 -2l-35 -4
q-78 -16 -124.5 -53t-94.5 -117l-15 6q59 141 143 224q97 90 234 90q87 0 168 -28q9 -4 46.5 -19.5t97.5 -42.5q81 -35 168 -57l142 -30zM721 -337l-81 -131l-144 86l82 125z" />
    <glyph glyph-name="afii62772" unicode="&#x62c;" horiz-adv-x="1161" arabic-form="medial" 
d="M1155 214l-61 -147l-58 3l-37 1l-43 -1h-42q10 -32 42 -51q46 -24 120 -24h92v-152h-114q-86 0 -145 42q-37 28 -60 84l-7 41l-2 52q-27 -3 -54 -8t-59 -15q-37 -8 -69 -25l-171 -86l-42 -19l-45 -18l-86 -28l-40 -8l-46 -8l-50 -3l-49 -1h-139v152h139q70 0 147 13
q37 6 77.5 16t82.5 25q166 50 178 87q-31 16 -67.5 31.5t-72.5 26.5l-52 14l-47 12q-19 4 -42 6.5t-43 2.5l-30 -2q-10 0 -29 -4q-39 -9 -70.5 -22.5t-54.5 -33.5q-43 -32 -94 -114l-14 6q58 142 142 224q97 90 234 90q92 0 188 -34l203 -72l84 -25l153 -19l74 -6zM722 -337
l-79 -131l-145 86l82 125z" />
    <glyph glyph-name="afii57421" unicode="&#x62d;" horiz-adv-x="1020" arabic-form="isolated" 
d="M1225 -769l-2 -29l-343 -154q-98 -42 -130 -53q-49 -9 -104 -9q-129 0 -265.5 42t-205.5 110q-47 46 -87 127q-28 63 -28 144q0 69 10 128.5t40 137.5q56 153 158 261q73 79 171 132l105 56q-42 15 -116.5 28.5t-138.5 13.5q-59 0 -90 -18q-47 -24 -85 -90l-16 6
q40 118 86 172q64 78 169 78h32l21 -5l160 -25l17 -3l27 -6l75 -16l25 -4l30 -2l65 -3h247l-72 -137q-102 0 -240 -26q-93 -18 -157 -42q-171 -68 -287 -183q-21 -22 -38.5 -43t-36.5 -48q-33 -48 -58 -105q-18 -45 -47 -143q-2 -12 -4 -24.5t-2 -26.5q0 -93 50 -132.5
t154 -92.5q34 -13 82 -28l53 -12l60 -14q138 -21 270 -21q122 0 225 14l59 7l52 10q57 11 110 28z" />
    <glyph glyph-name="afii62776" unicode="&#x62d;" horiz-adv-x="1024" arabic-form="final" 
d="M763 87q-60 -10 -111 -23q-45 -8 -69 -19q-171 -68 -287 -183q-21 -22 -38.5 -43t-36.5 -48q-33 -48 -58 -105q-18 -45 -47 -143q-2 -12 -4 -24.5t-2 -26.5q0 -93 62 -132.5t166 -92.5q34 -13 82 -28l53 -12l60 -14q138 -21 270 -21q122 0 225 14l59 7l52 10
q57 11 110 28l-2 -29l-343 -154q-98 -42 -130 -53q-49 -9 -104 -9q-129 0 -265.5 42t-205.5 110q-47 46 -87 127q-52 111 -52 144q0 69 10 128.5t40 137.5q56 153 158 261q73 79 171 132l105 56q-42 15 -116.5 28.5t-138.5 13.5q-59 0 -90 -18q-47 -24 -85 -90l-16 6
q40 118 86 172q64 78 169 78h32l21 -5l160 -25l17 -3l27 -6l75 -16l25 -4l30 -2l65 -3h247l-72 -137q-37 0 -90 -8l-76 -10q0 -37 51 -70q29 -16 60 -23q33 -7 73 -7h60v-152h-78q-72 0 -132.5 31.5t-81.5 88.5q-10 24 -10 68v31z" />
    <glyph glyph-name="afii62774" unicode="&#x62d;" horiz-adv-x="1130" arabic-form="initial" 
d="M1154 172l-74 -141q-46 8 -98 13l-96 5l-75 -3q-17 0 -26.5 -0.5t-44.5 -6.5q-66 -10 -97 -24q-65 -25 -173 -78q-88 -42 -157 -66q-91 -28 -185 -28h-138v152h138q70 0 144 13.5t164 44.5q156 52 170 87q-44 27 -141 59q-44 14 -88 22t-81 8l-32 -2l-35 -4
q-78 -16 -124.5 -53t-94.5 -117l-15 6q59 141 143 224q97 90 234 90q87 0 168 -28q9 -4 46.5 -19.5t97.5 -42.5q81 -35 168 -57l142 -30z" />
    <glyph glyph-name="afii62775" unicode="&#x62d;" horiz-adv-x="1161" arabic-form="medial" 
d="M1155 214l-61 -147l-58 3l-37 1l-43 -1h-42q10 -32 42 -51q46 -24 120 -24h92v-152h-114q-86 0 -145 42q-37 28 -60 84l-7 41l-2 52q-27 -3 -54 -8t-59 -15q-37 -8 -69 -25l-171 -86l-42 -19l-45 -18l-86 -28l-40 -8l-46 -8l-50 -3l-49 -1h-139v152h139q70 0 147 13
q37 6 77.5 16t82.5 25q166 50 178 87q-31 16 -67.5 31.5t-72.5 26.5l-52 14l-47 12q-19 4 -42 6.5t-43 2.5l-30 -2q-10 0 -29 -4q-39 -9 -70.5 -22.5t-54.5 -33.5q-43 -32 -94 -114l-14 6q58 142 142 224q97 90 234 90q92 0 188 -34l203 -72l84 -25l153 -19l74 -6z" />
    <glyph glyph-name="afii57422" unicode="&#x62e;" horiz-adv-x="1020" arabic-form="isolated" 
d="M1225 -769l-2 -29l-343 -154q-98 -42 -130 -53q-49 -9 -104 -9q-129 0 -265.5 42t-205.5 110q-47 46 -87 127q-28 63 -28 144q0 69 10 128.5t40 137.5q56 153 158 261q73 79 171 132l105 56q-42 15 -116.5 28.5t-138.5 13.5q-59 0 -90 -18q-47 -24 -85 -90l-16 6
q40 118 86 172q64 78 169 78h32l21 -5l160 -25l17 -3l27 -6l75 -16l25 -4l30 -2l65 -3h247l-72 -137q-102 0 -240 -26q-93 -18 -157 -42q-171 -68 -287 -183q-21 -22 -38.5 -43t-36.5 -48q-33 -48 -58 -105q-18 -45 -47 -143q-2 -12 -4 -24.5t-2 -26.5q0 -93 50 -132.5
t154 -92.5q34 -13 82 -28l53 -12l60 -14q138 -21 270 -21q122 0 225 14l59 7l52 10q57 11 110 28zM193 613l78 98l113 -79l-78 -99z" />
    <glyph glyph-name="afii62779" unicode="&#x62e;" horiz-adv-x="1024" arabic-form="final" 
d="M763 87q-60 -10 -111 -23q-45 -8 -69 -19q-171 -68 -287 -183q-21 -22 -38.5 -43t-36.5 -48q-33 -48 -58 -105q-18 -45 -47 -143q-2 -12 -4 -24.5t-2 -26.5q0 -93 62 -132.5t166 -92.5q34 -13 82 -28l53 -12l60 -14q138 -21 270 -21q122 0 225 14l59 7l52 10
q57 11 110 28l-2 -29l-343 -154q-98 -42 -130 -53q-49 -9 -104 -9q-129 0 -265.5 42t-205.5 110q-47 46 -87 127q-52 111 -52 144q0 69 10 128.5t40 137.5q56 153 158 261q73 79 171 132l105 56q-42 15 -116.5 28.5t-138.5 13.5q-59 0 -90 -18q-47 -24 -85 -90l-16 6
q40 118 86 172q64 78 169 78h32l21 -5l160 -25l17 -3l27 -6l75 -16l25 -4l30 -2l65 -3h247l-72 -137q-37 0 -90 -8l-76 -10q0 -37 51 -70q29 -16 60 -23q33 -7 73 -7h60v-152h-78q-72 0 -132.5 31.5t-81.5 88.5q-10 24 -10 68v31zM210 627l76 103l115 -81l-79 -99z" />
    <glyph glyph-name="afii62777" unicode="&#x62e;" horiz-adv-x="1130" arabic-form="initial" 
d="M470 847l-80 -128l-144 83l82 123zM1154 172l-74 -141q-46 8 -98 13l-96 5l-75 -3q-17 0 -26.5 -0.5t-44.5 -6.5q-66 -10 -97 -24q-65 -25 -173 -78q-88 -42 -157 -66q-91 -28 -185 -28h-138v152h138q70 0 144 13.5t164 44.5q156 52 170 87q-44 27 -141 59q-44 14 -88 22
t-81 8l-32 -2l-35 -4q-78 -16 -124.5 -53t-94.5 -117l-15 6q59 141 143 224q97 90 234 90q87 0 168 -28q9 -4 46.5 -19.5t97.5 -42.5q81 -35 168 -57l142 -30z" />
    <glyph glyph-name="afii62778" unicode="&#x62e;" horiz-adv-x="1161" arabic-form="medial" 
d="M470 847l-80 -128l-144 83l82 123zM1155 214l-61 -147l-58 3l-37 1l-43 -1h-42q10 -32 42 -51q46 -24 120 -24h92v-152h-114q-86 0 -145 42q-37 28 -60 84l-7 41l-2 52q-27 -3 -54 -8t-59 -15q-37 -8 -69 -25l-171 -86l-42 -19l-45 -18l-86 -28l-40 -8l-46 -8l-50 -3
l-49 -1h-139v152h139q70 0 147 13q37 6 77.5 16t82.5 25q166 50 178 87q-31 16 -67.5 31.5t-72.5 26.5l-52 14l-47 12q-19 4 -42 6.5t-43 2.5l-30 -2q-10 0 -29 -4q-39 -9 -70.5 -22.5t-54.5 -33.5q-43 -32 -94 -114l-14 6q58 142 142 224q97 90 234 90q92 0 188 -34
l203 -72l84 -25l153 -19l74 -6z" />
    <glyph glyph-name="afii57423" unicode="&#x62f;" horiz-adv-x="908" arabic-form="isolated" 
d="M830 178l-1 -19v-26q0 -12 -4 -17q-28 -83 -119 -175q-109 -112 -245 -150q-39 -10 -69 -10q-85 0 -144 65q-52 59 -88 183l-8 35l-6 47l-5 95v24l4 41l4 40l9 36l13 -8l-6 -54l-2 -66q0 -14 0.5 -29t4 -40.5t10.5 -49.5l9 -25q33 -90 123 -112l28 -6l31 -2h19l30 4
q10 1 18.5 3t26.5 7q7 2 22.5 7t34.5 12q31 13 54 27q51 29 103 80q32 29 39 68l9 67l-3 11l-91 169l-70 137l-26 38l-28 41q0 18 -2 29v26v23v31q0 17 2 22q8 -2 19 -20l6 -15q4 -7 10 -13l17 -39l14 -27l31 -58l34 -53l27 -42l29 -39l79 -137l29 -64z" />
    <glyph glyph-name="afii62780" unicode="&#x62f;" horiz-adv-x="1099" arabic-form="final" 
d="M1156 -157h-82q-49 0 -97 37q-13 9 -53 56l-30 41l-42 66q-7 9 -14 9q-6 0 -16 -6q-50 -69 -161 -137q-139 -82 -273 -82q-135 0 -194 109q-38 73 -38 200q0 88 29 174q17 60 51 132l11 -12l-18 -47l-19 -63q-8 -36 -12.5 -65t-4.5 -56l1 -27q5 -48 27 -84q23 -33 63 -57
q59 -32 149 -32q124 0 241 66q35 18 54 56l28 62l-2 11l-45 186l-31 151l-16 44l-16 47l7 30l9 45q11 42 17 50q9 -5 15 -23l2 -18l5 -14l26 -130l43 -187q5 -32 14 -66t18.5 -62t23.5 -57t33 -53q16 -22 64 -56l72 -46q55 -40 114 -40h47v-152z" />
    <glyph glyph-name="afii57424" unicode="&#x630;" horiz-adv-x="908" arabic-form="isolated" 
d="M830 178l-1 -19v-26q0 -12 -4 -17q-28 -83 -119 -175q-109 -112 -245 -150q-39 -10 -69 -10q-85 0 -144 65q-52 59 -88 183l-8 35l-6 47l-5 95v24l4 41l4 40l9 36l13 -8l-6 -54l-2 -66q0 -14 0.5 -29t4 -40.5t10.5 -49.5l9 -25q33 -90 123 -112l28 -6l31 -2h19l30 4
q10 1 18.5 3t26.5 7q7 2 22.5 7t34.5 12q31 13 54 27q51 29 103 80q32 29 39 68l9 67l-3 11l-91 169l-70 137l-26 38l-28 41q0 18 -2 29v80q0 17 2 22q8 -2 19 -20l6 -15q4 -7 10 -13l17 -39l14 -27l31 -58l34 -53l27 -42l29 -39l79 -137l29 -64zM499 1178l-82 -131l-143 89
l81 125z" />
    <glyph glyph-name="afii62781" unicode="&#x630;" horiz-adv-x="1099" arabic-form="final" 
d="M1156 -157h-82q-49 0 -97 37q-13 9 -53 56l-30 41l-42 66q-7 9 -14 9q-6 0 -16 -6q-50 -69 -161 -137q-139 -82 -273 -82q-135 0 -194 109q-38 73 -38 200q0 88 29 174q17 60 51 132l11 -12l-18 -47l-19 -63q-8 -36 -12.5 -65t-4.5 -56l1 -27q5 -48 27 -84q23 -33 63 -57
q59 -32 149 -32q124 0 241 66q35 18 54 56l28 62l-2 11l-45 186l-31 151l-16 44l-16 47l7 30l9 45q11 42 17 50q9 -5 15 -23l2 -18l5 -14l26 -130l43 -187q5 -32 14 -66t18.5 -62t23.5 -57t33 -53q16 -22 64 -56l72 -46q55 -40 114 -40h47v-152zM668 1169l-81 -130l-143 88
l80 125z" />
    <glyph glyph-name="afii57425" unicode="&#x631;" horiz-adv-x="843" arabic-form="isolated" 
d="M783 77l-3 -68q0 -18 -2 -36.5t-5 -29.5q-11 -63 -31 -121q-30 -87 -89 -163q-33 -47 -77 -83q-25 -24 -61.5 -50.5t-85.5 -56.5q-85 -54 -132 -68q-49 12 -148 62q-66 34 -151 87l-72 43l8 13l58 -26l79 -31q72 -22 117 -22h15l11 1q4 0 16 2.5t26 7.5t31.5 11.5
t39.5 15.5q53 22 99.5 49t88.5 59q55 40 97 83q39 41 70 94l23 53q12 34 12 64l-1 23q0 10 -4 17q-2 16 -18 38q-36 60 -52 78l-79 85l63 192q34 -30 61 -66l41 -59q19 -28 38 -73q7 -27 12 -58.5t5 -66.5z" />
    <glyph glyph-name="afii62782" unicode="&#x631;" horiz-adv-x="836" arabic-form="final" 
d="M915 -157h-82q-21 0 -60 13l-74 33l-23 -4q0 -60 -7 -100q-10 -60 -40 -110q-33 -62 -161 -168t-156 -106q-45 0 -99.5 24.5t-116.5 75.5q-96 76 -152 156l14 8q47 -60 106 -103q66 -49 119 -49q26 0 62 13t78 39q77 44 203 166q115 115 115 140q0 27 -32 82l-33 54
l-50 81q-8 16 -13 27.5t-6 17.5l12 67q13 65 26 78l42 -63l31 -50l36 -64q16 -21 80 -61q76 -45 128 -45h53v-152z" />
    <glyph glyph-name="afii57426" unicode="&#x632;" horiz-adv-x="802" arabic-form="isolated" 
d="M783 77l-3 -68q0 -18 -2 -36.5t-5 -29.5q-11 -63 -31 -121q-30 -87 -89 -163q-33 -47 -77 -83q-25 -24 -61.5 -50.5t-85.5 -56.5q-85 -54 -132 -68q-49 12 -148 62q-66 34 -151 87l-72 43l8 13l58 -26l79 -31q72 -22 117 -22h15l11 1q4 0 16 2.5t26 7.5t31.5 11.5
t39.5 15.5q53 22 99.5 49t88.5 59q55 40 97 83q39 41 70 94l23 53q12 34 12 64l-1 23q0 10 -4 17q-2 16 -18 38q-36 60 -52 78l-79 85l63 192q34 -30 61 -66l41 -59q19 -28 38 -73q7 -27 12 -58.5t5 -66.5zM496 686l-82 -131l-142 89l80 125z" />
    <glyph glyph-name="afii62783" unicode="&#x632;" horiz-adv-x="906" arabic-form="final" 
d="M485 521l-81 -126l-143 87l83 123zM915 -157h-82q-21 0 -60 13l-74 33l-23 -4q0 -60 -7 -100q-10 -60 -40 -110q-33 -62 -161 -168t-156 -106q-45 0 -99.5 24.5t-116.5 75.5q-96 76 -152 156l14 8q47 -60 106 -103q66 -49 119 -49q26 0 62 13t78 39q77 44 203 166
q115 115 115 140q0 27 -32 82l-33 54l-50 81q-8 16 -13 27.5t-6 17.5l12 67q13 65 26 78l42 -63l31 -50l36 -64q16 -21 80 -61q76 -45 128 -45h53v-152z" />
    <glyph glyph-name="afii57427" unicode="&#x633;" horiz-adv-x="1394" arabic-form="isolated" 
d="M1376 68q-9 -86 -56 -182q-13 -36 -43 -79q-47 0 -101 28l-93 69q-27 -27 -132 -45l-64 -6l-71 -2q-13 0 -29 14q0 -70 -11 -127q-5 -32 -13 -56q-5 -21 -19 -46q-39 -69 -162 -121q-25 -10 -54.5 -19t-64.5 -17q-65 -13 -120 -13q-128 0 -210 48q-89 53 -113 177l-1 16
v10q0 18 2.5 40.5t8.5 55.5q13 62 36 133l27 87l50 139l18 -6l-60 -185q-36 -118 -41 -154q0 -101 73 -152q25 -18 68 -33q20 -6 47 -14q21 -5 59 -13l41 -5l23 -1q121 0 239 52t130 112l1 19q0 59 -43 162q-11 28 -26.5 60t-45.5 86q0 34 21 85q15 42 31 52q15 -30 53 -116
q21 -53 42 -122l8 -5l22 -5l52 -2h12q41 0 69 3q15 0 31.5 3t34.5 9q81 18 113 57l27 78l33 120l15 -9l-27 -112q-26 -109 -26 -125q11 -15 52 -46q19 -11 36 -19q11 -6 24 -12l26 -1q17 0 23 20q4 10 5.5 19.5t1.5 22.5q0 24 -1.5 36t-7.5 34l-28 86l21 35t18 27l31 41
q11 13 24 24l12 -84l6 -93v-12z" />
    <glyph glyph-name="afii62786" unicode="&#x633;" horiz-adv-x="1772" arabic-form="final" 
d="M811 -113q0 -68 -10 -139q-6 -35 -14 -62t-19 -50q-39 -68 -168 -122q-117 -48 -234 -48q-130 0 -209 48q-90 54 -113 177l-1 16v10q0 80 46 229l13 41l15 46l50 139l16 -6l-61 -185q-41 -132 -38 -154q0 -98 73 -152q49 -35 173 -60l39 -5l24 -1q123 0 240 52t130 112
l1 19q0 28 -11 70q-6 23 -13 42.5t-19 49.5l-10 22q-3 9 -9 19l-52 105q0 24 2.5 37.5t6 23.5t9.5 22q18 42 34 54l62 -106l18 -38l17 -38q30 -38 125 -62q35 -9 78 -13t95 -4q88 0 159 13q112 20 157 81q15 45 25.5 81.5t34.5 119.5l15 -12l-25 -111l-28 -126l23 -43
l36 -50q3 -7 13 -11q10 0 13 18l83 306l12 -10l-37 -164q7 -36 71 -60q38 -13 80 -13h55v-152h-80q-60 0 -101 32q-11 12 -25 32l-29 53l-36 -151l-19 -78q-22 12 -53 70l-56 115q-34 -30 -123 -53q-48 -10 -88.5 -15t-88.5 -5q-94 0 -166 13t-108 31z" />
    <glyph glyph-name="afii62784" unicode="&#x633;" horiz-adv-x="1173" arabic-form="initial" 
d="M1155 127q-6 -45 -20 -90q-7 -27 -15 -46.5t-20 -47.5q-7 -19 -17 -37t-27 -41q-45 0 -101 29l-92 69q-38 -35 -171 -59l-134 -17l-57 -5q-56 0 -56 35v12q-38 -23 -149 -52q-144 -34 -243 -34h-58v152h53q128 0 267.5 30t197.5 70q51 34 86 110l54 126l10 -9l-42 -121
l-48 -137l-2 -12q0 -5 8 -7h35l84 2q22 0 32.5 1.5t36.5 6.5q90 15 127 62l27 78l34 120l14 -10l-27 -111q-25 -111 -25 -126q8 -15 52 -45q17 -10 32.5 -18t27.5 -12l12 -3h14l15 3q7 3 9 14l4 22l2 23q0 29 -10 70l-28 86q9 16 19.5 32t20.5 31l30 39q11 15 24 25l12 -84
l6 -92v-13z" />
    <glyph glyph-name="afii62785" unicode="&#x633;" horiz-adv-x="1061" arabic-form="medial" 
d="M1073 -157h-83q-58 0 -98 32q-22 19 -54 85l-35 -151l-20 -78q-23 13 -52 70l-57 115q-33 -31 -124 -52q-44 -8 -91.5 -13.5t-93.5 -5.5h-29h-10q-36 0 -47 5.5t-27 31.5q-28 -15 -74 -29q-56 -10 -107 -10h-79v152h52q68 0 121 7q103 13 154.5 48.5t85.5 110.5l56 123
l16 -6l-94 -258q-2 -5 0 -17l6 -4h37q95 0 152 9q88 15 126 62l58 201l17 -12l-27 -111l-27 -126l23 -43l8 -15l8 -10l19 -25q5 -7 13 -11q11 0 13 18l82 306l13 -10l-36 -164q7 -35 70 -60q39 -13 80 -13h55v-152z" />
    <glyph glyph-name="afii57428" unicode="&#x634;" horiz-adv-x="1394" arabic-form="isolated" 
d="M1106 705l-81 -132l-144 88l81 124zM1275 517l-80 -126l-144 84l82 124zM1059 517l-79 -126l-143 84l83 124zM1376 68q-9 -86 -56 -182q-13 -36 -43 -79q-47 0 -101 28l-93 69q-27 -27 -132 -45l-64 -6l-71 -2q-13 0 -29 14q0 -70 -11 -127q-5 -32 -13 -56
q-5 -21 -19 -46q-39 -69 -162 -121q-25 -10 -54.5 -19t-64.5 -17q-65 -13 -120 -13q-128 0 -210 48q-89 53 -113 177l-1 16v10q0 18 2.5 40.5t8.5 55.5q13 62 36 133l27 87l50 139l18 -6l-60 -185q-36 -118 -41 -154q0 -101 73 -152q25 -18 68 -33q20 -6 47 -14
q21 -5 59 -13l41 -5l23 -1q121 0 239 52t130 112l1 19q0 59 -43 162q-11 28 -26.5 60t-45.5 86q0 34 21 85q15 42 31 52q15 -30 53 -116q21 -53 42 -122l8 -5l22 -5l52 -2h12q41 0 69 3q15 0 31.5 3t34.5 9q81 18 113 57l27 78l33 120l15 -9l-27 -112q-26 -109 -26 -125
q11 -15 52 -46q19 -11 36 -19q11 -6 24 -12l26 -1q17 0 23 20q4 10 5.5 19.5t1.5 22.5q0 24 -1.5 36t-7.5 34l-28 86l21 35t18 27l31 41q11 13 24 24l12 -84l6 -93v-12z" />
    <glyph glyph-name="afii62789" unicode="&#x634;" horiz-adv-x="1772" arabic-form="final" 
d="M1238 699l-80 -126l-144 84l84 126zM1410 514l-83 -128l-144 86l83 125zM1196 514l-83 -128l-139 86l81 125zM811 -113q0 -68 -10 -139q-6 -35 -14 -62t-19 -50q-39 -68 -168 -122q-117 -48 -234 -48q-130 0 -209 48q-90 54 -113 177l-1 16v10q0 80 46 229l13 41l15 46
l50 139l16 -6l-61 -185q-41 -132 -38 -154q0 -98 73 -152q49 -35 173 -60l39 -5l24 -1q123 0 240 52t130 112l1 19q0 28 -11 70q-6 23 -13 42.5t-19 49.5l-10 22q-3 9 -9 19l-52 105q0 24 2.5 37.5t6 23.5t9.5 22q18 42 34 54l62 -106l18 -38l17 -38q30 -38 125 -62
q35 -9 78 -13t95 -4q88 0 159 13q112 20 157 81q15 45 25.5 81.5t34.5 119.5l15 -12l-25 -111l-28 -126l23 -43l36 -50q3 -7 13 -11q10 0 13 18l83 306l12 -10l-37 -164q7 -36 71 -60q38 -13 80 -13h55v-152h-80q-60 0 -101 32q-11 12 -25 32l-29 53l-36 -151l-19 -78
q-22 12 -53 70l-56 115q-34 -30 -123 -53q-48 -10 -88.5 -15t-88.5 -5q-94 0 -166 13t-108 31z" />
    <glyph glyph-name="afii62787" unicode="&#x634;" horiz-adv-x="1173" arabic-form="initial" 
d="M885 764l-81 -133l-145 88l82 124zM1055 575l-81 -127l-144 85l83 124zM839 575l-81 -127l-141 85l82 124zM1155 127q-6 -45 -20 -90q-7 -27 -15 -46.5t-20 -47.5q-7 -19 -17 -37t-27 -41q-45 0 -101 29l-92 69q-38 -35 -171 -59l-134 -17l-57 -5q-56 0 -56 35v12
q-38 -23 -149 -52q-144 -34 -243 -34h-58v152h53q128 0 267.5 30t197.5 70q51 34 86 110l54 126l10 -9l-42 -121l-48 -137l-2 -12q0 -5 8 -7h35l84 2q22 0 32.5 1.5t36.5 6.5q90 15 127 62l27 78l34 120l14 -10l-27 -111q-25 -111 -25 -126q8 -15 52 -45q17 -10 32.5 -18
t27.5 -12l12 -3h14l15 3q7 3 9 14l4 22l2 23q0 29 -10 70l-28 86q9 16 19.5 32t20.5 31l30 39q11 15 24 25l12 -84l6 -92v-13z" />
    <glyph glyph-name="afii62788" unicode="&#x634;" horiz-adv-x="1061" arabic-form="medial" 
d="M741 699l-81 -126l-142 84l84 126zM912 514l-82 -128l-146 86l86 125zM699 514l-82 -128l-140 86l80 125zM1073 -157h-83q-58 0 -98 32q-22 19 -54 85l-35 -151l-20 -78q-23 13 -52 70l-57 115q-33 -31 -124 -52q-44 -8 -91.5 -13.5t-93.5 -5.5h-29h-10q-36 0 -47 5.5
t-27 31.5q-28 -15 -74 -29q-56 -10 -107 -10h-79v152h52q68 0 121 7q103 13 154.5 48.5t85.5 110.5l56 123l16 -6l-94 -258q-2 -5 0 -17l6 -4h37q95 0 152 9q88 15 126 62l58 201l17 -12l-27 -111l-27 -126l23 -43l8 -15l8 -10l19 -25q5 -7 13 -11q11 0 13 18l82 306l13 -10
l-36 -164q7 -35 70 -60q39 -13 80 -13h55v-152z" />
    <glyph glyph-name="afii57429" unicode="&#x635;" horiz-adv-x="1949" arabic-form="isolated" 
d="M1938 249q0 -356 -795 -403q-29 -74 -58 -176l-24 44l29 132h-112q-3 -224 -110 -413q-119 -211 -492 -211q-149 0 -245 87.5t-96 222.5q0 140 132 344l23 -8q-89 -165 -89 -265q0 -105 99 -165.5t272 -60.5q133 0 245 45t153 115q37 63 37 184q0 132 -66 233l64 143
q36 -58 54 -106h208q147 228 331 350q152 102 278 102q69 0 115.5 -55.5t46.5 -138.5zM1845 175q0 91 -177 91q-260 0 -444 -275h84q166 0 354 67q183 65 183 117z" />
    <glyph glyph-name="afii62792" unicode="&#x635;" horiz-adv-x="2059" arabic-form="final" 
d="M2127 -154h-994q-22 -49 -59 -182l-24 49q9 38 33 133h-105q-3 -224 -110 -413q-119 -211 -492 -211q-149 0 -245 87.5t-96 222.5q0 140 132 344l23 -8q-89 -165 -89 -265q0 -105 99 -165.5t272 -60.5q133 0 245 45t153 115q37 63 37 184q0 132 -66 233l64 143
q36 -58 54 -106h194q161 212 322.5 334.5t282.5 122.5q71 0 120 -55.5t49 -133.5q0 -94 -58.5 -158t-199.5 -124q254 14 280 14h178v-145zM1834 175q0 43 -60 70q-54 26 -119 26q-236 0 -443 -280q233 3 408 66q214 77 214 118z" />
    <glyph glyph-name="afii62790" unicode="&#x635;" horiz-adv-x="1406" arabic-form="initial" 
d="M1346 249q0 -356 -795 -403q-29 -74 -58 -176l-24 44l29 132h-70q-63 0 -108.5 38t-49.5 100q-72 -138 -186 -138h-84v145h84q107 0 230 169l15 -5q11 -84 27 -115q26 -49 86 -49h133q147 228 331 350q152 102 278 102q69 0 115.5 -55.5t46.5 -138.5zM1253 175
q0 91 -177 91q-260 0 -444 -275h84q166 0 354 67q183 65 183 117z" />
    <glyph glyph-name="afii62791" unicode="&#x635;" horiz-adv-x="1479" arabic-form="medial" 
d="M1549 -154h-996q-21 -49 -59 -182l-24 49q9 38 33 133h-93q-55 0 -97 46q-41 42 -43 92q-72 -138 -186 -138h-84v145h84q107 0 230 169l15 -5q23 -164 113 -164h132q160 212 321.5 334.5t282.5 122.5q71 0 120.5 -55.5t49.5 -133.5q0 -94 -59 -158t-199 -124
q253 14 296 14h163v-145zM1254 175q0 43 -60 70q-54 26 -119 26q-236 0 -443 -280q233 3 408 66q214 77 214 118z" />
    <glyph glyph-name="afii57430" unicode="&#x636;" horiz-adv-x="1970" arabic-form="isolated" 
d="M1938 249q0 -356 -795 -403q-29 -74 -58 -176l-24 44l29 132h-112q-3 -224 -110 -413q-119 -211 -492 -211q-149 0 -245 87.5t-96 222.5q0 140 132 344l23 -8q-89 -165 -89 -265q0 -105 99 -165.5t272 -60.5q133 0 245 45t153 115q37 63 37 184q0 132 -66 233l64 143
q36 -58 54 -106h208q147 228 331 350q152 102 278 102q69 0 115.5 -55.5t46.5 -138.5zM1845 175q0 91 -177 91q-260 0 -444 -275h84q166 0 354 67q183 65 183 117zM1440 728l-80 -139l-126 90l81 138z" />
    <glyph glyph-name="afii62795" unicode="&#x636;" horiz-adv-x="2059" arabic-form="final" 
d="M2129 -154h-996q-22 -49 -59 -182l-24 49q9 38 33 133h-105q-3 -224 -110 -413q-119 -211 -492 -211q-149 0 -245 87.5t-96 222.5q0 140 132 344l23 -8q-89 -165 -89 -265q0 -105 99 -165.5t272 -60.5q133 0 245 45t153 115q37 63 37 184q0 132 -66 233l64 143
q36 -58 54 -106h194q161 212 322.5 334.5t282.5 122.5q71 0 120 -55.5t49 -133.5q0 -94 -58.5 -158t-199.5 -124q254 14 292 14h168v-145zM1834 175q0 43 -60 70q-54 26 -119 26q-236 0 -443 -280q233 3 408 66q214 77 214 118zM1423 716l-75 -139l-126 87l77 141z" />
    <glyph glyph-name="afii62793" unicode="&#x636;" horiz-adv-x="1406" arabic-form="initial" 
d="M1346 249q0 -356 -795 -403q-29 -74 -58 -176l-24 44l29 132h-70q-63 0 -108.5 38t-49.5 100q-72 -138 -186 -138h-84v145h84q107 0 230 169l15 -5q11 -84 27 -115q26 -49 86 -49h133q147 228 331 350q152 102 278 102q69 0 115.5 -55.5t46.5 -138.5zM1253 175
q0 91 -177 91q-260 0 -444 -275h84q166 0 354 67q183 65 183 117zM854 728l-80 -139l-126 90l82 138z" />
    <glyph glyph-name="afii62794" unicode="&#x636;" horiz-adv-x="1479" arabic-form="medial" 
d="M1549 -154h-996q-21 -49 -59 -182l-24 49q9 38 33 133h-93q-55 0 -97 46q-41 42 -43 92q-72 -138 -186 -138h-84v145h84q107 0 230 169l15 -5q23 -164 113 -164h132q160 212 321.5 334.5t282.5 122.5q71 0 120.5 -55.5t49.5 -133.5q0 -94 -59 -158t-199 -124
q253 14 296 14h163v-145zM1254 175q0 43 -60 70q-54 26 -119 26q-236 0 -443 -280q233 3 408 66q214 77 214 118zM841 735l-75 -139l-126 87l76 141z" />
    <glyph glyph-name="afii57431" unicode="&#x637;" horiz-adv-x="1343" arabic-form="isolated" 
d="M1271 263q0 -186 -254.5 -306t-645.5 -120q-142 0 -191 24q-55 27 -155 147q175 -24 242 -24q182 0 242.5 60t60.5 237q0 209 -48 452t-48 268q0 64 60 158l103 -150q-60 -66 -60 -134q0 -14 22 -170t22 -292q0 -139 -21 -279q321 321 509 321q69 0 115.5 -55.5
t46.5 -136.5zM1179 185q0 29 -43 56q-50 32 -126 32q-269 0 -450 -282h13q192 0 408 78q198 71 198 116z" />
    <glyph glyph-name="afii62798" unicode="&#x637;" horiz-adv-x="1414" arabic-form="final" 
d="M1484 -154h-1231q-84 0 -140 64l-88 98q212 -37 284 -37q146 0 203.5 69.5t57.5 245.5q0 199 -48 440.5t-48 268.5q0 63 60 164l103 -150q-60 -66 -60 -134q0 -20 22 -168t22 -294q0 -130 -21 -279q311 321 509 321q70 0 116 -57t46 -142q0 -97 -59.5 -159t-215.5 -126
q248 20 271 20h217v-145zM1179 178q0 41 -54 66q-49 22 -112 22q-125 0 -229 -59t-224 -216q216 3 376 52q93 28 168 70t75 65z" />
    <glyph glyph-name="afii62796" unicode="&#x637;" horiz-adv-x="1032" arabic-form="initial" 
d="M971 251q0 -165 -205 -282q-212 -123 -518 -123h-248v145h84q167 0 167 317q0 205 -48 445t-48 258q0 74 59 152l103 -147q-59 -43 -59 -162q0 -25 24.5 -176.5t24.5 -292.5q0 -111 -27 -281q37 41 109 110q227 237 420 237q68 0 115 -56.5t47 -143.5zM875 178
q0 33 -55.5 59t-125.5 26q-238 0 -441 -272h52q131 0 326 61q244 76 244 126z" />
    <glyph glyph-name="afii62797" unicode="&#x637;" horiz-adv-x="1102" arabic-form="medial" 
d="M1172 -154h-996q-31 -57 -58 -182l-24 49q7 72 31 133h-125v145h84q167 0 167 347q0 137 -45.5 381.5t-45.5 281.5q0 76 54 172l100 -155q-63 -50 -63 -115q56 -344 56 -504q0 -102 -27 -292q304 344 524 344q72 0 119.5 -55.5t47.5 -139.5q0 -164 -286 -285
q190 20 306 20h181v-145zM875 183q0 26 -52 55q-55 33 -117 33q-128 0 -249 -76t-205 -204h44q166 0 375 72q204 71 204 120z" />
    <glyph glyph-name="afii57432" unicode="&#x638;" horiz-adv-x="1343" arabic-form="isolated" 
d="M1271 263q0 -186 -254.5 -306t-645.5 -120q-142 0 -191 24q-55 27 -155 147q175 -24 242 -24q182 0 242.5 60t60.5 237q0 209 -48 452t-48 268q0 64 60 158l103 -150q-60 -66 -60 -134q0 -14 22 -170t22 -292q0 -139 -21 -279q321 321 509 321q69 0 115.5 -55.5
t46.5 -136.5zM1179 185q0 29 -43 56q-50 32 -126 32q-269 0 -450 -282h13q192 0 408 78q198 71 198 116zM1017 779l-79 -124l-125 82l82 131z" />
    <glyph glyph-name="afii62801" unicode="&#x638;" horiz-adv-x="1414" arabic-form="final" 
d="M1484 -154h-1231q-84 0 -140 64l-88 98q212 -37 284 -37q146 0 203.5 69.5t57.5 245.5q0 199 -48 440.5t-48 268.5q0 63 60 164l103 -150q-60 -66 -60 -134q0 -20 22 -168t22 -294q0 -130 -21 -279q311 321 509 321q70 0 116 -57t46 -142q0 -97 -59.5 -159t-215.5 -126
q248 20 271 20h217v-145zM1179 178q0 41 -54 66q-49 22 -112 22q-125 0 -229 -59t-224 -216q216 3 376 52q93 28 168 70t75 65zM1020 797l-76 -142l-131 91l82 139z" />
    <glyph glyph-name="afii62799" unicode="&#x638;" horiz-adv-x="1032" arabic-form="initial" 
d="M971 251q0 -165 -205 -282q-212 -123 -518 -123h-248v145h84q167 0 167 317q0 205 -48 445t-48 258q0 74 59 152l103 -147q-59 -43 -59 -162q0 -25 24.5 -176.5t24.5 -292.5q0 -111 -27 -281q37 41 109 110q227 237 420 237q68 0 115 -56.5t47 -143.5zM875 178
q0 33 -55.5 59t-125.5 26q-238 0 -441 -272h52q131 0 326 61q244 76 244 126zM708 787l-77 -140l-129 90l80 141z" />
    <glyph glyph-name="afii62800" unicode="&#x638;" horiz-adv-x="1102" arabic-form="medial" 
d="M1172 -154h-996q-31 -57 -58 -182l-24 49q7 72 31 133h-125v145h84q167 0 167 347q0 137 -45.5 381.5t-45.5 281.5q0 76 54 172l100 -155q-63 -50 -63 -115q56 -344 56 -504q0 -102 -27 -292q304 344 524 344q72 0 119.5 -55.5t47.5 -139.5q0 -164 -286 -285
q190 20 306 20h181v-145zM875 183q0 26 -52 55q-55 33 -117 33q-128 0 -249 -76t-205 -204h44q166 0 375 72q204 71 204 120zM713 795l-79 -145l-128 87l81 141z" />
    <glyph glyph-name="afii57433" unicode="&#x639;" horiz-adv-x="648" arabic-form="isolated" 
d="M1083 -839q-72 -56 -229 -113q-176 -63 -305 -63q-279 0 -417 102q-152 114 -140 319q0 107 34 236q29 108 81 222q44 100 82 152q-75 23 -108 39q-57 27 -86 74q-36 55 -36 146q0 81 49 170q45 84 91 105q22 11 50 19t57 8q73 0 111 -18q28 -15 111 -88q13 -19 13 -31
q0 -10 -9 -13t-17 -3q-11 0 -46.5 18.5t-57.5 18.5q-45 0 -149 -36q-121 -42 -121 -79q0 -62 80 -125q72 -55 184 -55h20q17 1 24 1q43 24 82.5 50t80.5 56q10 7 94 73q12 12 21 12q11 0 15.5 -11.5t2.5 -19.5q-2 -6 -10 -40q-12 -42 -39 -96q-27 -27 -83 -62.5t-112 -71.5
q-71 -49 -143 -111q-48 -42 -96 -143q-41 -86 -67 -178t-26 -139q0 -113 42 -173t126 -85q117 -32 231.5 -49.5t248.5 -17.5q92 0 237 19q49 5 129 19q11 -10 11 -18t-11 -20z" />
    <glyph glyph-name="afii62804" unicode="&#x639;" horiz-adv-x="639" arabic-form="final" 
d="M1143 -820v-13q0 -11 -12 -19q-129 -55 -258 -112q-158 -62 -254 -62q-233 0 -372 71q-129 64 -187 192q-52 110 -52 186q2 102 40 254q30 122 69 222q23 47 56 81.5t73 57.5q-20 21 -38.5 30t-37.5 9q-16 0 -43 -7q-19 -5 -25 -6q7 42 10 64q12 66 20 79q34 29 68 56
q38 21 154 21q64 0 112 -33q52 -34 52 -91q0 -17 -11 -49q-14 -42 -35 -66q9 -16 36.5 -29t65.5 -20v-152q-32 0 -60 9t-70 30q-23 12 -77 57q-21 17 -24 17q-21 0 -65 -35q-55 -43 -138 -135q-30 -66 -54 -156q-28 -99 -28 -170q12 -101 195 -217q150 -96 389 -96
q81 0 212 8q76 5 199 16q45 5 90 8z" />
    <glyph glyph-name="afii62802" unicode="&#x639;" horiz-adv-x="726" arabic-form="initial" 
d="M748 274q-5 -30 -24 -74q-6 -16 -21 -41q-63 -55 -224 -136q-144 -70 -290.5 -124.5t-188.5 -54.5v152q26 0 97.5 19t105.5 34q-36 28 -64 69q-31 49 -31 94q14 93 47 165q42 93 104 135q17 12 43 18t52 6h11q39 0 101 -33q49 -27 88 -61q14 -11 18 -15q15 -12 15 -18
t-28 -6q-20 0 -71 14q-27 8 -48 8q-58 0 -152 -37.5t-101 -70.5q0 -42 72 -102q79 -66 156 -66q18 0 33 4q48 18 127 59q71 36 138 73q12 7 21 7q14 0 14 -18z" />
    <glyph glyph-name="afii62803" unicode="&#x639;" horiz-adv-x="559" arabic-form="medial" 
d="M558 -156q-73 0 -116.5 13.5t-81.5 46.5q-37 33 -74 68q-45 -32 -90.5 -63.5t-91.5 -48t-104 -16.5v152q54 0 110 9q76 12 116 36q-57 59 -86 59q-15 0 -42 -7q-22 -8 -36 -12q14 55 26 90.5t27 60.5q23 25 63 40t92 15q50 0 125 -27q99 -36 99 -90q0 -28 -15 -54
q-4 -4 -67 -71q46 -31 75.5 -40.5t70.5 -9.5v-151z" />
    <glyph glyph-name="afii57434" unicode="&#x63a;" horiz-adv-x="1162" arabic-form="isolated" 
d="M425 1012l-71 -114l-107 69l68 117zM1124 -707l-336 -126l-55 -7q-24 -3 -68 -3q-137 0 -244.5 31t-192.5 95q-167 125 -167 334q0 158 58 293.5t200 290.5q-191 47 -191 151q0 22 4 36q2 19 14 47q16 44 53 116q85 148 181 148q19 0 35 -4t35 -16q39 -17 91 -66
q-145 0 -250 -56.5t-105 -128.5q0 -45 78 -83q71 -32 141 -32q35 0 78 19q8 2 12 4t15 8l32 17l41 21l48 30l68 33l62 30l-100 -142l-91 -54l-65 -40q-61 -38 -113 -80q-273 -212 -273 -444q0 -88 55 -174.5t153 -147.5q42 -26 93 -46q44 -17 98 -29l53 -8l68 -7l54 -2
l107 -3l144 2l35 1h22l16 4l100 13z" />
    <glyph glyph-name="afii62807" unicode="&#x63a;" horiz-adv-x="878" arabic-form="final" 
d="M632 712l-78 -126l-144 84l80 124zM116 -477q-2 -12 -4 -24.5t-2 -26.5q0 -93 50 -126.5t154 -86.5q34 -13 82 -28l53 -12l60 -14q138 -21 270 -21q122 0 225 14l59 7l52 10q57 11 110 28l-2 -29l-343 -154q-98 -42 -130 -53q-49 -9 -104 -9q-129 0 -265.5 42t-205.5 110
q-47 46 -87 127q-28 63 -28 132t10 128.5t40 137.5q48 138 135 236q29 34 62 66q29 26 77 60l88 50q-18 55 -80 90q-27 14 -60 24l-32 5l-36 2q-12 0 -23 -0.5t-21 -2.5l-3 9q0 11 5.5 32t17.5 56q26 80 49 93l81 9q46 6 82 6l35 -1h21q10 -3 15 -4l28 -2l36 -11
q31 -9 54 -24q24 -13 43 -37q37 -45 37 -101q0 -51 -29 -97q-25 -47 -78 -88q3 -26 56 -40q51 -10 151 -10h54v-152h-96q-135 0 -200 37.5t-85 121.5q-130 -59 -222 -164q-64 -78 -111 -179z" />
    <glyph glyph-name="afii62805" unicode="&#x63a;" horiz-adv-x="743" arabic-form="initial" 
d="M386 677l-81 -127l-143 83l78 126zM663 37q0 -12 -27.5 -71t-36.5 -66l-138 -20l-195 -24q-123 -13 -172 -13h-102v152h32q14 0 14 16l-27 48l-8 21l-6 21l-1 28q0 28 4 43l8 19l10 23q42 90 111 147.5t134 57.5q33 0 93 -16q31 -9 53.5 -18t42.5 -23q6 -5 15 -10.5
t13 -10.5q11 -7 16 -10q12 -9 18 -14q25 -21 37 -39l-2 -23q-22 12 -121 38.5t-140 26.5q-81 0 -151 -36q-54 -29 -66 -58q-2 -18 19 -59l33 -43q8 -9 17 -17t25 -19q44 -30 110 -49l67 -12q24 -4 37.5 -4.5t42.5 -0.5h33l66 1h49h28l16 4z" />
    <glyph glyph-name="afii62806" unicode="&#x63a;" horiz-adv-x="695" arabic-form="medial" 
d="M430 691l-83 -131l-142 87l80 125zM705 -157h-93q-41 0 -73 6t-66 21q-61 27 -90 84q-28 -23 -58.5 -42t-57.5 -31q-89 -38 -213 -38h-67v152h46q111 0 194.5 26t119.5 84q-16 43 -77 73t-125 30q-10 0 -21 -0.5t-22 -2.5l-1 8q0 24 22 89q26 80 51 93l79 9q46 6 82 6
l35 -1q19 0 36 -4q17 0 30 -4l35 -9q60 -18 98 -64q35 -42 35 -98q0 -51 -26.5 -99t-80.5 -86q2 -26 70 -40q45 -10 85 -10h53v-152z" />
    <glyph glyph-name="afii57441" unicode="&#x641;" horiz-adv-x="1668" arabic-form="isolated" 
d="M1319 1066l-72 -115l-113 66l67 116zM1559 405q0 -116 -54.5 -175t-239.5 -136l-77 -26l-85 -25l-186 -44q-96 -18 -179 -29q-36 -5 -76 -7.5t-76 -2.5q-466 0 -466 272q0 37 3.5 62.5t13.5 54.5q5 12 12 30t15.5 34t22 41t27.5 47l26 -10q-37 -56 -53 -99
q-12 -41 -12 -78q0 -94 116.5 -157t290.5 -63q182 0 390.5 48t385.5 125q24 11 45 20l36 18q17 10 29.5 17t19.5 13q36 26 36 53q0 17 -10 41l-13 29q-5 13 -20 33q-53 -74 -83 -97t-71 -23q-54 0 -91 37t-37 93q0 36 12 65l17 42l8 17l24 48q65 118 125 118q55 0 113 -108
q61 -117 61 -278zM1393 579q0 16 -21 32q-24 16 -53 16q-19 0 -33 -12t-14 -30q0 -12 18 -35q10 -8 20.5 -12.5t23.5 -5.5q24 0 44 12q15 15 15 35z" />
    <glyph glyph-name="afii62810" unicode="&#x641;" horiz-adv-x="2192" arabic-form="final" 
d="M2026 824l-81 -127l-144 86l79 122zM2044 128q0 18 -4.5 38.5t-16.5 52.5q-25 70 -60 80l-17 -1q-9 0 -20 -3l-18 -6q-6 -2 -20 -11q-42 -23 -69 -64q-2 -2 -2 -8q0 -12 20 -45q31 -46 87 -86l26 -16l50 34zM1783 2q-29 38 -41 111q-2 11 24 89q32 87 80 151q36 50 96 86
q51 30 78 30q8 0 10 -3q44 -41 71 -116q18 -59 18 -113q0 -14 -26 -85l-11 -31q-5 -12 -19 -41l-15 -31l-16 -27q14 -13 69 -23l31 -3l38 -1h31v-152h-25h-16h-14h-11l-40 1q-13 0 -21.5 1t-13.5 2q-42 6 -88 27q-42 12 -71 30q-45 -28 -159 -66l-99 -29l-124 -28
q-85 -18 -293 -43q-51 -7 -104 -13t-92 -6q-35 0 -100 -3t-85 -3l-115 2q-26 0 -42 1.5t-74 7t-102.5 12t-95.5 18.5q-212 43 -304 137q-38 33 -59 99l-12 65l-5 76q0 46 23 113q13 40 39 79l18 -8l-10 -26l-14 -41l-8 -41l-2 -36v-12l1 -11q11 -65 42 -106.5t98 -73
t195 -56.5l120 -17l103 -4l151 -4l137 -2q31 0 71 2q97 4 126 4q43 0 92 5t127 14t157.5 21t149.5 28l50 8q21 4 43 10q32 11 38 25z" />
    <glyph glyph-name="afii62808" unicode="&#x641;" horiz-adv-x="663" arabic-form="initial" 
d="M411 309v19l-4 7l-2 4q-3 6 -6 11q-22 38 -73.5 67.5t-76.5 27.5q-34 -9 -55.5 -30t-21.5 -58q0 -22 43 -48q43 -20 96 -20q47 0 100 20zM549 232q0 -21 -2.5 -43t-9.5 -47q-11 -51 -35 -105q-32 -82 -60 -115q-24 -29 -91 -55q-34 -11 -73 -18q-20 -3 -42 -4.5t-48 -1.5
h-196v152l185 4q146 0 216 34q45 23 68 67q10 18 10 43v27q0 6 -9 26l-4 15q-2 9 -4 13q-2 9 -13 26q-9 -11 -28 -51q-11 -32 -24 -46q-45 -52 -122 -52q-57 0 -112 36q-26 21 -39 52q-12 35 -12 72q0 89 54 199q48 106 105 154q17 17 42 17q18 0 36 -9q17 -7 42 -26l29 -27
l29 -30q49 -67 79 -147q13 -37 21 -78t8 -82zM368 872l-80 -126l-145 86l82 124z" />
    <glyph glyph-name="afii62809" unicode="&#x641;" horiz-adv-x="527" arabic-form="medial" 
d="M367 824l-79 -127l-146 86l83 122zM543 -157h-21h-11h-10q-36 0 -60 3q-17 0 -33 4q-21 2 -23 3q-10 4 -15 5q-63 16 -117 42q-37 -23 -121 -44l-65 -10l-46 -3h-31v152h26l56 2l32 2q12 0 22 3q-29 37 -41 111q-3 11 23 89q32 90 80 151q34 50 96 86q50 30 78 30
q7 0 10 -3q46 -41 72 -116l12 -58q4 -31 4 -55q0 -18 -25.5 -87.5t-60.5 -127.5q16 -7 73 -20l76 -7h20v-152zM385 128q0 35 -19 91q-26 67 -60 80l-17 -1l-21 -3q-13 -3 -18 -6l-21 -11q-42 -23 -67 -64q-3 -2 -3 -7q0 -12 21 -46q31 -48 86 -86l12 -8l14 -8l48 33z" />
    <glyph glyph-name="afii57442" unicode="&#x642;" horiz-adv-x="1183" arabic-form="isolated" 
d="M1045 941l-68 -120l-118 81l-60 -102l-120 81l67 113l119 -79l65 104zM1071 308q0 -45 -4 -81.5t-15 -78.5q-20 -77 -56 -126q-78 -106 -214.5 -171.5t-284.5 -65.5q-160 0 -254 76q-46 39 -69 89t-23 117q0 79 30 161.5t112 223.5l20 -13q-46 -82 -70 -152
q-3 -10 -6 -24.5t-8 -40t-5 -55.5q0 -103 78 -164t209 -61q47 0 90.5 5.5t90.5 17t89 28t89 42.5q74 39 120.5 97t46.5 110v13v8l-3 9q0 13 -6 26q-6 19 -37 77q-35 -46 -74 -72q-41 -24 -87 -24q-55 0 -96.5 36t-41.5 90q0 61 29.5 133t82.5 135q14 16 36 31q25 9 38 9
t17 -1q6 -1 18 -8q12 -6 25 -22q16 -12 30 -33q10 -15 18.5 -28.5t11.5 -22.5q73 -134 73 -290zM903 487q-12 16 -34 38q-14 10 -25 14.5t-21 4.5q-19 0 -35 -12q-15 -9 -15 -31q0 -16 14 -31q8 -6 16.5 -9t20.5 -3h11q6 0 11 2q8 0 24 9l13 4z" />
    <glyph glyph-name="afii62813" unicode="&#x642;" horiz-adv-x="1020" arabic-form="final" 
d="M813 -154l-72 1l-31 3l-44 6l-75 13q-62 13 -91 35q-28 18 -43 54q-12 35 -12 70q0 83 49 186q44 94 102 143q13 13 40 16q36 0 80 -34q34 -25 58 -60q42 -61 73 -128q14 -34 23 -68l12 -45l6 -33q3 -4 31 -9l50 -2h23l22 1h13v-152h-13h-27l-30 -2q-38 0 -54 4
q0 -40 -3.5 -71.5t-12.5 -70.5t-10 -43l-10.5 -31.5t-12 -34t-13.5 -32.5q-16 -42 -153 -87q-33 -9 -67.5 -17.5t-68.5 -14.5q-63 -11 -124 -11q-167 0 -270 87q-65 54 -98.5 139.5t-33.5 199.5q0 39 6 78t19 75q5 18 10.5 33t14.5 37l45 102l18 -11q-15 -36 -26 -68.5
t-23 -68.5q-15 -60 -15 -111l1 -38l4 -24q16 -143 134 -208q88 -48 224 -48h30l28 3q54 0 106 8q28 5 54 11t56 17q113 36 131 70l4 10v11q0 24 -9 49l-3 13q0 5 -6 17l-6 13zM758 14l-1 17q0 6 -6 19q-3 12 -6.5 18.5t-12.5 23.5q-24 38 -73 66.5t-79 25.5q-38 -8 -54 -25
t-16 -53q0 -14 15 -30q16 -14 49 -33q64 -32 143 -32h25zM621 622l-80 -127l-143 84l83 125zM836 622l-79 -127l-144 84l81 125z" />
    <glyph glyph-name="afii62811" unicode="&#x642;" horiz-adv-x="663" arabic-form="initial" 
d="M411 309v19l-4 7l-2 4q-3 6 -6 11q-22 38 -73.5 67.5t-76.5 27.5q-34 -9 -55.5 -30t-21.5 -58q0 -22 43 -48q43 -20 96 -20q47 0 100 20zM549 232q0 -21 -2.5 -43t-9.5 -47q-11 -51 -35 -105q-32 -82 -60 -115q-24 -29 -91 -55q-34 -11 -73 -18q-20 -3 -42 -4.5t-48 -1.5
h-196v152l185 4q146 0 216 34q45 23 68 67q10 18 10 43v27q0 6 -9 26l-4 15q-2 9 -4 13q-2 9 -13 26q-9 -11 -28 -51q-11 -32 -24 -46q-45 -52 -122 -52q-57 0 -112 36q-26 21 -39 52q-12 35 -12 72q0 89 54 199q48 106 105 154q17 17 42 17q18 0 36 -9q17 -7 42 -26l29 -27
l29 -30q49 -67 79 -147q13 -37 21 -78t8 -82zM280 890l-80 -126l-146 84l84 123zM492 890l-81 -126l-141 84l80 123z" />
    <glyph glyph-name="afii62812" unicode="&#x642;" horiz-adv-x="527" arabic-form="medial" 
d="M543 -157h-21h-11h-10q-36 0 -60 3q-17 0 -33 4q-21 2 -23 3q-10 4 -15 5q-63 16 -117 42q-37 -23 -121 -44l-65 -10l-46 -3h-31v152h26l56 2l32 2q12 0 22 3q-29 37 -41 111q-3 11 23 89q32 90 80 151q34 50 96 86q50 30 78 30q7 0 10 -3q46 -41 72 -116l12 -58
q4 -31 4 -55q0 -18 -25.5 -87.5t-60.5 -127.5q16 -7 73 -20l76 -7h20v-152zM385 128q0 35 -19 91q-26 67 -60 80l-17 -1l-21 -3q-13 -3 -18 -6l-21 -11q-42 -23 -67 -64q-3 -2 -3 -7q0 -12 21 -46q31 -48 86 -86l12 -8l14 -8l48 33zM471 825l-81 -125l-142 83l80 125z
M259 825l-81 -125l-144 83l82 125z" />
    <glyph glyph-name="afii57443" unicode="&#x643;" horiz-adv-x="2453" arabic-form="isolated" 
d="M1463 375q-25 -59 -104 -102l-40 -18l-39 -14l-35 -8l-46 -3h-15l-20 1l-15 4l-19 7l2 13q76 0 161.5 42t94.5 85q2 12 -6 22q-5 3 -26 9q-10 0 -25 -7q-5 -3 -35 -14l-20 -6l-19 -3q-18 0 -30.5 6t-26.5 26l-4 33q0 28 15 65q12 29 40 68q9 17 23 33.5t31 29.5l21 20
l24 17l27 -12l-60 -65q-34 -38 -37 -69v-6l3 -10l4 -2l13 -4q20 0 67 18q24 8 39 12.5t24 4.5q12 0 13 -1q12 -6 19 -15l14 -18q14 -19 14 -43l-2 -20q0 -10 -3 -20zM2408 675l-34 -156l-18 4l-17 4q-5 -2 -6 -10v-16l28 -132q13 -72 13 -133q0 -37 -5 -75.5t-18 -80.5
q-21 -59 -51 -121q-45 -91 -77 -116h-1269l-165 2q-35 0 -64.5 2.5t-73.5 7.5q-59 0 -124.5 9.5t-163.5 38.5q-120 33 -186 98q-41 37 -60 100l-12 66q-5 38 -5 72q0 50 23 113q14 43 38 81l19 -10q-9 -18 -22.5 -65.5t-13.5 -78.5v-12l3 -10q7 -62 40 -106t98 -74
q75 -36 197 -55l115 -17q47 -4 107 -4l152 -4l80 -1h27t30 -1h1247q21 15 42 68l13 58l3 74q0 52 -7 107l-26 246l-41 31l-28 24q-33 34 -46 85q0 18 20 90t47 121l13 -4q-8 -11 -16 -35l-2 -39q-5 -43 79 -93z" />
    <glyph glyph-name="afii62816" unicode="&#x643;" horiz-adv-x="1353" arabic-form="final" 
d="M535 -157q-229 0 -296 13q-81 17 -150 84q-41 39 -58.5 102t-17.5 137q0 27 5.5 52.5t17.5 60.5q18 47 39 81l17 -9q-7 -19 -12 -31q-6 -23 -9 -34q-14 -48 -14 -81l2 -21q10 -64 42.5 -107t95.5 -73l46 -12l36 -4l42 -1l222 -5h322q18 0 29 2q12 3 30 8l35 16
q15 5 30 17q25 17 56 63t40 104l-2 74l-4 139v13v11q0 18 -1 35.5t-4 33.5q-4 43 -11 68l-12 47q-5 27 -14 44l57 105q7 -3 21 -64l9 -49l5 -30q0 -11 5 -25l7 -81l2 -84l3 -81l3 -82v-42l3 -40l3 -30q0 -12 4 -25q7 -30 24 -63q19 -33 44 -48q11 -6 33 -17q15 -9 23 -11
l26 -6l31 -2h21v-152h-26q-39 0 -93 20q-33 13 -57 29.5t-44 40.5q-11 12 -18.5 24.5l-19.5 32.5l-10 33l-6 36l-10 -36q-6 -19 -12 -29q-9 -25 -38 -60q-37 -48 -80 -73q-38 -18 -76 -18h-336zM632 650l28 -12l-60 -65q-17 -19 -26.5 -36.5t-12.5 -31.5v-6l4 -11l6 -4
l12 -2q18 0 65 18l38 11l27 6q9 0 12 -3q19 -9 32.5 -30t13.5 -44v-21q0 -9 -4 -19l-21 -56q-26 -58 -105 -102q-17 -10 -38.5 -18.5t-42.5 -14.5q-42 -10 -78 -10h-12q-17 0 -24 1l-15 3l-18 8l1 13q77 0 161.5 42t93.5 84q3 13 -4.5 20t-26.5 12q-13 0 -23 -7l-33 -14
l-22 -5l-21 -3q-21 0 -34 6t-22 21l-6 37v17q3 9 4 13.5t3 12t8 19.5l17 36l21 34q21 31 57 64l20 19z" />
    <glyph glyph-name="afii57410" unicode="&#x643;" horiz-adv-x="771" arabic-form="initial" 
d="M314 -66q-36 -53 -102 -76q-47 -15 -99 -15h-118v152h113q36 0 82 7.5t77 28.5l21 18l27 31q10 12 21 37q-6 11 -13.5 22.5t-17.5 24.5l-47 65l-81 99l-38 -31l-66 120q-49 94 -52 104q0 23 8.5 67t24.5 103q29 118 51 141l219 66l384 118l222 65q-4 -28 -25.5 -93.5
t-35.5 -79.5l-736 -225q-18 -4 -18 -27q0 -9 2 -10l147 -215l78 -114q37 -60 37 -153q0 -61 -17 -125t-48 -105z" />
    <glyph glyph-name="afii62815" unicode="&#x643;" horiz-adv-x="734" arabic-form="medial" 
d="M70 659q10 -22 36 -58l64 -98l144 -201l60 -82l46 -61q24 -34 45.5 -59.5t39.5 -41.5q71 -63 132 -63h123v-152h-107l-55 2q-11 1 -23 3.5t-24 6.5q-66 14 -108 57l-73 84l-41 54l-42 63l5 -55q0 -37 -9 -70q-5 -19 -9 -27l-8 -18l-8 -14q-28 -48 -92 -73
q-39 -13 -92 -13h-82v152h48h36q79 0 115 14q61 23 61 84q0 34 -22 85l-75 113l-105 156q-53 86 -68 113q0 47 26 156.5t50 130.5l817 175q-1 -16 -6.5 -34t-9 -27.5t-12.5 -27.5q-24 -56 -39 -74l-724 -162q-18 -8 -20 -21q0 -7 6 -17z" />
    <glyph glyph-name="afii57444" unicode="&#x644;" horiz-adv-x="1016" arabic-form="isolated" 
d="M871 115l-3 -66q0 -15 -0.5 -24t-6.5 -31q-10 -46 -37 -94q-52 -81 -171 -138q-57 -27 -117.5 -42t-117.5 -15q-132 0 -222.5 72.5t-90.5 182.5q0 40 6 73q5 37 11 55l12 33q11 34 36 90q21 46 57 110l26 -16l-56 -112q-31 -75 -31 -131q0 -90 74.5 -149.5t189.5 -59.5
q41 0 74.5 4.5t45.5 7.5t38.5 10t43.5 13t36 15l51 25l36 19q30 18 52 42q24 28 24 70q0 106 -34 353l-33 235l-31 196q-35 238 -35 250q0 39 7 62q4 16 11.5 28.5t23.5 30.5l92 -130q-21 -17 -33 -51l-6 -32l-3 -42q0 -40 21 -212l38 -330l17 -178z" />
    <glyph glyph-name="afii62819" unicode="&#x644;" horiz-adv-x="996" arabic-form="final" 
d="M833 -96v-34v-20q-4 -11 -4 -16q0 -21 -6 -43l-8 -28q-17 -76 -53.5 -141.5t-166.5 -123.5q-121 -48 -235 -48q-131 0 -208 47q-93 55 -114 179l-2 27q0 74 48 227l29 92l48 137l17 -8l-60 -185q-42 -132 -40 -155q0 -102 73 -152q51 -35 173 -61l58 -5q116 0 236 56.5
t142 112.5l14 41l11 53l-6 83l-3 88v17v14v12v10q0 41 -4 62q0 22 -4 42q-2 23 -4 27q-3 13 -4 18l-14 123l-7 60q-3 39 -11 65l-66 52q-33 31 -46 79q0 24 20 91l20 64q11 31 26 56l14 -4l-10 -21l-6 -16l-3 -37q-5 -55 72 -98l108 -44l-35 -139l-17 1q-7 0 -12 5l-9 -14
l-5 -10l30 -156q24 -150 24 -191v-27q15 -31 62 -57l36 -11q12 -4 18 -4.5t21 -0.5h31v-152h-53q-38 0 -69.5 18.5t-45.5 42.5z" />
    <glyph glyph-name="afii62817" unicode="&#x644;" horiz-adv-x="352" arabic-form="initial" 
d="M317 599l-35 -139l-17 1q-7 0 -12 5l-7 -11l-5 -13l16 -102q6 -45 19 -103l12 -89l6 -59q0 -73 -30 -149.5t-53 -88.5q-37 -8 -72 -8h-164v152h226q10 0 28 6t24 19l-10 74l-23 135l-13 123l-8 60l-4 41l-6 24l-66 52q-36 33 -47 79q0 24 19 91q11 41 22 66q4 10 11.5 26
t13.5 28l14 -4l-9 -21l-6 -16l-3 -37q-6 -54 71 -98z" />
    <glyph glyph-name="afii62818" unicode="&#x644;" horiz-adv-x="505" arabic-form="medial" 
d="M514 -157h-25q-41 0 -94 20q-62 26 -101 71q-20 23 -37 56q-9 27 -17 69l-9 -36q-4 -8 -6.5 -15.5t-6.5 -16.5l-12 -25l-26 -32q-37 -48 -80 -73q-37 -18 -76 -18h-32v152h26q18 0 28 2q13 3 31 8l35 16l14 6l16 11q29 18 57 63t39 104l-1 74l-5 139v15v12v9
q0 18 -0.5 32.5t-4.5 26.5l-5 37q-1 16 -6 29l-10 47l-6 24q-4 12 -10 20l59 105q3 -3 19 -64l11 -49q0 -16 1 -22l7 -33l7 -81l3 -84l2 -81l3 -82v-43l3 -35q0 -18 1 -24l6 -29q3 -9 4 -17t4.5 -18t7.5 -18.5t8 -15.5q20 -33 45 -48q11 -6 32 -17q16 -9 23 -11l26 -6l32 -2
h20v-152z" />
    <glyph glyph-name="afii57445" unicode="&#x645;" horiz-adv-x="678" arabic-form="isolated" 
d="M611 283q0 -23 -5 -41.5t-7.5 -27.5t-5.5 -19l-11 -29l-71 4l-53 2h-29t-32 -1q-29 0 -72 -12q-44 -8 -98 -37q-97 -52 -97 -122q0 -46 34 -191l70 -302q36 -150 36 -176q0 -36 -32 -80q-6 46 -21 110q-8 42 -14.5 68.5t-20.5 74.5l-62 251q-30 139 -30 174l1 49
q0 24 4 42l8 45l12 53q27 101 64 124q42 25 84 43l53 18l81 23l-31 30q-4 3 -14.5 8.5t-16.5 8.5q-16 7 -30 7q-22 0 -47 -18q-29 -17 -48 -41l-34 7q40 118 81.5 162.5t108.5 44.5q80 0 175 -110q70 -81 70 -142z" />
    <glyph glyph-name="afii62822" unicode="&#x645;" horiz-adv-x="926" arabic-form="final" 
d="M938 -157h-48l-32 1l-28 2l-30 7q-8 2 -15 4t-19 7q-58 23 -82 42l-4 -37q0 -11 -4 -16q-41 -4 -155 40q-123 48 -137 94l-2 21q0 44 20 92q26 60 71 91l-2 9l-17 1h-13q-43 0 -77.5 -6.5t-77.5 -23t-68.5 -31.5t-38.5 -34q-6 -8 -13 -29l-5 -39q0 -23 5 -51t10 -51
q2 -13 8 -35l46 -183l16 -84l5 -37l3 -34q0 -60 -27 -119q-3 -13 -65 -113l-10 36l9 58q4 26 4.5 36t0.5 16q0 70 -22 163l-14 72l-26 117q-16 76 -16 130q0 64 29 135l37 77q34 74 148 121q93 39 202 39q57 0 90 -11q35 -9 51 -33q9 -14 27 -85l20 -78q15 -66 92 -102
q30 -13 62 -20q18 -3 32.5 -5t33.5 -2h26v-152zM612 37l-8 21l-11 34l-14 69q-7 15 -29 15q-24 0 -47.5 -14.5t-35.5 -37.5q-7 -21 65 -60q70 -33 80 -27z" />
    <glyph glyph-name="afii62820" unicode="&#x645;" horiz-adv-x="773" arabic-form="initial" 
d="M743 43q0 -17 -7 -41.5t-24 -55.5l-54 -101q-7 -11 -23 -11l-12 1q-69 17 -182 56l-169 62l-82 24q-30 -52 -67 -93t-73 -41h-58v152h30q56 0 110 50q33 32 93 106l90 115q23 29 42.5 51t35.5 36q48 39 109 39h12q10 0 22.5 -4.5t24.5 -14.5q49 -44 115 -165
q12 -21 22 -44.5t21 -48.5q17 -45 24 -72zM604 58q-11 31 -56 87q-62 69 -130 81q-10 0 -55 -33l-39 -32l-27 -25l127 -59l94 -37l69 -23l11 18l4 11q0 7 2 12z" />
    <glyph glyph-name="afii62821" unicode="&#x645;" horiz-adv-x="953" arabic-form="medial" 
d="M960 -157h-12q-78 0 -163 68q-59 44 -95 106q0 -8 -1 -18t-3 -24.5t-5.5 -26t-9.5 -26.5q-1 -11 -7 -22q-4 -13 -13 -29l-9 -18l-14 -16q-8 -11 -24 -11l-12 1l-82 23l-43 15l-51 20l-68 27l-43 18l-41 19l-74 28q-50 -50 -103 -95q-23 -17 -44 -28t-40 -11h-11v152h30
q56 0 110 50l54 55l41 46l90 104q47 54 76 78q27 25 59 25q20 0 40 -9.5t42 -29.5l89 -94q30 -32 49 -51q28 -29 48 -48l83 -75l25 -18l36 -18q22 -8 36 -11.5t32 -3.5h28v-152zM580 39q-8 44 -44 97q-52 79 -118 90q-8 0 -53 -33q-19 -16 -34.5 -31t-28.5 -31q0 -8 103 -58
t158 -66q17 10 17 32z" />
    <glyph glyph-name="afii57446" unicode="&#x646;" horiz-adv-x="2397" arabic-form="isolated" 
d="M1413 581l-83 -126l-144 87l82 123zM2360 127q0 -38 -3 -66t-12 -52q-13 -52 -39 -97q-9 -15 -39 -36q-25 -17 -81 -45q-130 -65 -300 -105q-9 -1 -42.5 -7t-64.5 -12l-119 -18q-116 -13 -241 -13l-115 2l-181 9q-78 0 -167 13l-97 17q-204 33 -376 98q-130 49 -221 113
l-53 38l-60 45q-60 48 -98 90l41 12l132 -64l129 -59q154 -62 460 -109q74 -12 154.5 -23.5t143.5 -11.5q43 0 106 -2q143 -9 179 -9q295 0 514 50q177 34 306 96q98 50 104 77l1 21q0 32 -10.5 71.5t-32.5 90.5l-27 60q-6 13 -11 25q-9 18 -33 60l2 19q0 13 3 26
q4 14 13 39q16 38 34 53q22 -40 52 -118l32 -83l4 -12l3 -18l7 -35l5 -70l-2 -33v-27z" />
    <glyph glyph-name="afii62825" unicode="&#x646;" horiz-adv-x="2500" arabic-form="final" 
d="M1413 335l-83 -127l-144 87l82 124zM2516 -157h-67q-24 0 -50 9q-24 10 -39 29l-3 -59l-4 -27q0 -6 -1.5 -10.5t-6.5 -18.5q-13 -60 -39 -101q-7 -14 -40 -35q-25 -18 -84.5 -47.5t-131.5 -54.5l-81 -24l-83 -23q-106 -22 -225.5 -36t-241.5 -14h-50q-95 5 -113 5l-133 5
q-38 0 -65.5 1.5t-69.5 7.5l-129 22q-101 15 -195.5 39t-180.5 58q-130 48 -221 112l-53 38l-60 46q-60 48 -98 91l41 12l132 -65l62 -29l67 -30q154 -63 458 -109t585 -46q292 0 514 48q181 36 306 98q98 46 104 76l1 20q0 30 -10 70q-6 23 -13.5 43t-19.5 50l-26 57
l-18 38l-27 51v16.5t3 24t14 39.5l17 35q8 14 18 23l22 -47l30 -73l32 -83q13 -38 60 -61l18 -9l19 -5l40 -5h36v-152z" />
    <glyph glyph-name="afii62823" unicode="&#x646;" horiz-adv-x="330" arabic-form="initial" 
d="M248 647l-80 -128l-144 85l81 124zM284 197q0 -73 -26 -174q-6 -24 -13 -46.5t-14 -41t-13.5 -31.5t-13.5 -23l-34 -16q-64 -22 -107 -22h-73v152h89q48 0 94 7.5t55 34.5q-15 126 -65 199l-63 79l27 67l6 16l9 19l10 16l10 12q32 -22 74 -93q48 -84 48 -155z" />
    <glyph glyph-name="afii62824" unicode="&#x646;" horiz-adv-x="503" arabic-form="medial" 
d="M422 511l-81 -129l-145 84l83 125zM510 -157h-64q-84 0 -144 46q-34 27 -62 80q-25 -41 -76 -80q-68 -46 -126 -46h-46v152h47q30 0 60.5 6.5t65.5 23.5q66 31 81 67l24 54l35 80l13 -12l-12 -35q-12 -46 -12 -78q23 -43 47 -66q48 -40 125 -40h44v-152z" />
    <glyph glyph-name="afii57447" unicode="&#x647;" horiz-adv-x="597" arabic-form="isolated" 
d="M512 232q0 -117 -69.5 -194.5t-170.5 -77.5q-73 0 -120 54t-47 132v26l5 23l2 18l9 29l7 31l11 25q4 10 11 23.5t15 33.5l49 100l19 33q9 18 15 24q25 36 51 36q63 0 131 -88q37 -44 59.5 -106.5t22.5 -121.5zM443 206q0 11 -13 30t-37 38l-37 27l-37 19q-18 9 -36 14
t-32 5q-33 0 -63 -40q-5 -10 -8.5 -18.5t-7 -23.5t-5.5 -27.5t-2 -28.5q0 -30 32 -53q36 -20 84 -20q34 0 62 5.5t54 17.5q46 22 46 55z" />
    <glyph glyph-name="afii62828" unicode="&#x647;" horiz-adv-x="793" arabic-form="final" 
d="M520 200v11l-1 21q0 18 -2 25v66l-40 -37l-43 -36q-23 -18 -178 -59q-59 -13 -62 -30q2 -6 62 -16l55 -5l62 -4h25h17l14 4q19 0 34 8q32 16 57 52zM802 -157h-55q-20 0 -55.5 13t-56.5 31q-50 44 -81 138l-18 66q-3 9 -10 51q-2 19 -6 37q-7 -12 -21 -30.5t-42 -51.5
q-50 -60 -81 -86l-48 -8l-77 -2q-14 0 -40.5 0.5t-35.5 0.5q-32 0 -60 7q-56 10 -76 30q0 10 8 27t27 43q13 18 29 38t46 54l35 25q28 18 67 35l88 30l174 54v161l44 95l15 -6q-5 -22 -7.5 -60.5t-2.5 -92.5q0 -115 11 -192t43 -139q17 -35 64 -75.5t86 -40.5h36v-152z" />
    <glyph glyph-name="afii57470" unicode="&#x647;" horiz-adv-x="848" arabic-form="initial" 
d="M356 80v17q-2 9 -4 22.5t-6 21.5q-3 16 -9 29q-27 72 -63 80q-30 3 -72 -23q-22 -13 -38.5 -28t-29.5 -35q-2 -3 -2 -9q0 -13 20 -46q28 -44 84 -82l26 -13q35 15 50 30q21 12 44 36zM690 7q0 14 -14 37q-6 12 -13 23.5t-20 27.5q-21 32 -46 57q-12 13 -23.5 25t-24.5 24
l-48 29l-48 29l-23 12l-25 18l9 -35l3 -54v-33v-24l-2 -19l-3 -27l-2 -21l-4 -18l-6 -19q-3 -16 -7 -19h31t44 -4q16 0 37 -3l60 -10q41 -4 69 -13q34 -8 50 -17l4 20zM818 -7l2 -59v-16q0 -21 -2 -33l-2 -23l-5 -19q-1 -10 -2.5 -18t-6.5 -22l-19 -56l-86 30l-79 22l-72 17
l-101 18l-87 6l-88 3h-98h-182v152l53 4l-1 22l1 14l20 100q18 73 31 97l42 57l16 20l16 18l37 42q11 13 16 18t16 13q-30 19 -62 60l-24 33l218 91q9 -54 123 -157q165 -150 202 -195q108 -123 124 -239z" />
    <glyph glyph-name="afii62827" unicode="&#x6be;" horiz-adv-x="565" arabic-form="final" 
d="M168 -180l-2 -24q0 -39 24 -71q7 -10 12 -16q4 -3 16 -15q10 -7 22 -14.5t17 -9.5q48 -23 101 -23q54 0 100 29q6 5 7 12q0 9 -9 19l-13 13q-37 35 -113 68t-140 33zM572 -157h-84l3 -26l10 -36l9 -42l4 -21q-12 -103 -78 -161.5t-170 -58.5q-75 0 -130 63.5t-55 168.5
l3 45l-37 -7l3 75h-58v152h114q16 9 59 88l29 63l27 65q39 106 60 200t21 170v27l50 -13q42 -70 65.5 -154t23.5 -162q0 -79 -18 -142t-53 -110q4 -6 16 -13l25 -12l42 -6l74 -1h45v-152zM185 -19q41 10 88 44q59 42 84 99q5 12 7 27.5t2 31.5q0 47 -18 89q-4 14 -8.5 25
t-7.5 17q-8 15 -17 27z" />
    <glyph glyph-name="afii57448" unicode="&#x648;" horiz-adv-x="794" arabic-form="isolated" 
d="M725 146q0 -257 -127 -469q-65 -106 -135.5 -158.5t-152.5 -52.5q-64 0 -113.5 15.5t-150.5 70.5l20 18l34 -12l30 -8l40 -5l27 -1q69 0 150 37t145 97q78 76 128.5 178.5t50.5 178.5v24l-3 21q0 11 -5 19l-13 23q-5 -7 -11 -15t-15 -16l-26 -27q-24 -15 -52 -15
q-52 0 -90.5 39t-38.5 93q0 31 15.5 83.5t50.5 117.5q20 43 47 67q12 12 25.5 19t26.5 7q53 0 100 -100q10 -22 18 -48t14 -56l8 -53zM593 251q-6 24 -19 33q-10 13 -38 15q-36 0 -36 -40q0 -18 9 -33q10 -13 30 -13q19 0 31 9t23 29z" />
    <glyph glyph-name="afii62829" unicode="&#x648;" horiz-adv-x="877" arabic-form="final" 
d="M722 -1l1 12v12q0 26 -6 41q-13 60 -63 101q-42 35 -69 32q-36 -8 -58.5 -32.5t-22.5 -63.5q5 -36 65 -64.5t153 -37.5zM902 -160h-135q-16 -43 -37 -82t-49 -76q-39 -60 -90 -106q-22 -23 -62 -49l-40 -28l-46 -30q-87 -54 -132 -68q-26 5 -70 24q-36 14 -46 19
q-15 6 -56 27l-49 22l-37 20q-39 18 -108 57l-94 52l8 9q96 -43 183 -70l49 -15l46 -11l38 -6l36 -2l31 1q18 0 111 43q105 51 194 116q106 76 142 158h-26q-14 0 -23.5 1t-20 3t-24.5 7q-41 9 -92 39q-33 18 -51 52q-14 34 -14 75q0 77 39.5 163t92.5 135q31 25 78 25
q36 0 54 -17q51 -45 77 -120q12 -36 25 -146l2 -18v-16v-20l-2 -13h98v-155z" />
    <glyph glyph-name="afii57449" unicode="&#x649;" horiz-adv-x="2396" arabic-form="isolated" 
d="M2362 167l1 -10q0 -42 -18.5 -123.5t-45.5 -121.5q-21 -29 -119 -79q-64 -32 -133 -56t-164 -50q-217 -51 -464 -51l-115 2l-181 9q-78 0 -167 13l-97 17q-204 33 -376 98q-130 49 -221 113l-53 38l-60 45q-60 48 -98 90l41 12l132 -64l129 -59q154 -62 460 -109
q74 -12 154.5 -23.5t143.5 -11.5q43 0 106 -2q143 -9 179 -9q285 0 498 46q84 16 156 38q35 12 64.5 24t58.5 28q82 40 94 74q0 16 -51 36l-16 6l-32 11l-64 15q-84 16 -164 51q-95 41 -105 75v15q0 17 3 47t12 75q15 88 24 106q56 129 185 207q108 68 210 68q54 0 76 -22
q8 -8 14 -35l3 -56q0 -60 -15 -81q-14 6 -29 10q-3 1 -29 8q-16 3 -29.5 4.5t-31.5 1.5q-117 0 -225 -92q-87 -76 -82 -104q10 -39 117 -77l195 -57q109 -37 129 -90z" />
    <glyph glyph-name="afii62830" unicode="&#x649;" horiz-adv-x="2315" arabic-form="final" 
d="M2327 -157h-27q-180 0 -256 -24q-50 -15 -44 -38q15 -6 48 -19t63 -27l91 -41q93 -43 116 -93v-10q0 -29 -16 -98q-20 -91 -43 -123q-21 -33 -121 -84q-125 -65 -296 -105q-219 -51 -464 -51l-116 2l-182 9q-78 0 -166 13l-98 18q-210 31 -374 97q-56 20 -119 52l-41 20
q-25 16 -61 41q-62 41 -113 84q-31 24 -58 49l-21 21t-19 21l40 11l133 -63l129 -60q152 -62 460 -108t584 -46q144 0 266 10t231 33q162 31 277 91q81 41 94 76q0 14 -42 43q-38 24 -88 43l-139 53q-67 29 -71 59q-2 20 25.5 98t40.5 98q18 27 84 59q89 41 190 41h103v-152
z" />
    <glyph glyph-name="afii57450" unicode="&#x64a;" horiz-adv-x="2396" arabic-form="isolated" 
d="M2362 167l1 -10q0 -42 -18.5 -123.5t-45.5 -121.5q-21 -29 -119 -79q-64 -32 -133 -56t-164 -50q-217 -51 -464 -51l-115 2l-181 9q-78 0 -167 13l-97 17q-204 33 -376 98q-130 49 -221 113l-53 38l-60 45q-60 48 -98 90l41 12l132 -64l129 -59q154 -62 460 -109
q74 -12 154.5 -23.5t143.5 -11.5q43 0 106 -2q143 -9 179 -9q285 0 498 46q84 16 156 38q35 12 64.5 24t58.5 28q82 40 94 74q0 16 -51 36l-16 6l-32 11l-64 15q-84 16 -164 51q-95 41 -105 75v15q0 17 3 47t12 75q15 88 24 106q56 129 185 207q108 68 210 68q54 0 76 -22
q8 -8 14 -35l3 -56q0 -60 -15 -81q-14 6 -29 10q-3 1 -29 8q-16 3 -29.5 4.5t-31.5 1.5q-117 0 -225 -92q-87 -76 -82 -104q10 -39 117 -77l195 -57q109 -37 129 -90zM1899 -507l-83 -126l-141 87l81 125zM1685 -507l-81 -126l-143 87l83 125z" />
    <glyph glyph-name="afii62833" unicode="&#x64a;" horiz-adv-x="2315" arabic-form="final" 
d="M1536 -865l65 -38l-83 -127l-141 88l48 73l-47 -1l-47 1l55 -34l-81 -127l-142 88l52 77l-135 6q-78 0 -166 13l-98 18q-210 31 -374 97q-56 20 -119 52l-41 20q-25 16 -61 41q-62 41 -113 84q-31 24 -58 49l-21 21t-19 21l40 11l133 -63l129 -60q152 -62 460 -108
t584 -46q144 0 266 10t231 33q162 31 277 91q81 41 94 76q0 14 -42 43q-38 24 -88 43l-139 53q-67 29 -71 59q-2 20 25.5 98t40.5 98q18 27 84 59q89 41 190 41h103v-152h-27q-180 0 -256 -24q-50 -15 -44 -38q15 -6 48 -19t63 -27l91 -41q93 -43 116 -93v-10q0 -29 -16 -98
q-20 -91 -43 -123q-21 -33 -121 -84q-125 -65 -296 -105q-121 -27 -185 -36.5t-121 -9.5z" />
    <glyph glyph-name="afii62831" unicode="&#x6cc;" horiz-adv-x="309" arabic-form="initial" 
d="M367 -341l-83 -127l-145 86l84 125zM153 -341l-80 -127l-144 86l83 125zM246 197q0 -73 -28 -174q-6 -24 -12.5 -46.5t-13.5 -41t-14 -31.5t-14 -23l-33 -16q-64 -22 -107 -22h-72v152h87q48 0 93 7.5t56 34.5q-8 64 -22.5 113t-42.5 86l-62 79l25 67l7 18l10 17
q5 10 18 28q34 -22 76 -93q49 -84 49 -155z" />
    <glyph glyph-name="afii62832" unicode="&#x6cc;" horiz-adv-x="503" arabic-form="medial" 
d="M510 -157h-64q-84 0 -144 46q-34 27 -62 80q-25 -41 -76 -80q-68 -46 -126 -46h-46v152h47q30 0 60.5 6.5t65.5 23.5q66 31 81 67l24 54l35 80l13 -12l-12 -35q-12 -46 -12 -78q23 -43 47 -66q48 -40 125 -40h44v-152zM488 -411l-81 -123l-144 84l81 121zM274 -411
l-80 -123l-144 84l84 121z" />
    <glyph glyph-name="glyph1106" unicode="&#x649;" horiz-adv-x="359" arabic-form="initial" 
d="M252 197q0 -73 -26 -174q-6 -24 -13 -46.5t-14 -41t-13.5 -31.5t-13.5 -23l-35 -16q-63 -22 -106 -22h-73v152h89q48 0 93 7.5t56 34.5q-9 64 -23.5 113t-41.5 86l-63 79l26 67l7 18l9 17q5 10 18 28q34 -22 76 -93q48 -84 48 -155z" />
    <glyph glyph-name="glyph1107" unicode="&#x649;" horiz-adv-x="503" arabic-form="medial" 
d="M519 -157h-73q-84 0 -144 46q-34 27 -62 80q-25 -41 -76 -80q-68 -46 -126 -46h-46v152h47q30 0 60.5 6.5t65.5 23.5q66 31 81 67l24 54l35 80l13 -12l-12 -35q-12 -46 -12 -78q23 -43 47 -66q48 -40 125 -40h53v-152z" />
    <glyph glyph-name="uniFBEA" unicode="&#xfbea;" horiz-adv-x="1028" arabic-form="isolated" 
d="M570 -154h-168q-203 0 -223 228q-11 120 -52 465q-36 300 -36 332q0 48 86 152l77 -870q15 -162 148 -162h168v-145zM863 167q0 -321 -233 -321h-84v145h84q62 0 117 25q62 28 62 66q0 19 -12 39l-52 84q-17 27 -17 51q0 25 15 47l66 101q54 -119 54 -237zM972 645
q-7 -34 -12 -44q-11 -29 -29 -34l-331 -95q11 46 35 65q20 18 86 42q-79 38 -79 94q0 25 20 52q103 142 196 142q62 0 62 -67q0 -29 -35 -82q-61 40 -97 40q-33 0 -80 -40q96 -90 170 -90q30 0 94 17z" />
    <glyph glyph-name="uniFBEB" unicode="&#xfbeb;" horiz-adv-x="1047" arabic-form="final" 
d="M570 -154h-168q-203 0 -223 228q-11 120 -52 465q-36 300 -36 332q0 48 86 152l77 -870q15 -162 148 -162h168v-145zM1085 -154h-168q-27 0 -63 47t-38 91q-72 -138 -186 -138h-84v145h84q107 0 230 169l15 -5q13 -93 30 -124q22 -40 76 -40h104v-145zM1020 431
q-7 -33 -12 -44q-11 -29 -29 -34l-331 -94q11 45 35 64q20 18 86 42q-79 39 -79 94q0 25 20 53q103 141 196 141q62 0 62 -67q0 -29 -35 -81q-61 39 -97 39q-33 0 -80 -39q96 -90 170 -90q30 0 94 16z" />
    <glyph glyph-name="uniFBEC" unicode="&#xfbec;" horiz-adv-x="1185" arabic-form="isolated" 
d="M754 -154h-167q-109 0 -150 263l-72 -68q-54 -42 -108 -42q-75 0 -133 23t-58 52q0 19 54 133q56 119 258 221v20q0 76 49 169l73 -442q30 -184 87 -184h167v-145zM427 183l-30 169q-144 -49 -211 -167q59 -25 160 -25q39 0 81 23zM1048 167q0 -321 -233 -321h-84v145h84
q62 0 117 25q62 28 62 66q0 19 -12 39l-52 84q-17 27 -17 51q0 25 15 47l66 101q54 -119 54 -237zM1157 645q-7 -34 -12 -44q-11 -29 -29 -34l-331 -95q11 46 35 65q20 18 86 42q-79 38 -79 94q0 25 20 52q103 142 196 142q62 0 62 -67q0 -29 -35 -82q-61 40 -97 40
q-33 0 -80 -40q96 -90 170 -90q30 0 94 17z" />
    <glyph glyph-name="uniFBED" unicode="&#xfbed;" horiz-adv-x="1232" arabic-form="final" 
d="M754 -154h-167q-109 0 -150 263l-72 -68q-54 -42 -108 -42q-75 0 -133 23t-58 52q0 19 54 133q56 119 258 221v20q0 76 49 169l73 -442q30 -184 87 -184h167v-145zM427 183l-30 169q-144 -49 -211 -167q59 -25 160 -25q39 0 81 23zM1258 -154h-168q-27 0 -63 47t-38 91
q-72 -138 -186 -138h-84v145h84q107 0 230 169l15 -5q13 -93 30 -124q22 -40 76 -40h104v-145zM1193 431q-7 -33 -12 -44q-11 -29 -29 -34l-331 -94q11 45 35 64q20 18 86 42q-79 39 -79 94q0 25 20 53q103 141 196 141q62 0 62 -67q0 -29 -35 -81q-61 39 -97 39
q-33 0 -80 -39q96 -90 170 -90q30 0 94 16z" />
    <glyph glyph-name="uniFBEE" unicode="&#xfbee;" horiz-adv-x="1356" arabic-form="isolated" 
d="M943 -154h-180q-59 -231 -135 -351q-141 -221 -329 -221q-102 0 -281 101l20 21q84 -33 143 -33q180 0 336.5 142.5t195.5 340.5h-39q-103 0 -169 34.5t-66 90.5q0 66 93 219q50 83 96 83q52 0 94 -83.5t46 -198.5h175v-145zM704 -9q-37 132 -117 132q-17 0 -36 -16
t-19 -40q0 -32 45 -52q48 -24 127 -24zM1213 167q0 -321 -233 -321h-84v145h84q63 0 118 25q61 28 61 66q0 19 -12 39l-51 84q-17 27 -17 51q0 25 14 47l66 101q54 -119 54 -237zM1322 645q-7 -34 -12 -44q-10 -29 -28 -34l-332 -95q11 46 35 65q21 18 87 42q-80 38 -80 94
q0 25 21 52q103 142 195 142q63 0 63 -67q0 -29 -35 -82q-61 40 -97 40q-34 0 -81 -40q96 -90 171 -90q30 0 93 17z" />
    <glyph glyph-name="uniFBEF" unicode="&#xfbef;" horiz-adv-x="1398" arabic-form="final" 
d="M943 -154h-180q-59 -231 -135 -351q-141 -221 -329 -221q-102 0 -281 101l20 21q84 -33 143 -33q180 0 336.5 142.5t195.5 340.5h-39q-103 0 -169 34.5t-66 90.5q0 66 93 219q50 83 96 83q52 0 94 -83.5t46 -198.5h175v-145zM704 -9q-37 132 -117 132q-17 0 -36 -16
t-19 -40q0 -32 45 -52q48 -24 127 -24zM1435 -154h-168q-26 0 -62 47t-39 91q-72 -138 -186 -138h-84v145h84q107 0 231 169l14 -5q13 -93 30 -124q23 -40 77 -40h103v-145zM1370 431q-7 -33 -12 -44q-10 -29 -28 -34l-332 -94q11 45 35 64q21 18 87 42q-80 39 -80 94
q0 25 21 53q103 141 195 141q63 0 63 -67q0 -29 -35 -81q-61 39 -97 39q-34 0 -81 -39q96 -90 171 -90q30 0 93 16z" />
    <glyph glyph-name="uniFBF0" unicode="&#xfbf0;" horiz-adv-x="1356" arabic-form="isolated" 
d="M943 -154h-180q-59 -231 -135 -351q-141 -221 -329 -221q-102 0 -281 101l20 21q84 -33 143 -33q180 0 336.5 142.5t195.5 340.5h-39q-103 0 -169 34.5t-66 90.5q0 66 93 219q50 83 96 83q52 0 94 -83.5t46 -198.5h175v-145zM704 -9q-37 132 -117 132q-17 0 -36 -16
t-19 -40q0 -32 45 -52q48 -24 127 -24zM1213 167q0 -321 -233 -321h-84v145h84q63 0 118 25q61 28 61 66q0 19 -12 39l-51 84q-17 27 -17 51q0 25 14 47l66 101q54 -119 54 -237zM1322 645q-7 -34 -12 -44q-10 -29 -28 -34l-332 -95q11 46 35 65q21 18 87 42q-80 38 -80 94
q0 25 21 52q103 142 195 142q63 0 63 -67q0 -29 -35 -82q-61 40 -97 40q-34 0 -81 -40q96 -90 171 -90q30 0 93 17zM736 773q0 -76 -61 -142t-119 -78l-35 -6q140 92 140 184q-15 32 -54 32q-9 0 -19 -3q31 0 16 -1q-14 -2 -22 -2q-71 7 -64 69q20 81 92 81q52 0 89 -38.5
t37 -95.5z" />
    <glyph glyph-name="uniFBF1" unicode="&#xfbf1;" horiz-adv-x="1398" arabic-form="final" 
d="M943 -154h-180q-59 -231 -135 -351q-141 -221 -329 -221q-102 0 -281 101l20 21q84 -33 143 -33q180 0 336.5 142.5t195.5 340.5h-39q-103 0 -169 34.5t-66 90.5q0 66 93 219q50 83 96 83q52 0 94 -83.5t46 -198.5h175v-145zM704 -9q-37 132 -117 132q-17 0 -36 -16
t-19 -40q0 -32 45 -52q48 -24 127 -24zM1435 -154h-168q-26 0 -62 47t-39 91q-72 -138 -186 -138h-84v145h84q107 0 231 169l14 -5q13 -93 30 -124q23 -40 77 -40h103v-145zM1370 431q-7 -33 -12 -44q-10 -29 -28 -34l-332 -94q11 45 35 64q21 18 87 42q-80 39 -80 94
q0 25 21 53q103 141 195 141q63 0 63 -67q0 -29 -35 -81q-61 39 -97 39q-34 0 -81 -39q96 -90 171 -90q30 0 93 16zM736 773q0 -76 -61 -142t-119 -78l-35 -6q140 92 140 184q-15 32 -54 32q-9 0 -19 -3q31 0 16 -1q-14 -2 -22 -2q-71 7 -64 69q20 81 92 81q52 0 89 -38.5
t37 -95.5z" />
    <glyph glyph-name="uniFBF2" unicode="&#xfbf2;" horiz-adv-x="1356" arabic-form="isolated" 
d="M943 -154h-180q-59 -231 -135 -351q-141 -221 -329 -221q-102 0 -281 101l20 21q84 -33 143 -33q180 0 336.5 142.5t195.5 340.5h-39q-103 0 -169 34.5t-66 90.5q0 66 93 219q50 83 96 83q52 0 94 -83.5t46 -198.5h175v-145zM704 -9q-37 132 -117 132q-17 0 -36 -16
t-19 -40q0 -32 45 -52q48 -24 127 -24zM1213 167q0 -321 -233 -321h-84v145h84q63 0 118 25q61 28 61 66q0 19 -12 39l-51 84q-17 27 -17 51q0 25 14 47l66 101q54 -119 54 -237zM1322 645q-7 -34 -12 -44q-10 -29 -28 -34l-332 -95q11 46 35 65q21 18 87 42q-80 38 -80 94
q0 25 21 52q103 142 195 142q63 0 63 -67q0 -29 -35 -82q-61 40 -97 40q-34 0 -81 -40q96 -90 171 -90q30 0 93 17zM775 937l-139 -334l-49 -6l-195 295l21 63l182 -209l143 248z" />
    <glyph glyph-name="uniFBF3" unicode="&#xfbf3;" horiz-adv-x="1398" arabic-form="final" 
d="M943 -154h-180q-59 -231 -135 -351q-141 -221 -329 -221q-102 0 -281 101l20 21q84 -33 143 -33q180 0 336.5 142.5t195.5 340.5h-39q-103 0 -169 34.5t-66 90.5q0 66 93 219q50 83 96 83q52 0 94 -83.5t46 -198.5h175v-145zM704 -9q-37 132 -117 132q-17 0 -36 -16
t-19 -40q0 -32 45 -52q48 -24 127 -24zM1435 -154h-168q-26 0 -62 47t-39 91q-72 -138 -186 -138h-84v145h84q107 0 231 169l14 -5q13 -93 30 -124q23 -40 77 -40h103v-145zM1370 431q-7 -33 -12 -44q-10 -29 -28 -34l-332 -94q11 45 35 64q21 18 87 42q-80 39 -80 94
q0 25 21 53q103 141 195 141q63 0 63 -67q0 -29 -35 -81q-61 39 -97 39q-34 0 -81 -39q96 -90 171 -90q30 0 93 16zM775 937l-139 -334l-49 -6l-195 295l21 63l182 -209l143 248z" />
    <glyph glyph-name="uniFBF4" unicode="&#xfbf4;" horiz-adv-x="1356" arabic-form="isolated" 
d="M943 -154h-180q-59 -231 -135 -351q-141 -221 -329 -221q-102 0 -281 101l20 21q84 -33 143 -33q180 0 336.5 142.5t195.5 340.5h-39q-103 0 -169 34.5t-66 90.5q0 66 93 219q50 83 96 83q52 0 94 -83.5t46 -198.5h175v-145zM704 -9q-37 132 -117 132q-17 0 -36 -16
t-19 -40q0 -32 45 -52q48 -24 127 -24zM1213 167q0 -321 -233 -321h-84v145h84q63 0 118 25q61 28 61 66q0 19 -12 39l-51 84q-17 27 -17 51q0 25 14 47l66 101q54 -119 54 -237zM1322 645q-7 -34 -12 -44q-10 -29 -28 -34l-332 -95q11 46 35 65q21 18 87 42q-80 38 -80 94
q0 25 21 52q103 142 195 142q63 0 63 -67q0 -29 -35 -82q-61 40 -97 40q-34 0 -81 -40q96 -90 171 -90q30 0 93 17zM620 569l-36 -3l-52 165q-18 45 -27 105q-13 37 -13 55q0 32 35 68q18 22 53 22q16 0 38 -5q49 -47 32 -164z" />
    <glyph glyph-name="uniFBF5" unicode="&#xfbf5;" horiz-adv-x="1398" arabic-form="final" 
d="M943 -154h-180q-59 -231 -135 -351q-141 -221 -329 -221q-102 0 -281 101l20 21q84 -33 143 -33q180 0 336.5 142.5t195.5 340.5h-39q-103 0 -169 34.5t-66 90.5q0 66 93 219q50 83 96 83q52 0 94 -83.5t46 -198.5h175v-145zM704 -9q-37 132 -117 132q-17 0 -36 -16
t-19 -40q0 -32 45 -52q48 -24 127 -24zM1435 -154h-168q-26 0 -62 47t-39 91q-72 -138 -186 -138h-84v145h84q107 0 231 169l14 -5q13 -93 30 -124q23 -40 77 -40h103v-145zM1370 431q-7 -33 -12 -44q-10 -29 -28 -34l-332 -94q11 45 35 64q21 18 87 42q-80 39 -80 94
q0 25 21 53q103 141 195 141q63 0 63 -67q0 -29 -35 -81q-61 39 -97 39q-34 0 -81 -39q96 -90 171 -90q30 0 93 16zM620 569l-36 -3l-52 165q-18 45 -27 105q-13 37 -13 55q0 32 35 68q18 22 53 22q16 0 38 -5q49 -47 32 -164z" />
    <glyph glyph-name="uniFBF6" unicode="&#xfbf6;" horiz-adv-x="1649" arabic-form="isolated" 
d="M1231 -154h-155q-107 0 -153 -20.5t-58 -44.5q0 -34 73 -49l101 -20q147 -30 147 -133q-24 -142 -234 -233q-212 -94 -441 -94q-190 0 -295.5 93.5t-105.5 248.5q0 147 104 334l22 -18q-65 -141 -65 -244q0 -108 98.5 -178.5t267.5 -70.5q161 0 375 61q194 50 218 101
q0 30 -96 38l-169 14q-111 10 -111 78q12 90 86 172q112 110 252 110h139v-145zM597 -756l87 -57l-57 -87l79 -47l-58 -90l-90 54l56 88l-77 48zM1507 167q0 -321 -233 -321h-84v145h84q62 0 118 25q61 28 61 66q0 19 -12 39l-52 84q-17 27 -17 51q0 25 15 47l66 101
q54 -119 54 -237zM1616 645q-7 -34 -12 -44q-11 -29 -29 -34l-331 -95q11 46 35 65q20 18 86 42q-79 38 -79 94q0 25 20 52q104 142 196 142q62 0 62 -67q0 -29 -34 -82q-62 40 -98 40q-33 0 -80 -40q96 -90 170 -90q30 0 94 17z" />
    <glyph glyph-name="uniFBF7" unicode="&#xfbf7;" horiz-adv-x="1708" arabic-form="final" 
d="M1231 -154h-155q-107 0 -153 -20.5t-58 -44.5q0 -34 73 -49l101 -20q147 -30 147 -133q-24 -142 -234 -233q-212 -94 -441 -94q-190 0 -295.5 93.5t-105.5 248.5q0 147 104 334l22 -18q-65 -141 -65 -244q0 -108 98.5 -178.5t267.5 -70.5q161 0 375 61q194 50 218 101
q0 30 -96 38l-169 14q-111 10 -111 78q12 90 86 172q112 110 252 110h139v-145zM597 -756l87 -57l-57 -87l79 -47l-58 -90l-90 54l56 88l-77 48zM1741 -154h-168q-27 0 -63 47t-38 91q-72 -138 -186 -138h-84v145h84q107 0 230 169l15 -5q13 -93 30 -124q23 -40 77 -40h103
v-145zM1676 431q-7 -33 -12 -44q-11 -29 -29 -34l-331 -94q11 45 35 64q20 18 86 42q-79 39 -79 94q0 25 20 53q104 141 196 141q62 0 62 -67q0 -29 -34 -81q-62 39 -98 39q-33 0 -80 -39q96 -90 170 -90q30 0 94 16z" />
    <glyph glyph-name="uniFBF8" unicode="&#xfbf8;" horiz-adv-x="953" arabic-form="initial" 
d="M539 -154h-168q-27 0 -63 47t-38 91q-72 -138 -186 -138h-84v145h84q107 0 230 169l15 -5q13 -93 30 -124q23 -40 77 -40h103v-145zM220 -305l124 -82l-80 -124l113 -68l-84 -129l-130 78l81 126l-111 68zM821 167q0 -321 -233 -321h-84v145h84q62 0 118 25q61 28 61 66
q0 19 -12 39l-52 84q-17 27 -17 51q0 25 15 47l66 101q54 -119 54 -237zM930 645q-7 -34 -12 -44q-11 -29 -29 -34l-331 -95q11 46 35 65q20 18 86 42q-79 38 -79 94q0 25 20 52q104 142 196 142q62 0 62 -67q0 -29 -34 -82q-62 40 -98 40q-33 0 -80 -40q96 -90 170 -90
q30 0 94 17z" />
    <glyph glyph-name="uniFBF9" unicode="&#xfbf9;" horiz-adv-x="1649" arabic-form="isolated" 
d="M1231 -154h-155q-107 0 -153 -20.5t-58 -44.5q0 -34 73 -49l101 -20q147 -30 147 -133q-24 -142 -234 -233q-212 -94 -441 -94q-190 0 -295.5 93.5t-105.5 248.5q0 147 104 334l22 -18q-65 -141 -65 -244q0 -108 98.5 -178.5t267.5 -70.5q161 0 375 61q194 50 218 101
q0 30 -96 38l-169 14q-111 10 -111 78q12 90 86 172q112 110 252 110h139v-145zM1507 167q0 -321 -233 -321h-84v145h84q62 0 118 25q61 28 61 66q0 19 -12 39l-52 84q-17 27 -17 51q0 25 15 47l66 101q54 -119 54 -237zM1616 645q-7 -34 -12 -44q-11 -29 -29 -34l-331 -95
q11 46 35 65q20 18 86 42q-79 38 -79 94q0 25 20 52q104 142 196 142q62 0 62 -67q0 -29 -34 -82q-62 40 -98 40q-33 0 -80 -40q96 -90 170 -90q30 0 94 17z" />
    <glyph glyph-name="uniFBFA" unicode="&#xfbfa;" horiz-adv-x="1708" arabic-form="final" 
d="M1231 -154h-155q-107 0 -153 -20.5t-58 -44.5q0 -34 73 -49l101 -20q147 -30 147 -133q-24 -142 -234 -233q-212 -94 -441 -94q-190 0 -295.5 93.5t-105.5 248.5q0 147 104 334l22 -18q-65 -141 -65 -244q0 -108 98.5 -178.5t267.5 -70.5q161 0 375 61q194 50 218 101
q0 30 -96 38l-169 14q-111 10 -111 78q12 90 86 172q112 110 252 110h139v-145zM1741 -154h-168q-27 0 -63 47t-38 91q-72 -138 -186 -138h-84v145h84q107 0 230 169l15 -5q13 -93 30 -124q23 -40 77 -40h103v-145zM1676 431q-7 -33 -12 -44q-11 -29 -29 -34l-331 -94
q11 45 35 64q20 18 86 42q-79 39 -79 94q0 25 20 53q104 141 196 141q62 0 62 -67q0 -29 -34 -81q-62 39 -98 39q-33 0 -80 -39q96 -90 170 -90q30 0 94 16z" />
    <glyph glyph-name="uniFBFB" unicode="&#xfbfb;" horiz-adv-x="953" arabic-form="initial" 
d="M539 -154h-168q-27 0 -63 47t-38 91q-72 -138 -186 -138h-84v145h84q107 0 230 169l15 -5q13 -93 30 -124q23 -40 77 -40h103v-145zM821 167q0 -321 -233 -321h-84v145h84q62 0 118 25q61 28 61 66q0 19 -12 39l-52 84q-17 27 -17 51q0 25 15 47l66 101q54 -119 54 -237z
M930 645q-7 -34 -12 -44q-11 -29 -29 -34l-331 -95q11 46 35 65q20 18 86 42q-79 38 -79 94q0 25 20 52q104 142 196 142q62 0 62 -67q0 -29 -34 -82q-62 40 -98 40q-33 0 -80 -40q96 -90 170 -90q30 0 94 17z" />
    <glyph glyph-name="afii57543-3" unicode="&#x6ad;" horiz-adv-x="2453" arabic-form="isolated" 
d="M2408 675l-34 -156l-18 4l-17 4q-5 -2 -6 -10v-16l28 -132q13 -72 13 -133q0 -37 -5 -75.5t-18 -80.5q-21 -59 -51 -121q-45 -91 -77 -116h-1269l-165 2q-35 0 -64.5 2.5t-73.5 7.5q-59 0 -124.5 9.5t-163.5 38.5q-120 33 -186 98q-41 37 -60 100l-12 66q-5 38 -5 72
q0 50 23 113q14 43 38 81l19 -10q-9 -18 -22.5 -65.5t-13.5 -78.5v-12l3 -10q7 -62 40 -106t98 -74q75 -36 197 -55l115 -17q47 -4 107 -4l152 -4l80 -1h27t30 -1h1247q21 15 42 68l13 58l3 74q0 52 -7 107l-26 246l-41 31l-28 24q-33 34 -46 85q0 18 20 90t47 121l13 -4
q-8 -11 -16 -35l-2 -39q-5 -43 79 -93zM1313 628l27 -13l-60 -65q-16 -19 -25.5 -36.5t-12.5 -31.5v-6l3 -11l7 -4l12 -1q17 0 64 17l39 11l25 7q11 0 14 -4q18 -9 32 -30t14 -44l-1 -20q0 -10 -3 -20l-22 -56q-25 -58 -104 -102q-17 -8 -39.5 -17t-41.5 -15
q-43 -11 -79 -11h-11q-17 0 -24 1l-15 4l-20 7l3 13q75 0 160.5 42.5t94.5 83.5q3 13 -4.5 20.5t-26.5 11.5q-13 0 -24 -7l-33 -13l-21 -6l-23 -2q-20 0 -33 6t-21 20l-6 38v16q3 10 3.5 14t3 12t8.5 20l17 36l21 33q21 31 57 65l20 18zM1364 903l-56 -90l-100 59l58 87z
M1451 772l-57 -87l-100 57l58 88zM1302 772l-55 -87l-102 57l58 88z" />
    <glyph glyph-name="afii57454-3" unicode="&#x6ad;" horiz-adv-x="1353" arabic-form="final" 
d="M535 -157q-229 0 -296 13q-81 17 -150 84q-41 39 -58.5 102t-17.5 137q0 27 5.5 52.5t17.5 60.5q18 47 39 81l17 -9q-7 -19 -12 -31q-6 -23 -9 -34q-14 -48 -14 -81l2 -21q10 -64 42.5 -107t95.5 -73l46 -12l36 -4l42 -1l222 -5h322q18 0 29 2q12 3 30 8l35 16
q15 5 30 17q25 17 56 63t40 104l-2 74l-4 139v13v11q0 18 -1 35.5t-4 33.5q-4 43 -11 68l-12 47q-5 27 -14 44l57 105q7 -3 21 -64l9 -49l5 -30q0 -11 5 -25l7 -81l2 -84l3 -81l3 -82v-42l3 -40l3 -30q0 -12 4 -25q7 -30 24 -63q19 -33 44 -48q11 -6 33 -17q15 -9 23 -11
l26 -6l31 -2h21v-152h-26q-39 0 -93 20q-33 13 -57 29.5t-44 40.5q-11 12 -18.5 24.5l-19.5 32.5l-10 33l-6 36l-10 -36q-6 -19 -12 -29q-9 -25 -38 -60q-37 -48 -80 -73q-38 -18 -76 -18h-336zM632 650l28 -12l-60 -65q-17 -19 -26.5 -36.5t-12.5 -31.5v-6l4 -11l6 -4
l12 -2q18 0 65 18l38 11l27 6q9 0 12 -3q19 -9 32.5 -30t13.5 -44v-21q0 -9 -4 -19l-21 -56q-26 -58 -105 -102q-17 -10 -38.5 -18.5t-42.5 -14.5q-42 -10 -78 -10h-12q-17 0 -24 1l-15 3l-18 8l1 13q77 0 161.5 42t93.5 84q3 13 -4.5 20t-26.5 12q-13 0 -23 -7l-33 -14
l-22 -5l-21 -3q-21 0 -34 6t-22 21l-6 37v17q3 9 4 13.5t3 12t8 19.5l17 36l21 34q21 31 57 64l20 19zM673 922l-55 -91l-102 60l60 88zM770 795l-57 -88l-100 58l59 88zM623 795l-57 -88l-101 58l58 88z" />
    <glyph glyph-name="afii57451-3" unicode="&#x6ad;" horiz-adv-x="771" arabic-form="initial" 
d="M314 -66q-36 -53 -102 -76q-47 -15 -99 -15h-118v152h113q36 0 82 7.5t77 28.5l21 18l27 31q10 12 21 37q-6 11 -13.5 22.5t-17.5 24.5l-47 65l-81 99l-38 -31l-66 120q-49 94 -52 104q0 23 8.5 67t24.5 103q29 118 51 141l219 66l384 118l222 65q-4 -28 -25.5 -93.5
t-35.5 -79.5l-736 -225q-18 -4 -18 -27q0 -9 2 -10l147 -215l78 -114q37 -60 37 -153q0 -61 -17 -125t-48 -105zM489 1400l-79 -131l-145 86l84 125zM630 1211l-82 -124l-143 82l83 125zM417 1211l-79 -124l-145 82l82 125z" />
    <glyph glyph-name="glyph1051" unicode="&#x6ad;" horiz-adv-x="734" arabic-form="medial" 
d="M70 659q10 -22 36 -58l64 -98l144 -201l60 -82l46 -61q24 -34 45.5 -59.5t39.5 -41.5q71 -63 132 -63h123v-152h-107l-55 2q-11 1 -23 3.5t-24 6.5q-66 14 -108 57l-73 84l-41 54l-42 63l5 -55q0 -37 -9 -70q-5 -19 -9 -27l-8 -18l-8 -14q-28 -48 -92 -73
q-39 -13 -92 -13h-82v152h48h36q79 0 115 14q61 23 61 84q0 34 -22 85l-75 113l-105 156q-53 86 -68 113q0 47 26 156.5t50 130.5l817 175q-1 -16 -6.5 -34t-9 -27.5t-12.5 -27.5q-24 -56 -39 -74l-724 -162q-18 -8 -20 -21q0 -7 6 -17zM426 1361l-80 -130l-144 86l84 125z
M566 1184l-82 -125l-142 82l82 124zM353 1184l-79 -125l-146 82l83 124z" />
    <glyph glyph-name="glyph1052" unicode="&#x6c7;" horiz-adv-x="794" arabic-form="isolated" 
d="M725 146q0 -257 -127 -469q-65 -106 -135.5 -158.5t-152.5 -52.5q-64 0 -113.5 15.5t-150.5 70.5l20 18l34 -12l30 -8l40 -5l27 -1q69 0 150 37t145 97q78 76 128.5 178.5t50.5 178.5v24l-3 21q0 11 -5 19l-13 23q-5 -7 -11 -15t-15 -16l-26 -27q-24 -15 -52 -15
q-52 0 -90.5 39t-38.5 93q0 31 15.5 83.5t50.5 117.5q20 43 47 67q12 12 25.5 19t26.5 7q53 0 100 -100q10 -22 18 -48t14 -56l8 -53zM593 251q-6 24 -19 33q-10 13 -38 15q-36 0 -36 -40q0 -18 9 -33q10 -13 30 -13q19 0 31 9t23 29zM437 535l6 26q66 5 110 38.5t56 80.5
q2 11 0 20q-4 6 -7 7q-6 3 -32 -3q-12 -4 -24 0q-28 6 -41 27.5t-5 52.5q8 29 35 43.5t58 7.5q40 -10 61.5 -52t7.5 -98q-16 -60 -71 -101.5t-154 -48.5z" />
    <glyph glyph-name="afii57471-3" unicode="&#x6c7;" horiz-adv-x="877" arabic-form="final" 
d="M722 -1l1 12v12q0 26 -6 41q-13 60 -63 101q-42 35 -69 32q-36 -8 -58.5 -32.5t-22.5 -63.5q5 -36 65 -64.5t153 -37.5zM902 -160h-135q-16 -43 -37 -82t-49 -76q-39 -60 -90 -106q-22 -23 -62 -49l-40 -28l-46 -30q-87 -54 -132 -68q-26 5 -70 24q-36 14 -46 19
q-15 6 -56 27l-49 22l-37 20q-39 18 -108 57l-94 52l8 9q96 -43 183 -70l49 -15l46 -11l38 -6l36 -2l31 1q18 0 111 43q105 51 194 116q106 76 142 158h-26q-14 0 -23.5 1t-20 3t-24.5 7q-41 9 -92 39q-33 18 -51 52q-14 34 -14 75q0 77 39.5 163t92.5 135q31 25 78 25
q36 0 54 -17q51 -45 77 -120q12 -36 25 -146l2 -18v-16v-20l-2 -13h98v-155zM498 460l6 27q66 4 109.5 38t55.5 80q3 11 0 21q-3 6 -7 7q-6 1 -31 -5q-12 -2 -24 0q-29 7 -41.5 29t-5.5 53q9 27 36 42t58 7q39 -8 61 -50t7 -99q-15 -60 -70.5 -101.5t-153.5 -48.5z" />
    <glyph glyph-name="afii57458-3" unicode="&#x6c6;" horiz-adv-x="794" arabic-form="isolated" 
d="M725 146q0 -257 -127 -469q-65 -106 -135.5 -158.5t-152.5 -52.5q-64 0 -113.5 15.5t-150.5 70.5l20 18l34 -12l30 -8l40 -5l27 -1q69 0 150 37t145 97q78 76 128.5 178.5t50.5 178.5v24l-3 21q0 11 -5 19l-13 23q-5 -7 -11 -15t-15 -16l-26 -27q-24 -15 -52 -15
q-52 0 -90.5 39t-38.5 93q0 31 15.5 83.5t50.5 117.5q20 43 47 67q12 12 25.5 19t26.5 7q53 0 100 -100q10 -22 18 -48t14 -56l8 -53zM593 251q-6 24 -19 33q-10 13 -38 15q-36 0 -36 -40q0 -18 9 -33q10 -13 30 -13q19 0 31 9t23 29zM564 543l-117 200l47 -26l57 -91
l70 158l92 25l-126 -236z" />
    <glyph glyph-name="afii57457-3" unicode="&#x6c6;" horiz-adv-x="769" arabic-form="final" 
d="M845 -154h-163q-31 -123 -53 -180q-6 -17 -13 -33t-17 -34q-17 -35 -39 -68q-65 -100 -138.5 -150t-157.5 -50h-22t-32.5 3t-48.5 14l-66 29q-37 18 -85 44l18 20l71 -23q14 -4 27.5 -5.5t31.5 -1.5q162 0 301 126t179 309h-35q-96 0 -154.5 31.5t-58.5 81.5q0 34 21 82
q18 48 62 117q19 33 43 56q20 18 44 18q46 0 86.5 -77.5t40.5 -177.5h158v-131zM629 -23q-13 54 -42 87t-63 33q-10 0 -16.5 -3t-17.5 -13q-17 -13 -17 -35q0 -24 43 -47q23 -11 49.5 -16.5t63.5 -5.5zM544 319l-118 200l47 -26l58 -92l69 159l93 25l-126 -236z" />
    <glyph glyph-name="afii57494-3" unicode="&#x6c8;" horiz-adv-x="794" arabic-form="isolated" 
d="M725 146q0 -257 -127 -469q-65 -106 -135.5 -158.5t-152.5 -52.5q-64 0 -113.5 15.5t-150.5 70.5l20 18l34 -12l30 -8l40 -5l27 -1q69 0 150 37t145 97q78 76 128.5 178.5t50.5 178.5v24l-3 21q0 11 -5 19l-13 23q-5 -7 -11 -15t-15 -16l-26 -27q-24 -15 -52 -15
q-52 0 -90.5 39t-38.5 93q0 31 15.5 83.5t50.5 117.5q20 43 47 67q12 12 25.5 19t26.5 7q53 0 100 -100q10 -22 18 -48t14 -56l8 -53zM593 251q-6 24 -19 33q-10 13 -38 15q-36 0 -36 -40q0 -18 9 -33q10 -13 30 -13q19 0 31 9t23 29zM648 835l2 -172l6 -25q2 -7 2 -12
q2 -6 -11.5 -12t-19.5 -9q-9 -4 -12 -7l-22 -15l-17 -14q-4 -2 -12 -2q-12 0 -12 19l-3 172q0 6 -1.5 13t-4.5 13t-3 10q0 6 16 13l29 14l24 16q7 8 10 10.5t5.5 4t10.5 1.5q11 0 13 -18z" />
    <glyph glyph-name="afii57459-3" unicode="&#x6c8;" horiz-adv-x="877" arabic-form="final" 
d="M722 -1l1 12v12q0 26 -6 41q-13 60 -63 101q-42 35 -69 32q-36 -8 -58.5 -32.5t-22.5 -63.5q5 -36 65 -64.5t153 -37.5zM902 -160h-135q-16 -43 -37 -82t-49 -76q-39 -60 -90 -106q-22 -23 -62 -49l-40 -28l-46 -30q-87 -54 -132 -68q-26 5 -70 24q-36 14 -46 19
q-15 6 -56 27l-49 22l-37 20q-39 18 -108 57l-94 52l8 9q96 -43 183 -70l49 -15l46 -11l38 -6l36 -2l31 1q18 0 111 43q105 51 194 116q106 76 142 158h-26q-14 0 -23.5 1t-20 3t-24.5 7q-41 9 -92 39q-33 18 -51 52q-14 34 -14 75q0 77 39.5 163t92.5 135q31 25 78 25
q36 0 54 -17q51 -45 77 -120q12 -36 25 -146l2 -18v-16v-20l-2 -13h98v-155zM679 737l2 -172l6 -24q3 -9 3 -12q1 -8 -13 -13t-18 -9q-9 -5 -14 -6l-21 -16l-17 -14q-4 -1 -11 -1q-13 0 -13 18l-4 171q0 6 -1 14t-4 13.5t-3 10.5q0 6 17 13l29 14l22 16q9 7 12 10t4.5 3.5
t10.5 0.5q12 0 13 -17z" />
    <glyph glyph-name="afii57455-3" unicode="&#x6c5;" horiz-adv-x="844" arabic-form="isolated" 
d="M789 28q0 -289 -141.5 -521.5t-317.5 -232.5q-112 0 -293 96l22 19q73 -29 145 -29q171 0 327 149l60 62q-93 48 -212.5 24t-246.5 66l15 26q117 -44 224.5 -8t276.5 -30l27 57q54 109 54 199q0 55 -24 96q-58 -82 -115 -82t-100 44t-43 104q0 67 74 222q49 103 110 103
q64 0 111 -109.5t47 -254.5zM643 145q-19 52 -64 52q-40 0 -40 -44q0 -52 44 -52q43 0 60 44z" />
    <glyph glyph-name="afii57452-3" unicode="&#x6c5;" horiz-adv-x="873" arabic-form="final" 
d="M943 -154h-180q-59 -231 -135 -351q-141 -221 -329 -221q-102 0 -281 101l20 21q84 -33 143 -33q223 10 370 187q-71 89 -209 53t-187 66l12 19q81 -55 206.5 -12t233.5 -63q55 48 106 233h-39q-103 0 -169 34.5t-66 90.5q0 66 93 219q50 83 96 83q52 0 94 -83.5
t46 -198.5h175v-145zM704 -9q-37 132 -117 132q-17 0 -36 -16t-19 -40q0 -32 45 -52q48 -24 127 -24z" />
    <glyph glyph-name="glyph1060" unicode="&#x6c9;" horiz-adv-x="794" arabic-form="isolated" 
d="M725 146q0 -257 -127 -469q-65 -106 -135.5 -158.5t-152.5 -52.5q-64 0 -113.5 15.5t-150.5 70.5l20 18l34 -12l30 -8l40 -5l27 -1q69 0 150 37t145 97q78 76 128.5 178.5t50.5 178.5v24l-3 21q0 11 -5 19l-13 23q-5 -7 -11 -15t-15 -16l-26 -27q-24 -15 -52 -15
q-52 0 -90.5 39t-38.5 93q0 31 15.5 83.5t50.5 117.5q20 43 47 67q12 12 25.5 19t26.5 7q53 0 100 -100q10 -22 18 -48t14 -56l8 -53zM593 251q-6 24 -19 33q-10 13 -38 15q-36 0 -36 -40q0 -18 9 -33q10 -13 30 -13q19 0 31 9t23 29zM534 809l119 -201l-47 26l-57 93
l-71 -160l-91 -24l126 236z" />
    <glyph glyph-name="glyph1061" unicode="&#x6c9;" horiz-adv-x="769" arabic-form="final" 
d="M845 -154h-163q-31 -123 -53 -180q-6 -17 -13 -33t-17 -34q-17 -35 -39 -68q-65 -100 -138.5 -150t-157.5 -50h-22t-32.5 3t-48.5 14l-66 29q-37 18 -85 44l18 20l71 -23q14 -4 27.5 -5.5t31.5 -1.5q162 0 301 126t179 309h-35q-96 0 -154.5 31.5t-58.5 81.5q0 34 21 82
q18 48 62 117q19 33 43 56q20 18 44 18q46 0 86.5 -77.5t40.5 -177.5h158v-131zM629 -23q-13 54 -42 87t-63 33q-10 0 -16.5 -3t-17.5 -13q-17 -13 -17 -35q0 -24 43 -47q23 -11 49.5 -16.5t63.5 -5.5zM520 621l119 -202l-47 27l-58 92l-70 -159l-92 -24l126 236z" />
    <glyph glyph-name="glyph1062" unicode="&#x6cb;" horiz-adv-x="783" arabic-form="isolated" 
d="M725 146q0 -257 -127 -469q-65 -106 -135.5 -158.5t-152.5 -52.5q-64 0 -113.5 15.5t-150.5 70.5l20 18l34 -12l30 -8l40 -5l27 -1q69 0 150 37t145 97q78 76 128.5 178.5t50.5 178.5v24l-3 21q0 11 -5 19l-13 23q-5 -7 -11 -15t-15 -16l-26 -27q-24 -15 -52 -15
q-52 0 -90.5 39t-38.5 93q0 31 15.5 83.5t50.5 117.5q20 43 47 67q12 12 25.5 19t26.5 7q53 0 100 -100q10 -22 18 -48t14 -56l8 -53zM593 251q-6 24 -19 33q-10 13 -38 15q-36 0 -36 -40q0 -18 9 -33q10 -13 30 -13q19 0 31 9t23 29zM669 880l-82 -133l-144 89l82 125z
M795 700l-81 -127l-144 84l82 125zM579 700l-79 -127l-143 84l83 125z" />
    <glyph glyph-name="afii62884-3" unicode="&#x6cb;" horiz-adv-x="877" arabic-form="final" 
d="M722 -1l1 12v12q0 26 -6 41q-13 60 -63 101q-42 35 -69 32q-36 -8 -58.5 -32.5t-22.5 -63.5q5 -36 65 -64.5t153 -37.5zM902 -160h-135q-16 -43 -37 -82t-49 -76q-39 -60 -90 -106q-22 -23 -62 -49l-40 -28l-46 -30q-87 -54 -132 -68q-26 5 -70 24q-36 14 -46 19
q-15 6 -56 27l-49 22l-37 20q-39 18 -108 57l-94 52l8 9q96 -43 183 -70l49 -15l46 -11l38 -6l36 -2l31 1q18 0 111 43q105 51 194 116q106 76 142 158h-26q-14 0 -23.5 1t-20 3t-24.5 7q-41 9 -92 39q-33 18 -51 52q-14 34 -14 75q0 77 39.5 163t92.5 135q31 25 78 25
q36 0 54 -17q51 -45 77 -120q12 -36 25 -146l2 -18v-16v-20l-2 -13h98v-155zM737 782l-83 -132l-144 87l83 125zM863 602l-82 -126l-143 84l81 125zM647 602l-81 -126l-141 84l82 125z" />
    <glyph glyph-name="afii62881-3" unicode="&#x6d0;" horiz-adv-x="2396" arabic-form="isolated" 
d="M2362 167l1 -10q0 -42 -18.5 -123.5t-45.5 -121.5q-21 -29 -119 -79q-64 -32 -133 -56t-164 -50q-217 -51 -464 -51l-115 2l-181 9q-78 0 -167 13l-97 17q-204 33 -376 98q-130 49 -221 113l-53 38l-60 45q-60 48 -98 90l41 12l132 -64l129 -59q154 -62 460 -109
q74 -12 154.5 -23.5t143.5 -11.5q43 0 106 -2q143 -9 179 -9q285 0 498 46q84 16 156 38q35 12 64.5 24t58.5 28q82 40 94 74q0 16 -51 36l-16 6l-32 11l-64 15q-84 16 -164 51q-95 41 -105 75v15q0 17 3 47t12 75q15 88 24 106q56 129 185 207q108 68 210 68q54 0 76 -22
q8 -8 14 -35l3 -56q0 -60 -15 -81q-14 6 -29 10q-3 1 -29 8q-16 3 -29.5 4.5t-31.5 1.5q-117 0 -225 -92q-87 -76 -82 -104q10 -39 117 -77l195 -57q109 -37 129 -90zM1676 -856l-124 88l90 143l123 -90zM1683 -642l-125 85l91 140l123 -86z" />
    <glyph glyph-name="afii62886-3" unicode="&#x6d0;" horiz-adv-x="2315" arabic-form="final" 
d="M914 -846l-98 18q-210 31 -374 97q-56 20 -119 52l-41 20q-25 16 -61 41q-62 41 -113 84q-31 24 -58 49l-21 21t-19 21l40 11l133 -63l129 -60q152 -62 460 -108t584 -46q144 0 266 10t231 33q162 31 277 91q81 41 94 76q0 14 -42 43q-38 24 -88 43l-139 53
q-67 29 -71 59q-2 20 25.5 98t40.5 98q18 27 84 59q89 41 190 41h103v-152h-27q-180 0 -256 -24q-50 -15 -44 -38q15 -6 48 -19t63 -27l91 -41q93 -43 116 -93v-10q0 -29 -16 -98q-20 -91 -43 -123q-21 -33 -121 -84q-125 -65 -296 -105q-404 -68 -928 -27zM136 -1036
l-125 87l91 142l123 -88zM142 -823l-124 85l92 140l122 -85z" />
    <glyph glyph-name="afii62883-3" unicode="&#x6d0;" horiz-adv-x="330" arabic-form="initial" 
d="M83 -682l-124 87l90 142l122 -88zM90 -469l-123 85l89 140l123 -85zM223 197q0 -73 -26 -174q-6 -24 -13 -46.5t-14 -41t-13.5 -31.5t-13.5 -23l-35 -16q-63 -22 -106 -22h-73v152h89q48 0 93 7.5t56 34.5q-9 64 -23.5 113t-41.5 86l-63 79l26 67l7 18l9 17q5 10 18 28
q34 -22 76 -93q48 -84 48 -155z" />
    <glyph glyph-name="afii62885-3" unicode="&#x6d0;" horiz-adv-x="503" arabic-form="medial" 
d="M510 -157h-64q-84 0 -144 46q-34 27 -62 80q-25 -41 -76 -80q-68 -46 -126 -46h-46v152h47q30 0 60.5 6.5t65.5 23.5q66 31 81 67l24 54l35 80l13 -12l-12 -35q-12 -46 -12 -78q23 -43 47 -66q48 -40 125 -40h44v-152zM262 -642l-124 86l92 143l122 -89zM269 -429
l-123 84l91 141l121 -87z" />
    <glyph glyph-name=".notdef" horiz-adv-x="1620" 
d="M284 221v1313h1051v-1313h-1051zM318 254h984v1247h-984v-1247z" />
    <glyph glyph-name=".null" horiz-adv-x="0" 
 />
    <glyph glyph-name="nonmarkingreturn" horiz-adv-x="512" 
 />
    <glyph glyph-name="space" unicode=" " horiz-adv-x="512" 
 />
    <glyph glyph-name="space" unicode="&#xa0;" horiz-adv-x="512" 
 />
    <glyph glyph-name="exclam" unicode="!" horiz-adv-x="676" 
d="M356 194h-37l-85 787q-6 52 -6 77q0 61 32.5 98t77.5 37q46 0 78 -37t32 -110q0 -23 -4 -65zM337 33q45 0 76.5 -31.5t31.5 -74.5q0 -46 -31.5 -77t-76.5 -31t-76.5 31t-31.5 77q0 43 31.5 74.5t76.5 31.5z" />
    <glyph glyph-name="quotedbl" unicode="&#x22;" horiz-adv-x="820" 
d="M564 626l-53 283l-22 118q-1 25 -1 49q0 61 27 89t72 28q42 0 69.5 -28t27.5 -76q0 -83 -18 -179l-55 -284h-47zM207 626l-52 287q-22 118 -22 162q0 62 26 90t69 28t71 -28.5t28 -76.5q0 -37 -25 -175l-53 -287h-42z" />
    <glyph glyph-name="numbersign" unicode="#" horiz-adv-x="998" 
d="M113 -181l91 441h-167v80h181l67 333h-248v78h268l87 442h82l-89 -442h328l94 442h81l-93 -442h166v-78h-180l-68 -333h248v-80h-265l-90 -441h-79l88 441h-330l-92 -441h-80zM301 340h329l69 333h-331z" />
    <glyph glyph-name="dollar" unicode="$" horiz-adv-x="1002" 
d="M108 170h43q11 -133 83.5 -204t217.5 -85v567q-219 136 -291 240q-52 73 -52 179q0 120 89 209.5t254 107.5v90h63v-90q79 -5 133 -18q29 -7 187 -67v-291h-38q-12 155 -80 226.5t-202 84.5v-493q245 -172 314.5 -253t69.5 -202q0 -133 -102 -235t-282 -117v-125h-63v125
q-91 3 -170 20t-174 56v275zM452 667v451q-97 -11 -144.5 -61.5t-47.5 -125.5q0 -71 43 -133t149 -131zM515 -119q72 13 111 36q54 35 86 89.5t32 116.5q0 64 -38.5 121.5t-190.5 161.5v-525z" />
    <glyph glyph-name="percent" unicode="%" horiz-adv-x="1662" 
d="M1355 1193l-960 -1402h-87l960 1402h87zM356 1193q131 0 203.5 -109t72.5 -249q0 -170 -82 -262t-196 -92q-77 0 -141 42.5t-102.5 126t-38.5 185.5t39 187.5t106 128t139 42.5zM353 1138q-49 0 -87.5 -58t-38.5 -244q0 -136 21 -207q16 -54 52 -82q20 -17 50 -17
q47 0 80 50q49 75 49 250q0 185 -48 259q-31 49 -78 49zM1310 499q69 0 138 -43.5t106 -127.5t37 -183q0 -173 -82.5 -263.5t-195.5 -90.5q-71 0 -137.5 44t-105 124.5t-38.5 185.5q0 102 38.5 186.5t105 126t134.5 41.5zM1312 447q-47 0 -81 -52q-44 -68 -44 -258
q0 -173 44 -242q34 -50 81 -50q44 0 79 54q47 71 47 243q0 183 -47 256q-33 49 -79 49z" />
    <glyph glyph-name="ampersand" unicode="&#x26;" horiz-adv-x="1552" 
d="M1018 693h408v-36q-85 -6 -125 -36.5t-125.5 -185.5t-192.5 -289q87 -101 154.5 -141t137.5 -40q66 0 113 36.5t66 107.5l36 -27q-36 -136 -115.5 -201.5t-185.5 -65.5q-80 0 -162 43t-179 146q-120 -106 -217.5 -147.5t-206.5 -41.5q-161 0 -255 86t-94 204t84.5 235
t317.5 241q-46 102 -62 166.5t-16 124.5q0 165 122 253q95 68 216 68q117 0 189.5 -68t72.5 -169q0 -103 -70 -180.5t-249 -170.5q123 -219 257 -403q171 204 171 345q0 44 -29 80q-21 25 -61 30v36zM646 668q121 57 180.5 130.5t59.5 162.5q0 69 -43 115.5t-107 46.5
q-85 0 -128 -59t-43 -115q0 -48 16.5 -107t64.5 -174zM797 61q-128 175 -178 255.5t-108 200.5q-117 -68 -175.5 -148t-58.5 -175q0 -105 66.5 -183t180.5 -78q61 0 118 24.5t155 103.5z" />
    <glyph glyph-name="quotesingle" unicode="'" horiz-adv-x="364" 
d="M155 626l-51 287q-23 120 -23 162q0 62 25 90t70 28q43 0 72 -28.5t29 -75.5q0 -36 -26 -176l-52 -287h-44z" />
    <glyph glyph-name="parenleft" unicode="(" horiz-adv-x="666" 
d="M620 -545v-35q-146 73 -244 173q-141 140 -216.5 331.5t-75.5 397.5q0 301 149 549.5t387 355.5v-41q-120 -66 -196 -180.5t-114.5 -290.5t-38.5 -368q0 -207 33 -377q25 -135 61 -216t96.5 -156t158.5 -143z" />
    <glyph glyph-name="parenright" unicode=")" horiz-adv-x="666" 
d="M46 1186v41q148 -73 246 -172q139 -142 214.5 -333t75.5 -397q0 -302 -148 -550t-388 -355v35q120 67 197 181.5t114.5 291t37.5 367.5q0 207 -32 378q-24 134 -60.5 215t-96.5 155.5t-160 142.5z" />
    <glyph glyph-name="asterisk" unicode="*" horiz-adv-x="1004" 
d="M485 860q-5 67 -28 133q-34 95 -34 131q0 50 24 76.5t59 26.5q30 0 53 -26.5t23 -74.5q0 -44 -26 -122t-32 -144q53 33 96 83q66 76 98.5 95t64.5 19q33 0 54.5 -22.5t21.5 -52.5q0 -36 -32 -64t-160 -56q-74 -17 -125 -38q51 -27 124 -40q117 -21 154 -53.5t37 -69.5
q0 -29 -22.5 -50.5t-51.5 -21.5q-28 0 -63.5 20t-95.5 91q-41 48 -100 90q3 -56 23 -121q35 -114 35 -156q0 -40 -23.5 -66t-49.5 -26q-36 0 -65 27q-21 21 -21 66q0 46 22.5 112t28.5 90.5t11 73.5q-58 -38 -101 -85q-71 -79 -107 -101q-25 -15 -53 -15q-32 0 -55.5 22
t-23.5 50q0 24 20 51t59 43q27 12 120 32q60 13 118 37q-53 26 -125 41q-120 25 -149 45q-43 33 -43 78q0 27 21.5 48.5t51.5 21.5q31 0 67 -20.5t90 -82.5t110 -95z" />
    <glyph glyph-name="plus" unicode="+" horiz-adv-x="1125" 
d="M521 -17v484h-484v80h484v483h78v-483h486v-80h-486v-484h-78z" />
    <glyph glyph-name="comma" unicode="," horiz-adv-x="503" 
d="M110 -486v43q100 32 155 102t55 148q0 18 -8 31q-8 8 -15 8q-11 0 -47 -19q-16 -8 -36 -8q-48 0 -76 28t-28 77q0 48 36.5 81.5t88.5 33.5q65 0 114.5 -55.5t49.5 -148.5q0 -99 -69 -185.5t-220 -135.5z" />
    <glyph glyph-name="hyphen" unicode="-" horiz-adv-x="899" 
d="M197 -6h503v-154h-503v154z" />
    <glyph glyph-name="hyphen" unicode="&#xad;" horiz-adv-x="899" 
d="M197 -6h503v-154h-503v154z" />
    <glyph glyph-name="period" unicode="." horiz-adv-x="506" 
d="M253 33q46 0 77 -31t31 -75q0 -46 -32 -77t-76 -31t-76 31t-32 77q0 45 32 75.5t76 30.5z" />
    <glyph glyph-name="slash" unicode="/" horiz-adv-x="554" 
d="M559 1227l-478 -1408h-78l478 1408h78z" />
    <glyph glyph-name="zero" unicode="0" horiz-adv-x="999" 
d="M74 496q0 226 68 388.5t180 242.5q88 63 182 63q151 0 272 -154q150 -192 150 -519q0 -230 -66 -390t-168.5 -232.5t-197.5 -72.5q-188 0 -314 222q-106 188 -106 452zM265 472q0 -272 67 -444q55 -145 164 -145q53 0 109.5 47t85.5 158q45 167 45 472q0 225 -46 375
q-35 112 -92 159q-39 32 -96 32q-66 0 -117 -60q-70 -80 -95 -253t-25 -341z" />
    <glyph glyph-name="one" unicode="1" horiz-adv-x="1010" 
d="M240 1034l320 156h33v-1113q0 -110 9 -137.5t38.5 -42t119.5 -16.5v-36h-497v36q93 2 121 16t38 38t10 142v712q0 144 -10 185q-6 31 -24 45.5t-43 14.5q-36 0 -101 -30z" />
    <glyph glyph-name="two" unicode="2" horiz-adv-x="999" 
d="M914 99l-92 -254h-778v36q343 313 483 511.5t140 361.5q0 126 -77 206.5t-184 80.5q-97 0 -174.5 -56.5t-113.5 -166.5h-36q24 180 125 276t251 96q161 0 268.5 -102.5t107.5 -243.5q0 -99 -47 -200q-72 -157 -234 -334q-241 -264 -301 -317h343q105 0 147 7.5t76.5 31
t59.5 67.5h36z" />
    <glyph glyph-name="three" unicode="3" horiz-adv-x="1003" 
d="M103 913q57 133 142.5 205t214.5 72q158 0 243 -103q64 -77 64 -164q0 -144 -180 -297q121 -48 183.5 -136.5t62.5 -208.5q0 -171 -109 -296q-142 -163 -412 -163q-133 0 -181 33t-48 72q0 27 23 48.5t55 21.5q24 0 49 -8q17 -5 75 -35.5t81 -36.5q36 -11 77 -11
q98 0 172 76.5t74 182.5q0 77 -35 150q-25 54 -55 82q-42 39 -114.5 70.5t-148.5 31.5h-31v30q77 9 153.5 54.5t112 110t35.5 141.5q0 99 -63 161t-155 62q-151 0 -252 -161z" />
    <glyph glyph-name="four" unicode="4" horiz-adv-x="998" 
d="M927 331v-138h-176v-348h-161v348h-558v124l611 873h108v-859h176zM590 331v654l-463 -654h463z" />
    <glyph glyph-name="five" unicode="5" horiz-adv-x="1002" 
d="M867 1163l-75 -165h-398l-86 -177q258 -38 408 -192q130 -132 130 -310q0 -105 -43 -193t-106.5 -150.5t-142.5 -100.5q-112 -53 -229 -53q-119 0 -173 40.5t-54 89.5q0 26 22 47t57 21q25 0 44 -8t64 -40q73 -50 148 -50q114 0 200.5 86t86.5 210q0 119 -77 222.5
t-213 160.5q-105 43 -289 50l253 512h473z" />
    <glyph glyph-name="six" unicode="6" horiz-adv-x="1000" 
d="M894 1190v-36q-128 -12 -209 -50.5t-160 -117t-131.5 -176t-87.5 -230.5q141 97 281 97q136 0 235 -109t99 -279q0 -166 -100 -301q-121 -166 -319 -166q-136 0 -229 89q-185 174 -185 451q0 177 71 336t203 283t252.5 166.5t223.5 42.5h56zM290 509q-17 -130 -17 -211
q0 -93 34 -202t103 -174q49 -46 121 -46q84 0 150.5 79.5t66.5 227.5q0 167 -66 288t-187 121q-37 0 -80 -15.5t-125 -67.5z" />
    <glyph glyph-name="seven" unicode="7" horiz-adv-x="1000" 
d="M202 1163h707v-37l-439 -1307h-110l394 1186h-362q-110 0 -156 -26q-82 -46 -132 -138l-28 10z" />
    <glyph glyph-name="eight" unicode="8" horiz-adv-x="1003" 
d="M386 509q-158 128 -203 206t-45 162q0 128 99 220.5t264 92.5q159 0 256.5 -86.5t97.5 -196.5q0 -75 -52.5 -151.5t-218.5 -180.5q171 -133 226 -208q74 -99 74 -209q0 -139 -106 -237.5t-278 -98.5q-188 0 -292 118q-84 93 -84 206q0 86 59 172.5t203 190.5zM538 613
q116 105 147.5 165.5t31.5 137.5q0 102 -57 159.5t-157 57.5q-99 0 -161 -57t-62 -133q0 -51 26 -102t72 -96zM431 472q-80 -68 -119 -148.5t-39 -172.5q0 -126 68.5 -201t173.5 -75q106 0 169 59t63 143q0 70 -37 125q-69 103 -279 270z" />
    <glyph glyph-name="nine" unicode="9" horiz-adv-x="1001" 
d="M107 -181v36q126 1 235.5 58t211 198.5t140.5 311.5q-152 -98 -276 -98q-139 0 -238 107t-99 286q0 173 100 307q118 165 312 165q162 0 277 -133q143 -167 143 -411q0 -219 -108 -409.5t-302 -315.5q-156 -102 -340 -102h-56zM710 495q18 126 18 203q0 93 -32.5 202.5
t-91.5 168t-133 58.5q-86 0 -151.5 -78t-65.5 -231q0 -205 86 -321q64 -84 156 -84q45 0 106 22t108 60z" />
    <glyph glyph-name="colon" unicode=":" horiz-adv-x="563" 
d="M286 763q45 0 76 -32t31 -76q0 -45 -31 -76.5t-76 -31.5t-76.5 31.5t-31.5 76.5q0 44 31.5 76t76.5 32zM284 34q46 0 77.5 -31.5t31.5 -75.5q0 -46 -32.5 -77t-76.5 -31t-76 31t-32 77q0 44 32 75.5t76 31.5z" />
    <glyph glyph-name="semicolon" unicode=";" horiz-adv-x="560" 
d="M278 764q45 0 76.5 -31.5t31.5 -75.5q0 -46 -31.5 -77t-76.5 -31t-76.5 31t-31.5 77q0 44 31.5 75.5t76.5 31.5zM142 -486v43q100 32 155 102t55 148q0 18 -8 31q-8 8 -15 8q-11 0 -47 -19q-16 -8 -36 -8q-48 0 -76 28t-28 77q0 48 36.5 81.5t88.5 33.5q65 0 114.5 -55.5
t49.5 -148.5q0 -99 -69 -185.5t-220 -135.5z" />
    </font>
</defs>
</svg>
