<?xml version="1.0" standalone="no"?>
<!DOCTYPE svg PUBLIC "-//W3C//DTD SVG 1.1//EN" "http://www.w3.org/Graphics/SVG/1.1/DTD/svg11.dtd" >
<svg xmlns="http://www.w3.org/2000/svg" xmlns:xlink="http://www.w3.org/1999/xlink" version="1.1">
<metadata>
Created by FontForge 20170924 at Wed Feb 11 22:11:08 2004
 By www-data
Uyghur Computer Science Association. Free distributed and all rights reserved. http://www.ukij.org
</metadata>
<defs>
<font id="UKIJNasq" horiz-adv-x="1024" >
  <font-face 
    font-family="UKIJ Nasq"
    font-weight="400"
    font-stretch="normal"
    units-per-em="2048"
    panose-1="2 7 3 9 2 2 5 2 4 4"
    ascent="1638"
    descent="-410"
    x-height="916"
    cap-height="1294"
    bbox="-431 -999 2511 1869"
    underline-thickness="120"
    underline-position="-710"
    unicode-range="U+0020-FEFF"
  />
<missing-glyph horiz-adv-x="1778" 
d="M284 -152v1509h1208v-1509h-1208zM321 -115h1134v1434h-1134v-1434z" />
    <glyph glyph-name="afii64240" unicode="&#xfedf;&#xfee4;&#xfea0;" horiz-adv-x="1229" 
d="M1085 365l-41 -120q-56 5 -101 5q-203 0 -390 -65q-83 -29 -271 -121q-132 -64 -199 -64h-83v142h83q82 0 244 53q198 67 250 76l-505 89q6 26 14 47q20 48 50 67q236 191 551 283q-23 104 -77 298q-38 138 -38 166q0 47 59 117q48 -62 84 -122q-49 -52 -49 -94
q0 -48 78 -355q29 4 38 4q108 0 194 -127l-40 -131q-82 69 -128 94q-63 30 -148 30q-168 0 -420 -155q142 -45 274 -70q223 -45 571 -47zM966 -279l-128 -130l-131 130l131 129z" />
    <glyph glyph-name="afii64241" unicode="&#xfb58;&#xfbab;" horiz-adv-x="883" 
d="M832 257q0 -166 -109 -166q-52 0 -180 29t-168 50q-55 -49 -112 -96q-101 -74 -179 -74h-84v142h83q103 0 180 59q-35 42 -35 81q0 96 145 274q-8 14 -18 27q-12 24 -12 53q0 43 101 149q72 79 203 180q79 -29 79 -50q0 -23 -100 -109q-108 -93 -120 -113
q62 -45 193 -173q133 -157 133 -263zM835 -78l-73 -130l-130 80l-64 -108l-124 79l72 128l125 -78l66 116zM792 -312l-72 -135l-122 80l74 131zM793 208q-60 128 -222 251q-22 -123 -80 -199q174 -52 274 -52h28zM505 381q0 33 -24.5 71t-54.5 38q-38 0 -84.5 -46.5
t-46.5 -83.5q0 -26 44 -45l85 -33q81 42 81 99z" />
    <glyph glyph-name="afii63954" unicode="&#xfee7;&#xfbab;" horiz-adv-x="884" 
d="M710 1209l-84 -123l-112 93l83 122zM832 257q0 -166 -109 -166q-52 0 -180 29t-168 50q-55 -49 -112 -96q-101 -74 -179 -74h-84v142h83q103 0 180 59q-35 42 -35 81q0 96 145 274q-8 14 -18 27q-12 24 -12 53q0 43 101 149q72 79 203 180q79 -29 79 -50q0 -23 -100 -109
q-108 -93 -120 -113q62 -45 193 -173q133 -157 133 -263zM793 208q-60 128 -222 251q-22 -123 -80 -199q174 -52 274 -52h28zM505 381q0 33 -24.5 71t-54.5 38q-38 0 -84.5 -46.5t-46.5 -83.5q0 -26 44 -45l85 -33q81 42 81 99z" />
    <glyph glyph-name="afii64242" unicode="&#xfb7c;&#xfee4;" horiz-adv-x="1229" 
d="M1410 337h-43q-128 0 -324.5 55.5t-347.5 55.5q-85 0 -174 -21q80 -68 109 -118.5t29 -123.5q0 -142 -94 -142q-107 0 -320 108q-57 -151 -162 -151h-83v142h83q145 0 155 118q23 251 441 251q45 0 195 -12q-203 186 -377 186q-30 0 -88 -13q56 143 211 143q73 0 201 -89
q213 -151 243 -168q158 -90 303 -90h29zM615 178q0 16 -29 37q-103 77 -250 130q-16 6 -26 6q-19 0 -19 -22q0 -30 61 -55q36 -18 182 -94q47 -24 64 -24t17 22zM1143 26l-127 -129l-130 130l130 129l118 -117l128 126l130 -128l-130 -131zM1268 -212l-130 -130l-129 130
l129 128z" />
    <glyph glyph-name="afii62881" unicode="&#x651;&#x64b;" horiz-adv-x="362" 
d="M368 1465q0 -71 -23 -116q-29 -51 -76 -51q-18 0 -32 6t-31 18q-21 -35 -37 -52q-31 -30 -64 -30q-39 0 -59 27.5t-20 74.5q0 24 6.5 48t19.5 53l18 10q0 -9 -1.5 -26.5t-1.5 -27.5q0 -21 9.5 -37.5t25.5 -16.5q40 0 64 53q12 25 28 95l21 6q7 -46 12 -56q12 -29 37 -29
q37 0 57 47q18 37 18 78l20 6q3 -19 6 -41t3 -39zM403 1837q0 -78 -40 -101l-358 -204q4 49 17 71t61 49zM403 1665q0 -78 -40 -101l-358 -203q4 48 17 70t61 49z" />
    <glyph glyph-name="afii57369" unicode="&#xe832;&#x650;" horiz-adv-x="510" 
d="M94 -630l10 50q56 39 90 83q-116 7 -116 106q0 68 46 134t106 66q95 0 95 -85q0 -29 -15 -57q-86 63 -123 63q-61 0 -61 -52q1 -42 62.5 -80t109.5 -38q43 0 104 26v-85zM120 -800h-3q-10 0 -10 28q0 31 15 38l294 124q10 0 13 -5t3 -21q0 -35 -16 -41z" />
    <glyph glyph-name="afii57370" unicode="&#xe832;&#x64d;" horiz-adv-x="516" 
d="M111 -564l10 52q56 38 90 82q-116 7 -116 106q0 68 46 134.5t106 66.5q95 0 95 -87q0 -28 -15 -56q-86 62 -123 62q-61 0 -61 -50q0 -43 62 -80.5t110 -37.5q43 0 104 26v-87zM128 -701q-13 0 -13 29t15 36l293 124q11 0 14 -4.5t3 -22.5q0 -33 -17 -40zM128 -831
q-13 0 -13 29t15 35l293 124q11 0 14 -3.5t3 -19.5q0 -32 -17 -39z" />
    <glyph glyph-name="afii57371" unicode="&#x674;&#x64e;" horiz-adv-x="552" 
d="M89 1615q-13 0 -13 29q0 30 15 36l293 124q11 0 14 -3.5t3 -20.5q0 -32 -17 -39zM146 1124l9 50q54 40 89 83q-115 7 -115 107q0 68 46 134.5t107 66.5q94 0 94 -87q0 -28 -15 -57q-85 63 -124 63q-59 0 -59 -50q0 -42 61.5 -80t108.5 -38q42 0 104 25v-86z" />
    <glyph glyph-name="afii57372" unicode="&#x674;&#x64b;" horiz-adv-x="505" 
d="M54 1638q-14 0 -14 30t16 36l294 124q10 0 13 -4t3 -22q0 -34 -16 -41zM54 1520q-13 0 -13 30t15 36l294 124q10 0 13 -4t3 -20q0 -32 -16 -40zM111 1076l10 52q53 38 88 83q-115 7 -115 106q0 68 46 134t107 66q94 0 94 -87q0 -28 -15 -56q-85 63 -124 63q-59 0 -59 -51
q0 -41 62 -79.5t108 -38.5q42 0 104 26v-86z" />
    <glyph glyph-name="afii57373" unicode="&#x674;&#x652;" horiz-adv-x="518" 
d="M342 1646q0 -77 -61.5 -126.5t-122.5 -49.5q-55 0 -83 43t-28 97q0 81 42 142t115 61q66 0 102 -49.5t36 -117.5zM90 1646q0 -58 102 -58q86 0 86 32q0 23 -42.5 63.5t-84.5 40.5q-61 0 -61 -78zM108 996l9 50q54 40 89 83q-116 7 -116 106q0 69 46.5 135t106.5 66
q94 0 94 -86q0 -27 -14 -58q-86 64 -124 64q-60 0 -60 -52q0 -41 62 -79.5t109 -38.5q42 0 104 27v-86z" />
    <glyph glyph-name="afii57374" unicode="&#x674;&#x64f;" horiz-adv-x="441" 
d="M95 1033l10 51q56 39 90 82q-116 8 -116 107q0 69 46 135t106 66q95 0 95 -87q0 -28 -15 -56q-86 62 -123 62q-61 0 -61 -50q0 -42 62 -80t110 -38q42 0 104 25v-86zM366 1555q0 -16 -3 -33t-7 -35l-78 47q-47 -51 -63 -68q-71 -69 -118 -69h-69q49 24 117 77
q61 48 92 86q-29 17 -45 37q-19 25 -19 54q0 63 36.5 110t79.5 47q24 0 44 -26t20 -63q0 -19 -5.5 -38.5t-24.5 -70.5q16 -14 32 -26q11 -10 11 -29zM294 1661q0 26 -18 47.5t-34 21.5q-10 0 -15 -6.5t-5 -13.5q0 -20 23 -43l41 -33q8 19 8 27z" />
    <glyph glyph-name="afii57375" unicode="&#x674;&#x64c;" horiz-adv-x="565" 
d="M78 1346v14q8 5 37 25q28 44 28 113q0 43 -25 43q-11 0 -35 -21q-25 -22 -31 -22q-9 0 -9 9q1 24 42 63t74 39q50 0 50 -62q0 -52 -43 -141q88 41 149 128q-68 38 -68 109q2 61 55.5 128.5t94.5 67.5q29 0 48 -33t19 -75q0 -73 -45 -138q56 -27 56 -59l-4 -55
q-40 0 -120 37q-43 -65 -113.5 -121t-123.5 -56q-24 0 -36 7zM381 1611q22 38 22 76q0 69 -52 69q-43 0 -43 -55q0 -65 73 -90zM208 888l9 50q56 40 90 83q-116 7 -116 107q0 70 46.5 135.5t106.5 65.5q94 0 94 -87q0 -27 -14 -57q-86 63 -124 63q-60 0 -60 -50
q0 -42 62 -80t109 -38q41 0 104 25v-86z" />
    <glyph glyph-name="afii57460" unicode="&#x627;&#xe83b;" horiz-adv-x="304" 
d="M311 282q1 -14 1 -48q0 -156 -40 -238q-5 -11 -13 -9q-7 2 -7 16q1 125 -27 421q-22 228 -43 592q24 51 72 141q7 12 10 13q4 -10 2 -64q-2 -45 -2 -60q0 -84 47 -764zM115 1565q120 158 164.5 181t76.5 23q30 0 48.5 -33.5t18.5 -77.5q0 -73 -28.5 -119t-86.5 -58.5
t-254 -12.5q-38 0 -55 -37q-26 -62 -30 -62q-18 0 -18 56q0 52 24.5 87t47.5 44.5t92 8.5zM161 1564h131q90 0 90 44q0 67 -64 67q-25 0 -80 -39.5t-77 -71.5z" />
    <glyph glyph-name="afii52258" unicode="&#xfe8e;&#xe83b;" horiz-adv-x="418" arabic-form="final" 
d="M395 -2h-98q-130 0 -173 140q-22 72 -43 359l-41 567q38 42 73 84q20 25 21 9l23 -587q11 -258 34 -328q35 -103 150 -103h54v-141zM110 1565q120 158 164.5 181t76.5 23q30 0 48.5 -33.5t18.5 -77.5q0 -73 -28.5 -119t-86.5 -58.5t-254 -12.5q-38 0 -55 -37
q-26 -62 -30 -62q-18 0 -18 56q0 52 24.5 87t47.5 44.5t92 8.5zM156 1564h131q90 0 90 44q0 67 -64 67q-25 0 -80 -39.5t-77 -71.5z" />
    <glyph glyph-name="afii63753" unicode="&#xfe91;&#xfee2;" horiz-adv-x="1001" arabic-form="isolated" 
d="M934 593q0 -48 -70 -145q-69 80 -162 80q-191 0 -318 -145l110 -51q164 -76 164 -140q0 -27 -32 -87q-25 -43 -52 -43q-10 0 -79 17q-29 7 -90 7q-120 0 -203.5 -34t-83.5 -84q0 -113 70 -367q52 -194 52 -326q0 -52 -31 -106l-123 609q-14 71 -14 147q0 62 37 132
q42 79 146 121l-60 57q23 108 196 262q88 78 204 134q129 61 224 61q115 0 115 -99zM893 49l-76 -124l-120 79l74 135z" />
    <glyph glyph-name="afii63754" unicode="&#xfe91;&#xfef0;" horiz-adv-x="1265" arabic-form="isolated" 
d="M1202 -17q0 -153 -180 -279q-270 -188 -542 -188q-165 0 -267 94.5t-102 248.5q0 157 130 412l27 -7q-94 -195 -94 -308q0 -119 96 -199.5t239 -80.5q213 0 469 127q162 81 162 124q0 34 -162 64l-195 35q11 65 23 74q5 4 63 22q82 27 82 152q0 138 -75 258l112 163
q66 -133 66 -341q0 -160 -80 -247q65 -14 127 -28q101 -34 101 -96zM1125 -540l-81 -129l-115 88l76 126z" />
    <glyph glyph-name="afii63759" unicode="&#xfe97;&#xfee2;" horiz-adv-x="1003" arabic-form="isolated" 
d="M934 593q0 -48 -70 -145q-69 80 -162 80q-191 0 -318 -145l110 -51q164 -76 164 -140q0 -27 -32 -87q-25 -43 -52 -43l-79 17q-34 7 -90 7q-120 0 -203.5 -34t-83.5 -84q0 -113 70 -367q52 -194 52 -326q0 -52 -31 -106l-123 609q-14 71 -14 147q0 62 37 132
q42 79 146 121l-60 57q23 108 196 262q88 78 204 134q129 61 224 61q115 0 115 -99zM948 1030l-78 -127l-124 88l-68 -109l-128 86l78 125l125 -87l70 111z" />
    <glyph glyph-name="afii63763" unicode="&#xfe9b;&#xfee2;" horiz-adv-x="1005" arabic-form="isolated" 
d="M934 593q0 -48 -70 -145q-69 80 -162 80q-191 0 -318 -145l110 -51q164 -76 164 -140q0 -27 -32 -87q-25 -43 -52 -43l-79 17q-34 7 -90 7q-120 0 -203.5 -34t-83.5 -84q0 -113 70 -367q52 -194 52 -326q0 -52 -31 -106l-123 609q-14 71 -14 147q0 62 37 132
q42 79 146 121l-60 57q23 108 196 262q88 78 204 134q129 61 224 61q115 0 115 -99zM796 1250l-72 -130l-121 74l72 136zM951 1040l-73 -128l-125 78l-65 -117l-129 88l74 130l129 -80l65 109z" />
    <glyph glyph-name="afii63795" unicode="&#xfed3;&#xfef0;" horiz-adv-x="1258" arabic-form="isolated" 
d="M1162 71q0 -75 -50 -132q-114 -128 -298.5 -210t-346.5 -82q-163 0 -263 78.5t-100 208.5q0 201 152 456l22 -14q-106 -219 -106 -319q0 -111 99 -184.5t252 -73.5q169 0 382 88q204 87 204 142q0 62 -296 108q5 62 29 89t94 45q166 46 166 163q0 67 -48 120
q-49 -83 -80.5 -109t-80.5 -26q-48 0 -78.5 36.5t-30.5 91.5q0 115 71 233q54 86 112 86q47 0 100 -95q86 -192 86 -337q0 -96 -101 -221q110 -48 110 -142zM965 642q-33 45 -63 45q-44 0 -44 -50q0 -32 37 -32q40 0 70 37zM811 997l-77 -123l-117 74l73 132z" />
    <glyph glyph-name="afii62891" unicode="&#xfed3;&#xfef2;" horiz-adv-x="1258" arabic-form="isolated" 
d="M1162 71q0 -75 -50 -132q-114 -128 -298.5 -210t-346.5 -82q-163 0 -263 78.5t-100 208.5q0 201 152 456l22 -14q-106 -219 -106 -319q0 -111 99 -184.5t252 -73.5q169 0 382 88q204 87 204 142q0 62 -296 108q5 62 29 89t94 45q166 46 166 163q0 67 -48 120
q-49 -83 -80.5 -109t-80.5 -26q-48 0 -78.5 36.5t-30.5 91.5q0 115 71 233q54 86 112 86q47 0 100 -95q86 -192 86 -337q0 -96 -101 -221q110 -48 110 -142zM965 642q-33 45 -63 45q-44 0 -44 -50q0 -32 37 -32q40 0 70 37zM811 997l-77 -123l-117 74l73 132zM915 -478
l-78 -138l-127 80l-64 -118l-127 74l71 137l124 -80l72 124z" />
    <glyph glyph-name="afii63808" unicode="&#xfedf;&#xfe9e;" horiz-adv-x="1239" arabic-form="isolated" 
d="M1202 -724l-414 -138q-41 -4 -98 -4q-307 0 -480 135t-173 354q0 429 450 687q-104 34 -196 34q-72 0 -177 -22l22 116q108 73 256 73q76 0 102 23.5t26 95.5q0 111 -36.5 313t-36.5 215q0 48 61 150l94 -145q-58 -73 -58 -130q0 -13 18.5 -148t18.5 -263q0 -73 -39 -153
q198 -28 314 -28q26 0 75 2q58 4 104 5l-55 -116q-286 -40 -417 -87q-215 -78 -334.5 -213.5t-119.5 -306.5q0 -194 188.5 -318t519.5 -124q169 0 380 23zM758 -177l-81 -126l-118 88l80 123z" />
    <glyph glyph-name="afii62938" unicode="&#xfedf;&#xfea2;" horiz-adv-x="1239" arabic-form="isolated" 
d="M1202 -724l-414 -138q-41 -4 -98 -4q-307 0 -480 135t-173 354q0 429 450 687q-104 34 -196 34q-72 0 -177 -22l22 116q108 73 256 73q76 0 102 23.5t26 95.5q0 111 -36.5 313t-36.5 215q0 48 61 150l94 -145q-58 -73 -58 -130q0 -13 18.5 -148t18.5 -263q0 -73 -39 -153
q198 -28 314 -28q26 0 75 2q58 4 104 5l-55 -116q-286 -40 -417 -87q-215 -78 -334.5 -213.5t-119.5 -306.5q0 -217 188.5 -329.5t519.5 -112.5q169 0 380 23z" />
    <glyph glyph-name="afii63810" unicode="&#xfedf;&#xfea6;" horiz-adv-x="1239" arabic-form="isolated" 
d="M1202 -724l-414 -138q-41 -4 -98 -4q-307 0 -480 135t-173 354q0 429 450 687q-104 34 -196 34q-72 0 -177 -22l22 116q108 73 256 73q76 0 102 23.5t26 95.5q0 111 -36.5 313t-36.5 215q0 48 61 150l94 -145q-58 -73 -58 -130q0 -13 18.5 -148t18.5 -263q0 -73 -39 -153
q198 -28 314 -28q26 0 75 2q58 4 104 5l-55 -116q-286 -40 -417 -87q-215 -78 -334.5 -213.5t-119.5 -306.5q0 -217 188.5 -329.5t519.5 -112.5q169 0 380 23zM366 829l-80 -127l-118 88l79 124z" />
    <glyph glyph-name="afii62942" unicode="&#xfedf;&#xfee2;" horiz-adv-x="833" arabic-form="isolated" 
d="M681 190q0 -16 -37 -92q-24 -51 -100 -51h-89q-156 0 -258 -33q-47 -16 -61 -37t-14 -72q0 -20 7 -64l95 -603q0 -6 1 -17t1 -17q0 -40 -36 -95l-109 607q-9 53 -9 104q0 91 21 177q32 127 185 211q-47 20 -47 49q0 96 116 145q123 52 123 173q0 136 -70 493
q-14 73 -14 109q0 65 69 148q28 -66 89 -133q-67 -98 -67 -174q0 -35 23.5 -167t23.5 -186q0 -132 -62 -307q103 -55 141 -79q78 -49 78 -89z" />
    <glyph glyph-name="afii62947" unicode="&#xfedf;&#xfef0;" horiz-adv-x="1265" arabic-form="isolated" 
d="M1202 -17q0 -153 -180 -279q-270 -188 -542 -188q-165 0 -267 94.5t-102 248.5q0 157 130 412l27 -7q-94 -195 -94 -308q0 -119 96 -199.5t239 -80.5q213 0 469 127q162 81 162 124q0 34 -162 64l-195 35q11 65 21.5 73t64.5 23q82 23 82 108q0 118 -77 494t-77 413
q0 57 57 157l88 -157q-58 -62 -58 -112q0 -20 58 -304t58 -418q0 -123 -29 -196q124 -26 132 -28q99 -34 99 -96z" />
    <glyph glyph-name="afii63813" unicode="&#xfedf;&#xfef2;" horiz-adv-x="1265" arabic-form="isolated" 
d="M1202 -17q0 -153 -180 -279q-270 -188 -542 -188q-165 0 -267 94.5t-102 248.5q0 157 130 412l27 -7q-94 -195 -94 -308q0 -119 96 -199.5t239 -80.5q213 0 469 127q162 81 162 124q0 37 -149 65q-103 17 -208 34q0 75 43 82q125 21 125 122q0 90 -77 494t-77 413
q0 57 57 157l88 -157q-58 -48 -58 -112q116 -594 116 -746q0 -68 -29 -172l137 -28q94 -30 94 -96zM888 -637l-80 -132l-123 87l-68 -108l-124 83l74 127l125 -86l71 111z" />
    <glyph glyph-name="afii63823" unicode="&#xfee7;&#xfee2;" horiz-adv-x="1001" arabic-form="isolated" 
d="M934 593q0 -48 -70 -145q-69 80 -162 80q-191 0 -318 -145l110 -51q164 -76 164 -140q0 -27 -32 -87q-25 -43 -52 -43q-10 0 -79 17q-29 7 -90 7q-120 0 -203.5 -34t-83.5 -84q0 -113 70 -367q52 -194 52 -326q0 -52 -31 -106l-123 609q-14 71 -14 147q0 62 37 132
q42 79 146 121l-60 57q23 108 196 262q88 78 204 134q129 61 224 61q115 0 115 -99zM877 989l-81 -127l-118 87l80 124z" />
    <glyph glyph-name="afii63824" unicode="&#xfee7;&#xfef0;" horiz-adv-x="1265" arabic-form="isolated" 
d="M1202 -17q0 -153 -180 -279q-270 -188 -542 -188q-165 0 -267 94.5t-102 248.5q0 157 130 412l27 -7q-94 -195 -94 -308q0 -119 96 -199.5t239 -80.5q213 0 469 127q162 81 162 124q0 34 -162 64l-195 35q11 65 23 74q5 4 63 22q82 27 82 152q0 138 -75 258l112 163
q66 -133 66 -341q0 -160 -80 -247q65 -14 127 -28q101 -34 101 -96zM765 700l-77 -126l-117 81l74 122z" />
    <glyph glyph-name="afii63833" unicode="&#xfbfe;&#xfee2;" horiz-adv-x="1145" arabic-form="isolated" 
d="M934 593q0 -48 -70 -145q-69 80 -162 80q-191 0 -318 -145l110 -51q164 -76 164 -140q0 -27 -32 -87q-25 -43 -52 -43q-10 0 -79 17q-29 7 -90 7q-120 0 -203.5 -34t-83.5 -84q0 -113 70 -367q52 -194 52 -326q0 -52 -31 -106l-123 609q-14 71 -14 147q0 62 37 132
q42 79 146 121l-60 57q23 108 196 262q88 78 204 134q129 61 224 61q115 0 115 -99zM1093 72l-79 -126l-124 87l-68 -108l-128 84l78 126l125 -86l71 110z" />
    <glyph glyph-name="afii63844" unicode="&#xfbfe;&#xfef0;" horiz-adv-x="1271" arabic-form="isolated" 
d="M1202 -17q0 -153 -180 -279q-270 -188 -542 -188q-165 0 -267 94.5t-102 248.5q0 157 130 412l27 -7q-94 -195 -94 -308q0 -119 96 -199.5t239 -80.5q213 0 469 127q162 81 162 124q0 34 -162 64l-195 35q11 65 23 74q5 4 63 22q82 27 82 152q0 138 -75 258l112 163
q66 -133 66 -341q0 -160 -80 -247q65 -14 127 -28q101 -34 101 -96zM1249 -512l-77 -130l-131 85l-65 -119l-127 93l76 128l123 -81l71 109z" />
    <glyph glyph-name="afii62882" unicode="&#x651;&#x64c;" horiz-adv-x="536" arabic-form="isolated" 
d="M62 1325v14q8 5 38 25q28 43 28 113q0 43 -26 43q-11 0 -36 -22q-25 -21 -29 -21q-11 0 -11 8q0 24 42 63.5t75 39.5q49 0 49 -62q0 -54 -42 -141q87 40 149 128q-67 35 -67 109q0 59 54 127.5t95 68.5q28 0 47.5 -33t19.5 -75q0 -74 -45 -138q56 -29 56 -59l-4 -55
q-41 0 -119 37q-44 -66 -115 -121.5t-124 -55.5q-23 0 -35 7zM365 1590q21 38 21 75q0 70 -50 70q-44 0 -44 -55q0 -65 73 -90zM296 1136q-50 -102 -109 -102q-77 0 -77 111q0 97 34 97q15 0 15 -16q0 -6 -2 -20q-2 -16 -2 -24q0 -32 32 -32q52 0 71 78q20 76 26 76
q13 0 19 -41q5 -43 47 -43q37 0 45 74q8 77 21 77q38 0 38 -129q1 -60 -30.5 -102.5t-73.5 -42.5q-37 0 -54 39z" />
    <glyph glyph-name="afii62883" unicode="&#x651;&#x64d;" horiz-adv-x="483" arabic-form="isolated" 
d="M234 1590q-50 -99 -109 -99q-78 0 -78 99q0 31 10 64t22 33t12 -17q0 -7 -2 -22q-2 -17 -2 -24q0 -31 34 -31q50 0 71 78q20 78 28 78q12 0 19 -42q7 -43 48 -43q37 0 45 75q8 76 22 76q32 0 32 -125q0 -55 -34.5 -95.5t-67.5 -40.5q-35 0 -50 36zM79 1290q-16 -6 -16 30
q0 28 18 36l293 123q11 0 13.5 -4t2.5 -20q0 -33 -16 -40zM79 1102q-3 -1 -4 -1q-10 0 -10 29t16 36l293 126q11 0 13.5 -4.5t2.5 -20.5q0 -32 -16 -39z" />
    <glyph glyph-name="afii62884" unicode="&#x651;&#x64e;" horiz-adv-x="456" arabic-form="isolated" 
d="M73 1631q-15 -6 -15 30q0 30 15 36l293 125q11 0 13.5 -5t2.5 -21q0 -33 -16 -40zM240 1452q-47 -101 -106 -101q-81 0 -81 108q0 100 34 100q15 0 15 -20q0 -6 -1 -20q-2 -15 -2 -23q0 -32 32 -32q51 0 72 79q21 78 22 78q18 0 23 -42q5 -45 43 -45q40 0 48 77
q11 76 22 76q35 0 35 -128q0 -61 -30.5 -104t-70.5 -45q-32 0 -55 42z" />
    <glyph glyph-name="afii62885" unicode="&#x651;&#x64f;" horiz-adv-x="464" arabic-form="isolated" 
d="M21 1329v15q168 76 232 168q-70 44 -70 106q2 54 52.5 126.5t96.5 72.5q27 0 46.5 -34.5t19.5 -76.5q0 -58 -41 -136q58 -27 58 -60v-58q-31 0 -123 44q-138 -177 -235 -177q-18 0 -36 10zM321 1588q20 36 20 74q0 72 -49 72q-46 0 -46 -60q0 -71 75 -86zM248 1134
q-52 -102 -109 -102q-78 0 -78 111q0 99 35 99q15 0 15 -19q0 -5 -2 -19q-3 -17 -3 -25q0 -31 33 -31q50 0 71 78t24 78q16 0 21 -43q4 -43 45 -43q39 0 47 73q8 76 21 76q36 0 36 -127q1 -61 -30 -103t-74 -42q-35 0 -52 39z" />
    <glyph glyph-name="afii62886" unicode="&#x651;&#x650;" horiz-adv-x="456" arabic-form="isolated" 
d="M227 1594q-50 -99 -109 -99q-78 0 -78 99q0 30 10 63.5t22 33.5t12 -18q0 -7 -2 -22q-2 -16 -2 -23q0 -32 34 -32q50 0 71 78q20 79 28 79q13 0 19 -42q7 -43 48 -43q37 0 45 74q8 76 22 76q32 0 32 -125q0 -55 -34.5 -95t-67.5 -40q-34 0 -50 36zM72 1294q-3 -2 -4 -2
q-12 0 -12 32q0 28 18 35l293 124q11 0 13.5 -4t2.5 -21q0 -32 -16 -39z" />
    <glyph glyph-name="afii63846" unicode="&#xfe92;&#xfeae;" horiz-adv-x="1127" arabic-form="final" 
d="M1197 0h-165q-166 0 -181 332q-105 -128 -225 -147q8 -71 8 -114q0 -240 -120 -399t-298 -159q-97 0 -206 37l9 24q34 -8 81 -8q164 0 315 168q170 186 170 306q0 33 -44.5 124.5t-44.5 114.5q0 31 39 94q81 -48 135 -48q123 0 191 144h14q31 -201 62 -264t95 -63h165
v-142zM920 -173l-80 -127l-118 88l79 124z" />
    <glyph glyph-name="afii63849" unicode="&#xfe92;&#xfee6;" horiz-adv-x="1473" arabic-form="final" 
d="M1543 0h-165q-90 0 -136 70q-61 91 -97 349q-88 -145 -198 -152q10 -72 10 -123q0 -217 -159 -362t-395 -145q-161 0 -251 75t-90 213q0 126 104 354l22 -12q-64 -161 -64 -249q0 -100 89 -168t222 -68q204 0 341 96t137 236q0 109 -79 201l41 116q66 -29 111 -29
q95 0 178 133l23 -2q29 -230 68.5 -310.5t122.5 -80.5h165v-142zM627 701l-80 -126l-118 88l79 124zM1359 -245l-76 -124l-120 80l73 134z" />
    <glyph glyph-name="afii63850" unicode="&#xfe92;&#xfef0;" horiz-adv-x="1324" arabic-form="final" 
d="M1377 0h-177q-82 0 -168.5 82.5t-128.5 82.5q-76 0 -141 -65q-60 -60 -60 -117q0 -77 139 -96l235 -31q128 -18 128 -78q0 -154 -246.5 -277.5t-551.5 -123.5q-184 0 -291 88.5t-107 245.5q0 204 143 401l15 -8q-94 -182 -94 -287q0 -125 109 -210t267 -85q184 0 427 68
q248 70 248 126q0 24 -59 30l-298 30q-156 17 -156 108q0 99 131.5 255.5t214.5 156.5q37 0 123 -77t121 -77h177v-142zM1489 -220l-76 -124l-120 81l73 133z" />
    <glyph glyph-name="afii63851" unicode="&#xfe92;&#xfef2;" horiz-adv-x="1324" arabic-form="final" 
d="M1377 0h-177q-82 0 -168.5 82.5t-128.5 82.5q-76 0 -141 -65q-60 -60 -60 -117q0 -77 139 -96l235 -31q128 -18 128 -78q0 -154 -246.5 -277.5t-551.5 -123.5q-184 0 -291 88.5t-107 245.5q0 204 143 401l15 -8q-94 -182 -94 -287q0 -125 109 -210t267 -85q184 0 427 68
q248 70 248 126q0 24 -59 30l-298 30q-156 17 -156 108q0 99 131.5 255.5t214.5 156.5q37 0 123 -77t121 -77h177v-142zM1489 -220l-76 -124l-120 81l73 133zM723 -754l-75 -124l-124 89l-71 -109l-120 93l78 122l124 -93l72 108z" />
    <glyph glyph-name="afii63852" unicode="&#xfe98;&#xfeae;" horiz-adv-x="1127" arabic-form="final" 
d="M1197 0h-165q-166 0 -181 332q-105 -128 -225 -147q8 -71 8 -114q0 -240 -120 -399t-298 -159q-97 0 -206 37l9 24q34 -8 81 -8q164 0 315 168q170 186 170 306q0 33 -44.5 124.5t-44.5 114.5q0 31 39 94q81 -48 135 -48q123 0 191 144h14q31 -201 62 -264t95 -63h165
v-142zM818 666l-79 -131l-124 88l-66 -109l-124 82l72 129l125 -87l71 111z" />
    <glyph glyph-name="afii63855" unicode="&#xfe98;&#xfee6;" horiz-adv-x="1473" arabic-form="final" 
d="M1543 0h-165q-90 0 -136 70q-61 91 -97 349q-88 -145 -198 -152q10 -72 10 -123q0 -217 -159 -362t-395 -145q-161 0 -251 75t-90 213q0 126 104 354l22 -12q-64 -161 -64 -249q0 -100 89 -168t222 -68q204 0 341 96t137 236q0 109 -79 201l41 116q66 -29 111 -29
q95 0 178 133l23 -2q29 -230 68.5 -310.5t122.5 -80.5h165v-142zM627 701l-80 -126l-118 88l79 124zM1353 903l-72 -134l-129 77l-67 -109l-128 73l77 139l130 -81l66 109z" />
    <glyph glyph-name="afii63856" unicode="&#xfe98;&#xfef0;" horiz-adv-x="1307" arabic-form="final" 
d="M1377 0h-177q-82 0 -168.5 82.5t-128.5 82.5q-76 0 -141 -65q-60 -60 -60 -117q0 -77 139 -96l235 -31q128 -18 128 -78q0 -154 -246.5 -277.5t-551.5 -123.5q-184 0 -291 88.5t-107 245.5q0 204 143 401l15 -8q-94 -182 -94 -287q0 -125 109 -210t267 -85q184 0 427 68
q248 70 248 126q0 24 -59 30l-298 30q-156 17 -156 108q0 99 131.5 255.5t214.5 156.5q37 0 123 -77t121 -77h177v-142zM1114 683l-73 -123l-124 89l-72 -109l-121 92l80 123l123 -93l72 108z" />
    <glyph glyph-name="afii63761" unicode="&#xfe98;&#xfef2;" horiz-adv-x="1307" arabic-form="final" 
d="M1377 0h-177q-82 0 -168.5 82.5t-128.5 82.5q-76 0 -141 -65q-60 -60 -60 -117q0 -77 139 -96l235 -31q128 -18 128 -78q0 -154 -246.5 -277.5t-551.5 -123.5q-184 0 -291 88.5t-107 245.5q0 204 143 401l15 -8q-94 -182 -94 -287q0 -125 109 -210t267 -85q184 0 427 68
q248 70 248 126q0 24 -59 30l-298 30q-156 17 -156 108q0 99 131.5 255.5t214.5 156.5q37 0 123 -77t121 -77h177v-142zM739 660l-78 -130l-125 87l-67 -109l-123 82l72 128l126 -86l70 111zM723 -719l-75 -123l-124 89l-71 -109l-120 92l78 122l124 -92l72 109z" />
    <glyph glyph-name="afii63882" unicode="&#xfee8;&#xfef0;" horiz-adv-x="1307" arabic-form="final" 
d="M1377 0h-177q-82 0 -168.5 82.5t-128.5 82.5q-76 0 -141 -65q-60 -60 -60 -117q0 -77 139 -96l235 -31q128 -18 128 -78q0 -154 -246.5 -277.5t-551.5 -123.5q-184 0 -291 88.5t-107 245.5q0 204 143 401l15 -8q-94 -182 -94 -287q0 -125 109 -210t267 -85q184 0 427 68
q248 70 248 126q0 24 -59 30l-298 30q-156 17 -156 108q0 99 131.5 255.5t214.5 156.5q37 0 123 -77t121 -77h177v-142zM642 565l-74 -124l-121 80l73 134z" />
    <glyph glyph-name="afii63825" unicode="&#xfee8;&#xfef2;" horiz-adv-x="1307" arabic-form="final" 
d="M1377 0h-177q-82 0 -168.5 82.5t-128.5 82.5q-76 0 -141 -65q-60 -60 -60 -117q0 -77 139 -96l235 -31q128 -18 128 -78q0 -154 -246.5 -277.5t-551.5 -123.5q-184 0 -291 88.5t-107 245.5q0 204 143 401l15 -8q-94 -182 -94 -287q0 -125 109 -210t267 -85q184 0 427 68
q248 70 248 126q0 24 -59 30l-298 30q-156 17 -156 108q0 99 131.5 255.5t214.5 156.5q37 0 123 -77t121 -77h177v-142zM642 565l-74 -124l-121 80l73 134zM723 -754l-75 -124l-124 89l-71 -109l-120 93l78 122l124 -93l72 108z" />
    <glyph glyph-name="afii63885" unicode="&#xfbff;&#xfeae;" horiz-adv-x="1127" arabic-form="final" 
d="M1197 0h-165q-166 0 -181 332q-105 -128 -225 -147q8 -71 8 -114q0 -240 -120 -399t-298 -159q-97 0 -206 37l9 24q34 -8 81 -8q164 0 315 168q170 186 170 306q0 33 -44.5 124.5t-44.5 114.5q0 31 39 94q81 -48 135 -48q123 0 191 144h14q31 -201 62 -264t95 -63h165
v-142zM1061 -189l-79 -130l-124 87l-66 -108l-124 82l72 128l125 -87l71 111z" />
    <glyph glyph-name="afii63888" unicode="&#xfbff;&#xfee6;" horiz-adv-x="1473" arabic-form="final" 
d="M1543 0h-165q-90 0 -136 70q-61 91 -97 349q-88 -145 -198 -152q10 -72 10 -123q0 -217 -159 -362t-395 -145q-161 0 -251 75t-90 213q0 126 104 354l22 -12q-64 -161 -64 -249q0 -100 89 -168t222 -68q204 0 341 96t137 236q0 109 -79 201l41 116q66 -29 111 -29
q95 0 178 133l23 -2q29 -230 68.5 -310.5t122.5 -80.5h165v-142zM627 701l-80 -126l-118 88l79 124zM1451 -233l-72 -134l-129 76l-67 -108l-129 73l78 139l130 -81l66 109z" />
    <glyph glyph-name="afii63896" unicode="&#xfe91;&#xfea0;" horiz-adv-x="1109" arabic-form="initial" 
d="M1064 344l-43 -98h-31q-269 0 -462 -63q-90 -31 -249 -120q-114 -63 -196 -63h-83v142h83q91 0 188 38q148 59 248 84q-230 62 -421 101q15 66 44.5 96t107.5 57q314 112 464 423q30 63 54 63q90 0 121 -326l-38 -5q-18 195 -83 195q-26 0 -76 -64q-87 -109 -130 -154
q-106 -108 -243 -188q298 -118 616 -118h129zM1027 -15l-72 -130l-121 79l70 130zM577 -15l-72 -130l-121 79l70 130z" />
    <glyph glyph-name="afii63897" unicode="&#xfe91;&#xfea4;" horiz-adv-x="1109" arabic-form="initial" 
d="M1064 344l-43 -98h-31q-269 0 -462 -63q-90 -31 -249 -120q-114 -63 -196 -63h-83v142h83q91 0 188 38q148 59 248 84q-230 62 -421 101q15 66 44.5 96t107.5 57q314 112 464 423q30 63 54 63q90 0 121 -326l-38 -5q-18 195 -83 195q-26 0 -76 -64q-87 -109 -130 -154
q-106 -108 -243 -188q298 -118 616 -118h129zM1027 -15l-72 -130l-121 79l70 130z" />
    <glyph glyph-name="afii63898" unicode="&#xfe91;&#xfea8;" horiz-adv-x="1109" arabic-form="initial" 
d="M1064 344l-43 -98h-31q-269 0 -462 -63q-90 -31 -249 -120q-114 -63 -196 -63h-83v142h83q91 0 188 38q148 59 248 84q-230 62 -421 101q15 66 44.5 96t107.5 57q314 112 464 423q30 63 54 63q90 0 121 -326l-38 -5q-18 195 -83 195q-26 0 -76 -64q-87 -109 -130 -154
q-106 -108 -243 -188q298 -118 616 -118h129zM310 859l-78 -123l-116 74l73 131zM1027 -15l-72 -130l-121 79l70 130z" />
    <glyph glyph-name="afii63899" unicode="&#xfe91;&#xfee4;" horiz-adv-x="786" arabic-form="initial" 
d="M694 767q0 -19 -8 -42l-28 -83q-94 50 -160 50q-85 0 -144 -51t-59 -123q0 -73 47.5 -129.5t176.5 -135.5q24 -15 87 -54l-55 -170q-84 38 -205 90q-31 -43 -123 -82q-85 -37 -140 -37h-83v142h83q40 0 98.5 25t83.5 55q-43 105 -43 190q0 171 117 317q99 123 217 123
q50 0 94 -24.5t44 -60.5zM928 -22l-76 -123l-121 79l74 133z" />
    <glyph glyph-name="afii63900" unicode="&#xfe91;&#xfbab;" horiz-adv-x="884" arabic-form="initial" 
d="M832 257q0 -166 -109 -166q-52 0 -180 29t-168 50q-55 -49 -112 -96q-101 -74 -179 -74h-84v142h83q103 0 180 59q-35 42 -35 81q0 96 145 274q-8 14 -18 27q-12 24 -12 53q0 43 101 149q72 79 203 180q79 -29 79 -50q0 -23 -100 -109q-108 -93 -120 -113
q62 -45 193 -173q133 -157 133 -263zM792 -73l-84 -130l-119 87l80 125zM793 208q-60 128 -222 251q-22 -123 -80 -199q174 -52 274 -52h28zM505 381q0 33 -24.5 71t-54.5 38q-38 0 -84.5 -46.5t-46.5 -83.5q0 -26 44 -45l85 -33q81 42 81 99z" />
    <glyph glyph-name="afii63901" unicode="&#xfe97;&#xfea0;" horiz-adv-x="1109" arabic-form="initial" 
d="M1064 344l-43 -98h-31q-269 0 -462 -63q-90 -31 -249 -120q-114 -63 -196 -63h-83v142h83q91 0 188 38q148 59 248 84q-230 62 -421 101q15 66 44.5 96t107.5 57q314 112 464 423q30 63 54 63q90 0 121 -326l-38 -5q-18 195 -83 195q-26 0 -76 -64q-87 -109 -130 -154
q-106 -108 -243 -188q298 -118 616 -118h129zM950 1318l-83 -126l-120 90l-73 -110l-125 92l82 127l123 -90l72 108zM928 -22l-76 -123l-121 79l74 133z" />
    <glyph glyph-name="afii63902" unicode="&#xfe97;&#xfea4;" horiz-adv-x="1109" arabic-form="initial" 
d="M1064 344l-43 -98h-31q-269 0 -462 -63q-90 -31 -249 -120q-114 -63 -196 -63h-83v142h83q91 0 188 38q148 59 248 84q-230 62 -421 101q15 66 44.5 96t107.5 57q314 112 464 423q30 63 54 63q90 0 121 -326l-38 -5q-18 195 -83 195q-26 0 -76 -64q-87 -109 -130 -154
q-106 -108 -243 -188q298 -118 616 -118h129zM950 1318l-83 -126l-120 90l-73 -110l-125 92l82 127l123 -90l72 108z" />
    <glyph glyph-name="afii63903" unicode="&#xfe97;&#xfea8;" horiz-adv-x="1109" arabic-form="initial" 
d="M1064 344l-43 -98h-31q-269 0 -462 -63q-90 -31 -249 -120q-114 -63 -196 -63h-83v142h83q91 0 188 38q148 59 248 84q-230 62 -421 101q15 66 44.5 96t107.5 57q314 112 464 423q30 63 54 63q90 0 121 -326l-38 -5q-18 195 -83 195q-26 0 -76 -64q-87 -109 -130 -154
q-106 -108 -243 -188q298 -118 616 -118h129zM950 1318l-83 -126l-120 90l-73 -110l-125 92l82 127l123 -90l72 108zM310 859l-78 -123l-116 74l73 131z" />
    <glyph glyph-name="afii63904" unicode="&#xfe97;&#xfee4;" horiz-adv-x="749" arabic-form="initial" 
d="M694 767q0 -19 -8 -42l-28 -83q-94 50 -160 50q-85 0 -144 -51t-59 -123q0 -73 47.5 -129.5t176.5 -135.5q24 -15 87 -54l-55 -170q-84 38 -205 90q-31 -43 -123 -82q-85 -37 -140 -37h-83v142h83q40 0 98.5 25t83.5 55q-43 105 -43 190q0 171 117 317q99 123 217 123
q50 0 94 -24.5t44 -60.5zM683 1076l-72 -130l-126 87l-72 -113l-116 84l72 126l123 -83l69 112z" />
    <glyph glyph-name="afii63905" unicode="&#xfe97;&#xfbab;" horiz-adv-x="884" arabic-form="initial" 
d="M778 1212l-77 -126l-124 79l-72 -113l-131 79l80 131l129 -80l72 108zM832 257q0 -166 -109 -166q-52 0 -180 29t-168 50q-55 -49 -112 -96q-101 -74 -179 -74h-84v142h83q103 0 180 59q-35 42 -35 81q0 96 145 274q-8 14 -18 27q-12 24 -12 53q0 43 101 149
q72 79 203 180q79 -29 79 -50q0 -23 -100 -109q-108 -93 -120 -113q62 -45 193 -173q133 -157 133 -263zM793 208q-60 128 -222 251q-22 -123 -80 -199q174 -52 274 -52h28zM505 381q0 33 -24.5 71t-54.5 38q-38 0 -84.5 -46.5t-46.5 -83.5q0 -26 44 -45l85 -33q81 42 81 99
z" />
    <glyph glyph-name="afii63906" unicode="&#xfe9b;&#xfee4;" horiz-adv-x="751" arabic-form="initial" 
d="M694 767q0 -19 -8 -42l-28 -83q-94 50 -160 50q-85 0 -144 -51t-59 -123q0 -73 47.5 -129.5t176.5 -135.5q24 -15 87 -54l-55 -170q-84 38 -205 90q-31 -43 -123 -82q-85 -37 -140 -37h-83v142h83q40 0 98.5 25t83.5 55q-43 105 -43 190q0 171 117 317q99 123 217 123
q50 0 94 -24.5t44 -60.5zM541 1241l-76 -124l-120 81l73 133zM702 1034l-84 -128l-121 85l-74 -109l-115 81l71 124l125 -80l72 108z" />
    <glyph glyph-name="afii63908" unicode="&#xfe9f;&#xfee4;" horiz-adv-x="1464" arabic-form="initial" 
d="M1410 337h-43q-128 0 -324.5 55.5t-347.5 55.5q-85 0 -174 -21q80 -68 109 -118.5t29 -123.5q0 -142 -94 -142q-107 0 -320 108q-57 -151 -162 -151h-83v142h83q145 0 155 118q23 251 441 251q45 0 195 -12q-203 186 -377 186q-30 0 -88 -13q56 143 211 143q73 0 201 -89
q213 -151 243 -168q158 -90 303 -90h29zM615 178q0 16 -29 37q-103 77 -250 130q-16 6 -26 6q-19 0 -19 -22q0 -30 61 -55q36 -18 182 -94q47 -24 64 -24t17 22zM928 -22l-76 -123l-121 79l74 133z" />
    <glyph glyph-name="afii63910" unicode="&#xfea3;&#xfee4;" horiz-adv-x="1464" arabic-form="initial" 
d="M1410 337h-43q-128 0 -324.5 55.5t-347.5 55.5q-85 0 -174 -21q80 -68 109 -118.5t29 -123.5q0 -142 -94 -142q-107 0 -320 108q-57 -151 -162 -151h-83v142h83q145 0 155 118q23 251 441 251q45 0 195 -12q-203 186 -377 186q-30 0 -88 -13q56 143 211 143q73 0 201 -89
q213 -151 243 -168q158 -90 303 -90h29zM615 178q0 16 -29 37q-103 77 -250 130q-16 6 -26 6q-19 0 -19 -22q0 -30 61 -55q36 -18 182 -94q47 -24 64 -24t17 22z" />
    <glyph glyph-name="afii63912" unicode="&#xfea7;&#xfee4;" horiz-adv-x="1464" arabic-form="initial" 
d="M1410 337h-43q-128 0 -324.5 55.5t-347.5 55.5q-85 0 -174 -21q80 -68 109 -118.5t29 -123.5q0 -142 -94 -142q-107 0 -320 108q-57 -151 -162 -151h-83v142h83q145 0 155 118q23 251 441 251q45 0 195 -12q-203 186 -377 186q-30 0 -88 -13q56 143 211 143q73 0 201 -89
q213 -151 243 -168q158 -90 303 -90h29zM615 178q0 16 -29 37q-103 77 -250 130q-16 6 -26 6q-19 0 -19 -22q0 -30 61 -55q36 -18 182 -94q47 -24 64 -24t17 22zM653 990l-77 -123l-117 74l74 131z" />
    <glyph glyph-name="afii62927" unicode="&#xfeb3;&#xfee4;" horiz-adv-x="1285" arabic-form="initial" 
d="M1217 757q0 -121 -46 -198t-118 -77q-63 0 -170 97q-104 -170 -231 -170q-98 0 -145 109q-33 61 -79 61q-62 0 -106.5 -39t-44.5 -85q0 -80 106 -213q104 -8 153 -31q45 -21 87 -82q-20 -70 -77 -144l-34 22q-101 69 -158 69q-44 0 -129.5 -38t-141.5 -38h-83v142h83
q27 0 76 30q56 34 104 41q-36 100 -36 147q0 106 55 210q35 63 94 111t102 48q37 0 94 -73q65 -86 141 -86q152 0 208 226h16q22 -152 186 -152q39 0 39 28q0 20 -59 60l49 149q65 -38 65 -124z" />
    <glyph glyph-name="afii63941" unicode="&#xfedf;&#xfea0;" horiz-adv-x="1246" arabic-form="initial" 
d="M1207 346l-64 -118q-228 22 -332 22q-145 0 -298 -65q-30 -13 -235 -121q-124 -64 -195 -64h-83v142h83q113 0 250 56q206 84 283 105q-198 73 -493 73q16 100 81 131q46 21 170 21q91 0 119 17q41 22 41 99q0 91 -37 306.5t-37 234.5q0 58 76 140l76 -140
q-50 -60 -50 -138q0 -38 16 -196.5t16 -187.5q0 -114 -46 -186q229 -71 308 -88q128 -29 351 -43zM928 -22l-76 -123l-121 79l74 133z" />
    <glyph glyph-name="afii62939" unicode="&#xfedf;&#xfea4;" horiz-adv-x="1246" arabic-form="initial" 
d="M1207 346l-64 -118q-228 22 -332 22q-145 0 -298 -65q-30 -13 -235 -121q-124 -64 -195 -64h-83v142h83q113 0 250 56q206 84 283 105q-198 73 -493 73q16 100 81 131q46 21 170 21q91 0 119 17q41 22 41 99q0 91 -37 306.5t-37 234.5q0 58 76 140l76 -140
q-50 -60 -50 -138q0 -38 16 -196.5t16 -187.5q0 -114 -46 -186q229 -71 308 -88q128 -29 351 -43z" />
    <glyph glyph-name="afii63943" unicode="&#xfedf;&#xfea8;" horiz-adv-x="1246" arabic-form="initial" 
d="M1207 346l-64 -118q-228 22 -332 22q-145 0 -298 -65q-30 -13 -235 -121q-124 -64 -195 -64h-83v142h83q113 0 250 56q206 84 283 105q-198 73 -493 73q16 100 81 131q46 21 170 21q91 0 119 17q41 22 41 99q0 91 -37 306.5t-37 234.5q0 58 76 140l76 -140
q-50 -60 -50 -138q0 -38 16 -196.5t16 -187.5q0 -114 -46 -186q229 -71 308 -88q128 -29 351 -43zM310 859l-78 -123l-116 74l73 131z" />
    <glyph glyph-name="afii62943" unicode="&#xfedf;&#xfee4;" horiz-adv-x="616" arabic-form="initial" 
d="M579 100q0 -46 -45 -130q-108 116 -203 116q-40 0 -116.5 -43t-131.5 -43h-83v142h83q51 0 113 31q70 36 101 42q-18 60 -82 482.5t-64 472.5q0 90 66 153l94 -153q-66 -54 -66 -150q0 -149 63 -514q25 -145 55.5 -197.5t114.5 -95.5q101 -52 101 -113z" />
    <glyph glyph-name="afii62946" unicode="&#xfedf;&#xfbab;" horiz-adv-x="839" arabic-form="initial" 
d="M783 296q0 -142 -43 -188t-170 -46q-119 0 -295 31q-26 -34 -89.5 -63.5t-102.5 -29.5h-83v142h83q57 0 88 21q-20 66 -20 104q0 184 284 375q-13 204 -47 344q-29 125 -29 134q0 46 62 123l90 -128q-59 -54 -59 -112l38 -368q8 -88 63 -116l134 -70q96 -49 96 -153z
M736 220q0 55 -157 138q-22 13 -60 37q-34 -89 -94 -187q130 -16 180 -16q131 0 131 28zM453 344q0 46 -30 89.5t-64 43.5q-46 0 -101.5 -63.5t-55.5 -110.5q0 -53 124 -75q127 53 127 116z" />
    <glyph glyph-name="afii63946" unicode="&#xfee3;&#xfea0;" horiz-adv-x="1109" arabic-form="initial" 
d="M1064 332l-35 -94l-140 -10q-242 -16 -411 -76q-63 -23 -216 -102q-100 -50 -179 -50h-83v142h83q106 0 438 111q-335 104 -423 112q49 116 131 168q182 118 428 196l-73 45q43 110 80 167q155 -47 271 -138q-24 -83 -68 -173l-95 -6q-370 -23 -522 -147
q358 -138 814 -145zM928 -22l-76 -123l-121 79l74 133z" />
    <glyph glyph-name="afii62951" unicode="&#xfee3;&#xfea4;" horiz-adv-x="1109" arabic-form="initial" 
d="M1064 332l-35 -94l-140 -10q-242 -16 -411 -76q-63 -23 -216 -102q-100 -50 -179 -50h-83v142h83q106 0 438 111q-335 104 -423 112q49 116 131 168q182 118 428 196l-73 45q43 110 80 167q155 -47 271 -138q-24 -83 -68 -173l-95 -6q-370 -23 -522 -147
q358 -138 814 -145z" />
    <glyph glyph-name="afii63948" unicode="&#xfee3;&#xfea8;" horiz-adv-x="1109" arabic-form="initial" 
d="M1064 332l-35 -94l-140 -10q-242 -16 -411 -76q-63 -23 -216 -102q-100 -50 -179 -50h-83v142h83q106 0 438 111q-335 104 -423 112q49 116 131 168q182 118 428 196l-73 45q43 110 80 167q155 -47 271 -138q-24 -83 -68 -173l-95 -6q-370 -23 -522 -147
q358 -138 814 -145zM310 859l-78 -123l-116 74l73 131z" />
    <glyph glyph-name="afii62953" unicode="&#xfee3;&#xfee4;" horiz-adv-x="843" arabic-form="initial" 
d="M808 810l-72 -175q-398 -53 -398 -166q0 -122 205 -239q116 -65 116 -93q0 -37 -54 -152q-127 65 -238 150q-140 -135 -284 -135h-83v142h83q110 0 210 100q-36 75 -36 123q0 52 76 210q32 67 63 94q27 21 115 60l-86 53l125 201q131 -37 258 -173z" />
    <glyph glyph-name="afii63950" unicode="&#xfee7;&#xfea0;" horiz-adv-x="1109" arabic-form="initial" 
d="M1064 344l-43 -98h-31q-269 0 -462 -63q-90 -31 -249 -120q-114 -63 -196 -63h-83v142h83q91 0 188 38q148 59 248 84q-230 62 -421 101q15 66 44.5 96t107.5 57q314 112 464 423q30 63 54 63q90 0 121 -326l-38 -5q-18 195 -83 195q-26 0 -76 -64q-87 -109 -130 -154
q-106 -108 -243 -188q298 -118 616 -118h129zM874 1303l-83 -124l-112 95l82 121zM928 -22l-76 -123l-121 79l74 133z" />
    <glyph glyph-name="afii63951" unicode="&#xfee7;&#xfea4;" horiz-adv-x="1109" arabic-form="initial" 
d="M1064 344l-43 -98h-31q-269 0 -462 -63q-90 -31 -249 -120q-114 -63 -196 -63h-83v142h83q91 0 188 38q148 59 248 84q-230 62 -421 101q15 66 44.5 96t107.5 57q314 112 464 423q30 63 54 63q90 0 121 -326l-38 -5q-18 195 -83 195q-26 0 -76 -64q-87 -109 -130 -154
q-106 -108 -243 -188q298 -118 616 -118h129zM874 1303l-83 -124l-112 95l82 121z" />
    <glyph glyph-name="afii63952" unicode="&#xfee7;&#xfea8;" horiz-adv-x="1109" arabic-form="initial" 
d="M1064 344l-43 -98h-31q-269 0 -462 -63q-90 -31 -249 -120q-114 -63 -196 -63h-83v142h83q91 0 188 38q148 59 248 84q-230 62 -421 101q15 66 44.5 96t107.5 57q314 112 464 423q30 63 54 63q90 0 121 -326l-38 -5q-18 195 -83 195q-26 0 -76 -64q-87 -109 -130 -154
q-106 -108 -243 -188q298 -118 616 -118h129zM874 1303l-83 -124l-112 95l82 121zM310 859l-78 -123l-116 74l73 131z" />
    <glyph glyph-name="afii63953" unicode="&#xfee7;&#xfee4;" horiz-adv-x="749" arabic-form="initial" 
d="M694 767q0 -19 -8 -42l-28 -83q-94 50 -160 50q-85 0 -144 -51t-59 -123q0 -73 47.5 -129.5t176.5 -135.5q24 -15 87 -54l-55 -170q-84 38 -205 90q-31 -43 -123 -82q-85 -37 -140 -37h-83v142h83q40 0 98.5 25t83.5 55q-43 105 -43 190q0 171 117 317q99 123 217 123
q50 0 94 -24.5t44 -60.5zM603 1163l-77 -123l-117 75l74 131z" />
    <glyph glyph-name="afii63956" unicode="&#x6be;&#xfee4;" horiz-adv-x="1240" arabic-form="initial" 
d="M1172 658q0 -84 -33.5 -143.5t-80.5 -59.5q-96 0 -269 35q-94 -77 -242 -119q25 -49 25 -97q0 -68 -38.5 -122t-86.5 -54q-118 0 -232 67q-79 -165 -159 -165h-56v142h56q29 0 69 21q46 24 54 55q31 129 87 181.5t167 52.5h55q135 0 218 61q-111 31 -111 87
q0 144 173 281q-35 18 -103 28q23 155 115 155q116 0 254 -143.5t138 -262.5zM1123 608q0 82 -175 202q-9 -141 -55 -202q94 -27 177 -27q53 0 53 27zM874 708q0 107 -78 107q-41 0 -82.5 -45t-41.5 -78q0 -42 152 -67q50 39 50 83zM507 235q0 36 -77 76t-132 40
q-30 0 -30 -34q0 -26 95 -66q89 -38 123 -38q21 0 21 22z" />
    <glyph glyph-name="afii63958" unicode="&#xfbfe;&#xfea0;" horiz-adv-x="1109" arabic-form="initial" 
d="M1064 344l-43 -98h-31q-269 0 -462 -63q-90 -31 -249 -120q-114 -63 -196 -63h-83v142h83q91 0 188 38q148 59 248 84q-230 62 -421 101q15 66 44.5 96t107.5 57q314 112 464 423q30 63 54 63q90 0 121 -326l-38 -5q-18 195 -83 195q-26 0 -76 -64q-87 -109 -130 -154
q-106 -108 -243 -188q298 -118 616 -118h129zM1063 -17l-77 -128l-131 84l-64 -119l-126 92l75 128l122 -79l71 108zM507 -224l-75 -123l-120 80l72 133z" />
    <glyph glyph-name="afii63959" unicode="&#xfbfe;&#xfea4;" horiz-adv-x="1109" arabic-form="initial" 
d="M1064 344l-43 -98h-31q-269 0 -462 -63q-90 -31 -249 -120q-114 -63 -196 -63h-83v142h83q91 0 188 38q148 59 248 84q-230 62 -421 101q15 66 44.5 96t107.5 57q314 112 464 423q30 63 54 63q90 0 121 -326l-38 -5q-18 195 -83 195q-26 0 -76 -64q-87 -109 -130 -154
q-106 -108 -243 -188q298 -118 616 -118h129zM1063 -17l-77 -128l-131 84l-64 -119l-126 92l75 128l122 -79l71 108z" />
    <glyph glyph-name="afii63960" unicode="&#xfbfe;&#xfea8;" horiz-adv-x="1109" arabic-form="initial" 
d="M1064 344l-43 -98h-31q-269 0 -462 -63q-90 -31 -249 -120q-114 -63 -196 -63h-83v142h83q91 0 188 38q148 59 248 84q-230 62 -421 101q15 66 44.5 96t107.5 57q314 112 464 423q30 63 54 63q90 0 121 -326l-38 -5q-18 195 -83 195q-26 0 -76 -64q-87 -109 -130 -154
q-106 -108 -243 -188q298 -118 616 -118h129zM310 859l-78 -123l-116 74l73 131zM1063 -17l-77 -128l-131 84l-64 -119l-126 92l75 128l122 -79l71 108z" />
    <glyph glyph-name="afii63961" unicode="&#xfbfe;&#xfee4;" horiz-adv-x="778" arabic-form="initial" 
d="M694 767q0 -19 -8 -42l-28 -83q-94 50 -160 50q-85 0 -144 -51t-59 -123q0 -73 47.5 -129.5t176.5 -135.5q24 -15 87 -54l-55 -170q-84 38 -205 90q-31 -43 -123 -82q-85 -37 -140 -37h-83v142h83q40 0 98.5 25t83.5 55q-43 105 -43 190q0 171 117 317q99 123 217 123
q50 0 94 -24.5t44 -60.5zM889 -97l-72 -131l-127 87l-72 -113l-117 83l74 127l122 -83l68 112z" />
    <glyph glyph-name="afii64046" unicode="&#xfeb7;&#xfee4;" horiz-adv-x="1285" arabic-form="initial" 
d="M1217 757q0 -121 -46 -198t-118 -77q-63 0 -170 97q-104 -170 -231 -170q-98 0 -145 109q-33 61 -79 61q-62 0 -106.5 -39t-44.5 -85q0 -80 106 -213q104 -8 153 -31q45 -21 87 -82q-20 -70 -77 -144l-34 22q-101 69 -158 69q-44 0 -129.5 -38t-141.5 -38h-83v142h83
q27 0 76 30q56 34 104 41q-36 100 -36 147q0 106 55 210q35 63 94 111t102 48q37 0 94 -73q65 -86 141 -86q152 0 208 226h16q22 -152 186 -152q39 0 39 28q0 20 -59 60l49 149q65 -38 65 -124zM776 1250l-74 -130l-120 74l72 136zM930 1040l-74 -128l-125 78l-64 -117
l-128 88l72 130l130 -80l65 109z" />
    <glyph glyph-name="afii64058" unicode="&#xfe8e;&#x64b;" horiz-adv-x="632" arabic-form="final" 
d="M701 0h-165q-200 0 -219 222q-11 118 -51 458q-36 296 -36 326q0 47 85 150l76 -855q14 -159 145 -159h165v-142zM468 1609q0 -78 -40 -102l-358 -203q4 49 17 70.5t61 48.5zM468 1437q0 -78 -40 -101l-358 -204q4 48 17 70.5t61 49.5z" />
    <glyph glyph-name="afii64059" unicode="&#x627;&#x64b;" horiz-adv-x="540" arabic-form="isolated" 
d="M389 294q0 -108 -63 -294l-24 6q15 94 15 129q0 87 -15 195l-60 458q-11 80 -11 119q0 93 79 249q2 -191 16 -299l49 -388q14 -113 14 -175zM468 1609q0 -78 -40 -102l-358 -203q4 49 17 70.5t61 48.5zM468 1437q0 -78 -40 -101l-358 -204q4 48 17 70.5t61 49.5z" />
    <glyph glyph-name="afii62945" unicode="&#xfedf;&#xfee4;&#xfea4;" horiz-adv-x="1148" arabic-form="initial" 
d="M1085 365l-41 -120q-56 5 -101 5q-203 0 -390 -65q-83 -29 -271 -121q-132 -64 -199 -64h-83v142h83q82 0 244 53q198 67 250 76l-505 89q6 26 14 47q20 48 50 67q236 191 551 283q-23 104 -77 298q-38 138 -38 166q0 47 59 117q48 -62 84 -122q-49 -52 -49 -94
q0 -48 78 -355q29 4 38 4q108 0 194 -127l-40 -131q-82 69 -128 94q-63 30 -148 30q-168 0 -420 -155q142 -45 274 -70q223 -45 571 -47z" />
    <glyph glyph-name="afii64184" unicode="&#xfedf;&#xfee0;&#xfeea;" horiz-adv-x="1270" arabic-form="isolated" 
d="M681 1308l-17 -37q-57 116 -94 162q-37 43 -116 90l-48 147q97 -17 159 -104q58 -79 116 -258zM879 1179q0 -65 -35.5 -116.5t-81.5 -51.5q-25 0 -79 16q-59 -104 -122 -104q-40 0 -66.5 34.5t-26.5 84.5q0 48 19 114l17 16q0 -116 62 -116q85 0 101 187l18 7
q21 -108 72 -108q81 0 81 174l19 7q22 -82 22 -144zM1191 245q0 -104 -47.5 -182t-112.5 -78q-101 0 -181 193q-63 -208 -238 -208q-143 0 -183 174q-106 -115 -165 -115q-78 0 -140.5 25t-62.5 58q0 28 49.5 114t79.5 113q102 94 184 123q-2 28 -2 49q0 31 44 131l52 -277
q22 -114 42 -152q37 -71 122 -71q104 0 188 125q-31 115 -63 232q-38 151 -38 237q0 53 61 130l21 -120q61 -351 123 -471q54 -105 153 -105q55 0 55 52q0 25 -60.5 265t-60.5 256q0 38 41 130l64 -243q75 -284 75 -385zM416 215l-30 173q-81 -37 -111 -61q-42 -33 -83 -107
q84 -28 138 -28q32 0 86 23z" />
    <glyph glyph-name="afii52400" unicode="&#x627;&#x6e4;" horiz-adv-x="567" 
d="M401 294q0 -108 -62 -294l-24 6q14 94 14 129q0 87 -14 195l-60 458q-11 80 -11 119q0 93 78 249q3 -191 17 -299l48 -388q14 -113 14 -175zM579 1316q-100 -110 -248 -110q-40 0 -116 21t-116 21q-35 0 -83 -25l-16 13q64 109 126 109q49 0 146 -26.5t147 -26.5
q51 0 146 38z" />
    <glyph glyph-name="afii62753" unicode="&#xfe8e;&#x6e4;" horiz-adv-x="644" arabic-form="final" 
d="M714 0h-165q-200 0 -220 222q-10 118 -51 458q-35 296 -35 326q0 47 85 150l75 -855q15 -159 146 -159h165v-142zM579 1316q-100 -110 -248 -110q-40 0 -116 21t-116 21q-35 0 -83 -25l-16 13q64 109 126 109q49 0 146 -26.5t147 -26.5q51 0 146 38z" />
    <glyph glyph-name="afii57411" unicode="&#x627;&#x674;" horiz-adv-x="399" 
d="M287 294q0 -108 -62 -294l-25 6q14 94 14 129q0 87 -14 195l-59 458q-11 80 -11 119q0 93 77 249q3 -191 18 -299l48 -388q14 -113 14 -175zM411 1331q-7 -34 -12 -44q-11 -28 -28 -33l-326 -94q11 46 34 65q20 17 85 41q-78 37 -78 92q0 24 21 51q100 139 192 139
q61 0 61 -65q0 -28 -35 -81q-59 40 -94 40q-34 0 -80 -40q95 -87 167 -87q31 0 93 16z" />
    <glyph glyph-name="afii62754" unicode="&#xfe8e;&#x674;" horiz-adv-x="533" arabic-form="final" 
d="M603 0h-165q-199 0 -220 222q-11 118 -50 458q-35 296 -35 326q0 47 84 150l76 -855q14 -159 145 -159h165v-142zM411 1331q-7 -34 -12 -44q-11 -28 -28 -33l-326 -94q11 46 34 65q20 17 85 41q-78 37 -78 92q0 24 21 51q100 139 192 139q61 0 61 -65q0 -28 -35 -81
q-59 40 -94 40q-34 0 -80 -40q95 -87 167 -87q31 0 93 16z" />
    <glyph glyph-name="afii57412" unicode="&#x648;&#x674;" horiz-adv-x="832" 
d="M777 178q0 -285 -139.5 -513.5t-313.5 -228.5q-108 0 -287 95l21 19q72 -28 143 -28q169 0 322 146q88 83 141 194q54 107 54 195q0 54 -23 94q-59 -80 -114 -80q-57 0 -99 43t-42 101q0 67 73 219q47 101 108 101q62 0 109 -107.5t47 -249.5zM633 292q-19 52 -62 52
q-41 0 -41 -43q0 -51 44 -51q42 0 59 42zM724 784q-7 -33 -12 -43q-10 -29 -29 -34l-325 -92q11 44 34 63q20 17 85 41q-78 38 -78 92q0 25 20 53q102 139 193 139q61 0 61 -67q0 -28 -34 -79q-60 38 -96 38q-33 0 -78 -38q93 -89 167 -89q29 0 92 16z" />
    <glyph glyph-name="afii62755" unicode="&#xfeee;&#x674;" horiz-adv-x="858" arabic-form="final" 
d="M928 0h-177q-58 -228 -134 -346q-138 -218 -323 -218q-101 0 -276 100l20 21q83 -33 140 -33q178 0 331.5 140t191.5 336h-38q-101 0 -165.5 33t-64.5 88q0 65 90 216q50 82 94 82q53 0 94 -82t44 -195h173v-142zM693 142q-37 129 -115 129q-17 0 -36 -16t-19 -40
q0 -30 45 -50q47 -23 125 -23zM781 628q-7 -34 -12 -45q-10 -28 -28 -32l-326 -94q11 46 35 64q20 18 84 41q-77 38 -77 93q0 24 20 51q102 140 193 140q61 0 61 -66q0 -29 -34 -81q-61 40 -96 40q-33 0 -79 -40q94 -88 168 -88q29 0 91 17z" />
    <glyph glyph-name="afii57413" unicode="&#x627;&#xe832;" horiz-adv-x="399" 
d="M263 294q0 -108 -62 -294l-24 6q14 94 14 129q0 87 -14 195l-60 458q-11 80 -11 119q0 93 78 249q2 -191 17 -299l48 -388q14 -113 14 -175zM386 -312q-7 -33 -12 -44q-11 -28 -28 -32l-326 -94q11 45 34 63q20 19 85 42q-78 38 -78 92q0 25 21 52q100 139 192 139
q61 0 61 -65q0 -31 -35 -81q-59 39 -94 39q-34 0 -80 -39q95 -89 167 -89q31 0 93 17z" />
    <glyph glyph-name="afii62756" unicode="&#xfe8e;&#xe832;" horiz-adv-x="491" arabic-form="final" 
d="M562 0h-165q-200 0 -220 222q-10 118 -51 458q-35 296 -35 326q0 47 85 150l75 -855q14 -159 146 -159h165v-142zM472 -312q-7 -33 -12 -44q-10 -28 -28 -32l-326 -94q11 45 34 63q21 19 85 42q-78 38 -78 92q0 25 21 52q102 139 192 139q62 0 62 -65q0 -31 -34 -81
q-61 39 -96 39q-34 0 -79 -39q94 -89 167 -89q30 0 92 17z" />
    <glyph glyph-name="afii57414" unicode="&#x64a;&#x674;" horiz-adv-x="1197" 
d="M1154 619q0 -19 -13.5 -67t-17.5 -48l-31 13q-32 12 -63 12q-88 0 -211 -78q-134 -84 -134 -165q0 -83 111 -113l208 -32q112 -18 112 -79q0 -48 -16 -123q-18 -85 -40 -113q-60 -75 -249 -159q-215 -95 -395 -95q-168 0 -268 78q-110 87 -110 249q0 223 155 431
q3 4 12 3q10 -1 7 -9q-104 -215 -104 -317q0 -142 100 -218q90 -68 236 -68q189 0 471 124q144 63 144 127q0 29 -232 59q-110 14 -156 48q-57 41 -57 134q0 102 171 294q159 178 276 178q24 0 55 -16q39 -20 39 -50zM414 637l-37 -83q-131 -23 -291 -88q12 24 28 51
q45 50 85 63l-50 32q-20 17 -20 46q0 47 49.5 104t95.5 57q56 0 56 -47q0 -49 -19 -73q-8 -10 -14 4q-19 41 -66 41q-36 0 -36 -35q0 -31 41 -60q38 -28 70 -28q18 0 108 16z" />
    <glyph glyph-name="afii62759" unicode="&#xfef2;&#x674;" horiz-adv-x="1084" arabic-form="final" 
d="M1122 -16h-139q-43 0 -116 -21q-89 -26 -89 -56q0 -10 19 -16q70 -14 172 -35t102 -55q0 -163 -260 -296q-227 -116 -408 -116q-157 0 -250 59q-114 72 -111 219q2 83 46 191q41 101 97 172q9 11 17 7q8 -5 2 -16q-94 -166 -94 -272q0 -129 106 -178q73 -34 225 -34
q184 0 373 80q162 69 162 102q0 12 -152.5 43t-152.5 76q0 59 97 166q109 121 213 121h141v-141zM407 323l-37 -83q-131 -23 -291 -88q12 24 28 50q45 51 85 64l-50 32q-20 17 -20 45q0 47 49.5 104t95.5 57q56 0 56 -47q0 -48 -19 -73q-7 -10 -14 5q-18 40 -66 40
q-36 0 -36 -34q0 -31 39 -59.5t72 -28.5q18 0 108 16z" />
    <glyph glyph-name="afii62834" unicode="&#xfedf;&#xfe82;" horiz-adv-x="1101" arabic-form="isolated" 
d="M1011 1068q-78 -69 -78 -232q0 -384 -114 -638q55 -111 55 -202q0 -157 -202 -157h-239v143h25q93 0 172 61q72 55 110 143q-108 195 -191 305l-113 151q-75 94 -144 157l-45 -43q-55 53 -111 105q-50 55 -50 118t51 162q175 -145 267 -262q25 -28 188 -265
q60 -86 197 -340q87 185 87 439q0 43 -9 170t-9 173q0 79 58 146zM810 18q0 42 -37 101q-45 -84 -106 -137h25q118 0 118 36zM579 1380q-100 -110 -248 -110q-40 0 -116 21t-116 21q-35 0 -83 -24l-16 13q64 108 126 108q49 0 146 -25.5t147 -25.5q51 0 146 36z" />
    <glyph glyph-name="afii62835" unicode="&#xfee0;&#xfe82;" horiz-adv-x="1396" arabic-form="final" 
d="M1466 0h-166q-97 0 -135 101q-20 53 -55 275l-59 388q-58 -364 -140 -556q-77 -177 -215 -252q-110 -60 -384 -101v27q450 167 562 392q-33 190 -290 389q-94 73 -120 73q-17 0 -34 -29t-32 -29q-26 0 -158 79q-69 41 -69 145q0 145 53 145q62 0 233 -120
q165 -118 272 -235q141 -154 178 -346q101 275 101 631q0 130 58 225q5 -56 14 -141q29 -262 87 -681q22 -123 45 -172q31 -66 88 -66h166v-142zM579 1380q-100 -110 -248 -110q-40 0 -116 21t-116 21q-35 0 -83 -24l-16 13q64 108 126 108q49 0 146 -25.5t147 -25.5
q51 0 146 36z" />
    <glyph glyph-name="afii62836" unicode="&#xfedf;&#xfe84;" horiz-adv-x="1089" arabic-form="isolated" 
d="M997 1068q-77 -69 -77 -232q0 -384 -114 -638q56 -111 56 -202q0 -157 -203 -157h-239v143h25q93 0 173 61q71 55 110 143q-108 195 -192 305l-113 151q-75 94 -143 157l-47 -43q-55 53 -111 105q-49 55 -49 118t51 162q175 -145 268 -262q24 -28 187 -265
q60 -86 196 -340q89 185 89 439q0 43 -9 170t-9 173q0 79 57 146zM797 18q0 42 -37 101q-45 -84 -106 -137h25q118 0 118 36zM437 1339q-16 -70 -39 -77l-327 -93q11 45 32 63t87 42q-78 35 -78 91q0 21 20 53q104 140 193 140q63 0 63 -67q0 -28 -37 -81q-57 40 -95 40
q-33 0 -79 -40q96 -88 167 -88q28 0 93 17z" />
    <glyph glyph-name="afii62837" unicode="&#xfee0;&#xfe84;" horiz-adv-x="1258" arabic-form="final" 
d="M1329 0h-166q-97 0 -137 101q-20 53 -54 275l-59 388q-58 -364 -140 -556q-76 -177 -215 -252q-109 -60 -385 -101v27q451 167 563 392q-32 190 -290 389q-94 73 -121 73q-16 0 -33 -29t-31 -29q-27 0 -159 79q-69 41 -69 145q0 145 53 145q63 0 232 -120
q166 -118 273 -235q142 -154 177 -346q102 275 102 631q0 130 58 225q6 -56 14 -141q29 -262 86 -681q24 -123 46 -172q30 -66 89 -66h166v-142zM443 1339q-15 -70 -38 -77l-328 -93q11 45 32.5 63t87.5 42q-78 35 -78 91q0 21 19 53q105 140 194 140q62 0 62 -67
q0 -28 -35 -81q-58 40 -97 40q-32 0 -78 -40q96 -88 168 -88q27 0 91 17z" />
    <glyph glyph-name="afii62838" unicode="&#xfedf;&#xfe88;" horiz-adv-x="1088" arabic-form="isolated" 
d="M997 1068q-77 -69 -77 -232q0 -384 -114 -638q56 -111 56 -202q0 -157 -204 -157h-238v143h25q93 0 172 61q72 55 110 143q-107 195 -191 305l-114 151q-74 94 -142 157l-47 -43q-55 53 -111 105q-49 55 -49 118t50 162q175 -145 269 -262q23 -28 187 -265
q59 -86 196 -340q89 185 89 439q0 43 -9.5 170t-9.5 173q0 79 58 146zM796 18q0 42 -36 101q-46 -84 -106 -137h24q118 0 118 36zM829 -442q-7 -33 -12 -43q-10 -28 -28 -33l-326 -94q11 45 35 64q20 17 84 42q-77 37 -77 91q0 25 20 52q102 139 192 139q62 0 62 -66
q0 -29 -34 -80q-61 39 -96 39q-33 0 -79 -39q94 -88 168 -88q29 0 91 16z" />
    <glyph glyph-name="afii62839" unicode="&#xfee0;&#xfe88;" horiz-adv-x="1258" arabic-form="final" 
d="M1329 0h-166q-97 0 -137 101q-20 53 -54 275l-59 388q-58 -364 -140 -556q-76 -177 -215 -252q-109 -60 -385 -101v27q451 167 563 392q-32 190 -290 389q-94 73 -121 73q-16 0 -33 -29t-31 -29q-27 0 -159 79q-69 41 -69 145q0 145 53 145q63 0 232 -120
q166 -118 273 -235q142 -154 177 -346q102 275 102 631q0 130 58 225q6 -56 14 -141q29 -262 86 -681q24 -123 46 -172q30 -66 89 -66h166v-142zM837 -442q-7 -33 -12 -43q-10 -28 -29 -33l-325 -94q11 45 34 64q20 17 85 42q-78 37 -78 91q0 25 20 52q102 139 193 139
q60 0 60 -66q0 -29 -33 -80q-60 39 -96 39q-33 0 -79 -39q94 -88 168 -88q29 0 92 16z" />
    <glyph glyph-name="afii62840" unicode="&#xfedf;&#xfe8e;" horiz-adv-x="1019" arabic-form="isolated" 
d="M973 1132q-62 -49 -62 -110q0 -247 -29 -406q-25 -136 -90 -295q10 -29 28 -87q19 -64 19 -138q0 -23 -23 -65t-42 -51q-45 -21 -170 -23q-104 -2 -184 7q-1 2 -1 11v117h46q76 0 166 91q78 79 78 108q-63 136 -175 296q-129 184 -259 306q-15 -11 -48 -51
q-30 18 -109 103q-84 90 -84 111q0 17 22 91q24 80 38 85q178 -116 380 -396q166 -230 277 -465q90 219 90 481q0 173 -41 311l85 105zM776 110q-7 49 -33 103q-40 -60 -116 -114q25 -1 46 -1q68 0 103 12z" />
    <glyph glyph-name="afii62841" unicode="&#xfee0;&#xfe8e;" horiz-adv-x="1252" arabic-form="final" 
d="M1322 1h-83q-125 0 -176 118q-20 45 -59 260q-14 74 -41 292q-5 37 -9 39q-5 0 -11 -39q-33 -225 -82 -362q-92 -259 -259 -359q-36 -22 -165 -48q-125 -25 -174 -23q-26 1 -26 11q0 8 19 14q211 68 376 188q145 105 145 197q0 90 -153.5 249t-243.5 159q-7 0 -37 -64
q-32 0 -119 50q-98 56 -98 96q0 204 26 204q73 0 274 -153q180 -137 247 -219q98 -120 140 -299q109 318 103 751q7 11 65 92q8 11 9 -4q16 -227 26 -332q11 -111 45 -366q42 -311 182 -311h79v-141z" />
    <glyph glyph-name="glyph1025" unicode="&#xfef7;&#x64e;" horiz-adv-x="949" 
d="M957 1132q-62 -49 -62 -110q0 -247 -29 -406q-25 -136 -90 -295q10 -29 28 -87q19 -64 19 -138q0 -23 -23 -65t-42 -51q-45 -21 -170 -23q-104 -2 -184 7q-1 2 -1 11v117h46q76 0 166 91q78 79 78 108q-63 136 -175 296q-129 184 -259 306q-15 -11 -48 -51
q-30 18 -109 103q-84 90 -84 111q0 17 22 91q24 80 38 85q178 -116 380 -396q166 -230 277 -465q90 219 90 481q0 173 -41 311l85 105zM760 110q-7 49 -33 103q-40 -60 -116 -114q25 -1 46 -1q68 0 103 12zM-208 1547q-13 0 -13 29q0 30 15 36l293 124q11 0 14 -3.5t3 -20.5
q0 -32 -17 -39zM-151 1056l9 50q54 40 89 83q-115 7 -115 107q0 68 46 134.5t107 66.5q94 0 94 -87q0 -28 -15 -57q-85 63 -124 63q-59 0 -59 -50q0 -42 61.5 -80t108.5 -38q42 0 104 25v-86z" />
    <glyph glyph-name="glyph1026" unicode="&#xfef7;&#x64b;" horiz-adv-x="949" 
d="M938 1132q-62 -49 -62 -110q0 -247 -29 -406q-25 -136 -90 -295q10 -29 28 -87q19 -64 19 -138q0 -23 -23 -65t-42 -51q-45 -21 -170 -23q-104 -2 -184 7q-1 2 -1 11v117h46q76 0 166 91q78 79 78 108q-63 136 -175 296q-129 184 -259 306q-15 -11 -48 -51
q-30 18 -109 103q-84 90 -84 111q0 17 22 91q24 80 38 85q178 -116 380 -396q166 -230 277 -465q90 219 90 481q0 173 -41 311l85 105zM741 110q-7 49 -33 103q-40 -60 -116 -114q25 -1 46 -1q68 0 103 12zM-287 1570q-14 0 -14 30t16 36l294 124q10 0 13 -4t3 -22
q0 -34 -16 -41zM-287 1452q-13 0 -13 30t15 36l294 124q10 0 13 -4t3 -20q0 -32 -16 -40zM-230 1008l10 52q53 38 88 83q-115 7 -115 106q0 68 46 134t107 66q94 0 94 -87q0 -28 -15 -56q-85 63 -124 63q-59 0 -59 -51q0 -41 62 -79.5t108 -38.5q42 0 104 26v-86z" />
    <glyph glyph-name="glyph1034" unicode="&#xfef7;&#x652;" horiz-adv-x="949" 
d="M955 1132q-62 -49 -62 -110q0 -247 -29 -406q-25 -136 -90 -295q10 -29 28 -87q19 -64 19 -138q0 -23 -23 -65t-42 -51q-45 -21 -170 -23q-104 -2 -184 7q-1 2 -1 11v117h46q76 0 166 91q78 79 78 108q-63 136 -175 296q-129 184 -259 306q-15 -11 -48 -51
q-30 18 -109 103q-84 90 -84 111q0 17 22 91q24 80 38 85q178 -116 380 -396q166 -230 277 -465q90 219 90 481q0 173 -41 311l85 105zM758 110q-7 49 -33 103q-40 -60 -116 -114q25 -1 46 -1q68 0 103 12zM28 1578q0 -77 -61.5 -126.5t-122.5 -49.5q-55 0 -83 43t-28 97
q0 81 42 142t115 61q66 0 102 -49.5t36 -117.5zM-224 1578q0 -58 102 -58q86 0 86 32q0 23 -42.5 63.5t-84.5 40.5q-61 0 -61 -78zM-206 928l9 50q54 40 89 83q-116 7 -116 106q0 69 46.5 135t106.5 66q94 0 94 -86q0 -27 -14 -58q-86 64 -124 64q-60 0 -60 -52
q0 -41 62 -79.5t109 -38.5q42 0 104 27v-86z" />
    <glyph glyph-name="glyph1035" unicode="&#xfef7;&#x64f;" horiz-adv-x="949" 
d="M913 1132q-62 -49 -62 -110q0 -247 -29 -406q-25 -136 -90 -295q10 -29 28 -87q19 -64 19 -138q0 -23 -23 -65t-42 -51q-45 -21 -170 -23q-104 -2 -184 7q-1 2 -1 11v117h46q76 0 166 91q78 79 78 108q-63 136 -175 296q-129 184 -259 306q-15 -11 -48 -51
q-30 18 -109 103q-84 90 -84 111q0 17 22 91q24 80 38 85q178 -116 380 -396q166 -230 277 -465q90 219 90 481q0 173 -41 311l85 105zM716 110q-7 49 -33 103q-40 -60 -116 -114q25 -1 46 -1q68 0 103 12zM-236 965l10 51q56 39 90 82q-116 8 -116 107q0 69 46 135t106 66
q95 0 95 -87q0 -28 -15 -56q-86 62 -123 62q-61 0 -61 -50q0 -42 62 -80t110 -38q42 0 104 25v-86zM35 1487q0 -16 -3 -33t-7 -35l-78 47q-47 -51 -63 -68q-71 -69 -118 -69h-69q49 24 117 77q61 48 92 86q-29 17 -45 37q-19 25 -19 54q0 63 36.5 110t79.5 47q24 0 44 -26
t20 -63q0 -19 -5.5 -38.5t-24.5 -70.5q16 -14 32 -26q11 -10 11 -29zM-37 1593q0 26 -18 47.5t-34 21.5q-10 0 -15 -6.5t-5 -13.5q0 -20 23 -43l41 -33q8 19 8 27z" />
    <glyph glyph-name="glyph1036" unicode="&#xfef7;&#x64c;" horiz-adv-x="949" 
d="M930 1132q-62 -49 -62 -110q0 -247 -29 -406q-25 -136 -90 -295q10 -29 28 -87q19 -64 19 -138q0 -23 -23 -65t-42 -51q-45 -21 -170 -23q-104 -2 -184 7q-1 2 -1 11v117h46q76 0 166 91q78 79 78 108q-63 136 -175 296q-129 184 -259 306q-15 -11 -48 -51
q-30 18 -109 103q-84 90 -84 111q0 17 22 91q24 80 38 85q178 -116 380 -396q166 -230 277 -465q90 219 90 481q0 173 -41 311l85 105zM733 110q-7 49 -33 103q-40 -60 -116 -114q25 -1 46 -1q68 0 103 12zM-264 1278v14q8 5 37 25q28 44 28 113q0 43 -25 43q-11 0 -35 -21
q-25 -22 -31 -22q-9 0 -9 9q1 24 42 63t74 39q50 0 50 -62q0 -52 -43 -141q88 41 149 128q-68 38 -68 109q2 61 55.5 128.5t94.5 67.5q29 0 48 -33t19 -75q0 -73 -45 -138q56 -27 56 -59l-4 -55q-40 0 -120 37q-43 -65 -113.5 -121t-123.5 -56q-24 0 -36 7zM39 1543
q22 38 22 76q0 69 -52 69q-43 0 -43 -55q0 -65 73 -90zM-134 820l9 50q56 40 90 83q-116 7 -116 107q0 70 46.5 135.5t106.5 65.5q94 0 94 -87q0 -27 -14 -57q-86 63 -124 63q-60 0 -60 -50q0 -42 62 -80t109 -38q41 0 104 25v-86z" />
    <glyph glyph-name="glyph1046" unicode="&#xfef9;&#x650;" horiz-adv-x="948" 
d="M1095 1132q-62 -49 -62 -110q0 -247 -29 -406q-25 -136 -90 -295q10 -29 28 -87q19 -64 19 -138q0 -23 -23 -65t-42 -51q-45 -21 -170 -23q-104 -2 -184 7q-1 2 -1 11v117h46q76 0 166 91q78 79 78 108q-63 136 -175 296q-129 184 -259 306q-15 -11 -48 -51
q-30 18 -109 103q-84 90 -84 111q0 17 22 91q24 80 38 85q178 -116 380 -396q166 -230 277 -465q90 219 90 481q0 173 -41 311l85 105zM898 110q-7 49 -33 103q-40 -60 -116 -114q25 -1 46 -1q68 0 103 12zM484 -661l10 50q56 39 90 83q-116 7 -116 106q0 68 46 134t106 66
q95 0 95 -85q0 -29 -15 -57q-86 63 -123 63q-61 0 -61 -52q1 -42 62.5 -80t109.5 -38q43 0 104 26v-85zM510 -831h-3q-10 0 -10 28q0 31 15 38l294 124q10 0 13 -5t3 -21q0 -35 -16 -41z" />
    <glyph glyph-name="glyph1047" unicode="&#xfef9;&#x64d;" horiz-adv-x="943" 
d="M1095 1132q-62 -49 -62 -110q0 -247 -29 -406q-25 -136 -90 -295q10 -29 28 -87q19 -64 19 -138q0 -23 -23 -65t-42 -51q-45 -21 -170 -23q-104 -2 -184 7q-1 2 -1 11v117h46q76 0 166 91q78 79 78 108q-63 136 -175 296q-129 184 -259 306q-15 -11 -48 -51
q-30 18 -109 103q-84 90 -84 111q0 17 22 91q24 80 38 85q178 -116 380 -396q166 -230 277 -465q90 219 90 481q0 173 -41 311l85 105zM898 110q-7 49 -33 103q-40 -60 -116 -114q25 -1 46 -1q68 0 103 12zM342 -580l10 52q56 38 90 82q-116 7 -116 106q0 68 46 134.5
t106 66.5q95 0 95 -87q0 -28 -15 -56q-86 62 -123 62q-61 0 -61 -50q0 -43 62 -80.5t110 -37.5q43 0 104 26v-87zM359 -717q-13 0 -13 29t15 36l293 124q11 0 14 -4.5t3 -22.5q0 -33 -17 -40zM359 -847q-13 0 -13 29t15 35l293 124q11 0 14 -3.5t3 -19.5q0 -32 -17 -39z" />
    <glyph glyph-name="glyph1051" unicode="&#xfef8;&#x64e;" horiz-adv-x="1063" 
d="M1349 1h-83q-125 0 -176 118q-20 45 -59 260q-14 74 -41 292q-5 37 -9 39q-5 0 -11 -39q-33 -225 -82 -362q-92 -259 -259 -359q-36 -22 -165 -48q-125 -25 -174 -23q-26 1 -26 11q0 8 19 14q211 68 376 188q145 105 145 197q0 90 -153.5 249t-243.5 159q-7 0 -37 -64
q-32 0 -119 50q-98 56 -98 96q0 204 26 204q73 0 274 -153q180 -137 247 -219q98 -120 140 -299q109 318 103 751q7 11 65 92q8 11 9 -4q16 -227 26 -332q11 -111 45 -366q42 -311 182 -311h79v-141zM-128 1429q-13 0 -13 29q0 30 15 36l293 124q11 0 14 -3.5t3 -20.5
q0 -32 -17 -39zM-71 938l9 50q54 40 89 83q-115 7 -115 107q0 68 46 134.5t107 66.5q94 0 94 -87q0 -28 -15 -57q-85 63 -124 63q-59 0 -59 -50q0 -42 61.5 -80t108.5 -38q42 0 104 25v-86z" />
    <glyph glyph-name="glyph1052" unicode="&#xfef8;&#x64b;" horiz-adv-x="1063" 
d="M1342 1h-83q-125 0 -176 118q-20 45 -59 260q-14 74 -41 292q-5 37 -9 39q-5 0 -11 -39q-33 -225 -82 -362q-92 -259 -259 -359q-36 -22 -165 -48q-125 -25 -174 -23q-26 1 -26 11q0 8 19 14q211 68 376 188q145 105 145 197q0 90 -153.5 249t-243.5 159q-7 0 -37 -64
q-32 0 -119 50q-98 56 -98 96q0 204 26 204q73 0 274 -153q180 -137 247 -219q98 -120 140 -299q109 318 103 751q7 11 65 92q8 11 9 -4q16 -227 26 -332q11 -111 45 -366q42 -311 182 -311h79v-141zM-185 1452q-14 0 -14 30t16 36l294 124q10 0 13 -4t3 -22q0 -34 -16 -41z
M-185 1334q-13 0 -13 30t15 36l294 124q10 0 13 -4t3 -20q0 -32 -16 -40zM-128 890l10 52q53 38 88 83q-115 7 -115 106q0 68 46 134t107 66q94 0 94 -87q0 -28 -15 -56q-85 63 -124 63q-59 0 -59 -51q0 -41 62 -79.5t108 -38.5q42 0 104 26v-86z" />
    <glyph glyph-name="glyph1060" unicode="&#xfef8;&#x652;" horiz-adv-x="1063" 
d="M1362 1h-83q-125 0 -176 118q-20 45 -59 260q-14 74 -41 292q-5 37 -9 39q-5 0 -11 -39q-33 -225 -82 -362q-92 -259 -259 -359q-36 -22 -165 -48q-125 -25 -174 -23q-26 1 -26 11q0 8 19 14q211 68 376 188q145 105 145 197q0 90 -153.5 249t-243.5 159q-7 0 -37 -64
q-32 0 -119 50q-98 56 -98 96q0 204 26 204q73 0 274 -153q180 -137 247 -219q98 -120 140 -299q109 318 103 751q7 11 65 92q8 11 9 -4q16 -227 26 -332q11 -111 45 -366q42 -311 182 -311h79v-141zM131 1574q0 -77 -61.5 -126.5t-122.5 -49.5q-55 0 -83 43t-28 97
q0 81 42 142t115 61q66 0 102 -49.5t36 -117.5zM-121 1574q0 -58 102 -58q86 0 86 32q0 23 -42.5 63.5t-84.5 40.5q-61 0 -61 -78zM-103 924l9 50q54 40 89 83q-116 7 -116 106q0 69 46.5 135t106.5 66q94 0 94 -86q0 -27 -14 -58q-86 64 -124 64q-60 0 -60 -52
q0 -41 62 -79.5t109 -38.5q42 0 104 27v-86z" />
    <glyph glyph-name="glyph1061" unicode="&#xfef8;&#x64f;" horiz-adv-x="1055" 
d="M1278 1h-83q-125 0 -176 118q-20 45 -59 260q-14 74 -41 292q-5 37 -9 39q-5 0 -11 -39q-33 -225 -82 -362q-92 -259 -259 -359q-36 -22 -165 -48q-125 -25 -174 -23q-26 1 -26 11q0 8 19 14q211 68 376 188q145 105 145 197q0 90 -153.5 249t-243.5 159q-7 0 -37 -64
q-32 0 -119 50q-98 56 -98 96q0 204 26 204q73 0 274 -153q180 -137 247 -219q98 -120 140 -299q109 318 103 751q7 11 65 92q8 11 9 -4q16 -227 26 -332q11 -111 45 -366q42 -311 182 -311h79v-141zM-203 969l10 51q56 39 90 82q-116 8 -116 107q0 69 46 135t106 66
q95 0 95 -87q0 -28 -15 -56q-86 62 -123 62q-61 0 -61 -50q0 -42 62 -80t110 -38q42 0 104 25v-86zM68 1491q0 -16 -3 -33t-7 -35l-78 47q-47 -51 -63 -68q-71 -69 -118 -69h-69q49 24 117 77q61 48 92 86q-29 17 -45 37q-19 25 -19 54q0 63 36.5 110t79.5 47q24 0 44 -26
t20 -63q0 -19 -5.5 -38.5t-24.5 -70.5q16 -14 32 -26q11 -10 11 -29zM-4 1597q0 26 -18 47.5t-34 21.5q-10 0 -15 -6.5t-5 -13.5q0 -20 23 -43l41 -33q8 19 8 27z" />
    <glyph glyph-name="glyph1062" unicode="&#xfef8;&#x64c;" horiz-adv-x="1063" 
d="M1277 1h-83q-125 0 -176 118q-20 45 -59 260q-14 74 -41 292q-5 37 -9 39q-5 0 -11 -39q-33 -225 -82 -362q-92 -259 -259 -359q-36 -22 -165 -48q-125 -25 -174 -23q-26 1 -26 11q0 8 19 14q211 68 376 188q145 105 145 197q0 90 -153.5 249t-243.5 159q-7 0 -37 -64
q-32 0 -119 50q-98 56 -98 96q0 204 26 204q73 0 274 -153q180 -137 247 -219q98 -120 140 -299q109 318 103 751q7 11 65 92q8 11 9 -4q16 -227 26 -332q11 -111 45 -366q42 -311 182 -311h79v-141zM-247 1297v14q8 5 37 25q28 44 28 113q0 43 -25 43q-11 0 -35 -21
q-25 -22 -31 -22q-9 0 -9 9q1 24 42 63t74 39q50 0 50 -62q0 -52 -43 -141q88 41 149 128q-68 38 -68 109q2 61 55.5 128.5t94.5 67.5q29 0 48 -33t19 -75q0 -73 -45 -138q56 -27 56 -59l-4 -55q-40 0 -120 37q-43 -65 -113.5 -121t-123.5 -56q-24 0 -36 7zM56 1562
q22 38 22 76q0 69 -52 69q-43 0 -43 -55q0 -65 73 -90zM-117 839l9 50q56 40 90 83q-116 7 -116 107q0 70 46.5 135.5t106.5 65.5q94 0 94 -87q0 -27 -14 -57q-86 63 -124 63q-60 0 -60 -50q0 -42 62 -80t109 -38q41 0 104 25v-86z" />
    <glyph glyph-name="glyph1072" unicode="&#xfefa;&#x650;" horiz-adv-x="1253" 
d="M1443 1h-83q-125 0 -176 118q-20 45 -59 260q-14 74 -41 292q-5 37 -9 39q-5 0 -11 -39q-33 -225 -82 -362q-92 -259 -259 -359q-36 -22 -165 -48q-125 -25 -174 -23q-26 1 -26 11q0 8 19 14q211 68 376 188q145 105 145 197q0 90 -153.5 249t-243.5 159q-7 0 -37 -64
q-32 0 -119 50q-98 56 -98 96q0 204 26 204q73 0 274 -153q180 -137 247 -219q98 -120 140 -299q109 318 103 751q7 11 65 92q8 11 9 -4q16 -227 26 -332q11 -111 45 -366q42 -311 182 -311h79v-141zM83 -630l10 50q56 39 90 83q-116 7 -116 106q0 68 46 134t106 66
q95 0 95 -85q0 -29 -15 -57q-86 63 -123 63q-61 0 -61 -52q1 -42 62.5 -80t109.5 -38q43 0 104 26v-85zM109 -800h-3q-10 0 -10 28q0 31 15 38l294 124q10 0 13 -5t3 -21q0 -35 -16 -41z" />
    <glyph glyph-name="glyph1073" unicode="&#xfefa;&#x64d;" horiz-adv-x="1255" 
d="M1440 1h-83q-125 0 -176 118q-20 45 -59 260q-14 74 -41 292q-5 37 -9 39q-5 0 -11 -39q-33 -225 -82 -362q-92 -259 -259 -359q-36 -22 -165 -48q-125 -25 -174 -23q-26 1 -26 11q0 8 19 14q211 68 376 188q145 105 145 197q0 90 -153.5 249t-243.5 159q-7 0 -37 -64
q-32 0 -119 50q-98 56 -98 96q0 204 26 204q73 0 274 -153q180 -137 247 -219q98 -120 140 -299q109 318 103 751q7 11 65 92q8 11 9 -4q16 -227 26 -332q11 -111 45 -366q42 -311 182 -311h79v-141zM98 -564l10 52q56 38 90 82q-116 7 -116 106q0 68 46 134.5t106 66.5
q95 0 95 -87q0 -28 -15 -56q-86 62 -123 62q-61 0 -61 -50q0 -43 62 -80.5t110 -37.5q43 0 104 26v-87zM115 -701q-13 0 -13 29t15 36l293 124q11 0 14 -4.5t3 -22.5q0 -33 -17 -40zM115 -831q-13 0 -13 29t15 35l293 124q11 0 14 -3.5t3 -19.5q0 -32 -17 -39z" />
    <glyph glyph-name="glyph1077" unicode="&#x623;&#x64e;" horiz-adv-x="658" 
d="M145 1645q-13 0 -13 29q0 30 15 37l293 124q17 0 17 -25q0 -31 -17 -38zM202 1202l9 51q54 39 89 83q-115 7 -115 106q0 68 46 134t107 66q94 0 94 -86q0 -29 -15 -57q-85 63 -124 63q-59 0 -59 -51q0 -41 61.5 -79.5t108.5 -38.5q11 0 104 26v-86zM356 -83
q0 275 -22 565q-22 306 -22 467l120 196l-3 -182q0 -186 6 -326q9 -220 9 -326q0 -344 -88 -394z" />
    <glyph glyph-name="glyph1078" unicode="&#x623;&#x64b;" horiz-adv-x="656" 
d="M167 1639q-13 0 -13 29q0 30 15 37l293 124q17 0 17 -26q0 -34 -17 -41zM167 1486q-13 0 -13 28q0 30 15 38l293 124q17 0 17 -26q0 -30 -17 -37zM211 1065l11 51q54 40 89 83q-116 7 -116 105q0 69 46 135t107 66q93 0 93 -86q0 -28 -14 -56q-85 62 -123 62
q-60 0 -60 -51q0 -41 62 -79.5t109 -38.5q10 0 104 26v-85zM367 -102q0 275 -23 565q-23 306 -23 467l120 197l-3 -184q0 -185 6 -325q10 -219 10 -326q0 -345 -87 -394z" />
    <glyph glyph-name="glyph1086" unicode="&#x623;&#x652;" horiz-adv-x="676" 
d="M351 1664q0 -77 -61.5 -126.5t-122.5 -49.5q-50 0 -80.5 40t-30.5 100q0 79 41.5 141t115.5 62q65 0 101.5 -49.5t36.5 -117.5zM99 1664q0 -58 102 -58q86 0 86 31q0 22 -42.5 63t-84.5 41q-61 0 -61 -77zM265 1079l9 50q54 40 90 83q-115 7 -115 106q0 68 45.5 134
t106.5 66q94 0 94 -86q0 -29 -14 -57q-86 63 -124 63q-60 0 -60 -51q0 -41 62 -79.5t108 -38.5q12 0 104 26v-86zM410 -81q0 275 -22 565q-22 306 -22 467l120 197l-4 -183q0 -185 6 -326q10 -219 10 -326q0 -344 -88 -394z" />
    <glyph glyph-name="glyph1087" unicode="&#x623;&#x64f;" horiz-adv-x="683" 
d="M158 1435v12q132 59 185 134q-59 36 -59 82q0 43 41 101.5t77 58.5q21 0 37 -28t16 -61q0 -47 -32 -107q47 -23 47 -48v-48q-17 0 -50 14q-41 20 -48 21q-111 -140 -185 -140q-16 0 -29 9zM395 1642q15 28 15 57q0 57 -38 57q-35 0 -35 -45q0 -59 58 -69zM272 1141l9 39
q42 33 71 67q-92 6 -92 84q0 55 36 107.5t84 52.5q76 0 76 -69q0 -23 -13 -45q-68 49 -97 49q-48 0 -48 -40q0 -33 49 -63.5t86 -30.5q9 0 83 20v-67zM364 -83q0 275 -23 565q-23 306 -23 467l120 196l-3 -182q0 -186 6 -326q9 -220 9 -326q0 -344 -86 -394z" />
    <glyph glyph-name="glyph1088" unicode="&#x623;&#x64c;" horiz-adv-x="631" 
d="M107 1444v11q7 3 29 19q23 33 23 89q0 34 -22 34q-8 0 -27 -17t-23 -17q-7 0 -7 7q0 19 32 49t59 30q39 0 39 -47q0 -42 -34 -111q68 30 118 101q-54 26 -54 85q0 45 42.5 99t74.5 54q23 0 37.5 -26.5t14.5 -58.5q0 -58 -34 -109q44 -22 44 -44l-4 -45q-31 0 -94 29
q-98 -138 -187 -138q-18 0 -27 6zM344 1651q16 30 16 60q0 53 -39 53q-33 0 -33 -43q0 -50 56 -70zM248 1100l10 39q42 32 69 66q-92 4 -92 82q0 54 36.5 105.5t83.5 51.5q74 0 74 -67q0 -23 -10 -44q-68 48 -98 48q-47 0 -47 -40q0 -32 48.5 -62t85.5 -30q8 0 81 20v-67z
M331 -93q0 276 -22 565q-22 306 -22 468l120 196l-3 -183q0 -185 5 -325q10 -220 10 -326q0 -345 -88 -395z" />
    <glyph glyph-name="glyph1098" unicode="&#x625;&#x650;" horiz-adv-x="291" 
d="M290 282q1 -14 1 -48q0 -156 -40 -238q-5 -11 -13 -9q-7 2 -7 16q1 125 -27 421q-22 228 -43 592q24 51 72 141q7 12 10 13q4 -10 2 -64q-2 -45 -2 -60q0 -84 47 -764zM12 -556l10 50q56 39 90 83q-116 7 -116 106q0 68 46 134t106 66q95 0 95 -85q0 -29 -15 -57
q-86 63 -123 63q-61 0 -61 -52q1 -42 62.5 -80t109.5 -38q43 0 104 26v-85zM38 -726h-3q-10 0 -10 28q0 31 15 38l294 124q10 0 13 -5t3 -21q0 -35 -16 -41z" />
    <glyph glyph-name="glyph1099" unicode="&#x625;&#x64d;" horiz-adv-x="303" 
d="M286 282q1 -14 1 -48q0 -156 -40 -238q-5 -11 -13 -9q-7 2 -7 16q1 125 -27 421q-22 228 -43 592q24 51 72 141q7 12 10 13q4 -10 2 -64q-2 -45 -2 -60q0 -84 47 -764zM25 -490l10 52q56 38 90 82q-116 7 -116 106q0 68 46 134.5t106 66.5q95 0 95 -87q0 -28 -15 -56
q-86 62 -123 62q-61 0 -61 -50q0 -43 62 -80.5t110 -37.5q43 0 104 26v-87zM42 -627q-13 0 -13 29t15 36l293 124q11 0 14 -4.5t3 -22.5q0 -33 -17 -40zM42 -757q-13 0 -13 29t15 35l293 124q11 0 14 -3.5t3 -19.5q0 -32 -17 -39z" />
    <glyph glyph-name="glyph1120" unicode="&#xfe84;&#x64e;" horiz-adv-x="555" 
d="M43 1637q-13 0 -13 28q0 30 15 37l293 124q17 0 17 -24q0 -32 -17 -39zM118 1165l9 51q54 40 90 82q-116 7 -116 107q0 69 45.5 135t106.5 66q95 0 95 -87q0 -28 -14 -56q-87 62 -124 62q-61 0 -61 -50q0 -41 62 -79.5t109 -38.5q11 0 104 25v-86zM573 0h-166
q-198 0 -219 222q-11 118 -51 458q-35 296 -35 326q0 47 85 150l75 -855q15 -159 145 -159h166v-142z" />
    <glyph glyph-name="glyph1121" unicode="&#xfe84;&#x64b;" horiz-adv-x="547" 
d="M27 1634q-11 0 -11 25q0 28 12 34l231 113q13 0 13 -24q0 -30 -13 -36zM35 1513q-11 0 -11 26q0 28 12 34l231 113q13 0 13 -23q0 -28 -13 -34zM78 1128l7 45q43 38 70 76q-91 6 -91 97q0 62 36 122t84 60q75 0 75 -78q0 -25 -12 -51q-67 57 -97 57q-48 0 -48 -47
q0 -37 49.5 -72t86.5 -35q8 0 82 24v-79zM576 0h-166q-199 0 -220 222q-10 118 -50 458q-35 296 -35 326q0 47 84 150l76 -855q14 -159 145 -159h166v-142z" />
    <glyph glyph-name="glyph1122" unicode="&#xfe84;&#x652;" horiz-adv-x="528" 
d="M238 1658q0 -50 -40.5 -82t-79.5 -32q-33 0 -52.5 26t-19.5 64q0 52 26.5 92t75.5 40q42 0 66 -32.5t24 -75.5zM74 1658q0 -37 65 -37q55 0 55 20q0 15 -26.5 41t-53.5 26q-40 0 -40 -50zM89 1197l6 32q36 27 58 54q-74 4 -74 69q0 44 30 87t69 43q61 0 61 -56
q0 -19 -10 -37q-56 40 -79 40q-39 0 -39 -33q0 -26 39.5 -51t69.5 -25q8 0 68 17v-56zM569 0h-164q-200 0 -220 222q-10 118 -50 458q-36 296 -36 326q0 47 85 150l76 -855q14 -159 145 -159h164v-142z" />
    <glyph glyph-name="glyph1123" unicode="&#xfe84;&#x64f;" horiz-adv-x="545" 
d="M24 1488v9q109 49 151 110q-47 29 -47 69q0 34 33.5 81.5t63.5 47.5q19 0 30.5 -22.5t11.5 -50.5q0 -38 -23 -88q36 -17 36 -38v-40q-14 0 -41 13q-33 14 -40 16q-90 -114 -150 -114q-14 0 -25 7zM219 1656q13 23 13 48q0 48 -33 48q-29 0 -29 -39q0 -48 49 -57z
M146 1197l5 32q35 27 59 54q-75 5 -75 70q0 43 30 86.5t69 43.5q61 0 61 -56q0 -19 -9 -38q-56 43 -80 43q-39 0 -39 -34q0 -27 40 -51.5t71 -24.5q7 0 67 16v-56zM565 0h-166q-200 0 -220 222q-10 118 -50 458q-35 296 -35 326q0 47 84 150l76 -855q14 -159 145 -159h166
v-142z" />
    <glyph glyph-name="glyph1124" unicode="&#xfe84;&#x64c;" horiz-adv-x="541" 
d="M31 1492v10q5 3 24 16q18 27 18 71q0 28 -17 28q-7 0 -22 -14q-16 -14 -19 -14q-6 0 -6 6q0 15 25.5 39.5t48.5 24.5q31 0 31 -38q0 -34 -27 -90q55 27 94 82q-43 22 -43 68q0 38 34 81t61 43q17 0 29 -21t12 -48q0 -45 -27 -87q34 -18 34 -36l-3 -34q-25 0 -74 22
q-81 -112 -152 -112q-14 0 -21 3zM222 1661q14 25 14 47q0 44 -32 44q-27 0 -27 -34q0 -41 45 -57zM146 1215l6 33q32 25 56 50q-73 5 -73 68q0 43 29.5 84.5t66.5 41.5q60 0 60 -52q0 -20 -10 -38q-52 41 -77 41q-38 0 -38 -33q0 -25 39 -49.5t68 -24.5q7 0 67 16v-54z
M577 0h-166q-199 0 -219 222q-11 118 -51 458q-35 296 -35 326q0 47 85 150l75 -855q14 -159 145 -159h166v-142z" />
    <glyph glyph-name="glyph1125" unicode="&#xfe88;&#x650;" horiz-adv-x="429" 
d="M399 -2h-98q-130 0 -173 140q-22 72 -43 359l-41 567q38 42 73 84q20 25 21 9l23 -587q11 -258 34 -328q35 -103 150 -103h54v-141zM64 -583l10 50q56 39 90 83q-116 7 -116 106q0 68 46 134t106 66q95 0 95 -85q0 -29 -15 -57q-86 63 -123 63q-61 0 -61 -52
q1 -42 62.5 -80t109.5 -38q43 0 104 26v-85zM90 -753h-3q-10 0 -10 28q0 31 15 38l294 124q10 0 13 -5t3 -21q0 -35 -16 -41z" />
    <glyph glyph-name="glyph1126" unicode="&#xfe88;&#x64d;" horiz-adv-x="422" 
d="M419 -2h-98q-130 0 -173 140q-22 72 -43 359l-41 567q38 42 73 84q20 25 21 9l23 -587q11 -258 34 -328q35 -103 150 -103h54v-141zM106 -517l10 52q56 38 90 82q-116 7 -116 106q0 68 46 134.5t106 66.5q95 0 95 -87q0 -28 -15 -56q-86 62 -123 62q-61 0 -61 -50
q0 -43 62 -80.5t110 -37.5q43 0 104 26v-87zM123 -654q-13 0 -13 29t15 36l293 124q11 0 14 -4.5t3 -22.5q0 -33 -17 -40zM123 -784q-13 0 -13 29t15 35l293 124q11 0 14 -3.5t3 -19.5q0 -32 -17 -39z" />
    <glyph glyph-name="afii57506" unicode="&#x67e;" horiz-adv-x="1480" arabic-form="isolated" 
d="M1446 397q0 -76 -38 -165q-30 -70 -52 -91q-61 -58 -287 -116q-262 -67 -532 -67q-193 0 -318 53q-173 75 -173 242q0 142 93 246q6 7 14 4t3 -11q-47 -76 -47 -166q0 -126 199 -180q126 -35 294 -35q201 0 405 43q133 28 252 68q139 47 139 73q0 63 -81 158l53 135
q10 26 19 10q57 -104 57 -201zM988 -326q-22 -32 -66 -104q-59 40 -125 81l-64 -100l-113 79q38 59 65 109q75 -55 120 -80q24 32 67 97zM938 -539q-32 -61 -56 -121l-118 70q18 41 59 121q40 -24 115 -70z" />
    <glyph glyph-name="afii62958" unicode="&#x67e;" horiz-adv-x="1489" arabic-form="final" 
d="M1562 1h-80q-81 0 -119 47q-21 26 -36 87q-47 -81 -231 -138q-202 -62 -473 -62q-584 0 -584 337q0 166 76 246q9 9 16 6q8 -4 3 -13q-39 -74 -39 -157q0 -109 111 -177q149 -92 477 -92q179 0 344 27q182 30 244 81q35 29 50 83q4 14 14 14q11 -1 12 -11q8 -74 28 -97
q35 -40 148 -40h39v-141zM945 -336q-22 -32 -67 -104q-58 40 -125 81l-63 -100l-113 79q37 59 65 109q75 -55 120 -80q24 32 67 97zM895 -549q-32 -61 -57 -121l-117 70q17 41 59 121q40 -24 115 -70z" />
    <glyph glyph-name="afii62956" unicode="&#x67e;" horiz-adv-x="444" arabic-form="initial" 
d="M333 265q0 -67 -33 -143q-22 -51 -37 -68q-46 -53 -184 -53h-110v141h81q236 0 236 49q0 46 -87 156l62 130q6 14 14 1q58 -96 58 -213zM400 -259q-22 -33 -66 -105q-59 41 -125 81l-64 -99l-112 79q37 59 64 108q76 -54 120 -79q25 32 68 97q41 -29 115 -82zM350 -472
q-31 -61 -56 -121l-118 70q18 41 60 121z" />
    <glyph glyph-name="afii52957" unicode="&#x67e;" horiz-adv-x="429" arabic-form="medial" 
d="M485 1h-71q-142 0 -188 142q-28 -58 -87 -100t-121 -42h-49v141h71q130 0 190 121q20 40 25 42q8 0 24 -53q32 -110 150 -110h56v-141zM411 -259q-22 -33 -67 -105q-58 41 -125 81l-63 -99l-113 79q37 59 65 108q75 -54 119 -79q25 32 68 97zM360 -472q-31 -61 -56 -121
l-118 70q18 41 60 121q40 -24 114 -70z" />
    <glyph glyph-name="afii57505" unicode="&#x6a4;" horiz-adv-x="1750" arabic-form="isolated" 
d="M1664 459q0 -129 -62 -194.5t-258 -143.5q-374 -145 -741 -145q-507 0 -507 295q0 117 102 292l29 -9q-70 -106 -70 -194q0 -103 125 -171t316 -68q419 0 846 189q182 80 182 131q0 42 -47 113q-53 -73 -69 -90q-42 -41 -100 -41t-98.5 41t-40.5 99q0 62 68 187
q70 131 136 131q62 0 122 -118q67 -131 67 -304zM1484 649q0 16 -25.5 34t-57.5 18q-50 0 -50 -45q0 -16 21.5 -37.5t46.5 -21.5q65 0 65 52zM1336 1325l-76 -123l-117 74l72 131zM1484 1115l-72 -131l-127 87l-72 -114l-117 84l74 126l122 -81l69 112z" />
    <glyph glyph-name="afii62889" unicode="&#x6a4;" horiz-adv-x="1779" arabic-form="final" 
d="M1848 0h-164q-157 0 -251 66q-318 -137 -486 -182q-185 -51 -394 -51q-212 0 -334.5 81.5t-122.5 222.5q0 137 111 265l15 -12q-59 -115 -59 -170q0 -106 120 -170.5t320 -64.5q175 0 316.5 33t358.5 126q-43 47 -43 84q0 69 60 199q91 195 167 195q49 0 98 -88
q47 -83 47 -146q0 -113 -59 -218q47 -28 136 -28h164v-142zM1548 330q0 33 -34 84q-36 55 -67 55q-33 0 -87 -55t-54 -97q0 -23 35 -56t74 -46q133 75 133 115zM1426 1072l-76 -123l-117 75l72 131zM1573 862l-72 -130l-126 86l-72 -113l-117 84l74 126l122 -83l68 112z" />
    <glyph glyph-name="afii62887" unicode="&#x6a4;" horiz-adv-x="530" arabic-form="initial" 
d="M492 317q0 -144 -90 -210q-147 -107 -319 -107h-83v142h83q112 0 237 45q133 49 133 107q0 47 -56 82q-63 -123 -147 -123q-57 0 -93.5 32t-36.5 82q0 53 32 160q55 181 134 181q73 0 139.5 -129.5t66.5 -261.5zM324 482q0 11 -32.5 31t-53.5 20q-38 0 -38 -41
q0 -65 52 -65q26 0 49 19t23 36zM319 1178l-77 -123l-117 75l74 131zM466 969l-72 -132l-126 87l-72 -113l-117 84l73 126l123 -83l68 113z" />
    <glyph glyph-name="afii62888" unicode="&#x6a4;" horiz-adv-x="728" arabic-form="medial" 
d="M798 0h-164q-148 0 -286 95q-126 -95 -265 -95h-83v142h83q89 0 139 43q-7 35 -7 50q0 84 53 177q128 223 230 223q49 0 86 -76q36 -70 36 -150q0 -97 -99 -229q70 -38 125 -38h152v-142zM558 344q0 39 -32 77q-35 41 -79 41q-50 0 -103.5 -37.5t-53.5 -66.5
q0 -62 101 -116q167 54 167 102zM424 1072l-77 -123l-117 75l74 131zM571 862l-72 -130l-126 86l-72 -113l-116 84l72 126l123 -83l69 112z" />
    <glyph glyph-name="afii57507" unicode="&#x686;" horiz-adv-x="1088" arabic-form="isolated" 
d="M1254 -726q-253 -116 -319 -132q-95 -23 -245 -23q-284 0 -453 113q-198 133 -198 402q0 251 186 444q133 138 311 209q-190 34 -246 34q-112 0 -166 -60q-12 -13 -22 -11q-9 2 -4 17q70 196 216 196q82 0 251 -30t256 -30h165q18 0 16 -4l-51 -121q-303 -2 -549 -145
q-292 -170 -292 -451q0 -428 659 -428q229 0 485 46q20 4 20 -7q0 -10 -20 -19zM766 -218q-22 -33 -67 -105q-58 41 -125 81l-63 -99l-113 79q37 59 65 108q75 -54 119 -79q25 32 68 97zM715 -431q-31 -61 -56 -121l-118 70q18 41 60 121q40 -25 114 -70z" />
    <glyph glyph-name="afii62961" unicode="&#x686;" horiz-adv-x="1062" arabic-form="final" 
d="M1251 -723q-253 -116 -319 -132q-95 -23 -245 -23q-284 0 -453 113q-198 133 -198 402q0 250 186 443q132 137 311 209q-203 36 -249 36q-116 0 -165 -61q-11 -13 -20 -9q-9 3 -4 15q32 85 59 120q59 76 157 76q82 0 251 -30t256 -30h168q14 0 11 -8l-49 -117
q-102 0 -186 -15q0 -93 60 -113q24 -8 153 -8h133v-141h-185q-214 0 -214 148q0 40 18 113q-262 -58 -425 -191q-190 -155 -190 -379q0 -245 217 -355q165 -83 437 -83q229 0 485 46q20 4 20 -7q0 -10 -20 -19zM763 -215q-22 -33 -67 -105q-58 41 -125 81l-63 -99l-113 79
q37 59 65 108q75 -54 119 -79q25 32 68 97zM712 -428q-31 -61 -56 -121l-118 70q18 41 60 121q40 -25 114 -70z" />
    <glyph glyph-name="afii62959" unicode="&#x686;" horiz-adv-x="1137" arabic-form="initial" 
d="M1092 375l-35 -111h-222q-166 0 -317 -68q-10 -5 -255 -127q-136 -68 -229 -68h-65v141h62q96 0 271 62q217 77 299 95q26 6 27 10q-4 4 -26 10q-33 11 -194 62q-107 34 -142 34q-85 0 -133 -46q-15 -15 -25 -13q-11 1 -6 15q25 66 76 119q60 62 122 62q43 0 143 -43
q125 -54 208 -78q147 -43 297 -43h133q15 0 11 -13zM841 -172q-22 -33 -67 -104q-58 40 -125 80l-63 -99l-113 79q37 59 65 108q75 -54 119 -79q25 32 68 97zM791 -385q-32 -61 -57 -121l-118 70q18 41 60 121q40 -24 115 -70z" />
    <glyph glyph-name="afii62960" unicode="&#x686;" horiz-adv-x="1146" arabic-form="medial" 
d="M1213 1h-237q-170 0 -170 133q0 42 17 105q-170 0 -328 -62q-35 -14 -233 -114q-122 -62 -208 -62h-85v141h92q69 0 227 56q186 66 290 81q30 4 31 8q-4 5 -30 12q-57 15 -199 67q-102 37 -134 37q-81 0 -143 -50q-20 -16 -29 -16q-10 0 -4 16q70 193 186 193
q43 0 153 -46q153 -64 226 -86q154 -46 308 -46h133q12 0 8 -12l-43 -117h-171q0 -64 51 -84q33 -13 123 -13h169v-141zM738 -172q-22 -33 -66 -104q-59 40 -125 80l-64 -99l-112 79q37 59 64 108q76 -54 120 -79q25 32 68 97q41 -29 115 -82zM688 -385q-31 -61 -56 -121
l-118 70q18 41 59 121q40 -24 115 -70z" />
    <glyph glyph-name="afii57508" unicode="&#x698;" horiz-adv-x="685" arabic-form="isolated" 
d="M369 928q-17 -41 -59 -121q-40 24 -115 70q32 61 56 120zM513 708q-38 -59 -65 -109q-75 55 -120 80q-24 -32 -67 -97q-41 28 -116 82q22 32 67 104q58 -41 124 -81l64 99zM515 -7q0 -206 -133 -360q-53 -62 -129 -108q-87 -52 -158 -52q-105 0 -246 108q-13 10 -11 17
q1 6 15 2q107 -33 174 -33q139 0 300 157q148 145 148 230q0 46 -61 132q-51 72 -99 114q45 85 71 128q61 -52 97 -154q32 -92 32 -181z" />
    <glyph glyph-name="afii62962" unicode="&#x698;" horiz-adv-x="531" arabic-form="final" 
d="M318 822q-17 -41 -59 -121q-40 25 -115 70q32 61 56 121zM462 602q-38 -59 -65 -108q-75 54 -120 79q-24 -32 -67 -97l-116 82q22 33 67 105q58 -41 124 -81l64 99zM581 1h-97q-34 0 -43 -53q-25 -151 -134 -304q-132 -184 -283 -184q-79 0 -214 97q-20 14 -20 23t26 3
q82 -19 144 -19q133 0 273 134q44 42 100 124q65 96 65 139q0 54 -121 163q34 75 63 129q22 -23 68 -69q43 -42 74 -42h99v-141z" />
    <glyph glyph-name="afii57567" unicode="&#x6a9;" horiz-adv-x="2001" arabic-form="isolated" 
d="M2006 1316l-65 -146q-401 -132 -657 -236q-293 -118 -293 -163q0 -21 161 -106q277 -145 277 -408q0 -80 -34 -131q-24 -38 -92 -87q-118 -87 -367 -143q-243 -55 -487 -55q-409 0 -409 293q0 100 60 254l24 -7q-24 -68 -24 -152q0 -93 112.5 -156t287.5 -63
q350 0 641 105q244 89 244 149q0 55 -104 153q-97 90 -188 132q-102 47 -123.5 73t-21.5 98q0 91 22 132q20 36 203 133q292 154 833 331z" />
    <glyph glyph-name="afii62964" unicode="&#x6a9;" horiz-adv-x="1964" arabic-form="final" 
d="M2034 0h-154q-44 0 -93 33q-42 29 -153 130l-128 116q-86 74 -161 118q8 -32 8 -67q0 -171 -115 -300q-68 -77 -298 -133q-234 -56 -491 -56q-409 0 -409 293q0 100 60 254l24 -7q-24 -68 -24 -152q0 -93 112.5 -156t287.5 -63q288 0 534 74q288 84 288 217
q0 79 -118 175q-115 93 -252 134q-99 134 -99 207q0 70 52 133t193 162q268 189 752 408l-42 -147q-448 -214 -694 -367q-219 -135 -219 -182q0 -36 115 -81q217 -85 418 -237q43 -34 279 -239q143 -125 189 -125h138v-142z" />
    <glyph glyph-name="afii52305" unicode="&#x6a9;" horiz-adv-x="1119" arabic-form="initial" 
d="M1129 1316l-66 -146q-401 -132 -658 -236q-292 -118 -292 -163q0 -21 162 -106q126 -66 201 -175t75 -233q0 -257 -413 -257h-138v142h186q113 0 210 31q111 36 111 91t-104 153q-97 90 -188 132q-102 47 -123.5 73t-21.5 98q0 91 22 132q20 36 203 133q293 154 834 331z
" />
    <glyph glyph-name="afii52306" unicode="&#x6a9;" horiz-adv-x="1170" arabic-form="medial" 
d="M1231 0h-154q-43 0 -93 33q-41 29 -152 130l-128 116q-87 74 -161 118q8 -32 8 -67q0 -330 -429 -330h-122v142h127q162 0 277 44t115 115q0 79 -118 175q-115 93 -251 134q-100 134 -100 207q0 70 52 133t195 162q267 189 751 408l-43 -147q-447 -214 -693 -367
q-219 -135 -219 -182q0 -36 115 -81q217 -85 417 -237q44 -34 280 -239q143 -125 189 -125h137v-142z" />
    <glyph glyph-name="afii57509" unicode="&#x6af;" horiz-adv-x="1489" arabic-form="isolated" 
d="M1448 1367q-18 -69 -34 -87q-172 -64 -237 -93q-179 -80 -415 -223l8 76q356 227 678 327zM1433 1169q-25 -83 -57 -131q-430 -145 -640 -292q-16 -11 -16 -19q0 -9 18 -19q216 -120 259 -153q179 -137 179 -297q0 -39 -19 -89q-20 -54 -47 -78q-79 -71 -325 -114
q-194 -34 -355 -34q-187 0 -277 55q-114 69 -114 243q0 140 89 264q7 9 15 11q9 1 9 -7q-1 -5 -4 -11q-49 -92 -49 -189q0 -124 114 -184q89 -46 226 -46q324 0 560 84q124 44 124 97q0 63 -168 187q-127 93 -228 143q-28 30 -28 139q0 59 11 76q296 231 723 364z" />
    <glyph glyph-name="afii62967" unicode="&#x6af;" horiz-adv-x="1766" arabic-form="final" 
d="M1755 1404q-17 -69 -34 -88q-172 -64 -297 -119q-246 -109 -478 -249l8 77q174 111 420 225q226 105 381 154zM1818 -32h-60q-71 0 -147 57q-46 35 -146 139q-111 115 -179 173q11 -41 11 -81q0 -103 -62 -183q-52 -67 -259 -106q-181 -34 -389 -34q-187 0 -277 55
q-114 69 -114 243q0 140 89 264q7 9 16 12q10 3 10 -5q0 -6 -4 -14q-51 -103 -51 -189q0 -124 114 -184q89 -46 226 -46q167 0 341 25q144 21 197 41q121 44 121 137q0 65 -141 151q-183 112 -204 134q-31 33 -31 144q0 65 13 84q326 253 864 423q-24 -81 -57 -131
q-495 -166 -749 -340q-44 -30 -44 -41q0 -13 51 -41q74 -40 268 -156q79 -50 323 -258q155 -132 204 -132h66v-141z" />
    <glyph glyph-name="afii62965" unicode="&#x6af;" horiz-adv-x="867" arabic-form="initial" 
d="M826 1369q-17 -68 -33 -87q-172 -63 -237 -92q-179 -80 -416 -223l8 75q356 227 678 327zM812 1171q-26 -82 -57 -131q-397 -134 -607 -270q-36 -23 -36 -32q0 -7 30 -23q179 -97 248 -155q165 -137 165 -300q0 -173 -153 -229q-82 -30 -271 -30h-161v141h187
q151 0 204 9q141 23 141 106q0 60 -169 188q-135 101 -228 148q-27 30 -27 138q0 60 11 77q296 230 723 363z" />
    <glyph glyph-name="afii62966" unicode="&#x6af;" horiz-adv-x="988" arabic-form="medial" 
d="M951 1436q-17 -68 -33 -87q-176 -65 -298 -119q-244 -108 -478 -249l9 76q173 111 419 225q226 105 381 154zM1034 1h-80q-91 0 -216 123q-228 224 -264 253q16 -48 16 -96q0 -98 -59 -175q-80 -105 -361 -105h-101v141h148q335 0 335 166q0 63 -138 147
q-173 105 -200 136q-35 40 -35 152q0 50 11 66q348 269 862 432q-24 -81 -57 -131q-487 -163 -745 -339q-41 -28 -41 -39q0 -16 140 -98q82 -47 163 -93q88 -55 330 -260q164 -139 206 -139h86v-141z" />
    <glyph glyph-name="afii57555" unicode="&#x6cc;" horiz-adv-x="1346" arabic-form="isolated" 
d="M1307 639q0 -19 -13.5 -67t-17.5 -48l-31 13q-32 12 -63 12q-88 0 -211 -78q-134 -84 -134 -165q0 -83 111 -113l208 -32q112 -18 112 -79q0 -48 -16 -123q-18 -85 -40 -113q-60 -75 -249 -159q-215 -95 -395 -95q-168 0 -268 78q-110 87 -110 249q0 223 155 431
q3 4 12 3q10 -1 7 -9q-104 -215 -104 -317q0 -142 100 -218q90 -68 236 -68q189 0 471 124q144 63 144 127q0 29 -232 59q-110 14 -156 48q-57 41 -57 134q0 102 171 294q159 178 276 178q24 0 55 -16q39 -20 39 -50z" />
    <glyph glyph-name="afii52364" unicode="&#x6cc;" horiz-adv-x="1246" arabic-form="final" 
d="M1282 1h-139q-43 0 -116 -21q-89 -26 -89 -56q0 -10 19 -16q70 -14 172 -35t102 -55q0 -163 -260 -296q-227 -116 -408 -116q-157 0 -250 59q-114 72 -111 219q2 83 46 191q41 101 97 172q9 11 17 7q8 -5 2 -16q-94 -166 -94 -272q0 -129 106 -178q73 -34 225 -34
q184 0 373 80q162 69 162 102q0 12 -152.5 43t-152.5 76q0 59 97 166q109 121 213 121h141v-141z" />
    <glyph glyph-name="afii52399" unicode="&#x621;" horiz-adv-x="570" arabic-form="isolated" 
d="M403 909q-7 -33 -12 -43q-11 -29 -28 -34l-326 -92q11 44 34 63q20 17 85 42q-78 37 -78 91q0 26 21 53q100 139 192 139q61 0 61 -67q0 -28 -35 -79q-59 38 -94 38q-34 0 -80 -38q95 -89 167 -89q31 0 93 16z" />
    <glyph glyph-name="afii62757" unicode="&#x626;" horiz-adv-x="418" arabic-form="initial" 
d="M377 829q-17 -43 -37 -83q-38 -6 -113 -19q-78 -15 -160 -49q3 13 11 31q40 48 85 63q-25 16 -51 31q-21 17 -21 46q0 47 50 104t97 57q55 0 55 -47q0 -49 -19 -73q-7 -9 -14 5q-18 40 -66 40q-36 0 -36 -34q0 -30 41 -60q38 -28 70 -28q33 0 108 16zM333 265
q0 -67 -33 -143q-22 -51 -37 -68q-46 -53 -184 -53h-110v141h81q236 0 236 49q0 46 -87 156l62 130q6 14 14 1q58 -96 58 -213z" />
    <glyph glyph-name="afii62758" unicode="&#x626;" horiz-adv-x="442" arabic-form="medial" 
d="M399 682l-37 -83q-131 -23 -291 -88q12 24 28 50q45 51 85 64l-50 32q-20 17 -20 45q0 47 49.5 104t95.5 57q56 0 56 -47q0 -48 -19 -73q-7 -10 -14 5q-18 40 -66 40q-36 0 -36 -34q0 -31 39 -59.5t72 -28.5q18 0 108 16zM485 1h-71q-142 0 -188 142q-28 -58 -87 -100
t-121 -42h-49v141h71q130 0 190 121q20 40 25 42q8 0 24 -53q32 -110 150 -110h56v-141z" />
    <glyph glyph-name="afii57415" unicode="&#x627;" horiz-adv-x="402" arabic-form="isolated" 
d="M288 282q1 -14 1 -48q0 -156 -40 -238q-5 -11 -13 -9q-7 2 -7 16q1 125 -27 421q-22 228 -43 592q24 51 72 141q7 12 10 13q4 -10 2 -64q-2 -45 -2 -60q0 -84 47 -764z" />
    <glyph glyph-name="afii62760" unicode="&#x627;" horiz-adv-x="402" arabic-form="final" 
d="M423 -2h-98q-130 0 -173 140q-22 72 -43 359l-41 567q38 42 73 84q20 25 21 9l23 -587q11 -258 34 -328q35 -103 150 -103h54v-141z" />
    <glyph glyph-name="afii57416" unicode="&#x628;" horiz-adv-x="1480" arabic-form="isolated" 
d="M1439 383q0 -76 -38 -165q-30 -70 -52 -91q-61 -58 -287 -116q-262 -67 -532 -67q-193 0 -318 53q-173 75 -173 242q0 142 93 246q6 7 14 4t3 -11q-47 -76 -47 -166q0 -126 199 -180q126 -35 294 -35q201 0 405 43q133 28 252 68q139 47 139 73q0 63 -81 158l53 135
q10 26 19 10q57 -104 57 -201zM834 -424q-20 -43 -57 -133q-56 33 -127 70q6 13 56 137q46 -32 128 -74z" />
    <glyph glyph-name="afii62763" unicode="&#x628;" horiz-adv-x="1512" arabic-form="final" 
d="M1562 1h-80q-81 0 -119 47q-21 26 -36 87q-47 -81 -231 -138q-202 -62 -473 -62q-584 0 -584 337q0 166 76 246q9 9 16 6q8 -4 3 -13q-39 -74 -39 -157q0 -109 111 -177q149 -92 477 -92q179 0 344 27q182 30 244 81q35 29 50 83q4 14 14 14q11 -1 12 -11q8 -74 28 -97
q35 -40 148 -40h39v-141zM842 -396q-20 -43 -57 -133q-56 33 -127 69q6 13 56 137q46 -31 128 -73z" />
    <glyph glyph-name="afii62761" unicode="&#x628;" horiz-adv-x="372" arabic-form="initial" 
d="M333 265q0 -67 -33 -143q-22 -51 -37 -68q-46 -53 -184 -53h-110v141h81q236 0 236 49q0 46 -87 156l76 131q58 -96 58 -213zM319 -294q-20 -43 -57 -133q-56 33 -127 70q6 12 56 137q47 -32 128 -74z" />
    <glyph glyph-name="afii62762" unicode="&#x628;" horiz-adv-x="426" arabic-form="medial" 
d="M485 1h-71q-142 0 -188 142q-28 -58 -87 -100t-121 -42h-49v141h71q130 0 190 121q20 40 25 42q8 0 24 -53q32 -110 150 -110h56v-141zM319 -294q-20 -43 -57 -133q-56 33 -127 70q6 12 56 137q47 -32 128 -74z" />
    <glyph glyph-name="afii57417" unicode="&#x629;" horiz-adv-x="596" arabic-form="isolated" 
d="M527 271q0 -127 -75.5 -211t-185.5 -84q-80 0 -131 57t-51 145q0 94 65.5 228t91.5 171.5t56 37.5q67 0 142 -95q88 -111 88 -249zM453 242q0 30 -55 75q-87 71 -155 71q-41 0 -67.5 -44.5t-26.5 -105.5q0 -80 127 -80q73 0 125 24t52 60zM492 1054l-74 -123l-124 75
l-77 -108l-119 85l76 125l123 -81l77 108z" />
    <glyph glyph-name="afii62764" unicode="&#x629;" horiz-adv-x="704" arabic-form="final" 
d="M742 0h-164q-108 0 -147 257l-72 -66q-52 -42 -105 -42q-74 0 -131 22.5t-57 50.5q0 19 53 131q56 117 254 217v20q0 75 48 167l73 -435q29 -180 84 -180h164v-142zM421 330l-29 167q-141 -49 -208 -165q57 -24 157 -24q39 0 80 22zM482 934l-81 -119l-125 80l-73 -108
l-123 86l75 124l128 -85l74 106z" />
    <glyph glyph-name="afii57418" unicode="&#x62a;" horiz-adv-x="1480" arabic-form="isolated" 
d="M895 742q-29 -50 -73 -115q-58 49 -120 89q-25 -35 -69 -105q-44 31 -120 88q41 61 67 114l126 -89l73 99q75 -55 116 -81zM1439 380q0 -76 -38 -165q-30 -70 -52 -91q-61 -58 -287 -116q-262 -67 -532 -67q-193 0 -318 53q-173 75 -173 242q0 142 93 246q6 7 14 4t3 -11
q-47 -76 -47 -166q0 -126 199 -180q126 -35 294 -35q201 0 405 43q133 28 252 68q139 47 139 73q0 63 -81 158l53 135q10 26 19 10q57 -104 57 -201z" />
    <glyph glyph-name="afii62767" unicode="&#x62a;" horiz-adv-x="1502" arabic-form="final" 
d="M892 745q-29 -50 -73 -115q-58 49 -120 89q-25 -35 -69 -105q-44 31 -120 88q41 61 67 114l126 -89l73 99q75 -55 116 -81zM1559 -6h-80q-81 0 -119 47q-21 26 -36 87q-47 -81 -231 -138q-202 -62 -473 -62q-584 0 -584 337q0 166 76 246q9 9 16 6q8 -4 3 -13
q-39 -74 -39 -157q0 -109 111 -177q149 -92 477 -92q179 0 344 27q182 30 244 81q35 29 50 83q4 14 14 14q11 -1 12 -11q8 -74 28 -97q35 -40 148 -40h39v-141z" />
    <glyph glyph-name="afii62765" unicode="&#x62a;" horiz-adv-x="463" arabic-form="initial" 
d="M422 869q-28 -49 -73 -114q-58 49 -120 89q-25 -36 -69 -106q-43 32 -120 88q41 62 68 115l125 -89l73 98q75 -54 116 -81zM333 265q0 -67 -33 -143q-22 -51 -37 -68q-46 -53 -184 -53h-110v141h81q236 0 236 49q0 46 -87 156l62 130q6 14 14 1q58 -96 58 -213z" />
    <glyph glyph-name="afii62766" unicode="&#x62a;" horiz-adv-x="445" arabic-form="medial" 
d="M422 685q-28 -50 -73 -115q-58 50 -120 89q-25 -35 -69 -105q-43 31 -120 88q41 61 68 115l125 -89l73 98q75 -55 116 -81zM485 1h-71q-142 0 -188 142q-28 -58 -87 -100t-121 -42h-49v141h71q130 0 190 121q20 40 25 42q8 0 24 -53q32 -110 150 -110h56v-141z" />
    <glyph glyph-name="afii57419" unicode="&#x62b;" horiz-adv-x="1620" arabic-form="isolated" 
d="M1536 402q0 -214 -191 -302q-328 -152 -724 -152q-256 0 -395.5 73t-139.5 207q0 94 113 271l30 -9q-62 -101 -62 -158q0 -104 127.5 -162t354.5 -58q305 0 595 89q228 71 228 129q0 16 -9 28l-51 90q-9 16 -9 44q0 22 17 62l36 81q80 -152 80 -233zM826 888l-75 -122
l-116 81l71 124zM971 673l-75 -122l-123 84l-71 -109l-123 88l77 125l126 -89l65 111z" />
    <glyph glyph-name="afii62770" unicode="&#x62b;" horiz-adv-x="1693" arabic-form="final" 
d="M1763 0h-165q-53 0 -91 30q-42 33 -47 84q-235 -204 -773 -204q-595 0 -595 325q0 103 92 278l27 -12q-48 -97 -48 -162q0 -121 158 -195.5t421 -74.5q261 0 463 50q217 54 250 141q40 -118 143 -118h165v-142zM846 871l-74 -124l-122 79l78 131zM999 665l-75 -128
l-129 78l-67 -107l-124 79l76 128l122 -77l79 106z" />
    <glyph glyph-name="afii62768" unicode="&#x62b;" horiz-adv-x="448" arabic-form="initial" 
d="M312 315q0 -315 -229 -315h-83v142h83q61 0 116 24q59 27 59 64q0 20 -11 39l-51 82q-16 28 -16 51q0 25 14 46l64 99q54 -117 54 -232zM284 1220l-73 -131l-120 75l71 134zM439 1010l-73 -129l-125 77l-66 -115l-128 86l73 131l130 -80l65 109z" />
    <glyph glyph-name="afii62769" unicode="&#x62b;" horiz-adv-x="461" arabic-form="medial" 
d="M529 0h-164q-26 0 -61.5 45.5t-38.5 89.5q-70 -135 -182 -135h-83v142h83q105 0 227 166l14 -5q12 -92 29 -123q22 -38 76 -38h100v-142zM310 859l-78 -123l-116 74l73 131zM457 649l-73 -131l-126 87l-71 -113l-117 83l73 126l122 -82l69 113z" />
    <glyph glyph-name="afii57420" unicode="&#x62c;" horiz-adv-x="1101" arabic-form="isolated" 
d="M1251 -746q-253 -116 -319 -132q-95 -23 -245 -23q-284 0 -453 113q-198 133 -198 402q0 251 186 444q133 138 311 209q-190 34 -246 34q-112 0 -166 -60q-12 -13 -22 -11q-9 2 -4 17q70 196 216 196q82 0 251 -30t256 -30h165q18 0 16 -4l-51 -121q-303 -2 -549 -145
q-292 -170 -292 -451q0 -428 659 -428q229 0 485 46q20 4 20 -7q0 -10 -20 -19zM681 -269q-21 -43 -58 -133q-55 33 -127 70q6 12 57 137q46 -32 128 -74z" />
    <glyph glyph-name="afii62773" unicode="&#x62c;" horiz-adv-x="1052" arabic-form="final" 
d="M1251 -729q-253 -116 -319 -132q-95 -23 -245 -23q-284 0 -453 113q-198 133 -198 402q0 250 186 443q132 137 311 209q-203 36 -249 36q-116 0 -165 -61q-11 -13 -20 -9q-9 3 -4 15q32 85 59 120q59 76 157 76q82 0 251 -30t256 -30h168q14 0 11 -8l-49 -117
q-102 0 -186 -15q0 -93 60 -113q24 -8 153 -8h133v-141h-185q-214 0 -214 148q0 40 18 113q-262 -58 -425 -191q-190 -155 -190 -379q0 -245 217 -355q165 -83 437 -83q229 0 485 46q20 4 20 -7q0 -10 -20 -19zM696 -247q-20 -43 -57 -133q-56 33 -127 70q6 13 56 137
q46 -32 128 -74z" />
    <glyph glyph-name="afii62771" unicode="&#x62c;" horiz-adv-x="1140" arabic-form="initial" 
d="M1092 375l-35 -111h-222q-166 0 -317 -68q-10 -5 -255 -127q-136 -68 -229 -68h-65v141h62q96 0 271 62q217 77 299 95q26 6 27 10q-4 4 -26 10q-33 11 -194 62q-107 34 -142 34q-85 0 -133 -46q-15 -15 -25 -13q-11 1 -6 15q25 66 76 119q60 62 122 62q43 0 143 -43
q125 -54 208 -78q147 -43 297 -43h133q15 0 11 -13zM677 -177q-21 -43 -57 -133q-56 33 -127 69q5 13 56 138q46 -32 128 -74z" />
    <glyph glyph-name="afii62772" unicode="&#x62c;" horiz-adv-x="1144" arabic-form="medial" 
d="M1213 1h-237q-170 0 -170 133q0 42 17 105q-170 0 -328 -62q-35 -14 -233 -114q-122 -62 -208 -62h-85v141h92q69 0 227 56q186 66 290 81q30 4 31 8q-4 5 -30 12q-57 15 -199 67q-102 37 -134 37q-81 0 -143 -50q-20 -16 -29 -16q-10 0 -4 16q70 193 186 193
q43 0 153 -46q153 -64 226 -86q154 -46 308 -46h133q12 0 8 -12l-43 -117h-171q0 -64 51 -84q33 -13 123 -13h169v-141zM595 -177q-21 -43 -57 -133q-56 33 -127 69q6 13 56 138q46 -32 128 -74z" />
    <glyph glyph-name="afii57421" unicode="&#x62d;" horiz-adv-x="1278" arabic-form="isolated" 
d="M1215 -719l-396 -145h-145q-299 0 -466 118.5t-167 362.5q0 418 443 684q-140 29 -216 29q-69 0 -155 -22l25 119q117 63 208 63q45 0 183 -26t310 -26q102 0 197 7l-59 -120q-394 -31 -636 -210q-232 -170 -232 -406q0 -220 191.5 -324t538.5 -104q109 0 369 25z" />
    <glyph glyph-name="afii62776" unicode="&#x62d;" horiz-adv-x="1207" arabic-form="final" 
d="M1268 0h-190q-210 0 -286.5 26.5t-76.5 100.5q0 54 29 155q-284 -59 -457.5 -214.5t-173.5 -356.5q24 -183 211.5 -309t515.5 -126q124 0 387 26l12 -26l-427 -138q-299 0 -457 62q-291 115 -314 403q0 425 450 698q-158 29 -208 29q-85 0 -167 -15l27 112q105 57 203 57
q36 0 204.5 -25t369.5 -25q59 0 121 4l-62 -123q-66 -6 -191 -26q24 -98 112 -129q53 -18 178 -18h190v-142z" />
    <glyph glyph-name="afii62774" unicode="&#x62d;" horiz-adv-x="1189" arabic-form="initial" 
d="M1099 358l-41 -128h-49q-47 0 -122.5 6t-113.5 6q-139 0 -278 -63q-107 -58 -216 -116q-115 -63 -196 -63h-83v142h83q103 0 259 58q197 75 228 82q-31 7 -157 62q-103 46 -173 46q-57 0 -145 -27l-7 -3q58 189 217 189q69 0 260 -97q186 -94 438 -94h96z" />
    <glyph glyph-name="afii62775" unicode="&#x62d;" horiz-adv-x="1307" arabic-form="medial" 
d="M1379 0h-176q-205 0 -285 26q-84 28 -84 101q0 54 26 118h-48q-160 0 -312 -64q-37 -16 -225 -118q-116 -63 -192 -63h-83v142h83q99 0 222 50q166 69 294 97l-186 68q-107 38 -176 38q-65 0 -149 -28q42 189 215 189q43 0 228 -78q202 -83 376 -102q73 -9 224 -9
l-32 -117q-48 -8 -94 -8q-55 0 -91 3q10 -77 119 -96q38 -7 170 -7h176v-142z" />
    <glyph glyph-name="afii57422" unicode="&#x62e;" horiz-adv-x="1149" arabic-form="isolated" 
d="M596 840q-21 -43 -58 -133q-55 33 -127 70q6 12 57 137q46 -32 128 -74zM1248 -743q-253 -116 -319 -132q-95 -23 -245 -23q-284 0 -453 113q-198 133 -198 402q0 251 186 444q133 138 311 209q-190 34 -246 34q-112 0 -166 -60q-12 -13 -22 -11q-9 2 -4 17
q70 196 216 196q82 0 251 -30t256 -30h165q18 0 16 -4l-51 -121q-303 -2 -549 -145q-292 -170 -292 -451q0 -428 659 -428q229 0 485 46q20 4 20 -7q0 -10 -20 -19z" />
    <glyph glyph-name="afii62779" unicode="&#x62e;" horiz-adv-x="1059" arabic-form="final" 
d="M602 850q-21 -43 -58 -133q-55 33 -127 70q6 12 57 137q46 -32 128 -74zM1254 -733q-253 -116 -319 -132q-95 -23 -245 -23q-284 0 -453 113q-198 133 -198 402q0 250 186 443q132 137 311 209q-203 36 -249 36q-116 0 -165 -61q-11 -13 -20 -9q-9 3 -4 15q32 85 59 120
q59 76 157 76q82 0 251 -30t256 -30h168q14 0 11 -8l-49 -117q-102 0 -186 -15q0 -93 60 -113q24 -8 153 -8h133v-141h-185q-214 0 -214 148q0 40 18 113q-262 -58 -425 -191q-190 -155 -190 -379q0 -245 217 -355q165 -83 437 -83q229 0 485 46q20 4 20 -7q0 -10 -20 -19z
" />
    <glyph glyph-name="afii62777" unicode="&#x62e;" horiz-adv-x="1137" arabic-form="initial" 
d="M800 857q-21 -43 -58 -133q-55 33 -127 70q6 12 57 137q46 -32 128 -74zM1092 375l-35 -111h-222q-166 0 -317 -68q-10 -5 -255 -127q-136 -68 -229 -68h-65v141h62q96 0 271 62q217 77 299 95q26 6 27 10q-4 4 -26 10q-33 11 -194 62q-107 34 -142 34q-85 0 -133 -46
q-15 -15 -25 -13q-11 1 -6 15q25 66 76 119q60 62 122 62q43 0 143 -43q125 -54 208 -78q147 -43 297 -43h133q15 0 11 -13z" />
    <glyph glyph-name="afii62778" unicode="&#x62e;" horiz-adv-x="1142" arabic-form="medial" 
d="M708 857q-21 -43 -58 -133q-56 33 -127 70q6 12 57 137q46 -32 128 -74zM1213 1h-237q-170 0 -170 133q0 42 17 105q-170 0 -328 -62q-35 -14 -233 -114q-122 -62 -208 -62h-85v141h92q69 0 227 56q186 66 290 81q30 4 31 8q-4 5 -30 12q-57 15 -199 67q-102 37 -134 37
q-81 0 -143 -50q-20 -16 -29 -16q-10 0 -4 16q70 193 186 193q43 0 153 -46q153 -64 226 -86q154 -46 308 -46h133q12 0 8 -12l-43 -117h-171q0 -64 51 -84q33 -13 123 -13h169v-141z" />
    <glyph glyph-name="afii57423" unicode="&#x62f;" horiz-adv-x="599" arabic-form="isolated" 
d="M554 267q0 -110 -24 -154q-28 -54 -123 -89q-105 -39 -244 -39q-58 0 -122 15q-6 2 -5 8q3 50 30 172q57 -21 129 -21q96 0 189 22q131 31 131 87q0 70 -118 157q-105 77 -210 108q40 162 49 162q68 0 180 -114q138 -140 138 -314z" />
    <glyph glyph-name="afii62780" unicode="&#x62f;" horiz-adv-x="792" arabic-form="final" 
d="M868 -6h-91q-83 0 -132 83q-34 58 -65 187q-46 -126 -125 -203q-70 -68 -200 -68q-216 0 -216 80q0 69 30 167q3 10 9 9q5 -1 6 -10q9 -103 187 -103q279 0 279 195q0 199 -70 455l91 97q7 8 9 -1q23 -106 51 -346q24 -207 49 -283q38 -118 113 -118h75v-141z" />
    <glyph glyph-name="afii57424" unicode="&#x630;" horiz-adv-x="731" arabic-form="isolated" 
d="M663 264q0 -76 -35 -159q-190 -120 -397 -120q-35 0 -147 12l21 173q51 -5 119 -5q253 0 383 85q-14 191 -348 311l49 168q144 -31 249.5 -169.5t105.5 -295.5zM398 1075l-79 -122l-119 82l80 121z" />
    <glyph glyph-name="afii62781" unicode="&#x630;" horiz-adv-x="937" arabic-form="final" 
d="M1006 0h-163q-141 0 -205 260q-64 -133 -149.5 -183.5t-241.5 -50.5q-179 0 -179 109q0 36 50 154l27 -3q4 -108 202 -108q269 0 269 189q0 62 -32.5 205t-32.5 199q0 58 65 148l89 -531q42 -246 167 -246h134v-142zM652 1192l-70 -131l-124 74l67 129z" />
    <glyph glyph-name="afii57425" unicode="&#x631;" horiz-adv-x="598" arabic-form="isolated" 
d="M456 -10q0 -206 -133 -360q-53 -62 -129 -108q-87 -52 -158 -52q-105 0 -246 108q-13 10 -11 17q1 6 15 2q107 -33 174 -33q139 0 300 157q148 145 148 230q0 46 -61 132q-51 72 -99 114q45 85 71 128q61 -52 97 -154q32 -92 32 -181z" />
    <glyph glyph-name="afii62782" unicode="&#x631;" horiz-adv-x="520" arabic-form="final" 
d="M588 -6h-97q-34 0 -43 -53q-25 -151 -134 -304q-132 -184 -283 -184q-79 0 -214 97q-20 14 -20 23t26 3q82 -19 144 -19q133 0 273 134q44 42 100 124q65 96 65 139q0 54 -121 163q34 75 63 129q22 -23 68 -69q43 -42 74 -42h99v-141z" />
    <glyph glyph-name="afii57426" unicode="&#x632;" horiz-adv-x="598" arabic-form="isolated" 
d="M373 617q-21 -43 -58 -133q-55 33 -127 69q6 13 57 137q46 -31 128 -73zM459 -13q0 -206 -133 -360q-53 -62 -129 -108q-87 -52 -158 -52q-105 0 -246 108q-13 10 -11 17q1 6 15 2q107 -33 174 -33q139 0 300 157q148 145 148 230q0 46 -61 132q-51 72 -99 114
q45 85 71 128q61 -52 97 -154q32 -92 32 -181z" />
    <glyph glyph-name="afii62783" unicode="&#x632;" horiz-adv-x="523" arabic-form="final" 
d="M369 556q-20 -43 -57 -133q-56 33 -127 70q6 12 56 137q46 -32 128 -74zM588 1h-97q-34 0 -43 -53q-25 -151 -134 -304q-132 -184 -283 -184q-79 0 -214 97q-20 14 -20 23t26 3q82 -19 144 -19q133 0 273 134q44 42 100 124q65 96 65 139q0 54 -121 163q34 75 63 129
q22 -23 68 -69q43 -42 74 -42h99v-141z" />
    <glyph glyph-name="afii57427" unicode="&#x633;" horiz-adv-x="1709" arabic-form="isolated" 
d="M1668 295q0 -95 -29 -160q-39 -89 -121 -89q-85 0 -167 102q-81 -111 -165 -141q-69 -25 -246 -25q-27 -289 -149 -424q-135 -149 -417 -149q-145 0 -238 80q-97 84 -97 227q0 69 37 163q36 89 82 147q10 12 16 7q5 -4 2 -12q-78 -179 -78 -246q0 -220 343 -220
q96 0 210 36q135 42 179 106q40 58 40 204q0 111 -95 233l72 112q7 11 24 -15q44 -67 59 -79q38 -31 117 -31q233 0 305 163q25 56 34 56t12 -23q5 -40 17 -69q30 -72 132 -81q36 -3 46 2q14 7 14 39q0 39 -51 103q60 102 76 121q5 6 9 -1q27 -50 27 -136z" />
    <glyph glyph-name="afii62786" unicode="&#x633;" horiz-adv-x="1739" arabic-form="final" 
d="M1795 -22h-66q-54 0 -88 39q-19 22 -56 99q-39 -70 -58 -91q-38 -42 -92 -42q-99 0 -138 144q-59 -109 -129 -133q-46 -16 -228 -16q-27 -289 -149 -423q-136 -149 -417 -149q-145 0 -238 80q-97 84 -97 227q0 69 37 163q35 88 82 147q7 9 14 6q7 -4 4 -11
q-78 -178 -78 -246q0 -220 343 -220q97 0 212 36q137 42 182 106q36 53 36 197q0 79 -25 132q-21 44 -71 108l72 112q7 11 24 -15q44 -67 59 -79q38 -31 117 -31q106 0 154 16q62 21 102 104q13 26 24 26q12 0 15 -35q3 -45 19 -65q27 -35 97 -35q47 0 76 34q17 21 34 64
q13 35 22 35q12 0 20 -37q11 -48 26 -69q27 -37 85 -37h74v-141z" />
    <glyph glyph-name="afii62784" unicode="&#x633;" horiz-adv-x="1049" arabic-form="initial" 
d="M1010 313q0 -94 -29 -160q-39 -90 -121 -90q-90 0 -166 91q-53 -78 -100 -109q-65 -43 -166 -43q-132 0 -195 124q-74 -125 -200 -125h-64v141h82q141 0 183 105q15 37 23 37q11 0 20 -38q25 -107 160 -107q188 0 260 163q25 56 31 56q14 0 17 -32q4 -44 17 -65
q47 -77 149 -77q39 0 39 35q0 40 -52 109q36 60 76 122q3 4 7 -4q29 -54 29 -133z" />
    <glyph glyph-name="afii62785" unicode="&#x633;" horiz-adv-x="1129" arabic-form="medial" 
d="M1184 1h-107q-100 0 -149 130q-29 -64 -56 -91q-34 -34 -89 -34q-97 0 -130 139q-51 -96 -113 -126q-37 -18 -116 -18q-138 0 -186 127q-77 -127 -195 -127h-73v141h97q73 0 117 38q26 23 47 69q17 37 28 37t20 -38q24 -107 168 -107q142 0 201 108q21 38 29 38
q9 0 13 -35q6 -45 22 -65q28 -35 94 -35q50 0 95 66.5t37 66.5q9 0 17 -37q10 -46 27 -69q26 -37 77 -37h125v-141z" />
    <glyph glyph-name="afii57428" unicode="&#x634;" horiz-adv-x="1709" arabic-form="isolated" 
d="M1373 966q-18 -41 -60 -121l-114 70q31 61 56 121zM1516 746q-37 -59 -64 -109q-76 55 -120 80q-25 -32 -68 -97q-41 28 -115 82q22 32 66 104q59 -41 125 -81l64 100zM1668 305q0 -95 -29 -160q-39 -89 -121 -89q-85 0 -167 102q-81 -111 -165 -141q-69 -25 -246 -25
q-27 -289 -149 -424q-135 -149 -417 -149q-145 0 -238 80q-97 84 -97 227q0 69 37 163q36 89 82 147q10 12 16 7q5 -4 2 -12q-78 -179 -78 -246q0 -220 343 -220q96 0 210 36q135 42 179 106q40 58 40 204q0 111 -95 233l72 112q7 11 24 -15q44 -67 59 -79q38 -31 117 -31
q233 0 305 163q25 56 34 56t12 -23q5 -40 17 -69q30 -72 132 -81q36 -3 46 2q14 7 14 39q0 39 -51 103q60 102 76 121q5 6 9 -1q27 -50 27 -136z" />
    <glyph glyph-name="afii62789" unicode="&#x634;" horiz-adv-x="1735" arabic-form="final" 
d="M1377 969q-18 -41 -60 -121l-114 70q31 61 56 121zM1520 749q-37 -59 -64 -109q-76 55 -120 80q-25 -32 -68 -97q-41 28 -115 82q22 32 66 104q59 -41 125 -81l64 100zM1799 -6h-66q-54 0 -88 39q-19 22 -56 99q-39 -70 -58 -91q-38 -42 -92 -42q-99 0 -138 144
q-59 -109 -129 -133q-46 -16 -228 -16q-27 -289 -149 -423q-136 -149 -417 -149q-145 0 -238 80q-97 84 -97 227q0 69 37 163q35 88 82 147q7 9 14 6q7 -4 4 -11q-78 -178 -78 -246q0 -220 343 -220q97 0 212 36q137 42 182 106q36 53 36 197q0 79 -25 132q-21 44 -71 108
l72 112q7 11 24 -15q44 -67 59 -79q38 -31 117 -31q106 0 154 16q62 21 102 104q13 26 24 26q12 0 15 -35q3 -45 19 -65q27 -35 97 -35q47 0 76 34q17 21 34 64q13 35 22 35q12 0 20 -37q11 -48 26 -69q27 -37 85 -37h74v-141z" />
    <glyph glyph-name="afii62787" unicode="&#x634;" horiz-adv-x="1051" arabic-form="initial" 
d="M762 976q-18 -41 -60 -121l-114 70q31 61 56 121zM905 756q-37 -59 -64 -109q-76 55 -120 80q-25 -32 -68 -97q-41 28 -115 82q22 32 66 104q59 -41 125 -81l64 100zM1010 313q0 -94 -29 -160q-39 -90 -121 -90q-90 0 -166 91q-53 -78 -100 -109q-65 -43 -166 -43
q-132 0 -195 124q-74 -125 -200 -125h-64v141h82q141 0 183 105q15 37 23 37q11 0 20 -38q25 -107 160 -107q188 0 260 163q25 56 31 56q14 0 17 -32q4 -44 17 -65q47 -77 149 -77q39 0 39 35q0 40 -52 109q36 60 76 122q3 4 7 -4q29 -54 29 -133z" />
    <glyph glyph-name="afii62788" unicode="&#x634;" horiz-adv-x="1132" arabic-form="medial" 
d="M710 976q-18 -41 -60 -121q-40 24 -114 70q31 61 56 121zM853 756q-37 -59 -65 -109q-75 55 -119 80q-25 -32 -68 -97q-41 28 -116 82q22 32 67 104q58 -41 125 -81l63 100zM1184 1h-107q-100 0 -149 130q-29 -64 -56 -91q-34 -34 -89 -34q-97 0 -130 139
q-51 -96 -113 -126q-37 -18 -116 -18q-138 0 -186 127q-77 -127 -195 -127h-73v141h97q73 0 117 38q26 23 47 69q17 37 28 37t20 -38q24 -107 168 -107q142 0 201 108q21 38 29 38q9 0 13 -35q6 -45 22 -65q28 -35 94 -35q50 0 95 66.5t37 66.5q9 0 17 -37q10 -46 27 -69
q26 -37 77 -37h125v-141z" />
    <glyph glyph-name="afii57429" unicode="&#x635;" horiz-adv-x="1918" arabic-form="isolated" 
d="M1907 395q0 -350 -783 -395q-28 -74 -56 -174l-24 44l28 130h-109q-4 -221 -109 -407q-117 -207 -484 -207q-146 0 -240.5 86t-94.5 218q0 138 130 339l22 -8q-87 -162 -87 -261q0 -103 97 -162.5t268 -59.5q131 0 241.5 44.5t149.5 112.5q37 63 37 182q0 129 -65 228
l62 140q36 -57 54 -103h203q146 223 326 343q150 101 274 101q67 0 113.5 -55t46.5 -136zM1814 322q0 90 -173 90q-257 0 -437 -270h83q163 0 349 65q178 64 178 115z" />
    <glyph glyph-name="afii62792" unicode="&#x635;" horiz-adv-x="2023" arabic-form="final" 
d="M2091 0h-976q-22 -49 -58 -180l-24 49q9 37 32 131h-102q-4 -221 -109 -407q-117 -207 -484 -207q-146 0 -240.5 86t-94.5 218q0 138 130 339l22 -8q-87 -162 -87 -261q0 -103 97 -162.5t268 -59.5q131 0 241.5 44.5t149.5 112.5q37 63 37 182q0 129 -65 228l62 140
q36 -57 54 -103h190q159 208 317.5 328t277.5 120q70 0 118.5 -54.5t48.5 -131.5q0 -92 -58 -155t-195 -122q248 15 274 15h174v-142zM1804 322q0 42 -60 70q-52 24 -116 24q-233 0 -435 -274q229 2 401 64q210 76 210 116z" />
    <glyph glyph-name="afii62790" unicode="&#x635;" horiz-adv-x="1384" arabic-form="initial" 
d="M1324 395q0 -350 -782 -395q-29 -74 -57 -174l-24 44l29 130h-68q-63 0 -108 36.5t-49 98.5q-70 -135 -182 -135h-83v142h83q105 0 227 166l14 -5q10 -83 26 -113q25 -48 85 -48h130q145 223 326 343q150 101 274 101q66 0 112.5 -55t46.5 -136zM1231 322q0 90 -173 90
q-255 0 -436 -270h82q163 0 349 65q178 64 178 115z" />
    <glyph glyph-name="afii62791" unicode="&#x635;" horiz-adv-x="1453" arabic-form="medial" 
d="M1523 0h-979q-22 -49 -58 -180l-23 49q8 37 31 131h-91q-54 0 -95 44q-40 41 -43 91q-70 -135 -182 -135h-83v142h83q105 0 227 166l14 -5q22 -161 111 -161h129q158 208 317 328t278 120q69 0 117.5 -54.5t48.5 -131.5q0 -92 -58 -155t-196 -122q249 15 292 15h160v-142
zM1233 322q0 42 -59 70q-53 24 -117 24q-232 0 -435 -274q229 2 401 64q210 76 210 116z" />
    <glyph glyph-name="afii57430" unicode="&#x636;" horiz-adv-x="1939" arabic-form="isolated" 
d="M1907 395q0 -350 -783 -395q-28 -74 -56 -174l-24 44l28 130h-109q-4 -221 -109 -407q-117 -207 -484 -207q-146 0 -240.5 86t-94.5 218q0 138 130 339l22 -8q-87 -162 -87 -261q0 -103 97 -162.5t268 -59.5q131 0 241.5 44.5t149.5 112.5q37 63 37 182q0 129 -65 228
l62 140q36 -57 54 -103h203q146 223 326 343q150 101 274 101q67 0 113.5 -55t46.5 -136zM1814 322q0 90 -173 90q-257 0 -437 -270h83q163 0 349 65q178 64 178 115zM1417 866l-79 -137l-124 88l80 136z" />
    <glyph glyph-name="afii62795" unicode="&#x636;" horiz-adv-x="2024" arabic-form="final" 
d="M2094 0h-979q-22 -49 -58 -180l-24 49q9 37 32 131h-102q-4 -221 -109 -407q-117 -207 -484 -207q-146 0 -240.5 86t-94.5 218q0 138 130 339l22 -8q-87 -162 -87 -261q0 -103 97 -162.5t268 -59.5q131 0 241.5 44.5t149.5 112.5q37 63 37 182q0 129 -65 228l62 140
q36 -57 54 -103h190q159 208 317.5 328t277.5 120q70 0 118.5 -54.5t48.5 -131.5q0 -92 -58 -155t-195 -122q248 15 286 15h165v-142zM1804 322q0 42 -60 70q-52 24 -116 24q-233 0 -435 -274q229 2 401 64q210 76 210 116zM1401 854l-75 -137l-124 86l76 138z" />
    <glyph glyph-name="afii62793" unicode="&#x636;" horiz-adv-x="1384" arabic-form="initial" 
d="M1324 395q0 -350 -782 -395q-29 -74 -57 -174l-24 44l29 130h-68q-63 0 -108 36.5t-49 98.5q-70 -135 -182 -135h-83v142h83q105 0 227 166l14 -5q10 -83 26 -113q25 -48 85 -48h130q145 223 326 343q150 101 274 101q66 0 112.5 -55t46.5 -136zM1231 322q0 90 -173 90
q-255 0 -436 -270h82q163 0 349 65q178 64 178 115zM840 866l-79 -137l-124 88l80 136z" />
    <glyph glyph-name="afii62794" unicode="&#x636;" horiz-adv-x="1453" arabic-form="medial" 
d="M1523 0h-979q-22 -49 -58 -180l-23 49q8 37 31 131h-91q-54 0 -95 44q-40 41 -43 91q-70 -135 -182 -135h-83v142h83q105 0 227 166l14 -5q22 -161 111 -161h129q158 208 317 328t278 120q69 0 117.5 -54.5t48.5 -131.5q0 -92 -58 -155t-196 -122q249 15 292 15h160v-142
zM1233 322q0 42 -59 70q-53 24 -117 24q-232 0 -435 -274q229 2 401 64q210 76 210 116zM827 873l-75 -137l-123 86l75 139z" />
    <glyph glyph-name="afii57431" unicode="&#x637;" horiz-adv-x="1323" arabic-form="isolated" 
d="M1249 409q0 -183 -250 -301t-634 -118q-139 0 -188 24q-54 26 -152 144q172 -23 238 -23q179 0 238.5 59t59.5 233q0 205 -47 444t-47 264q0 63 58 154l102 -147q-59 -66 -59 -131q0 -14 21.5 -167.5t21.5 -287.5q0 -136 -21 -274q316 315 501 315q68 0 113 -54t45 -134z
M1161 332q0 28 -44 55q-49 32 -123 32q-265 0 -443 -277h14q188 0 400 76q196 70 196 114z" />
    <glyph glyph-name="afii62798" unicode="&#x637;" horiz-adv-x="1390" arabic-form="final" 
d="M1460 0h-1211q-83 0 -138 62l-86 96q209 -37 279 -37q144 0 200.5 68.5t56.5 241.5q0 197 -47 434t-47 264q0 61 58 160l102 -147q-59 -66 -59 -131q0 -20 21.5 -166t21.5 -289q0 -128 -21 -274q305 315 501 315q70 0 114 -56t44 -139q0 -96 -58 -156.5t-211 -124.5
q244 21 266 21h214v-142zM1161 325q0 40 -54 65q-48 22 -111 22q-123 0 -225 -58t-220 -212q212 2 370 50q91 28 165.5 69.5t74.5 63.5z" />
    <glyph glyph-name="afii62796" unicode="&#x637;" horiz-adv-x="1015" arabic-form="initial" 
d="M955 397q0 -163 -203 -278q-206 -119 -508 -119h-244v142h83q164 0 164 310q0 203 -47.5 439t-47.5 253q0 74 58 150l102 -145q-58 -42 -58 -159q0 -25 24.5 -174t24.5 -288q0 -108 -28 -275q37 39 107 107q223 233 414 233q66 0 112.5 -55.5t46.5 -140.5zM860 325
q0 32 -54.5 58t-123.5 26q-233 0 -433 -267h51q129 0 320 59q240 75 240 124z" />
    <glyph glyph-name="afii62797" unicode="&#x637;" horiz-adv-x="1082" arabic-form="medial" 
d="M1153 0h-980q-30 -58 -57 -180l-24 49q7 70 31 131h-123v142h83q164 0 164 340q0 135 -45 375.5t-45 277.5q0 74 53 168l100 -152q-63 -49 -63 -113q56 -339 56 -496q0 -100 -28 -286q300 337 516 337q70 0 117 -54.5t47 -136.5q0 -162 -281 -281q186 21 300 21h179v-142
zM860 330q0 26 -50 55q-55 31 -116 31q-125 0 -244 -74t-202 -200h43q163 0 369 70q200 70 200 118z" />
    <glyph glyph-name="afii57432" unicode="&#x638;" horiz-adv-x="1323" arabic-form="isolated" 
d="M1249 409q0 -183 -250 -301t-634 -118q-139 0 -188 24q-54 26 -152 144q172 -23 238 -23q179 0 238.5 59t59.5 233q0 205 -47 444t-47 264q0 63 58 154l102 -147q-59 -66 -59 -131q0 -14 21.5 -167.5t21.5 -287.5q0 -136 -21 -274q316 315 501 315q68 0 113 -54t45 -134z
M1161 332q0 28 -44 55q-49 32 -123 32q-265 0 -443 -277h14q188 0 400 76q196 70 196 114zM1001 916l-78 -122l-122 81l79 129z" />
    <glyph glyph-name="afii62801" unicode="&#x638;" horiz-adv-x="1390" arabic-form="final" 
d="M1460 0h-1211q-83 0 -138 62l-86 96q209 -37 279 -37q144 0 200.5 68.5t56.5 241.5q0 197 -47 434t-47 264q0 61 58 160l102 -147q-59 -66 -59 -131q0 -20 21.5 -166t21.5 -289q0 -128 -21 -274q305 315 501 315q70 0 114 -56t44 -139q0 -96 -58 -156.5t-211 -124.5
q244 21 266 21h214v-142zM1161 325q0 40 -54 65q-48 22 -111 22q-123 0 -225 -58t-220 -212q212 2 370 50q91 28 165.5 69.5t74.5 63.5zM1003 934l-74 -140l-128 90l79 136z" />
    <glyph glyph-name="afii62799" unicode="&#x638;" horiz-adv-x="1015" arabic-form="initial" 
d="M955 397q0 -163 -203 -278q-206 -119 -508 -119h-244v142h83q164 0 164 310q0 203 -47.5 439t-47.5 253q0 74 58 150l102 -145q-58 -42 -58 -159q0 -25 24.5 -174t24.5 -288q0 -108 -28 -275q37 39 107 107q223 233 414 233q66 0 112.5 -55.5t46.5 -140.5zM860 325
q0 32 -54.5 58t-123.5 26q-233 0 -433 -267h51q129 0 320 59q240 75 240 124zM696 923l-76 -136l-127 88l79 138z" />
    <glyph glyph-name="afii62800" unicode="&#x638;" horiz-adv-x="1082" arabic-form="medial" 
d="M1153 0h-980q-30 -58 -57 -180l-24 49q7 70 31 131h-123v142h83q164 0 164 340q0 135 -45 375.5t-45 277.5q0 74 53 168l100 -152q-63 -49 -63 -113q56 -339 56 -496q0 -100 -28 -286q300 337 516 337q70 0 117 -54.5t47 -136.5q0 -162 -281 -281q186 21 300 21h179v-142
zM860 330q0 26 -50 55q-55 31 -116 31q-125 0 -244 -74t-202 -200h43q163 0 369 70q200 70 200 118zM701 931l-78 -142l-125 86l79 138z" />
    <glyph glyph-name="afii57433" unicode="&#x639;" horiz-adv-x="1239" arabic-form="isolated" 
d="M1218 -717l-365 -136q-70 -11 -135 -11q-297 0 -477 137t-192 328q0 174 63 319q66 150 217 318q-206 51 -206 164q0 79 76 217q88 161 198 161q69 0 174 -95q-156 -4 -271 -64t-115 -137q0 -53 85 -90q76 -36 154 -36q61 0 245 108q37 23 141 69l-108 -154
q-195 -112 -293 -189q-297 -231 -297 -483q12 -192 264 -331q161 -90 490 -90q162 0 345 22z" />
    <glyph glyph-name="afii62804" unicode="&#x639;" horiz-adv-x="967" arabic-form="final" 
d="M1150 -726l-414 -136h-154q-576 21 -576 485q0 344 362 644l-154 86q85 187 253 187q92 0 166 -49t74 -108q0 -51 -131 -116l83 -72q63 -53 196 -53h163v-142h-163q-155 0 -271 99l-124 107q-391 -203 -391 -509q0 -214 197.5 -317.5t551.5 -103.5q69 0 325 19z" />
    <glyph glyph-name="afii62802" unicode="&#x639;" horiz-adv-x="888" arabic-form="initial" 
d="M870 423l-39 -129l-517 -228q-49 -21 -96 -43q-64 -23 -135 -23h-83v142h83q111 0 174 57q-97 78 -97 147q0 116 113 242q117 132 238 132q90 0 225 -130l-17 -15q-65 33 -128 33q-76 0 -197 -43q-130 -46 -130 -83q0 -45 76 -113q82 -73 154 -73q71 0 177 43z" />
    <glyph glyph-name="afii62803" unicode="&#x639;" horiz-adv-x="728" arabic-form="medial" 
d="M798 0h-166q-121 0 -272 180q-39 -51 -120 -109q-99 -71 -157 -71h-83v142h60q121 0 208 93l-173 95q52 195 272 195q100 0 174.5 -45.5t74.5 -106.5q0 -87 -148 -138q79 -93 189 -93h141v-142z" />
    <glyph glyph-name="afii57434" unicode="&#x63a;" horiz-adv-x="942" arabic-form="isolated" 
d="M334 1039q-21 -43 -58 -133q-56 33 -127 69q6 13 57 137q46 -31 128 -73zM1212 -706q21 2 21 -9q0 -10 -30 -21q-76 -30 -228 -91q-128 -51 -247 -51q-295 0 -473 115q-212 137 -212 415q0 165 90 335q68 129 167 227q-195 83 -195 166q0 109 75 231q83 135 185 135
q78 0 152 -61q19 -16 19 -22q0 -8 -36 -9q-231 -4 -347 -190q32 -60 118 -97q70 -30 133 -30q16 0 26 3q98 55 295 160q16 8 20 2t-3 -17l-84 -136q-175 -81 -328 -220q-226 -205 -226 -415q0 -248 228 -365q176 -90 450 -90q74 0 236 16z" />
    <glyph glyph-name="afii62807" unicode="&#x63a;" horiz-adv-x="829" arabic-form="final" 
d="M537 852q-20 -43 -57 -133q-56 33 -127 70q6 13 56 137q46 -32 128 -74zM1128 -742q15 3 29 3q20 0 20 -8q0 -16 -52 -36l-184 -71q-156 -47 -340 -47q-565 0 -565 494q0 356 372 624q-83 63 -171 66q18 83 88 132q66 47 153 47q82 0 141 -27q77 -36 77 -109
q0 -57 -137 -116q89 -78 205 -78h133v-141h-141q-85 0 -155 43q-46 28 -90 79q-37 43 -44 43q-38 0 -122 -65q-101 -78 -165 -179q-82 -129 -82 -269q0 -379 514 -418q66 -5 137 -5q192 0 379 38z" />
    <glyph glyph-name="afii62805" unicode="&#x63a;" horiz-adv-x="819" arabic-form="initial" 
d="M446 1031q-20 -43 -57 -133q-56 33 -127 70q6 12 56 137q47 -32 128 -74zM784 418q0 -126 -18 -136q-530 -281 -742 -281h-55v141h57q126 0 197 39q-96 64 -96 160q0 79 103 199q111 130 213 130q105 0 190 -88q18 -19 18 -29q0 -7 -10 -7q-6 0 -16 3q-44 14 -110 14
q-72 0 -157 -31q-105 -38 -156 -103q69 -128 226 -155q47 -2 106 22q71 29 243 126q7 4 7 -4z" />
    <glyph glyph-name="afii62806" unicode="&#x63a;" horiz-adv-x="726" arabic-form="medial" 
d="M446 908q-20 -43 -57 -133q-56 33 -127 70q6 13 56 137q47 -32 128 -74zM780 1h-89q-102 0 -187 53l-140 110l-185 -114q-81 -49 -161 -49h-49v141h80q135 0 248 91q-108 83 -186 90q18 82 93 132q70 48 157 48q85 0 155 -35q80 -40 80 -102q0 -65 -142 -137
q100 -87 214 -87h112v-141z" />
    <glyph glyph-name="afii57441" unicode="&#x641;" horiz-adv-x="1476" arabic-form="isolated" 
d="M1298 983q-20 -43 -57 -133q-56 33 -127 70q6 13 56 137q46 -32 128 -74zM1435 315q0 -163 -76 -219q-138 -102 -494 -102h-267q-254 0 -367 40q-192 69 -192 273q0 64 39 148q31 66 58 96q9 10 17 6q9 -4 3 -14q-59 -106 -59 -162q0 -121 92 -176q119 -71 433 -71h304
q239 0 355 39q68 23 113 74q0 71 -44 115q-58 -82 -167 -82q-47 0 -76 29.5t-29 76.5q0 75 48 184q56 125 120 125q41 0 107 -101q82 -125 82 -279zM1305 431q-8 28 -36 72q-33 51 -55 51t-45 -50q-20 -44 -20 -70q0 -40 54 -40q23 0 56 10q40 11 46 27z" />
    <glyph glyph-name="afii62810" unicode="&#x641;" horiz-adv-x="1736" arabic-form="final" 
d="M1503 987q-21 -43 -57 -133q-56 33 -127 70q5 13 56 137q46 -32 128 -74zM1695 -2h-83q-181 0 -313 105q-208 -105 -489 -105h-212q-254 0 -367 40q-192 69 -192 273q0 64 41 151q31 65 54 91q9 10 17 6q8 -5 2 -14q-56 -94 -56 -160q0 -120 86 -173q118 -73 442 -73h185
q266 0 396 54q-19 32 -23 84q-3 45 8 74q32 82 124 182q102 111 166 111q35 0 60 -80q20 -63 20 -108q0 -73 -37 -154q-40 -88 -98 -121q51 -42 193 -42h76v-141zM1483 349q0 29 -27 65t-54 36q-39 0 -89 -29q-55 -33 -55 -69q0 -21 34 -59t54 -38q26 0 78 30q59 34 59 64z
" />
    <glyph glyph-name="afii62808" unicode="&#x641;" horiz-adv-x="537" arabic-form="initial" 
d="M359 990q-20 -43 -57 -133q-56 33 -127 70q6 13 56 137q46 -32 128 -74zM496 346q0 -154 -58 -229q-43 -56 -175 -89q-106 -27 -200 -27h-94v140h133q152 0 255 46q90 40 90 86q0 59 -31 89q-63 -79 -154 -79q-118 0 -118 110q0 81 50 187q55 116 113 116q40 0 107 -96
q82 -117 82 -254zM371 446q-8 27 -37 68q-34 47 -55 47q-22 0 -45 -49q-21 -44 -21 -70q0 -41 66 -41q67 0 92 45z" />
    <glyph glyph-name="afii62809" unicode="&#x641;" horiz-adv-x="622" arabic-form="medial" 
d="M503 990q-21 -43 -58 -133q-55 33 -127 70q6 13 57 137q46 -32 128 -74zM677 1h-73q-175 0 -307 101q-34 -31 -129 -66t-143 -35h-56v141h48q97 0 181 45q-20 34 -26 85q-5 49 5 75q30 73 125 176q105 113 167 113q76 0 76 -175q0 -74 -30 -154q-36 -91 -91 -123
q51 -42 186 -42h67v-141zM466 348q0 30 -23 65.5t-51 35.5q-38 0 -87 -28q-55 -31 -55 -66q0 -21 34 -59t54 -38q22 0 71 28q57 32 57 62z" />
    <glyph glyph-name="afii57442" unicode="&#x642;" horiz-adv-x="1069" arabic-form="isolated" 
d="M961 1077q-28 -49 -72 -114q-59 49 -120 89q-25 -36 -70 -106q-43 32 -120 88q41 62 68 115l126 -89l72 98q76 -54 116 -81zM1028 257q0 -261 -195 -407q-177 -132 -448 -132q-161 0 -252 84q-94 87 -94 247q0 205 154 366q11 11 20 7t2 -16q-24 -39 -61 -95
q-47 -89 -47 -171q0 -279 315 -279q188 0 353 80q205 99 205 268q0 19 -10 56q-12 44 -24 44q44 0 -43 -35t-124 -35q-151 0 -151 146q0 53 56 160q68 130 146 130q44 0 110 -98q88 -130 88 -320zM899 425q-12 36 -45 68q-37 34 -72 34q-27 0 -56 -28t-29 -55q0 -58 89 -58
q71 0 113 39z" />
    <glyph glyph-name="afii62813" unicode="&#x642;" horiz-adv-x="1002" arabic-form="final" 
d="M946 815q-28 -50 -73 -115q-58 50 -120 90q-25 -36 -69 -106q-43 31 -120 88q41 62 67 115l126 -89l73 98q75 -55 116 -81zM1069 -2h-146q-27 -157 -91 -228q-71 -78 -187 -136q-147 -73 -294 -73q-148 0 -230 79.5t-82 227.5q0 79 48 179q42 87 94 143q4 4 12 4
q9 0 9 -6q-1 -3 -4 -8q-35 -51 -66 -124q-36 -85 -36 -137q0 -119 101 -177q81 -47 210 -47q115 0 242 48q222 84 222 255q-120 0 -160 13q-83 27 -83 120q0 63 60 155q64 99 122 99q53 0 95 -99q36 -84 36 -147h128v-141zM868 142q-38 114 -99 114q-25 0 -50.5 -23.5
t-25.5 -48.5q0 -47 110 -47q30 0 65 5z" />
    <glyph glyph-name="afii62811" unicode="&#x642;" horiz-adv-x="535" arabic-form="initial" 
d="M463 1013q-28 -50 -73 -115q-58 50 -120 89q-25 -35 -69 -105q-43 31 -120 88q41 61 67 114l126 -89l73 99q75 -55 116 -81zM496 346q0 -154 -58 -229q-43 -56 -175 -89q-106 -27 -200 -27h-94v140h133q152 0 255 46q90 40 90 86q0 61 -35 101q-66 -84 -155 -84
q-47 0 -80 28.5t-33 74.5q0 68 52 180q57 123 111 123q40 0 107 -96q82 -117 82 -254zM362 445q-7 26 -33 65q-30 44 -51 44q-24 0 -47 -45q-21 -41 -21 -68q0 -34 72 -34q59 0 80 38z" />
    <glyph glyph-name="afii62812" unicode="&#x642;" horiz-adv-x="616" arabic-form="medial" 
d="M586 1013q-29 -50 -73 -115q-58 50 -120 89q-25 -35 -69 -105q-43 31 -120 88q41 61 67 114l126 -89l73 99q75 -55 116 -81zM677 1h-73q-175 0 -307 101q-34 -31 -129 -66t-143 -35h-56v141h48q97 0 181 45q-20 34 -26 85q-5 49 5 75q30 73 125 176q105 113 167 113
q76 0 76 -175q0 -74 -30 -154q-36 -91 -91 -123q51 -42 186 -42h67v-141zM466 348q0 30 -23 65.5t-51 35.5q-38 0 -87 -28q-55 -31 -55 -66q0 -21 34 -59t54 -38q22 0 71 28q57 32 57 62z" />
    <glyph glyph-name="afii57443" unicode="&#x643;" horiz-adv-x="1146" arabic-form="isolated" 
d="M1139 319q3 -18 4 -27t1 -28q0 -85 -44 -171q-36 -69 -64 -85q-37 -21 -173.5 -32t-304.5 -11q-161 0 -229 9q-96 12 -132 50q-1 2 -1 9.5v13.5q0 55 5 112q0 12 2 12q1 0 12 -7q37 -28 191 -40q115 -9 272 -9q118 0 250 19q159 24 154 54l-156 832q-10 48 -22 82.5
t-26 54.5l84 109q17 -28 56 -80q18 -25 46 -62l-36 -40q-20 -27 -20 -61v-11q2 -8 2 -13q12 -73 40 -220.5t58 -301.5q15 -79 31 -158zM698 611q0 -62 -51.5 -118t-102.5 -56q-47 0 -85 16.5t-68 44.5q-7 7 -8 11.5t6 3.5q52 -10 106 -10q52 0 87 10t44 30q-39 18 -78 38
q-86 30 -86 68q0 69 62 143q50 59 125 88v-92q-46 -11 -78.5 -29t-32.5 -34q0 -9 80 -37.5t80 -76.5z" />
    <glyph glyph-name="afii62816" unicode="&#x643;" horiz-adv-x="1681" arabic-form="final" 
d="M1017 677q0 -64 -51.5 -119t-103.5 -55q-47 0 -85.5 16.5t-66.5 42.5q-8 8 -9 13t7 4q51 -12 105 -12q53 0 87 11t43 30q-39 19 -77 38q-86 32 -86 69q0 70 63 145q50 60 125 87v-93q-41 -9 -76.5 -27.5t-35.5 -35.5q0 -10 80.5 -38t80.5 -76zM1712 1h-76q-83 0 -131 81
q-37 62 -49 163q0 28 -7 28t-13 -27q-20 -81 -57 -137q-28 -46 -71 -77q-47 -36 -200 -56t-421 -20q-231 0 -354 77q-137 86 -137 262q0 40 24 105.5t50 103.5q9 11 15 11q3 0 4 -3.5t-1 -8.5q-16 -31 -26 -78.5t-10 -84.5q0 -107 94 -170q113 -76 342 -76q416 0 582 50
q122 37 130 112q3 22 4 52t1 75q0 96 -6 216.5t-17.5 252.5t-20.5 219l73 122q5 8 7 8q3 0 6.5 -34t7 -139.5t7.5 -187.5q8 -153 25 -336t48 -264q36 -98 105 -98h72v-141z" />
    <glyph glyph-name="afii57410" unicode="&#x643;" horiz-adv-x="796" arabic-form="initial" 
d="M755 1146q-20 -55 -77 -140q-201 -67 -291 -103q-182 -71 -306 -149q-20 -13 -20 -21t16 -17q60 -31 179 -94q116 -64 184 -143q84 -98 84 -219q0 -173 -153 -229q-82 -30 -271 -30h-160v141h186q160 0 207 7q146 22 146 105q0 66 -176 191q-140 99 -240 143
q-33 37 -33 141q0 56 17 75q124 136 708 342z" />
    <glyph glyph-name="afii62815" unicode="&#x643;" horiz-adv-x="978" arabic-form="medial" 
d="M1034 1h-80q-93 0 -229 133q-215 211 -255 240q17 -46 17 -95q0 -100 -56 -173q-81 -105 -361 -105h-101v141h150q333 0 333 168q0 64 -142 149q-173 104 -199 135q-32 39 -32 154q0 43 9 56q73 108 386 262q253 125 475 197q-29 -89 -69 -150q-484 -162 -733 -342
q-44 -32 -44 -41q0 -13 52 -41q75 -41 269 -157q84 -53 325 -257q158 -133 199 -133h86v-141z" />
    <glyph glyph-name="afii57444" unicode="&#x644;" horiz-adv-x="897" arabic-form="isolated" 
d="M859 1034q-83 -66 -75 -127q7 -56 17 -142l40 -358q19 -173 12 -257q-15 -169 -163 -275q-136 -98 -312 -98q-145 0 -237 79q-98 83 -98 225q0 80 35 178.5t86 159.5q6 7 14 2q10 -4 4 -14q-76 -133 -76 -263q0 -215 271 -215q109 0 247 48q176 62 169 151
q-52 712 -139 948l106 118q24 -45 99 -160z" />
    <glyph glyph-name="afii62819" unicode="&#x644;" horiz-adv-x="1009" arabic-form="final" 
d="M1068 -2h-68q-101 0 -150 152q-3 10 -7 8q-4 -1 -5 -14q20 -442 -23 -550q-35 -88 -133 -151q-133 -86 -335 -86q-146 0 -227 79.5t-81 224.5q0 166 139 356q8 11 19 8q11 -4 2 -19q-103 -184 -103 -293q0 -104 91 -160q76 -48 187 -48q173 0 305 73q117 64 114 126
l-23 535q-16 256 -51 808l62 129q8 17 13 17q4 0 5 -19q2 -70 14 -262q34 -456 58 -580q37 -193 128 -193h69v-141z" />
    <glyph glyph-name="afii62817" unicode="&#x644;" horiz-adv-x="342" arabic-form="initial" 
d="M295 367q3 -23 3 -54q0 -170 -109 -264q-55 -48 -156 -48h-64v141h103q164 0 164 107q0 7 -2 15q-39 349 -47 407q-32 234 -78 401q-5 19 -10 34q34 44 91 124q50 -72 102 -152q-81 -80 -72 -146z" />
    <glyph glyph-name="afii62818" unicode="&#x644;" horiz-adv-x="483" arabic-form="medial" 
d="M549 1h-99q-63 0 -113 48q-45 43 -63 107q-16 58 -18 60q-4 -7 -20 -56q-22 -67 -82 -113t-130 -46h-55v141h85q166 0 166 174v116q0 266 -52 663l72 94q13 17 14 -3q13 -291 30 -558q16 -249 49 -353q43 -133 140 -133h76v-141z" />
    <glyph glyph-name="afii57445" unicode="&#x645;" horiz-adv-x="623" arabic-form="isolated" 
d="M584 264q0 -8 -39 -132q-89 10 -150 10q-84 0 -178 -32q-122 -41 -122 -109q0 -5 2 -13q139 -536 139 -789q0 -94 -15 -94q-16 0 -26 90q-16 151 -76 404q-63 265 -76 357q-2 14 -2 24q0 136 85 220q0 120 73 222q65 91 119 91q87 0 166 -85q67 -70 100 -164zM430 274
q-79 97 -154 97q-38 0 -61 -53q-17 -39 -20 -85q103 43 235 41z" />
    <glyph glyph-name="afii62822" unicode="&#x645;" horiz-adv-x="825" arabic-form="final" 
d="M897 1h-93q-186 0 -252 59q6 -46 6 -84q0 -148 -77 -148q-111 0 -135 264q-95 0 -175 -56q-69 -48 -65 -77q45 -295 85 -648q4 -35 4 -99q0 -98 -14 -98q-13 0 -28 107q-38 211 -105 634q-5 36 -5 63q0 240 307 353q6 22 21 58q9 13 20 4q139 -112 155 -121
q118 -70 265 -70h86v-141z" />
    <glyph glyph-name="afii62820" unicode="&#x645;" horiz-adv-x="613" arabic-form="initial" 
d="M569 164q-2 -15 -51 -51.5t-65 -36.5q-32 0 -123.5 44t-98.5 44q-36 0 -94 -84q-54 -79 -107 -79h-61v141h56q73 0 131 60q42 43 96 146q89 168 180 168q49 0 74 -18q17 -12 39 -76q29 -84 29 -183q0 -32 -5 -75zM479 254q0 59 -41 105q-35 39 -64 39q-18 0 -38 -27.5
t-20 -46.5q0 -51 114 -91q49 -17 49 21z" />
    <glyph glyph-name="afii62821" unicode="&#x645;" horiz-adv-x="846" arabic-form="medial" 
d="M912 1h-58q-95 0 -241 109q-6 -95 -12 -115q-12 -40 -48 -40q-71 0 -205 102q-108 82 -121 82q3 0 -79 -69t-133 -69h-46v141h55q90 0 133 27q36 22 105 110q107 135 156 135t117 -71q119 -123 127 -130q85 -71 174 -71h76v-141zM504 122q2 65 -13 121q-22 81 -73 81
q-41 0 -102 -97q65 -53 188 -105z" />
    <glyph glyph-name="afii57446" unicode="&#x646;" horiz-adv-x="860" arabic-form="isolated" 
d="M445 929q-20 -43 -57 -133q-56 33 -127 69q6 13 56 137q46 -31 128 -73zM816 281q0 -205 -125 -333t-330 -128q-148 0 -234 76q-91 81 -91 228q0 68 37 165q33 87 72 139q9 12 18 12q14 0 4 -20q-71 -143 -71 -221q0 -213 255 -213q214 0 331 81q87 60 87 123
q0 174 -147 395l53 137q7 18 20 1q121 -162 121 -442z" />
    <glyph glyph-name="afii62825" unicode="&#x646;" horiz-adv-x="1059" arabic-form="final" 
d="M548 560q-21 -43 -58 -133q-56 33 -127 70q6 12 57 137q46 -32 128 -74zM1118 1h-181q-27 -289 -149 -423q-136 -149 -417 -149q-145 0 -238 80q-97 84 -97 227q0 69 37 163q35 88 82 147q10 0 18 -5q-78 -180 -78 -246q0 -220 343 -220q97 0 212 36q137 42 182 106
q36 53 36 197q0 79 -25 132q-21 44 -71 108l72 112q7 11 24 -15q38 -57 68 -79q42 -30 108 -30h74v-141z" />
    <glyph glyph-name="afii62823" unicode="&#x646;" horiz-adv-x="372" arabic-form="initial" 
d="M303 939q-20 -43 -57 -133q-56 33 -127 70q6 12 56 137q46 -32 128 -74zM333 265q0 -67 -33 -143q-22 -51 -37 -68q-46 -53 -184 -53h-110v141h81q236 0 236 49q0 46 -87 156l62 130q6 14 14 1q58 -96 58 -213z" />
    <glyph glyph-name="afii62824" unicode="&#x646;" horiz-adv-x="432" arabic-form="medial" 
d="M247 734q-21 -43 -58 -133q-55 33 -127 70q6 13 57 137q46 -32 128 -74zM485 1h-71q-142 0 -188 142q-28 -58 -87 -100t-121 -42h-49v141h71q130 0 190 121q20 40 25 42q8 0 24 -53q32 -110 150 -110h56v-141z" />
    <glyph glyph-name="afii57447" unicode="&#x647;" horiz-adv-x="479" arabic-form="isolated" 
d="M417 271q18 -145 -23 -206q-52 -78 -225 -78q-45 0 -83 36q-50 48 -50 138q0 84 58 216q61 138 107 138q71 0 142 -88q65 -80 74 -156zM363 187q0 61 -68 109q-63 45 -126 45q-11 0 -39.5 -67t-23.5 -80q25 -50 137 -50q120 0 120 43z" />
    <glyph glyph-name="afii62828" unicode="&#x647;" horiz-adv-x="615" arabic-form="final" 
d="M668 1h-96q-106 0 -152 78q-26 42 -54 176q-32 -39 -64 -77q-35 -34 -93 -34q-51 0 -103 15q-70 20 -70 55q0 101 105 200q77 73 188 125q-2 46 -11 89l53 82q10 16 12 0q10 -85 38 -303q18 -131 25 -159q31 -106 97 -106h125v-141zM360 300l-17 151q-115 -23 -190 -126
q57 -28 144 -28q30 0 63 3z" />
    <glyph glyph-name="afii57470" unicode="&#x647;" horiz-adv-x="836" arabic-form="initial" 
d="M795 252q0 -182 -103 -182q-44 0 -151.5 40t-145.5 40q-41 0 -137 -58q-32 -20 -97 -60q-53 -31 -109 -31h-83v141h127q104 0 156 48q-45 31 -45 92q0 115 146 228q-33 22 -60 31q58 155 86 155q58 0 202 -127q80 -70 141 -154q73 -100 73 -163zM567 396q-16 13 -21 13
q-6 -1 -5 -21q2 -59 -56 -131q114 -51 224 -75q22 -5 22 10q0 6 -3 15q-30 84 -161 189zM477 349q0 36 -17 65q-20 35 -53 35q-55 0 -100 -47q-34 -35 -43 -66q16 -21 55.5 -39t67.5 -18q90 0 90 70z" />
    <glyph glyph-name="afii62827" unicode="&#x6be;" horiz-adv-x="697" arabic-form="final" 
d="M776 1h-66q-117 0 -200 -23q76 -69 76 -161q0 -84 -41 -153q-48 -82 -126 -82q-98 0 -159 146q-48 115 -52 241h-53v53q-65 -21 -136 -21h-50v141h54q135 0 200 38q7 81 116 243q114 171 184 171q31 0 36 -48v-95q0 -155 -66 -242q-14 -18 -114 -100l8 -19q204 52 302 52
h87v-141zM516 340q0 27 -23 55.5t-49 28.5q-41 0 -101 -94q-44 -69 -68 -130q69 21 137 54q104 49 104 86zM543 -209q0 44 -90 101q-95 60 -187 64q4 -64 54 -145q56 -90 114 -90q32 0 68 19q41 22 41 51z" />
    <glyph glyph-name="afii57448" unicode="&#x648;" horiz-adv-x="557" arabic-form="isolated" 
d="M483 213q0 -201 -134 -394q-148 -211 -341 -211q-113 0 -245 125q-23 22 -23 28t12 6q-52 0 59 -24.5t152 -24.5q127 0 269 111q138 108 180 231q14 42 -4 74q-65 -39 -111 -39q-55 0 -89 45q-31 42 -31 98q0 68 47 169q53 116 112 116q55 0 97 -73q50 -86 50 -237z
M403 261q0 38 -27 77q-30 44 -66 44q-19 0 -36.5 -25t-17.5 -45q0 -83 58 -83q89 0 89 32z" />
    <glyph glyph-name="afii62829" unicode="&#x648;" horiz-adv-x="554" arabic-form="final" 
d="M621 1h-135q-22 -156 -128 -306q-143 -203 -349 -203q-88 0 -197 87q-61 49 -61 65q0 6 10 6q-51 0 54.5 -21.5t150.5 -21.5q174 0 320 141q117 113 134 207q3 17 1 49q-123 0 -160 12q-68 22 -68 99q0 72 58 183q65 124 129 124q45 0 83 -121q28 -94 32 -159h126v-141z
M419 158q-1 43 -22 79q-24 44 -64 44q-31 0 -55 -40q-20 -34 -20 -68q0 -9 3 -13q6 -12 62 -14q59 -2 96 12z" />
    <glyph glyph-name="afii57449" unicode="&#x649;" horiz-adv-x="1346" arabic-form="isolated" 
d="M1307 639q0 -19 -13.5 -67t-17.5 -48l-31 13q-32 12 -63 12q-88 0 -211 -78q-134 -84 -134 -165q0 -83 111 -113l208 -32q112 -18 112 -79q0 -48 -16 -123q-18 -85 -40 -113q-60 -75 -249 -159q-215 -95 -395 -95q-168 0 -268 78q-110 87 -110 249q0 223 155 431
q3 4 12 3q10 -1 7 -9q-104 -215 -104 -317q0 -142 100 -218q90 -68 236 -68q189 0 471 124q144 63 144 127q0 29 -232 59q-110 14 -156 48q-57 41 -57 134q0 102 171 294q159 178 276 178q24 0 55 -16q39 -20 39 -50z" />
    <glyph glyph-name="afii62830" unicode="&#x649;" horiz-adv-x="1246" arabic-form="final" 
d="M1282 1h-139q-43 0 -116 -21q-89 -26 -89 -56q0 -10 19 -16q70 -14 172 -35t102 -55q0 -163 -260 -296q-227 -116 -408 -116q-157 0 -250 59q-114 72 -111 219q2 83 46 191q41 101 97 172q9 11 17 7q8 -5 2 -16q-94 -166 -94 -272q0 -129 106 -178q73 -34 225 -34
q184 0 373 80q162 69 162 102q0 12 -152.5 43t-152.5 76q0 59 97 166q109 121 213 121h141v-141z" />
    <glyph glyph-name="afii57450" unicode="&#x64a;" horiz-adv-x="1197" arabic-form="isolated" 
d="M1157 639q0 -19 -13.5 -67t-17.5 -48l-31 13q-32 12 -63 12q-88 0 -211 -78q-134 -84 -134 -165q0 -83 111 -113l208 -32q112 -18 112 -79q0 -48 -16 -123q-18 -85 -40 -113q-60 -75 -249 -159q-215 -95 -395 -95q-168 0 -268 78q-110 87 -110 249q0 223 155 431
q3 4 12 3q10 -1 7 -9q-104 -215 -104 -317q0 -142 100 -218q90 -68 236 -68q189 0 471 124q144 63 144 127q0 29 -232 59q-110 14 -156 48q-57 41 -57 134q0 102 171 294q159 178 276 178q24 0 55 -16q39 -20 39 -50zM791 -657q-28 -50 -72 -115q-59 50 -120 89
q-25 -35 -70 -105q-43 31 -120 88q41 61 68 114l126 -89l73 99q75 -55 115 -81z" />
    <glyph glyph-name="afii62833" unicode="&#x64a;" horiz-adv-x="1091" arabic-form="final" 
d="M1122 1h-139q-43 0 -116 -21q-89 -26 -89 -56q0 -10 19 -16q70 -14 172 -35t102 -55q0 -163 -260 -296q-227 -116 -408 -116q-157 0 -250 59q-114 72 -111 219q2 83 46 191q41 101 97 172q9 11 17 7q8 -5 2 -16q-94 -166 -94 -272q0 -129 106 -178q73 -34 225 -34
q184 0 373 80q162 69 162 102q0 12 -152.5 43t-152.5 76q0 59 97 166q109 121 213 121h141v-141zM741 -803q-28 -50 -72 -115q-59 50 -120 89q-25 -35 -70 -105q-43 31 -120 88q41 61 68 114l126 -89l73 99q75 -55 115 -81z" />
    <glyph glyph-name="afii62831" unicode="&#x6cc;" horiz-adv-x="480" arabic-form="initial" 
d="M333 265q0 -67 -33 -143q-22 -51 -37 -68q-46 -53 -184 -53h-110v141h81q236 0 236 49q0 46 -87 156l62 130q6 14 14 1q58 -96 58 -213zM350 -267q-28 -50 -72 -115q-59 50 -120 90q-25 -36 -70 -106q-43 31 -120 88q41 62 68 115l126 -89l73 98q75 -55 115 -81z" />
    <glyph glyph-name="afii62832" unicode="&#x6cc;" horiz-adv-x="452" arabic-form="medial" 
d="M485 1h-71q-142 0 -188 142q-28 -58 -87 -100t-121 -42h-49v141h71q130 0 190 121q20 40 25 42q8 0 24 -53q32 -110 150 -110h56v-141zM417 -293q-28 -50 -73 -115q-58 50 -120 90q-25 -36 -69 -106q-43 31 -120 88q41 62 67 115l126 -89l73 98q75 -55 116 -81z" />
    <glyph glyph-name="glyph1106" unicode="&#x649;" horiz-adv-x="478" arabic-form="initial" 
d="M333 265q0 -67 -33 -143q-22 -51 -37 -68q-46 -53 -184 -53h-110v141h81q236 0 236 49q0 46 -87 156l62 130q6 14 14 1q58 -96 58 -213z" />
    <glyph glyph-name="glyph1107" unicode="&#x649;" horiz-adv-x="451" arabic-form="medial" 
d="M485 1h-71q-142 0 -188 142q-28 -58 -87 -100t-121 -42h-49v141h71q130 0 190 121q20 40 25 42q8 0 24 -53q32 -110 150 -110h56v-141z" />
    <glyph glyph-name="uniFBEA" unicode="&#xfbea;" horiz-adv-x="706" arabic-form="isolated" 
d="M393 -2h-98q-130 0 -173 140q-22 72 -43 359l-41 567q38 42 73 84q20 25 21 9l23 -587q11 -258 34 -328q35 -103 150 -103h54v-141zM667 829q-17 -43 -37 -83q-38 -6 -113 -19q-78 -15 -160 -49q3 13 11 31q40 48 85 63q-25 16 -51 31q-21 17 -21 46q0 47 50 104t97 57
q55 0 55 -47q0 -49 -19 -73q-7 -9 -14 5q-18 40 -66 40q-36 0 -36 -34q0 -30 41 -60q38 -28 70 -28q33 0 108 16zM623 265q0 -67 -33 -143q-22 -51 -37 -68q-46 -53 -184 -53h-110v141h81q236 0 236 49q0 46 -87 156l62 130q6 14 14 1q58 -96 58 -213z" />
    <glyph glyph-name="uniFBEB" unicode="&#xfbeb;" horiz-adv-x="746" arabic-form="final" 
d="M393 -2h-98q-130 0 -173 140q-22 72 -43 359l-41 567q38 42 73 84q20 25 21 9l23 -587q11 -258 34 -328q35 -103 150 -103h54v-141zM709 682l-37 -83q-131 -23 -291 -88q12 24 28 50q45 51 85 64l-50 32q-20 17 -20 45q0 47 49.5 104t95.5 57q56 0 56 -47q0 -48 -19 -73
q-7 -10 -14 5q-18 40 -66 40q-36 0 -36 -34q0 -31 39 -59.5t72 -28.5q18 0 108 16zM795 1h-71q-142 0 -188 142q-28 -58 -87 -100t-121 -42h-49v141h71q130 0 190 121q20 40 25 42q8 0 24 -53q32 -110 150 -110h56v-141z" />
    <glyph glyph-name="uniFBEC" unicode="&#xfbec;" horiz-adv-x="1008" arabic-form="isolated" 
d="M668 1h-96q-106 0 -152 78q-26 42 -54 176q-32 -39 -64 -77q-35 -34 -93 -34q-51 0 -103 15q-70 20 -70 55q0 101 105 200q77 73 188 125q-2 46 -11 89l53 82q10 16 12 0q10 -85 38 -303q18 -131 25 -159q31 -106 97 -106h125v-141zM360 300l-17 151q-115 -23 -190 -126
q57 -28 144 -28q30 0 63 3zM957 829q-17 -43 -37 -83q-38 -6 -113 -19q-78 -15 -160 -49q3 13 11 31q40 48 85 63q-25 16 -51 31q-21 17 -21 46q0 47 50 104t97 57q55 0 55 -47q0 -49 -19 -73q-7 -9 -14 5q-18 40 -66 40q-36 0 -36 -34q0 -30 41 -60q38 -28 70 -28
q33 0 108 16zM913 265q0 -67 -33 -143q-22 -51 -37 -68q-46 -53 -184 -53h-110v141h81q236 0 236 49q0 46 -87 156l62 130q6 14 14 1q58 -96 58 -213z" />
    <glyph glyph-name="uniFBED" unicode="&#xfbed;" horiz-adv-x="1038" arabic-form="final" 
d="M668 1h-96q-106 0 -152 78q-26 42 -54 176q-32 -39 -64 -77q-35 -34 -93 -34q-51 0 -103 15q-70 20 -70 55q0 101 105 200q77 73 188 125q-2 46 -11 89l53 82q10 16 12 0q10 -85 38 -303q18 -131 25 -159q31 -106 97 -106h125v-141zM360 300l-17 151q-115 -23 -190 -126
q57 -28 144 -28q30 0 63 3zM999 682l-37 -83q-131 -23 -291 -88q12 24 28 50q45 51 85 64l-50 32q-20 17 -20 45q0 47 49.5 104t95.5 57q56 0 56 -47q0 -48 -19 -73q-7 -10 -14 5q-18 40 -66 40q-36 0 -36 -34q0 -31 39 -59.5t72 -28.5q18 0 108 16zM1085 1h-71
q-142 0 -188 142q-28 -58 -87 -100t-121 -42h-49v141h71q130 0 190 121q20 40 25 42q8 0 24 -53q32 -110 150 -110h56v-141z" />
    <glyph glyph-name="uniFBEE" unicode="&#xfbee;" horiz-adv-x="1017" arabic-form="isolated" 
d="M621 1h-135q-22 -156 -128 -306q-143 -203 -349 -203q-88 0 -197 87q-61 49 -61 65q0 6 10 6q-51 0 54.5 -21.5t150.5 -21.5q174 0 320 141q117 113 134 207q3 17 1 49q-123 0 -160 12q-68 22 -68 99q0 72 58 183q65 124 129 124q45 0 83 -121q28 -94 32 -159h126v-141z
M419 158q-1 43 -22 79q-24 44 -64 44q-31 0 -55 -40q-20 -34 -20 -68q0 -9 3 -13q6 -12 62 -14q59 -2 96 12zM937 829q-17 -43 -37 -83q-38 -6 -113 -19q-78 -15 -160 -49q3 13 11 31q40 48 85 63q-25 16 -51 31q-21 17 -21 46q0 47 50 104t97 57q55 0 55 -47q0 -49 -19 -73
q-7 -9 -14 5q-18 40 -66 40q-36 0 -36 -34q0 -30 41 -60q38 -28 70 -28q33 0 108 16zM893 265q0 -67 -33 -143q-22 -51 -37 -68q-46 -53 -184 -53h-110v141h81q236 0 236 49q0 46 -87 156l62 130q6 14 14 1q58 -96 58 -213z" />
    <glyph glyph-name="uniFBEF" unicode="&#xfbef;" horiz-adv-x="1027" arabic-form="final" 
d="M621 1h-135q-22 -156 -128 -306q-143 -203 -349 -203q-88 0 -197 87q-61 49 -61 65q0 6 10 6q-51 0 54.5 -21.5t150.5 -21.5q174 0 320 141q117 113 134 207q3 17 1 49q-123 0 -160 12q-68 22 -68 99q0 72 58 183q65 124 129 124q45 0 83 -121q28 -94 32 -159h126v-141z
M419 158q-1 43 -22 79q-24 44 -64 44q-31 0 -55 -40q-20 -34 -20 -68q0 -9 3 -13q6 -12 62 -14q59 -2 96 12zM949 682l-37 -83q-131 -23 -291 -88q12 24 28 50q45 51 85 64l-50 32q-20 17 -20 45q0 47 49.5 104t95.5 57q56 0 56 -47q0 -48 -19 -73q-7 -10 -14 5
q-18 40 -66 40q-36 0 -36 -34q0 -31 39 -59.5t72 -28.5q18 0 108 16zM1035 1h-71q-142 0 -188 142q-28 -58 -87 -100t-121 -42h-49v141h71q130 0 190 121q20 40 25 42q8 0 24 -53q32 -110 150 -110h56v-141z" />
    <glyph glyph-name="uniFBF0" unicode="&#xfbf0;" horiz-adv-x="1001" arabic-form="isolated" 
d="M631 1h-135q-22 -156 -128 -306q-143 -203 -349 -203q-88 0 -197 87q-61 49 -61 65q0 6 10 6q-51 0 54.5 -21.5t150.5 -21.5q174 0 320 141q117 113 134 207q3 17 1 49q-123 0 -160 12q-68 22 -68 99q0 72 58 183q65 124 129 124q45 0 83 -121q28 -94 32 -159h126v-141z
M429 158q-1 43 -22 79q-24 44 -64 44q-31 0 -55 -40q-20 -34 -20 -68q0 -9 3 -13q6 -12 62 -14q59 -2 96 12zM254 999q11 63 80 63q50 0 88 -51t38 -122q0 -23 -4 -46q-24 -136 -160 -200q-9 -4 -10 3q-2 6 7 11q88 52 106 155q8 49 -14 101q-27 -14 -56 -14q-77 0 -77 76
q0 10 2 24zM937 829q-17 -43 -37 -83q-38 -6 -113 -19q-78 -15 -160 -49q3 13 11 31q40 48 85 63q-25 16 -51 31q-21 17 -21 46q0 47 50 104t97 57q55 0 55 -47q0 -49 -19 -73q-7 -9 -14 5q-18 40 -66 40q-36 0 -36 -34q0 -30 41 -60q38 -28 70 -28q33 0 108 16zM893 265
q0 -67 -33 -143q-22 -51 -37 -68q-46 -53 -184 -53h-110v141h81q236 0 236 49q0 46 -87 156l62 130q6 14 14 1q58 -96 58 -213z" />
    <glyph glyph-name="uniFBF1" unicode="&#xfbf1;" horiz-adv-x="1011" arabic-form="final" 
d="M631 1h-135q-22 -156 -128 -306q-143 -203 -349 -203q-88 0 -197 87q-61 49 -61 65q0 6 10 6q-51 0 54.5 -21.5t150.5 -21.5q174 0 320 141q117 113 134 207q3 17 1 49q-123 0 -160 12q-68 22 -68 99q0 72 58 183q65 124 129 124q45 0 83 -121q28 -94 32 -159h126v-141z
M429 158q-1 43 -22 79q-24 44 -64 44q-31 0 -55 -40q-20 -34 -20 -68q0 -9 3 -13q6 -12 62 -14q59 -2 96 12zM254 999q11 63 80 63q50 0 88 -51t38 -122q0 -23 -4 -46q-24 -136 -160 -200q-9 -4 -10 3q-2 6 7 11q88 52 106 155q8 49 -14 101q-27 -14 -56 -14q-77 0 -77 76
q0 10 2 24zM959 682l-37 -83q-131 -23 -291 -88q12 24 28 50q45 51 85 64l-50 32q-20 17 -20 45q0 47 49.5 104t95.5 57q56 0 56 -47q0 -48 -19 -73q-7 -10 -14 5q-18 40 -66 40q-36 0 -36 -34q0 -31 39 -59.5t72 -28.5q18 0 108 16zM1045 1h-71q-142 0 -188 142
q-28 -58 -87 -100t-121 -42h-49v141h71q130 0 190 121q20 40 25 42q8 0 24 -53q32 -110 150 -110h56v-141z" />
    <glyph glyph-name="uniFBF2" unicode="&#xfbf2;" horiz-adv-x="982" arabic-form="isolated" 
d="M631 1h-135q-22 -156 -128 -306q-143 -203 -349 -203q-88 0 -197 87q-61 49 -61 65q0 6 10 6q-51 0 54.5 -21.5t150.5 -21.5q174 0 320 141q117 113 134 207q3 17 1 49q-123 0 -160 12q-68 22 -68 99q0 72 58 183q65 124 129 124q45 0 83 -121q28 -94 32 -159h126v-141z
M429 158q-1 43 -22 79q-24 44 -64 44q-31 0 -55 -40q-20 -34 -20 -68q0 -9 3 -13q6 -12 62 -14q59 -2 96 12zM482 952l-152 -242l-152 242h37l115 -132l116 132h36zM937 829q-17 -43 -37 -83q-38 -6 -113 -19q-78 -15 -160 -49q3 13 11 31q40 48 85 63q-25 16 -51 31
q-21 17 -21 46q0 47 50 104t97 57q55 0 55 -47q0 -49 -19 -73q-7 -9 -14 5q-18 40 -66 40q-36 0 -36 -34q0 -30 41 -60q38 -28 70 -28q33 0 108 16zM893 265q0 -67 -33 -143q-22 -51 -37 -68q-46 -53 -184 -53h-110v141h81q236 0 236 49q0 46 -87 156l62 130q6 14 14 1
q58 -96 58 -213z" />
    <glyph glyph-name="uniFBF3" unicode="&#xfbf3;" horiz-adv-x="1072" arabic-form="final" 
d="M631 1h-135q-22 -156 -128 -306q-143 -203 -349 -203q-88 0 -197 87q-61 49 -61 65q0 6 10 6q-51 0 54.5 -21.5t150.5 -21.5q174 0 320 141q117 113 134 207q3 17 1 49q-123 0 -160 12q-68 22 -68 99q0 72 58 183q65 124 129 124q45 0 83 -121q28 -94 32 -159h126v-141z
M429 158q-1 43 -22 79q-24 44 -64 44q-31 0 -55 -40q-20 -34 -20 -68q0 -9 3 -13q6 -12 62 -14q59 -2 96 12zM482 952l-152 -242l-152 242h37l115 -132l116 132h36zM999 682l-37 -83q-131 -23 -291 -88q12 24 28 50q45 51 85 64l-50 32q-20 17 -20 45q0 47 49.5 104t95.5 57
q56 0 56 -47q0 -48 -19 -73q-7 -10 -14 5q-18 40 -66 40q-36 0 -36 -34q0 -31 39 -59.5t72 -28.5q18 0 108 16zM1085 1h-71q-142 0 -188 142q-28 -58 -87 -100t-121 -42h-49v141h71q130 0 190 121q20 40 25 42q8 0 24 -53q32 -110 150 -110h56v-141z" />
    <glyph glyph-name="uniFBF4" unicode="&#xfbf4;" horiz-adv-x="1001" arabic-form="isolated" 
d="M621 1h-135q-22 -156 -128 -306q-143 -203 -349 -203q-88 0 -197 87q-61 49 -61 65q0 6 10 6q-51 0 54.5 -21.5t150.5 -21.5q174 0 320 141q117 113 134 207q3 17 1 49q-123 0 -160 12q-68 22 -68 99q0 72 58 183q65 124 129 124q45 0 83 -121q28 -94 32 -159h126v-141z
M419 158q-1 43 -22 79q-24 44 -64 44q-31 0 -55 -40q-20 -34 -20 -68q0 -9 3 -13q6 -12 62 -14q59 -2 96 12zM348 895q11 -61 -32 -97q-9 -2 -17 3q1 42 -23 142q-18 75 -36 200q17 14 60 48q9 7 11 3q1 -5 -1 -21q-3 -36 38 -278zM927 829q-17 -43 -37 -83q-38 -6 -113 -19
q-78 -15 -160 -49q3 13 11 31q40 48 85 63q-25 16 -51 31q-21 17 -21 46q0 47 50 104t97 57q55 0 55 -47q0 -49 -19 -73q-7 -9 -14 5q-18 40 -66 40q-36 0 -36 -34q0 -30 41 -60q38 -28 70 -28q33 0 108 16zM883 265q0 -67 -33 -143q-22 -51 -37 -68q-46 -53 -184 -53h-110
v141h81q236 0 236 49q0 46 -87 156l62 130q6 14 14 1q58 -96 58 -213z" />
    <glyph glyph-name="uniFBF5" unicode="&#xfbf5;" horiz-adv-x="1051" arabic-form="final" 
d="M621 1h-135q-22 -156 -128 -306q-143 -203 -349 -203q-88 0 -197 87q-61 49 -61 65q0 6 10 6q-51 0 54.5 -21.5t150.5 -21.5q174 0 320 141q117 113 134 207q3 17 1 49q-123 0 -160 12q-68 22 -68 99q0 72 58 183q65 124 129 124q45 0 83 -121q28 -94 32 -159h126v-141z
M419 158q-1 43 -22 79q-24 44 -64 44q-31 0 -55 -40q-20 -34 -20 -68q0 -9 3 -13q6 -12 62 -14q59 -2 96 12zM348 895q11 -61 -32 -97q-9 -2 -17 3q1 42 -23 142q-18 75 -36 200q17 14 60 48q9 7 11 3q1 -5 -1 -21q-3 -36 38 -278zM979 682l-37 -83q-131 -23 -291 -88
q12 24 28 50q45 51 85 64l-50 32q-20 17 -20 45q0 47 49.5 104t95.5 57q56 0 56 -47q0 -48 -19 -73q-7 -10 -14 5q-18 40 -66 40q-36 0 -36 -34q0 -31 39 -59.5t72 -28.5q18 0 108 16zM1065 1h-71q-142 0 -188 142q-28 -58 -87 -100t-121 -42h-49v141h71q130 0 190 121
q20 40 25 42q8 0 24 -53q32 -110 150 -110h56v-141z" />
    <glyph glyph-name="uniFBF6" unicode="&#xfbf6;" horiz-adv-x="1630" arabic-form="isolated" 
d="M1282 1h-139q-43 0 -116 -21q-89 -26 -89 -56q0 -10 19 -16q70 -14 172 -35t102 -55q0 -163 -260 -296q-227 -116 -408 -116q-157 0 -250 59q-114 72 -111 219q2 83 46 191q41 101 97 172q9 11 17 7q8 -5 2 -16q-94 -166 -94 -272q0 -129 106 -178q73 -34 225 -34
q184 0 373 80q162 69 162 102q0 12 -152.5 43t-152.5 76q0 59 97 166q109 121 213 121h141v-141zM1567 829q-17 -43 -37 -83q-38 -6 -113 -19q-78 -15 -160 -49q3 13 11 31q40 48 85 63q-25 16 -51 31q-21 17 -21 46q0 47 50 104t97 57q55 0 55 -47q0 -49 -19 -73
q-7 -9 -14 5q-18 40 -66 40q-36 0 -36 -34q0 -30 41 -60q38 -28 70 -28q33 0 108 16zM1523 265q0 -67 -33 -143q-22 -51 -37 -68q-46 -53 -184 -53h-110v141h81q236 0 236 49q0 46 -87 156l62 130q6 14 14 1q58 -96 58 -213zM760 -674q-20 -43 -57 -133q-56 33 -127 69
q6 13 56 137q46 -31 128 -73zM795 -866q-20 -43 -57 -133q-56 33 -127 69q6 13 56 137q46 -31 128 -73z" />
    <glyph glyph-name="uniFBF7" unicode="&#xfbf7;" horiz-adv-x="1670" arabic-form="final" 
d="M1282 1h-139q-43 0 -116 -21q-89 -26 -89 -56q0 -10 19 -16q70 -14 172 -35t102 -55q0 -163 -260 -296q-227 -116 -408 -116q-157 0 -250 59q-114 72 -111 219q2 83 46 191q41 101 97 172q9 11 17 7q8 -5 2 -16q-94 -166 -94 -272q0 -129 106 -178q73 -34 225 -34
q184 0 373 80q162 69 162 102q0 12 -152.5 43t-152.5 76q0 59 97 166q109 121 213 121h141v-141zM760 -674q-20 -43 -57 -133q-56 33 -127 69q6 13 56 137q46 -31 128 -73zM795 -866q-20 -43 -57 -133q-56 33 -127 69q6 13 56 137q46 -31 128 -73zM1629 682l-37 -83
q-131 -23 -291 -88q12 24 28 50q45 51 85 64l-50 32q-20 17 -20 45q0 47 49.5 104t95.5 57q56 0 56 -47q0 -48 -19 -73q-7 -10 -14 5q-18 40 -66 40q-36 0 -36 -34q0 -31 39 -59.5t72 -28.5q18 0 108 16zM1715 1h-71q-142 0 -188 142q-28 -58 -87 -100t-121 -42h-49v141h71
q130 0 190 121q20 40 25 42q8 0 24 -53q32 -110 150 -110h56v-141z" />
    <glyph glyph-name="uniFBF8" unicode="&#xfbf8;" horiz-adv-x="845" arabic-form="initial" 
d="M485 1h-71q-142 0 -188 142q-28 -58 -87 -100t-121 -42h-49v141h71q130 0 190 121q20 40 25 42q8 0 24 -53q32 -110 150 -110h56v-141zM337 -173q-20 -43 -57 -133q-56 33 -127 69q6 13 56 137q46 -31 128 -73zM381 -402q-20 -43 -57 -133q-56 33 -127 69q6 13 56 137
q46 -31 128 -73zM797 829q-17 -43 -37 -83q-38 -6 -113 -19q-78 -15 -160 -49q3 13 11 31q40 48 85 63q-25 16 -51 31q-21 17 -21 46q0 47 50 104t97 57q55 0 55 -47q0 -49 -19 -73q-7 -9 -14 5q-18 40 -66 40q-36 0 -36 -34q0 -30 41 -60q38 -28 70 -28q33 0 108 16z
M753 265q0 -67 -33 -143q-22 -51 -37 -68q-46 -53 -184 -53h-110v141h81q236 0 236 49q0 46 -87 156l62 130q6 14 14 1q58 -96 58 -213z" />
    <glyph glyph-name="uniFBF9" unicode="&#xfbf9;" horiz-adv-x="1587" arabic-form="isolated" 
d="M1282 1h-139q-43 0 -116 -21q-89 -26 -89 -56q0 -10 19 -16q70 -14 172 -35t102 -55q0 -163 -260 -296q-227 -116 -408 -116q-157 0 -250 59q-114 72 -111 219q2 83 46 191q41 101 97 172q9 11 17 7q8 -5 2 -16q-94 -166 -94 -272q0 -129 106 -178q73 -34 225 -34
q184 0 373 80q162 69 162 102q0 12 -152.5 43t-152.5 76q0 59 97 166q109 121 213 121h141v-141zM1567 829q-17 -43 -37 -83q-38 -6 -113 -19q-78 -15 -160 -49q3 13 11 31q40 48 85 63q-25 16 -51 31q-21 17 -21 46q0 47 50 104t97 57q55 0 55 -47q0 -49 -19 -73
q-7 -9 -14 5q-18 40 -66 40q-36 0 -36 -34q0 -30 41 -60q38 -28 70 -28q33 0 108 16zM1523 265q0 -67 -33 -143q-22 -51 -37 -68q-46 -53 -184 -53h-110v141h81q236 0 236 49q0 46 -87 156l62 130q6 14 14 1q58 -96 58 -213z" />
    <glyph glyph-name="uniFBFA" unicode="&#xfbfa;" horiz-adv-x="1647" arabic-form="final" 
d="M1282 1h-139q-43 0 -116 -21q-89 -26 -89 -56q0 -10 19 -16q70 -14 172 -35t102 -55q0 -163 -260 -296q-227 -116 -408 -116q-157 0 -250 59q-114 72 -111 219q2 83 46 191q41 101 97 172q9 11 17 7q8 -5 2 -16q-94 -166 -94 -272q0 -129 106 -178q73 -34 225 -34
q184 0 373 80q162 69 162 102q0 12 -152.5 43t-152.5 76q0 59 97 166q109 121 213 121h141v-141zM1599 682l-37 -83q-131 -23 -291 -88q12 24 28 50q45 51 85 64l-50 32q-20 17 -20 45q0 47 49.5 104t95.5 57q56 0 56 -47q0 -48 -19 -73q-7 -10 -14 5q-18 40 -66 40
q-36 0 -36 -34q0 -31 39 -59.5t72 -28.5q18 0 108 16zM1685 1h-71q-142 0 -188 142q-28 -58 -87 -100t-121 -42h-49v141h71q130 0 190 121q20 40 25 42q8 0 24 -53q32 -110 150 -110h56v-141z" />
    <glyph glyph-name="uniFBFB" unicode="&#xfbfb;" horiz-adv-x="838" arabic-form="initial" 
d="M485 1h-71q-142 0 -188 142q-28 -58 -87 -100t-121 -42h-49v141h71q130 0 190 121q20 40 25 42q8 0 24 -53q32 -110 150 -110h56v-141zM787 829q-17 -43 -37 -83q-38 -6 -113 -19q-78 -15 -160 -49q3 13 11 31q40 48 85 63q-25 16 -51 31q-21 17 -21 46q0 47 50 104
t97 57q55 0 55 -47q0 -49 -19 -73q-7 -9 -14 5q-18 40 -66 40q-36 0 -36 -34q0 -30 41 -60q38 -28 70 -28q33 0 108 16zM743 265q0 -67 -33 -143q-22 -51 -37 -68q-46 -53 -184 -53h-110v141h81q236 0 236 49q0 46 -87 156l62 130q6 14 14 1q58 -96 58 -213z" />
    <glyph glyph-name="afii57543-3" unicode="&#x6ad;" horiz-adv-x="1146" arabic-form="isolated" 
d="M1139 319q3 -18 4 -27t1 -28q0 -85 -44 -171q-36 -69 -64 -85q-37 -21 -173.5 -32t-304.5 -11q-161 0 -229 9q-96 12 -132 50q-1 2 -1 9.5v13.5q0 55 5 112q0 12 2 12q1 0 12 -7q37 -28 191 -40q115 -9 272 -9q118 0 250 19q159 24 154 54l-156 832q-10 48 -22 82.5
t-26 54.5l84 109q17 -28 56 -80q18 -25 46 -62l-36 -40q-20 -27 -20 -61v-11q2 -8 2 -13q12 -73 40 -220.5t58 -301.5q15 -79 31 -158zM698 611q0 -62 -51.5 -118t-102.5 -56q-47 0 -85 16.5t-68 44.5q-7 7 -8 11.5t6 3.5q52 -10 106 -10q52 0 87 10t44 30q-39 18 -78 38
q-86 30 -86 68q0 69 62 143q50 59 125 88v-92q-46 -11 -78.5 -29t-32.5 -34q0 -9 80 -37.5t80 -76.5zM598 1241q-17 -41 -59 -121l-115 69q32 62 56 121zM742 1020q-38 -59 -65 -108q-75 55 -120 80q-24 -33 -67 -98l-116 82q22 33 67 105q58 -41 124 -81l64 99z" />
    <glyph glyph-name="afii57454-3" unicode="&#x6ad;" horiz-adv-x="1681" arabic-form="final" 
d="M1017 677q0 -64 -51.5 -119t-103.5 -55q-47 0 -85.5 16.5t-66.5 42.5q-8 8 -9 13t7 4q51 -12 105 -12q53 0 87 11t43 30q-39 19 -77 38q-86 32 -86 69q0 70 63 145q50 60 125 87v-93q-41 -9 -76.5 -27.5t-35.5 -35.5q0 -10 80.5 -38t80.5 -76zM1712 1h-76q-83 0 -131 81
q-37 62 -49 163q0 28 -7 28t-13 -27q-20 -81 -57 -137q-28 -46 -71 -77q-47 -36 -200 -56t-421 -20q-231 0 -354 77q-137 86 -137 262q0 40 24 105.5t50 103.5q9 11 15 11q3 0 4 -3.5t-1 -8.5q-16 -31 -26 -78.5t-10 -84.5q0 -107 94 -170q113 -76 342 -76q416 0 582 50
q122 37 130 112q3 22 4 52t1 75q0 96 -6 216.5t-17.5 252.5t-20.5 219l73 122q5 8 7 8q3 0 6.5 -34t7 -139.5t7.5 -187.5q8 -153 25 -336t48 -264q36 -98 105 -98h72v-141zM888 1311q-17 -41 -59 -121l-115 69q32 62 56 121zM1032 1090q-38 -59 -65 -108q-75 55 -120 80
q-24 -33 -67 -98l-116 82q22 33 67 105q58 -41 124 -81l64 99z" />
    <glyph glyph-name="afii57451-3" unicode="&#x6ad;" horiz-adv-x="870" arabic-form="initial" 
d="M812 1171q-26 -82 -57 -131q-397 -134 -607 -270q-36 -23 -36 -32q0 -7 30 -23q179 -97 248 -155q165 -137 165 -300q0 -173 -153 -229q-82 -30 -271 -30h-161v141h187q151 0 204 9q141 23 141 106q0 60 -169 188q-135 101 -228 148q-27 30 -27 138q0 60 11 77
q296 230 723 363zM378 1441q-17 -41 -59 -121l-115 69q32 62 56 121zM522 1220q-38 -59 -65 -108q-75 55 -120 80q-24 -33 -67 -98l-116 82q22 33 67 105q58 -41 124 -81l64 99z" />
    <glyph glyph-name="glyph1051" unicode="&#x6ad;" horiz-adv-x="1000" arabic-form="medial" 
d="M1034 1h-80q-91 0 -216 123q-228 224 -264 253q16 -48 16 -96q0 -98 -59 -175q-80 -105 -361 -105h-101v141h148q335 0 335 166q0 63 -138 147q-173 105 -200 136q-35 40 -35 152q0 50 11 66q348 269 862 432q-24 -81 -57 -131q-487 -163 -745 -339q-41 -28 -41 -39
q0 -16 140 -98q82 -47 163 -93q88 -55 330 -260q164 -139 206 -139h86v-141zM455 1475q-17 -41 -59 -121l-115 69q32 62 56 121zM599 1254q-38 -59 -65 -108q-75 55 -120 80q-24 -33 -67 -98l-116 82q22 33 67 105q58 -41 124 -81l64 99z" />
    <glyph glyph-name="glyph1052" unicode="&#x6c7;" horiz-adv-x="832" arabic-form="isolated" 
d="M777 178q0 -284 -139.5 -513t-313.5 -229q-108 0 -287 95l21 19q72 -28 143 -28q169 0 322 146q88 83 141 194q54 107 54 195q0 54 -23 94q-59 -80 -114 -80q-57 0 -99 43t-42 101q0 67 73 219q47 101 108 101q62 0 109 -107.5t47 -249.5zM633 292q-19 52 -62 52
q-41 0 -41 -43q0 -51 44 -51q42 0 59 42zM720 910q0 -75 -59.5 -140t-117.5 -77l-34 -6q138 91 138 182q-15 31 -53 31q-9 0 -18 -2q30 0 15 -2q-13 -2 -21 -2q-70 7 -63 69q18 78 90 78q51 0 87 -37.5t36 -93.5z" />
    <glyph glyph-name="afii57471-3" unicode="&#x6c7;" horiz-adv-x="858" arabic-form="final" 
d="M928 0h-177q-58 -228 -134 -346q-138 -218 -323 -218q-101 0 -276 100l20 21q83 -33 140 -33q178 0 331.5 140t191.5 336h-38q-101 0 -165.5 33t-64.5 88q0 65 90 216q50 82 94 82q53 0 94 -82t44 -195h173v-142zM693 142q-37 129 -115 129q-17 0 -36 -16t-19 -40
q0 -30 45 -50q47 -23 125 -23zM724 910q0 -75 -60 -140t-118 -77l-34 -6q138 91 138 182q-15 31 -53 31q-9 0 -18 -2q30 0 15 -2q-13 -2 -21 -2q-70 7 -63 69q19 78 90 78q51 0 87.5 -37.5t36.5 -93.5z" />
    <glyph glyph-name="afii57458-3" unicode="&#x6c6;" horiz-adv-x="832" arabic-form="isolated" 
d="M777 178q0 -284 -139.5 -513t-313.5 -229q-108 0 -287 95l21 19q72 -28 143 -28q169 0 322 146q88 83 141 194q54 107 54 195q0 54 -23 94q-59 -80 -114 -80q-57 0 -99 43t-42 101q0 67 73 219q47 101 108 101q62 0 109 -107.5t47 -249.5zM633 292q-19 52 -62 52
q-41 0 -41 -43q0 -51 44 -51q42 0 59 42zM759 1071l-137 -328l-48 -6l-191 290l20 62l180 -205l140 244z" />
    <glyph glyph-name="afii57457-3" unicode="&#x6c6;" horiz-adv-x="858" arabic-form="final" 
d="M928 0h-177q-58 -228 -134 -346q-138 -218 -323 -218q-101 0 -276 100l20 21q83 -33 140 -33q178 0 331.5 140t191.5 336h-38q-101 0 -165.5 33t-64.5 88q0 65 90 216q50 82 94 82q53 0 94 -82t44 -195h173v-142zM693 142q-37 129 -115 129q-17 0 -36 -16t-19 -40
q0 -30 45 -50q47 -23 125 -23zM762 1071l-136 -328l-48 -6l-192 290l20 62l180 -205l140 244z" />
    <glyph glyph-name="afii57494-3" unicode="&#x6c8;" horiz-adv-x="832" arabic-form="isolated" 
d="M777 178q0 -284 -139.5 -513t-313.5 -229q-108 0 -287 95l21 19q72 -28 143 -28q169 0 322 146q88 83 141 194q54 107 54 195q0 54 -23 94q-59 -80 -114 -80q-57 0 -99 43t-42 101q0 67 73 219q47 101 108 101q62 0 109 -107.5t47 -249.5zM633 292q-19 52 -62 52
q-41 0 -41 -43q0 -51 44 -51q42 0 59 42zM607 710l-35 -4l-52 163q-18 44 -26 103q-13 37 -13 54q0 32 34 68q17 21 51 21q18 0 39 -5q48 -46 31 -162z" />
    <glyph glyph-name="afii57459-3" unicode="&#x6c8;" horiz-adv-x="858" arabic-form="final" 
d="M928 0h-177q-58 -228 -134 -346q-138 -218 -323 -218q-101 0 -276 100l20 21q83 -33 140 -33q178 0 331.5 140t191.5 336h-38q-101 0 -165.5 33t-64.5 88q0 65 90 216q50 82 94 82q53 0 94 -82t44 -195h173v-142zM693 142q-37 129 -115 129q-17 0 -36 -16t-19 -40
q0 -30 45 -50q47 -23 125 -23zM610 710l-35 -4l-52 163q-18 44 -26 103q-13 37 -13 54q0 32 34 68q18 21 53 21q16 0 37 -5q48 -46 32 -162z" />
    <glyph glyph-name="afii57455-3" unicode="&#x6c5;" horiz-adv-x="832" arabic-form="isolated" 
d="M777 178q0 -284 -139.5 -513t-313.5 -229q-108 0 -287 95l21 19q72 -28 143 -28q169 0 322 146l60 62q-93 46 -210.5 23t-242.5 64l16 26q114 -43 220 -7.5t272 -29.5l26 56q54 107 54 195q0 54 -23 94q-59 -80 -114 -80q-57 0 -99 43t-42 101q0 67 73 219
q47 101 108 101q62 0 109 -107.5t47 -249.5zM633 292q-19 52 -62 52q-41 0 -41 -43q0 -51 44 -51q42 0 59 42z" />
    <glyph glyph-name="afii57452-3" unicode="&#x6c5;" horiz-adv-x="858" arabic-form="final" 
d="M928 0h-177q-58 -228 -134 -346q-138 -218 -323 -218q-101 0 -276 100l20 21q83 -33 140 -33q220 11 363 184q-69 87 -204.5 52t-184.5 64l12 20q81 -55 204 -12.5t229 -60.5q54 46 104 229h-38q-101 0 -165.5 33t-64.5 88q0 65 90 216q50 82 94 82q53 0 94 -82t44 -195
h173v-142zM693 142q-37 129 -115 129q-17 0 -36 -16t-19 -40q0 -30 45 -50q47 -23 125 -23z" />
    <glyph glyph-name="glyph1060" unicode="&#x6c9;" horiz-adv-x="832" arabic-form="isolated" 
d="M777 178q0 -284 -139.5 -513t-313.5 -229q-108 0 -287 95l21 19q72 -28 143 -28q169 0 322 146q88 83 141 194q54 107 54 195q0 54 -23 94q-59 -80 -114 -80q-57 0 -99 43t-42 101q0 67 73 219q47 101 108 101q62 0 109 -107.5t47 -249.5zM633 292q-19 52 -62 52
q-41 0 -41 -43q0 -51 44 -51q42 0 59 42zM383 794l137 328l48 6l191 -291l-20 -62l-180 205l-140 -243z" />
    <glyph glyph-name="glyph1061" unicode="&#x6c9;" horiz-adv-x="858" arabic-form="final" 
d="M928 0h-177q-58 -228 -134 -346q-138 -218 -323 -218q-101 0 -276 100l20 21q83 -33 140 -33q178 0 331.5 140t191.5 336h-38q-101 0 -165.5 33t-64.5 88q0 65 90 216q50 82 94 82q53 0 94 -82t44 -195h173v-142zM693 142q-37 129 -115 129q-17 0 -36 -16t-19 -40
q0 -30 45 -50q47 -23 125 -23zM386 794l137 328l49 6l190 -291l-20 -62l-178 205l-142 -243z" />
    <glyph glyph-name="glyph1062" unicode="&#x6cb;" horiz-adv-x="832" arabic-form="isolated" 
d="M777 178q0 -284 -139.5 -513t-313.5 -229q-108 0 -287 95l21 19q72 -28 143 -28q169 0 322 146q88 83 141 194q54 107 54 195q0 54 -23 94q-59 -80 -114 -80q-57 0 -99 43t-42 101q0 67 73 219q47 101 108 101q62 0 109 -107.5t47 -249.5zM633 292q-19 52 -62 52
q-41 0 -41 -43q0 -51 44 -51q42 0 59 42zM614 1087l-73 -132l-121 76l73 134zM768 876l-72 -128l-125 77l-66 -117l-128 88l73 131l130 -80l65 108z" />
    <glyph glyph-name="afii62884-3" unicode="&#x6cb;" horiz-adv-x="858" arabic-form="final" 
d="M928 0h-177q-58 -228 -134 -346q-138 -218 -323 -218q-101 0 -276 100l20 21q83 -33 140 -33q178 0 331.5 140t191.5 336h-38q-101 0 -165.5 33t-64.5 88q0 65 90 216q50 82 94 82q53 0 94 -82t44 -195h173v-142zM693 142q-37 129 -115 129q-17 0 -36 -16t-19 -40
q0 -30 45 -50q47 -23 125 -23zM617 1087l-73 -132l-121 76l73 134zM772 876l-73 -128l-125 77l-65 -117l-129 88l74 131l129 -80l65 108z" />
    <glyph glyph-name="afii62881-3" unicode="&#x6d0;" horiz-adv-x="1358" arabic-form="isolated" 
d="M1278 750l-34 -171q-45 44 -95 44q-95 0 -225 -86.5t-130 -185.5q0 -81 138 -106l177 -32q105 -19 105 -76q0 -93 -38 -154q-60 -98 -287.5 -192t-407.5 -94q-197 0 -309.5 86.5t-112.5 234.5q0 119 61 258q30 71 124 237l26 -21q-128 -246 -128 -363q0 -122 104 -196
t278 -74q169 0 397 83q214 80 214 122q0 33 -60 41l-165 22q-204 27 -204 159q0 114 183 307q160 171 311 171q34 0 78 -14zM546 -364l123 -80l-79 -123l110 -66l-81 -128l-128 77l79 124l-109 68z" />
    <glyph glyph-name="afii62886-3" unicode="&#x6d0;" horiz-adv-x="1152" arabic-form="final" 
d="M1212 0h-152q-105 0 -150.5 -20t-57.5 -45q0 -34 72 -48l100 -20q144 -29 144 -130q-23 -140 -230 -229q-209 -93 -434 -93q-186 0 -290 92.5t-104 244.5q0 144 103 327l21 -17q-63 -138 -63 -240q0 -106 96.5 -175.5t263.5 -69.5q157 0 368 60q190 49 214 100
q0 29 -94 37l-167 14q-109 9 -109 77q12 88 84 168q111 109 248 109h137v-142zM760 -664q-20 -43 -57 -133q-56 33 -127 69q6 13 56 137q46 -31 128 -73zM795 -856q-20 -43 -57 -133q-56 33 -127 69q6 13 56 137q46 -31 128 -73z" />
    <glyph glyph-name="afii62883-3" unicode="&#x6d0;" horiz-adv-x="439" arabic-form="initial" 
d="M312 315q0 -315 -229 -315h-83v142h83q61 0 116 24q59 27 59 64q0 20 -11 39l-51 82q-16 28 -16 51q0 25 14 46l64 99q54 -117 54 -232zM122 -149l122 -80l-79 -123l111 -67l-82 -127l-127 77l78 124l-109 68z" />
    <glyph glyph-name="afii62885-3" unicode="&#x6d0;" horiz-adv-x="461" arabic-form="medial" 
d="M529 0h-164q-26 0 -61.5 45.5t-38.5 89.5q-70 -135 -182 -135h-83v142h83q105 0 227 166l14 -5q12 -92 29 -123q22 -38 76 -38h100v-142zM216 -149l123 -80l-80 -123l111 -67l-83 -127l-127 77l80 124l-109 68z" />
    <glyph glyph-name=".notdef" horiz-adv-x="1778" 
d="M284 -152v1509h1208v-1509h-1208zM321 -115h1134v1434h-1134v-1434z" />
    <glyph glyph-name=".null" horiz-adv-x="512" 
 />
    <glyph glyph-name="nonmarkingreturn" horiz-adv-x="512" 
 />
    <glyph glyph-name="space" unicode=" " horiz-adv-x="512" 
 />
    <glyph glyph-name="space" unicode="&#xa0;" horiz-adv-x="512" 
 />
    <glyph glyph-name="exclam" unicode="!" horiz-adv-x="682" 
d="M360 359h-38l-88 810q-6 53 -6 79q0 63 33.5 101t80.5 38t79.5 -38t32.5 -113q0 -24 -4 -67zM340 193q46 0 78.5 -32.5t32.5 -77.5q0 -46 -32.5 -78.5t-78.5 -32.5t-78.5 32.5t-32.5 78.5q0 45 32.5 77.5t78.5 32.5z" />
    <glyph glyph-name="quotedbl" unicode="&#x22;" horiz-adv-x="836" 
d="M576 803l-54 292l-22 121q-2 25 -2 50q0 63 28 92t74 29q43 0 71.5 -29t28.5 -78q0 -85 -19 -184l-57 -293h-48zM210 803l-55 296q-22 122 -22 166q0 64 26.5 93t71.5 29q44 0 73 -29.5t29 -78.5q0 -39 -26 -181l-54 -295h-43z" />
    <glyph glyph-name="numbersign" unicode="#" 
d="M115 -28l93 455h-171v82h187l69 343h-256v80h275l91 455h83l-91 -455h337l97 455h83l-95 -455h170v-80h-185l-70 -343h255v-82h-272l-93 -455h-81l91 455h-339l-95 -455h-83zM308 509h339l72 343h-341z" />
    <glyph glyph-name="dollar" unicode="$" 
d="M108 334h44q11 -137 86 -210t224 -87v584q-225 139 -300 246q-53 76 -53 185q0 123 91.5 215t261.5 111v92h64v-92q82 -5 138 -19q29 -7 192 -69v-299h-39q-13 159 -82.5 232.5t-208.5 87.5v-508q252 -176 323.5 -259.5t71.5 -207.5q0 -138 -104.5 -243t-290.5 -121v-128
h-64v128q-94 4 -175 21.5t-179 57.5v283zM462 845v465q-100 -12 -148.5 -63.5t-48.5 -129.5q0 -73 44 -136.5t153 -135.5zM526 37q75 13 115 37q56 35 88.5 91.5t32.5 120.5q0 66 -39.5 125t-196.5 167v-541z" />
    <glyph glyph-name="percent" unicode="%" horiz-adv-x="1706" 
d="M1392 1387l-988 -1443h-89l988 1443h89zM364 1387q135 0 209.5 -112t74.5 -257q0 -174 -84 -269t-202 -95q-79 0 -145 43.5t-105.5 129.5t-39.5 191t40 193.5t109.5 132t142.5 43.5zM361 1331q-51 0 -90.5 -60t-39.5 -252q0 -139 22 -212q17 -55 53 -85q21 -18 52 -18
q48 0 82 52q50 77 50 257q0 190 -49 267q-32 51 -80 51zM1346 673q71 0 141.5 -45t109 -131t38.5 -189q0 -177 -85 -270.5t-201 -93.5q-73 0 -141.5 45t-108 128.5t-39.5 190.5q0 105 39.5 192t108 130t138.5 43zM1347 620q-48 0 -83 -54q-45 -70 -45 -265q0 -179 46 -250
q34 -51 82 -51q46 0 82 55q48 73 48 251q0 188 -48 263q-33 51 -82 51z" />
    <glyph glyph-name="ampersand" unicode="&#x26;" horiz-adv-x="1593" 
d="M1045 873h420v-37q-87 -7 -128.5 -38.5t-129.5 -190.5t-198 -297q89 -104 159 -145.5t141 -41.5q69 0 117 37.5t68 110.5l37 -27q-37 -141 -119 -208t-191 -67q-82 0 -166.5 44.5t-184.5 150.5q-124 -110 -223.5 -152.5t-212.5 -42.5q-165 0 -262 88t-97 210
q0 121 87 241.5t327 249.5q-47 104 -64 170.5t-17 127.5q0 171 126 261q98 70 223 70q119 0 194 -70.5t75 -173.5q0 -106 -72.5 -186t-256.5 -175q127 -226 265 -414q176 210 176 354q0 46 -30 82q-22 27 -63 32v37zM663 847q124 59 185.5 134t61.5 167q0 72 -44.5 119
t-110.5 47q-87 0 -131.5 -60.5t-44.5 -118.5q0 -49 17 -109.5t67 -178.5zM818 222q-132 180 -183 263t-112 206q-120 -69 -180.5 -152t-60.5 -180q0 -107 69 -188t186 -81q63 0 121.5 25t159.5 107z" />
    <glyph glyph-name="quotesingle" unicode="'" horiz-adv-x="369" 
d="M158 803l-54 296q-23 123 -23 166q0 64 26 93t71 29t74.5 -29.5t29.5 -77.5q0 -37 -26 -182l-54 -295h-44z" />
    <glyph glyph-name="parenleft" unicode="(" horiz-adv-x="682" 
d="M636 -401v-37q-151 76 -252 178q-144 145 -222 342t-78 409q0 310 153 565.5t399 365.5v-42q-123 -68 -202 -186t-118 -299t-39 -378q0 -214 33 -389q26 -138 63 -221.5t99.5 -160.5t163.5 -147z" />
    <glyph glyph-name="parenright" unicode=")" horiz-adv-x="682" 
d="M46 1380v42q152 -75 253 -177q143 -146 221 -342.5t78 -409.5q0 -310 -152.5 -565.5t-399.5 -365.5v37q123 69 202.5 186.5t118 299t38.5 378.5q0 213 -33 389q-25 138 -62.5 221t-99.5 160t-164 147z" />
    <glyph glyph-name="asterisk" unicode="*" 
d="M494 1044q-4 69 -28 137q-34 98 -34 135q0 52 24.5 79t60.5 27q31 0 54 -27t23 -77q0 -45 -26.5 -125.5t-32.5 -148.5q55 35 99 85q68 79 101 98t67 19q33 0 55.5 -22.5t22.5 -53.5q0 -37 -33 -66t-165 -58q-77 -17 -128 -39q52 -27 127 -41q121 -22 158.5 -55t37.5 -72
q0 -30 -22.5 -52t-52.5 -22t-66.5 21t-98.5 94q-41 49 -102 92q2 -57 23 -124q36 -118 36 -161q0 -40 -24 -67.5t-51 -27.5q-37 0 -67 29q-21 21 -21 67q0 48 23 115.5t29 93t11 75.5q-59 -39 -103 -87q-73 -82 -110 -104q-26 -16 -54 -16q-34 0 -58 23t-24 51
q0 25 20.5 52.5t61.5 45.5q27 12 123 32q62 13 121 38q-54 27 -129 42q-123 26 -152 47q-45 33 -45 80q0 27 22.5 49.5t52.5 22.5q33 0 70 -21t92 -84.5t112 -98.5z" />
    <glyph glyph-name="plus" unicode="+" horiz-adv-x="1155" 
d="M535 141v499h-498v82h498v497h80v-497h500v-82h-500v-499h-80z" />
    <glyph glyph-name="comma" unicode="," horiz-adv-x="512" 
d="M110 -341v44q103 34 159.5 105.5t56.5 151.5q0 19 -9 32q-7 9 -14 9q-11 0 -48 -20q-18 -9 -38 -9q-49 0 -78 29t-29 80q0 49 37.5 84t91.5 35q66 0 117.5 -57.5t51.5 -152.5q0 -103 -71.5 -191.5t-226.5 -139.5z" />
    <glyph glyph-name="hyphen" unicode="-" horiz-adv-x="900" 
d="M197 145h517v-145h-517v145z" />
    <glyph glyph-name="hyphen" unicode="&#xad;" horiz-adv-x="900" 
d="M197 145h517v-145h-517v145z" />
    <glyph glyph-name="period" unicode="." horiz-adv-x="512" 
d="M256 194q47 0 79 -32.5t32 -78.5t-32.5 -78.5t-78.5 -32.5t-78.5 32.5t-32.5 78.5q0 47 32.5 79t78.5 32z" />
    <glyph glyph-name="slash" unicode="/" horiz-adv-x="569" 
d="M574 1422l-491 -1450h-80l491 1450h80z" />
    <glyph glyph-name="zero" unicode="0" 
d="M74 670q0 232 70 399.5t186 249.5q90 65 186 65q156 0 280 -159q155 -197 155 -534q0 -236 -68 -401t-173.5 -239.5t-203.5 -74.5q-194 0 -323 229q-109 193 -109 465zM270 645q0 -280 69 -457q57 -149 170 -149q54 0 112 48.5t88 162.5q46 172 46 485q0 232 -48 387
q-36 115 -93 163q-41 33 -99 33q-68 0 -121 -61q-72 -83 -98 -261t-26 -351z" />
    <glyph glyph-name="one" unicode="1" 
d="M240 1223l330 161h33v-1145q0 -114 9.5 -142t39.5 -43t122 -17v-37h-510v37q96 2 124 16.5t39 39t11 146.5v732q0 148 -10 190q-7 32 -25.5 47t-44.5 15q-37 0 -103 -31z" />
    <glyph glyph-name="two" unicode="2" 
d="M939 261l-95 -261h-800v37q353 322 497 526t144 373q0 129 -79 212t-189 83q-100 0 -179.5 -58.5t-117.5 -171.5h-37q25 185 128.5 284t258.5 99q165 0 275.5 -106t110.5 -250q0 -103 -48 -206q-74 -162 -240 -343q-249 -272 -311 -328h354q108 0 151.5 8t78.5 32.5
t61 69.5h37z" />
    <glyph glyph-name="three" unicode="3" 
d="M104 1098q58 137 146.5 211.5t220.5 74.5q163 0 250 -106q66 -79 66 -169q0 -148 -186 -306q125 -49 189 -140t64 -214q0 -176 -112 -305q-146 -168 -423 -168q-137 0 -186.5 34t-49.5 73q0 29 23.5 51t56.5 22q25 0 51 -8q17 -5 77 -36.5t83 -37.5q37 -11 79 -11
q102 0 177.5 79t75.5 187q0 79 -35 154q-26 56 -57 85q-43 40 -118 72.5t-153 32.5h-32v30q79 10 158.5 57t115.5 113t36 145q0 103 -64.5 166.5t-160.5 63.5q-155 0 -259 -166z" />
    <glyph glyph-name="four" unicode="4" 
d="M953 500v-142h-182v-358h-165v358h-574v128l629 898h110v-884h182zM606 500v673l-476 -673h476z" />
    <glyph glyph-name="five" unicode="5" 
d="M889 1356l-78 -170h-408l-89 -182q265 -39 420 -197q133 -136 133 -320q0 -107 -43.5 -198t-109.5 -155t-147 -103q-115 -55 -236 -55q-122 0 -177.5 41.5t-55.5 91.5q0 28 23 49.5t58 21.5q26 0 45.5 -8t66.5 -41q75 -52 152 -52q117 0 205.5 88.5t88.5 215.5
q0 123 -79 229.5t-218 164.5q-109 45 -297 52l260 527h486z" />
    <glyph glyph-name="six" unicode="6" 
d="M918 1384v-37q-132 -13 -215.5 -52.5t-165 -120.5t-135 -180.5t-89.5 -236.5q144 99 289 99q139 0 241 -112t102 -288q0 -170 -103 -310q-124 -170 -328 -170q-139 0 -236 92q-190 179 -190 464q0 182 73 346t208.5 291t259.5 171t231 44h58zM296 684q-18 -135 -18 -218
q0 -96 35.5 -208.5t105.5 -178.5q51 -47 124 -47q87 0 155.5 82t68.5 234q0 171 -68 296t-193 125q-38 0 -81.5 -16t-128.5 -69z" />
    <glyph glyph-name="seven" unicode="7" 
d="M206 1356h727v-38l-452 -1346h-112l405 1221h-373q-113 0 -161 -27q-84 -46 -135 -142l-29 11z" />
    <glyph glyph-name="eight" unicode="8" 
d="M393 683q-161 132 -207.5 212t-46.5 166q0 132 102 227.5t271 95.5q164 0 264 -89t100 -203q0 -76 -54 -155t-225 -186q176 -136 233 -214q76 -102 76 -215q0 -143 -109 -244.5t-286 -101.5q-193 0 -301 121q-86 97 -86 212q0 90 60.5 178.5t208.5 195.5zM550 790
q120 108 152 170.5t32 141.5q0 105 -59 164.5t-161 59.5t-166 -59t-64 -138q0 -52 26.5 -104t75.5 -99zM440 645q-83 -70 -123 -152.5t-40 -178.5q0 -129 70.5 -206.5t179.5 -77.5q108 0 173 61t65 148q0 72 -38 129q-71 106 -287 277z" />
    <glyph glyph-name="nine" unicode="9" 
d="M108 -28v37q130 2 242 60.5t216.5 204.5t145.5 321q-157 -101 -284 -101q-143 0 -245 110.5t-102 293.5q0 178 102 317q123 169 321 169q167 0 286 -138q146 -171 146 -422q0 -226 -111 -421.5t-309 -324.5q-161 -106 -351 -106h-57zM728 669q18 130 18 208
q0 97 -33 209.5t-93.5 172.5t-137.5 60q-89 0 -156 -80t-67 -238q0 -211 89 -330q65 -86 160 -86q46 0 109 22t111 62z" />
    <glyph glyph-name="colon" unicode=":" horiz-adv-x="569" 
d="M289 944q46 0 78.5 -32.5t32.5 -78.5t-32.5 -78.5t-78.5 -32.5t-78.5 32.5t-32.5 78.5t32.5 78.5t78.5 32.5zM287 195q47 0 79.5 -33t32.5 -79t-33 -78.5t-79 -32.5t-78.5 32.5t-32.5 78.5t32.5 79t78.5 33z" />
    <glyph glyph-name="semicolon" unicode=";" horiz-adv-x="569" 
d="M282 945q46 0 78.5 -32t32.5 -78t-32.5 -78.5t-78.5 -32.5t-78.5 32.5t-32.5 78.5t32.5 78t78.5 32zM142 -341v44q103 34 159.5 105.5t56.5 151.5q0 19 -9 32q-7 9 -14 9q-11 0 -48 -20q-18 -9 -38 -9q-49 0 -78 29t-29 80q0 49 37.5 84t91.5 35q66 0 117.5 -57.5
t51.5 -152.5q0 -103 -71.5 -191.5t-226.5 -139.5z" />
    <glyph glyph-name="semicolon" unicode="&#x37e;" horiz-adv-x="569" 
d="M282 945q46 0 78.5 -32t32.5 -78t-32.5 -78.5t-78.5 -32.5t-78.5 32.5t-32.5 78.5t32.5 78t78.5 32zM142 -341v44q103 34 159.5 105.5t56.5 151.5q0 19 -9 32q-7 9 -14 9q-11 0 -48 -20q-18 -9 -38 -9q-49 0 -78 29t-29 80q0 49 37.5 84t91.5 35q66 0 117.5 -57.5
t51.5 -152.5q0 -103 -71.5 -191.5t-226.5 -139.5z" />
    <glyph glyph-name="less" unicode="&#x3c;" horiz-adv-x="1155" 
d="M37 706l1076 466v-87l-926 -402l926 -406v-90l-1076 470v49z" />
    <glyph glyph-name="equal" unicode="=" horiz-adv-x="1155" 
d="M37 883h1079v-82h-1079v82zM37 557h1079v-82h-1079v82z" />
    <glyph glyph-name="greater" unicode="&#x3e;" horiz-adv-x="1155" 
d="M1113 653l-1076 -466v86l927 402l-927 406v91l1076 -470v-49z" />
    <glyph glyph-name="question" unicode="?" horiz-adv-x="909" 
d="M454 320h-41q7 126 31.5 208.5t101.5 229.5q60 113 78 173.5t18 122.5q0 127 -67.5 202t-165.5 75q-87 0 -137 -41t-50 -89q0 -37 30 -91t30 -82q0 -36 -23 -60.5t-56 -24.5q-42 0 -76.5 41.5t-34.5 115.5q0 113 97 200t263 87q206 0 303 -120q72 -88 72 -195
q0 -73 -32.5 -150t-123.5 -181q-145 -164 -177.5 -232.5t-39.5 -188.5zM440 196q47 0 79.5 -32.5t32.5 -79.5q0 -46 -33 -78.5t-79 -32.5t-78.5 32.5t-32.5 78.5q0 47 32.5 79.5t78.5 32.5z" />
    <glyph glyph-name="at" unicode="@" horiz-adv-x="1886" 
d="M1408 958l-117 -399q-65 -224 -79 -284t-14 -96q0 -32 21.5 -54t53.5 -22q73 0 175.5 73t175.5 237t73 342q0 171 -82.5 316t-233 222.5t-332.5 77.5q-231 0 -429 -122.5t-313.5 -352.5t-115.5 -478q0 -230 101.5 -418t285.5 -284.5t396 -96.5q263 0 475.5 141t328.5 412
h58q-90 -274 -327 -444t-540 -170q-238 0 -442 112.5t-317 319t-113 454.5q0 264 124 492.5t347.5 357t474.5 128.5q207 0 373.5 -85.5t253.5 -250t87 -349.5q0 -183 -81.5 -362.5t-207.5 -261.5t-263 -82q-76 0 -114.5 36t-38.5 101q0 56 18 147q-148 -179 -237 -232
t-157 -53q-71 0 -126 63.5t-55 169.5q0 145 94.5 325t250.5 293q115 83 206 83q67 0 111.5 -34.5t60.5 -103.5l33 110zM1057 917q-75 0 -152 -79q-113 -116 -193 -313q-59 -144 -59 -232q0 -63 35.5 -102.5t79.5 -39.5q58 0 122 44t134 135.5t102 183.5q56 159 56 259
q0 66 -36.5 105t-88.5 39z" />
    <glyph glyph-name="A" unicode="A" horiz-adv-x="1479" 
d="M937 454h-525l-92 -214q-34 -79 -34 -118q0 -31 29.5 -54.5t127.5 -30.5v-37h-427v37q85 15 110 39q51 48 113 195l477 1116h35l472 -1128q57 -136 103.5 -176.5t129.5 -45.5v-37h-535v37q81 4 109.5 27t28.5 56q0 44 -40 139zM909 528l-230 548l-236 -548h466z" />
    <glyph glyph-name="B" unicode="B" horiz-adv-x="1366" 
d="M946 692q141 -30 211 -96q97 -92 97 -225q0 -101 -64 -193.5t-175.5 -135t-340.5 -42.5h-640v37h51q85 0 122 54q23 35 23 149v876q0 126 -29 159q-39 44 -116 44h-51v37h586q164 0 263 -24q150 -36 229 -127.5t79 -210.5q0 -102 -62 -182.5t-183 -119.5zM422 746
q37 -7 84.5 -10.5t104.5 -3.5q146 0 219.5 31.5t112.5 96.5t39 142q0 119 -97 203t-283 84q-100 0 -180 -22v-521zM422 98q116 -27 229 -27q181 0 276 81.5t95 201.5q0 79 -43 152t-140 115t-240 42q-62 0 -106 -2t-71 -7v-556z" />
    <glyph glyph-name="C" unicode="C" horiz-adv-x="1366" 
d="M1233 1387l31 -461h-31q-62 207 -177 298t-276 91q-135 0 -244 -68.5t-171.5 -218.5t-62.5 -373q0 -184 59 -319t177.5 -207t270.5 -72q132 0 233 56.5t222 224.5l31 -20q-102 -181 -238 -265t-323 -84q-337 0 -522 250q-138 186 -138 438q0 203 91 373t250.5 263.5
t348.5 93.5q147 0 290 -72q42 -22 60 -22q27 0 47 19q26 27 37 75h35z" />
    <glyph glyph-name="D" unicode="D" horiz-adv-x="1479" 
d="M35 0v37h51q86 0 122 55q22 33 22 148v876q0 127 -28 159q-39 44 -116 44h-51v37h552q304 0 462.5 -69t255 -230t96.5 -372q0 -283 -172 -473q-193 -212 -588 -212h-606zM422 98q127 -28 213 -28q232 0 385 163t153 442q0 281 -153 443t-393 162q-90 0 -205 -29v-1153z
" />
    <glyph glyph-name="E" unicode="E" horiz-adv-x="1251" 
d="M428 1282v-536h298q116 0 155 35q52 46 58 162h37v-472h-37q-14 99 -28 127q-18 35 -59 55t-126 20h-298v-447q0 -90 8 -109.5t28 -31t76 -11.5h230q115 0 167 16t100 63q62 62 127 187h40l-117 -340h-1045v37h48q48 0 91 23q32 16 43.5 48t11.5 131v881q0 129 -26 159
q-36 40 -120 40h-48v37h1045l15 -297h-39q-21 107 -46.5 147t-75.5 61q-40 15 -141 15h-372z" />
    <glyph glyph-name="F" unicode="F" horiz-adv-x="1139" 
d="M419 1282v-533h247q85 0 124.5 37.5t52.5 148.5h37v-459h-37q-1 79 -20.5 116t-54 55.5t-102.5 18.5h-247v-426q0 -103 13 -136q10 -25 42 -43q44 -24 92 -24h49v-37h-582v37h48q84 0 122 49q24 32 24 154v876q0 103 -13 136q-10 25 -41 43q-43 24 -92 24h-48v37h1009
l13 -298h-35q-26 95 -60.5 139.5t-85 64.5t-156.5 20h-299z" />
    <glyph glyph-name="G" unicode="G" horiz-adv-x="1479" 
d="M1257 1387l35 -428h-35q-53 160 -137 241q-121 117 -311 117q-259 0 -394 -205q-113 -173 -113 -412q0 -194 75 -354t196.5 -234.5t249.5 -74.5q75 0 145 19t135 56v392q0 102 -15.5 133.5t-48 48t-114.5 16.5v38h525v-38h-25q-78 0 -107 -52q-20 -37 -20 -146v-415
q-115 -62 -227 -91t-249 -29q-393 0 -597 252q-153 189 -153 436q0 179 86 343q102 195 280 300q149 87 352 87q74 0 134.5 -12t171.5 -53q56 -21 75 -21t32.5 17.5t16.5 68.5h37z" />
    <glyph glyph-name="H" unicode="H" horiz-adv-x="1479" 
d="M421 727h630v388q0 104 -13 137q-10 25 -42 43q-43 24 -91 24h-48v37h580v-37h-48q-48 0 -91 -23q-32 -16 -43.5 -48.5t-11.5 -132.5v-875q0 -103 13 -136q10 -25 41 -43q44 -24 92 -24h48v-37h-580v37h48q83 0 121 49q25 32 25 154v413h-630v-413q0 -103 13 -136
q10 -25 42 -43q43 -24 91 -24h49v-37h-581v37h48q84 0 122 49q24 32 24 154v875q0 104 -13 137q-10 25 -41 43q-44 24 -92 24h-48v37h581v-37h-49q-48 0 -91 -23q-31 -16 -43 -48.5t-12 -132.5v-388z" />
    <glyph glyph-name="I" unicode="I" horiz-adv-x="682" 
d="M632 37v-37h-581v37h48q84 0 122 49q24 32 24 154v876q0 103 -13 136q-10 25 -41 43q-44 24 -92 24h-48v37h581v-37h-49q-83 0 -121 -49q-25 -32 -25 -154v-876q0 -103 13 -136q10 -25 42 -43q43 -24 91 -24h49z" />
    <glyph glyph-name="J" unicode="J" horiz-adv-x="797" 
d="M204 1319v37h581v-37h-49q-83 0 -121 -49q-24 -32 -24 -154v-663q0 -153 -33.5 -248t-115.5 -165.5t-198 -70.5q-94 0 -148 46.5t-54 106.5q0 49 25 74q33 31 77 31q32 0 57.5 -21t64.5 -112q23 -54 59 -54q27 0 50.5 33t23.5 117v926q0 103 -13 136q-10 25 -42 43
q-43 24 -91 24h-49z" />
    <glyph glyph-name="K" unicode="K" horiz-adv-x="1479" 
d="M612 752l500 -497q123 -123 210 -167.5t174 -50.5v-37h-645v37q58 0 83.5 19.5t25.5 43.5t-9.5 43t-62.5 71l-468 463v-437q0 -103 13 -136q10 -25 42 -43q43 -24 91 -24h46v-37h-578v37h48q84 0 122 49q24 32 24 154v876q0 103 -13 137q-10 24 -41 42q-44 24 -92 24h-48
v37h578v-37h-46q-47 0 -91 -23q-31 -16 -43 -48t-12 -132v-415q20 19 137 127q297 272 359 363q27 40 27 70q0 23 -21 40.5t-71 17.5h-31v37h498v-37q-44 -1 -80 -12t-88 -42.5t-128 -101.5q-22 -20 -203 -205z" />
    <glyph glyph-name="L" unicode="L" horiz-adv-x="1251" 
d="M1174 375l33 -7l-116 -368h-1050v37h51q86 0 123 56q21 32 21 148v875q0 127 -28 159q-39 44 -116 44h-51v37h614v-37q-108 1 -151.5 -20t-59.5 -53t-16 -153v-852q0 -83 16 -114q12 -21 37 -31t156 -10h99q156 0 219 23t115 81.5t104 184.5z" />
    <glyph glyph-name="M" unicode="M" horiz-adv-x="1821" 
d="M838 0l-524 1141v-906q0 -125 27 -156q37 -42 117 -42h48v-37h-472v37h48q86 0 122 52q22 32 22 146v886q0 90 -20 130q-14 29 -51.5 48.5t-120.5 19.5v37h384l492 -1061l484 1061h384v-37h-47q-87 0 -123 -52q-22 -32 -22 -146v-886q0 -125 28 -156q37 -42 117 -42h47
v-37h-576v37h48q87 0 122 52q22 32 22 146v906l-523 -1141h-33z" />
    <glyph glyph-name="N" unicode="N" horiz-adv-x="1479" 
d="M-27 1356h368l829 -1017v782q0 125 -28 156q-37 42 -117 42h-47v37h472v-37h-48q-86 0 -122 -52q-22 -32 -22 -146v-1143h-36l-894 1092v-835q0 -125 27 -156q38 -42 117 -42h48v-37h-472v37h47q87 0 123 52q22 32 22 146v943q-59 69 -89.5 91t-89.5 41q-29 9 -88 9v37z
" />
    <glyph glyph-name="O" unicode="O" horiz-adv-x="1479" 
d="M749 1387q264 0 457.5 -200.5t193.5 -500.5q0 -309 -195 -513t-472 -204q-280 0 -470.5 199t-190.5 515q0 323 220 527q191 177 457 177zM730 1314q-182 0 -292 -135q-137 -168 -137 -492q0 -332 142 -511q109 -136 288 -136q191 0 315.5 149t124.5 470q0 348 -137 519
q-110 136 -304 136z" />
    <glyph glyph-name="P" unicode="P" horiz-adv-x="1139" 
d="M420 635v-395q0 -128 28 -159q38 -44 115 -44h52v-37h-581v37h51q86 0 123 56q20 31 20 147v876q0 128 -27 159q-39 44 -116 44h-51v37h497q182 0 287 -37.5t177 -126.5t72 -211q0 -166 -109.5 -270t-309.5 -104q-49 0 -106 7t-122 21zM420 692q53 -10 94 -15t70 -5
q104 0 179.5 80.5t75.5 208.5q0 88 -36 163.5t-102 113t-150 37.5q-51 0 -131 -19v-564z" />
    <glyph glyph-name="Q" unicode="Q" horiz-adv-x="1479" 
d="M902 -15q102 -176 220.5 -259t269.5 -95v-32q-138 5 -295 55.5t-297.5 140t-242.5 190.5q-144 58 -228 123q-122 97 -189.5 238.5t-67.5 334.5q0 304 197 505t477 201q266 0 460.5 -201.5t194.5 -508.5q0 -249 -138.5 -437t-360.5 -255zM734 1310q-182 0 -293 -130
q-140 -163 -140 -499q0 -329 142 -507q110 -137 291 -137q188 0 303 137q135 162 135 478q0 243 -74 409q-57 128 -151.5 188.5t-212.5 60.5z" />
    <glyph glyph-name="R" unicode="R" horiz-adv-x="1366" 
d="M1384 0h-362l-459 634q-51 -2 -83 -2q-13 0 -28 0.5t-31 1.5v-394q0 -128 28 -159q38 -44 114 -44h53v-37h-581v37h51q86 0 123 56q21 31 21 147v876q0 128 -28 159q-39 44 -116 44h-51v37h494q216 0 318.5 -31.5t174 -116t71.5 -201.5q0 -125 -81.5 -217t-252.5 -130
l280 -389q96 -134 165 -178t180 -56v-37zM421 697q19 0 33 -0.5t23 -0.5q194 0 292.5 84t98.5 214q0 127 -79.5 206.5t-210.5 79.5q-58 0 -157 -19v-564z" />
    <glyph glyph-name="S" unicode="S" horiz-adv-x="1139" 
d="M939 1387v-469h-37q-18 135 -64.5 215t-132.5 127t-178 47q-104 0 -172 -63.5t-68 -144.5q0 -62 43 -113q62 -75 295 -200q190 -102 259.5 -156.5t107 -128.5t37.5 -155q0 -154 -119.5 -265.5t-307.5 -111.5q-59 0 -111 9q-31 5 -128.5 36.5t-123.5 31.5q-25 0 -39.5 -15
t-21.5 -62h-37v465h37q26 -146 70 -218.5t134.5 -120.5t198.5 -48q125 0 197.5 66t72.5 156q0 50 -27.5 101t-85.5 95q-39 30 -213 127.5t-247.5 155.5t-111.5 128t-38 154q0 146 112 251.5t285 105.5q108 0 229 -53q56 -25 79 -25q26 0 42.5 15.5t26.5 62.5h37z" />
    <glyph glyph-name="T" unicode="T" horiz-adv-x="1251" 
d="M1185 1356l15 -318h-38q-11 84 -30 120q-31 58 -82.5 85.5t-135.5 27.5h-191v-1036q0 -125 27 -156q38 -42 117 -42h47v-37h-575v37h48q86 0 122 52q22 32 22 146v1036h-163q-95 0 -135 -14q-52 -19 -89 -73t-44 -146h-38l16 318h1107z" />
    <glyph glyph-name="U" unicode="U" horiz-adv-x="1479" 
d="M977 1319v37h480v-37h-51q-80 0 -123 -67q-21 -31 -21 -144v-550q0 -204 -40.5 -316.5t-159 -193t-322.5 -80.5q-222 0 -337 77t-163 207q-32 89 -32 334v530q0 125 -34.5 164t-111.5 39h-51v37h586v-37h-52q-84 0 -120 -53q-25 -36 -25 -150v-591q0 -79 14.5 -181
t52.5 -159t109.5 -94t175.5 -37q133 0 238 58t143.5 148.5t38.5 306.5v549q0 127 -28 159q-39 44 -116 44h-51z" />
    <glyph glyph-name="V" unicode="V" horiz-adv-x="1479" 
d="M1454 1356v-37q-72 -13 -109 -46q-53 -49 -94 -150l-473 -1154h-37l-508 1169q-39 90 -55 110q-25 31 -61.5 48.5t-98.5 22.5v37h554v-37q-94 -9 -122 -32t-28 -59q0 -50 46 -156l345 -795l320 785q47 116 47 161q0 29 -29 55.5t-98 37.5q-5 1 -17 3v37h418z" />
    <glyph glyph-name="W" unicode="W" horiz-adv-x="1933" 
d="M1917 1356v-37q-53 0 -86 -19t-63 -71q-20 -35 -63 -167l-378 -1093h-40l-309 867l-307 -867h-36l-403 1126q-45 126 -57 149q-20 38 -54.5 56.5t-93.5 18.5v37h502v-37h-24q-53 0 -81 -24t-28 -58q0 -35 44 -161l267 -761l225 647l-40 114l-32 91q-21 50 -47 88
q-13 19 -32 32q-25 18 -50 26q-19 6 -60 6v37h528v-37h-36q-56 0 -82 -24t-26 -65q0 -51 45 -178l260 -737l258 747q44 124 44 172q0 23 -14.5 43t-36.5 28q-38 14 -99 14v37h405z" />
    <glyph glyph-name="X" unicode="X" horiz-adv-x="1479" 
d="M836 751l291 -434q121 -180 179.5 -227.5t148.5 -52.5v-37h-582v37q58 1 86 12q21 9 34.5 27.5t13.5 37.5q0 23 -9 46q-7 17 -55 88l-230 348l-284 -364q-45 -58 -54 -77.5t-9 -40.5q0 -32 27 -53t103 -24v-37h-481v37q51 5 88 21q62 26 118 70t128 135l320 404l-267 391
q-109 159 -185 208.5t-175 52.5v37h627v-37q-80 -3 -109.5 -26t-29.5 -51q0 -37 48 -108l208 -311l241 305q42 54 51.5 74t9.5 41t-12 37q-15 21 -38 29.5t-95 9.5v37h481v-37q-57 -3 -93 -18q-54 -23 -99 -62t-127 -144z" />
    <glyph glyph-name="Y" unicode="Y" horiz-adv-x="1479" 
d="M976 1356h473v-37h-26q-26 0 -76 -23t-91 -66t-101 -140l-327 -515v-340q0 -125 28 -156q38 -42 120 -42h44v-37h-576v37h48q86 0 122 52q22 32 22 146v321l-372 568q-66 100 -89.5 125t-97.5 60q-20 10 -58 10v37h580v-37h-30q-47 0 -86.5 -22t-39.5 -66q0 -36 61 -130
l283 -437l266 418q60 94 60 140q0 28 -14.5 50t-41.5 34.5t-81 12.5v37z" />
    <glyph glyph-name="Z" unicode="Z" horiz-adv-x="1251" 
d="M1178 1356l-891 -1274h556q128 0 196.5 56t121.5 227l33 -6l-64 -359h-1104v37l870 1238h-434q-108 0 -156.5 -23.5t-74 -68t-46.5 -166.5h-38l28 339h1003z" />
    <glyph glyph-name="bracketleft" unicode="[" horiz-adv-x="682" 
d="M608 -406h-440v1793h440v-79h-290v-1636h290v-78z" />
    <glyph glyph-name="backslash" unicode="\" horiz-adv-x="569" 
d="M83 1422l490 -1450h-80l-490 1450h80z" />
    <glyph glyph-name="bracketright" unicode="]" horiz-adv-x="682" 
d="M75 1387h440v-1794h-440v79h290v1636h-290v79z" />
    <glyph glyph-name="asciicircum" unicode="^" horiz-adv-x="961" 
d="M498 1384l425 -717h-92l-350 586l-350 -586h-94l431 717h30z" />
    <glyph glyph-name="underscore" unicode="_" horiz-adv-x="1058" 
d="M1059 1h-1059v140h1059v-140z" />
    <glyph glyph-name="grave" unicode="`" horiz-adv-x="682" 
d="M118 1390h223l106 -345h-35z" />
    <glyph glyph-name="a" unicode="a" horiz-adv-x="909" 
d="M583 132q-141 -109 -177 -126q-54 -25 -115 -25q-95 0 -156.5 65t-61.5 171q0 67 30 116q41 68 142.5 128t337.5 146v36q0 137 -43.5 188t-126.5 51q-63 0 -100 -34q-38 -34 -38 -78l2 -58q0 -46 -23.5 -71t-61.5 -25q-37 0 -60.5 26t-23.5 71q0 86 88 158t247 72
q122 0 200 -41q59 -31 87 -97q18 -43 18 -176v-311q0 -131 5 -160.5t16.5 -39.5t26.5 -10q16 0 28 7q21 13 81 73v-56q-112 -150 -214 -150q-49 0 -78 34t-30 116zM583 197v349q-151 -60 -195 -85q-79 -44 -113 -92t-34 -105q0 -72 43 -119.5t99 -47.5q76 0 200 100z" />
    <glyph glyph-name="b" unicode="b" 
d="M315 758q133 185 287 185q141 0 246 -120.5t105 -329.5q0 -244 -162 -393q-139 -128 -310 -128q-80 0 -162.5 29t-168.5 87v949q0 156 -7.5 192t-23.5 49t-40 13q-28 0 -70 -16l-14 35l275 112h45v-664zM315 694v-548q51 -50 105.5 -75.5t111.5 -25.5q91 0 169.5 100
t78.5 291q0 176 -78.5 270.5t-178.5 94.5q-53 0 -106 -27q-40 -20 -102 -80z" />
    <glyph glyph-name="c" unicode="c" horiz-adv-x="909" 
d="M842 348q-37 -181 -145 -278.5t-239 -97.5q-156 0 -272 131t-116 354q0 216 128.5 351t308.5 135q135 0 222 -71.5t87 -148.5q0 -38 -24.5 -61.5t-68.5 -23.5q-59 0 -89 38q-17 21 -22.5 80t-40.5 90q-35 30 -97 30q-100 0 -161 -74q-81 -98 -81 -259q0 -164 80.5 -289.5
t217.5 -125.5q98 0 176 67q55 46 107 167z" />
    <glyph glyph-name="d" unicode="d" 
d="M711 103q-67 -70 -131 -100.5t-138 -30.5q-150 0 -262 125.5t-112 322.5t124 360.5t319 163.5q121 0 200 -77v169q0 157 -7.5 193t-23.5 49t-40 13q-26 0 -69 -16l-13 35l273 112h45v-1059q0 -161 7.5 -196.5t24 -49.5t38.5 -14q27 0 72 17l11 -35l-272 -113h-46v131z
M711 173v472q-6 68 -36 124t-79.5 84.5t-96.5 28.5q-88 0 -157 -79q-91 -104 -91 -304q0 -202 88 -309.5t196 -107.5q91 0 176 91z" />
    <glyph glyph-name="e" unicode="e" horiz-adv-x="909" 
d="M218 571q-1 -204 99 -320t235 -116q90 0 156.5 49.5t111.5 169.5l31 -20q-21 -137 -122 -249.5t-253 -112.5q-165 0 -282.5 128.5t-117.5 345.5q0 235 120.5 366.5t302.5 131.5q154 0 253 -101.5t99 -271.5h-633zM218 629h424q-5 88 -21 124q-25 56 -74.5 88t-103.5 32
q-83 0 -148.5 -64.5t-76.5 -179.5z" />
    <glyph glyph-name="f" unicode="f" horiz-adv-x="682" 
d="M422 844v-602q0 -128 28 -162q37 -44 99 -44h83v-36h-547v36h41q40 0 73 20t45.5 54t12.5 132v602h-178v72h178v60q0 137 44 232t134.5 153.5t203.5 58.5q105 0 193 -68q58 -45 58 -101q0 -30 -26 -56.5t-56 -26.5q-23 0 -48.5 16.5t-62.5 71t-68 73.5t-69 19
q-46 0 -78 -24.5t-46 -76t-14 -265.5v-66h236v-72h-236z" />
    <glyph glyph-name="g" unicode="g" 
d="M309 334q-84 41 -129 114.5t-45 162.5q0 136 102.5 234t262.5 98q131 0 227 -64h194q43 0 50 -2.5t10 -8.5q6 -9 6 -32q0 -26 -5 -36q-3 -5 -10.5 -8t-50.5 -3h-119q56 -72 56 -184q0 -128 -98 -219t-263 -91q-68 0 -139 20q-44 -38 -59.5 -66.5t-15.5 -48.5
q0 -17 16.5 -33t64.5 -23q28 -4 140 -7q206 -5 267 -14q93 -13 148.5 -69t55.5 -138q0 -113 -106 -212q-156 -146 -407 -146q-193 0 -326 87q-75 50 -75 104q0 24 11 48q17 37 70 103q7 9 102 108q-52 31 -73.5 55.5t-21.5 55.5q0 35 28.5 82t131.5 133zM483 895
q-74 0 -124 -59t-50 -181q0 -158 68 -245q52 -66 132 -66q76 0 125 57t49 179q0 159 -69 249q-51 66 -131 66zM299 0q-47 -51 -71 -95t-24 -81q0 -48 58 -84q100 -62 289 -62q180 0 265.5 63.5t85.5 135.5q0 52 -51 74q-52 22 -206 26q-225 6 -346 23z" />
    <glyph glyph-name="h" unicode="h" 
d="M333 1422v-670q111 122 176 156.5t130 34.5q78 0 134 -43t83 -135q19 -64 19 -234v-324q0 -87 14 -119q10 -24 34 -38t88 -14v-36h-450v36h21q64 0 89 19.5t35 57.5q3 16 3 94v324q0 150 -15.5 197t-49.5 70.5t-82 23.5q-49 0 -102 -26t-127 -105v-484q0 -94 10.5 -117
t39 -38.5t98.5 -15.5v-36h-454v36q61 0 96 19q20 10 32 38t12 114v829q0 157 -7.5 193t-23 49t-41.5 13q-21 0 -68 -16l-14 35l274 112h46z" />
    <glyph glyph-name="i" unicode="i" horiz-adv-x="569" 
d="M297 1422q42 0 71.5 -29.5t29.5 -71.5t-29.5 -72t-71.5 -30t-72 30t-30 72t29.5 71.5t72.5 29.5zM380 943v-736q0 -86 12.5 -114.5t37 -42.5t89.5 -14v-36h-445v36q67 0 90 13t36.5 43t13.5 115v353q0 149 -9 193q-7 32 -22 44.5t-41 12.5q-28 0 -68 -15l-14 36l276 112
h44z" />
    <glyph glyph-name="j" unicode="j" horiz-adv-x="569" 
d="M296 1423q43 0 73 -30t30 -73q0 -42 -30 -72t-73 -30q-42 0 -72 30t-30 72q0 43 30 73t72 30zM382 943v-922q0 -235 -100 -349t-260 -114q-91 0 -135 33t-44 68t24.5 60t57.5 25q26 0 53 -13q17 -7 65.5 -50.5t81.5 -43.5q24 0 47 18.5t34 62t11 188.5v652q0 151 -9 194
q-7 33 -22 45.5t-41 12.5q-28 0 -68 -15l-14 36l276 112h43z" />
    <glyph glyph-name="k" unicode="k" 
d="M335 1422v-912l233 213q74 68 86 86q8 12 8 24q0 20 -16.5 34.5t-54.5 16.5v32h398v-32q-82 -2 -136.5 -25t-119.5 -82l-235 -217l235 -297q98 -123 132 -156q48 -47 84 -61q25 -10 87 -10v-36h-445v36q38 1 51.5 11.5t13.5 29.5q0 23 -40 74l-281 359v-304
q0 -89 12.5 -117t35.5 -40t100 -13v-36h-466v36q70 0 105 17q21 11 32 34q15 33 15 114v834q0 159 -7 194.5t-23 49t-42 13.5q-21 0 -63 -17l-17 35l272 112h46z" />
    <glyph glyph-name="l" unicode="l" horiz-adv-x="569" 
d="M379 1422v-1215q0 -86 12.5 -114t38.5 -42.5t97 -14.5v-36h-449v36q63 0 86 13t36 43t13 115v832q0 155 -7 190.5t-22.5 48.5t-39.5 13q-26 0 -66 -16l-17 35l273 112h45z" />
    <glyph glyph-name="m" unicode="m" horiz-adv-x="1593" 
d="M336 748q100 100 118 115q45 38 97 59t103 21q86 0 148 -50t83 -145q103 120 174 157.5t146 37.5q73 0 129.5 -37.5t89.5 -122.5q22 -58 22 -182v-394q0 -86 13 -118q10 -22 37 -37.5t88 -15.5v-36h-452v36h19q59 0 92 23q23 16 33 51q4 17 4 97v394q0 112 -27 158
q-39 64 -125 64q-53 0 -106.5 -26.5t-129.5 -98.5l-2 -11l2 -43v-437q0 -94 10.5 -117t39.5 -38.5t99 -15.5v-36h-463v36q76 0 104.5 18t39.5 54q5 17 5 99v394q0 112 -33 161q-44 64 -123 64q-54 0 -107 -29q-83 -44 -128 -99v-491q0 -90 12.5 -117t37 -40.5t99.5 -13.5
v-36h-453v36q63 0 88 13.5t38 43t13 114.5v350q0 151 -9 195q-7 33 -22 45.5t-41 12.5q-28 0 -67 -15l-15 36l276 112h43v-195z" />
    <glyph glyph-name="n" unicode="n" 
d="M331 749q161 194 307 194q75 0 129 -37.5t86 -123.5q22 -60 22 -184v-391q0 -87 14 -118q11 -25 35.5 -39t90.5 -14v-36h-453v36h19q64 0 89.5 19.5t35.5 57.5q4 15 4 94v375q0 125 -32.5 181.5t-109.5 56.5q-119 0 -237 -130v-483q0 -93 11 -115q14 -29 38.5 -42.5
t99.5 -13.5v-36h-453v36h20q70 0 94.5 35.5t24.5 135.5v340q0 165 -7.5 201t-23 49t-41.5 13q-28 0 -67 -15l-15 36l276 112h43v-194z" />
    <glyph glyph-name="o" unicode="o" 
d="M512 943q208 0 334 -158q107 -135 107 -310q0 -123 -59 -249t-162.5 -190t-230.5 -64q-207 0 -329 165q-103 139 -103 312q0 126 62.5 250.5t164.5 184t216 59.5zM481 878q-53 0 -106.5 -31.5t-86.5 -110.5t-33 -203q0 -200 79.5 -345t209.5 -145q97 0 160 80t63 275
q0 244 -105 384q-71 96 -181 96z" />
    <glyph glyph-name="p" unicode="p" 
d="M-2 825l282 114h38v-214q71 121 142.5 169.5t150.5 48.5q138 0 230 -108q113 -132 113 -344q0 -237 -136 -392q-112 -127 -282 -127q-74 0 -128 21q-40 15 -90 60v-279q0 -94 11.5 -119.5t40 -40.5t103.5 -15v-37h-480v37h25q55 -1 94 21q19 11 29.5 35.5t10.5 124.5v866
q0 89 -8 113t-25.5 36t-47.5 12q-24 0 -61 -14zM318 666v-342q0 -111 9 -146q14 -58 68.5 -102t137.5 -44q100 0 162 78q81 102 81 287q0 210 -92 323q-64 78 -152 78q-48 0 -95 -24q-36 -18 -119 -108z" />
    <glyph glyph-name="q" unicode="q" 
d="M875 943v-1178q0 -88 12 -113t37.5 -39t99.5 -14v-37h-462v37h19q56 0 85 16q20 11 32 39.5t12 110.5v394q-91 -108 -159 -147.5t-141 -39.5q-133 0 -237.5 121t-104.5 324q0 233 138 379.5t333 146.5q57 0 105 -16t86 -48q58 28 111 64h34zM710 222v430q0 75 -19.5 118
t-69.5 73t-113 30q-112 0 -192 -95t-80 -288q0 -185 81.5 -281t196.5 -96q59 0 105 25.5t91 83.5z" />
    <glyph glyph-name="r" unicode="r" horiz-adv-x="682" 
d="M332 943v-206q115 206 236 206q55 0 91 -33.5t36 -77.5q0 -39 -26 -66t-62 -27q-35 0 -78.5 34.5t-64.5 34.5q-18 0 -39 -20q-45 -41 -93 -135v-439q0 -76 19 -115q13 -27 46 -45t95 -18v-36h-469v36q70 0 104 22q25 16 35 51q5 17 5 97v355q0 160 -6.5 190.5t-24 44.5
t-43.5 14q-31 0 -70 -15l-10 36l277 112h42z" />
    <glyph glyph-name="s" unicode="s" horiz-adv-x="797" 
d="M656 943v-312h-33q-38 147 -97.5 200t-151.5 53q-70 0 -113 -37t-43 -82q0 -56 32 -96q31 -41 126 -87l146 -71q203 -99 203 -261q0 -125 -94.5 -201.5t-211.5 -76.5q-84 0 -192 30q-33 10 -54 10q-23 0 -36 -26h-33v327h33q28 -140 107 -211t177 -71q69 0 112.5 40.5
t43.5 97.5q0 69 -48.5 116t-193.5 119t-190 130q-45 57 -45 144q0 113 77.5 189t200.5 76q54 0 131 -23q51 -15 68 -15q16 0 25 7t21 31h33z" />
    <glyph glyph-name="t" unicode="t" horiz-adv-x="569" 
d="M330 1217v-301h214v-70h-214v-594q0 -89 25.5 -120t65.5 -31q33 0 64 20.5t48 60.5h39q-35 -98 -99 -147.5t-132 -49.5q-46 0 -90 25.5t-65 73t-21 146.5v616h-145v33q55 22 112.5 74.5t102.5 124.5q23 38 64 139h31z" />
    <glyph glyph-name="u" unicode="u" 
d="M867 916v-555q0 -159 7.5 -194.5t24 -49.5t38.5 -14q31 0 70 17l14 -35l-274 -113h-45v194q-118 -128 -180 -161t-131 -33q-77 0 -133.5 44.5t-78.5 114.5t-22 198v409q0 65 -14 90t-41.5 38.5t-99.5 12.5v37h321v-613q0 -128 44.5 -168t107.5 -40q43 0 97.5 27
t129.5 103v519q0 78 -28.5 105.5t-118.5 29.5v37h312z" />
    <glyph glyph-name="v" unicode="v" 
d="M17 916h431v-37h-28q-39 0 -59.5 -19t-20.5 -51q0 -35 21 -83l213 -506l214 525q23 56 23 85q0 14 -8 23q-11 15 -28 20.5t-69 5.5v37h299v-37q-52 -4 -72 -21q-35 -30 -63 -100l-325 -786h-41l-327 773q-22 54 -42 77.5t-51 39.5q-17 9 -67 17v37z" />
    <glyph glyph-name="w" unicode="w" horiz-adv-x="1479" 
d="M13 916h384v-37q-53 -4 -69.5 -19t-16.5 -43q0 -31 17 -75l196 -527l197 429l-52 135q-24 60 -63 83q-22 14 -82 17v37h436v-37q-72 -3 -102 -26q-20 -16 -20 -51q0 -20 8 -41l208 -526l193 507q20 54 20 86q0 19 -19.5 34t-76.5 17v37h289v-37q-87 -13 -128 -118
l-306 -789h-41l-229 585l-267 -585h-37l-294 770q-29 73 -57 98.5t-88 38.5v37z" />
    <glyph glyph-name="x" unicode="x" 
d="M27 916h431v-37q-41 0 -57.5 -14t-16.5 -37q0 -24 35 -74q11 -16 33 -50l65 -104l75 104q72 99 72 125q0 21 -17 35.5t-55 14.5v37h310v-37q-49 -3 -85 -27q-49 -34 -134 -148l-125 -167l228 -328q84 -121 120 -145.5t93 -27.5v-36h-432v36q45 0 70 20q19 14 19 37
t-64 116l-134 196l-147 -196q-68 -91 -68 -108q0 -24 22.5 -43.5t67.5 -21.5v-36h-299v36q36 5 63 25q38 29 128 148l192 255l-174 252q-74 108 -114.5 135.5t-101.5 27.5v37z" />
    <glyph glyph-name="y" unicode="y" 
d="M12 916h427v-37h-21q-45 0 -67.5 -19.5t-22.5 -48.5q0 -39 33 -108l223 -462l205 506q17 41 17 81q0 18 -7 27q-8 11 -25 17.5t-60 6.5v37h298v-37q-37 -4 -57 -16t-44 -45q-9 -14 -34 -77l-373 -914q-54 -133 -141.5 -201t-168.5 -68q-59 0 -97 34t-38 78
q0 42 27.5 67.5t75.5 25.5q33 0 90 -22q40 -15 50 -15q30 0 65.5 31t71.5 120l65 159l-329 691q-15 31 -48 77q-25 35 -41 47q-23 16 -74 28v37z" />
    <glyph glyph-name="z" unicode="z" horiz-adv-x="909" 
d="M860 281l-11 -281h-808v36l608 810h-300q-97 0 -127 -12.5t-49 -47.5q-27 -50 -31 -124h-40l6 254h768v-37l-614 -812h334q105 0 142.5 17.5t60.5 61.5q16 32 27 135h34z" />
    <glyph glyph-name="braceleft" unicode="{" horiz-adv-x="983" 
d="M841 -407v-35q-167 23 -271.5 135.5t-104.5 249.5q0 72 23 167.5t23 148.5q0 72 -60.5 134.5t-167.5 76.5v41q107 14 167.5 76t60.5 135q0 53 -23 148t-23 168q0 136 104.5 249t271.5 135v-35q-117 -28 -171.5 -91.5t-54.5 -139.5q0 -59 22.5 -155.5t22.5 -164.5
q0 -101 -74 -196t-221 -147q144 -53 219.5 -150t75.5 -198q0 -68 -22.5 -164.5t-22.5 -155.5q0 -76 54.5 -139.5t171.5 -92.5z" />
    <glyph glyph-name="bar" unicode="|" horiz-adv-x="410" 
d="M244 1422v-1864h-83v1864h83z" />
    <glyph glyph-name="braceright" unicode="}" horiz-adv-x="983" 
d="M177 1387v35q167 -22 271.5 -134.5t104.5 -250.5q0 -72 -23 -167t-23 -148q0 -72 60.5 -134.5t167.5 -76.5v-41q-107 -14 -167.5 -76.5t-60.5 -134.5q0 -53 23 -148.5t23 -167.5q0 -136 -104.5 -249t-271.5 -136v35q117 29 171.5 92t54.5 140q0 59 -23 155.5t-23 163.5
q0 102 74.5 197t221.5 147q-144 53 -220 150t-76 198q0 68 23 164.5t23 155.5q0 76 -54.5 139.5t-171.5 91.5z" />
    <glyph glyph-name="asciitilde" unicode="~" horiz-adv-x="1108" 
d="M1042 675h45q-4 -130 -74 -203.5t-171 -73.5q-46 0 -99 15.5t-274 105.5q-154 64 -219 64q-70 0 -118 -43t-68 -140h-44q6 135 74 206.5t160 71.5q44 0 90 -14q104 -30 273.5 -102.5t238.5 -72.5q75 0 126 48t60 138z" />
    <glyph glyph-name="Adieresis" unicode="&#xc4;" horiz-adv-x="1479" 
d="M935 454h-525l-92 -214q-34 -79 -34 -118q0 -31 29.5 -54.5t127.5 -30.5v-37h-427v37q85 15 110 39q51 48 113 195l477 1116h35l472 -1128q57 -136 103.5 -176.5t129.5 -45.5v-37h-535v37q81 4 109.5 27t28.5 56q0 44 -40 139zM907 528l-230 548l-236 -548h466zM909 1708
q45 0 76.5 -32t31.5 -77t-31.5 -76.5t-76.5 -31.5t-77 31.5t-32 76.5t32 77t77 32zM556 1708q46 0 77.5 -32t31.5 -77t-32 -76.5t-76 -31.5q-45 0 -77 31.5t-32 76.5t31.5 77t76.5 32z" />
    <glyph glyph-name="Aring" unicode="&#xc5;" horiz-adv-x="1479" 
d="M935 454h-525l-92 -214q-34 -79 -34 -118q0 -31 29.5 -54.5t127.5 -30.5v-37h-427v37q85 15 110 39q51 48 113 195l477 1116h35l472 -1128q57 -136 103.5 -176.5t129.5 -45.5v-37h-535v37q81 4 109.5 27t28.5 56q0 44 -40 139zM907 528l-230 548l-236 -548h466zM729 1701
q80 0 136 -56t56 -135q0 -80 -56 -136t-136 -56q-79 0 -135 56t-56 136q0 79 55.5 135t135.5 56zM729 1632q-51 0 -86.5 -35.5t-35.5 -86.5q0 -50 35.5 -86t86.5 -36t86.5 36t35.5 86q0 51 -35.5 86.5t-86.5 35.5z" />
    <glyph glyph-name="Ccedilla" unicode="&#xc7;" horiz-adv-x="1366" 
d="M1233 1387l31 -461h-31q-62 207 -177 298t-276 91q-135 0 -244 -68.5t-171.5 -218.5t-62.5 -373q0 -184 59 -319t177.5 -207t270.5 -72q132 0 233 56.5t222 224.5l31 -20q-102 -181 -238 -265t-323 -84q-337 0 -522 250q-138 186 -138 438q0 203 91 373t250.5 263.5
t348.5 93.5q147 0 290 -72q42 -22 60 -22q27 0 47 19q26 27 37 75h35zM698 16h60l-50 -79q63 -16 94 -54t31 -92q0 -72 -60 -126.5t-155 -54.5q-37 0 -94 7v43q28 -4 48 -4q51 0 86 33.5t35 76.5q0 30 -23 52t-57 22q-10 0 -26 -2z" />
    <glyph glyph-name="Eacute" unicode="&#xc9;" horiz-adv-x="1251" 
d="M428 1282v-536h298q116 0 155 35q52 46 58 162h37v-472h-37q-14 99 -28 127q-18 35 -59 55t-126 20h-298v-447q0 -90 8 -109.5t28 -31t76 -11.5h230q115 0 167 16t100 63q62 62 127 187h40l-117 -340h-1045v37h48q48 0 91 23q32 16 43.5 48t11.5 131v881q0 129 -26 159
q-36 40 -120 40h-48v37h1045l15 -297h-39q-21 107 -46.5 147t-75.5 61q-40 15 -141 15h-372zM853 1797l-295 -345h-34l105 345h224z" />
    <glyph glyph-name="Ntilde" unicode="&#xd1;" horiz-adv-x="1479" 
d="M-27 1356h368l829 -1017v782q0 125 -28 156q-37 42 -117 42h-47v37h472v-37h-48q-86 0 -122 -52q-22 -32 -22 -146v-1143h-36l-894 1092v-835q0 -125 27 -156q38 -42 117 -42h48v-37h-472v37h47q87 0 123 52q22 32 22 146v943q-59 69 -89.5 91t-89.5 41q-29 9 -88 9v37z
M448 1465h-32q4 137 57 198t131 61q41 0 75 -13q45 -17 127.5 -71.5t122.5 -54.5q32 0 56.5 27t38.5 112h31q1 -93 -24.5 -147.5t-72 -85t-93.5 -30.5q-79 0 -196 80q-63 43 -85 52t-43 9q-41 0 -65 -36q-11 -17 -28 -101z" />
    <glyph glyph-name="Odieresis" unicode="&#xd6;" horiz-adv-x="1479" 
d="M749 1387q264 0 457.5 -200.5t193.5 -500.5q0 -309 -195 -513t-472 -204q-280 0 -470.5 199t-190.5 515q0 323 220 527q191 177 457 177zM730 1314q-182 0 -292 -135q-137 -168 -137 -492q0 -332 142 -511q109 -136 288 -136q191 0 315.5 149t124.5 470q0 348 -137 519
q-110 136 -304 136zM909 1708q45 0 76.5 -32t31.5 -77t-31.5 -76.5t-76.5 -31.5t-77 31.5t-32 76.5t32 77t77 32zM556 1708q46 0 77.5 -32t31.5 -77t-32 -76.5t-76 -31.5q-45 0 -77 31.5t-32 76.5t31.5 77t76.5 32z" />
    <glyph glyph-name="Udieresis" unicode="&#xdc;" horiz-adv-x="1479" 
d="M977 1319v37h480v-37h-51q-80 0 -123 -67q-21 -31 -21 -144v-550q0 -204 -40.5 -316.5t-159 -193t-322.5 -80.5q-222 0 -337 77t-163 207q-32 89 -32 334v530q0 125 -34.5 164t-111.5 39h-51v37h586v-37h-52q-84 0 -120 -53q-25 -36 -25 -150v-591q0 -79 14.5 -181
t52.5 -159t109.5 -94t175.5 -37q133 0 238 58t143.5 148.5t38.5 306.5v549q0 127 -28 159q-39 44 -116 44h-51zM960 1708q45 0 76.5 -32t31.5 -77t-31.5 -76.5t-76.5 -31.5t-77 31.5t-32 76.5t32 77t77 32zM607 1708q46 0 77.5 -32t31.5 -77t-32 -76.5t-76 -31.5
q-45 0 -77 31.5t-32 76.5t31.5 77t76.5 32z" />
    <glyph glyph-name="aacute" unicode="&#xe1;" horiz-adv-x="909" 
d="M583 132q-141 -109 -177 -126q-54 -25 -115 -25q-95 0 -156.5 65t-61.5 171q0 67 30 116q41 68 142.5 128t337.5 146v36q0 137 -43.5 188t-126.5 51q-63 0 -100 -34q-38 -34 -38 -78l2 -58q0 -46 -23.5 -71t-61.5 -25q-37 0 -60.5 26t-23.5 71q0 86 88 158t247 72
q122 0 200 -41q59 -31 87 -97q18 -43 18 -176v-311q0 -131 5 -160.5t16.5 -39.5t26.5 -10q16 0 28 7q21 13 81 73v-56q-112 -150 -214 -150q-49 0 -78 34t-30 116zM583 197v349q-151 -60 -195 -85q-79 -44 -113 -92t-34 -105q0 -72 43 -119.5t99 -47.5q76 0 200 100z
M682 1390l-295 -345h-34l105 345h224z" />
    <glyph glyph-name="agrave" unicode="&#xe0;" horiz-adv-x="909" 
d="M583 132q-141 -109 -177 -126q-54 -25 -115 -25q-95 0 -156.5 65t-61.5 171q0 67 30 116q41 68 142.5 128t337.5 146v36q0 137 -43.5 188t-126.5 51q-63 0 -100 -34q-38 -34 -38 -78l2 -58q0 -46 -23.5 -71t-61.5 -25q-37 0 -60.5 26t-23.5 71q0 86 88 158t247 72
q122 0 200 -41q59 -31 87 -97q18 -43 18 -176v-311q0 -131 5 -160.5t16.5 -39.5t26.5 -10q16 0 28 7q21 13 81 73v-56q-112 -150 -214 -150q-49 0 -78 34t-30 116zM583 197v349q-151 -60 -195 -85q-79 -44 -113 -92t-34 -105q0 -72 43 -119.5t99 -47.5q76 0 200 100z
M260 1390h223l106 -345h-35z" />
    <glyph glyph-name="acircumflex" unicode="&#xe2;" horiz-adv-x="909" 
d="M583 132q-141 -109 -177 -126q-54 -25 -115 -25q-95 0 -156.5 65t-61.5 171q0 67 30 116q41 68 142.5 128t337.5 146v36q0 137 -43.5 188t-126.5 51q-63 0 -100 -34q-38 -34 -38 -78l2 -58q0 -46 -23.5 -71t-61.5 -25q-37 0 -60.5 26t-23.5 71q0 86 88 158t247 72
q122 0 200 -41q59 -31 87 -97q18 -43 18 -176v-311q0 -131 5 -160.5t16.5 -39.5t26.5 -10q16 0 28 7q21 13 81 73v-56q-112 -150 -214 -150q-49 0 -78 34t-30 116zM583 197v349q-151 -60 -195 -85q-79 -44 -113 -92t-34 -105q0 -72 43 -119.5t99 -47.5q76 0 200 100z
M366 1385h184l190 -331h-31l-273 213l-229 -213h-30z" />
    <glyph glyph-name="adieresis" unicode="&#xe4;" horiz-adv-x="909" 
d="M583 132q-141 -109 -177 -126q-54 -25 -115 -25q-95 0 -156.5 65t-61.5 171q0 67 30 116q41 68 142.5 128t337.5 146v36q0 137 -43.5 188t-126.5 51q-63 0 -100 -34q-38 -34 -38 -78l2 -58q0 -46 -23.5 -71t-61.5 -25q-37 0 -60.5 26t-23.5 71q0 86 88 158t247 72
q122 0 200 -41q59 -31 87 -97q18 -43 18 -176v-311q0 -131 5 -160.5t16.5 -39.5t26.5 -10q16 0 28 7q21 13 81 73v-56q-112 -150 -214 -150q-49 0 -78 34t-30 116zM583 197v349q-151 -60 -195 -85q-79 -44 -113 -92t-34 -105q0 -72 43 -119.5t99 -47.5q76 0 200 100z
M634 1337q45 0 76.5 -32t31.5 -77t-31.5 -76.5t-76.5 -31.5t-77 31.5t-32 76.5t32 77t77 32zM281 1337q46 0 77.5 -32t31.5 -77t-32 -76.5t-76 -31.5q-45 0 -77 31.5t-32 76.5t31.5 77t76.5 32z" />
    <glyph glyph-name="atilde" unicode="&#xe3;" horiz-adv-x="909" 
d="M583 132q-141 -109 -177 -126q-54 -25 -115 -25q-95 0 -156.5 65t-61.5 171q0 67 30 116q41 68 142.5 128t337.5 146v36q0 137 -43.5 188t-126.5 51q-63 0 -100 -34q-38 -34 -38 -78l2 -58q0 -46 -23.5 -71t-61.5 -25q-37 0 -60.5 26t-23.5 71q0 86 88 158t247 72
q122 0 200 -41q59 -31 87 -97q18 -43 18 -176v-311q0 -131 5 -160.5t16.5 -39.5t26.5 -10q16 0 28 7q21 13 81 73v-56q-112 -150 -214 -150q-49 0 -78 34t-30 116zM583 197v349q-151 -60 -195 -85q-79 -44 -113 -92t-34 -105q0 -72 43 -119.5t99 -47.5q76 0 200 100z
M171 1097h-32q4 137 57 198t131 61q41 0 75 -13q45 -17 127.5 -71.5t122.5 -54.5q32 0 56.5 27t38.5 112h31q1 -93 -24.5 -147.5t-72 -85t-93.5 -30.5q-79 0 -196 80q-63 43 -85 52t-43 9q-41 0 -65 -36q-11 -17 -28 -101z" />
    <glyph glyph-name="aring" unicode="&#xe5;" horiz-adv-x="909" 
d="M583 132q-141 -109 -177 -126q-54 -25 -115 -25q-95 0 -156.5 65t-61.5 171q0 67 30 116q41 68 142.5 128t337.5 146v36q0 137 -43.5 188t-126.5 51q-63 0 -100 -34q-38 -34 -38 -78l2 -58q0 -46 -23.5 -71t-61.5 -25q-37 0 -60.5 26t-23.5 71q0 86 88 158t247 72
q122 0 200 -41q59 -31 87 -97q18 -43 18 -176v-311q0 -131 5 -160.5t16.5 -39.5t26.5 -10q16 0 28 7q21 13 81 73v-56q-112 -150 -214 -150q-49 0 -78 34t-30 116zM583 197v349q-151 -60 -195 -85q-79 -44 -113 -92t-34 -105q0 -72 43 -119.5t99 -47.5q76 0 200 100z
M458 1426q80 0 136 -56t56 -135q0 -80 -56 -136t-136 -56q-79 0 -135 56t-56 136q0 79 55.5 135t135.5 56zM458 1357q-51 0 -86.5 -35.5t-35.5 -86.5q0 -50 35.5 -86t86.5 -36t86.5 36t35.5 86q0 51 -35.5 86.5t-86.5 35.5z" />
    <glyph glyph-name="ccedilla" unicode="&#xe7;" horiz-adv-x="909" 
d="M842 348q-37 -181 -145 -278.5t-239 -97.5q-156 0 -272 131t-116 354q0 216 128.5 351t308.5 135q135 0 222 -71.5t87 -148.5q0 -38 -24.5 -61.5t-68.5 -23.5q-59 0 -89 38q-17 21 -22.5 80t-40.5 90q-35 30 -97 30q-100 0 -161 -74q-81 -98 -81 -259q0 -164 80.5 -289.5
t217.5 -125.5q98 0 176 67q55 46 107 167zM470 16h60l-50 -79q63 -16 94 -54t31 -92q0 -72 -60 -126.5t-155 -54.5q-37 0 -94 7v43q28 -4 48 -4q51 0 86 33.5t35 76.5q0 30 -23 52t-57 22q-10 0 -26 -2z" />
    </font>
</defs>
</svg>
