<?xml version="1.0" standalone="no"?>
<!DOCTYPE svg PUBLIC "-//W3C//DTD SVG 1.1//EN" "http://www.w3.org/Graphics/SVG/1.1/DTD/svg11.dtd" >
<svg xmlns="http://www.w3.org/2000/svg" xmlns:xlink="http://www.w3.org/1999/xlink" version="1.1">
<metadata>
Created by FontForge 20170924 at Sat Nov 26 21:21:31 2011
 By www-data
Uyghur Computer Science Association. Free distributed and all rights reserved. http://www.ukij.org
</metadata>
<defs>
<font id="UKIJArabic" horiz-adv-x="800" >
  <font-face 
    font-family="UKIJ Arabic"
    font-weight="400"
    font-stretch="normal"
    units-per-em="2048"
    panose-1="3 2 4 2 4 4 6 3 2 3"
    ascent="1638"
    descent="-410"
    x-height="581"
    cap-height="970"
    bbox="-884 -971 11796 1449"
    underline-thickness="20"
    underline-position="-410"
    unicode-range="U+0001-FEFC"
  />
<missing-glyph horiz-adv-x="699" 
d="M318 492l-260 395v-791zM388 492l254 -387v773zM353 545l250 380h-500zM103 58h500l-250 380zM0 983h700v-983h-700v983z" />
    <glyph glyph-name="fi" unicode="fi" 
d="M760 -10h-335l-3 51q45 4 60 8.5t23 14.5t10.5 31.5t2.5 59.5v263q0 27 -3 42.5t-9.5 21.5t-21 8.5t-41.5 2.5h-166v-379q0 -24 4.5 -37t14 -18.5t32 -8t75.5 -3.5l-5 -57h-354l-5 51q46 4 62 8.5t24.5 15t11.5 31.5t3 59v338h-87l-15 15l5 49l97 8v142q0 95 32.5 167
t88.5 125q20 19 48 34.5t60 25.5t66 16t66 6q20 0 47 -3.5t52.5 -13.5t44.5 -27.5t19 -44.5q0 -38 -24 -58t-71 -37q-24 22 -42 35.5t-37 24t-39.5 17t-41.5 6.5q-23 0 -43 -5.5t-35 -17.5q-19 -14 -29.5 -35.5t-16.5 -48t-7 -55.5t-1 -57v-193l256 3q35 7 62 15t50 17
l22 -18q-4 -28 -6 -56t-3 -55.5t-1.5 -52t-0.5 -42.5v-265q0 -23 3 -36t10 -18.5t25 -8t69 -5.5z" />
    <glyph glyph-name="Fourroman" unicode="fb" horiz-adv-x="1400" 
d="M20 43q51 4 72 9.5t32 16.5t16 33.5t5 59.5v673q0 23 -4 37.5t-14.5 22.5t-32.5 12.5t-76 7.5l3 55h390l4 -53q-51 -4 -72 -9.5t-32.5 -16.5t-16 -33.5t-4.5 -58.5v-674q0 -23 3.5 -37.5t14 -22.5t32.5 -12.5t77 -7.5l-3 -55h-390zM782 917q-68 -6 -85.5 -13t-17.5 -28
q0 -10 3 -23.5t9 -31.5l223 -621l229 607q8 23 13 39.5t5 28.5q0 11 -4 17t-14 10.5t-30 7t-67 5.5l3 55h356l4 -53q-51 -4 -72.5 -9.5t-37.5 -21t-30.5 -45t-35.5 -80.5q-231 -575 -310 -779l-83 -8q-76 214 -299 814q-16 43 -27.5 67t-25 35t-34.5 16t-73 9l3 55h394z" />
    <glyph glyph-name="Fiveroman" unicode="ffb" horiz-adv-x="999" 
d="M391 917q-68 -6 -85.5 -13t-17.5 -28q0 -10 3 -23.5t9 -31.5l223 -621l229 607q8 23 13 39.5t5 28.5q0 11 -4 17t-14 10.5t-30 7t-67 5.5l3 55h356l4 -53q-51 -4 -72.5 -9.5t-37.5 -21t-30.5 -45t-35.5 -80.5q-231 -575 -310 -779l-83 -8q-76 214 -299 814
q-16 43 -27.5 67t-25 35t-34.5 16t-73 9l3 55h394z" />
    <glyph glyph-name="Sixroman" unicode="ff" horiz-adv-x="1400" 
d="M391 917q-68 -6 -85.5 -13t-17.5 -28q0 -10 3 -23.5t9 -31.5l223 -621l229 607q8 23 13 39.5t5 28.5q0 11 -4 17t-14 10.5t-30 7t-67 5.5l3 55h356l4 -53q-51 -4 -72.5 -9.5t-37.5 -21t-30.5 -45t-35.5 -80.5q-231 -575 -310 -779l-83 -8q-76 214 -299 814
q-16 43 -27.5 67t-25 35t-34.5 16t-73 9l3 55h394zM996 43q51 4 72 9.5t32 16.5t16 33.5t5 59.5v673q0 23 -4 37.5t-14.5 22.5t-32.5 12.5t-76 7.5l3 55h390l4 -53q-51 -4 -72 -9.5t-32.5 -16.5t-16 -33.5t-4.5 -58.5v-674q0 -23 3.5 -37.5t14 -22.5t32.5 -12.5t77 -7.5
l-3 -55h-390z" />
    <glyph glyph-name="Sevenroman" unicode="fh" horiz-adv-x="1801" 
d="M391 917q-68 -6 -85.5 -13t-17.5 -28q0 -10 3 -23.5t9 -31.5l223 -621l229 607q8 23 13 39.5t5 28.5q0 11 -4 17t-14 10.5t-30 7t-67 5.5l3 55h356l4 -53q-51 -4 -72.5 -9.5t-37.5 -21t-30.5 -45t-35.5 -80.5q-231 -575 -310 -779l-83 -8q-76 214 -299 814
q-16 43 -27.5 67t-25 35t-34.5 16t-73 9l3 55h394zM1006 43q51 4 72 9.5t32 16.5t16 33.5t5 59.5v673q0 23 -4 37.5t-14.5 22.5t-32.5 12.5t-76 7.5l3 55h390l4 -53q-51 -4 -72 -9.5t-32.5 -16.5t-16 -33.5t-4.5 -58.5v-674q0 -23 3.5 -37.5t14 -22.5t32.5 -12.5t77 -7.5
l-3 -55h-390zM1395 43q51 4 72 9.5t32 16.5t16 33.5t5 59.5v673q0 23 -4 37.5t-14.5 22.5t-32.5 12.5t-76 7.5l3 55h390l4 -53q-51 -4 -72 -9.5t-32.5 -16.5t-16 -33.5t-4.5 -58.5v-674q0 -23 3.5 -37.5t14 -22.5t32.5 -12.5t77 -7.5l-3 -55h-390z" />
    <glyph glyph-name="Eightroman" unicode="ffh" horiz-adv-x="2099" 
d="M391 917q-68 -6 -85.5 -13t-17.5 -28q0 -10 3 -23.5t9 -31.5l223 -621l229 607q8 23 13 39.5t5 28.5q0 11 -4 17t-14 10.5t-30 7t-67 5.5l3 55h356l4 -53q-51 -4 -72.5 -9.5t-37.5 -21t-30.5 -45t-35.5 -80.5q-231 -575 -310 -779l-83 -8q-76 214 -299 814
q-16 43 -27.5 67t-25 35t-34.5 16t-73 9l3 55h394zM971 43q51 4 72 9.5t32 16.5t16 33.5t5 59.5v673q0 23 -4 37.5t-14.5 22.5t-32.5 12.5t-76 7.5l3 55h390l4 -53q-51 -4 -72 -9.5t-32.5 -16.5t-16 -33.5t-4.5 -58.5v-674q0 -23 3.5 -37.5t14 -22.5t32.5 -12.5t77 -7.5
l-3 -55h-390zM1335 43q51 4 72 9.5t32 16.5t16 33.5t5 59.5v673q0 23 -4 37.5t-14.5 22.5t-32.5 12.5t-76 7.5l3 55h390l4 -53q-51 -4 -72 -9.5t-32.5 -16.5t-16 -33.5t-4.5 -58.5v-674q0 -23 3.5 -37.5t14 -22.5t32.5 -12.5t77 -7.5l-3 -55h-390zM1702 43q51 4 72 9.5
t32 16.5t16 33.5t5 59.5v673q0 23 -4 37.5t-14.5 22.5t-32.5 12.5t-76 7.5l3 55h390l4 -53q-51 -4 -72 -9.5t-32.5 -16.5t-16 -33.5t-4.5 -58.5v-674q0 -23 3.5 -37.5t14 -22.5t32.5 -12.5t77 -7.5l-3 -55h-390z" />
    <glyph glyph-name="Nineroman" unicode="ffi" horiz-adv-x="1400" 
d="M9 43q51 4 72 9.5t32 16.5t16 33.5t5 59.5v673q0 23 -4 37.5t-14.5 22.5t-32.5 12.5t-76 7.5l3 55h390l4 -53q-51 -4 -72 -9.5t-32.5 -16.5t-16 -33.5t-4.5 -58.5v-674q0 -23 3.5 -37.5t14 -22.5t32.5 -12.5t77 -7.5l-3 -55h-390zM748 -10h-358l-3 55q54 3 80 10.5
t47.5 24t43 43.5t50.5 67l204 285l-219 321q-27 39 -44 61.5t-33.5 34t-38.5 16t-76 7.5l3 55h395l4 -53q-65 -6 -79 -11.5t-14 -14.5q0 -12 18 -39l176 -257l164 239q14 19 21 32t7 23t-15.5 16t-77.5 12l4 53h338l3 -55q-53 -3 -77.5 -10t-44.5 -22.5t-40 -41.5t-48 -65
l-184 -255l241 -351q28 -41 47.5 -64.5t38 -36t42.5 -17t79 -7.5l-3 -55h-415l-8 52q71 6 88 11.5t17 14.5q0 13 -18 39l-199 292l-187 -273q-13 -19 -19.5 -31.5t-6.5 -22.5q0 -11 17.5 -17.5t87.5 -12.5z" />
    <glyph glyph-name="Tenroman" unicode="fj" horiz-adv-x="999" 
d="M357 -10h-358l-3 55q54 3 80 10.5t47.5 24t43 43.5t50.5 67l204 285l-219 321q-27 39 -44 61.5t-33.5 34t-38.5 16t-76 7.5l3 55h395l4 -53q-65 -6 -79 -11.5t-14 -14.5q0 -12 18 -39l176 -257l164 239q14 19 21 32t7 23t-15.5 16t-77.5 12l4 53h338l3 -55
q-53 -3 -77.5 -10t-44.5 -22.5t-40 -41.5t-48 -65l-184 -255l241 -351q28 -41 47.5 -64.5t38 -36t42.5 -17t79 -7.5l-3 -55h-415l-8 52q71 6 88 11.5t17 14.5q0 13 -18 39l-199 292l-187 -273q-13 -19 -19.5 -31.5t-6.5 -22.5q0 -11 17.5 -17.5t87.5 -12.5z" />
    <glyph glyph-name="Elevenroman" unicode="ffj" horiz-adv-x="1400" 
d="M387 -10h-358l-3 55q54 3 80 10.5t47.5 24t43 43.5t50.5 67l204 285l-219 321q-27 39 -44 61.5t-33.5 34t-38.5 16t-76 7.5l3 55h395l4 -53q-65 -6 -79 -11.5t-14 -14.5q0 -12 18 -39l176 -257l164 239q14 19 21 32t7 23t-15.5 16t-77.5 12l4 53h338l3 -55
q-53 -3 -77.5 -10t-44.5 -22.5t-40 -41.5t-48 -65l-184 -255l241 -351q28 -41 47.5 -64.5t38 -36t42.5 -17t79 -7.5l-3 -55h-415l-8 52q71 6 88 11.5t17 14.5q0 13 -18 39l-199 292l-187 -273q-13 -19 -19.5 -31.5t-6.5 -22.5q0 -11 17.5 -17.5t87.5 -12.5zM970 43
q51 4 72 9.5t32 16.5t16 33.5t5 59.5v673q0 23 -4 37.5t-14.5 22.5t-32.5 12.5t-76 7.5l3 55h390l4 -53q-51 -4 -72 -9.5t-32.5 -16.5t-16 -33.5t-4.5 -58.5v-674q0 -23 3.5 -37.5t14 -22.5t32.5 -12.5t77 -7.5l-3 -55h-390z" />
    <glyph glyph-name="Twelveroman" unicode="fk" horiz-adv-x="1700" 
d="M357 -10h-358l-3 55q54 3 80 10.5t47.5 24t43 43.5t50.5 67l204 285l-219 321q-27 39 -44 61.5t-33.5 34t-38.5 16t-76 7.5l3 55h395l4 -53q-65 -6 -79 -11.5t-14 -14.5q0 -12 18 -39l176 -257l164 239q14 19 21 32t7 23t-15.5 16t-77.5 12l4 53h338l3 -55
q-53 -3 -77.5 -10t-44.5 -22.5t-40 -41.5t-48 -65l-184 -255l241 -351q28 -41 47.5 -64.5t38 -36t42.5 -17t79 -7.5l-3 -55h-415l-8 52q71 6 88 11.5t17 14.5q0 13 -18 39l-199 292l-187 -273q-13 -19 -19.5 -31.5t-6.5 -22.5q0 -11 17.5 -17.5t87.5 -12.5zM934 43
q51 4 72 9.5t32 16.5t16 33.5t5 59.5v673q0 23 -4 37.5t-14.5 22.5t-32.5 12.5t-76 7.5l3 55h390l4 -53q-51 -4 -72 -9.5t-32.5 -16.5t-16 -33.5t-4.5 -58.5v-674q0 -23 3.5 -37.5t14 -22.5t32.5 -12.5t77 -7.5l-3 -55h-390zM1308 43q51 4 72 9.5t32 16.5t16 33.5t5 59.5
v673q0 23 -4 37.5t-14.5 22.5t-32.5 12.5t-76 7.5l3 55h390l4 -53q-51 -4 -72 -9.5t-32.5 -16.5t-16 -33.5t-4.5 -58.5v-674q0 -23 3.5 -37.5t14 -22.5t32.5 -12.5t77 -7.5l-3 -55h-390z" />
    <glyph glyph-name="uni2460" unicode="ffk" horiz-adv-x="1399" 
d="M698 -70q-250 0 -427 175q-176 175 -180 424v11q0 250 174.5 426.5t423.5 179.5h9q249 0 426.5 -174t181.5 -421v-11q0 -250 -175 -429q-187 -176 -433 -181zM698 1079q-228 0 -387 -163q-152 -158 -152 -376q0 -231 162 -390q158 -152 377 -153q226 0 385 163
q155 159 156 380q0 229 -164 388q-158 151 -377 151zM767 338q0 -83 33 -99q20 -8 71 -11q8 -7 8 -17q0 -7 -4 -16q-2 -4 -4 -6q-131 2 -145 2q-43 0 -167 -2q-7 7 -7 18q0 7 3 16q2 4 4 5q79 4 98 28q17 25 18 82v390q-2 67 -24 70q-35 -1 -105 -30q-14 13 -18 32
q167 77 235 120q7 -4 8 -6q-4 -30 -4 -161v-415z" />
    <glyph glyph-name="uni2461" unicode="ffl" horiz-adv-x="1399" 
d="M698 -70q-250 0 -427 175q-176 175 -180 424v11q0 250 174.5 426.5t423.5 179.5h9q249 0 426.5 -174t181.5 -421v-11q0 -250 -175 -429q-187 -176 -433 -181zM698 1079q-228 0 -387 -163q-152 -158 -152 -376q0 -231 162 -390q158 -152 377 -153q226 0 385 163
q155 159 156 380q0 229 -164 388q-158 151 -377 151zM499 750q0 71 75 126q62 44 141 44q121 0 175 -82q26 -44 27 -99q0 -88 -83 -173q-14 -15 -36 -37l-122 -116q-86 -88 -88 -146h213q47 0 70 67q8 21 14 48q5 1 10 1q15 0 25 -6q-3 -84 -29 -190q-3 0 -93 3h-210
l-100 -3q0 86 70 175q28 34 67 73l89 88q97 101 98 210q0 124 -84 143q-11 2 -20 3q-97 0 -117 -58q-2 -9 -2 -16q1 -2 10 -29q4 -18 4 -25q0 -29 -40 -44q-9 -3 -16 -3q-34 0 -46 32q-2 8 -2 14z" />
    <glyph glyph-name="uni2462" unicode="tt" horiz-adv-x="1399" 
d="M698 -70q-250 0 -427 175q-176 175 -180 424v11q0 250 174.5 426.5t423.5 179.5h9q249 0 426.5 -174t181.5 -421v-11q0 -250 -175 -429q-187 -176 -433 -181zM698 1079q-228 0 -387 -163q-152 -158 -152 -376q0 -231 162 -390q158 -152 377 -153q226 0 385 163
q155 159 156 380q0 229 -164 388q-158 151 -377 151zM693 892q-74 0 -103 -49q-11 -20 -11 -42q-4 -60 -47 -63q-34 0 -40 34v7q0 51 54 99q66 55 171 55q85 -1 131 -46q37 -39 38 -95q0 -93 -104 -148l-22 -12l1 -1q127 -22 160 -125q9 -31 9 -65q0 -147 -126 -215
q-66 -35 -143 -35q-95 0 -150 42q-22 19 -23 38q0 24 31 37q11 4 19 5q30 -2 52 -32q22 -33 39 -40q20 -8 47 -8q70 0 114 63q34 51 35 129q-3 153 -157 153q-38 0 -58 -1l-6 37q114 17 168 107q19 33 20 63q0 92 -78 106q-11 2 -21 2z" />
    <glyph glyph-name="uniFEF5" unicode="&#xfedf;&#xfe82;" horiz-adv-x="700" arabic-form="isolated" 
d="M224 889q86 -86 149 -179.5t113.5 -186t70.5 -147.5q23 48 36 96t17 114q4 58 4 110v14q-1 58 -4 108.5t-6 85.5q-13 8 -16 22q-3 10 -3 27v11q1 25 9.5 54.5t36.5 78.5l9 -5q6 -76 64 -112q-6 -53 -13 -71t-14.5 -25t-17.5 -8q4 -124 4 -199q0 -53 -2 -81
q-5 -69 -14 -112.5t-26.5 -90t-35.5 -73.5q14 -44 21 -79.5t8 -67.5q0 -11 -1 -24.5t-3 -47.5t-4.5 -47.5t-5.5 -23.5l-18 -18t-20 -8q-20 -5 -52 -9.5t-67 -8t-68 -5.5t-54 -2q-12 0 -18 4t-6 18q0 11 3 43t19 91q66 43 116.5 90.5t88.5 101.5q-29 70 -99 169.5t-138 169.5
q-16 -20 -23 -20t-26.5 12t-40.5 29.5t-37.5 37t-16.5 34.5q-1 20 -1 38q0 28 3 49q5 33 11 51.5t17 18.5q10 0 24.5 -8t26.5 -19zM545 262q-20 -29 -45.5 -59t-55.5 -58q29 3 60 6.5t53 8.5v12q0 23 -3.5 45t-8.5 45zM44 1135q7 0 15 -6t23.5 -16.5t36.5 -18t49 -12
t69 -5.5q59 0 102 11.5t71.5 25.5t44.5 25.5t22 11.5q0 -12 -13 -44t-45.5 -59.5t-87 -48t-136.5 -20.5q-48 0 -92.5 13t-76.5 39q-3 0 -10.5 -8.5t-16 -19t-17 -19t-14.5 -8.5q-10 0 -10 17q0 9 11 30.5t26.5 49t28.5 45t20 17.5z" />
    <glyph glyph-name="uniFEF6" unicode="&#xfee0;&#xfe82;" horiz-adv-x="1030" arabic-form="final" 
d="M1030 0q-6 0 -16.5 1.5t-24.5 8t-30 19.5t-34 36q-17 21 -29.5 54.5t-21.5 73t-16 100.5q-33 -143 -81.5 -231.5t-99 -140.5t-83.5 -62q-80 -19 -172 -19q-93 0 -151 7v6q66 32 115 55t105 56t96.5 62.5t81 63.5t75.5 76.5t58.5 93t23.5 110.5q0 14 -1 40t-2 53
t-2.5 49.5t-2.5 30.5q-5 59 -11.5 129t-12.5 134.5t-10 115.5t-4 73q10 65 47 107h9q32 -61 40.5 -207.5t16.5 -254.5t17 -200.5t14 -136.5t15 -68.5t28.5 -41t38 -25.5t35.5 -11.5t23 -2.5zM242 833q49 -36 94 -77.5t84.5 -85.5t75 -88.5t67.5 -87.5q47 -63 74 -118
t47 -113q6 -16 9.5 -43t3.5 -50q0 -18 -2.5 -29t-7.5 -11q-40 85 -138 226.5t-215 259.5q-7 -10 -20 -19q-12 0 -37.5 13t-50.5 31t-44 37.5t-19 32.5v14q0 16 2 32q2 22 5.5 43t9 39.5t11.5 18.5q10 0 24 -7t27 -18zM110 1069q7 0 15 -6t23.5 -16.5t36.5 -18t49 -12
t69 -5.5q59 0 102 11.5t71.5 25.5t44.5 25.5t22 11.5q0 -12 -13 -44t-45.5 -59.5t-87 -48t-136.5 -20.5q-48 0 -92.5 13t-76.5 39q-3 0 -10.5 -8.5t-16 -19t-17 -19t-14.5 -8.5q-10 0 -10 17q0 9 11 30.5t26.5 49t28.5 45t20 17.5z" />
    <glyph glyph-name="uniFEF7" unicode="&#xfedf;&#xfe84;" horiz-adv-x="700" arabic-form="isolated" 
d="M224 889q86 -86 149 -179.5t113.5 -186t70.5 -147.5q23 48 36 96t17 114q4 58 4 110v14q-1 58 -4 108.5t-6 85.5q-13 8 -16 22q-3 10 -3 27v11q1 25 9.5 54.5t36.5 78.5l9 -5q6 -76 64 -112q-6 -53 -13 -71t-14.5 -25t-17.5 -8q4 -124 4 -199q0 -53 -2 -81
q-5 -69 -14 -112.5t-26.5 -90t-35.5 -73.5q14 -44 21 -79.5t8 -67.5q0 -11 -1 -24.5t-3 -47.5t-4.5 -47.5t-5.5 -23.5l-18 -18t-20 -8q-20 -5 -52 -9.5t-67 -8t-68 -5.5t-54 -2q-12 0 -18 4t-6 18q0 11 3 43t19 91q66 43 116.5 90.5t88.5 101.5q-29 70 -99 169.5t-138 169.5
q-16 -20 -23 -20t-26.5 12t-40.5 29.5t-37.5 37t-16.5 34.5q-1 20 -1 38q0 28 3 49q5 33 11 51.5t17 18.5q10 0 24.5 -8t26.5 -19zM545 262q-20 -29 -45.5 -59t-55.5 -58q29 3 60 6.5t53 8.5v12q0 23 -3.5 45t-8.5 45zM236 1302q24 -1 32 -14.5t8 -27.5q0 -31 -8 -72h-14
q-21 17 -34 19t-21 2t-20.5 -5.5t-24 -13t-19.5 -16.5t-8 -16q0 -11 16 -18t40 -11.5t60 -7.5l102 54l7 -10l-20 -88l-236 -117v46l53 43q-23 10 -36.5 18t-25 20t-11.5 27q0 32 16 66t40 60t52 44t52 18z" />
    <glyph glyph-name="uniFEF8" unicode="&#xfee0;&#xfe84;" horiz-adv-x="1030" arabic-form="final" 
d="M1030 0q-6 0 -16.5 1.5t-24.5 8t-30 19.5t-34 36q-17 21 -29.5 54.5t-21.5 73t-16 100.5q-33 -143 -81.5 -231.5t-99 -140.5t-83.5 -62q-80 -19 -172 -19q-93 0 -151 7v6q66 32 115 55t105 56t96.5 62.5t81 63.5t75.5 76.5t58.5 93t23.5 110.5q0 14 -1 40t-2 53
t-2.5 49.5t-2.5 30.5q-5 59 -11.5 129t-12.5 134.5t-10 115.5t-4 73q10 65 47 107h9q32 -61 40.5 -207.5t16.5 -254.5t17 -200.5t14 -136.5t15 -68.5t28.5 -41t38 -25.5t35.5 -11.5t23 -2.5zM242 833q49 -36 94 -77.5t84.5 -85.5t75 -88.5t67.5 -87.5q47 -63 74 -118
t47 -113q6 -16 9.5 -43t3.5 -50q0 -18 -2.5 -29t-7.5 -11q-40 85 -138 226.5t-215 259.5q-7 -10 -20 -19q-12 0 -37.5 13t-50.5 31t-44 37.5t-19 32.5v14q0 16 2 32q2 22 5.5 43t9 39.5t11.5 18.5q10 0 24 -7t27 -18zM259 1236q24 -1 32 -14.5t8 -27.5q0 -31 -8 -72h-14
q-21 17 -34 19t-21 2t-20.5 -5.5t-24 -13t-19.5 -16.5t-8 -16q0 -11 16 -18t40 -11.5t60 -7.5l102 54l7 -10l-20 -88l-236 -117v46l53 43q-23 10 -36.5 18t-25 20t-11.5 27q0 32 16 66t40 60t52 44t52 18z" />
    <glyph glyph-name="uniFEF9" unicode="&#xfedf;&#xfe88;" horiz-adv-x="699" arabic-form="isolated" 
d="M551 389q20 56 31 100t16 221q0 63 -3 113.5t-6 85.5q-10 15 -12.5 28t-3.5 26v4q0 13 5 37q5 28 44 98l7 -4q25 -82 70 -113q-11 -64 -21.5 -83t-22.5 -23q3 -35 6 -127q1 -42 1 -73q0 -39 -2 -62q-3 -43 -12 -101t-24.5 -108t-40.5 -89q11 -38 18 -73.5t8 -77.5v-12
q0 -35 -3 -57q-3 -27 -6 -46t-15 -29.5t-28 -14.5q-20 -5 -52 -9.5t-67 -8t-68 -5.5t-54 -2q-12 0 -18 4t-6 18q0 11 2 26t7 41t13 67q56 43 101.5 90.5t83.5 101.5q-9 35 -64 131t-78.5 126.5t-49.5 66.5t-62 83q-8 -13 -14.5 -20.5t-13.5 -7.5t-26.5 12.5t-40.5 30.5
t-37 38t-16 35v48q1 22 4 47t9 43.5t17 18.5q10 0 25.5 -5t48 -32t77.5 -82t110 -158.5t100.5 -181.5t62.5 -136zM552 177q0 23 -3.5 45t-8.5 45q-20 -29 -45.5 -59t-55.5 -58q29 3 60 6.5t53 8.5v12zM315 -48q24 -1 32 -14.5t8 -27.5q0 -31 -8 -72h-14q-21 17 -34 19t-21 2
t-20.5 -5.5t-24 -13t-19.5 -16.5t-8 -16q0 -11 16 -18t40 -11.5t60 -7.5l102 54l7 -10l-20 -88l-236 -117v46l53 43q-23 10 -36.5 18t-25 20t-11.5 27q0 32 16 66t40 60t52 44t52 18z" />
    <glyph glyph-name="uniFEFA" unicode="&#xfee0;&#xfe88;" horiz-adv-x="985" arabic-form="final" 
d="M1001 0q-16 0 -26.5 1.5t-24.5 8t-30 19.5t-34 36q-17 21 -34.5 63t-34.5 142h-5q-23 -85 -66 -163t-87.5 -135t-102.5 -107q-15 -18 -77 -18q-63 0 -103 4.5t-79.5 15t-64.5 20.5v16q77 16 116 35.5t103.5 52.5t138 81t112 92.5t62 95t23.5 110.5q0 14 -1 40t-2 53
t-2.5 49.5t-2.5 30.5q-5 59 -11.5 129t-12.5 134.5t-10 115.5t-4 73q7 39 15.5 61t29.5 45l9 1q23 -146 30.5 -218.5t15 -149t15.5 -151t15 -137.5q3 -26 7.5 -60t13 -80.5t18.5 -71t25.5 -41.5t33 -25.5t38.5 -11t28 -2.5zM180 867q49 -36 95.5 -81t88.5 -92.5t79 -95.5
t69 -91q47 -63 80 -124.5t53 -119.5q6 -16 9.5 -43t3.5 -50q0 -18 -2.5 -29t-7.5 -11q-37 75 -69.5 129t-102 153t-204.5 239q-7 -11 -20 -20q-12 0 -37.5 13t-50.5 31t-44 37.5t-19 32.5q0 12 2 36t5.5 49t9 43.5t11.5 18.5q10 0 24 -7t27 -18zM265 -200q24 -1 32 -14.5
t8 -27.5q0 -31 -8 -72h-14q-21 17 -34 19t-21 2t-20.5 -5.5t-24 -13t-19.5 -16.5t-8 -16q0 -11 16 -18t40 -11.5t60 -7.5l102 54l7 -10l-20 -88l-236 -117v46l53 43q-23 10 -36.5 18t-25 20t-11.5 27q0 32 16 66t40 60t52 44t52 18z" />
    <glyph glyph-name="uniFEFB" unicode="&#xfedf;&#xfe8e;" horiz-adv-x="699" arabic-form="isolated" 
d="M551 389q20 56 31 100t16 221q0 63 -3 113.5t-6 85.5q-10 15 -12.5 28t-3.5 26v4q0 13 5 37q5 28 44 98l7 -4q25 -82 70 -113q-11 -64 -21.5 -83t-22.5 -23q3 -35 6 -127q1 -42 1 -73q0 -39 -2 -62q-3 -43 -12 -101t-24.5 -108t-40.5 -89q11 -38 18 -73.5t8 -77.5v-12
q0 -35 -3 -57q-3 -27 -6 -46t-15 -29.5t-28 -14.5q-20 -5 -52 -9.5t-67 -8t-68 -5.5t-54 -2q-12 0 -18 4t-6 18q0 11 2 26t7 41t13 67q56 43 101.5 90.5t83.5 101.5q-9 35 -64 131t-78.5 126.5t-49.5 66.5t-62 83q-8 -13 -14.5 -20.5t-13.5 -7.5t-26.5 12.5t-40.5 30.5
t-37 38t-16 35v48q1 22 4 47t9 43.5t17 18.5q10 0 25.5 -5t48 -32t77.5 -82t110 -158.5t100.5 -181.5t62.5 -136zM552 177q0 23 -3.5 45t-8.5 45q-20 -29 -45.5 -59t-55.5 -58q29 3 60 6.5t53 8.5v12z" />
    <glyph glyph-name="uniFEFC" unicode="&#xfee0;&#xfe8e;" horiz-adv-x="1000" arabic-form="final" 
d="M1001 0q-16 0 -26.5 1.5t-24.5 8t-30 19.5t-34 36q-17 21 -34.5 63t-34.5 142h-5q-23 -85 -66 -163t-87.5 -135t-102.5 -107q-15 -18 -77 -18q-63 0 -103 4.5t-79.5 15t-64.5 20.5v16q77 16 116 35.5t103.5 52.5t138 81t112 92.5t62 95t23.5 110.5q0 14 -1 40t-2 53
t-2.5 49.5t-2.5 30.5q-5 59 -11.5 129t-12.5 134.5t-10 115.5t-4 73q7 39 15.5 61t29.5 45l9 1q23 -146 30.5 -218.5t15 -149t15.5 -151t15 -137.5q3 -26 7.5 -60t13 -80.5t18.5 -71t25.5 -41.5t33 -25.5t38.5 -11t28 -2.5zM180 867q49 -36 95.5 -81t88.5 -92.5t79 -95.5
t69 -91q47 -63 80 -124.5t53 -119.5q6 -16 9.5 -43t3.5 -50q0 -18 -2.5 -29t-7.5 -11q-37 75 -69.5 129t-102 153t-204.5 239q-7 -11 -20 -20q-12 0 -37.5 13t-50.5 31t-44 37.5t-19 32.5q0 12 2 36t5.5 49t9 43.5t11.5 18.5q10 0 24 -7t27 -18z" />
    <glyph glyph-name="uniFC00" unicode="&#xfe8b;&#xfe9e;" horiz-adv-x="861" arabic-form="isolated" 
d="M524 153q-77 17 -211 18h-11q-127 0 -209 -24l-12 8q0 17 10.5 64.5t18.5 70.5q11 9 22 14q41 20 119.5 55.5t147.5 95t93.5 96t45.5 66t38 48t29 18.5q9 0 17 -12t14 -29.5t9.5 -35.5t3.5 -30t-4.5 -63.5t-17.5 -92.5h-13q-9 37 -15 58.5t-14 40t-20 18.5q-8 0 -26 -29
t-37.5 -56.5t-39.5 -48.5t-52 -47.5t-68 -49.5q93 -4 228 -14q58 -5 110 -5q70 0 131 8l9 -8l-37 -132q-27 -8 -51 -15t-60.5 -20.5t-87.5 -35.5q-34 -15 -74.5 -36.5t-110.5 -73t-113 -148.5q-35 -78 -35 -150q0 -20 3 -38q11 -91 58 -152t104 -84.5t117 -37t117 -18
t101 -4.5q156 0 364 28l8 -13q-67 -54 -138 -91t-111.5 -53t-71.5 -27t-42 -13q-70 0 -140.5 5t-135.5 20t-121.5 42.5t-98 73.5t-65 111.5t-23.5 157.5v18q0 97 20 170q21 80 61.5 147.5t116.5 132t150 102.5zM602 1115q24 -1 32 -14.5t8 -27.5q0 -31 -8 -72h-14
q-21 17 -34 19t-21 2t-20.5 -5.5t-24 -13t-19.5 -16.5t-8 -16q0 -11 16 -18t40 -11.5t60 -7.5l102 54l7 -10l-20 -88l-236 -117v46l53 43q-23 10 -36.5 18t-25 20t-11.5 27q0 32 16 66t40 60t52 44t52 18zM584 -217l110 -70l-60 -105l-111 70z" />
    <glyph glyph-name="uniFC05" unicode="&#xfe91;&#xfe9e;" horiz-adv-x="861" arabic-form="isolated" 
d="M524 153q-77 17 -211 18h-11q-127 0 -209 -24l-12 8q0 17 10.5 64.5t18.5 70.5q11 9 22 14q41 20 119.5 55.5t147.5 95t93.5 96t45.5 66t38 48t29 18.5q9 0 17 -12t14 -29.5t9.5 -35.5t3.5 -30t-4.5 -63.5t-17.5 -92.5h-13q-9 37 -15 58.5t-14 40t-20 18.5q-8 0 -26 -29
t-37.5 -56.5t-39.5 -48.5t-52 -47.5t-68 -49.5q93 -4 228 -14q58 -5 110 -5q70 0 131 8l9 -8l-37 -132q-27 -8 -51 -15t-60.5 -20.5t-87.5 -35.5q-34 -15 -74.5 -36.5t-110.5 -73t-113 -148.5q-35 -78 -35 -150q0 -20 3 -38q11 -91 58 -152t104 -84.5t117 -37t117 -18
t101 -4.5q156 0 364 28l8 -13q-67 -54 -138 -91t-111.5 -53t-71.5 -27t-42 -13q-70 0 -140.5 5t-135.5 20t-121.5 42.5t-98 73.5t-65 111.5t-23.5 157.5v18q0 97 20 170q21 80 61.5 147.5t116.5 132t150 102.5zM765 94l110 -70l-60 -105l-111 70zM563 -250l110 -70l-60 -105
l-111 70z" />
    <glyph glyph-name="uniFC0B" unicode="&#xfe97;&#xfe9e;" horiz-adv-x="861" arabic-form="isolated" 
d="M524 153q-77 17 -211 18h-11q-127 0 -209 -24l-12 8q0 17 10.5 64.5t18.5 70.5q11 9 22 14q41 20 119.5 55.5t147.5 95t93.5 96t45.5 66t38 48t29 18.5q9 0 17 -12t14 -29.5t9.5 -35.5t3.5 -30t-4.5 -63.5t-17.5 -92.5h-13q-9 37 -15 58.5t-14 40t-20 18.5q-8 0 -26 -29
t-37.5 -56.5t-39.5 -48.5t-52 -47.5t-68 -49.5q93 -4 228 -14q58 -5 110 -5q70 0 131 8l9 -8l-37 -132q-27 -8 -51 -15t-60.5 -20.5t-87.5 -35.5q-34 -15 -74.5 -36.5t-110.5 -73t-113 -148.5q-35 -78 -35 -150q0 -20 3 -38q11 -91 58 -152t104 -84.5t117 -37t117 -18
t101 -4.5q156 0 364 28l8 -13q-67 -54 -138 -91t-111.5 -53t-71.5 -27t-42 -13q-70 0 -140.5 5t-135.5 20t-121.5 42.5t-98 73.5t-65 111.5t-23.5 157.5v18q0 97 20 170q21 80 61.5 147.5t116.5 132t150 102.5zM466 989l110 -70l-60 -105l-111 70zM632 1012l110 -70
l-60 -105l-111 70zM585 -213l110 -70l-60 -105l-111 70z" />
    <glyph glyph-name="uniFC11" unicode="&#xfe9b;&#xfe9e;" horiz-adv-x="861" arabic-form="isolated" 
d="M524 153q-77 17 -211 18h-11q-127 0 -209 -24l-12 8q0 17 10.5 64.5t18.5 70.5q11 9 22 14q41 20 119.5 55.5t147.5 95t93.5 96t45.5 66t38 48t29 18.5q9 0 17 -12t14 -29.5t9.5 -35.5t3.5 -30t-4.5 -63.5t-17.5 -92.5h-13q-9 37 -15 58.5t-14 40t-20 18.5q-8 0 -26 -29
t-37.5 -56.5t-39.5 -48.5t-52 -47.5t-68 -49.5q93 -4 228 -14q58 -5 110 -5q70 0 131 8l9 -8l-37 -132q-27 -8 -51 -15t-60.5 -20.5t-87.5 -35.5q-34 -15 -74.5 -36.5t-110.5 -73t-113 -148.5q-35 -78 -35 -150q0 -20 3 -38q11 -91 58 -152t104 -84.5t117 -37t117 -18
t101 -4.5q156 0 364 28l8 -13q-67 -54 -138 -91t-111.5 -53t-71.5 -27t-42 -13q-70 0 -140.5 5t-135.5 20t-121.5 42.5t-98 73.5t-65 111.5t-23.5 157.5v18q0 97 20 170q21 80 61.5 147.5t116.5 132t150 102.5zM460 981l110 -70l-60 -105l-111 70zM626 1004l110 -70
l-60 -105l-111 70zM505 1154l110 -70l-60 -105l-111 70zM582 -202l110 -70l-60 -105l-111 70z" />
    <glyph glyph-name="uniFC4B" unicode="&#xfee7;&#xfe9e;" horiz-adv-x="861" arabic-form="isolated" 
d="M524 153q-77 17 -211 18h-11q-127 0 -209 -24l-12 8q0 17 10.5 64.5t18.5 70.5q11 9 22 14q41 20 119.5 55.5t147.5 95t93.5 96t45.5 66t38 48t29 18.5q9 0 17 -12t14 -29.5t9.5 -35.5t3.5 -30t-4.5 -63.5t-17.5 -92.5h-13q-9 37 -15 58.5t-14 40t-20 18.5q-8 0 -26 -29
t-37.5 -56.5t-39.5 -48.5t-52 -47.5t-68 -49.5q93 -4 228 -14q58 -5 110 -5q70 0 131 8l9 -8l-37 -132q-27 -8 -51 -15t-60.5 -20.5t-87.5 -35.5q-34 -15 -74.5 -36.5t-110.5 -73t-113 -148.5q-35 -78 -35 -150q0 -20 3 -38q11 -91 58 -152t104 -84.5t117 -37t117 -18
t101 -4.5q156 0 364 28l8 -13q-67 -54 -138 -91t-111.5 -53t-71.5 -27t-42 -13q-70 0 -140.5 5t-135.5 20t-121.5 42.5t-98 73.5t-65 111.5t-23.5 157.5v18q0 97 20 170q21 80 61.5 147.5t116.5 132t150 102.5zM550 1005l110 -70l-60 -105l-111 70zM585 -206l110 -70
l-60 -105l-111 70z" />
    <glyph glyph-name="uniFC55" unicode="&#xfbfe;&#xfe9e;" horiz-adv-x="861" arabic-form="isolated" 
d="M524 153q-77 17 -211 18h-11q-127 0 -209 -24l-12 8q0 17 10.5 64.5t18.5 70.5q11 9 22 14q41 20 119.5 55.5t147.5 95t93.5 96t45.5 66t38 48t29 18.5q9 0 17 -12t14 -29.5t9.5 -35.5t3.5 -30t-4.5 -63.5t-17.5 -92.5h-13q-9 37 -15 58.5t-14 40t-20 18.5q-8 0 -26 -29
t-37.5 -56.5t-39.5 -48.5t-52 -47.5t-68 -49.5q93 -4 228 -14q58 -5 110 -5q70 0 131 8l9 -8l-37 -132q-27 -8 -51 -15t-60.5 -20.5t-87.5 -35.5q-34 -15 -74.5 -36.5t-110.5 -73t-113 -148.5q-35 -78 -35 -150q0 -20 3 -38q11 -91 58 -152t104 -84.5t117 -37t117 -18
t101 -4.5q156 0 364 28l8 -13q-67 -54 -138 -91t-111.5 -53t-71.5 -27t-42 -13q-70 0 -140.5 5t-135.5 20t-121.5 42.5t-98 73.5t-65 111.5t-23.5 157.5v18q0 97 20 170q21 80 61.5 147.5t116.5 132t150 102.5zM649 85l110 -70l-60 -105l-111 70zM815 108l110 -70l-60 -105
l-111 70zM585 -206l110 -70l-60 -105l-111 70z" />
    <glyph glyph-name="uni0679062C.isol" unicode="&#xfb68;&#xfe9e;" horiz-adv-x="861" 
d="M524 153q-77 17 -211 18h-11q-127 0 -209 -24l-12 8q0 17 10.5 64.5t18.5 70.5q11 9 22 14q41 20 119.5 55.5t147.5 95t93.5 96t45.5 66t38 48t29 18.5q9 0 17 -12t14 -29.5t9.5 -35.5t3.5 -30t-4.5 -63.5t-17.5 -92.5h-13q-9 37 -15 58.5t-14 40t-20 18.5q-8 0 -26 -29
t-37.5 -56.5t-39.5 -48.5t-52 -47.5t-68 -49.5q93 -4 228 -14q58 -5 110 -5q70 0 131 8l9 -8l-37 -132q-27 -8 -51 -15t-60.5 -20.5t-87.5 -35.5q-34 -15 -74.5 -36.5t-110.5 -73t-113 -148.5q-35 -78 -35 -150q0 -20 3 -38q11 -91 58 -152t104 -84.5t117 -37t117 -18
t101 -4.5q156 0 364 28l8 -13q-67 -54 -138 -91t-111.5 -53t-71.5 -27t-42 -13q-70 0 -140.5 5t-135.5 20t-121.5 42.5t-98 73.5t-65 111.5t-23.5 157.5v18q0 97 20 170q21 80 61.5 147.5t116.5 132t150 102.5zM553 1076q0 -15 2 -25t6 -29.5t7 -40t3 -38.5q0 -6 -1 -13
l-3 -21q12 12 27 23.5l30 23t35 21t35 9.5q11 0 19.5 -6t16 -13.5t14.5 -21.5t7 -23q0 -8 -2 -15t-7.5 -19.5t-14 -24.5t-17.5 -22q-20 -18 -35.5 -25t-39 -10.5t-52 -5.5t-88.5 -2q-7 0 -32 11.5t-55 30.5l1 14h84q4 0 8 1q11 8 15.5 12t15.5 14q4 16 4 25q0 10 -4.5 35
t-9.5 52t-8.5 48t-3.5 36q0 7 -7 14l-2 10q0 10 9.5 26t20.5 32q5 -12 15 -27t24 -25q-1 -8 -6 -18t-11 -13zM716 885q-10 20 -20 30t-23 10q-24 0 -52.5 -19.5t-69.5 -49.5q3 1 11 1h11q54 0 85 4t58 24zM584 -206l110 -70l-60 -105l-111 70z" />
    <glyph glyph-name="uni067A062C.isol" unicode="&#xfb60;&#xfe9e;" horiz-adv-x="861" 
d="M524 153q-77 17 -211 18h-11q-127 0 -209 -24l-12 8q0 17 10.5 64.5t18.5 70.5q11 9 22 14q41 20 119.5 55.5t147.5 95t93.5 96t45.5 66t38 48t29 18.5q9 0 17 -12t14 -29.5t9.5 -35.5t3.5 -30t-4.5 -63.5t-17.5 -92.5h-13q-9 37 -15 58.5t-14 40t-20 18.5q-8 0 -26 -29
t-37.5 -56.5t-39.5 -48.5t-52 -47.5t-68 -49.5q93 -4 228 -14q58 -5 110 -5q70 0 131 8l9 -8l-37 -132q-27 -8 -51 -15t-60.5 -20.5t-87.5 -35.5q-34 -15 -74.5 -36.5t-110.5 -73t-113 -148.5q-35 -78 -35 -150q0 -20 3 -38q11 -91 58 -152t104 -84.5t117 -37t117 -18
t101 -4.5q156 0 364 28l8 -13q-67 -54 -138 -91t-111.5 -53t-71.5 -27t-42 -13q-70 0 -140.5 5t-135.5 20t-121.5 42.5t-98 73.5t-65 111.5t-23.5 157.5v18q0 97 20 170q21 80 61.5 147.5t116.5 132t150 102.5zM522 1185l110 -70l-60 -105l-111 70zM542 1002l110 -70
l-60 -105l-111 70zM582 -206l110 -70l-60 -105l-111 70z" />
    <glyph glyph-name="uni067F062C.isol" unicode="&#xfb64;&#xfe9e;" horiz-adv-x="861" 
d="M524 153q-77 17 -211 18h-11q-127 0 -209 -24l-12 8q0 17 10.5 64.5t18.5 70.5q11 9 22 14q41 20 119.5 55.5t147.5 95t93.5 96t45.5 66t38 48t29 18.5q9 0 17 -12t14 -29.5t9.5 -35.5t3.5 -30t-4.5 -63.5t-17.5 -92.5h-13q-9 37 -15 58.5t-14 40t-20 18.5q-8 0 -26 -29
t-37.5 -56.5t-39.5 -48.5t-52 -47.5t-68 -49.5q93 -4 228 -14q58 -5 110 -5q70 0 131 8l9 -8l-37 -132q-27 -8 -51 -15t-60.5 -20.5t-87.5 -35.5q-34 -15 -74.5 -36.5t-110.5 -73t-113 -148.5q-35 -78 -35 -150q0 -20 3 -38q11 -91 58 -152t104 -84.5t117 -37t117 -18
t101 -4.5q156 0 364 28l8 -13q-67 -54 -138 -91t-111.5 -53t-71.5 -27t-42 -13q-70 0 -140.5 5t-135.5 20t-121.5 42.5t-98 73.5t-65 111.5t-23.5 157.5v18q0 97 20 170q21 80 61.5 147.5t116.5 132t150 102.5zM413 1158l110 -70l-60 -105l-111 70zM433 975l110 -70
l-60 -105l-111 70zM580 1180l110 -70l-60 -105l-111 70zM600 997l110 -70l-60 -105l-111 70zM579 -210l110 -70l-60 -105l-111 70z" />
    <glyph glyph-name="uniFC01" unicode="&#xfe8b;&#xfea2;" horiz-adv-x="861" arabic-form="isolated" 
d="M524 153q-77 17 -211 18h-11q-127 0 -209 -24l-12 8q0 17 10.5 64.5t18.5 70.5q11 9 22 14q41 20 119.5 55.5t147.5 95t93.5 96t45.5 66t38 48t29 18.5q9 0 17 -12t14 -29.5t9.5 -35.5t3.5 -30t-4.5 -63.5t-17.5 -92.5h-13q-9 37 -15 58.5t-14 40t-20 18.5q-8 0 -26 -29
t-37.5 -56.5t-39.5 -48.5t-52 -47.5t-68 -49.5q93 -4 228 -14q58 -5 110 -5q70 0 131 8l9 -8l-37 -132q-27 -8 -51 -15t-60.5 -20.5t-87.5 -35.5q-34 -15 -74.5 -36.5t-110.5 -73t-113 -148.5q-35 -78 -35 -150q0 -20 3 -38q11 -91 58 -152t104 -84.5t117 -37t117 -18
t101 -4.5q156 0 364 28l8 -13q-67 -54 -138 -91t-111.5 -53t-71.5 -27t-42 -13q-70 0 -140.5 5t-135.5 20t-121.5 42.5t-98 73.5t-65 111.5t-23.5 157.5v18q0 97 20 170q21 80 61.5 147.5t116.5 132t150 102.5zM607 1134q24 -1 32 -14.5t8 -27.5q0 -31 -8 -72h-14
q-21 17 -34 19t-21 2t-20.5 -5.5t-24 -13t-19.5 -16.5t-8 -16q0 -11 16 -18t40 -11.5t60 -7.5l102 54l7 -10l-20 -88l-236 -117v46l53 43q-23 10 -36.5 18t-25 20t-11.5 27q0 32 16 66t40 60t52 44t52 18z" />
    <glyph glyph-name="uniFC06" unicode="&#xfe91;&#xfea2;" horiz-adv-x="861" arabic-form="isolated" 
d="M524 153q-77 17 -211 18h-11q-127 0 -209 -24l-12 8q0 17 10.5 64.5t18.5 70.5q11 9 22 14q41 20 119.5 55.5t147.5 95t93.5 96t45.5 66t38 48t29 18.5q9 0 17 -12t14 -29.5t9.5 -35.5t3.5 -30t-4.5 -63.5t-17.5 -92.5h-13q-9 37 -15 58.5t-14 40t-20 18.5q-8 0 -26 -29
t-37.5 -56.5t-39.5 -48.5t-52 -47.5t-68 -49.5q93 -4 228 -14q58 -5 110 -5q70 0 131 8l9 -8l-37 -132q-27 -8 -51 -15t-60.5 -20.5t-87.5 -35.5q-34 -15 -74.5 -36.5t-110.5 -73t-113 -148.5q-35 -78 -35 -150q0 -20 3 -38q11 -91 58 -152t104 -84.5t117 -37t117 -18
t101 -4.5q156 0 364 28l8 -13q-67 -54 -138 -91t-111.5 -53t-71.5 -27t-42 -13q-70 0 -140.5 5t-135.5 20t-121.5 42.5t-98 73.5t-65 111.5t-23.5 157.5v18q0 97 20 170q21 80 61.5 147.5t116.5 132t150 102.5zM743 103l110 -70l-60 -105l-111 70z" />
    <glyph glyph-name="uniFC0C" unicode="&#xfe97;&#xfea2;" horiz-adv-x="861" arabic-form="isolated" 
d="M524 153q-77 17 -211 18h-11q-127 0 -209 -24l-12 8q0 17 10.5 64.5t18.5 70.5q11 9 22 14q41 20 119.5 55.5t147.5 95t93.5 96t45.5 66t38 48t29 18.5q9 0 17 -12t14 -29.5t9.5 -35.5t3.5 -30t-4.5 -63.5t-17.5 -92.5h-13q-9 37 -15 58.5t-14 40t-20 18.5q-8 0 -26 -29
t-37.5 -56.5t-39.5 -48.5t-52 -47.5t-68 -49.5q93 -4 228 -14q58 -5 110 -5q70 0 131 8l9 -8l-37 -132q-27 -8 -51 -15t-60.5 -20.5t-87.5 -35.5q-34 -15 -74.5 -36.5t-110.5 -73t-113 -148.5q-35 -78 -35 -150q0 -20 3 -38q11 -91 58 -152t104 -84.5t117 -37t117 -18
t101 -4.5q156 0 364 28l8 -13q-67 -54 -138 -91t-111.5 -53t-71.5 -27t-42 -13q-70 0 -140.5 5t-135.5 20t-121.5 42.5t-98 73.5t-65 111.5t-23.5 157.5v18q0 97 20 170q21 80 61.5 147.5t116.5 132t150 102.5zM449 973l110 -70l-60 -105l-111 70zM615 996l110 -70l-60 -105
l-111 70z" />
    <glyph glyph-name="uni062B062D.isol" unicode="&#xfe9b;&#xfea2;" horiz-adv-x="861" 
d="M524 153q-77 17 -211 18h-11q-127 0 -209 -24l-12 8q0 17 10.5 64.5t18.5 70.5q11 9 22 14q41 20 119.5 55.5t147.5 95t93.5 96t45.5 66t38 48t29 18.5q9 0 17 -12t14 -29.5t9.5 -35.5t3.5 -30t-4.5 -63.5t-17.5 -92.5h-13q-9 37 -15 58.5t-14 40t-20 18.5q-8 0 -26 -29
t-37.5 -56.5t-39.5 -48.5t-52 -47.5t-68 -49.5q93 -4 228 -14q58 -5 110 -5q70 0 131 8l9 -8l-37 -132q-27 -8 -51 -15t-60.5 -20.5t-87.5 -35.5q-34 -15 -74.5 -36.5t-110.5 -73t-113 -148.5q-35 -78 -35 -150q0 -20 3 -38q11 -91 58 -152t104 -84.5t117 -37t117 -18
t101 -4.5q156 0 364 28l8 -13q-67 -54 -138 -91t-111.5 -53t-71.5 -27t-42 -13q-70 0 -140.5 5t-135.5 20t-121.5 42.5t-98 73.5t-65 111.5t-23.5 157.5v18q0 97 20 170q21 80 61.5 147.5t116.5 132t150 102.5zM456 989l110 -70l-60 -105l-111 70zM622 1012l110 -70
l-60 -105l-111 70zM501 1162l110 -70l-60 -105l-111 70z" />
    <glyph glyph-name="uniFC4C" unicode="&#xfee7;&#xfea2;" horiz-adv-x="861" arabic-form="isolated" 
d="M524 153q-77 17 -211 18h-11q-127 0 -209 -24l-12 8q0 17 10.5 64.5t18.5 70.5q11 9 22 14q41 20 119.5 55.5t147.5 95t93.5 96t45.5 66t38 48t29 18.5q9 0 17 -12t14 -29.5t9.5 -35.5t3.5 -30t-4.5 -63.5t-17.5 -92.5h-13q-9 37 -15 58.5t-14 40t-20 18.5q-8 0 -26 -29
t-37.5 -56.5t-39.5 -48.5t-52 -47.5t-68 -49.5q93 -4 228 -14q58 -5 110 -5q70 0 131 8l9 -8l-37 -132q-27 -8 -51 -15t-60.5 -20.5t-87.5 -35.5q-34 -15 -74.5 -36.5t-110.5 -73t-113 -148.5q-35 -78 -35 -150q0 -20 3 -38q11 -91 58 -152t104 -84.5t117 -37t117 -18
t101 -4.5q156 0 364 28l8 -13q-67 -54 -138 -91t-111.5 -53t-71.5 -27t-42 -13q-70 0 -140.5 5t-135.5 20t-121.5 42.5t-98 73.5t-65 111.5t-23.5 157.5v18q0 97 20 170q21 80 61.5 147.5t116.5 132t150 102.5zM551 997l110 -70l-60 -105l-111 70z" />
    <glyph glyph-name="uniFC56" unicode="&#xfbfe;&#xfea2;" horiz-adv-x="861" arabic-form="isolated" 
d="M524 153q-77 17 -211 18h-11q-127 0 -209 -24l-12 8q0 17 10.5 64.5t18.5 70.5q11 9 22 14q41 20 119.5 55.5t147.5 95t93.5 96t45.5 66t38 48t29 18.5q9 0 17 -12t14 -29.5t9.5 -35.5t3.5 -30t-4.5 -63.5t-17.5 -92.5h-13q-9 37 -15 58.5t-14 40t-20 18.5q-8 0 -26 -29
t-37.5 -56.5t-39.5 -48.5t-52 -47.5t-68 -49.5q93 -4 228 -14q58 -5 110 -5q70 0 131 8l9 -8l-37 -132q-27 -8 -51 -15t-60.5 -20.5t-87.5 -35.5q-34 -15 -74.5 -36.5t-110.5 -73t-113 -148.5q-35 -78 -35 -150q0 -20 3 -38q11 -91 58 -152t104 -84.5t117 -37t117 -18
t101 -4.5q156 0 364 28l8 -13q-67 -54 -138 -91t-111.5 -53t-71.5 -27t-42 -13q-70 0 -140.5 5t-135.5 20t-121.5 42.5t-98 73.5t-65 111.5t-23.5 157.5v18q0 97 20 170q21 80 61.5 147.5t116.5 132t150 102.5zM637 82l110 -70l-60 -105l-111 70zM803 105l110 -70l-60 -105
l-111 70z" />
    <glyph glyph-name="uni0679062D.isol" unicode="&#xfb68;&#xfea2;" horiz-adv-x="861" 
d="M524 153q-77 17 -211 18h-11q-127 0 -209 -24l-12 8q0 17 10.5 64.5t18.5 70.5q11 9 22 14q41 20 119.5 55.5t147.5 95t93.5 96t45.5 66t38 48t29 18.5q9 0 17 -12t14 -29.5t9.5 -35.5t3.5 -30t-4.5 -63.5t-17.5 -92.5h-13q-9 37 -15 58.5t-14 40t-20 18.5q-8 0 -26 -29
t-37.5 -56.5t-39.5 -48.5t-52 -47.5t-68 -49.5q93 -4 228 -14q58 -5 110 -5q70 0 131 8l9 -8l-37 -132q-27 -8 -51 -15t-60.5 -20.5t-87.5 -35.5q-34 -15 -74.5 -36.5t-110.5 -73t-113 -148.5q-35 -78 -35 -150q0 -20 3 -38q11 -91 58 -152t104 -84.5t117 -37t117 -18
t101 -4.5q156 0 364 28l8 -13q-67 -54 -138 -91t-111.5 -53t-71.5 -27t-42 -13q-70 0 -140.5 5t-135.5 20t-121.5 42.5t-98 73.5t-65 111.5t-23.5 157.5v18q0 97 20 170q21 80 61.5 147.5t116.5 132t150 102.5zM533 1097q0 -15 2 -25t6 -29.5t7 -40t3 -38.5q0 -6 -1 -13
l-3 -21q12 12 27 23.5l30 23t35 21t35 9.5q11 0 19.5 -6t16 -13.5t14.5 -21.5t7 -23q0 -8 -2 -15t-7.5 -19.5t-14 -24.5t-17.5 -22q-20 -18 -35.5 -25t-39 -10.5t-52 -5.5t-88.5 -2q-7 0 -32 11.5t-55 30.5l1 14h84q4 0 8 1q11 8 15.5 12t15.5 14q4 16 4 25q0 10 -4.5 35
t-9.5 52t-8.5 48t-3.5 36q0 7 -7 14l-2 10q0 10 9.5 26t20.5 32q5 -12 15 -27t24 -25q-1 -8 -6 -18t-11 -13zM696 906q-10 20 -20 30t-23 10q-24 0 -52.5 -19.5t-69.5 -49.5q3 1 11 1h11q54 0 85 4t58 24z" />
    <glyph glyph-name="uni067A062D.isol" unicode="&#xfb60;&#xfea2;" horiz-adv-x="861" 
d="M524 153q-77 17 -211 18h-11q-127 0 -209 -24l-12 8q0 17 10.5 64.5t18.5 70.5q11 9 22 14q41 20 119.5 55.5t147.5 95t93.5 96t45.5 66t38 48t29 18.5q9 0 17 -12t14 -29.5t9.5 -35.5t3.5 -30t-4.5 -63.5t-17.5 -92.5h-13q-9 37 -15 58.5t-14 40t-20 18.5q-8 0 -26 -29
t-37.5 -56.5t-39.5 -48.5t-52 -47.5t-68 -49.5q93 -4 228 -14q58 -5 110 -5q70 0 131 8l9 -8l-37 -132q-27 -8 -51 -15t-60.5 -20.5t-87.5 -35.5q-34 -15 -74.5 -36.5t-110.5 -73t-113 -148.5q-35 -78 -35 -150q0 -20 3 -38q11 -91 58 -152t104 -84.5t117 -37t117 -18
t101 -4.5q156 0 364 28l8 -13q-67 -54 -138 -91t-111.5 -53t-71.5 -27t-42 -13q-70 0 -140.5 5t-135.5 20t-121.5 42.5t-98 73.5t-65 111.5t-23.5 157.5v18q0 97 20 170q21 80 61.5 147.5t116.5 132t150 102.5zM527 1194l110 -70l-60 -105l-111 70zM547 1011l110 -70
l-60 -105l-111 70z" />
    <glyph glyph-name="uni067F062D.isol" unicode="&#xfb64;&#xfea2;" horiz-adv-x="861" 
d="M524 153q-77 17 -211 18h-11q-127 0 -209 -24l-12 8q0 17 10.5 64.5t18.5 70.5q11 9 22 14q41 20 119.5 55.5t147.5 95t93.5 96t45.5 66t38 48t29 18.5q9 0 17 -12t14 -29.5t9.5 -35.5t3.5 -30t-4.5 -63.5t-17.5 -92.5h-13q-9 37 -15 58.5t-14 40t-20 18.5q-8 0 -26 -29
t-37.5 -56.5t-39.5 -48.5t-52 -47.5t-68 -49.5q93 -4 228 -14q58 -5 110 -5q70 0 131 8l9 -8l-37 -132q-27 -8 -51 -15t-60.5 -20.5t-87.5 -35.5q-34 -15 -74.5 -36.5t-110.5 -73t-113 -148.5q-35 -78 -35 -150q0 -20 3 -38q11 -91 58 -152t104 -84.5t117 -37t117 -18
t101 -4.5q156 0 364 28l8 -13q-67 -54 -138 -91t-111.5 -53t-71.5 -27t-42 -13q-70 0 -140.5 5t-135.5 20t-121.5 42.5t-98 73.5t-65 111.5t-23.5 157.5v18q0 97 20 170q21 80 61.5 147.5t116.5 132t150 102.5zM404 1140l110 -70l-60 -105l-111 70zM424 957l110 -70
l-60 -105l-111 70zM571 1162l110 -70l-60 -105l-111 70zM591 979l110 -70l-60 -105l-111 70z" />
    <glyph glyph-name="uni0626062E.isol" unicode="&#xfe8b;&#xfea6;" horiz-adv-x="861" 
d="M524 153q-77 17 -211 18h-11q-127 0 -209 -24l-12 8q0 17 10.5 64.5t18.5 70.5q11 9 22 14q41 20 119.5 55.5t147.5 95t93.5 96t45.5 66t38 48t29 18.5q9 0 17 -12t14 -29.5t9.5 -35.5t3.5 -30t-4.5 -63.5t-17.5 -92.5h-13q-9 37 -15 58.5t-14 40t-20 18.5q-8 0 -26 -29
t-37.5 -56.5t-39.5 -48.5t-52 -47.5t-68 -49.5q93 -4 228 -14q58 -5 110 -5q70 0 131 8l9 -8l-37 -132q-27 -8 -51 -15t-60.5 -20.5t-87.5 -35.5q-34 -15 -74.5 -36.5t-110.5 -73t-113 -148.5q-35 -78 -35 -150q0 -20 3 -38q11 -91 58 -152t104 -84.5t117 -37t117 -18
t101 -4.5q156 0 364 28l8 -13q-67 -54 -138 -91t-111.5 -53t-71.5 -27t-42 -13q-70 0 -140.5 5t-135.5 20t-121.5 42.5t-98 73.5t-65 111.5t-23.5 157.5v18q0 97 20 170q21 80 61.5 147.5t116.5 132t150 102.5zM603 1125q24 -1 32 -14.5t8 -27.5q0 -31 -8 -72h-14
q-21 17 -34 19t-21 2t-20.5 -5.5t-24 -13t-19.5 -16.5t-8 -16q0 -11 16 -18t40 -11.5t60 -7.5l102 54l7 -10l-20 -88l-236 -117v46l53 43q-23 10 -36.5 18t-25 20t-11.5 27q0 32 16 66t40 60t52 44t52 18zM180 667l110 -70l-60 -105l-111 70z" />
    <glyph glyph-name="uniFC07" unicode="&#xfe91;&#xfea6;" horiz-adv-x="861" arabic-form="isolated" 
d="M524 153q-77 17 -211 18h-11q-127 0 -209 -24l-12 8q0 17 10.5 64.5t18.5 70.5q11 9 22 14q41 20 119.5 55.5t147.5 95t93.5 96t45.5 66t38 48t29 18.5q9 0 17 -12t14 -29.5t9.5 -35.5t3.5 -30t-4.5 -63.5t-17.5 -92.5h-13q-9 37 -15 58.5t-14 40t-20 18.5q-8 0 -26 -29
t-37.5 -56.5t-39.5 -48.5t-52 -47.5t-68 -49.5q93 -4 228 -14q58 -5 110 -5q70 0 131 8l9 -8l-37 -132q-27 -8 -51 -15t-60.5 -20.5t-87.5 -35.5q-34 -15 -74.5 -36.5t-110.5 -73t-113 -148.5q-35 -78 -35 -150q0 -20 3 -38q11 -91 58 -152t104 -84.5t117 -37t117 -18
t101 -4.5q156 0 364 28l8 -13q-67 -54 -138 -91t-111.5 -53t-71.5 -27t-42 -13q-70 0 -140.5 5t-135.5 20t-121.5 42.5t-98 73.5t-65 111.5t-23.5 157.5v18q0 97 20 170q21 80 61.5 147.5t116.5 132t150 102.5zM745 99l110 -70l-60 -105l-111 70zM185 653l110 -70l-60 -105
l-111 70z" />
    <glyph glyph-name="uniFC0D" unicode="&#xfe97;&#xfea6;" horiz-adv-x="861" arabic-form="isolated" 
d="M524 153q-77 17 -211 18h-11q-127 0 -209 -24l-12 8q0 17 10.5 64.5t18.5 70.5q11 9 22 14q41 20 119.5 55.5t147.5 95t93.5 96t45.5 66t38 48t29 18.5q9 0 17 -12t14 -29.5t9.5 -35.5t3.5 -30t-4.5 -63.5t-17.5 -92.5h-13q-9 37 -15 58.5t-14 40t-20 18.5q-8 0 -26 -29
t-37.5 -56.5t-39.5 -48.5t-52 -47.5t-68 -49.5q93 -4 228 -14q58 -5 110 -5q70 0 131 8l9 -8l-37 -132q-27 -8 -51 -15t-60.5 -20.5t-87.5 -35.5q-34 -15 -74.5 -36.5t-110.5 -73t-113 -148.5q-35 -78 -35 -150q0 -20 3 -38q11 -91 58 -152t104 -84.5t117 -37t117 -18
t101 -4.5q156 0 364 28l8 -13q-67 -54 -138 -91t-111.5 -53t-71.5 -27t-42 -13q-70 0 -140.5 5t-135.5 20t-121.5 42.5t-98 73.5t-65 111.5t-23.5 157.5v18q0 97 20 170q21 80 61.5 147.5t116.5 132t150 102.5zM479 967l110 -70l-60 -105l-111 70zM645 990l110 -70l-60 -105
l-111 70zM188 648l110 -70l-60 -105l-111 70z" />
    <glyph glyph-name="uni062B062E.isol" unicode="&#xfe9b;&#xfea6;" horiz-adv-x="861" 
d="M524 153q-77 17 -211 18h-11q-127 0 -209 -24l-12 8q0 17 10.5 64.5t18.5 70.5q11 9 22 14q41 20 119.5 55.5t147.5 95t93.5 96t45.5 66t38 48t29 18.5q9 0 17 -12t14 -29.5t9.5 -35.5t3.5 -30t-4.5 -63.5t-17.5 -92.5h-13q-9 37 -15 58.5t-14 40t-20 18.5q-8 0 -26 -29
t-37.5 -56.5t-39.5 -48.5t-52 -47.5t-68 -49.5q93 -4 228 -14q58 -5 110 -5q70 0 131 8l9 -8l-37 -132q-27 -8 -51 -15t-60.5 -20.5t-87.5 -35.5q-34 -15 -74.5 -36.5t-110.5 -73t-113 -148.5q-35 -78 -35 -150q0 -20 3 -38q11 -91 58 -152t104 -84.5t117 -37t117 -18
t101 -4.5q156 0 364 28l8 -13q-67 -54 -138 -91t-111.5 -53t-71.5 -27t-42 -13q-70 0 -140.5 5t-135.5 20t-121.5 42.5t-98 73.5t-65 111.5t-23.5 157.5v18q0 97 20 170q21 80 61.5 147.5t116.5 132t150 102.5zM463 978l110 -70l-60 -105l-111 70zM629 1001l110 -70
l-60 -105l-111 70zM508 1151l110 -70l-60 -105l-111 70zM188 663l110 -70l-60 -105l-111 70z" />
    <glyph glyph-name="uniFC4D" unicode="&#xfee7;&#xfea6;" horiz-adv-x="861" arabic-form="isolated" 
d="M524 153q-77 17 -211 18h-11q-127 0 -209 -24l-12 8q0 17 10.5 64.5t18.5 70.5q11 9 22 14q41 20 119.5 55.5t147.5 95t93.5 96t45.5 66t38 48t29 18.5q9 0 17 -12t14 -29.5t9.5 -35.5t3.5 -30t-4.5 -63.5t-17.5 -92.5h-13q-9 37 -15 58.5t-14 40t-20 18.5q-8 0 -26 -29
t-37.5 -56.5t-39.5 -48.5t-52 -47.5t-68 -49.5q93 -4 228 -14q58 -5 110 -5q70 0 131 8l9 -8l-37 -132q-27 -8 -51 -15t-60.5 -20.5t-87.5 -35.5q-34 -15 -74.5 -36.5t-110.5 -73t-113 -148.5q-35 -78 -35 -150q0 -20 3 -38q11 -91 58 -152t104 -84.5t117 -37t117 -18
t101 -4.5q156 0 364 28l8 -13q-67 -54 -138 -91t-111.5 -53t-71.5 -27t-42 -13q-70 0 -140.5 5t-135.5 20t-121.5 42.5t-98 73.5t-65 111.5t-23.5 157.5v18q0 97 20 170q21 80 61.5 147.5t116.5 132t150 102.5zM542 989l110 -70l-60 -105l-111 70zM183 656l110 -70l-60 -105
l-111 70z" />
    <glyph glyph-name="uniFC57" unicode="&#xfbfe;&#xfea6;" horiz-adv-x="861" arabic-form="isolated" 
d="M524 153q-77 17 -211 18h-11q-127 0 -209 -24l-12 8q0 17 10.5 64.5t18.5 70.5q11 9 22 14q41 20 119.5 55.5t147.5 95t93.5 96t45.5 66t38 48t29 18.5q9 0 17 -12t14 -29.5t9.5 -35.5t3.5 -30t-4.5 -63.5t-17.5 -92.5h-13q-9 37 -15 58.5t-14 40t-20 18.5q-8 0 -26 -29
t-37.5 -56.5t-39.5 -48.5t-52 -47.5t-68 -49.5q93 -4 228 -14q58 -5 110 -5q70 0 131 8l9 -8l-37 -132q-27 -8 -51 -15t-60.5 -20.5t-87.5 -35.5q-34 -15 -74.5 -36.5t-110.5 -73t-113 -148.5q-35 -78 -35 -150q0 -20 3 -38q11 -91 58 -152t104 -84.5t117 -37t117 -18
t101 -4.5q156 0 364 28l8 -13q-67 -54 -138 -91t-111.5 -53t-71.5 -27t-42 -13q-70 0 -140.5 5t-135.5 20t-121.5 42.5t-98 73.5t-65 111.5t-23.5 157.5v18q0 97 20 170q21 80 61.5 147.5t116.5 132t150 102.5zM637 68l110 -70l-60 -105l-111 70zM803 91l110 -70l-60 -105
l-111 70zM198 657l110 -70l-60 -105l-111 70z" />
    <glyph glyph-name="uni067A062E.isol" unicode="&#xfb60;&#xfea6;" horiz-adv-x="861" 
d="M524 153q-77 17 -211 18h-11q-127 0 -209 -24l-12 8q0 17 10.5 64.5t18.5 70.5q11 9 22 14q41 20 119.5 55.5t147.5 95t93.5 96t45.5 66t38 48t29 18.5q9 0 17 -12t14 -29.5t9.5 -35.5t3.5 -30t-4.5 -63.5t-17.5 -92.5h-13q-9 37 -15 58.5t-14 40t-20 18.5q-8 0 -26 -29
t-37.5 -56.5t-39.5 -48.5t-52 -47.5t-68 -49.5q93 -4 228 -14q58 -5 110 -5q70 0 131 8l9 -8l-37 -132q-27 -8 -51 -15t-60.5 -20.5t-87.5 -35.5q-34 -15 -74.5 -36.5t-110.5 -73t-113 -148.5q-35 -78 -35 -150q0 -20 3 -38q11 -91 58 -152t104 -84.5t117 -37t117 -18
t101 -4.5q156 0 364 28l8 -13q-67 -54 -138 -91t-111.5 -53t-71.5 -27t-42 -13q-70 0 -140.5 5t-135.5 20t-121.5 42.5t-98 73.5t-65 111.5t-23.5 157.5v18q0 97 20 170q21 80 61.5 147.5t116.5 132t150 102.5zM536 1153l110 -70l-60 -105l-111 70zM556 970l110 -70
l-60 -105l-111 70zM192 667l110 -70l-60 -105l-111 70z" />
    <glyph glyph-name="uni067F062E.isol" unicode="&#xfb64;&#xfea6;" horiz-adv-x="861" 
d="M524 153q-77 17 -211 18h-11q-127 0 -209 -24l-12 8q0 17 10.5 64.5t18.5 70.5q11 9 22 14q41 20 119.5 55.5t147.5 95t93.5 96t45.5 66t38 48t29 18.5q9 0 17 -12t14 -29.5t9.5 -35.5t3.5 -30t-4.5 -63.5t-17.5 -92.5h-13q-9 37 -15 58.5t-14 40t-20 18.5q-8 0 -26 -29
t-37.5 -56.5t-39.5 -48.5t-52 -47.5t-68 -49.5q93 -4 228 -14q58 -5 110 -5q70 0 131 8l9 -8l-37 -132q-27 -8 -51 -15t-60.5 -20.5t-87.5 -35.5q-34 -15 -74.5 -36.5t-110.5 -73t-113 -148.5q-35 -78 -35 -150q0 -20 3 -38q11 -91 58 -152t104 -84.5t117 -37t117 -18
t101 -4.5q156 0 364 28l8 -13q-67 -54 -138 -91t-111.5 -53t-71.5 -27t-42 -13q-70 0 -140.5 5t-135.5 20t-121.5 42.5t-98 73.5t-65 111.5t-23.5 157.5v18q0 97 20 170q21 80 61.5 147.5t116.5 132t150 102.5zM417 1136l110 -70l-60 -105l-111 70zM437 953l110 -70
l-60 -105l-111 70zM584 1158l110 -70l-60 -105l-111 70zM604 975l110 -70l-60 -105l-111 70zM167 635l110 -70l-60 -105l-111 70z" />
    <glyph glyph-name="uni06260683.isol" unicode="&#xfe8b;&#xfb77;" horiz-adv-x="861" 
d="M524 153q-77 17 -211 18h-11q-127 0 -209 -24l-12 8q0 17 10.5 64.5t18.5 70.5q11 9 22 14q41 20 119.5 55.5t147.5 95t93.5 96t45.5 66t38 48t29 18.5q9 0 17 -12t14 -29.5t9.5 -35.5t3.5 -30t-4.5 -63.5t-17.5 -92.5h-13q-9 37 -15 58.5t-14 40t-20 18.5q-8 0 -26 -29
t-37.5 -56.5t-39.5 -48.5t-52 -47.5t-68 -49.5q93 -4 228 -14q58 -5 110 -5q70 0 131 8l9 -8l-37 -132q-27 -8 -51 -15t-60.5 -20.5t-87.5 -35.5q-34 -15 -74.5 -36.5t-110.5 -73t-113 -148.5q-35 -78 -35 -150q0 -20 3 -38q11 -91 58 -152t104 -84.5t117 -37t117 -18
t101 -4.5q156 0 364 28l8 -13q-67 -54 -138 -91t-111.5 -53t-71.5 -27t-42 -13q-70 0 -140.5 5t-135.5 20t-121.5 42.5t-98 73.5t-65 111.5t-23.5 157.5v18q0 97 20 170q21 80 61.5 147.5t116.5 132t150 102.5zM585 1089q24 -1 32 -14.5t8 -27.5q0 -31 -8 -72h-14
q-21 17 -34 19t-21 2t-20.5 -5.5t-24 -13t-19.5 -16.5t-8 -16q0 -11 16 -18t40 -11.5t60 -7.5l102 54l7 -10l-20 -88l-236 -117v46l53 43q-23 10 -36.5 18t-25 20t-11.5 27q0 32 16 66t40 60t52 44t52 18zM528 -211l110 -70l-60 -105l-111 70zM694 -188l110 -70l-60 -105
l-111 70z" />
    <glyph glyph-name="uni06280683.isol" unicode="&#xfe91;&#xfb77;" horiz-adv-x="861" 
d="M524 153q-77 17 -211 18h-11q-127 0 -209 -24l-12 8q0 17 10.5 64.5t18.5 70.5q11 9 22 14q41 20 119.5 55.5t147.5 95t93.5 96t45.5 66t38 48t29 18.5q9 0 17 -12t14 -29.5t9.5 -35.5t3.5 -30t-4.5 -63.5t-17.5 -92.5h-13q-9 37 -15 58.5t-14 40t-20 18.5q-8 0 -26 -29
t-37.5 -56.5t-39.5 -48.5t-52 -47.5t-68 -49.5q93 -4 228 -14q58 -5 110 -5q70 0 131 8l9 -8l-37 -132q-27 -8 -51 -15t-60.5 -20.5t-87.5 -35.5q-34 -15 -74.5 -36.5t-110.5 -73t-113 -148.5q-35 -78 -35 -150q0 -20 3 -38q11 -91 58 -152t104 -84.5t117 -37t117 -18
t101 -4.5q156 0 364 28l8 -13q-67 -54 -138 -91t-111.5 -53t-71.5 -27t-42 -13q-70 0 -140.5 5t-135.5 20t-121.5 42.5t-98 73.5t-65 111.5t-23.5 157.5v18q0 97 20 170q21 80 61.5 147.5t116.5 132t150 102.5zM729 79l110 -70l-60 -105l-111 70zM527 -216l110 -70l-60 -105
l-111 70zM693 -193l110 -70l-60 -105l-111 70z" />
    <glyph glyph-name="uni062A0683.isol" unicode="&#xfe97;&#xfb77;" horiz-adv-x="861" 
d="M524 153q-77 17 -211 18h-11q-127 0 -209 -24l-12 8q0 17 10.5 64.5t18.5 70.5q11 9 22 14q41 20 119.5 55.5t147.5 95t93.5 96t45.5 66t38 48t29 18.5q9 0 17 -12t14 -29.5t9.5 -35.5t3.5 -30t-4.5 -63.5t-17.5 -92.5h-13q-9 37 -15 58.5t-14 40t-20 18.5q-8 0 -26 -29
t-37.5 -56.5t-39.5 -48.5t-52 -47.5t-68 -49.5q93 -4 228 -14q58 -5 110 -5q70 0 131 8l9 -8l-37 -132q-27 -8 -51 -15t-60.5 -20.5t-87.5 -35.5q-34 -15 -74.5 -36.5t-110.5 -73t-113 -148.5q-35 -78 -35 -150q0 -20 3 -38q11 -91 58 -152t104 -84.5t117 -37t117 -18
t101 -4.5q156 0 364 28l8 -13q-67 -54 -138 -91t-111.5 -53t-71.5 -27t-42 -13q-70 0 -140.5 5t-135.5 20t-121.5 42.5t-98 73.5t-65 111.5t-23.5 157.5v18q0 97 20 170q21 80 61.5 147.5t116.5 132t150 102.5zM452 965l110 -70l-60 -105l-111 70zM618 988l110 -70l-60 -105
l-111 70zM530 -227l110 -70l-60 -105l-111 70zM696 -204l110 -70l-60 -105l-111 70z" />
    <glyph glyph-name="uni062B0683.isol" unicode="&#xfe9b;&#xfb77;" horiz-adv-x="861" 
d="M524 153q-77 17 -211 18h-11q-127 0 -209 -24l-12 8q0 17 10.5 64.5t18.5 70.5q11 9 22 14q41 20 119.5 55.5t147.5 95t93.5 96t45.5 66t38 48t29 18.5q9 0 17 -12t14 -29.5t9.5 -35.5t3.5 -30t-4.5 -63.5t-17.5 -92.5h-13q-9 37 -15 58.5t-14 40t-20 18.5q-8 0 -26 -29
t-37.5 -56.5t-39.5 -48.5t-52 -47.5t-68 -49.5q93 -4 228 -14q58 -5 110 -5q70 0 131 8l9 -8l-37 -132q-27 -8 -51 -15t-60.5 -20.5t-87.5 -35.5q-34 -15 -74.5 -36.5t-110.5 -73t-113 -148.5q-35 -78 -35 -150q0 -20 3 -38q11 -91 58 -152t104 -84.5t117 -37t117 -18
t101 -4.5q156 0 364 28l8 -13q-67 -54 -138 -91t-111.5 -53t-71.5 -27t-42 -13q-70 0 -140.5 5t-135.5 20t-121.5 42.5t-98 73.5t-65 111.5t-23.5 157.5v18q0 97 20 170q21 80 61.5 147.5t116.5 132t150 102.5zM446 965l110 -70l-60 -105l-111 70zM612 988l110 -70l-60 -105
l-111 70zM491 1138l110 -70l-60 -105l-111 70zM534 -224l110 -70l-60 -105l-111 70zM700 -201l110 -70l-60 -105l-111 70z" />
    <glyph glyph-name="uni06460683.isol" unicode="&#xfee7;&#xfb77;" horiz-adv-x="861" 
d="M524 153q-77 17 -211 18h-11q-127 0 -209 -24l-12 8q0 17 10.5 64.5t18.5 70.5q11 9 22 14q41 20 119.5 55.5t147.5 95t93.5 96t45.5 66t38 48t29 18.5q9 0 17 -12t14 -29.5t9.5 -35.5t3.5 -30t-4.5 -63.5t-17.5 -92.5h-13q-9 37 -15 58.5t-14 40t-20 18.5q-8 0 -26 -29
t-37.5 -56.5t-39.5 -48.5t-52 -47.5t-68 -49.5q93 -4 228 -14q58 -5 110 -5q70 0 131 8l9 -8l-37 -132q-27 -8 -51 -15t-60.5 -20.5t-87.5 -35.5q-34 -15 -74.5 -36.5t-110.5 -73t-113 -148.5q-35 -78 -35 -150q0 -20 3 -38q11 -91 58 -152t104 -84.5t117 -37t117 -18
t101 -4.5q156 0 364 28l8 -13q-67 -54 -138 -91t-111.5 -53t-71.5 -27t-42 -13q-70 0 -140.5 5t-135.5 20t-121.5 42.5t-98 73.5t-65 111.5t-23.5 157.5v18q0 97 20 170q21 80 61.5 147.5t116.5 132t150 102.5zM539 973l110 -70l-60 -105l-111 70zM526 -223l110 -70
l-60 -105l-111 70zM692 -200l110 -70l-60 -105l-111 70z" />
    <glyph glyph-name="uni064A0683.isol" unicode="&#xfbfe;&#xfb77;" horiz-adv-x="861" 
d="M524 153q-77 17 -211 18h-11q-127 0 -209 -24l-12 8q0 17 10.5 64.5t18.5 70.5q11 9 22 14q41 20 119.5 55.5t147.5 95t93.5 96t45.5 66t38 48t29 18.5q9 0 17 -12t14 -29.5t9.5 -35.5t3.5 -30t-4.5 -63.5t-17.5 -92.5h-13q-9 37 -15 58.5t-14 40t-20 18.5q-8 0 -26 -29
t-37.5 -56.5t-39.5 -48.5t-52 -47.5t-68 -49.5q93 -4 228 -14q58 -5 110 -5q70 0 131 8l9 -8l-37 -132q-27 -8 -51 -15t-60.5 -20.5t-87.5 -35.5q-34 -15 -74.5 -36.5t-110.5 -73t-113 -148.5q-35 -78 -35 -150q0 -20 3 -38q11 -91 58 -152t104 -84.5t117 -37t117 -18
t101 -4.5q156 0 364 28l8 -13q-67 -54 -138 -91t-111.5 -53t-71.5 -27t-42 -13q-70 0 -140.5 5t-135.5 20t-121.5 42.5t-98 73.5t-65 111.5t-23.5 157.5v18q0 97 20 170q21 80 61.5 147.5t116.5 132t150 102.5zM641 54l110 -70l-60 -105l-111 70zM807 77l110 -70l-60 -105
l-111 70zM534 -213l110 -70l-60 -105l-111 70zM700 -190l110 -70l-60 -105l-111 70z" />
    <glyph glyph-name="uni06790683.isol" unicode="&#xfb68;&#xfb77;" horiz-adv-x="861" 
d="M524 153q-77 17 -211 18h-11q-127 0 -209 -24l-12 8q0 17 10.5 64.5t18.5 70.5q11 9 22 14q41 20 119.5 55.5t147.5 95t93.5 96t45.5 66t38 48t29 18.5q9 0 17 -12t14 -29.5t9.5 -35.5t3.5 -30t-4.5 -63.5t-17.5 -92.5h-13q-9 37 -15 58.5t-14 40t-20 18.5q-8 0 -26 -29
t-37.5 -56.5t-39.5 -48.5t-52 -47.5t-68 -49.5q93 -4 228 -14q58 -5 110 -5q70 0 131 8l9 -8l-37 -132q-27 -8 -51 -15t-60.5 -20.5t-87.5 -35.5q-34 -15 -74.5 -36.5t-110.5 -73t-113 -148.5q-35 -78 -35 -150q0 -20 3 -38q11 -91 58 -152t104 -84.5t117 -37t117 -18
t101 -4.5q156 0 364 28l8 -13q-67 -54 -138 -91t-111.5 -53t-71.5 -27t-42 -13q-70 0 -140.5 5t-135.5 20t-121.5 42.5t-98 73.5t-65 111.5t-23.5 157.5v18q0 97 20 170q21 80 61.5 147.5t116.5 132t150 102.5zM554 1082q0 -15 2 -25t6 -29.5t7 -40t3 -38.5q0 -6 -1 -13
l-3 -21q12 12 27 23.5l30 23t35 21t35 9.5q11 0 19.5 -6t16 -13.5t14.5 -21.5t7 -23q0 -8 -2 -15t-7.5 -19.5t-14 -24.5t-17.5 -22q-20 -18 -35.5 -25t-39 -10.5t-52 -5.5t-88.5 -2q-7 0 -32 11.5t-55 30.5l1 14h84q4 0 8 1q11 8 15.5 12t15.5 14q4 16 4 25q0 10 -4.5 35
t-9.5 52t-8.5 48t-3.5 36q0 7 -7 14l-2 10q0 10 9.5 26t20.5 32q5 -12 15 -27t24 -25q-1 -8 -6 -18t-11 -13zM717 891q-10 20 -20 30t-23 10q-24 0 -52.5 -19.5t-69.5 -49.5q3 1 11 1h11q54 0 85 4t58 24zM514 -240l110 -70l-60 -105l-111 70zM680 -217l110 -70l-60 -105
l-111 70z" />
    <glyph glyph-name="uni067A0683.isol" unicode="&#xfb60;&#xfb77;" horiz-adv-x="861" 
d="M524 153q-77 17 -211 18h-11q-127 0 -209 -24l-12 8q0 17 10.5 64.5t18.5 70.5q11 9 22 14q41 20 119.5 55.5t147.5 95t93.5 96t45.5 66t38 48t29 18.5q9 0 17 -12t14 -29.5t9.5 -35.5t3.5 -30t-4.5 -63.5t-17.5 -92.5h-13q-9 37 -15 58.5t-14 40t-20 18.5q-8 0 -26 -29
t-37.5 -56.5t-39.5 -48.5t-52 -47.5t-68 -49.5q93 -4 228 -14q58 -5 110 -5q70 0 131 8l9 -8l-37 -132q-27 -8 -51 -15t-60.5 -20.5t-87.5 -35.5q-34 -15 -74.5 -36.5t-110.5 -73t-113 -148.5q-35 -78 -35 -150q0 -20 3 -38q11 -91 58 -152t104 -84.5t117 -37t117 -18
t101 -4.5q156 0 364 28l8 -13q-67 -54 -138 -91t-111.5 -53t-71.5 -27t-42 -13q-70 0 -140.5 5t-135.5 20t-121.5 42.5t-98 73.5t-65 111.5t-23.5 157.5v18q0 97 20 170q21 80 61.5 147.5t116.5 132t150 102.5zM533 1153l110 -70l-60 -105l-111 70zM553 970l110 -70
l-60 -105l-111 70zM507 -235l110 -70l-60 -105l-111 70zM673 -212l110 -70l-60 -105l-111 70z" />
    <glyph glyph-name="uni067F0683.isol" unicode="&#xfb64;&#xfb77;" horiz-adv-x="861" 
d="M524 153q-77 17 -211 18h-11q-127 0 -209 -24l-12 8q0 17 10.5 64.5t18.5 70.5q11 9 22 14q41 20 119.5 55.5t147.5 95t93.5 96t45.5 66t38 48t29 18.5q9 0 17 -12t14 -29.5t9.5 -35.5t3.5 -30t-4.5 -63.5t-17.5 -92.5h-13q-9 37 -15 58.5t-14 40t-20 18.5q-8 0 -26 -29
t-37.5 -56.5t-39.5 -48.5t-52 -47.5t-68 -49.5q93 -4 228 -14q58 -5 110 -5q70 0 131 8l9 -8l-37 -132q-27 -8 -51 -15t-60.5 -20.5t-87.5 -35.5q-34 -15 -74.5 -36.5t-110.5 -73t-113 -148.5q-35 -78 -35 -150q0 -20 3 -38q11 -91 58 -152t104 -84.5t117 -37t117 -18
t101 -4.5q156 0 364 28l8 -13q-67 -54 -138 -91t-111.5 -53t-71.5 -27t-42 -13q-70 0 -140.5 5t-135.5 20t-121.5 42.5t-98 73.5t-65 111.5t-23.5 157.5v18q0 97 20 170q21 80 61.5 147.5t116.5 132t150 102.5zM408 1143l110 -70l-60 -105l-111 70zM428 960l110 -70
l-60 -105l-111 70zM575 1165l110 -70l-60 -105l-111 70zM595 982l110 -70l-60 -105l-111 70zM538 -206l110 -70l-60 -105l-111 70zM704 -183l110 -70l-60 -105l-111 70z" />
    <glyph glyph-name="uni06260684.isol" unicode="&#xfe8b;&#xfb73;" horiz-adv-x="861" 
d="M524 153q-77 17 -211 18h-11q-127 0 -209 -24l-12 8q0 17 10.5 64.5t18.5 70.5q11 9 22 14q41 20 119.5 55.5t147.5 95t93.5 96t45.5 66t38 48t29 18.5q9 0 17 -12t14 -29.5t9.5 -35.5t3.5 -30t-4.5 -63.5t-17.5 -92.5h-13q-9 37 -15 58.5t-14 40t-20 18.5q-8 0 -26 -29
t-37.5 -56.5t-39.5 -48.5t-52 -47.5t-68 -49.5q93 -4 228 -14q58 -5 110 -5q70 0 131 8l9 -8l-37 -132q-27 -8 -51 -15t-60.5 -20.5t-87.5 -35.5q-34 -15 -74.5 -36.5t-110.5 -73t-113 -148.5q-35 -78 -35 -150q0 -20 3 -38q11 -91 58 -152t104 -84.5t117 -37t117 -18
t101 -4.5q156 0 364 28l8 -13q-67 -54 -138 -91t-111.5 -53t-71.5 -27t-42 -13q-70 0 -140.5 5t-135.5 20t-121.5 42.5t-98 73.5t-65 111.5t-23.5 157.5v18q0 97 20 170q21 80 61.5 147.5t116.5 132t150 102.5zM617 1067q24 -1 32 -14.5t8 -27.5q0 -31 -8 -72h-14
q-21 17 -34 19t-21 2t-20.5 -5.5t-24 -13t-19.5 -16.5t-8 -16q0 -11 16 -18t40 -11.5t60 -7.5l102 54l7 -10l-20 -88l-236 -117v46l53 43q-23 10 -36.5 18t-25 20t-11.5 27q0 32 16 66t40 60t52 44t52 18zM594 -155l110 -70l-60 -105l-111 70zM614 -338l110 -70l-60 -105
l-111 70z" />
    <glyph glyph-name="uni06280684.isol" unicode="&#xfe91;&#xfb73;" horiz-adv-x="861" 
d="M524 153q-77 17 -211 18h-11q-127 0 -209 -24l-12 8q0 17 10.5 64.5t18.5 70.5q11 9 22 14q41 20 119.5 55.5t147.5 95t93.5 96t45.5 66t38 48t29 18.5q9 0 17 -12t14 -29.5t9.5 -35.5t3.5 -30t-4.5 -63.5t-17.5 -92.5h-13q-9 37 -15 58.5t-14 40t-20 18.5q-8 0 -26 -29
t-37.5 -56.5t-39.5 -48.5t-52 -47.5t-68 -49.5q93 -4 228 -14q58 -5 110 -5q70 0 131 8l9 -8l-37 -132q-27 -8 -51 -15t-60.5 -20.5t-87.5 -35.5q-34 -15 -74.5 -36.5t-110.5 -73t-113 -148.5q-35 -78 -35 -150q0 -20 3 -38q11 -91 58 -152t104 -84.5t117 -37t117 -18
t101 -4.5q156 0 364 28l8 -13q-67 -54 -138 -91t-111.5 -53t-71.5 -27t-42 -13q-70 0 -140.5 5t-135.5 20t-121.5 42.5t-98 73.5t-65 111.5t-23.5 157.5v18q0 97 20 170q21 80 61.5 147.5t116.5 132t150 102.5zM830 109l110 -70l-60 -105l-111 70zM594 -152l110 -70
l-60 -105l-111 70zM614 -335l110 -70l-60 -105l-111 70z" />
    <glyph glyph-name="uni062A0684.isol" unicode="&#xfe97;&#xfb73;" horiz-adv-x="861" 
d="M524 153q-77 17 -211 18h-11q-127 0 -209 -24l-12 8q0 17 10.5 64.5t18.5 70.5q11 9 22 14q41 20 119.5 55.5t147.5 95t93.5 96t45.5 66t38 48t29 18.5q9 0 17 -12t14 -29.5t9.5 -35.5t3.5 -30t-4.5 -63.5t-17.5 -92.5h-13q-9 37 -15 58.5t-14 40t-20 18.5q-8 0 -26 -29
t-37.5 -56.5t-39.5 -48.5t-52 -47.5t-68 -49.5q93 -4 228 -14q58 -5 110 -5q70 0 131 8l9 -8l-37 -132q-27 -8 -51 -15t-60.5 -20.5t-87.5 -35.5q-34 -15 -74.5 -36.5t-110.5 -73t-113 -148.5q-35 -78 -35 -150q0 -20 3 -38q11 -91 58 -152t104 -84.5t117 -37t117 -18
t101 -4.5q156 0 364 28l8 -13q-67 -54 -138 -91t-111.5 -53t-71.5 -27t-42 -13q-70 0 -140.5 5t-135.5 20t-121.5 42.5t-98 73.5t-65 111.5t-23.5 157.5v18q0 97 20 170q21 80 61.5 147.5t116.5 132t150 102.5zM452 960l110 -70l-60 -105l-111 70zM618 983l110 -70l-60 -105
l-111 70zM594 -152l110 -70l-60 -105l-111 70zM614 -335l110 -70l-60 -105l-111 70z" />
    <glyph glyph-name="uni062B0684.isol" unicode="&#xfe9b;&#xfb73;" horiz-adv-x="861" 
d="M524 153q-77 17 -211 18h-11q-127 0 -209 -24l-12 8q0 17 10.5 64.5t18.5 70.5q11 9 22 14q41 20 119.5 55.5t147.5 95t93.5 96t45.5 66t38 48t29 18.5q9 0 17 -12t14 -29.5t9.5 -35.5t3.5 -30t-4.5 -63.5t-17.5 -92.5h-13q-9 37 -15 58.5t-14 40t-20 18.5q-8 0 -26 -29
t-37.5 -56.5t-39.5 -48.5t-52 -47.5t-68 -49.5q93 -4 228 -14q58 -5 110 -5q70 0 131 8l9 -8l-37 -132q-27 -8 -51 -15t-60.5 -20.5t-87.5 -35.5q-34 -15 -74.5 -36.5t-110.5 -73t-113 -148.5q-35 -78 -35 -150q0 -20 3 -38q11 -91 58 -152t104 -84.5t117 -37t117 -18
t101 -4.5q156 0 364 28l8 -13q-67 -54 -138 -91t-111.5 -53t-71.5 -27t-42 -13q-70 0 -140.5 5t-135.5 20t-121.5 42.5t-98 73.5t-65 111.5t-23.5 157.5v18q0 97 20 170q21 80 61.5 147.5t116.5 132t150 102.5zM465 969l110 -70l-60 -105l-111 70zM631 992l110 -70l-60 -105
l-111 70zM510 1142l110 -70l-60 -105l-111 70zM594 -152l110 -70l-60 -105l-111 70zM614 -335l110 -70l-60 -105l-111 70z" />
    <glyph glyph-name="uni06460684.isol" unicode="&#xfee7;&#xfb73;" horiz-adv-x="861" 
d="M524 153q-77 17 -211 18h-11q-127 0 -209 -24l-12 8q0 17 10.5 64.5t18.5 70.5q11 9 22 14q41 20 119.5 55.5t147.5 95t93.5 96t45.5 66t38 48t29 18.5q9 0 17 -12t14 -29.5t9.5 -35.5t3.5 -30t-4.5 -63.5t-17.5 -92.5h-13q-9 37 -15 58.5t-14 40t-20 18.5q-8 0 -26 -29
t-37.5 -56.5t-39.5 -48.5t-52 -47.5t-68 -49.5q93 -4 228 -14q58 -5 110 -5q70 0 131 8l9 -8l-37 -132q-27 -8 -51 -15t-60.5 -20.5t-87.5 -35.5q-34 -15 -74.5 -36.5t-110.5 -73t-113 -148.5q-35 -78 -35 -150q0 -20 3 -38q11 -91 58 -152t104 -84.5t117 -37t117 -18
t101 -4.5q156 0 364 28l8 -13q-67 -54 -138 -91t-111.5 -53t-71.5 -27t-42 -13q-70 0 -140.5 5t-135.5 20t-121.5 42.5t-98 73.5t-65 111.5t-23.5 157.5v18q0 97 20 170q21 80 61.5 147.5t116.5 132t150 102.5zM544 963l110 -70l-60 -105l-111 70zM590 -152l110 -70
l-60 -105l-111 70zM610 -335l110 -70l-60 -105l-111 70z" />
    <glyph glyph-name="uni064A0684.isol" unicode="&#xfbfe;&#xfb73;" horiz-adv-x="861" 
d="M524 153q-77 17 -211 18h-11q-127 0 -209 -24l-12 8q0 17 10.5 64.5t18.5 70.5q11 9 22 14q41 20 119.5 55.5t147.5 95t93.5 96t45.5 66t38 48t29 18.5q9 0 17 -12t14 -29.5t9.5 -35.5t3.5 -30t-4.5 -63.5t-17.5 -92.5h-13q-9 37 -15 58.5t-14 40t-20 18.5q-8 0 -26 -29
t-37.5 -56.5t-39.5 -48.5t-52 -47.5t-68 -49.5q93 -4 228 -14q58 -5 110 -5q70 0 131 8l9 -8l-37 -132q-27 -8 -51 -15t-60.5 -20.5t-87.5 -35.5q-34 -15 -74.5 -36.5t-110.5 -73t-113 -148.5q-35 -78 -35 -150q0 -20 3 -38q11 -91 58 -152t104 -84.5t117 -37t117 -18
t101 -4.5q156 0 364 28l8 -13q-67 -54 -138 -91t-111.5 -53t-71.5 -27t-42 -13q-70 0 -140.5 5t-135.5 20t-121.5 42.5t-98 73.5t-65 111.5t-23.5 157.5v18q0 97 20 170q21 80 61.5 147.5t116.5 132t150 102.5zM635 46l110 -70l-60 -105l-111 70zM801 69l110 -70l-60 -105
l-111 70zM581 -190l110 -70l-60 -105l-111 70zM601 -373l110 -70l-60 -105l-111 70z" />
    <glyph glyph-name="uni06790684.isol" unicode="&#xfb68;&#xfb73;" horiz-adv-x="861" 
d="M524 153q-77 17 -211 18h-11q-127 0 -209 -24l-12 8q0 17 10.5 64.5t18.5 70.5q11 9 22 14q41 20 119.5 55.5t147.5 95t93.5 96t45.5 66t38 48t29 18.5q9 0 17 -12t14 -29.5t9.5 -35.5t3.5 -30t-4.5 -63.5t-17.5 -92.5h-13q-9 37 -15 58.5t-14 40t-20 18.5q-8 0 -26 -29
t-37.5 -56.5t-39.5 -48.5t-52 -47.5t-68 -49.5q93 -4 228 -14q58 -5 110 -5q70 0 131 8l9 -8l-37 -132q-27 -8 -51 -15t-60.5 -20.5t-87.5 -35.5q-34 -15 -74.5 -36.5t-110.5 -73t-113 -148.5q-35 -78 -35 -150q0 -20 3 -38q11 -91 58 -152t104 -84.5t117 -37t117 -18
t101 -4.5q156 0 364 28l8 -13q-67 -54 -138 -91t-111.5 -53t-71.5 -27t-42 -13q-70 0 -140.5 5t-135.5 20t-121.5 42.5t-98 73.5t-65 111.5t-23.5 157.5v18q0 97 20 170q21 80 61.5 147.5t116.5 132t150 102.5zM550 1072q0 -15 2 -25t6 -29.5t7 -40t3 -38.5q0 -6 -1 -13
l-3 -21q12 12 27 23.5l30 23t35 21t35 9.5q11 0 19.5 -6t16 -13.5t14.5 -21.5t7 -23q0 -8 -2 -15t-7.5 -19.5t-14 -24.5t-17.5 -22q-20 -18 -35.5 -25t-39 -10.5t-52 -5.5t-88.5 -2q-7 0 -32 11.5t-55 30.5l1 14h84q4 0 8 1q11 8 15.5 12t15.5 14q4 16 4 25q0 10 -4.5 35
t-9.5 52t-8.5 48t-3.5 36q0 7 -7 14l-2 10q0 10 9.5 26t20.5 32q5 -12 15 -27t24 -25q-1 -8 -6 -18t-11 -13zM713 881q-10 20 -20 30t-23 10q-24 0 -52.5 -19.5t-69.5 -49.5q3 1 11 1h11q54 0 85 4t58 24zM589 -55l110 -70l-60 -105l-111 70zM609 -238l110 -70l-60 -105
l-111 70z" />
    <glyph glyph-name="uni067A0684.isol" unicode="&#xfb60;&#xfb73;" horiz-adv-x="861" 
d="M524 153q-77 17 -211 18h-11q-127 0 -209 -24l-12 8q0 17 10.5 64.5t18.5 70.5q11 9 22 14q41 20 119.5 55.5t147.5 95t93.5 96t45.5 66t38 48t29 18.5q9 0 17 -12t14 -29.5t9.5 -35.5t3.5 -30t-4.5 -63.5t-17.5 -92.5h-13q-9 37 -15 58.5t-14 40t-20 18.5q-8 0 -26 -29
t-37.5 -56.5t-39.5 -48.5t-52 -47.5t-68 -49.5q93 -4 228 -14q58 -5 110 -5q70 0 131 8l9 -8l-37 -132q-27 -8 -51 -15t-60.5 -20.5t-87.5 -35.5q-34 -15 -74.5 -36.5t-110.5 -73t-113 -148.5q-35 -78 -35 -150q0 -20 3 -38q11 -91 58 -152t104 -84.5t117 -37t117 -18
t101 -4.5q156 0 364 28l8 -13q-67 -54 -138 -91t-111.5 -53t-71.5 -27t-42 -13q-70 0 -140.5 5t-135.5 20t-121.5 42.5t-98 73.5t-65 111.5t-23.5 157.5v18q0 97 20 170q21 80 61.5 147.5t116.5 132t150 102.5zM551 1168l110 -70l-60 -105l-111 70zM571 985l110 -70
l-60 -105l-111 70zM592 -55l110 -70l-60 -105l-111 70zM612 -238l110 -70l-60 -105l-111 70z" />
    <glyph glyph-name="uni067F0684.isol" unicode="&#xfb64;&#xfb73;" horiz-adv-x="861" 
d="M524 153q-77 17 -211 18h-11q-127 0 -209 -24l-12 8q0 17 10.5 64.5t18.5 70.5q11 9 22 14q41 20 119.5 55.5t147.5 95t93.5 96t45.5 66t38 48t29 18.5q9 0 17 -12t14 -29.5t9.5 -35.5t3.5 -30t-4.5 -63.5t-17.5 -92.5h-13q-9 37 -15 58.5t-14 40t-20 18.5q-8 0 -26 -29
t-37.5 -56.5t-39.5 -48.5t-52 -47.5t-68 -49.5q93 -4 228 -14q58 -5 110 -5q70 0 131 8l9 -8l-37 -132q-27 -8 -51 -15t-60.5 -20.5t-87.5 -35.5q-34 -15 -74.5 -36.5t-110.5 -73t-113 -148.5q-35 -78 -35 -150q0 -20 3 -38q11 -91 58 -152t104 -84.5t117 -37t117 -18
t101 -4.5q156 0 364 28l8 -13q-67 -54 -138 -91t-111.5 -53t-71.5 -27t-42 -13q-70 0 -140.5 5t-135.5 20t-121.5 42.5t-98 73.5t-65 111.5t-23.5 157.5v18q0 97 20 170q21 80 61.5 147.5t116.5 132t150 102.5zM438 1143l110 -70l-60 -105l-111 70zM458 960l110 -70
l-60 -105l-111 70zM605 1165l110 -70l-60 -105l-111 70zM625 982l110 -70l-60 -105l-111 70zM582 -55l110 -70l-60 -105l-111 70zM602 -238l110 -70l-60 -105l-111 70z" />
    <glyph glyph-name="uni06260686.isol" unicode="&#xfe8b;&#xfb7b;" horiz-adv-x="861" 
d="M524 153q-77 17 -211 18h-11q-127 0 -209 -24l-12 8q0 17 10.5 64.5t18.5 70.5q11 9 22 14q41 20 119.5 55.5t147.5 95t93.5 96t45.5 66t38 48t29 18.5q9 0 17 -12t14 -29.5t9.5 -35.5t3.5 -30t-4.5 -63.5t-17.5 -92.5h-13q-9 37 -15 58.5t-14 40t-20 18.5q-8 0 -26 -29
t-37.5 -56.5t-39.5 -48.5t-52 -47.5t-68 -49.5q93 -4 228 -14q58 -5 110 -5q70 0 131 8l9 -8l-37 -132q-27 -8 -51 -15t-60.5 -20.5t-87.5 -35.5q-34 -15 -74.5 -36.5t-110.5 -73t-113 -148.5q-35 -78 -35 -150q0 -20 3 -38q11 -91 58 -152t104 -84.5t117 -37t117 -18
t101 -4.5q156 0 364 28l8 -13q-67 -54 -138 -91t-111.5 -53t-71.5 -27t-42 -13q-70 0 -140.5 5t-135.5 20t-121.5 42.5t-98 73.5t-65 111.5t-23.5 157.5v18q0 97 20 170q21 80 61.5 147.5t116.5 132t150 102.5zM606 1071q24 -1 32 -14.5t8 -27.5q0 -31 -8 -72h-14
q-21 17 -34 19t-21 2t-20.5 -5.5t-24 -13t-19.5 -16.5t-8 -16q0 -11 16 -18t40 -11.5t60 -7.5l102 54l7 -10l-20 -88l-236 -117v46l53 43q-23 10 -36.5 18t-25 20t-11.5 27q0 32 16 66t40 60t52 44t52 18zM480 -180l110 -70l-60 -105l-111 70zM647 -157l110 -70l-60 -105
l-111 70zM599 -326l110 -70l-60 -105l-111 70z" />
    <glyph glyph-name="uni06280686.isol" unicode="&#xfe91;&#xfb7b;" horiz-adv-x="861" 
d="M524 153q-77 17 -211 18h-11q-127 0 -209 -24l-12 8q0 17 10.5 64.5t18.5 70.5q11 9 22 14q41 20 119.5 55.5t147.5 95t93.5 96t45.5 66t38 48t29 18.5q9 0 17 -12t14 -29.5t9.5 -35.5t3.5 -30t-4.5 -63.5t-17.5 -92.5h-13q-9 37 -15 58.5t-14 40t-20 18.5q-8 0 -26 -29
t-37.5 -56.5t-39.5 -48.5t-52 -47.5t-68 -49.5q93 -4 228 -14q58 -5 110 -5q70 0 131 8l9 -8l-37 -132q-27 -8 -51 -15t-60.5 -20.5t-87.5 -35.5q-34 -15 -74.5 -36.5t-110.5 -73t-113 -148.5q-35 -78 -35 -150q0 -20 3 -38q11 -91 58 -152t104 -84.5t117 -37t117 -18
t101 -4.5q156 0 364 28l8 -13q-67 -54 -138 -91t-111.5 -53t-71.5 -27t-42 -13q-70 0 -140.5 5t-135.5 20t-121.5 42.5t-98 73.5t-65 111.5t-23.5 157.5v18q0 97 20 170q21 80 61.5 147.5t116.5 132t150 102.5zM773 98l110 -70l-60 -105l-111 70zM474 -179l110 -70l-60 -105
l-111 70zM641 -156l110 -70l-60 -105l-111 70zM593 -325l110 -70l-60 -105l-111 70z" />
    <glyph glyph-name="uni062A0686.isol" unicode="&#xfe97;&#xfb7b;" horiz-adv-x="861" 
d="M524 153q-77 17 -211 18h-11q-127 0 -209 -24l-12 8q0 17 10.5 64.5t18.5 70.5q11 9 22 14q41 20 119.5 55.5t147.5 95t93.5 96t45.5 66t38 48t29 18.5q9 0 17 -12t14 -29.5t9.5 -35.5t3.5 -30t-4.5 -63.5t-17.5 -92.5h-13q-9 37 -15 58.5t-14 40t-20 18.5q-8 0 -26 -29
t-37.5 -56.5t-39.5 -48.5t-52 -47.5t-68 -49.5q93 -4 228 -14q58 -5 110 -5q70 0 131 8l9 -8l-37 -132q-27 -8 -51 -15t-60.5 -20.5t-87.5 -35.5q-34 -15 -74.5 -36.5t-110.5 -73t-113 -148.5q-35 -78 -35 -150q0 -20 3 -38q11 -91 58 -152t104 -84.5t117 -37t117 -18
t101 -4.5q156 0 364 28l8 -13q-67 -54 -138 -91t-111.5 -53t-71.5 -27t-42 -13q-70 0 -140.5 5t-135.5 20t-121.5 42.5t-98 73.5t-65 111.5t-23.5 157.5v18q0 97 20 170q21 80 61.5 147.5t116.5 132t150 102.5zM460 960l110 -70l-60 -105l-111 70zM626 983l110 -70l-60 -105
l-111 70zM474 -179l110 -70l-60 -105l-111 70zM641 -156l110 -70l-60 -105l-111 70zM593 -325l110 -70l-60 -105l-111 70z" />
    <glyph glyph-name="uni062B0686.isol" unicode="&#xfe9b;&#xfb7b;" horiz-adv-x="861" 
d="M524 153q-77 17 -211 18h-11q-127 0 -209 -24l-12 8q0 17 10.5 64.5t18.5 70.5q11 9 22 14q41 20 119.5 55.5t147.5 95t93.5 96t45.5 66t38 48t29 18.5q9 0 17 -12t14 -29.5t9.5 -35.5t3.5 -30t-4.5 -63.5t-17.5 -92.5h-13q-9 37 -15 58.5t-14 40t-20 18.5q-8 0 -26 -29
t-37.5 -56.5t-39.5 -48.5t-52 -47.5t-68 -49.5q93 -4 228 -14q58 -5 110 -5q70 0 131 8l9 -8l-37 -132q-27 -8 -51 -15t-60.5 -20.5t-87.5 -35.5q-34 -15 -74.5 -36.5t-110.5 -73t-113 -148.5q-35 -78 -35 -150q0 -20 3 -38q11 -91 58 -152t104 -84.5t117 -37t117 -18
t101 -4.5q156 0 364 28l8 -13q-67 -54 -138 -91t-111.5 -53t-71.5 -27t-42 -13q-70 0 -140.5 5t-135.5 20t-121.5 42.5t-98 73.5t-65 111.5t-23.5 157.5v18q0 97 20 170q21 80 61.5 147.5t116.5 132t150 102.5zM452 960l110 -70l-60 -105l-111 70zM618 983l110 -70l-60 -105
l-111 70zM497 1133l110 -70l-60 -105l-111 70zM470 -179l110 -70l-60 -105l-111 70zM637 -156l110 -70l-60 -105l-111 70zM589 -325l110 -70l-60 -105l-111 70z" />
    <glyph glyph-name="uni06460686.isol" unicode="&#xfee7;&#xfb7b;" horiz-adv-x="861" 
d="M524 153q-77 17 -211 18h-11q-127 0 -209 -24l-12 8q0 17 10.5 64.5t18.5 70.5q11 9 22 14q41 20 119.5 55.5t147.5 95t93.5 96t45.5 66t38 48t29 18.5q9 0 17 -12t14 -29.5t9.5 -35.5t3.5 -30t-4.5 -63.5t-17.5 -92.5h-13q-9 37 -15 58.5t-14 40t-20 18.5q-8 0 -26 -29
t-37.5 -56.5t-39.5 -48.5t-52 -47.5t-68 -49.5q93 -4 228 -14q58 -5 110 -5q70 0 131 8l9 -8l-37 -132q-27 -8 -51 -15t-60.5 -20.5t-87.5 -35.5q-34 -15 -74.5 -36.5t-110.5 -73t-113 -148.5q-35 -78 -35 -150q0 -20 3 -38q11 -91 58 -152t104 -84.5t117 -37t117 -18
t101 -4.5q156 0 364 28l8 -13q-67 -54 -138 -91t-111.5 -53t-71.5 -27t-42 -13q-70 0 -140.5 5t-135.5 20t-121.5 42.5t-98 73.5t-65 111.5t-23.5 157.5v18q0 97 20 170q21 80 61.5 147.5t116.5 132t150 102.5zM550 982l110 -70l-60 -105l-111 70zM480 -179l110 -70
l-60 -105l-111 70zM647 -156l110 -70l-60 -105l-111 70zM599 -325l110 -70l-60 -105l-111 70z" />
    <glyph glyph-name="uni064A0686.isol" unicode="&#xfbfe;&#xfb7b;" horiz-adv-x="861" 
d="M524 153q-77 17 -211 18h-11q-127 0 -209 -24l-12 8q0 17 10.5 64.5t18.5 70.5q11 9 22 14q41 20 119.5 55.5t147.5 95t93.5 96t45.5 66t38 48t29 18.5q9 0 17 -12t14 -29.5t9.5 -35.5t3.5 -30t-4.5 -63.5t-17.5 -92.5h-13q-9 37 -15 58.5t-14 40t-20 18.5q-8 0 -26 -29
t-37.5 -56.5t-39.5 -48.5t-52 -47.5t-68 -49.5q93 -4 228 -14q58 -5 110 -5q70 0 131 8l9 -8l-37 -132q-27 -8 -51 -15t-60.5 -20.5t-87.5 -35.5q-34 -15 -74.5 -36.5t-110.5 -73t-113 -148.5q-35 -78 -35 -150q0 -20 3 -38q11 -91 58 -152t104 -84.5t117 -37t117 -18
t101 -4.5q156 0 364 28l8 -13q-67 -54 -138 -91t-111.5 -53t-71.5 -27t-42 -13q-70 0 -140.5 5t-135.5 20t-121.5 42.5t-98 73.5t-65 111.5t-23.5 157.5v18q0 97 20 170q21 80 61.5 147.5t116.5 132t150 102.5zM649 51l110 -70l-60 -105l-111 70zM815 74l110 -70l-60 -105
l-111 70zM465 -238l110 -70l-60 -105l-111 70zM632 -215l110 -70l-60 -105l-111 70zM584 -384l110 -70l-60 -105l-111 70z" />
    <glyph glyph-name="uni06790686.isol" unicode="&#xfb68;&#xfb7b;" horiz-adv-x="861" 
d="M524 153q-77 17 -211 18h-11q-127 0 -209 -24l-12 8q0 17 10.5 64.5t18.5 70.5q11 9 22 14q41 20 119.5 55.5t147.5 95t93.5 96t45.5 66t38 48t29 18.5q9 0 17 -12t14 -29.5t9.5 -35.5t3.5 -30t-4.5 -63.5t-17.5 -92.5h-13q-9 37 -15 58.5t-14 40t-20 18.5q-8 0 -26 -29
t-37.5 -56.5t-39.5 -48.5t-52 -47.5t-68 -49.5q93 -4 228 -14q58 -5 110 -5q70 0 131 8l9 -8l-37 -132q-27 -8 -51 -15t-60.5 -20.5t-87.5 -35.5q-34 -15 -74.5 -36.5t-110.5 -73t-113 -148.5q-35 -78 -35 -150q0 -20 3 -38q11 -91 58 -152t104 -84.5t117 -37t117 -18
t101 -4.5q156 0 364 28l8 -13q-67 -54 -138 -91t-111.5 -53t-71.5 -27t-42 -13q-70 0 -140.5 5t-135.5 20t-121.5 42.5t-98 73.5t-65 111.5t-23.5 157.5v18q0 97 20 170q21 80 61.5 147.5t116.5 132t150 102.5zM570 1066q0 -15 2 -25t6 -29.5t7 -40t3 -38.5q0 -6 -1 -13
l-3 -21q12 12 27 23.5l30 23t35 21t35 9.5q11 0 19.5 -6t16 -13.5t14.5 -21.5t7 -23q0 -8 -2 -15t-7.5 -19.5t-14 -24.5t-17.5 -22q-20 -18 -35.5 -25t-39 -10.5t-52 -5.5t-88.5 -2q-7 0 -32 11.5t-55 30.5l1 14h84q4 0 8 1q11 8 15.5 12t15.5 14q4 16 4 25q0 10 -4.5 35
t-9.5 52t-8.5 48t-3.5 36q0 7 -7 14l-2 10q0 10 9.5 26t20.5 32q5 -12 15 -27t24 -25q-1 -8 -6 -18t-11 -13zM733 875q-10 20 -20 30t-23 10q-24 0 -52.5 -19.5t-69.5 -49.5q3 1 11 1h11q54 0 85 4t58 24zM484 -179l110 -70l-60 -105l-111 70zM651 -156l110 -70l-60 -105
l-111 70zM603 -325l110 -70l-60 -105l-111 70z" />
    <glyph glyph-name="uni067A0686.isol" unicode="&#xfb60;&#xfb7b;" horiz-adv-x="861" 
d="M524 153q-77 17 -211 18h-11q-127 0 -209 -24l-12 8q0 17 10.5 64.5t18.5 70.5q11 9 22 14q41 20 119.5 55.5t147.5 95t93.5 96t45.5 66t38 48t29 18.5q9 0 17 -12t14 -29.5t9.5 -35.5t3.5 -30t-4.5 -63.5t-17.5 -92.5h-13q-9 37 -15 58.5t-14 40t-20 18.5q-8 0 -26 -29
t-37.5 -56.5t-39.5 -48.5t-52 -47.5t-68 -49.5q93 -4 228 -14q58 -5 110 -5q70 0 131 8l9 -8l-37 -132q-27 -8 -51 -15t-60.5 -20.5t-87.5 -35.5q-34 -15 -74.5 -36.5t-110.5 -73t-113 -148.5q-35 -78 -35 -150q0 -20 3 -38q11 -91 58 -152t104 -84.5t117 -37t117 -18
t101 -4.5q156 0 364 28l8 -13q-67 -54 -138 -91t-111.5 -53t-71.5 -27t-42 -13q-70 0 -140.5 5t-135.5 20t-121.5 42.5t-98 73.5t-65 111.5t-23.5 157.5v18q0 97 20 170q21 80 61.5 147.5t116.5 132t150 102.5zM534 1143l110 -70l-60 -105l-111 70zM554 960l110 -70
l-60 -105l-111 70zM477 -179l110 -70l-60 -105l-111 70zM644 -156l110 -70l-60 -105l-111 70zM596 -325l110 -70l-60 -105l-111 70z" />
    <glyph glyph-name="uni067F0686.isol" unicode="&#xfb64;&#xfb7b;" horiz-adv-x="861" 
d="M524 153q-77 17 -211 18h-11q-127 0 -209 -24l-12 8q0 17 10.5 64.5t18.5 70.5q11 9 22 14q41 20 119.5 55.5t147.5 95t93.5 96t45.5 66t38 48t29 18.5q9 0 17 -12t14 -29.5t9.5 -35.5t3.5 -30t-4.5 -63.5t-17.5 -92.5h-13q-9 37 -15 58.5t-14 40t-20 18.5q-8 0 -26 -29
t-37.5 -56.5t-39.5 -48.5t-52 -47.5t-68 -49.5q93 -4 228 -14q58 -5 110 -5q70 0 131 8l9 -8l-37 -132q-27 -8 -51 -15t-60.5 -20.5t-87.5 -35.5q-34 -15 -74.5 -36.5t-110.5 -73t-113 -148.5q-35 -78 -35 -150q0 -20 3 -38q11 -91 58 -152t104 -84.5t117 -37t117 -18
t101 -4.5q156 0 364 28l8 -13q-67 -54 -138 -91t-111.5 -53t-71.5 -27t-42 -13q-70 0 -140.5 5t-135.5 20t-121.5 42.5t-98 73.5t-65 111.5t-23.5 157.5v18q0 97 20 170q21 80 61.5 147.5t116.5 132t150 102.5zM446 1144l110 -70l-60 -105l-111 70zM466 961l110 -70
l-60 -105l-111 70zM613 1166l110 -70l-60 -105l-111 70zM633 983l110 -70l-60 -105l-111 70zM528 -179l110 -70l-60 -105l-111 70zM695 -156l110 -70l-60 -105l-111 70zM647 -325l110 -70l-60 -105l-111 70z" />
    <glyph glyph-name="uniFC97" unicode="&#xfe8b;&#xfea0;" arabic-form="initial" 
d="M416 261q-121 41 -207 49q-28 2 -54 2q-54 0 -99 -11l-10 7q4 34 11 60t18.5 43t30 31t89.5 33.5t115 44.5t111 76.5t95 85t45 52t29 18.5q17 -1 27 -22t13.5 -47t3.5 -38v-45q0 -34 -6 -80q-5 -42 -23 -42h-6q-14 0 -17 14q-3 15 -7 37.5t-8.5 44.5t-16.5 22
q-7 0 -43.5 -35.5t-103 -81.5t-100.5 -49q84 -28 155.5 -55t149 -44.5t172.5 -17.5l10 -3l-48 -130q-57 3 -106 5h-17q-40 0 -75 -8q-43 -10 -88 -37q-121 -75 -234 -107.5t-222 -32.5q-22 0 -35.5 13.5t-13.5 35.5q0 29 25 66.5t58 38.5q75 2 146.5 15t131.5 31
q24 11 56 26.5t48 34.5zM610 1155q24 -1 32 -14.5t8 -27.5q0 -31 -8 -72h-14q-21 17 -34 19t-21 2t-20.5 -5.5t-24 -13t-19.5 -16.5t-8 -16q0 -11 16 -18t40 -11.5t60 -7.5l102 54l7 -10l-20 -88l-236 -117v46l53 43q-23 10 -36.5 18t-25 20t-11.5 27q0 32 16 66t40 60
t52 44t52 18zM306 -103l110 -70l-60 -105l-111 70z" />
    <glyph glyph-name="uniFC9C" unicode="&#xfe91;&#xfea0;" arabic-form="initial" 
d="M416 261q-121 41 -207 49q-28 2 -54 2q-54 0 -99 -11l-10 7q4 34 11 60t18.5 43t30 31t89.5 33.5t115 44.5t111 76.5t95 85t45 52t29 18.5q17 -1 27 -22t13.5 -47t3.5 -38v-45q0 -34 -6 -80q-5 -42 -23 -42h-6q-14 0 -17 14q-3 15 -7 37.5t-8.5 44.5t-16.5 22
q-7 0 -43.5 -35.5t-103 -81.5t-100.5 -49q84 -28 155.5 -55t149 -44.5t172.5 -17.5l10 -3l-48 -130q-57 3 -106 5h-17q-40 0 -75 -8q-43 -10 -88 -37q-121 -75 -234 -107.5t-222 -32.5q-22 0 -35.5 13.5t-13.5 35.5q0 29 25 66.5t58 38.5q75 2 146.5 15t131.5 31
q24 11 56 26.5t48 34.5zM662 2l110 -70l-60 -105l-111 70zM306 -103l110 -70l-60 -105l-111 70z" />
    <glyph glyph-name="uniFCA1" unicode="&#xfe97;&#xfea0;" arabic-form="initial" 
d="M416 261q-121 41 -207 49q-28 2 -54 2q-54 0 -99 -11l-10 7q4 34 11 60t18.5 43t30 31t89.5 33.5t115 44.5t111 76.5t95 85t45 52t29 18.5q17 -1 27 -22t13.5 -47t3.5 -38v-45q0 -34 -6 -80q-5 -42 -23 -42h-6q-14 0 -17 14q-3 15 -7 37.5t-8.5 44.5t-16.5 22
q-7 0 -43.5 -35.5t-103 -81.5t-100.5 -49q84 -28 155.5 -55t149 -44.5t172.5 -17.5l10 -3l-48 -130q-57 3 -106 5h-17q-40 0 -75 -8q-43 -10 -88 -37q-121 -75 -234 -107.5t-222 -32.5q-22 0 -35.5 13.5t-13.5 35.5q0 29 25 66.5t58 38.5q75 2 146.5 15t131.5 31
q24 11 56 26.5t48 34.5zM306 -103l110 -70l-60 -105l-111 70zM472 1040l110 -70l-60 -105l-111 70zM638 1063l110 -70l-60 -105l-111 70z" />
    <glyph glyph-name="uni062B062C.init" unicode="&#xfe9b;&#xfea0;" 
d="M416 261q-121 41 -207 49q-28 2 -54 2q-54 0 -99 -11l-10 7q4 34 11 60t18.5 43t30 31t89.5 33.5t115 44.5t111 76.5t95 85t45 52t29 18.5q17 -1 27 -22t13.5 -47t3.5 -38v-45q0 -34 -6 -80q-5 -42 -23 -42h-6q-14 0 -17 14q-3 15 -7 37.5t-8.5 44.5t-16.5 22
q-7 0 -43.5 -35.5t-103 -81.5t-100.5 -49q84 -28 155.5 -55t149 -44.5t172.5 -17.5l10 -3l-48 -130q-57 3 -106 5h-17q-40 0 -75 -8q-43 -10 -88 -37q-121 -75 -234 -107.5t-222 -32.5q-22 0 -35.5 13.5t-13.5 35.5q0 29 25 66.5t58 38.5q75 2 146.5 15t131.5 31
q24 11 56 26.5t48 34.5zM472 1045l110 -70l-60 -105l-111 70zM638 1068l110 -70l-60 -105l-111 70zM517 1218l110 -70l-60 -105l-111 70zM306 -103l110 -70l-60 -105l-111 70z" />
    <glyph glyph-name="uniFCD2" unicode="&#xfee7;&#xfea0;" arabic-form="initial" 
d="M416 261q-121 41 -207 49q-28 2 -54 2q-54 0 -99 -11l-10 7q4 34 11 60t18.5 43t30 31t89.5 33.5t115 44.5t111 76.5t95 85t45 52t29 18.5q17 -1 27 -22t13.5 -47t3.5 -38v-45q0 -34 -6 -80q-5 -42 -23 -42h-6q-14 0 -17 14q-3 15 -7 37.5t-8.5 44.5t-16.5 22
q-7 0 -43.5 -35.5t-103 -81.5t-100.5 -49q84 -28 155.5 -55t149 -44.5t172.5 -17.5l10 -3l-48 -130q-57 3 -106 5h-17q-40 0 -75 -8q-43 -10 -88 -37q-121 -75 -234 -107.5t-222 -32.5q-22 0 -35.5 13.5t-13.5 35.5q0 29 25 66.5t58 38.5q75 2 146.5 15t131.5 31
q24 11 56 26.5t48 34.5zM562 1055l110 -70l-60 -105l-111 70zM306 -103l110 -70l-60 -105l-111 70z" />
    <glyph glyph-name="uniFCDA" unicode="&#xfbfe;&#xfea0;" arabic-form="initial" 
d="M416 261q-121 41 -207 49q-28 2 -54 2q-54 0 -99 -11l-10 7q4 34 11 60t18.5 43t30 31t89.5 33.5t115 44.5t111 76.5t95 85t45 52t29 18.5q17 -1 27 -22t13.5 -47t3.5 -38v-45q0 -34 -6 -80q-5 -42 -23 -42h-6q-14 0 -17 14q-3 15 -7 37.5t-8.5 44.5t-16.5 22
q-7 0 -43.5 -35.5t-103 -81.5t-100.5 -49q84 -28 155.5 -55t149 -44.5t172.5 -17.5l10 -3l-48 -130q-57 3 -106 5h-17q-40 0 -75 -8q-43 -10 -88 -37q-121 -75 -234 -107.5t-222 -32.5q-22 0 -35.5 13.5t-13.5 35.5q0 29 25 66.5t58 38.5q75 2 146.5 15t131.5 31
q24 11 56 26.5t48 34.5zM552 -7l110 -70l-60 -105l-111 70zM718 16l110 -70l-60 -105l-111 70zM306 -103l110 -70l-60 -105l-111 70z" />
    <glyph glyph-name="uni0679062C.init" unicode="&#xfb68;&#xfea0;" 
d="M416 261q-121 41 -207 49q-28 2 -54 2q-54 0 -99 -11l-10 7q4 34 11 60t18.5 43t30 31t89.5 33.5t115 44.5t111 76.5t95 85t45 52t29 18.5q17 -1 27 -22t13.5 -47t3.5 -38v-45q0 -34 -6 -80q-5 -42 -23 -42h-6q-14 0 -17 14q-3 15 -7 37.5t-8.5 44.5t-16.5 22
q-7 0 -43.5 -35.5t-103 -81.5t-100.5 -49q84 -28 155.5 -55t149 -44.5t172.5 -17.5l10 -3l-48 -130q-57 3 -106 5h-17q-40 0 -75 -8q-43 -10 -88 -37q-121 -75 -234 -107.5t-222 -32.5q-22 0 -35.5 13.5t-13.5 35.5q0 29 25 66.5t58 38.5q75 2 146.5 15t131.5 31
q24 11 56 26.5t48 34.5zM565 1147q0 -15 2 -25t6 -29.5t7 -40t3 -38.5q0 -6 -1 -13l-3 -21q12 12 27 23.5l30 23t35 21t35 9.5q11 0 19.5 -6t16 -13.5t14.5 -21.5t7 -23q0 -8 -2 -15t-7.5 -19.5t-14 -24.5t-17.5 -22q-20 -18 -35.5 -25t-39 -10.5t-52 -5.5t-88.5 -2
q-7 0 -32 11.5t-55 30.5l1 14h84q4 0 8 1q11 8 15.5 12t15.5 14q4 16 4 25q0 10 -4.5 35t-9.5 52t-8.5 48t-3.5 36q0 7 -7 14l-2 10q0 10 9.5 26t20.5 32q5 -12 15 -27t24 -25q-1 -8 -6 -18t-11 -13zM728 956q-10 20 -20 30t-23 10q-24 0 -52.5 -19.5t-69.5 -49.5q3 1 11 1
h11q54 0 85 4t58 24zM306 -103l110 -70l-60 -105l-111 70z" />
    <glyph glyph-name="uni067A062C.init" unicode="&#xfb60;&#xfea0;" 
d="M416 261q-121 41 -207 49q-28 2 -54 2q-54 0 -99 -11l-10 7q4 34 11 60t18.5 43t30 31t89.5 33.5t115 44.5t111 76.5t95 85t45 52t29 18.5q17 -1 27 -22t13.5 -47t3.5 -38v-45q0 -34 -6 -80q-5 -42 -23 -42h-6q-14 0 -17 14q-3 15 -7 37.5t-8.5 44.5t-16.5 22
q-7 0 -43.5 -35.5t-103 -81.5t-100.5 -49q84 -28 155.5 -55t149 -44.5t172.5 -17.5l10 -3l-48 -130q-57 3 -106 5h-17q-40 0 -75 -8q-43 -10 -88 -37q-121 -75 -234 -107.5t-222 -32.5q-22 0 -35.5 13.5t-13.5 35.5q0 29 25 66.5t58 38.5q75 2 146.5 15t131.5 31
q24 11 56 26.5t48 34.5zM562 1238l110 -70l-60 -105l-111 70zM582 1055l110 -70l-60 -105l-111 70zM306 -103l110 -70l-60 -105l-111 70z" />
    <glyph glyph-name="uni067F062C.init" unicode="&#xfb64;&#xfea0;" 
d="M416 261q-121 41 -207 49q-28 2 -54 2q-54 0 -99 -11l-10 7q4 34 11 60t18.5 43t30 31t89.5 33.5t115 44.5t111 76.5t95 85t45 52t29 18.5q17 -1 27 -22t13.5 -47t3.5 -38v-45q0 -34 -6 -80q-5 -42 -23 -42h-6q-14 0 -17 14q-3 15 -7 37.5t-8.5 44.5t-16.5 22
q-7 0 -43.5 -35.5t-103 -81.5t-100.5 -49q84 -28 155.5 -55t149 -44.5t172.5 -17.5l10 -3l-48 -130q-57 3 -106 5h-17q-40 0 -75 -8q-43 -10 -88 -37q-121 -75 -234 -107.5t-222 -32.5q-22 0 -35.5 13.5t-13.5 35.5q0 29 25 66.5t58 38.5q75 2 146.5 15t131.5 31
q24 11 56 26.5t48 34.5zM442 1228l110 -70l-60 -105l-111 70zM462 1045l110 -70l-60 -105l-111 70zM609 1250l110 -70l-60 -105l-111 70zM629 1067l110 -70l-60 -105l-111 70zM306 -103l110 -70l-60 -105l-111 70z" />
    <glyph glyph-name="uniFC98" unicode="&#xfe8b;&#xfea4;" arabic-form="initial" 
d="M416 261q-121 41 -207 49q-28 2 -54 2q-54 0 -99 -11l-10 7q4 34 11 60t18.5 43t30 31t89.5 33.5t115 44.5t111 76.5t95 85t45 52t29 18.5q17 -1 27 -22t13.5 -47t3.5 -38v-45q0 -34 -6 -80q-5 -42 -23 -42h-6q-14 0 -17 14q-3 15 -7 37.5t-8.5 44.5t-16.5 22
q-7 0 -43.5 -35.5t-103 -81.5t-100.5 -49q84 -28 155.5 -55t149 -44.5t172.5 -17.5l10 -3l-48 -130q-57 3 -106 5h-17q-40 0 -75 -8q-43 -10 -88 -37q-121 -75 -234 -107.5t-222 -32.5q-22 0 -35.5 13.5t-13.5 35.5q0 29 25 66.5t58 38.5q75 2 146.5 15t131.5 31
q24 11 56 26.5t48 34.5zM610 1155q24 -1 32 -14.5t8 -27.5q0 -31 -8 -72h-14q-21 17 -34 19t-21 2t-20.5 -5.5t-24 -13t-19.5 -16.5t-8 -16q0 -11 16 -18t40 -11.5t60 -7.5l102 54l7 -10l-20 -88l-236 -117v46l53 43q-23 10 -36.5 18t-25 20t-11.5 27q0 32 16 66t40 60
t52 44t52 18z" />
    <glyph glyph-name="uniFC9D" unicode="&#xfe91;&#xfea4;" arabic-form="initial" 
d="M416 261q-121 41 -207 49q-28 2 -54 2q-54 0 -99 -11l-10 7q4 34 11 60t18.5 43t30 31t89.5 33.5t115 44.5t111 76.5t95 85t45 52t29 18.5q17 -1 27 -22t13.5 -47t3.5 -38v-45q0 -34 -6 -80q-5 -42 -23 -42h-6q-14 0 -17 14q-3 15 -7 37.5t-8.5 44.5t-16.5 22
q-7 0 -43.5 -35.5t-103 -81.5t-100.5 -49q84 -28 155.5 -55t149 -44.5t172.5 -17.5l10 -3l-48 -130q-57 3 -106 5h-17q-40 0 -75 -8q-43 -10 -88 -37q-121 -75 -234 -107.5t-222 -32.5q-22 0 -35.5 13.5t-13.5 35.5q0 29 25 66.5t58 38.5q75 2 146.5 15t131.5 31
q24 11 56 26.5t48 34.5zM622 3l110 -70l-60 -105l-111 70z" />
    <glyph glyph-name="uniFCA2" unicode="&#xfe97;&#xfea4;" arabic-form="initial" 
d="M416 261q-121 41 -207 49q-28 2 -54 2q-54 0 -99 -11l-10 7q4 34 11 60t18.5 43t30 31t89.5 33.5t115 44.5t111 76.5t95 85t45 52t29 18.5q17 -1 27 -22t13.5 -47t3.5 -38v-45q0 -34 -6 -80q-5 -42 -23 -42h-6q-14 0 -17 14q-3 15 -7 37.5t-8.5 44.5t-16.5 22
q-7 0 -43.5 -35.5t-103 -81.5t-100.5 -49q84 -28 155.5 -55t149 -44.5t172.5 -17.5l10 -3l-48 -130q-57 3 -106 5h-17q-40 0 -75 -8q-43 -10 -88 -37q-121 -75 -234 -107.5t-222 -32.5q-22 0 -35.5 13.5t-13.5 35.5q0 29 25 66.5t58 38.5q75 2 146.5 15t131.5 31
q24 11 56 26.5t48 34.5zM472 1040l110 -70l-60 -105l-111 70zM638 1063l110 -70l-60 -105l-111 70z" />
    <glyph glyph-name="uni062B062D.init" unicode="&#xfe9b;&#xfea4;" 
d="M416 261q-121 41 -207 49q-28 2 -54 2q-54 0 -99 -11l-10 7q4 34 11 60t18.5 43t30 31t89.5 33.5t115 44.5t111 76.5t95 85t45 52t29 18.5q17 -1 27 -22t13.5 -47t3.5 -38v-45q0 -34 -6 -80q-5 -42 -23 -42h-6q-14 0 -17 14q-3 15 -7 37.5t-8.5 44.5t-16.5 22
q-7 0 -43.5 -35.5t-103 -81.5t-100.5 -49q84 -28 155.5 -55t149 -44.5t172.5 -17.5l10 -3l-48 -130q-57 3 -106 5h-17q-40 0 -75 -8q-43 -10 -88 -37q-121 -75 -234 -107.5t-222 -32.5q-22 0 -35.5 13.5t-13.5 35.5q0 29 25 66.5t58 38.5q75 2 146.5 15t131.5 31
q24 11 56 26.5t48 34.5zM472 1045l110 -70l-60 -105l-111 70zM638 1068l110 -70l-60 -105l-111 70zM517 1218l110 -70l-60 -105l-111 70z" />
    <glyph glyph-name="uniFCD3" unicode="&#xfee7;&#xfea4;" arabic-form="initial" 
d="M416 261q-121 41 -207 49q-28 2 -54 2q-54 0 -99 -11l-10 7q4 34 11 60t18.5 43t30 31t89.5 33.5t115 44.5t111 76.5t95 85t45 52t29 18.5q17 -1 27 -22t13.5 -47t3.5 -38v-45q0 -34 -6 -80q-5 -42 -23 -42h-6q-14 0 -17 14q-3 15 -7 37.5t-8.5 44.5t-16.5 22
q-7 0 -43.5 -35.5t-103 -81.5t-100.5 -49q84 -28 155.5 -55t149 -44.5t172.5 -17.5l10 -3l-48 -130q-57 3 -106 5h-17q-40 0 -75 -8q-43 -10 -88 -37q-121 -75 -234 -107.5t-222 -32.5q-22 0 -35.5 13.5t-13.5 35.5q0 29 25 66.5t58 38.5q75 2 146.5 15t131.5 31
q24 11 56 26.5t48 34.5zM562 1055l110 -70l-60 -105l-111 70z" />
    <glyph glyph-name="uniFCDB" unicode="&#xfbfe;&#xfea4;" arabic-form="initial" 
d="M416 261q-121 41 -207 49q-28 2 -54 2q-54 0 -99 -11l-10 7q4 34 11 60t18.5 43t30 31t89.5 33.5t115 44.5t111 76.5t95 85t45 52t29 18.5q17 -1 27 -22t13.5 -47t3.5 -38v-45q0 -34 -6 -80q-5 -42 -23 -42h-6q-14 0 -17 14q-3 15 -7 37.5t-8.5 44.5t-16.5 22
q-7 0 -43.5 -35.5t-103 -81.5t-100.5 -49q84 -28 155.5 -55t149 -44.5t172.5 -17.5l10 -3l-48 -130q-57 3 -106 5h-17q-40 0 -75 -8q-43 -10 -88 -37q-121 -75 -234 -107.5t-222 -32.5q-22 0 -35.5 13.5t-13.5 35.5q0 29 25 66.5t58 38.5q75 2 146.5 15t131.5 31
q24 11 56 26.5t48 34.5zM532 -7l110 -70l-60 -105l-111 70zM698 16l110 -70l-60 -105l-111 70z" />
    <glyph glyph-name="uni0679062D.init" unicode="&#xfb68;&#xfea4;" 
d="M416 261q-121 41 -207 49q-28 2 -54 2q-54 0 -99 -11l-10 7q4 34 11 60t18.5 43t30 31t89.5 33.5t115 44.5t111 76.5t95 85t45 52t29 18.5q17 -1 27 -22t13.5 -47t3.5 -38v-45q0 -34 -6 -80q-5 -42 -23 -42h-6q-14 0 -17 14q-3 15 -7 37.5t-8.5 44.5t-16.5 22
q-7 0 -43.5 -35.5t-103 -81.5t-100.5 -49q84 -28 155.5 -55t149 -44.5t172.5 -17.5l10 -3l-48 -130q-57 3 -106 5h-17q-40 0 -75 -8q-43 -10 -88 -37q-121 -75 -234 -107.5t-222 -32.5q-22 0 -35.5 13.5t-13.5 35.5q0 29 25 66.5t58 38.5q75 2 146.5 15t131.5 31
q24 11 56 26.5t48 34.5zM565 1147q0 -15 2 -25t6 -29.5t7 -40t3 -38.5q0 -6 -1 -13l-3 -21q12 12 27 23.5l30 23t35 21t35 9.5q11 0 19.5 -6t16 -13.5t14.5 -21.5t7 -23q0 -8 -2 -15t-7.5 -19.5t-14 -24.5t-17.5 -22q-20 -18 -35.5 -25t-39 -10.5t-52 -5.5t-88.5 -2
q-7 0 -32 11.5t-55 30.5l1 14h84q4 0 8 1q11 8 15.5 12t15.5 14q4 16 4 25q0 10 -4.5 35t-9.5 52t-8.5 48t-3.5 36q0 7 -7 14l-2 10q0 10 9.5 26t20.5 32q5 -12 15 -27t24 -25q-1 -8 -6 -18t-11 -13zM728 956q-10 20 -20 30t-23 10q-24 0 -52.5 -19.5t-69.5 -49.5q3 1 11 1
h11q54 0 85 4t58 24z" />
    <glyph glyph-name="uni067A062D.init" unicode="&#xfb60;&#xfea4;" 
d="M416 261q-121 41 -207 49q-28 2 -54 2q-54 0 -99 -11l-10 7q4 34 11 60t18.5 43t30 31t89.5 33.5t115 44.5t111 76.5t95 85t45 52t29 18.5q17 -1 27 -22t13.5 -47t3.5 -38v-45q0 -34 -6 -80q-5 -42 -23 -42h-6q-14 0 -17 14q-3 15 -7 37.5t-8.5 44.5t-16.5 22
q-7 0 -43.5 -35.5t-103 -81.5t-100.5 -49q84 -28 155.5 -55t149 -44.5t172.5 -17.5l10 -3l-48 -130q-57 3 -106 5h-17q-40 0 -75 -8q-43 -10 -88 -37q-121 -75 -234 -107.5t-222 -32.5q-22 0 -35.5 13.5t-13.5 35.5q0 29 25 66.5t58 38.5q75 2 146.5 15t131.5 31
q24 11 56 26.5t48 34.5zM562 1238l110 -70l-60 -105l-111 70zM582 1055l110 -70l-60 -105l-111 70z" />
    <glyph glyph-name="uni067F062D.init" unicode="&#xfb64;&#xfea4;" 
d="M416 261q-121 41 -207 49q-28 2 -54 2q-54 0 -99 -11l-10 7q4 34 11 60t18.5 43t30 31t89.5 33.5t115 44.5t111 76.5t95 85t45 52t29 18.5q17 -1 27 -22t13.5 -47t3.5 -38v-45q0 -34 -6 -80q-5 -42 -23 -42h-6q-14 0 -17 14q-3 15 -7 37.5t-8.5 44.5t-16.5 22
q-7 0 -43.5 -35.5t-103 -81.5t-100.5 -49q84 -28 155.5 -55t149 -44.5t172.5 -17.5l10 -3l-48 -130q-57 3 -106 5h-17q-40 0 -75 -8q-43 -10 -88 -37q-121 -75 -234 -107.5t-222 -32.5q-22 0 -35.5 13.5t-13.5 35.5q0 29 25 66.5t58 38.5q75 2 146.5 15t131.5 31
q24 11 56 26.5t48 34.5zM442 1228l110 -70l-60 -105l-111 70zM462 1045l110 -70l-60 -105l-111 70zM609 1250l110 -70l-60 -105l-111 70zM629 1067l110 -70l-60 -105l-111 70z" />
    <glyph glyph-name="uniFC99" unicode="&#xfe8b;&#xfea8;" arabic-form="initial" 
d="M416 261q-121 41 -207 49q-28 2 -54 2q-54 0 -99 -11l-10 7q4 34 11 60t18.5 43t30 31t89.5 33.5t115 44.5t111 76.5t95 85t45 52t29 18.5q17 -1 27 -22t13.5 -47t3.5 -38v-45q0 -34 -6 -80q-5 -42 -23 -42h-6q-14 0 -17 14q-3 15 -7 37.5t-8.5 44.5t-16.5 22
q-7 0 -43.5 -35.5t-103 -81.5t-100.5 -49q84 -28 155.5 -55t149 -44.5t172.5 -17.5l10 -3l-48 -130q-57 3 -106 5h-17q-40 0 -75 -8q-43 -10 -88 -37q-121 -75 -234 -107.5t-222 -32.5q-22 0 -35.5 13.5t-13.5 35.5q0 29 25 66.5t58 38.5q75 2 146.5 15t131.5 31
q24 11 56 26.5t48 34.5zM610 1155q24 -1 32 -14.5t8 -27.5q0 -31 -8 -72h-14q-21 17 -34 19t-21 2t-20.5 -5.5t-24 -13t-19.5 -16.5t-8 -16q0 -11 16 -18t40 -11.5t60 -7.5l102 54l7 -10l-20 -88l-236 -117v46l53 43q-23 10 -36.5 18t-25 20t-11.5 27q0 32 16 66t40 60
t52 44t52 18zM177 765l110 -70l-60 -105l-111 70z" />
    <glyph glyph-name="uniFC9E" unicode="&#xfe91;&#xfea8;" arabic-form="initial" 
d="M416 261q-121 41 -207 49q-28 2 -54 2q-54 0 -99 -11l-10 7q4 34 11 60t18.5 43t30 31t89.5 33.5t115 44.5t111 76.5t95 85t45 52t29 18.5q17 -1 27 -22t13.5 -47t3.5 -38v-45q0 -34 -6 -80q-5 -42 -23 -42h-6q-14 0 -17 14q-3 15 -7 37.5t-8.5 44.5t-16.5 22
q-7 0 -43.5 -35.5t-103 -81.5t-100.5 -49q84 -28 155.5 -55t149 -44.5t172.5 -17.5l10 -3l-48 -130q-57 3 -106 5h-17q-40 0 -75 -8q-43 -10 -88 -37q-121 -75 -234 -107.5t-222 -32.5q-22 0 -35.5 13.5t-13.5 35.5q0 29 25 66.5t58 38.5q75 2 146.5 15t131.5 31
q24 11 56 26.5t48 34.5zM622 3l110 -70l-60 -105l-111 70zM177 765l110 -70l-60 -105l-111 70z" />
    <glyph glyph-name="uniFCA3" unicode="&#xfe97;&#xfea8;" arabic-form="initial" 
d="M416 261q-121 41 -207 49q-28 2 -54 2q-54 0 -99 -11l-10 7q4 34 11 60t18.5 43t30 31t89.5 33.5t115 44.5t111 76.5t95 85t45 52t29 18.5q17 -1 27 -22t13.5 -47t3.5 -38v-45q0 -34 -6 -80q-5 -42 -23 -42h-6q-14 0 -17 14q-3 15 -7 37.5t-8.5 44.5t-16.5 22
q-7 0 -43.5 -35.5t-103 -81.5t-100.5 -49q84 -28 155.5 -55t149 -44.5t172.5 -17.5l10 -3l-48 -130q-57 3 -106 5h-17q-40 0 -75 -8q-43 -10 -88 -37q-121 -75 -234 -107.5t-222 -32.5q-22 0 -35.5 13.5t-13.5 35.5q0 29 25 66.5t58 38.5q75 2 146.5 15t131.5 31
q24 11 56 26.5t48 34.5zM472 1040l110 -70l-60 -105l-111 70zM638 1063l110 -70l-60 -105l-111 70zM177 765l110 -70l-60 -105l-111 70z" />
    <glyph glyph-name="uni062B062E.init" unicode="&#xfe9b;&#xfea8;" 
d="M416 261q-121 41 -207 49q-28 2 -54 2q-54 0 -99 -11l-10 7q4 34 11 60t18.5 43t30 31t89.5 33.5t115 44.5t111 76.5t95 85t45 52t29 18.5q17 -1 27 -22t13.5 -47t3.5 -38v-45q0 -34 -6 -80q-5 -42 -23 -42h-6q-14 0 -17 14q-3 15 -7 37.5t-8.5 44.5t-16.5 22
q-7 0 -43.5 -35.5t-103 -81.5t-100.5 -49q84 -28 155.5 -55t149 -44.5t172.5 -17.5l10 -3l-48 -130q-57 3 -106 5h-17q-40 0 -75 -8q-43 -10 -88 -37q-121 -75 -234 -107.5t-222 -32.5q-22 0 -35.5 13.5t-13.5 35.5q0 29 25 66.5t58 38.5q75 2 146.5 15t131.5 31
q24 11 56 26.5t48 34.5zM472 1045l110 -70l-60 -105l-111 70zM638 1068l110 -70l-60 -105l-111 70zM517 1218l110 -70l-60 -105l-111 70zM177 765l110 -70l-60 -105l-111 70z" />
    <glyph glyph-name="uniFCD4" unicode="&#xfee7;&#xfea8;" arabic-form="initial" 
d="M416 261q-121 41 -207 49q-28 2 -54 2q-54 0 -99 -11l-10 7q4 34 11 60t18.5 43t30 31t89.5 33.5t115 44.5t111 76.5t95 85t45 52t29 18.5q17 -1 27 -22t13.5 -47t3.5 -38v-45q0 -34 -6 -80q-5 -42 -23 -42h-6q-14 0 -17 14q-3 15 -7 37.5t-8.5 44.5t-16.5 22
q-7 0 -43.5 -35.5t-103 -81.5t-100.5 -49q84 -28 155.5 -55t149 -44.5t172.5 -17.5l10 -3l-48 -130q-57 3 -106 5h-17q-40 0 -75 -8q-43 -10 -88 -37q-121 -75 -234 -107.5t-222 -32.5q-22 0 -35.5 13.5t-13.5 35.5q0 29 25 66.5t58 38.5q75 2 146.5 15t131.5 31
q24 11 56 26.5t48 34.5zM562 1055l110 -70l-60 -105l-111 70zM177 765l110 -70l-60 -105l-111 70z" />
    <glyph glyph-name="uniFCDC" unicode="&#xfbfe;&#xfea8;" arabic-form="initial" 
d="M416 261q-121 41 -207 49q-28 2 -54 2q-54 0 -99 -11l-10 7q4 34 11 60t18.5 43t30 31t89.5 33.5t115 44.5t111 76.5t95 85t45 52t29 18.5q17 -1 27 -22t13.5 -47t3.5 -38v-45q0 -34 -6 -80q-5 -42 -23 -42h-6q-14 0 -17 14q-3 15 -7 37.5t-8.5 44.5t-16.5 22
q-7 0 -43.5 -35.5t-103 -81.5t-100.5 -49q84 -28 155.5 -55t149 -44.5t172.5 -17.5l10 -3l-48 -130q-57 3 -106 5h-17q-40 0 -75 -8q-43 -10 -88 -37q-121 -75 -234 -107.5t-222 -32.5q-22 0 -35.5 13.5t-13.5 35.5q0 29 25 66.5t58 38.5q75 2 146.5 15t131.5 31
q24 11 56 26.5t48 34.5zM532 -7l110 -70l-60 -105l-111 70zM698 16l110 -70l-60 -105l-111 70zM177 765l110 -70l-60 -105l-111 70z" />
    <glyph glyph-name="uni0679062E.init" unicode="&#xfb68;&#xfea8;" 
d="M416 261q-121 41 -207 49q-28 2 -54 2q-54 0 -99 -11l-10 7q4 34 11 60t18.5 43t30 31t89.5 33.5t115 44.5t111 76.5t95 85t45 52t29 18.5q17 -1 27 -22t13.5 -47t3.5 -38v-45q0 -34 -6 -80q-5 -42 -23 -42h-6q-14 0 -17 14q-3 15 -7 37.5t-8.5 44.5t-16.5 22
q-7 0 -43.5 -35.5t-103 -81.5t-100.5 -49q84 -28 155.5 -55t149 -44.5t172.5 -17.5l10 -3l-48 -130q-57 3 -106 5h-17q-40 0 -75 -8q-43 -10 -88 -37q-121 -75 -234 -107.5t-222 -32.5q-22 0 -35.5 13.5t-13.5 35.5q0 29 25 66.5t58 38.5q75 2 146.5 15t131.5 31
q24 11 56 26.5t48 34.5zM565 1147q0 -15 2 -25t6 -29.5t7 -40t3 -38.5q0 -6 -1 -13l-3 -21q12 12 27 23.5l30 23t35 21t35 9.5q11 0 19.5 -6t16 -13.5t14.5 -21.5t7 -23q0 -8 -2 -15t-7.5 -19.5t-14 -24.5t-17.5 -22q-20 -18 -35.5 -25t-39 -10.5t-52 -5.5t-88.5 -2
q-7 0 -32 11.5t-55 30.5l1 14h84q4 0 8 1q11 8 15.5 12t15.5 14q4 16 4 25q0 10 -4.5 35t-9.5 52t-8.5 48t-3.5 36q0 7 -7 14l-2 10q0 10 9.5 26t20.5 32q5 -12 15 -27t24 -25q-1 -8 -6 -18t-11 -13zM728 956q-10 20 -20 30t-23 10q-24 0 -52.5 -19.5t-69.5 -49.5q3 1 11 1
h11q54 0 85 4t58 24zM177 765l110 -70l-60 -105l-111 70z" />
    <glyph glyph-name="uni067A062E.init" unicode="&#xfb60;&#xfea8;" 
d="M416 261q-121 41 -207 49q-28 2 -54 2q-54 0 -99 -11l-10 7q4 34 11 60t18.5 43t30 31t89.5 33.5t115 44.5t111 76.5t95 85t45 52t29 18.5q17 -1 27 -22t13.5 -47t3.5 -38v-45q0 -34 -6 -80q-5 -42 -23 -42h-6q-14 0 -17 14q-3 15 -7 37.5t-8.5 44.5t-16.5 22
q-7 0 -43.5 -35.5t-103 -81.5t-100.5 -49q84 -28 155.5 -55t149 -44.5t172.5 -17.5l10 -3l-48 -130q-57 3 -106 5h-17q-40 0 -75 -8q-43 -10 -88 -37q-121 -75 -234 -107.5t-222 -32.5q-22 0 -35.5 13.5t-13.5 35.5q0 29 25 66.5t58 38.5q75 2 146.5 15t131.5 31
q24 11 56 26.5t48 34.5zM562 1238l110 -70l-60 -105l-111 70zM582 1055l110 -70l-60 -105l-111 70zM177 765l110 -70l-60 -105l-111 70z" />
    <glyph glyph-name="uni067F062E.init" unicode="&#xfb64;&#xfea8;" 
d="M416 261q-121 41 -207 49q-28 2 -54 2q-54 0 -99 -11l-10 7q4 34 11 60t18.5 43t30 31t89.5 33.5t115 44.5t111 76.5t95 85t45 52t29 18.5q17 -1 27 -22t13.5 -47t3.5 -38v-45q0 -34 -6 -80q-5 -42 -23 -42h-6q-14 0 -17 14q-3 15 -7 37.5t-8.5 44.5t-16.5 22
q-7 0 -43.5 -35.5t-103 -81.5t-100.5 -49q84 -28 155.5 -55t149 -44.5t172.5 -17.5l10 -3l-48 -130q-57 3 -106 5h-17q-40 0 -75 -8q-43 -10 -88 -37q-121 -75 -234 -107.5t-222 -32.5q-22 0 -35.5 13.5t-13.5 35.5q0 29 25 66.5t58 38.5q75 2 146.5 15t131.5 31
q24 11 56 26.5t48 34.5zM442 1228l110 -70l-60 -105l-111 70zM462 1045l110 -70l-60 -105l-111 70zM609 1250l110 -70l-60 -105l-111 70zM629 1067l110 -70l-60 -105l-111 70zM177 765l110 -70l-60 -105l-111 70z" />
    <glyph glyph-name="uni06260683.init" unicode="&#xfe8b;&#xfb79;" 
d="M416 261q-121 41 -207 49q-28 2 -54 2q-54 0 -99 -11l-10 7q4 34 11 60t18.5 43t30 31t89.5 33.5t115 44.5t111 76.5t95 85t45 52t29 18.5q17 -1 27 -22t13.5 -47t3.5 -38v-45q0 -34 -6 -80q-5 -42 -23 -42h-6q-14 0 -17 14q-3 15 -7 37.5t-8.5 44.5t-16.5 22
q-7 0 -43.5 -35.5t-103 -81.5t-100.5 -49q84 -28 155.5 -55t149 -44.5t172.5 -17.5l10 -3l-48 -130q-57 3 -106 5h-17q-40 0 -75 -8q-43 -10 -88 -37q-121 -75 -234 -107.5t-222 -32.5q-22 0 -35.5 13.5t-13.5 35.5q0 29 25 66.5t58 38.5q75 2 146.5 15t131.5 31
q24 11 56 26.5t48 34.5zM610 1155q24 -1 32 -14.5t8 -27.5q0 -31 -8 -72h-14q-21 17 -34 19t-21 2t-20.5 -5.5t-24 -13t-19.5 -16.5t-8 -16q0 -11 16 -18t40 -11.5t60 -7.5l102 54l7 -10l-20 -88l-236 -117v46l53 43q-23 10 -36.5 18t-25 20t-11.5 27q0 32 16 66t40 60
t52 44t52 18zM272 -137l110 -70l-60 -105l-111 70zM438 -114l110 -70l-60 -105l-111 70z" />
    <glyph glyph-name="uni06280683.init" unicode="&#xfe91;&#xfb79;" 
d="M416 261q-121 41 -207 49q-28 2 -54 2q-54 0 -99 -11l-10 7q4 34 11 60t18.5 43t30 31t89.5 33.5t115 44.5t111 76.5t95 85t45 52t29 18.5q17 -1 27 -22t13.5 -47t3.5 -38v-45q0 -34 -6 -80q-5 -42 -23 -42h-6q-14 0 -17 14q-3 15 -7 37.5t-8.5 44.5t-16.5 22
q-7 0 -43.5 -35.5t-103 -81.5t-100.5 -49q84 -28 155.5 -55t149 -44.5t172.5 -17.5l10 -3l-48 -130q-57 3 -106 5h-17q-40 0 -75 -8q-43 -10 -88 -37q-121 -75 -234 -107.5t-222 -32.5q-22 0 -35.5 13.5t-13.5 35.5q0 29 25 66.5t58 38.5q75 2 146.5 15t131.5 31
q24 11 56 26.5t48 34.5zM622 3l110 -70l-60 -105l-111 70zM242 -137l110 -70l-60 -105l-111 70zM408 -114l110 -70l-60 -105l-111 70z" />
    <glyph glyph-name="uni062A0683.init" unicode="&#xfe97;&#xfb79;" 
d="M416 261q-121 41 -207 49q-28 2 -54 2q-54 0 -99 -11l-10 7q4 34 11 60t18.5 43t30 31t89.5 33.5t115 44.5t111 76.5t95 85t45 52t29 18.5q17 -1 27 -22t13.5 -47t3.5 -38v-45q0 -34 -6 -80q-5 -42 -23 -42h-6q-14 0 -17 14q-3 15 -7 37.5t-8.5 44.5t-16.5 22
q-7 0 -43.5 -35.5t-103 -81.5t-100.5 -49q84 -28 155.5 -55t149 -44.5t172.5 -17.5l10 -3l-48 -130q-57 3 -106 5h-17q-40 0 -75 -8q-43 -10 -88 -37q-121 -75 -234 -107.5t-222 -32.5q-22 0 -35.5 13.5t-13.5 35.5q0 29 25 66.5t58 38.5q75 2 146.5 15t131.5 31
q24 11 56 26.5t48 34.5zM472 1045l110 -70l-60 -105l-111 70zM638 1068l110 -70l-60 -105l-111 70zM272 -137l110 -70l-60 -105l-111 70zM438 -114l110 -70l-60 -105l-111 70z" />
    <glyph glyph-name="uni062B0683.init" unicode="&#xfe9b;&#xfb79;" 
d="M416 261q-121 41 -207 49q-28 2 -54 2q-54 0 -99 -11l-10 7q4 34 11 60t18.5 43t30 31t89.5 33.5t115 44.5t111 76.5t95 85t45 52t29 18.5q17 -1 27 -22t13.5 -47t3.5 -38v-45q0 -34 -6 -80q-5 -42 -23 -42h-6q-14 0 -17 14q-3 15 -7 37.5t-8.5 44.5t-16.5 22
q-7 0 -43.5 -35.5t-103 -81.5t-100.5 -49q84 -28 155.5 -55t149 -44.5t172.5 -17.5l10 -3l-48 -130q-57 3 -106 5h-17q-40 0 -75 -8q-43 -10 -88 -37q-121 -75 -234 -107.5t-222 -32.5q-22 0 -35.5 13.5t-13.5 35.5q0 29 25 66.5t58 38.5q75 2 146.5 15t131.5 31
q24 11 56 26.5t48 34.5zM472 1045l110 -70l-60 -105l-111 70zM638 1068l110 -70l-60 -105l-111 70zM517 1218l110 -70l-60 -105l-111 70zM272 -137l110 -70l-60 -105l-111 70zM438 -114l110 -70l-60 -105l-111 70z" />
    <glyph glyph-name="uni06460683.init" unicode="&#xfee7;&#xfb79;" 
d="M416 261q-121 41 -207 49q-28 2 -54 2q-54 0 -99 -11l-10 7q4 34 11 60t18.5 43t30 31t89.5 33.5t115 44.5t111 76.5t95 85t45 52t29 18.5q17 -1 27 -22t13.5 -47t3.5 -38v-45q0 -34 -6 -80q-5 -42 -23 -42h-6q-14 0 -17 14q-3 15 -7 37.5t-8.5 44.5t-16.5 22
q-7 0 -43.5 -35.5t-103 -81.5t-100.5 -49q84 -28 155.5 -55t149 -44.5t172.5 -17.5l10 -3l-48 -130q-57 3 -106 5h-17q-40 0 -75 -8q-43 -10 -88 -37q-121 -75 -234 -107.5t-222 -32.5q-22 0 -35.5 13.5t-13.5 35.5q0 29 25 66.5t58 38.5q75 2 146.5 15t131.5 31
q24 11 56 26.5t48 34.5zM562 1055l110 -70l-60 -105l-111 70zM272 -137l110 -70l-60 -105l-111 70zM438 -114l110 -70l-60 -105l-111 70z" />
    <glyph glyph-name="uni064A0683.init" unicode="&#xfbfe;&#xfb79;" 
d="M416 261q-121 41 -207 49q-28 2 -54 2q-54 0 -99 -11l-10 7q4 34 11 60t18.5 43t30 31t89.5 33.5t115 44.5t111 76.5t95 85t45 52t29 18.5q17 -1 27 -22t13.5 -47t3.5 -38v-45q0 -34 -6 -80q-5 -42 -23 -42h-6q-14 0 -17 14q-3 15 -7 37.5t-8.5 44.5t-16.5 22
q-7 0 -43.5 -35.5t-103 -81.5t-100.5 -49q84 -28 155.5 -55t149 -44.5t172.5 -17.5l10 -3l-48 -130q-57 3 -106 5h-17q-40 0 -75 -8q-43 -10 -88 -37q-121 -75 -234 -107.5t-222 -32.5q-22 0 -35.5 13.5t-13.5 35.5q0 29 25 66.5t58 38.5q75 2 146.5 15t131.5 31
q24 11 56 26.5t48 34.5zM562 15l110 -70l-60 -105l-111 70zM728 38l110 -70l-60 -105l-111 70zM242 -137l110 -70l-60 -105l-111 70zM408 -114l110 -70l-60 -105l-111 70z" />
    <glyph glyph-name="uni06790683.init" unicode="&#xfb68;&#xfb79;" 
d="M416 261q-121 41 -207 49q-28 2 -54 2q-54 0 -99 -11l-10 7q4 34 11 60t18.5 43t30 31t89.5 33.5t115 44.5t111 76.5t95 85t45 52t29 18.5q17 -1 27 -22t13.5 -47t3.5 -38v-45q0 -34 -6 -80q-5 -42 -23 -42h-6q-14 0 -17 14q-3 15 -7 37.5t-8.5 44.5t-16.5 22
q-7 0 -43.5 -35.5t-103 -81.5t-100.5 -49q84 -28 155.5 -55t149 -44.5t172.5 -17.5l10 -3l-48 -130q-57 3 -106 5h-17q-40 0 -75 -8q-43 -10 -88 -37q-121 -75 -234 -107.5t-222 -32.5q-22 0 -35.5 13.5t-13.5 35.5q0 29 25 66.5t58 38.5q75 2 146.5 15t131.5 31
q24 11 56 26.5t48 34.5zM565 1147q0 -15 2 -25t6 -29.5t7 -40t3 -38.5q0 -6 -1 -13l-3 -21q12 12 27 23.5l30 23t35 21t35 9.5q11 0 19.5 -6t16 -13.5t14.5 -21.5t7 -23q0 -8 -2 -15t-7.5 -19.5t-14 -24.5t-17.5 -22q-20 -18 -35.5 -25t-39 -10.5t-52 -5.5t-88.5 -2
q-7 0 -32 11.5t-55 30.5l1 14h84q4 0 8 1q11 8 15.5 12t15.5 14q4 16 4 25q0 10 -4.5 35t-9.5 52t-8.5 48t-3.5 36q0 7 -7 14l-2 10q0 10 9.5 26t20.5 32q5 -12 15 -27t24 -25q-1 -8 -6 -18t-11 -13zM728 956q-10 20 -20 30t-23 10q-24 0 -52.5 -19.5t-69.5 -49.5q3 1 11 1
h11q54 0 85 4t58 24zM272 -137l110 -70l-60 -105l-111 70zM438 -114l110 -70l-60 -105l-111 70z" />
    <glyph glyph-name="uni067A0683.init" unicode="&#xfb60;&#xfb79;" 
d="M416 261q-121 41 -207 49q-28 2 -54 2q-54 0 -99 -11l-10 7q4 34 11 60t18.5 43t30 31t89.5 33.5t115 44.5t111 76.5t95 85t45 52t29 18.5q17 -1 27 -22t13.5 -47t3.5 -38v-45q0 -34 -6 -80q-5 -42 -23 -42h-6q-14 0 -17 14q-3 15 -7 37.5t-8.5 44.5t-16.5 22
q-7 0 -43.5 -35.5t-103 -81.5t-100.5 -49q84 -28 155.5 -55t149 -44.5t172.5 -17.5l10 -3l-48 -130q-57 3 -106 5h-17q-40 0 -75 -8q-43 -10 -88 -37q-121 -75 -234 -107.5t-222 -32.5q-22 0 -35.5 13.5t-13.5 35.5q0 29 25 66.5t58 38.5q75 2 146.5 15t131.5 31
q24 11 56 26.5t48 34.5zM562 1238l110 -70l-60 -105l-111 70zM582 1055l110 -70l-60 -105l-111 70zM272 -137l110 -70l-60 -105l-111 70zM438 -114l110 -70l-60 -105l-111 70z" />
    <glyph glyph-name="uni067F0683.init" unicode="&#xfb64;&#xfb79;" 
d="M416 261q-121 41 -207 49q-28 2 -54 2q-54 0 -99 -11l-10 7q4 34 11 60t18.5 43t30 31t89.5 33.5t115 44.5t111 76.5t95 85t45 52t29 18.5q17 -1 27 -22t13.5 -47t3.5 -38v-45q0 -34 -6 -80q-5 -42 -23 -42h-6q-14 0 -17 14q-3 15 -7 37.5t-8.5 44.5t-16.5 22
q-7 0 -43.5 -35.5t-103 -81.5t-100.5 -49q84 -28 155.5 -55t149 -44.5t172.5 -17.5l10 -3l-48 -130q-57 3 -106 5h-17q-40 0 -75 -8q-43 -10 -88 -37q-121 -75 -234 -107.5t-222 -32.5q-22 0 -35.5 13.5t-13.5 35.5q0 29 25 66.5t58 38.5q75 2 146.5 15t131.5 31
q24 11 56 26.5t48 34.5zM442 1228l110 -70l-60 -105l-111 70zM462 1045l110 -70l-60 -105l-111 70zM609 1250l110 -70l-60 -105l-111 70zM629 1067l110 -70l-60 -105l-111 70zM272 -137l110 -70l-60 -105l-111 70zM438 -114l110 -70l-60 -105l-111 70z" />
    <glyph glyph-name="uni06260684.init" unicode="&#xfe8b;&#xfb75;" 
d="M416 261q-121 41 -207 49q-28 2 -54 2q-54 0 -99 -11l-10 7q4 34 11 60t18.5 43t30 31t89.5 33.5t115 44.5t111 76.5t95 85t45 52t29 18.5q17 -1 27 -22t13.5 -47t3.5 -38v-45q0 -34 -6 -80q-5 -42 -23 -42h-6q-14 0 -17 14q-3 15 -7 37.5t-8.5 44.5t-16.5 22
q-7 0 -43.5 -35.5t-103 -81.5t-100.5 -49q84 -28 155.5 -55t149 -44.5t172.5 -17.5l10 -3l-48 -130q-57 3 -106 5h-17q-40 0 -75 -8q-43 -10 -88 -37q-121 -75 -234 -107.5t-222 -32.5q-22 0 -35.5 13.5t-13.5 35.5q0 29 25 66.5t58 38.5q75 2 146.5 15t131.5 31
q24 11 56 26.5t48 34.5zM610 1155q24 -1 32 -14.5t8 -27.5q0 -31 -8 -72h-14q-21 17 -34 19t-21 2t-20.5 -5.5t-24 -13t-19.5 -16.5t-8 -16q0 -11 16 -18t40 -11.5t60 -7.5l102 54l7 -10l-20 -88l-236 -117v46l53 43q-23 10 -36.5 18t-25 20t-11.5 27q0 32 16 66t40 60
t52 44t52 18zM302 -109l110 -70l-60 -105l-111 70zM322 -292l110 -70l-60 -105l-111 70z" />
    <glyph glyph-name="uni06280684.init" unicode="&#xfe91;&#xfb75;" 
d="M416 261q-121 41 -207 49q-28 2 -54 2q-54 0 -99 -11l-10 7q4 34 11 60t18.5 43t30 31t89.5 33.5t115 44.5t111 76.5t95 85t45 52t29 18.5q17 -1 27 -22t13.5 -47t3.5 -38v-45q0 -34 -6 -80q-5 -42 -23 -42h-6q-14 0 -17 14q-3 15 -7 37.5t-8.5 44.5t-16.5 22
q-7 0 -43.5 -35.5t-103 -81.5t-100.5 -49q84 -28 155.5 -55t149 -44.5t172.5 -17.5l10 -3l-48 -130q-57 3 -106 5h-17q-40 0 -75 -8q-43 -10 -88 -37q-121 -75 -234 -107.5t-222 -32.5q-22 0 -35.5 13.5t-13.5 35.5q0 29 25 66.5t58 38.5q75 2 146.5 15t131.5 31
q24 11 56 26.5t48 34.5zM622 3l110 -70l-60 -105l-111 70zM302 -109l110 -70l-60 -105l-111 70zM322 -292l110 -70l-60 -105l-111 70z" />
    <glyph glyph-name="uni062A0684.init" unicode="&#xfe97;&#xfb75;" 
d="M416 261q-121 41 -207 49q-28 2 -54 2q-54 0 -99 -11l-10 7q4 34 11 60t18.5 43t30 31t89.5 33.5t115 44.5t111 76.5t95 85t45 52t29 18.5q17 -1 27 -22t13.5 -47t3.5 -38v-45q0 -34 -6 -80q-5 -42 -23 -42h-6q-14 0 -17 14q-3 15 -7 37.5t-8.5 44.5t-16.5 22
q-7 0 -43.5 -35.5t-103 -81.5t-100.5 -49q84 -28 155.5 -55t149 -44.5t172.5 -17.5l10 -3l-48 -130q-57 3 -106 5h-17q-40 0 -75 -8q-43 -10 -88 -37q-121 -75 -234 -107.5t-222 -32.5q-22 0 -35.5 13.5t-13.5 35.5q0 29 25 66.5t58 38.5q75 2 146.5 15t131.5 31
q24 11 56 26.5t48 34.5zM472 1045l110 -70l-60 -105l-111 70zM638 1068l110 -70l-60 -105l-111 70zM302 -109l110 -70l-60 -105l-111 70zM322 -292l110 -70l-60 -105l-111 70z" />
    <glyph glyph-name="uni062B0684.init" unicode="&#xfe9b;&#xfb75;" 
d="M416 261q-121 41 -207 49q-28 2 -54 2q-54 0 -99 -11l-10 7q4 34 11 60t18.5 43t30 31t89.5 33.5t115 44.5t111 76.5t95 85t45 52t29 18.5q17 -1 27 -22t13.5 -47t3.5 -38v-45q0 -34 -6 -80q-5 -42 -23 -42h-6q-14 0 -17 14q-3 15 -7 37.5t-8.5 44.5t-16.5 22
q-7 0 -43.5 -35.5t-103 -81.5t-100.5 -49q84 -28 155.5 -55t149 -44.5t172.5 -17.5l10 -3l-48 -130q-57 3 -106 5h-17q-40 0 -75 -8q-43 -10 -88 -37q-121 -75 -234 -107.5t-222 -32.5q-22 0 -35.5 13.5t-13.5 35.5q0 29 25 66.5t58 38.5q75 2 146.5 15t131.5 31
q24 11 56 26.5t48 34.5zM472 1045l110 -70l-60 -105l-111 70zM638 1068l110 -70l-60 -105l-111 70zM517 1218l110 -70l-60 -105l-111 70zM302 -109l110 -70l-60 -105l-111 70zM322 -292l110 -70l-60 -105l-111 70z" />
    <glyph glyph-name="uni06460684.init" unicode="&#xfee7;&#xfb75;" 
d="M416 261q-121 41 -207 49q-28 2 -54 2q-54 0 -99 -11l-10 7q4 34 11 60t18.5 43t30 31t89.5 33.5t115 44.5t111 76.5t95 85t45 52t29 18.5q17 -1 27 -22t13.5 -47t3.5 -38v-45q0 -34 -6 -80q-5 -42 -23 -42h-6q-14 0 -17 14q-3 15 -7 37.5t-8.5 44.5t-16.5 22
q-7 0 -43.5 -35.5t-103 -81.5t-100.5 -49q84 -28 155.5 -55t149 -44.5t172.5 -17.5l10 -3l-48 -130q-57 3 -106 5h-17q-40 0 -75 -8q-43 -10 -88 -37q-121 -75 -234 -107.5t-222 -32.5q-22 0 -35.5 13.5t-13.5 35.5q0 29 25 66.5t58 38.5q75 2 146.5 15t131.5 31
q24 11 56 26.5t48 34.5zM562 1055l110 -70l-60 -105l-111 70zM302 -109l110 -70l-60 -105l-111 70zM322 -292l110 -70l-60 -105l-111 70z" />
    <glyph glyph-name="uni064A0684.init" unicode="&#xfbfe;&#xfb75;" 
d="M416 261q-121 41 -207 49q-28 2 -54 2q-54 0 -99 -11l-10 7q4 34 11 60t18.5 43t30 31t89.5 33.5t115 44.5t111 76.5t95 85t45 52t29 18.5q17 -1 27 -22t13.5 -47t3.5 -38v-45q0 -34 -6 -80q-5 -42 -23 -42h-6q-14 0 -17 14q-3 15 -7 37.5t-8.5 44.5t-16.5 22
q-7 0 -43.5 -35.5t-103 -81.5t-100.5 -49q84 -28 155.5 -55t149 -44.5t172.5 -17.5l10 -3l-48 -130q-57 3 -106 5h-17q-40 0 -75 -8q-43 -10 -88 -37q-121 -75 -234 -107.5t-222 -32.5q-22 0 -35.5 13.5t-13.5 35.5q0 29 25 66.5t58 38.5q75 2 146.5 15t131.5 31
q24 11 56 26.5t48 34.5zM532 -7l110 -70l-60 -105l-111 70zM698 16l110 -70l-60 -105l-111 70zM302 -109l110 -70l-60 -105l-111 70zM322 -292l110 -70l-60 -105l-111 70z" />
    <glyph glyph-name="uni06790684.init" unicode="&#xfb68;&#xfb75;" 
d="M416 261q-121 41 -207 49q-28 2 -54 2q-54 0 -99 -11l-10 7q4 34 11 60t18.5 43t30 31t89.5 33.5t115 44.5t111 76.5t95 85t45 52t29 18.5q17 -1 27 -22t13.5 -47t3.5 -38v-45q0 -34 -6 -80q-5 -42 -23 -42h-6q-14 0 -17 14q-3 15 -7 37.5t-8.5 44.5t-16.5 22
q-7 0 -43.5 -35.5t-103 -81.5t-100.5 -49q84 -28 155.5 -55t149 -44.5t172.5 -17.5l10 -3l-48 -130q-57 3 -106 5h-17q-40 0 -75 -8q-43 -10 -88 -37q-121 -75 -234 -107.5t-222 -32.5q-22 0 -35.5 13.5t-13.5 35.5q0 29 25 66.5t58 38.5q75 2 146.5 15t131.5 31
q24 11 56 26.5t48 34.5zM565 1147q0 -15 2 -25t6 -29.5t7 -40t3 -38.5q0 -6 -1 -13l-3 -21q12 12 27 23.5l30 23t35 21t35 9.5q11 0 19.5 -6t16 -13.5t14.5 -21.5t7 -23q0 -8 -2 -15t-7.5 -19.5t-14 -24.5t-17.5 -22q-20 -18 -35.5 -25t-39 -10.5t-52 -5.5t-88.5 -2
q-7 0 -32 11.5t-55 30.5l1 14h84q4 0 8 1q11 8 15.5 12t15.5 14q4 16 4 25q0 10 -4.5 35t-9.5 52t-8.5 48t-3.5 36q0 7 -7 14l-2 10q0 10 9.5 26t20.5 32q5 -12 15 -27t24 -25q-1 -8 -6 -18t-11 -13zM728 956q-10 20 -20 30t-23 10q-24 0 -52.5 -19.5t-69.5 -49.5q3 1 11 1
h11q54 0 85 4t58 24zM302 -109l110 -70l-60 -105l-111 70zM322 -292l110 -70l-60 -105l-111 70z" />
    <glyph glyph-name="uni067A0684.init" unicode="&#xfb60;&#xfb75;" 
d="M416 261q-121 41 -207 49q-28 2 -54 2q-54 0 -99 -11l-10 7q4 34 11 60t18.5 43t30 31t89.5 33.5t115 44.5t111 76.5t95 85t45 52t29 18.5q17 -1 27 -22t13.5 -47t3.5 -38v-45q0 -34 -6 -80q-5 -42 -23 -42h-6q-14 0 -17 14q-3 15 -7 37.5t-8.5 44.5t-16.5 22
q-7 0 -43.5 -35.5t-103 -81.5t-100.5 -49q84 -28 155.5 -55t149 -44.5t172.5 -17.5l10 -3l-48 -130q-57 3 -106 5h-17q-40 0 -75 -8q-43 -10 -88 -37q-121 -75 -234 -107.5t-222 -32.5q-22 0 -35.5 13.5t-13.5 35.5q0 29 25 66.5t58 38.5q75 2 146.5 15t131.5 31
q24 11 56 26.5t48 34.5zM562 1238l110 -70l-60 -105l-111 70zM582 1055l110 -70l-60 -105l-111 70zM302 -109l110 -70l-60 -105l-111 70zM322 -292l110 -70l-60 -105l-111 70z" />
    <glyph glyph-name="uni067F0684.init" unicode="&#xfb64;&#xfb75;" 
d="M416 261q-121 41 -207 49q-28 2 -54 2q-54 0 -99 -11l-10 7q4 34 11 60t18.5 43t30 31t89.5 33.5t115 44.5t111 76.5t95 85t45 52t29 18.5q17 -1 27 -22t13.5 -47t3.5 -38v-45q0 -34 -6 -80q-5 -42 -23 -42h-6q-14 0 -17 14q-3 15 -7 37.5t-8.5 44.5t-16.5 22
q-7 0 -43.5 -35.5t-103 -81.5t-100.5 -49q84 -28 155.5 -55t149 -44.5t172.5 -17.5l10 -3l-48 -130q-57 3 -106 5h-17q-40 0 -75 -8q-43 -10 -88 -37q-121 -75 -234 -107.5t-222 -32.5q-22 0 -35.5 13.5t-13.5 35.5q0 29 25 66.5t58 38.5q75 2 146.5 15t131.5 31
q24 11 56 26.5t48 34.5zM442 1228l110 -70l-60 -105l-111 70zM462 1045l110 -70l-60 -105l-111 70zM609 1250l110 -70l-60 -105l-111 70zM629 1067l110 -70l-60 -105l-111 70zM302 -109l110 -70l-60 -105l-111 70zM322 -292l110 -70l-60 -105l-111 70z" />
    <glyph glyph-name="uni06260686.init" unicode="&#xfe8b;&#xfb7d;" 
d="M416 261q-121 41 -207 49q-28 2 -54 2q-54 0 -99 -11l-10 7q4 34 11 60t18.5 43t30 31t89.5 33.5t115 44.5t111 76.5t95 85t45 52t29 18.5q17 -1 27 -22t13.5 -47t3.5 -38v-45q0 -34 -6 -80q-5 -42 -23 -42h-6q-14 0 -17 14q-3 15 -7 37.5t-8.5 44.5t-16.5 22
q-7 0 -43.5 -35.5t-103 -81.5t-100.5 -49q84 -28 155.5 -55t149 -44.5t172.5 -17.5l10 -3l-48 -130q-57 3 -106 5h-17q-40 0 -75 -8q-43 -10 -88 -37q-121 -75 -234 -107.5t-222 -32.5q-22 0 -35.5 13.5t-13.5 35.5q0 29 25 66.5t58 38.5q75 2 146.5 15t131.5 31
q24 11 56 26.5t48 34.5zM610 1155q24 -1 32 -14.5t8 -27.5q0 -31 -8 -72h-14q-21 17 -34 19t-21 2t-20.5 -5.5t-24 -13t-19.5 -16.5t-8 -16q0 -11 16 -18t40 -11.5t60 -7.5l102 54l7 -10l-20 -88l-236 -117v46l53 43q-23 10 -36.5 18t-25 20t-11.5 27q0 32 16 66t40 60
t52 44t52 18zM262 -141l110 -70l-60 -105l-111 70zM429 -118l110 -70l-60 -105l-111 70zM381 -287l110 -70l-60 -105l-111 70z" />
    <glyph glyph-name="uni06280686.init" unicode="&#xfe91;&#xfb7d;" 
d="M416 261q-121 41 -207 49q-28 2 -54 2q-54 0 -99 -11l-10 7q4 34 11 60t18.5 43t30 31t89.5 33.5t115 44.5t111 76.5t95 85t45 52t29 18.5q17 -1 27 -22t13.5 -47t3.5 -38v-45q0 -34 -6 -80q-5 -42 -23 -42h-6q-14 0 -17 14q-3 15 -7 37.5t-8.5 44.5t-16.5 22
q-7 0 -43.5 -35.5t-103 -81.5t-100.5 -49q84 -28 155.5 -55t149 -44.5t172.5 -17.5l10 -3l-48 -130q-57 3 -106 5h-17q-40 0 -75 -8q-43 -10 -88 -37q-121 -75 -234 -107.5t-222 -32.5q-22 0 -35.5 13.5t-13.5 35.5q0 29 25 66.5t58 38.5q75 2 146.5 15t131.5 31
q24 11 56 26.5t48 34.5zM622 3l110 -70l-60 -105l-111 70zM262 -141l110 -70l-60 -105l-111 70zM429 -118l110 -70l-60 -105l-111 70zM381 -287l110 -70l-60 -105l-111 70z" />
    <glyph glyph-name="uni062A0686.init" unicode="&#xfe97;&#xfb7d;" 
d="M416 261q-121 41 -207 49q-28 2 -54 2q-54 0 -99 -11l-10 7q4 34 11 60t18.5 43t30 31t89.5 33.5t115 44.5t111 76.5t95 85t45 52t29 18.5q17 -1 27 -22t13.5 -47t3.5 -38v-45q0 -34 -6 -80q-5 -42 -23 -42h-6q-14 0 -17 14q-3 15 -7 37.5t-8.5 44.5t-16.5 22
q-7 0 -43.5 -35.5t-103 -81.5t-100.5 -49q84 -28 155.5 -55t149 -44.5t172.5 -17.5l10 -3l-48 -130q-57 3 -106 5h-17q-40 0 -75 -8q-43 -10 -88 -37q-121 -75 -234 -107.5t-222 -32.5q-22 0 -35.5 13.5t-13.5 35.5q0 29 25 66.5t58 38.5q75 2 146.5 15t131.5 31
q24 11 56 26.5t48 34.5zM472 1045l110 -70l-60 -105l-111 70zM638 1068l110 -70l-60 -105l-111 70zM262 -141l110 -70l-60 -105l-111 70zM429 -118l110 -70l-60 -105l-111 70zM381 -287l110 -70l-60 -105l-111 70z" />
    <glyph glyph-name="uni062B0686.init" unicode="&#xfe9b;&#xfb7d;" 
d="M416 261q-121 41 -207 49q-28 2 -54 2q-54 0 -99 -11l-10 7q4 34 11 60t18.5 43t30 31t89.5 33.5t115 44.5t111 76.5t95 85t45 52t29 18.5q17 -1 27 -22t13.5 -47t3.5 -38v-45q0 -34 -6 -80q-5 -42 -23 -42h-6q-14 0 -17 14q-3 15 -7 37.5t-8.5 44.5t-16.5 22
q-7 0 -43.5 -35.5t-103 -81.5t-100.5 -49q84 -28 155.5 -55t149 -44.5t172.5 -17.5l10 -3l-48 -130q-57 3 -106 5h-17q-40 0 -75 -8q-43 -10 -88 -37q-121 -75 -234 -107.5t-222 -32.5q-22 0 -35.5 13.5t-13.5 35.5q0 29 25 66.5t58 38.5q75 2 146.5 15t131.5 31
q24 11 56 26.5t48 34.5zM472 1045l110 -70l-60 -105l-111 70zM638 1068l110 -70l-60 -105l-111 70zM517 1218l110 -70l-60 -105l-111 70zM262 -141l110 -70l-60 -105l-111 70zM429 -118l110 -70l-60 -105l-111 70zM381 -287l110 -70l-60 -105l-111 70z" />
    <glyph glyph-name="uni06460686.init" unicode="&#xfee7;&#xfb7d;" 
d="M416 261q-121 41 -207 49q-28 2 -54 2q-54 0 -99 -11l-10 7q4 34 11 60t18.5 43t30 31t89.5 33.5t115 44.5t111 76.5t95 85t45 52t29 18.5q17 -1 27 -22t13.5 -47t3.5 -38v-45q0 -34 -6 -80q-5 -42 -23 -42h-6q-14 0 -17 14q-3 15 -7 37.5t-8.5 44.5t-16.5 22
q-7 0 -43.5 -35.5t-103 -81.5t-100.5 -49q84 -28 155.5 -55t149 -44.5t172.5 -17.5l10 -3l-48 -130q-57 3 -106 5h-17q-40 0 -75 -8q-43 -10 -88 -37q-121 -75 -234 -107.5t-222 -32.5q-22 0 -35.5 13.5t-13.5 35.5q0 29 25 66.5t58 38.5q75 2 146.5 15t131.5 31
q24 11 56 26.5t48 34.5zM562 1055l110 -70l-60 -105l-111 70zM262 -141l110 -70l-60 -105l-111 70zM429 -118l110 -70l-60 -105l-111 70zM381 -287l110 -70l-60 -105l-111 70z" />
    <glyph glyph-name="uni064A0686.init" unicode="&#xfbfe;&#xfb7d;" 
d="M416 261q-121 41 -207 49q-28 2 -54 2q-54 0 -99 -11l-10 7q4 34 11 60t18.5 43t30 31t89.5 33.5t115 44.5t111 76.5t95 85t45 52t29 18.5q17 -1 27 -22t13.5 -47t3.5 -38v-45q0 -34 -6 -80q-5 -42 -23 -42h-6q-14 0 -17 14q-3 15 -7 37.5t-8.5 44.5t-16.5 22
q-7 0 -43.5 -35.5t-103 -81.5t-100.5 -49q84 -28 155.5 -55t149 -44.5t172.5 -17.5l10 -3l-48 -130q-57 3 -106 5h-17q-40 0 -75 -8q-43 -10 -88 -37q-121 -75 -234 -107.5t-222 -32.5q-22 0 -35.5 13.5t-13.5 35.5q0 29 25 66.5t58 38.5q75 2 146.5 15t131.5 31
q24 11 56 26.5t48 34.5zM532 3l110 -70l-60 -105l-111 70zM698 26l110 -70l-60 -105l-111 70zM202 -141l110 -70l-60 -105l-111 70zM369 -118l110 -70l-60 -105l-111 70zM321 -287l110 -70l-60 -105l-111 70z" />
    <glyph glyph-name="uni06790686.init" unicode="&#xfb68;&#xfb7d;" 
d="M416 261q-121 41 -207 49q-28 2 -54 2q-54 0 -99 -11l-10 7q4 34 11 60t18.5 43t30 31t89.5 33.5t115 44.5t111 76.5t95 85t45 52t29 18.5q17 -1 27 -22t13.5 -47t3.5 -38v-45q0 -34 -6 -80q-5 -42 -23 -42h-6q-14 0 -17 14q-3 15 -7 37.5t-8.5 44.5t-16.5 22
q-7 0 -43.5 -35.5t-103 -81.5t-100.5 -49q84 -28 155.5 -55t149 -44.5t172.5 -17.5l10 -3l-48 -130q-57 3 -106 5h-17q-40 0 -75 -8q-43 -10 -88 -37q-121 -75 -234 -107.5t-222 -32.5q-22 0 -35.5 13.5t-13.5 35.5q0 29 25 66.5t58 38.5q75 2 146.5 15t131.5 31
q24 11 56 26.5t48 34.5zM565 1147q0 -15 2 -25t6 -29.5t7 -40t3 -38.5q0 -6 -1 -13l-3 -21q12 12 27 23.5l30 23t35 21t35 9.5q11 0 19.5 -6t16 -13.5t14.5 -21.5t7 -23q0 -8 -2 -15t-7.5 -19.5t-14 -24.5t-17.5 -22q-20 -18 -35.5 -25t-39 -10.5t-52 -5.5t-88.5 -2
q-7 0 -32 11.5t-55 30.5l1 14h84q4 0 8 1q11 8 15.5 12t15.5 14q4 16 4 25q0 10 -4.5 35t-9.5 52t-8.5 48t-3.5 36q0 7 -7 14l-2 10q0 10 9.5 26t20.5 32q5 -12 15 -27t24 -25q-1 -8 -6 -18t-11 -13zM728 956q-10 20 -20 30t-23 10q-24 0 -52.5 -19.5t-69.5 -49.5q3 1 11 1
h11q54 0 85 4t58 24zM262 -141l110 -70l-60 -105l-111 70zM429 -118l110 -70l-60 -105l-111 70zM381 -287l110 -70l-60 -105l-111 70z" />
    <glyph glyph-name="uni067A0686.init" unicode="&#xfb60;&#xfb7d;" 
d="M416 261q-121 41 -207 49q-28 2 -54 2q-54 0 -99 -11l-10 7q4 34 11 60t18.5 43t30 31t89.5 33.5t115 44.5t111 76.5t95 85t45 52t29 18.5q17 -1 27 -22t13.5 -47t3.5 -38v-45q0 -34 -6 -80q-5 -42 -23 -42h-6q-14 0 -17 14q-3 15 -7 37.5t-8.5 44.5t-16.5 22
q-7 0 -43.5 -35.5t-103 -81.5t-100.5 -49q84 -28 155.5 -55t149 -44.5t172.5 -17.5l10 -3l-48 -130q-57 3 -106 5h-17q-40 0 -75 -8q-43 -10 -88 -37q-121 -75 -234 -107.5t-222 -32.5q-22 0 -35.5 13.5t-13.5 35.5q0 29 25 66.5t58 38.5q75 2 146.5 15t131.5 31
q24 11 56 26.5t48 34.5zM562 1238l110 -70l-60 -105l-111 70zM582 1055l110 -70l-60 -105l-111 70zM262 -141l110 -70l-60 -105l-111 70zM429 -118l110 -70l-60 -105l-111 70zM381 -287l110 -70l-60 -105l-111 70z" />
    <glyph glyph-name="uni067F0686.init" unicode="&#xfb64;&#xfb7d;" 
d="M416 261q-121 41 -207 49q-28 2 -54 2q-54 0 -99 -11l-10 7q4 34 11 60t18.5 43t30 31t89.5 33.5t115 44.5t111 76.5t95 85t45 52t29 18.5q17 -1 27 -22t13.5 -47t3.5 -38v-45q0 -34 -6 -80q-5 -42 -23 -42h-6q-14 0 -17 14q-3 15 -7 37.5t-8.5 44.5t-16.5 22
q-7 0 -43.5 -35.5t-103 -81.5t-100.5 -49q84 -28 155.5 -55t149 -44.5t172.5 -17.5l10 -3l-48 -130q-57 3 -106 5h-17q-40 0 -75 -8q-43 -10 -88 -37q-121 -75 -234 -107.5t-222 -32.5q-22 0 -35.5 13.5t-13.5 35.5q0 29 25 66.5t58 38.5q75 2 146.5 15t131.5 31
q24 11 56 26.5t48 34.5zM442 1228l110 -70l-60 -105l-111 70zM462 1045l110 -70l-60 -105l-111 70zM609 1250l110 -70l-60 -105l-111 70zM629 1067l110 -70l-60 -105l-111 70zM262 -141l110 -70l-60 -105l-111 70zM429 -118l110 -70l-60 -105l-111 70zM381 -287l110 -70
l-60 -105l-111 70z" />
    <glyph glyph-name="uni06260687.init" unicode="&#xfe8b;&#xfb81;" 
d="M416 261q-121 41 -207 49q-28 2 -54 2q-54 0 -99 -11l-10 7q4 34 11 60t18.5 43t30 31t89.5 33.5t115 44.5t111 76.5t95 85t45 52t29 18.5q17 -1 27 -22t13.5 -47t3.5 -38v-45q0 -34 -6 -80q-5 -42 -23 -42h-6q-14 0 -17 14q-3 15 -7 37.5t-8.5 44.5t-16.5 22
q-7 0 -43.5 -35.5t-103 -81.5t-100.5 -49q84 -28 155.5 -55t149 -44.5t172.5 -17.5l10 -3l-48 -130q-57 3 -106 5h-17q-40 0 -75 -8q-43 -10 -88 -37q-121 -75 -234 -107.5t-222 -32.5q-22 0 -35.5 13.5t-13.5 35.5q0 29 25 66.5t58 38.5q75 2 146.5 15t131.5 31
q24 11 56 26.5t48 34.5zM610 1155q24 -1 32 -14.5t8 -27.5q0 -31 -8 -72h-14q-21 17 -34 19t-21 2t-20.5 -5.5t-24 -13t-19.5 -16.5t-8 -16q0 -11 16 -18t40 -11.5t60 -7.5l102 54l7 -10l-20 -88l-236 -117v46l53 43q-23 10 -36.5 18t-25 20t-11.5 27q0 32 16 66t40 60
t52 44t52 18zM262 -140l110 -70l-60 -105l-111 70zM282 -323l110 -70l-60 -105l-111 70zM429 -118l110 -70l-60 -105l-111 70zM449 -301l110 -70l-60 -105l-111 70z" />
    <glyph glyph-name="uni06280687.init" unicode="&#xfe91;&#xfb81;" 
d="M416 261q-121 41 -207 49q-28 2 -54 2q-54 0 -99 -11l-10 7q4 34 11 60t18.5 43t30 31t89.5 33.5t115 44.5t111 76.5t95 85t45 52t29 18.5q17 -1 27 -22t13.5 -47t3.5 -38v-45q0 -34 -6 -80q-5 -42 -23 -42h-6q-14 0 -17 14q-3 15 -7 37.5t-8.5 44.5t-16.5 22
q-7 0 -43.5 -35.5t-103 -81.5t-100.5 -49q84 -28 155.5 -55t149 -44.5t172.5 -17.5l10 -3l-48 -130q-57 3 -106 5h-17q-40 0 -75 -8q-43 -10 -88 -37q-121 -75 -234 -107.5t-222 -32.5q-22 0 -35.5 13.5t-13.5 35.5q0 29 25 66.5t58 38.5q75 2 146.5 15t131.5 31
q24 11 56 26.5t48 34.5zM622 3l110 -70l-60 -105l-111 70zM242 -139l110 -70l-60 -105l-111 70zM262 -322l110 -70l-60 -105l-111 70zM409 -117l110 -70l-60 -105l-111 70zM429 -300l110 -70l-60 -105l-111 70z" />
    <glyph glyph-name="uni062A0687.init" unicode="&#xfe97;&#xfb81;" 
d="M416 261q-121 41 -207 49q-28 2 -54 2q-54 0 -99 -11l-10 7q4 34 11 60t18.5 43t30 31t89.5 33.5t115 44.5t111 76.5t95 85t45 52t29 18.5q17 -1 27 -22t13.5 -47t3.5 -38v-45q0 -34 -6 -80q-5 -42 -23 -42h-6q-14 0 -17 14q-3 15 -7 37.5t-8.5 44.5t-16.5 22
q-7 0 -43.5 -35.5t-103 -81.5t-100.5 -49q84 -28 155.5 -55t149 -44.5t172.5 -17.5l10 -3l-48 -130q-57 3 -106 5h-17q-40 0 -75 -8q-43 -10 -88 -37q-121 -75 -234 -107.5t-222 -32.5q-22 0 -35.5 13.5t-13.5 35.5q0 29 25 66.5t58 38.5q75 2 146.5 15t131.5 31
q24 11 56 26.5t48 34.5zM472 1045l110 -70l-60 -105l-111 70zM638 1068l110 -70l-60 -105l-111 70zM262 -139l110 -70l-60 -105l-111 70zM282 -322l110 -70l-60 -105l-111 70zM429 -117l110 -70l-60 -105l-111 70zM449 -300l110 -70l-60 -105l-111 70z" />
    <glyph glyph-name="uni062B0687.init" unicode="&#xfe9b;&#xfb81;" 
d="M416 261q-121 41 -207 49q-28 2 -54 2q-54 0 -99 -11l-10 7q4 34 11 60t18.5 43t30 31t89.5 33.5t115 44.5t111 76.5t95 85t45 52t29 18.5q17 -1 27 -22t13.5 -47t3.5 -38v-45q0 -34 -6 -80q-5 -42 -23 -42h-6q-14 0 -17 14q-3 15 -7 37.5t-8.5 44.5t-16.5 22
q-7 0 -43.5 -35.5t-103 -81.5t-100.5 -49q84 -28 155.5 -55t149 -44.5t172.5 -17.5l10 -3l-48 -130q-57 3 -106 5h-17q-40 0 -75 -8q-43 -10 -88 -37q-121 -75 -234 -107.5t-222 -32.5q-22 0 -35.5 13.5t-13.5 35.5q0 29 25 66.5t58 38.5q75 2 146.5 15t131.5 31
q24 11 56 26.5t48 34.5zM472 1045l110 -70l-60 -105l-111 70zM638 1068l110 -70l-60 -105l-111 70zM517 1218l110 -70l-60 -105l-111 70zM262 -139l110 -70l-60 -105l-111 70zM282 -322l110 -70l-60 -105l-111 70zM429 -117l110 -70l-60 -105l-111 70zM449 -300l110 -70
l-60 -105l-111 70z" />
    <glyph glyph-name="uni06460687.init" unicode="&#xfee7;&#xfb81;" 
d="M416 261q-121 41 -207 49q-28 2 -54 2q-54 0 -99 -11l-10 7q4 34 11 60t18.5 43t30 31t89.5 33.5t115 44.5t111 76.5t95 85t45 52t29 18.5q17 -1 27 -22t13.5 -47t3.5 -38v-45q0 -34 -6 -80q-5 -42 -23 -42h-6q-14 0 -17 14q-3 15 -7 37.5t-8.5 44.5t-16.5 22
q-7 0 -43.5 -35.5t-103 -81.5t-100.5 -49q84 -28 155.5 -55t149 -44.5t172.5 -17.5l10 -3l-48 -130q-57 3 -106 5h-17q-40 0 -75 -8q-43 -10 -88 -37q-121 -75 -234 -107.5t-222 -32.5q-22 0 -35.5 13.5t-13.5 35.5q0 29 25 66.5t58 38.5q75 2 146.5 15t131.5 31
q24 11 56 26.5t48 34.5zM562 1055l110 -70l-60 -105l-111 70zM262 -139l110 -70l-60 -105l-111 70zM282 -322l110 -70l-60 -105l-111 70zM429 -117l110 -70l-60 -105l-111 70zM449 -300l110 -70l-60 -105l-111 70z" />
    <glyph glyph-name="uni064A0687.init" unicode="&#xfbfe;&#xfb81;" 
d="M416 261q-121 41 -207 49q-28 2 -54 2q-54 0 -99 -11l-10 7q4 34 11 60t18.5 43t30 31t89.5 33.5t115 44.5t111 76.5t95 85t45 52t29 18.5q17 -1 27 -22t13.5 -47t3.5 -38v-45q0 -34 -6 -80q-5 -42 -23 -42h-6q-14 0 -17 14q-3 15 -7 37.5t-8.5 44.5t-16.5 22
q-7 0 -43.5 -35.5t-103 -81.5t-100.5 -49q84 -28 155.5 -55t149 -44.5t172.5 -17.5l10 -3l-48 -130q-57 3 -106 5h-17q-40 0 -75 -8q-43 -10 -88 -37q-121 -75 -234 -107.5t-222 -32.5q-22 0 -35.5 13.5t-13.5 35.5q0 29 25 66.5t58 38.5q75 2 146.5 15t131.5 31
q24 11 56 26.5t48 34.5zM532 -7l110 -70l-60 -105l-111 70zM698 16l110 -70l-60 -105l-111 70zM182 -139l110 -70l-60 -105l-111 70zM202 -322l110 -70l-60 -105l-111 70zM349 -117l110 -70l-60 -105l-111 70zM369 -300l110 -70l-60 -105l-111 70z" />
    <glyph glyph-name="uni06790687.init" unicode="&#xfb68;&#xfb81;" 
d="M416 261q-121 41 -207 49q-28 2 -54 2q-54 0 -99 -11l-10 7q4 34 11 60t18.5 43t30 31t89.5 33.5t115 44.5t111 76.5t95 85t45 52t29 18.5q17 -1 27 -22t13.5 -47t3.5 -38v-45q0 -34 -6 -80q-5 -42 -23 -42h-6q-14 0 -17 14q-3 15 -7 37.5t-8.5 44.5t-16.5 22
q-7 0 -43.5 -35.5t-103 -81.5t-100.5 -49q84 -28 155.5 -55t149 -44.5t172.5 -17.5l10 -3l-48 -130q-57 3 -106 5h-17q-40 0 -75 -8q-43 -10 -88 -37q-121 -75 -234 -107.5t-222 -32.5q-22 0 -35.5 13.5t-13.5 35.5q0 29 25 66.5t58 38.5q75 2 146.5 15t131.5 31
q24 11 56 26.5t48 34.5zM533 1129q0 -15 2 -25t6 -29.5t7 -40t3 -38.5q0 -6 -1 -13l-3 -21q12 12 27 23.5l30 23t35 21t35 9.5q11 0 19.5 -6t16 -13.5t14.5 -21.5t7 -23q0 -8 -2 -15t-7.5 -19.5t-14 -24.5t-17.5 -22q-20 -18 -35.5 -25t-39 -10.5t-52 -5.5t-88.5 -2
q-7 0 -32 11.5t-55 30.5l1 14h84q4 0 8 1q11 8 15.5 12t15.5 14q4 16 4 25q0 10 -4.5 35t-9.5 52t-8.5 48t-3.5 36q0 7 -7 14l-2 10q0 10 9.5 26t20.5 32q5 -12 15 -27t24 -25q-1 -8 -6 -18t-11 -13zM696 938q-10 20 -20 30t-23 10q-24 0 -52.5 -19.5t-69.5 -49.5q3 1 11 1
h11q54 0 85 4t58 24zM262 -139l110 -70l-60 -105l-111 70zM282 -322l110 -70l-60 -105l-111 70zM429 -117l110 -70l-60 -105l-111 70zM449 -300l110 -70l-60 -105l-111 70z" />
    <glyph glyph-name="uni067A0687.init" unicode="&#xfb60;&#xfb81;" 
d="M416 261q-121 41 -207 49q-28 2 -54 2q-54 0 -99 -11l-10 7q4 34 11 60t18.5 43t30 31t89.5 33.5t115 44.5t111 76.5t95 85t45 52t29 18.5q17 -1 27 -22t13.5 -47t3.5 -38v-45q0 -34 -6 -80q-5 -42 -23 -42h-6q-14 0 -17 14q-3 15 -7 37.5t-8.5 44.5t-16.5 22
q-7 0 -43.5 -35.5t-103 -81.5t-100.5 -49q84 -28 155.5 -55t149 -44.5t172.5 -17.5l10 -3l-48 -130q-57 3 -106 5h-17q-40 0 -75 -8q-43 -10 -88 -37q-121 -75 -234 -107.5t-222 -32.5q-22 0 -35.5 13.5t-13.5 35.5q0 29 25 66.5t58 38.5q75 2 146.5 15t131.5 31
q24 11 56 26.5t48 34.5zM562 1238l110 -70l-60 -105l-111 70zM582 1055l110 -70l-60 -105l-111 70zM262 -139l110 -70l-60 -105l-111 70zM282 -322l110 -70l-60 -105l-111 70zM429 -117l110 -70l-60 -105l-111 70zM449 -300l110 -70l-60 -105l-111 70z" />
    <glyph glyph-name="uni067F0687.init" unicode="&#xfb64;&#xfb81;" 
d="M416 261q-121 41 -207 49q-28 2 -54 2q-54 0 -99 -11l-10 7q4 34 11 60t18.5 43t30 31t89.5 33.5t115 44.5t111 76.5t95 85t45 52t29 18.5q17 -1 27 -22t13.5 -47t3.5 -38v-45q0 -34 -6 -80q-5 -42 -23 -42h-6q-14 0 -17 14q-3 15 -7 37.5t-8.5 44.5t-16.5 22
q-7 0 -43.5 -35.5t-103 -81.5t-100.5 -49q84 -28 155.5 -55t149 -44.5t172.5 -17.5l10 -3l-48 -130q-57 3 -106 5h-17q-40 0 -75 -8q-43 -10 -88 -37q-121 -75 -234 -107.5t-222 -32.5q-22 0 -35.5 13.5t-13.5 35.5q0 29 25 66.5t58 38.5q75 2 146.5 15t131.5 31
q24 11 56 26.5t48 34.5zM442 1228l110 -70l-60 -105l-111 70zM462 1045l110 -70l-60 -105l-111 70zM609 1250l110 -70l-60 -105l-111 70zM629 1067l110 -70l-60 -105l-111 70zM262 -139l110 -70l-60 -105l-111 70zM282 -322l110 -70l-60 -105l-111 70zM429 -117l110 -70
l-60 -105l-111 70zM449 -300l110 -70l-60 -105l-111 70z" />
    <glyph glyph-name="uniFC02" unicode="&#xfe8b;&#xfee2;" horiz-adv-x="772" arabic-form="isolated" 
d="M771 531q0 -6 -2 -37.5t-5 -49.5t-9 -52q-2 -5 -8 -5l-6 4q-3 19 -15 29.5t-29.5 15.5t-38 6t-40.5 1q-39 0 -78.5 -10.5t-79 -28t-71.5 -39.5t-56 -39q93 -44 170 -102q-3 -101 -35 -154q-4 -2 -29 -4t-60.5 -5.5t-77 -9t-78 -15t-53.5 -32.5q-14 -20 -14 -101v-31
q3 -108 27 -268.5t27 -197.5v-19q0 -25 -5 -45q-7 -28 -41 -47q-5 0 -10 25t-10 58t-9.5 65.5t-7.5 48.5q-11 54 -19.5 113.5t-14.5 116.5t-9.5 106.5t-3.5 84.5q0 52 7.5 92t18.5 69.5t24 47.5t25 27q18 15 41.5 23.5t44.5 13t50 10.5q-28 17 -60 22q-6 1 -12 1
q-28 0 -60 -19l-7 14q0 7 2 19t6.5 26t40 65.5t88 97t110 83t119.5 61.5t124 24q20 0 42.5 -1t42 -7t32 -18t12.5 -33zM655 1086q24 -1 32 -14.5t8 -27.5q0 -31 -8 -72h-14q-21 17 -34 19t-21 2t-20.5 -5.5t-24 -13t-19.5 -16.5t-8 -16q0 -11 16 -18t40 -11.5t60 -7.5
l102 54l7 -10l-20 -88l-236 -117v46l53 43q-23 10 -36.5 18t-25 20t-11.5 27q0 32 16 66t40 60t52 44t52 18z" />
    <glyph glyph-name="uniFC08" unicode="&#xfe91;&#xfee2;" horiz-adv-x="772" arabic-form="isolated" 
d="M771 531q0 -6 -2 -37.5t-5 -49.5t-9 -52q-2 -5 -8 -5l-6 4q-3 19 -15 29.5t-29.5 15.5t-38 6t-40.5 1q-39 0 -78.5 -10.5t-79 -28t-71.5 -39.5t-56 -39q93 -44 170 -102q-3 -101 -35 -154q-4 -2 -29 -4t-60.5 -5.5t-77 -9t-78 -15t-53.5 -32.5q-14 -20 -14 -101v-31
q3 -108 27 -268.5t27 -197.5v-19q0 -25 -5 -45q-7 -28 -41 -47q-5 0 -10 25t-10 58t-9.5 65.5t-7.5 48.5q-11 54 -19.5 113.5t-14.5 116.5t-9.5 106.5t-3.5 84.5q0 52 7.5 92t18.5 69.5t24 47.5t25 27q18 15 41.5 23.5t44.5 13t50 10.5q-28 17 -60 22q-6 1 -12 1
q-28 0 -60 -19l-7 14q0 7 2 19t6.5 26t40 65.5t88 97t110 83t119.5 61.5t124 24q20 0 42.5 -1t42 -7t32 -18t12.5 -33zM691 152l110 -70l-60 -105l-111 70z" />
    <glyph glyph-name="uniFC0E" unicode="&#xfe97;&#xfee2;" horiz-adv-x="772" arabic-form="isolated" 
d="M771 531q0 -6 -2 -37.5t-5 -49.5t-9 -52q-2 -5 -8 -5l-6 4q-3 19 -15 29.5t-29.5 15.5t-38 6t-40.5 1q-39 0 -78.5 -10.5t-79 -28t-71.5 -39.5t-56 -39q93 -44 170 -102q-3 -101 -35 -154q-4 -2 -29 -4t-60.5 -5.5t-77 -9t-78 -15t-53.5 -32.5q-14 -20 -14 -101v-31
q3 -108 27 -268.5t27 -197.5v-19q0 -25 -5 -45q-7 -28 -41 -47q-5 0 -10 25t-10 58t-9.5 65.5t-7.5 48.5q-11 54 -19.5 113.5t-14.5 116.5t-9.5 106.5t-3.5 84.5q0 52 7.5 92t18.5 69.5t24 47.5t25 27q18 15 41.5 23.5t44.5 13t50 10.5q-28 17 -60 22q-6 1 -12 1
q-28 0 -60 -19l-7 14q0 7 2 19t6.5 26t40 65.5t88 97t110 83t119.5 61.5t124 24q20 0 42.5 -1t42 -7t32 -18t12.5 -33zM474 944l110 -70l-60 -105l-111 70zM640 967l110 -70l-60 -105l-111 70z" />
    <glyph glyph-name="uniFC12" unicode="&#xfe9b;&#xfee2;" horiz-adv-x="772" arabic-form="isolated" 
d="M771 531q0 -6 -2 -37.5t-5 -49.5t-9 -52q-2 -5 -8 -5l-6 4q-3 19 -15 29.5t-29.5 15.5t-38 6t-40.5 1q-39 0 -78.5 -10.5t-79 -28t-71.5 -39.5t-56 -39q93 -44 170 -102q-3 -101 -35 -154q-4 -2 -29 -4t-60.5 -5.5t-77 -9t-78 -15t-53.5 -32.5q-14 -20 -14 -101v-31
q3 -108 27 -268.5t27 -197.5v-19q0 -25 -5 -45q-7 -28 -41 -47q-5 0 -10 25t-10 58t-9.5 65.5t-7.5 48.5q-11 54 -19.5 113.5t-14.5 116.5t-9.5 106.5t-3.5 84.5q0 52 7.5 92t18.5 69.5t24 47.5t25 27q18 15 41.5 23.5t44.5 13t50 10.5q-28 17 -60 22q-6 1 -12 1
q-28 0 -60 -19l-7 14q0 7 2 19t6.5 26t40 65.5t88 97t110 83t119.5 61.5t124 24q20 0 42.5 -1t42 -7t32 -18t12.5 -33zM478 950l110 -70l-60 -105l-111 70zM644 973l110 -70l-60 -105l-111 70zM523 1123l110 -70l-60 -105l-111 70z" />
    <glyph glyph-name="uniFC4E" unicode="&#xfee7;&#xfee2;" horiz-adv-x="771" arabic-form="isolated" 
d="M771 531q0 -6 -2 -37.5t-5 -49.5t-9 -52q-2 -5 -8 -5l-6 4q-3 19 -15 29.5t-29.5 15.5t-38 6t-40.5 1q-39 0 -78.5 -10.5t-79 -28t-71.5 -39.5t-56 -39q93 -44 170 -102q-3 -101 -35 -154q-4 -2 -29 -4t-60.5 -5.5t-77 -9t-78 -15t-53.5 -32.5q-14 -20 -14 -101v-31
q3 -108 27 -268.5t27 -197.5v-19q0 -25 -5 -45q-7 -28 -41 -47q-5 0 -10 25t-10 58t-9.5 65.5t-7.5 48.5q-11 54 -19.5 113.5t-14.5 116.5t-9.5 106.5t-3.5 84.5q0 52 7.5 92t18.5 69.5t24 47.5t25 27q18 15 41.5 23.5t44.5 13t50 10.5q-28 17 -60 22q-6 1 -12 1
q-28 0 -60 -19l-7 14q0 7 2 19t6.5 26t40 65.5t88 97t110 83t119.5 61.5t124 24q20 0 42.5 -1t42 -7t32 -18t12.5 -33zM617 951l110 -70l-60 -105l-111 70z" />
    <glyph glyph-name="uniFC58" unicode="&#xfbfe;&#xfee2;" horiz-adv-x="771" arabic-form="isolated" 
d="M771 531q0 -6 -2 -37.5t-5 -49.5t-9 -52q-2 -5 -8 -5l-6 4q-3 19 -15 29.5t-29.5 15.5t-38 6t-40.5 1q-39 0 -78.5 -10.5t-79 -28t-71.5 -39.5t-56 -39q93 -44 170 -102q-3 -101 -35 -154q-4 -2 -29 -4t-60.5 -5.5t-77 -9t-78 -15t-53.5 -32.5q-14 -20 -14 -101v-31
q3 -108 27 -268.5t27 -197.5v-19q0 -25 -5 -45q-7 -28 -41 -47q-5 0 -10 25t-10 58t-9.5 65.5t-7.5 48.5q-11 54 -19.5 113.5t-14.5 116.5t-9.5 106.5t-3.5 84.5q0 52 7.5 92t18.5 69.5t24 47.5t25 27q18 15 41.5 23.5t44.5 13t50 10.5q-28 17 -60 22q-6 1 -12 1
q-28 0 -60 -19l-7 14q0 7 2 19t6.5 26t40 65.5t88 97t110 83t119.5 61.5t124 24q20 0 42.5 -1t42 -7t32 -18t12.5 -33zM511 34l110 -70l-60 -105l-111 70zM677 57l110 -70l-60 -105l-111 70z" />
    <glyph glyph-name="uni06790645.isol" unicode="&#xfb68;&#xfee2;" horiz-adv-x="772" 
d="M771 531q0 -6 -2 -37.5t-5 -49.5t-9 -52q-2 -5 -8 -5l-6 4q-3 19 -15 29.5t-29.5 15.5t-38 6t-40.5 1q-39 0 -78.5 -10.5t-79 -28t-71.5 -39.5t-56 -39q93 -44 170 -102q-3 -101 -35 -154q-4 -2 -29 -4t-60.5 -5.5t-77 -9t-78 -15t-53.5 -32.5q-14 -20 -14 -101v-31
q3 -108 27 -268.5t27 -197.5v-19q0 -25 -5 -45q-7 -28 -41 -47q-5 0 -10 25t-10 58t-9.5 65.5t-7.5 48.5q-11 54 -19.5 113.5t-14.5 116.5t-9.5 106.5t-3.5 84.5q0 52 7.5 92t18.5 69.5t24 47.5t25 27q18 15 41.5 23.5t44.5 13t50 10.5q-28 17 -60 22q-6 1 -12 1
q-28 0 -60 -19l-7 14q0 7 2 19t6.5 26t40 65.5t88 97t110 83t119.5 61.5t124 24q20 0 42.5 -1t42 -7t32 -18t12.5 -33zM577 1043q0 -15 2 -25t6 -29.5t7 -40t3 -38.5q0 -6 -1 -13l-3 -21q12 12 27 23.5l30 23t35 21t35 9.5q11 0 19.5 -6t16 -13.5t14.5 -21.5t7 -23
q0 -8 -2 -15t-7.5 -19.5t-14 -24.5t-17.5 -22q-20 -18 -35.5 -25t-39 -10.5t-52 -5.5t-88.5 -2q-7 0 -32 11.5t-55 30.5l1 14h84q4 0 8 1q11 8 15.5 12t15.5 14q4 16 4 25q0 10 -4.5 35t-9.5 52t-8.5 48t-3.5 36q0 7 -7 14l-2 10q0 10 9.5 26t20.5 32q5 -12 15 -27t24 -25
q-1 -8 -6 -18t-11 -13zM740 852q-10 20 -20 30t-23 10q-24 0 -52.5 -19.5t-69.5 -49.5q3 1 11 1h11q54 0 85 4t58 24z" />
    <glyph glyph-name="uni067A0645.isol" unicode="&#xfb60;&#xfee2;" horiz-adv-x="772" 
d="M771 531q0 -6 -2 -37.5t-5 -49.5t-9 -52q-2 -5 -8 -5l-6 4q-3 19 -15 29.5t-29.5 15.5t-38 6t-40.5 1q-39 0 -78.5 -10.5t-79 -28t-71.5 -39.5t-56 -39q93 -44 170 -102q-3 -101 -35 -154q-4 -2 -29 -4t-60.5 -5.5t-77 -9t-78 -15t-53.5 -32.5q-14 -20 -14 -101v-31
q3 -108 27 -268.5t27 -197.5v-19q0 -25 -5 -45q-7 -28 -41 -47q-5 0 -10 25t-10 58t-9.5 65.5t-7.5 48.5q-11 54 -19.5 113.5t-14.5 116.5t-9.5 106.5t-3.5 84.5q0 52 7.5 92t18.5 69.5t24 47.5t25 27q18 15 41.5 23.5t44.5 13t50 10.5q-28 17 -60 22q-6 1 -12 1
q-28 0 -60 -19l-7 14q0 7 2 19t6.5 26t40 65.5t88 97t110 83t119.5 61.5t124 24q20 0 42.5 -1t42 -7t32 -18t12.5 -33zM599 1130l110 -70l-60 -105l-111 70zM619 947l110 -70l-60 -105l-111 70z" />
    <glyph glyph-name="uni067F0645.isol" unicode="&#xfb64;&#xfee2;" horiz-adv-x="771" 
d="M771 531q0 -6 -2 -37.5t-5 -49.5t-9 -52q-2 -5 -8 -5l-6 4q-3 19 -15 29.5t-29.5 15.5t-38 6t-40.5 1q-39 0 -78.5 -10.5t-79 -28t-71.5 -39.5t-56 -39q93 -44 170 -102q-3 -101 -35 -154q-4 -2 -29 -4t-60.5 -5.5t-77 -9t-78 -15t-53.5 -32.5q-14 -20 -14 -101v-31
q3 -108 27 -268.5t27 -197.5v-19q0 -25 -5 -45q-7 -28 -41 -47q-5 0 -10 25t-10 58t-9.5 65.5t-7.5 48.5q-11 54 -19.5 113.5t-14.5 116.5t-9.5 106.5t-3.5 84.5q0 52 7.5 92t18.5 69.5t24 47.5t25 27q18 15 41.5 23.5t44.5 13t50 10.5q-28 17 -60 22q-6 1 -12 1
q-28 0 -60 -19l-7 14q0 7 2 19t6.5 26t40 65.5t88 97t110 83t119.5 61.5t124 24q20 0 42.5 -1t42 -7t32 -18t12.5 -33zM422 1107l110 -70l-60 -105l-111 70zM442 924l110 -70l-60 -105l-111 70zM589 1129l110 -70l-60 -105l-111 70zM609 946l110 -70l-60 -105l-111 70z" />
    <glyph glyph-name="uniFC9A" unicode="&#xfe8b;&#xfee4;" horiz-adv-x="425" arabic-form="initial" 
d="M336 588q17 0 33.5 -5.5t29.5 -15t21 -21.5t8 -25t-5 -42.5t-12 -41.5t-14.5 -20t-13.5 -8q-5 0 -11.5 8.5t-15.5 18t-21 18t-27 8.5q-17 0 -54 -14.5t-57 -52.5q-11 -20 -11 -42q0 -23 11 -49q21 -53 96 -96q25 -7 50.5 -16t46.5 -22t28 -30.5t7 -80.5q0 -11 -4.5 -28
t-11 -33.5t-13.5 -28.5t-11 -12q-17 0 -39.5 10.5t-45.5 26.5t-43 34.5t-30 33.5q-21 -2 -51.5 -12t-63.5 -21t-63 -20t-49 -9q-26 0 -37 9.5t-11 23.5q0 13 3.5 34.5t19 46t30 32.5t29.5 8q10 0 27 5t36.5 11t40 11.5t36.5 7.5q-5 7 -12.5 20.5t-18.5 32.5t-20 53
q-7 22 -7 50q0 17 3 37q5 52 42.5 104t88 77t86.5 25zM290 1051q24 -1 32 -14.5t8 -27.5q0 -31 -8 -72h-14q-21 17 -34 19t-21 2t-20.5 -5.5t-24 -13t-19.5 -16.5t-8 -16q0 -11 16 -18t40 -11.5t60 -7.5l102 54l7 -10l-20 -88l-236 -117v46l53 43q-23 10 -36.5 18t-25 20
t-11.5 27q0 32 16 66t40 60t52 44t52 18z" />
    <glyph glyph-name="uniFC9F" unicode="&#xfe91;&#xfee4;" horiz-adv-x="425" arabic-form="initial" 
d="M336 588q17 0 33.5 -5.5t29.5 -15t21 -21.5t8 -25t-5 -42.5t-12 -41.5t-14.5 -20t-13.5 -8q-5 0 -11.5 8.5t-15.5 18t-21 18t-27 8.5q-17 0 -54 -14.5t-57 -52.5q-11 -20 -11 -42q0 -23 11 -49q21 -53 96 -96q25 -7 50.5 -16t46.5 -22t28 -30.5t7 -80.5q0 -11 -4.5 -28
t-11 -33.5t-13.5 -28.5t-11 -12q-17 0 -39.5 10.5t-45.5 26.5t-43 34.5t-30 33.5q-21 -2 -51.5 -12t-63.5 -21t-63 -20t-49 -9q-26 0 -37 9.5t-11 23.5q0 13 3.5 34.5t19 46t30 32.5t29.5 8q10 0 27 5t36.5 11t40 11.5t36.5 7.5q-5 7 -12.5 20.5t-18.5 32.5t-20 53
q-7 22 -7 50q0 17 3 37q5 52 42.5 104t88 77t86.5 25zM378 -133l110 -70l-60 -105l-111 70z" />
    <glyph glyph-name="uniFCA4" unicode="&#xfe97;&#xfee4;" horiz-adv-x="425" arabic-form="initial" 
d="M336 588q17 0 33.5 -5.5t29.5 -15t21 -21.5t8 -25t-5 -42.5t-12 -41.5t-14.5 -20t-13.5 -8q-5 0 -11.5 8.5t-15.5 18t-21 18t-27 8.5q-17 0 -54 -14.5t-57 -52.5q-11 -20 -11 -42q0 -23 11 -49q21 -53 96 -96q25 -7 50.5 -16t46.5 -22t28 -30.5t7 -80.5q0 -11 -4.5 -28
t-11 -33.5t-13.5 -28.5t-11 -12q-17 0 -39.5 10.5t-45.5 26.5t-43 34.5t-30 33.5q-21 -2 -51.5 -12t-63.5 -21t-63 -20t-49 -9q-26 0 -37 9.5t-11 23.5q0 13 3.5 34.5t19 46t30 32.5t29.5 8q10 0 27 5t36.5 11t40 11.5t36.5 7.5q-5 7 -12.5 20.5t-18.5 32.5t-20 53
q-7 22 -7 50q0 17 3 37q5 52 42.5 104t88 77t86.5 25zM155 841l110 -70l-60 -105l-111 70zM321 864l110 -70l-60 -105l-111 70z" />
    <glyph glyph-name="uniFCA6" unicode="&#xfe9b;&#xfee4;" horiz-adv-x="425" arabic-form="initial" 
d="M336 588q17 0 33.5 -5.5t29.5 -15t21 -21.5t8 -25t-5 -42.5t-12 -41.5t-14.5 -20t-13.5 -8q-5 0 -11.5 8.5t-15.5 18t-21 18t-27 8.5q-17 0 -54 -14.5t-57 -52.5q-11 -20 -11 -42q0 -23 11 -49q21 -53 96 -96q25 -7 50.5 -16t46.5 -22t28 -30.5t7 -80.5q0 -11 -4.5 -28
t-11 -33.5t-13.5 -28.5t-11 -12q-17 0 -39.5 10.5t-45.5 26.5t-43 34.5t-30 33.5q-21 -2 -51.5 -12t-63.5 -21t-63 -20t-49 -9q-26 0 -37 9.5t-11 23.5q0 13 3.5 34.5t19 46t30 32.5t29.5 8q10 0 27 5t36.5 11t40 11.5t36.5 7.5q-5 7 -12.5 20.5t-18.5 32.5t-20 53
q-7 22 -7 50q0 17 3 37q5 52 42.5 104t88 77t86.5 25zM159 838l110 -70l-60 -105l-111 70zM325 861l110 -70l-60 -105l-111 70zM204 1011l110 -70l-60 -105l-111 70z" />
    <glyph glyph-name="uniFCD5" unicode="&#xfee7;&#xfee4;" horiz-adv-x="425" arabic-form="initial" 
d="M336 588q17 0 33.5 -5.5t29.5 -15t21 -21.5t8 -25t-5 -42.5t-12 -41.5t-14.5 -20t-13.5 -8q-5 0 -11.5 8.5t-15.5 18t-21 18t-27 8.5q-17 0 -54 -14.5t-57 -52.5q-11 -20 -11 -42q0 -23 11 -49q21 -53 96 -96q25 -7 50.5 -16t46.5 -22t28 -30.5t7 -80.5q0 -11 -4.5 -28
t-11 -33.5t-13.5 -28.5t-11 -12q-17 0 -39.5 10.5t-45.5 26.5t-43 34.5t-30 33.5q-21 -2 -51.5 -12t-63.5 -21t-63 -20t-49 -9q-26 0 -37 9.5t-11 23.5q0 13 3.5 34.5t19 46t30 32.5t29.5 8q10 0 27 5t36.5 11t40 11.5t36.5 7.5q-5 7 -12.5 20.5t-18.5 32.5t-20 53
q-7 22 -7 50q0 17 3 37q5 52 42.5 104t88 77t86.5 25zM267 873l110 -70l-60 -105l-111 70z" />
    <glyph glyph-name="uniFCDD" unicode="&#xfbfe;&#xfee4;" horiz-adv-x="481" arabic-form="initial" 
d="M336 588q17 0 33.5 -5.5t29.5 -15t21 -21.5t8 -25t-5 -42.5t-12 -41.5t-14.5 -20t-13.5 -8q-5 0 -11.5 8.5t-15.5 18t-21 18t-27 8.5q-17 0 -54 -14.5t-57 -52.5q-11 -20 -11 -42q0 -23 11 -49q21 -53 96 -96q25 -7 50.5 -16t46.5 -22t28 -30.5t7 -80.5q0 -11 -4.5 -28
t-11 -33.5t-13.5 -28.5t-11 -12q-17 0 -39.5 10.5t-45.5 26.5t-43 34.5t-30 33.5q-21 -2 -51.5 -12t-63.5 -21t-63 -20t-49 -9q-26 0 -37 9.5t-11 23.5q0 13 3.5 34.5t19 46t30 32.5t29.5 8q10 0 27 5t36.5 11t40 11.5t36.5 7.5q-5 7 -12.5 20.5t-18.5 32.5t-20 53
q-7 22 -7 50q0 17 3 37q5 52 42.5 104t88 77t86.5 25zM261 -146l110 -70l-60 -105l-111 70zM427 -123l110 -70l-60 -105l-111 70z" />
    <glyph glyph-name="uni06790645.init" unicode="&#xfb68;&#xfee4;" horiz-adv-x="425" 
d="M336 588q17 0 33.5 -5.5t29.5 -15t21 -21.5t8 -25t-5 -42.5t-12 -41.5t-14.5 -20t-13.5 -8q-5 0 -11.5 8.5t-15.5 18t-21 18t-27 8.5q-17 0 -54 -14.5t-57 -52.5q-11 -20 -11 -42q0 -23 11 -49q21 -53 96 -96q25 -7 50.5 -16t46.5 -22t28 -30.5t7 -80.5q0 -11 -4.5 -28
t-11 -33.5t-13.5 -28.5t-11 -12q-17 0 -39.5 10.5t-45.5 26.5t-43 34.5t-30 33.5q-21 -2 -51.5 -12t-63.5 -21t-63 -20t-49 -9q-26 0 -37 9.5t-11 23.5q0 13 3.5 34.5t19 46t30 32.5t29.5 8q10 0 27 5t36.5 11t40 11.5t36.5 7.5q-5 7 -12.5 20.5t-18.5 32.5t-20 53
q-7 22 -7 50q0 17 3 37q5 52 42.5 104t88 77t86.5 25zM247 928q0 -15 2 -25t6 -29.5t7 -40t3 -38.5q0 -6 -1 -13l-3 -21q12 12 27 23.5l30 23t35 21t35 9.5q11 0 19.5 -6t16 -13.5t14.5 -21.5t7 -23q0 -8 -2 -15t-7.5 -19.5t-14 -24.5t-17.5 -22q-20 -18 -35.5 -25
t-39 -10.5t-52 -5.5t-88.5 -2q-7 0 -32 11.5t-55 30.5l1 14h84q4 0 8 1q11 8 15.5 12t15.5 14q4 16 4 25q0 10 -4.5 35t-9.5 52t-8.5 48t-3.5 36q0 7 -7 14l-2 10q0 10 9.5 26t20.5 32q5 -12 15 -27t24 -25q-1 -8 -6 -18t-11 -13zM410 737q-10 20 -20 30t-23 10
q-24 0 -52.5 -19.5t-69.5 -49.5q3 1 11 1h11q54 0 85 4t58 24z" />
    <glyph glyph-name="uni067A0645.init" unicode="&#xfb60;&#xfee4;" horiz-adv-x="425" 
d="M336 588q17 0 33.5 -5.5t29.5 -15t21 -21.5t8 -25t-5 -42.5t-12 -41.5t-14.5 -20t-13.5 -8q-5 0 -11.5 8.5t-15.5 18t-21 18t-27 8.5q-17 0 -54 -14.5t-57 -52.5q-11 -20 -11 -42q0 -23 11 -49q21 -53 96 -96q25 -7 50.5 -16t46.5 -22t28 -30.5t7 -80.5q0 -11 -4.5 -28
t-11 -33.5t-13.5 -28.5t-11 -12q-17 0 -39.5 10.5t-45.5 26.5t-43 34.5t-30 33.5q-21 -2 -51.5 -12t-63.5 -21t-63 -20t-49 -9q-26 0 -37 9.5t-11 23.5q0 13 3.5 34.5t19 46t30 32.5t29.5 8q10 0 27 5t36.5 11t40 11.5t36.5 7.5q-5 7 -12.5 20.5t-18.5 32.5t-20 53
q-7 22 -7 50q0 17 3 37q5 52 42.5 104t88 77t86.5 25zM252 1053l110 -70l-60 -105l-111 70zM272 870l110 -70l-60 -105l-111 70z" />
    <glyph glyph-name="uni067F0645.init" unicode="&#xfb64;&#xfee4;" horiz-adv-x="425" 
d="M336 588q17 0 33.5 -5.5t29.5 -15t21 -21.5t8 -25t-5 -42.5t-12 -41.5t-14.5 -20t-13.5 -8q-5 0 -11.5 8.5t-15.5 18t-21 18t-27 8.5q-17 0 -54 -14.5t-57 -52.5q-11 -20 -11 -42q0 -23 11 -49q21 -53 96 -96q25 -7 50.5 -16t46.5 -22t28 -30.5t7 -80.5q0 -11 -4.5 -28
t-11 -33.5t-13.5 -28.5t-11 -12q-17 0 -39.5 10.5t-45.5 26.5t-43 34.5t-30 33.5q-21 -2 -51.5 -12t-63.5 -21t-63 -20t-49 -9q-26 0 -37 9.5t-11 23.5q0 13 3.5 34.5t19 46t30 32.5t29.5 8q10 0 27 5t36.5 11t40 11.5t36.5 7.5q-5 7 -12.5 20.5t-18.5 32.5t-20 53
q-7 22 -7 50q0 17 3 37q5 52 42.5 104t88 77t86.5 25zM128 1034l110 -70l-60 -105l-111 70zM148 851l110 -70l-60 -105l-111 70zM295 1056l110 -70l-60 -105l-111 70zM315 873l110 -70l-60 -105l-111 70z" />
    <glyph glyph-name="uniFCDF" unicode="&#xfe8c;&#xfee4;" horiz-adv-x="518" arabic-form="medial" 
d="M518 312q-28 0 -60 13.5t-63 52.5q-48 65 -80 73q-14 3 -26 3q-16 0 -29 -5q-24 -11 -40 -29t-23 -54q-2 -10 -2 -19q0 -27 16 -54q22 -36 68 -63t87.5 -47t52.5 -46q9 -21 9 -46v-11q-3 -32 -7.5 -49t-11 -33.5t-13 -28.5t-10.5 -12q-17 0 -40.5 11t-47 27t-44 34
t-30.5 33q-21 -2 -51 -12t-62.5 -21t-62 -20t-48.5 -9q-26 0 -37 9.5t-11 23.5q0 46 20 76.5t62 44.5q10 3 27.5 8.5t37 10.5t39.5 9.5t36 6.5q-5 7 -12.5 20.5t-15 31t-13 37t-5.5 38.5v15q0 70 32 130q36 67 89 93.5t89 26.5q34 0 52.5 -6.5t34 -20.5t31.5 -35.5
t36.5 -34.5t36.5 -15.5t23 -2.5zM335 963q24 -1 32 -14.5t8 -27.5q0 -31 -8 -72h-14q-21 17 -34 19t-21 2t-20.5 -5.5t-24 -13t-19.5 -16.5t-8 -16q0 -11 16 -18t40 -11.5t60 -7.5l102 54l7 -10l-20 -88l-236 -117v46l53 43q-23 10 -36.5 18t-25 20t-11.5 27q0 32 16 66
t40 60t52 44t52 18z" />
    <glyph glyph-name="uniFCE1" unicode="&#xfe92;&#xfee4;" horiz-adv-x="518" arabic-form="medial" 
d="M518 312q-28 0 -60 13.5t-63 52.5q-48 65 -80 73q-14 3 -26 3q-16 0 -29 -5q-24 -11 -40 -29t-23 -54q-2 -10 -2 -19q0 -27 16 -54q22 -36 68 -63t87.5 -47t52.5 -46q9 -21 9 -46v-11q-3 -32 -7.5 -49t-11 -33.5t-13 -28.5t-10.5 -12q-17 0 -40.5 11t-47 27t-44 34
t-30.5 33q-21 -2 -51 -12t-62.5 -21t-62 -20t-48.5 -9q-26 0 -37 9.5t-11 23.5q0 46 20 76.5t62 44.5q10 3 27.5 8.5t37 10.5t39.5 9.5t36 6.5q-5 7 -12.5 20.5t-15 31t-13 37t-5.5 38.5v15q0 70 32 130q36 67 89 93.5t89 26.5q34 0 52.5 -6.5t34 -20.5t31.5 -35.5
t36.5 -34.5t36.5 -15.5t23 -2.5zM388 -94l110 -70l-60 -105l-111 70z" />
    <glyph glyph-name="uniFCE3" unicode="&#xfe98;&#xfee4;" horiz-adv-x="518" arabic-form="medial" 
d="M518 312q-28 0 -60 13.5t-63 52.5q-48 65 -80 73q-14 3 -26 3q-16 0 -29 -5q-24 -11 -40 -29t-23 -54q-2 -10 -2 -19q0 -27 16 -54q22 -36 68 -63t87.5 -47t52.5 -46q9 -21 9 -46v-11q-3 -32 -7.5 -49t-11 -33.5t-13 -28.5t-10.5 -12q-17 0 -40.5 11t-47 27t-44 34
t-30.5 33q-21 -2 -51 -12t-62.5 -21t-62 -20t-48.5 -9q-26 0 -37 9.5t-11 23.5q0 46 20 76.5t62 44.5q10 3 27.5 8.5t37 10.5t39.5 9.5t36 6.5q-5 7 -12.5 20.5t-15 31t-13 37t-5.5 38.5v15q0 70 32 130q36 67 89 93.5t89 26.5q34 0 52.5 -6.5t34 -20.5t31.5 -35.5
t36.5 -34.5t36.5 -15.5t23 -2.5zM188 828l110 -70l-60 -105l-111 70zM354 851l110 -70l-60 -105l-111 70z" />
    <glyph glyph-name="uniFCE5" unicode="&#xfe9c;&#xfee4;" horiz-adv-x="518" arabic-form="medial" 
d="M518 312q-28 0 -60 13.5t-63 52.5q-48 65 -80 73q-14 3 -26 3q-16 0 -29 -5q-24 -11 -40 -29t-23 -54q-2 -10 -2 -19q0 -27 16 -54q22 -36 68 -63t87.5 -47t52.5 -46q9 -21 9 -46v-11q-3 -32 -7.5 -49t-11 -33.5t-13 -28.5t-10.5 -12q-17 0 -40.5 11t-47 27t-44 34
t-30.5 33q-21 -2 -51 -12t-62.5 -21t-62 -20t-48.5 -9q-26 0 -37 9.5t-11 23.5q0 46 20 76.5t62 44.5q10 3 27.5 8.5t37 10.5t39.5 9.5t36 6.5q-5 7 -12.5 20.5t-15 31t-13 37t-5.5 38.5v15q0 70 32 130q36 67 89 93.5t89 26.5q34 0 52.5 -6.5t34 -20.5t31.5 -35.5
t36.5 -34.5t36.5 -15.5t23 -2.5zM189 826l110 -70l-60 -105l-111 70zM355 849l110 -70l-60 -105l-111 70zM234 999l110 -70l-60 -105l-111 70z" />
    <glyph glyph-name="uniFCEE" unicode="&#xfee8;&#xfee4;" horiz-adv-x="518" arabic-form="medial" 
d="M518 312q-28 0 -60 13.5t-63 52.5q-48 65 -80 73q-14 3 -26 3q-16 0 -29 -5q-24 -11 -40 -29t-23 -54q-2 -10 -2 -19q0 -27 16 -54q22 -36 68 -63t87.5 -47t52.5 -46q9 -21 9 -46v-11q-3 -32 -7.5 -49t-11 -33.5t-13 -28.5t-10.5 -12q-17 0 -40.5 11t-47 27t-44 34
t-30.5 33q-21 -2 -51 -12t-62.5 -21t-62 -20t-48.5 -9q-26 0 -37 9.5t-11 23.5q0 46 20 76.5t62 44.5q10 3 27.5 8.5t37 10.5t39.5 9.5t36 6.5q-5 7 -12.5 20.5t-15 31t-13 37t-5.5 38.5v15q0 70 32 130q36 67 89 93.5t89 26.5q34 0 52.5 -6.5t34 -20.5t31.5 -35.5
t36.5 -34.5t36.5 -15.5t23 -2.5zM264 851l110 -70l-60 -105l-111 70z" />
    <glyph glyph-name="uniFCF0" unicode="&#xfbff;&#xfee4;" horiz-adv-x="518" arabic-form="medial" 
d="M518 312q-28 0 -60 13.5t-63 52.5q-48 65 -80 73q-14 3 -26 3q-16 0 -29 -5q-24 -11 -40 -29t-23 -54q-2 -10 -2 -19q0 -27 16 -54q22 -36 68 -63t87.5 -47t52.5 -46q9 -21 9 -46v-11q-3 -32 -7.5 -49t-11 -33.5t-13 -28.5t-10.5 -12q-17 0 -40.5 11t-47 27t-44 34
t-30.5 33q-21 -2 -51 -12t-62.5 -21t-62 -20t-48.5 -9q-26 0 -37 9.5t-11 23.5q0 46 20 76.5t62 44.5q10 3 27.5 8.5t37 10.5t39.5 9.5t36 6.5q-5 7 -12.5 20.5t-15 31t-13 37t-5.5 38.5v15q0 70 32 130q36 67 89 93.5t89 26.5q34 0 52.5 -6.5t34 -20.5t31.5 -35.5
t36.5 -34.5t36.5 -15.5t23 -2.5zM306 -93l110 -70l-60 -105l-111 70zM472 -70l110 -70l-60 -105l-111 70z" />
    <glyph glyph-name="uni06790645.medi" unicode="&#xfb69;&#xfee4;" horiz-adv-x="518" 
d="M518 312q-28 0 -60 13.5t-63 52.5q-48 65 -80 73q-14 3 -26 3q-16 0 -29 -5q-24 -11 -40 -29t-23 -54q-2 -10 -2 -19q0 -27 16 -54q22 -36 68 -63t87.5 -47t52.5 -46q9 -21 9 -46v-11q-3 -32 -7.5 -49t-11 -33.5t-13 -28.5t-10.5 -12q-17 0 -40.5 11t-47 27t-44 34
t-30.5 33q-21 -2 -51 -12t-62.5 -21t-62 -20t-48.5 -9q-26 0 -37 9.5t-11 23.5q0 46 20 76.5t62 44.5q10 3 27.5 8.5t37 10.5t39.5 9.5t36 6.5q-5 7 -12.5 20.5t-15 31t-13 37t-5.5 38.5v15q0 70 32 130q36 67 89 93.5t89 26.5q34 0 52.5 -6.5t34 -20.5t31.5 -35.5
t36.5 -34.5t36.5 -15.5t23 -2.5zM273 931q0 -15 2 -25t6 -29.5t7 -40t3 -38.5q0 -6 -1 -13l-3 -21q12 12 27 23.5l30 23t35 21t35 9.5q11 0 19.5 -6t16 -13.5t14.5 -21.5t7 -23q0 -8 -2 -15t-7.5 -19.5t-14 -24.5t-17.5 -22q-20 -18 -35.5 -25t-39 -10.5t-52 -5.5t-88.5 -2
q-7 0 -32 11.5t-55 30.5l1 14h84q4 0 8 1q11 8 15.5 12t15.5 14q4 16 4 25q0 10 -4.5 35t-9.5 52t-8.5 48t-3.5 36q0 7 -7 14l-2 10q0 10 9.5 26t20.5 32q5 -12 15 -27t24 -25q-1 -8 -6 -18t-11 -13zM436 740q-10 20 -20 30t-23 10q-24 0 -52.5 -19.5t-69.5 -49.5q3 1 11 1
h11q54 0 85 4t58 24z" />
    <glyph glyph-name="uni067A0645.medi" unicode="&#xfb61;&#xfee4;" horiz-adv-x="518" 
d="M518 312q-28 0 -60 13.5t-63 52.5q-48 65 -80 73q-14 3 -26 3q-16 0 -29 -5q-24 -11 -40 -29t-23 -54q-2 -10 -2 -19q0 -27 16 -54q22 -36 68 -63t87.5 -47t52.5 -46q9 -21 9 -46v-11q-3 -32 -7.5 -49t-11 -33.5t-13 -28.5t-10.5 -12q-17 0 -40.5 11t-47 27t-44 34
t-30.5 33q-21 -2 -51 -12t-62.5 -21t-62 -20t-48.5 -9q-26 0 -37 9.5t-11 23.5q0 46 20 76.5t62 44.5q10 3 27.5 8.5t37 10.5t39.5 9.5t36 6.5q-5 7 -12.5 20.5t-15 31t-13 37t-5.5 38.5v15q0 70 32 130q36 67 89 93.5t89 26.5q34 0 52.5 -6.5t34 -20.5t31.5 -35.5
t36.5 -34.5t36.5 -15.5t23 -2.5zM257 1044l110 -70l-60 -105l-111 70zM277 861l110 -70l-60 -105l-111 70z" />
    <glyph glyph-name="uni067F0645.medi" unicode="&#xfb65;&#xfee4;" horiz-adv-x="518" 
d="M518 312q-28 0 -60 13.5t-63 52.5q-48 65 -80 73q-14 3 -26 3q-16 0 -29 -5q-24 -11 -40 -29t-23 -54q-2 -10 -2 -19q0 -27 16 -54q22 -36 68 -63t87.5 -47t52.5 -46q9 -21 9 -46v-11q-3 -32 -7.5 -49t-11 -33.5t-13 -28.5t-10.5 -12q-17 0 -40.5 11t-47 27t-44 34
t-30.5 33q-21 -2 -51 -12t-62.5 -21t-62 -20t-48.5 -9q-26 0 -37 9.5t-11 23.5q0 46 20 76.5t62 44.5q10 3 27.5 8.5t37 10.5t39.5 9.5t36 6.5q-5 7 -12.5 20.5t-15 31t-13 37t-5.5 38.5v15q0 70 32 130q36 67 89 93.5t89 26.5q34 0 52.5 -6.5t34 -20.5t31.5 -35.5
t36.5 -34.5t36.5 -15.5t23 -2.5zM156 1023l110 -70l-60 -105l-111 70zM176 840l110 -70l-60 -105l-111 70zM323 1045l110 -70l-60 -105l-111 70zM343 862l110 -70l-60 -105l-111 70z" />
    <glyph glyph-name="uniFC9B" unicode="&#xfe8b;&#xfeec;" horiz-adv-x="654" arabic-form="initial" 
d="M255 330l21 -16q-8 -72 -21.5 -121t-34 -93t-26 -61t-10 -39.5t-4.5 -54.5t8 -66.5t19 -60t22 -40t17 -14.5q-5 42 -5 81q0 49 9 93q15 76 51.5 138t84 99.5t84.5 50.5t77 13q24 0 47.5 -8.5t45.5 -27.5q13 -10 13 -20q-6 -67 -13 -102.5t-18 -59.5q-5 0 -6 3.5
t-29.5 34.5t-78.5 34q-74 -5 -121.5 -49.5t-65.5 -95.5t-21 -86q-2 -15 -2 -29q0 -21 3 -40q5 -34 18 -57.5t34 -45.5q-9 -78 -33 -131q-38 10 -64.5 34.5t-51 64t-46 97.5t-24.5 123q-1 9 -1 19q0 59 17 141q-37 -19 -60 -25.5t-46.5 -9.5t-43.5 -3q-22 0 -35 16t-13 38
q0 10 7 36t18 39.5t26 19t31 5.5q10 0 32.5 3.5t49.5 13t54.5 26.5t45.5 47t39 86zM537 747q24 -1 32 -14.5t8 -27.5q0 -31 -8 -72h-14q-21 17 -34 19t-21 2t-20.5 -5.5t-24 -13t-19.5 -16.5t-8 -16q0 -11 16 -18t40 -11.5t60 -7.5l102 54l7 -10l-20 -88l-236 -117v46l53 43
q-23 10 -36.5 18t-25 20t-11.5 27q0 32 16 66t40 60t52 44t52 18z" />
    <glyph glyph-name="uniFC9B.alt" unicode="&#xfe8b;&#xfeec;" horiz-adv-x="678" 
d="M724 787l-46 -140q-113 -32 -195 -64t-107.5 -54t-25.5 -30q0 -6 15 -30.5t47.5 -46t74.5 -37.5q13 -5 26.5 -9.5t24 -13.5t17 -24.5t6.5 -43.5v-6q0 -40 -12 -88q-13 -52 -35.5 -87t-45.5 -54q-6 -6 -26.5 -12.5t-47 -11t-55 -7.5t-50.5 -3q-36 0 -75.5 2t-73.5 11
q-38 -20 -74 -29t-66 -9q-16 2 -25.5 6.5t-17.5 15t-8 30.5q0 26 24.5 63t60.5 39q8 0 13 0.5t10 1.5v6q0 32 9.5 70t26.5 76t39 74t47 64t51 44.5t51 16.5h21q6 20 20.5 44t28.5 40q28 30 75 60t100 57t105 48t93 31zM244 354q-14 0 -36 -11t-42.5 -27.5t-35.5 -35.5
t-15 -34q0 -10 9.5 -19.5t22.5 -18t25 -13.5t18 -5q9 0 25 7.5t31.5 20t26.5 29.5t11 35q0 17 -4.5 30.5t-10.5 22.5t-13 14t-12 5zM339 330q-2 -16 -6.5 -39t-10.5 -41q-5 -19 -14.5 -38t-16.5 -32q39 0 75.5 4.5t65 11t45 13.5t16.5 12q0 12 -24 31.5t-66 31.5
q-10 3 -19 8.5t-17.5 12t-15.5 13.5zM567 1109q24 -1 32 -14.5t8 -27.5q0 -31 -8 -72h-14q-21 17 -34 19t-21 2t-20.5 -5.5t-24 -13t-19.5 -16.5t-8 -16q0 -11 16 -18t40 -11.5t60 -7.5l102 54l7 -10l-20 -88l-236 -117v46l53 43q-23 10 -36.5 18t-25 20t-11.5 27
q0 32 16 66t40 60t52 44t52 18z" />
    <glyph glyph-name="uniFCA0" unicode="&#xfe91;&#xfeec;" horiz-adv-x="654" arabic-form="initial" 
d="M255 330l21 -16q-8 -72 -21.5 -121t-34 -93t-26 -61t-10 -39.5t-4.5 -54.5t8 -66.5t19 -60t22 -40t17 -14.5q-5 42 -5 81q0 49 9 93q15 76 51.5 138t84 99.5t84.5 50.5t77 13q24 0 47.5 -8.5t45.5 -27.5q13 -10 13 -20q-6 -67 -13 -102.5t-18 -59.5q-5 0 -6 3.5
t-29.5 34.5t-78.5 34q-74 -5 -121.5 -49.5t-65.5 -95.5t-21 -86q-2 -15 -2 -29q0 -21 3 -40q5 -34 18 -57.5t34 -45.5q-9 -78 -33 -131q-38 10 -64.5 34.5t-51 64t-46 97.5t-24.5 123q-1 9 -1 19q0 59 17 141q-37 -19 -60 -25.5t-46.5 -9.5t-43.5 -3q-22 0 -35 16t-13 38
q0 10 7 36t18 39.5t26 19t31 5.5q10 0 32.5 3.5t49.5 13t54.5 26.5t45.5 47t39 86zM498 -133l110 -70l-60 -105l-111 70z" />
    <glyph glyph-name="uniFCA0.alt" unicode="&#xfe91;&#xfeec;" horiz-adv-x="721" 
d="M724 787l-46 -140q-113 -32 -195 -64t-107.5 -54t-25.5 -30q0 -6 15 -30.5t47.5 -46t74.5 -37.5q13 -5 26.5 -9.5t24 -13.5t17 -24.5t6.5 -43.5v-6q0 -40 -12 -88q-13 -52 -35.5 -87t-45.5 -54q-6 -6 -26.5 -12.5t-47 -11t-55 -7.5t-50.5 -3q-36 0 -75.5 2t-73.5 11
q-38 -20 -74 -29t-66 -9q-16 2 -25.5 6.5t-17.5 15t-8 30.5q0 26 24.5 63t60.5 39q8 0 13 0.5t10 1.5v6q0 32 9.5 70t26.5 76t39 74t47 64t51 44.5t51 16.5h21q6 20 20.5 44t28.5 40q28 30 75 60t100 57t105 48t93 31zM244 354q-14 0 -36 -11t-42.5 -27.5t-35.5 -35.5
t-15 -34q0 -10 9.5 -19.5t22.5 -18t25 -13.5t18 -5q9 0 25 7.5t31.5 20t26.5 29.5t11 35q0 17 -4.5 30.5t-10.5 22.5t-13 14t-12 5zM339 330q-2 -16 -6.5 -39t-10.5 -41q-5 -19 -14.5 -38t-16.5 -32q39 0 75.5 4.5t65 11t45 13.5t16.5 12q0 12 -24 31.5t-66 31.5
q-10 3 -19 8.5t-17.5 12t-15.5 13.5zM622 492l110 -70l-60 -105l-111 70z" />
    <glyph glyph-name="uniFCA5" unicode="&#xfe97;&#xfeec;" horiz-adv-x="657" arabic-form="initial" 
d="M255 330l21 -16q-8 -72 -21.5 -121t-34 -93t-26 -61t-10 -39.5t-4.5 -54.5t8 -66.5t19 -60t22 -40t17 -14.5q-5 42 -5 81q0 49 9 93q15 76 51.5 138t84 99.5t84.5 50.5t77 13q24 0 47.5 -8.5t45.5 -27.5q13 -10 13 -20q-6 -67 -13 -102.5t-18 -59.5q-5 0 -6 3.5
t-29.5 34.5t-78.5 34q-74 -5 -121.5 -49.5t-65.5 -95.5t-21 -86q-2 -15 -2 -29q0 -21 3 -40q5 -34 18 -57.5t34 -45.5q-9 -78 -33 -131q-38 10 -64.5 34.5t-51 64t-46 97.5t-24.5 123q-1 9 -1 19q0 59 17 141q-37 -19 -60 -25.5t-46.5 -9.5t-43.5 -3q-22 0 -35 16t-13 38
q0 10 7 36t18 39.5t26 19t31 5.5q10 0 32.5 3.5t49.5 13t54.5 26.5t45.5 47t39 86zM380 536l110 -70l-60 -105l-111 70zM546 559l110 -70l-60 -105l-111 70z" />
    <glyph glyph-name="uniFCA5.alt" unicode="&#xfe97;&#xfeec;" horiz-adv-x="725" 
d="M724 787l-46 -140q-113 -32 -195 -64t-107.5 -54t-25.5 -30q0 -6 15 -30.5t47.5 -46t74.5 -37.5q13 -5 26.5 -9.5t24 -13.5t17 -24.5t6.5 -43.5v-6q0 -40 -12 -88q-13 -52 -35.5 -87t-45.5 -54q-6 -6 -26.5 -12.5t-47 -11t-55 -7.5t-50.5 -3q-36 0 -75.5 2t-73.5 11
q-38 -20 -74 -29t-66 -9q-16 2 -25.5 6.5t-17.5 15t-8 30.5q0 26 24.5 63t60.5 39q8 0 13 0.5t10 1.5v6q0 32 9.5 70t26.5 76t39 74t47 64t51 44.5t51 16.5h21q6 20 20.5 44t28.5 40q28 30 75 60t100 57t105 48t93 31zM244 354q-14 0 -36 -11t-42.5 -27.5t-35.5 -35.5
t-15 -34q0 -10 9.5 -19.5t22.5 -18t25 -13.5t18 -5q9 0 25 7.5t31.5 20t26.5 29.5t11 35q0 17 -4.5 30.5t-10.5 22.5t-13 14t-12 5zM339 330q-2 -16 -6.5 -39t-10.5 -41q-5 -19 -14.5 -38t-16.5 -32q39 0 75.5 4.5t65 11t45 13.5t16.5 12q0 12 -24 31.5t-66 31.5
q-10 3 -19 8.5t-17.5 12t-15.5 13.5zM453 992l110 -70l-60 -105l-111 70zM619 1015l110 -70l-60 -105l-111 70z" />
    <glyph glyph-name="uni062B0647.init" unicode="&#xfe9b;&#xfeec;" horiz-adv-x="654" 
d="M255 330l21 -16q-8 -72 -21.5 -121t-34 -93t-26 -61t-10 -39.5t-4.5 -54.5t8 -66.5t19 -60t22 -40t17 -14.5q-5 42 -5 81q0 49 9 93q15 76 51.5 138t84 99.5t84.5 50.5t77 13q24 0 47.5 -8.5t45.5 -27.5q13 -10 13 -20q-6 -67 -13 -102.5t-18 -59.5q-5 0 -6 3.5
t-29.5 34.5t-78.5 34q-74 -5 -121.5 -49.5t-65.5 -95.5t-21 -86q-2 -15 -2 -29q0 -21 3 -40q5 -34 18 -57.5t34 -45.5q-9 -78 -33 -131q-38 10 -64.5 34.5t-51 64t-46 97.5t-24.5 123q-1 9 -1 19q0 59 17 141q-37 -19 -60 -25.5t-46.5 -9.5t-43.5 -3q-22 0 -35 16t-13 38
q0 10 7 36t18 39.5t26 19t31 5.5q10 0 32.5 3.5t49.5 13t54.5 26.5t45.5 47t39 86zM378 530l110 -70l-60 -105l-111 70zM544 553l110 -70l-60 -105l-111 70zM423 703l110 -70l-60 -105l-111 70z" />
    <glyph glyph-name="uni062B0647.initalt" unicode="&#xfe9b;&#xfeec;" horiz-adv-x="725" 
d="M724 787l-46 -140q-113 -32 -195 -64t-107.5 -54t-25.5 -30q0 -6 15 -30.5t47.5 -46t74.5 -37.5q13 -5 26.5 -9.5t24 -13.5t17 -24.5t6.5 -43.5v-6q0 -40 -12 -88q-13 -52 -35.5 -87t-45.5 -54q-6 -6 -26.5 -12.5t-47 -11t-55 -7.5t-50.5 -3q-36 0 -75.5 2t-73.5 11
q-38 -20 -74 -29t-66 -9q-16 2 -25.5 6.5t-17.5 15t-8 30.5q0 26 24.5 63t60.5 39q8 0 13 0.5t10 1.5v6q0 32 9.5 70t26.5 76t39 74t47 64t51 44.5t51 16.5h21q6 20 20.5 44t28.5 40q28 30 75 60t100 57t105 48t93 31zM244 354q-14 0 -36 -11t-42.5 -27.5t-35.5 -35.5
t-15 -34q0 -10 9.5 -19.5t22.5 -18t25 -13.5t18 -5q9 0 25 7.5t31.5 20t26.5 29.5t11 35q0 17 -4.5 30.5t-10.5 22.5t-13 14t-12 5zM339 330q-2 -16 -6.5 -39t-10.5 -41q-5 -19 -14.5 -38t-16.5 -32q39 0 75.5 4.5t65 11t45 13.5t16.5 12q0 12 -24 31.5t-66 31.5
q-10 3 -19 8.5t-17.5 12t-15.5 13.5zM458 991l110 -70l-60 -105l-111 70zM624 1014l110 -70l-60 -105l-111 70zM503 1164l110 -70l-60 -105l-111 70z" />
    <glyph glyph-name="uniFCD6" unicode="&#xfee7;&#xfeec;" horiz-adv-x="654" arabic-form="initial" 
d="M255 330l21 -16q-8 -72 -21.5 -121t-34 -93t-26 -61t-10 -39.5t-4.5 -54.5t8 -66.5t19 -60t22 -40t17 -14.5q-5 42 -5 81q0 49 9 93q15 76 51.5 138t84 99.5t84.5 50.5t77 13q24 0 47.5 -8.5t45.5 -27.5q13 -10 13 -20q-6 -67 -13 -102.5t-18 -59.5q-5 0 -6 3.5
t-29.5 34.5t-78.5 34q-74 -5 -121.5 -49.5t-65.5 -95.5t-21 -86q-2 -15 -2 -29q0 -21 3 -40q5 -34 18 -57.5t34 -45.5q-9 -78 -33 -131q-38 10 -64.5 34.5t-51 64t-46 97.5t-24.5 123q-1 9 -1 19q0 59 17 141q-37 -19 -60 -25.5t-46.5 -9.5t-43.5 -3q-22 0 -35 16t-13 38
q0 10 7 36t18 39.5t26 19t31 5.5q10 0 32.5 3.5t49.5 13t54.5 26.5t45.5 47t39 86zM518 543l110 -70l-60 -105l-111 70z" />
    <glyph glyph-name="uniFCD6.alt" unicode="&#xfee7;&#xfeec;" horiz-adv-x="725" 
d="M724 787l-46 -140q-113 -32 -195 -64t-107.5 -54t-25.5 -30q0 -6 15 -30.5t47.5 -46t74.5 -37.5q13 -5 26.5 -9.5t24 -13.5t17 -24.5t6.5 -43.5v-6q0 -40 -12 -88q-13 -52 -35.5 -87t-45.5 -54q-6 -6 -26.5 -12.5t-47 -11t-55 -7.5t-50.5 -3q-36 0 -75.5 2t-73.5 11
q-38 -20 -74 -29t-66 -9q-16 2 -25.5 6.5t-17.5 15t-8 30.5q0 26 24.5 63t60.5 39q8 0 13 0.5t10 1.5v6q0 32 9.5 70t26.5 76t39 74t47 64t51 44.5t51 16.5h21q6 20 20.5 44t28.5 40q28 30 75 60t100 57t105 48t93 31zM244 354q-14 0 -36 -11t-42.5 -27.5t-35.5 -35.5
t-15 -34q0 -10 9.5 -19.5t22.5 -18t25 -13.5t18 -5q9 0 25 7.5t31.5 20t26.5 29.5t11 35q0 17 -4.5 30.5t-10.5 22.5t-13 14t-12 5zM339 330q-2 -16 -6.5 -39t-10.5 -41q-5 -19 -14.5 -38t-16.5 -32q39 0 75.5 4.5t65 11t45 13.5t16.5 12q0 12 -24 31.5t-66 31.5
q-10 3 -19 8.5t-17.5 12t-15.5 13.5zM558 997l110 -70l-60 -105l-111 70z" />
    <glyph glyph-name="uniFCDE" unicode="&#xfbfe;&#xfeec;" horiz-adv-x="665" arabic-form="initial" 
d="M255 330l21 -16q-8 -72 -21.5 -121t-34 -93t-26 -61t-10 -39.5t-4.5 -54.5t8 -66.5t19 -60t22 -40t17 -14.5q-5 42 -5 81q0 49 9 93q15 76 51.5 138t84 99.5t84.5 50.5t77 13q24 0 47.5 -8.5t45.5 -27.5q13 -10 13 -20q-6 -67 -13 -102.5t-18 -59.5q-5 0 -6 3.5
t-29.5 34.5t-78.5 34q-74 -5 -121.5 -49.5t-65.5 -95.5t-21 -86q-2 -15 -2 -29q0 -21 3 -40q5 -34 18 -57.5t34 -45.5q-9 -78 -33 -131q-38 10 -64.5 34.5t-51 64t-46 97.5t-24.5 123q-1 9 -1 19q0 59 17 141q-37 -19 -60 -25.5t-46.5 -9.5t-43.5 -3q-22 0 -35 16t-13 38
q0 10 7 36t18 39.5t26 19t31 5.5q10 0 32.5 3.5t49.5 13t54.5 26.5t45.5 47t39 86zM401 -146l110 -70l-60 -105l-111 70zM567 -123l110 -70l-60 -105l-111 70z" />
    <glyph glyph-name="uniFCDE.alt" unicode="&#xfbfe;&#xfeec;" 
d="M724 787l-46 -140q-113 -32 -195 -64t-107.5 -54t-25.5 -30q0 -6 15 -30.5t47.5 -46t74.5 -37.5q13 -5 26.5 -9.5t24 -13.5t17 -24.5t6.5 -43.5v-6q0 -40 -12 -88q-13 -52 -35.5 -87t-45.5 -54q-6 -6 -26.5 -12.5t-47 -11t-55 -7.5t-50.5 -3q-36 0 -75.5 2t-73.5 11
q-38 -20 -74 -29t-66 -9q-16 2 -25.5 6.5t-17.5 15t-8 30.5q0 26 24.5 63t60.5 39q8 0 13 0.5t10 1.5v6q0 32 9.5 70t26.5 76t39 74t47 64t51 44.5t51 16.5h21q6 20 20.5 44t28.5 40q28 30 75 60t100 57t105 48t93 31zM244 354q-14 0 -36 -11t-42.5 -27.5t-35.5 -35.5
t-15 -34q0 -10 9.5 -19.5t22.5 -18t25 -13.5t18 -5q9 0 25 7.5t31.5 20t26.5 29.5t11 35q0 17 -4.5 30.5t-10.5 22.5t-13 14t-12 5zM339 330q-2 -16 -6.5 -39t-10.5 -41q-5 -19 -14.5 -38t-16.5 -32q39 0 75.5 4.5t65 11t45 13.5t16.5 12q0 12 -24 31.5t-66 31.5
q-10 3 -19 8.5t-17.5 12t-15.5 13.5zM568 529l110 -70l-60 -105l-111 70zM734 552l110 -70l-60 -105l-111 70z" />
    <glyph glyph-name="uni06790647.init" unicode="&#xfb68;&#xfeec;" horiz-adv-x="654" 
d="M255 330l21 -16q-8 -72 -21.5 -121t-34 -93t-26 -61t-10 -39.5t-4.5 -54.5t8 -66.5t19 -60t22 -40t17 -14.5q-5 42 -5 81q0 49 9 93q15 76 51.5 138t84 99.5t84.5 50.5t77 13q24 0 47.5 -8.5t45.5 -27.5q13 -10 13 -20q-6 -67 -13 -102.5t-18 -59.5q-5 0 -6 3.5
t-29.5 34.5t-78.5 34q-74 -5 -121.5 -49.5t-65.5 -95.5t-21 -86q-2 -15 -2 -29q0 -21 3 -40q5 -34 18 -57.5t34 -45.5q-9 -78 -33 -131q-38 10 -64.5 34.5t-51 64t-46 97.5t-24.5 123q-1 9 -1 19q0 59 17 141q-37 -19 -60 -25.5t-46.5 -9.5t-43.5 -3q-22 0 -35 16t-13 38
q0 10 7 36t18 39.5t26 19t31 5.5q10 0 32.5 3.5t49.5 13t54.5 26.5t45.5 47t39 86zM473 619q0 -15 2 -25t6 -29.5t7 -40t3 -38.5q0 -6 -1 -13l-3 -21q12 12 27 23.5l30 23t35 21t35 9.5q11 0 19.5 -6t16 -13.5t14.5 -21.5t7 -23q0 -8 -2 -15t-7.5 -19.5t-14 -24.5t-17.5 -22
q-20 -18 -35.5 -25t-39 -10.5t-52 -5.5t-88.5 -2q-7 0 -32 11.5t-55 30.5l1 14h84q4 0 8 1q11 8 15.5 12t15.5 14q4 16 4 25q0 10 -4.5 35t-9.5 52t-8.5 48t-3.5 36q0 7 -7 14l-2 10q0 10 9.5 26t20.5 32q5 -12 15 -27t24 -25q-1 -8 -6 -18t-11 -13zM636 428q-10 20 -20 30
t-23 10q-24 0 -52.5 -19.5t-69.5 -49.5q3 1 11 1h11q54 0 85 4t58 24z" />
    <glyph glyph-name="uni06790647.initalt" unicode="&#xfb68;&#xfeec;" horiz-adv-x="721" 
d="M724 787l-46 -140q-113 -32 -195 -64t-107.5 -54t-25.5 -30q0 -6 15 -30.5t47.5 -46t74.5 -37.5q13 -5 26.5 -9.5t24 -13.5t17 -24.5t6.5 -43.5v-6q0 -40 -12 -88q-13 -52 -35.5 -87t-45.5 -54q-6 -6 -26.5 -12.5t-47 -11t-55 -7.5t-50.5 -3q-36 0 -75.5 2t-73.5 11
q-38 -20 -74 -29t-66 -9q-16 2 -25.5 6.5t-17.5 15t-8 30.5q0 26 24.5 63t60.5 39q8 0 13 0.5t10 1.5v6q0 32 9.5 70t26.5 76t39 74t47 64t51 44.5t51 16.5h21q6 20 20.5 44t28.5 40q28 30 75 60t100 57t105 48t93 31zM244 354q-14 0 -36 -11t-42.5 -27.5t-35.5 -35.5
t-15 -34q0 -10 9.5 -19.5t22.5 -18t25 -13.5t18 -5q9 0 25 7.5t31.5 20t26.5 29.5t11 35q0 17 -4.5 30.5t-10.5 22.5t-13 14t-12 5zM339 330q-2 -16 -6.5 -39t-10.5 -41q-5 -19 -14.5 -38t-16.5 -32q39 0 75.5 4.5t65 11t45 13.5t16.5 12q0 12 -24 31.5t-66 31.5
q-10 3 -19 8.5t-17.5 12t-15.5 13.5zM534 1093q0 -15 2 -25t6 -29.5t7 -40t3 -38.5q0 -6 -1 -13l-3 -21q12 12 27 23.5l30 23t35 21t35 9.5q11 0 19.5 -6t16 -13.5t14.5 -21.5t7 -23q0 -8 -2 -15t-7.5 -19.5t-14 -24.5t-17.5 -22q-20 -18 -35.5 -25t-39 -10.5t-52 -5.5
t-88.5 -2q-7 0 -32 11.5t-55 30.5l1 14h84q4 0 8 1q11 8 15.5 12t15.5 14q4 16 4 25q0 10 -4.5 35t-9.5 52t-8.5 48t-3.5 36q0 7 -7 14l-2 10q0 10 9.5 26t20.5 32q5 -12 15 -27t24 -25q-1 -8 -6 -18t-11 -13zM697 902q-10 20 -20 30t-23 10q-24 0 -52.5 -19.5t-69.5 -49.5
q3 1 11 1h11q54 0 85 4t58 24z" />
    <glyph glyph-name="uni067A0647.init" unicode="&#xfb60;&#xfeec;" horiz-adv-x="654" 
d="M255 330l21 -16q-8 -72 -21.5 -121t-34 -93t-26 -61t-10 -39.5t-4.5 -54.5t8 -66.5t19 -60t22 -40t17 -14.5q-5 42 -5 81q0 49 9 93q15 76 51.5 138t84 99.5t84.5 50.5t77 13q24 0 47.5 -8.5t45.5 -27.5q13 -10 13 -20q-6 -67 -13 -102.5t-18 -59.5q-5 0 -6 3.5
t-29.5 34.5t-78.5 34q-74 -5 -121.5 -49.5t-65.5 -95.5t-21 -86q-2 -15 -2 -29q0 -21 3 -40q5 -34 18 -57.5t34 -45.5q-9 -78 -33 -131q-38 10 -64.5 34.5t-51 64t-46 97.5t-24.5 123q-1 9 -1 19q0 59 17 141q-37 -19 -60 -25.5t-46.5 -9.5t-43.5 -3q-22 0 -35 16t-13 38
q0 10 7 36t18 39.5t26 19t31 5.5q10 0 32.5 3.5t49.5 13t54.5 26.5t45.5 47t39 86zM473 710l110 -70l-60 -105l-111 70zM493 527l110 -70l-60 -105l-111 70z" />
    <glyph glyph-name="uni067A0647.initalt" unicode="&#xfb60;&#xfeec;" horiz-adv-x="721" 
d="M724 787l-46 -140q-113 -32 -195 -64t-107.5 -54t-25.5 -30q0 -6 15 -30.5t47.5 -46t74.5 -37.5q13 -5 26.5 -9.5t24 -13.5t17 -24.5t6.5 -43.5v-6q0 -40 -12 -88q-13 -52 -35.5 -87t-45.5 -54q-6 -6 -26.5 -12.5t-47 -11t-55 -7.5t-50.5 -3q-36 0 -75.5 2t-73.5 11
q-38 -20 -74 -29t-66 -9q-16 2 -25.5 6.5t-17.5 15t-8 30.5q0 26 24.5 63t60.5 39q8 0 13 0.5t10 1.5v6q0 32 9.5 70t26.5 76t39 74t47 64t51 44.5t51 16.5h21q6 20 20.5 44t28.5 40q28 30 75 60t100 57t105 48t93 31zM244 354q-14 0 -36 -11t-42.5 -27.5t-35.5 -35.5
t-15 -34q0 -10 9.5 -19.5t22.5 -18t25 -13.5t18 -5q9 0 25 7.5t31.5 20t26.5 29.5t11 35q0 17 -4.5 30.5t-10.5 22.5t-13 14t-12 5zM339 330q-2 -16 -6.5 -39t-10.5 -41q-5 -19 -14.5 -38t-16.5 -32q39 0 75.5 4.5t65 11t45 13.5t16.5 12q0 12 -24 31.5t-66 31.5
q-10 3 -19 8.5t-17.5 12t-15.5 13.5zM580 1172l110 -70l-60 -105l-111 70zM600 989l110 -70l-60 -105l-111 70z" />
    <glyph glyph-name="uni067E0647.init" unicode="&#xfb58;&#xfeec;" horiz-adv-x="654" 
d="M255 330l21 -16q-8 -72 -21.5 -121t-34 -93t-26 -61t-10 -39.5t-4.5 -54.5t8 -66.5t19 -60t22 -40t17 -14.5q-5 42 -5 81q0 49 9 93q15 76 51.5 138t84 99.5t84.5 50.5t77 13q24 0 47.5 -8.5t45.5 -27.5q13 -10 13 -20q-6 -67 -13 -102.5t-18 -59.5q-5 0 -6 3.5
t-29.5 34.5t-78.5 34q-74 -5 -121.5 -49.5t-65.5 -95.5t-21 -86q-2 -15 -2 -29q0 -21 3 -40q5 -34 18 -57.5t34 -45.5q-9 -78 -33 -131q-38 10 -64.5 34.5t-51 64t-46 97.5t-24.5 123q-1 9 -1 19q0 59 17 141q-37 -19 -60 -25.5t-46.5 -9.5t-43.5 -3q-22 0 -35 16t-13 38
q0 10 7 36t18 39.5t26 19t31 5.5q10 0 32.5 3.5t49.5 13t54.5 26.5t45.5 47t39 86zM389 -85l110 -70l-60 -105l-111 70zM556 -62l110 -70l-60 -105l-111 70zM508 -231l110 -70l-60 -105l-111 70z" />
    <glyph glyph-name="uni067E0647.initalt" unicode="&#xfb58;&#xfeec;" horiz-adv-x="833" 
d="M724 787l-46 -140q-113 -32 -195 -64t-107.5 -54t-25.5 -30q0 -6 15 -30.5t47.5 -46t74.5 -37.5q13 -5 26.5 -9.5t24 -13.5t17 -24.5t6.5 -43.5v-6q0 -40 -12 -88q-13 -52 -35.5 -87t-45.5 -54q-6 -6 -26.5 -12.5t-47 -11t-55 -7.5t-50.5 -3q-36 0 -75.5 2t-73.5 11
q-38 -20 -74 -29t-66 -9q-16 2 -25.5 6.5t-17.5 15t-8 30.5q0 26 24.5 63t60.5 39q8 0 13 0.5t10 1.5v6q0 32 9.5 70t26.5 76t39 74t47 64t51 44.5t51 16.5h21q6 20 20.5 44t28.5 40q28 30 75 60t100 57t105 48t93 31zM244 354q-14 0 -36 -11t-42.5 -27.5t-35.5 -35.5
t-15 -34q0 -10 9.5 -19.5t22.5 -18t25 -13.5t18 -5q9 0 25 7.5t31.5 20t26.5 29.5t11 35q0 17 -4.5 30.5t-10.5 22.5t-13 14t-12 5zM339 330q-2 -16 -6.5 -39t-10.5 -41q-5 -19 -14.5 -38t-16.5 -32q39 0 75.5 4.5t65 11t45 13.5t16.5 12q0 12 -24 31.5t-66 31.5
q-10 3 -19 8.5t-17.5 12t-15.5 13.5zM586 519l110 -70l-60 -105l-111 70zM753 542l110 -70l-60 -105l-111 70zM705 373l110 -70l-60 -105l-111 70z" />
    <glyph glyph-name="uni067F0647.init" unicode="&#xfb64;&#xfeec;" horiz-adv-x="654" 
d="M255 330l21 -16q-8 -72 -21.5 -121t-34 -93t-26 -61t-10 -39.5t-4.5 -54.5t8 -66.5t19 -60t22 -40t17 -14.5q-5 42 -5 81q0 49 9 93q15 76 51.5 138t84 99.5t84.5 50.5t77 13q24 0 47.5 -8.5t45.5 -27.5q13 -10 13 -20q-6 -67 -13 -102.5t-18 -59.5q-5 0 -6 3.5
t-29.5 34.5t-78.5 34q-74 -5 -121.5 -49.5t-65.5 -95.5t-21 -86q-2 -15 -2 -29q0 -21 3 -40q5 -34 18 -57.5t34 -45.5q-9 -78 -33 -131q-38 10 -64.5 34.5t-51 64t-46 97.5t-24.5 123q-1 9 -1 19q0 59 17 141q-37 -19 -60 -25.5t-46.5 -9.5t-43.5 -3q-22 0 -35 16t-13 38
q0 10 7 36t18 39.5t26 19t31 5.5q10 0 32.5 3.5t49.5 13t54.5 26.5t45.5 47t39 86zM322 717l110 -70l-60 -105l-111 70zM342 534l110 -70l-60 -105l-111 70zM489 739l110 -70l-60 -105l-111 70zM509 556l110 -70l-60 -105l-111 70z" />
    <glyph glyph-name="uni067F0647.initalt" unicode="&#xfb64;&#xfeec;" horiz-adv-x="728" 
d="M724 787l-46 -140q-113 -32 -195 -64t-107.5 -54t-25.5 -30q0 -6 15 -30.5t47.5 -46t74.5 -37.5q13 -5 26.5 -9.5t24 -13.5t17 -24.5t6.5 -43.5v-6q0 -40 -12 -88q-13 -52 -35.5 -87t-45.5 -54q-6 -6 -26.5 -12.5t-47 -11t-55 -7.5t-50.5 -3q-36 0 -75.5 2t-73.5 11
q-38 -20 -74 -29t-66 -9q-16 2 -25.5 6.5t-17.5 15t-8 30.5q0 26 24.5 63t60.5 39q8 0 13 0.5t10 1.5v6q0 32 9.5 70t26.5 76t39 74t47 64t51 44.5t51 16.5h21q6 20 20.5 44t28.5 40q28 30 75 60t100 57t105 48t93 31zM244 354q-14 0 -36 -11t-42.5 -27.5t-35.5 -35.5
t-15 -34q0 -10 9.5 -19.5t22.5 -18t25 -13.5t18 -5q9 0 25 7.5t31.5 20t26.5 29.5t11 35q0 17 -4.5 30.5t-10.5 22.5t-13 14t-12 5zM339 330q-2 -16 -6.5 -39t-10.5 -41q-5 -19 -14.5 -38t-16.5 -32q39 0 75.5 4.5t65 11t45 13.5t16.5 12q0 12 -24 31.5t-66 31.5
q-10 3 -19 8.5t-17.5 12t-15.5 13.5zM415 1158l110 -70l-60 -105l-111 70zM435 975l110 -70l-60 -105l-111 70zM582 1180l110 -70l-60 -105l-111 70zM602 997l110 -70l-60 -105l-111 70z" />
    <glyph glyph-name="uniFCE0" unicode="&#xfe8c;&#xfeec;" horiz-adv-x="654" arabic-form="medial" 
d="M654 0q-14 0 -30 6.5t-33 24.5q-14 15 -25 27t-21 20.5t-21.5 13.5t-26.5 5q-6 1 -13 1q-29 0 -71 -24q-52 -31 -82.5 -92.5t-33.5 -130.5q-1 -9 -1 -17q0 -58 22 -90q24 -38 55 -54l-33 -131q-18 0 -64.5 29.5t-77 74.5t-48 103.5t-18.5 125.5v5q0 65 24 143
q-43 -21 -66 -27.5t-46.5 -9.5t-43.5 -3q-22 0 -35 16t-13 38q0 10 7 41t18 39.5t26 14t31 5.5q10 0 32.5 3.5t49.5 13t54.5 26.5t48 51.5t37.5 78.5l13 -4q-1 -81 -13 -131.5t-29.5 -91.5t-29.5 -81t-14 -73q-1 -8 -1 -16q0 -25 6 -51q8 -35 19 -60.5t22 -40t17 -14.5
q-4 25 -6 47v8q0 23 8 74q10 61 35 119.5t60 106.5t64.5 72.5t61.5 37.5q28 10 45 10h5q28 0 46 -12.5t36 -30t29.5 -28t30.5 -12.5t27 -2zM547 784q24 -1 32 -14.5t8 -27.5q0 -31 -8 -72h-14q-21 17 -34 19t-21 2t-20.5 -5.5t-24 -13t-19.5 -16.5t-8 -16q0 -11 16 -18
t40 -11.5t60 -7.5l102 54l7 -10l-20 -88l-236 -117v46l53 43q-23 10 -36.5 18t-25 20t-11.5 27q0 32 16 66t40 60t52 44t52 18z" />
    <glyph glyph-name="uniFCE2" unicode="&#xfe92;&#xfeec;" horiz-adv-x="654" arabic-form="medial" 
d="M654 0q-14 0 -30 6.5t-33 24.5q-14 15 -25 27t-21 20.5t-21.5 13.5t-26.5 5q-6 1 -13 1q-29 0 -71 -24q-52 -31 -82.5 -92.5t-33.5 -130.5q-1 -9 -1 -17q0 -58 22 -90q24 -38 55 -54l-33 -131q-18 0 -64.5 29.5t-77 74.5t-48 103.5t-18.5 125.5v5q0 65 24 143
q-43 -21 -66 -27.5t-46.5 -9.5t-43.5 -3q-22 0 -35 16t-13 38q0 10 7 41t18 39.5t26 14t31 5.5q10 0 32.5 3.5t49.5 13t54.5 26.5t48 51.5t37.5 78.5l13 -4q-1 -81 -13 -131.5t-29.5 -91.5t-29.5 -81t-14 -73q-1 -8 -1 -16q0 -25 6 -51q8 -35 19 -60.5t22 -40t17 -14.5
q-4 25 -6 47v8q0 23 8 74q10 61 35 119.5t60 106.5t64.5 72.5t61.5 37.5q28 10 45 10h5q28 0 46 -12.5t36 -30t29.5 -28t30.5 -12.5t27 -2zM498 -133l110 -70l-60 -105l-111 70z" />
    <glyph glyph-name="uniFCE4" unicode="&#xfe98;&#xfeec;" horiz-adv-x="654" arabic-form="medial" 
d="M654 0q-14 0 -30 6.5t-33 24.5q-14 15 -25 27t-21 20.5t-21.5 13.5t-26.5 5q-6 1 -13 1q-29 0 -71 -24q-52 -31 -82.5 -92.5t-33.5 -130.5q-1 -9 -1 -17q0 -58 22 -90q24 -38 55 -54l-33 -131q-18 0 -64.5 29.5t-77 74.5t-48 103.5t-18.5 125.5v5q0 65 24 143
q-43 -21 -66 -27.5t-46.5 -9.5t-43.5 -3q-22 0 -35 16t-13 38q0 10 7 41t18 39.5t26 14t31 5.5q10 0 32.5 3.5t49.5 13t54.5 26.5t48 51.5t37.5 78.5l13 -4q-1 -81 -13 -131.5t-29.5 -91.5t-29.5 -81t-14 -73q-1 -8 -1 -16q0 -25 6 -51q8 -35 19 -60.5t22 -40t17 -14.5
q-4 25 -6 47v8q0 23 8 74q10 61 35 119.5t60 106.5t64.5 72.5t61.5 37.5q28 10 45 10h5q28 0 46 -12.5t36 -30t29.5 -28t30.5 -12.5t27 -2zM393 593l110 -70l-60 -105l-111 70zM559 616l110 -70l-60 -105l-111 70z" />
    <glyph glyph-name="uniFCE6" unicode="&#xfe9c;&#xfeec;" horiz-adv-x="654" arabic-form="medial" 
d="M654 0q-14 0 -30 6.5t-33 24.5q-14 15 -25 27t-21 20.5t-21.5 13.5t-26.5 5q-6 1 -13 1q-29 0 -71 -24q-52 -31 -82.5 -92.5t-33.5 -130.5q-1 -9 -1 -17q0 -58 22 -90q24 -38 55 -54l-33 -131q-18 0 -64.5 29.5t-77 74.5t-48 103.5t-18.5 125.5v5q0 65 24 143
q-43 -21 -66 -27.5t-46.5 -9.5t-43.5 -3q-22 0 -35 16t-13 38q0 10 7 41t18 39.5t26 14t31 5.5q10 0 32.5 3.5t49.5 13t54.5 26.5t48 51.5t37.5 78.5l13 -4q-1 -81 -13 -131.5t-29.5 -91.5t-29.5 -81t-14 -73q-1 -8 -1 -16q0 -25 6 -51q8 -35 19 -60.5t22 -40t17 -14.5
q-4 25 -6 47v8q0 23 8 74q10 61 35 119.5t60 106.5t64.5 72.5t61.5 37.5q28 10 45 10h5q28 0 46 -12.5t36 -30t29.5 -28t30.5 -12.5t27 -2zM390 568l110 -70l-60 -105l-111 70zM556 591l110 -70l-60 -105l-111 70zM435 741l110 -70l-60 -105l-111 70z" />
    <glyph glyph-name="uniFCEF" unicode="&#xfee8;&#xfeec;" horiz-adv-x="654" arabic-form="medial" 
d="M654 0q-14 0 -30 6.5t-33 24.5q-14 15 -25 27t-21 20.5t-21.5 13.5t-26.5 5q-6 1 -13 1q-29 0 -71 -24q-52 -31 -82.5 -92.5t-33.5 -130.5q-1 -9 -1 -17q0 -58 22 -90q24 -38 55 -54l-33 -131q-18 0 -64.5 29.5t-77 74.5t-48 103.5t-18.5 125.5v5q0 65 24 143
q-43 -21 -66 -27.5t-46.5 -9.5t-43.5 -3q-22 0 -35 16t-13 38q0 10 7 41t18 39.5t26 14t31 5.5q10 0 32.5 3.5t49.5 13t54.5 26.5t48 51.5t37.5 78.5l13 -4q-1 -81 -13 -131.5t-29.5 -91.5t-29.5 -81t-14 -73q-1 -8 -1 -16q0 -25 6 -51q8 -35 19 -60.5t22 -40t17 -14.5
q-4 25 -6 47v8q0 23 8 74q10 61 35 119.5t60 106.5t64.5 72.5t61.5 37.5q28 10 45 10h5q28 0 46 -12.5t36 -30t29.5 -28t30.5 -12.5t27 -2zM476 574l110 -70l-60 -105l-111 70z" />
    <glyph glyph-name="uniFCF1" unicode="&#xfbff;&#xfeec;" horiz-adv-x="654" arabic-form="medial" 
d="M654 0q-14 0 -30 6.5t-33 24.5q-14 15 -25 27t-21 20.5t-21.5 13.5t-26.5 5q-6 1 -13 1q-29 0 -71 -24q-52 -31 -82.5 -92.5t-33.5 -130.5q-1 -9 -1 -17q0 -58 22 -90q24 -38 55 -54l-33 -131q-18 0 -64.5 29.5t-77 74.5t-48 103.5t-18.5 125.5v5q0 65 24 143
q-43 -21 -66 -27.5t-46.5 -9.5t-43.5 -3q-22 0 -35 16t-13 38q0 10 7 41t18 39.5t26 14t31 5.5q10 0 32.5 3.5t49.5 13t54.5 26.5t48 51.5t37.5 78.5l13 -4q-1 -81 -13 -131.5t-29.5 -91.5t-29.5 -81t-14 -73q-1 -8 -1 -16q0 -25 6 -51q8 -35 19 -60.5t22 -40t17 -14.5
q-4 25 -6 47v8q0 23 8 74q10 61 35 119.5t60 106.5t64.5 72.5t61.5 37.5q28 10 45 10h5q28 0 46 -12.5t36 -30t29.5 -28t30.5 -12.5t27 -2zM424 -137l110 -70l-60 -105l-111 70zM590 -114l110 -70l-60 -105l-111 70z" />
    <glyph glyph-name="uni06790647.medi" unicode="&#xfb69;&#xfeec;" horiz-adv-x="654" 
d="M654 0q-14 0 -30 6.5t-33 24.5q-14 15 -25 27t-21 20.5t-21.5 13.5t-26.5 5q-6 1 -13 1q-29 0 -71 -24q-52 -31 -82.5 -92.5t-33.5 -130.5q-1 -9 -1 -17q0 -58 22 -90q24 -38 55 -54l-33 -131q-18 0 -64.5 29.5t-77 74.5t-48 103.5t-18.5 125.5v5q0 65 24 143
q-43 -21 -66 -27.5t-46.5 -9.5t-43.5 -3q-22 0 -35 16t-13 38q0 10 7 41t18 39.5t26 14t31 5.5q10 0 32.5 3.5t49.5 13t54.5 26.5t48 51.5t37.5 78.5l13 -4q-1 -81 -13 -131.5t-29.5 -91.5t-29.5 -81t-14 -73q-1 -8 -1 -16q0 -25 6 -51q8 -35 19 -60.5t22 -40t17 -14.5
q-4 25 -6 47v8q0 23 8 74q10 61 35 119.5t60 106.5t64.5 72.5t61.5 37.5q28 10 45 10h5q28 0 46 -12.5t36 -30t29.5 -28t30.5 -12.5t27 -2zM466 656q0 -15 2 -25t6 -29.5t7 -40t3 -38.5q0 -6 -1 -13l-3 -21q12 12 27 23.5l30 23t35 21t35 9.5q11 0 19.5 -6t16 -13.5
t14.5 -21.5t7 -23q0 -8 -2 -15t-7.5 -19.5t-14 -24.5t-17.5 -22q-20 -18 -35.5 -25t-39 -10.5t-52 -5.5t-88.5 -2q-7 0 -32 11.5t-55 30.5l1 14h84q4 0 8 1q11 8 15.5 12t15.5 14q4 16 4 25q0 10 -4.5 35t-9.5 52t-8.5 48t-3.5 36q0 7 -7 14l-2 10q0 10 9.5 26t20.5 32
q5 -12 15 -27t24 -25q-1 -8 -6 -18t-11 -13zM629 465q-10 20 -20 30t-23 10q-24 0 -52.5 -19.5t-69.5 -49.5q3 1 11 1h11q54 0 85 4t58 24z" />
    <glyph glyph-name="uni067A0647.medi" unicode="&#xfb61;&#xfeec;" horiz-adv-x="654" 
d="M654 0q-14 0 -30 6.5t-33 24.5q-14 15 -25 27t-21 20.5t-21.5 13.5t-26.5 5q-6 1 -13 1q-29 0 -71 -24q-52 -31 -82.5 -92.5t-33.5 -130.5q-1 -9 -1 -17q0 -58 22 -90q24 -38 55 -54l-33 -131q-18 0 -64.5 29.5t-77 74.5t-48 103.5t-18.5 125.5v5q0 65 24 143
q-43 -21 -66 -27.5t-46.5 -9.5t-43.5 -3q-22 0 -35 16t-13 38q0 10 7 41t18 39.5t26 14t31 5.5q10 0 32.5 3.5t49.5 13t54.5 26.5t48 51.5t37.5 78.5l13 -4q-1 -81 -13 -131.5t-29.5 -91.5t-29.5 -81t-14 -73q-1 -8 -1 -16q0 -25 6 -51q8 -35 19 -60.5t22 -40t17 -14.5
q-4 25 -6 47v8q0 23 8 74q10 61 35 119.5t60 106.5t64.5 72.5t61.5 37.5q28 10 45 10h5q28 0 46 -12.5t36 -30t29.5 -28t30.5 -12.5t27 -2zM473 710l110 -70l-60 -105l-111 70zM493 527l110 -70l-60 -105l-111 70z" />
    <glyph glyph-name="uni067F0647.medi" unicode="&#xfb65;&#xfeec;" horiz-adv-x="654" 
d="M654 0q-14 0 -30 6.5t-33 24.5q-14 15 -25 27t-21 20.5t-21.5 13.5t-26.5 5q-6 1 -13 1q-29 0 -71 -24q-52 -31 -82.5 -92.5t-33.5 -130.5q-1 -9 -1 -17q0 -58 22 -90q24 -38 55 -54l-33 -131q-18 0 -64.5 29.5t-77 74.5t-48 103.5t-18.5 125.5v5q0 65 24 143
q-43 -21 -66 -27.5t-46.5 -9.5t-43.5 -3q-22 0 -35 16t-13 38q0 10 7 41t18 39.5t26 14t31 5.5q10 0 32.5 3.5t49.5 13t54.5 26.5t48 51.5t37.5 78.5l13 -4q-1 -81 -13 -131.5t-29.5 -91.5t-29.5 -81t-14 -73q-1 -8 -1 -16q0 -25 6 -51q8 -35 19 -60.5t22 -40t17 -14.5
q-4 25 -6 47v8q0 23 8 74q10 61 35 119.5t60 106.5t64.5 72.5t61.5 37.5q28 10 45 10h5q28 0 46 -12.5t36 -30t29.5 -28t30.5 -12.5t27 -2zM322 717l110 -70l-60 -105l-111 70zM342 534l110 -70l-60 -105l-111 70zM489 739l110 -70l-60 -105l-111 70zM509 556l110 -70
l-60 -105l-111 70z" />
    <glyph glyph-name="uniFC03" unicode="&#xfe8b;&#xfef0;" horiz-adv-x="987" arabic-form="isolated" 
d="M398 -193q78 0 155.5 23t145 54.5t115.5 54t71.5 40t28.5 27.5q1 3 1 6q0 6 -6 13q-10 9 -77.5 21t-116 16.5t-92.5 8.5l-8 7l33 128l8 8q61 17 96 38.5t48.5 36.5t15.5 31q0 21 -28 64t-91 116l78 112q55 -98 74.5 -145.5t19.5 -104.5q0 -25 -6.5 -48.5t-16 -44.5
t-20.5 -39t-20 -32q75 -14 111 -27.5t52 -50.5t18 -64q-2 -20 -5 -43t-8.5 -46t-13.5 -43t-20 -33q-15 -17 -46.5 -42t-74.5 -52.5t-95 -55.5t-107.5 -50t-112.5 -35.5t-110 -13.5q-60 0 -112.5 22t-91.5 63.5t-61 102.5t-22 139q0 60 17.5 115t39.5 96t58 92l12 -13
q-23 -43 -37.5 -86t-19.5 -99q-2 -13 -2 -26q0 -44 15 -87q18 -56 53 -89.5t76 -49t79 -15.5zM728 997q24 -1 32 -14.5t8 -27.5q0 -31 -8 -72h-14q-21 17 -34 19t-21 2t-20.5 -5.5t-24 -13t-19.5 -16.5t-8 -16q0 -11 16 -18t40 -11.5t60 -7.5l102 54l7 -10l-20 -88
l-236 -117v46l53 43q-23 10 -36.5 18t-25 20t-11.5 27q0 32 16 66t40 60t52 44t52 18z" />
    <glyph glyph-name="uniFC0F" unicode="&#xfe97;&#xfef0;" horiz-adv-x="987" arabic-form="isolated" 
d="M398 -193q78 0 155.5 23t145 54.5t115.5 54t71.5 40t28.5 27.5q1 3 1 6q0 6 -6 13q-10 9 -77.5 21t-116 16.5t-92.5 8.5l-8 7l33 128l8 8q61 17 96 38.5t48.5 36.5t15.5 31q0 21 -28 64t-91 116l78 112q55 -98 74.5 -145.5t19.5 -104.5q0 -25 -6.5 -48.5t-16 -44.5
t-20.5 -39t-20 -32q75 -14 111 -27.5t52 -50.5t18 -64q-2 -20 -5 -43t-8.5 -46t-13.5 -43t-20 -33q-15 -17 -46.5 -42t-74.5 -52.5t-95 -55.5t-107.5 -50t-112.5 -35.5t-110 -13.5q-60 0 -112.5 22t-91.5 63.5t-61 102.5t-22 139q0 60 17.5 115t39.5 96t58 92l12 -13
q-23 -43 -37.5 -86t-19.5 -99q-2 -13 -2 -26q0 -44 15 -87q18 -56 53 -89.5t76 -49t79 -15.5zM608 874l110 -70l-60 -105l-111 70zM774 897l110 -70l-60 -105l-111 70z" />
    <glyph glyph-name="uniFC13" unicode="&#xfe9b;&#xfef0;" horiz-adv-x="987" arabic-form="isolated" 
d="M398 -193q78 0 155.5 23t145 54.5t115.5 54t71.5 40t28.5 27.5q1 3 1 6q0 6 -6 13q-10 9 -77.5 21t-116 16.5t-92.5 8.5l-8 7l33 128l8 8q61 17 96 38.5t48.5 36.5t15.5 31q0 21 -28 64t-91 116l78 112q55 -98 74.5 -145.5t19.5 -104.5q0 -25 -6.5 -48.5t-16 -44.5
t-20.5 -39t-20 -32q75 -14 111 -27.5t52 -50.5t18 -64q-2 -20 -5 -43t-8.5 -46t-13.5 -43t-20 -33q-15 -17 -46.5 -42t-74.5 -52.5t-95 -55.5t-107.5 -50t-112.5 -35.5t-110 -13.5q-60 0 -112.5 22t-91.5 63.5t-61 102.5t-22 139q0 60 17.5 115t39.5 96t58 92l12 -13
q-23 -43 -37.5 -86t-19.5 -99q-2 -13 -2 -26q0 -44 15 -87q18 -56 53 -89.5t76 -49t79 -15.5zM599 834l110 -70l-60 -105l-111 70zM765 857l110 -70l-60 -105l-111 70zM644 1007l110 -70l-60 -105l-111 70z" />
    <glyph glyph-name="uniFC4F" unicode="&#xfee7;&#xfef0;" horiz-adv-x="987" arabic-form="isolated" 
d="M398 -193q78 0 155.5 23t145 54.5t115.5 54t71.5 40t28.5 27.5q1 3 1 6q0 6 -6 13q-10 9 -77.5 21t-116 16.5t-92.5 8.5l-8 7l33 128l8 8q61 17 96 38.5t48.5 36.5t15.5 31q0 21 -28 64t-91 116l78 112q55 -98 74.5 -145.5t19.5 -104.5q0 -25 -6.5 -48.5t-16 -44.5
t-20.5 -39t-20 -32q75 -14 111 -27.5t52 -50.5t18 -64q-2 -20 -5 -43t-8.5 -46t-13.5 -43t-20 -33q-15 -17 -46.5 -42t-74.5 -52.5t-95 -55.5t-107.5 -50t-112.5 -35.5t-110 -13.5q-60 0 -112.5 22t-91.5 63.5t-61 102.5t-22 139q0 60 17.5 115t39.5 96t58 92l12 -13
q-23 -43 -37.5 -86t-19.5 -99q-2 -13 -2 -26q0 -44 15 -87q18 -56 53 -89.5t76 -49t79 -15.5zM684 885l110 -70l-60 -105l-111 70z" />
    <glyph glyph-name="uni06790649.isol" unicode="&#xfb68;&#xfef0;" horiz-adv-x="987" 
d="M398 -193q78 0 155.5 23t145 54.5t115.5 54t71.5 40t28.5 27.5q1 3 1 6q0 6 -6 13q-10 9 -77.5 21t-116 16.5t-92.5 8.5l-8 7l33 128l8 8q61 17 96 38.5t48.5 36.5t15.5 31q0 21 -28 64t-91 116l78 112q55 -98 74.5 -145.5t19.5 -104.5q0 -25 -6.5 -48.5t-16 -44.5
t-20.5 -39t-20 -32q75 -14 111 -27.5t52 -50.5t18 -64q-2 -20 -5 -43t-8.5 -46t-13.5 -43t-20 -33q-15 -17 -46.5 -42t-74.5 -52.5t-95 -55.5t-107.5 -50t-112.5 -35.5t-110 -13.5q-60 0 -112.5 22t-91.5 63.5t-61 102.5t-22 139q0 60 17.5 115t39.5 96t58 92l12 -13
q-23 -43 -37.5 -86t-19.5 -99q-2 -13 -2 -26q0 -44 15 -87q18 -56 53 -89.5t76 -49t79 -15.5zM692 965q0 -15 2 -25t6 -29.5t7 -40t3 -38.5q0 -6 -1 -13l-3 -21q12 12 27 23.5l30 23t35 21t35 9.5q11 0 19.5 -6t16 -13.5t14.5 -21.5t7 -23q0 -8 -2 -15t-7.5 -19.5t-14 -24.5
t-17.5 -22q-20 -18 -35.5 -25t-39 -10.5t-52 -5.5t-88.5 -2q-7 0 -32 11.5t-55 30.5l1 14h84q4 0 8 1q11 8 15.5 12t15.5 14q4 16 4 25q0 10 -4.5 35t-9.5 52t-8.5 48t-3.5 36q0 7 -7 14l-2 10q0 10 9.5 26t20.5 32q5 -12 15 -27t24 -25q-1 -8 -6 -18t-11 -13zM855 774
q-10 20 -20 30t-23 10q-24 0 -52.5 -19.5t-69.5 -49.5q3 1 11 1h11q54 0 85 4t58 24z" />
    <glyph glyph-name="uni067A0649.isol" unicode="&#xfb60;&#xfef0;" horiz-adv-x="987" 
d="M398 -193q78 0 155.5 23t145 54.5t115.5 54t71.5 40t28.5 27.5q1 3 1 6q0 6 -6 13q-10 9 -77.5 21t-116 16.5t-92.5 8.5l-8 7l33 128l8 8q61 17 96 38.5t48.5 36.5t15.5 31q0 21 -28 64t-91 116l78 112q55 -98 74.5 -145.5t19.5 -104.5q0 -25 -6.5 -48.5t-16 -44.5
t-20.5 -39t-20 -32q75 -14 111 -27.5t52 -50.5t18 -64q-2 -20 -5 -43t-8.5 -46t-13.5 -43t-20 -33q-15 -17 -46.5 -42t-74.5 -52.5t-95 -55.5t-107.5 -50t-112.5 -35.5t-110 -13.5q-60 0 -112.5 22t-91.5 63.5t-61 102.5t-22 139q0 60 17.5 115t39.5 96t58 92l12 -13
q-23 -43 -37.5 -86t-19.5 -99q-2 -13 -2 -26q0 -44 15 -87q18 -56 53 -89.5t76 -49t79 -15.5zM669 1061l110 -70l-60 -105l-111 70zM689 878l110 -70l-60 -105l-111 70z" />
    <glyph glyph-name="uni067F0649.isol" unicode="&#xfb64;&#xfef0;" horiz-adv-x="987" 
d="M398 -193q78 0 155.5 23t145 54.5t115.5 54t71.5 40t28.5 27.5q1 3 1 6q0 6 -6 13q-10 9 -77.5 21t-116 16.5t-92.5 8.5l-8 7l33 128l8 8q61 17 96 38.5t48.5 36.5t15.5 31q0 21 -28 64t-91 116l78 112q55 -98 74.5 -145.5t19.5 -104.5q0 -25 -6.5 -48.5t-16 -44.5
t-20.5 -39t-20 -32q75 -14 111 -27.5t52 -50.5t18 -64q-2 -20 -5 -43t-8.5 -46t-13.5 -43t-20 -33q-15 -17 -46.5 -42t-74.5 -52.5t-95 -55.5t-107.5 -50t-112.5 -35.5t-110 -13.5q-60 0 -112.5 22t-91.5 63.5t-61 102.5t-22 139q0 60 17.5 115t39.5 96t58 92l12 -13
q-23 -43 -37.5 -86t-19.5 -99q-2 -13 -2 -26q0 -44 15 -87q18 -56 53 -89.5t76 -49t79 -15.5zM567 1042l110 -70l-60 -105l-111 70zM587 859l110 -70l-60 -105l-111 70zM734 1064l110 -70l-60 -105l-111 70zM754 881l110 -70l-60 -105l-111 70z" />
    <glyph glyph-name="uniFC04" unicode="&#xfe8b;&#xfef2;" horiz-adv-x="987" arabic-form="isolated" 
d="M398 -193q78 0 155.5 23t145 54.5t115.5 54t71.5 40t28.5 27.5q1 3 1 6q0 6 -6 13q-10 9 -77.5 21t-116 16.5t-92.5 8.5l-8 7l33 128l8 8q61 17 96 38.5t48.5 36.5t15.5 31q0 21 -28 64t-91 116l78 112q55 -98 74.5 -145.5t19.5 -104.5q0 -25 -6.5 -48.5t-16 -44.5
t-20.5 -39t-20 -32q75 -14 111 -27.5t52 -50.5t18 -64q-2 -20 -5 -43t-8.5 -46t-13.5 -43t-20 -33q-15 -17 -46.5 -42t-74.5 -52.5t-95 -55.5t-107.5 -50t-112.5 -35.5t-110 -13.5q-60 0 -112.5 22t-91.5 63.5t-61 102.5t-22 139q0 60 17.5 115t39.5 96t58 92l12 -13
q-23 -43 -37.5 -86t-19.5 -99q-2 -13 -2 -26q0 -44 15 -87q18 -56 53 -89.5t76 -49t79 -15.5zM728 997q24 -1 32 -14.5t8 -27.5q0 -31 -8 -72h-14q-21 17 -34 19t-21 2t-20.5 -5.5t-24 -13t-19.5 -16.5t-8 -16q0 -11 16 -18t40 -11.5t60 -7.5l102 54l7 -10l-20 -88
l-236 -117v46l53 43q-23 10 -36.5 18t-25 20t-11.5 27q0 32 16 66t40 60t52 44t52 18zM467 -425l110 -70l-60 -105l-111 70zM633 -402l110 -70l-60 -105l-111 70z" />
    <glyph glyph-name="uniFC0A" unicode="&#xfe91;&#xfef2;" horiz-adv-x="987" arabic-form="isolated" 
d="M398 -193q78 0 155.5 23t145 54.5t115.5 54t71.5 40t28.5 27.5q1 3 1 6q0 6 -6 13q-10 9 -77.5 21t-116 16.5t-92.5 8.5l-8 7l33 128l8 8q61 17 96 38.5t48.5 36.5t15.5 31q0 21 -28 64t-91 116l78 112q55 -98 74.5 -145.5t19.5 -104.5q0 -25 -6.5 -48.5t-16 -44.5
t-20.5 -39t-20 -32q75 -14 111 -27.5t52 -50.5t18 -64q-2 -20 -5 -43t-8.5 -46t-13.5 -43t-20 -33q-15 -17 -46.5 -42t-74.5 -52.5t-95 -55.5t-107.5 -50t-112.5 -35.5t-110 -13.5q-60 0 -112.5 22t-91.5 63.5t-61 102.5t-22 139q0 60 17.5 115t39.5 96t58 92l12 -13
q-23 -43 -37.5 -86t-19.5 -99q-2 -13 -2 -26q0 -44 15 -87q18 -56 53 -89.5t76 -49t79 -15.5zM845 -287l110 -70l-60 -105l-111 70zM467 -431l110 -70l-60 -105l-111 70zM633 -408l110 -70l-60 -105l-111 70z" />
    <glyph glyph-name="uniFC10" unicode="&#xfe97;&#xfef2;" horiz-adv-x="987" arabic-form="isolated" 
d="M398 -193q78 0 155.5 23t145 54.5t115.5 54t71.5 40t28.5 27.5q1 3 1 6q0 6 -6 13q-10 9 -77.5 21t-116 16.5t-92.5 8.5l-8 7l33 128l8 8q61 17 96 38.5t48.5 36.5t15.5 31q0 21 -28 64t-91 116l78 112q55 -98 74.5 -145.5t19.5 -104.5q0 -25 -6.5 -48.5t-16 -44.5
t-20.5 -39t-20 -32q75 -14 111 -27.5t52 -50.5t18 -64q-2 -20 -5 -43t-8.5 -46t-13.5 -43t-20 -33q-15 -17 -46.5 -42t-74.5 -52.5t-95 -55.5t-107.5 -50t-112.5 -35.5t-110 -13.5q-60 0 -112.5 22t-91.5 63.5t-61 102.5t-22 139q0 60 17.5 115t39.5 96t58 92l12 -13
q-23 -43 -37.5 -86t-19.5 -99q-2 -13 -2 -26q0 -44 15 -87q18 -56 53 -89.5t76 -49t79 -15.5zM608 874l110 -70l-60 -105l-111 70zM774 897l110 -70l-60 -105l-111 70zM467 -425l110 -70l-60 -105l-111 70zM633 -402l110 -70l-60 -105l-111 70z" />
    <glyph glyph-name="uniFC14" unicode="&#xfe9b;&#xfef2;" horiz-adv-x="987" arabic-form="isolated" 
d="M398 -193q78 0 155.5 23t145 54.5t115.5 54t71.5 40t28.5 27.5q1 3 1 6q0 6 -6 13q-10 9 -77.5 21t-116 16.5t-92.5 8.5l-8 7l33 128l8 8q61 17 96 38.5t48.5 36.5t15.5 31q0 21 -28 64t-91 116l78 112q55 -98 74.5 -145.5t19.5 -104.5q0 -25 -6.5 -48.5t-16 -44.5
t-20.5 -39t-20 -32q75 -14 111 -27.5t52 -50.5t18 -64q-2 -20 -5 -43t-8.5 -46t-13.5 -43t-20 -33q-15 -17 -46.5 -42t-74.5 -52.5t-95 -55.5t-107.5 -50t-112.5 -35.5t-110 -13.5q-60 0 -112.5 22t-91.5 63.5t-61 102.5t-22 139q0 60 17.5 115t39.5 96t58 92l12 -13
q-23 -43 -37.5 -86t-19.5 -99q-2 -13 -2 -26q0 -44 15 -87q18 -56 53 -89.5t76 -49t79 -15.5zM599 834l110 -70l-60 -105l-111 70zM765 857l110 -70l-60 -105l-111 70zM644 1007l110 -70l-60 -105l-111 70zM467 -431l110 -70l-60 -105l-111 70zM633 -408l110 -70l-60 -105
l-111 70z" />
    <glyph glyph-name="uniFC50" unicode="&#xfee7;&#xfef2;" horiz-adv-x="987" arabic-form="isolated" 
d="M398 -193q78 0 155.5 23t145 54.5t115.5 54t71.5 40t28.5 27.5q1 3 1 6q0 6 -6 13q-10 9 -77.5 21t-116 16.5t-92.5 8.5l-8 7l33 128l8 8q61 17 96 38.5t48.5 36.5t15.5 31q0 21 -28 64t-91 116l78 112q55 -98 74.5 -145.5t19.5 -104.5q0 -25 -6.5 -48.5t-16 -44.5
t-20.5 -39t-20 -32q75 -14 111 -27.5t52 -50.5t18 -64q-2 -20 -5 -43t-8.5 -46t-13.5 -43t-20 -33q-15 -17 -46.5 -42t-74.5 -52.5t-95 -55.5t-107.5 -50t-112.5 -35.5t-110 -13.5q-60 0 -112.5 22t-91.5 63.5t-61 102.5t-22 139q0 60 17.5 115t39.5 96t58 92l12 -13
q-23 -43 -37.5 -86t-19.5 -99q-2 -13 -2 -26q0 -44 15 -87q18 -56 53 -89.5t76 -49t79 -15.5zM684 885l110 -70l-60 -105l-111 70zM467 -431l110 -70l-60 -105l-111 70zM633 -408l110 -70l-60 -105l-111 70z" />
    <glyph glyph-name="uni0679064A.isol" unicode="&#xfb68;&#xfef2;" horiz-adv-x="987" 
d="M398 -193q78 0 155.5 23t145 54.5t115.5 54t71.5 40t28.5 27.5q1 3 1 6q0 6 -6 13q-10 9 -77.5 21t-116 16.5t-92.5 8.5l-8 7l33 128l8 8q61 17 96 38.5t48.5 36.5t15.5 31q0 21 -28 64t-91 116l78 112q55 -98 74.5 -145.5t19.5 -104.5q0 -25 -6.5 -48.5t-16 -44.5
t-20.5 -39t-20 -32q75 -14 111 -27.5t52 -50.5t18 -64q-2 -20 -5 -43t-8.5 -46t-13.5 -43t-20 -33q-15 -17 -46.5 -42t-74.5 -52.5t-95 -55.5t-107.5 -50t-112.5 -35.5t-110 -13.5q-60 0 -112.5 22t-91.5 63.5t-61 102.5t-22 139q0 60 17.5 115t39.5 96t58 92l12 -13
q-23 -43 -37.5 -86t-19.5 -99q-2 -13 -2 -26q0 -44 15 -87q18 -56 53 -89.5t76 -49t79 -15.5zM692 965q0 -15 2 -25t6 -29.5t7 -40t3 -38.5q0 -6 -1 -13l-3 -21q12 12 27 23.5l30 23t35 21t35 9.5q11 0 19.5 -6t16 -13.5t14.5 -21.5t7 -23q0 -8 -2 -15t-7.5 -19.5t-14 -24.5
t-17.5 -22q-20 -18 -35.5 -25t-39 -10.5t-52 -5.5t-88.5 -2q-7 0 -32 11.5t-55 30.5l1 14h84q4 0 8 1q11 8 15.5 12t15.5 14q4 16 4 25q0 10 -4.5 35t-9.5 52t-8.5 48t-3.5 36q0 7 -7 14l-2 10q0 10 9.5 26t20.5 32q5 -12 15 -27t24 -25q-1 -8 -6 -18t-11 -13zM855 774
q-10 20 -20 30t-23 10q-24 0 -52.5 -19.5t-69.5 -49.5q3 1 11 1h11q54 0 85 4t58 24zM467 -433l110 -70l-60 -105l-111 70zM633 -410l110 -70l-60 -105l-111 70z" />
    <glyph glyph-name="uni067A064A.isol" unicode="&#xfb60;&#xfef2;" horiz-adv-x="987" 
d="M398 -193q78 0 155.5 23t145 54.5t115.5 54t71.5 40t28.5 27.5q1 3 1 6q0 6 -6 13q-10 9 -77.5 21t-116 16.5t-92.5 8.5l-8 7l33 128l8 8q61 17 96 38.5t48.5 36.5t15.5 31q0 21 -28 64t-91 116l78 112q55 -98 74.5 -145.5t19.5 -104.5q0 -25 -6.5 -48.5t-16 -44.5
t-20.5 -39t-20 -32q75 -14 111 -27.5t52 -50.5t18 -64q-2 -20 -5 -43t-8.5 -46t-13.5 -43t-20 -33q-15 -17 -46.5 -42t-74.5 -52.5t-95 -55.5t-107.5 -50t-112.5 -35.5t-110 -13.5q-60 0 -112.5 22t-91.5 63.5t-61 102.5t-22 139q0 60 17.5 115t39.5 96t58 92l12 -13
q-23 -43 -37.5 -86t-19.5 -99q-2 -13 -2 -26q0 -44 15 -87q18 -56 53 -89.5t76 -49t79 -15.5zM669 1061l110 -70l-60 -105l-111 70zM689 878l110 -70l-60 -105l-111 70zM467 -424l110 -70l-60 -105l-111 70zM633 -401l110 -70l-60 -105l-111 70z" />
    <glyph glyph-name="uni067F064A.isol" unicode="&#xfb64;&#xfef2;" horiz-adv-x="987" 
d="M398 -193q78 0 155.5 23t145 54.5t115.5 54t71.5 40t28.5 27.5q1 3 1 6q0 6 -6 13q-10 9 -77.5 21t-116 16.5t-92.5 8.5l-8 7l33 128l8 8q61 17 96 38.5t48.5 36.5t15.5 31q0 21 -28 64t-91 116l78 112q55 -98 74.5 -145.5t19.5 -104.5q0 -25 -6.5 -48.5t-16 -44.5
t-20.5 -39t-20 -32q75 -14 111 -27.5t52 -50.5t18 -64q-2 -20 -5 -43t-8.5 -46t-13.5 -43t-20 -33q-15 -17 -46.5 -42t-74.5 -52.5t-95 -55.5t-107.5 -50t-112.5 -35.5t-110 -13.5q-60 0 -112.5 22t-91.5 63.5t-61 102.5t-22 139q0 60 17.5 115t39.5 96t58 92l12 -13
q-23 -43 -37.5 -86t-19.5 -99q-2 -13 -2 -26q0 -44 15 -87q18 -56 53 -89.5t76 -49t79 -15.5zM567 1042l110 -70l-60 -105l-111 70zM587 859l110 -70l-60 -105l-111 70zM734 1064l110 -70l-60 -105l-111 70zM754 881l110 -70l-60 -105l-111 70zM467 -425l110 -70l-60 -105
l-111 70zM633 -402l110 -70l-60 -105l-111 70z" />
    <glyph glyph-name="uni06260626.isol" unicode="&#xfe8b;&#xfe8a;" horiz-adv-x="987" 
d="M398 -193q78 0 155.5 23t145 54.5t115.5 54t71.5 40t28.5 27.5q1 3 1 6q0 6 -6 13q-10 9 -77.5 21t-116 16.5t-92.5 8.5l-8 7l33 128l8 8q61 17 96 38.5t48.5 36.5t15.5 31q0 21 -28 64t-91 116l78 112q55 -98 74.5 -145.5t19.5 -104.5q0 -25 -6.5 -48.5t-16 -44.5
t-20.5 -39t-20 -32q75 -14 111 -27.5t52 -50.5t18 -64q-2 -20 -5 -43t-8.5 -46t-13.5 -43t-20 -33q-15 -17 -46.5 -42t-74.5 -52.5t-95 -55.5t-107.5 -50t-112.5 -35.5t-110 -13.5q-60 0 -112.5 22t-91.5 63.5t-61 102.5t-22 139q0 60 17.5 115t39.5 96t58 92l12 -13
q-23 -43 -37.5 -86t-19.5 -99q-2 -13 -2 -26q0 -44 15 -87q18 -56 53 -89.5t76 -49t79 -15.5zM728 997q24 -1 32 -14.5t8 -27.5q0 -31 -8 -72h-14q-21 17 -34 19t-21 2t-20.5 -5.5t-24 -13t-19.5 -16.5t-8 -16q0 -11 16 -18t40 -11.5t60 -7.5l102 54l7 -10l-20 -88
l-236 -117v46l53 43q-23 10 -36.5 18t-25 20t-11.5 27q0 32 16 66t40 60t52 44t52 18zM434 678q24 -1 32 -14.5t8 -27.5q0 -31 -8 -72h-14q-21 17 -34 19t-21 2t-20.5 -5.5t-24 -13t-19.5 -16.5t-8 -16q0 -11 16 -18t40 -11.5t60 -7.5l102 54l7 -10l-20 -88l-236 -117v46
l53 43q-23 10 -36.5 18t-25 20t-11.5 27q0 32 16 66t40 60t52 44t52 18z" />
    <glyph glyph-name="uni062A0626.isol" unicode="&#xfe97;&#xfe8a;" horiz-adv-x="987" 
d="M398 -193q78 0 155.5 23t145 54.5t115.5 54t71.5 40t28.5 27.5q1 3 1 6q0 6 -6 13q-10 9 -77.5 21t-116 16.5t-92.5 8.5l-8 7l33 128l8 8q61 17 96 38.5t48.5 36.5t15.5 31q0 21 -28 64t-91 116l78 112q55 -98 74.5 -145.5t19.5 -104.5q0 -25 -6.5 -48.5t-16 -44.5
t-20.5 -39t-20 -32q75 -14 111 -27.5t52 -50.5t18 -64q-2 -20 -5 -43t-8.5 -46t-13.5 -43t-20 -33q-15 -17 -46.5 -42t-74.5 -52.5t-95 -55.5t-107.5 -50t-112.5 -35.5t-110 -13.5q-60 0 -112.5 22t-91.5 63.5t-61 102.5t-22 139q0 60 17.5 115t39.5 96t58 92l12 -13
q-23 -43 -37.5 -86t-19.5 -99q-2 -13 -2 -26q0 -44 15 -87q18 -56 53 -89.5t76 -49t79 -15.5zM608 874l110 -70l-60 -105l-111 70zM774 897l110 -70l-60 -105l-111 70zM435 688q24 -1 32 -14.5t8 -27.5q0 -31 -8 -72h-14q-21 17 -34 19t-21 2t-20.5 -5.5t-24 -13
t-19.5 -16.5t-8 -16q0 -11 16 -18t40 -11.5t60 -7.5l102 54l7 -10l-20 -88l-236 -117v46l53 43q-23 10 -36.5 18t-25 20t-11.5 27q0 32 16 66t40 60t52 44t52 18z" />
    <glyph glyph-name="uni062B0626.isol" unicode="&#xfe9b;&#xfe8a;" horiz-adv-x="987" 
d="M398 -193q78 0 155.5 23t145 54.5t115.5 54t71.5 40t28.5 27.5q1 3 1 6q0 6 -6 13q-10 9 -77.5 21t-116 16.5t-92.5 8.5l-8 7l33 128l8 8q61 17 96 38.5t48.5 36.5t15.5 31q0 21 -28 64t-91 116l78 112q55 -98 74.5 -145.5t19.5 -104.5q0 -25 -6.5 -48.5t-16 -44.5
t-20.5 -39t-20 -32q75 -14 111 -27.5t52 -50.5t18 -64q-2 -20 -5 -43t-8.5 -46t-13.5 -43t-20 -33q-15 -17 -46.5 -42t-74.5 -52.5t-95 -55.5t-107.5 -50t-112.5 -35.5t-110 -13.5q-60 0 -112.5 22t-91.5 63.5t-61 102.5t-22 139q0 60 17.5 115t39.5 96t58 92l12 -13
q-23 -43 -37.5 -86t-19.5 -99q-2 -13 -2 -26q0 -44 15 -87q18 -56 53 -89.5t76 -49t79 -15.5zM599 834l110 -70l-60 -105l-111 70zM765 857l110 -70l-60 -105l-111 70zM644 1007l110 -70l-60 -105l-111 70zM432 683q24 -1 32 -14.5t8 -27.5q0 -31 -8 -72h-14q-21 17 -34 19
t-21 2t-20.5 -5.5t-24 -13t-19.5 -16.5t-8 -16q0 -11 16 -18t40 -11.5t60 -7.5l102 54l7 -10l-20 -88l-236 -117v46l53 43q-23 10 -36.5 18t-25 20t-11.5 27q0 32 16 66t40 60t52 44t52 18z" />
    <glyph glyph-name="uni06460626.isol" unicode="&#xfee7;&#xfe8a;" horiz-adv-x="987" 
d="M398 -193q78 0 155.5 23t145 54.5t115.5 54t71.5 40t28.5 27.5q1 3 1 6q0 6 -6 13q-10 9 -77.5 21t-116 16.5t-92.5 8.5l-8 7l33 128l8 8q61 17 96 38.5t48.5 36.5t15.5 31q0 21 -28 64t-91 116l78 112q55 -98 74.5 -145.5t19.5 -104.5q0 -25 -6.5 -48.5t-16 -44.5
t-20.5 -39t-20 -32q75 -14 111 -27.5t52 -50.5t18 -64q-2 -20 -5 -43t-8.5 -46t-13.5 -43t-20 -33q-15 -17 -46.5 -42t-74.5 -52.5t-95 -55.5t-107.5 -50t-112.5 -35.5t-110 -13.5q-60 0 -112.5 22t-91.5 63.5t-61 102.5t-22 139q0 60 17.5 115t39.5 96t58 92l12 -13
q-23 -43 -37.5 -86t-19.5 -99q-2 -13 -2 -26q0 -44 15 -87q18 -56 53 -89.5t76 -49t79 -15.5zM684 885l110 -70l-60 -105l-111 70zM434 697q24 -1 32 -14.5t8 -27.5q0 -31 -8 -72h-14q-21 17 -34 19t-21 2t-20.5 -5.5t-24 -13t-19.5 -16.5t-8 -16q0 -11 16 -18t40 -11.5
t60 -7.5l102 54l7 -10l-20 -88l-236 -117v46l53 43q-23 10 -36.5 18t-25 20t-11.5 27q0 32 16 66t40 60t52 44t52 18z" />
    <glyph glyph-name="uni06790626.isol" unicode="&#xfb68;&#xfe8a;" horiz-adv-x="987" 
d="M398 -193q78 0 155.5 23t145 54.5t115.5 54t71.5 40t28.5 27.5q1 3 1 6q0 6 -6 13q-10 9 -77.5 21t-116 16.5t-92.5 8.5l-8 7l33 128l8 8q61 17 96 38.5t48.5 36.5t15.5 31q0 21 -28 64t-91 116l78 112q55 -98 74.5 -145.5t19.5 -104.5q0 -25 -6.5 -48.5t-16 -44.5
t-20.5 -39t-20 -32q75 -14 111 -27.5t52 -50.5t18 -64q-2 -20 -5 -43t-8.5 -46t-13.5 -43t-20 -33q-15 -17 -46.5 -42t-74.5 -52.5t-95 -55.5t-107.5 -50t-112.5 -35.5t-110 -13.5q-60 0 -112.5 22t-91.5 63.5t-61 102.5t-22 139q0 60 17.5 115t39.5 96t58 92l12 -13
q-23 -43 -37.5 -86t-19.5 -99q-2 -13 -2 -26q0 -44 15 -87q18 -56 53 -89.5t76 -49t79 -15.5zM692 965q0 -15 2 -25t6 -29.5t7 -40t3 -38.5q0 -6 -1 -13l-3 -21q12 12 27 23.5l30 23t35 21t35 9.5q11 0 19.5 -6t16 -13.5t14.5 -21.5t7 -23q0 -8 -2 -15t-7.5 -19.5t-14 -24.5
t-17.5 -22q-20 -18 -35.5 -25t-39 -10.5t-52 -5.5t-88.5 -2q-7 0 -32 11.5t-55 30.5l1 14h84q4 0 8 1q11 8 15.5 12t15.5 14q4 16 4 25q0 10 -4.5 35t-9.5 52t-8.5 48t-3.5 36q0 7 -7 14l-2 10q0 10 9.5 26t20.5 32q5 -12 15 -27t24 -25q-1 -8 -6 -18t-11 -13zM855 774
q-10 20 -20 30t-23 10q-24 0 -52.5 -19.5t-69.5 -49.5q3 1 11 1h11q54 0 85 4t58 24zM428 686q24 -1 32 -14.5t8 -27.5q0 -31 -8 -72h-14q-21 17 -34 19t-21 2t-20.5 -5.5t-24 -13t-19.5 -16.5t-8 -16q0 -11 16 -18t40 -11.5t60 -7.5l102 54l7 -10l-20 -88l-236 -117v46
l53 43q-23 10 -36.5 18t-25 20t-11.5 27q0 32 16 66t40 60t52 44t52 18z" />
    <glyph glyph-name="uni067A0626.isol" unicode="&#xfb60;&#xfe8a;" horiz-adv-x="987" 
d="M398 -193q78 0 155.5 23t145 54.5t115.5 54t71.5 40t28.5 27.5q1 3 1 6q0 6 -6 13q-10 9 -77.5 21t-116 16.5t-92.5 8.5l-8 7l33 128l8 8q61 17 96 38.5t48.5 36.5t15.5 31q0 21 -28 64t-91 116l78 112q55 -98 74.5 -145.5t19.5 -104.5q0 -25 -6.5 -48.5t-16 -44.5
t-20.5 -39t-20 -32q75 -14 111 -27.5t52 -50.5t18 -64q-2 -20 -5 -43t-8.5 -46t-13.5 -43t-20 -33q-15 -17 -46.5 -42t-74.5 -52.5t-95 -55.5t-107.5 -50t-112.5 -35.5t-110 -13.5q-60 0 -112.5 22t-91.5 63.5t-61 102.5t-22 139q0 60 17.5 115t39.5 96t58 92l12 -13
q-23 -43 -37.5 -86t-19.5 -99q-2 -13 -2 -26q0 -44 15 -87q18 -56 53 -89.5t76 -49t79 -15.5zM669 1061l110 -70l-60 -105l-111 70zM689 878l110 -70l-60 -105l-111 70zM433 691q24 -1 32 -14.5t8 -27.5q0 -31 -8 -72h-14q-21 17 -34 19t-21 2t-20.5 -5.5t-24 -13
t-19.5 -16.5t-8 -16q0 -11 16 -18t40 -11.5t60 -7.5l102 54l7 -10l-20 -88l-236 -117v46l53 43q-23 10 -36.5 18t-25 20t-11.5 27q0 32 16 66t40 60t52 44t52 18z" />
    <glyph glyph-name="uni067F0626.isol" unicode="&#xfb64;&#xfe8a;" horiz-adv-x="987" 
d="M398 -193q78 0 155.5 23t145 54.5t115.5 54t71.5 40t28.5 27.5q1 3 1 6q0 6 -6 13q-10 9 -77.5 21t-116 16.5t-92.5 8.5l-8 7l33 128l8 8q61 17 96 38.5t48.5 36.5t15.5 31q0 21 -28 64t-91 116l78 112q55 -98 74.5 -145.5t19.5 -104.5q0 -25 -6.5 -48.5t-16 -44.5
t-20.5 -39t-20 -32q75 -14 111 -27.5t52 -50.5t18 -64q-2 -20 -5 -43t-8.5 -46t-13.5 -43t-20 -33q-15 -17 -46.5 -42t-74.5 -52.5t-95 -55.5t-107.5 -50t-112.5 -35.5t-110 -13.5q-60 0 -112.5 22t-91.5 63.5t-61 102.5t-22 139q0 60 17.5 115t39.5 96t58 92l12 -13
q-23 -43 -37.5 -86t-19.5 -99q-2 -13 -2 -26q0 -44 15 -87q18 -56 53 -89.5t76 -49t79 -15.5zM567 1042l110 -70l-60 -105l-111 70zM587 859l110 -70l-60 -105l-111 70zM734 1064l110 -70l-60 -105l-111 70zM754 881l110 -70l-60 -105l-111 70zM439 691q24 -1 32 -14.5
t8 -27.5q0 -31 -8 -72h-14q-21 17 -34 19t-21 2t-20.5 -5.5t-24 -13t-19.5 -16.5t-8 -16q0 -11 16 -18t40 -11.5t60 -7.5l102 54l7 -10l-20 -88l-236 -117v46l53 43q-23 10 -36.5 18t-25 20t-11.5 27q0 32 16 66t40 60t52 44t52 18z" />
    <glyph glyph-name="uni062606450627.fina" unicode="&#xfe8c;&#xfee4;&#xfe8e;" 
d="M801 0q-36 0 -70 13.5t-68 60.5q-20 28 -34.5 45.5t-27.5 27t-27 13t-32 3.5q-28 0 -57.5 -13.5t-51 -34t-29.5 -46.5q-4 -10 -4 -19q0 -16 10 -29q14 -21 36 -32.5t39.5 -17t34 -12t28 -14t11.5 -18.5q0 -14 -5 -56t-12.5 -63t-15 -36.5t-11.5 -15.5q-15 0 -45.5 11
t-65.5 33.5t-69.5 49.5t-59 50.5t-41.5 52.5t-28 60t-18.5 68t-16 133t-21.5 277.5t-22.5 301t-24.5 188.5l57 97h8q27 -43 35 -127t11.5 -178.5t14.5 -279t22.5 -277t37.5 -141t55 -60.5l-2 26q0 43 25.5 99t63.5 93t83.5 56.5t86.5 19.5q34 0 54.5 -15.5t38 -37.5
t35.5 -46.5t46 -42.5q13 -8 33 -10.5t27 -2.5zM605 792q24 -1 32 -14.5t8 -27.5q0 -31 -8 -72h-14q-21 17 -34 19t-21 2t-20.5 -5.5t-24 -13t-19.5 -16.5t-8 -16q0 -11 16 -18t40 -11.5t60 -7.5l102 54l7 -10l-20 -88l-236 -117v46l53 43q-23 10 -36.5 18t-25 20t-11.5 27
q0 32 16 66t40 60t52 44t52 18z" />
    <glyph glyph-name="uni062806450627.fina" unicode="&#xfe92;&#xfee4;&#xfe8e;" 
d="M801 0q-36 0 -70 13.5t-68 60.5q-20 28 -34.5 45.5t-27.5 27t-27 13t-32 3.5q-28 0 -57.5 -13.5t-51 -34t-29.5 -46.5q-4 -10 -4 -19q0 -16 10 -29q14 -21 36 -32.5t39.5 -17t34 -12t28 -14t11.5 -18.5q0 -14 -5 -56t-12.5 -63t-15 -36.5t-11.5 -15.5q-15 0 -45.5 11
t-65.5 33.5t-69.5 49.5t-59 50.5t-41.5 52.5t-28 60t-18.5 68t-16 133t-21.5 277.5t-22.5 301t-24.5 188.5l57 97h8q27 -43 35 -127t11.5 -178.5t14.5 -279t22.5 -277t37.5 -141t55 -60.5l-2 26q0 43 25.5 99t63.5 93t83.5 56.5t86.5 19.5q34 0 54.5 -15.5t38 -37.5
t35.5 -46.5t46 -42.5q13 -8 33 -10.5t27 -2.5zM630 -243l110 -70l-60 -105l-111 70z" />
    <glyph glyph-name="uni062A06450627.fina" unicode="&#xfe98;&#xfee4;&#xfe8e;" 
d="M801 0q-36 0 -70 13.5t-68 60.5q-20 28 -34.5 45.5t-27.5 27t-27 13t-32 3.5q-28 0 -57.5 -13.5t-51 -34t-29.5 -46.5q-4 -10 -4 -19q0 -16 10 -29q14 -21 36 -32.5t39.5 -17t34 -12t28 -14t11.5 -18.5q0 -14 -5 -56t-12.5 -63t-15 -36.5t-11.5 -15.5q-15 0 -45.5 11
t-65.5 33.5t-69.5 49.5t-59 50.5t-41.5 52.5t-28 60t-18.5 68t-16 133t-21.5 277.5t-22.5 301t-24.5 188.5l57 97h8q27 -43 35 -127t11.5 -178.5t14.5 -279t22.5 -277t37.5 -141t55 -60.5l-2 26q0 43 25.5 99t63.5 93t83.5 56.5t86.5 19.5q34 0 54.5 -15.5t38 -37.5
t35.5 -46.5t46 -42.5q13 -8 33 -10.5t27 -2.5zM461 617l110 -70l-60 -105l-111 70zM627 640l110 -70l-60 -105l-111 70z" />
    <glyph glyph-name="uni062B06450627.fina" unicode="&#xfe9c;&#xfee4;&#xfe8e;" 
d="M801 0q-36 0 -70 13.5t-68 60.5q-20 28 -34.5 45.5t-27.5 27t-27 13t-32 3.5q-28 0 -57.5 -13.5t-51 -34t-29.5 -46.5q-4 -10 -4 -19q0 -16 10 -29q14 -21 36 -32.5t39.5 -17t34 -12t28 -14t11.5 -18.5q0 -14 -5 -56t-12.5 -63t-15 -36.5t-11.5 -15.5q-15 0 -45.5 11
t-65.5 33.5t-69.5 49.5t-59 50.5t-41.5 52.5t-28 60t-18.5 68t-16 133t-21.5 277.5t-22.5 301t-24.5 188.5l57 97h8q27 -43 35 -127t11.5 -178.5t14.5 -279t22.5 -277t37.5 -141t55 -60.5l-2 26q0 43 25.5 99t63.5 93t83.5 56.5t86.5 19.5q34 0 54.5 -15.5t38 -37.5
t35.5 -46.5t46 -42.5q13 -8 33 -10.5t27 -2.5zM459 623l110 -70l-60 -105l-111 70zM625 646l110 -70l-60 -105l-111 70zM504 796l110 -70l-60 -105l-111 70z" />
    <glyph glyph-name="uni064606450627.fina" unicode="&#xfee8;&#xfee4;&#xfe8e;" 
d="M801 0q-36 0 -70 13.5t-68 60.5q-20 28 -34.5 45.5t-27.5 27t-27 13t-32 3.5q-28 0 -57.5 -13.5t-51 -34t-29.5 -46.5q-4 -10 -4 -19q0 -16 10 -29q14 -21 36 -32.5t39.5 -17t34 -12t28 -14t11.5 -18.5q0 -14 -5 -56t-12.5 -63t-15 -36.5t-11.5 -15.5q-15 0 -45.5 11
t-65.5 33.5t-69.5 49.5t-59 50.5t-41.5 52.5t-28 60t-18.5 68t-16 133t-21.5 277.5t-22.5 301t-24.5 188.5l57 97h8q27 -43 35 -127t11.5 -178.5t14.5 -279t22.5 -277t37.5 -141t55 -60.5l-2 26q0 43 25.5 99t63.5 93t83.5 56.5t86.5 19.5q34 0 54.5 -15.5t38 -37.5
t35.5 -46.5t46 -42.5q13 -8 33 -10.5t27 -2.5zM555 630l110 -70l-60 -105l-111 70z" />
    <glyph glyph-name="uni064A06450627.fina" unicode="&#xfbff;&#xfee4;&#xfe8e;" 
d="M801 0q-36 0 -70 13.5t-68 60.5q-20 28 -34.5 45.5t-27.5 27t-27 13t-32 3.5q-28 0 -57.5 -13.5t-51 -34t-29.5 -46.5q-4 -10 -4 -19q0 -16 10 -29q14 -21 36 -32.5t39.5 -17t34 -12t28 -14t11.5 -18.5q0 -14 -5 -56t-12.5 -63t-15 -36.5t-11.5 -15.5q-15 0 -45.5 11
t-65.5 33.5t-69.5 49.5t-59 50.5t-41.5 52.5t-28 60t-18.5 68t-16 133t-21.5 277.5t-22.5 301t-24.5 188.5l57 97h8q27 -43 35 -127t11.5 -178.5t14.5 -279t22.5 -277t37.5 -141t55 -60.5l-2 26q0 43 25.5 99t63.5 93t83.5 56.5t86.5 19.5q34 0 54.5 -15.5t38 -37.5
t35.5 -46.5t46 -42.5q13 -8 33 -10.5t27 -2.5zM549 -264l110 -70l-60 -105l-111 70zM715 -241l110 -70l-60 -105l-111 70z" />
    <glyph glyph-name="uni067906450627.fina" unicode="&#xfb69;&#xfee4;&#xfe8e;" 
d="M801 0q-36 0 -70 13.5t-68 60.5q-20 28 -34.5 45.5t-27.5 27t-27 13t-32 3.5q-28 0 -57.5 -13.5t-51 -34t-29.5 -46.5q-4 -10 -4 -19q0 -16 10 -29q14 -21 36 -32.5t39.5 -17t34 -12t28 -14t11.5 -18.5q0 -14 -5 -56t-12.5 -63t-15 -36.5t-11.5 -15.5q-15 0 -45.5 11
t-65.5 33.5t-69.5 49.5t-59 50.5t-41.5 52.5t-28 60t-18.5 68t-16 133t-21.5 277.5t-22.5 301t-24.5 188.5l57 97h8q27 -43 35 -127t11.5 -178.5t14.5 -279t22.5 -277t37.5 -141t55 -60.5l-2 26q0 43 25.5 99t63.5 93t83.5 56.5t86.5 19.5q34 0 54.5 -15.5t38 -37.5
t35.5 -46.5t46 -42.5q13 -8 33 -10.5t27 -2.5zM535 725q0 -15 2 -25t6 -29.5t7 -40t3 -38.5q0 -6 -1 -13l-3 -21q12 12 27 23.5l30 23t35 21t35 9.5q11 0 19.5 -6t16 -13.5t14.5 -21.5t7 -23q0 -8 -2 -15t-7.5 -19.5t-14 -24.5t-17.5 -22q-20 -18 -35.5 -25t-39 -10.5
t-52 -5.5t-88.5 -2q-7 0 -32 11.5t-55 30.5l1 14h84q4 0 8 1q11 8 15.5 12t15.5 14q4 16 4 25q0 10 -4.5 35t-9.5 52t-8.5 48t-3.5 36q0 7 -7 14l-2 10q0 10 9.5 26t20.5 32q5 -12 15 -27t24 -25q-1 -8 -6 -18t-11 -13zM698 534q-10 20 -20 30t-23 10q-24 0 -52.5 -19.5
t-69.5 -49.5q3 1 11 1h11q54 0 85 4t58 24z" />
    <glyph glyph-name="uni067A06450627.fina" unicode="&#xfb61;&#xfee4;&#xfe8e;" 
d="M801 0q-36 0 -70 13.5t-68 60.5q-20 28 -34.5 45.5t-27.5 27t-27 13t-32 3.5q-28 0 -57.5 -13.5t-51 -34t-29.5 -46.5q-4 -10 -4 -19q0 -16 10 -29q14 -21 36 -32.5t39.5 -17t34 -12t28 -14t11.5 -18.5q0 -14 -5 -56t-12.5 -63t-15 -36.5t-11.5 -15.5q-15 0 -45.5 11
t-65.5 33.5t-69.5 49.5t-59 50.5t-41.5 52.5t-28 60t-18.5 68t-16 133t-21.5 277.5t-22.5 301t-24.5 188.5l57 97h8q27 -43 35 -127t11.5 -178.5t14.5 -279t22.5 -277t37.5 -141t55 -60.5l-2 26q0 43 25.5 99t63.5 93t83.5 56.5t86.5 19.5q34 0 54.5 -15.5t38 -37.5
t35.5 -46.5t46 -42.5q13 -8 33 -10.5t27 -2.5zM548 778l110 -70l-60 -105l-111 70zM568 595l110 -70l-60 -105l-111 70z" />
    <glyph glyph-name="uni067F06450627.fina" unicode="&#xfb65;&#xfee4;&#xfe8e;" 
d="M801 0q-36 0 -70 13.5t-68 60.5q-20 28 -34.5 45.5t-27.5 27t-27 13t-32 3.5q-28 0 -57.5 -13.5t-51 -34t-29.5 -46.5q-4 -10 -4 -19q0 -16 10 -29q14 -21 36 -32.5t39.5 -17t34 -12t28 -14t11.5 -18.5q0 -14 -5 -56t-12.5 -63t-15 -36.5t-11.5 -15.5q-15 0 -45.5 11
t-65.5 33.5t-69.5 49.5t-59 50.5t-41.5 52.5t-28 60t-18.5 68t-16 133t-21.5 277.5t-22.5 301t-24.5 188.5l57 97h8q27 -43 35 -127t11.5 -178.5t14.5 -279t22.5 -277t37.5 -141t55 -60.5l-2 26q0 43 25.5 99t63.5 93t83.5 56.5t86.5 19.5q34 0 54.5 -15.5t38 -37.5
t35.5 -46.5t46 -42.5q13 -8 33 -10.5t27 -2.5zM416 798l110 -70l-60 -105l-111 70zM436 615l110 -70l-60 -105l-111 70zM583 820l110 -70l-60 -105l-111 70zM603 637l110 -70l-60 -105l-111 70z" />
    <glyph glyph-name="uniFC66" unicode="&#xfe8c;&#xfee2;" horiz-adv-x="786" arabic-form="final" 
d="M786 0q-29 0 -63.5 17.5t-66.5 60.5q-32 57 -60 93q-28 34 -80 34h-3q-54 -1 -92.5 -10t-96.5 -54q57 -16 96 -40.5t52.5 -37t13.5 -15.5q0 -10 -4 -28.5t-9.5 -47.5t-11.5 -43t-10 -15q-4 -2 -26.5 -4t-54 -6t-68.5 -9.5t-69.5 -15.5t-48.5 -33t-19 -49q-2 -18 -2 -37
q0 -10 1 -19q1 -30 6.5 -72t12.5 -88.5t12.5 -91.5t11.5 -89q4 -32 4 -62q0 -11 -1 -21q-2 -40 -7 -58t-14.5 -28t-14.5 -10t-8.5 13.5t-7 36t-14 106.5t-15.5 118.5t-10 71.5t-9.5 71t-7 62t-2.5 45q0 52 3 86t13 65.5t32.5 61t57 42.5t55.5 17.5t50 11.5q-42 10 -68 10
q-27 0 -64 -10l-7 14q0 9 10 40.5t36.5 74t68 82.5t88.5 65.5t99 42t113 16.5q36 -1 62.5 -28.5t47 -65.5t33.5 -62.5t43 -41.5q13 -8 26.5 -10t20.5 -2zM607 816q24 -1 32 -14.5t8 -27.5q0 -31 -8 -72h-14q-21 17 -34 19t-21 2t-20.5 -5.5t-24 -13t-19.5 -16.5t-8 -16
q0 -11 16 -18t40 -11.5t60 -7.5l102 54l7 -10l-20 -88l-236 -117v46l53 43q-23 10 -36.5 18t-25 20t-11.5 27q0 32 16 66t40 60t52 44t52 18z" />
    <glyph glyph-name="uniFC6C" unicode="&#xfe92;&#xfee2;" horiz-adv-x="786" arabic-form="final" 
d="M786 0q-29 0 -63.5 17.5t-66.5 60.5q-32 57 -60 93q-28 34 -80 34h-3q-54 -1 -92.5 -10t-96.5 -54q57 -16 96 -40.5t52.5 -37t13.5 -15.5q0 -10 -4 -28.5t-9.5 -47.5t-11.5 -43t-10 -15q-4 -2 -26.5 -4t-54 -6t-68.5 -9.5t-69.5 -15.5t-48.5 -33t-19 -49q-2 -18 -2 -37
q0 -10 1 -19q1 -30 6.5 -72t12.5 -88.5t12.5 -91.5t11.5 -89q4 -32 4 -62q0 -11 -1 -21q-2 -40 -7 -58t-14.5 -28t-14.5 -10t-8.5 13.5t-7 36t-14 106.5t-15.5 118.5t-10 71.5t-9.5 71t-7 62t-2.5 45q0 52 3 86t13 65.5t32.5 61t57 42.5t55.5 17.5t50 11.5q-42 10 -68 10
q-27 0 -64 -10l-7 14q0 9 10 40.5t36.5 74t68 82.5t88.5 65.5t99 42t113 16.5q36 -1 62.5 -28.5t47 -65.5t33.5 -62.5t43 -41.5q13 -8 26.5 -10t20.5 -2zM577 -136l110 -70l-60 -105l-111 70z" />
    <glyph glyph-name="uniFC72" unicode="&#xfe98;&#xfee2;" horiz-adv-x="786" arabic-form="final" 
d="M786 0q-29 0 -63.5 17.5t-66.5 60.5q-32 57 -60 93q-28 34 -80 34h-3q-54 -1 -92.5 -10t-96.5 -54q57 -16 96 -40.5t52.5 -37t13.5 -15.5q0 -10 -4 -28.5t-9.5 -47.5t-11.5 -43t-10 -15q-4 -2 -26.5 -4t-54 -6t-68.5 -9.5t-69.5 -15.5t-48.5 -33t-19 -49q-2 -18 -2 -37
q0 -10 1 -19q1 -30 6.5 -72t12.5 -88.5t12.5 -91.5t11.5 -89q4 -32 4 -62q0 -11 -1 -21q-2 -40 -7 -58t-14.5 -28t-14.5 -10t-8.5 13.5t-7 36t-14 106.5t-15.5 118.5t-10 71.5t-9.5 71t-7 62t-2.5 45q0 52 3 86t13 65.5t32.5 61t57 42.5t55.5 17.5t50 11.5q-42 10 -68 10
q-27 0 -64 -10l-7 14q0 9 10 40.5t36.5 74t68 82.5t88.5 65.5t99 42t113 16.5q36 -1 62.5 -28.5t47 -65.5t33.5 -62.5t43 -41.5q13 -8 26.5 -10t20.5 -2zM467 703l110 -70l-60 -105l-111 70zM633 726l110 -70l-60 -105l-111 70z" />
    <glyph glyph-name="uniFC78" unicode="&#xfe9c;&#xfee2;" horiz-adv-x="786" arabic-form="final" 
d="M786 0q-29 0 -63.5 17.5t-66.5 60.5q-32 57 -60 93q-28 34 -80 34h-3q-54 -1 -92.5 -10t-96.5 -54q57 -16 96 -40.5t52.5 -37t13.5 -15.5q0 -10 -4 -28.5t-9.5 -47.5t-11.5 -43t-10 -15q-4 -2 -26.5 -4t-54 -6t-68.5 -9.5t-69.5 -15.5t-48.5 -33t-19 -49q-2 -18 -2 -37
q0 -10 1 -19q1 -30 6.5 -72t12.5 -88.5t12.5 -91.5t11.5 -89q4 -32 4 -62q0 -11 -1 -21q-2 -40 -7 -58t-14.5 -28t-14.5 -10t-8.5 13.5t-7 36t-14 106.5t-15.5 118.5t-10 71.5t-9.5 71t-7 62t-2.5 45q0 52 3 86t13 65.5t32.5 61t57 42.5t55.5 17.5t50 11.5q-42 10 -68 10
q-27 0 -64 -10l-7 14q0 9 10 40.5t36.5 74t68 82.5t88.5 65.5t99 42t113 16.5q36 -1 62.5 -28.5t47 -65.5t33.5 -62.5t43 -41.5q13 -8 26.5 -10t20.5 -2zM450 673l110 -70l-60 -105l-111 70zM616 696l110 -70l-60 -105l-111 70zM495 846l110 -70l-60 -105l-111 70z" />
    <glyph glyph-name="uniFC8C" unicode="&#xfee8;&#xfee2;" horiz-adv-x="786" arabic-form="final" 
d="M786 0q-29 0 -63.5 17.5t-66.5 60.5q-32 57 -60 93q-28 34 -80 34h-3q-54 -1 -92.5 -10t-96.5 -54q57 -16 96 -40.5t52.5 -37t13.5 -15.5q0 -10 -4 -28.5t-9.5 -47.5t-11.5 -43t-10 -15q-4 -2 -26.5 -4t-54 -6t-68.5 -9.5t-69.5 -15.5t-48.5 -33t-19 -49q-2 -18 -2 -37
q0 -10 1 -19q1 -30 6.5 -72t12.5 -88.5t12.5 -91.5t11.5 -89q4 -32 4 -62q0 -11 -1 -21q-2 -40 -7 -58t-14.5 -28t-14.5 -10t-8.5 13.5t-7 36t-14 106.5t-15.5 118.5t-10 71.5t-9.5 71t-7 62t-2.5 45q0 52 3 86t13 65.5t32.5 61t57 42.5t55.5 17.5t50 11.5q-42 10 -68 10
q-27 0 -64 -10l-7 14q0 9 10 40.5t36.5 74t68 82.5t88.5 65.5t99 42t113 16.5q36 -1 62.5 -28.5t47 -65.5t33.5 -62.5t43 -41.5q13 -8 26.5 -10t20.5 -2zM559 695l110 -70l-60 -105l-111 70z" />
    </font>
</defs>
</svg>
