<?xml version="1.0" standalone="no"?>
<!DOCTYPE svg PUBLIC "-//W3C//DTD SVG 1.1//EN" "http://www.w3.org/Graphics/SVG/1.1/DTD/svg11.dtd" >
<svg xmlns="http://www.w3.org/2000/svg" xmlns:xlink="http://www.w3.org/1999/xlink" version="1.1">
<metadata>
Created by FontForge 20170924 at Thu Feb 12 22:47:49 2004
 By www-data
Uyghur Computer Science Association. Free distributed and all rights reserved. http://www.ukij.org
</metadata>
<defs>
<font id="UKIJSulus" horiz-adv-x="1983" >
  <font-face 
    font-family="UKIJ Sulus"
    font-weight="400"
    font-stretch="normal"
    units-per-em="2048"
    panose-1="2 2 6 3 5 4 5 2 3 4"
    ascent="1638"
    descent="-410"
    x-height="982"
    cap-height="1488"
    bbox="-774 -920 2552 2076"
    underline-thickness="100"
    underline-position="-700"
    unicode-range="U+0020-FEFC"
  />
<missing-glyph horiz-adv-x="1620" 
d="M284 211v1313h1051v-1313h-1051zM318 243h984v1247h-984v-1247z" />
    <glyph glyph-name="uni2163" unicode="&#x651;&#x64b;" horiz-adv-x="1931" 
d="M1804 1552q-130 0 -157 -106l-407 -1268l-388 1202q-66 172 -167 172v51h432v-51q-173 0 -124 -148l283 -896l266 846q14 68 35 133t-119 65v51h346v-51zM273 291v1203q-18 58 -175 58v51h497v-51q-148 0 -175 -49v-1194q19 -48 175 -48v-51h-497v51q157 0 175 30z" />
    <glyph glyph-name="uni2467" unicode="&#x651;&#x64c;" 
d="M992 1594q220 0 412 -111.5t302.5 -303t110.5 -411.5q0 -219 -111 -410.5t-303 -302t-411 -110.5q-220 0 -412 110.5t-303 302t-111 410.5q0 220 110.5 412t302.5 303t413 111zM992 69q286 0 494 206.5t208 492.5q0 187 -95 350t-257.5 257.5t-349.5 94.5
q-290 0 -496 -207t-206 -495q0 -286 207.5 -492.5t494.5 -206.5zM1118 813q171 -55 171 -234q0 -120 -83.5 -199t-216.5 -79q-134 0 -218 80.5t-84 201.5q0 87 47.5 151t127.5 79v3q-139 42 -139 184q0 101 72.5 169t190.5 68q120 0 193.5 -69t73.5 -170q0 -136 -135 -182
v-3zM989 856q64 0 106.5 41t42.5 101q0 62 -44 105.5t-106 43.5q-64 0 -106.5 -42.5t-42.5 -99.5q0 -68 44 -108.5t106 -40.5zM989 394q79 0 132 51t53 134q0 82 -54.5 133.5t-133.5 51.5q-81 0 -132.5 -54t-51.5 -130q0 -79 52 -132.5t135 -53.5z" />
    <glyph glyph-name="uni2468" unicode="&#x651;&#x64d;" 
d="M992 1594q220 0 412 -111.5t302.5 -303t110.5 -411.5q0 -219 -111 -410.5t-303 -302t-411 -110.5q-220 0 -412 110.5t-303 302t-111 410.5q0 220 110.5 412t302.5 303t413 111zM992 69q286 0 494 206.5t208 492.5q0 187 -95 350t-257.5 257.5t-349.5 94.5
q-290 0 -496 -207t-206 -495q0 -286 207.5 -492.5t494.5 -206.5zM1188 748q-79 -121 -216 -121q-114 0 -193 83t-79 218q0 136 80.5 222.5t207.5 86.5q128 0 220.5 -98t92.5 -346q0 -246 -81.5 -369t-244.5 -123q-105 0 -174.5 56.5t-84.5 172.5l108 7q25 -143 152 -143
q102 0 158.5 93t56.5 261h-3zM998 727q82 0 131 58t49 148q0 91 -50 152.5t-127 61.5q-79 0 -133 -65.5t-54 -157.5q0 -87 53.5 -142t130.5 -55z" />
    <glyph glyph-name="uni2469" unicode="&#x651;&#x64e;" 
d="M992 1594q220 0 412 -111.5t302.5 -303t110.5 -411.5q0 -219 -111 -410.5t-303 -302t-411 -110.5q-220 0 -412 110.5t-303 302t-111 410.5q0 220 110.5 412t302.5 303t413 111zM992 69q286 0 494 206.5t208 492.5q0 187 -95 350t-257.5 257.5t-349.5 94.5
q-290 0 -496 -207t-206 -495q0 -286 207.5 -492.5t494.5 -206.5zM1197 1237q147 0 222 -117.5t75 -351.5q0 -233 -75 -350t-222 -117q-150 0 -225 117t-75 350q0 234 75 351.5t225 117.5zM1197 394q91 0 136.5 93t45.5 281q0 202 -46.5 290.5t-138.5 88.5q-90 0 -135.5 -90
t-45.5 -289q0 -200 46.5 -287t137.5 -87zM785 316h-113v718q-85 -79 -226 -136v108q194 95 266 231h73v-921z" />
    <glyph glyph-name="uni246A" unicode="&#x651;&#x64f;" 
d="M992 1594q220 0 412 -111.5t302.5 -303t110.5 -411.5q0 -219 -111 -410.5t-303 -302t-411 -110.5q-220 0 -412 110.5t-303 302t-111 410.5q0 220 110.5 412t302.5 303t413 111zM992 69q286 0 494 206.5t208 492.5q0 187 -95 350t-257.5 257.5t-349.5 94.5
q-290 0 -496 -207t-206 -495q0 -286 207.5 -492.5t494.5 -206.5zM1329 316h-113v718q-85 -79 -227 -136v108q195 95 267 231h73v-921zM839 316h-111v718q-86 -79 -227 -136v108q193 95 266 231h72v-921z" />
    <glyph glyph-name="uni246B" unicode="&#x651;&#x650;" 
d="M992 1594q220 0 412 -111.5t302.5 -303t110.5 -411.5q0 -219 -111 -410.5t-303 -302t-411 -110.5q-220 0 -412 110.5t-303 302t-111 410.5q0 220 110.5 412t302.5 303t413 111zM992 69q286 0 494 206.5t208 492.5q0 187 -95 350t-257.5 257.5t-349.5 94.5
q-290 0 -496 -207t-206 -495q0 -286 207.5 -492.5t494.5 -206.5zM1490 316h-608q0 78 53.5 156t204.5 202q99 79 165.5 154.5t66.5 156.5q0 69 -48.5 115.5t-123.5 46.5t-126.5 -47t-51.5 -142l-117 15q11 125 90 194.5t208 69.5q134 0 209.5 -74t75.5 -181
q0 -90 -55 -168.5t-169 -173.5q-148 -123 -175 -149.5t-51 -66.5h452v-108zM770 316h-113v718q-85 -79 -227 -136v108q193 95 266 231h74v-921z" />
    <glyph glyph-name="afii64184" unicode="&#xfedf;&#xfee0;&#xfeea;" horiz-adv-x="1463" arabic-form="isolated" 
d="M1154 1716l-5 -44q-24 -20 -40 -33q-56 -42 -142 -85l-428 -221l4 43q35 20 72 40q24 14 171 88q129 68 182 93q73 35 137 79q20 13 49 40zM992 1276q1 -18 1 -24q0 -21 -13 -37q-7 -8 -12 -12q-11 -7 -26 -7q-13 0 -21 5.5t-25 36.5l-6 -25q-3 -17 -14 -26.5t-34 -9.5
q-17 0 -27 11q-2 0 -12 14q-12 19 -14.5 58t-2.5 91q0 27 5 27q6 0 10.5 -7.5t8.5 -17.5q5 -29 6 -43t1 -52q0 -6 9.5 -15.5t15.5 -9.5q15 0 25 9.5t10 14.5q0 25 -5.5 50t-10.5 44q0 33 16 33q11 0 13 -24l4 -37q13 -31 19 -43q14 -22 30 -26q8 -2 10 -2q6 0 9 8
q-1 13 -15 42.5t-18 48.5q-3 9 2.5 28.5t13.5 19.5q10 0 14 -33q2 -7 16.5 -38.5t16.5 -51.5zM1155 559q0 -126 -40 -187q-46 -71 -147 -71q-93 0 -153 93q-40 63 -53 140q-12 -68 -31 -119q-28 -78 -72 -123q-56 -56 -136 -56q-88 0 -145.5 71.5t-57.5 190.5q0 62 15 130.5
t15 86.5q0 15 -2 23q-42 -32 -65 -164q-38 -220 -40 -224q-30 -113 -92 -113q-67 0 -113 105q-37 88 -37 229q0 29 8 68.5t17 39.5q3 0 5 -4q7 -9 7 -30q0 -9 -1.5 -22t-1.5 -28q0 -84 19 -161q24 -96 69 -108q12 -2 16 -2q54 0 80 120q24 124 48 252q39 148 117 196
q12 8 17.5 -10t5.5 -38q0 -26 -17.5 -128t-17.5 -145q0 -67 27 -119q44 -80 136 -80q61 0 120 52q77 65 77 176q0 50 -37 186q-12 43 -38 128q0 7 5 34.5t12 56.5q6 19 15 19q20 0 57 -99q34 -88 40.5 -139.5t14.5 -110.5q18 -103 51 -159q48 -83 121 -83h19q43 0 67 7
q35 10 35 40v12q-3 13 -32 88q-55 147 -82 207q-3 12 -8 42t-10 54q-9 12 -17 32q-7 10 -16 28q13 49 24 101q0 15 6 15q3 0 24 -21q31 -33 71 -91.5t40 -76.5q0 -10 -9 -6q-23 10 -32 19q-9 11 -18 20q6 -44 39 -110q25 -55 51 -112q30 -67 30 -122zM1368 537
q0 -120 -8 -201t-22.5 -108t-21.5 -27q-5 0 -5 21q0 18 3 37q3 42 3 60v27v35q-1 23 -3 34q-6 77 -24 206q-25 199 -28 223q-20 150 -30 252q-3 34 -15 182q-4 55 -8 98q-2 2 -9 24q-5 10 -16 31q-5 6 2.5 32t26.5 85q2 6 6 6q6 0 14.5 -17t11.5 -22q47 -97 73.5 -158
t26.5 -81q0 -8 -6 -8q-4 0 -13 7t-22.5 18.5t-25.5 23.5q0 -21 18 -158t36 -280q25 -197 36 -342z" />
    <glyph glyph-name="afii62834" unicode="&#xfedf;&#xfe82;" horiz-adv-x="891" arabic-form="isolated" 
 />
    <glyph glyph-name="afii62835" unicode="&#xfee0;&#xfe82;" horiz-adv-x="1106" arabic-form="final" 
 />
    <glyph glyph-name="afii62836" unicode="&#xfedf;&#xfe84;" horiz-adv-x="1004" arabic-form="isolated" 
d="M715 237l-42 -1l-9 -41q-17 -99 -81 -168q-123 -113 -290 -223q-149 -97 -247 -135q-94 -13 -170 -31q-99 -24 -191 -57q-18 -8 -30.5 -11t-23.5 -3q-15 0 -15 6q0 14 55 37t136 59q88 42 185 90q133 69 288 168q148 92 248 169q104 79 104 100q-3 16 -5 22t-8 18
q-73 0 -133.5 3.5t-84.5 14.5t-46 37q-24 30 -24 57q0 79 48.5 146.5t101.5 67.5q37 0 95 -58q62 -65 84 -138l55 2v-131zM533 368l-21 29q-7 12 -22 21t-29 9q-27 0 -40 -15q-7 -10 -7 -27q7 -7 41.5 -12t77.5 -5zM426 687l-208 259l36 8l167 -143l112 181l35 4l-130 -308z
M925 591v-15q0 -65 -9 -112q-10 -83 -44 -129t-72 -70q-43 -28 -96 -28v131q77 0 114 19q30 17 49 61q3 6 3 20q0 50 -20 211q-14 119 -38 294q-13 89 -25 179q-4 27 -10 82q-13 126 -13 196q-8 14 -10.5 16.5t-7.5 10t-5 20.5q0 25 30 116q3 6 6 6q4 0 13 -15q6 -12 12 -27
q24 -45 53 -116q42 -93 42 -118q0 -8 -6 -8q-3 0 -12 5q-12 9 -24.5 24t-24.5 31q0 -24 24 -181q31 -208 46 -318q25 -195 25 -285z" />
    <glyph glyph-name="afii62837" unicode="&#xfee0;&#xfe84;" horiz-adv-x="1139" arabic-form="final" 
d="M715 237l-42 -1l-9 -41q-17 -99 -81 -168q-123 -113 -290 -223q-149 -97 -247 -135q-94 -13 -170 -31q-99 -24 -191 -57q-18 -8 -30.5 -11t-23.5 -3q-15 0 -15 6q0 14 55 37t136 59q88 42 185 90q133 69 288 168q148 92 248 169q104 79 104 100q-3 16 -5 22t-8 18
q-73 0 -133.5 3.5t-84.5 14.5t-46 37q-24 30 -24 57q0 79 48.5 146.5t101.5 67.5q37 0 95 -58q62 -65 84 -138l55 2v-131zM533 368l-21 29q-7 12 -22 21t-29 9q-27 0 -40 -15q-7 -10 -7 -27q7 -7 41.5 -12t77.5 -5zM426 687l-208 259l36 8l167 -143l112 181l35 4l-130 -308z
M1164 237q-46 0 -99 30.5t-72 72.5q-41 83 -62 170l-6 -58q-4 -35 -22 -77q-21 -49 -42 -65q-32 -33 -79 -53t-84 -20v131q25 0 68.5 8.5t58.5 20.5q42 30 48 36q13 13 17 25q0 30 0.5 75.5t0.5 97.5q0 38 -3.5 80t-10.5 82q-10 81 -20.5 166t-20.5 155q-13 117 -28 219.5
t-18 113.5q-15 101 -15 110q0 6 9 52q9 33 15 65q3 6 7 6q23 0 52 -158q12 -57 27 -165q25 -159 49 -359q11 -80 16 -161q16 -156 20 -191q17 -138 84 -218q56 -60 110 -60v-131z" />
    <glyph glyph-name="afii62838" unicode="&#xfedf;&#xfe88;" horiz-adv-x="1004" arabic-form="isolated" 
d="M715 237l-42 -1l-9 -41q-17 -99 -81 -168q-123 -113 -290 -223q-149 -97 -247 -135q-94 -13 -170 -31q-99 -24 -191 -57q-18 -8 -30.5 -11t-23.5 -3q-15 0 -15 6q0 14 55 37t136 59q88 42 185 90q133 69 288 168q148 92 248 169q104 79 104 100q-3 16 -5 22t-8 18
q-73 0 -133.5 3.5t-84.5 14.5t-46 37q-24 30 -24 57q0 79 48.5 146.5t101.5 67.5q37 0 95 -58q62 -65 84 -138l55 2v-131zM533 368l-21 29q-7 12 -22 21t-29 9q-27 0 -40 -15q-7 -10 -7 -27q7 -7 41.5 -12t77.5 -5zM925 591v-15q0 -65 -9 -112q-10 -83 -44 -129t-72 -70
q-43 -28 -96 -28v131q77 0 114 19q30 17 49 61q3 6 3 20q0 50 -20 211q-14 119 -38 294q-13 89 -25 179q-4 27 -10 82q-13 126 -13 196q-8 14 -10.5 16.5t-7.5 10t-5 20.5q0 25 30 116q3 6 6 6q4 0 13 -15q6 -12 12 -27q24 -45 53 -116q42 -93 42 -118q0 -8 -6 -8
q-3 0 -12 5q-12 9 -24.5 24t-24.5 31q0 -24 24 -181q31 -208 46 -318q25 -195 25 -285zM616 895q0 -12 -12 -48q-16 -45 -32 -64q-38 19 -73 41q-51 30 -51 44q12 34 18 50q19 51 26 51q41 -19 61 -29q63 -28 63 -45zM463 1034q0 -30 -10.5 -60.5t-27.5 -49.5
q-54 26 -109 55q-27 15 -27 32q6 24 11 39q19 61 24 76q23 -20 90 -51q49 -24 49 -41zM430 844q0 -24 -13 -59t-31 -35q-7 0 -67 36q-65 37 -65 52q0 6 22 56q12 31 26 56q26 -25 87 -60q41 -24 41 -46z" />
    <glyph glyph-name="afii62839" unicode="&#xfee0;&#xfe88;" horiz-adv-x="1139" arabic-form="final" 
d="M715 237l-42 -1l-9 -41q-17 -99 -81 -168q-123 -113 -290 -223q-149 -97 -247 -135q-94 -13 -170 -31q-99 -24 -191 -57q-18 -8 -30.5 -11t-23.5 -3q-15 0 -15 6q0 14 55 37t136 59q88 42 185 90q133 69 288 168q148 92 248 169q104 79 104 100q-3 16 -5 22t-8 18
q-73 0 -133.5 3.5t-84.5 14.5t-46 37q-24 30 -24 57q0 79 48.5 146.5t101.5 67.5q37 0 95 -58q62 -65 84 -138l55 2v-131zM533 368l-21 29q-7 12 -22 21t-29 9q-27 0 -40 -15q-7 -10 -7 -27q7 -7 41.5 -12t77.5 -5zM1164 237q-46 0 -99 30.5t-72 72.5q-41 83 -62 170l-6 -58
q-4 -35 -22 -77q-21 -49 -42 -65q-32 -33 -79 -53t-84 -20v131q25 0 68.5 8.5t58.5 20.5q42 30 48 36q13 13 17 25q0 30 0.5 75.5t0.5 97.5q0 38 -3.5 80t-10.5 82q-10 81 -20.5 166t-20.5 155q-13 117 -28 219.5t-18 113.5q-15 101 -15 110q0 6 9 52q9 33 15 65q3 6 7 6
q23 0 52 -158q12 -57 27 -165q25 -159 49 -359q11 -80 16 -161q16 -156 20 -191q17 -138 84 -218q56 -60 110 -60v-131zM616 895q0 -12 -12 -48q-16 -45 -32 -64q-38 19 -73 41q-51 30 -51 44q12 34 18 50q19 51 26 51q41 -19 61 -29q63 -28 63 -45zM463 1034
q0 -30 -10.5 -60.5t-27.5 -49.5q-54 26 -109 55q-27 15 -27 32q6 24 11 39q19 61 24 76q23 -20 90 -51q49 -24 49 -41zM430 844q0 -24 -13 -59t-31 -35q-7 0 -67 36q-65 37 -65 52q0 6 22 56q12 31 26 56q26 -25 87 -60q41 -24 41 -46z" />
    <glyph glyph-name="afii62840" unicode="&#xfedf;&#xfe8e;" horiz-adv-x="1064" arabic-form="isolated" 
d="M1311 1648q18 34 24 34q3 0 3 -12q0 -19 -9.5 -59.5t-21.5 -66.5q-15 -34 -61 -104q-61 -93 -164 -233q-94 -125 -159 -207q-73 -91 -145 -182q-58 -74 -118 -149q27 -27 42.5 -53.5t21.5 -53.5t9.5 -53.5t3.5 -50.5q0 -59 -23 -104q-14 -28 -80 -72.5t-100 -44.5
q-40 0 -58 29.5t-18 77.5q0 43 14 98q10 41 19 68q4 15 23.5 44.5t49.5 72.5q-37 33 -144 120q-114 94 -159 132q-85 76 -148 143q-57 59 -110 121q-50 63 -71 91q-7 0 -18.5 7.5t-11.5 12.5q0 22 4 51.5t4 54.5q15 0 31 -1q27 -15 76 -50q35 -21 72 -41q43 -25 43 -37
q0 -4 -13 -4l-71 -2q17 -22 40 -42q42 -42 100 -97q70 -66 132 -117q45 -38 110 -93q83 -68 104 -87q52 -45 89 -81q29 39 124 164q72 91 140 184q46 56 139 182q107 143 192 264q74 107 93 146zM702 446q0 28 -27 67q-23 30 -71 78q-36 -48 -67 -96q-40 -59 -40 -87
q0 -16 11 -28t35 -12q38 0 99.5 36t59.5 42z" />
    <glyph glyph-name="afii62841" unicode="&#xfee0;&#xfe8e;" horiz-adv-x="1049" arabic-form="final" 
d="M1051 237q-45 0 -87.5 21.5t-68.5 59.5q-33 50 -57 141q-19 75 -37 208q-8 -63 -20 -112.5t-30 -98t-75 -119.5q-79 -103 -159 -141q-57 -24 -118 -52q-66 -33 -107 -54q-35 -18 -45 -18l4 14q11 14 35 31q153 120 190 150q116 99 169 161q46 55 73 96q34 52 37.5 77.5
t3.5 80.5q0 76 -8.5 183.5t-36 222.5t-49.5 232q-16 80 -30 159q-8 41 -15 83q-3 8 6 40q11 55 15 81q4 16 8 16q18 0 51 -137q30 -122 49 -245q64 -321 83 -414q18 -137 30 -253q16 -158 69 -227q45 -55 120 -55v-131zM737 673q0 -43 -1.5 -60t-5.5 -17q-3 0 -12 22
q-21 57 -27 64q-30 50 -44 71q-26 36 -52 61q-54 54 -153 144q-134 123 -168 156q-98 92 -191 185q-55 55 -93 104t-80 109q-9 4 -23 22t-36 26q-4 2 0 12q4 40 4 60v25q-3 13 -4 17q4 2 7 4q35 -24 43 -27q46 -24 101 -64q68 -47 68 -62q0 -9 -14 -9l-16 3q-13 3 -23 4.5
t-21 2.5q15 -30 111 -121q62 -61 219 -208q183 -169 254 -239q87 -80 127 -172q30 -65 30 -113z" />
    <glyph glyph-name="afii62882" unicode="&#xfc5e;" horiz-adv-x="381" arabic-form="isolated" 
 />
    <glyph glyph-name="afii62883" unicode="&#xfc5f;" horiz-adv-x="360" arabic-form="isolated" 
 />
    <glyph glyph-name="afii62884" unicode="&#xfc60;" horiz-adv-x="360" arabic-form="isolated" 
 />
    <glyph glyph-name="afii57506" unicode="&#x67e;" horiz-adv-x="1279" arabic-form="isolated" 
d="M828 -6q0 -16 -11 -52q-14 -43 -33 -60q-46 23 -71 39q-50 29 -50 45q9 34 15 49q21 49 30 49q41 -18 60 -27q60 -31 60 -43zM813 -203q0 -26 -11 -58.5t-27 -50.5q-52 28 -106 55q-28 16 -28 34l35 113q20 -21 90 -50q47 -24 47 -43zM646 -60q0 -22 -12.5 -58t-32.5 -36
q-7 0 -66 36q-66 36 -66 52q0 6 12 36.5t34 78.5q28 -28 89 -63q42 -23 42 -46zM1257 646q0 -66 -12 -105q-15 -52 -50 -78q-57 -48 -132.5 -87t-188.5 -78q-57 -15 -130 -36q-97 -25 -185 -42q-116 -22 -189 -22q-178 0 -276 91q-95 84 -95 229q0 42 17 106t39 112
q4 6 9.5 14t7.5 8q3 0 3 -8v-14q-15 -73 -19.5 -112.5t-4.5 -61.5q0 -114 110 -178q92 -56 217 -56q87 0 195 17.5t228 53.5q152 43 268 90q144 60 144 87q0 34 -27 78q-33 43 -63 84q0 4 11.5 47.5t12.5 58.5q36 -7 73 -80t37 -118z" />
    <glyph glyph-name="afii62958" unicode="&#x67e;" horiz-adv-x="1553" arabic-form="final" 
d="M1553 237q-29 0 -47 3q-49 7 -77 25q-37 26 -53.5 66.5t-16.5 89.5q0 12 0.5 17.5t2.5 29.5q-115 -60 -245 -112q-153 -61 -291 -95q-160 -37 -292 -37q-209 0 -325 72q-126 79 -126 235q0 31 14 89q17 85 53 133q4 6 9 6q9 0 9 -9q0 -4 -2 -8q-16 -31 -22 -46
q-15 -45 -15 -88q0 -122 117 -190q111 -62 312 -62q163 0 359 53q138 37 304 104q81 34 166 67q11 2 16 -3t5 -12v-24q-5 -33 -6 -55q-6 -44 51 -83q53 -35 100 -35v-131zM928 -16q0 -15 -11 -51q-14 -43 -32 -64q-47 25 -72 42q-51 28 -51 43q10 34 17 49q22 52 29 52
q42 -18 60 -28q60 -32 60 -43zM912 -238q0 -26 -10 -57t-27 -52q-53 28 -108 54q-26 17 -26 35l34 112q23 -20 90 -51q47 -21 47 -41zM749 -60q0 -23 -12 -58.5t-29 -35.5q-11 0 -57 28q-53 31 -53 47q0 6 17 55q19 39 26 57q29 -27 79 -55q29 -15 29 -38z" />
    <glyph glyph-name="afii62956" unicode="&#x67e;" horiz-adv-x="383" arabic-form="initial" 
d="M289 540v-13.5v-15.5q0 -37 -9 -67q-16 -45 -56 -92q-31 -36 -93 -72q-76 -43 -131 -43v131q83 0 173 47q79 44 74 63q-14 35 -60 87q-69 80 -85 101q-47 66 -72 141q-6 0 -13 3t-5 7l10 95q6 21 8 21q4 0 11 -6q30 -25 68.5 -51t44.5 -32q24 -20 24 -30q0 -9 -15 -9h-15
q-14 0 -32 3q72 -93 118 -153q48 -64 55 -115zM335 -144q0 -13 -12 -52q-16 -43 -31 -62q-35 19 -69 40q-45 26 -45 42q0 14 25 75q14 31 20 31q37 -16 57 -28q55 -33 55 -46zM173 -193q5 -10 -10 -61t-32 -51q-15 0 -71 39q-32 24 -32 36q0 6 13 40q8 24 32 74
q28 -28 75 -53q15 -7 25 -24zM314 -356q0 -15 -12 -52q-16 -43 -32 -62q-34 19 -67 38q-46 29 -46 44q0 14 24 75q15 31 22 31q37 -18 55 -30q56 -30 56 -44z" />
    <glyph glyph-name="afii52957" unicode="&#x67e;" horiz-adv-x="350" arabic-form="medial" 
d="M340 27q0 -17 -12 -51q-16 -43 -34 -62l-72 40q-50 28 -50 45q13 32 19 47q19 52 29 52q39 -18 59 -28q61 -31 61 -43zM324 -193q0 -28 -10.5 -59.5t-26.5 -51.5q-54 28 -109 56q-28 15 -28 33l35 113q25 -20 92 -52q47 -22 47 -39zM161 -16q0 -24 -13 -59t-31 -35
q-8 0 -57 27q-53 31 -53 47q0 6 20 55q18 39 25 57q27 -27 78 -55q31 -15 31 -37zM352 237q-30 0 -73 22q-53 26 -75 62q-9 11 -13.5 31t-4.5 41q-18 -36 -33 -62q-20 -35 -32 -45q-31 -31 -61 -40q-21 -9 -61 -9v131q25 0 67.5 8.5t59.5 20.5q13 7 29 39q22 38 23 42
q29 38 39 38q6 0 6 -12q0 -15 -6 -36q5 -11 16 -32q10 -21 58 -48q15 -9 30.5 -14.5t30.5 -5.5v-131z" />
    <glyph glyph-name="afii57507" unicode="&#x686;" horiz-adv-x="927" arabic-form="isolated" 
d="M1109 -492q-142 -36 -256.5 -72t-137.5 -42q-61 -14 -136 -14q-316 0 -458 133q-123 121 -123 365q0 112 23 208q24 77 70 157q31 55 80.5 121t123.5 118q61 42 133 71q-63 0 -109.5 3.5t-70.5 3.5q-59 0 -105.5 -6.5t-51.5 -24.5q-16 0 -56.5 -9.5t-76.5 -9.5
q-29 0 -29 19q0 18 17 51q6 18 25 53q4 9 7.5 11t13.5 7q44 16 94 30q66 16 95 16q91 -6 177.5 -11t133.5 -5q62 0 139 4q169 12 172 12q19 0 25 -2.5t3 -13.5q-6 -24 -19.5 -60.5t-19.5 -42.5t-105 -37q-140 -46 -196 -67q-117 -44 -160 -75q-139 -110 -206 -212
q-76 -117 -76 -258q0 -125 62 -224t159 -138q69 -30 177 -44t237 -14q57 0 108 2t89 2q44 11 106 17t114 6q5 0 19.5 -4.5t14.5 -10.5q0 -5 -26 -13zM635 123q0 -13 -13.5 -52.5t-30.5 -56.5q-31 16 -54 26q-68 39 -68 56q11 33 18 50q19 49 28 49q39 -17 58 -29
q62 -28 62 -43zM617 -137q0 -26 -11 -56.5t-27 -51.5q-55 27 -108 55q-27 14 -27 33q7 23 11 39q20 64 21 75q24 -21 91 -52q50 -21 50 -42zM450 72q0 -23 -13.5 -58.5t-28.5 -35.5q-9 0 -67 36q-65 36 -65 52q0 4 14.5 41t30.5 71q28 -27 89 -61q40 -23 40 -45z" />
    <glyph glyph-name="afii62961" unicode="&#x686;" horiz-adv-x="1027" arabic-form="final" 
d="M1238 -498q-52 -12 -71 -16q-29 -12 -52 -18q-102 -33 -206 -64q-103 -28 -226 -28q-271 0 -418 98q-113 75 -153 203q-21 69 -21 161q0 168 81 343q66 141 161 240q-29 21 -110 73q-72 46 -99 68q-43 40 -43 77q0 99 65 141q55 34 171 34q66 0 235.5 -11t296.5 -24
t128 -21q3 -5 -8.5 -43.5t-21.5 -60.5q-1 -8 -7 -12q-2 -3 -6 -6q-15 -10 -55 -28q-28 -12 -49 -22l-10 -37q-8 -31 -8 -57q0 -38 19 -58q35 -31 78 -48.5t80 -17.5v-131q-34 0 -104 25q-86 30 -107 66q-9 22 -14 43t-5 41q0 36 14 80q8 28 17 57l6 23q-65 -28 -113 -48
q-84 -38 -127 -60q-65 -34 -131 -76l5 -9q1 -11 1 -17q0 -25 -13 -25q-9 0 -19 17l-8 12q-122 -89 -190 -239q-58 -124 -58 -228q0 -165 105 -259q90 -82 253 -113q122 -24 301 -24q105 0 187.5 5t219.5 22q5 0 14 1t15 1q39 0 39 -12q0 -11 -39 -18zM571 -40
q0 -27 -11.5 -57.5t-24.5 -50.5q-56 27 -111 56q-25 13 -25 32l32 112q23 -19 92 -51q48 -23 48 -41zM745 660l-51 6q-128 10 -203.5 13t-240.5 3q-35 0 -63.5 -5t-28.5 -20q0 -3 6 -11q96 -57 148 -92t81 -80q48 39 114 75q50 30 121 61q48 23 117 50zM800 -43
q0 -28 -11 -58.5t-24 -50.5q-55 27 -110 55q-27 14 -27 33l35 113q20 -19 90 -50q47 -24 47 -42zM754 -241q0 -28 -10 -58t-25 -49q-55 28 -110 54q-26 14 -26 34l34 112q22 -20 90 -51q47 -24 47 -42z" />
    <glyph glyph-name="afii62959" unicode="&#x686;" horiz-adv-x="1122" arabic-form="initial" 
d="M1054 682q-6 -31 -11 -64q-21 -65 -31 -65q-64 0 -193.5 -61.5t-258.5 -122.5q-176 -77 -333 -108q0 -43 -16 -79q-6 -13 -14 -13q-5 0 -9 9t-2 24q0 15 -1 23.5t-7 27.5q-89 -16 -178 -16v131q60 0 127 5q-31 71 -42 107q-20 55 -20 92q0 109 66 184q66 81 168 81
q56 0 189.5 -31.5t268.5 -63.5q180 -42 297 -60zM761 591q-61 7 -150 33q-125 37 -156 45q-99 23 -177 23q-31 0 -62.5 -3.5t-65.5 -36t-34 -61.5q0 -7 2 -11q20 -43 42 -88q27 -59 43 -107q95 18 186.5 48t187.5 71q71 31 184 87zM721 19q0 -13 -12.5 -51.5t-30.5 -58.5
q-31 15 -53 27q-69 39 -69 56q10 33 18 51q18 49 27 49q40 -18 59 -28q61 -31 61 -45zM703 -241q0 -28 -10.5 -58t-26.5 -49q-55 25 -108 54q-28 16 -28 31q8 24 12 40q20 66 21 75q24 -20 91 -51q49 -22 49 -42zM536 -31q0 -24 -13 -59.5t-29 -35.5q-8 0 -67 35
q-63 37 -63 54q0 3 14 39.5t30 73.5q28 -30 89 -62q39 -24 39 -45z" />
    <glyph glyph-name="afii62960" unicode="&#x686;" horiz-adv-x="1028" arabic-form="medial" 
d="M1057 682q5 -1 -15 -66.5t-29 -62.5q-71 0 -179 -49q-6 -21 -14 -41q-6 -23 -6 -42q0 -34 75 -46q46 -7 117 -7h22v-131q-102 0 -132 3q-78 7 -110 51q-10 16 -10 51q0 37 11 84.5t23 65.5q-83 -42 -163 -81q-113 -55 -193 -85q-117 -43 -226 -67q0 -45 -16 -77
q-7 -16 -15 -16q-5 0 -9 10t-2 28t-8 48q-42 -9 -84 -12t-94 -3v131h16q57 0 115 4q-33 70 -45 108q-19 55 -19 91q0 108 64 185q66 81 168 81q56 0 189.5 -31.5t268.5 -63.5q180 -44 300 -60zM761 591q-55 7 -148 33q-127 37 -156 45q-93 22 -177 22q-30 0 -62 -3
t-67 -35.5t-35 -61.5q0 -7 2 -12q28 -54 42 -87q28 -65 43 -107q92 17 187.5 47.5t189.5 71.5q74 33 181 87zM721 19q0 -13 -12.5 -51.5t-30.5 -58.5q-31 15 -53 27q-69 39 -69 56q10 33 18 51q18 49 27 49q40 -18 59 -28q61 -31 61 -45zM703 -241q0 -28 -10.5 -58
t-26.5 -49q-55 25 -108 54q-28 16 -28 31q8 24 12 40q20 66 21 75q24 -20 91 -51q49 -22 49 -42zM536 -31q0 -24 -13 -59.5t-29 -35.5q-8 0 -67 35q-63 37 -63 54q0 3 14 39.5t30 73.5q28 -30 89 -62q39 -24 39 -45z" />
    <glyph glyph-name="afii57508" unicode="&#x698;" horiz-adv-x="1172" arabic-form="isolated" 
d="M1125 480q0 -22 -8 -62t-20 -40q-8 0 -14 15q-18 30 -36 41q-34 25 -104 25q-76 0 -157 -50q-71 -43 -178 -142q-33 -33 -215 -212q-67 -67 -104 -92q-54 -39 -104 -39q-77 0 -130.5 55t-53.5 135q0 92 34 193q27 80 78 171q4 10 13 18t15 8t6 -6q0 -10 -12 -35
q-30 -60 -57 -142q-37 -119 -37 -195q0 -41 19.5 -71t58.5 -30q106 0 255 140q133 131 268 265q169 149 317 161h21q65 0 105 -31t40 -80zM1065 914q0 -14 -13 -50q-14 -44 -30 -63q-38 19 -75 42q-50 29 -50 42q12 34 18 49q21 52 28 52q40 -17 61 -28q61 -28 61 -44z
M913 1051q0 -29 -11.5 -59.5t-26.5 -51.5q-56 29 -110 56q-25 15 -25 34q6 21 10 36q20 62 21 77q26 -19 94 -50q48 -23 48 -42zM881 860q0 -22 -13.5 -57t-31.5 -35q-7 0 -66 33q-66 40 -66 55q0 6 22 56q13 31 25 57q26 -26 88 -61q42 -24 42 -48z" />
    <glyph glyph-name="afii62962" unicode="&#x698;" horiz-adv-x="801" arabic-form="final" 
d="M545 744q0 -29 -11 -59t-26 -49q-56 25 -110 52q-26 17 -26 34l31 115q25 -23 91 -51q51 -24 51 -42zM803 237q-12 0 -21 1.5t-28 2.5q8 -33 18 -69q7 -34 7 -92q0 -46 -11 -93.5t-26 -74.5t-117 -111q-115 -95 -241 -179q-157 -106 -275 -161q-43 -13 -113 -27.5
t-138 -28.5q-87 -18 -161 -37q-34 -8 -49 -8q-14 0 -14 4q0 12 60 37q77 31 141 60q93 42 181 84q104 55 194 107q157 91 209 125q114 71 181 122q85 67 143 135q-47 138 -77 198q-23 48 -56 90q1 40 4 58.5t11 53.5q1 16 6 16q6 0 17 -14.5t32 -33.5q6 -10 22 -30
q14 0 45 -2t56 -2v-131zM766 831q0 -29 -11.5 -58t-27.5 -51q-55 28 -108 55q-27 16 -27 34l33 113q25 -21 91 -52q50 -22 50 -41zM556 980q0 -30 -10 -59t-26 -49q-57 26 -110 53q-27 15 -27 33l33 114q27 -21 92 -50q48 -24 48 -42z" />
    <glyph glyph-name="afii57567" unicode="&#x6a9;" horiz-adv-x="1270" arabic-form="isolated" 
 />
    <glyph glyph-name="afii62964" unicode="&#x6a9;" horiz-adv-x="1425" arabic-form="final" 
 />
    <glyph glyph-name="afii52305" unicode="&#x6a9;" horiz-adv-x="883" arabic-form="initial" 
 />
    <glyph glyph-name="afii52306" unicode="&#x6a9;" horiz-adv-x="912" arabic-form="medial" 
 />
    <glyph glyph-name="afii57509" unicode="&#x6af;" horiz-adv-x="2205" arabic-form="isolated" 
d="M283 1014q0 10 5 24q35 122 107 206q56 70 185 161q122 84 230 139q136 68 205 68q42 0 59.5 -13t17.5 -36q0 -19 -12 -47q-4 -14 -19 -45q-4 -10 -9.5 -20.5t-11.5 -10.5t-10.5 7.5t-9.5 23t-23 26.5t-36 11q-26 -4 -129 -53q-114 -55 -195 -110q-66 -46 -125 -93
q-70 -56 -108 -94q-44 -47 -44 -72q0 -30 -38.5 -85t-38.5 13zM2034 427q-16 -9 -35 -12.5t-35 -3.5q-52 0 -322 -45q-362 -59 -550 -83q-353 -46 -577 -46q-515 -29 -515 229q294 -98 516.5 -98t563.5 36q174 20 552 72q276 40 317 40q48 0 63 2q12 2 20 2
q-54 113 -195 155q-79 22 -201 22q-83 0 -283 -20t-406.5 -39.5t-320.5 -19.5q-136 0 -222 21q-112 30 -112 97q0 11 3 23q34 125 107 210q58 66 185 157q122 87 229 142q136 70 205 70q43 0 60.5 -14.5t17.5 -37.5q0 -19 -11 -48q-6 -13 -21 -44q-3 -11 -9 -20.5t-10 -9.5
q-5 0 -10.5 6.5t-10.5 22.5t-22 27t-38 11q-25 -4 -127 -54q-115 -53 -196 -111q-64 -44 -126 -92q-70 -56 -106 -95q-44 -47 -44 -71q0 -28 80 -52q98 -26 277 -26q69 0 257 19t379.5 37.5t274.5 18.5q217 0 307 -36q113 -41 174 -165q3 -9 3 -25q0 -30 -16.5 -66.5
t-41.5 -64.5q2 -4 -28 -21z" />
    <glyph glyph-name="afii62967" unicode="&#x6af;" horiz-adv-x="2228" arabic-form="final" 
d="M368 1014q0 10 5 24q35 122 107 206q56 70 185 161q122 84 230 139q136 68 205 68q42 0 59.5 -13t17.5 -36q0 -19 -12 -47q-4 -14 -19 -45q-4 -10 -9.5 -20.5t-11.5 -10.5t-10.5 7.5t-9.5 23t-23 26.5t-36 11q-26 -4 -129 -53q-114 -55 -195 -110q-66 -46 -125 -93
q-70 -56 -108 -94q-44 -47 -44 -72q0 -30 -38.5 -85t-38.5 13zM2229 237q-49 0 -86 34q-30 25 -30 67q-2 8 -2 18v16q0 25 8 55q-16 -9 -35 -12.5t-35 -3.5q-52 0 -322 -45q-362 -59 -550 -83q-353 -46 -577 -46q-52 -2 -99 -2q-416 0 -416 231q294 -98 516.5 -98t563.5 36
q174 20 552 72q276 40 317 40q48 0 63 2q12 2 20 2q-54 113 -195 155q-79 22 -201 22q-83 0 -283 -20t-406.5 -39.5t-320.5 -19.5q-136 0 -222 21q-112 30 -112 97q0 11 3 23q34 125 107 210q58 66 185 157q122 87 229 142q136 70 205 70q43 0 60.5 -14.5t17.5 -37.5
q0 -19 -11 -48q-6 -13 -21 -44q-3 -11 -9 -20.5t-10 -9.5q-5 0 -10.5 6.5t-10.5 22.5t-22 27t-38 11q-25 -4 -127 -54q-115 -53 -196 -111q-64 -44 -126 -92q-70 -56 -106 -95q-44 -47 -44 -71q0 -28 80 -52q98 -26 277 -26q69 0 257 19t379.5 37.5t274.5 18.5
q217 0 307 -36q113 -41 174 -165q3 -9 3 -25q0 -30 -16.5 -66.5t-41.5 -64.5q2 -4 2 -11v-14q0 -11 6.5 -23t17.5 -20t20 -10t36 -2v-131z" />
    <glyph glyph-name="afii62965" unicode="&#x6af;" horiz-adv-x="1303" arabic-form="initial" 
d="M1259 1633q0 -9 0.5 -16.5t0.5 -11.5q0 -77 -58 -174q-36 -62 -115 -162q-85 -103 -101 -127q-10 -18 -20 -18q-4 0 -4 8q0 10 4 22q23 52 84 138q50 68 100.5 138.5t50.5 97.5q0 42 -86 42q-78 0 -213.5 -31.5t-360.5 -107.5q-179 -61 -315 -111q-164 -63 -254 -108
q-110 -52 -134.5 -60.5t-18 6.5t12 32t18.5 54q53 44 233 123t422 165q119 41 226 76q133 39 229 60q122 24 211 24q41 0 62 -17.5t26 -41.5zM1247 1359q0 -6 0.5 -13.5t0.5 -12.5q0 -76 -56 -173q-39 -64 -117 -162q-85 -104 -101 -130q-9 -18 -19 -18q-5 0 -5 10q0 8 5 19
q19 54 82 141q51 69 101.5 138.5t50.5 98.5q0 41 -86 41q-77 0 -213 -32.5t-361 -105.5q-180 -61 -315 -114q-164 -64 -256 -107q-108 -54 -103 -107q6 -8 57.5 -34.5t37.5 -40t-17 -13.5q191 -10 338.5 -7t172.5 -55q0 -7 2 -21q6 -46 6 -66q0 -42 -7.5 -77.5t-31.5 -71.5
q-12 -19 -75 -67q-76 -58 -146 -94q-94 -48 -163 -48v131q77 0 179 47q80 37 156 95q69 49 64 61q-40 65 -237 65t-266 18.5t-106 91.5q-23 86 -9.5 137t28.5 87q54 44 233.5 123.5t421.5 166.5q119 42 225 75q135 40 231 61q123 24 211 24q38 0 60.5 -18.5t26.5 -42.5z" />
    <glyph glyph-name="afii62966" unicode="&#x6af;" horiz-adv-x="1909" arabic-form="medial" 
d="M49 1014q0 10 4 24q36 122 107 206q57 70 184 161q123 84 232 139q133 68 204 68q42 0 59.5 -13t17.5 -36q0 -19 -12 -47q-4 -14 -19 -45q-4 -10 -9 -20.5t-12 -10.5q-5 0 -10 7.5t-10 23t-22.5 26.5t-37.5 11q-25 -4 -127 -53q-116 -55 -196 -110q-65 -46 -124 -93
q-70 -56 -109 -94q-43 -47 -43 -72q0 -30 -38.5 -85t-38.5 13zM1909 237q-48 0 -86 34q-30 25 -30 67q-1 8 -1 18v16q0 25 8 55q-17 -9 -35.5 -12.5t-34.5 -3.5q-54 0 -325 -45q-359 -59 -548 -83q-352 -46 -577 -46h-280v131h280q222 0 565 36q174 20 552 72q277 40 318 40
q47 0 62 2q13 2 21 2q-57 113 -195 155q-80 22 -201 22q-83 0 -283.5 -20t-406.5 -39.5t-320 -19.5q-138 0 -223 21q-113 30 -113 97q0 11 4 23q35 125 107 210q57 66 186 157q120 87 229 142q136 70 204 70q42 0 60.5 -14.5t18.5 -37.5q0 -19 -12 -48q-6 -13 -21 -44
q-4 -11 -9 -20.5t-9 -9.5q-5 0 -10.5 6.5t-10.5 22.5t-22 27t-38 11q-25 -4 -128 -54q-114 -53 -195 -111q-66 -44 -127 -92q-71 -56 -105 -95q-44 -47 -44 -71q0 -28 78 -52q100 -26 278 -26q70 0 258 19t379.5 37.5t274.5 18.5q217 0 307 -36q110 -41 173 -165q4 -9 4 -25
q0 -30 -16.5 -66.5t-43.5 -64.5q3 -4 3 -11v-14q0 -11 6.5 -23t17.5 -20t20 -10t36 -2v-131z" />
    <glyph glyph-name="afii57555" unicode="&#x6cc;" horiz-adv-x="1167" arabic-form="isolated" 
d="M1052 362q-12 -44 -130 -132q-130 -98 -284 -168q-184 -82 -336 -82q-140 0 -225 108q-77 99 -77 244q0 89 28 186q18 71 51 136q37 74 53 74q2 0 2 -6q0 -22 -27 -80q-31 -66 -46 -130t-15 -139q0 -108 76.5 -183.5t184.5 -75.5q162 0 346 74q141 58 267 144
q108 77 99 91q-16 21 -123 43q-133 26 -178 44q-93 39 -93 108q0 82 33 169q39 103 124 201q50 58 77 82q63 52 123 52q34 0 52 -31.5t18 -72.5q0 -33 -10.5 -56t-32.5 -23q-3 0 -11.5 27.5t-47.5 27.5q-30 0 -70 -27q-52 -34 -104 -95q-28 -38 -67 -98q-43 -71 -36 -83
q36 -54 153 -77q166 -35 199 -49q26 -10 35.5 -35.5t9.5 -61.5q0 -28 -4.5 -55.5t-13.5 -50.5z" />
    <glyph glyph-name="afii52364" unicode="&#x6cc;" horiz-adv-x="1314" arabic-form="final" 
d="M1313 237q-32 -1 -53 -5q-53 -6 -124 -20q-45 -7 -110 -34q-24 -9 -65 -27q32 -5 52 -10q49 -14 109.5 -31.5t77.5 -47.5q13 -19 13 -70q0 -32 -9.5 -60.5t-25.5 -65.5q-9 -26 -104.5 -88t-192.5 -109q-130 -65 -234 -101q-120 -38 -203 -38q-52 0 -112 18
q-103 33 -164 104q-83 100 -83 259q0 37 6 84q10 77 28 145q26 88 67 162q11 24 17 24q2 0 1 -12.5t-3 -27.5q-31 -91 -49 -172q-21 -89 -21 -144q0 -146 94 -230q90 -82 234 -82q47 0 132 19q108 28 219 72q126 54 236 119q101 59 101 72q0 30 -169 70q-108 29 -148 45
q-26 9 -41 23t-15 32q0 11 20 68q10 34 18 44q13 8 117 46q74 28 133 46q74 23 174 40q32 6 77 14v-131z" />
    <glyph glyph-name="afii62885" unicode="&#xfc61;" horiz-adv-x="359" arabic-form="isolated" 
 />
    <glyph glyph-name="afii62886" unicode="&#xfc62;" horiz-adv-x="381" arabic-form="isolated" 
 />
    <glyph glyph-name="afii52399" unicode="&#x621;" horiz-adv-x="592" arabic-form="isolated" 
d="M441 543q3 0 3.5 -2.5t0.5 -5.5q0 -10 -9.5 -32t-13.5 -31q-13 -12 -132 -76q-61 -32 -113 -74q-13 -13 -23 -13q-8 0 -8 11q0 6 8 22q10 18 22 36q16 18 55 37q-24 0 -49.5 23.5t-25.5 44.5q0 42 58 106.5t100 64.5q11 0 25.5 -15t14.5 -37q-5 -22 -9 -31
q-12 -34 -23 -33q-10 8 -22 30q-8 15 -27 15q-17 -6 -29 -15q-19 -13 -37 -39q22 -23 41 -35q30 -20 54 -20q25 0 78 32q40 23 61 37z" />
    <glyph glyph-name="afii52400" unicode="&#x622;" horiz-adv-x="417" arabic-form="isolated" 
 />
    <glyph glyph-name="afii62753" unicode="&#x622;" horiz-adv-x="499" arabic-form="final" 
 />
    <glyph glyph-name="afii57411" unicode="&#x623;" horiz-adv-x="905" arabic-form="isolated" 
d="M897 591q0 -63 -11 -107.5t-28 -80.5q-32 -47 -121 -126q-114 -102 -221 -163q-141 -83 -253 -83q-127 0 -182 125q-41 90 -41 229q0 48 20 120q16 54 32 93q24 59 37 59q3 0 3 -11q0 -15 -15.5 -59t-21.5 -69q-15 -54 -15 -101q0 -110 33 -165q45 -74 163 -87
q11 -2 17.5 -2h10.5q96 0 236 80q107 61 218 159q94 80 106 106q-6 20 -45 39q-48 24 -106 24q-11 0 -21.5 -1.5t-20.5 -1.5q-78 0 -99.5 26t-21.5 75q0 84 50 145q45 60 96 60q52 0 117 -67q84 -85 84 -216zM770 688q-34 40 -42 46q-24 19 -53 19q-22 0 -35.5 -11.5
t-13.5 -30.5q6 -11 15.5 -13t27.5 -2h29h31.5t40.5 -8zM672 1035l-206 261l35 6l168 -142l110 181l35 4l-130 -310h-12z" />
    <glyph glyph-name="afii62754" unicode="&#x623;" horiz-adv-x="714" arabic-form="final" 
d="M715 237l-42 -1l-9 -41q-17 -99 -81 -168q-123 -113 -290 -223q-149 -97 -247 -135q-94 -13 -170 -31q-99 -24 -191 -57q-18 -8 -30.5 -11t-23.5 -3q-15 0 -15 6q0 14 55 37t136 59q88 42 185 90q133 69 288 168q148 92 248 169q104 79 104 100q-3 16 -5 22t-8 18
q-73 0 -133.5 3.5t-84.5 14.5t-46 37q-24 30 -24 57q0 79 48.5 146.5t101.5 67.5q37 0 95 -58q62 -65 84 -138l55 2v-131zM533 368l-21 29q-7 12 -22 21t-29 9q-27 0 -40 -15q-7 -10 -7 -27q7 -7 41.5 -12t77.5 -5zM426 687l-208 259l36 8l167 -143l112 181l35 4l-130 -308z
" />
    <glyph glyph-name="afii57412" unicode="&#x624;" horiz-adv-x="966" arabic-form="isolated" 
d="M897 591q0 -63 -11 -107.5t-28 -80.5q-32 -47 -121 -126q-114 -102 -221 -163q-141 -83 -253 -83q-127 0 -182 125q-41 90 -41 229q0 48 20 120q16 54 32 93q24 59 37 59q3 0 3 -11q0 -15 -15.5 -59t-21.5 -69q-15 -54 -15 -101q0 -110 33 -165q45 -74 163 -87
q11 -2 17.5 -2h10.5q96 0 236 80q107 61 218 159q94 80 106 106q-6 20 -45 39q-48 24 -106 24q-11 0 -21.5 -1.5t-20.5 -1.5q-78 0 -99.5 26t-21.5 75q0 84 50 145q45 60 96 60q52 0 117 -67q84 -85 84 -216zM770 688q-34 40 -42 46q-24 19 -53 19q-22 0 -35.5 -11.5
t-13.5 -30.5q6 -11 15.5 -13t27.5 -2h29h31.5t40.5 -8zM704 1273q28 0 45.5 -22.5t17.5 -67.5q0 -65 -42.5 -129t-66.5 -64q-7 0 -7 6t7 14q26 24 43.5 59.5t17.5 58.5q0 13 -17 14q-25 6 -43 23t-18 44q0 25 18 44.5t45 19.5z" />
    <glyph glyph-name="afii62755" unicode="&#x624;" horiz-adv-x="714" arabic-form="final" 
d="M715 237l-42 -1l-9 -41q-17 -99 -81 -168q-123 -113 -290 -223q-149 -97 -247 -135q-94 -13 -170 -31q-99 -24 -191 -57q-18 -8 -30.5 -11t-23.5 -3q-15 0 -15 6q0 14 55 37t136 59q88 42 185 90q133 69 288 168q148 92 248 169q104 79 104 100q-3 16 -5 22t-8 18
q-73 0 -133.5 3.5t-84.5 14.5t-46 37q-24 30 -24 57q0 79 48.5 146.5t101.5 67.5q37 0 95 -58q62 -65 84 -138l55 2v-131zM533 368l-21 29q-7 12 -22 21t-29 9q-27 0 -40 -15q-7 -10 -7 -27q7 -7 41.5 -12t77.5 -5zM467 933q29 0 47.5 -22.5t18.5 -66.5q0 -67 -44 -130.5
t-68 -63.5q-7 0 -7 5q0 6 7 14q27 23 44 58.5t17 59.5q0 12 -16 14q-26 6 -44 23t-18 44q0 26 18 45.5t45 19.5z" />
    <glyph glyph-name="afii57413" unicode="&#x625;" horiz-adv-x="966" arabic-form="isolated" 
d="M897 591q0 -63 -11 -107.5t-28 -80.5q-32 -47 -121 -126q-114 -102 -221 -163q-141 -83 -253 -83q-127 0 -182 125q-41 90 -41 229q0 48 20 120q16 54 32 93q24 59 37 59q3 0 3 -11q0 -15 -15.5 -59t-21.5 -69q-15 -54 -15 -101q0 -110 33 -165q45 -74 163 -87
q11 -2 17.5 -2h10.5q96 0 236 80q107 61 218 159q94 80 106 106q-6 20 -45 39q-48 24 -106 24q-11 0 -21.5 -1.5t-20.5 -1.5q-78 0 -99.5 26t-21.5 75q0 84 50 145q45 60 96 60q52 0 117 -67q84 -85 84 -216zM770 688q-34 40 -42 46q-24 19 -53 19q-22 0 -35.5 -11.5
t-13.5 -30.5q6 -11 15.5 -13t27.5 -2h29h31.5t40.5 -8zM838 1161q0 -13 -12 -49q-16 -42 -31 -62q-37 20 -73 40q-50 30 -50 44q10 33 18 49q18 51 27 51q41 -16 61 -27q60 -30 60 -46zM687 1299q0 -30 -11 -60t-29 -50q-54 29 -107 55q-27 16 -27 34q8 24 12 37
q17 61 21 78q26 -21 92 -52q49 -24 49 -42zM653 1111q0 -24 -13 -59.5t-29 -35.5q-9 0 -69 35q-63 38 -63 54q0 6 21 55q13 31 25 58q25 -27 89 -62q39 -24 39 -45z" />
    <glyph glyph-name="afii62756" unicode="&#x625;" horiz-adv-x="714" arabic-form="final" 
d="M715 237l-42 -1l-9 -41q-17 -99 -81 -168q-123 -113 -290 -223q-149 -97 -247 -135q-94 -13 -170 -31q-99 -24 -191 -57q-18 -8 -30.5 -11t-23.5 -3q-15 0 -15 6q0 14 55 37t136 59q88 42 185 90q133 69 288 168q148 92 248 169q104 79 104 100q-3 16 -5 22t-8 18
q-73 0 -133.5 3.5t-84.5 14.5t-46 37q-24 30 -24 57q0 79 48.5 146.5t101.5 67.5q37 0 95 -58q62 -65 84 -138l55 2v-131zM533 368l-21 29q-7 12 -22 21t-29 9q-27 0 -40 -15q-7 -10 -7 -27q7 -7 41.5 -12t77.5 -5zM616 895q0 -12 -12 -48q-16 -45 -32 -64q-38 19 -73 41
q-51 30 -51 44q12 34 18 50q19 51 26 51q41 -19 61 -29q63 -28 63 -45zM463 1034q0 -30 -10.5 -60.5t-27.5 -49.5q-54 26 -109 55q-27 15 -27 32q6 24 11 39q19 61 24 76q23 -20 90 -51q49 -24 49 -41zM430 844q0 -24 -13 -59t-31 -35q-7 0 -67 36q-65 37 -65 52q0 6 22 56
q12 31 26 56q26 -25 87 -60q41 -24 41 -46z" />
    <glyph glyph-name="afii57414" unicode="&#x626;" horiz-adv-x="444" arabic-form="isolated" 
d="M198 1431q6 3 6 -6q0 -11 -9.5 -33t-15.5 -28q-14 -16 -132 -78q-60 -34 -108 -73q-14 -15 -25 -15t-11 11q0 9 12 24q18 35 30 43q16 14 47 29q-25 0 -50 24t-25 46q0 41 56.5 104t96.5 63q18 0 31 -17q11 -15 11 -30q-6 -22 -11 -34q-11 -33 -23 -31q-8 6 -21 26
q-6 15 -22 15q-19 -6 -31 -11q-18 -13 -37 -40q24 -24 40 -36q30 -20 53 -20q28 0 79 32q30 18 59 35zM303 540v-29q0 -35 -10 -67q-16 -45 -55 -92q-31 -36 -97 -72q-75 -43 -128 -43v131q82 0 172 47q80 44 74 63q-13 35 -61 87q-68 80 -83 101q-49 66 -75 141q-3 0 -10 3
t-6 7l11 95q4 21 8 21t10 -6q29 -25 67.5 -51t45.5 -32q24 -20 24 -30q0 -9 -16 -9h-15q-12 0 -32 3q59 -76 119 -153q49 -64 57 -115z" />
    <glyph glyph-name="afii62759" unicode="&#x626;" horiz-adv-x="355" arabic-form="final" 
d="M340 829q3 0 3.5 -2.5t0.5 -6.5q0 -9 -9.5 -31.5t-13.5 -30.5q-13 -12 -132 -77q-61 -31 -113 -73q-13 -13 -24 -13q-7 0 -7 11q0 6 7 21q11 18 23 36q16 18 55 37q-24 0 -49.5 23.5t-25.5 45.5q0 42 58 106t100 64q11 0 25.5 -15t14.5 -36q-5 -22 -9 -32
q-12 -33 -24 -32q-9 7 -21 30q-7 14 -27 14q-16 -6 -28 -14q-20 -13 -38 -40q22 -22 41 -34q30 -21 54 -21q25 0 78 33q40 22 61 37zM363 237q-30 0 -74 22q-52 26 -75 62q-9 11 -12.5 31t-3.5 41q-20 -36 -35 -62q-19 -35 -31 -45q-32 -31 -62 -40q-20 -9 -80 -9v131
q46 0 88.5 8.5t59.5 20.5q12 7 27 39q22 38 24 42q28 38 40 38q5 0 5 -12q0 -15 -5 -36q3 -11 15 -32q10 -21 58 -48q16 -9 31.5 -14.5t29.5 -5.5v-131z" />
    <glyph glyph-name="afii62757" unicode="&#x626;" horiz-adv-x="444" arabic-form="initial" 
d="M198 1431q6 3 6 -6q0 -11 -9.5 -33t-15.5 -28q-14 -16 -132 -78q-60 -34 -108 -73q-14 -15 -25 -15t-11 11q0 9 12 24q18 35 30 43q16 14 47 29q-25 0 -50 24t-25 46q0 41 56.5 104t96.5 63q18 0 31 -17q11 -15 11 -30q-6 -22 -11 -34q-11 -33 -23 -31q-8 6 -21 26
q-6 15 -22 15q-19 -6 -31 -11q-18 -13 -37 -40q24 -24 40 -36q30 -20 53 -20q28 0 79 32q30 18 59 35zM303 540v-29q0 -35 -10 -67q-16 -45 -55 -92q-31 -36 -97 -72q-75 -43 -128 -43v131q82 0 172 47q80 44 74 63q-13 35 -61 87q-68 80 -83 101q-49 66 -75 141q-3 0 -10 3
t-6 7l11 95q4 21 8 21t10 -6q29 -25 67.5 -51t45.5 -32q24 -20 24 -30q0 -9 -16 -9h-15q-12 0 -32 3q59 -76 119 -153q49 -64 57 -115z" />
    <glyph glyph-name="afii62758" unicode="&#x626;" horiz-adv-x="355" arabic-form="medial" 
d="M340 829q3 0 3.5 -2.5t0.5 -6.5q0 -9 -9.5 -31.5t-13.5 -30.5q-13 -12 -132 -77q-61 -31 -113 -73q-13 -13 -24 -13q-7 0 -7 11q0 6 7 21q11 18 23 36q16 18 55 37q-24 0 -49.5 23.5t-25.5 45.5q0 42 58 106t100 64q11 0 25.5 -15t14.5 -36q-5 -22 -9 -32
q-12 -33 -24 -32q-9 7 -21 30q-7 14 -27 14q-16 -6 -28 -14q-20 -13 -38 -40q22 -22 41 -34q30 -21 54 -21q25 0 78 33q40 22 61 37zM363 237q-30 0 -74 22q-52 26 -75 62q-9 11 -12.5 31t-3.5 41q-20 -36 -35 -62q-19 -35 -31 -45q-32 -31 -62 -40q-20 -9 -80 -9v131
q46 0 88.5 8.5t59.5 20.5q12 7 27 39q22 38 24 42q28 38 40 38q5 0 5 -12q0 -15 -5 -36q3 -11 15 -32q10 -21 58 -48q16 -9 31.5 -14.5t29.5 -5.5v-131z" />
    <glyph glyph-name="afii57415" unicode="&#x627;" horiz-adv-x="538" arabic-form="isolated" 
d="M322 537q0 -120 -7.5 -201t-22 -108t-22.5 -27q-4 0 -4 21q0 18 2 37q4 42 4 60v27v35q-2 23 -4 34q-7 77 -24 206q-25 199 -27 223q-21 150 -30 252q-4 34 -16 182q-3 55 -7 98q-2 2 -10 24q-4 10 -15 31q-5 6 2 32t27 85q2 6 6 6q6 0 14 -17t11 -22q47 -97 74 -158
t27 -81q0 -8 -6 -8q-4 0 -13 7t-23 18.5t-26 23.5q0 -21 18 -158t35 -280q27 -197 37 -342z" />
    <glyph glyph-name="afii62760" unicode="&#x627;" horiz-adv-x="464" arabic-form="final" 
d="M465 237q-43 0 -83 21.5t-75 59.5q-52 60 -75 126q-25 90 -51 338q-13 142 -26 247t-33 239q-6 40 -34 217q-7 59 -31.5 140.5t-48.5 163.5q8 23 16.5 51.5t13.5 59.5q1 5 7 5q23 0 64 -135.5t59 -254.5q24 -155 48 -359q10 -91 32 -319q17 -152 23 -191q17 -138 86 -218
q53 -60 108 -60v-131z" />
    <glyph glyph-name="afii57416" unicode="&#x628;" horiz-adv-x="1277" arabic-form="isolated" 
d="M1257 646q0 -66 -12 -105q-15 -52 -50 -78q-57 -48 -132.5 -87t-188.5 -78q-57 -15 -130 -36q-97 -25 -185 -42q-116 -22 -189 -22q-178 0 -276 91q-95 84 -95 229q0 42 17 106t39 112q4 6 9.5 14t7.5 8q3 0 3 -8v-14q-15 -73 -19.5 -112.5t-4.5 -61.5q0 -114 110 -178
q92 -56 217 -56q87 0 195 17.5t228 53.5q152 43 268 90q144 60 144 87q0 34 -27 78q-33 43 -63 84q0 4 11.5 47.5t12.5 58.5q36 -7 73 -80t37 -118zM988 -54q0 -28 -11.5 -59t-27.5 -49q-54 28 -109 55q-27 15 -27 31q0 3 12 40t24 75q24 -20 91 -51q48 -24 48 -42zM0 237z
" />
    <glyph glyph-name="afii62763" unicode="&#x628;" horiz-adv-x="1553" arabic-form="final" 
d="M1553 237q-29 0 -47 3q-49 7 -77 25q-37 26 -53.5 66.5t-16.5 89.5q0 12 0.5 17.5t2.5 29.5q-115 -60 -245 -112q-153 -61 -291 -95q-160 -37 -292 -37q-209 0 -325 72q-126 79 -126 235q0 31 14 89q17 85 53 133q4 6 9 6q9 0 9 -9q0 -4 -2 -8q-16 -31 -22 -46
q-15 -45 -15 -88q0 -122 117 -190q111 -62 312 -62q163 0 359 53q138 37 304 104q81 34 166 67q11 2 16 -3t5 -12v-24q-5 -33 -6 -55q-6 -44 51 -83q53 -35 100 -35v-131zM915 -108q0 -26 -11.5 -58.5t-26.5 -50.5q-9 6 -91 45q-45 24 -45 41q8 24 10 40q20 61 24 77
q23 -22 93 -53q47 -22 47 -41z" />
    <glyph glyph-name="afii62761" unicode="&#x628;" horiz-adv-x="381" arabic-form="initial" 
d="M288 540q1 -12 1 -30q0 -36 -9 -66q-16 -45 -57 -92q-31 -38 -92 -72q-76 -43 -131 -43v131q85 0 173 47q79 44 74 63q-3 4 -133 173q-59 76 -84 156q-8 0 -14 3t-6 7q2 7 6 45t6.5 54.5t7.5 16.5q1 0 11 -6q29 -25 68 -51t45 -32q24 -20 24 -30q0 -9 -16 -9h-16
q-12 0 -30 3q0 -1 117 -153q49 -64 55 -115zM263 -16q0 -27 -12 -58.5t-28 -51.5q-54 28 -107 55q-27 16 -27 34l33 113q24 -18 90 -51q51 -24 51 -41z" />
    <glyph glyph-name="afii62762" unicode="&#x628;" horiz-adv-x="351" arabic-form="medial" 
d="M353 237q-30 0 -73 22q-53 26 -75 62q-9 11 -13.5 31t-4.5 41q-18 -36 -33 -62q-20 -35 -32 -45q-31 -31 -61 -40q-21 -9 -61 -9v131q25 0 67.5 8.5t59.5 20.5q13 7 29 39q22 38 23 42q29 38 39 38q6 0 6 -12q0 -15 -6 -36q5 -11 16 -32q10 -21 58 -48q15 -9 30.5 -14.5
t30.5 -5.5v-131zM250 -8q0 -22 -13.5 -58t-28.5 -36q-11 0 -58 26q-52 33 -52 48q0 6 12 37t34 77q28 -28 77 -56q29 -20 29 -38z" />
    <glyph glyph-name="afii57417" unicode="&#x629;" horiz-adv-x="566" arabic-form="isolated" 
d="M467 868q-24 -39 -135 -195q29 -31 48.5 -56.5t26 -46t9.5 -40t3 -42.5q0 -71 -31 -131q-14 -29 -85 -78q-62 -43 -96 -43h-7q-36 4 -51 30t-15 67q0 42 12 97q9 36 25 81q6 24 23 54.5t38 64.5q-37 33 -83 89.5t-64 87.5q-16 0 -16 10l5 107q0 9 5 9q6 0 20 -14
q10 -7 19 -16q49 -27 73 -41q45 -25 45 -33q0 -6 -13 -6q-14 0 -26 -2.5t-24 -3.5q8 -15 42 -43q4 -5 72 -63q26 35 94 126q52 66 63 89.5t19 33.5t14 10t6 -21q0 -18 -5 -41.5t-11 -39.5zM381 463q2 1 2 7q0 18 -32 50q-22 27 -77 75q-32 -36 -65 -104t-33 -99q0 -11 3 -14
q10 -15 32 -15q36 0 94 39q52 32 76 61z" />
    <glyph glyph-name="afii62764" unicode="&#x629;" horiz-adv-x="1005" arabic-form="final" 
d="M1005 237h-12q-50 0 -94 15q-79 20 -133 80q-29 30 -66 104q-26 52 -53 53q-38 0 -98 -52t-86 -104q-39 -97 -78 -195q-46 -93 -105 -93q-75 0 -132 99q-61 102 -61 253q0 31 2.5 56t15.5 106q7 37 16 37q12 0 12 -43q0 -37 -3 -64q-3 -65 -3 -71q0 -86 30 -166
q37 -105 102 -105q55 0 91 64q31 75 62 155q46 108 114 181q34 37 77 59q36 18 64 18q37 0 86 -87q34 -57 53 -79q39 -46 97 -71q49 -19 102 -19v-131z" />
    <glyph glyph-name="afii57418" unicode="&#x62a;" horiz-adv-x="1279" arabic-form="isolated" 
d="M773 934q0 -15 -11 -49q-15 -42 -36 -62q-43 24 -71 39q-49 30 -49 46q0 7 17.5 54t28.5 47q41 -19 61 -29q60 -31 60 -46zM586 884q0 -25 -10 -55q-15 -40 -31 -40q-8 0 -67 35q-65 38 -65 54q0 5 15 41t31 73q26 -29 87 -62q40 -27 40 -46zM1257 646q0 -66 -12 -105
q-15 -52 -50 -78q-57 -48 -132.5 -87t-188.5 -78q-57 -15 -130 -36q-97 -25 -185 -42q-116 -22 -189 -22q-178 0 -276 91q-95 84 -95 229q0 42 17 106t39 112q4 6 9.5 14t7.5 8q3 0 3 -8v-14q-15 -73 -19.5 -112.5t-4.5 -61.5q0 -114 110 -178q92 -56 217 -56q87 0 195 17.5
t228 53.5q152 43 268 90q144 60 144 87q0 34 -27 78q-33 43 -63 84q0 4 11.5 47.5t12.5 58.5q36 -7 73 -80t37 -118z" />
    <glyph glyph-name="afii62767" unicode="&#x62a;" horiz-adv-x="1554" arabic-form="final" 
d="M989 954q0 -17 -11 -51q-14 -43 -35 -62q-44 23 -72 38q-49 30 -49 45q11 32 18 50q19 50 28 50q41 -19 60 -28q61 -29 61 -42zM804 900q0 -24 -12 -56q-13 -39 -31 -39q-43 24 -65 36q-66 37 -66 53q0 4 15 42t30 73q26 -27 87 -63q42 -22 42 -46zM1553 237q-29 0 -47 3
q-49 7 -77 25q-37 26 -53.5 66.5t-16.5 89.5q0 12 0.5 17.5t2.5 29.5q-115 -60 -245 -112q-153 -61 -291 -95q-160 -37 -292 -37q-209 0 -325 72q-126 79 -126 235q0 31 14 89q17 85 53 133q4 6 9 6q9 0 9 -9q0 -4 -2 -8q-16 -31 -22 -46q-15 -45 -15 -88q0 -122 117 -190
q111 -62 312 -62q163 0 359 53q138 37 304 104q81 34 166 67q11 2 16 -3t5 -12v-24q-5 -33 -6 -55q-6 -44 51 -83q53 -35 100 -35v-131z" />
    <glyph glyph-name="afii62765" unicode="&#x62a;" horiz-adv-x="399" arabic-form="initial" 
d="M235 1260q0 -17 -12 -51q-13 -43 -34 -61q-45 24 -73 40q-47 27 -47 43q12 33 18 51q19 50 25 50q42 -18 62 -28q61 -31 61 -44zM51 1207q0 -22 -13 -58.5t-29 -36.5q-8 0 -67 36q-66 37 -66 54q0 5 13.5 35.5t32.5 77.5q30 -29 88 -63q41 -25 41 -45zM306 540v-13.5
v-15.5q0 -35 -10 -67q-16 -45 -55 -92q-31 -36 -95 -72q-77 -43 -130 -43v131q83 0 173 47q79 44 73 63q-13 35 -58 87q-71 80 -86 101q-49 66 -73 141q-6 0 -12 3t-6 7l11 95q5 21 10 21q1 0 9 -6q28 -25 66.5 -51t46.5 -32q24 -20 24 -30q0 -9 -16 -9h-16q-12 0 -29 3
q56 -76 116 -153q48 -64 57 -115z" />
    <glyph glyph-name="afii62766" unicode="&#x62a;" horiz-adv-x="342" arabic-form="medial" 
d="M326 876q1 -2 1 -10q0 -18 -8.5 -51t-22.5 -62q-12 3 -24 5q-52 37 -78 59q-5 1 -5 12q0 14 13.5 62t16.5 52q17 -10 37 -19q46 -39 70 -48zM158 807q3 -2 3 -12q0 -13 -10.5 -46t-20.5 -64q-11 2 -20 3q-66 50 -96 59q-8 3 12 64q9 30 21 59q30 -17 53 -32
q28 -15 58 -31zM342 237q-27 0 -70 22q-53 26 -77 62q-7 11 -11.5 31t-4.5 41q-18 -36 -36 -62q-19 -35 -31 -45q-31 -31 -60 -40q-20 -9 -60 -9v131q25 0 67.5 8.5t59.5 20.5q11 7 29 39q19 38 22 42q30 38 40 38q6 0 6 -12q0 -15 -7 -36q4 -11 16 -32q11 -21 56 -48
q16 -9 32.5 -14.5t28.5 -5.5v-131z" />
    <glyph glyph-name="afii57419" unicode="&#x62b;" horiz-adv-x="979" arabic-form="isolated" 
d="M978 565q-1 -61 -7 -99q-18 -106 -62.5 -156.5t-140.5 -111.5q-107 -63 -223 -104q-136 -49 -242 -49q-135 0 -216.5 86t-81.5 219q0 53 18 114q10 30 22.5 60.5t26.5 30.5q9 0 9 -18q0 -6 -3 -18q-12 -33 -19 -64t-7 -62q0 -18 2 -37q12 -70 89 -126q89 -65 206 -65
q56 0 175 41t230 98q122 64 171 119q5 1 5 19q0 50 -29 215q-10 75 -52 298q-30 167 -32.5 186.5t-11 105t-14.5 142.5q-6 17 -7 23q-6 13 -16 34q-5 6 -5 15q0 18 28 101q0 6 6 6q4 0 13 -14q7 -12 13 -23q35 -70 58 -119q49 -95 49 -119q0 -7 -7 -7q-6 0 -15.5 8t-16.5 14
q-15 12 -29 30v-14q0 -36 30 -190q45 -232 55 -302q31 -181 31 -267zM682 667v-23q0 -58 -36 -109q-28 -40 -73 -69q-52 -16 -110 -29.5t-84 -13.5q-9 0 -9 4q0 3 21 13q74 36 135.5 74.5t79.5 59.5q-75 0 -96 5q-66 10 -66 76q0 21 52 131q60 126 101 126q10 0 22 -14
q3 -4 3 -15q0 -51 -16 -91l-18 -18q-9 13 -20 13t-27 -18q-10 -11 -34 -47q8 -14 23 -19.5t31 -5.5q14 0 43.5 4.5t37.5 4.5q16 0 25.5 -9t14.5 -30zM504 1293q0 -29 -12 -59.5t-27 -50.5q-54 29 -110 55q-27 16 -27 35l33 113q27 -22 94 -53q49 -22 49 -40zM655 1156
q0 -15 -13 -50q-14 -43 -32 -62q-37 19 -73 38q-51 30 -51 44q0 8 20 55t27 47q42 -16 61 -26q61 -32 61 -46zM468 1105q0 -24 -9 -55q-15 -40 -33 -40q-9 0 -66 34q-66 37 -66 52q0 6 12.5 38.5t33.5 78.5q29 -30 89 -63q39 -24 39 -45z" />
    <glyph glyph-name="afii62770" unicode="&#x62b;" horiz-adv-x="1275" arabic-form="final" 
d="M1274 237q-42 0 -81 21.5t-75 59.5q-43 50 -60 90q-23 51 -41 174q-16 -53 -49 -104q-25 -45 -147.5 -120t-257.5 -126q-158 -61 -267 -61q-133 0 -214 85.5t-81 219.5q0 43 10 101.5t21 83.5q21 39 31 39q8 0 8 -12t-10 -34q-8 -30 -10.5 -59t-2.5 -70v-33
q0 -68 78 -126q84 -68 204 -68q75 0 236.5 59.5t284.5 131.5q138 79 138 129q0 153 -24 374q-18 162 -47 372q-18 119 -36 239q12 65 21.5 93.5t17.5 28.5q12 0 21 -43q3 -14 9 -58q14 -76 27 -151q20 -116 29 -206l74 -621q16 -141 84 -218q54 -60 109 -60v-131zM713 955
q-16 -67 -48 -118q-27 -44 -65 -74q-41 -21 -97.5 -36.5t-75.5 -15.5q-8 0 -8 2.5t24 14.5q64 31 128 80q52 40 74 70q-58 -6 -70 -7t-23 -1q-35 0 -53.5 12t-18.5 43q2 6 2 9q9 77 66.5 182t90.5 105q15 0 20 -23q2 0 2 -3.5v-6.5q0 -51 -13 -92q-10 -7 -21 -15
q-8 14 -18 14t-32 -30q-16 -19 -30 -41q10 -15 28.5 -21.5t42.5 -6.5q14 0 28.5 1t27.5 1q23 0 32 -5t9 -23q0 -6 -2 -15zM680 1431q0 -17 -11 -53q-14 -40 -31 -61q-38 18 -74 40q-48 29 -48 43q0 8 18 55t27 47q41 -17 62 -26q57 -32 57 -45zM529 1566q0 -28 -11 -59
t-26 -51q-53 27 -107 54q-28 16 -28 34q4 13 8 24q19 65 25 90q25 -19 90 -50q49 -24 49 -42zM498 1376q0 -22 -13.5 -57t-29.5 -35q-9 0 -70 33q-62 37 -62 53q0 5 12.5 39.5t31.5 73.5q29 -28 89 -61q42 -23 42 -46z" />
    <glyph glyph-name="afii62768" unicode="&#x62b;" horiz-adv-x="1303" arabic-form="initial" 
d="M1247 1359q0 -6 0.5 -13.5t0.5 -12.5q0 -76 -56 -173q-39 -64 -117 -162q-85 -104 -101 -130q-9 -18 -19 -18q-5 0 -5 10q0 8 5 19q19 54 82 141q51 69 101.5 138.5t50.5 98.5q0 41 -86 41q-77 0 -213 -32.5t-361 -105.5q-180 -61 -315 -114q-164 -64 -256 -107
q-108 -54 -103 -107q6 -8 57.5 -34.5t37.5 -40t-17 -13.5q191 -10 338.5 -7t172.5 -55q0 -7 2 -21q6 -46 6 -66q0 -42 -7.5 -77.5t-31.5 -71.5q-12 -19 -75 -67q-76 -58 -146 -94q-94 -48 -163 -48v131q77 0 179 47q80 37 156 95q69 49 64 61q-40 65 -237 65t-266 18.5
t-106 91.5q-23 86 -9.5 137t28.5 87q54 44 233.5 123.5t421.5 166.5q119 42 225 75q135 40 231 61q123 24 211 24q38 0 60.5 -18.5t26.5 -42.5zM551 1437q0 -17 -15 -51q-13 -42 -31 -63q-37 21 -72 40q-50 30 -50 43q0 8 18 55t27 47q41 -17 62 -28q61 -31 61 -43z
M397 1572q0 -26 -10.5 -59t-27.5 -49q-53 27 -106 55q-27 15 -27 33q4 11 6 21q19 68 25 91q25 -20 91 -52q49 -20 49 -40zM366 1383q0 -23 -13 -58t-31 -35q-8 0 -66 33q-65 37 -65 53q0 5 12.5 39t31.5 76q28 -27 89 -63q42 -23 42 -45z" />
    <glyph glyph-name="afii62769" unicode="&#x62b;" horiz-adv-x="1909" arabic-form="medial" 
d="M1909 237q-48 0 -86 34q-30 25 -30 67q-1 8 -1 18v16q0 25 8 55q-17 -9 -35.5 -12.5t-34.5 -3.5q-54 0 -325 -45q-359 -59 -548 -83q-352 -46 -577 -46h-280v131h280q222 0 565 36q174 20 552 72q277 40 318 40q47 0 62 2q13 2 21 2q-57 113 -195 155q-80 22 -201 22
q-83 0 -283.5 -20t-406.5 -39.5t-320 -19.5q-138 0 -223 21q-113 30 -113 97q0 11 4 23q35 125 107 210q57 66 186 157q120 87 229 142q136 70 204 70q42 0 60.5 -14.5t18.5 -37.5q0 -19 -12 -48q-6 -13 -21 -44q-4 -11 -9 -20.5t-9 -9.5q-5 0 -10.5 6.5t-10.5 22.5t-22 27
t-38 11q-25 -4 -128 -54q-114 -53 -195 -111q-66 -44 -127 -92q-71 -56 -105 -95q-44 -47 -44 -71q0 -28 78 -52q100 -26 278 -26q70 0 258 19t379.5 37.5t274.5 18.5q217 0 307 -36q110 -41 173 -165q4 -9 4 -25q0 -30 -16.5 -66.5t-43.5 -64.5q3 -4 3 -11v-14
q0 -11 6.5 -23t17.5 -20t20 -10t36 -2v-131zM518 1437q0 -17 -13 -51q-14 -42 -32 -63q-37 21 -73 40q-50 30 -50 43q0 8 18 55t28 47q42 -17 61 -28q61 -31 61 -43zM365 1572q0 -26 -11 -59t-26 -49q-54 27 -107 55q-28 15 -28 33q4 11 6 21q19 68 25 91q26 -20 90 -52
q51 -20 51 -40zM334 1383q0 -23 -13.5 -58t-31.5 -35q-7 0 -66 33q-66 37 -66 53q0 5 13.5 39t32.5 76q27 -27 89 -63q42 -23 42 -45z" />
    <glyph glyph-name="afii57420" unicode="&#x62c;" horiz-adv-x="1010" arabic-form="isolated" 
d="M1154 -498q-52 -12 -71 -16q-29 -12 -52 -18q-102 -33 -206 -64q-103 -28 -226 -28q-271 0 -418 98q-113 75 -153 203q-21 69 -21 161q0 170 81 343q66 141 161 240q-28 21 -110 73q-72 46 -99 68q-43 40 -43 77q0 99 65 141q55 34 171 34q66 0 235.5 -11t296.5 -24
t128 -21q0 -14 -6 -40q-7 -42 -25 -64l-6 -12q-2 -6 -6 -6q-25 -16 -115 -56q-139 -60 -187 -80q-120 -56 -207 -112q6 -16 6 -28q0 -27 -12 -27q-9 0 -20 21l-8 12q-118 -89 -190 -237q-58 -126 -58 -230q0 -165 105 -259q90 -82 253 -113q122 -24 301 -24q105 0 187.5 5
t219.5 22q5 0 14 1t15 1q39 0 39 -12q0 -11 -39 -18zM568 24q0 -29 -12 -60t-27 -50q-56 26 -108 55q-28 15 -28 32q8 23 12 38q19 65 22 75q25 -20 92 -52q49 -22 49 -38zM663 660q-124 13 -217 17.5t-280 4.5q-35 0 -63.5 -5t-28.5 -20q0 -3 6 -11q95 -57 147.5 -92
t81.5 -80q54 44 130 82q88 50 224 104z" />
    <glyph glyph-name="afii62773" unicode="&#x62c;" horiz-adv-x="1027" arabic-form="final" 
d="M1238 -498q-52 -12 -71 -16q-29 -12 -52 -18q-102 -33 -206 -64q-103 -28 -226 -28q-271 0 -418 98q-113 75 -153 203q-21 69 -21 161q0 168 81 343q66 141 161 240q-29 21 -110 73q-72 46 -99 68q-43 40 -43 77q0 99 65 141q55 34 171 34q66 0 235.5 -11t296.5 -24
t128 -21q3 -5 -8.5 -43.5t-21.5 -60.5q-1 -8 -7 -12q-2 -3 -6 -6q-15 -10 -55 -28q-28 -12 -49 -22l-10 -37q-8 -31 -8 -57q0 -38 19 -58q35 -31 78 -48.5t80 -17.5v-131q-34 0 -104 25q-86 30 -107 66q-9 22 -14 43t-5 41q0 36 14 80q8 28 17 57l6 23q-65 -28 -113 -48
q-84 -38 -127 -60q-65 -34 -131 -76l5 -9q1 -11 1 -17q0 -25 -13 -25q-9 0 -19 17l-8 12q-122 -89 -190 -239q-58 -124 -58 -228q0 -165 105 -259q90 -82 253 -113q122 -24 301 -24q105 0 187.5 5t219.5 22q5 0 14 1t15 1q39 0 39 -12q0 -11 -39 -18zM688 -40
q0 -27 -10.5 -57.5t-25.5 -50.5q-55 27 -110 56q-25 13 -25 32l33 112q22 -19 91 -51q47 -23 47 -41zM745 660l-51 6q-128 10 -203.5 13t-240.5 3q-35 0 -63.5 -5t-28.5 -20q0 -3 6 -11q96 -57 148 -92t81 -80q48 39 114 75q50 30 121 61q48 23 117 50z" />
    <glyph glyph-name="afii62771" unicode="&#x62c;" horiz-adv-x="1134" arabic-form="initial" 
d="M595 64q0 -27 -10.5 -57.5t-26.5 -52.5q-56 28 -110 56q-27 15 -27 33q0 2 10 38q20 63 24 76q24 -19 92 -52q48 -24 48 -41zM1067 544q-15 -52 -33 -100q-2 -5 -7.5 -9.5t-10.5 -1.5q-28 7 -59.5 11t-66.5 4q-108 0 -259 -46q-122 -45 -245 -84q-122 -35 -214 -56
q-116 -25 -172 -25v131q49 0 101.5 8t126.5 26q44 9 136 32q66 18 93 25q126 39 148 45q-59 14 -111 27q-63 16 -159 41q-6 2 -10 2q-12 0 -21.5 -6t-9.5 -13l-208 17q-7 0 -11.5 7t-1.5 16q4 29 20.5 65.5t45 55t64.5 20.5t63 2q47 0 168 -41q82 -28 167 -58
q69 -18 129 -28.5t145.5 -21t181.5 -23.5q11 0 11 -10q0 -3 -1 -12z" />
    <glyph glyph-name="afii62772" unicode="&#x62c;" horiz-adv-x="1095" arabic-form="medial" 
d="M1096 237h-53q-51 0 -76 6q-37 10 -55 36q-6 7 -8.5 20.5t-2.5 26.5q0 30 8.5 64t20.5 56q-86 0 -190 -22q-70 -15 -182 -51q-85 -27 -172 -55q-122 -35 -214 -56q-116 -25 -172 -25v131q49 0 101.5 8t126.5 26q44 9 136 32q66 18 93 25q126 39 148 45q-59 14 -111 27
q-63 16 -159 41q-6 2 -10 2q-12 0 -21.5 -6t-9.5 -13l-208 17q-7 0 -11.5 7t-1.5 16q4 29 20.5 65.5t44.5 55t64.5 20.5t63.5 2q47 0 168 -41q82 -28 167 -58q69 -18 129 -28.5t145.5 -21t181.5 -23.5q11 0 11 -10q0 -3 -1 -12q-15 -52 -33 -100q-2 -5 -7.5 -9.5t-10.5 -1.5
q-10 1 -32.5 6t-39.5 5l-3 -41q-5 -18 10.5 -26.5t69.5 -8.5h75v-131zM618 -83q0 -30 -11.5 -60t-26.5 -50q-14 7 -90 47q-46 24 -46 40q7 24 11 39q15 51 21 76q26 -21 94 -51q48 -24 48 -41z" />
    <glyph glyph-name="afii57421" unicode="&#x62d;" horiz-adv-x="985" arabic-form="isolated" 
d="M980 62q0 -147 -100 -283q-93 -123 -235 -205q-139 -77 -259 -77q-181 0 -287 119q-97 112 -97 295q0 103 32 212q30 91 81 190l-14 5q-25 8 -25 19t43 11h20q30 45 55.5 80t54.5 61q-40 40 -167 119q-85 55 -85 100q0 99 65 140q55 36 171 36q68 0 223 -11t295.5 -25
t141.5 -19q0 -11 -10 -47t-21 -58q-5 -12 -6 -13q-2 -6 -8 -6q-22 -13 -113 -51q-124 -50 -186 -80q-116 -55 -208 -115q5 -17 5 -26q0 -30 -12 -30q-8 0 -19 20l-8 11q-24 -16 -55 -44t-52 -53q44 -9 113.5 -14t131.5 -5q174 0 230 -5q138 -15 212 -64q93 -62 93 -187z
M661 728q-111 14 -217 19.5t-278 5.5q-35 0 -63.5 -6.5t-28.5 -18.5q0 -6 6 -12q9 -10 144 -98q53 -36 85 -74q83 56 176.5 105t175.5 79zM932 3q0 102 -117 148q-80 31 -259.5 41t-187.5 13q-69 15 -127 38q-20 10 -78 42q-59 -84 -89 -183q-24 -84 -24 -156
q0 -138 78 -216q61 -61 158 -85q60 -12 129 -12q120 0 246 63q115 59 193 148.5t78 158.5z" />
    <glyph glyph-name="afii62776" unicode="&#x62d;" horiz-adv-x="1039" arabic-form="final" 
d="M1072 -58q0 -147 -99 -284q-92 -122 -236 -203q-140 -79 -260 -79q-182 0 -286 118q-98 112 -98 295q0 105 34 214q27 95 80 187l-16 6q-25 10 -25 18q0 6 18.5 10t46.5 4q55 90 108 141q-29 24 -110 73q-69 46 -99 71q-43 40 -43 76q0 98 65 139q57 35 171 35
q68 0 224.5 -10.5t296 -24t139.5 -20.5q5 -8 -13.5 -67t-29.5 -57q-21 -10 -35 -16q-44 -19 -79 -33q0 -7 -6 -31q-12 -34 -12 -52t12 -40q17 -28 112 -40q48 -4 105 -4v-131q-74 0 -130 6q-111 13 -131 48q-11 22 -11 53q0 44 16 106q8 32 24 75q-131 -53 -227 -102
q-81 -42 -147 -83l5 -12q1 -10 1 -18q0 -25 -12 -25q-10 0 -20 17q-4 0 -8 12q-56 -46 -105 -97q43 -9 114 -15t131 -6q173 0 229 -3q141 -15 214 -64q92 -63 92 -187zM753 610q-119 11 -220.5 17t-273.5 6q-38 0 -66.5 -6t-28.5 -19q0 -4 6 -10q96 -61 147.5 -93.5
t81.5 -81.5q54 43 127 85q89 48 227 102zM1023 -116q0 102 -116 147q-81 31 -259 42.5t-190 12.5q-67 14 -124 40q-38 15 -80 39q-59 -85 -88 -183q-24 -83 -24 -158q0 -136 77 -214q60 -61 160 -84q57 -14 126 -14q120 0 246 64q116 62 194 149.5t78 158.5z" />
    <glyph glyph-name="afii62774" unicode="&#x62d;" horiz-adv-x="1126" arabic-form="initial" 
d="M1067 544q-15 -52 -33 -100q-2 -5 -7.5 -9.5t-10.5 -1.5q-28 7 -59.5 11t-66.5 4q-108 0 -259 -46q-122 -45 -245 -84q-122 -35 -214 -56q-116 -25 -172 -25v131q49 0 101.5 8t126.5 26q44 9 136 32q66 18 93 25q126 39 148 45q-59 14 -111 27q-63 16 -159 41q-6 2 -10 2
q-12 0 -21.5 -6t-9.5 -13l-208 17q-7 0 -11.5 7t-1.5 16q4 29 20.5 65.5t28.5 39.5q29 12 70 24q47 14 74 14q47 0 168 -41q82 -28 167 -58q69 -18 129 -28.5t145.5 -21t181.5 -23.5q11 0 11 -10q0 -3 -1 -12z" />
    <glyph glyph-name="afii62775" unicode="&#x62d;" horiz-adv-x="1031" arabic-form="medial" 
d="M1057 684v-5q0 -13 -14 -63q-19 -66 -30 -63q-71 0 -179 -49q-6 -21 -14 -42q-5 -22 -5 -41q0 -39 105 -49q46 -4 87 -4h24v-131q-100 0 -132 3q-79 7 -113 51q-10 16 -10 51q0 40 11 86.5t22 63.5q-81 -42 -162 -81q-113 -55 -193 -84q-117 -45 -226 -68q0 -45 -16 -77
q-7 -16 -14 -16q-6 0 -10 10t-2 28t-8 48q-41 -9 -84.5 -12t-93.5 -3v131h16q57 0 115 4q-33 70 -45 108q-19 56 -19 90q0 109 64 187q67 80 168 80q55 0 189 -32.5t269 -62.5q180 -44 300 -58zM761 591q-55 7 -148 33q-126 37 -156 45q-95 21 -177 21q-30 0 -62.5 -2.5
t-67 -35t-34.5 -61.5q0 -7 2 -13q27 -53 42 -86q28 -65 43 -107q92 17 188 47t189 72q74 33 181 87z" />
    <glyph glyph-name="afii57422" unicode="&#x62e;" horiz-adv-x="985" arabic-form="isolated" 
d="M457 1194q0 -27 -11 -58t-28 -50q-53 26 -108 55q-27 15 -27 32l33 115q24 -20 93 -54q48 -21 48 -40zM980 62q0 -147 -100 -283q-93 -123 -235 -205q-139 -77 -259 -77q-181 0 -287 119q-97 112 -97 295q0 103 32 212q30 91 81 190l-14 5q-25 8 -25 19t43 11h20
q30 45 55.5 80t54.5 61q-40 40 -167 119q-85 55 -85 100q0 99 65 140q55 36 171 36q68 0 223 -11t295.5 -25t141.5 -19q0 -11 -10 -47t-21 -58q-5 -12 -6 -13q-2 -6 -8 -6q-22 -13 -113 -51q-124 -50 -186 -80q-116 -55 -208 -115q5 -17 5 -26q0 -30 -12 -30q-8 0 -19 20
l-8 11q-24 -16 -55 -44t-52 -53q44 -9 113.5 -14t131.5 -5q174 0 230 -5q138 -15 212 -64q93 -62 93 -187zM661 728q-111 14 -217 19.5t-278 5.5q-35 0 -63.5 -6.5t-28.5 -18.5q0 -6 6 -12q9 -10 144 -98q53 -36 85 -74q83 56 176.5 105t175.5 79zM932 3q0 102 -117 148
q-80 31 -259.5 41t-187.5 13q-69 15 -127 38q-20 10 -78 42q-59 -84 -89 -183q-24 -84 -24 -156q0 -138 78 -216q61 -61 158 -85q60 -12 129 -12q120 0 246 63q115 59 193 148.5t78 158.5z" />
    <glyph glyph-name="afii62779" unicode="&#x62e;" horiz-adv-x="1039" arabic-form="final" 
d="M487 1010q0 -28 -12 -59.5t-28 -48.5q-53 28 -108 54q-25 17 -25 32l33 114q23 -21 90 -51q50 -21 50 -41zM1072 -58q0 -147 -99 -284q-92 -122 -236 -203q-140 -79 -260 -79q-182 0 -286 118q-98 112 -98 295q0 105 34 214q27 95 80 187l-16 6q-25 10 -25 18
q0 6 18.5 10t46.5 4q55 90 108 141q-29 24 -110 73q-69 46 -99 71q-43 40 -43 76q0 98 65 139q57 35 171 35q68 0 224.5 -10.5t296 -24t139.5 -20.5q5 -8 -13.5 -67t-29.5 -57q-21 -10 -35 -16q-44 -19 -79 -33q0 -7 -6 -31q-12 -34 -12 -52t12 -40q17 -28 112 -40
q48 -4 105 -4v-131q-74 0 -130 6q-111 13 -131 48q-11 22 -11 53q0 44 16 106q8 32 24 75q-131 -53 -227 -102q-81 -42 -147 -83l5 -12q1 -10 1 -18q0 -25 -12 -25q-10 0 -20 17q-4 0 -8 12q-56 -46 -105 -97q43 -9 114 -15t131 -6q173 0 229 -3q141 -15 214 -64
q92 -63 92 -187zM753 610q-119 11 -220.5 17t-273.5 6q-38 0 -66.5 -6t-28.5 -19q0 -4 6 -10q96 -61 147.5 -93.5t81.5 -81.5q54 43 127 85q89 48 227 102zM1023 -116q0 102 -116 147q-81 31 -259 42.5t-190 12.5q-67 14 -124 40q-38 15 -80 39q-59 -85 -88 -183
q-24 -83 -24 -158q0 -136 77 -214q60 -61 160 -84q57 -14 126 -14q120 0 246 64q116 62 194 149.5t78 158.5z" />
    <glyph glyph-name="afii62777" unicode="&#x62e;" horiz-adv-x="1126" arabic-form="initial" 
d="M497 1111q0 -30 -12 -59.5t-28 -51.5q-55 28 -108 56q-27 15 -27 31q0 3 12 39q16 63 21 77q24 -20 93 -51q49 -24 49 -41zM1067 544q-15 -52 -33 -100q-2 -5 -7.5 -9.5t-10.5 -1.5q-28 7 -59.5 11t-66.5 4q-108 0 -259 -46q-122 -45 -245 -84q-122 -35 -214 -56
q-116 -25 -172 -25v131q49 0 101.5 8t126.5 26q44 9 136 32q66 18 93 25q126 39 148 45q-59 14 -111 27q-63 16 -159 41q-6 2 -10 2q-12 0 -21.5 -6t-9.5 -13l-208 17q-7 0 -11.5 7t-1.5 16q4 29 20.5 65.5t28.5 39.5q29 12 70 24q47 14 74 14q47 0 168 -41q82 -28 167 -58
q69 -18 129 -28.5t145.5 -21t181.5 -23.5q11 0 11 -10q0 -3 -1 -12z" />
    <glyph glyph-name="afii62778" unicode="&#x62e;" horiz-adv-x="1031" arabic-form="medial" 
d="M570 1077q0 -26 -11.5 -58.5t-26.5 -49.5q-56 27 -108 55q-28 14 -28 32l34 114q24 -20 91 -52q49 -23 49 -41zM1057 682q5 -1 -15 -66.5t-29 -62.5q-71 0 -179 -49q-6 -21 -14 -41q-6 -23 -6 -42q0 -37 106 -49q46 -4 87 -4h24v-131q-101 0 -132 3q-79 7 -113 51
q-10 16 -10 51q0 39 11 85.5t23 64.5q-83 -42 -163 -81q-113 -55 -193 -85q-117 -43 -226 -67q0 -45 -16 -77q-7 -16 -15 -16q-5 0 -9 10t-2 28t-8 48q-42 -9 -84 -12t-94 -3v131h16q57 0 115 4q-33 70 -45 108q-19 55 -19 91q0 108 64 185q66 81 168 81q56 0 189.5 -31.5
t268.5 -63.5q180 -44 300 -60zM761 591q-55 7 -148 33q-127 37 -156 45q-93 22 -177 22q-30 0 -62 -3t-67 -35.5t-35 -61.5q0 -7 2 -12q28 -54 42 -87q28 -65 43 -107q92 17 187.5 47.5t189.5 71.5q74 33 181 87z" />
    <glyph glyph-name="afii57423" unicode="&#x62f;" horiz-adv-x="956" arabic-form="isolated" 
d="M886 727q0 -52 -10.5 -85.5t-33 -63t-93.5 -74.5q-52 -34 -106 -70q-106 -78 -146 -106q-82 -57 -140 -85q-73 -35 -122 -35q-56 0 -87 55t-31 139q0 38 18 123q25 112 59 163q6 0 6 -9q-16 -71 -28 -130.5t-12 -104.5t23 -78t56 -33q40 0 101 29q82 35 211 121
q39 25 75 48q53 34 151 102q24 18 37 30q33 28 28 40q-19 50 -72 80q-95 49 -192 101q-66 37 -173 157q-41 46 -58 46q-6 0 -12 -6q0 8 5 25q5 42 5 90q0 37 5 37q3 0 9 -6q12 -12 21 -20q13 -11 62 -37q96 -46 96 -52t-21 -6q-20 -4 -35 -5t-24 -2q32 -33 71 -58
q43 -29 124 -71q143 -68 158 -81q75 -57 75 -168z" />
    <glyph glyph-name="afii62780" unicode="&#x62f;" horiz-adv-x="1072" arabic-form="final" 
d="M1076 237q-42 0 -82 21.5t-73.5 59.5t-62.5 116q-24 67 -47 172q-8 -30 -19 -56t-23 -46q-40 -60 -133 -141q-103 -92 -208 -149q-125 -68 -215 -68q-78 0 -112 71q-28 51 -28 137q0 100 36 195q25 69 89 178q25 39 37 39q5 0 5 -10q0 -14 -16 -45q-53 -105 -80 -180
q-31 -91 -31 -153q0 -47 34 -74t83 -27q29 0 111 31q112 44 195 104q31 21 55 38q59 48 104 94q64 68 99 138l-18 87q-6 30 -15 63q-2 6 -41 122q-18 51 -42 117q-45 127 -45 141q0 9 2 21q6 43 15 87q5 4 9 4q15 0 40 -57q22 -48 52 -135q11 -33 47 -140q29 -86 48 -184
q13 -58 32 -169q27 -135 84 -209q53 -62 114 -62v-131z" />
    <glyph glyph-name="afii57424" unicode="&#x630;" horiz-adv-x="905" arabic-form="isolated" 
d="M897 591q0 -63 -11 -107.5t-28 -80.5q-32 -47 -121 -126q-114 -102 -221 -163q-141 -83 -253 -83q-127 0 -182 125q-41 90 -41 229q0 48 20 120q16 54 32 93q24 59 37 59q3 0 3 -11q0 -15 -15.5 -59t-21.5 -69q-15 -54 -15 -101q0 -110 33 -165q45 -74 163 -87
q11 -2 17.5 -2h10.5q96 0 236 80q107 61 218 159q94 80 106 106q-6 20 -45 39q-48 24 -106 24q-11 0 -21.5 -1.5t-20.5 -1.5q-78 0 -99.5 26t-21.5 75q0 84 50 145q45 60 96 60q52 0 117 -67q84 -85 84 -216zM770 688q-34 40 -42 46q-24 19 -53 19q-22 0 -35.5 -11.5
t-13.5 -30.5q6 -11 15.5 -13t27.5 -2h29h31.5t40.5 -8zM645 1302l20 -316l-14 -7l-119 338z" />
    <glyph glyph-name="afii62781" unicode="&#x630;" horiz-adv-x="714" arabic-form="final" 
d="M715 237l-42 -1l-9 -41q-17 -99 -81 -168q-123 -113 -290 -223q-149 -97 -247 -135q-94 -13 -170 -31q-99 -24 -191 -57q-18 -8 -30.5 -11t-23.5 -3q-15 0 -15 6q0 14 55 37t136 59q88 42 185 90q133 69 288 168q148 92 248 169q104 79 104 100q-3 16 -5 22t-8 18
q-73 0 -133.5 3.5t-84.5 14.5t-46 37q-24 30 -24 57q0 79 48.5 146.5t101.5 67.5q37 0 95 -58q62 -65 84 -138l55 2v-131zM533 368l-21 29q-7 12 -22 21t-29 9q-27 0 -40 -15q-7 -10 -7 -27q7 -7 41.5 -12t77.5 -5zM428 1010l20 -314l-14 -9l-118 339z" />
    <glyph glyph-name="afii57425" unicode="&#x631;" horiz-adv-x="1172" arabic-form="isolated" 
d="M1125 480q0 -22 -8 -62t-20 -40q-8 0 -14 15q-18 30 -36 41q-34 25 -104 25q-76 0 -157 -50q-71 -43 -178 -142q-33 -33 -215 -212q-67 -67 -104 -92q-54 -39 -104 -39q-77 0 -130.5 55t-53.5 135q0 92 34 193q27 80 78 171q4 10 13 18t15 8t6 -6q0 -10 -12 -35
q-30 -60 -57 -142q-37 -119 -37 -195q0 -41 19.5 -71t58.5 -30q106 0 255 140q133 131 268 265q169 149 317 161h21q65 0 105 -31t40 -80z" />
    <glyph glyph-name="afii62782" unicode="&#x631;" horiz-adv-x="896" arabic-form="final" 
d="M898 237q-10 0 -22.5 1.5t-27.5 8.5q9 -41 9 -76q0 -37 -8 -73.5t-26 -83.5q-6 -20 -91 -93q-98 -84 -194 -142q-131 -73 -224 -73q-135 0 -195 91q-41 65 -41 163q0 50 16 125q14 59 25 81q19 42 32 42q6 0 6 -10q0 -11 -9 -39q-9 -18 -18 -67q-12 -65 -12 -120
q0 -73 80 -114q64 -31 132 -31q82 0 208 66q100 55 193 131q86 70 85 86q-17 91 -36 136q-38 46 -46 56q-2 5 -2 14q0 15 4 40q12 65 12 74q3 9 12 0q2 0 20 -21q7 -10 22 -24q15 -6 35.5 -9.5t60.5 -7.5v-131z" />
    <glyph glyph-name="afii57426" unicode="&#x632;" horiz-adv-x="818" arabic-form="isolated" 
d="M609 1010q0 -28 -11 -59.5t-26 -48.5q-6 1 -90 44q-46 24 -46 42l34 114q25 -21 91 -51q48 -21 48 -41zM761 236q0 -48 -8 -86.5t-24 -63.5t-96 -91q-85 -66 -197 -141q-137 -87 -254 -140q-61 -18 -136 -34q-248 -60 -286 -70q-12 -4 -26 -5.5t-22 -1.5q-15 0 -15 3
q0 12 58 37t143 62q91 38 178 80q107 53 197 99q154 79 304 182q154 106 147 135q-12 35 -39 94q-44 89 -52 102q-25 62 -34 121q-9 0 -16 1q3 34 6 55t10 52q3 18 6 18q6 0 17 -13q21 -27 52 -60q26 -27 40.5 -39.5t14.5 -18.5q0 -5 -11 -5q-9 2 -14 2l-31 1
q39 -81 63.5 -141t24.5 -115v-19z" />
    <glyph glyph-name="afii62783" unicode="&#x632;" horiz-adv-x="801" arabic-form="final" 
d="M556 980q0 -30 -10 -59t-26 -49q-57 26 -110 53q-27 15 -27 33l33 114q27 -21 92 -50q48 -24 48 -42zM803 237q-12 0 -21 1.5t-28 2.5q8 -33 18 -69q7 -34 7 -92q0 -46 -11 -93.5t-26 -74.5t-117 -111q-115 -95 -241 -179q-157 -106 -275 -161q-43 -13 -113 -27.5
t-138 -28.5q-87 -18 -161 -37q-34 -8 -49 -8q-14 0 -14 4q0 12 60 37q77 31 141 60q93 42 181 84q104 55 194 107q157 91 209 125q114 71 181 122q85 67 143 135q-47 138 -77 198q-23 48 -56 90q1 40 4 58.5t11 53.5q1 16 6 16q6 0 17 -14.5t32 -33.5q6 -10 22 -30
q14 0 45 -2t56 -2v-131z" />
    <glyph glyph-name="afii57427" unicode="&#x633;" horiz-adv-x="1663" arabic-form="isolated" 
d="M1606 615q0 -95 -32 -143q-33 -55 -96 -55h-7h-3q-35 0 -62 17q-10 8 -58 66q-12 -22 -22 -41t-19 -36q-27 -38 -64 -58.5t-77 -20.5q-19 0 -32.5 3t-29.5 13q1 -20 3 -38t2 -37q0 -44 -10 -95q-13 -69 -37 -100q-62 -80 -172 -161q-120 -91 -246 -144q-145 -63 -270 -63
q-177 0 -282 122q-92 109 -92 260q0 142 36 238q43 81 55.5 107.5t26.5 26.5q8 0 8 -13q0 -15 -8 -33q-39 -93 -48 -135q-17 -63 -17 -148q0 -129 107 -218q92 -77 196 -77q83 0 188 32q133 37 254 110q146 86 275 217q0 54 -27 127q-33 77 -67 151q0 12 4 24q9 30 9 78
q0 11 14 11q6 0 9 -4q33 -55 42 -74q4 -5 11 -20q55 -24 102 -24q71 0 119 54q31 32 53 87q15 36 22 48q22 42 39 47q2 2 5.5 1t3.5 -11t-7.5 -41.5t-13.5 -60.5q27 -33 37 -42q20 -13 60 -13q19 0 42 5t23 18q0 10 -6 23q-16 32 -16 41q6 21 7 33q11 42 29 67q1 4 6 4
q10 0 21.5 -42.5t11.5 -82.5z" />
    <glyph glyph-name="afii62786" unicode="&#x633;" horiz-adv-x="1808" arabic-form="final" 
d="M1811 237q-26 0 -67 22q-47 24 -71 62q-12 19 -15 45q-36 -113 -87 -155q-32 -25 -64 -25q-46 0 -76 40q-18 27 -31 70q-16 -20 -29 -39.5t-26 -30.5q-46 -36 -76.5 -51.5t-54.5 -15.5q-15 0 -27.5 6.5t-21.5 20.5q2 -21 4 -36.5t2 -35.5q0 -40 -12 -93q-17 -68 -44 -98
q-108 -126 -282 -218q-198 -108 -384 -108q-178 0 -282 115q-92 104 -92 258q0 141 28 225q2 10 45 96q13 25 25 25q9 0 9 -12q0 -13 -9 -33q-31 -75 -41 -130.5t-10 -148.5q0 -113 95 -189q91 -73 213 -73q145 0 293 55q122 46 241 126q94 65 159 134q0 87 -35 175
q-22 47 -46 94q-1 8 -1 14q0 10 5 35t11 52q3 13 9 13q5 0 9 -10q25 -40 46 -74q5 -6 6 -13q28 -18 55.5 -26.5t51.5 -8.5q51 0 96 32q31 24 49 53q30 46 38 58q22 27 36 33q19 4 19 -13q0 -13 -11 -36.5t-19 -43.5q24 -31 26 -33q19 -20 64 -20q13 0 37.5 15t39.5 31
q3 13 9 22q0 5 11 27q8 15 16 32t25 45q5 7 9 7q6 0 6 -22v-9q3 -8 6.5 -17t9.5 -21q10 -15 49.5 -41.5t60.5 -26.5v-131z" />
    <glyph glyph-name="afii62784" unicode="&#x633;" horiz-adv-x="1026" arabic-form="initial" 
d="M970 498q0 -94 -32.5 -145.5t-96.5 -51.5h-6h-6q-33 0 -60 20q-8 5 -63 67q-14 -28 -27 -46q-7 -11 -23 -32q-18 -27 -50 -42.5t-68 -15.5q-59 0 -96 37q-46 43 -46 123q-101 -79 -160 -110q-120 -65 -236 -65v131q98 0 159.5 14.5t122.5 50.5q25 13 133 87q5 5 10.5 9.5
t12.5 4.5t7 -16q0 -2 -1 -14l-8 -50q21 -42 50.5 -62t65.5 -20q43 0 85 32t66 85q15 30 30 48q10 13 25 29q9 5 12 2t3 -9q0 -12 -8 -35.5t-15 -45.5q19 -24 30 -34q25 -21 71 -21q18 0 46.5 10.5t28.5 23.5q0 9 -15.5 28.5t-15.5 33.5v15q0 22 3.5 44t15.5 43q3 6 6 6
q15 0 32.5 -45t17.5 -84z" />
    <glyph glyph-name="afii62785" unicode="&#x633;" horiz-adv-x="1020" arabic-form="medial" 
d="M1021 237q-57 0 -85 10q-35 14 -62 49q-10 17 -17 36.5t-7 39.5q-40 -89 -78 -124.5t-84 -35.5q-57 0 -81 35q-2 6 -21 66q-24 -34 -33 -46q-11 -18 -29 -33q-34 -29 -71.5 -46t-72.5 -17q-61 0 -98 43q-42 47 -42 132q-47 -38 -142 -78q-78 -31 -98 -31v131q31 0 83 13
q84 22 195 82q10 5 15 8t9 3q3 0 3 -7.5t-6 -22.5l-13 -50q21 -46 55 -68q30 -22 67 -22q49 0 96 31t72 68q11 21 31 43q10 13 30 32q5 4 7 4q6 0 6 -8t-3 -20q-9 -24 -16 -45q23 -34 35 -43q22 -18 49 -22q30 -2 62.5 20.5t50.5 58.5q7 17 15 34t23 44q20 12 24 12
q6 0 6 -9q0 -12 -6 -28q5 -4 8.5 -16t9.5 -27t15 -24.5t25 -21.5q19 -9 38.5 -14t34.5 -5v-131z" />
    <glyph glyph-name="afii57428" unicode="&#x634;" horiz-adv-x="1665" arabic-form="isolated" 
d="M1405 1032q0 -16 -14 -52q-13 -41 -31 -62q-35 21 -74 40q-48 30 -48 44l17 51q21 52 28 52q39 -18 61 -28q61 -31 61 -45zM1254 1167q0 -26 -12 -58t-28 -52q-55 29 -109 57q-25 16 -25 32q6 24 10 37q19 63 22 77q26 -20 92 -51q50 -24 50 -42zM1219 979
q0 -23 -12.5 -59t-29.5 -36q-8 0 -68 35q-65 37 -65 55q0 6 20 56q14 32 28 57q25 -25 86 -63q41 -24 41 -45zM1606 615q0 -95 -32 -143q-33 -55 -96 -55h-7h-3q-35 0 -62 17q-10 8 -58 66q-12 -22 -22 -41t-19 -36q-27 -38 -64 -58.5t-77 -20.5q-19 0 -32.5 3t-29.5 13
q1 -20 3 -38t2 -37q0 -44 -10 -95q-13 -69 -37 -100q-62 -80 -172 -161q-120 -91 -246 -144q-145 -63 -270 -63q-177 0 -282 122q-92 109 -92 260q0 142 36 238q43 81 55.5 107.5t26.5 26.5q8 0 8 -13q0 -15 -8 -33q-39 -93 -48 -135q-17 -63 -17 -148q0 -129 107 -218
q92 -77 196 -77q83 0 188 32q133 37 254 110q146 86 275 217q0 54 -27 127q-33 77 -67 151q0 12 4 24q9 30 9 78q0 11 14 11q6 0 9 -4q33 -55 42 -74q4 -5 11 -20q55 -24 102 -24q71 0 119 54q31 32 53 87q15 36 22 48q22 42 39 47q2 2 5.5 1t3.5 -11t-7.5 -41.5
t-13.5 -60.5q27 -33 37 -42q20 -13 60 -13q19 0 42 5t23 18q0 10 -6 23q-16 32 -16 41q6 21 7 33q11 42 29 67q1 4 6 4q10 0 21.5 -42.5t11.5 -82.5z" />
    <glyph glyph-name="afii62789" unicode="&#x634;" horiz-adv-x="1824" arabic-form="final" 
d="M1602 837q0 -19 -12 -51q-16 -44 -34 -64q-36 18 -73 40q-49 30 -49 43q0 8 19 55.5t29 47.5q38 -18 58 -29q62 -31 62 -42zM1449 970q0 -25 -11.5 -58t-25.5 -50q-55 26 -108 56q-28 15 -28 31q6 14 9 24q19 65 25 90q23 -19 91 -52q48 -21 48 -41zM1417 782
q0 -23 -12.5 -58.5t-32.5 -35.5q-7 0 -66 34q-66 37 -66 54q0 4 14.5 38t33.5 74q28 -28 87 -62q42 -24 42 -44zM1828 237q-26 0 -67 22q-47 24 -71 62q-12 19 -15 45q-36 -113 -87 -155q-32 -25 -64 -25q-46 0 -76 40q-18 27 -31 70q-16 -20 -29 -39.5t-26 -30.5
q-46 -36 -76.5 -51.5t-54.5 -15.5q-15 0 -27.5 6.5t-21.5 20.5q2 -21 4 -36.5t2 -35.5q0 -40 -12 -93q-17 -68 -44 -98q-108 -126 -282 -218q-198 -108 -384 -108q-178 0 -282 115q-92 104 -92 258q0 141 28 225q2 10 45 96q13 25 25 25q9 0 9 -12q0 -13 -9 -33
q-31 -75 -41 -130.5t-10 -148.5q0 -113 95 -189q91 -73 213 -73q145 0 293 55q122 46 241 126q94 65 159 134q0 87 -35 175q-22 47 -46 94q-1 8 -1 14q0 10 5 35t11 52q3 13 9 13q5 0 9 -10q25 -40 46 -74q5 -6 6 -13q28 -18 55.5 -26.5t51.5 -8.5q51 0 96 32q31 24 49 53
q30 46 38 58q22 27 36 33q19 4 19 -13q0 -13 -11 -36.5t-19 -43.5q24 -31 26 -33q19 -20 64 -20q13 0 37.5 15t39.5 31q3 13 9 22q0 5 11 27q8 15 16 32t25 45q5 7 9 7q6 0 6 -22v-9q3 -8 6.5 -17t9.5 -21q10 -15 49.5 -41.5t60.5 -26.5v-131z" />
    <glyph glyph-name="afii62787" unicode="&#x634;" horiz-adv-x="1026" arabic-form="initial" 
d="M670 1072q0 -28 -11 -59t-27 -50q-70 35 -90 46q-45 23 -45 42l33 113q26 -21 92 -52q48 -22 48 -40zM822 934q0 -10 -12 -49q-14 -42 -31 -62q-46 24 -73 39q-52 30 -52 46q0 11 25 68q15 33 23 33q38 -19 59 -29q61 -31 61 -46zM637 884q0 -25 -12 -55q-14 -40 -30 -40
q-8 0 -69 35q-65 38 -65 54q0 5 15 41t30 73q28 -29 89 -62q42 -24 42 -46zM970 498q0 -94 -32.5 -145.5t-96.5 -51.5h-6h-6q-33 0 -60 20q-8 5 -63 67q-14 -28 -27 -46q-7 -11 -23 -32q-18 -27 -50 -42.5t-68 -15.5q-59 0 -96 37q-46 43 -46 123q-101 -79 -160 -110
q-120 -65 -236 -65v131q98 0 159.5 14.5t122.5 50.5q25 13 133 87q5 5 10.5 9.5t12.5 4.5t7 -16q0 -2 -1 -14l-8 -50q21 -42 50.5 -62t65.5 -20q43 0 85 32t66 85q15 30 30 48q10 13 25 29q9 5 12 2t3 -9q0 -12 -8 -35.5t-15 -45.5q19 -24 30 -34q25 -21 71 -21
q18 0 46.5 10.5t28.5 23.5q0 9 -15.5 28.5t-15.5 33.5v15q0 22 3.5 44t15.5 43q3 6 6 6q15 0 32.5 -45t17.5 -84z" />
    <glyph glyph-name="afii62788" unicode="&#x634;" horiz-adv-x="1020" arabic-form="medial" 
d="M580 1311q0 -27 -11 -58.5t-27 -49.5q-10 6 -91 46q-47 24 -47 41q8 24 11 39q16 47 24 76q24 -21 91 -52q50 -21 50 -42zM731 1176q0 -16 -12 -52q-16 -42 -33 -61q-45 24 -72 39q-51 30 -51 46q14 34 20 49q19 52 25 52q42 -18 62 -28q61 -32 61 -45zM546 1124
q0 -25 -12 -58q-13 -36 -29 -36q-19 0 -91 50q-41 25 -41 38q0 4 13.5 38.5t28.5 74.5q29 -28 90 -61q41 -27 41 -46zM1022 237q-56 0 -85 10q-35 14 -62 49q-11 17 -17.5 36.5t-6.5 39.5q-39 -89 -76 -124.5t-86 -35.5q-57 0 -81 35q-1 5 -22 66q-23 -34 -30 -46
q-12 -15 -30 -33q-35 -29 -71.5 -46t-71.5 -17q-61 0 -100 43q-41 47 -41 132q-49 -38 -141 -78q-81 -31 -101 -31v131q31 0 83 13q86 22 197 82q9 5 14 8t10 3q3 0 3 -7.5t-5 -22.5l-16 -50q21 -46 55 -68q32 -22 69 -22q50 0 96 31t71 68q12 21 30 43q11 13 30 32
q5 4 10 4q3 0 3 -8q0 -10 -6.5 -28t-12.5 -37q25 -34 37 -43q21 -18 50 -22q27 -2 60.5 21t50.5 58q12 23 16.5 36t23.5 42q18 12 24 12t6 -9q0 -12 -6 -28q3 -6 7.5 -18t9 -26t13.5 -23.5t27 -21.5q17 -9 37 -14t35 -5v-131z" />
    <glyph glyph-name="afii57429" unicode="&#x635;" horiz-adv-x="1167" arabic-form="isolated" 
d="M1052 362q-12 -44 -130 -132q-130 -98 -284 -168q-184 -82 -336 -82q-140 0 -225 108q-77 99 -77 244q0 89 28 186q18 71 51 136q37 74 53 74q2 0 2 -6q0 -22 -27 -80q-31 -66 -46 -130t-15 -139q0 -108 76.5 -183.5t184.5 -75.5q162 0 346 74q141 58 267 144
q108 77 99 91q-16 21 -123 43q-133 26 -178 44q-93 39 -93 108q0 82 33 169q39 103 124 201q50 58 77 82q63 52 123 52q34 0 52 -31.5t18 -72.5q0 -33 -10.5 -56t-32.5 -23q-3 0 -11.5 27.5t-47.5 27.5q-30 0 -70 -27q-52 -34 -104 -95q-28 -38 -67 -98q-43 -71 -36 -83
q36 -54 153 -77q166 -35 199 -49q26 -10 35.5 -35.5t9.5 -61.5q0 -28 -4.5 -55.5t-13.5 -50.5z" />
    <glyph glyph-name="afii62792" unicode="&#x635;" horiz-adv-x="1314" arabic-form="final" 
d="M1313 237q-32 -1 -53 -5q-53 -6 -124 -20q-45 -7 -110 -34q-24 -9 -65 -27q32 -5 52 -10q49 -14 109.5 -31.5t77.5 -47.5q13 -19 13 -70q0 -32 -9.5 -60.5t-25.5 -65.5q-9 -26 -104.5 -88t-192.5 -109q-130 -65 -234 -101q-120 -38 -203 -38q-52 0 -112 18
q-103 33 -164 104q-83 100 -83 259q0 37 6 84q10 77 28 145q26 88 67 162q11 24 17 24q2 0 1 -12.5t-3 -27.5q-31 -91 -49 -172q-21 -89 -21 -144q0 -146 94 -230q90 -82 234 -82q47 0 132 19q108 28 219 72q126 54 236 119q101 59 101 72q0 30 -169 70q-108 29 -148 45
q-26 9 -41 23t-15 32q0 11 20 68q10 34 18 44q13 8 117 46q74 28 133 46q74 23 174 40q32 6 77 14v-131z" />
    <glyph glyph-name="afii62790" unicode="&#x635;" horiz-adv-x="379" arabic-form="initial" 
d="M289 540v-13.5t3 -15.5q0 -35 -10 -67q-16 -45 -58 -92q-31 -36 -93 -72q-76 -43 -131 -43v131q85 0 173 47q81 44 75 63q-14 35 -61 87q-69 80 -83 101q-49 66 -74 141q-6 0 -12 3t-6 7l10 95q6 21 9 21t10 -6q30 -25 68.5 -51t46.5 -32q22 -20 22 -30q0 -9 -15 -9h-15
q-12 0 -32 3q59 -76 118 -153q48 -64 55 -115z" />
    <glyph glyph-name="afii62791" unicode="&#x635;" horiz-adv-x="351" arabic-form="medial" 
d="M353 237q-30 0 -73 22q-53 26 -75 62q-9 11 -13.5 31t-4.5 41q-18 -36 -33 -62q-20 -35 -32 -45q-31 -31 -61 -40q-21 -9 -61 -9v131q25 0 67.5 8.5t59.5 20.5q13 7 29 39q22 38 23 42q29 38 39 38q6 0 6 -12q0 -15 -6 -36q5 -11 16 -32q10 -21 58 -48q15 -9 30.5 -14.5
t30.5 -5.5v-131z" />
    <glyph glyph-name="afii57430" unicode="&#x636;" horiz-adv-x="1165" arabic-form="isolated" 
d="M1052 362q-12 -44 -130 -132q-130 -98 -284 -168q-184 -82 -336 -82q-140 0 -225 108q-77 99 -77 244q0 89 28 186q18 71 51 136q37 74 53 74q2 0 2 -6q0 -22 -27 -80q-31 -66 -46 -130t-15 -139q0 -108 76.5 -183.5t184.5 -75.5q162 0 346 74q141 58 267 144
q108 77 99 91q-16 21 -123 43q-133 26 -178 44q-93 39 -93 108q0 82 33 169q39 103 124 201q50 58 77 82q63 52 123 52q34 0 52 -31.5t18 -72.5q0 -33 -10.5 -56t-32.5 -23q-3 0 -11.5 27.5t-47.5 27.5q-30 0 -70 -27q-52 -34 -104 -95q-28 -38 -67 -98q-43 -71 -36 -83
q36 -54 153 -77q166 -35 199 -49q26 -10 35.5 -35.5t9.5 -61.5q0 -28 -4.5 -55.5t-13.5 -50.5zM679 -461q0 -13 -11 -49q-14 -44 -31 -64q-45 27 -74 42q-48 29 -48 44q11 33 17 49q20 51 28 51q41 -20 62 -30q57 -31 57 -43zM670 -227q0 -21 -13 -57t-28 -36q-16 0 -91 48
q-41 27 -41 39q0 6 19 55l24 60q28 -28 89 -63q41 -24 41 -46z" />
    <glyph glyph-name="afii62795" unicode="&#x636;" horiz-adv-x="1314" arabic-form="final" 
d="M1313 237q-32 -1 -53 -5q-53 -6 -124 -20q-45 -7 -110 -34q-24 -9 -65 -27q32 -5 52 -10q49 -14 109.5 -31.5t77.5 -47.5q13 -19 13 -70q0 -32 -9.5 -60.5t-25.5 -65.5q-9 -26 -104.5 -88t-192.5 -109q-130 -65 -234 -101q-120 -38 -203 -38q-52 0 -112 18
q-103 33 -164 104q-83 100 -83 259q0 37 6 84q10 77 28 145q26 88 67 162q11 24 17 24q2 0 1 -12.5t-3 -27.5q-31 -91 -49 -172q-21 -89 -21 -144q0 -146 94 -230q90 -82 234 -82q47 0 132 19q108 28 219 72q126 54 236 119q101 59 101 72q0 30 -169 70q-108 29 -148 45
q-26 9 -41 23t-15 32q0 11 20 68q10 34 18 44q13 8 117 46q74 28 133 46q74 23 174 40q32 6 77 14v-131zM686 -801q0 -18 -11 -54q-12 -45 -30 -65q-33 20 -66 41q-47 31 -47 47q0 5 17.5 54.5t25.5 49.5q38 -20 56 -30q55 -30 55 -43zM686 -628q0 -22 -9 -54
q-13 -41 -29 -41q-14 0 -84 48q-38 30 -38 42q0 5 12 40t29 79q26 -27 81 -64q38 -25 38 -50z" />
    <glyph glyph-name="afii62793" unicode="&#x636;" horiz-adv-x="377" arabic-form="initial" 
d="M289 540v-29q0 -37 -9 -67q-16 -45 -56 -92q-32 -36 -94 -72q-75 -43 -130 -43v131q83 0 173 47q79 44 73 63q-14 35 -59 87q-69 80 -85 101q-47 66 -72 141q-6 0 -13 3t-5 7l10 95q6 21 8 21q4 0 11 -6q30 -25 68.5 -51t44.5 -32q22 -20 22 -30q0 -9 -13 -9h-15
q-14 0 -32 3q72 -93 118 -153q48 -64 55 -115zM236 -184q0 -13 -12 -50q-15 -44 -32 -64q-32 20 -67 38q-46 30 -46 43q0 15 25 75q14 34 22 34q37 -20 55 -30q55 -34 55 -46zM216 70q6 -9 -9 -60.5t-32 -51.5q-14 0 -71 41q-31 20 -31 32q0 8 12 41q10 26 31 75
q28 -27 76 -53q14 -8 24 -24z" />
    <glyph glyph-name="afii62794" unicode="&#x636;" horiz-adv-x="351" arabic-form="medial" 
d="M353 237q-30 0 -73 22q-53 26 -75 62q-9 11 -13.5 31t-4.5 41q-18 -36 -33 -62q-20 -35 -32 -45q-31 -31 -61 -40q-21 -9 -61 -9v131q25 0 67.5 8.5t59.5 20.5q13 7 29 39q22 38 23 42q29 38 39 38q6 0 6 -12q0 -15 -6 -36q5 -11 16 -32q10 -21 58 -48q15 -9 30.5 -14.5
t30.5 -5.5v-131zM282 -121q0 -16 -14 -51q-14 -43 -32 -62q-33 19 -69 37q-45 28 -45 43q12 33 18 48q20 52 27 52q41 -17 57 -25q58 -29 58 -42zM258 92q0 -22 -12.5 -57.5t-30.5 -35.5q-7 0 -55 26q-53 31 -53 47q0 7 12.5 38t31.5 76q28 -29 77 -57q30 -18 30 -37z" />
    <glyph glyph-name="afii57431" unicode="&#x637;" horiz-adv-x="974" arabic-form="isolated" 
d="M922 596q0 -7 2 -27t2 -25q0 -28 -7 -57.5t-24 -59.5q-12 -23 -29 -39q-21 -19 -42 -19q-75 0 -145 9q-102 14 -169 46q-80 -52 -197 -100q-98 -39 -191 -65q-85 -22 -122 -22v131q46 0 169 29q149 36 262 85q-17 22 -26.5 46.5t-9.5 51.5q0 70 43.5 147.5t103.5 101.5
l5 2q-5 1 -12 4t-5 8q2 21 3 51t1 56t4 26q8 -6 15 -12q34 -19 52 -30q9 -4 68 -31q33 -18 33 -27q0 -8 -27 -8h-15q-10 0 -32 4q15 -25 86 -64q87 -46 122 -76q65 -57 82 -136zM875 543q-40 52 -101 93q-71 39 -104 60q-2 1 -10 2q6 -25 6 -62q0 -32 -12 -62.5t-36 -60.5
q44 -9 97.5 -12t108.5 -3q23 0 37.5 10.5t14.5 25.5q0 3 -1 9zM637 624q-8 45 -29 87t-37 42q-27 0 -69 -38.5t-51 -78.5q9 -32 33.5 -56.5t59.5 -38.5q63 39 93 83z" />
    <glyph glyph-name="afii62798" unicode="&#x637;" horiz-adv-x="604" arabic-form="final" 
d="M605 241h-89q31 -40 46 -60q20 -24 28.5 -54.5t8.5 -56.5q0 -27 -12 -76q-10 -34 -40.5 -57t-55.5 -23q-89 0 -150 74q-47 58 -75 158q-3 10 -4.5 18t-1.5 22q0 15 4 32l-36 4l11 34q-34 -9 -98.5 -14t-140.5 -5v131q77 0 118 1q130 6 177 19q15 52 40 116q36 98 41 111
q30 91 60 183q18 0 31 -101q6 -46 9 -97q3 -4 9 -47q5 -24 5 -43q0 -18 -2 -26t-7 -25q-8 -29 -39 -71q-11 -13 -30 -34q18 0 38 2q59 7 112 12h43v-127zM444 470q0 13 -7 43t-22 85q-9 -33 -15 -49q-16 -33 -24 -63q-5 -16 -13 -40.5t-14 -36.5q53 21 95 61zM532 58
q-23 42 -35 58q-27 37 -42 49q-17 12 -53.5 24t-73.5 19q15 -55 62 -103q55 -55 107 -55q18 0 35 8z" />
    <glyph glyph-name="afii62796" unicode="&#x637;" horiz-adv-x="974" arabic-form="initial" 
d="M922 596q0 -7 2 -27t2 -25q0 -28 -7 -57.5t-24 -59.5q-12 -23 -29 -39q-21 -19 -42 -19q-75 0 -145 9q-102 14 -169 46q-80 -52 -197 -100q-98 -39 -191 -65q-85 -22 -122 -22v131q46 0 169 29q149 36 262 85q-17 22 -26.5 46.5t-9.5 51.5q0 70 43.5 147.5t103.5 101.5
l5 2q-5 1 -12 4t-5 8q2 21 3 51t1 56t4 26q8 -6 15 -12q34 -19 52 -30q9 -4 68 -31q33 -18 33 -27q0 -8 -27 -8h-15q-10 0 -32 4q15 -25 86 -64q87 -46 122 -76q65 -57 82 -136zM875 543q-40 52 -101 93q-71 39 -104 60q-2 1 -10 2q6 -25 6 -62q0 -32 -12 -62.5t-36 -60.5
q44 -9 97.5 -12t108.5 -3q23 0 37.5 10.5t14.5 25.5q0 3 -1 9zM637 624q-8 45 -29 87t-37 42q-27 0 -69 -38.5t-51 -78.5q9 -32 33.5 -56.5t59.5 -38.5q63 39 93 83z" />
    <glyph glyph-name="afii62797" unicode="&#x637;" horiz-adv-x="604" arabic-form="medial" 
d="M605 241h-89q31 -40 46 -60q20 -24 28.5 -54.5t8.5 -56.5q0 -27 -12 -76q-10 -34 -40.5 -57t-55.5 -23q-89 0 -150 74q-47 58 -75 158q-3 10 -4.5 18t-1.5 22q0 15 4 32l-36 4l11 34q-34 -9 -98.5 -14t-140.5 -5v131q77 0 118 1q130 6 177 19q15 52 40 116q36 98 41 111
q30 91 60 183q18 0 31 -101q6 -46 9 -97q3 -4 9 -47q5 -24 5 -43q0 -18 -2 -26t-7 -25q-8 -29 -39 -71q-11 -13 -30 -34q18 0 38 2q59 7 112 12h43v-127zM444 470q0 13 -7 43t-22 85q-9 -33 -15 -49q-16 -33 -24 -63q-5 -16 -13 -40.5t-14 -36.5q53 21 95 61zM532 58
q-23 42 -35 58q-27 37 -42 49q-17 12 -53.5 24t-73.5 19q15 -55 62 -103q55 -55 107 -55q18 0 35 8z" />
    <glyph glyph-name="afii57432" unicode="&#x638;" horiz-adv-x="444" arabic-form="isolated" 
d="M198 1431q6 3 6 -6q0 -11 -9.5 -33t-15.5 -28q-14 -16 -132 -78q-60 -34 -108 -73q-14 -15 -25 -15t-11 11q0 9 12 24q18 35 30 43q16 14 47 29q-25 0 -50 24t-25 46q0 41 56.5 104t96.5 63q18 0 31 -17q11 -15 11 -30q-6 -22 -11 -34q-11 -33 -23 -31q-8 6 -21 26
q-6 15 -22 15q-19 -6 -31 -11q-18 -13 -37 -40q24 -24 40 -36q30 -20 53 -20q28 0 79 32q30 18 59 35zM303 540v-29q0 -35 -10 -67q-16 -45 -55 -92q-31 -36 -97 -72q-75 -43 -128 -43v131q82 0 172 47q80 44 74 63q-13 35 -61 87q-68 80 -83 101q-49 66 -75 141q-3 0 -10 3
t-6 7l11 95q4 21 8 21t10 -6q29 -25 67.5 -51t45.5 -32q24 -20 24 -30q0 -9 -16 -9h-15q-12 0 -32 3q59 -76 119 -153q49 -64 57 -115z" />
    <glyph glyph-name="afii62801" unicode="&#x638;" horiz-adv-x="355" arabic-form="final" 
d="M340 829q3 0 3.5 -2.5t0.5 -6.5q0 -9 -9.5 -31.5t-13.5 -30.5q-13 -12 -132 -77q-61 -31 -113 -73q-13 -13 -24 -13q-7 0 -7 11q0 6 7 21q11 18 23 36q16 18 55 37q-24 0 -49.5 23.5t-25.5 45.5q0 42 58 106t100 64q11 0 25.5 -15t14.5 -36q-5 -22 -9 -32
q-12 -33 -24 -32q-9 7 -21 30q-7 14 -27 14q-16 -6 -28 -14q-20 -13 -38 -40q22 -22 41 -34q30 -21 54 -21q25 0 78 33q40 22 61 37zM363 237q-30 0 -74 22q-52 26 -75 62q-9 11 -12.5 31t-3.5 41q-20 -36 -35 -62q-19 -35 -31 -45q-32 -31 -62 -40q-20 -9 -80 -9v131
q46 0 88.5 8.5t59.5 20.5q12 7 27 39q22 38 24 42q28 38 40 38q5 0 5 -12q0 -15 -5 -36q3 -11 15 -32q10 -21 58 -48q16 -9 31.5 -14.5t29.5 -5.5v-131z" />
    <glyph glyph-name="afii62799" unicode="&#x638;" horiz-adv-x="444" arabic-form="initial" 
d="M198 1431q6 3 6 -6q0 -11 -9.5 -33t-15.5 -28q-14 -16 -132 -78q-60 -34 -108 -73q-14 -15 -25 -15t-11 11q0 9 12 24q18 35 30 43q16 14 47 29q-25 0 -50 24t-25 46q0 41 56.5 104t96.5 63q18 0 31 -17q11 -15 11 -30q-6 -22 -11 -34q-11 -33 -23 -31q-8 6 -21 26
q-6 15 -22 15q-19 -6 -31 -11q-18 -13 -37 -40q24 -24 40 -36q30 -20 53 -20q28 0 79 32q30 18 59 35zM303 540v-29q0 -35 -10 -67q-16 -45 -55 -92q-31 -36 -97 -72q-75 -43 -128 -43v131q82 0 172 47q80 44 74 63q-13 35 -61 87q-68 80 -83 101q-49 66 -75 141q-3 0 -10 3
t-6 7l11 95q4 21 8 21t10 -6q29 -25 67.5 -51t45.5 -32q24 -20 24 -30q0 -9 -16 -9h-15q-12 0 -32 3q59 -76 119 -153q49 -64 57 -115z" />
    <glyph glyph-name="afii62800" unicode="&#x638;" horiz-adv-x="355" arabic-form="medial" 
d="M340 829q3 0 3.5 -2.5t0.5 -6.5q0 -9 -9.5 -31.5t-13.5 -30.5q-13 -12 -132 -77q-61 -31 -113 -73q-13 -13 -24 -13q-7 0 -7 11q0 6 7 21q11 18 23 36q16 18 55 37q-24 0 -49.5 23.5t-25.5 45.5q0 42 58 106t100 64q11 0 25.5 -15t14.5 -36q-5 -22 -9 -32
q-12 -33 -24 -32q-9 7 -21 30q-7 14 -27 14q-16 -6 -28 -14q-20 -13 -38 -40q22 -22 41 -34q30 -21 54 -21q25 0 78 33q40 22 61 37zM363 237q-30 0 -74 22q-52 26 -75 62q-9 11 -12.5 31t-3.5 41q-20 -36 -35 -62q-19 -35 -31 -45q-32 -31 -62 -40q-20 -9 -80 -9v131
q46 0 88.5 8.5t59.5 20.5q12 7 27 39q22 38 24 42q28 38 40 38q5 0 5 -12q0 -15 -5 -36q3 -11 15 -32q10 -21 58 -48q16 -9 31.5 -14.5t29.5 -5.5v-131z" />
    <glyph glyph-name="afii57433" unicode="&#x639;" horiz-adv-x="934" arabic-form="isolated" 
d="M1199 -497q-52 -9 -70 -15q-31 -10 -53 -17q-103 -33 -207 -66q-102 -25 -225 -25q-271 0 -420 98q-112 73 -151 202q-21 67 -21 160q0 120 43 250q36 111 98 211q54 87 105 133q-48 25 -96 54q-84 49 -132 107q-70 77 -70 157q0 120 89 204q84 79 193 79q116 0 223 -47
q90 -42 90 -67q0 -6 -12 -6q-3 0 -21 3q-30 9 -62 16q-31 9 -70 9q-95 0 -235 -43.5t-140 -81.5t52.5 -100.5t134.5 -107.5q95 -51 189 -51h17q12 1 18 1q60 40 142 91q50 30 125 73q63 38 79 47q20 15 28 15q4 0 4 -8.5t-9 -24.5q-11 -32 -17 -50q-13 -34 -18 -40
q-12 -17 -103 -73q-59 -37 -181 -112q-116 -69 -143 -90q-125 -87 -201 -244q-68 -134 -68 -242q0 -166 105 -260q89 -81 252 -112q121 -24 302 -24q94 0 184.5 5t221.5 22q6 0 15 1.5t12 1.5q42 0 42 -12q0 -11 -39 -21z" />
    <glyph glyph-name="afii62804" unicode="&#x639;" horiz-adv-x="735" arabic-form="final" 
d="M1155 -494q-92 -35 -181 -74q-82 -27 -157 -43q-300 0 -466 66q-152 57 -212 173q-52 96 -52 262q0 124 34 226q27 79 84 170q16 30 45 62q29 27 65 61l-25 19q-10 8 -41 40q-44 40 -79 40q-28 0 -67 -19q-6 -1 -8.5 -0.5t-2.5 5.5q0 7 11 26q25 56 27 69q3 9 4.5 12
t17.5 9q66 27 135.5 44.5t128.5 17.5h13t17 -3q55 -6 123.5 -25.5t94.5 -35.5q15 -8 15 -13t-4.5 -7t-4.5 -4l-41 -98q-36 -12 -69 -27q-43 -15 -84 -36q13 -12 31 -24t31 -14q30 -12 81 -16q15 0 45 -1v-131q-75 0 -153 35q-68 32 -141 90q-31 -22 -54.5 -43t-49.5 -47
q-83 -91 -112 -200q-21 -73 -21 -182q0 -162 140 -257q113 -81 304 -107q46 -8 107 -12.5t127 -4.5q74 0 155.5 6t174.5 21q20 1 34 1q21 0 21 -5q0 -11 -41 -26zM514 537q-21 4 -41 7q-39 9 -64 9q-15 0 -35.5 -2t-42.5 -8l78 -69q52 36 105 63z" />
    <glyph glyph-name="afii62802" unicode="&#x639;" horiz-adv-x="872" arabic-form="initial" 
d="M774 639q-19 -43 -31.5 -66t-23.5 -26q-65 -34 -157 -84q-141 -76 -152 -82q-73 -37 -144 -67q-91 -38 -154 -57.5t-112 -19.5v131q55 0 132 10t122 31q-49 27 -88 59q-56 43 -87 88q-39 59 -39 120q0 111 76 190q76 74 170 74q103 0 195 -42q81 -39 81 -64q0 -5 -10 -5
q-8 0 -20 3q-40 12 -56 15q-26 7 -61 7q-81 0 -203.5 -40t-122.5 -74q0 -61 95 -145q111 -97 234 -97h27q73 39 147 78q87 45 163 81q15 9 21 9t6 -6t-8 -21z" />
    <glyph glyph-name="afii62803" unicode="&#x639;" horiz-adv-x="694" arabic-form="medial" 
d="M697 237q-56 0 -150 49q-78 40 -171 108q-84 -46 -168 -96q-60 -27 -111 -44t-97 -17v131h46q34 0 61 3.5t68 20.5q36 16 67 32q22 12 52 33l-5 2q-53 45 -61 49q-36 23 -77 23q-19 0 -34.5 -3.5t-39.5 -16.5q-12 -3 -12 7q0 7 11 29q26 55 28 67q3 12 5.5 14t16.5 8
q66 27 147.5 45.5t141.5 18.5q19 0 27 -2q50 -2 119.5 -23t100.5 -38q11 -6 15 -13v-6l-40 -99q-45 -15 -88.5 -35.5t-66.5 -33.5q15 -8 28 -17q22 -15 43 -24q34 -17 79.5 -29t64.5 -12v-131zM515 566q-21 6 -55 12t-52 6q-13 0 -35.5 -2t-43.5 -6q14 -14 30 -27
q27 -25 41 -38q36 20 69 35.5t46 19.5z" />
    <glyph glyph-name="afii57434" unicode="&#x63a;" horiz-adv-x="934" arabic-form="isolated" 
d="M325 1420q0 -27 -10.5 -59t-26.5 -52q-54 29 -109 55q-28 17 -28 35q6 11 9 21q18 66 26 90q22 -18 90 -49q49 -24 49 -41zM1199 -497q-52 -9 -70 -15q-31 -10 -53 -17q-103 -33 -207 -66q-102 -25 -225 -25q-271 0 -420 98q-112 73 -151 202q-21 67 -21 160
q0 120 43 250q36 111 98 211q54 87 105 133q-48 25 -96 54q-84 49 -132 107q-70 77 -70 157q0 120 89 204q84 79 193 79q116 0 223 -47q90 -42 90 -67q0 -6 -12 -6q-3 0 -21 3q-30 9 -62 16q-31 9 -70 9q-95 0 -235 -43.5t-140 -81.5t52.5 -100.5t134.5 -107.5
q95 -51 189 -51h17q12 1 18 1q60 40 142 91q50 30 125 73q63 38 79 47q20 15 28 15q4 0 4 -8.5t-9 -24.5q-11 -32 -17 -50q-13 -34 -18 -40q-12 -17 -103 -73q-59 -37 -181 -112q-116 -69 -143 -90q-125 -87 -201 -244q-68 -134 -68 -242q0 -166 105 -260q89 -81 252 -112
q121 -24 302 -24q94 0 184.5 5t221.5 22q6 0 15 1.5t12 1.5q42 0 42 -12q0 -11 -39 -21z" />
    <glyph glyph-name="afii62807" unicode="&#x63a;" horiz-adv-x="735" arabic-form="final" 
d="M410 963q0 -26 -10.5 -57.5t-26.5 -51.5q-53 29 -108 55q-28 16 -28 34l34 113q24 -21 90 -51q49 -23 49 -42zM1155 -494q-92 -35 -181 -74q-82 -27 -157 -43q-300 0 -466 66q-152 57 -212 173q-52 96 -52 262q0 124 34 226q27 79 84 170q16 30 45 62q29 27 65 61l-25 19
q-10 8 -41 40q-44 40 -79 40q-28 0 -67 -19q-6 -1 -8.5 -0.5t-2.5 5.5q0 7 11 26q25 56 27 69q3 9 4.5 12t17.5 9q66 27 135.5 44.5t128.5 17.5h13t17 -3q55 -6 123.5 -25.5t94.5 -35.5q15 -8 15 -13t-4.5 -7t-4.5 -4l-41 -98q-36 -12 -69 -27q-43 -15 -84 -36
q13 -12 31 -24t31 -14q30 -12 81 -16q15 0 45 -1v-131q-75 0 -153 35q-68 32 -141 90q-31 -22 -54.5 -43t-49.5 -47q-83 -91 -112 -200q-21 -73 -21 -182q0 -162 140 -257q113 -81 304 -107q46 -8 107 -12.5t127 -4.5q74 0 155.5 6t174.5 21q20 1 34 1q21 0 21 -5
q0 -11 -41 -26zM514 537q-21 4 -41 7q-39 9 -64 9q-15 0 -35.5 -2t-42.5 -8l78 -69q52 36 105 63z" />
    <glyph glyph-name="afii62805" unicode="&#x63a;" horiz-adv-x="872" arabic-form="initial" 
d="M236 1314q0 -28 -12 -60t-27 -48q-53 25 -108 52q-28 16 -28 34q9 23 15 40q13 44 20 74q24 -20 91 -52q49 -22 49 -40zM774 639q-19 -43 -31.5 -66t-23.5 -26q-65 -34 -157 -84q-141 -76 -152 -82q-73 -37 -144 -67q-91 -38 -154 -57.5t-112 -19.5v131q55 0 132 10
t122 31q-49 27 -88 59q-56 43 -87 88q-39 59 -39 120q0 111 76 190q76 74 170 74q103 0 195 -42q81 -39 81 -64q0 -5 -10 -5q-8 0 -20 3q-40 12 -56 15q-26 7 -61 7q-81 0 -203.5 -40t-122.5 -74q0 -61 95 -145q111 -97 234 -97h18h9q73 39 147 78q87 45 163 81q15 9 21 9
t6 -6t-8 -21z" />
    <glyph glyph-name="afii62806" unicode="&#x63a;" horiz-adv-x="694" arabic-form="medial" 
d="M383 1152q0 -30 -11.5 -60t-27.5 -51q-55 29 -108 55q-27 16 -27 34l33 113q24 -21 92 -49q49 -24 49 -42zM697 237q-56 0 -150 49q-78 40 -171 108q-84 -46 -168 -96q-60 -27 -111 -44t-97 -17v131h46q34 0 61 3.5t68 20.5q36 16 67 32q22 12 52 33l-5 2q-53 45 -61 49
q-36 23 -77 23q-19 0 -34.5 -3.5t-39.5 -16.5q-12 -3 -12 7q0 7 11 29q26 55 28 67q3 12 5.5 14t16.5 8q66 27 147.5 45.5t141.5 18.5q19 0 27 -2q50 -2 119.5 -23t100.5 -38q11 -6 15 -13v-6l-40 -99q-45 -15 -88.5 -35.5t-66.5 -33.5q15 -8 28 -17q22 -15 43 -24
q34 -17 79.5 -29t64.5 -12v-131zM515 566q-21 6 -55 12t-52 6q-13 0 -35.5 -2t-43.5 -6q14 -14 30 -27q27 -25 41 -38q36 20 69 35.5t46 19.5z" />
    <glyph glyph-name="afii57441" unicode="&#x641;" horiz-adv-x="1364" arabic-form="isolated" 
d="M1026 1150q0 -30 -11 -60.5t-29 -49.5q-13 7 -89 46q-46 25 -46 40q7 26 10 40q16 49 26 77q20 -21 90 -52q49 -24 49 -41zM1271 547q0 -58 -22.5 -118t-43.5 -77q-76 -60 -204 -120q-153 -73 -304 -115q-181 -51 -346 -51q-171 0 -264 97q-86 90 -86 239q0 37 8 80
q2 18 12.5 62.5t28.5 44.5q11 0 11 -21q0 -13 -7 -34q-7 -34 -7 -71q0 -111 72 -183q91 -85 280 -85q146 0 357 61q171 54 327 129q146 69 137 91q-15 40 -55 55q-31 10 -86 10h-35h-34q-36 0 -58.5 4.5t-36.5 22.5q-9 11 -14 31.5t-5 42.5q0 74 35 138q42 70 102 70
q80 0 159 -96.5t79 -206.5zM1121 661q-22 20 -42 37q-32 26 -63 26q-19 0 -32 -8t-22 -28q3 -15 15 -20t33 -5q7 0 28 1.5t36 1.5q20 0 47 -5z" />
    <glyph glyph-name="afii62810" unicode="&#x641;" horiz-adv-x="1459" arabic-form="final" 
d="M1169 1207q0 -25 -11 -57t-27 -51q-69 35 -88 44q-46 24 -46 42l32 114q24 -19 91 -50q49 -22 49 -42zM1461 237q-78 0 -140 54q-51 42 -87 120q-168 -93 -395.5 -158.5t-387.5 -65.5q-151 0 -256 78q-112 85 -112 221q0 80 18 145q0 6 34 97q8 22 18 22t10 -16
q0 -4 -1 -10q-14 -43 -19 -61q-17 -53 -17 -79q0 -127 113 -203q101 -65 244 -65q66 0 192 23t259 64q152 45 266 102q-12 45 -21 101q-4 27 -5 36t-1 24q0 66 25 127q32 75 84 75q45 0 83 -65t38 -152q0 -53 -20 -102q-15 -30 -48 -75l-28 -20q34 -46 73 -66t81 -20v-131z
M1360 610q-12 56 -39 90q-30 42 -61 38q-13 -2 -29 -26t-16 -45q0 -1 1 -10q15 -71 42 -120q25 13 52.5 33t49.5 40z" />
    <glyph glyph-name="afii62808" unicode="&#x641;" horiz-adv-x="479" arabic-form="initial" 
d="M186 1321q0 -29 -11.5 -59.5t-26.5 -48.5q-56 27 -108 55q-28 16 -28 31q4 15 6 22q23 75 28 91q24 -18 90 -49q50 -24 50 -42zM396 584q0 -60 -13 -106q-9 -26 -30 -66q-73 -79 -181 -129q-96 -46 -172 -46v131q98 0 167 25q91 34 188 125q-6 23 -21 31q-29 17 -106 17
q-17 0 -33.5 -0.5t-32.5 -0.5q-58 0 -82 17q-31 24 -31 91q0 85 52 145q45 56 98 56q51 0 120 -88q77 -98 77 -202zM266 681q-38 41 -42 46q-21 17 -52 17q-21 0 -35.5 -11t-14.5 -30q5 -11 15.5 -13.5t25.5 -2.5h19.5h19.5q19 0 32.5 -1t31.5 -5z" />
    <glyph glyph-name="afii62809" unicode="&#x641;" horiz-adv-x="432" arabic-form="medial" 
d="M254 931q0 -29 -10.5 -59.5t-26.5 -51.5q-48 24 -95 50q-12 6 -12 25q8 24 10 38q20 67 24 77q19 -18 77 -46q33 -15 33 -33zM434 237q-60 0 -116 19q-66 24 -110 66q-60 -37 -129 -63q-55 -22 -79 -22v131q34 0 72 6.5t79 24.5q-17 43 -17 99q0 82 45 165q51 90 115 90
q34 0 55 -66q19 -60 19 -128q0 -46 -17 -86t-49 -74q32 -15 64 -23t68 -8v-131zM329 531q-6 43 -26 71t-37 28q-26 0 -57 -32.5t-40 -72.5q18 -39 65 -83q55 36 95 89z" />
    <glyph glyph-name="afii57442" unicode="&#x642;" horiz-adv-x="1167" arabic-form="isolated" 
d="M971 1273q0 -19 -12 -52q-16 -44 -33 -63q-45 24 -74 39q-49 30 -49 46q0 6 19 53.5t26 47.5q40 -20 61 -29q62 -29 62 -42zM786 1218q0 -24 -12 -54q-15 -40 -34 -40q-43 22 -66 34q-65 39 -65 55q0 5 14.5 39t31.5 76q28 -29 89 -64q42 -24 42 -46zM1089 598
q0 -130 -30 -189q-20 -41 -130 -141q-134 -115 -274 -192q-181 -96 -320 -96q-137 0 -220 70q-65 55 -94 156q-20 70 -20 154q0 79 10 131t36 113q14 41 25 41q5 0 5 -12q0 -15 -9 -47q-18 -55 -25.5 -98.5t-7.5 -84.5q0 -123 76 -202q86 -91 239 -91q117 0 292 88
q155 79 282.5 182t127.5 151q0 34 -54.5 56.5t-121.5 22.5q-99 0 -125 11q-47 18 -47 95q0 91 51 150q42 53 97 53q35 0 86 -36q64 -46 101 -112q50 -80 50 -173zM918 732q-30 34 -43 42q-23 15 -54 15q-22 0 -34 -13q-1 -2 -16 -23q9 -9 18.5 -12t29.5 -3h29q17 0 31.5 -1
t38.5 -5z" />
    <glyph glyph-name="afii62813" unicode="&#x642;" horiz-adv-x="1238" arabic-form="final" 
d="M1053 919q0 -13 -11 -49q-14 -44 -31 -62q-36 21 -75 40q-48 30 -48 44q12 33 17 51q21 49 28 49q42 -18 60 -28q60 -31 60 -45zM870 868q0 -24 -12 -55q-13 -39 -28 -39q-11 0 -70 34q-66 39 -66 54q0 6 12 37t34 77q28 -30 90 -62q40 -26 40 -46zM1236 237l-43 -1
q0 -28 -3 -58q-5 -34 -6 -49q-10 -55 -12.5 -61.5t-31.5 -46.5q-73 -79 -181 -153q-126 -89 -258 -142q-156 -62 -294 -62q-175 0 -260 131q-71 108 -71 277q0 55 22 130q8 32 38 114q19 52 31 52q4 0 4 -11q0 -13 -12 -49.5t-23 -87.5q-17 -80 -17 -144q0 -104 61 -178
q82 -101 237 -101q201 0 416 111q189 95 323 239q-13 43 -23 87h-55h-54q-72 0 -84.5 1t-29.5 6q-32 11 -49.5 44t-17.5 69q0 76 51 137.5t107 61.5q36 0 96 -58q65 -61 88 -132l51 5v-131zM1055 360q-15 18 -29 37q-20 24 -42 24q-32 0 -51 -14t-19 -28q9 -11 46.5 -15
t94.5 -4z" />
    <glyph glyph-name="afii62811" unicode="&#x642;" horiz-adv-x="491" arabic-form="initial" 
d="M274 1238q0 -13 -12 -49q-13 -43 -33 -63q-34 20 -72 41q-49 30 -49 45l18 48q19 51 28 51q41 -18 60 -27q60 -32 60 -46zM90 1185q0 -24 -12 -55q-13 -37 -31 -37q-7 0 -66 33q-66 40 -66 56q0 3 14.5 36.5t35.5 74.5q26 -26 84 -62q41 -24 41 -46zM407 584
q0 -60 -13 -106q-9 -26 -31 -66q-74 -79 -180 -129q-99 -46 -171 -46v131q96 0 167 25q91 34 187 125q-7 23 -21 31q-30 17 -105 17q-18 0 -34.5 -0.5t-32.5 -0.5q-59 0 -80 17q-32 24 -32 91q0 85 50 145q44 56 99 56q49 0 119 -88q78 -98 78 -202zM279 681q-39 41 -42 46
q-24 17 -54 17q-20 0 -35 -11t-15 -30q6 -11 16 -13.5t26 -2.5h17h18q19 0 33.5 -1t35.5 -5z" />
    <glyph glyph-name="afii62812" unicode="&#x642;" horiz-adv-x="604" arabic-form="medial" 
d="M499 1246q0 -13 -10 -50q-15 -44 -33 -64q-36 20 -73 40q-49 30 -49 43q12 35 18 52q20 50 27 50q41 -18 62 -27q58 -32 58 -44zM317 1191q0 -21 -13 -54q-13 -38 -31 -38q-14 0 -90 49q-42 25 -42 37q0 9 20 58q17 37 25 56q28 -26 89 -61q42 -23 42 -47zM606 237
q-44 0 -83 9.5t-69 36.5q-55 41 -91 114q-98 -64 -228 -114q-108 -46 -136 -46v131q43 0 132 29q101 33 191 81q-13 41 -19 65q-9 33 -9 59q-1 13 -1 24v19q0 85 25 138q30 61 87 61q36 0 76 -73.5t40 -134.5q0 -36 -6.5 -70.5t-20 -52.5t-30.5 -36t-39 -35q18 -19 39 -36.5
t47 -26.5q20 -7 45 -9t50 -2v-131zM481 604q-6 40 -48 78q-38 36 -58 36q-23 0 -33 -36q-5 -10 -12 -52q16 -54 18 -56q10 -31 30 -64q33 24 59 45q29 25 44 49z" />
    <glyph glyph-name="afii57443" unicode="&#x643;" horiz-adv-x="1067" arabic-form="isolated" 
d="M978 565q-1 -61 -7 -99q-18 -106 -62.5 -156.5t-140.5 -111.5q-107 -63 -223 -104q-136 -49 -242 -49q-135 0 -216.5 86t-81.5 219q0 53 18 114q10 30 22.5 60.5t26.5 30.5q9 0 9 -18q0 -6 -3 -18q-12 -33 -19 -64t-7 -62q0 -18 2 -37q12 -70 89 -126q89 -65 206 -65
q56 0 175 41t230 98q122 64 171 119q5 1 5 19q0 50 -29 215q-10 75 -52 298q-30 167 -32.5 186.5t-11 105t-14.5 142.5q-6 17 -7 23q-6 13 -16 34q-5 6 -5 15q0 18 28 101q0 6 6 6q4 0 13 -14q7 -12 13 -23q35 -70 58 -119q49 -95 49 -119q0 -7 -7 -7q-6 0 -15.5 8t-16.5 14
q-15 12 -29 30v-14q0 -36 30 -190q45 -232 55 -302q31 -181 31 -267zM682 667v-23q0 -58 -36 -109q-28 -40 -73 -69q-52 -16 -110 -29.5t-84 -13.5q-9 0 -9 4q0 3 21 13q74 36 135.5 74.5t79.5 59.5q-75 0 -96 5q-66 10 -66 76q0 21 52 131q60 126 101 126q10 0 22 -14
q3 -4 3 -15q0 -51 -16 -91l-18 -18q-9 13 -20 13t-27 -18q-10 -11 -34 -47q8 -14 23 -19.5t31 -5.5q14 0 43.5 4.5t37.5 4.5q16 0 25.5 -9t14.5 -30z" />
    <glyph glyph-name="afii62816" unicode="&#x643;" horiz-adv-x="1357" arabic-form="final" 
d="M1360 237q-42 0 -81 21.5t-75 59.5q-43 50 -60 90q-23 51 -41 174q-16 -53 -49 -104q-25 -45 -147.5 -120t-257.5 -126q-158 -61 -267 -61q-133 0 -214 85.5t-81 219.5q0 43 10 101.5t21 83.5q21 39 31 39q8 0 8 -12t-10 -34q-8 -30 -10.5 -59t-2.5 -70v-33
q0 -68 78 -126q84 -68 204 -68q75 0 236.5 59.5t284.5 131.5q138 79 138 129q0 153 -24 374q-18 162 -47 332q-18 120 -36 239q12 65 21.5 94t17.5 29q12 0 21 -44q3 -14 9 -56q14 -78 27 -152q20 -117 29 -207l74 -581q16 -141 84 -218q54 -60 109 -60v-131zM799 955
q-16 -67 -48 -118q-27 -44 -65 -74q-41 -21 -97.5 -36.5t-75.5 -15.5q-8 0 -8 2.5t24 14.5q64 31 128 80q52 40 74 70q-58 -6 -70 -7t-23 -1q-35 0 -53.5 12t-18.5 43q2 6 2 9q9 77 66.5 182t90.5 105q15 0 20 -23q2 0 2 -3.5v-6.5q0 -51 -13 -92q-10 -7 -21 -15
q-8 14 -18 14t-32 -30q-16 -19 -30 -41q10 -15 28.5 -21.5t42.5 -6.5q14 0 28.5 1t27.5 1q23 0 32 -5t9 -23q0 -6 -2 -15z" />
    <glyph glyph-name="afii57410" unicode="&#x643;" horiz-adv-x="707" arabic-form="initial" 
d="M1297 1634q0 -6 1.5 -14t1.5 -11q0 -77 -58 -173q-37 -64 -116 -162q-84 -104 -100 -131q-11 -17 -20 -17q-4 0 -4 10q0 7 4 20q20 53 83 140q50 68 100.5 138t50.5 98q0 41 -87 41q-76 0 -212.5 -32.5t-359.5 -104.5q-180 -61 -317 -115q-163 -63 -255 -106
q-107 -54 -121 -81l-6 -10q30 -23 75.5 -45t55.5 -28q22 -11 30 -18t8 -11q0 -8 -27 -8q-15 0 -26.5 3t-13.5 3q177 -89 302 -184.5t150 -153.5q0 -7 2 -21q6 -46 6 -66q0 -42 -7.5 -77.5t-31.5 -71.5q-11 -19 -76 -67q-76 -58 -145 -94q-94 -48 -163 -48v131q76 0 178 47
q82 37 156 95q70 49 65 61q-14 37 -155.5 149t-296.5 195q-60 34 -98 107q-19 0 -19 10q2 6 2 18t-5 32t-5 30q0 6 2.5 12t2.5 13q5 11 12 5q6 34 9.5 52t19.5 52q54 44 234 123.5t422 166.5q118 42 224 75q135 40 231 61q122 23 210 23q38 0 61 -18.5t26 -42.5z" />
    <glyph glyph-name="afii62815" unicode="&#x643;" horiz-adv-x="1909" arabic-form="medial" 
d="M1909 237q-48 0 -86 34q-30 25 -30 67q-1 8 -1 18v16q0 25 8 55q-17 -9 -35.5 -12.5t-34.5 -3.5q-54 0 -325 -45q-359 -59 -548 -83q-352 -46 -577 -46h-280v131h280q222 0 565 36q174 20 552 72q277 40 318 40q47 0 62 2q13 2 21 2q-57 113 -195 155q-80 22 -201 22
q-83 0 -283.5 -20t-406.5 -39.5t-320 -19.5q-138 0 -223 21q-113 30 -113 97q0 11 4 23q35 125 107 210q57 66 186 157q120 87 229 142q136 70 204 70q42 0 60.5 -14.5t18.5 -37.5q0 -19 -12 -48q-6 -13 -21 -44q-4 -11 -9 -20.5t-9 -9.5q-5 0 -10.5 6.5t-10.5 22.5t-22 27
t-38 11q-25 -4 -128 -54q-114 -53 -195 -111q-66 -44 -127 -92q-71 -56 -105 -95q-44 -47 -44 -71q0 -28 78 -52q100 -26 278 -26q70 0 258 19t379.5 37.5t274.5 18.5q217 0 307 -36q110 -41 173 -165q4 -9 4 -25q0 -30 -16.5 -66.5t-43.5 -64.5q3 -4 3 -11v-14
q0 -11 6.5 -23t17.5 -20t20 -10t36 -2v-131z" />
    <glyph glyph-name="afii57444" unicode="&#x644;" horiz-adv-x="1072" arabic-form="isolated" 
d="M1022 618q0 -58 -5 -93q-13 -102 -55 -157q-111 -138 -303 -257q-208 -129 -351 -129q-147 0 -231 118q-76 102 -76 248q0 67 12 131.5t35 118.5q23 46 36 46q8 0 8 -14q0 -16 -12 -44q-17 -39 -26.5 -97.5t-9.5 -107.5q0 -53 19 -104q30 -71 92 -112q76 -55 195 -55
q90 0 280 108q203 119 337 260q4 4 4 20q0 49 -24 193q-16 98 -44 259t-28 170q-15 92 -21 144q-9 74 -12 108q-6 12 -9.5 23t-15.5 35q-2 4 -3 7t-1 12q0 16 6 43t20 65q0 9 6 9q3 0 12 -15t13 -26q45 -85 71.5 -146.5t26.5 -79.5q0 -9 -6 -9q-1 0 -12.5 7t-24.5 27.5
t-18 22.5q0 -19 30 -168q41 -205 55 -291q30 -177 30 -270z" />
    <glyph glyph-name="afii62819" unicode="&#x644;" horiz-adv-x="1389" arabic-form="final" 
d="M1389 237q-43 0 -83.5 21.5t-73.5 59.5q-46 51 -64 99q-26 66 -46 216q-15 -77 -51 -135q-31 -52 -138 -142q-121 -103 -253 -170q-162 -84 -285 -84q-144 0 -230 118q-77 104 -77 246q0 58 16 125q20 96 38.5 137t30.5 41q6 0 6 -11q0 -12 -8 -37q-16 -55 -23 -100
q-14 -71 -14 -129q0 -98 70 -174q81 -86 209 -86q106 0 280 92q143 75 271 181q125 101 125 131q0 153 -18 272q-11 149 -37 264q-16 110 -35 242q0 56 -1.5 84t-3.5 52q0 20 3 40.5t11 57.5q5 12 8.5 20t8.5 8q7 0 9 -18q18 -90 31 -162q19 -91 26 -137q25 -162 48 -279
q13 -113 35 -243q16 -168 19 -191q18 -138 85 -218q56 -60 111 -60v-131z" />
    <glyph glyph-name="afii62817" unicode="&#x644;" horiz-adv-x="284" arabic-form="initial" 
d="M221 591v-15q0 -65 -9 -112q-10 -83 -44 -129t-72 -70q-43 -28 -96 -28v131q77 0 114 19q30 17 49 61q3 6 3 20q0 50 -20 211q-14 119 -38 294q-13 89 -25 179q-4 27 -10 82q-13 126 -13 196q-8 14 -10.5 16.5t-7.5 10t-5 20.5q0 25 30 116q3 6 6 6q4 0 13 -15
q6 -12 12 -27q24 -45 53 -116q42 -93 42 -118q0 -8 -6 -8q-3 0 -12 5q-12 9 -24.5 24t-24.5 31q0 -24 24 -181q31 -208 46 -318q25 -195 25 -285z" />
    <glyph glyph-name="afii62818" unicode="&#x644;" horiz-adv-x="464" arabic-form="medial" 
d="M466 237q-46 0 -99 30.5t-72 72.5q-41 83 -62 170l-6 -58q-4 -35 -22 -77q-21 -49 -42 -65q-32 -33 -79 -53t-84 -20v131q25 0 68.5 8.5t58.5 20.5q42 30 48 36q13 13 17 25q0 30 0.5 75.5t0.5 97.5q0 38 -3.5 80t-10.5 82q-10 81 -20.5 166t-20.5 155q-13 117 -28 219.5
t-18 113.5q-15 101 -15 110q0 6 9 52q9 33 15 65q3 6 7 6q23 0 52 -158q12 -57 27 -165q25 -159 49 -359q11 -80 16 -161q16 -156 20 -191q17 -138 84 -218q56 -60 110 -60v-131z" />
    <glyph glyph-name="afii57445" unicode="&#x645;" horiz-adv-x="1128" arabic-form="isolated" 
d="M1052 705q0 -48 -21 -87t-53 -39q-42 0 -113 29q-86 36 -120 88q-3 -9 -23.5 -68.5t-49.5 -103.5q-43 -67 -115 -132q-22 -20 -121.5 -84.5t-188.5 -114.5q-105 -61 -137 -72q-63 -21 -154 -45q-4 0 -160 -37q-86 -21 -126 -33q-3 -3 -6.5 -3h-6.5q-17 0 -17 11
q0 5 8.5 12t26.5 14q41 21 141 64q105 43 170 74q51 27 124 68q62 33 116 62q45 25 108 61q80 46 100 58q75 43 128 89q74 60 116 126q16 25 58 114q32 64 48 64q3 0 9 -6q30 54 65.5 85t70.5 31q61 0 95 -71q28 -64 28 -154zM960 724q0 32 -22 56.5t-44 24.5q-24 0 -35 -3
t-26 -16q32 -30 51 -40q33 -18 76 -22z" />
    <glyph glyph-name="afii62822" unicode="&#x645;" horiz-adv-x="788" arabic-form="final" 
d="M793 237q-18 0 -53.5 1.5t-50.5 1.5q15 -32 15 -68q0 -28 -13 -60.5t-47 -71.5q-12 -10 -25 -16t-31 -6q-34 0 -73 22q-31 21 -53 46q-52 64 -72 120q-11 37 -11 77q-38 -72 -73 -143q-58 -97 -130 -158q-40 -34 -129 -90q-103 -68 -199 -119q-122 -66 -224 -99
q-105 -24 -198.5 -46t-166.5 -47q-3 -2 -12 -2q-21 0 -21 9q0 10 28.5 23t153.5 71q91 46 145 70q73 36 84 39q134 61 267 136q119 67 214 129q81 55 108.5 80.5t55.5 66t88 157.5q4 8 19 19q20 18 41 24q6 45 13 57t14 4q36 -24 70 -47q50 -32 88 -40t74.5 -8.5t103.5 -0.5
v-131zM613 150h6h4q12 0 12 7q0 21 -69 80t-91 59q-9 0 -8 -10q14 -52 42 -84q36 -40 104 -52z" />
    <glyph glyph-name="afii62820" unicode="&#x645;" horiz-adv-x="580" arabic-form="initial" 
d="M530 436q0 -48 -21 -88q-24 -46 -55 -46q-36 0 -105 35q-81 41 -119 90q-52 -94 -70 -113q-69 -77 -160 -77v131q40 0 61.5 3.5t57 18t89.5 90.5q46 70 58 70q4 0 8 -6q25 52 63.5 87t72.5 35q60 0 92 -75q28 -62 28 -155zM436 448q0 35 -18 62t-39 27q-24 0 -34.5 -3
t-26.5 -16q38 -38 47 -42q31 -24 71 -28z" />
    <glyph glyph-name="afii62821" unicode="&#x645;" horiz-adv-x="758" arabic-form="medial" 
d="M758 237h-13q-37 0 -79 16q-61 26 -157 95q-7 -38 -30 -80q-25 -44 -49 -46h-5q-23 0 -82 31q-83 48 -141 125q-30 -45 -84 -86q-69 -55 -118 -55v131q79 0 125.5 23.5t101.5 91.5q6 -1 7 -1q5 0 14 7q28 39 51 55q42 35 80 35q51 0 81 -30t56 -60q66 -53 128 -86
q70 -35 114 -35v-131zM430 360q-4 49 -34 76.5t-61 27.5q-10 -1 -17 -5q-20 -5 -30 -13q40 -31 68 -49q23 -12 74 -37z" />
    <glyph glyph-name="afii57446" unicode="&#x646;" horiz-adv-x="1075" arabic-form="isolated" 
d="M622 1311q0 -21 -14 -53q-13 -40 -28 -40q-9 0 -58 28q-53 32 -53 47q0 5 15 41t31 72q27 -30 77 -55q30 -18 30 -40zM1043 524q3 -23 3 -50q0 -72 -40 -148q-98 -133 -312.5 -238.5t-368.5 -105.5q-150 0 -240 108q-85 97 -85 238q0 71 9 133.5t30.5 110.5t36.5 48
q7 0 7 -16q0 -20 -10 -44q-18 -36 -25 -90.5t-7 -109.5q0 -50 24 -99q33 -66 98 -105q79 -51 197 -51q79 0 215.5 51.5t256.5 126.5q128 77 174 141q7 12 -40 110q-34 66 -44 96.5t-21 61t-14 52.5q-6 6 -9.5 7t-3.5 5q2 15 7 29t9 68q0 6 6 6t18 -16q8 -11 16 -20
q34 -37 52 -55q33 -36 33 -46q0 -4 -8 -4q-4 0 -11.5 2t-18.5 6t-21 8q33 -62 57 -115.5t30 -94.5z" />
    <glyph glyph-name="afii62825" unicode="&#x646;" horiz-adv-x="1586" arabic-form="final" 
d="M1223 955q0 -24 -14 -55q-12 -40 -31 -40q-36 18 -55 28q-55 31 -55 46q0 6 20 56q3 4 25 60q30 -30 77 -58q33 -16 33 -37zM1589 237q-26 3 -40 3q-43 6 -58 15q11 -47 11 -98q0 -53 -12 -103.5t-35 -96.5q-32 -65 -367 -252q-137 -77 -301 -126q-156 -46 -260 -46
q-208 0 -328 132q-114 127 -114 334q0 86 20 177.5t53 163.5q13 32 25 47.5t18 15.5t6 -15q0 -19 -18 -60q-21 -56 -39 -143t-18 -151q0 -68 29 -136q40 -95 121 -152q105 -71 263 -71q91 0 237.5 40t272.5 106q158 78 281 159t121 101q-16 114 -50 195q-15 37 -42 74
q-3 6 -3 16q0 19 3 46q11 76 11 80q5 9 13 2q44 -50 71 -73q61 -49 129 -53v-131z" />
    <glyph glyph-name="afii62823" unicode="&#x646;" horiz-adv-x="343" arabic-form="initial" 
d="M135 1410q0 -27 -12 -58t-27 -50q-53 27 -106 55q-30 15 -30 32q0 1 13 38.5t23 76.5q24 -19 90 -52q49 -22 49 -42zM274 543v-12.5v-14.5q0 -36 -9 -68q-16 -45 -55 -92q-32 -35 -94 -71q-77 -44 -129 -44v131q81 0 172 46q79 46 73 64q-14 36 -60 86q-70 82 -85 101
q-48 67 -72 142q-6 0 -11 3t-5 6l9 95q5 22 8 22q4 0 11 -6q28 -25 66.5 -51t45.5 -32q24 -19 24 -30q0 -10 -16 -10h-15q-12 0 -30 5q57 -77 116 -153q49 -64 56 -117z" />
    <glyph glyph-name="afii62824" unicode="&#x646;" horiz-adv-x="351" arabic-form="medial" 
d="M211 820q0 -27 -11.5 -58.5t-24.5 -50.5q-3 1 -90 47q-45 24 -45 41l33 115q22 -19 90 -52q48 -21 48 -42zM353 237q-30 0 -73 22q-53 26 -75 62q-9 11 -13.5 31t-4.5 41q-18 -36 -33 -62q-20 -35 -32 -45q-31 -31 -61 -40q-21 -9 -61 -9v131q25 0 67.5 8.5t59.5 20.5
q13 7 29 39q22 38 23 42q29 38 39 38q6 0 6 -12q0 -15 -6 -36q5 -11 16 -32q10 -21 58 -48q15 -9 30.5 -14.5t30.5 -5.5v-131z" />
    <glyph glyph-name="afii57447" unicode="&#x647;" horiz-adv-x="566" arabic-form="isolated" 
d="M467 868q-24 -39 -135 -195q29 -31 48.5 -56.5t26 -46t9.5 -40t3 -42.5q0 -71 -31 -131q-14 -29 -85 -78q-62 -43 -96 -43h-7q-36 4 -51 30t-15 67q0 42 12 97q9 36 25 81q6 24 23 54.5t38 64.5q-37 33 -83 89.5t-64 87.5q-16 0 -16 10l5 107q0 9 5 9q6 0 20 -14
q10 -7 19 -16q49 -27 73 -41q45 -25 45 -33q0 -6 -13 -6q-14 0 -26 -2.5t-24 -3.5q8 -15 42 -43q4 -5 72 -63q26 35 94 126q52 66 63 89.5t19 33.5t14 10t6 -21q0 -18 -5 -41.5t-11 -39.5zM381 463q2 1 2 7q0 18 -32 50q-22 27 -77 75q-32 -36 -65 -104t-33 -99q0 -11 3 -14
q10 -15 32 -15q36 0 94 39q52 32 76 61z" />
    <glyph glyph-name="afii62828" unicode="&#x647;" horiz-adv-x="1005" arabic-form="final" 
d="M1005 237h-12q-50 0 -94 15q-79 20 -133 80q-29 30 -66 104q-26 52 -53 53q-38 0 -98 -52t-86 -104q-39 -97 -78 -195q-46 -93 -105 -93q-75 0 -132 99q-61 102 -61 253q0 31 2.5 56t15.5 106q7 37 16 37q12 0 12 -43q0 -37 -3 -64q-3 -65 -3 -71q0 -86 30 -166
q37 -105 102 -105q55 0 91 64q31 75 62 155q46 108 114 181q34 37 77 59q36 18 64 18q37 0 86 -87q34 -57 53 -79q39 -46 97 -71q49 -19 102 -19v-131z" />
    <glyph glyph-name="afii57470" unicode="&#x647;" horiz-adv-x="974" arabic-form="initial" 
d="M922 596q0 -7 2 -27t2 -25q0 -28 -7 -57.5t-24 -59.5q-12 -23 -29 -39q-21 -19 -42 -19q-75 0 -145 9q-102 14 -169 46q-80 -52 -197 -100q-98 -39 -191 -65q-85 -22 -122 -22v131q46 0 169 29q149 36 262 85q-17 22 -26.5 46.5t-9.5 51.5q0 70 43.5 147.5t103.5 101.5
l5 2q-5 1 -12 4t-5 8q2 21 3 51t1 56t4 26q8 -6 15 -12q34 -19 52 -30q9 -4 68 -31q33 -18 33 -27q0 -8 -27 -8h-15q-10 0 -32 4q15 -25 86 -64q87 -46 122 -76q65 -57 82 -136zM875 543q-40 52 -101 93q-71 39 -104 60q-2 1 -10 2q6 -25 6 -62q0 -32 -12 -62.5t-36 -60.5
q44 -9 97.5 -12t108.5 -3q23 0 37.5 10.5t14.5 25.5q0 3 -1 9zM637 624q-8 45 -29 87t-37 42q-27 0 -69 -38.5t-51 -78.5q9 -32 33.5 -56.5t59.5 -38.5q63 39 93 83z" />
    <glyph glyph-name="afii62827" unicode="&#x6be;" horiz-adv-x="604" arabic-form="final" 
d="M605 241h-89q31 -40 46 -60q20 -24 28.5 -54.5t8.5 -56.5q0 -27 -12 -76q-10 -34 -40.5 -57t-55.5 -23q-89 0 -150 74q-47 58 -75 158q-3 10 -4.5 18t-1.5 22q0 15 4 32l-36 4l11 34q-34 -9 -98.5 -14t-140.5 -5v131q77 0 118 1q130 6 177 19q15 52 40 116q36 98 41 111
q30 91 60 183q18 0 31 -101q6 -46 9 -97q3 -4 9 -47q5 -24 5 -43q0 -18 -2 -26t-7 -25q-8 -29 -39 -71q-11 -13 -30 -34q18 0 38 2q59 7 112 12h43v-127zM444 470q0 13 -7 43t-22 85q-9 -33 -15 -49q-16 -33 -24 -63q-5 -16 -13 -40.5t-14 -36.5q53 21 95 61zM532 58
q-23 42 -35 58q-27 37 -42 49q-17 12 -53.5 24t-73.5 19q15 -55 62 -103q55 -55 107 -55q18 0 35 8z" />
    <glyph glyph-name="afii57448" unicode="&#x648;" horiz-adv-x="968" arabic-form="isolated" 
d="M897 591q0 -63 -11 -107.5t-28 -80.5q-32 -47 -121 -126q-114 -102 -221 -163q-141 -83 -253 -83q-127 0 -182 125q-41 90 -41 229q0 48 20 120q16 54 32 93q24 59 37 59q3 0 3 -11q0 -15 -15.5 -59t-21.5 -69q-15 -54 -15 -101q0 -110 33 -165q45 -74 163 -87
q11 -2 17.5 -2h10.5q96 0 236 80q107 61 218 159q94 80 106 106q-6 20 -45 39q-48 24 -106 24q-11 0 -21.5 -1.5t-20.5 -1.5q-78 0 -99.5 26t-21.5 75q0 84 50 145q45 60 96 60q52 0 117 -67q84 -85 84 -216zM770 688q-34 40 -42 46q-24 19 -53 19q-22 0 -35.5 -11.5
t-13.5 -30.5q6 -11 15.5 -13t27.5 -2h29h31.5t40.5 -8z" />
    <glyph glyph-name="afii62829" unicode="&#x648;" horiz-adv-x="714" arabic-form="final" 
d="M715 237l-42 -1l-9 -41q-17 -99 -81 -168q-123 -113 -290 -223q-149 -97 -247 -135q-94 -13 -170 -31q-99 -24 -191 -57q-18 -8 -30.5 -11t-23.5 -3q-15 0 -15 6q0 14 55 37t136 59q88 42 185 90q133 69 288 168q148 92 248 169q104 79 104 100q-3 16 -5 22t-8 18
q-73 0 -133.5 3.5t-84.5 14.5t-46 37q-24 30 -24 57q0 79 48.5 146.5t101.5 67.5q37 0 95 -58q62 -65 84 -138l55 2v-131zM533 368l-21 29q-7 12 -22 21t-29 9q-27 0 -40 -15q-7 -10 -7 -27q7 -7 41.5 -12t77.5 -5z" />
    <glyph glyph-name="afii57449" unicode="&#x649;" horiz-adv-x="1167" arabic-form="isolated" 
d="M1052 362q-12 -44 -130 -132q-130 -98 -284 -168q-184 -82 -336 -82q-140 0 -225 108q-77 99 -77 244q0 89 28 186q18 71 51 136q37 74 53 74q2 0 2 -6q0 -22 -27 -80q-31 -66 -46 -130t-15 -139q0 -108 76.5 -183.5t184.5 -75.5q162 0 346 74q141 58 267 144
q108 77 99 91q-16 21 -123 43q-133 26 -178 44q-93 39 -93 108q0 82 33 169q39 103 124 201q50 58 77 82q63 52 123 52q34 0 52 -31.5t18 -72.5q0 -33 -10.5 -56t-32.5 -23q-3 0 -11.5 27.5t-47.5 27.5q-30 0 -70 -27q-52 -34 -104 -95q-28 -38 -67 -98q-43 -71 -36 -83
q36 -54 153 -77q166 -35 199 -49q26 -10 35.5 -35.5t9.5 -61.5q0 -28 -4.5 -55.5t-13.5 -50.5z" />
    <glyph glyph-name="afii62830" unicode="&#x649;" horiz-adv-x="1314" arabic-form="final" 
d="M1313 237q-32 -1 -53 -5q-53 -6 -124 -20q-45 -7 -110 -34q-24 -9 -65 -27q32 -5 52 -10q49 -14 109.5 -31.5t77.5 -47.5q13 -19 13 -70q0 -32 -9.5 -60.5t-25.5 -65.5q-9 -26 -104.5 -88t-192.5 -109q-130 -65 -234 -101q-120 -38 -203 -38q-52 0 -112 18
q-103 33 -164 104q-83 100 -83 259q0 37 6 84q10 77 28 145q26 88 67 162q11 24 17 24q2 0 1 -12.5t-3 -27.5q-31 -91 -49 -172q-21 -89 -21 -144q0 -146 94 -230q90 -82 234 -82q47 0 132 19q108 28 219 72q126 54 236 119q101 59 101 72q0 30 -169 70q-108 29 -148 45
q-26 9 -41 23t-15 32q0 11 20 68q10 34 18 44q13 8 117 46q74 28 133 46q74 23 174 40q32 6 77 14v-131z" />
    <glyph glyph-name="afii57450" unicode="&#x64a;" horiz-adv-x="1165" arabic-form="isolated" 
d="M1052 362q-12 -44 -130 -132q-130 -98 -284 -168q-184 -82 -336 -82q-140 0 -225 108q-77 99 -77 244q0 89 28 186q18 71 51 136q37 74 53 74q2 0 2 -6q0 -22 -27 -80q-31 -66 -46 -130t-15 -139q0 -108 76.5 -183.5t184.5 -75.5q162 0 346 74q141 58 267 144
q108 77 99 91q-16 21 -123 43q-133 26 -178 44q-93 39 -93 108q0 82 33 169q39 103 124 201q50 58 77 82q63 52 123 52q34 0 52 -31.5t18 -72.5q0 -33 -10.5 -56t-32.5 -23q-3 0 -11.5 27.5t-47.5 27.5q-30 0 -70 -27q-52 -34 -104 -95q-28 -38 -67 -98q-43 -71 -36 -83
q36 -54 153 -77q166 -35 199 -49q26 -10 35.5 -35.5t9.5 -61.5q0 -28 -4.5 -55.5t-13.5 -50.5zM731 -160q0 -12 -12 -48q-13 -45 -31 -62q-46 23 -74 40q-51 28 -51 43q14 33 20 50q19 51 28 51q39 -20 59 -29q61 -31 61 -45zM547 -211q0 -22 -13 -58t-29 -36q-15 0 -91 48
q-41 28 -41 40q0 8 19 57q3 4 23 58q29 -26 90 -61q42 -27 42 -48z" />
    <glyph glyph-name="afii62833" unicode="&#x64a;" horiz-adv-x="1312" arabic-form="final" 
d="M1313 237q-32 -1 -53 -5q-53 -6 -124 -20q-45 -7 -110 -34q-24 -9 -65 -27q32 -5 52 -10q49 -14 109.5 -31.5t77.5 -47.5q13 -19 13 -70q0 -32 -9.5 -60.5t-25.5 -65.5q-9 -26 -104.5 -88t-192.5 -109q-130 -65 -234 -101q-120 -38 -203 -38q-52 0 -112 18
q-103 33 -164 104q-83 100 -83 259q0 37 6 84q10 77 28 145q26 88 67 162q11 24 17 24q2 0 1 -12.5t-3 -27.5q-31 -91 -49 -172q-21 -89 -21 -144q0 -146 94 -230q90 -82 234 -82q47 0 132 19q108 28 219 72q126 54 236 119q101 59 101 72q0 30 -169 70q-108 29 -148 45
q-26 9 -41 23t-15 32q0 11 20 68q10 34 18 44q13 8 117 46q74 28 133 46q74 23 174 40q32 6 77 14v-131zM1104 -605q0 -15 -12 -50q-16 -45 -31 -64q-39 19 -74 40q-51 29 -51 44q0 6 19.5 53.5t28.5 47.5q42 -18 61 -28q59 -28 59 -43zM919 -660q0 -22 -10 -53
q-14 -39 -32 -39q-16 0 -90 46q-42 28 -42 40q0 6 13 39.5t33 76.5q27 -27 86 -63q42 -23 42 -47z" />
    <glyph glyph-name="afii62831" unicode="&#x6cc;" horiz-adv-x="385" arabic-form="initial" 
d="M289 540v-13.5v-15.5q0 -37 -9 -67q-16 -45 -56 -92q-31 -36 -93 -72q-76 -43 -131 -43v131q83 0 173 47q79 44 74 63q-14 35 -60 87q-69 80 -85 101q-47 66 -72 141q-6 0 -13 3t-5 7l10 95q6 21 8 21q4 0 11 -6q30 -25 68.5 -51t44.5 -32q24 -20 24 -30q0 -9 -15 -9h-15
q-14 0 -32 3q72 -93 118 -153q48 -64 55 -115zM335 -25q0 -15 -12 -52q-16 -44 -31 -63q-35 19 -69 39q-45 28 -45 43t25 76q14 31 20 31q37 -18 57 -30q55 -31 55 -44zM173 -76q5 -9 -10 -60t-32 -51q-15 0 -71 39q-32 23 -32 35q0 6 13 42q8 24 32 72q28 -26 75 -53
q15 -6 25 -24z" />
    <glyph glyph-name="afii62832" unicode="&#x6cc;" horiz-adv-x="351" arabic-form="medial" 
d="M353 237q-30 0 -73 22q-53 26 -75 62q-9 11 -13.5 31t-4.5 41q-18 -36 -33 -62q-20 -35 -32 -45q-31 -31 -61 -40q-21 -9 -61 -9v131q25 0 67.5 8.5t59.5 20.5q13 7 29 39q22 38 23 42q29 38 39 38q6 0 6 -12q0 -15 -6 -36q5 -11 16 -32q10 -21 58 -48q15 -9 30.5 -14.5
t30.5 -5.5v-131zM347 -89q0 -17 -12 -51q-13 -41 -31 -63q-36 19 -70 40q-47 26 -47 41q12 33 18 51q22 49 29 49q38 -15 58 -25q55 -29 55 -42zM172 -146q0 -22 -14 -58.5t-31 -36.5q-9 0 -56 29q-51 31 -51 46q0 6 11.5 37.5t33.5 76.5q27 -27 77 -56q30 -18 30 -38z" />
    <glyph glyph-name="uniFBEA" unicode="&#xfbea;" horiz-adv-x="824" arabic-form="isolated" 
d="M465 237q-43 0 -83 21.5t-75 59.5q-52 60 -75 126q-25 90 -51 338q-13 142 -26 247t-33 239q-6 40 -34 217q-7 59 -31.5 140.5t-48.5 163.5q8 23 16.5 51.5t13.5 59.5q1 5 7 5q23 0 64 -135.5t59 -254.5q24 -155 48 -359q10 -91 32 -319q17 -152 23 -191q17 -138 86 -218
q53 -60 108 -60v-131zM656 1431q6 3 6 -6q0 -11 -9.5 -33t-15.5 -28q-15 -16 -132 -78q-60 -34 -108 -73q-15 -15 -25 -15q-11 0 -11 11q0 9 12 24q18 35 30 43q15 14 47 29q-26 0 -51 24t-25 46q0 41 57 104t97 63q18 0 31 -17q11 -15 11 -30q-6 -22 -11 -34
q-11 -33 -23 -31q-8 6 -22 26q-6 15 -21 15q-19 -6 -31 -11q-18 -13 -38 -40q24 -24 41 -36q30 -20 53 -20q28 0 79 32q30 18 59 35zM760 540v-29q0 -35 -9 -67q-16 -45 -55 -92q-32 -36 -98 -72q-74 -43 -127 -43v131q82 0 172 47q80 44 74 63q-13 35 -61 87
q-68 80 -83 101q-49 66 -75 141q-3 0 -10 3t-6 7l11 95q3 21 8 21q4 0 10 -6q29 -25 67 -51t46 -32q24 -20 24 -30q0 -9 -16 -9h-16q-12 0 -31 3q59 -76 119 -153q49 -64 56 -115z" />
    <glyph glyph-name="uniFBEB" unicode="&#xfbeb;" horiz-adv-x="814" arabic-form="final" 
d="M465 237q-43 0 -83 21.5t-75 59.5q-52 60 -75 126q-25 90 -51 338q-13 142 -26 247t-33 239q-6 40 -34 217q-7 59 -31.5 140.5t-48.5 163.5q8 23 16.5 51.5t13.5 59.5q1 5 7 5q23 0 64 -135.5t59 -254.5q24 -155 48 -359q10 -91 32 -319q17 -152 23 -191q17 -138 86 -218
q53 -60 108 -60v-131zM806 829q2 0 3 -2.5t1 -6.5q0 -9 -10 -31.5t-13 -30.5q-13 -12 -132 -77q-61 -31 -113 -73q-13 -13 -24 -13q-7 0 -7 11q0 6 7 21q11 18 23 36q15 18 55 37q-24 0 -50 23.5t-26 45.5q0 42 58.5 106t100.5 64q11 0 25 -15t14 -36q-4 -22 -8 -32
q-12 -33 -24 -32q-10 7 -22 30q-7 14 -26 14q-17 -6 -29 -14q-19 -13 -37 -40q22 -22 41 -34q30 -21 54 -21q25 0 78 33q39 22 61 37zM829 237q-30 0 -75 22q-51 26 -74 62q-10 11 -13.5 31t-3.5 41q-19 -36 -35 -62q-19 -35 -31 -45q-31 -31 -61 -40q-20 -9 -80 -9v131
q45 0 87.5 8.5t59.5 20.5q12 7 28 39q21 38 24 42q27 38 39 38q5 0 5 -12q0 -15 -5 -36q4 -11 16 -32q10 -21 58 -48q15 -9 30.5 -14.5t30.5 -5.5v-131z" />
    <glyph glyph-name="uniFBEC" unicode="&#xfbec;" horiz-adv-x="1346" arabic-form="isolated" 
d="M1005 237h-12q-50 0 -94 15q-79 20 -133 80q-29 30 -66 104q-26 52 -53 53q-38 0 -98 -52t-86 -104q-39 -97 -78 -195q-46 -93 -105 -93q-75 0 -132 99q-61 102 -61 253q0 31 2.5 56t15.5 106q7 37 16 37q12 0 12 -43q0 -37 -3 -64q-3 -65 -3 -71q0 -86 30 -166
q37 -105 102 -105q55 0 91 64q31 75 62 155q46 108 114 181q34 37 77 59q36 18 64 18q37 0 86 -87q34 -57 53 -79q39 -46 97 -71q49 -19 102 -19v-131zM1192 1431q6 3 6 -6q0 -11 -9.5 -33t-15.5 -28q-14 -16 -132 -78q-60 -34 -108 -73q-14 -15 -25 -15t-11 11q0 9 12 24
q18 35 30 43q16 14 47 29q-25 0 -50.5 24t-25.5 46q0 41 57 104t97 63q18 0 31 -17q11 -15 11 -30q-6 -22 -11 -34q-11 -33 -23 -31q-8 6 -21 26q-6 15 -22 15q-19 -6 -31 -11q-18 -13 -37 -40q24 -24 40 -36q30 -20 53 -20q28 0 79 32q30 18 59 35zM1297 540v-29
q0 -35 -10 -67q-16 -45 -55 -92q-31 -36 -97 -72q-75 -43 -128 -43v131q82 0 172 47q80 44 74 63q-13 35 -61 87q-68 80 -83 101q-49 66 -75 141q-3 0 -10 3t-6 7l11 95q4 21 8 21t10 -6q29 -25 67.5 -51t45.5 -32q24 -20 24 -30q0 -9 -16 -9h-15q-12 0 -32 3
q59 -76 119 -153q49 -64 57 -115z" />
    <glyph glyph-name="uniFBED" unicode="&#xfbed;" horiz-adv-x="1366" arabic-form="final" 
d="M1005 237h-12q-50 0 -94 15q-79 20 -133 80q-29 30 -66 104q-26 52 -53 53q-38 0 -98 -52t-86 -104q-39 -97 -78 -195q-46 -93 -105 -93q-75 0 -132 99q-61 102 -61 253q0 31 2.5 56t15.5 106q7 37 16 37q12 0 12 -43q0 -37 -3 -64q-3 -65 -3 -71q0 -86 30 -166
q37 -105 102 -105q55 0 91 64q31 75 62 155q46 108 114 181q34 37 77 59q36 18 64 18q37 0 86 -87q34 -57 53 -79q39 -46 97 -71q49 -19 102 -19v-131zM1355 829q3 0 3.5 -2.5t0.5 -6.5q0 -9 -9.5 -31.5t-13.5 -30.5q-13 -12 -132 -77q-61 -31 -113 -73q-13 -13 -24 -13
q-7 0 -7 11q0 6 7 21q11 18 23 36q16 18 55 37q-24 0 -49.5 23.5t-25.5 45.5q0 42 58 106t100 64q11 0 25.5 -15t14.5 -36q-5 -22 -9 -32q-12 -33 -24 -32q-9 7 -21 30q-7 14 -27 14q-16 -6 -28 -14q-20 -13 -38 -40q22 -22 41 -34q30 -21 54 -21q25 0 78 33q40 22 61 37z
M1378 237q-30 0 -74 22q-52 26 -75 62q-9 11 -12.5 31t-3.5 41q-20 -36 -35 -62q-19 -35 -31 -45q-32 -31 -62 -40q-20 -9 -80 -9v131q46 0 88.5 8.5t59.5 20.5q12 7 27 39q22 38 24 42q28 38 40 38q5 0 5 -12q0 -15 -5 -36q3 -11 15 -32q10 -21 58 -48q16 -9 31.5 -14.5
t29.5 -5.5v-131z" />
    <glyph glyph-name="uniFBEE" unicode="&#xfbee;" horiz-adv-x="1093" arabic-form="isolated" 
d="M715 237l-42 -1l-9 -41q-17 -99 -81 -168q-123 -113 -290 -223q-149 -97 -247 -135q-94 -13 -170 -31q-99 -24 -191 -57q-18 -8 -30.5 -11t-23.5 -3q-15 0 -15 6q0 14 55 37t136 59q88 42 185 90q133 69 288 168q148 92 248 169q104 79 104 100q-3 16 -5 22t-8 18
q-73 0 -133.5 3.5t-84.5 14.5t-46 37q-24 30 -24 57q0 79 48.5 146.5t101.5 67.5q37 0 95 -58q62 -65 84 -138l55 2v-131zM533 368l-21 29q-7 12 -22 21t-29 9q-27 0 -40 -15q-7 -10 -7 -27q7 -7 41.5 -12t77.5 -5zM904 1431q6 3 6 -6q0 -11 -10 -33t-16 -28
q-14 -16 -132 -78q-60 -34 -108 -73q-14 -15 -25 -15t-11 11q0 9 12 24q18 35 30 43q16 14 47 29q-25 0 -50 24t-25 46q0 41 57 104t96 63q18 0 31 -17q11 -15 11 -30q-6 -22 -11 -34q-10 -33 -22 -31q-9 6 -22 26q-6 15 -22 15q-19 -6 -31 -11q-18 -13 -37 -40
q24 -24 41 -36q30 -20 53 -20q27 0 79 32q30 18 59 35zM1008 540v-29q0 -35 -10 -67q-15 -45 -55 -92q-31 -36 -97 -72q-74 -43 -127 -43v131q81 0 171 47q81 44 75 63q-13 35 -61 87q-69 80 -83 101q-49 66 -76 141q-2 0 -9.5 3t-5.5 7l10 95q4 21 9 21q3 0 9 -6
q29 -25 67.5 -51t45.5 -32q24 -20 24 -30q0 -9 -15 -9h-16q-12 0 -31 3q59 -76 119 -153q49 -64 56 -115z" />
    <glyph glyph-name="uniFBEF" unicode="&#xfbef;" horiz-adv-x="1068" arabic-form="final" 
d="M715 237l-42 -1l-9 -41q-17 -99 -81 -168q-123 -113 -290 -223q-149 -97 -247 -135q-94 -13 -170 -31q-99 -24 -191 -57q-18 -8 -30.5 -11t-23.5 -3q-15 0 -15 6q0 14 55 37t136 59q88 42 185 90q133 69 288 168q148 92 248 169q104 79 104 100q-3 16 -5 22t-8 18
q-73 0 -133.5 3.5t-84.5 14.5t-46 37q-24 30 -24 57q0 79 48.5 146.5t101.5 67.5q37 0 95 -58q62 -65 84 -138l55 2v-131zM533 368l-21 29q-7 12 -22 21t-29 9q-27 0 -40 -15q-7 -10 -7 -27q7 -7 41.5 -12t77.5 -5zM1057 829q3 0 3.5 -2.5t0.5 -6.5q0 -9 -9.5 -31.5
t-13.5 -30.5q-13 -12 -132 -77q-61 -31 -113 -73q-13 -13 -24 -13q-7 0 -7 11q0 6 7 21q11 18 23 36q16 18 55 37q-24 0 -49.5 23.5t-25.5 45.5q0 42 58 106t100 64q11 0 25.5 -15t14.5 -36q-5 -22 -9 -32q-12 -33 -24 -32q-9 7 -21 30q-8 14 -27 14q-17 -6 -29 -14
q-19 -13 -37 -40q22 -22 41 -34q30 -21 54 -21q25 0 78 33q40 22 61 37zM1080 237q-30 0 -74 22q-52 26 -75 62q-9 11 -13 31t-4 41q-19 -36 -34 -62q-20 -35 -32 -45q-31 -31 -61 -40q-20 -9 -80 -9v131q45 0 88 8.5t59 20.5q12 7 28 39q22 38 24 42q28 38 40 38q4 0 4 -12
q0 -15 -4 -36q3 -11 15 -32q10 -21 58 -48q15 -9 31 -14.5t30 -5.5v-131z" />
    <glyph glyph-name="uniFBF0" unicode="&#xfbf0;" horiz-adv-x="1093" arabic-form="isolated" 
d="M715 237l-42 -1l-9 -41q-17 -99 -81 -168q-123 -113 -290 -223q-149 -97 -247 -135q-94 -13 -170 -31q-99 -24 -191 -57q-18 -8 -30.5 -11t-23.5 -3q-15 0 -15 6q0 14 55 37t136 59q88 42 185 90q133 69 288 168q148 92 248 169q104 79 104 100q-3 16 -5 22t-8 18
q-73 0 -133.5 3.5t-84.5 14.5t-46 37q-24 30 -24 57q0 79 48.5 146.5t101.5 67.5q37 0 95 -58q62 -65 84 -138l55 2v-131zM533 368l-21 29q-7 12 -22 21t-29 9q-27 0 -40 -15q-7 -10 -7 -27q7 -7 41.5 -12t77.5 -5zM904 1431q6 3 6 -6q0 -11 -10 -33t-16 -28
q-14 -16 -132 -78q-60 -34 -108 -73q-14 -15 -25 -15t-11 11q0 9 12 24q18 35 30 43q16 14 47 29q-25 0 -50 24t-25 46q0 41 57 104t96 63q18 0 31 -17q11 -15 11 -30q-6 -22 -11 -34q-10 -33 -22 -31q-9 6 -22 26q-6 15 -22 15q-19 -6 -31 -11q-18 -13 -37 -40
q24 -24 41 -36q30 -20 53 -20q27 0 79 32q30 18 59 35zM1008 540v-29q0 -35 -10 -67q-15 -45 -55 -92q-31 -36 -97 -72q-74 -43 -127 -43v131q81 0 171 47q81 44 75 63q-13 35 -61 87q-69 80 -83 101q-49 66 -76 141q-2 0 -9.5 3t-5.5 7l10 95q4 21 9 21q3 0 9 -6
q29 -25 67.5 -51t45.5 -32q24 -20 24 -30q0 -9 -15 -9h-16q-12 0 -31 3q59 -76 119 -153q49 -64 56 -115zM467 933q29 0 47.5 -22.5t18.5 -66.5q0 -67 -44 -130.5t-68 -63.5q-7 0 -7 5q0 6 7 14q27 23 44 58.5t17 59.5q0 12 -16 14q-26 6 -44 23t-18 44q0 26 18 45.5
t45 19.5z" />
    <glyph glyph-name="uniFBF1" unicode="&#xfbf1;" horiz-adv-x="1068" arabic-form="final" 
d="M715 237l-42 -1l-9 -41q-17 -99 -81 -168q-123 -113 -290 -223q-149 -97 -247 -135q-94 -13 -170 -31q-99 -24 -191 -57q-18 -8 -30.5 -11t-23.5 -3q-15 0 -15 6q0 14 55 37t136 59q88 42 185 90q133 69 288 168q148 92 248 169q104 79 104 100q-3 16 -5 22t-8 18
q-73 0 -133.5 3.5t-84.5 14.5t-46 37q-24 30 -24 57q0 79 48.5 146.5t101.5 67.5q37 0 95 -58q62 -65 84 -138l55 2v-131zM533 368l-21 29q-7 12 -22 21t-29 9q-27 0 -40 -15q-7 -10 -7 -27q7 -7 41.5 -12t77.5 -5zM1057 829q3 0 3.5 -2.5t0.5 -6.5q0 -9 -9.5 -31.5
t-13.5 -30.5q-13 -12 -132 -77q-61 -31 -113 -73q-13 -13 -24 -13q-7 0 -7 11q0 6 7 21q11 18 23 36q16 18 55 37q-24 0 -49.5 23.5t-25.5 45.5q0 42 58 106t100 64q11 0 25.5 -15t14.5 -36q-5 -22 -9 -32q-12 -33 -24 -32q-9 7 -21 30q-8 14 -27 14q-17 -6 -29 -14
q-19 -13 -37 -40q22 -22 41 -34q30 -21 54 -21q25 0 78 33q40 22 61 37zM1080 237q-30 0 -74 22q-52 26 -75 62q-9 11 -13 31t-4 41q-19 -36 -34 -62q-20 -35 -32 -45q-31 -31 -61 -40q-20 -9 -80 -9v131q45 0 88 8.5t59 20.5q12 7 28 39q22 38 24 42q28 38 40 38q4 0 4 -12
q0 -15 -4 -36q3 -11 15 -32q10 -21 58 -48q15 -9 31 -14.5t30 -5.5v-131zM467 933q29 0 47.5 -22.5t18.5 -66.5q0 -67 -44 -130.5t-68 -63.5q-7 0 -7 5q0 6 7 14q27 23 44 58.5t17 59.5q0 12 -16 14q-26 6 -44 23t-18 44q0 26 18 45.5t45 19.5z" />
    <glyph glyph-name="uniFBF2" unicode="&#xfbf2;" horiz-adv-x="1093" arabic-form="isolated" 
d="M715 237l-42 -1l-9 -41q-17 -99 -81 -168q-123 -113 -290 -223q-149 -97 -247 -135q-94 -13 -170 -31q-99 -24 -191 -57q-18 -8 -30.5 -11t-23.5 -3q-15 0 -15 6q0 14 55 37t136 59q88 42 185 90q133 69 288 168q148 92 248 169q104 79 104 100q-3 16 -5 22t-8 18
q-73 0 -133.5 3.5t-84.5 14.5t-46 37q-24 30 -24 57q0 79 48.5 146.5t101.5 67.5q37 0 95 -58q62 -65 84 -138l55 2v-131zM533 368l-21 29q-7 12 -22 21t-29 9q-27 0 -40 -15q-7 -10 -7 -27q7 -7 41.5 -12t77.5 -5zM904 1431q6 3 6 -6q0 -11 -10 -33t-16 -28
q-14 -16 -132 -78q-60 -34 -108 -73q-14 -15 -25 -15t-11 11q0 9 12 24q18 35 30 43q16 14 47 29q-25 0 -50 24t-25 46q0 41 57 104t96 63q18 0 31 -17q11 -15 11 -30q-6 -22 -11 -34q-10 -33 -22 -31q-9 6 -22 26q-6 15 -22 15q-19 -6 -31 -11q-18 -13 -37 -40
q24 -24 41 -36q30 -20 53 -20q27 0 79 32q30 18 59 35zM1008 540v-29q0 -35 -10 -67q-15 -45 -55 -92q-31 -36 -97 -72q-74 -43 -127 -43v131q81 0 171 47q81 44 75 63q-13 35 -61 87q-69 80 -83 101q-49 66 -76 141q-2 0 -9.5 3t-5.5 7l10 95q4 21 9 21q3 0 9 -6
q29 -25 67.5 -51t45.5 -32q24 -20 24 -30q0 -9 -15 -9h-16q-12 0 -31 3q59 -76 119 -153q49 -64 56 -115zM426 687l-208 259l36 8l167 -143l112 181l35 4l-130 -308z" />
    <glyph glyph-name="uniFBF3" unicode="&#xfbf3;" horiz-adv-x="1068" arabic-form="final" 
d="M715 237l-42 -1l-9 -41q-17 -99 -81 -168q-123 -113 -290 -223q-149 -97 -247 -135q-94 -13 -170 -31q-99 -24 -191 -57q-18 -8 -30.5 -11t-23.5 -3q-15 0 -15 6q0 14 55 37t136 59q88 42 185 90q133 69 288 168q148 92 248 169q104 79 104 100q-3 16 -5 22t-8 18
q-73 0 -133.5 3.5t-84.5 14.5t-46 37q-24 30 -24 57q0 79 48.5 146.5t101.5 67.5q37 0 95 -58q62 -65 84 -138l55 2v-131zM533 368l-21 29q-7 12 -22 21t-29 9q-27 0 -40 -15q-7 -10 -7 -27q7 -7 41.5 -12t77.5 -5zM1057 829q3 0 3.5 -2.5t0.5 -6.5q0 -9 -9.5 -31.5
t-13.5 -30.5q-13 -12 -132 -77q-61 -31 -113 -73q-13 -13 -24 -13q-7 0 -7 11q0 6 7 21q11 18 23 36q16 18 55 37q-24 0 -49.5 23.5t-25.5 45.5q0 42 58 106t100 64q11 0 25.5 -15t14.5 -36q-5 -22 -9 -32q-12 -33 -24 -32q-9 7 -21 30q-8 14 -27 14q-17 -6 -29 -14
q-19 -13 -37 -40q22 -22 41 -34q30 -21 54 -21q25 0 78 33q40 22 61 37zM1080 237q-30 0 -74 22q-52 26 -75 62q-9 11 -13 31t-4 41q-19 -36 -34 -62q-20 -35 -32 -45q-31 -31 -61 -40q-20 -9 -80 -9v131q45 0 88 8.5t59 20.5q12 7 28 39q22 38 24 42q28 38 40 38q4 0 4 -12
q0 -15 -4 -36q3 -11 15 -32q10 -21 58 -48q15 -9 31 -14.5t30 -5.5v-131zM426 687l-208 259l36 8l167 -143l112 181l35 4l-130 -308z" />
    <glyph glyph-name="uniFBF4" unicode="&#xfbf4;" horiz-adv-x="1093" arabic-form="isolated" 
d="M715 237l-42 -1l-9 -41q-17 -99 -81 -168q-123 -113 -290 -223q-149 -97 -247 -135q-94 -13 -170 -31q-99 -24 -191 -57q-18 -8 -30.5 -11t-23.5 -3q-15 0 -15 6q0 14 55 37t136 59q88 42 185 90q133 69 288 168q148 92 248 169q104 79 104 100q-3 16 -5 22t-8 18
q-73 0 -133.5 3.5t-84.5 14.5t-46 37q-24 30 -24 57q0 79 48.5 146.5t101.5 67.5q37 0 95 -58q62 -65 84 -138l55 2v-131zM533 368l-21 29q-7 12 -22 21t-29 9q-27 0 -40 -15q-7 -10 -7 -27q7 -7 41.5 -12t77.5 -5zM904 1431q6 3 6 -6q0 -11 -10 -33t-16 -28
q-14 -16 -132 -78q-60 -34 -108 -73q-14 -15 -25 -15t-11 11q0 9 12 24q18 35 30 43q16 14 47 29q-25 0 -50 24t-25 46q0 41 57 104t96 63q18 0 31 -17q11 -15 11 -30q-6 -22 -11 -34q-10 -33 -22 -31q-9 6 -22 26q-6 15 -22 15q-19 -6 -31 -11q-18 -13 -37 -40
q24 -24 41 -36q30 -20 53 -20q27 0 79 32q30 18 59 35zM1008 540v-29q0 -35 -10 -67q-15 -45 -55 -92q-31 -36 -97 -72q-74 -43 -127 -43v131q81 0 171 47q81 44 75 63q-13 35 -61 87q-69 80 -83 101q-49 66 -76 141q-2 0 -9.5 3t-5.5 7l10 95q4 21 9 21q3 0 9 -6
q29 -25 67.5 -51t45.5 -32q24 -20 24 -30q0 -9 -15 -9h-16q-12 0 -31 3q59 -76 119 -153q49 -64 56 -115zM428 1010l20 -314l-14 -9l-118 339z" />
    <glyph glyph-name="uniFBF5" unicode="&#xfbf5;" horiz-adv-x="1068" arabic-form="final" 
d="M715 237l-42 -1l-9 -41q-17 -99 -81 -168q-123 -113 -290 -223q-149 -97 -247 -135q-94 -13 -170 -31q-99 -24 -191 -57q-18 -8 -30.5 -11t-23.5 -3q-15 0 -15 6q0 14 55 37t136 59q88 42 185 90q133 69 288 168q148 92 248 169q104 79 104 100q-3 16 -5 22t-8 18
q-73 0 -133.5 3.5t-84.5 14.5t-46 37q-24 30 -24 57q0 79 48.5 146.5t101.5 67.5q37 0 95 -58q62 -65 84 -138l55 2v-131zM533 368l-21 29q-7 12 -22 21t-29 9q-27 0 -40 -15q-7 -10 -7 -27q7 -7 41.5 -12t77.5 -5zM1057 829q3 0 3.5 -2.5t0.5 -6.5q0 -9 -9.5 -31.5
t-13.5 -30.5q-13 -12 -132 -77q-61 -31 -113 -73q-13 -13 -24 -13q-7 0 -7 11q0 6 7 21q11 18 23 36q16 18 55 37q-24 0 -49.5 23.5t-25.5 45.5q0 42 58 106t100 64q11 0 25.5 -15t14.5 -36q-5 -22 -9 -32q-12 -33 -24 -32q-9 7 -21 30q-8 14 -27 14q-17 -6 -29 -14
q-19 -13 -37 -40q22 -22 41 -34q30 -21 54 -21q25 0 78 33q40 22 61 37zM1080 237q-30 0 -74 22q-52 26 -75 62q-9 11 -13 31t-4 41q-19 -36 -34 -62q-20 -35 -32 -45q-31 -31 -61 -40q-20 -9 -80 -9v131q45 0 88 8.5t59 20.5q12 7 28 39q22 38 24 42q28 38 40 38q4 0 4 -12
q0 -15 -4 -36q3 -11 15 -32q10 -21 58 -48q15 -9 31 -14.5t30 -5.5v-131zM428 1010l20 -314l-14 -9l-118 339z" />
    <glyph glyph-name="uniFBF6" unicode="&#xfbf6;" horiz-adv-x="1654" arabic-form="isolated" 
d="M1313 237q-32 -1 -53 -5q-53 -6 -124 -20q-45 -7 -110 -34q-24 -9 -65 -27q32 -5 52 -10q49 -14 109.5 -31.5t77.5 -47.5q13 -19 13 -70q0 -32 -9.5 -60.5t-25.5 -65.5q-9 -26 -104.5 -88t-192.5 -109q-130 -65 -234 -101q-120 -38 -203 -38q-52 0 -112 18
q-103 33 -164 104q-83 100 -83 259q0 37 6 84q10 77 28 145q26 88 67 162q11 24 17 24q2 0 1 -12.5t-3 -27.5q-31 -91 -49 -172q-21 -89 -21 -144q0 -146 94 -230q90 -82 234 -82q47 0 132 19q108 28 219 72q126 54 236 119q101 59 101 72q0 30 -169 70q-108 29 -148 45
q-26 9 -41 23t-15 32q0 11 20 68q10 34 18 44q13 8 117 46q74 28 133 46q74 23 174 40q32 6 77 14v-131zM730 -802q0 -17 -12 -52q-13 -44 -32 -63q-36 19 -72 39q-51 30 -51 46q0 5 19.5 53t27.5 48q41 -19 60 -29q60 -29 60 -42zM730 -634q0 -22 -9 -53q-15 -39 -32 -39
q-15 0 -91 46q-41 29 -41 41q0 5 13 38.5t32 76.5q27 -26 87 -62q41 -24 41 -48zM1488 1441q6 2 6 -6q0 -11 -9.5 -33t-15.5 -28q-15 -16 -132 -78q-60 -34 -108 -74q-15 -14 -26 -14q-10 0 -10 11q0 8 12 24q18 35 30 43q15 13 46 29q-25 0 -50 24t-25 45q0 41 57 104
t96 63q18 0 32 -17q10 -14 10 -30q-6 -21 -10 -33q-11 -34 -23 -31q-9 6 -22 26q-6 14 -21 14q-20 -6 -32 -10q-18 -14 -37 -40q24 -24 41 -36q30 -20 53 -20q27 0 79 32q30 18 59 35zM1592 549v-29q0 -34 -9 -67q-16 -44 -56 -91q-31 -36 -97 -72q-74 -43 -127 -43v131
q82 0 172 46q80 45 74 64q-13 35 -61 86q-69 81 -83 101q-49 66 -76 142q-2 0 -9 3t-6 6l11 95q3 22 8 22q4 0 10 -6q28 -25 66.5 -51t45.5 -32q24 -20 24 -30t-15 -10h-16q-12 0 -31 4q59 -77 119 -154q49 -63 56 -115z" />
    <glyph glyph-name="uniFBF7" unicode="&#xfbf7;" horiz-adv-x="1669" arabic-form="final" 
d="M1313 237q-32 -1 -53 -5q-53 -6 -124 -20q-45 -7 -110 -34q-24 -9 -65 -27q32 -5 52 -10q49 -14 109.5 -31.5t77.5 -47.5q13 -19 13 -70q0 -32 -9.5 -60.5t-25.5 -65.5q-9 -26 -104.5 -88t-192.5 -109q-130 -65 -234 -101q-120 -38 -203 -38q-52 0 -112 18
q-103 33 -164 104q-83 100 -83 259q0 37 6 84q10 77 28 145q26 88 67 162q11 24 17 24q2 0 1 -12.5t-3 -27.5q-31 -91 -49 -172q-21 -89 -21 -144q0 -146 94 -230q90 -82 234 -82q47 0 132 19q108 28 219 72q126 54 236 119q101 59 101 72q0 30 -169 70q-108 29 -148 45
q-26 9 -41 23t-15 32q0 11 20 68q10 34 18 44q13 8 117 46q74 28 133 46q74 23 174 40q32 6 77 14v-131zM751 -770q0 -17 -12 -52q-13 -44 -32 -63q-36 19 -72 39q-51 30 -51 46q0 5 19.5 53t27.5 48q41 -19 60 -29q60 -29 60 -42zM751 -602q0 -22 -9 -53q-15 -39 -32 -39
q-15 0 -91 46q-41 29 -41 41q0 5 13 38.5t32 76.5q27 -26 87 -62q41 -24 41 -48zM1658 837q3 0 3.5 -2.5t0.5 -5.5q0 -10 -9.5 -32t-13.5 -31q-13 -12 -132 -76q-61 -32 -113 -74q-13 -13 -24 -13q-7 0 -7 11q0 6 7 22q11 18 23 36q16 18 55 37q-24 0 -49.5 23.5t-25.5 44.5
q0 42 58 106.5t100 64.5q11 0 25.5 -15t14.5 -37q-5 -22 -9 -31q-12 -34 -24 -33q-9 8 -21 30q-8 15 -27 15q-17 -6 -29 -15q-19 -13 -37 -39q22 -23 41 -35q30 -20 54 -20q25 0 78 32q40 23 61 37zM1681 246q-30 0 -74 21q-52 27 -75 63q-9 10 -13 30t-4 42
q-19 -36 -34 -63q-20 -35 -32 -44q-31 -31 -61 -41q-20 -8 -80 -8v130q45 0 88 8.5t59 20.5q12 7 28 40q22 37 24 42q28 37 40 37q4 0 4 -12q0 -14 -4 -36q3 -11 15 -31q10 -22 58 -48q15 -10 31 -15.5t30 -5.5v-130z" />
    <glyph glyph-name="uniFBF8" unicode="&#xfbf8;" horiz-adv-x="715" arabic-form="initial" 
d="M353 237q-30 0 -73 22q-53 26 -75 62q-9 11 -13.5 31t-4.5 41q-18 -36 -33 -62q-20 -35 -32 -45q-31 -31 -61 -40q-21 -9 -61 -9v131q25 0 67.5 8.5t59.5 20.5q13 7 29 39q22 38 23 42q29 38 39 38q6 0 6 -12q0 -15 -6 -36q5 -11 16 -32q10 -21 58 -48q15 -9 30.5 -14.5
t30.5 -5.5v-131zM282 -121q0 -16 -14 -51q-14 -43 -32 -62q-33 19 -69 37q-45 28 -45 43q12 33 18 48q20 52 27 52q41 -17 57 -25q58 -29 58 -42zM258 92q0 -22 -12.5 -57.5t-30.5 -35.5q-7 0 -55 26q-53 31 -53 47q0 7 12.5 38t31.5 76q28 -29 77 -57q30 -18 30 -37z
M533 1431q6 3 6 -6q0 -11 -9.5 -33t-15.5 -28q-15 -16 -132 -78q-60 -34 -108 -73q-15 -15 -26 -15q-10 0 -10 11q0 9 12 24q18 35 30 43q15 14 46 29q-25 0 -50 24t-25 46q0 41 57 104t96 63q18 0 32 -17q10 -15 10 -30q-6 -22 -10 -34q-11 -33 -23 -31q-9 6 -22 26
q-6 15 -21 15q-20 -6 -32 -11q-18 -13 -37 -40q24 -24 41 -36q30 -20 53 -20q27 0 79 32q30 18 59 35zM637 540v-29q0 -35 -9 -67q-16 -45 -56 -92q-31 -36 -97 -72q-74 -43 -127 -43v131q82 0 172 47q80 44 74 63q-13 35 -61 87q-69 80 -83 101q-49 66 -76 141q-2 0 -9 3
t-6 7l11 95q3 21 8 21q4 0 10 -6q28 -25 66.5 -51t45.5 -32q24 -20 24 -30q0 -9 -15 -9h-16q-12 0 -31 3q59 -76 119 -153q49 -64 56 -115z" />
    <glyph glyph-name="uniFBF9" unicode="&#xfbf9;" horiz-adv-x="1654" arabic-form="isolated" 
d="M1313 237q-32 -1 -53 -5q-53 -6 -124 -20q-45 -7 -110 -34q-24 -9 -65 -27q32 -5 52 -10q49 -14 109.5 -31.5t77.5 -47.5q13 -19 13 -70q0 -32 -9.5 -60.5t-25.5 -65.5q-9 -26 -104.5 -88t-192.5 -109q-130 -65 -234 -101q-120 -38 -203 -38q-52 0 -112 18
q-103 33 -164 104q-83 100 -83 259q0 37 6 84q10 77 28 145q26 88 67 162q11 24 17 24q2 0 1 -12.5t-3 -27.5q-31 -91 -49 -172q-21 -89 -21 -144q0 -146 94 -230q90 -82 234 -82q47 0 132 19q108 28 219 72q126 54 236 119q101 59 101 72q0 30 -169 70q-108 29 -148 45
q-26 9 -41 23t-15 32q0 11 20 68q10 34 18 44q13 8 117 46q74 28 133 46q74 23 174 40q32 6 77 14v-131zM1488 1441q6 2 6 -6q0 -11 -9.5 -33t-15.5 -28q-15 -16 -132 -78q-60 -34 -108 -74q-15 -14 -26 -14q-10 0 -10 11q0 8 12 24q18 35 30 43q15 13 46 29q-25 0 -50 24
t-25 45q0 41 57 104t96 63q18 0 32 -17q10 -14 10 -30q-6 -21 -10 -33q-11 -34 -23 -31q-9 6 -22 26q-6 14 -21 14q-20 -6 -32 -10q-18 -14 -37 -40q24 -24 41 -36q30 -20 53 -20q27 0 79 32q30 18 59 35zM1592 549v-29q0 -34 -9 -67q-16 -44 -56 -91q-31 -36 -97 -72
q-74 -43 -127 -43v131q82 0 172 46q80 45 74 64q-13 35 -61 86q-69 81 -83 101q-49 66 -76 142q-2 0 -9 3t-6 6l11 95q3 22 8 22q4 0 10 -6q28 -25 66.5 -51t45.5 -32q24 -20 24 -30t-15 -10h-16q-12 0 -31 4q59 -77 119 -154q49 -63 56 -115z" />
    <glyph glyph-name="uniFBFA" unicode="&#xfbfa;" horiz-adv-x="1669" arabic-form="final" 
d="M1313 237q-32 -1 -53 -5q-53 -6 -124 -20q-45 -7 -110 -34q-24 -9 -65 -27q32 -5 52 -10q49 -14 109.5 -31.5t77.5 -47.5q13 -19 13 -70q0 -32 -9.5 -60.5t-25.5 -65.5q-9 -26 -104.5 -88t-192.5 -109q-130 -65 -234 -101q-120 -38 -203 -38q-52 0 -112 18
q-103 33 -164 104q-83 100 -83 259q0 37 6 84q10 77 28 145q26 88 67 162q11 24 17 24q2 0 1 -12.5t-3 -27.5q-31 -91 -49 -172q-21 -89 -21 -144q0 -146 94 -230q90 -82 234 -82q47 0 132 19q108 28 219 72q126 54 236 119q101 59 101 72q0 30 -169 70q-108 29 -148 45
q-26 9 -41 23t-15 32q0 11 20 68q10 34 18 44q13 8 117 46q74 28 133 46q74 23 174 40q32 6 77 14v-131zM1658 837q3 0 3.5 -2.5t0.5 -5.5q0 -10 -9.5 -32t-13.5 -31q-13 -12 -132 -76q-61 -32 -113 -74q-13 -13 -24 -13q-7 0 -7 11q0 6 7 22q11 18 23 36q16 18 55 37
q-24 0 -49.5 23.5t-25.5 44.5q0 42 58 106.5t100 64.5q11 0 25.5 -15t14.5 -37q-5 -22 -9 -31q-12 -34 -24 -33q-9 8 -21 30q-8 15 -27 15q-17 -6 -29 -15q-19 -13 -37 -39q22 -23 41 -35q30 -20 54 -20q25 0 78 32q40 23 61 37zM1681 246q-30 0 -74 21q-52 27 -75 63
q-9 10 -13 30t-4 42q-19 -36 -34 -63q-20 -35 -32 -44q-31 -31 -61 -41q-20 -8 -80 -8v130q45 0 88 8.5t59 20.5q12 7 28 40q22 37 24 42q28 37 40 37q4 0 4 -12q0 -14 -4 -36q3 -11 15 -31q10 -22 58 -48q15 -10 31 -15.5t30 -5.5v-130z" />
    <glyph glyph-name="uniFBFB" unicode="&#xfbfb;" horiz-adv-x="715" arabic-form="initial" 
d="M353 237q-30 0 -73 22q-53 26 -75 62q-9 11 -13.5 31t-4.5 41q-18 -36 -33 -62q-20 -35 -32 -45q-31 -31 -61 -40q-21 -9 -61 -9v131q25 0 67.5 8.5t59.5 20.5q13 7 29 39q22 38 23 42q29 38 39 38q6 0 6 -12q0 -15 -6 -36q5 -11 16 -32q10 -21 58 -48q15 -9 30.5 -14.5
t30.5 -5.5v-131zM533 1431q6 3 6 -6q0 -11 -9.5 -33t-15.5 -28q-15 -16 -132 -78q-60 -34 -108 -73q-15 -15 -26 -15q-10 0 -10 11q0 9 12 24q18 35 30 43q15 14 46 29q-25 0 -50 24t-25 46q0 41 57 104t96 63q18 0 32 -17q10 -15 10 -30q-6 -22 -10 -34q-11 -33 -23 -31
q-9 6 -22 26q-6 15 -21 15q-20 -6 -32 -11q-18 -13 -37 -40q24 -24 41 -36q30 -20 53 -20q27 0 79 32q30 18 59 35zM637 540v-29q0 -35 -9 -67q-16 -45 -56 -92q-31 -36 -97 -72q-74 -43 -127 -43v131q82 0 172 47q80 44 74 63q-13 35 -61 87q-69 80 -83 101q-49 66 -76 141
q-2 0 -9 3t-6 7l11 95q3 21 8 21q4 0 10 -6q28 -25 66.5 -51t45.5 -32q24 -20 24 -30q0 -9 -15 -9h-16q-12 0 -31 3q59 -76 119 -153q49 -64 56 -115z" />
    <glyph glyph-name="uni0677" unicode="&#x677;" horiz-adv-x="1309" arabic-form="isolated" 
d="M897 591q0 -63 -11 -107.5t-28 -80.5q-32 -47 -121 -126q-114 -102 -221 -163q-141 -83 -253 -83q-127 0 -182 125q-41 90 -41 229q0 48 20 120q16 54 32 93q24 59 37 59q3 0 3 -11q0 -15 -15.5 -59t-21.5 -69q-15 -54 -15 -101q0 -110 33 -165q45 -74 163 -87
q11 -2 17.5 -2h10.5q96 0 236 80q107 61 218 159q94 80 106 106q-6 20 -45 39q-48 24 -106 24q-11 0 -21.5 -1.5t-20.5 -1.5q-78 0 -99.5 26t-21.5 75q0 84 50 145q45 60 96 60q52 0 117 -67q84 -85 84 -216zM770 688q-34 40 -42 46q-24 19 -53 19q-22 0 -35.5 -11.5
t-13.5 -30.5q6 -11 15.5 -13t27.5 -2h29h31.5t40.5 -8zM704 1273q28 0 45.5 -22.5t17.5 -67.5q0 -65 -42.5 -129t-66.5 -64q-7 0 -7 6t7 14q26 24 43.5 59.5t17.5 58.5q0 13 -17 14q-25 6 -43 23t-18 44q0 25 18 44.5t45 19.5zM1257 1203q2 0 2.5 -2.5t0.5 -5.5
q0 -10 -9.5 -32t-12.5 -31q-14 -12 -132 -76q-62 -32 -113 -74q-13 -13 -24 -13q-7 0 -7 11q0 6 7 22q11 18 23 36q15 18 55 37q-24 0 -50 23.5t-26 44.5q0 42 58.5 106.5t100.5 64.5q10 0 24.5 -15t14.5 -37q-5 -22 -8 -31q-12 -34 -24 -33q-10 8 -22 30q-7 15 -26 15
q-17 -6 -29 -15q-19 -13 -37 -39q21 -23 41 -35q30 -20 54 -20q25 0 78 32q39 23 61 37z" />
    <glyph glyph-name="afii57543-3" unicode="&#x6ad;" horiz-adv-x="979" arabic-form="isolated" 
d="M978 565q-1 -61 -7 -99q-18 -106 -62.5 -156.5t-140.5 -111.5q-107 -63 -223 -104q-136 -49 -242 -49q-135 0 -216.5 86t-81.5 219q0 53 18 114q10 30 22.5 60.5t26.5 30.5q9 0 9 -18q0 -6 -3 -18q-12 -33 -19 -64t-7 -62q0 -18 2 -37q12 -70 89 -126q89 -65 206 -65
q56 0 175 41t230 98q122 64 171 119q5 1 5 19q0 50 -29 215q-10 75 -52 298q-30 167 -32.5 186.5t-11 105t-14.5 142.5q-6 17 -7 23q-6 13 -16 34q-5 6 -5 15q0 18 28 101q0 6 6 6q4 0 13 -14q7 -12 13 -23q35 -70 58 -119q49 -95 49 -119q0 -7 -7 -7q-6 0 -15.5 8t-16.5 14
q-15 12 -29 30v-14q0 -36 30 -190q45 -232 55 -302q31 -181 31 -267zM682 667v-23q0 -58 -36 -109q-28 -40 -73 -69q-52 -16 -110 -29.5t-84 -13.5q-9 0 -9 4q0 3 21 13q74 36 135.5 74.5t79.5 59.5q-75 0 -96 5q-66 10 -66 76q0 21 52 131q60 126 101 126q10 0 22 -14
q3 -4 3 -15q0 -51 -16 -91l-18 -18q-9 13 -20 13t-27 -18q-10 -11 -34 -47q8 -14 23 -19.5t31 -5.5q14 0 43.5 4.5t37.5 4.5q16 0 25.5 -9t14.5 -30zM504 1293q0 -29 -12 -59.5t-27 -50.5q-54 29 -110 55q-27 16 -27 35l33 113q27 -22 94 -53q49 -22 49 -40zM655 1156
q0 -15 -13 -50q-14 -43 -32 -62q-37 19 -73 38q-51 30 -51 44q0 8 20 55t27 47q42 -16 61 -26q61 -32 61 -46zM468 1105q0 -24 -9 -55q-15 -40 -33 -40q-9 0 -66 34q-66 37 -66 52q0 6 12.5 38.5t33.5 78.5q29 -30 89 -63q39 -24 39 -45z" />
    <glyph glyph-name="afii57454-3" unicode="&#x6ad;" horiz-adv-x="1275" arabic-form="final" 
d="M1274 237q-42 0 -81 21.5t-75 59.5q-43 50 -60 90q-23 51 -41 174q-16 -53 -49 -104q-25 -45 -147.5 -120t-257.5 -126q-158 -61 -267 -61q-133 0 -214 85.5t-81 219.5q0 43 10 101.5t21 83.5q21 39 31 39q8 0 8 -12t-10 -34q-8 -30 -10.5 -59t-2.5 -70v-33
q0 -68 78 -126q84 -68 204 -68q75 0 236.5 59.5t284.5 131.5q138 79 138 129q0 153 -24 374q-18 162 -47 372q-18 119 -36 239q12 65 21.5 93.5t17.5 28.5q12 0 21 -43q3 -14 9 -58q14 -76 27 -151q20 -116 29 -206l74 -621q16 -141 84 -218q54 -60 109 -60v-131zM713 955
q-16 -67 -48 -118q-27 -44 -65 -74q-41 -21 -97.5 -36.5t-75.5 -15.5q-8 0 -8 2.5t24 14.5q64 31 128 80q52 40 74 70q-58 -6 -70 -7t-23 -1q-35 0 -53.5 12t-18.5 43q2 6 2 9q9 77 66.5 182t90.5 105q15 0 20 -23q2 0 2 -3.5v-6.5q0 -51 -13 -92q-10 -7 -21 -15
q-8 14 -18 14t-32 -30q-16 -19 -30 -41q10 -15 28.5 -21.5t42.5 -6.5q14 0 28.5 1t27.5 1q23 0 32 -5t9 -23q0 -6 -2 -15zM680 1431q0 -17 -11 -53q-14 -40 -31 -61q-38 18 -74 40q-48 29 -48 43q0 8 18 55t27 47q41 -17 62 -26q57 -32 57 -45zM529 1566q0 -28 -11 -59
t-26 -51q-53 27 -107 54q-28 16 -28 34q4 13 8 24q19 65 25 90q25 -19 90 -50q49 -24 49 -42zM498 1376q0 -22 -13.5 -57t-29.5 -35q-9 0 -70 33q-62 37 -62 53q0 5 12.5 39.5t31.5 73.5q29 -28 89 -61q42 -23 42 -46z" />
    <glyph glyph-name="afii57451-3" unicode="&#x6ad;" horiz-adv-x="1303" arabic-form="initial" 
d="M1247 1359q0 -6 0.5 -13.5t0.5 -12.5q0 -76 -56 -173q-39 -64 -117 -162q-85 -104 -101 -130q-9 -18 -19 -18q-5 0 -5 10q0 8 5 19q19 54 82 141q51 69 101.5 138.5t50.5 98.5q0 41 -86 41q-77 0 -213 -32.5t-361 -105.5q-180 -61 -315 -114q-164 -64 -256 -107
q-108 -54 -103 -107q6 -8 57.5 -34.5t37.5 -40t-17 -13.5q191 -10 338.5 -7t172.5 -55q0 -7 2 -21q6 -46 6 -66q0 -42 -7.5 -77.5t-31.5 -71.5q-12 -19 -75 -67q-76 -58 -146 -94q-94 -48 -163 -48v131q77 0 179 47q80 37 156 95q69 49 64 61q-40 65 -237 65t-266 18.5
t-106 91.5q-23 86 -9.5 137t28.5 87q54 44 233.5 123.5t421.5 166.5q119 42 225 75q135 40 231 61q123 24 211 24q38 0 60.5 -18.5t26.5 -42.5zM551 1437q0 -17 -15 -51q-13 -42 -31 -63q-37 21 -72 40q-50 30 -50 43q0 8 18 55t27 47q41 -17 62 -28q61 -31 61 -43z
M397 1572q0 -26 -10.5 -59t-27.5 -49q-53 27 -106 55q-27 15 -27 33q4 11 6 21q19 68 25 91q25 -20 91 -52q49 -20 49 -40zM366 1383q0 -23 -13 -58t-31 -35q-8 0 -66 33q-65 37 -65 53q0 5 12.5 39t31.5 76q28 -27 89 -63q42 -23 42 -45z" />
    <glyph glyph-name="glyph1051" unicode="&#x6ad;" horiz-adv-x="1909" arabic-form="medial" 
d="M1909 237q-48 0 -86 34q-30 25 -30 67q-1 8 -1 18v16q0 25 8 55q-17 -9 -35.5 -12.5t-34.5 -3.5q-54 0 -325 -45q-359 -59 -548 -83q-352 -46 -577 -46h-280v131h280q222 0 565 36q174 20 552 72q277 40 318 40q47 0 62 2q13 2 21 2q-57 113 -195 155q-80 22 -201 22
q-83 0 -283.5 -20t-406.5 -39.5t-320 -19.5q-138 0 -223 21q-113 30 -113 97q0 11 4 23q35 125 107 210q57 66 186 157q120 87 229 142q136 70 204 70q42 0 60.5 -14.5t18.5 -37.5q0 -19 -12 -48q-6 -13 -21 -44q-4 -11 -9 -20.5t-9 -9.5q-5 0 -10.5 6.5t-10.5 22.5t-22 27
t-38 11q-25 -4 -128 -54q-114 -53 -195 -111q-66 -44 -127 -92q-71 -56 -105 -95q-44 -47 -44 -71q0 -28 78 -52q100 -26 278 -26q70 0 258 19t379.5 37.5t274.5 18.5q217 0 307 -36q110 -41 173 -165q4 -9 4 -25q0 -30 -16.5 -66.5t-43.5 -64.5q3 -4 3 -11v-14
q0 -11 6.5 -23t17.5 -20t20 -10t36 -2v-131zM518 1437q0 -17 -13 -51q-14 -42 -32 -63q-37 21 -73 40q-50 30 -50 43q0 8 18 55t28 47q42 -17 61 -28q61 -31 61 -43zM365 1572q0 -26 -11 -59t-26 -49q-54 27 -107 55q-28 15 -28 33q4 11 6 21q19 68 25 91q26 -20 90 -52
q51 -20 51 -40zM334 1383q0 -23 -13.5 -58t-31.5 -35q-7 0 -66 33q-66 37 -66 53q0 5 13.5 39t32.5 76q27 -27 89 -63q42 -23 42 -45z" />
    <glyph glyph-name="glyph1052" unicode="&#x6c7;" horiz-adv-x="966" arabic-form="isolated" 
d="M897 591q0 -63 -11 -107.5t-28 -80.5q-32 -47 -121 -126q-114 -102 -221 -163q-141 -83 -253 -83q-127 0 -182 125q-41 90 -41 229q0 48 20 120q16 54 32 93q24 59 37 59q3 0 3 -11q0 -15 -15.5 -59t-21.5 -69q-15 -54 -15 -101q0 -110 33 -165q45 -74 163 -87
q11 -2 17.5 -2h10.5q96 0 236 80q107 61 218 159q94 80 106 106q-6 20 -45 39q-48 24 -106 24q-11 0 -21.5 -1.5t-20.5 -1.5q-78 0 -99.5 26t-21.5 75q0 84 50 145q45 60 96 60q52 0 117 -67q84 -85 84 -216zM770 688q-34 40 -42 46q-24 19 -53 19q-22 0 -35.5 -11.5
t-13.5 -30.5q6 -11 15.5 -13t27.5 -2h29h31.5t40.5 -8zM704 1273q28 0 45.5 -22.5t17.5 -67.5q0 -65 -42.5 -129t-66.5 -64q-7 0 -7 6t7 14q26 24 43.5 59.5t17.5 58.5q0 13 -17 14q-25 6 -43 23t-18 44q0 25 18 44.5t45 19.5z" />
    <glyph glyph-name="afii57471-3" unicode="&#x6c7;" horiz-adv-x="714" arabic-form="final" 
d="M715 237l-42 -1l-9 -41q-17 -99 -81 -168q-123 -113 -290 -223q-149 -97 -247 -135q-94 -13 -170 -31q-99 -24 -191 -57q-18 -8 -30.5 -11t-23.5 -3q-15 0 -15 6q0 14 55 37t136 59q88 42 185 90q133 69 288 168q148 92 248 169q104 79 104 100q-3 16 -5 22t-8 18
q-73 0 -133.5 3.5t-84.5 14.5t-46 37q-24 30 -24 57q0 79 48.5 146.5t101.5 67.5q37 0 95 -58q62 -65 84 -138l55 2v-131zM533 368l-21 29q-7 12 -22 21t-29 9q-27 0 -40 -15q-7 -10 -7 -27q7 -7 41.5 -12t77.5 -5zM467 933q29 0 47.5 -22.5t18.5 -66.5q0 -67 -44 -130.5
t-68 -63.5q-7 0 -7 5q0 6 7 14q27 23 44 58.5t17 59.5q0 12 -16 14q-26 6 -44 23t-18 44q0 26 18 45.5t45 19.5z" />
    <glyph glyph-name="afii57458-3" unicode="&#x6c6;" horiz-adv-x="905" arabic-form="isolated" 
d="M897 591q0 -63 -11 -107.5t-28 -80.5q-32 -47 -121 -126q-114 -102 -221 -163q-141 -83 -253 -83q-127 0 -182 125q-41 90 -41 229q0 48 20 120q16 54 32 93q24 59 37 59q3 0 3 -11q0 -15 -15.5 -59t-21.5 -69q-15 -54 -15 -101q0 -110 33 -165q45 -74 163 -87
q11 -2 17.5 -2h10.5q96 0 236 80q107 61 218 159q94 80 106 106q-6 20 -45 39q-48 24 -106 24q-11 0 -21.5 -1.5t-20.5 -1.5q-78 0 -99.5 26t-21.5 75q0 84 50 145q45 60 96 60q52 0 117 -67q84 -85 84 -216zM770 688q-34 40 -42 46q-24 19 -53 19q-22 0 -35.5 -11.5
t-13.5 -30.5q6 -11 15.5 -13t27.5 -2h29h31.5t40.5 -8zM672 1035l-206 261l35 6l168 -142l110 181l35 4l-130 -310h-12z" />
    <glyph glyph-name="afii57457-3" unicode="&#x6c6;" horiz-adv-x="714" arabic-form="final" 
d="M715 237l-42 -1l-9 -41q-17 -99 -81 -168q-123 -113 -290 -223q-149 -97 -247 -135q-94 -13 -170 -31q-99 -24 -191 -57q-18 -8 -30.5 -11t-23.5 -3q-15 0 -15 6q0 14 55 37t136 59q88 42 185 90q133 69 288 168q148 92 248 169q104 79 104 100q-3 16 -5 22t-8 18
q-73 0 -133.5 3.5t-84.5 14.5t-46 37q-24 30 -24 57q0 79 48.5 146.5t101.5 67.5q37 0 95 -58q62 -65 84 -138l55 2v-131zM533 368l-21 29q-7 12 -22 21t-29 9q-27 0 -40 -15q-7 -10 -7 -27q7 -7 41.5 -12t77.5 -5zM426 687l-208 259l36 8l167 -143l112 181l35 4l-130 -308z
" />
    <glyph glyph-name="afii57494-3" unicode="&#x6c8;" horiz-adv-x="905" arabic-form="isolated" 
d="M897 591q0 -63 -11 -107.5t-28 -80.5q-32 -47 -121 -126q-114 -102 -221 -163q-141 -83 -253 -83q-127 0 -182 125q-41 90 -41 229q0 48 20 120q16 54 32 93q24 59 37 59q3 0 3 -11q0 -15 -15.5 -59t-21.5 -69q-15 -54 -15 -101q0 -110 33 -165q45 -74 163 -87
q11 -2 17.5 -2h10.5q96 0 236 80q107 61 218 159q94 80 106 106q-6 20 -45 39q-48 24 -106 24q-11 0 -21.5 -1.5t-20.5 -1.5q-78 0 -99.5 26t-21.5 75q0 84 50 145q45 60 96 60q52 0 117 -67q84 -85 84 -216zM770 688q-34 40 -42 46q-24 19 -53 19q-22 0 -35.5 -11.5
t-13.5 -30.5q6 -11 15.5 -13t27.5 -2h29h31.5t40.5 -8zM645 1302l20 -316l-14 -7l-119 338z" />
    <glyph glyph-name="afii57459-3" unicode="&#x6c8;" horiz-adv-x="714" arabic-form="final" 
d="M715 237l-42 -1l-9 -41q-17 -99 -81 -168q-123 -113 -290 -223q-149 -97 -247 -135q-94 -13 -170 -31q-99 -24 -191 -57q-18 -8 -30.5 -11t-23.5 -3q-15 0 -15 6q0 14 55 37t136 59q88 42 185 90q133 69 288 168q148 92 248 169q104 79 104 100q-3 16 -5 22t-8 18
q-73 0 -133.5 3.5t-84.5 14.5t-46 37q-24 30 -24 57q0 79 48.5 146.5t101.5 67.5q37 0 95 -58q62 -65 84 -138l55 2v-131zM533 368l-21 29q-7 12 -22 21t-29 9q-27 0 -40 -15q-7 -10 -7 -27q7 -7 41.5 -12t77.5 -5zM428 1010l20 -314l-14 -9l-118 339z" />
    <glyph glyph-name="afii57455-3" unicode="&#x6c5;" horiz-adv-x="968" arabic-form="isolated" 
d="M897 591q0 -63 -11 -107.5t-28 -80.5q-32 -47 -121 -126q-114 -102 -221 -163q-141 -83 -253 -83q-127 0 -182 125q-41 90 -41 183q0 94 110.5 125t205 27.5t204.5 -27.5t147 -51.5t-1 -52.5q-378 82 -587 -22q-39 -31 -6 -86q45 -74 163 -87q11 -2 17.5 -2h10.5
q96 0 236 80q107 61 218 159q94 80 106 106q-6 20 -45 39q-48 24 -106 24q-11 0 -21.5 -1.5t-20.5 -1.5q-78 0 -99.5 26t-21.5 75q0 84 50 145q45 60 96 60q52 0 117 -67q84 -85 84 -216zM770 688q-34 40 -42 46q-24 19 -53 19q-22 0 -35.5 -11.5t-13.5 -30.5
q6 -11 15.5 -13t27.5 -2h29h31.5t40.5 -8z" />
    <glyph glyph-name="afii57452-3" unicode="&#x6c5;" horiz-adv-x="714" arabic-form="final" 
d="M715 237l-42 -1l-9 -41q-17 -99 -81 -168q-123 -113 -290 -223q-149 -97 -247 -135q-94 -13 -170 -31q-99 -24 -191 -57q-18 -8 -30.5 -11t-23.5 -3q-15 0 -15 6q0 14 55 37t136 59q88 42 185 90q133 69 210 119h-299v49h377q148 92 248 169q104 79 104 100q-3 16 -5 22
t-8 18q-73 0 -133.5 3.5t-84.5 14.5t-46 37q-24 30 -24 57q0 79 48.5 146.5t101.5 67.5q37 0 95 -58q62 -65 84 -138l55 2v-131zM533 368l-21 29q-7 12 -22 21t-29 9q-27 0 -40 -15q-7 -10 -7 -27q7 -7 41.5 -12t77.5 -5z" />
    <glyph glyph-name="glyph1060" unicode="&#x6c9;" horiz-adv-x="905" arabic-form="isolated" 
d="M897 591q0 -63 -11 -107.5t-28 -80.5q-32 -47 -121 -126q-114 -102 -221 -163q-141 -83 -253 -83q-127 0 -182 125q-41 90 -41 229q0 48 20 120q16 54 32 93q24 59 37 59q3 0 3 -11q0 -15 -15.5 -59t-21.5 -69q-15 -54 -15 -101q0 -110 33 -165q45 -74 163 -87
q11 -2 17.5 -2h10.5q96 0 236 80q107 61 218 159q94 80 106 106q-6 20 -45 39q-48 24 -106 24q-11 0 -21.5 -1.5t-20.5 -1.5q-78 0 -99.5 26t-21.5 75q0 84 50 145q45 60 96 60q52 0 117 -67q84 -85 84 -216zM770 688q-34 40 -42 46q-24 19 -53 19q-22 0 -35.5 -11.5
t-13.5 -30.5q6 -11 15.5 -13t27.5 -2h29h31.5t40.5 -8zM608 1345l206 -261l-35 -4l-168 141l-110 -181l-35 -5l130 310h12z" />
    <glyph glyph-name="glyph1061" unicode="&#x6c9;" horiz-adv-x="714" arabic-form="final" 
d="M715 237l-42 -1l-9 -41q-17 -99 -81 -168q-123 -113 -290 -223q-149 -97 -247 -135q-94 -13 -170 -31q-99 -24 -191 -57q-18 -8 -30.5 -11t-23.5 -3q-15 0 -15 6q0 14 55 37t136 59q88 42 185 90q133 69 288 168q148 92 248 169q104 79 104 100q-3 16 -5 22t-8 18
q-73 0 -133.5 3.5t-84.5 14.5t-46 37q-24 30 -24 57q0 79 48.5 146.5t101.5 67.5q37 0 95 -58q62 -65 84 -138l55 2v-131zM533 368l-21 29q-7 12 -22 21t-29 9q-27 0 -40 -15q-7 -10 -7 -27q7 -7 41.5 -12t77.5 -5zM416 1051l207 -261l-35 -4l-168 141l-110 -181l-35 -5
l129 310h12z" />
    <glyph glyph-name="glyph1062" unicode="&#x6cb;" horiz-adv-x="966" arabic-form="isolated" 
d="M897 591q0 -63 -11 -107.5t-28 -80.5q-32 -47 -121 -126q-114 -102 -221 -163q-141 -83 -253 -83q-127 0 -182 125q-41 90 -41 229q0 48 20 120q16 54 32 93q24 59 37 59q3 0 3 -11q0 -15 -15.5 -59t-21.5 -69q-15 -54 -15 -101q0 -110 33 -165q45 -74 163 -87
q11 -2 17.5 -2h10.5q96 0 236 80q107 61 218 159q94 80 106 106q-6 20 -45 39q-48 24 -106 24q-11 0 -21.5 -1.5t-20.5 -1.5q-78 0 -99.5 26t-21.5 75q0 84 50 145q45 60 96 60q52 0 117 -67q84 -85 84 -216zM770 688q-34 40 -42 46q-24 19 -53 19q-22 0 -35.5 -11.5
t-13.5 -30.5q6 -11 15.5 -13t27.5 -2h29h31.5t40.5 -8zM838 1161q0 -13 -12 -49q-16 -42 -31 -62q-37 20 -73 40q-50 30 -50 44q10 33 18 49q18 51 27 51q41 -16 61 -27q60 -30 60 -46zM687 1299q0 -30 -11 -60t-29 -50q-54 29 -107 55q-27 16 -27 34q8 24 12 37
q17 61 21 78q26 -21 92 -52q49 -24 49 -42zM653 1111q0 -24 -13 -59.5t-29 -35.5q-9 0 -69 35q-63 38 -63 54q0 6 21 55q13 31 25 58q25 -27 89 -62q39 -24 39 -45z" />
    <glyph glyph-name="afii62884-3" unicode="&#x6cb;" horiz-adv-x="714" arabic-form="final" 
d="M715 237l-42 -1l-9 -41q-17 -99 -81 -168q-123 -113 -290 -223q-149 -97 -247 -135q-94 -13 -170 -31q-99 -24 -191 -57q-18 -8 -30.5 -11t-23.5 -3q-15 0 -15 6q0 14 55 37t136 59q88 42 185 90q133 69 288 168q148 92 248 169q104 79 104 100q-3 16 -5 22t-8 18
q-73 0 -133.5 3.5t-84.5 14.5t-46 37q-24 30 -24 57q0 79 48.5 146.5t101.5 67.5q37 0 95 -58q62 -65 84 -138l55 2v-131zM533 368l-21 29q-7 12 -22 21t-29 9q-27 0 -40 -15q-7 -10 -7 -27q7 -7 41.5 -12t77.5 -5zM616 895q0 -12 -12 -48q-16 -45 -32 -64q-38 19 -73 41
q-51 30 -51 44q12 34 18 50q19 51 26 51q41 -19 61 -29q63 -28 63 -45zM463 1034q0 -30 -10.5 -60.5t-27.5 -49.5q-54 26 -109 55q-27 15 -27 32q6 24 11 39q19 61 24 76q23 -20 90 -51q49 -24 49 -41zM430 844q0 -24 -13 -59t-31 -35q-7 0 -67 36q-65 37 -65 52q0 6 22 56
q12 31 26 56q26 -25 87 -60q41 -24 41 -46z" />
    <glyph glyph-name="afii62881-3" unicode="&#x6d0;" horiz-adv-x="1165" arabic-form="isolated" 
d="M1052 362q-12 -44 -130 -132q-130 -98 -284 -168q-184 -82 -336 -82q-140 0 -225 108q-77 99 -77 244q0 89 28 186q18 71 51 136q37 74 53 74q2 0 2 -6q0 -22 -27 -80q-31 -66 -46 -130t-15 -139q0 -108 76.5 -183.5t184.5 -75.5q162 0 346 74q141 58 267 144
q108 77 99 91q-16 21 -123 43q-133 26 -178 44q-93 39 -93 108q0 82 33 169q39 103 124 201q50 58 77 82q63 52 123 52q34 0 52 -31.5t18 -72.5q0 -33 -10.5 -56t-32.5 -23q-3 0 -11.5 27.5t-47.5 27.5q-30 0 -70 -27q-52 -34 -104 -95q-28 -38 -67 -98q-43 -71 -36 -83
q36 -54 153 -77q166 -35 199 -49q26 -10 35.5 -35.5t9.5 -61.5q0 -28 -4.5 -55.5t-13.5 -50.5zM679 -461q0 -13 -11 -49q-14 -44 -31 -64q-45 27 -74 42q-48 29 -48 44q11 33 17 49q20 51 28 51q41 -20 62 -30q57 -31 57 -43zM670 -227q0 -21 -13 -57t-28 -36q-16 0 -91 48
q-41 27 -41 39q0 6 19 55l24 60q28 -28 89 -63q41 -24 41 -46z" />
    <glyph glyph-name="afii62886-3" unicode="&#x6d0;" horiz-adv-x="1314" arabic-form="final" 
d="M1313 237q-32 -1 -53 -5q-53 -6 -124 -20q-45 -7 -110 -34q-24 -9 -65 -27q32 -5 52 -10q49 -14 109.5 -31.5t77.5 -47.5q13 -19 13 -70q0 -32 -9.5 -60.5t-25.5 -65.5q-9 -26 -104.5 -88t-192.5 -109q-130 -65 -234 -101q-120 -38 -203 -38q-52 0 -112 18
q-103 33 -164 104q-83 100 -83 259q0 37 6 84q10 77 28 145q26 88 67 162q11 24 17 24q2 0 1 -12.5t-3 -27.5q-31 -91 -49 -172q-21 -89 -21 -144q0 -146 94 -230q90 -82 234 -82q47 0 132 19q108 28 219 72q126 54 236 119q101 59 101 72q0 30 -169 70q-108 29 -148 45
q-26 9 -41 23t-15 32q0 11 20 68q10 34 18 44q13 8 117 46q74 28 133 46q74 23 174 40q32 6 77 14v-131zM686 -801q0 -18 -11 -54q-12 -45 -30 -65q-33 20 -66 41q-47 31 -47 47q0 5 17.5 54.5t25.5 49.5q38 -20 56 -30q55 -30 55 -43zM686 -628q0 -22 -9 -54
q-13 -41 -29 -41q-14 0 -84 48q-38 30 -38 42q0 5 12 40t29 79q26 -27 81 -64q38 -25 38 -50z" />
    <glyph glyph-name="afii62883-3" unicode="&#x6d0;" horiz-adv-x="377" arabic-form="initial" 
d="M289 540v-29q0 -37 -9 -67q-16 -45 -56 -92q-32 -36 -94 -72q-75 -43 -130 -43v131q83 0 173 47q79 44 73 63q-14 35 -59 87q-69 80 -85 101q-47 66 -72 141q-6 0 -13 3t-5 7l10 95q6 21 8 21q4 0 11 -6q30 -25 68.5 -51t44.5 -32q22 -20 22 -30q0 -9 -13 -9h-15
q-14 0 -32 3q72 -93 118 -153q48 -64 55 -115zM236 -184q0 -13 -12 -50q-15 -44 -32 -64q-32 20 -67 38q-46 30 -46 43q0 15 25 75q14 34 22 34q37 -20 55 -30q55 -34 55 -46zM216 70q6 -9 -9 -60.5t-32 -51.5q-14 0 -71 41q-31 20 -31 32q0 8 12 41q10 26 31 75
q28 -27 76 -53q14 -8 24 -24z" />
    <glyph glyph-name="afii62885-3" unicode="&#x6d0;" horiz-adv-x="351" arabic-form="medial" 
d="M353 237q-30 0 -73 22q-53 26 -75 62q-9 11 -13.5 31t-4.5 41q-18 -36 -33 -62q-20 -35 -32 -45q-31 -31 -61 -40q-21 -9 -61 -9v131q25 0 67.5 8.5t59.5 20.5q13 7 29 39q22 38 23 42q29 38 39 38q6 0 6 -12q0 -15 -6 -36q5 -11 16 -32q10 -21 58 -48q15 -9 30.5 -14.5
t30.5 -5.5v-131zM282 -121q0 -16 -14 -51q-14 -43 -32 -62q-33 19 -69 37q-45 28 -45 43q12 33 18 48q20 52 27 52q41 -17 57 -25q58 -29 58 -42zM258 92q0 -22 -12.5 -57.5t-30.5 -35.5q-7 0 -55 26q-53 31 -53 47q0 7 12.5 38t31.5 76q28 -29 77 -57q30 -18 30 -37z" />
    <glyph glyph-name="afii62882-3" unicode="&#x649;" horiz-adv-x="379" arabic-form="initial" 
d="M289 540v-13.5t3 -15.5q0 -35 -10 -67q-16 -45 -58 -92q-31 -36 -93 -72q-76 -43 -131 -43v131q85 0 173 47q81 44 75 63q-14 35 -61 87q-69 80 -83 101q-49 66 -74 141q-6 0 -12 3t-6 7l10 95q6 21 9 21t10 -6q30 -25 68.5 -51t46.5 -32q22 -20 22 -30q0 -9 -15 -9h-15
q-12 0 -32 3q59 -76 118 -153q48 -64 55 -115z" />
    <glyph glyph-name="afii57504-3" unicode="&#x649;" horiz-adv-x="351" arabic-form="medial" 
d="M353 237q-30 0 -73 22q-53 26 -75 62q-9 11 -13.5 31t-4.5 41q-18 -36 -33 -62q-20 -35 -32 -45q-31 -31 -61 -40q-21 -9 -61 -9v131q25 0 67.5 8.5t59.5 20.5q13 7 29 39q22 38 23 42q29 38 39 38q6 0 6 -12q0 -15 -6 -36q5 -11 16 -32q10 -21 58 -48q15 -9 30.5 -14.5
t30.5 -5.5v-131z" />
    <glyph glyph-name=".notdef" horiz-adv-x="1620" 
d="M284 211v1313h1051v-1313h-1051zM318 243h984v1247h-984v-1247z" />
    <glyph glyph-name=".null" horiz-adv-x="0" 
 />
    <glyph glyph-name="nonmarkingreturn" horiz-adv-x="512" 
 />
    <glyph glyph-name="space" unicode=" " horiz-adv-x="512" 
 />
    <glyph glyph-name="space" unicode="&#xa0;" horiz-adv-x="512" 
 />
    <glyph glyph-name="exclam" unicode="!" horiz-adv-x="641" 
d="M286 459q-2 138 6 204q19 180 25.5 430.5t26.5 322.5q10 30 25 43t40 18q31 5 53 -8t25 -32q12 -62 -25 -204q-5 -23 -30 -181q-7 -43 -29 -150l-41 -180l-51 -259q-16 -3 -25 -4zM181 202q-7 41 20.5 79t68.5 45q32 6 67 -19t42 -66q9 -47 -17 -86.5t-67 -46.5
q-37 -6 -67 15q-14 9 -38 53q-5 11 -9 26z" />
    <glyph glyph-name="quotedbl" unicode="&#x22;" horiz-adv-x="867" 
d="M697 970l30 298q12 116 15 137q15 65 36 99q17 26 47.5 44t66.5 18q35 0 55.5 -19.5t20.5 -51.5q0 -27 -16 -67q-38 -107 -62 -159l-144 -299h-49zM254 970l31 302q13 129 27 174q20 63 56 91.5t79 28.5q35 0 56 -20.5t21 -51.5q0 -24 -10 -54q-14 -42 -74 -170
l-142 -300h-44z" />
    <glyph glyph-name="numbersign" unicode="#" horiz-adv-x="1388" 
d="M167 1119h342l90 424h89l-90 -424h463l89 424h90l-90 -424h217v-90h-234l-86 -414h320v-90h-340l-86 -422h-90l88 422h-467l-85 -422h-92l88 422h-216v90h235l88 414h-323v90zM579 1029l-88 -413h467l86 413h-465z" />
    <glyph glyph-name="dollar" unicode="$" horiz-adv-x="914" 
d="M205 230l186 517q24 66 29 84q-94 138 -94 261q0 133 86 227t220 106l15 40l26 1q7 0 18 -2l-13 -41q56 -10 125 -37l31 78l43 1q-3 -16 -20 -60q-5 -12 -15 -43q119 -89 119 -213q0 -36 -18 -57t-43 -21q-28 0 -46.5 22.5t-18.5 71.5q0 8 1 38l3 24q0 37 -19 71
l-188 -523q11 -18 46.5 -71.5t40.5 -60.5q15 -34 26.5 -76.5t11.5 -89.5q0 -95 -48.5 -179t-133.5 -130q-60 -34 -177 -46l-70 -192h-44q22 73 58 163l11 33q-67 9 -129 34l-82 -230h-42q2 12 28 84l58 167q-79 50 -120.5 117.5t-41.5 125.5q0 29 17.5 49t41.5 20
q27 0 47 -24.5t23.5 -83.5t15.5 -92t36 -63zM599 810l187 526q-52 46 -124 46l-157 -442q11 -28 94 -130zM479 993l137 383q-6 1 -11 1q-23 0 -60 -24q-53 -31 -79.5 -86t-26.5 -129q0 -85 40 -145zM367 164l179 500q-10 16 -31.5 42t-64.5 81l-212 -583q69 -40 129 -40z
M578 621l-165 -457q91 4 160.5 79t69.5 183q0 102 -65 195z" />
    <glyph glyph-name="percent" unicode="%" horiz-adv-x="1563" 
d="M329 85l87 141q38 64 80 123q71 102 295 459l419 664l10 2q45 -2 50 -2l-431 -698q-58 -96 -66 -110q-9 -19 -26 -34l-18 -26q-48 -75 -79 -129q-11 -21 -23 -36l-236 -357q-12 0 -54 3h-8zM147 1011q0 105 62 231t144.5 178.5t164.5 52.5q77 0 123.5 -54.5t46.5 -174.5
q0 -90 -31 -172q-23 -57 -53 -107.5t-68 -88.5q-58 -58 -107.5 -81t-97.5 -23q-77 0 -130.5 62t-53.5 177zM250 940q0 -75 21 -102t56 -27q53 0 96 45q62 66 124 252q46 141 46 219q0 56 -25 87q-17 22 -51 22q-60 0 -119 -64t-109 -226q-39 -123 -39 -206zM991 378
q0 104 62 229.5t144.5 179.5t163.5 54q77 0 124 -54.5t47 -176.5q0 -88 -31 -171q-22 -58 -52.5 -108.5t-69.5 -88.5q-57 -58 -107 -80.5t-97 -22.5q-76 0 -130 61.5t-54 177.5zM1095 307q0 -76 21 -103t55 -27q54 0 94 46q64 67 126 252q47 141 47 218q0 57 -25 88
q-18 21 -53 21q-60 0 -118 -64t-110 -226q-37 -122 -37 -205z" />
    <glyph glyph-name="ampersand" unicode="&#x26;" horiz-adv-x="1893" 
d="M836 1003l10 -24q19 13 66 62l141 157q57 70 71 105q5 9 5 33q-43 6 -57 22q-20 23 -20 53q0 43 31 76t75 33q33 0 58.5 -25t25.5 -58q0 -54 -39 -122.5t-155 -189.5q-26 -29 -33 -38l-285 -312q-15 -18 -55 -65q-131 -155 -282 -311q42 -36 79 -59q59 -33 123 -57
q15 -6 99 -22q39 -7 110 -7q81 0 204.5 31t210.5 87q119 74 189 162q42 49 58 66q34 45 55 73q34 57 59 97q6 14 19 40.5t21 44.5l-136 100q-72 55 -122 74q-28 11 -56 11q-58 0 -93 -33.5t-35 -91.5q0 -43 18 -69q10 -16 24 -16q10 0 20 2q9 53 22.5 68t37.5 15
q23 0 36 -14q17 -19 17 -49q0 -33 -25 -56.5t-66 -23.5q-50 0 -87.5 41t-37.5 107q0 76 65 138t156 62q65 0 121 -21q78 -29 184.5 -104t148.5 -94t79 -19q41 0 75 37.5t34 97.5q0 52 -25 80.5t-57 28.5q-8 0 -11.5 -3.5t-4.5 -14.5q14 -22 14 -39q0 -18 -13 -30.5
t-37 -12.5t-40 16t-16 41q0 35 27 59.5t72 24.5q50 0 90.5 -42.5t40.5 -112.5q0 -82 -67 -149t-157 -67q-72 0 -156 38q-43 -75 -68 -123q-58 -107 -162 -230q-76 -93 -208 -184t-261 -129t-259 -38q-194 0 -354 124.5t-160 323.5q0 62 26.5 151t80.5 172q21 32 96 97
q56 49 128 80q54 23 126 23q70 0 129 -29q32 -15 62 -69zM368 438q14 14 41 44q78 86 89 98l172 190q89 98 106 121q-44 1 -61.5 17t-17.5 52q0 15 5 28q10 28 10 33q0 13 -15 24q-16 12 -61 12q-40 0 -77 -18q-54 -25 -99 -70q-61 -62 -98 -121q-16 -28 -44 -133
q-6 -25 -6 -101q0 -18 15 -90q23 -58 41 -86z" />
    <glyph glyph-name="quotesingle" unicode="'" horiz-adv-x="453" 
d="M269 970l31 302q13 129 27 174q20 63 55 91.5t79 28.5q36 0 57.5 -20.5t21.5 -51.5q0 -24 -9 -52q-14 -40 -76 -172l-142 -300h-44z" />
    <glyph glyph-name="parenleft" unicode="(" horiz-adv-x="569" 
d="M869 1513l23 -27q-176 -154 -285 -312q-148 -211 -234.5 -479.5t-86.5 -554.5q0 -241 83 -504l-30 -18q-144 304 -144 638q0 360 168.5 692t505.5 565z" />
    <glyph glyph-name="parenright" unicode=")" horiz-adv-x="569" 
d="M-131 -378l-29 23q113 95 188 183t94 122q6 8 44.5 64t115 215t117.5 327q51 210 51 446q0 114 -16 214.5t-64 281.5l29 16q142 -313 142 -636q0 -234 -70 -455q-84 -263 -247 -469t-355 -332z" />
    <glyph glyph-name="asterisk" unicode="*" horiz-adv-x="892" 
d="M196 1006q54 22 337 72q6 0 15 5q-16 19 -48 51q-8 7 -74 76q-8 10 -126 126q28 33 56 58q177 -215 232 -269q12 36 23 78q17 60 31 107q28 92 41 160q34 -10 76 -22q-9 -36 -36 -110l-58 -171q-12 -31 -15 -61q22 6 40 12l46 17q53 19 98 30.5t168 35.5q11 -34 20 -75
q-21 -7 -227 -48q-119 -22 -129 -26q16 -17 26 -27.5t52 -48.5l120 -115q30 -27 62 -65q-24 -24 -58 -51q-8 7 -67 72.5t-77 86.5q-59 75 -101 108l-45 -162q-23 -79 -29 -118.5t-15 -67.5q-42 9 -74 27q8 33 16 55q19 58 86 277q-44 -9 -142.5 -40.5t-206.5 -49.5z" />
    <glyph glyph-name="plus" unicode="+" horiz-adv-x="1387" 
d="M217 842h502v504h90v-504h505v-90h-505v-498h-90v498h-502v90z" />
    <glyph glyph-name="comma" unicode="," horiz-adv-x="455" 
d="M-36 -151q102 67 120 84q55 45 84.5 94t29.5 87q0 24 -32 58q-46 53 -46 94q0 54 38 103q24 30 58 30q37 0 67 -38q41 -51 41 -123q0 -97 -90.5 -222.5t-255.5 -200.5z" />
    <glyph glyph-name="hyphen" unicode="-" horiz-adv-x="1019" 
d="M188 265q7 21 23 53.5t24 54.5q3 9 11 24l30 3h41q14 0 76 4l43 -1l67 1l119 -1q14 0 45 -2q48 3 56 3q10 0 46 -3q9 -1 31 -4q-28 -91 -54 -141q-30 -3 -58 -4l-24 4q-64 -1 -77 -3q-36 8 -65 8q-139 0 -214 -8q-42 11 -120 12z" />
    <glyph glyph-name="hyphen" unicode="&#xad;" horiz-adv-x="1019" 
d="M188 265q7 21 23 53.5t24 54.5q3 9 11 24l30 3h41q14 0 76 4l43 -1l67 1l119 -1q14 0 45 -2q48 3 56 3q10 0 46 -3q9 -1 31 -4q-28 -91 -54 -141q-30 -3 -58 -4l-24 4q-64 -1 -77 -3q-36 8 -65 8q-139 0 -214 -8q-42 11 -120 12z" />
    <glyph glyph-name="period" unicode="." horiz-adv-x="433" 
d="M75 376q0 45 33 78.5t77 33.5t73 -31t29 -79t-31 -81t-75 -33q-42 0 -74 33.5t-32 78.5z" />
    <glyph glyph-name="slash" unicode="/" horiz-adv-x="1040" 
d="M834 1605h90l-719 -1736h-89z" />
    <glyph glyph-name="zero" unicode="0" horiz-adv-x="977" 
d="M107 582q0 204 94 423q114 265 248 366.5t265 101.5q115 0 181 -85q87 -113 87 -350q0 -274 -142 -548q-89 -170 -229 -280q-107 -83 -212 -83q-116 0 -188 95q-104 133 -104 360zM240 444q0 -156 42 -212t109 -56q95 0 168 85q112 124 219 486q87 293 87 453
q0 118 -51 182q-35 44 -103 44q-102 0 -192 -103q-116 -128 -204 -449q-75 -258 -75 -430z" />
    <glyph glyph-name="one" unicode="1" horiz-adv-x="970" 
d="M332 151l315 1118q-163 -119 -339 -191l-4 57q317 147 474 336h67l-374 -1320h-139z" />
    <glyph glyph-name="two" unicode="2" horiz-adv-x="979" 
d="M796 279l-34 -128h-728l6 27q415 393 556 540q172 182 226 294q35 71 35 162q0 102 -48.5 153t-136.5 51q-97 0 -166.5 -52t-134.5 -192h-55q56 171 159.5 254.5t228.5 83.5q145 0 227.5 -80t82.5 -207q0 -72 -22 -129q-29 -75 -100.5 -156t-311.5 -294l-366 -327h582z
" />
    <glyph glyph-name="three" unicode="3" horiz-adv-x="977" 
d="M478 1231l-42 18q32 101 114 162t178 61q108 0 162.5 -51t54.5 -129q0 -50 -24 -94.5t-72 -83.5q-20 -15 -189 -130q105 -26 152.5 -82t47.5 -140q0 -134 -99 -290.5t-281.5 -250.5t-374.5 -94h-61l10 43q124 0 245 44.5t212 128t147 188.5t56 195q0 74 -40.5 118
t-102.5 44q-41 0 -97 -30q-81 -41 -117 -77q-24 21 -29 38q62 53 155 111q137 81 185 122q66 54 97 111t31 119q0 46 -31 76t-84 30q-55 0 -111 -37t-92 -120z" />
    <glyph glyph-name="four" unicode="4" horiz-adv-x="978" 
d="M398 151l111 387h-476l10 77l829 856h54l-245 -841h245l-23 -92h-248l-111 -387h-146zM536 630l171 597l-576 -597h405z" />
    <glyph glyph-name="five" unicode="5" horiz-adv-x="979" 
d="M335 828l211 624l93 1q45 0 129 -4q49 -3 63 -3q108 0 135 7q14 3 25.5 19t30.5 16h19l-38 -130q-10 -30 -18 -41q-52 -7 -104 -7q-56 0 -197 5q-73 2 -126 2l-107 -314q59 17 98 17q118 0 196.5 -78t78.5 -200q0 -151 -103 -301.5t-313 -244.5q-144 -62 -375 -69
q-2 13 -2 24t7 21q66 0 183.5 27t219 95t172.5 188.5t71 222.5q0 82 -49.5 134t-125.5 52q-72 0 -174 -63z" />
    <glyph glyph-name="six" unicode="6" horiz-adv-x="979" 
d="M1055 1461q-2 -27 -9.5 -35.5t-37.5 -17.5q-130 -33 -277.5 -153.5t-243.5 -257t-180 -340.5t-84 -312q0 -79 37 -122t88 -43q77 0 168 68t156.5 208t65.5 246q0 52 -30.5 86.5t-68.5 34.5q-24 0 -57.5 -9t-62.5 -28q-6 0 -8 3q-7 11 -7 28q0 21 29 39q56 36 144 36
q48 0 95 -25.5t73 -82.5t26 -121q0 -212 -182 -387q-156 -149 -316 -149q-118 0 -188 76.5t-70 231.5q0 90 19 168q37 143 118 283t207 261q95 92 214 169q152 100 250 127q66 19 76 23q20 8 26 8q10 0 30 -13z" />
    <glyph glyph-name="seven" unicode="7" horiz-adv-x="978" 
d="M914 1297l-132 2h-200q-86 0 -116 -6q-58 -12 -92 -12q-36 0 -57 12q-11 6 -11 16l6 18l36 102q266 -4 552 -4q47 0 68 1q42 6 66 6q25 0 39 -8q7 -5 7 -13q0 -12 -135 -210l-696 -1042q-25 -32 -48 -32q-22 0 -30 5q-5 2 -5 8q0 14 32 52q45 50 129 201l6 12q6 10 53 82
l308 470q52 78 220 340z" />
    <glyph glyph-name="eight" unicode="8" horiz-adv-x="977" 
d="M484 814q-145 168 -145 321q0 77 55.5 162t140.5 129.5t195 44.5q126 0 193 -62t67 -154q0 -58 -26 -107q-38 -73 -103.5 -128.5t-226.5 -159.5q96 -112 135 -196t39 -169q0 -157 -111 -265t-285 -108q-144 0 -231 77.5t-87 175.5q0 65 37 132q51 87 144 167
q64 53 209 140zM600 895q158 117 213 202t55 176q0 72 -43 115t-117 43q-60 0 -115 -33.5t-87 -99t-32 -131.5q0 -57 26.5 -118.5t99.5 -153.5zM516 780q-106 -75 -151 -123q-63 -71 -98 -155t-35 -163q0 -75 51.5 -124t136.5 -49q107 0 183.5 79t76.5 196q0 73 -35.5 150
t-128.5 189z" />
    <glyph glyph-name="nine" unicode="9" horiz-adv-x="979" 
d="M58 139q1 27 9 35.5t39 17.5q128 32 276.5 153t244 257.5t179.5 340.5t84 311q0 80 -37 122.5t-87 42.5q-78 0 -169 -67.5t-156.5 -207.5t-65.5 -246q0 -52 30.5 -87t67.5 -35q25 0 58 9.5t62 28.5q6 0 10 -4q6 -10 6 -27q0 -23 -29 -39q-56 -36 -144 -36q-48 0 -95 25.5
t-73 82t-26 121.5q0 212 182 387q157 149 316 149q117 0 187.5 -76.5t70.5 -231.5q0 -90 -20 -169q-36 -142 -117 -282.5t-208 -260.5q-95 -92 -212 -170q-153 -99 -251 -127q-67 -18 -76 -22q-19 -8 -26 -8q-11 0 -30 13z" />
    <glyph glyph-name="colon" unicode=":" horiz-adv-x="550" 
d="M216 854q-10 53 15.5 90t69.5 46q8 1 17 1q31 0 62 -21q39 -27 46 -69q2 -11 2 -21q0 -32 -20 -61q-27 -39 -72 -49q-41 -7 -76.5 17t-43.5 67zM141 204q-2 12 -2 22q0 33 19 60q25 38 70 46q44 8 82 -16t45 -61q10 -51 -16 -89.5t-69 -45.5q-11 -3 -21 -3q-32 0 -61 21
q-38 25 -47 66z" />
    <glyph glyph-name="semicolon" unicode=";" horiz-adv-x="459" 
d="M480 780q-34 -20 -58 -20q-45 0 -77.5 32t-32.5 78t33 80t80 34q41 0 71 -31t30 -75q0 -58 -46 -98zM0 -137q14 12 37 28q160 117 160 209q0 27 -35.5 57.5t-45.5 48.5q-14 26 -14 53q0 54 41 110q20 29 50 29q39 0 69 -40q43 -56 43 -139q0 -113 -84 -224t-210 -173z
" />
    <glyph glyph-name="semicolon" unicode="&#x37e;" horiz-adv-x="459" 
d="M480 780q-34 -20 -58 -20q-45 0 -77.5 32t-32.5 78t33 80t80 34q41 0 71 -31t30 -75q0 -58 -46 -98zM0 -137q14 12 37 28q160 117 160 209q0 27 -35.5 57.5t-45.5 48.5q-14 26 -14 53q0 54 41 110q20 29 50 29q39 0 69 -40q43 -56 43 -139q0 -113 -84 -224t-210 -173z
" />
    <glyph glyph-name="less" unicode="&#x3c;" horiz-adv-x="1386" 
d="M1311 297l-1092 463v81l1092 462v-97l-973 -405l973 -407v-97z" />
    <glyph glyph-name="equal" unicode="=" horiz-adv-x="1386" 
d="M219 1081h1093v-90h-1093v90zM219 609h1093v-91h-1093v91z" />
    <glyph glyph-name="greater" unicode="&#x3e;" horiz-adv-x="1386" 
d="M219 1303l1092 -463v-81l-1092 -462v97l974 405l-974 405v99z" />
    <glyph glyph-name="question" unicode="?" horiz-adv-x="760" 
d="M387 1257q-21 -1 -31 -1h-20q17 103 89 163t179 60t184.5 -70.5t77.5 -200.5q0 -67 -26 -125.5t-75 -106.5q-34 -33 -196 -142q-115 -80 -162.5 -121t-74.5 -95q-15 -29 -15 -63q0 -41 23 -61q36 -34 80 -34q40 0 72 38q45 49 64 108q18 -2 32 -14q-4 -69 -60 -124.5
t-117 -55.5q-60 0 -108 52.5t-48 127.5q0 72 30.5 139.5t96.5 130.5q44 45 165.5 130.5t148.5 113.5q50 47 74 95q14 29 14 68q0 59 -56.5 110.5t-127.5 51.5q-87 0 -147 -53q-33 -28 -66 -121zM226 224v12q0 49 33 82.5t73 33.5q32 0 57 -28.5t25 -71.5q0 -53 -31.5 -89.5
t-71.5 -36.5q-33 0 -59 27.5t-26 70.5z" />
    <glyph glyph-name="at" unicode="@" horiz-adv-x="1912" 
d="M1434 1128l-119 -407q-67 -232 -81 -291.5t-14 -96.5q0 -32 21.5 -54.5t54.5 -22.5q75 0 179.5 74.5t179 241.5t74.5 349q0 174 -84 322.5t-237.5 227t-339.5 78.5q-235 0 -437.5 -125t-320 -359.5t-117.5 -487.5q0 -234 103 -426t291 -289.5t404 -97.5q269 0 485.5 143
t335.5 419h59q-92 -280 -333.5 -452.5t-551.5 -172.5q-242 0 -450.5 114.5t-323.5 325t-115 462.5q0 270 126.5 503t354.5 364.5t484 131.5q211 0 381 -88t258.5 -255t88.5 -357q0 -186 -83.5 -369t-211.5 -267t-268 -84q-78 0 -117 37t-39 102q0 58 18 151
q-140 -169 -232 -230t-170 -61q-72 0 -128 64.5t-56 172.5q0 149 96.5 332.5t255.5 299.5q117 84 210 84q69 0 114 -35t62 -106l33 113zM1077 1086q-79 0 -157 -82q-114 -118 -195 -318q-60 -146 -60 -238q0 -63 36 -103.5t80 -40.5q60 0 125 44.5t136 138t104 183.5
q57 165 57 269q0 67 -37 107t-89 40z" />
    <glyph glyph-name="A" unicode="A" horiz-adv-x="1590" 
d="M103 211q12 11 30 25l16 13l238 238q41 41 54.5 51.5t28.5 28t40 41t41 40.5q40 37 54 52q144 132 380 365l221 215q24 26 43 42q62 72 100 110q10 11 52 57q14 2 27 2q12 0 33 -2l2 -11q-8 -85 -8 -121q-7 -42 -7 -119l-14 -184q-1 -21 -6 -108l-36 -478l1 -22l-2 -54
v-14q-4 -14 -4 -18l-2 -88l1 -13l-4 -41q9 -14 45 -18q90 -10 134 -25l1 -15q0 -7 -6 -24q-36 6 -44 8l-125 8l-91 -2q-89 -10 -145 -10l-24 -4l-30 2q-45 -4 -53 -4q-16 0 -37 4l2 28q30 9 67 11q63 4 113 18q14 4 19 4h5q11 11 14 20q6 19 21 161t17 216q0 37 1 54
q-12 1 -59 1q-59 0 -362 -7l-207 -7q-6 -1 -20 -3q-15 -8 -36 -29.5t-52 -44.5q-44 -47 -134 -127q-36 -33 -61 -60l-77 -83q-13 -11 -25 -23q-9 -7 -16 -13q-7 -12 -14 -22q1 -10 1 -25q27 -15 74 -19q22 -2 47 -6q34 -6 49 -7q13 -1 22 -6q-1 -16 -9 -35l-188 13l-140 -7
q-33 0 -47 -2h-10q-8 0 -35 -4h-50q-12 0 -26 4q-4 15 -4 33l14 5l111 11l69 12q6 2 22 12zM875 686q22 0 33 -1h24l129 6l165 12q23 2 43 3q3 20 5 57q6 39 7 48l20 296l15 191q-13 -6 -59 -47q-21 -13 -57 -47l-235 -224l-41 -38q-24 -27 -47 -46t-43 -41
q-11 -11 -28 -24.5t-31 -29.5q-14 -11 -29 -28t-35 -35q-13 -14 -40 -45q15 -9 76 -9l52 1q37 1 76 1z" />
    <glyph glyph-name="B" unicode="B" horiz-adv-x="1174" 
d="M29 169q16 6 32.5 7t29.5 5q12 0 19 1q73 6 92 16t29 32q27 68 34 108q2 22 5 30q2 12 3 31q9 45 10 54q4 28 14.5 77.5t19.5 113.5q4 35 6 44q22 110 32 168q40 249 58 324q6 59 24 156l1 51q0 18 -12 29q-23 21 -74 28.5t-81 7.5l-12 -2l-18 8q-1 12 -1 18l1 10
q62 3 70 3q139 0 187 -3q33 -1 54 -1t72 1q32 3 49 3q152 0 212 -15q81 -18 125 -57q66 -59 90 -110t24 -123q0 -38 -15.5 -77t-50.5 -77q-11 -13 -80 -64q-16 -10 -39 -23l-91 -43q73 -16 125 -47q14 -10 30 -16q14 -12 27.5 -21.5t25.5 -19.5q26 -32 38 -57l16 -31
q7 -15 17 -66t10 -90q0 -33 -2 -45l-22 -67q-44 -82 -71 -120t-95 -94q-36 -30 -105 -56q-30 -11 -126 -28l-14 -1q-6 0 -60 -3q-30 -4 -49 -4q-41 0 -172 8q-48 3 -76 10l-86 2h-13l-42 -7l-33 3l-61 -8q-39 -8 -67 -8q-7 0 -18 1zM530 891q118 3 155 11q79 16 130.5 46
t97.5 82q26 30 45.5 86t19.5 98t-12 79q-9 24 -36 66q-37 42 -54 52q-33 17 -115 35h-18l-82 1q-34 0 -54 -17q-13 -13 -18 -52q-11 -110 -31 -198l-33 -172l-3 -53q-3 -24 -5 -42l-1 -9q0 -4 14 -13zM498 834q-6 -54 -36 -189q-10 -37 -25 -152q-41 -180 -41 -231
q0 -49 24 -67t144 -18q97 0 169 25q13 8 25 14q47 20 76 46q57 54 81 102q41 87 45 104q18 81 18 141q0 25 -7.5 56.5t-22.5 67.5q-27 32 -41 43.5t-62 43.5q-23 8 -42 16q-14 4 -20 5q-31 7 -40 7l-64 2l-48 -2h-41l-90 -7z" />
    <glyph glyph-name="C" unicode="C" horiz-adv-x="1306" 
d="M1464 1480q-4 -34 -22 -111.5t-30 -116.5l-30 2v26q0 112 -24 139.5t-102 27.5q-31 -1 -48 -1h-38q-28 1 -36 1q-72 0 -162 -27.5t-215 -105.5q-59 -38 -174 -146q-44 -42 -153 -198l-35 -61l-43 -110q-17 -54 -23.5 -104.5t-6.5 -102.5q0 -69 15 -130.5t41 -93.5
q54 -67 114.5 -111.5t140 -69t182.5 -24.5q108 0 177 30.5t122 86.5q16 18 97 144l33 -10l-55 -173q-14 -46 -21 -66q-68 -24 -137 -35q-136 -22 -263 -22q-186 0 -287.5 35.5t-197.5 124.5q-67 64 -103 161t-36 181q0 126 38 215q82 188 187.5 298.5t249.5 196.5
q105 62 243 116t285 54l179 1q66 0 138 -21z" />
    <glyph glyph-name="D" unicode="D" horiz-adv-x="1522" 
d="M37 140l1 35q154 19 172 26q8 5 14 13q11 15 28 95l73 400l106 519q18 110 25 129q8 27 8 42t-18 26t-119 16q-42 1 -69 8l-3 13q0 9 8 24q15 0 68 -2q68 -2 84 -2q20 0 42 1q53 3 60 3q89 0 197 -2l156 1l48 -3l109 1q88 0 169 -28.5t143 -75.5t118 -129
q37 -54 56.5 -127t19.5 -133q0 -118 -53 -252.5t-154 -251t-240 -203.5q-101 -61 -256 -101t-284 -40l-189 3l-96 -6q-24 -1 -140 -1q-59 0 -84 2zM617 1431q-3 -19 -18 -84t-21 -111q-5 -34 -37 -198l-94 -480q-9 -42 -28 -119q-30 -112 -30 -169q0 -44 31 -65t170 -21
q11 0 94 14q114 19 208.5 62t177 113.5t146 168t92.5 180.5q53 149 53 248q0 123 -58.5 226t-135 156t-213 70.5t-237.5 17.5q-66 0 -100 -9z" />
    <glyph glyph-name="E" unicode="E" horiz-adv-x="1436" 
d="M228 195q4 17 8 43q56 272 75 387l62 345q4 14 16 102l33 171q10 43 15 109q1 13 1 26q0 24 -17.5 35.5t-116.5 18.5l-66 4q1 18 7 37h125l151 1l85 -1l718 7q25 0 46 -1q15 -1 38 -1q-3 -26 -22 -127q-11 -60 -26 -100q-16 3 -26 13q-10 62 -12 80q-3 49 -4.5 55.5
t-9.5 31.5q-32 6 -58 7q-12 2 -31 3q-23 -1 -38 0l-28 -1h-32l-70 -5h-80l-57 -1l-20 1l-40 -1h-15l-39 -2h-25l-102 -2q-26 -2 -47 -7q-9 -4 -34 -15q-3 -22 -10 -57l-24 -130l-22 -121l-2 -29q-25 -122 -31 -174q-1 -14 -3 -30q52 7 287 21q288 15 306 21q40 10 62 31.5
t79 143.5l38 5q-10 -57 -43 -213q-5 -20 -10 -56q-5 -24 -18 -81q-6 -22 -7 -34q-6 -38 -12 -55q-18 1 -35 1l-1 6q0 5 2 19q5 21 5 71q0 67 -21 89t-94 22q-71 0 -170 -15q-75 -1 -214 -11l-72 -4l-19 -4q-28 0 -43 -4q-9 0 -26 -1q-16 -84 -25 -117q-21 -86 -30 -136
l-61 -305q-2 -19 -2 -32q0 -10 7 -25q21 -18 40.5 -23.5t75.5 -6.5q13 0 51 -2q12 -1 18 -1l162 7l39 3l27 -1q60 0 135 12q19 3 49 6q131 16 233 92q76 56 121 173h15q8 0 17 -3q-11 -49 -89 -316q-109 -4 -317 -4l-150 -2h-44l-129 -4l-92 1l-99 -1l-224 1l-50 -1l-88 1
l-88 -1l-2 32l95 4l63 8q27 5 76 17z" />
    <glyph glyph-name="F" unicode="F" horiz-adv-x="1199" 
d="M15 141q5 24 16 39q36 6 97 7l59 1l40 6q5 1 15 7q8 19 14 43q15 71 82 498q27 178 35 268q27 155 44 319q4 36 4 58q0 38 -35 49q-21 7 -178 16l1 34h75h36q75 -6 229 -7l48 -1l361 8l82 2l84 -2h69h45h17h16l84 -3q-2 -13 -3 -19q-3 -17 -4 -33l-36 -140q-1 -5 -8 -27
l-34 4q-1 47 -11 88q-8 55 -25 66q-33 22 -120 22l-374 -6q-114 -1 -165 -12l-4 -18l-23 -202l-39 -285q24 -3 92 -6q21 0 31 -1h9l160 8h54l48 -3l38 1l51 -1q20 0 57 9q44 90 50.5 109.5t25.5 55.5q16 1 23 1h11l-5 -58l-48 -356l-36 -7l-4 18v21l-9 116q-10 31 -22 38
q-17 8 -92 8l-107 -2l-36 1l-88 -2h-122l-65 -3q-17 0 -25 -2q-16 -83 -48 -329q-10 -68 -17 -100t-11 -62q-5 -49 -17 -117q-4 -32 -4 -58q12 -6 18 -8q106 -17 162 -18q10 0 33 -2q1 -12 1 -16q0 -8 -2 -21q-20 1 -32 1q-8 0 -35 -2h-34q-21 0 -87 10q-29 0 -58.5 1.5
t-40.5 1.5q-132 0 -199 -7q-46 -4 -64 -4q-25 0 -50 5z" />
    <glyph glyph-name="G" unicode="G" horiz-adv-x="1477" 
d="M151 730q12 64 32 130q5 13 40 94l18 30l12 22q78 112 146.5 187.5t124.5 115.5q94 65 204 103q149 52 247 62l111 14q17 2 54 2q91 0 231 -13q70 -6 100 -16q2 -24 2 -36q0 -20 -3 -39l-16 -102q-5 -24 -14 -54q-19 2 -39 8l-15 112q-7 49 -15 62t-16 18q-18 11 -52 16
q-73 7 -84 7q-112 0 -197 -22q-121 -32 -201 -67.5t-162 -105.5t-125 -126l-18 -19q-29 -41 -57 -75q-42 -65 -99 -219q-35 -93 -35 -191l4 -63q1 -6 1 -19q13 -70 42 -129t71 -104t110 -84q53 -31 107 -42q79 -17 128 -17q129 0 220 24q51 13 84 47q18 20 29 56
q42 157 42 232q0 32 -24 41q-62 24 -106 24l-65 -2q-13 0 -31 10q14 28 19 30l36 1l82 -2l83 2q25 0 67.5 -1.5t59.5 -1.5q49 0 74 1.5t39 1.5l81 -3v-32q-23 -6 -55 -10q-59 -9 -74 -24q-23 -23 -33 -77q-17 -88 -32 -155l-28 -134l-219 -51q-80 -18 -108 -20l-96 -11
q-99 0 -202 11q-22 1 -56 13l-126 47q-44 21 -118 72q-73 63 -90 85q-36 46 -62 104q-16 34 -23 81q-11 72 -11 107z" />
    <glyph glyph-name="H" unicode="H" horiz-adv-x="1612" 
d="M33 136v21q0 11 4 18q27 5 66.5 8t57.5 5q14 4 30 5q22 2 40 8q7 25 28 142l40 230q10 77 81 466q17 93 29.5 172t23.5 127q1 15 2 24q5 32 5 37q0 6 -5 21q-23 9 -52 10l-46 2h-22q-16 0 -66 8q0 22 6 46q8 -1 19 -1q39 -2 69 -5q56 0 90 -2l81 2l53 -3q118 0 197 7
q11 1 20 1q6 0 15 -1q4 -12 4 -18q0 -10 -8 -26l-106 -8l-85 -10q-7 -3 -14 -8q-7 -22 -11 -43l-43 -246q-10 -63 -30 -165q-9 -46 -13 -102q128 -8 224 -8q60 0 211 10l127 -1l29 1q30 0 90.5 -3.5t93.5 -3.5q14 0 41 2l33 173l43 233q16 80 18 100.5t2 43.5v20
q-12 13 -63 15h-20q-51 6 -106 7q3 23 9 38l220 -5l294 5q0 -18 -8 -37q-14 -4 -43 -6l-81 -8q-31 -2 -50 -9l-7 -14q-4 -18 -9 -33q-8 -24 -12 -55l-12 -91l-76 -416q-24 -118 -68 -364l-42 -220q-2 -12 -2 -22q12 -12 24 -15q7 0 18.5 -3.5t31.5 -3.5q22 -2 130 -18
l-1 -10q-3 -13 -9 -20l-22 2l-254 5q-147 0 -190 -5q-21 -2 -95 -7q0 22 5 36l9 4l129 13q40 4 70 11l4 11q11 32 24 103q1 8 62 302q23 108 30 181q-46 8 -124 8l-96 -2l-12 2l-18 1l-29 -1h-55l-129 -4h-66l-83 -4h-40l-48 -3l-68 2l-46 -2q-6 -31 -9 -61l-25 -149
q-8 -48 -23 -117q-7 -51 -23 -112q-7 -24 -8 -47q-2 -29 -10 -55q-3 -17 -3 -28q0 -8 3 -17q12 -7 19 -9.5t55 -5.5l123 -20q0 -16 -6 -36l-86 -1l-227 13q-59 0 -162 -9q-18 -3 -66 -3z" />
    <glyph glyph-name="I" unicode="I" horiz-adv-x="677" 
d="M16 168q35 7 70 13q85 14 115 33q9 6 20.5 26.5t58.5 212.5q61 258 108 538l56 293l6 60q5 22 5 39q0 28 -17 37q-28 20 -110 20l-8 -2h-28q-16 0 -41 6q3 21 9 44l122 -6l191 -6l171 8l77 4v-35q-19 -6 -74 -12q-83 -10 -102 -22q-13 -11 -24 -36t-83 -362l-116 -558
q-46 -214 -46 -243q0 -6 4 -14q25 -16 104 -23q50 -5 83 -11l3 -32q-4 -4 -15 -4h-25q-48 -2 -159 -2l-181 4h-48q-6 0 -45.5 -2.5t-80.5 -2.5v35z" />
    <glyph glyph-name="J" unicode="J" horiz-adv-x="682" 
d="M5 -311q54 13 92 63q54 67 88 207q51 222 60 278q5 40 60 270q18 76 23 101q1 8 3 17l51 270l57 300l27 135q10 47 12 69q-72 31 -198 50v11q0 6 1 20q21 5 30 5q11 0 41 -3q20 -2 50 -3l114 -5q187 0 268 11q15 1 22 1h12l2 -33q-10 -7 -16 -9l-73 -9q-83 -10 -97 -23
q-12 -28 -20 -66q-6 -29 -14 -64l-7 -32l-5 -24q-44 -259 -83 -422l-91 -449q-38 -174 -84 -316.5t-128 -253.5q-59 -77 -143 -120q-65 -31 -137 -31q-45 0 -86 14q-23 8 -59 38q-17 19 -17 51q0 28 20.5 46.5t48.5 18.5q33 0 60 -18q18 -13 43.5 -55.5t52.5 -42.5q7 0 20 3
z" />
    <glyph glyph-name="K" unicode="K" horiz-adv-x="1243" 
d="M330 762q12 50 42 199l5 17l77 362l7 44q0 11 -8 28q-32 19 -76 22q-22 1 -37 4q-40 5 -47 6q-25 0 -37 11q3 16 3 25l80 3l188 -11l118 4l33 -2q15 0 39.5 4t31.5 4q14 0 43 -8q-3 -24 -19 -42l-34 -2q-20 -4 -50.5 -4.5t-45.5 -9.5q-6 -4 -10 -11q-15 -22 -39 -117
l-39 -162q-48 -176 -68 -285q-6 -36 -12 -55l170 140q19 17 38 37q44 34 84 72q98 96 142 132l158 149q47 42 67 73q-13 7 -20 10q-16 8 -27 13q-31 18 -80 22q-18 2 -37 6v9q0 9 1 25q24 8 35 8q35 0 85 -10t136 -10q81 0 133 5q21 3 29 3t24 -3l1 -32q-94 -28 -127 -42
q-9 -4 -111 -64q-168 -143 -349 -303l-161 -141l-11 -12q9 -17 16 -26l116 -153l120 -165q9 -13 47 -70q21 -37 51 -71q9 -12 30 -42q31 -46 75 -98q17 -19 45 -32q37 -18 127 -35q-3 -25 -7 -45h-54q-105 16 -227 17q-93 131 -138 205l-17 21l-46 67l-115 164
q-48 80 -110 149q-12 15 -23 29q-19 -16 -37.5 -26.5t-45.5 -29.5l-83 -386q-13 -63 -13 -104q0 -6 1 -20q29 -23 62 -34q32 -7 64 -10t56 -8q10 -7 10 -16q0 -6 -1 -12q-23 -8 -54 -8q-73 0 -121 6l-59 -1l-39 1l-111 -1q-11 -1 -30 -5l-115 -1v35q11 6 43 12
q87 13 118.5 41.5t43.5 96.5q3 14 17 56l49 227l25 131q3 10 5 30z" />
    <glyph glyph-name="L" unicode="L" horiz-adv-x="1328" 
d="M8 181l140 11q16 3 48 12q26 14 38 32q18 23 24 55q24 119 87 540l71 483v9q0 37 -3 47t-14 24q-27 17 -75 27t-100 11q1 18 7 40q81 -1 111 -4q80 -3 210 -3q23 0 44 1q28 2 57 2l130 2v-20q0 -9 -3 -20q-15 -4 -38 -5q-65 -2 -108 -20q-22 -9 -38 -37t-34 -116
q-6 -55 -10 -79l-31 -197l-67 -397q-23 -115 -35 -217t-12 -110q0 -34 15 -46q21 -18 68 -18h119l212 -1q112 0 202.5 17.5t168.5 60.5q52 29 97 78q17 19 73 110q5 7 14 21q19 0 33 -3q-3 -37 -9 -55l-70 -223q-8 -27 -19 -49q-67 -4 -95 -4l-61 2l-255 -2l-152 2l-194 -2
l-213 7h-86l-147 -5q-13 -1 -104 -1v9q0 13 4 31z" />
    <glyph glyph-name="M" unicode="M" horiz-adv-x="1723" 
d="M-52 148v9q0 21 11 32q69 7 103 23q23 6 41.5 23t51 80.5t83.5 220.5l93 264q19 64 26 84l125 342q26 78 47 130q11 28 11 43q0 29 -25 41t-103 20q-92 -4 -98 -4h-12l-11 41q37 4 45 4q30 -3 39 -3l88 3q84 0 141 -5q22 -2 63 -2q6 -6 7 -12q11 -26 20 -87l32 -167
q9 -37 27 -139q34 -193 46 -293q31 -146 41 -218q1 -10 22 -136q10 -55 15 -70q48 69 83.5 129t120.5 221l217 377l46 79q82 156 186 320q67 -4 130 -4q9 0 21 0.5t29 0.5l118 3q8 -1 20 -2l-4 -32q-25 -10 -76 -18q-69 -15 -92.5 -29.5t-30.5 -38.5q-31 -204 -83 -498
l-94 -530v-8q-2 -16 -6 -60q-1 -18 -2 -28l-2 -11q0 -5 3 -13q21 -14 35 -22q24 -7 108 -19q37 -5 55 -8v-10q0 -8 -5 -20q-43 -3 -63 -3q-48 0 -115 6q-50 6 -124 6q-67 0 -156 -4q-32 -2 -41 -2q-14 0 -36 3q-5 11 -5 17q0 7 8 22q26 3 39 3q93 3 127 23q14 7 23 25
q15 25 31 135l42 242l48 277q12 77 22 152q14 75 22.5 141t14.5 98q7 46 10 72q-173 -304 -216 -370q-11 -16 -136 -235l-43 -86q-20 -28 -35 -53q-174 -310 -249 -454q-17 -32 -30 -55h-39q0 51 -5 95q-8 110 -19 179q-2 13 -27 146l-60 330q-10 48 -12 75t-11 68
q-13 56 -35 178l-25 133q-9 -18 -13 -37l-108 -309l-66 -198q-30 -74 -72 -222.5t-78 -244.5q-10 -26 -10 -43q0 -19 13 -31.5t71 -31.5q24 -4 40 -8q57 -3 78 -9q7 -1 13 -10q0 -18 -6 -33l-71 2l-46 2q-6 0 -18 -1q-90 11 -186 11q-6 0 -152 -4z" />
    <glyph glyph-name="N" unicode="N" horiz-adv-x="1636" 
d="M-20 186q20 3 64 6t69 8q64 5 95 31q19 18 25 51l60 280q16 76 24 108l4 26l48 262q2 26 16 74.5t21 150.5l16 75l13 130q0 18 -13 25q-30 17 -206 41l10 32l377 2q11 -14 18 -28q12 -20 55 -82l58 -82q34 -58 71 -113t69 -111q22 -38 314 -504q56 -86 77 -124
q40 -74 84 -144q13 63 22 133q42 197 49 265q5 37 11 71q5 23 13 83l16 114q1 19 24.5 176.5t23.5 215.5q0 16 -9 46q-30 19 -146 37q-41 7 -64 12q-3 15 -3 24v9h13q19 0 249 -12q40 -1 54 -1q68 0 135 6q47 4 72 4q-4 -23 -12 -45q-145 -13 -184 -26q-21 -7 -29 -17.5
t-24 -91.5q-22 -119 -29.5 -174t-15.5 -93q-10 -52 -13 -69l-40 -279l-71 -416q-21 -137 -23 -160h-25q-9 0 -31 2q-20 38 -48 80l-292 456q-19 30 -33 55l-73 111l-233 366q-48 74 -82 115q-8 15 -18.5 29t-24.5 38q-5 7 -14 22q-8 -30 -21 -111l-24 -131
q-18 -112 -63 -344l-23 -122l-25 -182q-9 -76 -23.5 -140.5t-14.5 -105.5q0 -12 14 -26q24 -10 66 -22q19 -6 60 -12q6 -1 108 -25l-9 -36q-25 5 -86 11q-143 14 -199 14q-27 0 -68 -1q-117 -6 -150 -6q-18 0 -56 1v38z" />
    <glyph glyph-name="O" unicode="O" horiz-adv-x="1411" 
d="M167 741q0 106 42 216.5t110 227.5q22 41 153 172q43 42 181 107q58 27 146 32q24 2 59 6.5t60 4.5q211 0 370 -201q117 -147 117 -405q0 -89 -37 -208.5t-109.5 -222.5t-168 -187t-201.5 -122.5t-211 -38.5q-133 0 -241.5 68.5t-175.5 179.5q-94 156 -94 371zM468 253
q34 -31 59 -44.5t108 -39.5q23 -6 61 -4l42 3q113 26 150 49q64 38 120 109q78 98 128.5 216.5t74.5 203.5q32 116 32 216q0 90 -22 176.5t-36 113.5q-36 70 -80 114t-101 69t-122 25q-107 0 -204 -53t-166 -143t-131 -267.5t-62 -326.5q0 -156 48 -276q24 -61 101 -141z
" />
    <glyph glyph-name="P" unicode="P" horiz-adv-x="1112" 
d="M26 180q10 3 19 3q100 9 142 24q29 10 42 29q6 10 25 91q7 45 58 270q7 48 20 121q4 21 20 130q3 17 24 126l23 132l5 40q44 210 44 266q0 6 -6 17q-15 11 -52 13q-8 1 -27 4h-50l-24 -2l-16 -1q-11 0 -32 5q1 12 13 46q17 0 120.5 -6t175.5 -6q74 0 170 8q36 4 52 4
q101 0 183 -34q6 -2 17 -7l70 -41q59 -47 77 -70q34 -40 57.5 -98.5t23.5 -115.5q0 -39 -8 -65l-25 -90q-15 -37 -43 -78q-13 -21 -47 -49q-14 -12 -25 -23q-56 -45 -136 -79q-40 -18 -91 -26q-99 -12 -113 -12t-54 6q-70 11 -96 20v6q0 6 5 25q29 -4 101 -6q14 2 48 3
q71 14 107 34q73 41 122 92t77 125q20 55 20 136q0 62 -31 124t-70.5 98.5t-98 57.5t-162.5 21q-37 0 -74 -8q-14 -38 -22 -94q-4 -26 -10 -53l-92 -515l-55 -260q-10 -66 -15.5 -93t-10 -62t-11.5 -55q-11 -38 -11 -61q0 -17 16.5 -29.5t73.5 -17.5t80 -17q-1 -15 -1 -24
q0 -14 -2 -21q-27 0 -122 9l-200 3q-94 0 -198 -11v41z" />
    <glyph glyph-name="Q" unicode="Q" horiz-adv-x="1440" 
d="M466 123q-17 6 -42 16q-131 45 -206.5 161.5t-75.5 279.5q0 113 29 200q44 138 144.5 283t203.5 227q139 109 297 168q105 37 222 37q112 0 179 -33t120 -103.5t90 -181.5q19 -59 19 -165q0 -151 -45 -272q-59 -157 -202 -336q-110 -140 -269.5 -214.5t-345.5 -74.5h-45
q-5 0 -25 -1q-14 -17 -25 -32q-52 -62 -112 -122l91 -30q90 -31 142 -55q83 -35 132 -50q95 -28 180.5 -43t155.5 -15q199 0 324 123l22 -22q-48 -60 -101 -97q-81 -57 -168 -84t-144 -27l-31 2l-117 2q-111 16 -147 26q-100 30 -200 76.5t-225 111.5q-55 -57 -157 -117
q-72 -42 -156 -45l-61 -4q-48 4 -82.5 38t-34.5 70q0 62 75 116q96 70 269 70q75 0 189 -34q3 9 26 28t57 59t50 64zM938 1425q-44 -13 -106 -53q-34 -21 -126 -98q-55 -47 -76 -73q-51 -57 -140 -174l-115 -197q-42 -71 -71 -149t-41 -134q-8 -43 -8 -93q0 -81 19 -123
q36 -76 104 -119.5t159 -43.5q86 0 185 40.5t225.5 161t215.5 267.5q119 199 148 293q38 129 38 205q0 89 -39 165.5t-101.5 115.5t-138.5 39q-12 0 -65 -9q-39 -8 -67 -21zM40 -67q-49 0 -102.5 -18.5t-73.5 -45t-20 -50.5q0 -28 27.5 -49.5t88.5 -21.5t122 31
q91 45 130 83q12 10 16 13l14 15q-4 3 -18 6q-30 7 -53 15q-66 22 -131 22z" />
    <glyph glyph-name="R" unicode="R" horiz-adv-x="1306" 
d="M67 176q26 2 47 8q16 2 63 12q58 6 89 29q11 7 14 13t27 248l37 390q31 262 34 339q1 27 8 65l6 91q0 15 -12 28q-17 15 -41 23q-113 8 -135 12q-8 13 -8 19q0 7 6 18q14 3 24 3q68 0 140.5 -1.5t86.5 -1.5l307 9h42q89 4 151 -15t110 -63.5t66 -100.5t18 -92
q0 -101 -74.5 -191t-244.5 -178q26 -46 253 -396q21 -34 67 -108.5t85.5 -104t100.5 -36.5q29 -3 72 -13l-4 -42q-39 0 -103 4q-113 8 -173 8l-147 -2l-64 -4l-11 1q-10 0 -18 -5q-13 11 -14 33q10 9 24 13q30 7 108 7q35 0 61 19q-13 39 -79 129q-11 15 -107 161l-194 292
q-73 -15 -153 -15q-14 0 -52 2l-27 -273l-19 -186l-2 -42q-4 -26 -4 -30q0 -8 5 -23q41 -21 93.5 -29t99.5 -20q2 -10 2 -16t-1 -16q-31 -1 -44 -1q-15 0 -52 3q-53 4 -105 4q-116 0 -188 -4.5t-127 -4.5q-17 0 -32 -1q-6 0 -17 2q1 10 1 14q1 12 4 16zM553 1417l-6 -18
q-19 -54 -21 -133q0 -9 -1 -17l-19 -166q-14 -180 -19 -222l1 -18q26 -9 84 -9q26 0 100 14q48 8 105 38q43 22 83 59q55 64 62 73q29 48 47 104.5t18 98.5q0 96 -66.5 156t-218.5 60q-89 0 -149 -20z" />
    <glyph glyph-name="S" unicode="S" horiz-adv-x="1044" 
d="M94 422q18 0 35 -4q8 -141 80 -223q52 -33 115 -38l37 -1q64 -3 130 18.5t95 51.5q37 39 73 116q16 32 16 88q0 34 -5 57q-9 38 -30.5 97t-56.5 130l-98 205q-25 53 -53 141q-12 41 -12 100q0 82 33.5 145t96.5 110t111 63q68 20 143 20q143 0 288 -60q-2 -60 -15 -105
q-17 -65 -35 -112q-21 0 -34 4q-1 55 -25 133q-13 43 -58 75t-105 32q-114 0 -182.5 -68.5t-68.5 -183.5q0 -64 18.5 -123.5t107.5 -236.5q43 -87 66 -147q5 -10 29 -84.5t26 -91.5q5 -29 5 -65q0 -145 -103 -230q-139 -115 -369 -115q-144 0 -290 45v6q0 19 11 75
q5 20 17 124q2 20 7 52z" />
    <glyph glyph-name="T" unicode="T" horiz-adv-x="1220" 
d="M280 1513q5 -18 24 -29q25 -14 74 -14l88 1l40 -4l84 3l110 -2l74 5l101 -3l87 3h33q60 -2 72 -2q15 0 45.5 1t126.5 3t144 39l17 -4h22q-19 -100 -38 -168q-10 -39 -14 -63q-3 -18 -11 -57q-23 2 -40 6q-1 116 -45 160t-168 44q-110 0 -198 -10q-28 -4 -45 -10
q-3 -12 -7 -20q-13 -52 -42 -291q-8 -72 -77 -451l-74 -368q-5 -28 -7 -34q-6 -23 -6 -32q0 -15 12 -22q21 -13 82 -13q15 0 80 -6q39 -3 45 -6q4 -1 7 -9l-4 -32q-70 1 -112 6.5t-67 5.5q-169 0 -414 -10q6 23 17 41q50 7 110 10q14 5 38 9q35 8 44 15.5t16 24.5
q30 76 65 332l94 526q45 254 49 332q-30 5 -66 5q-193 0 -253 -13.5t-100.5 -46t-114.5 -137.5q-19 3 -36 4q8 28 18 52q46 110 78 230h29z" />
    <glyph glyph-name="U" unicode="U" horiz-adv-x="1500" 
d="M237 1431l16 54q37 -7 54 -7l182 -5q66 0 192 11q18 2 79 4q4 -20 4 -28q0 -6 -1 -17q-16 -3 -96 -14.5t-89 -18.5q-9 -5 -11 -12q-24 -51 -50 -214l-71 -422q-29 -196 -29 -274q0 -37 12 -102q8 -44 30 -78q31 -46 74 -78q117 -59 214 -59q66 0 104 7q138 27 207 67.5
t112 103.5t80 199q26 97 75 431q34 230 34 339q0 46 -33.5 79.5t-105.5 42.5q-37 4 -61 8l-2 8q0 12 5 35q138 -11 283 -11q52 0 124 6h19h45l1 -39q-15 -3 -61 -12q-64 -12 -89 -27.5t-42 -47.5q-28 -49 -39 -138l-43 -344q-20 -152 -61 -323q-29 -122 -77 -211
q-30 -55 -99 -115q-53 -46 -147.5 -77.5t-223.5 -31.5q-18 0 -70 4q-97 3 -184 36.5t-132 75t-75 111t-30 163.5q0 110 23.5 215.5t61.5 339.5l48 271q3 22 3 35q0 18 -13.5 28.5t-84.5 19.5q-45 7 -62 12z" />
    <glyph glyph-name="V" unicode="V" horiz-adv-x="1676" 
d="M242 1477q0 6 5 8l223 -5l114 -1l197 1h45l-18 -42q-58 -7 -85 -8q-72 -4 -95.5 -15t-33.5 -29q-14 -23 -15 -96l-23 -603q-12 -245 -12 -353v-16l-2 -57v-12q114 101 215 207q36 38 73 70q284 302 343 354q16 14 75 72q87 89 162 178l21 24l61 61l146 157
q20 22 22.5 27.5t2.5 13.5q-11 12 -30 17q-31 10 -101 12q-25 1 -55 6v34q60 -4 109 -5l76 -4h16q24 1 76 1q58 10 91 10q31 0 84 -4v-34q-17 -4 -43 -7t-47 -10q-63 -24 -85 -37l-60 -48l-239 -238q-26 -20 -49 -46q-174 -182 -208 -214t-58 -56l-483 -493q-27 -31 -37 -39
l-163 -147h-21q-8 0 -27 1l13 476l5 70l-1 29l13 274l3 206q3 63 3 111q0 21 -0.5 40.5t-0.5 25.5v37q0 20 -11 31.5t-37 17.5q-130 10 -153 12z" />
    <glyph glyph-name="W" unicode="W" horiz-adv-x="1849" 
d="M218 1437l1 39l23 2q47 4 71 4l24 -2h35l156 -3l56 -1q12 -2 43 -4l1 -7q0 -9 -3 -23q-51 -14 -82 -16q-29 -8 -37 -21q-14 -21 -17 -64l-5 -117l-4 -125v-21q0 -40 -3 -145v-104l-7 -118v-69l-7 -207l-9 -111q-1 -12 -1 -33q36 33 51 52q31 42 64 74q15 15 44 51
q49 61 168 189q20 22 34 41l2 41l32 389q11 96 11 218q0 38 -16 53q-24 25 -84 36q-20 5 -35 8l-1 33q13 0 78 3h55l23 1l64 -2l68 2l137 -3l8 2q6 0 17 -6v-26q-17 -5 -47 -10q-81 -14 -105 -32.5t-24 -92.5q-1 -46 -16 -273q-8 -124 -8 -143v-26q36 44 66.5 76.5
t198.5 236.5q22 25 49 66q106 122 106 140q0 7 -6 12q-15 13 -43 23l-24 8q-14 4 -28 6.5t-29 8.5l-1 12q0 7 4 21h9l63 3l312 -3q0 -22 -6 -38q-15 -2 -21 -4q-48 -7 -89.5 -28.5t-80.5 -57.5q-82 -76 -139 -143l-264 -319q-34 -38 -53 -59q-21 -26 -39 -43l-6 -144
q0 -16 -2 -46l-16 -235q-4 -48 -4 -73q14 13 19 19l163 186q14 19 65 72q11 11 72 81q25 28 55 58q19 20 32 35l345 395l132 150q54 65 67 88q7 13 12 38q-14 7 -46 13q-22 6 -42 9q-12 1 -46 9v31l80 6h41l38 2q127 0 175 -2l-2 -39q-80 -29 -113 -55q-48 -36 -240 -257
l-355 -399l-38 -45l-41 -42l-229 -258l-245 -269h-11q-13 0 -35 2v23l-1 17q0 5 2 17q2 20 10 187l12 176l-1 45l1 36q-11 -10 -48 -52l-32.5 -32.5t-59.5 -70.5q-56 -60 -276 -317q-9 -8 -33 -31l-51 -2l-2 13l10 380l10 337l13 363q5 60 5 71v45l1 39q-4 25 -15 49
q-4 11 -16 16t-42 5q-33 0 -52 5z" />
    <glyph glyph-name="X" unicode="X" horiz-adv-x="1549" 
d="M-21 139v37q12 5 32 12t41 17q31 13 66 31q96 53 145 90l182 149q46 36 182 152l112 99q4 4 25 19l55 48q-29 44 -44 69q-6 12 -14 22q-54 97 -94 164l-106 173q-36 76 -91 150q-27 39 -66.5 58t-138.5 29q-26 2 -45 6l-1 37h52l169 -6q9 0 32 3q102 -4 151 -4l114 1
q24 0 45 -1.5t35 -1.5h19q1 -15 1 -22v-15q-148 -2 -190 -25q-20 -11 -20 -25l1 -10q1 -8 24 -51q6 -11 173 -306q64 -114 94 -156q12 8 206 181q167 147 227 214t69 86t9 29q0 20 -16 30q-35 22 -144 39v7q0 10 5 26l13 1h48l103 1l29 -2q7 0 181 -8h45q7 0 32 -1l-1 -39
q-95 -11 -215 -110q-20 -15 -48 -34q-13 -11 -95 -77l-117 -112q-34 -27 -49 -42q-52 -49 -260 -230q74 -132 179 -309q87 -144 121 -195l53 -75q13 -13 65 -46q23 -11 44 -21q44 -17 69 -32l1 -11q0 -7 -1 -19q-37 0 -114 10.5t-165 10.5q-48 0 -260 -7q-1 15 -1 22
q0 8 1 24q29 3 55 5q65 2 102 27q22 15 22 36q0 28 -28 77q-96 179 -205 347q-32 50 -43 68q-90 -65 -253 -213q-198 -180 -240 -245q-18 -27 -18 -47q0 -13 18 -26q34 -27 100 -36q22 -5 40 -9q-4 -15 -8 -32q-14 -1 -20 -1l-19 -2l-18 2l-115 7q-64 5 -82 5l-171 -10
q-46 -7 -71 -7z" />
    <glyph glyph-name="Y" unicode="Y" horiz-adv-x="1351" 
d="M147 1494l16 1q12 0 43 -3l136 -12q121 0 289 9q18 1 24 1h12q5 -17 5 -24q0 -6 -3 -16l-140 -24q-22 -7 -22 -21q0 -6 3 -15l50 -100q72 -144 122 -263q33 -77 104 -186q199 199 239 234.5t83 80.5q63 64 119 117q88 83 88 120q0 23 -21 35q-44 25 -153 26q-12 1 -34 1
l-1 11q0 8 5 24l25 1h134l105 -5q60 0 128 5q43 3 82 3v-22q0 -12 -1 -19q-12 -3 -23 -5q-17 -2 -88 -23q-36 -17 -66 -41q-24 -16 -66 -61q-18 -15 -29 -26q-61 -61 -94 -90t-129 -123l-271 -262q-5 -21 -12 -52q-13 -53 -25 -112l-27 -117l-21 -90q-10 -42 -16 -63
q-19 -70 -19 -132q0 -34 16 -48q28 -20 104 -20q31 0 51 -3t35 -4q3 -7 3 -13t-4 -18q-50 -4 -141 -4l-70 4q-31 2 -60 2q-18 0 -65 -2q-152 -6 -242 -6q-6 0 -33 1l8 30l192 31q16 5 22 12q15 17 29 72l45 160q58 255 70 328q-33 58 -157 309q-61 125 -86 165
q-61 131 -78 154q-11 18 -21 22q-3 2 -106 18q-45 3 -62 7q-2 7 -2 13z" />
    <glyph glyph-name="Z" unicode="Z" horiz-adv-x="1261" 
d="M85 153v12l18 23q212 241 451 540l451 569q23 30 70 92q18 23 36 43q-109 6 -232 6q-60 0 -198 -9q-94 -7 -134 -21q-54 -18 -85 -45.5t-77 -108.5q-6 -23 -23 -53q-21 1 -49 5q11 76 22 121l39 149q41 1 618 2l277 1q16 0 47 -1q1 -12 1 -19q0 -10 -3 -19
q-27 -40 -37 -54l-222 -269q-26 -30 -53.5 -65.5t-136.5 -169.5l-176 -222l-161 -195l-157 -189q-46 -52 -68 -80l26 -1q135 0 229 5q23 1 35 1l102 3q54 0 165 13q42 5 100 24q12 5 37 29q41 36 56 60q47 76 75 135l41 -5v-7l-4 -12q-44 -254 -54 -287h-324q-79 0 -220 -1
h-200l-199 -2q-43 0 -83 2z" />
    <glyph glyph-name="bracketleft" unicode="[" horiz-adv-x="636" 
d="M97 -325l508 1781l393 -1l-11 -39h-346l-486 -1702l343 -2l-11 -38z" />
    <glyph glyph-name="backslash" unicode="\" horiz-adv-x="1040" 
d="M113 1605h89l725 -1736h-89z" />
    <glyph glyph-name="bracketright" unicode="]" horiz-adv-x="637" 
d="M-214 -329l14 40l344 1l476 1702l-343 -1l11 43l391 2l-499 -1786z" />
    <glyph glyph-name="asciicircum" unicode="^" horiz-adv-x="1042" 
d="M595 1552l457 -548l-66 -54l-391 469l-391 -469l-65 54z" />
    <glyph glyph-name="underscore" unicode="_" horiz-adv-x="1045" 
d="M-2 369h1048v-129h-1048v129z" />
    <glyph glyph-name="grave" unicode="`" horiz-adv-x="690" 
d="M740 1114h-18q-264 178 -293.5 208.5t-29.5 60.5q0 21 14.5 34t37.5 13q26 0 55.5 -19t96.5 -108q100 -131 137 -189z" />
    <glyph glyph-name="a" unicode="a" horiz-adv-x="848" 
d="M773 889q9 18 13 27q12 32 24 40q29 4 42 4q18 0 34 -8l3 -12q0 -6 -5 -18q-3 -7 -14 -39l-7 -21l-67 -182q-44 -124 -76 -197t-55.5 -149t-42.5 -109l-4 -9q0 -8 11 -17q45 25 78 55q81 77 96 95q12 13 21 24q12 -10 23 -22q-29 -39 -96 -107.5t-121 -96.5
q-42 -21 -79 -21q-23 0 -35 10t-12 26q0 14 11 54q25 67 35 88t28 66q10 28 41 96q-19 -20 -48 -57q-81 -105 -189 -197q-24 -22 -118 -68q-35 -14 -82 -17q-39 0 -52 7q-26 13 -41 42q-11 22 -11 66q0 66 29 145q49 136 98 202q87 113 171 179t154 97q93 41 161 41
q23 0 43.5 -4.5t38.5 -12.5zM287 220q25 6 43 17q11 6 79 57q125 126 142 144q35 39 80 109q12 17 52 96l26 69q15 63 15 72q0 29 -23 54q-16 16 -51 16q-39 0 -68 -13q-65 -31 -118 -78q-70 -65 -137 -165t-94 -168q-37 -92 -37 -139q0 -37 15 -55.5t39 -18.5q8 0 37 3z
" />
    <glyph glyph-name="b" unicode="b" horiz-adv-x="847" 
d="M467 1438q-28 18 -80 18h-16l1 29q29 7 113 9q17 0 130 7q-4 -15 -63 -197l-75 -239q-10 -39 -51 -163l-111 -362l147 194q130 151 153 172q55 49 97.5 67t74.5 18q39 0 69 -36q39 -47 39 -111q0 -133 -69 -275.5t-190 -261.5q-79 -77 -230 -147q-88 -40 -141 -40
q-60 0 -94 31.5t-34 76.5q0 55 22 130l52 190l196 602q35 114 66 196q12 32 12 56q0 16 -18 36zM307 163q33 0 69 21q71 40 159 142t120 155q68 111 111 222q32 81 32 143q0 28 -19 45.5t-48 17.5t-62 -19q-66 -38 -154 -144q-142 -168 -183 -236.5t-67.5 -156.5t-26.5 -117
q0 -31 19 -52t50 -21z" />
    <glyph glyph-name="c" unicode="c" horiz-adv-x="567" 
d="M611 805q-15 12 -24 23q-4 6 -18.5 38t-21.5 40q-12 10 -26 10q-36 0 -76 -43q-76 -80 -153 -266t-77 -309q0 -45 14 -63q9 -13 30 -13q39 0 87 42q64 57 131 159q19 4 29 4l15 -1q-3 -18 -57 -96q-76 -113 -140.5 -157.5t-118.5 -44.5q-47 0 -72 34q-34 44 -34 139
q0 81 39 198t116 226.5t125.5 157t117.5 80.5q48 24 90 24q44 0 77 -37t33 -88q0 -30 -16 -46.5t-37 -16.5q-13 0 -33 6z" />
    <glyph glyph-name="d" unicode="d" horiz-adv-x="851" 
d="M757 874l110 353q8 22 21 73q2 10 3 17q22 67 22 85q0 14 -13 24q-28 22 -93 38l-21 6l8 28q173 0 231 23l12 1q12 0 26 -3q-7 -31 -10 -42l-1 -6l-85 -253l-102 -327q-28 -84 -36 -123q-13 -59 -31 -111l-145 -433l3 -6q37 6 187 173q17 -7 26 -19q-86 -128 -190 -206
q-76 -56 -114 -56q-8 0 -22 4q-7 9 -7 16q0 30 35 142t48 161q-28 -25 -80 -84q-101 -113 -213 -187q-81 -53 -146 -53q-36 0 -57 29q-32 43 -32 123q0 99 44 204q28 64 89 165.5t137.5 176.5t145.5 108t125 33q43 0 77 -21q23 -13 48 -53zM291 214q41 0 95 38
q99 69 186 183.5t122 229.5t35 135q0 34 -25 63t-47 29q-38 0 -91.5 -26t-112.5 -91q-33 -36 -102.5 -149t-103.5 -194.5t-34 -125.5t22.5 -68t55.5 -24z" />
    <glyph glyph-name="e" unicode="e" horiz-adv-x="608" 
d="M244 519q-33 -93 -33 -188q0 -69 32 -111q22 -28 59 -28q23 0 40 9q38 19 65 45.5t56.5 69t47.5 96.5h14q12 0 28 -2q-30 -114 -151 -224q-76 -69 -156 -69q-54 0 -92 49q-50 64 -50 178q0 48 15 116.5t34 115.5q30 70 69 134l78 114q76 82 86 90q35 30 71.5 46t74.5 16
q51 0 88.5 -42t37.5 -105q0 -57 -29 -111t-63 -80l-84 -55q-14 -7 -76.5 -26t-161.5 -38zM262 570q33 -2 102 26q38 13 100 55q24 17 56 56t48 81.5t16 87.5q0 30 -17.5 49t-37.5 19q-28 0 -66 -31q-63 -55 -132 -185q-53 -98 -69 -158z" />
    <glyph glyph-name="f" unicode="f" horiz-adv-x="653" 
d="M-306 -240q20 10 31 10q35 0 61 -47q11 -21 23 -34q25 -26 55 -26q42 0 106 49q52 56 98.5 160.5t82.5 224.5l99 343q10 32 18 70l68 241q27 91 42 129q-18 2 -28 2q-7 0 -32.5 -2t-119.5 -2q2 29 6 52q21 1 45 2l148 5q45 150 102 282q36 78 102 158q51 60 122 96
q34 19 87 19q64 0 104.5 -35t40.5 -73q0 -25 -17 -43t-37 -18q-27 0 -48 17.5t-29 54.5q-7 27 -19 37q-13 11 -35 11q-20 0 -36 -8q-31 -16 -70 -63q-26 -33 -56 -98.5t-65.5 -186t-38.5 -149.5l27 -2l96 2q6 0 31 -2q2 -9 2 -14q0 -15 -6 -38l-168 -6l-34 -114l-86 -308
q-8 -24 -12 -40q-18 -48 -23 -72l-76 -242q-49 -139 -99 -229.5t-123 -162.5q-53 -53 -113 -77q-39 -17 -101 -17q-85 0 -119 27t-34 65q0 35 28 52z" />
    <glyph glyph-name="g" unicode="g" horiz-adv-x="829" 
d="M194 100q-77 64 -100 92q-8 9 -8 22q0 15 11 27.5t52 30t135 78.5q-11 14 -49 54l-33 36q-12 22 -22 59.5t-10 76.5q0 61 19 117q28 85 68 143.5t82 91.5q29 22 70 36q63 23 107 23q52 0 104 -25q34 -17 78 -17q17 0 41 3t33 3q8 0 24 -1q4 -31 4 -44q0 -11 -7 -22
q-17 -2 -24 -2q-24 0 -71 13q-20 6 -35 9q28 -62 28 -138q0 -147 -101.5 -277.5t-234.5 -157.5q-72 -15 -113 -48q-17 -12 -17 -33q0 -33 53 -75q66 -33 120 -58q157 -55 236 -123q62 -52 62 -140q0 -47 -25 -85.5t-80 -72.5q-36 -21 -119.5 -40.5t-159.5 -19.5
q-138 0 -201 14q-112 24 -176.5 57.5t-102.5 83.5q-22 30 -22 60q0 45 42 79q60 47 342 170zM345 376q53 9 90 39q18 13 59 82t60 124q44 127 44 209q0 55 -27 85t-69 30q-44 0 -86 -38.5t-101 -187t-59 -231.5q0 -42 26 -74t63 -38zM-44 -224q57 -53 150 -76q17 -5 32 -10
q18 -4 62 -10q64 -4 109 -4q91 0 174.5 30t108.5 61q17 21 17 53q0 55 -65 112q-49 40 -199 98q-67 26 -110 44q-67 -22 -177 -81q-57 -31 -87.5 -59t-32.5 -34q-12 -25 -12 -50q0 -43 30 -74z" />
    <glyph glyph-name="h" unicode="h" horiz-adv-x="869" 
d="M416 1466l5 22q177 19 213 19h33l-6 -21l-27 -67l-60 -170q-15 -40 -40 -121q-47 -152 -98.5 -272.5t-95.5 -261.5l42 56q144 206 242 282q66 52 131 52q51 0 88.5 -44.5t37.5 -134.5q0 -117 -58.5 -275t-137.5 -257t-136 -128t-103 -29q-39 0 -60 22q-31 31 -31 64
q0 16 17 30t43 14q21 0 33 -8.5t37 -47.5q18 -15 29 -15q19 0 52 43q68 88 149 334q67 194 67 295q0 55 -15.5 74t-41.5 19q-15 0 -33 -9q-55 -28 -119 -95t-203 -260q-30 -42 -101 -194.5t-97 -213.5q-14 -34 -26 -43t-32 -9q-23 0 -32.5 8.5t-9.5 22.5q0 18 17 57l73 182
q6 13 11 26l289 825l42 119q16 44 16 61q0 12 -6 18.5t-23 10.5q-41 7 -75 20z" />
    <glyph glyph-name="i" unicode="i" horiz-adv-x="480" 
d="M432 1358q0 35 28 63t64 28q34 0 59 -24.5t25 -55.5q0 -41 -32 -75q-18 -19 -67 -19q-32 0 -54.5 22.5t-22.5 60.5zM393 900q-22 0 -33 -4q-48 -25 -69 -43q-47 -36 -88 -84l-59 -13q78 105 174 165.5t152 60.5q24 0 35 -12t11 -30q0 -50 -56 -166q-7 -15 -34 -74
q-61 -133 -130 -253q-23 -38 -50 -91q-14 -29 -25 -48q-32 -53 -32 -79q0 -7 6 -12.5t14 -5.5q11 0 33 12q34 20 84 67.5t87 108.5h42q-29 -55 -86.5 -126.5t-131.5 -113.5q-55 -32 -97 -32q-33 0 -48.5 13.5t-15.5 35.5q0 79 115 296l165 310q25 48 36 76q6 16 6 24
q0 4 -5 18z" />
    <glyph glyph-name="j" unicode="j" horiz-adv-x="680" 
d="M605 1338q0 32 25 56t66 24q22 0 40 -20t18 -51q0 -32 -20.5 -52.5t-57.5 -20.5q-33 0 -52 19t-19 45zM-256 -214q24 8 33 8q18 0 36.5 -17t29.5 -50t29 -43q38 0 72 10q35 14 64 39.5t74 91.5q34 50 86 162t79 182q15 39 29 73l136 330l48 115q14 31 40 86t26 95
q0 10 -6 16.5t-14 6.5q-14 0 -54 -27q-55 -39 -139 -144q-14 7 -26 20q44 65 115 134t144 104q44 21 91 21q16 -13 16 -27q0 -104 -139 -413q-15 -33 -29 -72q-42 -117 -124 -299q-119 -266 -164.5 -338t-106 -122.5t-110.5 -65.5q-73 -23 -131 -23q-50 0 -73 9
q-35 16 -56 44q-14 15 -14 39q0 34 38 55z" />
    <glyph glyph-name="k" unicode="k" horiz-adv-x="1087" 
d="M506 1440l10 26q130 0 238 32h37q-9 -25 -28 -63l-189 -412l-105 -227l-53 -115q-4 -11 -7 -25q30 19 49 35l143 135q101 86 169 117t132 31q66 0 124 -49q37 -33 37 -89q0 -92 -100 -176t-281 -84q-72 0 -167 13q19 -75 62 -151q23 -42 81 -130q30 -46 70 -80
q57 -48 96 -65.5t77 -17.5q55 0 91 30t36 61q0 12 -8 21t-16 9q-7 0 -44 -16q-13 -6 -28 -6q-27 0 -48 18q-14 12 -14 34q0 26 22 45t68 20q56 -12 78 -39q31 -38 31 -86q0 -52 -47.5 -93t-123.5 -41q-123 0 -214 54t-180 189q-50 75 -108 251q-17 -24 -48 -89
q-5 -9 -23.5 -46.5t-42.5 -88.5q-97 -210 -120 -238q-14 -19 -42 -19q-18 0 -49 9q-5 11 -5 20q0 25 71 159q14 28 45.5 101.5t63.5 143.5l156 340l61 136q65 159 129 300q8 29 8 54q0 18 -10 29.5t-46 21.5q-24 6 -38 11zM470 645q59 -15 99 -15q167 0 290 45
q91 34 126 78.5t35 82.5q0 18 -17 31t-50 13q-66 0 -136 -22q-122 -40 -206 -98t-141 -115z" />
    <glyph glyph-name="l" unicode="l" horiz-adv-x="460" 
d="M462 1471l2 29q125 8 190 8h44v-14l-31 -99q-2 -3 -74 -188l-138 -359q-38 -102 -123 -313l-33 -89q-36 -96 -58 -130q-34 -55 -34 -81l5 -17q34 4 87 46q76 60 140 154q20 4 32 4l12 -1q-39 -75 -86 -121q-72 -74 -100 -93q-61 -45 -117 -68q-35 -16 -70 -16
q-19 0 -28 9t-9 24q0 48 163 421q51 114 105 259q94 256 145 364t74 194q3 10 3 16q0 15 -15 28q-18 16 -86 33z" />
    <glyph glyph-name="m" unicode="m" horiz-adv-x="1306" 
d="M418 883l-14 5q-18 0 -58 -30q-69 -53 -121 -119q-9 -13 -20 -24q-19 2 -39 5q32 52 64 85q73 75 102 97q56 43 107 65q25 11 50 11q23 0 38 -13.5t15 -28.5q0 -35 -120 -269q-34 -67 -43 -91q55 58 144 162q61 73 167 166q40 36 92.5 55.5t85.5 19.5q28 0 48 -18
q14 -12 14 -36q0 -88 -118 -305l-47 -90l-6 -16l103 123q48 54 66 72q33 31 47 49q87 103 179 159.5t145 56.5q23 0 40.5 -18t17.5 -48q0 -20 -5 -40q-7 -33 -32 -90q-2 -6 -89 -163q-49 -91 -76 -134l-51 -82q-38 -65 -58 -84q-59 -59 -59 -96q0 -5 7 -11q5 0 39 21
q66 41 163 129l31 -7q-49 -83 -159.5 -156t-199.5 -73q-21 0 -37 17q0 13 4.5 21.5t32.5 55.5l170 274q136 221 163 282q38 89 38 104q0 12 -7 19t-17 7q-14 0 -37 -12q-59 -32 -138 -115q-155 -166 -236 -262q-130 -156 -221 -324q-22 -39 -48 -63q-23 -4 -45 -4
q-32 0 -54 6q4 19 29 60q49 79 157 277t142 269t43 104q3 11 3 23q0 18 -10 30q-6 10 -16 10q-16 0 -48 -19q-46 -24 -132 -116q-146 -156 -164 -178q-126 -162 -187 -261q-3 -6 -39.5 -67.5t-48.5 -84.5q-15 -25 -39 -47q-27 -2 -45 -2q-14 0 -27 3l-4 16q0 15 16 41
q6 9 166 320l182 355q3 7 4 22z" />
    </font>
</defs>
</svg>
