<?xml version="1.0" standalone="no"?>
<!DOCTYPE svg PUBLIC "-//W3C//DTD SVG 1.1//EN" "http://www.w3.org/Graphics/SVG/1.1/DTD/svg11.dtd" >
<svg xmlns="http://www.w3.org/2000/svg" xmlns:xlink="http://www.w3.org/1999/xlink" version="1.1">
<metadata>
Created by FontForge 20170924 at Sun Nov  6 14:57:54 2011
 By www-data
Uyghur Computer Science Association. Free distributed and all rights reserved. http://www.ukij.org
</metadata>
<defs>
<font id="UKIJPutuk" horiz-adv-x="0" >
  <font-face 
    font-family="UKIJ Putuk"
    font-weight="400"
    font-stretch="normal"
    units-per-em="2048"
    panose-1="2 2 6 3 5 3 5 2 3 4"
    ascent="1638"
    descent="-410"
    x-height="942"
    cap-height="1384"
    bbox="-913 -786 2460 1880"
    underline-thickness="81"
    underline-position="-681"
    unicode-range="U+0020-FFFC"
  />
<missing-glyph horiz-adv-x="1024" 
d="M102 1294v-1040l349 520zM164 161h696l-348 521zM573 774l349 -520v1040zM512 866l348 518h-696zM0 59v1430h1024v-1430h-1024z" />
    <glyph glyph-name="uni0675" unicode="&#x674;&#xfe8d;" horiz-adv-x="600" 
d="M223 325q0 -100 -58 -275l-22 6q13 88 13 120q0 83 -13 183l-56 427q-10 75 -10 111q0 87 73 232q2 -178 15 -279l45 -361q13 -106 13 -164zM605 958q-7 -30 -11 -40q-10 -27 -26 -31l-304 -87q10 42 32 59q19 17 79 39q-72 35 -72 86q0 23 18 48q95 130 180 130
q57 0 57 -62q0 -26 -32 -74q-56 36 -89 36q-31 0 -74 -36q88 -83 156 -83q28 0 86 15z" />
    <glyph glyph-name="uni0676" unicode="&#x674;&#xfeed;" horiz-adv-x="900" 
d="M511 217q0 -265 -130 -478t-292 -213q-102 0 -268 88l20 17q67 -26 133 -26q157 0 300 136q82 77 132 181q50 99 50 182q0 50 -22 88q-54 -75 -106 -75q-53 0 -92 40t-39 95q0 62 67 204q45 94 102 94q58 0 101.5 -100t43.5 -233zM377 324q-18 48 -59 48q-37 0 -37 -41
q0 -47 41 -47q39 0 55 40zM898 897q-7 -30 -11 -40q-10 -27 -27 -31l-303 -87q9 42 31 59q19 17 80 39q-73 35 -73 86q0 23 19 48q94 130 179 130q57 0 57 -62q0 -26 -32 -74q-56 36 -89 36q-31 0 -73 -36q88 -83 156 -83q27 0 86 15z" />
    <glyph glyph-name="uni0677" unicode="&#x674;&#xfbd7;" horiz-adv-x="900" 
d="M511 217q0 -265 -130 -478t-292 -213q-102 0 -268 88l20 17q67 -26 133 -26q157 0 300 136q82 77 132 181q50 99 50 182q0 50 -22 88q-54 -75 -106 -75q-53 0 -92 40t-39 95q0 62 67 204q45 94 102 94q58 0 101.5 -100t43.5 -233zM377 324q-18 48 -59 48q-37 0 -37 -41
q0 -47 41 -47q39 0 55 40zM294 821q36 43 36 73q0 5 -1 9q-48 13 -67 28q-30 24 -32 66v6q0 38 23 65q27 32 66 35h7q35 0 64 -24q44 -38 44 -102v-19q-8 -77 -71 -150q-30 -38 -67 -64l-42 41q22 16 40 36zM898 897q-7 -30 -11 -40q-10 -27 -27 -31l-303 -87q9 42 31 59
q19 17 80 39q-73 35 -73 86q0 23 19 48q94 130 179 130q57 0 57 -62q0 -26 -32 -74q-56 36 -89 36q-31 0 -73 -36q88 -83 156 -83q27 0 86 15z" />
    <glyph glyph-name="uni0678" unicode="&#x674;&#xfeef;" horiz-adv-x="1299" 
d="M1135 751l-32 -160q-41 41 -88 41q-88 0 -209.5 -80.5t-121.5 -172.5q0 -76 129 -99l165 -30q98 -18 98 -71q0 -87 -35 -145q-56 -90 -268.5 -177.5t-380.5 -87.5q-183 0 -288 80t-105 218q0 112 56 241q29 67 116 221l25 -19q-120 -229 -120 -338q0 -114 97.5 -183.5
t258.5 -69.5q159 0 371 78q199 74 199 113q0 31 -56 39l-154 21q-189 25 -189 148q0 106 169 286q150 160 291 160q32 0 72 -13zM1295 1045q-6 -31 -11 -41q-9 -27 -26 -31l-304 -87q10 42 32 60q19 16 80 38q-73 35 -73 86q0 23 19 48q94 130 179 130q57 0 57 -62
q0 -26 -32 -74q-56 36 -89 36q-31 0 -74 -36q88 -83 157 -83q27 0 85 16z" />
    <glyph glyph-name="uniFBEA" unicode="&#xfe8b;&#xfe8e;" horiz-adv-x="900" arabic-form="isolated" 
d="M376 50q-186 0 -205 209q-10 110 -47 427q-33 275 -33 303q0 44 79 140l71 -798q13 -148 135 -148h222q57 0 108 23q56 25 56 61q0 17 -11 35l-47 77q-16 25 -16 47q0 23 14 43l60 92q50 -109 50 -216q0 -295 -214 -295h-222zM797 782q-7 -30 -11 -40q-10 -27 -27 -31
l-303 -87q10 42 32 59q18 17 79 39q-73 35 -73 86q0 23 19 48q94 130 179 130q57 0 57 -62q0 -26 -32 -74q-56 36 -89 36q-30 0 -73 -36q88 -83 156 -83q27 0 86 15z" />
    <glyph glyph-name="uniFBEB" unicode="&#xfe8c;&#xfe8e;" horiz-adv-x="1001" arabic-form="final" 
d="M376 50q-186 0 -205 209q-10 110 -47 427q-33 275 -33 303q0 44 79 140l71 -798q13 -148 135 -148h208q98 0 211 155l13 -4q12 -86 28 -115q21 -36 70 -36h105v-133h-164q-24 0 -57 43t-36 83q-66 -126 -170 -126h-208zM879 694q-6 -31 -11 -41q-10 -26 -26 -31l-304 -87
q10 42 32 60q19 16 79 38q-72 35 -72 86q0 23 19 48q94 130 179 130q57 0 57 -61q0 -27 -32 -75q-56 36 -89 36q-31 0 -74 -36q88 -83 157 -83q27 0 85 16z" />
    <glyph glyph-name="uniFBEC" unicode="&#xfe8b;&#xfeea;" horiz-adv-x="1099" arabic-form="isolated" 
d="M397 359l-27 155q-132 -45 -194 -153q54 -23 146 -23q37 0 75 21zM543 50q-100 0 -137 241l-66 -62q-50 -39 -99 -39q-68 0 -121.5 21t-53.5 48q0 17 50 122q51 109 236 202v19q0 69 45 155l67 -406q28 -168 79 -168h258q57 0 108 23q56 25 56 61q0 17 -11 35l-47 77
q-16 25 -16 47q0 23 14 43l60 92q50 -109 50 -216q0 -295 -214 -295h-258zM1001 782q-7 -30 -11 -40q-10 -27 -27 -31l-303 -87q10 42 32 59q18 17 79 39q-73 35 -73 86q0 23 19 48q95 130 179 130q57 0 57 -62q0 -26 -31 -74q-57 36 -90 36q-30 0 -73 -36q88 -83 156 -83
q27 0 86 15z" />
    <glyph glyph-name="uniFBED" unicode="&#xfe8c;&#xfeea;" horiz-adv-x="1200" arabic-form="final" 
d="M427 359l-27 155q-132 -45 -194 -153q54 -23 146 -23q37 0 75 21zM573 50q-100 0 -137 241l-66 -62q-50 -39 -99 -39q-68 0 -121.5 21t-53.5 48q0 17 50 122q51 109 236 202v19q0 69 45 155l67 -406q28 -168 79 -168h223q98 0 211 155l13 -4q12 -86 28 -115
q20 -36 70 -36h95v-133h-154q-25 0 -58 43t-35 83q-66 -126 -170 -126h-223zM1103 693q-6 -31 -11 -41q-10 -26 -26 -31l-304 -87q10 42 32 60q19 16 79 38q-72 35 -72 86q0 23 18 48q95 130 180 130q57 0 57 -61q0 -27 -32 -75q-56 36 -89 36q-31 0 -74 -36q88 -83 156 -83
q28 0 86 16z" />
    <glyph glyph-name="uniFBEE" unicode="&#xfe8b;&#xfeee;" horiz-adv-x="1001" arabic-form="isolated" 
d="M433 183q-34 121 -108 121q-15 0 -32.5 -15t-17.5 -37q0 -28 42 -47q44 -22 116 -22zM487 50q-54 -212 -124 -322q-129 -202 -302 -202q-93 0 -257 92l19 20q77 -31 131 -31q165 0 308.5 131t178.5 312h-35q-95 0 -155.5 31.5t-60.5 82.5q0 61 85 202q46 75 88 75
q48 0 86.5 -76t42.5 -182h229q58 0 108 23q56 25 56 61q0 17 -11 35l-47 77q-15 25 -15 47q0 23 13 43l60 92q50 -109 50 -216q0 -295 -214 -295h-234zM937 802q-7 -30 -11 -40q-10 -27 -26 -31l-304 -87q10 42 32 59q19 17 79 39q-73 35 -73 86q0 23 19 48q95 130 179 130
q58 0 58 -62q0 -26 -32 -74q-56 36 -89 36q-31 0 -74 -36q88 -83 156 -83q28 0 86 15z" />
    <glyph glyph-name="uniFBEF" unicode="&#xfe8c;&#xfeee;" horiz-adv-x="1099" arabic-form="final" 
d="M434 183q-34 121 -108 121q-15 0 -32.5 -15t-17.5 -37q0 -28 42 -47q44 -22 116 -22zM488 50q-54 -212 -124 -322q-129 -202 -302 -202q-93 0 -257 92l19 20q77 -31 131 -31q165 0 308.5 131t178.5 312h-35q-95 0 -155.5 31.5t-60.5 82.5q0 61 85 202q46 75 88 75
q48 0 86.5 -76t42.5 -182h229q98 0 212 155l13 -4q12 -86 27 -115q21 -36 71 -36h94v-133h-154q-24 0 -57 43t-35 83q-66 -126 -171 -126h-234zM1077 797q-7 -31 -11 -41q-10 -26 -26 -31l-304 -87q10 42 32 60q19 16 79 38q-73 35 -73 86q0 23 19 48q95 130 179 130
q58 0 58 -61q0 -27 -32 -75q-56 36 -89 36q-31 0 -74 -36q88 -83 156 -83q28 0 86 16z" />
    <glyph glyph-name="uniFBF0" unicode="&#xfe8b;&#xfbd8;" horiz-adv-x="1001" arabic-form="isolated" 
d="M434 183q-34 121 -108 121q-15 0 -32.5 -15t-17.5 -37q0 -28 42 -47q44 -22 116 -22zM488 50q-54 -212 -124 -322q-129 -202 -302 -202q-93 0 -257 92l19 20q77 -31 131 -31q165 0 308.5 131t178.5 312h-35q-95 0 -155.5 31.5t-60.5 82.5q0 61 85 202q46 75 88 75
q48 0 86.5 -76t42.5 -182h229q58 0 108 23q56 25 56 61q0 17 -11 35l-47 77q-15 25 -15 47q0 23 13 43l60 92q50 -109 50 -216q0 -295 -214 -295h-234zM306 722q36 44 36 74q0 4 -1 8q-49 13 -67 28q-30 24 -32 66v6q0 38 23 65q26 32 66 35h6q36 0 64 -24q45 -38 45 -102
v-19q-8 -77 -71 -150q-31 -38 -67 -64l-42 41q22 16 40 36zM937 802q-7 -30 -11 -40q-10 -27 -26 -31l-304 -87q10 42 32 59q19 17 79 39q-73 35 -73 86q0 23 19 48q95 130 179 130q58 0 58 -62q0 -26 -32 -74q-56 36 -89 36q-31 0 -74 -36q88 -83 156 -83q28 0 86 15z" />
    <glyph glyph-name="uniFBF1" unicode="&#xfe8c;&#xfbd8;" horiz-adv-x="1099" arabic-form="final" 
d="M431 183q-34 121 -108 121q-15 0 -32.5 -15t-17.5 -37q0 -28 42 -47q44 -22 116 -22zM485 50q-54 -212 -124 -322q-129 -202 -302 -202q-93 0 -257 92l19 20q77 -31 131 -31q165 0 308.5 131t178.5 312h-35q-95 0 -155.5 31.5t-60.5 82.5q0 61 85 202q46 75 88 75
q48 0 86.5 -76t42.5 -182h229q98 0 212 155l13 -4q12 -86 27 -115q21 -36 71 -36h94v-133h-154q-24 0 -57 43t-35 83q-66 -126 -171 -126h-234zM1077 797q-7 -31 -11 -41q-10 -26 -26 -31l-304 -87q10 42 32 60q19 16 79 38q-73 35 -73 86q0 23 19 48q95 130 179 130
q58 0 58 -61q0 -27 -32 -75q-56 36 -89 36q-31 0 -74 -36q88 -83 156 -83q28 0 86 16zM303 722q36 44 36 74q0 4 -1 8q-49 13 -67 28q-30 24 -32 66v6q0 38 23 65q26 32 66 35h6q36 0 64 -24q45 -38 45 -102v-19q-8 -77 -71 -150q-31 -38 -67 -64l-42 41q22 16 40 36z" />
    <glyph glyph-name="uniFBF2" unicode="&#xfe8b;&#xfbda;" horiz-adv-x="1001" arabic-form="isolated" 
d="M431 183q-34 121 -108 121q-15 0 -32.5 -15t-17.5 -37q0 -28 42 -47q44 -22 116 -22zM485 50q-54 -212 -124 -322q-129 -202 -302 -202q-93 0 -257 92l19 20q77 -31 131 -31q165 0 308.5 131t178.5 312h-35q-95 0 -155.5 31.5t-60.5 82.5q0 61 85 202q46 75 88 75
q48 0 86.5 -76t42.5 -182h229q58 0 108 23q56 25 56 61q0 17 -11 35l-47 77q-15 25 -15 47q0 23 13 43l60 92q50 -109 50 -216q0 -295 -214 -295h-234zM492 968l-136 -324l-47 -7l-190 287l20 62l178 -204l138 241zM937 802q-7 -30 -11 -40q-10 -27 -26 -31l-304 -87
q10 42 32 59q19 17 79 39q-73 35 -73 86q0 23 19 48q95 130 179 130q58 0 58 -62q0 -26 -32 -74q-56 36 -89 36q-31 0 -74 -36q88 -83 156 -83q28 0 86 15z" />
    <glyph glyph-name="uniFBF3" unicode="&#xfe8c;&#xfbda;" horiz-adv-x="1099" arabic-form="final" 
d="M431 183q-34 121 -108 121q-15 0 -32.5 -15t-17.5 -37q0 -28 42 -47q44 -22 116 -22zM485 50q-54 -212 -124 -322q-129 -202 -302 -202q-93 0 -257 92l19 20q77 -31 131 -31q165 0 308.5 131t178.5 312h-35q-95 0 -155.5 31.5t-60.5 82.5q0 61 85 202q46 75 88 75
q48 0 86.5 -76t42.5 -182h229q98 0 212 155l13 -4q12 -86 27 -115q21 -36 71 -36h94v-133h-154q-24 0 -57 43t-35 83q-66 -126 -171 -126h-234zM492 968l-136 -324l-47 -7l-190 287l20 62l178 -204l138 241zM1077 797q-7 -31 -11 -41q-10 -26 -26 -31l-304 -87q10 42 32 60
q19 16 79 38q-73 35 -73 86q0 23 19 48q95 130 179 130q58 0 58 -61q0 -27 -32 -75q-56 36 -89 36q-31 0 -74 -36q88 -83 156 -83q28 0 86 16z" />
    <glyph glyph-name="uniFBF4" unicode="&#xfe8b;&#xfbdc;" horiz-adv-x="1001" arabic-form="isolated" 
d="M434 183q-34 121 -108 121q-15 0 -32.5 -15t-17.5 -37q0 -28 42 -47q44 -22 116 -22zM488 50q-54 -212 -124 -322q-129 -202 -302 -202q-93 0 -257 92l19 20q77 -31 131 -31q165 0 308.5 131t178.5 312h-35q-95 0 -155.5 31.5t-60.5 82.5q0 61 85 202q46 75 88 75
q48 0 86.5 -76t42.5 -182h229q58 0 108 23q56 25 56 61q0 17 -11 35l-47 77q-15 25 -15 47q0 23 13 43l60 92q50 -109 50 -216q0 -295 -214 -295h-234zM398 719q0 -65 -56 -154l-8 4q2 45 2 65q0 146 -34 356q23 44 55 103q41 -218 41 -374zM937 802q-7 -30 -11 -40
q-10 -27 -26 -31l-304 -87q10 42 32 59q19 17 79 39q-73 35 -73 86q0 23 19 48q95 130 179 130q58 0 58 -62q0 -26 -32 -74q-56 36 -89 36q-31 0 -74 -36q88 -83 156 -83q28 0 86 15z" />
    <glyph glyph-name="uniFBF5" unicode="&#xfe8c;&#xfbdc;" horiz-adv-x="1099" arabic-form="final" 
d="M426 183q-34 121 -108 121q-15 0 -32.5 -15t-17.5 -37q0 -28 42 -47q44 -22 116 -22zM480 50q-54 -212 -124 -322q-129 -202 -302 -202q-93 0 -257 92l19 20q77 -31 131 -31q165 0 308.5 131t178.5 312h-35q-95 0 -155.5 31.5t-60.5 82.5q0 61 85 202q46 75 88 75
q48 0 86.5 -76t42.5 -182h229q98 0 212 155l13 -4q12 -86 27 -115q21 -36 71 -36h94v-133h-154q-24 0 -57 43t-35 83q-66 -126 -171 -126h-234zM390 719q0 -65 -56 -154l-8 4q2 45 2 65q0 146 -34 356q23 44 55 103q41 -218 41 -374zM1077 797q-7 -31 -11 -41
q-10 -26 -26 -31l-304 -87q10 42 32 60q19 16 79 38q-73 35 -73 86q0 23 19 48q95 130 179 130q58 0 58 -61q0 -27 -32 -75q-56 36 -89 36q-31 0 -74 -36q88 -83 156 -83q28 0 86 16z" />
    <glyph glyph-name="uniFBF6" unicode="&#xfe8b;&#xfbe5;" horiz-adv-x="1400" arabic-form="isolated" 
d="M527 -567l108 -42l-74 -68l91 -37l-77 -68l-100 41l73 68l-94 40zM1299 782q-7 -30 -11 -40q-10 -27 -27 -31l-303 -87q10 42 32 59q18 17 79 39q-73 35 -73 86q0 23 19 48q95 130 179 130q57 0 57 -62q0 -26 -31 -74q-57 36 -90 36q-30 0 -73 -36q88 -83 156 -83
q27 0 86 15zM931 50q-98 0 -157 -29.5t-59 -73.5q0 -32 67 -45l92 -19q136 -27 136 -144q0 -130 -215 -224q-194 -86 -405 -86q-173 0 -270 85.5t-97 238.5q0 156 118 372l20 -17q-82 -172 -82 -267q0 -121 90.5 -191.5t245.5 -70.5q147 0 343 57q200 57 200 103
q0 49 -88 57l-155 13q-101 9 -101 72q0 104 100 201q103 101 231 101h158q57 0 108 23q56 25 56 61q0 17 -11 35l-47 77q-16 25 -16 47q0 23 14 43l60 92q50 -109 50 -216q0 -295 -214 -295h-172z" />
    <glyph glyph-name="uniFBF7" unicode="&#xfe8c;&#xfbe5;" horiz-adv-x="1501" arabic-form="final" 
d="M1403 587q-6 -31 -11 -41q-10 -26 -26 -31l-304 -87q10 42 32 60q19 16 79 38q-72 35 -72 86q0 23 18 48q95 130 180 130q57 0 57 -61q0 -27 -32 -75q-56 36 -89 36q-31 0 -74 -36q88 -83 156 -83q28 0 86 16zM1063 51v-1h-151q-98 0 -157 -29.5t-59 -73.5q0 -32 67 -45
l92 -19q136 -27 136 -144q0 -130 -215 -224q-194 -86 -405 -86q-173 0 -270 85.5t-97 238.5q0 156 118 372l20 -17q-82 -172 -82 -267q0 -121 90.5 -191.5t245.5 -70.5q147 0 343 57q200 57 200 103q0 49 -88 57l-155 13q-101 9 -101 72q0 104 100 201q103 101 231 101h120
q98 0 211 155l13 -4q12 -86 28 -115q21 -36 70 -36h155v-133h-214q-25 0 -58 43t-35 83q-60 -115 -153 -125zM508 -567l108 -42l-74 -68l91 -37l-77 -68l-100 41l73 68l-94 40z" />
    <glyph glyph-name="uniFBF8" unicode="&#xfe8b;&#xfbe7;" horiz-adv-x="900" arabic-form="initial" 
d="M224 -92l119 -72l-81 -115l102 -63l-86 -115l-111 69l82 116l-104 67zM797 784q-7 -31 -11 -41q-10 -27 -27 -31l-303 -87q10 42 32 60q18 16 79 38q-73 35 -73 86q0 23 19 48q95 130 179 130q58 0 58 -62q0 -26 -32 -74q-56 36 -89 36q-31 0 -74 -36q88 -83 156 -83
q28 0 86 16zM494 51v-1h-154q-24 0 -57 43t-35 83q-66 -126 -171 -126h-77v133h77q98 0 211 155l13 -4q13 -86 28 -115q21 -36 70 -36h88v1h77q58 0 108 23q56 25 56 61q0 17 -11 35l-47 77q-15 25 -15 47q0 23 13 43l60 92q50 -108 50 -216q0 -295 -214 -295h-70z" />
    <glyph glyph-name="uniFBF9" unicode="&#xfe8b;&#xfef0;" horiz-adv-x="1400" arabic-form="isolated" 
d="M1300 782q-7 -30 -11 -40q-10 -27 -27 -31l-303 -87q10 42 32 59q18 17 79 39q-73 35 -73 86q0 23 19 48q95 130 179 130q57 0 57 -62q0 -26 -31 -74q-57 36 -90 36q-30 0 -73 -36q88 -83 156 -83q27 0 86 15zM918 50q-98 0 -157 -29.5t-59 -73.5q0 -32 67 -45l92 -19
q136 -27 136 -144q0 -130 -215 -224q-194 -86 -405 -86q-173 0 -270 85.5t-97 238.5q0 156 118 372l20 -17q-82 -172 -82 -267q0 -121 90.5 -191.5t245.5 -70.5q147 0 343 57q200 57 200 103q0 49 -88 57l-155 13q-101 9 -101 72q0 104 100 201q103 101 231 101h158
q57 0 108 23q56 25 56 61q0 17 -11 35l-47 77q-16 25 -16 47q0 23 14 43l60 92q50 -109 50 -216q0 -295 -214 -295h-172z" />
    <glyph glyph-name="uniFBFA" unicode="&#xfe8c;&#xfef0;" horiz-adv-x="1501" arabic-form="final" 
d="M1399 587q-6 -31 -11 -41q-10 -26 -26 -31l-304 -87q10 42 32 60q19 16 79 38q-72 35 -72 86q0 23 18 48q95 130 180 130q57 0 57 -61q0 -27 -32 -75q-56 36 -89 36q-31 0 -74 -36q88 -83 156 -83q28 0 86 16zM1059 51v-1h-151q-98 0 -157 -29.5t-59 -73.5q0 -32 67 -45
l92 -19q136 -27 136 -144q0 -130 -215 -224q-194 -86 -405 -86q-173 0 -270 85.5t-97 238.5q0 156 118 372l20 -17q-82 -172 -82 -267q0 -121 90.5 -191.5t245.5 -70.5q147 0 343 57q200 57 200 103q0 49 -88 57l-155 13q-101 9 -101 72q0 104 100 201q103 101 231 101h120
q98 0 211 155l13 -4q12 -86 28 -115q21 -36 70 -36h155v-133h-214q-25 0 -58 43t-35 83q-60 -115 -153 -125z" />
    <glyph glyph-name="uniFBFB" unicode="&#xfe8b;&#xfbe9;" horiz-adv-x="900" arabic-form="initial" 
d="M780 784q-7 -31 -11 -41q-10 -27 -27 -31l-303 -87q10 42 32 60q18 16 79 38q-73 35 -73 86q0 23 19 48q95 130 179 130q58 0 58 -62q0 -26 -32 -74q-56 36 -89 36q-31 0 -74 -36q88 -83 156 -83q28 0 86 16zM494 51v-1h-154q-24 0 -57 43t-35 83q-66 -126 -171 -126h-77
v133h77q98 0 211 155l13 -4q13 -86 28 -115q21 -36 70 -36h88v1h77q58 0 108 23q56 25 56 61q0 17 -11 35l-47 77q-15 25 -15 47q0 23 13 43l60 92q50 -108 50 -216q0 -295 -214 -295h-70z" />
    <glyph glyph-name="uniFC08" unicode="&#xfe91;&#xfee2;" horiz-adv-x="900" arabic-form="isolated" 
d="M816 604q0 -45 -66 -135q-64 75 -151 75q-178 0 -297 -136l103 -47q154 -71 154 -131q0 -25 -31 -81q-22 -41 -47 -41q-10 0 -75 17q-27 6 -84 6q-112 0 -189.5 -32t-77.5 -79q0 -105 65 -342q49 -180 49 -303q0 -49 -29 -99l-115 567q-13 66 -13 138q0 57 35 123
q39 73 136 113l-57 54q22 100 183 243q83 74 191 125q119 58 208 58q108 0 108 -93zM778 96l-71 -115l-112 74l68 125z" />
    <glyph glyph-name="uniFC09" unicode="&#xfe91;&#xfef0;" horiz-adv-x="1099" arabic-form="isolated" 
d="M1019 34q0 -141 -169 -259q-251 -176 -505 -176q-154 0 -249 88.5t-95 231.5q0 146 121 385l25 -7q-88 -182 -88 -288q0 -111 90 -185.5t224 -74.5q198 0 437 119q150 74 150 115q0 31 -150 59l-183 33q11 61 22 69q4 4 59 21q76 25 76 141q0 129 -69 241l104 153
q61 -124 61 -318q0 -150 -74 -231q60 -13 118 -26q95 -32 95 -91zM946 -452l-75 -120l-108 81l71 118z" />
    <glyph glyph-name="uniFC0A" unicode="&#xfe91;&#xfef2;" horiz-adv-x="1099" arabic-form="isolated" 
d="M1019 34q0 -141 -169 -259q-251 -176 -505 -176q-154 0 -249 88.5t-95 231.5q0 146 121 385l25 -7q-88 -182 -88 -288q0 -111 90 -185.5t224 -74.5q198 0 437 119q150 74 150 115q0 31 -150 59l-183 33q11 61 22 69q4 4 59 21q76 25 76 141q0 129 -69 241l104 153
q61 -124 61 -318q0 -150 -74 -231q60 -13 118 -26q95 -32 95 -91zM946 -452l-75 -120l-108 81l71 118zM576 -540l-72 -129l-118 76l-60 -110l-119 68l67 128l115 -74l67 114z" />
    <glyph glyph-name="uniFC0E" unicode="&#xfe97;&#xfee2;" horiz-adv-x="900" arabic-form="isolated" 
d="M806 604q0 -45 -66 -135q-64 75 -151 75q-178 0 -297 -136l103 -47q154 -71 154 -131q0 -25 -31 -81q-22 -41 -47 -41l-75 17q-31 6 -84 6q-112 0 -189.5 -32t-77.5 -79q0 -105 65 -342q49 -180 49 -303q0 -49 -29 -99l-115 567q-13 66 -13 138q0 57 35 123
q39 73 136 113l-57 54q22 100 183 243q83 74 191 125q119 58 208 58q108 0 108 -93zM819 1011l-73 -117l-116 81l-63 -101l-119 79l72 117l117 -81l66 104z" />
    <glyph glyph-name="uniFC10" unicode="&#xfe97;&#xfef2;" horiz-adv-x="1099" arabic-form="isolated" 
d="M1019 34q0 -141 -169 -259q-251 -176 -505 -176q-154 0 -249 88.5t-95 231.5q0 146 121 385l25 -7q-88 -182 -88 -288q0 -111 90 -185.5t224 -74.5q198 0 437 119q150 74 150 115q0 31 -150 59l-183 33q11 61 22 69q4 4 59 21q76 25 76 141q0 129 -69 241l104 153
q61 -124 61 -318q0 -150 -74 -231q60 -13 118 -26q95 -32 95 -91zM576 -540l-72 -129l-118 76l-60 -110l-119 68l67 128l115 -74l67 114zM777 863l-73 -129l-118 76l-60 -110l-119 68l67 128l116 -74l67 114z" />
    <glyph glyph-name="uniFC12" unicode="&#xfe9b;&#xfee2;" horiz-adv-x="900" arabic-form="isolated" 
d="M806 604q0 -45 -66 -135q-64 75 -151 75q-178 0 -297 -136l103 -47q154 -71 154 -131q0 -25 -31 -81q-22 -41 -47 -41l-75 17q-31 6 -84 6q-112 0 -189.5 -32t-77.5 -79q0 -105 65 -342q49 -180 49 -303q0 -49 -29 -99l-115 567q-13 66 -13 138q0 57 35 123
q39 73 136 113l-57 54q22 100 183 243q83 74 191 125q119 58 208 58q108 0 108 -93zM677 1217l-68 -122l-112 70l67 126zM822 1021l-69 -120l-116 73l-61 -109l-120 81l69 122l121 -74l60 101z" />
    <glyph glyph-name="uniFC1F" unicode="&#xfe97;&#xfef0;" horiz-adv-x="1099" arabic-form="isolated" 
d="M1019 34q0 -141 -169 -259q-251 -176 -505 -176q-154 0 -249 88.5t-95 231.5q0 146 121 385l25 -7q-88 -182 -88 -288q0 -111 90 -185.5t224 -74.5q198 0 437 119q150 74 150 115q0 31 -150 59l-183 33q11 61 22 69q4 4 59 21q76 25 76 141q0 129 -69 241l104 153
q61 -124 61 -318q0 -150 -74 -231q60 -13 118 -26q95 -32 95 -91zM777 863l-73 -129l-118 76l-60 -110l-119 68l67 128l116 -74l67 114z" />
    <glyph glyph-name="uniFC31" unicode="&#xfed3;&#xfef0;" horiz-adv-x="1099" arabic-form="isolated" 
d="M1001 117q0 -70 -48 -123q-106 -119 -277.5 -196t-322.5 -77q-153 0 -246 74t-93 195q0 186 142 425l21 -13q-100 -205 -100 -298q0 -104 93 -172.5t235 -68.5q157 0 356 83q190 80 190 131q0 59 -276 102q5 58 27.5 82.5t87.5 42.5q155 43 155 152q0 62 -45 112
q-47 -77 -76 -102t-75 -25q-44 0 -72.5 34.5t-28.5 85.5q0 107 67 217q49 80 104 80q43 0 93 -88q80 -179 80 -314q0 -89 -95 -206q104 -45 104 -133zM817 649q-31 43 -59 43q-41 0 -41 -47q0 -30 34 -30q37 0 66 34zM673 980l-72 -114l-108 69l68 122z" />
    <glyph glyph-name="uniFC32" unicode="&#xfed3;&#xfef2;" horiz-adv-x="1099" arabic-form="isolated" 
d="M1001 117q0 -70 -48 -123q-106 -119 -277.5 -196t-322.5 -77q-153 0 -246 74t-93 195q0 186 142 425l21 -13q-100 -205 -100 -298q0 -104 93 -172.5t235 -68.5q157 0 356 83q190 80 190 131q0 59 -276 102q5 58 27.5 82.5t87.5 42.5q155 43 155 152q0 62 -45 112
q-47 -77 -76 -102t-75 -25q-44 0 -72.5 34.5t-28.5 85.5q0 107 67 217q49 80 104 80q43 0 93 -88q80 -179 80 -314q0 -89 -95 -206q104 -45 104 -133zM817 649q-31 43 -59 43q-41 0 -41 -47q0 -30 34 -30q37 0 66 34zM673 980l-72 -114l-108 69l68 122zM770 -395l-73 -129
l-118 76l-60 -110l-119 68l67 128l116 -74l67 114z" />
    <glyph glyph-name="uniFC35" unicode="&#xfed7;&#xfef0;" horiz-adv-x="1099" arabic-form="isolated" 
d="M1011 117q0 -70 -48 -123q-106 -119 -277.5 -196t-322.5 -77q-153 0 -246 74t-93 195q0 186 142 425l21 -13q-100 -205 -100 -298q0 -104 93 -172.5t235 -68.5q157 0 356 83q190 80 190 131q0 59 -276 102q5 58 27.5 82.5t87.5 42.5q155 43 155 152q0 62 -45 112
q-47 -77 -76 -102t-75 -25q-44 0 -72.5 34.5t-28.5 85.5q0 107 67 217q49 80 104 80q43 0 93 -88q80 -179 80 -314q0 -89 -95 -206q104 -45 104 -133zM827 649q-31 43 -59 43q-41 0 -41 -47q0 -30 34 -30q37 0 66 34zM913 1092l-73 -129l-117 76l-61 -110l-119 68l67 128
l116 -74l67 114z" />
    <glyph glyph-name="uniFC3F" unicode="&#xfedf;&#xfe9e;" horiz-adv-x="1001" arabic-form="isolated" 
d="M1093 -646l-385 -129q-39 -4 -93 -4q-286 0 -447 126t-161 352q0 400 419 641q-97 32 -182 32q-68 0 -165 -21l20 109q101 67 239 67q71 0 95 22t24 89q0 104 -33.5 292.5t-33.5 200.5q0 44 56 140l88 -135q-54 -69 -54 -121q0 -13 17 -138.5t17 -245.5q0 -67 -36 -142
q185 -27 292 -27q25 0 70 3q55 3 98 4l-52 -108q-267 -37 -388 -81q-202 -73 -313 -200t-111 -286q0 -202 175.5 -317.5t484.5 -115.5q157 0 354 20zM679 -114l-75 -117l-110 81l74 116z" />
    <glyph glyph-name="uniFC40" unicode="&#xfedf;&#xfea2;" horiz-adv-x="1001" arabic-form="isolated" 
d="M1093 -646l-385 -129q-39 -4 -93 -4q-286 0 -447 126t-161 352q0 400 419 641q-97 32 -182 32q-68 0 -165 -21l20 109q101 67 239 67q71 0 95 22t24 89q0 104 -33.5 292.5t-33.5 200.5q0 44 56 140l88 -135q-54 -69 -54 -121q0 -13 17 -138.5t17 -245.5q0 -67 -36 -142
q185 -27 292 -27q25 0 70 3q55 3 98 4l-52 -108q-267 -37 -388 -81q-202 -73 -313 -200t-111 -286q0 -202 175.5 -317.5t484.5 -115.5q157 0 354 20z" />
    <glyph glyph-name="uniFC41" unicode="&#xfedf;&#xfea6;" horiz-adv-x="1001" arabic-form="isolated" 
d="M1093 -646l-385 -129q-39 -4 -93 -4q-286 0 -447 126t-161 352q0 400 419 641q-97 32 -182 32q-68 0 -165 -21l20 109q101 67 239 67q71 0 95 22t24 89q0 104 -33.5 292.5t-33.5 200.5q0 44 56 140l88 -135q-54 -69 -54 -121q0 -13 17 -138.5t17 -245.5q0 -67 -36 -142
q185 -27 292 -27q25 0 70 3q55 3 98 4l-52 -108q-267 -37 -388 -81q-202 -73 -313 -200t-111 -286q0 -202 175.5 -317.5t484.5 -115.5q157 0 354 20zM314 824l-75 -117l-110 81l74 115z" />
    <glyph glyph-name="uniFC42" unicode="&#xfedf;&#xfee2;" horiz-adv-x="701" arabic-form="isolated" 
d="M610 228q0 -14 -34 -86q-24 -47 -94 -47h-82q-147 0 -241 -32q-44 -14 -57 -34t-13 -67q0 -18 7 -60l88 -561q0 -6 1 -16.5t1 -15.5q0 -38 -34 -88l-101 565q-9 50 -9 97q0 85 20 165q30 118 171 198q-42 18 -42 45q0 90 107 135q116 48 116 162q0 126 -66 460
q-13 67 -13 101q0 60 65 137q26 -61 82 -123q-62 -92 -62 -163q0 -33 21.5 -155.5t21.5 -173.5q0 -123 -57 -286q96 -51 131 -73q73 -45 73 -84z" />
    <glyph glyph-name="uniFC43" unicode="&#xfedf;&#xfef0;" horiz-adv-x="1099" arabic-form="isolated" 
d="M1029 34q0 -141 -169 -259q-251 -176 -505 -176q-154 0 -249 88.5t-95 231.5q0 146 121 385l25 -7q-88 -182 -88 -288q0 -111 90 -185.5t224 -74.5q198 0 437 119q150 74 150 115q0 31 -150 59l-183 33q11 61 21 68.5t60 21.5q76 21 76 102q0 110 -72 459.5t-72 384.5
q0 54 54 147l81 -147q-53 -57 -53 -104q0 -19 53.5 -283.5t53.5 -389.5q0 -115 -26 -183q115 -24 123 -26q93 -32 93 -91z" />
    <glyph glyph-name="uniFC44" unicode="&#xfedf;&#xfef2;" horiz-adv-x="1099" arabic-form="isolated" 
d="M1029 34q0 -141 -169 -259q-251 -176 -505 -176q-154 0 -249 88.5t-95 231.5q0 146 121 385l25 -7q-88 -182 -88 -288q0 -111 90 -185.5t224 -74.5q198 0 437 119q150 74 150 115q0 34 -138 60q-97 17 -195 32q0 71 41 77q116 20 116 115q0 83 -72 459.5t-72 384.5
q0 54 54 147l81 -147q-53 -45 -53 -104q107 -553 107 -695q0 -64 -26 -161l128 -26q88 -29 88 -91zM735 -544l-74 -122l-115 82l-63 -102l-116 77l69 119l116 -80l66 103z" />
    <glyph glyph-name="uniFC4E" unicode="&#xfee7;&#xfee2;" horiz-adv-x="900" arabic-form="isolated" 
d="M816 604q0 -45 -66 -135q-64 75 -151 75q-178 0 -297 -136l103 -47q154 -71 154 -131q0 -25 -31 -81q-22 -41 -47 -41q-10 0 -75 17q-27 6 -84 6q-112 0 -189.5 -32t-77.5 -79q0 -105 65 -342q49 -180 49 -303q0 -49 -29 -99l-115 567q-13 66 -13 138q0 57 35 123
q39 73 136 113l-57 54q22 100 183 243q83 74 191 125q119 58 208 58q108 0 108 -93zM762 973l-75 -118l-110 81l74 116z" />
    <glyph glyph-name="uniFC4F" unicode="&#xfee7;&#xfef0;" horiz-adv-x="1099" arabic-form="isolated" 
d="M1029 34q0 -141 -169 -259q-251 -176 -505 -176q-154 0 -249 88.5t-95 231.5q0 146 121 385l25 -7q-88 -182 -88 -288q0 -111 90 -185.5t224 -74.5q198 0 437 119q150 74 150 115q0 31 -150 59l-183 33q11 61 22 69q4 4 59 21q76 25 76 141q0 129 -69 241l104 153
q61 -124 61 -318q0 -150 -74 -231q60 -13 118 -26q95 -32 95 -91zM620 704l-71 -117l-109 74l68 115z" />
    <glyph glyph-name="uniFC50" unicode="&#xfee7;&#xfef2;" horiz-adv-x="1099" arabic-form="isolated" 
d="M1019 34q0 -141 -169 -259q-251 -176 -505 -176q-154 0 -249 88.5t-95 231.5q0 146 121 385l25 -7q-88 -182 -88 -288q0 -111 90 -185.5t224 -74.5q198 0 437 119q150 74 150 115q0 31 -150 59l-183 33q11 61 22 69q4 4 59 21q76 25 76 141q0 129 -69 241l104 153
q61 -124 61 -318q0 -150 -74 -231q60 -13 118 -26q95 -32 95 -91zM610 704l-71 -117l-109 74l68 115zM576 -540l-72 -129l-118 76l-60 -110l-119 68l67 128l115 -74l67 114z" />
    <glyph glyph-name="uniFC58" unicode="&#xfef3;&#xfee2;" horiz-adv-x="1001" arabic-form="isolated" 
d="M816 604q0 -45 -66 -135q-64 75 -151 75q-178 0 -297 -136l103 -47q154 -71 154 -131q0 -25 -31 -81q-22 -41 -47 -41q-10 0 -75 17q-27 6 -84 6q-112 0 -189.5 -32t-77.5 -79q0 -105 65 -342q49 -180 49 -303q0 -49 -29 -99l-115 567q-13 66 -13 138q0 57 35 123
q39 73 136 113l-57 54q22 100 183 243q83 74 191 125q119 58 208 58q108 0 108 -93zM964 118l-74 -118l-116 82l-62 -101l-120 79l72 116l117 -80l66 103z" />
    <glyph glyph-name="uniFC59" unicode="&#xfef3;&#xfef0;" horiz-adv-x="1099" arabic-form="isolated" 
d="M1019 34q0 -141 -169 -259q-251 -176 -505 -176q-154 0 -249 88.5t-95 231.5q0 146 121 385l25 -7q-88 -182 -88 -288q0 -111 90 -185.5t224 -74.5q198 0 437 119q150 74 150 115q0 31 -150 59l-183 33q11 61 22 69q4 4 59 21q76 25 76 141q0 129 -69 241l104 153
q61 -124 61 -318q0 -150 -74 -231q60 -13 118 -26q95 -32 95 -91zM1061 -427l-71 -120l-122 79l-61 -111l-117 86l70 120l114 -75l66 101z" />
    <glyph glyph-name="uniFC6A" unicode="&#xfe92;&#xfeae;" horiz-adv-x="900" arabic-form="final" 
d="M915 50h-154q-154 0 -169 311q-98 -120 -210 -137q8 -66 8 -107q0 -223 -111.5 -371.5t-279.5 -148.5q-90 0 -191 34l9 23q32 -7 75 -7q153 0 294 156q158 174 158 285q0 31 -41.5 116.5t-41.5 107.5q0 28 37 87q75 -44 125 -44q114 0 178 134h13q29 -188 58 -247t89 -59
h154v-133zM656 -110l-75 -118l-110 81l74 116z" />
    <glyph glyph-name="uniFC6D" unicode="&#xfe92;&#xfee6;" horiz-adv-x="1400" arabic-form="final" 
d="M1418 50h-188q-84 0 -127 66q-56 86 -90 325q-82 -135 -185 -141q9 -66 9 -115q0 -202 -148 -337t-368 -135q-151 0 -234.5 69.5t-83.5 198.5q0 117 97 331l21 -12q-61 -150 -61 -233q0 -93 83 -156t208 -63q190 0 317.5 89t127.5 221q0 102 -74 187l39 109
q62 -28 103 -28q88 0 166 124l21 -2q28 -214 65 -289.5t114 -75.5h188v-133zM530 705l-75 -117l-110 81l74 116zM1212 -177l-70 -116l-113 75l69 124z" />
    <glyph glyph-name="uniFC6E" unicode="&#xfe92;&#xfef0;" horiz-adv-x="1299" arabic-form="final" 
d="M1314 50h-195q-76 0 -157 77.5t-120 77.5q-71 0 -131 -61q-56 -56 -56 -110q0 -71 130 -88l219 -30q119 -16 119 -73q0 -143 -229.5 -258.5t-513.5 -115.5q-173 0 -272.5 83.5t-99.5 229.5q0 190 133 373l14 -7q-88 -169 -88 -267q0 -117 102 -196.5t249 -79.5
q172 0 399 64q231 64 231 117q0 22 -55 28l-278 28q-146 16 -146 100q0 92 122.5 238.5t199.5 146.5q36 0 115.5 -72t112.5 -72h195v-133zM1389 -157l-71 -116l-112 75l68 124z" />
    <glyph glyph-name="uniFC6F" unicode="&#xfe92;&#xfef2;" horiz-adv-x="1299" arabic-form="final" 
d="M1331 50h-212q-76 0 -157 77.5t-120 77.5q-71 0 -131 -61q-56 -56 -56 -110q0 -71 130 -88l219 -30q119 -16 119 -73q0 -143 -229.5 -258.5t-513.5 -115.5q-173 0 -272.5 83.5t-99.5 229.5q0 190 133 373l14 -7q-88 -169 -88 -267q0 -117 102 -196.5t249 -79.5
q172 0 399 64q231 64 231 117q0 22 -55 28l-278 28q-146 16 -146 100q0 92 122.5 238.5t199.5 146.5q36 0 115.5 -72t112.5 -72h212v-133zM1389 -154l-71 -116l-112 75l68 124zM675 -653l-70 -114l-115 82l-67 -101l-112 86l73 114l116 -86l67 101z" />
    <glyph glyph-name="uniFC73" unicode="&#xfe98;&#xfee6;" horiz-adv-x="1400" arabic-form="final" 
d="M1418 50h-185q-84 0 -127 66q-56 86 -90 325q-82 -135 -185 -141q9 -66 9 -115q0 -202 -148 -337t-368 -135q-151 0 -234.5 69.5t-83.5 198.5q0 117 97 331l21 -12q-61 -150 -61 -233q0 -93 83 -156t208 -63q190 0 317.5 89t127.5 221q0 102 -74 187l39 109
q62 -28 103 -28q88 0 166 124l21 -2q28 -214 65 -289.5t114 -75.5h185v-133zM1301 757l-67 -125l-120 71l-63 -101l-120 68l73 130l121 -76l61 101zM533 705l-75 -117l-110 81l74 116z" />
    <glyph glyph-name="uniFC74" unicode="&#xfe98;&#xfef0;" horiz-adv-x="1299" arabic-form="final" 
d="M1324 50h-205q-76 0 -157 77.5t-120 77.5q-71 0 -131 -61q-56 -56 -56 -110q0 -71 130 -88l219 -30q119 -16 119 -73q0 -143 -229.5 -258.5t-513.5 -115.5q-173 0 -272.5 83.5t-99.5 229.5q0 190 133 373l14 -7q-88 -169 -88 -267q0 -117 102 -196.5t249 -79.5
q172 0 399 64q231 64 231 117q0 22 -55 28l-278 28q-146 16 -146 100q0 92 122.5 238.5t199.5 146.5q36 0 115.5 -72t112.5 -72h205v-133zM690 667l-74 -122l-115 81l-63 -101l-115 77l68 119l116 -80l66 103z" />
    <glyph glyph-name="uniFC75" unicode="&#xfe98;&#xfef2;" horiz-adv-x="1299" arabic-form="final" 
d="M1324 50h-205q-76 0 -157 77.5t-120 77.5q-71 0 -131 -61q-56 -56 -56 -110q0 -71 130 -88l219 -30q119 -16 119 -73q0 -143 -229.5 -258.5t-513.5 -115.5q-173 0 -272.5 83.5t-99.5 229.5q0 190 133 373l14 -7q-88 -169 -88 -267q0 -117 102 -196.5t249 -79.5
q172 0 399 64q231 64 231 117q0 22 -55 28l-278 28q-146 16 -146 100q0 92 122.5 238.5t199.5 146.5q36 0 115.5 -72t112.5 -72h205v-133zM690 667l-74 -122l-115 81l-63 -101l-115 77l68 119l116 -80l66 103zM675 -653l-70 -114l-115 82l-67 -101l-112 86l73 114l116 -86
l67 101z" />
    <glyph glyph-name="uniFC8E" unicode="&#xfee8;&#xfef0;" horiz-adv-x="1299" arabic-form="final" 
d="M1324 50h-205q-76 0 -157 77.5t-120 77.5q-71 0 -131 -61q-56 -56 -56 -110q0 -71 130 -88l219 -30q119 -16 119 -73q0 -143 -229.5 -258.5t-513.5 -115.5q-173 0 -272.5 83.5t-99.5 229.5q0 190 133 373l14 -7q-88 -169 -88 -267q0 -117 102 -196.5t249 -79.5
q172 0 399 64q231 64 231 117q0 22 -55 28l-278 28q-146 16 -146 100q0 92 122.5 238.5t199.5 146.5q36 0 115.5 -72t112.5 -72h205v-133zM600 578l-71 -116l-112 75l68 124z" />
    <glyph glyph-name="uniFC8F" unicode="&#xfee8;&#xfef2;" horiz-adv-x="1299" arabic-form="final" 
d="M1324 50h-205q-76 0 -157 77.5t-120 77.5q-71 0 -131 -61q-56 -56 -56 -110q0 -71 130 -88l219 -30q119 -16 119 -73q0 -143 -229.5 -258.5t-513.5 -115.5q-173 0 -272.5 83.5t-99.5 229.5q0 190 133 373l14 -7q-88 -169 -88 -267q0 -117 102 -196.5t249 -79.5
q172 0 399 64q231 64 231 117q0 22 -55 28l-278 28q-146 16 -146 100q0 92 122.5 238.5t199.5 146.5q36 0 115.5 -72t112.5 -72h205v-133zM600 578l-71 -116l-112 75l68 124zM675 -653l-70 -114l-115 82l-67 -101l-112 86l73 114l116 -86l67 101z" />
    <glyph glyph-name="uniFC91" unicode="&#xfef4;&#xfeae;" horiz-adv-x="900" arabic-form="final" 
d="M924 50h-174q-154 0 -169 311q-98 -120 -210 -137q8 -66 8 -107q0 -223 -111.5 -371.5t-279.5 -148.5q-90 0 -191 34l9 23q32 -7 75 -7q153 0 294 156q158 174 158 285q0 31 -41.5 116.5t-41.5 107.5q0 28 37 87q75 -44 125 -44q114 0 178 134h13q29 -188 58 -247t89 -59
h174v-133zM777 -125l-74 -122l-115 82l-63 -102l-115 77l68 119l117 -80l66 103z" />
    <glyph glyph-name="uniFC94" unicode="&#xfef4;&#xfee6;" horiz-adv-x="1400" arabic-form="final" 
d="M1424 50h-194q-84 0 -127 66q-56 86 -90 325q-82 -135 -185 -141q9 -66 9 -115q0 -202 -148 -337t-368 -135q-151 0 -234.5 69.5t-83.5 198.5q0 117 97 331l21 -12q-61 -150 -61 -233q0 -93 83 -156t208 -63q190 0 317.5 89t127.5 221q0 102 -74 187l39 109
q62 -28 103 -28q88 0 166 124l21 -2q28 -214 65 -289.5t114 -75.5h194v-133zM530 705l-75 -117l-110 81l74 116zM1298 -166l-67 -126l-120 72l-63 -102l-120 69l73 129l121 -75l61 101z" />
    <glyph glyph-name="uniFC95" unicode="&#xfef4;&#xfef0;" horiz-adv-x="1299" arabic-form="final" 
d="M1324 50h-205q-76 0 -157 77.5t-120 77.5q-71 0 -131 -61q-56 -56 -56 -110q0 -71 130 -88l219 -30q119 -16 119 -73q0 -143 -229.5 -258.5t-513.5 -115.5q-173 0 -272.5 83.5t-99.5 229.5q0 190 133 373l14 -7q-88 -169 -88 -267q0 -117 102 -196.5t249 -79.5
q172 0 399 64q231 64 231 117q0 22 -55 28l-278 28q-146 16 -146 100q0 92 122.5 238.5t199.5 146.5q36 0 115.5 -72t112.5 -72h205v-133zM1558 -238l-69 -114l-116 82l-67 -101l-112 86l74 114l115 -87l67 101z" />
    <glyph glyph-name="uniFC9C" unicode="&#xfe91;&#xfea0;" horiz-adv-x="1036" arabic-form="initial" 
d="M992 372l-40 -91h-29q-251 0 -430 -60q-85 -28 -232 -112q-107 -59 -184 -59h-77v133h77q86 0 176 36q138 55 231 78q-214 59 -393 95q15 62 42.5 89.5t99.5 52.5q293 104 433 395q28 58 50 58q84 0 112 -304l-35 -4q-16 182 -77 182q-24 0 -71 -60q-81 -101 -121 -144
q-99 -100 -227 -175q278 -110 574 -110h121zM957 37l-67 -122l-112 75l65 120zM538 37l-67 -122l-112 75l65 120z" />
    <glyph glyph-name="uniFC9D" unicode="&#xfe91;&#xfea4;" horiz-adv-x="1036" arabic-form="initial" 
d="M992 372l-40 -91h-29q-251 0 -430 -60q-85 -28 -232 -112q-107 -59 -184 -59h-77v133h77q86 0 176 36q138 55 231 78q-214 59 -393 95q15 62 42.5 89.5t99.5 52.5q293 104 433 395q28 58 50 58q84 0 112 -304l-35 -4q-16 182 -77 182q-24 0 -71 -60q-81 -101 -121 -144
q-99 -100 -227 -175q278 -110 574 -110h121zM957 37l-67 -122l-112 75l65 120z" />
    <glyph glyph-name="uniFC9E" unicode="&#xfe91;&#xfea8;" horiz-adv-x="1036" arabic-form="initial" 
d="M992 372l-40 -91h-29q-251 0 -430 -60q-85 -28 -232 -112q-107 -59 -184 -59h-77v133h77q86 0 176 36q138 55 231 78q-214 59 -393 95q15 62 42.5 89.5t99.5 52.5q293 104 433 395q28 58 50 58q84 0 112 -304l-35 -4q-16 182 -77 182q-24 0 -71 -60q-81 -101 -121 -144
q-99 -100 -227 -175q278 -110 574 -110h121zM288 852l-71 -115l-109 70l68 122zM957 37l-67 -122l-112 75l65 120z" />
    <glyph glyph-name="uniFC9F" unicode="&#xfe91;&#xfee4;" horiz-adv-x="722" arabic-form="initial" 
d="M647 766q0 -18 -8 -40l-26 -77q-87 48 -149 48q-79 0 -134 -47.5t-55 -115.5q0 -67 44.5 -120t164.5 -128q22 -13 81 -49l-51 -160q-78 37 -192 85q-28 -41 -114 -77q-79 -35 -131 -35h-77v133h77q37 0 91.5 23.5t79.5 52.5q-41 98 -41 176q0 160 109 296q92 114 202 114
q47 0 88 -22.5t41 -56.5zM865 30l-71 -115l-112 75l68 124z" />
    <glyph glyph-name="uniFCA1" unicode="&#xfe97;&#xfea0;" horiz-adv-x="1036" arabic-form="initial" 
d="M992 372l-40 -91h-29q-251 0 -430 -60q-85 -28 -232 -112q-107 -59 -184 -59h-77v133h77q86 0 176 36q138 55 231 78q-214 59 -393 95q15 62 42.5 89.5t99.5 52.5q293 104 433 395q28 58 50 58q84 0 112 -304l-35 -4q-16 182 -77 182q-24 0 -71 -60q-81 -101 -121 -144
q-99 -100 -227 -175q278 -110 574 -110h121zM886 1280l-77 -117l-113 84l-68 -103l-116 86l77 118l114 -84l67 101zM865 30l-71 -115l-112 75l68 124z" />
    <glyph glyph-name="uniFCA2" unicode="&#xfe97;&#xfea4;" horiz-adv-x="1036" arabic-form="initial" 
d="M992 372l-40 -91h-29q-251 0 -430 -60q-85 -28 -232 -112q-107 -59 -184 -59h-77v133h77q86 0 176 36q138 55 231 78q-214 59 -393 95q15 62 42.5 89.5t99.5 52.5q293 104 433 395q28 58 50 58q84 0 112 -304l-35 -4q-16 182 -77 182q-24 0 -71 -60q-81 -101 -121 -144
q-99 -100 -227 -175q278 -110 574 -110h121zM886 1280l-77 -117l-113 84l-68 -103l-116 86l77 118l114 -84l67 101z" />
    <glyph glyph-name="uniFCA3" unicode="&#xfe97;&#xfea8;" horiz-adv-x="1036" arabic-form="initial" 
d="M992 372l-40 -91h-29q-251 0 -430 -60q-85 -28 -232 -112q-107 -59 -184 -59h-77v133h77q86 0 176 36q138 55 231 78q-214 59 -393 95q15 62 42.5 89.5t99.5 52.5q293 104 433 395q28 58 50 58q84 0 112 -304l-35 -4q-16 182 -77 182q-24 0 -71 -60q-81 -101 -121 -144
q-99 -100 -227 -175q278 -110 574 -110h121zM886 1280l-77 -117l-113 84l-68 -103l-116 86l77 118l114 -84l67 101zM288 852l-71 -115l-109 70l68 122z" />
    <glyph glyph-name="uniFCA4" unicode="&#xfe97;&#xfee4;" horiz-adv-x="702" arabic-form="initial" 
d="M647 766q0 -18 -8 -40l-26 -77q-87 48 -149 48q-79 0 -134 -47.5t-55 -115.5q0 -67 44.5 -120t164.5 -128q22 -13 81 -49l-51 -160q-78 37 -192 85q-28 -41 -114 -77q-79 -35 -131 -35h-77v133h77q37 0 91.5 23.5t79.5 52.5q-41 98 -41 176q0 160 109 296q92 114 202 114
q47 0 88 -22.5t41 -56.5zM637 1055l-67 -122l-118 82l-67 -106l-109 78l68 118l115 -77l64 104z" />
    <glyph glyph-name="uniFCA6" unicode="&#xfe9b;&#xfee4;" horiz-adv-x="701" arabic-form="initial" 
d="M647 766q0 -18 -8 -40l-26 -77q-87 48 -149 48q-79 0 -134 -47.5t-55 -115.5q0 -67 44.5 -120t164.5 -128q22 -13 81 -49l-51 -160q-78 37 -192 85q-28 -41 -114 -77q-79 -35 -131 -35h-77v133h77q37 0 91.5 23.5t79.5 52.5q-41 98 -41 176q0 160 109 296q92 114 202 114
q47 0 88 -22.5t41 -56.5zM504 1208l-71 -115l-112 74l68 125zM655 1016l-79 -120l-113 79l-69 -101l-107 75l66 115l117 -74l67 100z" />
    <glyph glyph-name="uniFCA8" unicode="&#xfe9f;&#xfee4;" horiz-adv-x="1367" arabic-form="initial" 
d="M1315 366h-41q-119 0 -302 51.5t-324 51.5q-79 0 -162 -20q74 -63 101 -110t27 -115q0 -133 -87 -133q-100 0 -298 101q-54 -142 -152 -142h-77v133h77q135 0 145 110q21 234 411 234q42 0 182 -11q-190 174 -352 174q-27 0 -81 -12q51 133 197 133q67 0 187 -84
q198 -139 226 -156q148 -83 282 -83h27zM573 217q0 15 -26 35q-97 72 -233 121q-16 6 -26 6q-16 0 -16 -21q0 -28 56 -52q34 -16 169 -87q44 -23 61 -23q15 0 15 21zM865 30l-71 -115l-112 75l68 124z" />
    <glyph glyph-name="uniFCAA" unicode="&#xfea3;&#xfee4;" horiz-adv-x="1367" arabic-form="initial" 
d="M1315 366h-41q-119 0 -302 51.5t-324 51.5q-79 0 -162 -20q74 -63 101 -110t27 -115q0 -133 -87 -133q-100 0 -298 101q-54 -142 -152 -142h-77v133h77q135 0 145 110q21 234 411 234q42 0 182 -11q-190 174 -352 174q-27 0 -81 -12q51 133 197 133q67 0 187 -84
q198 -139 226 -156q148 -83 282 -83h27zM573 217q0 15 -26 35q-97 72 -233 121q-16 6 -26 6q-16 0 -16 -21q0 -28 56 -52q34 -16 169 -87q44 -23 61 -23q15 0 15 21z" />
    <glyph glyph-name="uniFCAC" unicode="&#xfea7;&#xfee4;" horiz-adv-x="1367" arabic-form="initial" 
d="M1315 366h-41q-119 0 -302 51.5t-324 51.5q-79 0 -162 -20q74 -63 101 -110t27 -115q0 -133 -87 -133q-100 0 -298 101q-54 -142 -152 -142h-77v133h77q135 0 145 110q21 234 411 234q42 0 182 -11q-190 174 -352 174q-27 0 -81 -12q51 133 197 133q67 0 187 -84
q198 -139 226 -156q148 -83 282 -83h27zM573 217q0 15 -26 35q-97 72 -233 121q-16 6 -26 6q-16 0 -16 -21q0 -28 56 -52q34 -16 169 -87q44 -23 61 -23q15 0 15 21zM608 974l-71 -115l-109 70l68 122z" />
    <glyph glyph-name="uniFCAD" unicode="&#xfeb3;&#xfea0;" horiz-adv-x="1342" arabic-form="initial" 
d="M957 37l-67 -122l-112 75l65 120zM297 482q278 -110 574 -110h121l-40 -91h-29q-251 0 -430 -60q-85 -28 -232 -112q-107 -59 -184 -59h-77v133h77q86 0 176 36q138 55 231 78q-214 59 -393 95q15 62 42.5 89.5t99.5 52.5q110 38 154 90t59 78q31 58 86 103t96 45
q35 0 88 -69q61 -79 131 -79q142 0 194 210h15q21 -142 174 -142q36 0 36 27q0 18 -55 55l45 139q62 -36 62 -115q0 -113 -43.5 -184.5t-110.5 -71.5q-58 0 -157 90q-98 -159 -217 -159q-91 0 -134 102q-31 57 -75 57q-57 0 -98 -36q-17 -15 -52 -74.5t-134 -117.5z" />
    <glyph glyph-name="uniFCAE" unicode="&#xfeb3;&#xfea4;" horiz-adv-x="1342" arabic-form="initial" 
d="M297 482q278 -110 574 -110h121l-40 -91h-29q-251 0 -430 -60q-85 -28 -232 -112q-107 -59 -184 -59h-77v133h77q86 0 176 36q138 55 231 78q-214 59 -393 95q15 62 42.5 89.5t99.5 52.5q110 38 154 90t59 78q31 58 86 103t96 45q35 0 88 -69q61 -79 131 -79
q142 0 194 210h15q21 -142 174 -142q36 0 36 27q0 18 -55 55l45 139q62 -36 62 -115q0 -113 -43.5 -184.5t-110.5 -71.5q-58 0 -157 90q-98 -159 -217 -159q-91 0 -134 102q-31 57 -75 57q-57 0 -98 -36q-17 -15 -52 -74.5t-134 -117.5z" />
    <glyph glyph-name="unFCAF" unicode="&#xfeb3;&#xfea8;" horiz-adv-x="1342" arabic-form="initial" 
d="M312 911l-67 -122l-112 75l65 121zM297 482q278 -110 574 -110h121l-40 -91h-29q-251 0 -430 -60q-85 -28 -232 -112q-107 -59 -184 -59h-77v133h77q86 0 176 36q138 55 231 78q-214 59 -393 95q15 62 42.5 89.5t99.5 52.5q110 38 154 90t59 78q31 58 86 103t96 45
q35 0 88 -69q61 -79 131 -79q142 0 194 210h15q21 -142 174 -142q36 0 36 27q0 18 -55 55l45 139q62 -36 62 -115q0 -113 -43.5 -184.5t-110.5 -71.5q-58 0 -157 90q-98 -159 -217 -159q-91 0 -134 102q-31 57 -75 57q-57 0 -98 -36q-17 -15 -52 -74.5t-134 -117.5z" />
    <glyph glyph-name="uniFCB0" unicode="&#xfeb3;&#xfee4;" horiz-adv-x="1201" arabic-form="initial" 
d="M264 507q-5 -15 -5 -31q0 -75 99 -198q96 -8 141 -30q42 -20 82 -76q-19 -66 -73 -135l-31 21q-93 63 -147 63q-42 0 -121 -35.5t-132 -35.5h-77v133h77q25 0 72 29q51 31 96 38q-34 94 -34 138q0 71 28 141q10 28 24 54q32 59 87 103.5t96 44.5q35 0 88 -68
q60 -80 130 -80q142 0 194 210h15q21 -141 174 -141q37 0 37 26q0 19 -55 55l45 140q61 -37 61 -116q0 -113 -43.5 -184.5t-110.5 -71.5q-58 0 -157 90q-98 -158 -217 -158q-91 0 -134 101q-31 57 -75 57q-57 0 -98 -36q-26 -23 -36 -48z" />
    <glyph glyph-name="uniFCC9" unicode="&#xfedf;&#xfea0;" horiz-adv-x="1163" arabic-form="initial" 
d="M1125 374l-60 -110q-212 20 -309 20q-136 0 -277 -60q-29 -12 -219 -114q-116 -60 -183 -60h-77v133h77q106 0 233 53q192 78 264 98q-185 68 -460 68q16 93 76 122q43 20 159 20q84 0 111 15q37 21 37 93q0 84 -34 285.5t-34 218.5q0 54 70 130l72 -130
q-47 -56 -47 -128q0 -37 14.5 -184t14.5 -175q0 -105 -43 -173q214 -67 289 -82q118 -26 326 -40zM865 30l-71 -115l-112 75l68 124z" />
    <glyph glyph-name="uniFCCA" unicode="&#xfedf;&#xfea4;" horiz-adv-x="1163" arabic-form="initial" 
d="M1125 374l-60 -110q-212 20 -309 20q-136 0 -277 -60q-29 -12 -219 -114q-116 -60 -183 -60h-77v133h77q106 0 233 53q192 78 264 98q-185 68 -460 68q16 93 76 122q43 20 159 20q84 0 111 15q37 21 37 93q0 84 -34 285.5t-34 218.5q0 54 70 130l72 -130
q-47 -56 -47 -128q0 -37 14.5 -184t14.5 -175q0 -105 -43 -173q214 -67 289 -82q118 -26 326 -40z" />
    <glyph glyph-name="uniFCCB" unicode="&#xfedf;&#xfea8;" horiz-adv-x="1163" arabic-form="initial" 
d="M1125 374l-60 -110q-212 20 -309 20q-136 0 -277 -60q-29 -12 -219 -114q-116 -60 -183 -60h-77v133h77q106 0 233 53q192 78 264 98q-185 68 -460 68q16 93 76 122q43 20 159 20q84 0 111 15q37 21 37 93q0 84 -34 285.5t-34 218.5q0 54 70 130l72 -130
q-47 -56 -47 -128q0 -37 14.5 -184t14.5 -175q0 -105 -43 -173q214 -67 289 -82q118 -26 326 -40zM288 852l-71 -115l-109 70l68 122z" />
    <glyph glyph-name="uniFCCC" unicode="&#xfedf;&#xfee4;" horiz-adv-x="600" arabic-form="initial" 
d="M540 144q0 -42 -43 -122q-100 109 -189 109q-36 0 -107.5 -40.5t-123.5 -40.5h-77v133h77q48 0 106 30q66 34 93 39q-15 55 -75 449t-60 441q0 84 61 142l87 -142q-60 -50 -60 -140q0 -139 58 -479q23 -134 51.5 -183.5t107.5 -89.5q94 -48 94 -106z" />
    <glyph glyph-name="uniFCCD" unicode="&#xfedf;&#xfeec;" horiz-adv-x="799" arabic-form="initial" 
d="M729 327q0 -132 -39.5 -175.5t-158.5 -43.5q-111 0 -275 30q-24 -32 -83.5 -60t-95.5 -28h-77v133h77q54 0 83 20q-19 62 -19 97q0 172 264 349q-12 191 -43 322q-28 116 -28 124q0 44 58 115l84 -120q-55 -49 -55 -104l36 -343q7 -82 58 -108l125 -65q89 -46 89 -143z
M686 257q0 50 -146 128q-21 11 -56 34q-32 -82 -88 -173q121 -16 168 -16q122 0 122 27zM422 372q0 43 -28 83.5t-60 40.5q-42 0 -94 -59t-52 -103q0 -50 116 -70q118 49 118 108z" />
    <glyph glyph-name="uniFCCE" unicode="&#xfee3;&#xfea0;" horiz-adv-x="1036" arabic-form="initial" 
d="M992 361l-33 -88l-131 -9q-224 -15 -382 -71q-60 -21 -202 -96q-92 -47 -167 -47h-77v133h77q99 0 409 103q-313 98 -395 106q47 108 122 156q171 110 399 183l-67 42q40 102 73 156q145 -44 253 -129q-22 -77 -62 -162l-90 -5q-344 -21 -486 -137q334 -128 759 -135z
M865 30l-71 -115l-112 75l68 124z" />
    <glyph glyph-name="uniFCCF" unicode="&#xfee3;&#xfea4;" horiz-adv-x="1036" arabic-form="initial" 
d="M992 361l-33 -88l-131 -9q-224 -15 -382 -71q-60 -21 -202 -96q-92 -47 -167 -47h-77v133h77q99 0 409 103q-313 98 -395 106q47 108 122 156q171 110 399 183l-67 42q40 102 73 156q145 -44 253 -129q-22 -77 -62 -162l-90 -5q-344 -21 -486 -137q334 -128 759 -135z
" />
    <glyph glyph-name="uniFCD0" unicode="&#xfee3;&#xfea8;" horiz-adv-x="1036" arabic-form="initial" 
d="M992 361l-33 -88l-131 -9q-224 -15 -382 -71q-60 -21 -202 -96q-92 -47 -167 -47h-77v133h77q99 0 409 103q-313 98 -395 106q47 108 122 156q171 110 399 183l-67 42q40 102 73 156q145 -44 253 -129q-22 -77 -62 -162l-90 -5q-344 -21 -486 -137q334 -128 759 -135z
M288 852l-71 -115l-109 70l68 122z" />
    <glyph glyph-name="uniFCD1" unicode="&#xfee3;&#xfee4;" horiz-adv-x="799" arabic-form="initial" 
d="M754 807l-68 -164q-371 -49 -371 -154q0 -114 191 -222q108 -62 108 -88q0 -35 -50 -142q-118 60 -222 139q-131 -126 -265 -126h-77v133h77q102 0 197 95q-34 69 -34 114q0 48 70 196q30 61 60 87q24 19 106 56l-80 49l117 187q122 -34 241 -160z" />
    <glyph glyph-name="uniFCD2" unicode="&#xfee7;&#xfea0;" horiz-adv-x="1036" arabic-form="initial" 
d="M992 372l-40 -91h-29q-251 0 -430 -60q-85 -28 -232 -112q-107 -59 -184 -59h-77v133h77q86 0 176 36q138 55 231 78q-214 59 -393 95q15 62 42.5 89.5t99.5 52.5q293 104 433 395q28 58 50 58q84 0 112 -304l-35 -4q-16 182 -77 182q-24 0 -71 -60q-81 -101 -121 -144
q-99 -100 -227 -175q278 -110 574 -110h121zM815 1266l-78 -115l-104 88l77 113zM865 30l-71 -115l-112 75l68 124z" />
    <glyph glyph-name="uniFCD3" unicode="&#xfee7;&#xfea4;" horiz-adv-x="1036" arabic-form="initial" 
d="M992 372l-40 -91h-29q-251 0 -430 -60q-85 -28 -232 -112q-107 -59 -184 -59h-77v133h77q86 0 176 36q138 55 231 78q-214 59 -393 95q15 62 42.5 89.5t99.5 52.5q293 104 433 395q28 58 50 58q84 0 112 -304l-35 -4q-16 182 -77 182q-24 0 -71 -60q-81 -101 -121 -144
q-99 -100 -227 -175q278 -110 574 -110h121zM815 1266l-78 -115l-104 88l77 113z" />
    <glyph glyph-name="uniFCD4" unicode="&#xfee7;&#xfea8;" horiz-adv-x="1036" arabic-form="initial" 
d="M992 372l-40 -91h-29q-251 0 -430 -60q-85 -28 -232 -112q-107 -59 -184 -59h-77v133h77q86 0 176 36q138 55 231 78q-214 59 -393 95q15 62 42.5 89.5t99.5 52.5q293 104 433 395q28 58 50 58q84 0 112 -304l-35 -4q-16 182 -77 182q-24 0 -71 -60q-81 -101 -121 -144
q-99 -100 -227 -175q278 -110 574 -110h121zM815 1266l-78 -115l-104 88l77 113zM288 852l-71 -115l-109 70l68 122z" />
    <glyph glyph-name="uniFCD5" unicode="&#xfee7;&#xfee4;" horiz-adv-x="702" arabic-form="initial" 
d="M647 766q0 -18 -8 -40l-26 -77q-87 48 -149 48q-79 0 -134 -47.5t-55 -115.5q0 -67 44.5 -120t164.5 -128q22 -13 81 -49l-51 -160q-78 37 -192 85q-28 -41 -114 -77q-79 -35 -131 -35h-77v133h77q37 0 91.5 23.5t79.5 52.5q-41 98 -41 176q0 160 109 296q92 114 202 114
q47 0 88 -22.5t41 -56.5zM562 1136l-71 -115l-109 69l68 123z" />
    <glyph glyph-name="uniFCD8" unicode="&#xfeeb;&#xfee4;" horiz-adv-x="1160" arabic-form="initial" 
d="M1092 665q0 -78 -30.5 -133.5t-74.5 -55.5q-90 0 -252 31q-87 -71 -226 -111q25 -45 25 -90q0 -63 -36 -113.5t-81 -50.5q-110 0 -217 63q-73 -155 -147 -155h-53v133h53q26 0 64 20q43 23 49 51q30 121 82 170t156 49h51q126 0 203 56q-104 29 -104 82q0 134 162 262
q-33 16 -97 26q22 144 108 144q108 0 236.5 -133.5t128.5 -244.5zM1047 617q0 77 -164 190q-7 -132 -51 -190q89 -24 166 -24q49 0 49 24zM815 712q0 99 -74 99q-37 0 -76 -42.5t-39 -71.5q0 -40 142 -63q47 36 47 78zM473 271q0 33 -72 70.5t-124 37.5q-27 0 -27 -32
q0 -24 89 -62q82 -35 114 -35q20 0 20 21z" />
    <glyph glyph-name="uniFCDA" unicode="&#xfef3;&#xfea0;" horiz-adv-x="1036" arabic-form="initial" 
d="M992 372l-40 -91h-29q-251 0 -430 -60q-85 -28 -232 -112q-107 -59 -184 -59h-77v133h77q86 0 176 36q138 55 231 78q-214 59 -393 95q15 62 42.5 89.5t99.5 52.5q293 104 433 395q28 58 50 58q84 0 112 -304l-35 -4q-16 182 -77 182q-24 0 -71 -60q-81 -101 -121 -144
q-99 -100 -227 -175q278 -110 574 -110h121zM991 34l-71 -119l-122 79l-61 -111l-118 86l71 119l114 -74l66 101zM473 -158l-70 -115l-113 75l69 124z" />
    <glyph glyph-name="uniFCDB" unicode="&#xfef3;&#xfea4;" horiz-adv-x="1036" arabic-form="initial" 
d="M992 372l-40 -91h-29q-251 0 -430 -60q-85 -28 -232 -112q-107 -59 -184 -59h-77v133h77q86 0 176 36q138 55 231 78q-214 59 -393 95q15 62 42.5 89.5t99.5 52.5q293 104 433 395q28 58 50 58q84 0 112 -304l-35 -4q-16 182 -77 182q-24 0 -71 -60q-81 -101 -121 -144
q-99 -100 -227 -175q278 -110 574 -110h121zM991 34l-71 -119l-122 79l-61 -111l-118 86l71 119l114 -74l66 101z" />
    <glyph glyph-name="uniFCDC" unicode="&#xfef3;&#xfea8;" horiz-adv-x="1036" arabic-form="initial" 
d="M992 372l-40 -91h-29q-251 0 -430 -60q-85 -28 -232 -112q-107 -59 -184 -59h-77v133h77q86 0 176 36q138 55 231 78q-214 59 -393 95q15 62 42.5 89.5t99.5 52.5q293 104 433 395q28 58 50 58q84 0 112 -304l-35 -4q-16 182 -77 182q-24 0 -71 -60q-81 -101 -121 -144
q-99 -100 -227 -175q278 -110 574 -110h121zM288 852l-71 -115l-109 70l68 122zM991 34l-71 -119l-122 79l-61 -111l-118 86l71 119l114 -74l66 101z" />
    <glyph glyph-name="uniFCDD" unicode="&#xfef3;&#xfee4;" horiz-adv-x="718" arabic-form="initial" 
d="M647 766q0 -18 -8 -40l-26 -77q-87 48 -149 48q-79 0 -134 -47.5t-55 -115.5q0 -67 44.5 -120t164.5 -128q22 -13 81 -49l-51 -160q-78 37 -192 85q-28 -41 -114 -77q-79 -35 -131 -35h-77v133h77q37 0 91.5 23.5t79.5 52.5q-41 98 -41 176q0 160 109 296q92 114 202 114
q47 0 88 -22.5t41 -56.5zM828 -40l-67 -122l-117 81l-68 -105l-108 78l68 117l114 -76l64 104z" />
    <glyph glyph-name="uniFD30" unicode="&#xfeb7;&#xfee4;" horiz-adv-x="1201" arabic-form="initial" 
d="M1135 757q0 -113 -43.5 -184.5t-110.5 -71.5q-58 0 -157 90q-98 -158 -217 -158q-91 0 -134 101q-31 57 -75 57q-57 0 -98 -36.5t-41 -78.5q0 -75 99 -198q96 -8 141 -30q42 -20 82 -76q-19 -66 -73 -135l-31 21q-93 63 -147 63q-42 0 -121 -35.5t-132 -35.5h-77v133h77
q25 0 72 29q51 31 96 38q-34 94 -34 138q0 99 52 195q32 59 87 103.5t96 44.5q35 0 88 -68q60 -80 130 -80q142 0 194 210h15q21 -141 174 -141q37 0 37 26q0 19 -55 55l45 140q61 -37 61 -116zM723 1217l-68 -122l-113 70l67 126zM867 1021l-68 -120l-117 73l-60 -109
l-120 81l68 122l121 -74l60 101z" />
    <glyph glyph-name="uniFEF5" unicode="&#xfedf;&#xfe82;" horiz-adv-x="900" arabic-form="isolated" 
d="M866 1048q-72 -65 -72 -217q0 -358 -107 -595q52 -104 52 -189q0 -146 -189 -146h-222v132h23q87 0 160 58q68 51 103 134q-100 181 -178 284l-106 140q-69 88 -133 148l-43 -41q-52 50 -103 98q-47 52 -47 110q0 59 48 151q162 -136 249 -245q22 -26 175 -247
q55 -79 183 -317q82 174 82 410q0 40 -8.5 158.5t-8.5 162.5q0 72 54 135zM679 67q0 40 -34 95q-42 -79 -99 -129h23q110 0 110 34zM540 1338q-93 -102 -232 -102q-36 0 -107 19.5t-109 19.5q-33 0 -77 -23l-15 12q59 101 118 101q46 0 136 -24t137 -24t136 34z" />
    <glyph glyph-name="uniFEF6" unicode="&#xfee0;&#xfe82;" horiz-adv-x="1200" arabic-form="final" 
d="M1235 50h-155q-90 0 -126 96q-19 49 -51 256l-55 362q-54 -340 -131 -518q-71 -166 -200 -237q-102 -56 -359 -94v25q421 156 525 366q-31 178 -270 363q-88 68 -113 68q-15 0 -31 -27t-29 -27q-25 0 -149 74q-63 39 -63 135q0 136 49 136q58 0 217 -112
q154 -110 254 -219q132 -144 165 -323q94 256 94 588q0 121 54 210q6 -52 14 -131q27 -244 81 -636q21 -114 42 -159q28 -63 82 -63h155v-133zM540 1338q-93 -102 -232 -102q-36 0 -107 19.5t-109 19.5q-33 0 -77 -23l-15 12q59 101 118 101q46 0 136 -24t137 -24t136 34z
" />
    <glyph glyph-name="uniFEF7" unicode="&#xfedf;&#xfe84;" horiz-adv-x="900" arabic-form="isolated" 
d="M868 1048q-72 -65 -72 -217q0 -358 -107 -595q52 -104 52 -189q0 -146 -189 -146h-222v132h23q87 0 160 58q67 51 103 134q-100 181 -179 284l-105 140q-69 88 -133 148l-43 -41q-52 50 -104 98q-46 52 -46 110q0 59 48 151q162 -136 249 -245q22 -26 175 -247
q55 -79 183 -317q82 174 82 410q0 40 -8.5 158.5t-8.5 162.5q0 72 54 135zM681 67q0 40 -35 95q-41 -79 -99 -129h24q110 0 110 34zM345 1299q-14 -64 -36 -71l-305 -87q10 42 30 59t81 39q-72 33 -72 85q0 19 17 49q98 130 181 130q58 0 58 -62q0 -26 -33 -74
q-54 36 -90 36q-30 0 -73 -36q89 -84 156 -84q26 0 86 16z" />
    <glyph glyph-name="uniFEF8" unicode="&#xfee0;&#xfe84;" horiz-adv-x="1200" arabic-form="final" 
d="M1241 50h-155q-90 0 -127 96q-18 49 -50 256l-55 362q-54 -340 -131 -518q-72 -166 -200 -237q-103 -56 -359 -94v25q420 156 525 366q-31 178 -271 363q-88 68 -112 68q-16 0 -31.5 -27t-29.5 -27q-25 0 -148 74q-64 39 -64 135q0 136 50 136q58 0 216 -112
q154 -110 254 -219q132 -144 165 -323q95 256 95 588q0 121 54 210q5 -52 13 -131q28 -244 81 -636q21 -114 42 -159q29 -63 83 -63h155v-133zM416 1299q-14 -64 -36 -71l-305 -87q10 42 29.5 59t81.5 39q-73 33 -73 85q0 19 18 49q98 130 180 130q59 0 59 -62
q0 -26 -33 -74q-54 36 -91 36q-29 0 -72 -36q89 -84 156 -84q25 0 86 16z" />
    <glyph glyph-name="uniFEF9" unicode="&#xfedf;&#xfe88;" horiz-adv-x="900" arabic-form="isolated" 
d="M867 1048q-71 -65 -71 -217q0 -358 -107 -595q52 -104 52 -189q0 -146 -189 -146h-223v132h24q86 0 160 58q67 51 102 134q-100 181 -178 284l-105 140q-70 88 -133 148l-43 -41q-52 50 -104 98q-46 52 -46 110q0 59 47 151q163 -136 250 -245q22 -26 175 -247
q55 -79 183 -317q82 174 82 410q0 40 -9 158.5t-9 162.5q0 72 54 135zM680 67q0 40 -34 95q-42 -79 -99 -129h23q110 0 110 34zM711 -361q-6 -31 -11 -41q-10 -26 -26 -31l-304 -87q10 42 32 60q19 16 79 38q-72 36 -72 86q0 23 18 49q95 129 180 129q57 0 57 -61
q0 -28 -32 -75q-56 36 -89 36q-31 0 -74 -36q88 -83 156 -83q28 0 86 16z" />
    <glyph glyph-name="uniFEFA" unicode="&#xfee0;&#xfe88;" horiz-adv-x="1200" arabic-form="final" 
d="M1241 50h-155q-90 0 -127 96q-18 49 -50 256l-55 362q-54 -340 -131 -518q-72 -166 -200 -237q-103 -56 -359 -94v25q420 156 525 366q-31 178 -271 363q-88 68 -112 68q-16 0 -31.5 -27t-29.5 -27q-25 0 -148 74q-64 39 -64 135q0 136 50 136q58 0 216 -112
q154 -110 254 -219q132 -144 165 -323q95 256 95 588q0 121 54 210q5 -52 13 -131q28 -244 81 -636q21 -114 42 -159q29 -63 83 -63h155v-133zM782 -361q-6 -31 -11 -41q-10 -26 -26 -31l-304 -87q10 42 32 60q19 16 79 38q-72 36 -72 86q0 23 18 49q95 129 180 129
q57 0 57 -61q0 -28 -32 -75q-56 36 -89 36q-31 0 -74 -36q88 -83 156 -83q28 0 86 16z" />
    <glyph glyph-name="uniFEFB" unicode="&#xfedf;&#xfe8e;" horiz-adv-x="900" arabic-form="isolated" 
d="M867 1048q-71 -65 -71 -217q0 -358 -107 -595q52 -104 52 -189q0 -146 -189 -146h-223v132h24q86 0 160 58q67 51 102 134q-100 181 -178 284l-105 140q-70 88 -133 148l-43 -41q-52 50 -104 98q-46 52 -46 110q0 59 47 151q163 -136 250 -245q22 -26 175 -247
q55 -79 183 -317q82 174 82 410q0 40 -9 158.5t-9 162.5q0 72 54 135zM680 67q0 40 -34 95q-42 -79 -99 -129h23q110 0 110 34z" />
    <glyph glyph-name="uniFEFC" unicode="&#xfee0;&#xfe8e;" horiz-adv-x="1200" arabic-form="final" 
d="M1241 50h-155q-90 0 -127 94q-18 51 -50 258l-55 362q-54 -340 -131 -518q-72 -166 -200 -237q-103 -56 -359 -94v25q420 156 525 366q-31 178 -271 363q-88 68 -112 68q-16 0 -31.5 -27t-29.5 -27q-25 0 -148 74q-64 39 -64 135q0 136 50 136q58 0 216 -112
q154 -110 254 -219q132 -144 165 -323q95 256 95 588q0 121 54 210q5 -52 13 -131q28 -244 81 -636q21 -114 42 -159q29 -63 83 -63h155v-133z" />
    <glyph glyph-name="uniFB56" unicode="&#x67e;" horiz-adv-x="1430" arabic-form="isolated" 
d="M1357 426q0 -199 -178 -282q-306 -141 -676 -141q-237 0 -367.5 68t-130.5 193q0 87 106 252l27 -9q-58 -93 -58 -146q0 -97 119.5 -151.5t330.5 -54.5q285 0 554 84q212 66 212 120q0 15 -7 26l-48 84q-8 15 -8 41q0 21 16 58l33 75q75 -141 75 -217zM913 -192l-69 -122
l-121 75l-60 -101l-116 73l69 120l116 -72l61 109zM872 -411l-67 -125l-114 74l69 122z" />
    <glyph glyph-name="uniFB57" unicode="&#x67e;" horiz-adv-x="1501" arabic-form="final" 
d="M1518 50h-112q-49 0 -85 28q-40 31 -44 80q-219 -191 -721 -191q-554 0 -554 304q0 96 86 258l25 -11q-45 -90 -45 -150q0 -114 147.5 -183.5t392.5 -69.5q243 0 432 47q202 51 233 131q37 -110 133 -110h112v-133zM815 -214l-68 -122l-121 75l-61 -101l-115 73l68 120
l117 -72l64 109zM774 -433l-67 -125l-113 74l68 122z" />
    <glyph glyph-name="uniFB58" unicode="&#x67e;" horiz-adv-x="499" arabic-form="initial" 
d="M410 345q0 -295 -213 -295h-197v133h197q57 0 108 23q56 25 56 61q0 17 -11 35l-47 77q-16 25 -16 47q0 23 13 43l61 92q49 -109 49 -216zM389 -148l-69 -122l-121 75l-60 -101l-116 73l69 120l116 -72l61 109zM348 -367l-67 -125l-114 74l69 122z" />
    <glyph glyph-name="uniFB59" unicode="&#x67e;" horiz-adv-x="499" arabic-form="medial" 
d="M514 50h-174q-24 0 -57 43t-35 83q-66 -126 -171 -126h-77v133h77q98 0 211 155l13 -4q13 -86 28 -115q21 -36 70 -36h115v-133zM424 -192l-69 -122l-121 75l-60 -101l-116 73l69 120l116 -72l61 109zM383 -411l-67 -125l-113 74l68 122z" />
    <glyph glyph-name="uniFB6A" unicode="&#x6a4;" horiz-adv-x="1520" arabic-form="isolated" 
d="M1468 480q0 -121 -58 -182t-241 -134q-348 -136 -690 -136q-473 0 -473 276q0 109 95 273l27 -9q-66 -99 -66 -180q0 -97 116.5 -160.5t296.5 -63.5q389 0 788 176q170 75 170 122q0 40 -45 106q-49 -68 -64 -84q-40 -38 -93 -38q-55 0 -92 38t-37 93q0 57 62 174
q66 122 127 122q58 0 114 -110q63 -122 63 -283zM1300 656q0 15 -24 32t-53 17q-48 0 -48 -42q0 -15 20.5 -34.5t43.5 -19.5q61 0 61 47zM1162 1286l-71 -114l-109 69l68 122zM1300 1090l-67 -122l-118 82l-67 -106l-109 78l68 118l114 -77l64 104z" />
    <glyph glyph-name="uniFB6B" unicode="&#x6a4;" horiz-adv-x="1599" arabic-form="final" 
d="M1610 50h-123q-147 0 -235 63q-297 -128 -453 -171q-173 -47 -367 -47q-197 0 -311.5 76t-114.5 208q0 127 103 247l15 -11q-56 -108 -56 -158q0 -99 112 -159.5t299 -60.5q163 0 295 30.5t334 117.5q-40 44 -40 79q0 64 56 185q84 182 155 182q46 0 92 -82
q43 -77 43 -136q0 -106 -54 -204q43 -26 127 -26h123v-133zM1360 359q0 31 -32 78q-34 52 -62 52q-31 0 -81 -51.5t-50 -90.5q0 -22 32.5 -52.5t68.5 -42.5q124 70 124 107zM1246 1051l-72 -115l-109 70l69 122zM1383 855l-67 -122l-118 81l-67 -105l-109 78l69 118l114 -77
l64 104z" />
    <glyph glyph-name="uniFB6C" unicode="&#x6a4;" horiz-adv-x="499" arabic-form="initial" 
d="M459 347q0 -134 -84 -196q-137 -101 -298 -101h-77v133h77q105 0 221 43q124 46 124 99q0 45 -51 77q-60 -116 -138 -116q-54 0 -87.5 30.5t-33.5 77.5q0 49 30 149q51 169 125 169q67 0 129.5 -121t62.5 -244zM301 501q0 10 -29.5 28.5t-49.5 18.5q-36 0 -36 -38
q0 -61 49 -61q25 0 45.5 18t20.5 34zM297 1150l-71 -115l-109 70l68 122zM435 954l-68 -122l-117 81l-67 -105l-109 78l68 118l114 -77l64 104z" />
    <glyph glyph-name="uniFB6D" unicode="&#x6a4;" horiz-adv-x="701" arabic-form="medial" 
d="M724 50h-132q-139 0 -267 90q-118 -90 -248 -90h-77v133h77q84 0 130 41q-7 33 -7 47q0 78 50 164q120 208 214 208q45 0 81 -71q34 -66 34 -139q0 -91 -93 -214q65 -36 117 -36h121v-133zM520 372q0 36 -29 72q-33 38 -74 38q-46 0 -96 -35t-50 -62q0 -58 94 -107
q155 49 155 94zM395 1051l-72 -115l-108 70l68 122zM532 855l-67 -122l-117 81l-67 -105l-109 78l68 118l114 -77l64 104z" />
    <glyph glyph-name="uniFB7A" unicode="&#x686;" horiz-adv-x="1001" arabic-form="isolated" 
d="M1026 -633l-290 -135h-134q-280 0 -435.5 117t-155.5 345q0 389 413 637q-131 28 -202 28q-64 0 -144 -21l23 111q109 58 194 58q43 0 171.5 -23.5t288.5 -23.5q94 0 184 7l-56 -112q-367 -30 -593 -196q-216 -159 -216 -379q0 -206 178.5 -309.5t502.5 -103.5
q101 0 264 23zM701 -89l-68 -123l-121 75l-61 -101l-115 74l68 120l116 -73l61 109zM660 -308l-67 -126l-113 74l68 122z" />
    <glyph glyph-name="uniFB7B" unicode="&#x686;" horiz-adv-x="1099" arabic-form="final" 
d="M1115 50h-137q-196 0 -267.5 25t-71.5 95q0 50 28 144q-265 -54 -427 -199.5t-162 -332.5q0 -205 175 -317t481 -112q115 0 361 24l11 -24l-399 -129q-278 0 -425 59q-271 96 -271 398q0 395 419 650q-146 28 -193 28q-80 0 -157 -14l26 104q98 54 189 54
q34 0 190.5 -23.5t345.5 -23.5q55 0 113 4l-58 -115q-62 -6 -179 -25q22 -91 105 -119q49 -18 166 -18h137v-133zM701 -89l-68 -123l-121 75l-61 -101l-115 74l68 120l116 -73l61 109zM660 -308l-67 -126l-113 74l68 122z" />
    <glyph glyph-name="uniFB7C" unicode="&#x686;" horiz-adv-x="1099" arabic-form="initial" 
d="M1025 385l-38 -118h-46q-44 0 -114.5 5.5t-105.5 5.5q-129 0 -259 -60q-100 -54 -201 -109q-108 -59 -184 -59h-77v133h77q96 0 242 55q183 69 212 76q-29 6 -146 58q-97 43 -162 43q-52 0 -135 -25l-7 -2q55 176 203 176q65 0 243 -91q174 -88 408 -88h90zM718 -82
l-68 -122l-121 74l-60 -101l-116 74l68 119l117 -72l60 109zM678 -301l-67 -126l-114 74l68 122z" />
    <glyph glyph-name="uniFB7D" unicode="&#x686;" horiz-adv-x="1200" arabic-form="medial" 
d="M1215 50h-93q-191 0 -266 25q-78 27 -78 95q0 50 24 110h-45q-150 0 -291 -60q-35 -15 -210 -111q-107 -59 -179 -59h-77v133h77q92 0 207 47q155 64 275 90l-174 64q-100 35 -164 35q-60 0 -140 -25q40 176 201 176q40 0 213 -72q188 -79 350 -96q69 -8 209 -8l-29 -110
q-45 -6 -88 -6q-51 0 -86 2q10 -72 112 -90q36 -7 159 -7h93v-133zM718 -82l-68 -122l-121 74l-60 -101l-116 74l68 119l117 -72l60 109zM678 -301l-67 -126l-114 74l68 122z" />
    <glyph glyph-name="uniFB8A" unicode="&#x698;" horiz-adv-x="499" arabic-form="isolated" 
d="M435 131q0 -211 -126 -376t-287 -165q-91 0 -243 69l19 19q71 -17 116 -17q98 0 183 54q120 77 201 172.5t81 162.5q0 45 -46.5 135t-46.5 119q0 21 18 55l43 82q88 -125 88 -310zM327 966l-68 -122l-113 70l68 126zM471 770l-68 -120l-117 73l-60 -109l-120 82l68 122
l121 -75l60 101z" />
    <glyph glyph-name="uniFB8B" unicode="&#x698;" horiz-adv-x="499" arabic-form="final" 
d="M520 50h-145q-28 -226 -132.5 -362t-250.5 -136q-70 0 -237 53l19 20q43 -7 67 -7q155 0 292 110.5t187 278.5l-84 135l58 117q69 -76 113 -76h113v-133zM278 771l-69 -122l-112 71l67 125zM422 576l-69 -120l-116 72l-61 -109l-120 82l69 122l121 -75l60 101z" />
    <glyph glyph-name="uniFB8E" unicode="&#x6a9;" horiz-adv-x="1501" arabic-form="isolated" 
d="M1840 1277l-61 -135q-374 -123 -613 -220q-272 -110 -272 -152q0 -19 150 -99q258 -135 258 -380q0 -75 -31 -122q-23 -36 -87 -82q-110 -81 -342 -134q-227 -51 -453 -51q-382 0 -382 273q0 95 55 238l23 -7q-23 -62 -23 -141q0 -88 105.5 -146t268.5 -58q326 0 597 98
q228 82 228 138q0 52 -97 143q-91 84 -176 124q-94 44 -114.5 67.5t-20.5 91.5q0 85 21 122q19 34 189 124q273 145 777 308z" />
    <glyph glyph-name="uniFB8F" unicode="&#x6a9;" horiz-adv-x="1801" arabic-form="final" 
d="M1815 50h-96q-41 0 -87 32q-38 26 -142 121l-119 109q-81 69 -150 110q7 -30 7 -63q0 -160 -107 -281q-64 -71 -279 -123q-218 -53 -456 -53q-382 0 -382 273q0 95 55 238l23 -7q-23 -62 -23 -141q0 -88 105.5 -146t268.5 -58q268 0 498 68q268 79 268 202q0 74 -110 164
q-107 87 -235 125q-92 125 -92 193q0 65 48.5 124t180.5 151q249 176 700 381l-39 -138q-417 -199 -647 -342q-203 -126 -203 -169q0 -34 106 -76q203 -79 390 -221q40 -31 260 -223q133 -117 176 -117h81v-133z" />
    <glyph glyph-name="uniFB90" unicode="&#x6a9;" horiz-adv-x="701" arabic-form="initial" 
d="M1052 1277l-61 -135q-374 -123 -613 -220q-272 -110 -272 -152q0 -19 150 -99q118 -61 188 -163t70 -217q0 -241 -385 -241h-129v133h173q105 0 197 30q103 34 103 84q0 52 -97 143q-91 84 -176 124q-94 44 -114.5 67.5t-20.5 91.5q0 85 21 122q19 34 189 124
q273 145 777 308z" />
    <glyph glyph-name="uniFB91" unicode="&#x6a9;" horiz-adv-x="1099" arabic-form="medial" 
d="M1117 50h-113q-40 0 -87 32q-38 26 -141 121l-119 109q-82 69 -151 110q8 -30 8 -63q0 -309 -401 -309h-113v133h119q151 0 258 42t107 106q0 74 -110 164q-107 87 -234 125q-93 125 -93 193q0 65 48.5 124t180.5 151q250 176 701 381l-40 -138q-417 -199 -647 -342
q-203 -126 -203 -169q0 -34 107 -76q202 -79 389 -221q41 -31 261 -223q133 -117 176 -117h97v-133z" />
    <glyph glyph-name="uniFB92" unicode="&#x6af;" horiz-adv-x="1501" arabic-form="isolated" 
d="M1842 1277l-61 -135q-374 -123 -613 -220q-272 -110 -272 -152q0 -19 150 -99q258 -135 258 -380q0 -75 -31 -122q-23 -36 -87 -82q-110 -81 -342 -134q-227 -51 -453 -51q-382 0 -382 273q0 95 55 238l23 -7q-23 -62 -23 -141q0 -88 105.5 -146t268.5 -58q326 0 597 98
q228 82 228 138q0 52 -97 143q-91 84 -176 124q-94 44 -114.5 67.5t-20.5 91.5q0 85 21 122q33 60 192 128q143 62 286 126q219 92 488 178zM1810 1560l-45 -123q-229 -79 -570 -237q-288 -133 -302 -133q-20 0 -20 21q0 59 328 222q322 160 609 250z" />
    <glyph glyph-name="uniFB93" unicode="&#x6af;" horiz-adv-x="1801" arabic-form="final" 
d="M1820 50h-102q-41 0 -87 32q-38 26 -142 121l-119 109q-81 69 -150 110q7 -30 7 -63q0 -160 -107 -281q-64 -71 -279 -123q-218 -53 -456 -53q-382 0 -382 273q0 95 55 238l23 -7q-23 -62 -23 -141q0 -88 105.5 -146t268.5 -58q268 0 498 68q268 79 268 202
q0 74 -110 164q-107 87 -235 125q-92 125 -92 193q0 65 48.5 124t180.5 151q249 176 700 381l-39 -138q-417 -199 -647 -342q-203 -126 -203 -169q0 -34 106 -76q203 -79 390 -221q40 -31 260 -223q133 -117 176 -117h87v-133zM1617 1772l-27 -141q-176 -92 -511 -307
q-288 -185 -299 -185q-25 0 -25 17q0 51 346 295q338 239 516 321z" />
    <glyph glyph-name="uniFB94" unicode="&#x6af;" horiz-adv-x="701" arabic-form="initial" 
d="M1052 1277l-61 -135q-374 -123 -613 -220q-272 -110 -272 -152q0 -19 150 -99q118 -61 188 -163t70 -217q0 -241 -385 -241h-129v133h173q105 0 197 30q103 34 103 84q0 52 -97 143q-91 84 -176 124q-94 44 -114.5 67.5t-20.5 91.5q0 85 21 122q19 34 189 124
q273 145 777 308zM1020 1560l-45 -123q-229 -79 -570 -237q-288 -133 -302 -133q-20 0 -20 21q0 59 328 222q322 160 609 250z" />
    <glyph glyph-name="uniFB95" unicode="&#x6af;" horiz-adv-x="1099" arabic-form="medial" 
d="M1117 50h-113q-40 0 -87 32q-38 26 -141 121l-119 109q-82 69 -151 110q8 -30 8 -63q0 -309 -401 -309h-113v133h119q151 0 258 42t107 106q0 74 -110 164q-107 87 -234 125q-93 125 -93 193q0 65 48.5 124t180.5 151q250 176 701 381l-40 -138q-417 -199 -647 -342
q-203 -126 -203 -169q0 -34 107 -76q202 -79 389 -221q41 -31 261 -223q133 -117 176 -117h97v-133zM898 1746l-28 -128q-215 -110 -531 -313q-267 -172 -280 -174h-5q-15 0 -19 18v4q0 60 295 262q296 202 568 331z" />
    <glyph glyph-name="uniFBA4" unicode="&#x6c0;" horiz-adv-x="600" arabic-form="isolated" 
d="M507 304q0 -119 -70 -197.5t-174 -78.5q-74 0 -121.5 53.5t-47.5 135.5q0 88 61 213t85.5 159.5t51.5 34.5q64 0 133 -88q82 -103 82 -232zM438 278q0 27 -51 69q-82 66 -144 66q-39 0 -63.5 -41.5t-24.5 -98.5q0 -75 117 -75q70 0 118 22.5t48 57.5zM472 907
q-6 -31 -11 -41q-9 -26 -26 -31l-304 -87q10 42 32 60q19 16 80 38q-73 35 -73 86q0 23 19 48q94 130 179 130q57 0 57 -61q0 -27 -32 -75q-56 36 -89 36q-31 0 -74 -36q88 -83 157 -83q27 0 85 16z" />
    <glyph glyph-name="uniFBA5" unicode="&#x6c0;" horiz-adv-x="701" arabic-form="final" 
d="M716 50h-153q-100 0 -137 241l-66 -62q-50 -39 -99 -39q-68 0 -121.5 21t-53.5 48q0 17 50 122q51 109 236 202v19q0 69 45 155l67 -406q28 -168 79 -168h153v-133zM417 359l-27 155q-132 -45 -194 -153q54 -23 146 -23q37 0 75 21zM484 907q-6 -31 -11 -41
q-10 -26 -26 -31l-304 -87q10 42 32 60q19 16 79 38q-72 35 -72 86q0 23 18 48q95 130 180 130q57 0 57 -61q0 -27 -32 -75q-56 36 -89 36q-31 0 -74 -36q88 -83 156 -83q28 0 86 16z" />
    <glyph glyph-name="uniFBAA" unicode="&#x6be;" horiz-adv-x="1167" arabic-form="isolated" 
d="M1080 246q-56 118 -207 234q-20 -116 -74 -187q161 -47 256 -47h25zM812 406q0 31 -23 66t-51 35q-35 0 -78.5 -42.5t-43.5 -76.5q0 -25 41 -43l79 -31q76 39 76 92zM209 50q-77 0 -145 57q-64 52 -64 127v12q98 -65 187 -65q8 0 17 1h213q97 1 169 57q-33 40 -33 75
q0 89 136 256q-21 7 -41 7q-19 0 -32 -2q26 158 106 158q43 0 120.5 -56t149.5 -141q125 -145 125 -245q0 -155 -102 -155q-49 0 -168.5 27t-155.5 46q-52 -45 -105 -89q-93 -70 -167 -70h-210z" />
    <glyph glyph-name="uniFBAB" unicode="&#x6be;" horiz-adv-x="1099" arabic-form="final" 
d="M813 392q0 25 -18.5 47.5t-39.5 22.5q-98 0 -185 -236q243 67 243 166zM843 -165q0 61 -77 114.5t-203 80.5q35 -247 178 -247q39 0 70.5 15t31.5 37zM209 50q-77 0 -129 58l-80 109q195 -34 261 -34h104q12 0 158 29q64 166 151.5 288t138.5 122q54 0 54 -129
q0 -120 -47 -200q-43 -73 -147 -142q139 32 326 32h117v-133h-117q-46 0 -179 -16q63 -76 63 -144q0 -107 -49.5 -182.5t-121.5 -75.5q-82 0 -139 118.5t-61 283.5q-83 16 -147 16h-156z" />
    <glyph glyph-name="uniFBAC" unicode="&#x6be;" horiz-adv-x="900" arabic-form="initial" 
d="M836 291q0 -155 -102 -155q-49 0 -168.5 27t-155.5 46q-52 -45 -105 -89q-93 -70 -167 -70h-138v133h137q96 0 168 56q-33 40 -33 75q0 89 136 256q-21 7 -41 7q-19 0 -32 -2q26 158 106 158q43 0 120.5 -56t149.5 -141q125 -145 125 -245zM799 246q-56 118 -207 234
q-20 -116 -74 -187q161 -47 256 -47h25zM531 406q0 31 -23 66t-51 35q-35 0 -78.5 -42.5t-43.5 -76.5q0 -25 41 -43l79 -31q76 39 76 92z" />
    <glyph glyph-name="uniFBAD" unicode="&#x6be;" horiz-adv-x="798" arabic-form="medial" 
d="M818 50h-107q-47 0 -180 -16q64 -76 64 -145q0 -107 -49.5 -182.5t-121.5 -75.5q-82 0 -139 118.5t-62 284.5q-82 16 -146 16h-77v133h77q12 0 157 29q65 166 152.5 288t138.5 122q54 0 54 -129q0 -120 -48 -200q-43 -73 -146 -142q139 32 326 32h107v-133zM525 392
q0 25 -19 47.5t-40 22.5q-97 0 -184 -236q243 67 243 166zM554 -166q0 61 -77 115t-202 81q35 -248 178 -248q39 0 70 15t31 37z" />
    <glyph glyph-name="uniFBD3" unicode="&#x6ad;" horiz-adv-x="1001" arabic-form="isolated" 
d="M923 314q0 -115 -51.5 -191t-126.5 -80q-289 -13 -344 -13q-199 0 -259 9q-113 15 -113 74q0 72 34 154h22q0 -76 110 -90q-5 2 165 2q186 0 425 17q82 7 82 56q0 59 -80.5 468.5t-80.5 438.5q0 93 56 127l88 -123q-48 -37 -50 -113v-1q0 -26 61 -316q62 -299 62 -419z
M555 584q0 -63 -56 -124q-63 -69 -148 -69q-59 0 -150 58q238 21 238 67q0 22 -73 28q-82 5 -82 62q0 53 57 145q65 102 143 145l16 -107q-115 -52 -115 -82q0 -31 68 -35q102 -19 102 -88zM423 1291l-72 -115l-109 70l69 122zM560 1095l-67 -122l-117 81l-68 -105l-108 78
l68 117l114 -77l64 105z" />
    <glyph glyph-name="uniFBD4" unicode="&#x6ad;" horiz-adv-x="1501" arabic-form="final" 
d="M1518 50h-92q-177 0 -197 247q-62 -168 -142 -230q-89 -68 -277 -116.5t-367 -48.5q-437 0 -437 262q0 94 54 255l25 -4q-21 -69 -21 -124q0 -106 101.5 -168t272.5 -62q283 0 566 88q109 34 155.5 96.5t46.5 173.5q0 107 -45 629q-2 25 -2 88q0 49 23 74q38 -28 45 -120
q7 -96 47 -610q15 -187 61 -253q31 -44 90 -44h93v-133zM779 540q0 -63 -56 -124q-62 -69 -147 -69q-60 0 -151 58q239 21 239 67q0 22 -74 28q-81 5 -81 62q0 53 57 145q65 102 143 145l15 -107q-114 -52 -114 -82q0 -31 67 -35q102 -19 102 -88zM652 1261l-72 -114
l-109 69l69 122zM789 1065l-67 -122l-118 81l-67 -105l-109 78l69 118l114 -77l64 104z" />
    <glyph glyph-name="uniFBD5" unicode="&#x6ad;" horiz-adv-x="701" arabic-form="initial" 
d="M1052 1277l-61 -135q-374 -123 -613 -220q-272 -110 -272 -152q0 -19 150 -99q118 -61 188 -163t70 -217q0 -241 -385 -241h-129v133h173q105 0 197 30q103 34 103 84q0 52 -97 143q-91 84 -176 124q-94 44 -114.5 67.5t-20.5 91.5q0 85 21 122q19 34 189 124
q273 145 777 308zM559 1538l-72 -115l-109 70l69 122zM696 1342l-67 -122l-117 81l-68 -105l-108 78l68 117l114 -77l64 105z" />
    <glyph glyph-name="uniFBD6" unicode="&#x6ad;" horiz-adv-x="1099" arabic-form="medial" 
d="M1118 50h-114q-40 0 -87 32q-38 26 -141 121l-119 109q-82 69 -151 110q8 -30 8 -63q0 -309 -401 -309h-113v133h119q151 0 258 42t107 106q0 74 -110 164q-107 87 -234 125q-93 125 -93 193q0 65 48.5 124t180.5 151q250 176 701 381l-40 -138q-417 -199 -647 -342
q-203 -126 -203 -169q0 -34 107 -76q202 -79 389 -221q41 -31 261 -223q133 -117 176 -117h98v-133zM503 1672l-72 -114l-109 69l69 122zM640 1476l-67 -122l-118 82l-67 -106l-109 78l69 118l114 -77l64 104z" />
    <glyph glyph-name="uniFBD7" unicode="&#x6c7;" horiz-adv-x="600" arabic-form="isolated" 
d="M511 217q0 -265 -130 -478t-292 -213q-102 0 -268 88l20 17q67 -26 133 -26q157 0 300 136q82 77 132 181q50 99 50 182q0 50 -22 88q-54 -75 -106 -75q-53 0 -92 40t-39 95q0 62 67 204q45 94 102 94q58 0 101.5 -100t43.5 -233zM377 324q-18 48 -59 48q-37 0 -37 -41
q0 -47 41 -47q39 0 55 40zM294 821q36 43 36 73q0 5 -1 9q-48 13 -67 28q-30 24 -32 66v6q0 38 23 65q27 32 66 35h7q35 0 64 -24q44 -38 44 -102v-19q-8 -77 -71 -150q-30 -38 -67 -64l-42 41q22 16 40 36z" />
    <glyph glyph-name="uniFBD8" unicode="&#x6c7;" horiz-adv-x="701" arabic-form="final" 
d="M716 50h-225q-54 -212 -124 -322q-129 -202 -302 -202q-93 0 -257 92l19 20q77 -31 131 -31q165 0 308.5 131t178.5 312h-35q-95 0 -155.5 31.5t-60.5 82.5q0 61 85 202q46 75 88 75q48 0 86.5 -76t42.5 -182h220v-133zM437 183q-34 121 -108 121q-15 0 -32.5 -15
t-17.5 -37q0 -28 42 -47q44 -22 116 -22zM309 722q36 44 36 74q0 4 -1 8q-49 13 -67 28q-30 24 -32 66v6q0 38 23 65q26 32 66 35h6q36 0 64 -24q45 -38 45 -102v-19q-8 -77 -71 -150q-31 -38 -67 -64l-42 41q22 16 40 36z" />
    <glyph glyph-name="uniFBD9" unicode="&#x6c6;" horiz-adv-x="600" arabic-form="isolated" 
d="M511 217q0 -265 -130 -478t-292 -213q-102 0 -268 88l20 17q67 -26 133 -26q157 0 300 136q82 77 132 181q50 99 50 182q0 50 -22 88q-54 -75 -106 -75q-53 0 -92 40t-39 95q0 62 67 204q45 94 102 94q58 0 101.5 -100t43.5 -233zM377 324q-18 48 -59 48q-37 0 -37 -41
q0 -47 41 -47q39 0 55 40zM523 1029l-137 -324l-48 -6l-188 288l20 61l177 -202l140 240z" />
    <glyph glyph-name="uniFBDA" unicode="&#x6c6;" horiz-adv-x="701" arabic-form="final" 
d="M716 50h-225q-54 -212 -124 -322q-129 -202 -302 -202q-93 0 -257 92l19 20q77 -31 131 -31q165 0 308.5 131t178.5 312h-35q-95 0 -155.5 31.5t-60.5 82.5q0 61 85 202q46 75 88 75q48 0 86.5 -76t42.5 -182h220v-133zM437 183q-34 121 -108 121q-15 0 -32.5 -15
t-17.5 -37q0 -28 42 -47q44 -22 116 -22zM523 920l-137 -324l-48 -6l-188 288l20 61l177 -202l140 240z" />
    <glyph glyph-name="uniFBDB" unicode="&#x6c8;" horiz-adv-x="600" arabic-form="isolated" 
d="M511 217q0 -265 -130 -478t-292 -213q-102 0 -268 88l20 17q67 -26 133 -26q157 0 300 136q82 77 132 181q50 99 50 182q0 50 -22 88q-54 -75 -106 -75q-53 0 -92 40t-39 95q0 62 67 204q45 94 102 94q58 0 101.5 -100t43.5 -233zM377 324q-18 48 -59 48q-37 0 -37 -41
q0 -47 41 -47q39 0 55 40zM398 828q0 -65 -56 -154l-8 4q2 45 2 65q0 146 -34 356q23 44 55 103q41 -218 41 -374z" />
    <glyph glyph-name="uniFBDC" unicode="&#x6c8;" horiz-adv-x="701" arabic-form="final" 
d="M716 50h-225q-54 -212 -124 -322q-129 -202 -302 -202q-93 0 -257 92l19 20q77 -31 131 -31q165 0 308.5 131t178.5 312h-35q-95 0 -155.5 31.5t-60.5 82.5q0 61 85 202q46 75 88 75q48 0 86.5 -76t42.5 -182h220v-133zM437 183q-34 121 -108 121q-15 0 -32.5 -15
t-17.5 -37q0 -28 42 -47q44 -22 116 -22zM398 758q0 -65 -56 -154l-8 4q2 45 2 65q0 146 -34 356q23 44 55 103q41 -218 41 -374z" />
    <glyph glyph-name="uniFBDD" unicode="&#x677;" horiz-adv-x="900" arabic-form="isolated" 
d="M511 217q0 -265 -130 -478t-292 -213q-102 0 -268 88l20 17q67 -26 133 -26q157 0 300 136q82 77 132 181q50 99 50 182q0 50 -22 88q-54 -75 -106 -75q-53 0 -92 40t-39 95q0 62 67 204q45 94 102 94q58 0 101.5 -100t43.5 -233zM377 324q-18 48 -59 48q-37 0 -37 -41
q0 -47 41 -47q39 0 55 40zM294 821q36 43 36 73q0 5 -1 9q-48 13 -67 28q-30 24 -32 66v6q0 38 23 65q27 32 66 35h7q35 0 64 -24q44 -38 44 -102v-19q-8 -77 -71 -150q-30 -38 -67 -64l-42 41q22 16 40 36zM898 897q-7 -30 -11 -40q-10 -27 -27 -31l-303 -87q9 42 31 59
q19 17 80 39q-73 35 -73 86q0 23 19 48q94 130 179 130q57 0 57 -62q0 -26 -32 -74q-56 36 -89 36q-31 0 -73 -36q88 -83 156 -83q27 0 86 15z" />
    <glyph glyph-name="uniFBDE" unicode="&#x6cb;" horiz-adv-x="600" arabic-form="isolated" 
d="M511 217q0 -265 -130 -478t-292 -213q-102 0 -268 88l20 17q67 -26 133 -26q157 0 300 136q82 77 132 181q50 99 50 182q0 50 -22 88q-54 -75 -106 -75q-53 0 -92 40t-39 95q0 62 67 204q45 94 102 94q58 0 101.5 -100t43.5 -233zM377 324q-18 48 -59 48q-37 0 -37 -41
q0 -47 41 -47q39 0 55 40zM353 1024l-68 -122l-112 71l67 125zM497 829l-68 -120l-117 72l-60 -109l-120 82l68 122l121 -75l61 101z" />
    <glyph glyph-name="uniFBDF" unicode="&#x6cb;" horiz-adv-x="701" arabic-form="final" 
d="M716 50h-225q-54 -212 -124 -322q-129 -202 -302 -202q-93 0 -257 92l19 20q77 -31 131 -31q165 0 308.5 131t178.5 312h-35q-95 0 -155.5 31.5t-60.5 82.5q0 61 85 202q46 75 88 75q48 0 86.5 -76t42.5 -182h220v-133zM437 183q-34 121 -108 121q-15 0 -32.5 -15
t-17.5 -37q0 -28 42 -47q44 -22 116 -22zM367 931l-68 -122l-112 71l67 125zM511 736l-68 -120l-117 72l-60 -109l-120 82l68 122l121 -75l61 101z" />
    <glyph glyph-name="uniFBE0" unicode="&#x6c5;" horiz-adv-x="701" arabic-form="isolated" 
d="M474 -172q-85 17 -149 17q-44 0 -78 -8q-87 -23 -118 -66q-25 -34 -25 -70q0 -10 2 -19q8 -46 77 -64q8 -2 17 -2q69 0 195 121l56 58zM497 322q-18 48 -58 48q-38 0 -38 -40q0 -48 41 -48q40 0 55 40zM571 42q6 29 6 60q0 50 -23 88q-54 -75 -105 -75q-53 0 -92 40
t-39 94q0 63 67 206q45 94 101 94q58 0 101.5 -101t43.5 -234q0 -89 -14 -172q-28 -164 -114 -307q-131 -215 -295 -215q-101 0 -155 47q-51 43 -51 110v11q4 74 46 125.5t104 71.5q56 18 132 18h15q78 -5 193 -50l11 14l24 51q32 66 44 124z" />
    <glyph glyph-name="uniFBE1" unicode="&#x6c5;" horiz-adv-x="799" arabic-form="final" 
d="M578 183q-34 122 -108 122q-16 0 -34.5 -15.5t-18.5 -37.5q0 -27 43 -46q43 -23 118 -23zM489 -170q-82 15 -144 15q-49 0 -85 -9q-88 -21 -119 -64q-25 -35 -25 -71q0 -10 2 -20q8 -48 77 -64q7 -2 16 -2q68 0 198 123l56 58zM588 48h-39q-93 0 -154.5 31.5t-61.5 83.5
q0 62 84 204q48 78 88 78q52 0 91 -77t40 -185h184v-135h-187q-31 -172 -116 -313q-132 -216 -297 -216q-102 0 -157 48q-51 43 -51 108v13q5 73 47.5 124.5t105.5 72.5q54 17 126 17h21q78 -4 193 -49l12 15l25 50q32 64 46 130z" />
    <glyph glyph-name="uniFBE2" unicode="&#x6c9;" horiz-adv-x="600" arabic-form="isolated" 
d="M511 217q0 -265 -130 -478t-292 -213q-102 0 -268 88l20 17q67 -26 133 -26q157 0 300 136q82 77 132 181q50 99 50 182q0 50 -22 88q-54 -75 -106 -75q-53 0 -92 40t-39 95q0 62 67 204q45 94 102 94q58 0 101.5 -100t43.5 -233zM377 324q-18 48 -59 48q-37 0 -37 -41
q0 -47 41 -47q39 0 55 40zM150 756l137 324l48 6l188 -288l-20 -61l-177 202l-140 -240z" />
    <glyph glyph-name="uniFBE3" unicode="&#x6c9;" horiz-adv-x="701" arabic-form="final" 
d="M716 50h-225q-54 -212 -124 -322q-129 -202 -302 -202q-93 0 -257 92l19 20q77 -31 131 -31q165 0 308.5 131t178.5 312h-35q-95 0 -155.5 31.5t-60.5 82.5q0 61 85 202q46 75 88 75q48 0 86.5 -76t42.5 -182h220v-133zM437 183q-34 121 -108 121q-15 0 -32.5 -15
t-17.5 -37q0 -28 42 -47q44 -22 116 -22zM150 647l137 324l48 6l188 -288l-20 -61l-177 202l-140 -240z" />
    <glyph glyph-name="uniFBE4" unicode="&#x6d0;" horiz-adv-x="1200" arabic-form="isolated" 
d="M1144 751l-32 -160q-41 41 -88 41q-88 0 -209.5 -80.5t-121.5 -172.5q0 -76 129 -99l165 -30q98 -18 98 -71q0 -87 -35 -145q-56 -90 -268.5 -177.5t-380.5 -87.5q-183 0 -288 80t-105 218q0 112 56 241q29 67 116 221l25 -19q-120 -229 -120 -338q0 -114 97.5 -183.5
t258.5 -69.5q159 0 371 78q199 74 199 113q0 31 -56 39l-154 21q-189 25 -189 148q0 106 169 286q150 160 291 160q32 0 72 -13zM523 -271l119 -73l-82 -114l103 -64l-86 -114l-111 69l81 116l-103 67z" />
    <glyph glyph-name="uniFBE5" unicode="&#x6d0;" horiz-adv-x="1099" arabic-form="final" 
d="M1115 50h-201q-98 0 -157 -29.5t-59 -73.5q0 -32 67 -45l92 -19q136 -27 136 -144q0 -130 -215 -224q-194 -86 -405 -86q-173 0 -270 85.5t-97 238.5q0 156 118 372l20 -17q-82 -172 -82 -267q0 -121 90.5 -191.5t245.5 -70.5q147 0 343 57q200 57 200 103q0 49 -88 57
l-155 13q-101 9 -101 72q0 104 100 201q103 101 231 101h187v-133zM510 -567l108 -42l-74 -68l91 -37l-77 -68l-100 41l73 68l-94 40z" />
    <glyph glyph-name="uniFBE6" unicode="&#x6d0;" horiz-adv-x="401" arabic-form="initial" 
d="M330 345q0 -295 -213 -295h-117v133h117q57 0 108 23q56 25 56 61q0 17 -11 35l-47 77q-16 25 -16 47q0 23 13 43l61 92q49 -109 49 -216zM163 -92l119 -72l-81 -115l102 -63l-86 -115l-111 69l81 116l-103 67z" />
    <glyph glyph-name="uniFBE7" unicode="&#x6d0;" horiz-adv-x="499" arabic-form="medial" 
d="M514 50h-174q-24 0 -57 43t-35 83q-66 -126 -171 -126h-77v133h77q98 0 211 155l13 -4q13 -86 28 -115q21 -36 70 -36h115v-133zM224 -92l119 -72l-81 -115l102 -63l-86 -115l-111 69l82 116l-104 67z" />
    <glyph glyph-name="uniFBE8" unicode="&#x649;" horiz-adv-x="401" arabic-form="initial" 
d="M320 345q0 -295 -213 -295h-107v133h107q57 0 108 23q56 25 56 61q0 17 -11 35l-47 77q-16 25 -16 47q0 23 13 43l61 92q49 -109 49 -216z" />
    <glyph glyph-name="uniFBE9" unicode="&#x649;" horiz-adv-x="499" arabic-form="medial" 
d="M514 50h-174q-24 0 -57 43t-35 83q-66 -126 -171 -126h-77v133h77q98 0 211 155l13 -4q13 -86 28 -115q21 -36 70 -36h115v-133z" />
    <glyph glyph-name="uniFBFC" unicode="&#x6cc;" horiz-adv-x="1200" arabic-form="isolated" 
d="M1135 751l-32 -160q-41 41 -88 41q-88 0 -209.5 -80.5t-121.5 -172.5q0 -76 129 -99l165 -30q98 -18 98 -71q0 -87 -35 -145q-56 -90 -268.5 -177.5t-380.5 -87.5q-183 0 -288 80t-105 218q0 112 56 241q29 67 116 221l25 -19q-120 -229 -120 -338q0 -114 97.5 -183.5
t258.5 -69.5q159 0 371 78q199 74 199 113q0 31 -56 39l-154 21q-189 25 -189 148q0 106 169 286q150 160 291 160q32 0 72 -13z" />
    <glyph glyph-name="uniFBFD" unicode="&#x6cc;" horiz-adv-x="1099" arabic-form="final" 
d="M1119 50h-211q-98 0 -157 -29.5t-59 -73.5q0 -32 67 -45l92 -19q136 -27 136 -144q0 -130 -215 -224q-194 -86 -405 -86q-173 0 -270 85.5t-97 238.5q0 156 118 372l20 -17q-82 -172 -82 -267q0 -121 90.5 -191.5t245.5 -70.5q147 0 343 57q200 57 200 103q0 49 -88 57
l-155 13q-101 9 -101 72q0 104 100 201q103 101 231 101h197v-133z" />
    <glyph glyph-name="uniFBFE" unicode="&#x6cc;" horiz-adv-x="499" arabic-form="initial" 
d="M422 345q0 -295 -214 -295h-207v133h207q57 0 108 23q56 25 56 61q0 17 -11 35l-47 77q-16 25 -16 47q0 23 14 43l60 92q50 -109 50 -216zM408 -117l-73 -117l-117 75l-66 -102l-114 70l67 119l122 -74l61 102z" />
    <glyph glyph-name="uniFBFF" unicode="&#x6cc;" horiz-adv-x="499" arabic-form="medial" 
d="M514 50h-174q-24 0 -57 43t-35 83q-66 -126 -171 -126h-77v133h77q98 0 211 155l13 -4q13 -86 28 -115q21 -36 70 -36h115v-133zM430 -166l-72 -119l-115 81l-63 -102l-115 86l69 111l116 -82l67 104z" />
    <glyph glyph-name="uniFC5E" unicode="&#xfc5e;" arabic-form="isolated" 
d="M420 1520q0 -168 -104 -168q-35 0 -64 21q-8 -34 -39 -60t-65 -26q-82 0 -82 108q0 22 22 101l23 4q0 -111 39 -111q64 0 90 162l18 6q23 -98 58 -98q58 0 67 147l23 10q14 -55 14 -96zM412 1353q-15 -66 -59 -86l-283 -127q28 73 86 99zM412 1236q-15 -61 -66 -84
l-276 -122q20 70 72 92z" />
    <glyph glyph-name="uniFC5F" unicode="&#xfc5f;" arabic-form="isolated" 
d="M431 1714q0 -82 -27 -134q-32 -58 -87 -58q-19 0 -35.5 6.5t-36.5 21.5q-23 -39 -42 -59q-35 -34 -73 -34q-45 0 -67.5 30.5t-22.5 84.5q0 28 7.5 55t21.5 61l23 10q0 -8 -2.5 -27.5t-2.5 -32.5q0 -23 10 -42.5t29 -19.5q46 0 75 61q12 28 32 109l23 6q8 -53 13 -65
q14 -33 43 -33q42 0 65 54q20 43 20 90l22 6q5 -21 8.5 -46t3.5 -44zM414 1457q0 -50 -54 -96q-98 -40 -314 -126q0 46 47 89q90 38 321 133zM414 1296q0 -52 -14 -64.5t-39 -33.5q-99 -41 -315 -127q0 46 47 89q90 39 321 136z" />
    <glyph glyph-name="uniFC60" unicode="&#xfc60;" arabic-form="isolated" 
d="M408 1552q0 -66 -35 -86l-303 -172q3 41 14.5 59.5t51.5 41.5zM420 1263q0 -168 -104 -168q-35 0 -64 21q-8 -34 -39 -60t-65 -26q-82 0 -82 108q0 22 22 101l23 4q0 -111 39 -111q64 0 90 162l18 6q23 -98 58 -98q58 0 67 147l23 10q14 -55 14 -96z" />
    <glyph glyph-name="uniFC61" unicode="&#xfc61;" arabic-form="isolated" 
d="M414 1503l-8 -99l-80 52q-120 -144 -197 -144q-19 0 -59 12q102 57 213 156q-61 45 -61 90q0 60 45 125q30 43 71 43q68 0 68 -88q0 -48 -31 -117q14 -10 39 -30zM420 1263q0 -168 -104 -168q-35 0 -64 21q-8 -34 -39 -60t-65 -26q-82 0 -82 108q0 22 22 101l23 4
q0 -111 39 -111q64 0 90 162l18 6q23 -98 58 -98q58 0 67 147l23 10q14 -55 14 -96zM344 1591q0 23 -16 42t-37 19q-18 0 -18 -20q0 -31 65 -75q6 20 6 34z" />
    <glyph glyph-name="uniFC62" unicode="&#xfc62;" arabic-form="isolated" 
d="M420 1491q0 -168 -104 -168q-35 0 -64 21q-8 -34 -39 -60t-65 -26q-82 0 -82 108q0 22 22 101l23 4q0 -111 39 -111q64 0 90 162l18 6q23 -98 58 -98q58 0 67 147l23 10q14 -55 14 -96zM408 1288q0 -66 -35 -86l-303 -172q3 41 14.5 59.5t51.5 41.5z" />
    <glyph glyph-name="uniFCF2" unicode="&#xfcf2;" horiz-adv-x="599" arabic-form="medial" 
d="M491 1615q0 -72 -39 -94l-333 -190q3 45 16 65.5t57 45.5zM504 1297q0 -185 -114 -185q-39 0 -71 24q-9 -38 -43 -66.5t-71 -28.5q-90 0 -90 119q0 24 24 111l25 4q0 -122 43 -122q70 0 99 178l20 7q25 -108 64 -108q63 0 73 162l26 11q15 -61 15 -106zM611 50h-621v133
h621v-133z" />
    <glyph glyph-name="uniFCF3" unicode="&#xfcf3;" horiz-adv-x="599" arabic-form="medial" 
d="M484 1561l-8 -109l-88 58q-132 -159 -217 -159q-21 0 -65 13q112 63 234 172q-67 49 -67 99q0 66 50 137q33 48 78 48q75 0 75 -97q0 -53 -35 -129q16 -11 43 -33zM491 1297q0 -185 -114 -185q-39 0 -71 24q-9 -38 -43 -66.5t-71 -28.5q-90 0 -90 119q0 24 24 111l25 4
q0 -122 43 -122q70 0 99 178l20 7q25 -108 64 -108q63 0 73 162l26 11q15 -61 15 -106zM407 1658q0 25 -17.5 46t-40.5 21q-20 0 -20 -22q0 -34 72 -82q6 22 6 37zM611 50h-621v133h621v-133z" />
    <glyph glyph-name="uniFCF4" unicode="&#xfcf4;" horiz-adv-x="599" arabic-form="medial" 
d="M487 1548q0 -185 -114 -185q-39 0 -71 23q-9 -37 -43 -65.5t-71 -28.5q-90 0 -90 119q0 24 24 111l25 4q0 -122 43 -122q70 0 99 178l20 7q25 -108 64 -108q63 0 73 162l26 11q15 -61 15 -106zM474 1325q0 -73 -39 -95l-333 -189q3 45 16 65.5t57 45.5zM611 50h-621v133
h621v-133z" />
    <glyph glyph-name="$FDF2" unicode="&#xfdf2;" horiz-adv-x="1315" arabic-form="isolated" 
d="M622 1361l-15 -34q-53 108 -88 151q-34 39 -108 83l-45 138q90 -16 148 -97q54 -74 108 -241zM823 1151q0 -62 -33 -109.5t-76 -47.5q-23 0 -73 15q-55 -97 -114 -97q-37 0 -61.5 32t-24.5 79q0 44 17 106l16 15q0 -107 58 -107q79 0 94 173l17 7q20 -101 67 -101
q75 0 75 161l17 7q21 -76 21 -133zM1114 280q0 -98 -44 -170.5t-105 -72.5q-93 0 -169 180q-58 -195 -221 -195q-133 0 -171 163q-99 -108 -154 -108q-72 0 -130.5 24t-58.5 54q0 26 46 106.5t74 106.5q96 87 172 114q-3 25 -3 45q0 30 42 122l49 -257q19 -107 38 -142
q35 -67 114 -67q97 0 176 117q-29 107 -59 216q-36 141 -36 221q0 50 57 121l20 -112q57 -327 115 -439q50 -98 142 -98q52 0 52 50q0 23 -56.5 246.5t-56.5 238.5q0 35 38 121l59 -227q70 -264 70 -358zM392 252l-28 161q-75 -34 -104 -56q-38 -32 -77 -100q78 -27 129 -27
q30 0 80 22zM1291 325q0 -100 -58 -275l-22 6q13 88 13 120q0 83 -13 183l-57 427q-9 75 -9 111q0 87 72 232q2 -178 16 -279l45 -361q13 -106 13 -164z" />
    <glyph glyph-name="uniFE70" unicode="&#xfe70;" arabic-form="isolated" 
d="M442 1787q0 -72 -39 -94l-333 -189q3 45 16 65t57 46zM442 1627q0 -73 -39 -95l-333 -189q3 45 16 65.5t57 45.5z" />
    <glyph glyph-name="uniFE71" unicode="&#xfe71;" horiz-adv-x="599" arabic-form="medial" 
d="M498 1485q0 -72 -38 -94l-334 -189q4 45 16.5 65t56.5 46zM498 1325q0 -73 -38 -95l-334 -189q4 45 16.5 65.5t56.5 45.5zM611 50h-621v133h621v-133z" />
    <glyph glyph-name="uniFE72" unicode="&#xfe72;" arabic-form="isolated" 
d="M503 1518q0 -38 -2 -65q-44 23 -101 65q-137 -142 -264 -159q47 100 47 142q0 60 -54 60q-46 0 -54 -84q-11 35 -11 58q0 50 27 85.5t65 35.5q74 0 74 -110l-6 -102q71 28 136 99q-73 49 -73 104q0 57 44 109.5t91 52.5q25 0 49.5 -29.5t24.5 -58.5q0 -33 -12 -64
l-24 -62q43 -33 43 -77zM419 1677q0 58 -45 58q-28 0 -28 -25q0 -28 69 -76q4 13 4 43z" />
    <glyph glyph-name="uniFE74" unicode="&#xfe74;" arabic-form="isolated" 
d="M442 -235q0 -72 -39 -94l-333 -189q3 45 16 65t57 46zM442 -396q0 -73 -39 -95l-333 -189q3 45 16 65.5t57 45.5z" />
    <glyph glyph-name="uniFE76" unicode="&#xfe76;" arabic-form="isolated" 
d="M442 1787q0 -73 -39 -95l-333 -189q3 45 16 65.5t57 45.5z" />
    <glyph glyph-name="uniFE77" unicode="&#xfe77;" horiz-adv-x="599" arabic-form="medial" 
d="M492 1325q0 -73 -38 -95l-334 -189q4 45 16.5 65.5t56.5 45.5zM611 50h-621v133h621v-133z" />
    <glyph glyph-name="uniFE78" unicode="&#xfe78;" arabic-form="isolated" 
d="M448 1566l-8 -109l-88 57q-132 -158 -217 -158q-21 0 -65 13q112 63 234 172q-67 49 -67 99q0 66 50 137q33 48 78 48q75 0 75 -97q0 -53 -34 -129q15 -11 42 -33zM371 1663q0 25 -17.5 46t-40.5 21q-20 0 -20 -22q0 -34 72 -83q6 22 6 38z" />
    <glyph glyph-name="uniFE79" unicode="&#xfe79;" horiz-adv-x="599" arabic-form="medial" 
d="M443 1251l-8 -109l-88 57q-132 -158 -217 -158q-21 0 -65 13q112 63 234 172q-67 49 -67 99q0 66 50 137q33 48 78 48q75 0 75 -97q0 -53 -34 -129q15 -11 42 -33zM366 1348q0 25 -17.5 46t-40.5 21q-20 0 -20 -22q0 -34 72 -83q6 22 6 38zM611 50h-621v133h621v-133z
" />
    <glyph glyph-name="uniFE7A" unicode="&#xfe7a;" arabic-form="isolated" 
d="M442 -444q0 -72 -39 -94l-333 -189q3 45 16 65t57 46z" />
    <glyph glyph-name="uniFE7B" unicode="&#xfe7b;" horiz-adv-x="591" arabic-form="medial" 
d="M484 -170q0 -72 -38 -94l-334 -190q4 46 16.5 66t56.5 46zM611 50h-621v133h621v-133z" />
    <glyph glyph-name="uniFE7C" unicode="&#xfe7c;" arabic-form="isolated" 
d="M455 1689q0 -185 -114 -185q-38 0 -70 24q-9 -38 -43 -66.5t-72 -28.5q-90 0 -90 119q0 24 24 111l26 4q0 -122 42 -122q71 0 99 178l20 7q26 -108 64 -108q64 0 74 162l25 11q15 -61 15 -106z" />
    <glyph glyph-name="uniFE7D" unicode="&#xfe7d;" horiz-adv-x="599" arabic-form="medial" 
d="M493 1297q0 -185 -114 -185q-39 0 -71 24q-9 -38 -43 -66.5t-71 -28.5q-90 0 -90 119q0 24 24 111l25 4q0 -122 43 -122q70 0 99 178l20 7q25 -108 64 -108q63 0 73 162l26 11q15 -61 15 -106zM611 50h-621v133h621v-133z" />
    <glyph glyph-name="uniFE7E" unicode="&#xfe7e;" arabic-form="isolated" 
d="M358 1643q0 -70 -50.5 -125t-115.5 -55q-118 0 -118 133q0 92 42 151t109 59q51 0 92 -50t41 -113zM297 1617q0 27 -47 63q-45 32 -75 32q-65 0 -65 -75q0 -65 102 -65q85 0 85 45z" />
    <glyph glyph-name="uniFE7F" unicode="&#xfe7f;" horiz-adv-x="599" arabic-form="medial" 
d="M421 1221q0 -70 -50.5 -125t-115.5 -55q-118 0 -118 133q0 92 42 151t109 59q52 0 92.5 -50t40.5 -113zM361 1195q0 27 -48 63q-45 32 -74 32q-65 0 -65 -75q0 -65 101 -65q86 0 86 45zM611 50h-621v133h621v-133z" />
    <glyph glyph-name="uniFE80" unicode="&#x621;" horiz-adv-x="701" arabic-form="isolated" 
d="M613 324q-23 -85 -72 -108l-435 -208v21q0 71 205 153q-218 43 -218 148q0 84 108 217q90 112 171 112q41 0 68 -29.5t27 -71.5q0 -40 -49 -112q-46 74 -109 74q-52 0 -89 -38.5t-37 -82.5t86 -81q81 -35 171 -35q64 0 173 41z" />
    <glyph glyph-name="uniFE81" unicode="&#x622;" horiz-adv-x="300" arabic-form="isolated" 
d="M239 325q0 -100 -58 -275l-22 6q13 88 13 120q0 83 -13 183l-56 427q-10 75 -10 111q0 87 72 232q3 -178 16 -279l45 -361q13 -106 13 -164zM425 1303q-93 -102 -232 -102q-36 0 -107 20t-109 20q-33 0 -77 -23l-15 12q59 101 118 101q46 0 136 -24t137 -24t136 34z" />
    <glyph glyph-name="uniFE82" unicode="&#x622;" horiz-adv-x="499" arabic-form="final" 
d="M530 50h-154q-186 0 -205 209q-10 110 -47 427q-33 275 -33 303q0 44 79 140l71 -798q13 -148 135 -148h154v-133zM425 1303q-93 -102 -232 -102q-36 0 -107 20t-109 20q-33 0 -77 -23l-15 12q59 101 118 101q46 0 136 -24t137 -24t136 34z" />
    <glyph glyph-name="uniFE83" unicode="&#x623;" horiz-adv-x="300" arabic-form="isolated" 
d="M243 325q0 -100 -59 -275l-22 6q13 88 13 120q0 83 -13 183l-56 427q-10 75 -10 111q0 87 73 232q2 -178 15 -279l45 -361q14 -106 14 -164zM310 1360q-7 -31 -11 -41q-10 -26 -26 -31l-304 -87q10 42 32 60q19 16 79 38q-72 35 -72 86q0 23 18 48q95 130 180 130
q57 0 57 -61q0 -27 -32 -75q-56 36 -89 36q-31 0 -74 -36q88 -83 156 -83q28 0 86 16z" />
    <glyph glyph-name="uniFE84" unicode="&#x623;" horiz-adv-x="499" arabic-form="final" 
d="M530 50h-154q-186 0 -205 209q-10 110 -47 427q-33 275 -33 303q0 44 79 140l71 -798q13 -148 135 -148h154v-133zM310 1360q-7 -31 -11 -41q-10 -26 -26 -31l-304 -87q10 42 32 60q19 16 79 38q-72 35 -72 86q0 23 18 48q95 130 180 130q57 0 57 -61q0 -27 -32 -75
q-56 36 -89 36q-31 0 -74 -36q88 -83 156 -83q28 0 86 16z" />
    <glyph glyph-name="uniFE85" unicode="&#x624;" horiz-adv-x="600" arabic-form="isolated" 
d="M511 217q0 -265 -130 -478t-292 -213q-102 0 -268 88l20 17q67 -26 133 -26q157 0 300 136q82 77 132 181q50 99 50 182q0 50 -22 88q-54 -75 -106 -75q-53 0 -92 40t-39 95q0 62 67 204q45 94 102 94q58 0 101.5 -100t43.5 -233zM377 324q-18 48 -59 48q-37 0 -37 -41
q0 -47 41 -47q39 0 55 40zM398 794q-6 -31 -11 -41q-10 -26 -26 -31l-304 -87q10 42 32 60q19 16 79 38q-72 36 -72 86q0 23 18 49q95 129 180 129q57 0 57 -61q0 -27 -32 -75q-56 36 -89 36q-31 0 -74 -36q88 -83 156 -83q28 0 86 16z" />
    <glyph glyph-name="uniFE86" unicode="&#x624;" horiz-adv-x="701" arabic-form="final" 
d="M716 50h-225q-54 -212 -124 -322q-129 -202 -302 -202q-93 0 -257 92l19 20q77 -31 131 -31q165 0 308.5 131t178.5 312h-35q-95 0 -155.5 31.5t-60.5 82.5q0 61 85 202q46 75 88 75q48 0 86.5 -76t42.5 -182h220v-133zM437 183q-34 121 -108 121q-15 0 -32.5 -15
t-17.5 -37q0 -28 42 -47q44 -22 116 -22zM398 724q-6 -31 -11 -41q-10 -26 -26 -31l-304 -87q10 42 32 60q19 16 79 38q-72 36 -72 86q0 23 18 49q95 129 180 129q57 0 57 -61q0 -27 -32 -75q-56 36 -89 36q-31 0 -74 -36q88 -83 156 -83q28 0 86 16z" />
    <glyph glyph-name="uniFE87" unicode="&#x625;" horiz-adv-x="300" arabic-form="isolated" 
d="M231 325q0 -100 -59 -275l-22 6q14 88 14 120q0 83 -14 183l-56 427q-10 75 -10 111q0 87 73 232q2 -178 15 -279l45 -361q14 -106 14 -164zM324 -240q-7 -31 -11 -41q-10 -26 -26 -31l-304 -87q10 42 32 60q19 16 79 38q-72 36 -72 86q0 23 18 49q95 129 180 129
q57 0 57 -61q0 -28 -32 -75q-56 36 -89 36q-31 0 -74 -36q88 -83 156 -83q28 0 86 16z" />
    <glyph glyph-name="uniFE88" unicode="&#x625;" horiz-adv-x="499" arabic-form="final" 
d="M530 50h-154q-186 0 -205 209q-10 110 -47 427q-33 275 -33 303q0 44 79 140l71 -798q13 -148 135 -148h154v-133zM324 -240q-7 -31 -11 -41q-10 -26 -26 -31l-304 -87q10 42 32 60q19 16 79 38q-72 36 -72 86q0 23 18 49q95 129 180 129q57 0 57 -61q0 -28 -32 -75
q-56 36 -89 36q-31 0 -74 -36q88 -83 156 -83q28 0 86 16z" />
    <glyph glyph-name="uniFE89" unicode="&#x626;" horiz-adv-x="1200" arabic-form="isolated" 
d="M1139 751l-32 -160q-41 41 -88 41q-88 0 -209.5 -80.5t-121.5 -172.5q0 -76 129 -99l165 -30q98 -18 98 -71q0 -87 -35 -145q-56 -90 -268.5 -177.5t-380.5 -87.5q-183 0 -288 80t-105 218q0 112 56 241q29 67 116 221l25 -19q-120 -229 -120 -338q0 -114 97.5 -183.5
t258.5 -69.5q159 0 371 78q199 74 199 113q0 31 -56 39l-154 21q-189 25 -189 148q0 106 169 286q150 160 291 160q32 0 72 -13zM642 867q-6 -31 -11 -41q-10 -26 -26 -31l-304 -87q10 42 32 60q19 16 79 38q-72 36 -72 86q0 23 18 49q95 129 180 129q57 0 57 -61
q0 -27 -32 -75q-56 36 -89 36q-31 0 -74 -36q88 -83 156 -83q28 0 86 16z" />
    <glyph glyph-name="uniFE8A" unicode="&#x626;" horiz-adv-x="1099" arabic-form="final" 
d="M1121 50h-207q-98 0 -157 -29.5t-59 -73.5q0 -32 67 -45l92 -19q136 -27 136 -144q0 -130 -215 -224q-194 -86 -405 -86q-173 0 -270 85.5t-97 238.5q0 156 118 372l20 -17q-82 -172 -82 -267q0 -121 90.5 -191.5t245.5 -70.5q147 0 343 57q200 57 200 103q0 49 -88 57
l-155 13q-101 9 -101 72q0 104 100 201q103 101 231 101h193v-133zM631 458q-7 -31 -11 -41q-10 -26 -26 -31l-304 -86q10 41 32 59q19 16 79 38q-73 36 -73 86q0 23 19 49q95 129 179 129q58 0 58 -61q0 -27 -32 -75q-56 36 -89 36q-31 0 -74 -36q88 -82 156 -82
q28 0 86 15z" />
    <glyph glyph-name="uniFE8B" unicode="&#x626;" horiz-adv-x="401" arabic-form="initial" 
d="M360 345q0 -295 -213 -295h-147v133h147q57 0 108 23q56 25 56 61q0 17 -11 35l-47 77q-16 25 -16 47q0 23 13 43l61 92q49 -109 49 -216zM361 782q-7 -30 -11 -40q-10 -27 -27 -31l-303 -87q9 42 31 59q19 17 80 39q-73 35 -73 86q0 23 19 48q94 130 179 130
q57 0 57 -62q0 -26 -32 -74q-56 36 -89 36q-31 0 -73 -36q88 -83 156 -83q27 0 86 15z" />
    <glyph glyph-name="uniFE8C" unicode="&#x626;" horiz-adv-x="499" arabic-form="medial" 
d="M524 50h-184q-24 0 -57 43t-35 83q-66 -126 -171 -126h-77v133h77q98 0 211 155l13 -4q13 -86 28 -115q21 -36 70 -36h125v-133zM430 694q-7 -31 -11 -41q-10 -26 -27 -31l-303 -87q9 42 31 60q19 16 80 38q-73 35 -73 86q0 23 19 48q94 130 179 130q57 0 57 -61
q0 -27 -32 -75q-56 36 -89 36q-31 0 -73 -36q88 -83 156 -83q27 0 86 16z" />
    <glyph glyph-name="uniFE8D" unicode="&#x627;" horiz-adv-x="300" arabic-form="isolated" 
d="M239 325q0 -100 -58 -275l-22 6q13 88 13 120q0 83 -13 183l-56 427q-10 75 -10 111q0 87 73 232q2 -178 15 -279l45 -361q13 -106 13 -164z" />
    <glyph glyph-name="uniFE8E" unicode="&#x627;" horiz-adv-x="499" arabic-form="final" 
d="M530 50h-154q-186 0 -205 209q-10 110 -47 427q-33 275 -33 303q0 44 79 140l71 -798q13 -148 135 -148h154v-133z" />
    <glyph glyph-name="uniFE8F" unicode="&#x628;" horiz-adv-x="1419" arabic-form="isolated" 
d="M1354 426q0 -199 -178 -282q-306 -141 -676 -141q-237 0 -367.5 68t-130.5 193q0 87 106 252l27 -9q-58 -93 -58 -146q0 -97 119.5 -151.5t330.5 -54.5q285 0 554 84q212 66 212 120q0 15 -7 26l-48 84q-8 15 -8 41q0 21 16 58l33 75q75 -141 75 -217zM827 -176l-70 -121
l-108 76l67 115z" />
    <glyph glyph-name="uniFE90" unicode="&#x628;" horiz-adv-x="1501" arabic-form="final" 
d="M1521 50h-112q-49 0 -85 28q-40 31 -44 80q-219 -191 -721 -191q-554 0 -554 304q0 96 86 258l25 -11q-45 -90 -45 -150q0 -114 147.5 -183.5t392.5 -69.5q243 0 432 47q202 51 233 131q37 -110 133 -110h112v-133zM807 -279l-78 -114l-109 80l75 114z" />
    <glyph glyph-name="uniFE91" unicode="&#x628;" horiz-adv-x="401" arabic-form="initial" 
d="M320 345q0 -295 -213 -295h-107v133h107q57 0 108 23q56 25 56 61q0 17 -11 35l-47 77q-16 25 -16 47q0 23 13 43l61 92q49 -109 49 -216zM302 -146l-75 -119l-108 81l70 118z" />
    <glyph glyph-name="uniFE92" unicode="&#x628;" horiz-adv-x="499" arabic-form="medial" 
d="M514 50h-174q-24 0 -57 43t-35 83q-66 -126 -171 -126h-77v133h77q98 0 211 155l13 -4q13 -86 28 -115q21 -36 70 -36h115v-133zM342 -187l-78 -121l-111 80l75 118z" />
    <glyph glyph-name="uniFE93" unicode="&#x629;" horiz-adv-x="600" arabic-form="isolated" 
d="M475 1034l-70 -114l-115 69l-72 -101l-111 79l71 117l114 -75l73 100zM507 304q0 -119 -70 -197.5t-174 -78.5q-74 0 -121.5 53.5t-47.5 135.5q0 88 61 213t85.5 159.5t51.5 34.5q64 0 133 -88q82 -103 82 -232zM438 278q0 27 -51 69q-82 66 -144 66q-39 0 -63.5 -41.5
t-24.5 -98.5q0 -75 117 -75q70 0 118 22.5t48 57.5z" />
    <glyph glyph-name="uniFE94" unicode="&#x629;" horiz-adv-x="701" arabic-form="final" 
d="M716 50h-153q-100 0 -137 241l-66 -62q-50 -39 -99 -39q-68 0 -121.5 21t-53.5 48q0 17 50 122q51 109 236 202v19q0 69 45 155l67 -406q28 -168 79 -168h153v-133zM417 359l-27 155q-132 -45 -194 -153q54 -23 146 -23q37 0 75 21zM473 922l-75 -111l-116 75l-68 -101
l-115 80l70 115l119 -79l70 99z" />
    <glyph glyph-name="uniFE95" unicode="&#x62a;" horiz-adv-x="1442" arabic-form="isolated" 
d="M1358 426q0 -199 -178 -282q-306 -141 -676 -141q-237 0 -367.5 68t-130.5 193q0 87 106 252l27 -9q-58 -93 -58 -146q0 -97 119.5 -151.5t330.5 -54.5q285 0 554 84q212 66 212 120q0 15 -7 26l-48 84q-8 15 -8 41q0 21 16 58l33 75q75 -141 75 -217zM838 675l-75 -120
l-115 86l-70 -99l-106 80l72 120l115 -86l63 101z" />
    <glyph glyph-name="uniFE96" unicode="&#x62a;" horiz-adv-x="1501" arabic-form="final" 
d="M1520 50h-114q-49 0 -85 28q-40 31 -44 80q-219 -191 -721 -191q-554 0 -554 304q0 96 86 258l25 -11q-45 -90 -45 -150q0 -114 147.5 -183.5t392.5 -69.5q243 0 432 47q202 51 233 131q37 -110 133 -110h114v-133zM858 663l-72 -118l-115 75l-67 -106l-122 74l74 122
l120 -75l67 101z" />
    <glyph glyph-name="uniFE97" unicode="&#x62a;" horiz-adv-x="499" arabic-form="initial" 
d="M410 345q0 -295 -213 -295h-197v133h197q57 0 108 23q56 25 56 61q0 17 -11 35l-47 77q-16 25 -16 47q0 23 13 43l61 92q49 -109 49 -216zM420 865l-72 -114l-115 77l-74 -97l-110 76l73 115l116 -75l73 95z" />
    <glyph glyph-name="uniFE98" unicode="&#x62a;" horiz-adv-x="499" arabic-form="medial" 
d="M524 50h-184q-24 0 -57 43t-35 83q-66 -126 -171 -126h-77v133h77q98 0 211 155l13 -4q13 -86 28 -115q21 -36 70 -36h125v-133zM424 664l-73 -116l-114 79l-70 -101l-106 76l68 120l119 -81l61 103z" />
    <glyph glyph-name="uniFE99" unicode="&#x62b;" horiz-adv-x="1422" arabic-form="isolated" 
d="M1358 426q0 -199 -178 -282q-306 -141 -676 -141q-237 0 -367.5 68t-130.5 193q0 87 106 252l27 -9q-58 -93 -58 -146q0 -97 119.5 -151.5t330.5 -54.5q285 0 554 84q212 66 212 120q0 15 -7 26l-48 84q-8 15 -8 41q0 21 16 58l33 75q75 -141 75 -217zM696 879l-71 -114
l-107 76l67 115zM831 679l-70 -114l-115 78l-66 -101l-114 81l71 117l118 -83l61 103z" />
    <glyph glyph-name="uniFE9A" unicode="&#x62b;" horiz-adv-x="1501" arabic-form="final" 
d="M1520 50h-114q-49 0 -85 28q-40 31 -44 80q-219 -191 -721 -191q-554 0 -554 304q0 96 86 258l25 -11q-45 -90 -45 -150q0 -114 147.5 -183.5t392.5 -69.5q243 0 432 47q202 51 233 131q37 -110 133 -110h114v-133zM705 863l-69 -116l-114 75l73 122zM847 671l-69 -120
l-120 73l-63 -99l-116 74l71 120l114 -73l73 99z" />
    <glyph glyph-name="uniFE9B" unicode="&#x62b;" horiz-adv-x="499" arabic-form="initial" 
d="M420 345q0 -295 -213 -295h-207v133h207q57 0 108 23q56 25 56 61q0 17 -11 35l-47 77q-16 25 -16 47q0 23 13 43l61 92q49 -109 49 -216zM275 1188l-68 -122l-112 71l67 125zM419 993l-68 -120l-117 72l-60 -109l-120 82l68 122l121 -75l61 101z" />
    <glyph glyph-name="uniFE9C" unicode="&#x62b;" horiz-adv-x="499" arabic-form="medial" 
d="M514 50h-174q-24 0 -57 43t-35 83q-66 -126 -171 -126h-77v133h77q98 0 211 155l13 -4q13 -86 28 -115q21 -36 70 -36h115v-133zM288 852l-71 -115l-109 70l68 122zM426 656l-67 -122l-118 81l-67 -105l-109 78l68 117l115 -77l63 105z" />
    <glyph glyph-name="uniFE9D" unicode="&#x62c;" horiz-adv-x="1000" arabic-form="isolated" 
d="M1016 -623l-280 -135h-134q-280 0 -435.5 112t-155.5 340q0 389 413 637q-131 28 -202 28q-64 0 -144 -21l23 111q109 58 194 58q43 0 171.5 -23.5t288.5 -23.5q94 0 184 7l-56 -112q-367 -30 -593 -195q-216 -160 -216 -380q0 -206 178.5 -304.5t502.5 -98.5
q101 0 254 23zM613 -119l-73 -126l-110 72l67 126z" />
    <glyph glyph-name="uniFE9E" unicode="&#x62c;" horiz-adv-x="1099" arabic-form="final" 
d="M1115 50h-137q-196 0 -267.5 25t-71.5 95q0 50 28 144q-265 -54 -427 -199.5t-162 -332.5q0 -205 175 -312t481 -107q115 0 361 24l11 -24l-399 -129q-278 0 -425 59q-271 86 -271 388q0 395 419 650q-146 28 -193 28q-80 0 -157 -14l26 104q98 54 189 54
q34 0 190.5 -23.5t345.5 -23.5q55 0 113 4l-58 -115q-62 -6 -179 -25q22 -91 105 -119q49 -18 166 -18h137v-133zM587 -125l-62 -122l-120 75l66 119z" />
    <glyph glyph-name="uniFE9F" unicode="&#x62c;" horiz-adv-x="1099" arabic-form="initial" 
d="M1025 385l-38 -118h-46q-44 0 -114.5 5.5t-105.5 5.5q-129 0 -259 -60q-100 -54 -201 -109q-108 -59 -184 -59h-77v133h77q96 0 242 55q183 69 212 76q-29 6 -146 58q-97 43 -162 43q-52 0 -135 -25l-7 -2q55 176 203 176q65 0 243 -91q174 -88 408 -88h90zM608 -75
l-68 -118l-110 71l70 120z" />
    <glyph glyph-name="uniFEA0" unicode="&#x62c;" horiz-adv-x="1200" arabic-form="medial" 
d="M1215 50h-93q-191 0 -266 25q-78 27 -78 95q0 50 24 110h-45q-150 0 -291 -60q-35 -15 -210 -111q-107 -59 -179 -59h-77v133h77q92 0 207 47q155 64 275 90l-174 64q-100 35 -164 35q-60 0 -140 -25q40 176 201 176q40 0 213 -72q188 -79 350 -96q69 -8 209 -8l-29 -110
q-45 -6 -88 -6q-51 0 -86 2q10 -72 112 -90q36 -7 159 -7h93v-133zM608 -75l-68 -118l-110 71l70 120z" />
    <glyph glyph-name="uniFEA1" unicode="&#x62d;" horiz-adv-x="1000" arabic-form="isolated" 
d="M1016 -623l-280 -135h-134q-280 0 -435.5 112t-155.5 340q0 389 413 637q-131 28 -202 28q-64 0 -144 -21l23 111q109 58 194 58q43 0 171.5 -23.5t288.5 -23.5q94 0 184 7l-56 -112q-367 -30 -593 -195q-216 -160 -216 -380q0 -206 178.5 -304.5t502.5 -98.5
q101 0 254 23z" />
    <glyph glyph-name="uniFEA2" unicode="&#x62d;" horiz-adv-x="1099" arabic-form="final" 
d="M1115 50h-137q-196 0 -267.5 25t-71.5 95q0 50 28 144q-265 -54 -427 -199.5t-162 -332.5q0 -205 175 -312t481 -107q115 0 361 24l11 -24l-399 -129q-278 0 -425 59q-271 86 -271 388q0 395 419 650q-146 28 -193 28q-80 0 -157 -14l26 104q98 54 189 54
q34 0 190.5 -23.5t345.5 -23.5q55 0 113 4l-58 -115q-62 -6 -179 -25q22 -91 105 -119q49 -18 166 -18h137v-133z" />
    <glyph glyph-name="uniFEA3" unicode="&#x62d;" horiz-adv-x="1099" arabic-form="initial" 
d="M1025 385l-38 -118h-46q-44 0 -114.5 5.5t-105.5 5.5q-129 0 -259 -60q-100 -54 -201 -109q-108 -59 -184 -59h-77v133h77q96 0 242 55q183 69 212 76q-29 6 -146 58q-97 43 -162 43q-52 0 -135 -25l-7 -2q55 176 203 176q65 0 243 -91q174 -88 408 -88h90z" />
    <glyph glyph-name="uniFEA4" unicode="&#x62d;" horiz-adv-x="1200" arabic-form="medial" 
d="M1215 50h-93q-191 0 -266 25q-78 27 -78 95q0 50 24 110h-45q-150 0 -291 -60q-35 -15 -210 -111q-107 -59 -179 -59h-77v133h77q92 0 207 47q155 64 275 90l-174 64q-100 35 -164 35q-60 0 -140 -25q40 176 201 176q40 0 213 -72q188 -79 350 -96q69 -8 209 -8l-29 -110
q-45 -6 -88 -6q-51 0 -86 2q10 -72 112 -90q36 -7 159 -7h93v-133z" />
    <glyph glyph-name="uniFEA5" unicode="&#x62e;" horiz-adv-x="1001" arabic-form="isolated" 
d="M1016 -623l-280 -135h-134q-280 0 -435.5 112t-155.5 340q0 389 413 637q-131 28 -202 28q-64 0 -144 -21l23 111q109 58 194 58q43 0 171.5 -23.5t288.5 -23.5q94 0 184 7l-56 -112q-367 -30 -593 -195q-216 -160 -216 -380q0 -206 178.5 -304.5t502.5 -98.5
q101 0 254 23zM545 818l-79 -113l-108 75l74 108z" />
    <glyph glyph-name="uniFEA6" unicode="&#x62e;" horiz-adv-x="1099" arabic-form="final" 
d="M1115 50h-137q-196 0 -267.5 25t-71.5 95q0 50 28 144q-265 -54 -427 -199.5t-162 -332.5q0 -205 175 -312t481 -107q115 0 361 24l11 -24l-399 -129q-278 0 -425 59q-271 106 -271 388q0 395 419 650q-146 28 -193 28q-80 0 -157 -14l26 104q98 54 189 54
q34 0 190.5 -23.5t345.5 -23.5q55 0 113 4l-58 -115q-62 -6 -179 -25q22 -91 105 -119q49 -18 166 -18h137v-133zM551 813l-67 -114l-114 71l69 118z" />
    <glyph glyph-name="uniFEA7" unicode="&#x62e;" horiz-adv-x="1099" arabic-form="initial" 
d="M1025 385l-38 -118h-46q-44 0 -114.5 5.5t-105.5 5.5q-129 0 -259 -60q-100 -54 -201 -109q-108 -59 -184 -59h-77v133h77q96 0 242 55q183 69 212 76q-29 6 -146 58q-97 43 -162 43q-52 0 -135 -25l-7 -2q55 176 203 176q65 0 243 -91q174 -88 408 -88h90zM473 819
l-72 -117l-109 74l69 115z" />
    <glyph glyph-name="uniFEA8" unicode="&#x62e;" horiz-adv-x="1200" arabic-form="medial" 
d="M1215 50h-93q-191 0 -266 25q-78 27 -78 95q0 50 24 110h-45q-150 0 -291 -60q-35 -15 -210 -111q-107 -59 -179 -59h-77v133h77q92 0 207 47q155 64 275 90l-174 64q-100 35 -164 35q-60 0 -140 -25q40 176 201 176q40 0 213 -72q188 -79 350 -96q69 -8 209 -8l-29 -110
q-45 -6 -88 -6q-51 0 -86 2q10 -72 112 -90q36 -7 159 -7h93v-133zM473 819l-72 -117l-109 74l69 115z" />
    <glyph glyph-name="uniFEA9" unicode="&#x62f;" horiz-adv-x="701" arabic-form="isolated" 
d="M624 297q0 -70 -33 -148q-177 -112 -369 -112q-33 0 -138 11l20 161q47 -4 111 -4q235 0 357 79q-13 178 -324 291l45 156q134 -29 232.5 -158t98.5 -276z" />
    <glyph glyph-name="uniFEAA" unicode="&#x62f;" horiz-adv-x="900" arabic-form="final" 
d="M923 50h-133q-130 0 -191 243q-59 -123 -139 -170.5t-226 -47.5q-166 0 -166 101q0 34 47 144l25 -2q3 -101 189 -101q249 0 249 177q0 57 -30 191t-30 185q0 54 60 138l84 -495q39 -230 155 -230h106v-133z" />
    <glyph glyph-name="uniFEAB" unicode="&#x630;" horiz-adv-x="701" arabic-form="isolated" 
d="M624 297q0 -70 -33 -148q-177 -112 -369 -112q-33 0 -138 11l20 161q47 -4 111 -4q235 0 357 79q-13 178 -324 291l45 156q134 -29 232.5 -158t98.5 -276zM377 1054l-74 -114l-111 77l75 112z" />
    <glyph glyph-name="uniFEAC" unicode="&#x630;" horiz-adv-x="900" arabic-form="final" 
d="M923 50h-133q-130 0 -191 243q-59 -123 -139 -170.5t-226 -47.5q-166 0 -166 101q0 34 47 144l25 -2q3 -101 189 -101q249 0 249 177q0 57 -30 191t-30 185q0 54 60 138l84 -495q39 -230 155 -230h106v-133zM613 1163l-65 -122l-116 68l62 121z" />
    <glyph glyph-name="uniFEAD" unicode="&#x631;" horiz-adv-x="499" arabic-form="isolated" 
d="M435 131q0 -211 -126 -376t-287 -165q-91 0 -243 69l19 19q71 -17 116 -17q98 0 183 54q120 77 201 172.5t81 162.5q0 45 -46.5 135t-46.5 119q0 21 18 55l43 82q88 -125 88 -310z" />
    <glyph glyph-name="uniFEAE" unicode="&#x631;" horiz-adv-x="499" arabic-form="final" 
d="M520 50h-145q-28 -226 -132.5 -362t-250.5 -136q-70 0 -237 53l19 20q43 -7 67 -7q155 0 292 110.5t187 278.5l-84 135l58 117q69 -76 113 -76h113v-133z" />
    <glyph glyph-name="uniFEAF" unicode="&#x632;" horiz-adv-x="499" arabic-form="isolated" 
d="M412 131q0 -211 -126 -376t-287 -165q-91 0 -243 69l19 19q71 -17 116 -17q98 0 183 54q120 77 201 172.5t81 162.5q0 45 -46.5 135t-46.5 119q0 21 18 55l43 82q88 -125 88 -310zM345 766l-84 -108l-101 93l81 103z" />
    <glyph glyph-name="uniFEB0" unicode="&#x632;" horiz-adv-x="499" arabic-form="final" 
d="M511 50h-145q-28 -226 -132.5 -362t-250.5 -136q-70 0 -237 53l19 20q43 -7 67 -7q155 0 292 110.5t187 278.5l-84 135l58 117q69 -76 113 -76h113v-133zM352 575l-80 -119l-107 84l79 125z" />
    <glyph glyph-name="uniFEB1" unicode="&#x633;" horiz-adv-x="1459" arabic-form="isolated" 
d="M1399 381q0 -112 -44 -184t-112 -72q-91 0 -156 92q-35 -74 -93.5 -120.5t-115.5 -46.5h-8q0 -216 -102 -378q-121 -194 -451 -194q-136 0 -224 80.5t-88 203.5q0 129 121 315l21 -7q-81 -151 -81 -243q0 -96 90.5 -151.5t248.5 -55.5q123 0 225.5 41.5t140.5 104.5
q34 59 34 170q0 120 -61 213l59 131q33 -53 49 -97h25q80 0 148 63t97 169h15q18 -137 174 -137q40 0 40 22q0 20 -55 59l41 137q62 -34 62 -115z" />
    <glyph glyph-name="uniFEB2" unicode="&#x633;" horiz-adv-x="1700" arabic-form="final" 
d="M1724 50h-184q-43 0 -88 60q-43 58 -52 120q-69 -155 -183 -155q-95 0 -124 101q-73 -126 -208 -126h-15q0 -199 -102 -378q-108 -194 -451 -194q-136 0 -224 80.5t-88 203.5q0 129 121 315l21 -7q-81 -151 -81 -243q0 -96 90.5 -151.5t248.5 -55.5q123 0 225.5 41.5
t140.5 104.5q34 59 34 170q0 120 -61 213l59 131q48 -97 85 -97q97 0 148 38q35 27 111 138l13 -4q3 -125 97 -125q92 0 143 131h17q65 -178 142 -178h165v-133z" />
    <glyph glyph-name="uniFEB3" unicode="&#x633;" horiz-adv-x="1001" arabic-form="initial" 
d="M958 381q0 -112 -44 -184t-112 -72q-69 0 -155 92q-87 -167 -244 -167q-65 0 -99 33q-25 22 -56 93q-94 -126 -171 -126h-77v133h45q130 0 243 155l13 -4q13 -86 28 -115q21 -36 70 -36q220 0 282 232h15q18 -137 174 -137q41 0 41 22q0 13 -55 59l41 137q61 -34 61 -115
z" />
    <glyph glyph-name="uniFEB4" unicode="&#x633;" horiz-adv-x="1200" arabic-form="medial" 
d="M1221 50h-121q-43 0 -85 57q-38 52 -58 123q-69 -155 -183 -155q-95 0 -124 101q-60 -74 -101 -99q-51 -29 -134 -29q-66 0 -100 27.5t-67 100.5q-82 -126 -171 -126h-77v133h53q122 0 235 155l13 -4q13 -87 30 -116q23 -37 84 -37q117 0 174 39q38 27 115 139l13 -4
q4 -125 97 -125q92 0 143 131h18q17 -78 61 -130q41 -48 82 -48h103v-133z" />
    <glyph glyph-name="uniFEB5" unicode="&#x634;" horiz-adv-x="1459" arabic-form="isolated" 
d="M1399 381q0 -112 -44 -184t-112 -72q-70 0 -156 92q-86 -167 -209 -167h-8q0 -216 -102 -378q-121 -194 -451 -194q-136 0 -224 80.5t-88 203.5q0 129 121 315l21 -7q-81 -151 -81 -243q0 -96 90.5 -151.5t248.5 -55.5q123 0 225.5 41.5t140.5 104.5q34 59 34 170
q0 120 -61 213l59 131q33 -53 49 -97h25q80 0 148 63t97 169h15q18 -137 174 -137q40 0 40 22q0 13 -55 59l41 137q62 -34 62 -115zM1094 867l-71 -114l-109 69l68 122zM1232 671l-68 -122l-117 82l-67 -106l-109 78l68 118l114 -77l64 104z" />
    <glyph glyph-name="uniFEB6" unicode="&#x634;" horiz-adv-x="1700" arabic-form="final" 
d="M1724 50h-184q-43 0 -88 60q-43 58 -52 120q-69 -155 -183 -155q-95 0 -124 101q-73 -126 -208 -126h-15q0 -199 -102 -378q-108 -194 -451 -194q-136 0 -224 80.5t-88 203.5q0 129 121 315l21 -7q-81 -151 -81 -243q0 -96 90.5 -151.5t248.5 -55.5q123 0 225.5 41.5
t140.5 104.5q34 59 34 170q0 120 -61 213l59 131q48 -97 85 -97q97 0 148 38q35 27 111 138l13 -4q3 -125 97 -125q92 0 143 131h17q65 -178 142 -178h165v-133zM1133 865l-72 -114l-109 69l68 122zM1270 669l-67 -122l-118 81l-67 -105l-109 78l68 118l115 -77l64 104z" />
    <glyph glyph-name="uniFEB7" unicode="&#x634;" horiz-adv-x="1001" arabic-form="initial" 
d="M958 381q0 -112 -44 -184t-112 -72q-69 0 -155 92q-87 -167 -244 -167q-65 0 -99 33q-25 22 -56 93q-94 -126 -171 -126h-77v133h45q130 0 243 155l13 -4q13 -86 28 -115q21 -36 70 -36q220 0 282 232h15q18 -137 174 -137q41 0 41 22q0 13 -55 59l41 137q61 -34 61 -115
zM655 928l-74 -120l-109 72l68 121zM792 727l-69 -117l-120 77l-63 -101l-115 71l70 122l119 -75l64 104z" />
    <glyph glyph-name="uniFEB8" unicode="&#x634;" horiz-adv-x="1200" arabic-form="medial" 
d="M1221 50h-121q-43 0 -85 57q-38 52 -58 123q-69 -155 -183 -155q-95 0 -124 101q-60 -74 -101 -99q-51 -29 -134 -29q-66 0 -100 27.5t-67 100.5q-82 -126 -171 -126h-77v133h53q122 0 235 155l13 -4q13 -87 30 -116q23 -37 84 -37q117 0 174 39q38 27 115 139l13 -4
q4 -125 97 -125q92 0 143 131h18q17 -78 61 -130q41 -48 82 -48h103v-133zM691 892l-68 -119l-115 74l67 120zM833 697l-68 -116l-119 75l-68 -106l-115 74l73 120l121 -73l62 102z" />
    <glyph glyph-name="uniFEB9" unicode="&#x635;" horiz-adv-x="1801" arabic-form="isolated" 
d="M1750 419q0 -326 -730 -369q-26 -68 -52 -161l-22 40l26 121h-102q-4 -205 -102 -378q-108 -194 -451 -194q-136 0 -224 80.5t-88 203.5q0 129 121 315l21 -7q-81 -151 -81 -243q0 -96 90.5 -151.5t248.5 -55.5q123 0 225.5 41.5t140.5 104.5q34 59 34 170q0 120 -61 213
l59 131q33 -53 49 -97h190q136 209 304 321q140 94 255 94q63 0 106 -51.5t43 -127.5zM1664 351q0 84 -162 84q-239 0 -407 -252h77q152 0 325 62q167 59 167 106z" />
    <glyph glyph-name="uniFEBA" unicode="&#x635;" horiz-adv-x="1899" arabic-form="final" 
d="M1922 50h-910q-20 -45 -54 -167l-22 45q7 35 29 122h-95q-4 -205 -102 -378q-108 -194 -451 -194q-136 0 -224 80.5t-88 203.5q0 129 121 315l21 -7q-81 -151 -81 -243q0 -96 90.5 -151.5t248.5 -55.5q123 0 225.5 41.5t140.5 104.5q34 59 34 170q0 120 -61 213l59 131
q33 -53 49 -97h178q148 195 296 307t259 112q65 0 110 -51t45 -123q0 -86 -54 -144.5t-183 -113.5q232 13 257 13h162v-133zM1654 351q0 40 -55 65q-50 23 -109 23q-217 0 -406 -256q214 2 374 60q196 71 196 108z" />
    <glyph glyph-name="uniFEBB" unicode="&#x635;" horiz-adv-x="1299" arabic-form="initial" 
d="M1234 419q0 -326 -729 -369q-26 -68 -53 -161l-22 40l27 121h-64q-59 0 -100.5 34.5t-44.5 91.5q-66 -126 -171 -126h-77v133h77q98 0 211 155l13 -4q10 -77 26 -106q23 -45 78 -45h122q135 209 304 321q139 94 255 94q62 0 105 -51.5t43 -127.5zM1148 351q0 84 -161 84
q-239 0 -407 -252h77q152 0 324 62q167 59 167 106z" />
    <glyph glyph-name="uniFEBC" unicode="&#x635;" horiz-adv-x="1400" arabic-form="medial" 
d="M1420 50h-913q-20 -45 -54 -167l-22 45q8 35 30 122h-85q-50 0 -89 42q-37 38 -39 84q-66 -126 -171 -126h-77v133h77q98 0 211 155l13 -4q21 -151 104 -151h121q147 195 295 307t259 112q65 0 110 -51t45 -123q0 -86 -53.5 -144.5t-182.5 -113.5q232 13 272 13h149v-133
zM1150 351q0 40 -55 65q-50 23 -109 23q-217 0 -406 -256q213 2 374 60q196 71 196 108z" />
    <glyph glyph-name="uniFEBD" unicode="&#x636;" horiz-adv-x="1801" arabic-form="isolated" 
d="M1750 419q0 -326 -730 -369q-26 -68 -52 -161l-22 40l26 121h-102q-4 -205 -102 -378q-108 -194 -451 -194q-136 0 -224 80.5t-88 203.5q0 129 121 315l21 -7q-81 -151 -81 -243q0 -96 90.5 -151.5t248.5 -55.5q123 0 225.5 41.5t140.5 104.5q34 59 34 170q0 120 -61 213
l59 131q33 -53 49 -97h190q136 209 304 321q140 94 255 94q63 0 106 -51.5t43 -127.5zM1664 351q0 84 -162 84q-239 0 -407 -252h77q152 0 325 62q167 59 167 106zM1293 858l-74 -127l-115 82l75 127z" />
    <glyph glyph-name="uniFEBE" unicode="&#x636;" horiz-adv-x="1899" arabic-form="final" 
d="M1925 50h-913q-20 -45 -54 -167l-22 45q7 35 29 122h-95q-4 -205 -102 -378q-108 -194 -451 -194q-136 0 -224 80.5t-88 203.5q0 129 121 315l21 -7q-81 -151 -81 -243q0 -96 90.5 -151.5t248.5 -55.5q123 0 225.5 41.5t140.5 104.5q34 59 34 170q0 120 -61 213l59 131
q33 -53 49 -97h178q148 195 296 307t259 112q65 0 110 -51t45 -123q0 -86 -54 -144.5t-183 -113.5q232 13 268 13h154v-133zM1654 351q0 40 -55 65q-50 23 -109 23q-217 0 -406 -256q214 2 374 60q196 71 196 108zM1278 847l-70 -127l-115 80l70 129z" />
    <glyph glyph-name="uniFEBF" unicode="&#x636;" horiz-adv-x="1299" arabic-form="initial" 
d="M1234 419q0 -326 -729 -369q-26 -68 -53 -161l-22 40l27 121h-64q-59 0 -100.5 34.5t-44.5 91.5q-66 -126 -171 -126h-77v133h77q98 0 211 155l13 -4q10 -77 26 -106q23 -45 78 -45h122q135 209 304 321q139 94 255 94q62 0 105 -51.5t43 -127.5zM1148 351q0 84 -161 84
q-239 0 -407 -252h77q152 0 324 62q167 59 167 106zM783 858l-73 -127l-116 82l75 127z" />
    <glyph glyph-name="uniFEC0" unicode="&#x636;" horiz-adv-x="1400" arabic-form="medial" 
d="M1420 50h-913q-20 -45 -54 -167l-22 45q8 35 30 122h-85q-50 0 -89 42q-37 38 -39 84q-66 -126 -171 -126h-77v133h77q98 0 211 155l13 -4q21 -151 104 -151h121q147 195 295 307t259 112q65 0 110 -51t45 -123q0 -86 -53.5 -144.5t-182.5 -113.5q232 13 272 13h149v-133
zM1150 351q0 40 -55 65q-50 23 -109 23q-217 0 -406 -256q213 2 374 60q196 71 196 108zM783 858l-73 -127l-116 82l75 127z" />
    <glyph glyph-name="uniFEC1" unicode="&#x637;" horiz-adv-x="1200" arabic-form="isolated" 
d="M1147 433q0 -171 -233.5 -281.5t-591.5 -110.5q-130 0 -175 22q-51 25 -142 135q161 -22 222 -22q166 0 221.5 55t55.5 218q0 192 -44 414.5t-44 245.5q0 58 55 144l95 -137q-55 -61 -55 -122q0 -14 20.5 -157t20.5 -267q0 -127 -20 -256q295 295 466 295
q64 0 106.5 -51.5t42.5 -124.5zM1063 361q0 27 -39 51q-47 29 -116 29q-246 0 -412 -258h12q176 0 374 71q181 65 181 107z" />
    <glyph glyph-name="uniFEC2" unicode="&#x637;" horiz-adv-x="1299" arabic-form="final" 
d="M1313 50h-1099q-77 0 -129 58l-80 90q195 -34 261 -34q133 0 185.5 64t52.5 226q0 182 -44 403t-44 247q0 57 55 149l95 -137q-55 -61 -55 -122q0 -19 20.5 -155t20.5 -269q0 -120 -20 -256q285 295 466 295q65 0 107 -52.5t42 -130.5q0 -89 -54.5 -145.5t-197.5 -116.5
q228 19 249 19h169v-133zM1063 355q0 37 -49 60q-45 20 -104 20q-114 0 -209 -54t-205 -198q198 2 344 47q86 27 154.5 65.5t68.5 59.5z" />
    <glyph glyph-name="uniFEC3" unicode="&#x637;" horiz-adv-x="1001" arabic-form="initial" 
d="M920 422q0 -152 -188 -260q-194 -112 -474 -112h-258v133h107q153 0 153 290q0 188 -44 408t-44 237q0 68 54 140l94 -136q-53 -39 -53 -148q0 -23 22.5 -161.5t22.5 -268.5q0 -101 -26 -258q34 38 100 102q208 216 385 216q63 0 106 -51.5t43 -130.5zM832 355
q0 29 -50.5 53.5t-115.5 24.5q-218 0 -404 -250h47q120 0 300 56q223 69 223 116z" />
    <glyph glyph-name="uniFEC4" unicode="&#x637;" horiz-adv-x="1001" arabic-form="medial" 
d="M1025 50h-863q-29 -53 -54 -167l-22 45q6 66 28 122h-114v133h77q153 0 153 318q0 125 -42 349.5t-42 258.5q0 69 50 157l92 -141q-58 -47 -58 -106q52 -316 52 -462q0 -94 -26 -267q280 314 481 314q66 0 109.5 -50.5t43.5 -127.5q0 -151 -262 -262q174 19 281 19h116
v-133zM802 359q0 24 -47 51q-51 29 -108 29q-117 0 -228 -69t-188 -187h41q152 0 343 66q187 65 187 110z" />
    <glyph glyph-name="uniFEC5" unicode="&#x638;" horiz-adv-x="1200" arabic-form="isolated" 
d="M1147 433q0 -171 -233.5 -281.5t-591.5 -110.5q-130 0 -175 22q-51 25 -142 135q161 -22 222 -22q166 0 221.5 55t55.5 218q0 192 -44 414.5t-44 245.5q0 58 55 144l95 -137q-55 -61 -55 -122q0 -14 20.5 -157t20.5 -267q0 -127 -20 -256q295 295 466 295
q64 0 106.5 -51.5t42.5 -124.5zM1063 361q0 27 -39 51q-47 29 -116 29q-246 0 -412 -258h12q176 0 374 71q181 65 181 107zM915 906l-73 -115l-114 76l75 120z" />
    <glyph glyph-name="uniFEC6" unicode="&#x638;" horiz-adv-x="1299" arabic-form="final" 
d="M1073 355q0 37 -49 60q-45 20 -104 20q-114 0 -209 -54t-205 -198q198 2 344 47q86 27 154.5 65.5t68.5 59.5zM224 50q-77 0 -129 58l-80 90q195 -34 261 -34h17q119 5 169 64q52 64 52 226q0 182 -44 403t-44 247q0 57 55 149l95 -137q-55 -61 -55 -122q0 -19 20.5 -155
t20.5 -269q0 -120 -20 -256q285 295 466 295q65 0 107 -52.5t42 -130.5q0 -89 -54.5 -145.5t-197.5 -116.5q228 19 249 19h169v-133h-1099zM927 922l-69 -131l-120 84l75 127z" />
    <glyph glyph-name="uniFEC7" unicode="&#x638;" horiz-adv-x="1001" arabic-form="initial" 
d="M920 422q0 -152 -188 -260q-194 -112 -474 -112h-258v133h107q153 0 153 290q0 188 -44 408t-44 237q0 68 54 140l94 -136q-53 -39 -53 -148q0 -23 22.5 -161.5t22.5 -268.5q0 -101 -26 -258q34 38 100 102q208 216 385 216q63 0 106 -51.5t43 -130.5zM832 355
q0 29 -50.5 53.5t-115.5 24.5q-218 0 -404 -250h47q120 0 300 56q223 69 223 116zM679 912l-70 -127l-119 82l74 129z" />
    <glyph glyph-name="uniFEC8" unicode="&#x638;" horiz-adv-x="1001" arabic-form="medial" 
d="M1025 50h-863q-29 -53 -54 -167l-22 45q6 66 28 122h-114v133h77q153 0 153 318q0 125 -42 349.5t-42 258.5q0 69 50 157l92 -141q-58 -47 -58 -106q52 -316 52 -462q0 -94 -26 -267q280 314 481 314q66 0 109.5 -50.5t43.5 -127.5q0 -151 -262 -262q174 19 281 19h116
v-133zM802 359q0 24 -47 51q-51 29 -108 29q-117 0 -228 -69t-188 -187h41q152 0 343 66q187 65 187 110zM653 920l-72 -133l-117 80l74 129z" />
    <glyph glyph-name="uniFEC9" unicode="&#x639;" horiz-adv-x="799" arabic-form="isolated" 
d="M1078 -630l-341 -128q-65 -10 -125 -10q-277 0 -445 117.5t-168 328.5q0 163 58 299q62 139 204 296q-194 47 -194 153q0 74 72 202q82 150 185 150q63 0 162 -88q-146 -3 -253 -59t-107 -128q0 -49 79 -85q70 -33 144 -33q56 0 229 102q33 19 131 63l-102 -144
q-181 -104 -272 -176q-278 -216 -278 -450q0 -213 236 -342q150 -64 456 -64q152 0 323 21z" />
    <glyph glyph-name="uniFECA" unicode="&#x639;" horiz-adv-x="900" arabic-form="final" 
d="M1072 -639l-385 -127h-144q-537 0 -537 465q0 320 338 601l-144 81q80 174 236 174q85 0 154 -46t69 -101q0 -47 -122 -108l77 -66q60 -51 184 -51h121v-133h-121q-145 0 -253 93l-115 100q-366 -189 -366 -474q0 -201 184.5 -303.5t514.5 -102.5q65 0 302 18z" />
    <glyph glyph-name="uniFECB" unicode="&#x639;" horiz-adv-x="900" arabic-form="initial" 
d="M832 446l-38 -121l-481 -212q-45 -20 -89 -41q-60 -22 -127 -22h-97v133h97q103 0 163 54q-90 72 -90 137q0 108 105 226q109 123 221 123q84 0 210 -121l-16 -14q-61 29 -119 29q-70 0 -184 -39q-121 -43 -121 -77q0 -42 71 -106q76 -68 144 -68q66 0 164 41z" />
    <glyph glyph-name="uniFECC" unicode="&#x639;" horiz-adv-x="701" arabic-form="medial" 
d="M724 50h-134q-114 0 -254 169q-37 -47 -113 -102q-91 -67 -146 -67h-77v133h55q113 0 195 88l-162 88q50 181 254 181q94 0 163 -42t69 -99q0 -81 -137 -128q72 -88 175 -88h112v-133z" />
    <glyph glyph-name="uniFECD" unicode="&#x63a;" horiz-adv-x="799" arabic-form="isolated" 
d="M1088 -630l-341 -128q-65 -10 -125 -10q-277 0 -445 117.5t-168 328.5q0 163 58 299q62 139 204 296q-194 47 -194 153q0 74 72 202q82 150 185 150q63 0 162 -88q-146 -3 -253 -59t-107 -128q0 -49 79 -85q70 -33 144 -33q56 0 229 102q33 19 131 63l-102 -144
q-181 -104 -272 -176q-278 -216 -278 -450q0 -213 237 -324q149 -82 455 -82q152 0 323 21zM379 1097l-73 -117l-108 70l68 120z" />
    <glyph glyph-name="uniFECE" unicode="&#x63a;" horiz-adv-x="900" arabic-form="final" 
d="M1072 -639l-385 -127h-144q-537 0 -537 465q0 320 338 601l-144 81q80 174 236 174q85 0 154 -46t69 -101q0 -47 -122 -108l77 -66q60 -51 184 -51h121v-133h-121q-145 0 -253 93l-115 100q-366 -189 -366 -474q0 -201 184.5 -303.5t514.5 -102.5q65 0 302 18zM518 906
l-75 -128l-115 76l70 133z" />
    <glyph glyph-name="uniFECF" unicode="&#x63a;" horiz-adv-x="900" arabic-form="initial" 
d="M832 446l-38 -121l-481 -212q-45 -20 -89 -41q-60 -22 -127 -22h-97v133h97q103 0 163 54q-90 72 -90 137q0 108 105 226q109 123 221 123q84 0 210 -121l-16 -14q-61 29 -119 29q-70 0 -184 -39q-121 -43 -121 -77q0 -42 71 -106q76 -68 144 -68q66 0 164 41zM490 1048
l-61 -126l-120 72l66 122z" />
    <glyph glyph-name="uniFED0" unicode="&#x63a;" horiz-adv-x="701" arabic-form="medial" 
d="M724 50h-134q-114 0 -254 169q-37 -47 -113 -102q-91 -67 -146 -67h-77v133h55q113 0 195 88l-162 88q50 181 254 181q94 0 163 -42t69 -99q0 -81 -137 -128q72 -88 175 -88h112v-133zM365 892l-68 -122l-110 71l67 121z" />
    <glyph glyph-name="uniFED1" unicode="&#x641;" horiz-adv-x="1540" arabic-form="isolated" 
d="M1468 480q0 -121 -58 -182t-241 -134q-348 -136 -690 -136q-473 0 -473 276q0 109 95 273l27 -9q-66 -99 -66 -180q0 -97 116.5 -160.5t296.5 -63.5q389 0 788 176q170 75 170 122q0 40 -45 106q-49 -68 -64 -84q-40 -38 -93 -38q-55 0 -92 38t-37 93q0 57 62 174
q66 122 127 122q58 0 114 -110q63 -122 63 -283zM1300 656q0 15 -24 32t-53 17q-48 0 -48 -42q0 -15 20.5 -34.5t43.5 -19.5q61 0 61 47zM1223 1151l-72 -117l-115 67l68 118z" />
    <glyph glyph-name="uniFED2" unicode="&#x641;" horiz-adv-x="1599" arabic-form="final" 
d="M1620 50h-133q-147 0 -235 63q-297 -128 -453 -171q-173 -47 -367 -47q-197 0 -311.5 76t-114.5 208q0 127 103 247l15 -11q-56 -108 -56 -158q0 -99 112 -159.5t299 -60.5q163 0 295 30.5t334 117.5q-40 44 -40 79q0 64 56 185q84 182 155 182q46 0 92 -82
q43 -77 43 -136q0 -106 -54 -204q43 -26 127 -26h133v-133zM1360 359q0 31 -32 78q-34 52 -62 52q-31 0 -81 -51.5t-50 -90.5q0 -22 32.5 -52.5t68.5 -42.5q124 70 124 107zM1218 922l-60 -118l-116 69l66 121z" />
    <glyph glyph-name="uniFED3" unicode="&#x641;" horiz-adv-x="499" arabic-form="initial" 
d="M459 347q0 -134 -84 -196q-137 -101 -298 -101h-77v133h77q105 0 221 43q124 46 124 99q0 45 -51 77q-60 -116 -138 -116q-54 0 -87.5 30.5t-33.5 77.5q0 49 30 149q51 169 125 169q67 0 129.5 -121t62.5 -244zM301 501q0 10 -29.5 28.5t-49.5 18.5q-36 0 -36 -38
q0 -61 49 -61q25 0 45.5 18t20.5 34zM308 1028l-73 -129l-114 81l72 124z" />
    <glyph glyph-name="uniFED4" unicode="&#x641;" horiz-adv-x="701" arabic-form="medial" 
d="M724 50h-132q-139 0 -267 90q-118 -90 -248 -90h-77v133h77q84 0 130 41q-7 33 -7 47q0 78 50 164q120 208 214 208q45 0 81 -71q34 -66 34 -139q0 -91 -93 -214q65 -36 117 -36h121v-133zM520 372q0 36 -29 72q-33 38 -74 38q-46 0 -96 -35t-50 -62q0 -58 94 -107
q155 49 155 94zM541 962l-83 -121l-107 86l79 121z" />
    <glyph glyph-name="uniFED5" unicode="&#x642;" horiz-adv-x="1001" arabic-form="isolated" 
d="M936 381q0 -184 -77.5 -291.5t-217 -173.5t-289.5 -66q-164 0 -257.5 76.5t-93.5 209.5q0 147 144 391l20 -13q-90 -167 -90 -275q0 -107 78 -168.5t213 -61.5q192 0 364 95q170 92 170 210q0 53 -45 135q-75 -98 -164 -98q-61 0 -100.5 37t-39.5 92q0 136 112 271
q37 42 77 42q60 0 121 -117q75 -142 75 -295zM764 562q-39 60 -81 60q-52 0 -52 -45q0 -43 54 -43q48 0 79 28zM909 1024l-70 -121l-120 81l-60 -104l-122 84l68 114l121 -80l66 106z" />
    <glyph glyph-name="uniFED6" unicode="&#x642;" horiz-adv-x="1001" arabic-form="final" 
d="M1041 50h-176q-20 -120 -60 -187q-68 -111 -216.5 -190.5t-290.5 -79.5q-124 0 -208.5 80t-84.5 197q0 162 138 349l19 -16q-96 -156 -96 -254q0 -87 81 -144.5t205 -57.5q180 0 318.5 77.5t138.5 178.5q0 25 -4 47h-110q-127 0 -127 94q0 36 18 80q69 175 148 175
q86 0 142 -216h165v-133zM775 183q-43 90 -95 90q-45 0 -45 -47q0 -43 107 -43h33zM865 710l-73 -122l-116 81l-63 -101l-115 77l68 119l117 -81l66 104z" />
    <glyph glyph-name="uniFED7" unicode="&#x642;" horiz-adv-x="499" arabic-form="initial" 
d="M459 347q0 -134 -84 -196q-137 -101 -298 -101h-77v133h77q105 0 221 43q124 46 124 99q0 45 -51 77q-60 -116 -138 -116q-54 0 -87.5 30.5t-33.5 77.5q0 49 30 149q51 169 125 169q67 0 129.5 -121t62.5 -244zM301 501q0 10 -29.5 28.5t-49.5 18.5q-36 0 -36 -38
q0 -61 49 -61q25 0 45.5 18t20.5 34zM420 1017l-69 -122l-120 72l-67 -102l-110 75l67 116l118 -67l65 95z" />
    <glyph glyph-name="uniFED8" unicode="&#x642;" horiz-adv-x="701" arabic-form="medial" 
d="M714 50h-122q-139 0 -267 90q-118 -90 -248 -90h-77v133h77q84 0 130 41q-7 33 -7 47q0 78 50 164q120 208 214 208q45 0 81 -71q34 -66 34 -139q0 -91 -93 -214q65 -36 117 -36h111v-133zM520 372q0 36 -29 72q-33 38 -74 38q-46 0 -96 -35t-50 -62q0 -58 94 -107
q155 49 155 94zM581 989l-69 -124l-116 77l-67 -101l-120 81l68 115l127 -77l60 108z" />
    <glyph glyph-name="uniFED9" unicode="&#x643;" horiz-adv-x="1001" arabic-form="isolated" 
d="M924 314q0 -115 -51.5 -191t-126.5 -80q-289 -13 -344 -13q-199 0 -259 9q-113 15 -113 74q0 72 34 154h22q0 -76 110 -90q-5 2 165 2q186 0 425 17q82 7 82 56q0 59 -80.5 468.5t-80.5 438.5q0 93 56 127l88 -123q-48 -37 -50 -113v-1q0 -26 61 -316q62 -299 62 -419z
M538 672q0 -63 -56 -124q-63 -69 -147 -69q-60 0 -151 58q239 21 239 67q0 22 -74 28q-81 5 -81 62q0 53 57 145q65 102 143 145l15 -107q-114 -52 -114 -82q0 -31 67 -35q102 -19 102 -88z" />
    <glyph glyph-name="uniFEDA" unicode="&#x643;" horiz-adv-x="1501" arabic-form="final" 
d="M1522 50h-102q-177 0 -197 247q-62 -168 -142 -230q-89 -68 -277 -116.5t-367 -48.5q-437 0 -437 262q0 94 54 255l25 -4q-21 -69 -21 -124q0 -106 101.5 -168t272.5 -62q283 0 566 88q109 34 155.5 96.5t46.5 173.5q0 107 -45 629q-2 25 -2 88q0 49 23 74
q38 -28 45 -120q7 -96 47 -610q15 -187 61 -253q31 -44 90 -44h103v-133zM734 656q0 -64 -56 -124q-63 -70 -148 -70q-59 0 -150 59q238 21 238 67q0 22 -73 27q-82 6 -82 63q0 53 57 144q65 102 143 145l16 -106q-115 -52 -115 -83t67 -34q103 -20 103 -88z" />
    <glyph glyph-name="uniFEDB" unicode="&#x643;" horiz-adv-x="701" arabic-form="initial" 
d="M1052 1277l-61 -135q-374 -123 -613 -220q-272 -110 -272 -152q0 -19 150 -99q118 -61 188 -163t70 -217q0 -241 -385 -241h-129v133h173q105 0 197 30q103 34 103 84q0 52 -97 143q-91 84 -176 124q-94 44 -114.5 67.5t-20.5 91.5q0 85 21 122q19 34 189 124
q273 145 777 308z" />
    <glyph glyph-name="uniFEDC" unicode="&#x643;" horiz-adv-x="1099" arabic-form="medial" 
d="M1117 50h-113q-40 0 -87 32q-38 26 -141 121l-119 109q-82 69 -151 110q8 -30 8 -63q0 -309 -401 -309h-113v133h119q151 0 258 42t107 106q0 74 -110 164q-107 87 -234 125q-93 125 -93 193q0 65 48.5 124t180.5 151q250 176 701 381l-40 -138q-417 -199 -647 -342
q-203 -126 -203 -169q0 -34 107 -76q202 -79 389 -221q41 -31 261 -223q133 -117 176 -117h97v-133z" />
    <glyph glyph-name="uniFEDD" unicode="&#x644;" horiz-adv-x="841" arabic-form="isolated" 
d="M782 185q0 -144 -48 -218q-52 -84 -171.5 -141t-240.5 -57q-138 0 -228 73t-90 186q0 147 124 366l27 -15l-13 -27q-75 -147 -75 -221q0 -92 76 -152t192 -60q164 0 327 95q79 46 79 115q0 133 -67.5 583.5t-67.5 465.5q0 69 43 123l94 -131q-43 -41 -43 -127
q0 -37 41 -380t41 -478z" />
    <glyph glyph-name="uniFEDE" unicode="&#x644;" horiz-adv-x="1001" arabic-form="final" 
d="M1023 50h-111q-77 0 -122 133q13 -187 13 -249q0 -181 -65 -307q-48 -94 -164.5 -151.5t-260.5 -57.5q-143 0 -224 71.5t-81 197.5q0 171 127 361l20 -11q-88 -157 -88 -249q0 -95 75.5 -153t202.5 -58q153 0 303 84q66 36 85 66.5t19 101.5q0 122 -30.5 654.5
t-30.5 544.5q0 91 54 202l11 -228q28 -369 70 -600q41 -219 107 -219h90v-133z" />
    <glyph glyph-name="uniFEDF" unicode="&#x644;" horiz-adv-x="401" arabic-form="initial" 
d="M338 430q0 -380 -231 -380h-107v133h93q93 0 147 38q49 36 49 85q0 39 -55 387q-53 330 -53 387v4q6 134 65 176l83 -138q-68 -48 -68 -135q0 -46 38.5 -276t38.5 -281z" />
    <glyph glyph-name="uniFEE0" unicode="&#x644;" horiz-adv-x="499" arabic-form="medial" 
d="M515 50h-104q-114 0 -160 206q-16 -76 -50 -135q-43 -71 -94 -71h-107v133h85q147 0 147 286q0 112 -16.5 363.5t-16.5 268.5q0 90 31 118q20 -14 26 -33q12 -34 17 -132l34 -613q15 -258 137 -258h71v-133z" />
    <glyph glyph-name="uniFEE1" unicode="&#x645;" horiz-adv-x="600" arabic-form="isolated" 
d="M531 355q0 -44 -30 -118q-24 1 -71 4q-37 2 -54 2q-136 0 -234.5 -52t-98.5 -124q0 -49 69 -347q70 -304 73 -332v-4q0 -32 -32 -77q-18 100 -90 390q-61 238 -61 299q0 90 25 187q28 107 65 131q81 50 222 85q-51 55 -94 55q-42 0 -97 -60l-33 8q41 119 82 164t109 45
q84 0 180 -110q70 -80 70 -146z" />
    <glyph glyph-name="uniFEE2" unicode="&#x645;" horiz-adv-x="799" arabic-form="final" 
d="M815 50h-67q-208 0 -277 54q3 -34 3 -70q0 -71 -22.5 -121t-54.5 -50q-45 0 -85.5 76t-60.5 199q-206 -42 -206 -144q0 -41 10 -105q85 -442 85 -555q0 -60 -40 -113q-8 99 -53 372q-39 232 -39 329q0 134 37.5 210.5t128.5 134.5q58 37 75 48q26 21 63 59
q149 -191 436 -191h67v-133z" />
    <glyph glyph-name="uniFEE3" unicode="&#x645;" horiz-adv-x="701" arabic-form="initial" 
d="M627 306q0 -46 -34 -98.5t-67 -52.5q-54 0 -225 97q-65 -100 -88 -127q-62 -75 -115 -75h-98v133h97q98 0 190 151q44 76 89 153q53 77 114 77q60 0 103 -109q34 -87 34 -149zM511 331q0 108 -80 108q-56 0 -56 -47q0 -31 136 -61z" />
    <glyph glyph-name="uniFEE4" unicode="&#x645;" horiz-adv-x="900" arabic-form="medial" 
d="M919 50h-124q-96 0 -189 88q-6 -118 -86 -118q-52 0 -142 65q-7 6 -130 107q-74 -90 -86 -103q-41 -39 -85 -39h-77v133h77q81 0 197.5 126t155.5 126q27 0 77 -49l91 -89q138 -114 197 -114h124v-133zM498 217q0 31 -24.5 90t-43.5 59q-47 0 -101 -93q100 -97 137 -97
q32 0 32 41z" />
    <glyph glyph-name="uniFEE5" unicode="&#x646;" horiz-adv-x="822" arabic-form="isolated" 
d="M752 361q0 -184 -122 -299t-314 -115q-148 0 -231 73.5t-83 205.5q0 111 102 324l20 -10q-67 -148 -67 -226q0 -88 75.5 -149t183.5 -61q155 0 272 61t117 141q0 109 -142 404q0 23 47 131q142 -211 142 -480zM417 955l-74 -116l-109 75l73 123z" />
    <glyph glyph-name="uniFEE6" unicode="&#x646;" horiz-adv-x="1001" arabic-form="final" 
d="M1024 50h-138q-13 -282 -113 -406q-137 -168 -425 -168q-348 0 -348 265q0 164 129 341l20 -21q-87 -115 -87 -227q0 -96 92 -156t241 -60q199 0 329 81q97 61 97 218q0 128 -66 230l59 137q18 -45 58 -75q36 -26 62 -26h90v-133zM537 462l-71 -115l-112 79l74 114z" />
    <glyph glyph-name="uniFEE7" unicode="&#x646;" horiz-adv-x="401" arabic-form="initial" 
d="M330 345q0 -295 -213 -295h-117v133h117q57 0 108 23q56 25 56 61q0 17 -11 35l-47 77q-16 25 -16 47q0 23 13 43l61 92q49 -109 49 -216zM295 875l-74 -116l-113 82l75 114z" />
    <glyph glyph-name="uniFEE8" unicode="&#x646;" horiz-adv-x="499" arabic-form="medial" 
d="M514 50h-174q-24 0 -57 43t-35 83q-66 -126 -171 -126h-77v133h77q98 0 211 155l13 -4q13 -86 28 -115q21 -36 70 -36h115v-133zM322 643l-72 -116l-108 75l67 117z" />
    <glyph glyph-name="uniFEE9" unicode="&#x647;" horiz-adv-x="600" arabic-form="isolated" 
d="M507 304q0 -119 -70 -197.5t-174 -78.5q-74 0 -121.5 53.5t-47.5 135.5q0 88 61 213t85.5 159.5t51.5 34.5q64 0 133 -88q82 -103 82 -232zM438 278q0 27 -51 69q-82 66 -144 66q-39 0 -63.5 -41.5t-24.5 -98.5q0 -75 117 -75q70 0 118 22.5t48 57.5z" />
    <glyph glyph-name="uniFEEA" unicode="&#x647;" horiz-adv-x="701" arabic-form="final" 
d="M716 50h-153q-100 0 -137 241l-66 -62q-50 -39 -99 -39q-68 0 -121.5 21t-53.5 48q0 17 50 122q51 109 236 202v19q0 69 45 155l67 -406q28 -168 79 -168h153v-133zM417 359l-27 155q-132 -45 -194 -153q54 -23 146 -23q37 0 75 21z" />
    <glyph glyph-name="uniFEEB" unicode="&#x647;" horiz-adv-x="900" arabic-form="initial" 
d="M836 291q0 -155 -102 -155q-49 0 -168.5 27t-155.5 46q-52 -45 -105 -89q-93 -70 -167 -70h-138v133h137q96 0 168 56q-33 40 -33 75q0 89 136 256q-21 7 -41 7q-19 0 -32 -2q26 158 106 158q43 0 120.5 -56t149.5 -141q125 -145 125 -245zM799 246q-56 118 -207 234
q-20 -116 -74 -187q161 -47 256 -47h25zM531 406q0 31 -23 66t-51 35q-35 0 -78.5 -42.5t-43.5 -76.5q0 -25 41 -43l79 -31q76 39 76 92z" />
    <glyph glyph-name="uniFEEC" unicode="&#x647;" horiz-adv-x="798" arabic-form="medial" 
d="M818 50h-107q-47 0 -180 -16q64 -76 64 -145q0 -107 -49.5 -182.5t-121.5 -75.5q-82 0 -139 118.5t-62 284.5q-82 16 -146 16h-77v133h77q12 0 157 29q65 166 152.5 288t138.5 122q54 0 54 -129q0 -120 -48 -200q-43 -73 -146 -142q139 32 326 32h107v-133zM525 392
q0 25 -19 47.5t-40 22.5q-97 0 -184 -236q243 67 243 166zM554 -166q0 61 -77 115t-202 81q35 -248 178 -248q39 0 70 15t31 37z" />
    <glyph glyph-name="uniFEED" unicode="&#x648;" horiz-adv-x="600" arabic-form="isolated" 
d="M511 217q0 -265 -130 -478t-292 -213q-102 0 -268 88l20 17q67 -26 133 -26q157 0 300 136q82 77 132 181q50 99 50 182q0 50 -22 88q-54 -75 -106 -75q-53 0 -92 40t-39 95q0 62 67 204q45 94 102 94q58 0 101.5 -100t43.5 -233zM377 324q-18 48 -59 48q-37 0 -37 -41
q0 -47 41 -47q39 0 55 40z" />
    <glyph glyph-name="uniFEEE" unicode="&#x648;" horiz-adv-x="701" arabic-form="final" 
d="M716 50h-225q-54 -212 -124 -322q-129 -202 -302 -202q-93 0 -257 92l19 20q77 -31 131 -31q165 0 308.5 131t178.5 312h-35q-95 0 -155.5 31.5t-60.5 82.5q0 61 85 202q46 75 88 75q48 0 86.5 -76t42.5 -182h220v-133zM437 183q-34 121 -108 121q-15 0 -32.5 -15
t-17.5 -37q0 -28 42 -47q44 -22 116 -22z" />
    <glyph glyph-name="uniFEEF" unicode="&#x649;" horiz-adv-x="1200" arabic-form="isolated" 
d="M1135 751l-32 -160q-41 41 -88 41q-88 0 -209.5 -80.5t-121.5 -172.5q0 -76 129 -99l165 -30q98 -18 98 -71q0 -87 -35 -145q-56 -90 -268.5 -177.5t-380.5 -87.5q-183 0 -288 80t-105 218q0 112 56 241q29 67 116 221l25 -19q-120 -229 -120 -338q0 -114 97.5 -183.5
t258.5 -69.5q159 0 371 78q199 74 199 113q0 31 -56 39l-154 21q-189 25 -189 148q0 106 169 286q150 160 291 160q32 0 72 -13z" />
    <glyph glyph-name="uniFEF0" unicode="&#x649;" horiz-adv-x="1099" arabic-form="final" 
d="M1119 50h-211q-98 0 -157 -29.5t-59 -73.5q0 -32 67 -45l92 -19q136 -27 136 -144q0 -130 -215 -224q-194 -86 -405 -86q-173 0 -270 85.5t-97 238.5q0 156 118 372l20 -17q-82 -172 -82 -267q0 -121 90.5 -191.5t245.5 -70.5q147 0 343 57q200 57 200 103q0 49 -88 57
l-155 13q-101 9 -101 72q0 104 100 201q103 101 231 101h197v-133z" />
    <glyph glyph-name="uniFEF1" unicode="&#x64a;" horiz-adv-x="1200" arabic-form="isolated" 
d="M1135 751l-32 -160q-41 41 -88 41q-88 0 -209.5 -80.5t-121.5 -172.5q0 -76 129 -99l165 -30q98 -18 98 -71q0 -87 -35 -145q-56 -90 -268.5 -177.5t-380.5 -87.5q-183 0 -288 80t-105 218q0 112 56 241q29 67 116 221l25 -19q-120 -229 -120 -338q0 -114 97.5 -183.5
t258.5 -69.5q159 0 371 78q199 74 199 113q0 31 -56 39l-154 21q-189 25 -189 148q0 106 169 286q150 160 291 160q32 0 72 -13zM669 -367l-75 -114l-114 74l-62 -104l-119 77l72 119l115 -74l63 102z" />
    <glyph glyph-name="uniFEF2" unicode="&#x64a;" horiz-adv-x="1099" arabic-form="final" 
d="M1119 50h-211q-98 0 -157 -29.5t-59 -73.5q0 -32 67 -45l92 -19q136 -27 136 -144q0 -130 -215 -224q-194 -86 -405 -86q-173 0 -270 85.5t-97 238.5q0 156 118 372l20 -17q-82 -172 -82 -267q0 -121 90.5 -191.5t245.5 -70.5q147 0 343 57q200 57 200 103q0 49 -88 57
l-155 13q-101 9 -101 72q0 104 100 201q103 101 231 101h197v-133zM617 -677l-76 -98l-106 68l-81 -74l-109 63l82 95l108 -70l79 88z" />
    <glyph glyph-name="uniFEF3" unicode="&#x64a;" horiz-adv-x="499" arabic-form="initial" 
d="M422 345q0 -295 -214 -295h-207v133h207q57 0 108 23q56 25 56 61q0 17 -11 35l-47 77q-16 25 -16 47q0 23 14 43l60 92q50 -109 50 -216zM408 -117l-73 -117l-117 75l-66 -102l-114 70l67 119l122 -74l61 102z" />
    <glyph glyph-name="uniFEF4" unicode="&#x64a;" horiz-adv-x="499" arabic-form="medial" 
d="M514 50h-174q-24 0 -57 43t-35 83q-66 -126 -171 -126h-77v133h77q98 0 211 155l13 -4q13 -86 28 -115q21 -36 70 -36h115v-133zM430 -166l-72 -119l-115 81l-63 -102l-115 86l69 111l116 -82l67 104z" />
    <glyph glyph-name=".notdef" horiz-adv-x="1024" 
d="M102 1294v-1040l349 520zM164 161h696l-348 521zM573 774l349 -520v1040zM512 866l348 518h-696zM0 59v1430h1024v-1430h-1024z" />
    <glyph glyph-name=".null" 
 />
    <glyph glyph-name="nonmarkingreturn" horiz-adv-x="682" 
 />
    <glyph glyph-name="space" unicode=" " horiz-adv-x="512" 
 />
    <glyph glyph-name="exclam" unicode="!" horiz-adv-x="466" 
d="M233 1407q43 0 76 -37t33 -113q0 -59 -7.5 -116t-20.5 -134.5t-21 -144.5q-12 -97 -18.5 -183.5t-9 -134t-3.5 -55.5q-4 -41 -29 -41q-23 0 -28 27q-1 13 -6 78.5t-12.5 152t-14.5 156.5q-7 66 -27 190t-20 205q0 76 32.5 113t75.5 37zM125 147q0 44 32 76.5t76 32.5
t76.5 -32.5t32.5 -76.5t-32.5 -76t-76.5 -32t-76 32t-32 76z" />
    <glyph glyph-name="quotedbl" unicode="&#x22;" horiz-adv-x="688" 
d="M440 933q-53 327 -53 345q0 36 31 69t74 33q37 0 54 -20t17 -48q0 -15 -16.5 -107.5t-33.5 -177.5l-17 -85zM182 931q-53 327 -53 345q0 36 30.5 69t73.5 33q37 0 54.5 -20t17.5 -48q0 -15 -16.5 -107.5t-33.5 -177.5l-17 -85z" />
    <glyph glyph-name="numbersign" unicode="#" horiz-adv-x="901" 
d="M547 532l35 227h-226l-37 -227h228zM649 759l-37 -227h185l-15 -98h-182l-57 -348h-68l53 348h-223l-57 -348h-68l56 348h-185l15 98h186l35 227h-185l17 99h184l55 348h70l-57 -348h227l53 348h68l-55 -348h186l-16 -99h-185z" />
    <glyph glyph-name="dollar" unicode="$" horiz-adv-x="901" 
d="M188 84q-15 0 -30.5 -11.5t-38.5 -11.5q0 60 -33 297l53 6q24 -97 96 -169.5t171 -86.5v492q-36 16 -56.5 25.5t-57.5 29.5t-60 37t-52.5 45t-46 56t-28 65.5t-11.5 79.5q0 63 27 117t72 89.5t100 57t113 26.5v115h69v-113q49 -1 124 -8.5t114 -7.5q4 -62 41 -293l-54 -8
l-10 37q-32 101 -83 154t-132 63v-438q344 -126 344 -351q0 -27 -5 -58.5t-25.5 -81t-55 -88.5t-101.5 -70.5t-157 -38.5v-148h-69v146q-69 2 -137.5 23.5t-80.5 21.5zM475 573v-465q34 3 65.5 15t62.5 34.5t50 64.5t19 97q0 58 -17.5 103t-50.5 74t-61.5 45.5t-67.5 31.5z
M406 757v410q-77 -9 -129 -65.5t-52 -145.5q0 -115 181 -199z" />
    <glyph glyph-name="percent" unicode="%" horiz-adv-x="1304" 
d="M885 229q0 -72 28 -103.5t64 -31.5q53 0 97.5 52t66.5 120.5t22 128.5q0 70 -30 97.5t-62 27.5q-47 0 -91.5 -48t-69.5 -115.5t-25 -127.5zM778 260q0 120 80.5 221.5t190.5 101.5q34 0 62.5 -8.5t55.5 -28t42.5 -57.5t15.5 -92t-17.5 -115t-48.5 -117.5t-82.5 -93.5
t-111.5 -37q-88 0 -137.5 68t-49.5 158zM745 1126q83 0 174.5 26.5t133.5 84.5l65 -33l-839 -1170l-70 31l735 1024q-98 -39 -219 -39q-36 0 -85.5 13t-78.5 30q6 -21 6 -51q0 -51 -17.5 -112t-48.5 -118t-83 -94.5t-113 -37.5q-60 0 -103.5 35t-62 84t-18.5 104
q0 122 80.5 223.5t187.5 101.5q41 0 81 -15.5t56 -35.5q111 -51 219 -51zM225 874q0 -71 28.5 -103t63.5 -32q53 0 97.5 51t67 119.5t22.5 130.5q0 68 -28 96.5t-64 28.5q-71 0 -129 -98t-58 -193z" />
    <glyph glyph-name="ampersand" unicode="&#x26;" horiz-adv-x="1443" 
d="M512 751q-150 -83 -205 -169.5t-55 -203.5q0 -141 68.5 -206.5t175.5 -65.5q102 0 169 48.5t150 162.5q-83 109 -183.5 254t-119.5 180zM862 252q-76 -104 -166.5 -158.5t-214.5 -54.5q-85 0 -154 18.5t-123 57t-84 105.5t-30 158q0 123 88.5 231t288.5 220
q-56 96 -79 162.5t-23 126.5q0 100 84.5 181t228.5 81q109 0 184.5 -61t75.5 -156q0 -82 -84.5 -174.5t-218.5 -169.5l8 -17q63 -108 250 -360q102 151 158 262q47 87 47 125q0 31 -29 31l-76 4q-10 0 -10 14v41l4 4q125 -4 195 -4l178 4l4 -4v-39q0 -16 -18 -16l-58 -4
q-48 -3 -77.5 -37.5t-90.5 -145.5q-102 -182 -182 -296l74 -103q45 -62 87.5 -95.5t69.5 -33.5q52 0 89 26t67 85l33 -17q-33 -102 -88 -153t-113 -51q-31 0 -51.5 3t-52 15t-64.5 42t-67 77zM592 897q96 63 152.5 136t56.5 130q0 69 -35 109t-98 40q-22 0 -47 -11
t-50.5 -32.5t-42 -60t-16.5 -86.5q0 -74 80 -225z" />
    <glyph glyph-name="quotesingle" unicode="'" horiz-adv-x="389" 
d="M162 931q-53 327 -53 345q0 36 30.5 69t73.5 33q37 0 54.5 -20t17.5 -48q0 -15 -17 -107.5t-34 -177.5l-17 -85z" />
    <glyph glyph-name="parenleft" unicode="(" horiz-adv-x="604" 
d="M90 575q0 274 120.5 520.5t313.5 411.5l37 -37q-21 -24 -38.5 -45t-51.5 -70.5t-60.5 -98.5t-58 -125.5t-52.5 -155.5t-35.5 -184t-14.5 -216q0 -542 311 -899l-37 -35q-87 76 -157.5 164t-115 166t-77 164t-48 149t-24.5 130.5t-10.5 98.5t-1.5 62z" />
    <glyph glyph-name="parenright" unicode=")" horiz-adv-x="604" 
d="M516 575q0 -274 -120.5 -520.5t-313.5 -411.5l-37 37q21 24 38.5 45t51.5 70.5t60.5 98.5t58 125.5t52.5 155.5t35.5 184t14.5 216q0 542 -311 899l37 35q87 -76 157.5 -164t115 -166t77 -164t48 -149t24.5 -130.5t10.5 -98.5t1.5 -62z" />
    <glyph glyph-name="asterisk" unicode="*" horiz-adv-x="755" 
d="M344 1179q-36 8 -86 8q-82 0 -124 16.5t-42 59.5q0 25 17 43.5t51 18.5q30 0 58.5 -17.5t65 -45t72.5 -42.5q-4 41 -25.5 102t-21.5 87q0 33 17.5 56.5t44.5 23.5q29 0 48 -18.5t19 -53.5q0 -29 -18.5 -99.5t-20.5 -99.5q37 16 74 44.5t64.5 45.5t56.5 17q36 0 53 -20.5
t17 -41.5q0 -76 -142 -76q-63 0 -112 -8q25 -28 72 -58.5t72.5 -57t25.5 -62.5q0 -26 -18.5 -42.5t-41.5 -16.5q-36 0 -59 33t-46 93.5t-40 86.5q-15 -27 -39.5 -90.5t-47 -93t-57.5 -29.5q-26 0 -42.5 16.5t-16.5 40.5q0 39 26.5 65.5t73.5 56.5t72 58z" />
    <glyph glyph-name="plus" unicode="+" horiz-adv-x="1079" 
d="M592 585h352v-100h-352v-356h-105v356h-352v100h352v357h105v-357z" />
    <glyph glyph-name="comma" unicode="," horiz-adv-x="450" 
d="M213 254q61 0 98 -55.5t37 -147.5q0 -102 -71.5 -174t-170.5 -90q-18 18 -18 49q73 19 126.5 73t53.5 91q0 56 -73 63q-91 15 -91 90q0 43 31 72t78 29z" />
    <glyph glyph-name="hyphen" unicode="-" horiz-adv-x="800" 
d="M613 204h-442q-13 0 -22 12t-9 27q0 28 16.5 56t34.5 28h449q28 0 28 -41q0 -21 -18 -51.5t-37 -30.5z" />
    <glyph glyph-name="period" unicode="." horiz-adv-x="514" 
d="M117 147q0 44 32 76.5t76 32.5t76.5 -32.5t32.5 -76.5t-32.5 -76t-76.5 -32t-76 32t-32 76z" />
    <glyph glyph-name="slash" unicode="/" horiz-adv-x="661" 
d="M600 1382l-485 -1444h-84l485 1444h84z" />
    <glyph glyph-name="zero" unicode="0" horiz-adv-x="901" 
d="M451 1171q-30 0 -56.5 -12t-55.5 -49.5t-50 -97t-35 -163.5t-14 -241q0 -60 3.5 -118t16.5 -131t34 -127t60 -91t90 -37q13 0 27.5 3t35.5 14.5t40 30t38 53t31 79.5q37 134 37 400q0 182 -33.5 297.5t-82.5 158.5q-36 31 -86 31zM442 36q-106 0 -191 83t-130 217.5
t-45 291.5q0 139 31.5 257t84 195t119.5 120t140 43q65 0 127.5 -37t107.5 -98q131 -172 131 -461q0 -131 -25 -238t-64 -174.5t-89.5 -114t-99.5 -65.5t-97 -19z" />
    <glyph glyph-name="one" unicode="1" horiz-adv-x="901" 
d="M391 1034q-55 0 -178 -51l-31 55q244 114 391 205q13 0 13 -10q-6 -40 -6 -275v-700q0 -130 77 -136l107 -8q16 0 16 -12v-43l-4 -4q-152 4 -270 4q-135 0 -287 -4l-4 4v43q0 12 16 12l123 8q78 5 78 136v657q0 59 -8.5 89t-32.5 30z" />
    <glyph glyph-name="two" unicode="2" horiz-adv-x="901" 
d="M121 966q0 45 21.5 92.5t61 89.5t104 68.5t141.5 26.5q62 0 121 -17.5t110.5 -51.5t83 -92.5t31.5 -133.5q0 -53 -13.5 -98.5t-44 -88.5t-59 -74t-78.5 -79l-194 -189q-144 -144 -144 -233h344q53 0 85 41t57 143l51 -8l-47 -307q-91 4 -152 4h-338l-153 -4
q0 95 42.5 179.5t176.5 221.5l143 142q86 88 124 168t38 174q0 66 -20.5 115.5t-52.5 74.5t-63.5 37t-60.5 12q-95 0 -137.5 -38.5t-42.5 -84.5q0 -19 8 -47t8 -45q0 -37 -22 -55.5t-51 -18.5q-33 0 -55.5 22.5t-22.5 53.5z" />
    <glyph glyph-name="three" unicode="3" horiz-adv-x="901" 
d="M424 1179q-23 0 -52 -7t-62 -22.5t-55 -47.5t-22 -76q0 -37 -16 -69t-53 -32q-32 0 -49 21t-17 45q0 21 10.5 50.5t37.5 65.5t66.5 65.5t105.5 50t147 20.5q71 0 126 -20.5t85.5 -52.5t45.5 -66.5t15 -67.5q0 -31 -5 -55t-22.5 -59.5t-59.5 -74.5t-107 -81l2 -5
q47 -7 90.5 -27t84 -55.5t65 -94.5t24.5 -134q0 -124 -61 -219t-159.5 -143.5t-215.5 -48.5q-61 0 -124.5 15.5t-110 46t-46.5 67.5q0 24 26 45.5t56 21.5q27 0 43.5 -12.5t32.5 -36.5q28 -43 49 -57q36 -27 98 -27q23 0 52 8.5t64.5 31t64 57t48 93.5t19.5 132
q0 253 -252 253q-51 0 -84 -4l-8 62q122 19 208.5 107t86.5 165q0 85 -50.5 128.5t-121.5 43.5z" />
    <glyph glyph-name="four" unicode="4" horiz-adv-x="901" 
d="M834 465q28 0 28 -31q0 -18 -18 -40t-37 -22h-137v-166q0 -46 13 -65.5t54 -22.5l56 -4q14 0 14 -14v-41l-4 -4q-129 4 -213 4l-215 -4l-4 4v41q0 14 14 14l55 4q46 3 68 23.5t22 64.5v166h-401q-65 0 -82 82q0 2 4 6l537 762q17 21 30 21h54q9 0 12 -8q1 -3 1 -6
q0 -5 -3 -9l-516 -755h364v321q0 29 21 41q50 35 90 35q19 0 24 -14.5t5 -49.5v-333h164z" />
    <glyph glyph-name="five" unicode="5" horiz-adv-x="901" 
d="M627 426q0 150 -65.5 222.5t-168.5 72.5q-120 0 -246 -48l66 560q125 -11 209 -11q125 0 319 21l13 -6l-31 -134q-100 -10 -203 -10q-80 0 -233 17l-39 -324q78 31 196 31q157 0 252 -105t95 -252q0 -183 -115 -302t-295 -119q-57 0 -120.5 19t-110 53.5t-46.5 72.5
q0 29 23 50.5t51 21.5t48 -16.5t44 -47.5q37 -50 60 -66q33 -24 76 -24q89 0 155 94t66 230z" />
    <glyph glyph-name="six" unicode="6" horiz-adv-x="901" 
d="M285 747q42 22 98 34.5t100 12.5q76 0 137 -20t99.5 -53t63.5 -78.5t35.5 -93t10.5 -99.5t-12.5 -106.5t-40.5 -109.5t-68 -98t-101 -70t-134 -27q-50 0 -98 10.5t-102.5 42.5t-94 82t-66 136.5t-26.5 199.5q0 120 46 244t134 225q82 97 181 159.5t243 104.5
q23 -14 23 -49q-172 -64 -276.5 -183.5t-151.5 -263.5zM264 671q-20 -87 -20 -168q0 -403 250 -403q75 0 126.5 81.5t51.5 233.5q0 33 -5.5 70t-21 82t-40 79.5t-67 58.5t-96.5 24q-106 0 -178 -58z" />
    <glyph glyph-name="seven" unicode="7" horiz-adv-x="901" 
d="M330 1095q-28 0 -48 -5t-45.5 -20t-46.5 -51t-36 -92l-56 6q37 233 39 310q0 6 8 6q10 -2 34.5 -14.5t62.5 -12.5h399q81 0 150 21l30 -23q-250 -609 -442 -1179l-133 -7l-6 13q146 329 436 1048h-346z" />
    <glyph glyph-name="eight" unicode="8" horiz-adv-x="901" 
d="M457 1183q-84 0 -132.5 -50.5t-48.5 -121.5q0 -36 7.5 -64t39 -69t89.5 -78l59 -36q166 122 166 237q0 75 -45.5 128.5t-134.5 53.5zM764 999q0 -135 -221 -281l119 -77q151 -100 151 -269q0 -57 -23.5 -114.5t-68 -107t-118.5 -80.5t-165 -31q-158 0 -252 78.5
t-94 224.5q0 134 113 233q86 75 141 117l-35 20q-90 56 -131 118.5t-41 143.5q0 115 91 192t237 77q139 0 218 -68.5t79 -175.5zM442 98q30 0 59 5.5t62 21.5t57.5 41t41 68t16.5 99q0 153 -172 258l-90 56q-58 -39 -100 -85.5t-61.5 -88.5t-27.5 -73.5t-8 -57.5
q0 -62 22 -111t56.5 -77t72 -42t72.5 -14z" />
    <glyph glyph-name="nine" unicode="9" horiz-adv-x="901" 
d="M608 534q-42 -22 -98 -34.5t-100 -12.5q-76 0 -137 20t-99.5 53t-64 78.5t-36 93t-10.5 99.5t12.5 106.5t40.5 110t68 98.5t101.5 70t134.5 27q50 0 98 -10.5t102.5 -42.5t94 -82t66 -136.5t26.5 -199.5q0 -120 -46 -244t-134 -225q-82 -97 -181 -159.5t-243 -104.5
q-23 14 -23 49q172 64 276.5 183t151.5 263zM629 610q20 87 20 168q0 403 -250 403q-75 0 -126.5 -81.5t-51.5 -233.5q0 -33 5.5 -70t21 -81.5t40 -79.5t67 -58.5t96.5 -23.5q108 0 178 57z" />
    <glyph glyph-name="colon" unicode=":" horiz-adv-x="528" 
d="M131 786q0 44 32.5 76.5t76.5 32.5t76 -32.5t32 -76.5t-32 -76.5t-76 -32.5t-76.5 32.5t-32.5 76.5zM131 247q0 44 32.5 76.5t76.5 32.5t76 -32.5t32 -76.5t-32 -76t-76 -32t-76.5 32t-32.5 76z" />
    <glyph glyph-name="semicolon" unicode=";" horiz-adv-x="450" 
d="M111 786q0 44 32 76.5t76 32.5t76.5 -32.5t32.5 -76.5t-32.5 -76.5t-76.5 -32.5t-76 32.5t-32 76.5zM213 254q61 0 98 -55.5t37 -147.5q0 -102 -71.5 -174t-170.5 -90q-18 18 -18 49q73 19 126.5 73t53.5 91q0 56 -73 63q-91 15 -91 90q0 43 31 72t78 29z" />
    <glyph glyph-name="less" unicode="&#x3c;" horiz-adv-x="997" 
d="M250 548l649 -237v-102l-799 290v99l799 288v-102z" />
    <glyph glyph-name="equal" unicode="=" horiz-adv-x="1079" 
d="M944 710v-100h-809v100h809zM944 454v-100h-809v100h809z" />
    <glyph glyph-name="greater" unicode="&#x3e;" horiz-adv-x="997" 
d="M750 542l-650 238v102l799 -291v-98l-799 -289v103z" />
    <glyph glyph-name="question" unicode="?" horiz-adv-x="829" 
d="M199 1230q0 -38 12 -53t12 -49q0 -33 -24 -52.5t-56 -19.5t-58 20t-26 68q0 101 105 185q93 80 254 80q156 0 247 -84.5t91 -225.5q0 -47 -14.5 -90t-33 -72.5t-53 -63t-56 -50.5t-60.5 -45q-88 -65 -107 -103q-37 -70 -37 -149v-90q0 -21 -26 -21q-27 0 -27 21v94
q0 42 3.5 73t15.5 76.5t42 91t76 89.5q66 61 94.5 111.5t28.5 119.5q0 102 -59.5 179t-145.5 77q-85 0 -141.5 -35t-56.5 -82zM260 147q0 44 32.5 76.5t76.5 32.5t76 -32.5t32 -76.5t-32 -76t-76 -32t-76.5 32t-32.5 76z" />
    <glyph glyph-name="at" unicode="@" horiz-adv-x="1832" 
d="M1165 706q0 57 -38 93t-95 36q-35 0 -89 -20t-95 -62q-139 -139 -139 -362q0 -189 159 -189q54 0 121 77t115 190q61 142 61 237zM1194 211q0 -13 8.5 -19t14.5 -6q82 0 141.5 20.5t105 69.5t68 135t22.5 211q0 122 -39.5 226.5t-103 176.5t-144.5 123t-164.5 75
t-162.5 24q-96 0 -188 -25t-177 -80t-149 -134.5t-102.5 -196.5t-38.5 -258q0 -69 10 -138.5t33.5 -144.5t59 -141.5t91 -127t124 -104t162.5 -69t204 -25.5q241 0 411 135l27 -37q-108 -83 -213 -124.5t-264 -41.5q-180 0 -332.5 61t-256 166t-162 248t-58.5 306
q0 162 67 309t179.5 253.5t268 169t325.5 62.5q162 0 303.5 -51.5t240.5 -141t156 -214t57 -266.5q0 -74 -18 -144.5t-62 -140t-109.5 -121.5t-168.5 -84.5t-232 -32.5q-40 0 -56.5 26t-16.5 58q0 33 30 129l-4 2q-63 -106 -137 -158.5t-135 -52.5q-72 0 -124.5 27.5t-78 70
t-36.5 81.5t-11 75q0 106 44 205.5t113 168.5t154 111t166 42q52 0 97.5 -24.5t60.5 -63.5l10 49l109 26l30 -10l-122 -528q-27 -124 -27 -137z" />
    <glyph glyph-name="A" unicode="A" horiz-adv-x="1423" 
d="M539 639h356l-199 546h-4l-205 -520q-2 -5 -2 -9q0 -8 8 -11q12 -6 46 -6zM311 221q-8 -19 -8 -35q0 -20 12 -35q22 -29 78 -33l60 -4q16 0 16 -16v-39l-4 -4q-152 4 -268 4q-37 0 -189 -4l-4 4v39q0 16 16 16q75 5 118.5 35t80.5 119l455 1065q20 43 33.5 58.5
t35.5 15.5q20 0 32 -15t24 -47l420 -1110q22 -60 55.5 -86.5t95.5 -32.5l23 -2q20 0 20 -16v-39l-4 -4q-152 4 -240 4q-120 0 -272 -4l-2 4v39q0 16 14 16l58 4q59 5 80 26q12 11 12 31q0 14 -6 31l-125 347h-426q-36 0 -50 -7t-22 -28z" />
    <glyph glyph-name="B" unicode="B" horiz-adv-x="1191" 
d="M383 1226v-417h152q294 0 294 235q0 74 -25 129.5t-66.5 84.5t-85.5 42.5t-91 13.5q-45 0 -75 -1.5t-50 -7t-30.5 -10t-15.5 -17t-6 -22t-1 -30.5zM383 739v-520q0 -53 33.5 -73.5t136.5 -20.5q113 0 189 20.5t115 60t54 85t15 106.5q0 71 -24 131.5t-71 108t-126 75
t-181 27.5h-141zM35 98q0 16 14 16l62 4q67 5 86.5 19.5t19.5 66.5v1031q0 52 -19.5 66.5t-86.5 19.5l-62 4q-14 0 -14 14v41l4 4q192 -4 260 -4q42 0 127.5 2t120.5 2q440 0 440 -315q0 -80 -55 -154.5t-135 -114.5v-4q143 -41 227 -130.5t84 -229.5q0 -56 -14 -107.5
t-50.5 -102.5t-93 -88t-148.5 -60t-210 -23q-104 0 -184 2t-109 2q-68 0 -260 -4l-4 4v39z" />
    <glyph glyph-name="C" unicode="C" horiz-adv-x="1318" 
d="M727 39q-128 0 -236 37.5t-183.5 101.5t-128.5 149.5t-78 180.5t-25 196q0 147 54.5 279t144.5 224t209 146t245 54q109 0 195.5 -22t148 -45.5t105.5 -25.5q9 -127 45 -317l-62 -8q-103 342 -454 342q-51 0 -109.5 -20.5t-120 -67.5t-111 -113t-81 -167t-31.5 -220
q0 -91 18 -179.5t56.5 -168.5t93 -140.5t133 -96.5t170.5 -36q143 0 255 52.5t220 171.5q30 0 47 -31q-104 -136 -237 -206t-283 -70z" />
    <glyph glyph-name="D" unicode="D" horiz-adv-x="1427" 
d="M35 96q0 18 14 18l62 4q56 3 81 24t25 69v1019q0 54 -20.5 70t-85.5 21l-58 4q-18 0 -18 16v39l4 4q192 -4 260 -4q35 0 148.5 2t185.5 2q145 0 276 -55t225 -148.5t149.5 -221.5t55.5 -269q0 -105 -22 -193.5t-60 -153t-91 -115t-111.5 -82.5t-126 -53t-130.5 -29.5
t-128 -8.5q-122 0 -234.5 2t-136.5 2q-68 0 -260 -4l-4 4v37zM383 209q0 -36 14 -52t61 -24t148 -8q92 0 168 13.5t148 49t121 92.5t78.5 148.5t29.5 212.5q0 99 -19 191.5t-64 181t-111.5 154.5t-170 106t-231.5 40q-43 0 -70 -2.5t-52.5 -10t-37.5 -24t-12 -42.5v-1026z
" />
    <glyph glyph-name="E" unicode="E" horiz-adv-x="1124" 
d="M911 1382q3 -14 20.5 -126.5t24.5 -170.5l-59 -10q-20 62 -35 96t-41 67t-64.5 46.5t-94.5 13.5h-216q-73 0 -73 -70v-430h260q52 0 74.5 20.5t27.5 65.5l6 52q0 6 4.5 11t10.5 5h45l8 -8q-8 -109 -8 -185q0 -69 8 -178l-8 -6h-45q-7 0 -11 5.5t-4 10.5l-6 52
q-4 44 -26.5 61t-75.5 17h-260v-515q0 -39 18 -53t55 -14h279q201 0 276 268l64 -10q-22 -95 -76 -342q-164 4 -262 4h-438q-68 0 -260 -4l-4 4v41q0 14 16 14l61 4q59 4 82 24t23 64v1022q0 47 -23.5 68t-81.5 25l-61 4q-16 0 -16 14v41l4 4q192 -4 260 -4h518q49 0 96 8
q8 0 8 -6z" />
    <glyph glyph-name="F" unicode="F" horiz-adv-x="976" 
d="M633 721h-260v-510q0 -47 25 -67.5t87 -25.5l54 -4q16 0 16 -16v-39l-4 -4q-192 4 -262 4q-66 0 -258 -4l-4 4v39q0 16 16 16l53 4q63 4 87 26t24 67v1017q0 47 -23.5 68t-81.5 25l-61 4q-16 0 -16 14v41l4 4q192 -4 260 -4h518q49 0 96 8q8 0 8 -6q3 -14 20.5 -126.5
t24.5 -170.5l-59 -10q-20 62 -35 96t-41 67t-64.5 46.5t-94.5 13.5h-216q-73 0 -73 -70v-430h260q52 0 74.5 20.5t27.5 65.5l6 52q0 6 4.5 11t10.5 5h45l8 -8q-8 -109 -8 -185q0 -69 8 -178l-8 -6h-45q-7 0 -11 5.5t-4 10.5l-6 52q-4 44 -26.5 61t-75.5 17z" />
    <glyph glyph-name="G" unicode="G" horiz-adv-x="1419" 
d="M768 1407q85 0 157.5 -14.5t113.5 -32t88 -32t87 -14.5q17 -175 46 -315l-62 -12q-17 57 -39.5 103.5t-59.5 93t-85 77.5t-118.5 50.5t-156.5 19.5q-137 0 -250 -75t-179 -213.5t-66 -313.5q0 -82 23 -167.5t70 -166t112.5 -144t158 -101.5t197.5 -38q87 0 168.5 25.5
t132.5 73.5v313q0 46 -24.5 63.5t-88.5 22.5l-53 4q-16 0 -16 16v54l4 4q192 -4 260 -4q66 0 188 4l4 -4v-54q0 -13 -16 -16q-49 -5 -70.5 -22.5t-21.5 -67.5v-238q0 -31 33 -57q-109 -94 -240.5 -142t-306.5 -48q-151 0 -281.5 52t-219.5 140t-140 206.5t-51 250.5
q0 110 27.5 209.5t76 177.5t115.5 141.5t145 105t164 63.5t174 22z" />
    <glyph glyph-name="H" unicode="H" horiz-adv-x="1433" 
d="M1051 211v505h-668v-510q0 -46 25 -64.5t88 -23.5l53 -4q16 0 16 -16v-39l-4 -4q-204 4 -262 4q-54 0 -258 -4l-4 4v39q0 16 14 16l55 4q62 4 86.5 24.5t24.5 63.5v1029q0 44 -25.5 62.5t-85.5 23.5l-55 4q-16 0 -16 16v39l4 4q204 -4 260 -4q58 0 262 4l4 -4v-39
q0 -16 -16 -16l-53 -4q-62 -5 -87.5 -24t-25.5 -62v-433h668v433q0 45 -25 63t-86 23l-53 4q-19 0 -19 16v39l4 4q204 -4 263 -4q56 0 260 4l4 -4v-39q0 -16 -17 -16l-53 -4q-62 -5 -87 -24t-25 -62v-1024q0 -47 24.5 -68t87.5 -25l53 -4q19 0 19 -16v-39l-4 -4
q-204 4 -262 4q-57 0 -261 -4l-4 4v39q0 16 17 16l53 4q63 4 87 26t24 67z" />
    <glyph glyph-name="I" unicode="I" horiz-adv-x="600" 
d="M383 1235v-1031q0 -45 25 -63t88 -23l53 -4q16 0 16 -16v-39l-4 -4q-98 4 -260 4q-160 0 -260 -4l-4 4v39q0 16 14 16l55 4q63 4 87 23.5t24 62.5v1031q0 45 -25 63t-86 23l-55 4q-16 0 -16 16v39l4 4q204 -4 260 -4q62 0 262 4l4 -4v-39q0 -16 -16 -16l-53 -4
q-62 -5 -87.5 -24t-25.5 -62z" />
    <glyph glyph-name="J" unicode="J" horiz-adv-x="645" 
d="M121 -201q23 0 44 8.5t45.5 36t42 72t29 124t11.5 185.5v979q0 71 -31 92.5t-115 26.5l-41 2q-18 0 -18 16v39l4 4q192 -4 283 -4q49 0 241 4l5 -4v-39q0 -16 -17 -16l-35 -2q-61 -3 -85.5 -23.5t-24.5 -64.5v-965q0 -125 -30.5 -221t-74.5 -153t-110 -109
q-94 -80 -234 -80q-42 0 -86.5 30t-44.5 80q0 31 26.5 52.5t51.5 21.5q29 0 51 -9t32 -19t23 -27q26 -37 58 -37z" />
    <glyph glyph-name="K" unicode="K" horiz-adv-x="1304" 
d="M383 692v-488q0 -45 25 -63t88 -23l53 -4q16 0 16 -16v-39l-4 -4q-98 4 -260 4q-160 0 -260 -4l-4 4v39q0 16 14 16l55 4q63 4 87 23.5t24 62.5v1031q0 45 -25 63t-86 23l-55 4q-16 0 -16 16v39l4 4q204 -4 260 -4q62 0 262 4l4 -4v-39q0 -16 -16 -16l-53 -4
q-62 -5 -87.5 -24t-25.5 -62v-465q53 3 90.5 23t73.5 57l344 360q30 33 41 55q6 11 6 20q0 10 -6 17q-11 15 -49 19l-43 4q-6 0 -11.5 4.5t-5.5 11.5v39l4 4q192 -4 238 -4q9 0 201 4l6 -4v-39q0 -16 -23 -16q-52 -6 -84 -14t-80 -35t-92 -74l-286 -309q-76 -80 -76 -101
q0 -24 24 -51l449 -532q65 -80 160 -93l14 -2q18 -5 18 -16v-39l-6 -4q-192 4 -213 4q-61 0 -143 -4l-4 4v12q0 87 -41 138l-334 405q-61 78 -172 78z" />
    <glyph glyph-name="L" unicode="L" horiz-adv-x="1077" 
d="M715 139q56 0 99.5 20t73 59.5t49 83.5t36.5 105l61 -10q-43 -198 -53 -342q-189 4 -244 4h-438q-68 0 -260 -4l-4 4v39q0 16 16 16l62 4q64 5 84 20.5t20 67.5v1029q0 44 -25.5 62.5t-85.5 23.5l-55 4q-16 0 -16 16v39l4 4q192 -4 260 -4q70 0 262 4l4 -4v-39
q0 -16 -16 -16l-53 -4q-63 -4 -88 -23.5t-25 -62.5v-994q0 -47 26 -74.5t70 -27.5h236z" />
    <glyph glyph-name="M" unicode="M" horiz-adv-x="1718" 
d="M1362 237l-57 916h-5l-460 -1084q-11 -22 -29 -22q-22 0 -31 22l-424 1063h-4l-86 -897q-1 -11 -1 -22q0 -35 13 -59q16 -33 58 -36l53 -4q21 0 21 -16v-39l-4 -4q-122 4 -189 4q-60 0 -182 -4l-4 4v39q0 16 18 16l55 4q74 5 82 117l99 1000q1 10 1 20q0 29 -12 44
q-17 19 -67 22l-60 4q-20 0 -20 14v41l4 4l303 -2l420 -1042q9 -27 16 -27t19 29l434 1042h274l5 -4v-41q0 -14 -23 -14l-55 -4q-78 -6 -78 -76v-10l72 -998q3 -57 20 -86.5t64 -32.5l55 -4q22 -3 22 -16v-39l-4 -4q-192 4 -229 4q-27 0 -219 -4l-6 4v39q0 7 5.5 11.5
t12.5 4.5l55 4q39 3 55 38q13 29 13 67v14z" />
    <glyph glyph-name="N" unicode="N" horiz-adv-x="1423" 
d="M1235 1200v-1098q0 -63 -43 -63q-46 0 -82 49l-715 903q-52 67 -69 67q-21 0 -21 -100v-719q0 -50 27.5 -83.5t85.5 -37.5l53 -4q16 0 16 -16v-39l-4 -4q-192 4 -223 4q-41 0 -233 -4l-4 4v37q0 15 26 18l53 4q58 4 84.5 39t26.5 82v946q-10 44 -51.5 90t-87.5 50
q-35 4 -35 16v39l6 4h279l702 -909q74 -96 89 -107q8 -6 13 -6q10 0 12.5 14t2.5 48v776q0 48 -26 82.5t-85 38.5l-53 4q-9 0 -19 4.5t-10 11.5v39l4 4q192 -4 236 -4q31 0 223 4l4 -4v-39q0 -16 -16 -16l-55 -4q-57 -4 -84 -37.5t-27 -83.5z" />
    <glyph glyph-name="O" unicode="O" horiz-adv-x="1429" 
d="M674 1337q-73 0 -143 -35.5t-131 -106t-98.5 -191.5t-37.5 -275q0 -142 42 -262t111 -197t156.5 -119.5t180.5 -42.5q179 0 296 158.5t117 427.5q0 156 -37.5 279.5t-104.5 202.5t-156 120t-195 41zM1356 733q0 -310 -176 -502t-467 -192q-132 0 -248 46t-202.5 129.5
t-136.5 207.5t-50 272q0 199 78.5 361.5t222 257t323.5 94.5q134 0 253.5 -49t208.5 -135.5t141.5 -213.5t52.5 -276z" />
    <glyph glyph-name="P" unicode="P" horiz-adv-x="1067" 
d="M383 1235v-519q38 -10 145 -10q153 0 231.5 74.5t78.5 236.5q0 93 -24 157.5t-67.5 96.5t-90 45t-105.5 13q-54 0 -88 -6t-51 -19.5t-23 -29t-6 -39.5zM217 204v1031q0 44 -28 64t-62 22l-80 4q-12 0 -12 12v43l4 4q152 -4 262 -4q45 0 143 9t121 9q91 0 165 -17
t121.5 -46t82 -63.5t52 -75t25 -74.5t7.5 -68q0 -56 -13.5 -110.5t-48 -111t-87 -99t-138 -69.5t-192.5 -27q-92 0 -156 20v-453q0 -45 25 -64t86 -22l75 -4q6 0 11.5 -4.5t5.5 -11.5v-39l-4 -4q-192 4 -281 4q-110 0 -262 -4l-4 4v39q0 16 16 16l53 4q62 5 87.5 24t25.5 62
z" />
    <glyph glyph-name="Q" unicode="Q" horiz-adv-x="1429" 
d="M674 1337q-73 0 -143 -35.5t-131 -106t-98.5 -191.5t-37.5 -275q0 -142 42 -262t111 -197t156.5 -119.5t180.5 -42.5q179 0 296 158.5t117 427.5q0 156 -37.5 279.5t-104.5 202.5t-156 120t-195 41zM285 -254q53 77 147.5 159t200.5 138q-244 29 -400.5 204t-156.5 447
q0 199 78.5 361.5t222 257t323.5 94.5q134 0 253.5 -49t208.5 -135.5t141.5 -213.5t52.5 -276q0 -272 -138 -456.5t-374 -225.5q-139 -37 -275 -139q28 4 41 4q75 0 158.5 -26.5t144.5 -57.5t135 -57.5t134 -26.5q49 0 98 18.5t80 56.5l35 -24q-61 -88 -130.5 -128
t-164.5 -40q-74 0 -144 20t-124 49t-105 57.5t-106 48.5t-107 20q-32 0 -77 -29.5t-72 -91.5z" />
    <glyph glyph-name="R" unicode="R" horiz-adv-x="1185" 
d="M557 1329q-102 0 -138 -23t-36 -71v-510h102q64 0 113.5 8t96 29t77 55t48.5 90t18 131q0 86 -25.5 146.5t-69 90.5t-88.5 42t-98 12zM555 1398q118 0 202.5 -20t151.5 -82q109 -103 109 -256q0 -76 -29.5 -140.5t-75 -105.5t-87.5 -66t-81 -38l259 -430
q48 -79 90.5 -118.5t105.5 -39.5l2 -49q-28 -14 -86 -14q-158 0 -270 182l-219 356q-25 40 -75 59t-169 19v-449q0 -45 24.5 -64t86.5 -24l55 -4q16 0 16 -16v-39l-4 -4q-192 4 -262 4q-68 0 -260 -4l-4 4v39q0 16 16 16l53 4q63 4 88 24t25 64v1029q0 44 -28 64t-62 22
l-80 4q-12 0 -12 12v43l4 4q192 -4 260 -4q44 0 139 9t117 9z" />
    <glyph glyph-name="S" unicode="S" horiz-adv-x="972" 
d="M793 1351q5 -38 10.5 -90.5t10.5 -91t13 -82.5l-63 -12q-14 47 -26.5 79.5t-35.5 70t-51.5 60t-73.5 37.5t-102 15q-99 0 -162 -66.5t-63 -162.5q0 -179 278 -279q59 -21 104.5 -41.5t96 -54.5t83.5 -73.5t55 -97t22 -126.5q0 -103 -56 -194.5t-154.5 -147t-213.5 -55.5
q-93 0 -197 15t-159 15q-4 111 -39 328l63 6q61 -291 348 -291q118 0 181 64t63 188q0 65 -17 113.5t-51 82t-70 54t-89 41.5q-66 26 -113 47.5t-102.5 57.5t-90 74.5t-58 95t-23.5 122.5q0 103 59 186.5t146 126t178 42.5q65 0 111 -6.5t67 -15t53.5 -19t67.5 -15.5z" />
    <glyph glyph-name="T" unicode="T" horiz-adv-x="1161" 
d="M158 1380h866q45 0 45 47l53 8q0 -140 27 -315l-62 -10q-27 124 -53 157t-108 33h-135q-57 0 -78 -17.5t-21 -68.5v-1008q0 -46 25.5 -64.5t87.5 -23.5l53 -4q19 0 19 -16v-39l-5 -4q-192 4 -262 4q-68 0 -260 -4l-4 4v39q0 16 16 16l54 4q63 4 86.5 24t23.5 64v1014
q0 47 -21 63.5t-79 16.5h-170q-85 0 -117 -33.5t-63 -156.5l-62 10q30 133 45 315l56 -8q0 -47 43 -47z" />
    <glyph glyph-name="U" unicode="U" horiz-adv-x="1353" 
d="M657 39q-62 0 -121 11.5t-125 45.5t-115 87.5t-81.5 146t-32.5 212.5v688q0 47 -24.5 66.5t-85.5 24.5l-56 4q-16 0 -16 16v39l4 4q192 -4 260 -4q70 0 262 4l4 -4v-39q0 -16 -16 -16l-53 -4q-62 -4 -87.5 -25.5t-25.5 -65.5v-620q0 -54 1 -82.5t6.5 -77.5t16 -82
t32.5 -72.5t53 -70.5q106 -103 243 -103q72 0 129.5 16.5t96.5 43t67.5 67.5t44 82t25 95.5t12 99t2.5 100.5v600q0 48 -24.5 69.5t-85.5 25.5l-56 4q-16 0 -16 16v39l4 4q192 -4 225 -4q34 0 226 4l4 -4v-39q0 -16 -17 -16l-53 -4q-61 -4 -87 -27.5t-26 -67.5v-563
q0 -116 -13 -205.5t-47.5 -171t-91 -134t-148 -83t-214.5 -30.5z" />
    <glyph glyph-name="V" unicode="V" horiz-adv-x="1273" 
d="M991 1216q10 25 10 44q0 22 -13 36q-25 24 -87 27l-33 2q-16 0 -16 16v39l4 4q192 -4 223 -4q27 0 191 4l4 -4v-39q0 -16 -17 -16q-54 -3 -90 -23t-52.5 -45t-33.5 -68l-415 -1107q-19 -48 -50 -48q-32 0 -47 48l-397 1116q-25 70 -53 95t-103 32q-16 0 -16 16v39l4 4
q192 -4 219 -4q62 0 254 4l4 -4v-39q0 -13 -16 -16l-35 -4q-72 -9 -89 -27q-9 -9 -9 -26q0 -15 8 -38l324 -911h8z" />
    <glyph glyph-name="W" unicode="W" horiz-adv-x="1892" 
d="M1608 1216q8 25 8 44q0 24 -12 37q-24 23 -86 26l-33 2q-6 0 -11.5 4.5t-5.5 11.5v39l5 4q164 -4 225 -4q36 0 188 4l4 -4v-39q0 -16 -16 -16q-78 -4 -115 -37.5t-59 -95.5l-383 -1110q-15 -48 -55 -48q-47 0 -64 50l-240 727q-20 57 -28 57q-13 0 -29 -51l-244 -733
q-14 -50 -57 -50q-48 0 -63 50l-373 1114q-28 83 -49.5 103t-89.5 24q-25 4 -25 14v41l4 4q164 -4 199 -4q41 0 233 4l4 -4v-39q0 -16 -18 -16l-45 -2q-58 -3 -58 -39q0 -17 13 -54l307 -944h4l217 678q14 44 14 78q0 32 -10 57l-30 95q-8 25 -16 42t-24.5 39.5t-44.5 35
t-67 14.5q-25 0 -25 14v41l5 4q164 -4 210 -4q58 0 250 4l4 -4v-41q0 -14 -18 -14l-59 -4q-58 -4 -58 -61q0 -27 13 -66l294 -912h5z" />
    <glyph glyph-name="X" unicode="X" horiz-adv-x="1341" 
d="M27 1339v39l6 6q164 -4 211 -4q58 0 250 4q2 -6 4 -6v-39q0 -14 -11 -14l-65 -4q-25 -1 -36 -7q-9 -6 -9 -15q0 -3 1 -5q2 -13 9.5 -26.5t24.5 -37.5l243 -360q16 -23 25 -23q8 0 27 25l264 358q30 39 30 63v1q-1 24 -43 27l-61 4q-14 0 -14 14v41l4 4q164 -4 203 -4
q34 0 198 4l6 -4v-41q0 -14 -18 -14q-45 -1 -79 -11t-61 -32t-43 -40t-42 -53l-269 -362q-26 -36 -26 -61t32 -68l316 -430q101 -146 217 -154q14 0 14 -14v-41l-4 -4q-164 4 -215 4q-64 0 -256 -4l-6 4v41q0 14 12 14l41 4q60 6 64 23v2q0 18 -37 66l-270 385
q-16 22 -29 22q-9 0 -31 -29l-270 -370q-14 -20 -21 -35q-7 -14 -7 -27q0 -2 1 -2q0 -15 14.5 -23.5t43.5 -11.5l38 -4q13 -3 13 -14v-41l-6 -4q-192 4 -230 4q-50 0 -172 -4l-2 4v41q0 14 23 14q42 2 79 17.5t67.5 42.5t48.5 47.5t40 50.5l281 383q20 27 20 47q0 26 -28 62
l-295 419q-89 126 -183 142q-32 6 -32 14z" />
    <glyph glyph-name="Y" unicode="Y" horiz-adv-x="1177" 
d="M520 211v378q0 61 -18 88l-297 502q-53 88 -80 114t-80 30l-25 2q-20 0 -20 14v41l4 4q122 -4 215 -4q70 0 234 4l4 -4v-39q0 -16 -13 -16l-59 -2q-26 -1 -39 -6t-13 -17q0 -13 5.5 -25t19.5 -36l281 -494h4l262 494q18 35 18 53q0 6 -2 11q-8 16 -44 18l-62 4
q-10 0 -10 14v41l4 4q164 -4 186 -4q57 0 179 4l4 -4v-41q0 -10 -21 -14l-43 -4q-26 -2 -44.5 -9t-34 -24t-23 -29t-25.5 -43l-289 -522q-12 -28 -12 -86v-397q0 -47 25.5 -67.5t87.5 -25.5l55 -4q16 0 16 -16v-39l-4 -4q-122 4 -264 4q-104 0 -260 -4l-4 4v39q0 16 16 16
l54 4q62 5 87 25t25 68z" />
    <glyph glyph-name="Z" unicode="Z" horiz-adv-x="1236" 
d="M1128 55q-205 4 -260 4h-745q-39 0 -39 31q0 26 16 47l797 1108q16 22 16 37q0 16 -20 16h-473q-45 0 -79.5 -13t-56.5 -31t-41.5 -54t-30 -65.5t-26.5 -80.5l-61 11q33 172 45 342q31 -2 72 -14.5t94 -12.5h657q33 3 75 11.5t54 8.5q28 0 37.5 -4.5t9.5 -15.5
q0 -43 -49 -111l-768 -1063q-16 -29 -16 -41q0 -26 51 -26h477q56 0 99 20t72.5 59.5t48.5 83.5t36 105l64 -10q-42 -176 -56 -342z" />
    <glyph glyph-name="bracketleft" unicode="[" horiz-adv-x="729" 
d="M225 -334v1833h430v-62q-74 -5 -120.5 -11t-82.5 -18.5t-53.5 -25.5t-28.5 -40.5t-13.5 -55.5t-2.5 -78v-1251q0 -50 2.5 -78t13 -55.5t28.5 -41t54 -26t82.5 -19t120.5 -12.5v-59h-430z" />
    <glyph glyph-name="backslash" unicode="\" horiz-adv-x="587" 
d="M113 1489l471 -1528h-90l-471 1528h90z" />
    <glyph glyph-name="bracketright" unicode="]" horiz-adv-x="729" 
d="M504 1499v-1833h-430v61q74 5 120.5 11t82 18.5t53.5 26t29 41t13.5 55.5t2.5 78v1251q0 50 -2.5 78t-13.5 55.5t-28 40.5t-53.5 26t-82.5 19t-121 12v60h430z" />
    <glyph glyph-name="asciicircum" unicode="^" horiz-adv-x="1060" 
d="M530 1273l-208 -505h-93l260 622h86l259 -622h-93z" />
    <glyph glyph-name="underscore" unicode="_" horiz-adv-x="995" 
d="M987 -166v-90h-977v90h977z" />
    <glyph glyph-name="grave" unicode="`" horiz-adv-x="802" 
d="M365 1491l143 -258q12 -24 12 -50q0 -8 -9.5 -15t-21.5 -7q-15 0 -59 41l-233 223l4 23q63 47 133 47q15 0 31 -4z" />
    <glyph glyph-name="a" unicode="a" horiz-adv-x="923" 
d="M596 536l-162 -43q-198 -53 -198 -225q0 -54 40 -100t111 -46q70 0 180 89q29 22 29 53v272zM596 157h-4l-41 -32q-68 -53 -110.5 -69.5t-112.5 -16.5q-116 0 -185 53t-69 168q0 102 91.5 180.5t242.5 116.5l176 43q12 4 12 24q0 82 -15.5 139.5t-42 84.5t-52.5 38
t-56 11q-66 0 -118 -24.5t-52 -68.5q0 -28 4 -40q6 -12 6 -37q0 -24 -24.5 -46t-65.5 -22q-71 0 -71 72q0 54 48.5 107t127.5 86.5t161 33.5q49 0 89.5 -8t81.5 -30.5t68.5 -59.5t45 -100.5t17.5 -147.5v-305q0 -30 0.5 -46.5t2.5 -41t7.5 -37.5t14 -27t23 -20t33.5 -6
q21 0 35.5 8t21.5 16t11 8q6 0 14.5 -10t8.5 -20q0 -7 -20.5 -28t-62.5 -42.5t-87 -21.5q-121 0 -154 118z" />
    <glyph glyph-name="b" unicode="b" horiz-adv-x="997" 
d="M313 204q37 -46 71 -71t77 -25q141 0 214 113.5t73 296.5q0 148 -66 249t-160 101q-22 0 -48 -3.5t-75.5 -24.5t-85.5 -58v-578zM160 1212q0 95 -14.5 127.5t-47.5 32.5l-65 4q-13 0 -13 10l-4 49q62 5 150.5 22t126.5 32q26 0 26 -21q-6 -82 -6 -215v-408
q104 113 250 113q67 0 131 -28.5t115 -79t82 -127.5t31 -168q0 -117 -40.5 -217t-105.5 -164t-144 -99.5t-159 -35.5q-126 0 -213 75q-33 -49 -67 -80q-27 0 -43 11q10 56 10 159v1008z" />
    <glyph glyph-name="c" unicode="c" horiz-adv-x="849" 
d="M811 245q-49 -81 -105.5 -128t-109 -62.5t-119.5 -15.5q-190 0 -295.5 122t-105.5 324q0 106 35 196t94 150t135.5 93.5t159.5 33.5q141 0 223 -61t82 -148q0 -41 -30 -64.5t-66 -23.5q-66 0 -74 72q-4 32 -10 54t-20.5 48t-43.5 39.5t-72 13.5q-104 0 -171.5 -96.5
t-67.5 -261.5q0 -179 76.5 -290t195.5 -111q67 0 133 38.5t113 106.5q32 -4 43 -29z" />
    <glyph glyph-name="d" unicode="d" horiz-adv-x="1030" 
d="M702 252v514q-39 61 -85 90.5t-115 29.5q-124 0 -191 -102q-57 -79 -57 -272q0 -181 66 -279t157 -98q80 0 225 117zM856 1253v-956q0 -75 9 -95.5t42 -23.5l99 -10l6 -48q-202 -37 -262 -86h-48l5 144l-5 2q-174 -141 -278 -141q-162 0 -253 121t-91 315q0 223 137 360
q65 62 137.5 92.5t169.5 30.5q34 0 89.5 -13t88.5 -32v299q0 95 -14 127.5t-47 32.5l-66 4q-12 0 -12 10l-4 49q63 4 150.5 21.5t126.5 32.5q26 0 26 -21q-6 -82 -6 -215z" />
    <glyph glyph-name="e" unicode="e" horiz-adv-x="874" 
d="M240 647h376q29 0 29 28q0 61 -15.5 105t-42 66.5t-54 32t-58.5 9.5q-20 0 -39.5 -2.5t-52.5 -16t-58.5 -37.5t-50 -72t-34.5 -113zM780 254q32 -3 41 -33q-61 -83 -150.5 -132.5t-195.5 -49.5q-102 0 -181 33.5t-127 92.5t-72.5 135.5t-24.5 166.5q0 112 35.5 207
t94 156t130 94.5t145.5 33.5q78 0 138 -21t96.5 -54.5t59.5 -81.5t31.5 -96t8.5 -103q0 -35 -37 -35h-539q0 -108 29 -194.5t74 -135t93.5 -73.5t94.5 -25q83 0 141.5 27.5t114.5 87.5z" />
    <glyph glyph-name="f" unicode="f" horiz-adv-x="630" 
d="M197 206v652h-142q-10 0 -10 12v27q0 15 11 28t36 13h105v82q0 115 31.5 207t83.5 148t114.5 85t128.5 29q109 0 182 -50q60 -45 60 -98q0 -32 -20 -53t-50 -21q-57 0 -84 58q-20 50 -50 72t-77 22q-23 0 -43.5 -7.5t-44 -31t-40 -61.5t-27.5 -106.5t-11 -158.5v-116h225
q17 0 17 -13v-41q0 -12 -15.5 -19t-31.5 -7h-195v-652q0 -45 19 -65t69 -23l68 -4q16 0 16 -16v-39l-4 -4q-204 4 -244 4q-13 0 -217 -4l-4 4v39q0 13 17 16l39 4q53 6 70.5 24.5t17.5 63.5z" />
    <glyph glyph-name="g" unicode="g" horiz-adv-x="980" 
d="M631 630q0 127 -50.5 196t-142.5 69q-157 0 -157 -218q0 -57 6 -99.5t24 -86t56.5 -67t97.5 -23.5q30 0 56.5 9.5t53 33t41.5 71t15 115.5zM262 39q-39 -49 -50 -90.5t-11 -102.5q0 -49 26 -89t64.5 -63t76 -35t66.5 -12q92 0 178.5 25t147.5 78t61 123q0 39 -21.5 66
t-78.5 61q-38 22 -93 28t-147 6q-11 0 -59 -3t-82 -3q-36 0 -78 11zM877 854q-45 0 -62 34q-17 25 -35 25t-42.5 -16.5t-35.5 -32.5q44 -48 64 -95.5t20 -117.5q0 -144 -97.5 -228.5t-233.5 -84.5q-111 0 -181 43q-34 -52 -34 -119q0 -60 37.5 -88.5t87.5 -28.5q1 0 59 4
q78 10 129 10q212 0 289 -67q86 -74 86 -166q0 -80 -49 -148t-128 -112.5t-176.5 -69t-197.5 -24.5q-60 0 -112.5 12t-98.5 37.5t-73 72.5t-27 111q0 68 41.5 134t117.5 114q-40 21 -64 62.5t-24 95.5q0 55 23 113t63 93q-49 49 -75.5 101.5t-26.5 128.5q0 136 100 223.5
t236 87.5q123 0 205 -57q35 48 92.5 76t101.5 28q39 0 64.5 -22.5t25.5 -55.5t-19 -53t-50 -20z" />
    <glyph glyph-name="h" unicode="h" horiz-adv-x="1064" 
d="M334 1253v-465q170 170 338 170q221 0 221 -317v-435q0 -45 19 -64.5t69 -23.5l39 -4q16 0 16 -16v-39l-4 -4q-204 4 -219 4q-9 0 -213 -4l-4 4v39q0 13 16 16l39 4q52 6 70 24.5t18 63.5v457q0 120 -34.5 159.5t-124.5 39.5q-93 0 -246 -150v-506q0 -45 19 -64.5
t69 -23.5l39 -4q16 0 16 -16v-39l-4 -4q-204 4 -219 4q-7 0 -211 -4l-4 4v39q0 13 14 16l39 4q52 6 70 24.5t18 63.5v1006q0 95 -14 127.5t-47 32.5l-66 4q-12 0 -12 10l-4 49q61 4 149.5 21.5t126.5 32.5q27 0 27 -21q-6 -82 -6 -215z" />
    <glyph glyph-name="i" unicode="i" horiz-adv-x="546" 
d="M176 1226q0 40 29 69.5t69 29.5t69.5 -29.5t29.5 -69.5t-29.5 -69t-69.5 -29t-69 29t-29 69zM369 958q-7 -140 -7 -242v-510q0 -44 19.5 -63.5t67.5 -24.5l38 -4q19 -4 19 -16v-39l-4 -4q-164 4 -219 4q-49 0 -213 -4l-4 4v39q0 13 16 16l39 4q52 6 70 24.5t18 63.5v510
q0 72 -10.5 98t-34.5 29l-88 9l-4 49q217 34 288 63q9 0 9 -6z" />
    <glyph glyph-name="j" unicode="j" horiz-adv-x="557" 
d="M203 1226q0 40 29 69.5t69 29.5t69 -29.5t29 -69.5t-29 -69t-69 -29t-69 29t-29 69zM395 958q-6 -181 -6 -242v-432q0 -493 -149 -614q-77 -64 -187 -64q-34 0 -70 25t-36 66q0 26 20.5 43.5t40.5 17.5q25 0 44 -8t27 -15.5t19 -21.5q22 -33 47 -33q16 0 29.5 13
t22.5 40.5t16 56.5t11 75t6.5 82t3.5 91.5t1.5 88.5t0.5 88v501q0 73 -10.5 99t-35.5 28l-88 9l-4 49q217 35 289 63q8 0 8 -6z" />
    <glyph glyph-name="k" unicode="k" horiz-adv-x="980" 
d="M180 1212q0 95 -14 127.5t-47 32.5l-66 4q-12 0 -12 10l-4 49q61 4 149.5 21.5t126.5 32.5q27 0 27 -21q-6 -82 -6 -215v-709q77 17 268 226q13 13 23 27t18 35q3 6 3 12q0 13 -11 22q-17 14 -60 16q-7 0 -11.5 5.5t-4.5 11.5v39q6 2 6 4q152 -4 183 -4q26 0 178 4l8 -4
v-39q0 -12 -23 -17l-14 -2q-46 -7 -103.5 -33t-93.5 -63l-155 -172q-8 -8 -8 -21q0 -15 10 -28l239 -354q26 -38 68.5 -62t85.5 -31l14 -2q19 -3 19 -16v-39l-4 -4q-122 4 -174 4q-56 0 -138 -4l-6 4v39q0 43 -47 111l-149 210q-30 43 -56 58.5t-65 15.5v-287q0 -53 22 -70
t70 -22q16 0 16 -16v-39l-4 -4q-160 4 -184 4q-7 0 -211 -4l-4 4v39q0 13 14 16l39 4q50 4 69 23.5t19 64.5v1006z" />
    <glyph glyph-name="l" unicode="l" horiz-adv-x="532" 
d="M195 206v1006q0 95 -14.5 127.5t-47.5 32.5l-65 4q-13 0 -13 10l-4 49q63 4 150.5 21.5t126.5 32.5q26 0 26 -21q-6 -82 -6 -215v-1047q0 -45 18 -64.5t68 -23.5l49 -4q6 0 11.5 -4.5t5.5 -11.5v-39l-4 -4q-204 4 -228 4q-19 0 -223 -4l-2 4v39q0 16 14 16l49 4
q51 4 70 23.5t19 64.5z" />
    <glyph glyph-name="m" unicode="m" horiz-adv-x="1601" 
d="M362 958l-6 -172h6q80 84 154.5 128t163.5 44q83 0 136.5 -48.5t64.5 -121.5q162 170 336 170q65 0 109 -24.5t66.5 -71.5t31 -101t8.5 -129v-426q0 -45 19 -64.5t69 -23.5l39 -4q16 0 16 -16v-39l-4 -4q-164 4 -219 4q-39 0 -203 -4l-4 4v39q0 13 16 16l29 4
q43 7 65.5 26.5t22.5 61.5v471q0 183 -135 183q-62 0 -120.5 -32.5t-129.5 -111.5q2 -25 2 -82v-428q0 -42 21.5 -61t68.5 -27l25 -4q18 -4 18 -16v-39l-4 -4q-164 4 -209 4q-39 0 -203 -4l-4 4v39q0 13 17 16l30 4q46 6 66 25.5t20 62.5v467q0 187 -135 187
q-104 0 -244 -146v-508q0 -42 22 -62t67 -26l28 -4q17 -4 17 -16v-39l-4 -4q-164 4 -209 4q-49 0 -213 -4l-4 4v39q0 13 16 16l39 4q52 6 70 24.5t18 63.5v510q0 72 -10.5 98t-34.5 29l-88 9l-4 49q203 32 282 63q8 0 8 -6z" />
    <glyph glyph-name="n" unicode="n" horiz-adv-x="1071" 
d="M340 958l-6 -182h6q91 107 168.5 144.5t165.5 37.5q54 0 94 -16.5t65 -44.5t40 -70.5t20.5 -88.5t5.5 -104v-428q0 -44 19.5 -63.5t66.5 -24.5l39 -4q18 -4 18 -16v-39l-4 -4q-164 4 -219 4q-39 0 -203 -4l-4 4v39q0 13 17 16l28 4q50 8 69 26t19 62v443
q0 114 -27.5 162.5t-105.5 48.5q-71 0 -134 -35t-138 -123v-496q0 -44 18.5 -62t69.5 -26l29 -4q16 -3 16 -16v-39l-4 -4q-164 4 -209 4q-49 0 -213 -4l-4 4v39q0 13 16 16l39 4q50 4 69 23.5t19 64.5v510q0 72 -10.5 98t-34.5 29l-88 9l-4 49q211 34 283 63q8 0 8 -6z" />
    <glyph glyph-name="o" unicode="o" horiz-adv-x="991" 
d="M74 479q0 216 112 347.5t312 131.5q88 0 160 -27.5t119.5 -73t80 -106t46.5 -124.5t14 -130q0 -63 -16 -126.5t-50 -123.5t-82.5 -106t-120 -74t-155.5 -28q-99 0 -180.5 39t-132.5 103t-79 141t-28 157zM475 890q-78 0 -131 -55.5t-74.5 -134.5t-21.5 -174
q0 -64 16 -133t47.5 -135.5t88 -109t128.5 -42.5q30 0 58 7.5t57.5 29.5t50.5 57t35 94.5t14 137.5q0 223 -70 340.5t-198 117.5z" />
    <glyph glyph-name="p" unicode="p" horiz-adv-x="1005" 
d="M317 696v-500q75 -88 170 -88q78 0 134.5 34.5t85.5 92.5t42 119.5t13 130.5q0 169 -67.5 274t-164.5 105q-57 0 -119 -45.5t-94 -122.5zM164 716q0 72 -10.5 98t-34.5 29l-88 9l-4 49q203 32 282 63q8 0 8 -6l-6 -164h6q108 164 269 164q97 0 176.5 -59t123.5 -155
t44 -204q0 -240 -144 -387q-114 -114 -286 -114q-101 0 -183 45v-355q0 -43 19.5 -62.5t66.5 -23.5l39 -4q19 -4 19 -16v-39l-4 -4q-152 4 -219 4q-61 0 -213 -4l-5 4v39q0 13 17 16l39 4q49 4 68.5 23.5t19.5 62.5v987z" />
    <glyph glyph-name="q" unicode="q" horiz-adv-x="1019" 
d="M702 747q-84 141 -210 141q-119 0 -181.5 -99t-62.5 -265q0 -89 19 -159.5t49 -113.5t69.5 -71.5t77.5 -39.5t76 -11q105 0 163 45v573zM702 -271v377q-77 -67 -213 -67q-85 0 -156 28t-118 73.5t-79.5 104.5t-47 119t-14.5 119q0 204 120 339.5t306 135.5q161 0 256 -82
l30 49q22 39 43 39q27 0 27 -51v-1184q0 -43 19 -62.5t69 -23.5l39 -4q16 0 16 -16v-39l-4 -4q-152 4 -219 4q-81 0 -233 -4l-4 4v39q0 16 16 16l59 4q50 3 69 22.5t19 63.5z" />
    <glyph glyph-name="r" unicode="r" horiz-adv-x="727" 
d="M199 206v510q0 72 -10.5 98t-34.5 29l-88 9l-5 49q211 34 283 63q8 0 8 -6l-6 -184h6q49 75 112 129.5t128 54.5q115 0 115 -94q0 -39 -24.5 -62.5t-64.5 -23.5q-46 0 -83 37q-18 18 -41 18q-18 0 -50 -28t-67 -78q-25 -32 -25 -72v-449q0 -45 19.5 -65t68.5 -23l60 -4
q18 0 18 -16v-39l-4 -4q-152 4 -242 4q-61 0 -213 -4l-2 4v39q0 13 15 16l39 4q50 4 69 23.5t19 64.5z" />
    <glyph glyph-name="s" unicode="s" horiz-adv-x="749" 
d="M88 346l55 2q16 -135 74 -193q19 -22 60 -40.5t92 -18.5q62 0 120 42t58 111q0 67 -46 116t-165 102q-65 28 -99.5 47.5t-66 49.5t-43.5 69t-12 96q0 101 81.5 165t204.5 64q129 0 226 -51q15 -84 22 -209l-55 -2q-15 59 -41.5 101.5t-56 62.5t-53 28.5t-42.5 8.5
q-161 0 -161 -138q0 -62 30.5 -97.5t114.5 -65.5q70 -26 118 -50.5t92.5 -59.5t66.5 -82.5t22 -106.5q0 -58 -23.5 -104.5t-58 -74.5t-78.5 -46.5t-81.5 -25.5t-69.5 -7q-102 0 -185 22q-14 4 -38 4q-18 0 -48 -6q0 112 -14 287z" />
    <glyph glyph-name="t" unicode="t" horiz-adv-x="618" 
d="M336 858v-518q0 -101 14 -145t53 -44q73 0 148 58q31 -3 37 -35q-120 -135 -256 -135q-150 0 -150 202v617h-133q-8 0 -8 8v63q0 9 6 9q98 0 134 56.5t36 180.5v39l119 41v-317h225q17 0 17 -13v-41q0 -12 -16 -19t-34 -7h-192z" />
    <glyph glyph-name="u" unicode="u" horiz-adv-x="1058" 
d="M723 780q0 51 -18.5 71.5t-71.5 26.5l-33 4l-6 4v52l6 4q152 -4 203 -4t71 4q9 0 9 -4q-6 -138 -6 -199v-442q0 -75 9 -95.5t42 -23.5l98 -10l6 -48q-202 -37 -262 -86h-47l4 156h-4q-80 -86 -148.5 -118.5t-138.5 -32.5q-73 0 -125 23t-79.5 64t-39.5 87.5t-12 103.5
v463q0 51 -18 71.5t-72 26.5l-33 4l-6 4v52l6 4q152 -4 203 -4q52 0 72 4q8 0 8 -4q-6 -138 -6 -199v-393q0 -64 15 -109.5t40 -67t49 -30t51 -8.5q63 0 126.5 44.5t107.5 96.5v508z" />
    <glyph glyph-name="v" unicode="v" horiz-adv-x="999" 
d="M659 882q-7 0 -11.5 5t-4.5 10v41l4 4q152 -4 197 -4q29 0 139 4l4 -4v-37q0 -15 -22 -19q-49 -5 -83 -28t-57 -78l-282 -694q-19 -48 -49 -48q-20 0 -31.5 9.5t-20.5 33.5l-278 707q-20 51 -51 71t-80 27q-21 4 -21 15v41l6 4q152 -4 179 -4q52 0 204 4l9 -4v-39
q0 -8 -6.5 -12.5t-12.5 -4.5l-35 -4q-45 -5 -51 -30q-1 -6 -1 -13q0 -21 13 -47l177 -446l34 -95l35 88l182 449q15 36 15 57q0 13 -6 20q-16 16 -95 21z" />
    <glyph glyph-name="w" unicode="w" horiz-adv-x="1507" 
d="M410 899q0 -7 -5.5 -12t-13.5 -5l-31 -2q-47 -3 -53 -28q-2 -7 -2 -14q0 -22 14 -50l216 -541l178 445l-37 92q-35 88 -131 98q-21 4 -21 15v41l4 4q152 -4 187 -4q53 0 205 4l6 -4v-39q0 -7 -6.5 -12t-14.5 -5l-37 -2q-50 -3 -56 -24q-1 -5 -1 -10q0 -22 18 -58
l213 -541l213 531q8 16 10 31v6q0 12 -4 25q-6 16 -28 27t-59 13l-31 2q-7 0 -13 5t-6 10v41l4 4q152 -4 213 -4q48 0 150 4l4 -4v-39q0 -13 -25 -17q-48 -5 -82 -28t-59 -84l-278 -693q-17 -43 -47 -43q-33 0 -50 41l-204 512l-205 -508q-19 -45 -49 -45q-33 0 -50 41
l-280 709q-23 57 -50.5 75t-78.5 23q-25 5 -25 15v41l4 4q152 -4 187 -4q51 0 203 4l4 -6v-37z" />
    <glyph glyph-name="x" unicode="x" horiz-adv-x="1003" 
d="M391 878q-20 -2 -31 -7t-15 -10q-3 -3 -3 -7t2 -10q4 -12 9.5 -21.5t19.5 -30.5l125 -184q10 -19 20 -19q7 0 19 15l133 186q16 20 23 31.5t11 25.5v6q0 9 -7 15q-11 7 -35 10l-33 4q-13 0 -13 15v39l5 6q152 -4 172 -4q53 0 155 4l2 -4v-39q0 -17 -24 -17
q-57 -5 -92 -27.5t-91 -93.5l-172 -219q-6 -9 -6 -14q0 -7 6 -16l185 -260q62 -88 96.5 -110.5t89.5 -27.5q11 -1 16.5 -2.5t9 -4.5t3.5 -9v-39l-4 -4q-152 4 -179 4q-61 0 -213 -4l-4 4v39q0 13 15 16l24 4q24 4 34 13q6 6 6 15q0 4 -2 10q-5 16 -15 32t-31 43l-119 164
q-11 14 -18 14t-19 -18l-129 -187q-12 -17 -18 -28.5t-9 -24.5q-1 -4 -1 -7q0 -9 7 -15q8 -8 28 -11l28 -4q15 -3 15 -16v-39l-5 -4q-152 4 -172 4q-1 0 -153 -4l-4 4v35q0 17 26 20q32 4 51 9.5t55.5 33.5t76.5 80l172 221q4 8 4 15t-6 16l-179 260q-47 69 -81.5 99
t-83.5 34q-29 4 -29 15v39l4 6q152 -4 182 -4q55 0 207 4l6 -6v-37q0 -13 -16 -17z" />
    <glyph glyph-name="y" unicode="y" horiz-adv-x="1034" 
d="M420 899q0 -7 -7.5 -12t-15.5 -5q-42 -3 -61 -11t-25 -27q-2 -6 -2 -12q0 -17 13 -42l225 -528l227 520q13 24 15 42v6q0 13 -5 21q-6 10 -22 17t-30.5 9.5t-37.5 4.5q-20 0 -20 15v39l4 6q152 -4 192 -4t142 4l6 -4v-39q0 -14 -23 -17q-27 -2 -50 -15t-41 -36t-29 -41.5
t-25 -46.5q-125 -262 -363 -836q-23 -56 -39.5 -91.5t-45 -84.5t-55 -77t-64.5 -49t-80 -21q-40 0 -79.5 23.5t-39.5 72.5q0 41 24 60.5t54 19.5q41 0 63 -29q34 -34 56 -34q33 0 157 305q17 35 17 63q0 27 -35 117l-258 600q-24 57 -48.5 76t-76.5 24q-21 3 -21 15v41l4 4
q82 -4 173 -4q71 0 223 4l4 -6v-37z" />
    <glyph glyph-name="z" unicode="z" horiz-adv-x="851" 
d="M121 964q9 -2 33.5 -14t62.5 -12h416q26 0 57.5 3.5t53 7t24.5 3.5q25 0 25 -14q0 -18 -45 -86l-492 -723h272q44 0 74.5 9t53.5 32.5t38.5 49.5t36.5 72l27 60l53 -14q-47 -160 -66 -279h-630q-47 0 -47 25q0 13 18 41l504 743h-283q-52 0 -98 -44.5t-74 -148.5l-53 7
q29 181 31 276q0 6 8 6z" />
    <glyph glyph-name="braceleft" unicode="{" horiz-adv-x="559" 
d="M356 1210v-360q0 -138 -26.5 -195t-102.5 -90q83 -36 106 -101t23 -210v-326q0 -113 39 -185.5t105 -72.5v-45q-82 2 -133 16.5t-86.5 52.5t-49.5 101t-14 164v348q0 100 -34 161t-113 80v31q147 42 147 238v377q0 119 28.5 185.5t88 95.5t166.5 32v-45
q-33 -10 -56 -23.5t-44.5 -40.5t-32.5 -74t-11 -114z" />
    <glyph glyph-name="bar" unicode="|" horiz-adv-x="419" 
d="M256 -416h-90v1905h90v-1905z" />
    <glyph glyph-name="braceright" unicode="}" horiz-adv-x="559" 
d="M203 -80v360q0 138 26.5 195t102.5 90q-83 36 -106 101t-23 210v326q0 113 -39 185.5t-105 72.5v45q82 -2 133 -16.5t86.5 -52.5t49.5 -101t14 -164v-348q0 -100 34 -161.5t113 -80.5v-30q-147 -42 -147 -238v-377q0 -119 -28.5 -185.5t-88 -95.5t-166.5 -32v45
q33 10 56 23.5t44.5 40.5t32.5 74t11 114z" />
    <glyph glyph-name="asciitilde" unicode="~" horiz-adv-x="919" 
d="M53 487q21 104 96 183t166 79q64 0 154 -65q91 -68 147 -68q32 0 68 12t75 44.5t60 80.5l35 -12q-22 -77 -57 -130t-72.5 -76t-65 -31.5t-51.5 -8.5q-65 0 -155 68q-86 65 -150 65q-56 0 -118.5 -41.5t-96.5 -107.5z" />
    <glyph glyph-name="exclamdown" unicode="&#xa1;" horiz-adv-x="466" 
d="M233 -410q-43 0 -75.5 37t-32.5 113q0 59 7.5 116t20.5 134.5t21 144.5q12 97 18.5 183.5t9 134t3.5 55.5q3 40 28 40t29 -26q1 -13 6 -78.5t12.5 -152t14.5 -156.5q7 -66 27 -190t20 -205q0 -76 -33 -113t-76 -37zM342 850q0 -44 -32.5 -76.5t-76.5 -32.5t-76 32.5
t-32 76.5t32 76t76 32t76.5 -32t32.5 -76z" />
    <glyph glyph-name="cent" unicode="&#xa2;" horiz-adv-x="901" 
d="M451 1243h69v-187q125 -1 198 -56t73 -132q0 -37 -28 -57.5t-61 -20.5q-29 0 -45 15t-20 49q-3 27 -8 46t-16.5 41.5t-35 36t-57.5 15.5v-682h17q60 0 119.5 34t101.5 95q28 0 37 -25q-59 -98 -126 -139.5t-149 -46.5v-195h-69v197q-151 15 -234.5 122.5t-83.5 276.5
q0 168 91.5 282t226.5 138v193zM451 329v656q-73 -24 -117.5 -107t-44.5 -207q0 -125 44 -215.5t118 -126.5z" />
    <glyph glyph-name="sterling" unicode="&#xa3;" horiz-adv-x="901" 
d="M147 637q-7 0 -9.5 2t-2.5 10v26q0 15 11.5 28t35.5 13h88v39q0 121 36.5 208.5t117.5 166.5q110 113 258 113q27 0 60.5 -8t64.5 -31t31 -55q0 -36 -22 -58t-58 -22q-14 0 -27 6t-20 11.5t-23 19.5q-49 45 -96 45q-68 0 -117 -86t-49 -211v-138h242q14 0 14 -12v-43
q0 -11 -15 -17.5t-32 -6.5h-209q-2 -274 -141 -402h10q75 0 128.5 -14t77.5 -31t59 -31t77 -14q140 0 201 84l34 -20q-36 -78 -106.5 -124t-163.5 -46q-58 0 -103.5 18t-71 39t-70 39t-101.5 18q-82 0 -82 -47q0 -32 -22 -49.5t-56 -17.5q-28 0 -44.5 15t-16.5 38
q0 25 25.5 47.5t72.5 48.5q80 58 108.5 161.5t28.5 254.5v33h-123z" />
    <glyph glyph-name="currency" unicode="&#xa4;" horiz-adv-x="901" 
d="M209 651q0 -115 67 -195t173 -80q104 0 170.5 80.5t66.5 192.5q0 115 -68.5 193.5t-164.5 78.5q-105 0 -174.5 -79.5t-69.5 -190.5zM449 290q-122 0 -222 74l-88 -108l-84 82l111 88q-80 95 -80 223q0 133 80 225l-107 84l76 82l94 -104q99 71 220 71q125 0 223 -76
l94 113l80 -84l-113 -90q78 -93 78 -221q0 -121 -76 -219l107 -90l-74 -78l-94 104q-101 -76 -225 -76z" />
    <glyph glyph-name="yen" unicode="&#xa5;" horiz-adv-x="901" 
d="M96 528q-7 0 -8.5 2t-1.5 10v29q0 15 10.5 28t34.5 13h231l-206 424q-30 64 -61.5 95.5t-86.5 37.5q-18 0 -18 14v41l2 4q46 -4 182 -4q116 0 174 4l4 -4v-39q0 -13 -12 -16h-29q-35 -4 -39 -20q-1 -3 -1 -6q0 -18 18 -52l207 -428h4l186 428q14 36 14 51q0 5 -2 7
q-6 10 -45 16l-24 4q-13 3 -13 14v41l5 4q126 -4 153 -4l137 4l2 -4v-39q0 -5 -0.5 -7.5t-4.5 -5t-13 -3.5q-57 -5 -82 -22.5t-53 -79.5l-205 -455h250q14 0 14 -12v-43q0 -12 -15 -19.5t-32 -7.5h-242v-129h275q14 0 14 -12v-41q0 -12 -15 -19.5t-32 -7.5h-242v-108
q0 -47 24.5 -67.5t86.5 -25.5l55 -4q19 0 19 -16v-39l-4 -4q-174 4 -254 4l-260 -4l-4 4v39q0 16 16 16l53 4q60 4 86.5 26.5t26.5 66.5v108h-279q-7 0 -8.5 2t-1.5 10v27q0 15 10.5 28t34.5 13h244v129h-279z" />
    <glyph glyph-name="brokenbar" unicode="&#xa6;" horiz-adv-x="430" 
d="M264 1439v-741h-98v741h98zM264 389v-742h-98v742h98z" />
    <glyph glyph-name="section" unicode="&#xa7;" horiz-adv-x="968" 
d="M256 909q-52 53 -72 106t-20 121q0 52 20.5 99.5t59.5 86.5t101 62t138 23q135 0 210 -67.5t75 -139.5q0 -78 -74 -78q-62 0 -84 84q-17 67 -47.5 102t-91.5 35q-72 0 -119 -47.5t-47 -118.5q0 -73 44.5 -132t142.5 -112q12 -6 48 -25t52 -27.5t50 -28.5t50.5 -32.5
t45 -35.5t43 -42t34 -46.5t28.5 -55t16 -61.5t7 -71q0 -178 -153 -304q52 -53 72 -106t20 -121q0 -109 -85 -189.5t-235 -80.5q-71 0 -128 21t-89.5 53t-49.5 66.5t-17 66.5q0 77 73 77q62 0 84 -84q17 -66 48 -101.5t92 -35.5q72 0 119 47.5t47 118.5q0 73 -44.5 132
t-142.5 112q-11 6 -48 25t-52.5 27.5t-49.5 28.5t-51 33t-45.5 36t-43 42t-34 46.5t-28.5 55t-16 61.5t-7 71q0 176 154 303zM670 243q86 75 86 166q0 141 -126 244q-47 38 -175 113q-99 58 -156 104q-43 -39 -64.5 -77.5t-21.5 -88.5q0 -52 16.5 -97.5t42 -78.5t64.5 -64.5
t76 -55t84 -50.5q12 -7 18 -10q94 -55 156 -105z" />
    <glyph glyph-name="dieresis" unicode="&#xa8;" horiz-adv-x="768" 
d="M111 1237q0 38 28 66t66 28t66 -28t28 -66t-28 -66.5t-66 -28.5t-66 28.5t-28 66.5zM438 1237q0 38 28 66t66 28t66.5 -28t28.5 -66t-28.5 -66.5t-66.5 -28.5t-66 28.5t-28 66.5z" />
    <glyph glyph-name="copyright" unicode="&#xa9;" horiz-adv-x="1314" 
d="M899 501q-35 -53 -99 -92t-143 -39q-134 0 -226.5 90.5t-92.5 214.5q0 130 95 225t229 95q82 0 132.5 -15.5t69.5 -15.5l29 -160l-41 -8q-29 77 -72.5 114.5t-126.5 37.5q-34 0 -64.5 -11.5t-59.5 -38.5t-46.5 -78.5t-17.5 -123.5q0 -117 55 -191.5t156 -74.5
q113 0 184 102zM657 106q-158 0 -293.5 78.5t-214.5 212t-79 289.5q0 117 47 224t126.5 184.5t187.5 123t226 45.5q157 0 292.5 -77t215.5 -210.5t80 -289.5q0 -157 -80 -290.5t-215.5 -211.5t-292.5 -78zM657 1198q-141 0 -257 -68t-182 -185.5t-66 -258.5q0 -140 66 -258
t182 -187t257 -69q139 0 255.5 68.5t183.5 187t67 258.5q0 214 -146.5 363t-359.5 149z" />
    <glyph glyph-name="ordfeminine" unicode="&#xaa;" horiz-adv-x="608" 
d="M385 1087q-128 -33 -175.5 -65t-47.5 -80q0 -36 21.5 -60t70.5 -24q31 0 60.5 15.5t70.5 51.5v162zM473 792q-35 0 -58 24.5t-28 55.5q-54 -47 -89 -63.5t-85 -16.5q-66 0 -112 40t-46 104q0 122 211 176l119 30q0 55 -10 91t-28.5 52t-35 21.5t-37.5 5.5
q-51 0 -80.5 -15t-29.5 -40q0 -19 4 -27t4 -24q0 -15 -13.5 -29t-39.5 -14q-23 0 -38 14t-15 37q0 58 71.5 104t141.5 46q42 0 77 -10t68.5 -34t52.5 -72.5t19 -117.5v-153q0 -117 28 -117q15 0 25 10l20 -33q-16 -17 -42.5 -31t-53.5 -14z" />
    <glyph glyph-name="guillemotleft" unicode="&#xab;" horiz-adv-x="950" 
d="M252 499q119 -116 268 -344l-51 -49q-104 125 -174.5 199t-159.5 145q-27 23 -41 33v33l41 32q89 71 159 144.5t175 200.5l51 -50q-149 -228 -268 -344zM588 499q119 -116 268 -344l-51 -49q-104 125 -174.5 199t-159.5 145q-27 23 -41 33v33l41 32q89 71 159 144.5
t175 200.5l51 -50q-149 -228 -268 -344z" />
    <glyph glyph-name="logicalnot" unicode="&#xac;" horiz-adv-x="1226" 
d="M1022 262v459h-940v90h1051v-549h-111z" />
    <glyph glyph-name="uni00AD" unicode="&#xad;" horiz-adv-x="692" 
d="M555 516h-442q-13 0 -22 12t-9 27q0 28 16.5 56t34.5 28h449q28 0 28 -41q0 -21 -18 -51.5t-37 -30.5z" />
    <glyph glyph-name="registered" unicode="&#xae;" horiz-adv-x="1314" 
d="M883 817q0 -57 -34 -96.5t-85 -55.5l98 -168q26 -45 71 -45q8 0 17 2l8 -35q-35 -14 -73 -14q-82 0 -125 72l-98 164q-11 8 -76 8v-148q0 -40 24 -43l29 -4q22 -6 23 -12v-33l-5 -4q-83 4 -120 4l-125 -4l-4 4v35q0 7 16 9q3 1 4 1l35 4q26 3 26 43v369q0 25 -13.5 38
t-33.5 13h-22q-17 0 -17 10v35l5 4h278q55 0 95.5 -15t61.5 -39t30.5 -49t9.5 -50zM770 817q0 104 -102 104q-82 0 -82 -51v-172h65q55 0 87 24t32 95zM657 106q-158 0 -293.5 78.5t-214.5 212t-79 289.5q0 117 47 224t126.5 184.5t187.5 123t226 45.5q157 0 292.5 -77
t215.5 -210.5t80 -289.5q0 -157 -80 -290.5t-215.5 -211.5t-292.5 -78zM657 1198q-141 0 -257 -68t-182 -185.5t-66 -258.5q0 -140 66 -258t182 -187t257 -69q139 0 255.5 68.5t183.5 187t67 258.5q0 214 -146.5 363t-359.5 149z" />
    <glyph glyph-name="macron" unicode="&#xaf;" horiz-adv-x="813" 
d="M645 1142h-500q-24 0 -24 31q0 20 13.5 40t31.5 20h500q14 0 21 -9t7 -20q0 -20 -15 -41t-34 -21z" />
    <glyph glyph-name="degree" unicode="&#xb0;" horiz-adv-x="546" 
d="M410 1132q0 57 -36 103.5t-100 46.5q-63 0 -100 -45t-37 -105q0 -57 37.5 -100t99.5 -43q60 0 98 43.5t38 99.5zM70 1134q0 86 59.5 145.5t144.5 59.5t144 -59.5t59 -145.5q0 -85 -59 -144t-144 -59t-144.5 59t-59.5 144z" />
    <glyph glyph-name="plusminus" unicode="&#xb1;" horiz-adv-x="1079" 
d="M592 759h352v-100h-352v-356h-105v356h-352v100h352v357h105v-357zM944 198v-100h-809v100h809z" />
    <glyph glyph-name="two.superior" unicode="&#xb2;" horiz-adv-x="628" 
d="M150 1261q-20 0 -37 14.5t-17 34.5q0 52 55.5 105t163.5 53q41 0 78 -8.5t70.5 -27t53.5 -53t20 -81.5q0 -66 -44.5 -121.5t-138.5 -122.5q-135 -96 -135 -184h166q29 0 54.5 25t37 48.5t27.5 63.5l49 -10q-30 -100 -39 -193h-422q0 67 50.5 130.5t136.5 130.5
q77 62 107 107.5t30 123.5q0 64 -35.5 93.5t-73.5 29.5q-60 0 -85 -17.5t-25 -42.5q0 -9 5 -25t5 -24q0 -22 -19.5 -35.5t-37.5 -13.5z" />
    <glyph glyph-name="three.superior" unicode="&#xb3;" horiz-adv-x="628" 
d="M385 1337q0 43 -24 62.5t-58 19.5q-23 0 -47.5 -7t-44.5 -24t-21 -41q-1 -17 -4 -27.5t-15 -21t-34 -10.5q-18 0 -29.5 8.5t-14.5 16t-3 12.5q0 15 13 37.5t38.5 47t75 41.5t111.5 17q80 0 127 -32t47 -89q0 -80 -105 -139q61 -5 112.5 -52t51.5 -128q0 -104 -86.5 -170
t-212.5 -66q-62 0 -122 23t-60 53q0 15 16 28t33 13q28 0 53 -29q30 -37 103 -37q18 0 41 7t50.5 23.5t45.5 52.5t18 85q0 33 -12 58t-29.5 38.5t-41 22t-41 10.5t-35.5 2q-9 0 -41 -4l-4 49q69 9 109 48.5t40 101.5z" />
    <glyph glyph-name="acute" unicode="&#xb4;" horiz-adv-x="698" 
d="M358 1499q12 4 29 4q64 0 113 -47l6 -23l-236 -223q-39 -39 -61 -39q-11 0 -20 8.5t-9 18.5q0 7 0.5 11.5t3.5 11t4 9t7 12t8 13.5z" />
    <glyph glyph-name="uni00B5" unicode="&#xb5;" horiz-adv-x="995" 
d="M659 182q-61 -72 -127 -107.5t-155 -35.5q-39 0 -74 13t-53 34q-9 0 -17 -6t-8 -13q0 -72 33 -199t33 -165q0 -60 -23.5 -91.5t-60.5 -31.5q-32 0 -71.5 38.5t-39.5 94.5q0 49 16.5 155.5t16.5 174.5q0 28 -9 126t-9 164v385q0 25 -5.5 80t-10.5 97l-5 43q27 0 90 9
t78 11q6 -131 6 -197v-401q0 -229 142 -229q74 0 147.5 45.5t110.5 101.5v660q29 0 85.5 9.5t67.5 10.5v-651q0 -29 0.5 -46.5t3 -41t7.5 -37t14 -27.5t23.5 -20t33.5 -6q21 0 35.5 8t21.5 16t11 8q6 0 14 -10t8 -20q0 -7 -20.5 -28t-62.5 -42.5t-87 -21.5q-42 0 -73 14
t-47.5 37t-24 45t-10.5 47h-5z" />
    <glyph glyph-name="paragraph" unicode="&#xb6;" horiz-adv-x="1232" 
d="M752 1235v-1506q0 -39 22.5 -58.5t59.5 -19.5q84 0 84 78v1506q0 44 -22 60.5t-62 16.5q-82 0 -82 -77zM836 1380q266 0 362 4l4 -4v-39q0 -16 -16 -16l-53 -4q-63 -5 -88 -23t-25 -63v-1506q0 -45 25 -63t88 -23l53 -4q16 0 16 -16v-39l-4 -4q-96 4 -362 4
q-263 0 -363 -4l-4 4v39q0 16 14 16l56 4q63 4 86.5 23t23.5 63v914q-27 -6 -65 -6q-227 0 -347 102t-120 305q0 63 23.5 122t69 108.5t122.5 79.5t174 30q89 0 202 -2t128 -2z" />
    <glyph glyph-name="periodcentered" unicode="&#xb7;" horiz-adv-x="512" 
d="M256 477q-43 0 -77 33.5t-34 76.5t34 77t77 34t77 -34t34 -77t-34 -76.5t-77 -33.5z" />
    <glyph glyph-name="cedilla" unicode="&#xb8;" horiz-adv-x="1107" 
d="M618 -138q-52 0 -92 -12l-12 12l82 197h70l-52 -137q24 6 54 6q63 0 104 -35t41 -92q0 -66 -62.5 -109t-156.5 -43q-74 0 -152 35q0 32 21 53q77 -28 119 -28q47 0 75.5 21.5t28.5 60.5q0 71 -68 71z" />
    <glyph glyph-name="one.superior" unicode="&#xb9;" horiz-adv-x="628" 
d="M276 1331q-19 0 -56 -11t-60 -22l-21 55q128 47 240 115h33v-530q0 -32 15.5 -53t35.5 -23l57 -4q12 0 12 -11v-38l-4 -5q-104 3 -172 3q-43 0 -119 -1.5t-77 -1.5l-4 5v38q0 4 4.5 7.5t9.5 3.5l74 4q25 2 43 23t18 53v307q0 51 -5.5 68.5t-23.5 17.5z" />
    <glyph glyph-name="ordmasculine" unicode="&#xba;" horiz-adv-x="714" 
d="M80 938q0 126 78 203t209 77q127 0 198.5 -78t71.5 -190q0 -109 -74.5 -189.5t-210.5 -80.5q-114 0 -193 74.5t-79 183.5zM350 1165q-73 0 -112 -59t-39 -148q0 -54 17.5 -103t59 -85.5t99.5 -36.5q23 0 46 8.5t46 28t37 57.5t14 90q0 121 -45 184.5t-123 63.5z" />
    <glyph glyph-name="guillemotright" unicode="&#xbb;" horiz-adv-x="950" 
d="M698 499q-119 116 -268 344l51 50q105 -127 175 -200.5t159 -144.5q27 -22 41 -32v-33l-41 -33q-89 -71 -159.5 -145t-174.5 -199l-51 49q149 228 268 344zM362 499q-119 116 -268 344l51 50q105 -127 175 -200.5t159 -144.5q27 -22 41 -32v-33l-41 -33
q-89 -71 -159.5 -145t-174.5 -199l-51 49q149 228 268 344z" />
    <glyph glyph-name="onequarter" unicode="&#xbc;" horiz-adv-x="1351" 
d="M1141 1290l84 -17l-938 -1341l-86 16zM1178 340v-175h116l-12 -69h-104v-98q0 -18 9.5 -28.5t21.5 -14t34 -5.5l33 -4q10 0 10 -8v-45q-95 2 -156 2l-153 -2v45q0 5 10 8l31 4q15 2 25 4t20 7t15 14.5t5 22.5v98h-295l-8 24l316 447l63 -21q-51 -78 -149.5 -215.5
t-116.5 -165.5h190v117q0 13 15 35q33 43 53 43q27 0 27 -20zM270 1230q-19 0 -56 -10.5t-60 -21.5l-21 55q128 47 240 115h33v-531q0 -32 15.5 -53t35.5 -23l57 -4q12 0 12 -10v-39l-4 -4q-104 2 -172 2q-43 0 -119 -1t-77 -1l-4 4v39q0 10 14 10l74 4q25 2 43 23t18 53
v307q0 51 -5.5 68.5t-23.5 17.5z" />
    <glyph glyph-name="onehalf" unicode="&#xbd;" horiz-adv-x="1351" 
d="M1090 1290l86 -17l-940 -1341l-84 16zM883 354q-20 0 -37 14.5t-17 34.5q0 52 56 105t164 53q57 0 103.5 -14t82 -54t35.5 -102q0 -66 -44.5 -121.5t-138.5 -122.5q-135 -96 -135 -184h166q29 0 54.5 25t37 48.5t27.5 63.5l49 -10q-30 -100 -39 -193h-422q0 67 50 130
t137 130q77 62 107 108t30 124q0 64 -35.5 93.5t-73.5 29.5q-60 0 -85 -17.5t-25 -42.5q0 -9 5 -25t5 -24q0 -22 -19.5 -35.5t-37.5 -13.5zM274 1230q-19 0 -56 -10.5t-60 -21.5l-21 55q128 47 240 115h33v-531q0 -32 15.5 -53t35.5 -23l57 -4q12 0 12 -10v-39l-4 -4
q-104 2 -172 2q-43 0 -119 -1t-77 -1l-4 4v39q0 10 14 10l74 4q25 2 43 23t18 53v307q0 51 -5.5 68.5t-23.5 17.5z" />
    <glyph glyph-name="threequarters" unicode="&#xbe;" horiz-adv-x="1351" 
d="M1151 1290l84 -17l-938 -1341l-86 16zM381 1233q0 43 -24 62t-58 19q-38 0 -75 -18.5t-38 -52.5q-1 -17 -4 -27.5t-15 -21.5t-34 -11q-18 0 -29.5 8.5t-14.5 16t-3 12.5q0 15 13 37.5t38.5 47.5t75 42t111.5 17q80 0 127 -32t47 -89q0 -81 -105 -140q61 -5 112.5 -52
t51.5 -128q0 -104 -86.5 -169.5t-212.5 -65.5q-62 0 -122 23t-60 53q0 15 16 27.5t33 12.5q29 0 53 -28q30 -37 103 -37q18 0 41 7t50.5 23.5t45.5 52.5t18 85q0 33 -12.5 58t-29.5 38.5t-40.5 22t-41.5 10.5t-36 2q-8 0 -40 -4l-5 49q69 9 109.5 48.5t40.5 101.5zM1186 344
v-174h117l-13 -70h-104v-98q0 -18 9.5 -28.5t21 -13.5t34.5 -5l33 -5q10 0 10 -8v-45q-94 2 -155 2l-154 -2v45q0 5 10 8l31 5q21 2 33.5 5.5t22.5 14t10 27.5v98h-295l-9 25l316 446l63 -20q-51 -78 -149.5 -215.5t-116.5 -165.5h191v116q0 14 14 35q33 43 53 43
q27 0 27 -20z" />
    <glyph glyph-name="questiondown" unicode="&#xbf;" horiz-adv-x="829" 
d="M633 -234q0 38 -12 53q-13 16 -13 50q0 33 24 52t56 19t58 -20t26 -68q0 -100 -104 -184q-93 -80 -254 -80q-156 0 -247 84.5t-91 224.5q0 47 14.5 90t33 72.5t52.5 63t56.5 51t60.5 45.5q87 65 106 102q37 70 37 150v90q0 20 27 20q26 0 26 -20v-94q0 -42 -3.5 -73
t-15.5 -76.5t-42 -91t-76 -89.5q-65 -61 -94 -112t-29 -120q0 -102 59.5 -179t145.5 -77t142.5 35t56.5 82zM571 850q0 -44 -32 -76.5t-76 -32.5t-76.5 32.5t-32.5 76.5t32.5 76t76.5 32t76 -32t32 -76z" />
    <glyph glyph-name="Agrave" unicode="&#xc0;" horiz-adv-x="1423" 
d="M582 1734l247 -172q31 -22 31 -43q0 -12 -9.5 -21t-21.5 -9q-31 0 -88 24l-315 129q56 56 156 92zM539 639h356l-199 546h-4l-205 -520q-2 -5 -2 -9q0 -8 8 -11q12 -6 46 -6zM311 221q-8 -19 -8 -35q0 -20 12 -35q22 -29 78 -33l60 -4q16 0 16 -16v-39l-4 -4
q-152 4 -268 4q-37 0 -189 -4l-4 4v39q0 16 16 16q75 5 118.5 35t80.5 119l455 1065q20 43 33.5 58.5t35.5 15.5q20 0 32 -15t24 -47l420 -1110q22 -60 55.5 -86.5t95.5 -32.5l23 -2q20 0 20 -16v-39l-4 -4q-152 4 -240 4q-120 0 -272 -4l-2 4v39q0 16 14 16l58 4
q59 5 80 26q12 11 12 31q0 14 -6 31l-125 347h-426q-36 0 -50 -7t-22 -28z" />
    <glyph glyph-name="Aacute" unicode="&#xc1;" horiz-adv-x="1423" 
d="M854 1738q85 -39 127 -106l-295 -119q-57 -24 -86 -24q-13 0 -22 9t-9 21q0 22 31 43zM539 639h356l-199 546h-4l-205 -520q-2 -5 -2 -9q0 -8 8 -11q12 -6 46 -6zM311 221q-8 -19 -8 -35q0 -20 12 -35q22 -29 78 -33l60 -4q16 0 16 -16v-39l-4 -4q-152 4 -268 4
q-37 0 -189 -4l-4 4v39q0 16 16 16q75 5 118.5 35t80.5 119l455 1065q20 43 33.5 58.5t35.5 15.5q20 0 32 -15t24 -47l420 -1110q22 -60 55.5 -86.5t95.5 -32.5l23 -2q20 0 20 -16v-39l-4 -4q-152 4 -240 4q-120 0 -272 -4l-2 4v39q0 16 14 16l58 4q59 5 80 26q12 11 12 31
q0 14 -6 31l-125 347h-426q-36 0 -50 -7t-22 -28z" />
    <glyph glyph-name="Acircumflex" unicode="&#xc2;" horiz-adv-x="1423" 
d="M776 1708q83 -101 207 -193l-33 -43q-124 58 -217 127q-104 -76 -219 -127l-29 43q90 68 203 193h88zM539 639h356l-199 546h-4l-205 -520q-2 -5 -2 -9q0 -8 8 -11q12 -6 46 -6zM311 221q-8 -19 -8 -35q0 -20 12 -35q22 -29 78 -33l60 -4q16 0 16 -16v-39l-4 -4
q-152 4 -268 4q-37 0 -189 -4l-4 4v39q0 16 16 16q75 5 118.5 35t80.5 119l455 1065q20 43 33.5 58.5t35.5 15.5q20 0 32 -15t24 -47l420 -1110q22 -60 55.5 -86.5t95.5 -32.5l23 -2q20 0 20 -16v-39l-4 -4q-152 4 -240 4q-120 0 -272 -4l-2 4v39q0 16 14 16l58 4
q59 5 80 26q12 11 12 31q0 14 -6 31l-125 347h-426q-36 0 -50 -7t-22 -28z" />
    <glyph glyph-name="Atilde" unicode="&#xc3;" horiz-adv-x="1423" 
d="M864 1583q36 0 59 22t44 84l49 -12q-37 -184 -178 -184q-52 0 -131 53q-72 45 -111 45t-62 -23t-38 -75l-50 10q22 93 60.5 137.5t103.5 44.5q67 0 148 -57q59 -45 106 -45zM539 639h356l-199 546h-4l-205 -520q-2 -5 -2 -9q0 -8 8 -11q12 -6 46 -6zM311 221
q-8 -19 -8 -35q0 -20 12 -35q22 -29 78 -33l60 -4q16 0 16 -16v-39l-4 -4q-152 4 -268 4q-37 0 -189 -4l-4 4v39q0 16 16 16q75 5 118.5 35t80.5 119l455 1065q20 43 33.5 58.5t35.5 15.5q20 0 32 -15t24 -47l420 -1110q22 -60 55.5 -86.5t95.5 -32.5l23 -2q20 0 20 -16v-39
l-4 -4q-152 4 -240 4q-120 0 -272 -4l-2 4v39q0 16 14 16l58 4q59 5 80 26q12 11 12 31q0 14 -6 31l-125 347h-426q-36 0 -50 -7t-22 -28z" />
    <glyph glyph-name="Adieresis" unicode="&#xc4;" horiz-adv-x="1423" 
d="M395 1505q0 40 29.5 69t69.5 29t69 -29t29 -69t-29 -69t-69 -29t-69.5 29t-29.5 69zM881 1505q0 40 29 69t69 29t69 -29t29 -69t-29 -69t-69 -29t-69 29t-29 69zM539 639h356l-199 546h-4l-205 -520q-2 -5 -2 -9q0 -8 8 -11q12 -6 46 -6zM311 221q-8 -19 -8 -35
q0 -20 12 -35q22 -29 78 -33l60 -4q16 0 16 -16v-39l-4 -4q-152 4 -268 4q-37 0 -189 -4l-4 4v39q0 16 16 16q75 5 118.5 35t80.5 119l455 1065q20 43 33.5 58.5t35.5 15.5q20 0 32 -15t24 -47l420 -1110q22 -60 55.5 -86.5t95.5 -32.5l23 -2q20 0 20 -16v-39l-4 -4
q-152 4 -240 4q-120 0 -272 -4l-2 4v39q0 16 14 16l58 4q59 5 80 26q12 11 12 31q0 14 -6 31l-125 347h-426q-36 0 -50 -7t-22 -28z" />
    <glyph glyph-name="Aring" unicode="&#xc5;" horiz-adv-x="1423" 
d="M539 639h356l-199 546h-4l-205 -520q-2 -5 -2 -9q0 -8 8 -11q12 -6 46 -6zM311 221q-8 -19 -8 -35q0 -20 12 -35q22 -29 78 -33l60 -4q16 0 16 -16v-39l-4 -4q-152 4 -268 4q-37 0 -189 -4l-4 4v39q0 16 16 16q75 5 118.5 35t80.5 119l455 1065q6 15 12 24
q-56 18 -92.5 62.5t-36.5 101.5q0 70 53.5 120t124.5 50q72 0 125 -49.5t53 -120.5q0 -55 -33.5 -99t-86.5 -63q4 -8 6 -14l420 -1110q22 -60 55.5 -86.5t95.5 -32.5l23 -2q20 0 20 -16v-39l-4 -4q-152 4 -240 4q-120 0 -272 -4l-2 4v39q0 16 14 16l58 4q59 5 80 26
q12 11 12 31q0 14 -6 31l-125 347h-426q-36 0 -50 -7t-22 -28zM735 1636q-46 0 -74 -33.5t-28 -81.5q0 -45 28.5 -79.5t73.5 -34.5t74 34.5t29 79.5q0 48 -29 81.5t-74 33.5z" />
    <glyph glyph-name="AE" unicode="&#xc6;" horiz-adv-x="1771" 
d="M555 684h324v553q0 42 -11 47zM965 59l-265 -4l-4 4v37q0 18 17 18l53 4q63 4 88 26.5t25 66.5v393h-365l-211 -406q-13 -25 -17.5 -37t-6.5 -21q-1 -2 -1 -4q0 -7 8 -9q9 -4 19.5 -6t36.5 -3l59 -4q5 0 9 -4t4 -8v-43l-2 -4q-139 4 -219 4l-185 -4l-4 4v39q0 13 21 16
l47 4q56 4 78.5 23.5t60.5 91.5l528 1008q8 16 8 29q0 15 -11 27q-20 22 -54 24l-64 4q-16 0 -16 14v41l4 2l361 -2h612q11 -124 43 -315l-59 -11q-14 44 -22.5 67.5t-23.5 57.5t-30.5 51t-38.5 35t-53 25.5t-68 7.5h-205q-35 0 -54 -26t-19 -64v-406h208q50 0 71.5 21.5
t33.5 69.5l12 61q4 16 17 16h45q6 0 6 -8q-17 -145 -17 -194q0 -48 17 -197l-4 -6h-47q-15 0 -19 14l-10 64q-10 46 -32.5 68t-72.5 22h-208v-522q0 -39 18.5 -55.5t54.5 -16.5h269q56 0 99.5 21t73 61t49 84.5t36.5 105.5l61 -10q-43 -198 -53 -342h-692z" />
    <glyph glyph-name="Ccedilla" unicode="&#xc7;" horiz-adv-x="1318" 
d="M752 -138q-53 0 -93 -12l-12 12l74 177q-127 1 -234 39t-182 102t-127.5 149t-77 180t-24.5 195q0 147 54.5 279t144.5 224t209 146t245 54q109 0 195.5 -22t148 -45.5t105.5 -25.5q9 -127 45 -317l-62 -8q-103 342 -454 342q-51 0 -109.5 -20.5t-120 -67.5t-111 -113
t-81 -167t-31.5 -220q0 -91 18 -179.5t56.5 -168.5t93 -140.5t133 -96.5t170.5 -36q143 0 255 52.5t220 171.5q30 0 47 -31q-91 -120 -207.5 -189t-246.5 -83l-45 -121q24 6 53 6q63 0 104 -35t41 -92q0 -66 -62.5 -109t-156.5 -43q-74 0 -152 35q0 32 21 53q77 -28 119 -28
q47 0 75.5 21.5t28.5 60.5q0 71 -67 71z" />
    <glyph glyph-name="Egrave" unicode="&#xc8;" horiz-adv-x="1124" 
d="M502 1732l248 -172q30 -21 30 -43q0 -12 -9 -21.5t-21 -9.5q-28 0 -88 25l-316 129q56 56 156 92zM911 1382q3 -14 20.5 -126.5t24.5 -170.5l-59 -10q-20 62 -35 96t-41 67t-64.5 46.5t-94.5 13.5h-216q-73 0 -73 -70v-430h260q52 0 74.5 20.5t27.5 65.5l6 52q0 6 4.5 11
t10.5 5h45l8 -8q-8 -109 -8 -185q0 -69 8 -178l-8 -6h-45q-7 0 -11 5.5t-4 10.5l-6 52q-4 44 -26.5 61t-75.5 17h-260v-515q0 -39 18 -53t55 -14h279q201 0 276 268l64 -10q-22 -95 -76 -342q-164 4 -262 4h-438q-68 0 -260 -4l-4 4v41q0 14 16 14l61 4q59 4 82 24t23 64
v1022q0 47 -23.5 68t-81.5 25l-61 4q-16 0 -16 14v41l4 4q192 -4 260 -4h518q49 0 96 8q8 0 8 -6z" />
    <glyph glyph-name="Eacute" unicode="&#xc9;" horiz-adv-x="1124" 
d="M717 1738q85 -39 127 -106l-295 -119q-57 -24 -86 -24q-13 0 -22 9t-9 21q0 22 31 43zM911 1382q3 -14 20.5 -126.5t24.5 -170.5l-59 -10q-20 62 -35 96t-41 67t-64.5 46.5t-94.5 13.5h-216q-73 0 -73 -70v-430h260q52 0 74.5 20.5t27.5 65.5l6 52q0 6 4.5 11t10.5 5h45
l8 -8q-8 -109 -8 -185q0 -69 8 -178l-8 -6h-45q-7 0 -11 5.5t-4 10.5l-6 52q-4 44 -26.5 61t-75.5 17h-260v-515q0 -39 18 -53t55 -14h279q201 0 276 268l64 -10q-22 -95 -76 -342q-164 4 -262 4h-438q-68 0 -260 -4l-4 4v41q0 14 16 14l61 4q59 4 82 24t23 64v1022
q0 47 -23.5 68t-81.5 25l-61 4q-16 0 -16 14v41l4 4q192 -4 260 -4h518q49 0 96 8q8 0 8 -6z" />
    <glyph glyph-name="Ecircumflex" unicode="&#xca;" horiz-adv-x="1124" 
d="M649 1708q83 -101 207 -193l-33 -43q-124 58 -217 127q-104 -76 -219 -127l-29 43q90 68 203 193h88zM911 1382q3 -14 20.5 -126.5t24.5 -170.5l-59 -10q-20 62 -35 96t-41 67t-64.5 46.5t-94.5 13.5h-216q-73 0 -73 -70v-430h260q52 0 74.5 20.5t27.5 65.5l6 52
q0 6 4.5 11t10.5 5h45l8 -8q-8 -109 -8 -185q0 -69 8 -178l-8 -6h-45q-7 0 -11 5.5t-4 10.5l-6 52q-4 44 -26.5 61t-75.5 17h-260v-515q0 -39 18 -53t55 -14h279q201 0 276 268l64 -10q-22 -95 -76 -342q-164 4 -262 4h-438q-68 0 -260 -4l-4 4v41q0 14 16 14l61 4
q59 4 82 24t23 64v1022q0 47 -23.5 68t-81.5 25l-61 4q-16 0 -16 14v41l4 4q192 -4 260 -4h518q49 0 96 8q8 0 8 -6z" />
    <glyph glyph-name="Edieresis" unicode="&#xcb;" horiz-adv-x="1124" 
d="M664 1597q0 40 29 69t69 29t69 -29t29 -69t-29 -69t-69 -29t-69 29t-29 69zM276 1597q0 40 29.5 69t69.5 29t69 -29t29 -69t-29 -69t-69 -29t-69.5 29t-29.5 69zM911 1382q3 -14 20.5 -126.5t24.5 -170.5l-59 -10q-20 62 -35 96t-41 67t-64.5 46.5t-94.5 13.5h-216
q-73 0 -73 -70v-430h260q52 0 74.5 20.5t27.5 65.5l6 52q0 6 4.5 11t10.5 5h45l8 -8q-8 -109 -8 -185q0 -69 8 -178l-8 -6h-45q-7 0 -11 5.5t-4 10.5l-6 52q-4 44 -26.5 61t-75.5 17h-260v-515q0 -39 18 -53t55 -14h279q201 0 276 268l64 -10q-22 -95 -76 -342
q-164 4 -262 4h-438q-68 0 -260 -4l-4 4v41q0 14 16 14l61 4q59 4 82 24t23 64v1022q0 47 -23.5 68t-81.5 25l-61 4q-16 0 -16 14v41l4 4q192 -4 260 -4h518q49 0 96 8q8 0 8 -6z" />
    <glyph glyph-name="Igrave" unicode="&#xcc;" horiz-adv-x="600" 
d="M203 1732l248 -172q30 -21 30 -43q0 -12 -9 -21.5t-21 -9.5q-29 0 -89 25l-315 129q56 56 156 92zM383 1235v-1031q0 -45 25 -63t88 -23l53 -4q16 0 16 -16v-39l-4 -4q-98 4 -260 4q-160 0 -260 -4l-4 4v39q0 16 14 16l55 4q63 4 87 23.5t24 62.5v1031q0 45 -25 63
t-86 23l-55 4q-16 0 -16 16v39l4 4q204 -4 260 -4q62 0 262 4l4 -4v-39q0 -16 -16 -16l-53 -4q-62 -5 -87.5 -24t-25.5 -62z" />
    <glyph glyph-name="Iacute" unicode="&#xcd;" horiz-adv-x="600" 
d="M430 1736q85 -39 127 -106l-295 -119q-60 -25 -86 -25q-13 0 -22 9.5t-9 21.5q0 22 31 43zM383 1235v-1031q0 -45 25 -63t88 -23l53 -4q16 0 16 -16v-39l-4 -4q-98 4 -260 4q-160 0 -260 -4l-4 4v39q0 16 14 16l55 4q63 4 87 23.5t24 62.5v1031q0 45 -25 63t-86 23l-55 4
q-16 0 -16 16v39l4 4q204 -4 260 -4q62 0 262 4l4 -4v-39q0 -16 -16 -16l-53 -4q-62 -5 -87.5 -24t-25.5 -62z" />
    </font>
</defs>
</svg>
