<?xml version="1.0" standalone="no"?>
<!DOCTYPE svg PUBLIC "-//W3C//DTD SVG 1.1//EN" "http://www.w3.org/Graphics/SVG/1.1/DTD/svg11.dtd" >
<svg xmlns="http://www.w3.org/2000/svg" xmlns:xlink="http://www.w3.org/1999/xlink" version="1.1">
<metadata>
Created by FontForge 20170924 at Sun Nov  6 14:35:47 2011
 By www-data
Uyghur Computer Science Association. Free distributed and all rights reserved. http://www.ukij.org
</metadata>
<defs>
<font id="UKIJBasmaAq-Bold" horiz-adv-x="1024" >
  <font-face 
    font-family="UKIJ Basma Aq"
    font-weight="700"
    font-stretch="normal"
    units-per-em="2048"
    panose-1="2 2 8 3 7 5 5 2 3 4"
    ascent="1638"
    descent="-410"
    x-height="940"
    cap-height="1341"
    bbox="-373 -786 2250 1846"
    underline-thickness="195"
    underline-position="-777"
    unicode-range="U+0020-FEFC"
  />
<missing-glyph horiz-adv-x="748" 
d="M68 0v1365h544v-1365h-544zM136 68h408v1229h-408v-1229z" />
    <glyph glyph-name="uni0675" unicode="&#x674;&#xfe8d;" horiz-adv-x="901" 
d="M293 1227q24 -115 24 -330q0 -355 -65 -777l-91 -137l-1 339q0 471 -80 720zM872 958l1 -10q0 -32 -24 -117q-179 -29 -425 -145v94q24 15 112 64q-87 45 -87 124q0 53 87 140q91 93 164 93q54 0 139 -56l-84 -106q-65 38 -97 38q-63 0 -114 -61q46 -102 148 -102
q17 0 65 14q65 19 115 30z" />
    <glyph glyph-name="uni0676" unicode="&#x674;&#xfeed;" horiz-adv-x="1100" 
d="M605 154q0 -318 -273 -639q-75 0 -181 34q-101 32 -167 76q189 77 304 167q135 106 220 265q-76 -28 -157 -28q-149 0 -251 87q0 203 87 343q59 94 135 135q107 0 186 -98q97 -120 97 -342zM470 246q-25 55 -67 99q-51 55 -100 55q-26 0 -55 -45q-25 -38 -32 -69
q10 -29 71 -46q45 -13 89 -13q57 0 94 19zM1086 888l1 -10q0 -32 -24 -117q-179 -29 -425 -145v94q24 15 112 64q-87 45 -87 124q0 53 87 140q91 93 164 93q54 0 139 -56l-84 -106q-65 38 -97 38q-63 0 -114 -61q46 -102 148 -102q17 0 65 14q65 19 115 30z" />
    <glyph glyph-name="uni0677" unicode="&#x674;&#xfbd7;" horiz-adv-x="1100" 
d="M605 154q0 -318 -273 -639q-75 0 -181 34q-101 32 -167 76q189 77 304 167q135 106 220 265q-76 -28 -157 -28q-149 0 -251 87q0 203 87 343q59 94 135 135q107 0 186 -98q97 -120 97 -342zM470 246q-25 55 -67 99q-51 55 -100 55q-26 0 -55 -45q-25 -38 -32 -69
q10 -29 71 -46q45 -13 89 -13q57 0 94 19zM501 899q-5 -62 -62 -121.5t-132 -79.5q-26 8 -26 24q0 4 2 7q118 60 118 158v8q-28 -8 -52 -8q-76 0 -82 83v5q0 72 102 90q129 -11 132 -166zM1086 888l1 -10q0 -32 -24 -117q-179 -29 -425 -145v94q24 15 112 64q-87 45 -87 124
q0 53 87 140q91 93 164 93q54 0 139 -56l-84 -106q-65 38 -97 38q-63 0 -114 -61q46 -102 148 -102q17 0 65 14q65 19 115 30z" />
    <glyph glyph-name="uni0678" unicode="&#x674;&#xfeef;" horiz-adv-x="1500" 
d="M1194 720l-109 -241q-51 19 -96 19q-151 0 -243 -218q4 -33 101 -61l177 -50q94 -37 94 -91q0 -127 -76 -333q-330 -196 -676 -196q-160 0 -252 73q-100 80 -100 236q0 100 49 242q40 118 94 209h9q39 0 59 -32q-72 -134 -72 -266q0 -217 285 -217q118 0 293 41
q189 45 279 102q-75 53 -230 87q-126 28 -166 87q0 49 37 180q129 459 403 459q66 0 140 -30zM1487 1100l1 -10q0 -32 -24 -117q-179 -29 -425 -145v94q24 15 112 64q-87 45 -87 124q0 53 87 140q91 93 164 93q54 0 139 -56l-84 -106q-65 38 -97 38q-63 0 -114 -61
q46 -102 148 -102q17 0 65 14q65 19 115 30z" />
    <glyph glyph-name="uniFEF5" unicode="&#xfedf;&#xfe82;" horiz-adv-x="999" arabic-form="isolated" 
d="M929 1007q5 -13 5 -16q0 -12 -61 -12q-26 -245 -67 -352q-48 -123 -158 -227l58 -110q2 -44 2 -83q0 -102 -17 -170q-156 -38 -304 -38q-71 0 -158 5q28 148 28 253v14q223 100 249 142q-69 101 -168 206q-114 122 -196 174l-38 -56q-48 91 -104 172l95 303
q135 -157 282 -381q47 -72 221 -346q95 110 95 359q0 142 -43 285l174 113q11 7 16 8q2 -3 7 -16q33 -111 82 -227zM592 247v3q0 33 -38 81q-71 -41 -178 -108q33 -11 79 -11q93 0 137 35zM415 1447q0 -35 -95 -69q-76 -29 -125 -33q-76 -5 -131 -6q-13 -19 -26 -68
q-8 -33 -21 -33q-58 0 -58 17q0 55 14 120q21 92 55 92q19 0 56.5 -9.5t57.5 -9.5q122 0 269 75q4 -16 4 -76z" />
    <glyph glyph-name="uniFEF6" unicode="&#xfee0;&#xfe82;" horiz-adv-x="1100" arabic-form="final" 
d="M1122 32h-66q-119 0 -177 96q-47 76 -47 193v14l8 406q-151 -513 -335 -742q-120 -44 -266 -44q-71 0 -140 11q-26 5 -26 10q0 7 26 19q180 88 366 293q-47 167 -121 288q-52 84 -149 190v-69l-156 142l40 334q193 -146 293 -304q114 -180 178 -476q227 337 227 624
q0 50 -6 100q75 44 199 134q0 -375 -17 -742q-1 -19 -1 -49q0 -125 37 -161q21 -20 85 -20h48v-247zM415 1447q0 -35 -95 -69q-76 -29 -125 -33q-76 -5 -131 -6q-13 -19 -26 -68q-8 -33 -21 -33q-58 0 -58 17q0 55 14 120q21 92 55 92q19 0 56.5 -9.5t57.5 -9.5
q122 0 269 75q4 -16 4 -76z" />
    <glyph glyph-name="uniFEF7" unicode="&#xfedf;&#xfe84;" horiz-adv-x="999" arabic-form="isolated" 
d="M929 1007q5 -13 5 -16q0 -12 -61 -12q-26 -245 -67 -352q-48 -123 -158 -227l58 -110q2 -44 2 -83q0 -102 -17 -170q-156 -38 -304 -38q-71 0 -158 5q28 148 28 253v14q223 100 249 142q-69 101 -168 206q-114 122 -196 174l-38 -56q-48 91 -104 172l95 303
q135 -157 282 -381q47 -72 221 -346q95 110 95 359q0 142 -43 285l174 113q11 7 16 8q2 -3 7 -16q33 -111 82 -227zM592 247v3q0 33 -38 81q-71 -41 -178 -108q33 -11 79 -11q93 0 137 35zM382 1473v-5q0 -13 -10 -49q-15 -41 -23 -43q-50 -7 -95 -17q-105 -24 -246 -111
q2 37 6 75q26 22 110 63q-91 47 -91 107q0 47 70.5 112t119.5 65q67 0 133 -62l-69 -66q-42 39 -77 39q-24 0 -59 -19q-40 -20 -40 -43q0 -25 43 -55.5t70 -30.5q53 16 158 40z" />
    <glyph glyph-name="uniFEF8" unicode="&#xfee0;&#xfe84;" horiz-adv-x="1100" arabic-form="final" 
d="M1122 32h-66q-119 0 -177 96q-47 76 -47 193v14l8 406q-151 -513 -335 -742q-120 -44 -266 -44q-71 0 -140 11q-26 5 -26 10q0 7 26 19q180 88 366 293q-47 167 -121 288q-52 84 -149 190v-69l-156 142l40 334q193 -146 293 -304q114 -180 178 -476q227 337 227 624
q0 50 -6 100q75 44 199 134q0 -375 -17 -742q-1 -19 -1 -49q0 -125 37 -161q21 -20 85 -20h48v-247zM382 1473v-5q0 -13 -10 -49q-15 -41 -23 -43q-50 -7 -95 -17q-105 -24 -246 -111q2 37 6 75q26 22 110 63q-91 47 -91 107q0 47 70.5 112t119.5 65q67 0 133 -62l-69 -66
q-42 39 -77 39q-24 0 -59 -19q-40 -20 -40 -43q0 -25 43 -55.5t70 -30.5q53 16 158 40z" />
    <glyph glyph-name="uniFEF9" unicode="&#xfedf;&#xfe88;" horiz-adv-x="999" arabic-form="isolated" 
d="M929 1007q5 -13 5 -16q0 -12 -61 -12q-26 -245 -67 -352q-48 -123 -158 -227l58 -110q2 -44 2 -83q0 -102 -17 -170q-156 -38 -304 -38q-71 0 -158 5q28 148 28 253v14q223 100 249 142q-69 101 -168 206q-114 122 -196 174l-38 -56q-48 91 -104 172l95 303
q135 -157 282 -381q47 -72 221 -346q95 110 95 359q0 142 -43 285l174 113q11 7 16 8q2 -3 7 -16q33 -111 82 -227zM592 247v3q0 33 -38 81q-71 -41 -178 -108q33 -11 79 -11q93 0 137 35zM387 -298v-5q0 -13 -10 -49q-15 -41 -23 -43q-50 -7 -95 -17q-105 -24 -246 -111
q2 37 6 75q26 22 110 63q-91 47 -91 107q0 47 70.5 112t119.5 65q67 0 133 -62l-69 -66q-42 39 -77 39q-24 0 -59 -19q-40 -20 -40 -43q0 -25 43 -55.5t70 -30.5q53 16 158 40z" />
    <glyph glyph-name="uniFEFA" unicode="&#xfee0;&#xfe88;" horiz-adv-x="1100" arabic-form="final" 
d="M1122 32h-66q-119 0 -177 96q-47 76 -47 193v14l8 406q-151 -513 -335 -742q-120 -44 -266 -44q-71 0 -140 11q-26 5 -26 10q0 7 26 19q180 88 366 293q-47 167 -121 288q-52 84 -149 190v-69l-156 142l40 334q193 -146 293 -304q114 -180 178 -476q227 337 227 624
q0 50 -6 100q75 44 199 134q0 -375 -17 -742q-1 -19 -1 -49q0 -125 37 -161q21 -20 85 -20h48v-247zM387 -298v-5q0 -13 -10 -49q-15 -41 -23 -43q-50 -7 -95 -17q-105 -24 -246 -111q2 37 6 75q26 22 110 63q-91 47 -91 107q0 47 70.5 112t119.5 65q67 0 133 -62l-69 -66
q-42 39 -77 39q-24 0 -59 -19q-40 -20 -40 -43q0 -25 43 -55.5t70 -30.5q53 16 158 40z" />
    <glyph glyph-name="uniFEFB" unicode="&#xfedf;&#xfe8e;" horiz-adv-x="999" arabic-form="isolated" 
d="M929 1007q5 -13 5 -16q0 -12 -61 -12q-26 -245 -67 -352q-48 -123 -158 -227l58 -110q2 -44 2 -83q0 -102 -17 -170q-156 -38 -304 -38q-71 0 -158 5q28 148 28 253v14q223 100 249 142q-69 101 -168 206q-114 122 -196 174l-38 -56q-48 91 -104 172l95 303
q135 -157 282 -381q47 -72 221 -346q95 110 95 359q0 142 -43 285l174 113q11 7 16 8q2 -3 7 -16q33 -111 82 -227zM592 247v3q0 33 -38 81q-71 -41 -178 -108q33 -11 79 -11q93 0 137 35z" />
    <glyph glyph-name="uniFEFC" unicode="&#xfee0;&#xfe8e;" horiz-adv-x="1100" arabic-form="final" 
d="M1122 32h-66q-119 0 -177 96q-47 76 -47 193v14l8 406q-151 -513 -335 -742q-120 -44 -266 -44q-71 0 -140 11q-26 5 -26 10q0 7 26 19q180 88 366 293q-47 167 -121 288q-52 84 -149 190v-69l-156 142l40 334q193 -146 293 -304q114 -180 178 -476q227 337 227 624
q0 50 -6 100q75 44 199 134q0 -375 -17 -742q-1 -19 -1 -49q0 -125 37 -161q21 -20 85 -20h48v-247z" />
    <glyph glyph-name="uniFB56" unicode="&#x67e;" horiz-adv-x="1365" arabic-form="isolated" 
d="M1312 456q0 -42 -51.5 -152t-83.5 -136q-40 -32 -248 -79q-247 -57 -458 -57q-282 0 -388 111q-68 70 -68 208q0 187 107 352q5 1 10 1q40 0 55 -30q-55 -130 -55 -198q0 -199 428 -199q389 0 610 93q-38 98 -99 180l137 185q41 -51 74 -149q30 -86 30 -130zM853 -186
l-114 -108l-114 115l119 105zM600 -184l-116 -109l-112 114l117 106zM722 -390l-114 -108l-113 113l119 106z" />
    <glyph glyph-name="uniFB57" unicode="&#x67e;" horiz-adv-x="1399" arabic-form="final" 
d="M1432 32h-71q-92 0 -152 50q-65 53 -67 143q-263 -193 -686 -193q-203 0 -306 57q-138 75 -138 260q0 204 108 355q6 1 12 1q36 0 52 -31q-55 -128 -55 -205q0 -101 123 -151q99 -40 254 -40q156 0 309 27q201 35 287 102q54 42 83 125q6 4 16 4q8 0 20 -3q24 -6 35 -19
q-21 -65 -21 -112q0 -124 142 -124h55v-246zM850 -186l-114 -108l-114 114l119 106zM597 -184l-116 -109l-112 114l117 106zM720 -390l-115 -108l-113 113l119 105z" />
    <glyph glyph-name="uniFB58" unicode="&#x67e;" horiz-adv-x="599" arabic-form="initial" 
d="M517 418q-32 -191 -87 -259q-101 -127 -284 -127h-158v247h194q195 0 195 58q0 41 -101 178l138 189q103 -137 103 -286zM504 -172l-114 -108l-113 114l118 105zM251 -170l-116 -109l-111 114l117 105zM374 -376l-114 -108l-114 113l119 105z" />
    <glyph glyph-name="uniFB59" unicode="&#x67e;" horiz-adv-x="501" arabic-form="medial" 
d="M519 32h-64q-73 0 -136 64q-58 59 -73 134q-10 -69 -76 -132q-69 -66 -137 -66h-63v247h54q91 0 143 81q42 65 42 148h77q0 -96 40 -157q47 -72 139 -72h54v-247zM486 -172l-115 -108l-113 114l119 105zM233 -170l-116 -109l-112 114l117 105zM355 -376l-114 -108
l-113 113l118 105z" />
    <glyph glyph-name="uniFB6A" unicode="&#x6a4;" horiz-adv-x="1276" arabic-form="isolated" 
d="M1212 496q0 -129 -30 -341q-173 -123 -680 -123q-268 0 -360 38q-133 55 -133 232q0 159 111 333h9q34 0 45 -30q-52 -85 -52 -164q0 -119 147 -149q71 -14 348 -14q367 0 484 60v92q-68 -28 -152 -28q-140 0 -216 63q0 198 73 327q51 87 120 126q156 0 230 -141
q56 -108 56 -281zM1090 596q-64 137 -173 137q-28 0 -51 -38q-21 -34 -21 -64q0 -53 146 -53q72 0 99 18zM1210 1126l-124 -125l-126 111l-115 -116l-133 116l125 127l126 -113l115 118zM1082 1341l-133 -126l-130 132l135 122z" />
    <glyph glyph-name="uniFB6B" unicode="&#x6a4;" horiz-adv-x="1301" arabic-form="final" 
d="M1316 32h-62q-139 0 -275 111q-91 -64 -150 -81q-101 -30 -323 -30q-270 0 -363 38q-137 55 -137 232q0 159 111 333h9q34 0 45 -30q-52 -85 -52 -164q0 -119 128 -149q62 -14 304 -14q227 0 298 21q-109 99 -109 242q0 109 91 221q80 97 117 97q52 0 130 -67
q103 -88 103 -216q0 -72 -32 -155q-27 -70 -60 -111q48 -31 151 -31h76v-247zM1049 483q0 40 -31.5 76t-70.5 36q-32 0 -61 -45q-26 -42 -26 -76q0 -63 110 -117q28 13 53.5 54t25.5 72zM1210 1126l-124 -125l-126 111l-115 -116l-133 116l125 127l126 -113l115 118z
M1082 1341l-133 -126l-130 132l135 122z" />
    <glyph glyph-name="uniFB6C" unicode="&#x6a4;" horiz-adv-x="700" arabic-form="initial" 
d="M619 496q0 -129 -30 -347q-78 -54 -236 -88q-135 -29 -254 -29h-129v247h162q270 0 376 59v92q-68 -28 -152 -28q-140 0 -216 63q0 199 72 327q51 87 121 126q156 0 230 -141q56 -108 56 -281zM497 596q-33 73 -92 110q-43 27 -81 27q-28 0 -51 -38q-21 -34 -21 -64
q0 -53 146 -53q72 0 99 18zM594 1145l-124 -125l-126 111l-115 -116l-133 116l125 127l126 -113l115 118zM466 1360l-133 -126l-130 132l135 122z" />
    <glyph glyph-name="uniFB6D" unicode="&#x6a4;" horiz-adv-x="700" arabic-form="medial" 
d="M726 32h-81q-141 0 -275 111q-92 -65 -131 -81q-68 -30 -167 -30h-102v247h108q104 0 162 20q-110 99 -110 242q0 109 92 221q79 97 117 97q52 0 131 -67q101 -88 101 -216q0 -73 -31 -155q-26 -68 -60 -111q48 -31 151 -31h95v-247zM440 483q0 40 -31.5 76t-71.5 36
q-32 0 -60 -45q-26 -41 -26 -76q0 -62 110 -117q28 13 53.5 54t25.5 72zM584 1145l-124 -125l-126 111l-115 -116l-133 116l125 127l126 -113l115 118zM462 1360l-133 -126l-130 132l135 122z" />
    <glyph glyph-name="uniFB7A" unicode="&#x686;" horiz-adv-x="1051" arabic-form="isolated" 
d="M1089 -307l-85 -113q-75 -25 -252 -47q-166 -21 -266 -21q-196 0 -324 87q-149 101 -149 287q0 188 172 367q136 141 292 207q-234 52 -259 52q-48 0 -107 -140q-43 0 -66 26q80 195 99 234q57 118 103 118q67 0 239.5 -52.5t266.5 -52.5h252l-133 -209q-31 2 -61 2
q-312 0 -474 -176q-114 -124 -114 -253q0 -327 587 -327q84 0 279 11zM850 106l-114 -108l-114 115l119 105zM597 108l-116 -109l-112 115l117 105zM720 -98l-115 -108l-113 113l119 106z" />
    <glyph glyph-name="uniFB7B" unicode="&#x686;" horiz-adv-x="1100" arabic-form="final" 
d="M1114 33h-104q-355 0 -410 398q-180 -46 -292 -207q-85 -123 -85 -215q0 -327 565 -327q79 0 274 11l-85 -113q-75 -26 -239 -47q-154 -21 -252 -21q-196 0 -324 87q-149 101 -149 287q0 179 172 362q139 148 292 212q-234 52 -259 52q-48 0 -107 -140q-43 0 -66 26
q80 195 99 234q57 118 103 118q66 0 238 -52.5t268 -52.5l282 2l-119 -210h-223q27 -80 64 -109q62 -49 199 -49h158v-246zM739 51l-109 -102l-108 109l114 100zM499 53l-111 -103l-106 109l112 100zM615 -142l-109 -103l-107 107l113 101z" />
    <glyph glyph-name="uniFB7C" unicode="&#x686;" horiz-adv-x="999" arabic-form="initial" 
d="M933 365l-121 -196q-127 25 -169 25q-71 0 -286 -81t-324 -81h-63v247h138q240 0 404 43q-89 49 -218 136q-82 56 -109 56t-98 -124h-2q-13 0 -32 10q-21 10 -27 22q139 302 225 302q56 0 182 -97q192 -148 238 -176q140 -86 246 -86h16zM692 -178l-114 -108l-114 115
l119 105zM439 -176l-116 -109l-112 115l117 105zM561 -381l-114 -108l-113 112l118 106z" />
    <glyph glyph-name="uniFB7D" unicode="&#x686;" horiz-adv-x="1201" arabic-form="medial" 
d="M1223 32h-91q-152 0 -242 91q-72 73 -125 234q-288 -203 -343 -234q-163 -91 -330 -91h-122v247h162q147 0 240 29q64 20 241 108q-343 135 -387 135q-40 0 -64 -25q-22 -21 -60 -93q-14 -7 -26 -7q-24 0 -38 25q61 159 93 219q60 114 116 114q36 0 247 -94.5t308 -94.5
q106 0 331 43l-96 -218q-117 -13 -194 -29q54 -112 209 -112h171v-247zM773 -178l-114 -108l-114 115l119 105zM520 -176l-116 -109l-112 115l117 105zM642 -381l-114 -108l-113 112l118 106z" />
    <glyph glyph-name="uniFB8A" unicode="&#x698;" horiz-adv-x="599" arabic-form="isolated" 
d="M514 72q0 -108 -95 -295q-91 -180 -186 -275q-62 0 -166.5 43t-149.5 87q163 75 291 174q150 116 178 209q-41 113 -167 197l125 241q66 -58 118 -175t52 -206zM574 722l-124 -125l-126 111l-115 -116l-133 116l125 127l126 -113l115 118zM452 937l-133 -126l-130 132
l135 122z" />
    <glyph glyph-name="uniFB8B" unicode="&#x698;" horiz-adv-x="700" arabic-form="final" 
d="M727 33h-73q-65 0 -125 45q-61 -333 -306 -556q-36 0 -131 36q-109 41 -170 91q422 201 483 385q-37 106 -182 209l122 242q114 -128 154 -158q64 -48 151 -48h77v-246zM574 722l-124 -125l-126 111l-115 -116l-133 116l125 127l126 -113l115 118zM452 937l-133 -126
l-130 132l135 122z" />
    <glyph glyph-name="uniFB8E" unicode="&#x6a9;" horiz-adv-x="1301" arabic-form="isolated" 
d="M1386 1247l-102 -240q-292 -91 -530 -210q241 -78 341 -260q1 -29 1 -56q0 -151 -30 -259q-81 -118 -249 -161q-113 -29 -305 -29q-270 0 -363 38q-137 55 -137 232q0 160 111 333h9q34 0 45 -29q-52 -86 -52 -165q0 -119 128 -149q62 -14 304 -14q344 0 451 83
q-72 164 -355 278q0 129 30 319q143 80 349 168q237 101 354 121z" />
    <glyph glyph-name="uniFB8F" unicode="&#x6a9;" horiz-adv-x="1601" arabic-form="final" 
d="M1622 32h-95q-100 0 -190 70q-49 39 -127.5 140t-124.5 137q5 -32 5 -67q0 -46 -10 -97q-80 -115 -260 -157q-113 -26 -311 -26q-270 0 -363 38q-137 55 -137 232q0 159 111 333h9q34 0 45 -30q-52 -85 -52 -164q0 -114 128 -145q73 -18 304 -18q212 0 310 16
q88 14 150 58q-104 175 -363 293q5 183 29 307q389 219 747 297l-108 -232q-126 -31 -325 -113q-160 -65 -231 -103q142 -53 324 -195q69 -53 169 -155q90 -93 131 -123q68 -49 143 -49h92v-247z" />
    <glyph glyph-name="uniFB90" unicode="&#x6a9;" horiz-adv-x="599" arabic-form="initial" 
d="M782 1248l-102 -241q-292 -91 -530 -209q241 -79 341 -261q1 -26 1 -51q0 -160 -39 -292q-143 -161 -388 -161h-73v246h77q136 0 174 6q88 12 156 65q-79 180 -350 289q8 192 30 320q142 79 349 167q238 102 354 122z" />
    <glyph glyph-name="uniFB91" unicode="&#x6a9;" horiz-adv-x="999" arabic-form="medial" 
d="M1019 33h-75q-99 0 -189 70q-50 39 -128.5 139.5t-125.5 137.5q2 -10 2 -24q0 -47 -20 -137q-60 -92 -172 -141q-102 -45 -221 -45h-99v246h126q227 0 305 74q-107 180 -355 293q5 180 29 306q392 221 748 297l-108 -232q-130 -31 -326 -112q-155 -64 -230 -104
q140 -53 324 -194q71 -55 169 -156q92 -94 130 -122q69 -50 143 -50h73v-246z" />
    <glyph glyph-name="uniFB92" unicode="&#x6af;" horiz-adv-x="1201" arabic-form="isolated" 
d="M1335 1261l-45 -90q-205 -29 -510 -120l26 97q95 27 183 48q210 52 346 65zM1382 1094l-94 -231q-311 -19 -574 -95q137 -42 213 -86q85 -48 151 -129q5 -30 5 -81q0 -38 -3 -87q-6 -106 -17 -162q-81 -118 -249 -162q-113 -28 -305 -28q-270 0 -363 37q-137 55 -137 233
q0 159 111 333h7q36 0 47 -30q-52 -86 -52 -165q0 -119 128 -148q62 -15 304 -15q344 0 451 83q-116 170 -368 231q0 118 37 329q399 141 708 173z" />
    <glyph glyph-name="uniFB93" unicode="&#x6af;" horiz-adv-x="1601" arabic-form="final" 
d="M1384 1255l-45 -90q-205 -29 -539 -123l25 97q93 25 198 49q228 53 361 67zM1618 32h-105q-97 0 -231 135q-56 57 -204 208q7 -43 7 -83q0 -41 -7 -78q-80 -115 -260 -156q-113 -26 -311 -26q-270 0 -363 38q-137 54 -137 232q0 159 111 333h7q36 0 47 -30
q-52 -85 -52 -165q0 -113 128 -145q73 -18 304 -18q207 0 305 18q82 16 147 59q-47 85 -156 151q-95 58 -205 83q15 184 38 326q424 150 743 173l-87 -216q-313 -20 -607 -106q169 -64 324 -162q54 -34 250 -204q139 -121 211 -121h103v-246z" />
    <glyph glyph-name="uniFB94" unicode="&#x6af;" horiz-adv-x="599" arabic-form="initial" 
d="M748 1260l-45 -90q-205 -29 -509 -120l25 97q100 28 183 48q209 52 346 65zM795 1093l-94 -231q-310 -19 -574 -95q138 -42 213 -86q85 -48 152 -129q4 -29 4 -74q0 -44 -4 -103q-8 -116 -20 -172q-66 -79 -183 -126q-111 -45 -219 -45h-79v246h128q212 0 295 79
q-114 174 -363 234q9 178 37 329q398 141 707 173z" />
    <glyph glyph-name="uniFB95" unicode="&#x6af;" horiz-adv-x="999" arabic-form="medial" 
d="M812 1255l-45 -90q-206 -29 -539 -123l25 97q97 26 197 50q227 53 362 66zM1016 32h-75q-95 0 -231 135q-51 51 -204 208q8 -42 8 -83q0 -39 -8 -77q-139 -183 -419 -183h-99v247h126q129 0 196 17q56 14 122 58q-48 86 -156 152q-95 57 -205 82q11 182 38 326
q426 150 743 173l-87 -216q-312 -20 -607 -105q170 -66 324 -162q47 -30 250 -206q138 -119 211 -119h73v-247z" />
    <glyph glyph-name="uniFBA4" unicode="&#x6c0;" horiz-adv-x="700" arabic-form="isolated" 
d="M616 386q0 -142 -55 -280q-86 -74 -221 -74q-163 0 -266 105q0 222 129 404l-52 22l73 222q163 -44 244 -103q148 -106 148 -296zM527 302q0 74 -85 142q-72 58 -151 75q-76 -125 -96 -209q66 -68 180 -68q102 0 152 60zM506 1118v-2q0 -10 -10 -42q-11 -36 -18 -37
q-41 -8 -80 -14q-99 -27 -207 -94q2 32 5 63q22 19 93 54q-77 39 -77 90q0 40 59.5 94.5t100.5 54.5q57 0 112 -52l-58 -56q-34 32 -65 32q-20 0 -50 -15q-32 -17 -32 -36q0 -21 36 -47t58 -26q3 1 45 14q49 14 88 19z" />
    <glyph glyph-name="uniFBA5" unicode="&#x6c0;" horiz-adv-x="900" arabic-form="final" 
d="M917 32h-150q-157 0 -214 261q-28 -106 -81 -178q-283 0 -375 127q37 138 65 216q110 98 315 175q-7 34 -31 97l107 160q48 -69 72 -238q33 -223 42 -254q34 -119 113 -119h137v-247zM545 328l-39 200q-139 -29 -260 -138q54 -66 221 -66q42 0 78 4zM506 1118v-2
q0 -10 -10 -42q-11 -36 -18 -37q-41 -8 -80 -14q-99 -27 -207 -94q2 32 5 63q22 19 93 54q-77 39 -77 90q0 40 59.5 94.5t100.5 54.5q57 0 112 -52l-58 -56q-34 32 -65 32q-20 0 -50 -15q-32 -17 -32 -36q0 -21 36 -47t58 -26q3 1 45 14q49 14 88 19z" />
    <glyph glyph-name="uniFBAA" unicode="&#x6be;" horiz-adv-x="1400" arabic-form="isolated" 
d="M1213 322q-31 46 -178 165q2 -19 2 -39q0 -111 -65 -146q136 -51 201 -68q34 28 40 88zM926 534q-28 6 -52 6q-90 0 -141 -97q41 -71 136 -100q77 48 77 117q0 35 -20 74zM667 278q-95 66 -95 136q0 119 242 202l-105 62l21 254q107 -66 215 -144q240 -175 360 -322
q2 -32 2 -63q0 -123 -49 -230q-34 -73 -74 -109q-184 24 -340 92q-202 -125 -302 -125h-242q-151 2 -197 63q-32 41 -95 275h57q32 -61 102 -81q44 -12 136 -12z" />
    <glyph glyph-name="uniFBAB" unicode="&#x6be;" horiz-adv-x="1399" arabic-form="final" 
d="M925 330q-34 152 -131 207q-57 -68 -57 -199q0 -28 3 -57q118 0 185 49zM639 279q-8 45 -8 96q0 105 33 221q43 147 112 186q232 -71 259 -586q-79 -83 -230 -116q19 -55 71.5 -107.5t107.5 -78.5q11 70 46 148q37 85 82 129q110 108 250 108h55v-247h-46q-86 0 -160 -21
q-99 -27 -129 -80q48 -104 185 -156l-79 -257q-432 151 -522 530q-56 -16 -130 -16q-191 1 -228 1q-159 0 -205 61q-32 41 -95 275h57q32 -61 102 -81q38 -10 103 -10h23z" />
    <glyph glyph-name="uniFBAC" unicode="&#x6be;" horiz-adv-x="901" arabic-form="initial" 
d="M811 467q3 -32 3 -63q0 -124 -50 -230q-34 -73 -73 -109q-184 24 -341 92q-201 -125 -301 -125h-55v246h180q-95 67 -95 136q0 120 242 203l-106 62l22 254q106 -66 214 -144q241 -175 360 -322zM719 323q-30 45 -178 165q3 -20 3 -39q0 -111 -66 -146q136 -52 202 -69
q34 28 39 89zM432 535q-28 5 -51 5q-91 0 -141 -96q40 -71 136 -100q76 48 76 117q0 34 -20 74z" />
    <glyph glyph-name="uniFBAD" unicode="&#x6be;" horiz-adv-x="900" arabic-form="medial" 
d="M924 32h-46q-85 0 -159 -21q-99 -27 -130 -81q49 -104 186 -156l-80 -257q-432 152 -522 531q-55 -16 -129 -16h-74v247h176q-8 46 -8 96q0 105 34 221q42 147 111 186q232 -70 259 -586q-79 -83 -230 -116q20 -55 72 -108t107 -78q11 69 46 148q38 86 83 130
q110 107 249 107h55v-247zM433 330q-35 152 -132 207q-56 -67 -56 -199q0 -28 2 -57q118 0 186 49z" />
    <glyph glyph-name="uniFBD3" unicode="&#x6ad;" horiz-adv-x="1255" arabic-form="isolated" 
d="M821 34q-261 -2 -312 -2q-269 0 -363 38q-137 55 -137 232q0 159 111 333h9q34 0 45 -30q-52 -85 -52 -164q0 -114 129 -145q72 -18 303 -18h326q80 0 118 57v192q0 121 -27 280q-29 176 -73 276l168 146l129 -263h-63v-632q-19 -119 -78 -201q-72 -102 -179 -102h-54v3z
M844 1048l-133 -125l-131 132l137 122zM515 1031l-133 -126l-131 133l136 121zM664 1248l-133 -126l-130 132l135 122zM727 822l-48 -59q-36 10 -74 12q-85 -4 -92 -47q5 -17 33 -27q69 -16 144 -33q54 -17 59 -70q-4 -84 -85 -121q-80 -36 -190 -36h-133q12 51 59 74h121
q43 0 80 9.5t40 28.5q-4 21 -15 21h-3q-66 7 -149 20q-68 17 -74 85q3 62 76.5 120.5t172.5 61.5q61 0 78 -27q2 -2 2 -5t-2 -7z" />
    <glyph glyph-name="uniFBD4" unicode="&#x6ad;" horiz-adv-x="1300" arabic-form="final" 
d="M848 34q-283 -2 -339 -2q-269 0 -363 38q-137 55 -137 232q0 159 111 333h9q34 0 45 -30q-52 -85 -52 -164q0 -114 129 -145q72 -18 303 -18h336q89 0 122 37v288q0 286 -71 449l165 173q32 -52 43 -127q12 -82 12 -285v-266q0 -153 18 -205q22 -64 94 -64h47v-246h-55
q-136 0 -171 161q-39 -161 -192 -161h-54v2zM844 1048l-133 -125l-131 132l137 122zM515 1031l-133 -126l-131 133l136 121zM664 1248l-133 -126l-130 132l135 122zM727 822l-48 -59q-36 10 -74 12q-85 -4 -92 -47q5 -17 33 -27q69 -16 144 -33q54 -17 59 -70
q-4 -84 -85 -121q-80 -36 -190 -36h-133q12 51 59 74h121q43 0 80 9.5t40 28.5q-4 21 -15 21h-3q-66 7 -149 20q-68 17 -74 85q3 62 76.5 120.5t172.5 61.5q61 0 78 -27q2 -2 2 -5t-2 -7z" />
    <glyph glyph-name="uniFBD5" unicode="&#x6ad;" horiz-adv-x="599" arabic-form="initial" 
d="M775 1093l-94 -231q-310 -19 -574 -95q138 -42 213 -86q85 -48 152 -129q4 -29 4 -74q0 -44 -4 -103q-8 -116 -20 -172q-66 -79 -183 -126q-111 -45 -219 -45h-59v246h108q212 0 295 79q-114 174 -363 234q9 178 37 329q398 141 707 173zM628 1201l-120 -113l-118 119
l124 110zM379 1204l-120 -113l-118 119l123 110zM506 1373l-120 -113l-118 119l122 110z" />
    <glyph glyph-name="uniFBD6" unicode="&#x6ad;" horiz-adv-x="999" arabic-form="medial" 
d="M1016 32h-55q-95 0 -231 135q-51 51 -204 208q8 -42 8 -83q0 -39 -8 -77q-139 -183 -419 -183h-119v247h146q129 0 196 17q56 14 122 58q-48 86 -156 152q-95 57 -205 82q11 182 38 326q426 150 743 173l-87 -216q-312 -20 -607 -105q170 -66 324 -162q47 -30 250 -206
q138 -119 211 -119h53v-247zM688 1201l-120 -113l-118 119l124 110zM439 1204l-120 -113l-118 119l123 110zM566 1373l-120 -113l-118 119l122 110z" />
    <glyph glyph-name="uniFBD7" unicode="&#x6c7;" horiz-adv-x="700" arabic-form="isolated" 
d="M605 154q0 -318 -273 -639q-75 0 -181 34q-101 32 -167 76q189 77 304 167q135 106 220 265q-76 -28 -157 -28q-149 0 -251 87q0 203 87 343q59 94 135 135q107 0 186 -98q97 -120 97 -342zM470 246q-25 55 -67 99q-51 55 -100 55q-26 0 -55 -45q-25 -38 -32 -69
q10 -29 71 -46q45 -13 89 -13q57 0 94 19zM501 899q-5 -62 -62 -121.5t-132 -79.5q-26 8 -26 24q0 4 2 7q118 60 118 158v8q-28 -8 -52 -8q-76 0 -82 83v5q0 72 102 90q129 -11 132 -166z" />
    <glyph glyph-name="uniFBD8" unicode="&#x6c7;" horiz-adv-x="700" arabic-form="final" 
d="M712 33h-116q-38 -253 -264 -517q-75 0 -181 34q-101 32 -167 76q213 86 328 182q102 85 176 225q-297 0 -388 84q0 203 87 343q59 94 135 135q89 0 162 -71q88 -86 112 -245h116v-246zM470 247q-25 55 -67 99q-51 55 -100 55q-26 0 -55 -45q-25 -38 -32 -69
q10 -29 71 -47q45 -12 89 -12q57 0 94 19zM501 899q-5 -62 -62 -121.5t-132 -79.5q-26 8 -26 24q0 4 2 7q118 60 118 158v8q-28 -8 -52 -8q-76 0 -82 83v5q0 72 102 90q129 -11 132 -166z" />
    <glyph glyph-name="uniFBD9" unicode="&#x6c6;" horiz-adv-x="700" arabic-form="isolated" 
d="M605 154q0 -318 -273 -639q-75 0 -181 34q-101 32 -167 76q189 77 304 167q135 106 220 265q-76 -28 -157 -28q-149 0 -251 87q0 203 87 343q59 94 135 135q107 0 186 -98q97 -120 97 -342zM470 246q-25 55 -67 99q-51 55 -100 55q-26 0 -55 -45q-25 -38 -32 -69
q10 -29 71 -46q45 -13 89 -13q57 0 94 19zM347 931l174 173v-144l-174 -171l-169 170v144z" />
    <glyph glyph-name="uniFBDA" unicode="&#x6c6;" horiz-adv-x="700" arabic-form="final" 
d="M712 33h-116q-38 -253 -264 -517q-75 0 -181 34q-101 32 -167 76q213 86 328 182q102 85 176 225q-297 0 -388 84q0 203 87 343q59 94 135 135q89 0 162 -71q88 -86 112 -245h116v-246zM470 247q-25 55 -67 99q-51 55 -100 55q-26 0 -55 -45q-25 -38 -32 -69
q10 -29 71 -47q45 -12 89 -12q57 0 94 19zM347 931l174 173v-144l-174 -171l-169 170v144z" />
    <glyph glyph-name="uniFBDB" unicode="&#x6c8;" horiz-adv-x="700" arabic-form="isolated" 
d="M605 154q0 -318 -273 -639q-75 0 -181 34q-101 32 -167 76q189 77 304 167q135 106 220 265q-76 -28 -157 -28q-149 0 -251 87q0 203 87 343q59 94 135 135q107 0 186 -98q97 -120 97 -342zM470 246q-25 55 -67 99q-51 55 -100 55q-26 0 -55 -45q-25 -38 -32 -69
q10 -29 71 -46q45 -13 89 -13q57 0 94 19zM300 1054l95 99v-352l-95 -99v352z" />
    <glyph glyph-name="uniFBDC" unicode="&#x6c8;" horiz-adv-x="700" arabic-form="final" 
d="M712 33h-116q-38 -253 -264 -517q-75 0 -181 34q-101 32 -167 76q213 86 328 182q102 85 176 225q-297 0 -388 84q0 203 87 343q59 94 135 135q89 0 162 -71q88 -86 112 -245h116v-246zM470 247q-25 55 -67 99q-51 55 -100 55q-26 0 -55 -45q-25 -38 -32 -69
q10 -29 71 -47q45 -12 89 -12q57 0 94 19zM300 1054l95 99v-352l-95 -99v352z" />
    <glyph glyph-name="uniFBDD" unicode="&#x677;" horiz-adv-x="1100" arabic-form="isolated" 
d="M605 154q0 -318 -273 -639q-75 0 -181 34q-101 32 -167 76q189 77 304 167q135 106 220 265q-76 -28 -157 -28q-149 0 -251 87q0 203 87 343q59 94 135 135q107 0 186 -98q97 -120 97 -342zM470 246q-25 55 -67 99q-51 55 -100 55q-26 0 -55 -45q-25 -38 -32 -69
q10 -29 71 -46q45 -13 89 -13q57 0 94 19zM501 899q-5 -62 -62 -121.5t-132 -79.5q-26 8 -26 24q0 4 2 7q118 60 118 158v8q-28 -8 -52 -8q-76 0 -82 83v5q0 72 102 90q129 -11 132 -166zM1086 888l1 -10q0 -32 -24 -117q-179 -29 -425 -145v94q24 15 112 64q-87 45 -87 124
q0 53 87 140q91 93 164 93q54 0 139 -56l-84 -106q-65 38 -97 38q-63 0 -114 -61q46 -102 148 -102q17 0 65 14q65 19 115 30z" />
    <glyph glyph-name="uniFBDE" unicode="&#x6cb;" horiz-adv-x="700" arabic-form="isolated" 
d="M605 154q0 -318 -273 -639q-75 0 -181 34q-101 32 -167 76q189 77 304 167q135 106 220 265q-76 -28 -157 -28q-149 0 -251 87q0 203 87 343q59 94 135 135q107 0 186 -98q97 -120 97 -342zM470 246q-25 55 -67 99q-51 55 -100 55q-26 0 -55 -45q-25 -38 -32 -69
q10 -29 71 -46q45 -13 89 -13q57 0 94 19zM574 842l-124 -125l-126 111l-115 -116l-133 116l125 127l126 -113l115 118zM452 1057l-133 -126l-130 132l135 122z" />
    <glyph glyph-name="uniFBDF" unicode="&#x6cb;" horiz-adv-x="700" arabic-form="final" 
d="M712 33h-116q-38 -253 -264 -517q-75 0 -181 34q-101 32 -167 76q213 86 328 182q102 85 176 225q-297 0 -388 84q0 203 87 343q59 94 135 135q89 0 162 -71q88 -86 112 -245h116v-246zM470 247q-25 55 -67 99q-51 55 -100 55q-26 0 -55 -45q-25 -38 -32 -69
q10 -29 71 -47q45 -12 89 -12q57 0 94 19zM574 842l-124 -125l-126 111l-115 -116l-133 116l125 127l126 -113l115 118zM452 1057l-133 -126l-130 132l135 122z" />
    <glyph glyph-name="uniFBE0" unicode="&#x6c5;" horiz-adv-x="700" arabic-form="isolated" 
d="M489 246q-26 55 -67 99q-51 55 -101 55q-25 0 -55 -45q-25 -38 -31 -69q10 -29 71 -46q45 -13 89 -13q57 0 94 19zM141 -233q-57 -23 -57 -70q0 -11 3 -24q15 -35 81 -40q101 17 169 62q44 25 72 50q-79 42 -171 45q-57 -1 -97 -23zM525 -50h-1q0 102 2 107
q-75 -28 -156 -28q-150 0 -251 87q0 203 87 343q59 94 134 135q107 0 186 -98q98 -120 98 -342v-204h-3q0 -4 -1 -8h2q-2 -135 -42 -218q-55 -114 -151.5 -169t-188.5 -55h-5q-155 0 -238 110q-34 45 -34 101q0 34 18 76q43 90 157 99q19 3 41 3q28 0 61 -5q106 -16 225 -90
q51 52 60 144v12z" />
    <glyph glyph-name="uniFBE1" unicode="&#x6c5;" horiz-adv-x="700" arabic-form="final" 
d="M489 246q-26 55 -67 99q-51 55 -101 55q-25 0 -55 -45q-25 -38 -31 -69q10 -29 71 -46q45 -13 89 -13q57 0 94 19zM141 -233q-57 -23 -57 -70q0 -11 3 -24q15 -35 81 -40q101 17 169 62q44 25 72 50q-79 42 -171 45q-57 -1 -97 -23zM624 33v-83h-3q0 -4 -1 -8h2
q-2 -135 -42 -218q-55 -114 -151.5 -169t-188.5 -55h-5q-155 0 -238 110q-34 45 -34 101q0 34 18 76q43 90 157 99q19 3 41 3q28 0 61 -5q106 -16 225 -90q51 52 60 144v12h-1q0 102 2 107q-75 -28 -156 -28q-150 0 -251 87q0 203 87 343q59 94 134 135q107 0 186 -98
q68 -84 89 -217h116v-246h-107z" />
    <glyph glyph-name="uniFBE2" unicode="&#x6c9;" horiz-adv-x="700" arabic-form="isolated" 
d="M605 154q0 -318 -273 -639q-75 0 -181 34q-101 32 -167 76q189 77 304 167q135 106 220 265q-76 -28 -157 -28q-149 0 -251 87q0 203 87 343q59 94 135 135q107 0 186 -98q97 -120 97 -342zM470 246q-25 55 -67 99q-51 55 -100 55q-26 0 -55 -45q-25 -38 -32 -69
q10 -29 71 -46q45 -13 89 -13q57 0 94 19zM178 790v144l169 170l174 -171v-144l-174 173z" />
    <glyph glyph-name="uniFBE3" unicode="&#x6c9;" horiz-adv-x="700" arabic-form="final" 
d="M712 33h-116q-38 -253 -264 -517q-75 0 -181 34q-101 32 -167 76q213 86 328 182q102 85 176 225q-297 0 -388 84q0 203 87 343q59 94 135 135q89 0 162 -71q88 -86 112 -245h116v-246zM470 247q-25 55 -67 99q-51 55 -100 55q-26 0 -55 -45q-25 -38 -32 -69
q10 -29 71 -47q45 -12 89 -12q57 0 94 19zM178 790v144l169 170l174 -171v-144l-174 173z" />
    <glyph glyph-name="uniFBE4" unicode="&#x6d0;" horiz-adv-x="1252" arabic-form="isolated" 
d="M1194 720l-109 -241q-51 19 -96 19q-151 0 -243 -219q4 -32 101 -60l177 -50q94 -37 94 -91q0 -127 -76 -333q-330 -196 -676 -196q-160 0 -252 73q-100 80 -100 236q0 100 49 241q40 119 94 210h9q39 0 59 -32q-72 -134 -72 -266q0 -218 285 -218q118 0 293 42
q189 45 279 102q-75 53 -230 87q-126 28 -166 87q0 49 37 180q129 459 403 459q66 0 140 -30zM704 -598l-139 98l147 95l140 -99l-137 -90l137 -96l-145 -96l-142 99z" />
    <glyph glyph-name="uniFBE5" unicode="&#x6d0;" horiz-adv-x="1101" arabic-form="final" 
d="M1132 32h-54q-39 0 -116.5 23t-117.5 23q-71 0 -98 -41q29 -21 170 -54q29 -9 65 -30q48 -27 48 -49q0 -36 -29 -112q-27 -72 -55 -104q-370 -96 -608 -96q-100 0 -195 47q-140 49 -140 170q0 185 162 401q38 0 58 -29q-27 -46 -50 -120q-23 -68 -23 -108
q0 -162 299 -162q251 0 475 35q-48 27 -168 54q-98 31 -115 68q33 138 74 214q69 132 187 132q29 0 86.5 -7.5t86.5 -7.5h58v-247zM497 -597l-140 98l147 94l140 -98l-136 -90l136 -96l-145 -97l-142 100z" />
    <glyph glyph-name="uniFBE6" unicode="&#x6d0;" horiz-adv-x="460" arabic-form="initial" 
d="M398 418q-31 -191 -86 -259q-102 -127 -284 -127h-58v247h94q195 0 195 58q0 41 -102 178l139 189q102 -136 102 -286zM370 -190l-145 -137l-142 142l147 135zM370 -486l-145 -137l-142 143l148 134z" />
    <glyph glyph-name="uniFBE7" unicode="&#x6d0;" horiz-adv-x="499" arabic-form="medial" 
d="M519 32h-64q-73 0 -136 64q-58 59 -73 134q-10 -69 -76 -132q-69 -66 -137 -66h-63v247h54q91 0 143 81q42 65 42 148h77q0 -96 40 -157q47 -72 139 -72h54v-247zM390 -190l-145 -137l-142 142l147 135zM390 -486l-145 -137l-142 143l148 134z" />
    <glyph glyph-name="uniFBE8" unicode="&#x649;" horiz-adv-x="499" arabic-form="initial" 
d="M408 418q-31 -191 -86 -259q-102 -127 -284 -127h-48v247h84q195 0 195 58q0 41 -102 178l139 189q102 -136 102 -286z" />
    <glyph glyph-name="uniFBE9" unicode="&#x649;" horiz-adv-x="499" arabic-form="medial" 
d="M519 32h-64q-73 0 -136 64q-58 59 -73 134q-10 -69 -76 -132q-69 -66 -137 -66h-53v247h44q91 0 143 81q42 65 42 148h77q0 -96 40 -157q47 -72 139 -72h54v-247z" />
    <glyph glyph-name="uniFBFC" unicode="&#x6cc;" horiz-adv-x="1252" arabic-form="isolated" 
d="M1194 720l-109 -241q-51 19 -96 19q-151 0 -243 -218q4 -33 101 -61l177 -50q94 -37 94 -91q0 -127 -76 -333q-330 -196 -676 -196q-160 0 -252 73q-100 80 -100 236q0 100 49 242q40 118 94 209h9q39 0 59 -32q-72 -134 -72 -266q0 -217 285 -217q118 0 293 41
q189 45 279 102q-75 53 -230 87q-126 28 -166 87q0 49 37 180q129 459 403 459q66 0 140 -30z" />
    <glyph glyph-name="uniFBFD" unicode="&#x6cc;" horiz-adv-x="1101" arabic-form="final" 
d="M1122 32h-44q-39 0 -116.5 23t-117.5 23q-71 0 -98 -51q29 -21 170 -64q29 -9 65 -30q48 -27 48 -49q0 -46 -29 -132q-27 -82 -55 -124q-370 -116 -608 -116q-100 0 -195 47q-140 69 -140 210q0 205 162 441q38 0 58 -29q-27 -46 -50 -120q-23 -78 -23 -128
q0 -182 299 -182q251 0 475 35q-48 37 -168 74q-98 31 -115 68q33 158 74 234q69 132 187 132q29 0 86.5 -7.5t86.5 -7.5h48v-247z" />
    <glyph glyph-name="uniFBFE" unicode="&#x6cc;" horiz-adv-x="599" arabic-form="initial" 
d="M526 418q-32 -191 -87 -259q-101 -127 -284 -127h-165v247h201q195 0 195 58q0 41 -102 178l139 189q103 -136 103 -286zM524 -210l-125 -124l-126 111l-115 -117l-132 117l124 126l126 -112l115 118z" />
    <glyph glyph-name="uniFBFF" unicode="&#x6cc;" horiz-adv-x="501" arabic-form="medial" 
d="M498 -210l-125 -124l-126 111l-115 -117l-132 117l124 126l126 -112l115 118zM519 32h-64q-73 0 -136 64q-58 59 -73 134q-10 -69 -76 -132q-69 -66 -137 -66h-53v247h44q91 0 143 81q42 65 42 148h77q0 -96 40 -157q47 -72 139 -72h54v-247z" />
    <glyph glyph-name="uniFC5E" unicode="&#xfc5e;" horiz-adv-x="0" arabic-form="isolated" 
d="M474 1724q0 -40 -12.5 -75t-35.5 -71q16 -11 25 -24t9 -26q0 -51 -7 -96l-93 73q-50 -58 -112 -90q-76 -39 -170 -39q43 71 47 80q13 29 13 56q0 25 -11 45.5t-30 20.5q-22 0 -42 -27q-7 -11 -29 -48q8 75 20 109q21 59 70 59q37 0 58 -35.5t21 -80.5q0 -24 -5 -46
q-7 -31 -11 -47q74 21 142 72q-18 17 -35 36q-28 31 -28 65q0 51 41 101q47 57 104 57q30 0 50.5 -20.5t20.5 -48.5zM396 1660q0 25 -12.5 45t-34.5 20q-23 0 -23 -29q0 -20 19 -41q5 -7 38 -35q13 19 13 40zM449 1298q0 -82 -27 -134q-32 -58 -87 -58q-19 0 -35.5 6.5
t-36.5 21.5q-23 -39 -42 -59q-35 -34 -73 -34q-45 0 -67.5 30.5t-22.5 84.5q0 28 7.5 55t21.5 61l23 10q0 -8 -2.5 -27.5t-2.5 -32.5q0 -23 10 -42.5t29 -19.5q46 0 75 61q12 28 32 109l23 6q8 -53 13 -65q14 -33 43 -33q42 0 65 54q20 43 20 90l22 6q5 -21 8.5 -46t3.5 -44
z" />
    <glyph glyph-name="uniFC5F" unicode="&#xfc5f;" horiz-adv-x="0" arabic-form="isolated" 
d="M431 1714q0 -82 -27 -134q-32 -58 -87 -58q-19 0 -35.5 6.5t-36.5 21.5q-23 -39 -42 -59q-35 -34 -73 -34q-45 0 -67.5 30.5t-22.5 84.5q0 28 7.5 55t21.5 61l23 10q0 -8 -2.5 -27.5t-2.5 -32.5q0 -23 10 -42.5t29 -19.5q46 0 75 61q12 28 32 109l23 6q8 -53 13 -65
q14 -33 43 -33q42 0 65 54q20 43 20 90l22 6q5 -21 8.5 -46t3.5 -44zM414 1457q0 -50 -54 -96q-98 -40 -314 -126q0 46 47 89q90 38 321 133zM414 1296q0 -52 -14 -64.5t-39 -33.5q-99 -41 -315 -127q0 46 47 89q90 39 321 136z" />
    <glyph glyph-name="uniFC60" unicode="&#xfc60;" horiz-adv-x="0" arabic-form="isolated" 
d="M426 1779q0 -50 -55 -99q-97 -37 -313 -124q0 47 47 90q90 38 321 133zM431 1500q0 -82 -27 -134q-32 -58 -87 -58q-19 0 -35.5 6.5t-36.5 21.5q-23 -39 -42 -59q-35 -34 -73 -34q-45 0 -67.5 30.5t-22.5 84.5q0 28 7.5 55t21.5 61l23 10q0 -8 -2.5 -27.5t-2.5 -32.5
q0 -23 10 -42.5t29 -19.5q46 0 75 61q12 28 32 109l23 6q8 -53 13 -65q14 -33 43 -33q42 0 65 54q20 43 20 90l22 6q5 -21 8.5 -46t3.5 -44z" />
    <glyph glyph-name="uniFC61" unicode="&#xfc61;" horiz-adv-x="0" arabic-form="isolated" 
d="M419 1553q0 -18 -3.5 -38t-6.5 -39l-89 54q-54 -59 -73 -79q-81 -77 -135 -77h-78q57 26 133 87q70 55 105 97q-33 21 -51 43q-21 29 -21 62q0 71 41.5 125t90.5 54q27 0 49.5 -29.5t22.5 -73.5q0 -20 -5.5 -42t-27.5 -82q18 -15 36 -28q12 -12 12 -34zM338 1675
q0 29 -20.5 53.5t-39.5 24.5q-11 0 -17 -7.5t-6 -14.5q0 -24 27 -50l47 -37q9 22 9 31zM429 1328q0 -82 -27 -134q-32 -58 -87 -58q-19 0 -35.5 6.5t-36.5 21.5q-23 -39 -42 -59q-35 -34 -73 -34q-45 0 -67.5 30.5t-22.5 84.5q0 28 7.5 55t21.5 61l23 10q0 -8 -2.5 -27.5
t-2.5 -32.5q0 -23 10 -42.5t29 -19.5q46 0 75 61q12 28 32 109l23 6q8 -53 13 -65q14 -33 43 -33q42 0 65 54q20 43 20 90l22 6q5 -21 8.5 -46t3.5 -44z" />
    <glyph glyph-name="uniFC62" unicode="&#xfc62;" horiz-adv-x="0" arabic-form="isolated" 
d="M431 1704q0 -82 -27 -134q-32 -58 -87 -58q-19 0 -35.5 6.5t-36.5 21.5q-23 -39 -42 -59q-35 -34 -73 -34q-45 0 -67.5 30.5t-22.5 84.5q0 28 7.5 55t21.5 61l23 10q0 -8 -2.5 -27.5t-2.5 -32.5q0 -23 10 -42.5t29 -19.5q46 0 75 61q12 28 32 109l23 6q8 -53 13 -65
q14 -33 43 -33q42 0 65 54q20 43 20 90l22 6q5 -21 8.5 -46t3.5 -44zM420 1466q0 -50 -55 -99q-97 -37 -313 -124q0 47 47 90q90 38 321 133z" />
    <glyph glyph-name="$FDF2" unicode="&#xfdf2;" horiz-adv-x="1888" arabic-form="isolated" 
d="M1064 1129q0 -11 -18.5 -38t-28.5 -27q-14 100 -44 173l71 59q20 -76 20 -167zM1201 1092v-23q0 -158 -91 -158q-41 0 -65 45q-42 -82 -99 -82q-78 0 -78 156h62q0 -75 30 -75q51 0 51 86h59q0 -59 38 -59q37 0 37 110h56zM1446 379q0 -116 -65 -220q-78 -126 -205 -126
q-131 0 -191 157q-108 -184 -271 -184q-180 0 -209 277q-30 -51 -49 -79q-39 -58 -59 -61q-253 0 -326 145q5 30 32 97t45 93q34 33 149 77q103 40 202 63v100l121 84q15 -53 15 -126q0 -38 -5 -113t-5 -113q0 -89 16 -132q26 -68 101 -68q47 0 108 29q71 33 71 76v29
q0 268 -18 360l165 94v-369q0 -90 15 -128q24 -63 100 -63q42 0 88 21q53 26 53 59v4q-11 146 -56 551l149 153q29 -314 29 -687zM509 337v180q-189 -19 -296 -120q24 -22 85 -40q75 -22 160 -22q25 0 51 2zM1749 1272q24 -115 24 -330q0 -355 -65 -777l-91 -137l-1 339
q0 471 -80 720z" />
    <glyph glyph-name="uniFE80" unicode="&#x621;" horiz-adv-x="676" arabic-form="isolated" 
d="M600 337l1 -12q0 -37 -28 -136q-208 -34 -495 -169v110q28 17 131 74q-102 53 -102 144q0 62 101 164q106 108 192 108q62 0 161 -65l-98 -124q-75 45 -113 45q-73 0 -132 -72q53 -118 172 -118q20 0 76 16q76 22 134 35z" />
    <glyph glyph-name="uniFE81" unicode="&#x622;" horiz-adv-x="400" arabic-form="isolated" 
d="M415 1447q0 -35 -95 -69q-76 -29 -125 -33q-76 -5 -131 -6q-13 -19 -26 -68q-8 -33 -21 -33q-58 0 -58 17q0 55 14 120q21 92 55 92q19 0 56.5 -9.5t57.5 -9.5q122 0 269 75q4 -16 4 -76zM295 1226q24 -115 24 -330q0 -355 -65 -777l-91 -137l-1 339q0 471 -80 720z" />
    <glyph glyph-name="uniFE82" unicode="&#x622;" horiz-adv-x="501" arabic-form="final" 
d="M521 32h-75q-172 0 -224 142q-35 97 -47 430q-6 164 -14 228q-15 125 -57 221l164 173q42 -66 52 -203q3 -49 3 -210v-265q0 -119 17 -173q31 -96 123 -96h58v-247zM415 1447q0 -35 -95 -69q-76 -29 -125 -33q-76 -5 -131 -6q-13 -19 -26 -68q-8 -33 -21 -33
q-58 0 -58 17q0 55 14 120q21 92 55 92q19 0 56.5 -9.5t57.5 -9.5q122 0 269 75q4 -16 4 -76z" />
    <glyph glyph-name="uniFE83" unicode="&#x623;" horiz-adv-x="400" arabic-form="isolated" 
d="M382 1367v-5q0 -13 -10 -49q-15 -41 -23 -43q-50 -7 -95 -17q-105 -24 -246 -111q2 37 6 75q26 22 110 63q-91 47 -91 107q0 47 70.5 112t119.5 65q67 0 133 -62l-69 -66q-42 39 -77 39q-24 0 -59 -19q-40 -20 -40 -43q0 -25 43 -55.5t70 -30.5q53 16 158 40zM298 1146
q23 -115 23 -330q0 -275 -64 -697l-91 -137l-1 339q0 391 -80 640z" />
    <glyph glyph-name="uniFE84" unicode="&#x623;" horiz-adv-x="501" arabic-form="final" 
d="M522 32h-85q-172 0 -224 142q-35 97 -47 429q-5 99 -13 161q-16 123 -58 221l165 173q42 -68 52 -203q3 -37 3 -210v-197q0 -119 17 -173q31 -97 122 -97h68v-246zM382 1367v-5q0 -13 -10 -49q-15 -41 -23 -43q-50 -7 -95 -17q-105 -24 -246 -111q2 37 6 75q26 22 110 63
q-91 47 -91 107q0 47 70.5 112t119.5 65q67 0 133 -62l-69 -66q-42 39 -77 39q-24 0 -59 -19q-40 -20 -40 -43q0 -25 43 -55.5t70 -30.5q53 16 158 40z" />
    <glyph glyph-name="uniFE85" unicode="&#x624;" horiz-adv-x="700" arabic-form="isolated" 
d="M608 154q0 -318 -273 -639q-75 0 -181 34q-101 33 -167 77q189 77 304 167q135 105 220 264q-76 -28 -157 -28q-149 0 -251 88q0 202 87 343q59 93 135 135q107 0 186 -99q97 -119 97 -342zM473 246q-25 55 -67 99q-51 55 -100 55q-26 0 -55 -45q-25 -38 -32 -68
q10 -30 71 -47q45 -13 89 -13q57 0 94 19zM454 880v-5q0 -13 -10 -49q-15 -41 -23 -43q-50 -7 -95 -17q-105 -24 -246 -111q2 37 6 75q26 22 110 63q-91 47 -91 107q0 47 70.5 112t119.5 65q67 0 133 -62l-69 -66q-42 39 -77 39q-24 0 -59 -19q-40 -20 -40 -43
q0 -25 43 -55.5t70 -30.5q53 16 158 40z" />
    <glyph glyph-name="uniFE86" unicode="&#x624;" horiz-adv-x="700" arabic-form="final" 
d="M729 32h-136q-38 -253 -264 -517q-75 0 -181 34q-101 32 -167 76q213 86 328 182q102 85 176 225q-297 0 -388 84q0 203 87 343q59 94 135 135q89 0 162 -71q88 -85 112 -245h136v-246zM467 246q-25 55 -67 99q-51 55 -100 55q-26 0 -55 -45q-25 -38 -32 -69
q10 -29 71 -46q45 -13 89 -13q57 0 94 19zM454 880v-5q0 -13 -10 -49q-15 -41 -23 -43q-50 -7 -95 -17q-105 -24 -246 -111q2 37 6 75q26 22 110 63q-91 47 -91 107q0 47 70.5 112t119.5 65q67 0 133 -62l-69 -66q-42 39 -77 39q-24 0 -59 -19q-40 -20 -40 -43
q0 -25 43 -55.5t70 -30.5q53 16 158 40z" />
    <glyph glyph-name="uniFE87" unicode="&#x625;" horiz-adv-x="400" arabic-form="isolated" 
d="M292 1226q23 -115 23 -330q0 -355 -65 -777l-90 -136l-1 338q0 472 -80 720zM387 -298v-5q0 -13 -10 -49q-15 -41 -23 -43q-50 -7 -95 -17q-105 -24 -246 -111q2 37 6 75q26 22 110 63q-91 47 -91 107q0 47 70.5 112t119.5 65q67 0 133 -62l-69 -66q-42 39 -77 39
q-24 0 -59 -19q-40 -20 -40 -43q0 -25 43 -55.5t70 -30.5q53 16 158 40z" />
    <glyph glyph-name="uniFE88" unicode="&#x625;" horiz-adv-x="501" arabic-form="final" 
d="M517 32h-85q-172 0 -224 143q-35 97 -47 429q-5 166 -13 228q-16 123 -58 221l165 173q41 -66 51 -203q4 -49 4 -209v-266q0 -119 17 -173q30 -96 122 -96h68v-247zM387 -298v-5q0 -13 -10 -49q-15 -41 -23 -43q-50 -7 -95 -17q-105 -24 -246 -111q2 37 6 75
q26 22 110 63q-91 47 -91 107q0 47 70.5 112t119.5 65q67 0 133 -62l-69 -66q-42 39 -77 39q-24 0 -59 -19q-40 -20 -40 -43q0 -25 43 -55.5t70 -30.5q53 16 158 40z" />
    <glyph glyph-name="uniFE89" unicode="&#x626;" horiz-adv-x="1252" arabic-form="isolated" 
d="M1194 720l-109 -241q-51 19 -96 19q-151 0 -243 -218q4 -33 101 -61l177 -50q94 -37 94 -91q0 -127 -76 -333q-330 -196 -676 -196q-160 0 -252 73q-100 80 -100 236q0 100 49 242q40 118 94 209h9q39 0 59 -32q-72 -134 -72 -266q0 -217 285 -217q118 0 293 41
q189 45 279 102q-75 53 -230 87q-126 28 -166 87q0 49 37 180q129 459 403 459q66 0 140 -30zM650 662l1 -10q0 -32 -24 -117q-179 -29 -425 -145v94q24 15 112 64q-87 45 -87 124q0 53 87 140q91 93 164 93q54 0 139 -56l-84 -106q-65 38 -97 38q-63 0 -114 -61
q46 -102 148 -102q17 0 65 14q65 19 115 30z" />
    <glyph glyph-name="uniFE8A" unicode="&#x626;" horiz-adv-x="1101" arabic-form="final" 
d="M1122 32h-44q-39 0 -116.5 23t-117.5 23q-71 0 -98 -51q29 -21 170 -64q29 -9 65 -30q48 -27 48 -49q0 -46 -29 -132q-27 -82 -55 -124q-370 -116 -608 -116q-100 0 -195 47q-140 69 -140 210q0 205 162 441q38 0 58 -29q-27 -46 -50 -120q-23 -78 -23 -128
q0 -182 299 -182q251 0 475 35q-48 37 -168 74q-98 31 -115 68q33 158 74 234q69 132 187 132q29 0 86.5 -7.5t86.5 -7.5h48v-247zM650 662l1 -10q0 -32 -24 -117q-179 -29 -425 -145v94q24 15 112 64q-87 45 -87 124q0 53 87 140q91 93 164 93q54 0 139 -56l-84 -106
q-65 38 -97 38q-63 0 -114 -61q46 -102 148 -102q17 0 65 14q65 19 115 30z" />
    <glyph glyph-name="uniFE8B" unicode="&#x626;" horiz-adv-x="599" arabic-form="initial" 
d="M526 418q-31 -191 -86 -259q-102 -127 -284 -127h-168v246h204q195 0 195 59q0 40 -102 178l139 189q102 -137 102 -286zM471 958l1 -10q0 -32 -24 -117q-179 -29 -425 -145v94q24 15 112 64q-87 45 -87 124q0 53 87 140q91 93 164 93q54 0 139 -56l-84 -106
q-65 38 -97 38q-63 0 -114 -61q46 -102 148 -102q17 0 65 14q65 19 115 30z" />
    <glyph glyph-name="uniFE8C" unicode="&#x626;" horiz-adv-x="501" arabic-form="medial" 
d="M534 33h-64q-73 0 -136 63q-58 60 -73 135q-10 -70 -76 -133q-69 -65 -137 -65h-63v246h54q91 0 143 81q42 66 42 149h77q0 -97 40 -158q47 -72 139 -72h54v-246zM481 958l1 -10q0 -32 -24 -117q-179 -29 -425 -145v94q24 15 112 64q-87 45 -87 124q0 53 87 140
q91 93 164 93q54 0 139 -56l-84 -106q-65 38 -97 38q-63 0 -114 -61q46 -102 148 -102q17 0 65 14q65 19 115 30z" />
    <glyph glyph-name="uniFE8D" unicode="&#x627;" horiz-adv-x="400" arabic-form="isolated" 
d="M293 1227q24 -115 24 -330q0 -355 -65 -777l-91 -137l-1 339q0 471 -80 720z" />
    <glyph glyph-name="uniFE8E" unicode="&#x627;" horiz-adv-x="501" arabic-form="final" 
d="M517 32h-84q-172 0 -224 142q-35 97 -47 430q-5 164 -13 228q-16 124 -58 221l165 172q41 -65 51 -202q4 -50 4 -210v-265q0 -119 17 -173q30 -96 122 -96h67v-247z" />
    <glyph glyph-name="uniFE8F" unicode="&#x628;" horiz-adv-x="1360" arabic-form="isolated" 
d="M1303 456q0 -42 -51.5 -152t-83.5 -136q-40 -31 -248 -79q-247 -57 -458 -57q-282 0 -388 111q-68 70 -68 208q0 187 107 353h10q40 0 55 -30q-55 -130 -55 -198q0 -199 428 -199q389 0 610 93q-38 98 -99 180l137 185q41 -51 74 -148q30 -87 30 -131zM771 -257
l-145 -136l-142 142l148 135z" />
    <glyph glyph-name="uniFE90" unicode="&#x628;" horiz-adv-x="1400" arabic-form="final" 
d="M1430 32h-71q-92 0 -152 51q-65 53 -68 143q-263 -194 -686 -194q-202 0 -306 57q-137 76 -137 260q0 205 108 356q5 1 11 1q36 0 52 -32q-54 -128 -54 -204q0 -101 123 -151q99 -41 254 -41t308 27q201 35 287 103q54 41 83 125q6 4 16 4q8 0 20 -3q25 -7 35 -19
q-20 -65 -20 -113q0 -123 142 -123h55v-247zM775 -256l-145 -137l-143 142l148 135z" />
    <glyph glyph-name="uniFE91" unicode="&#x628;" horiz-adv-x="454" arabic-form="initial" 
d="M398 418q-31 -191 -86 -259q-102 -127 -284 -127h-58v247h94q195 0 195 58q0 41 -102 178l139 189q102 -136 102 -286zM390 -257l-145 -136l-142 142l148 135z" />
    <glyph glyph-name="uniFE92" unicode="&#x628;" horiz-adv-x="501" arabic-form="medial" 
d="M519 32h-64q-73 0 -136 64q-58 59 -73 134q-10 -69 -76 -132q-69 -66 -137 -66h-63v247h54q91 0 143 81q42 65 42 148h77q0 -96 40 -157q47 -72 139 -72h54v-247zM358 -257l-145 -136l-142 142l147 135z" />
    <glyph glyph-name="uniFE93" unicode="&#x629;" horiz-adv-x="700" arabic-form="isolated" 
d="M616 386q0 -142 -55 -280q-87 -74 -222 -74q-163 0 -265 105q0 222 129 404l-53 22l74 222q163 -44 244 -103q148 -106 148 -296zM527 302q0 74 -85 142q-72 58 -151 75q-76 -125 -97 -209q67 -68 180 -68q103 0 153 60zM632 1064l-133 -126l-131 132l137 122zM303 1046
l-133 -126l-131 133l136 121z" />
    <glyph glyph-name="uniFE94" unicode="&#x629;" horiz-adv-x="901" arabic-form="final" 
d="M916 32h-150q-157 0 -214 261q-28 -106 -81 -178q-283 0 -375 127q37 138 65 216q110 98 315 175q-7 34 -31 97l107 160q48 -69 72 -238q33 -223 42 -254q34 -119 113 -119h137v-247zM544 328l-39 200q-139 -29 -260 -138q54 -66 221 -66q42 0 78 4zM764 1121l-133 -126
l-131 132l137 122zM434 1103l-133 -126l-130 133l136 121z" />
    <glyph glyph-name="uniFE95" unicode="&#x62a;" horiz-adv-x="1359" arabic-form="isolated" 
d="M1309 456q0 -42 -51.5 -152t-83.5 -136q-40 -31 -248 -79q-247 -57 -458 -57q-282 0 -388 111q-68 70 -68 208q0 187 107 353q5 1 10 1q40 0 55 -31q-55 -130 -55 -198q0 -199 428 -199q389 0 610 93q-38 98 -99 180l137 185q41 -51 74 -148q30 -87 30 -131zM923 900
l-124 -125l-126 111l-115 -116l-133 116l125 127l126 -113l115 118z" />
    <glyph glyph-name="uniFE96" unicode="&#x62a;" horiz-adv-x="1399" arabic-form="final" 
d="M1432 32h-71q-92 0 -152 50q-65 53 -67 143q-263 -193 -686 -193q-203 0 -306 57q-138 75 -138 260q0 204 108 355q6 1 12 1q36 0 52 -31q-55 -128 -55 -205q0 -100 123 -151q99 -40 254 -40q156 0 309 27q201 35 287 102q54 42 83 125q6 4 16 4q8 0 20 -3q24 -6 35 -19
q-21 -64 -21 -112q0 -123 142 -123h55v-247zM923 900l-124 -125l-126 111l-115 -116l-133 116l125 127l126 -113l115 118z" />
    <glyph glyph-name="uniFE97" unicode="&#x62a;" horiz-adv-x="562" arabic-form="initial" 
d="M505 418q-32 -191 -86 -259q-102 -127 -285 -127h-164v247h200q195 0 195 58q0 41 -101 178l138 189q103 -136 103 -286zM498 954l-124 -125l-126 111l-115 -116l-133 116l125 127l126 -113l115 118z" />
    <glyph glyph-name="uniFE98" unicode="&#x62a;" horiz-adv-x="501" arabic-form="medial" 
d="M519 32h-64q-73 0 -136 64q-58 59 -73 134q-10 -69 -76 -132q-69 -66 -137 -66h-63v247h54q91 0 143 81q42 65 42 148h77q0 -96 40 -157q47 -72 139 -72h54v-247zM498 834l-124 -125l-126 111l-115 -116l-133 116l125 127l126 -113l115 118z" />
    <glyph glyph-name="uniFE99" unicode="&#x62b;" horiz-adv-x="1359" arabic-form="isolated" 
d="M1309 456q0 -42 -51.5 -152t-83.5 -136q-40 -31 -248 -79q-247 -57 -458 -57q-282 0 -388 111q-68 70 -68 208q0 187 107 353q5 1 10 1q40 0 55 -31q-55 -130 -55 -198q0 -199 428 -199q389 0 610 93q-38 98 -99 180l137 185q41 -51 74 -148q30 -87 30 -131zM923 900
l-124 -125l-126 111l-115 -116l-133 116l125 127l126 -113l115 118zM795 1115l-133 -126l-130 132l135 122z" />
    <glyph glyph-name="uniFE9A" unicode="&#x62b;" horiz-adv-x="1399" arabic-form="final" 
d="M1432 32h-71q-92 0 -152 50q-65 53 -67 143q-263 -193 -686 -193q-203 0 -306 57q-138 75 -138 260q0 204 108 355q6 1 12 1q36 0 52 -31q-55 -128 -55 -205q0 -100 123 -151q99 -40 254 -40q156 0 309 27q201 35 287 102q54 42 83 125q6 4 16 4q8 0 20 -3q24 -6 35 -19
q-21 -64 -21 -112q0 -123 142 -123h55v-247zM923 900l-124 -125l-126 111l-115 -116l-133 116l125 127l126 -113l115 118zM795 1115l-133 -126l-130 132l135 122z" />
    <glyph glyph-name="uniFE9B" unicode="&#x62b;" horiz-adv-x="562" arabic-form="initial" 
d="M505 418q-32 -191 -86 -259q-102 -127 -285 -127h-164v247h200q195 0 195 58q0 41 -101 178l138 189q103 -136 103 -286zM498 954l-124 -125l-126 111l-115 -116l-133 116l125 127l126 -113l115 118zM370 1169l-133 -126l-130 132l135 122z" />
    <glyph glyph-name="uniFE9C" unicode="&#x62b;" horiz-adv-x="501" arabic-form="medial" 
d="M519 32h-64q-73 0 -136 64q-58 59 -73 134q-10 -69 -76 -132q-69 -66 -137 -66h-63v247h54q91 0 143 81q42 65 42 148h77q0 -96 40 -157q47 -72 139 -72h54v-247zM498 834l-124 -125l-126 111l-115 -116l-133 116l125 127l126 -113l115 118zM370 1049l-133 -126l-130 132
l135 122z" />
    <glyph glyph-name="uniFE9D" unicode="&#x62c;" horiz-adv-x="1063" arabic-form="isolated" 
d="M1090 -307l-85 -113q-75 -25 -252 -47q-166 -21 -266 -21q-196 0 -324 87q-149 100 -149 287q0 188 172 367q136 141 292 207q-234 52 -259 52q-48 0 -107 -140q-43 0 -66 26q80 195 99 234q57 118 103 118q67 0 239.5 -52.5t266.5 -52.5h252l-133 -209q-31 1 -61 1
q-312 0 -474 -175q-114 -124 -114 -253q0 -328 587 -328q84 0 279 12zM735 32l-145 -137l-142 142l147 135z" />
    <glyph glyph-name="uniFE9E" unicode="&#x62c;" horiz-adv-x="1100" arabic-form="final" 
d="M1124 32h-114q-355 0 -410 399q-180 -46 -292 -207q-85 -124 -85 -216q0 -327 565 -327q79 0 274 12l-85 -113q-75 -26 -239 -48q-154 -21 -252 -21q-196 0 -324 88q-149 100 -149 286q0 179 172 362q139 148 292 212q-234 53 -259 53q-48 0 -107 -141q-43 0 -66 26
q80 196 99 234q57 118 103 118q66 0 238 -52q169 -52 264 -52h4l282 2l-119 -211h-223q27 -79 64 -109q62 -49 199 -49h168v-246zM658 -12l-145 -137l-142 142l148 135z" />
    <glyph glyph-name="uniFE9F" unicode="&#x62c;" horiz-adv-x="999" arabic-form="initial" 
d="M933 365l-121 -196q-127 25 -169 25q-71 0 -286 -81t-324 -81h-63v247h138q240 0 404 43q-89 49 -218 136q-82 56 -109 56t-98 -124h-2q-13 0 -32 10q-21 10 -27 22q139 302 225 302q56 0 182 -97q192 -148 238 -176q140 -86 246 -86h16zM529 -244l-145 -136l-142 141
l147 135z" />
    <glyph glyph-name="uniFEA0" unicode="&#x62c;" horiz-adv-x="1201" arabic-form="medial" 
d="M1223 32h-91q-152 0 -242 91q-72 73 -125 234q-288 -203 -343 -234q-163 -91 -330 -91h-122v247h162q147 0 240 29q64 20 241 108q-343 135 -387 135q-40 0 -64 -25q-22 -21 -60 -93q-14 -7 -26 -7q-24 0 -38 25q61 159 93 219q60 114 116 114q36 0 247 -94.5t308 -94.5
q106 0 331 43l-96 -218q-117 -13 -194 -29q54 -112 209 -112h171v-247zM709 -244l-145 -136l-142 141l147 135z" />
    <glyph glyph-name="uniFEA1" unicode="&#x62d;" horiz-adv-x="1066" arabic-form="isolated" 
d="M1086 -307l-85 -113q-75 -25 -252 -47q-166 -21 -266 -21q-196 0 -324 87q-149 100 -149 287q0 188 172 367q136 141 292 207q-234 52 -259 52q-48 0 -107 -140q-43 0 -66 26q80 195 99 234q57 118 103 118q67 0 239.5 -52.5t266.5 -52.5h252l-133 -209q-31 1 -61 1
q-312 0 -474 -175q-114 -124 -114 -253q0 -328 587 -328q84 0 279 12z" />
    <glyph glyph-name="uniFEA2" unicode="&#x62d;" horiz-adv-x="1100" arabic-form="final" 
d="M1122 32h-114q-355 0 -410 399q-180 -46 -292 -207q-85 -123 -85 -215q0 -328 565 -328q79 0 274 12l-85 -113q-75 -26 -239 -48q-154 -20 -252 -20q-196 0 -324 87q-149 100 -149 287q0 179 172 361q139 149 292 213q-234 52 -259 52q-48 0 -107 -140q-43 0 -66 26
q80 195 99 234q57 118 103 118q66 0 238 -53q169 -52 264 -52h4l282 2l-119 -211h-223q27 -79 64 -108q62 -49 199 -49h168v-247z" />
    <glyph glyph-name="uniFEA3" unicode="&#x62d;" horiz-adv-x="999" arabic-form="initial" 
d="M933 365l-121 -196q-127 25 -169 25q-71 0 -286 -81t-324 -81h-63v247h138q240 0 404 43q-89 49 -218 136q-82 56 -109 56t-98 -124h-2q-13 0 -32 10q-21 10 -27 22q139 302 225 302q56 0 182 -97q192 -148 238 -176q140 -86 246 -86h16z" />
    <glyph glyph-name="uniFEA4" unicode="&#x62d;" horiz-adv-x="1201" arabic-form="medial" 
d="M1223 32h-91q-152 0 -242 91q-72 73 -125 234q-288 -203 -343 -234q-163 -91 -330 -91h-122v247h162q147 0 240 29q64 20 241 108q-343 135 -387 135q-40 0 -64 -25q-22 -21 -60 -93q-14 -7 -26 -7q-24 0 -38 25q61 159 93 219q60 114 116 114q36 0 247 -94.5t308 -94.5
q106 0 331 43l-96 -218q-117 -13 -194 -29q54 -112 209 -112h171v-247z" />
    <glyph glyph-name="uniFEA5" unicode="&#x62e;" horiz-adv-x="1066" arabic-form="isolated" 
d="M1089 -307l-85 -113q-75 -25 -252 -47q-166 -21 -266 -21q-196 0 -324 87q-149 101 -149 287q0 188 172 367q136 141 292 207q-234 52 -259 52q-48 0 -107 -140q-43 0 -66 26q80 195 99 234q57 118 103 118q67 0 239.5 -52t266.5 -52h252l-133 -210q-31 2 -61 2
q-312 0 -474 -176q-114 -124 -114 -253q0 -327 587 -327q84 0 279 11zM725 1015l-145 -137l-142 142l147 135z" />
    <glyph glyph-name="uniFEA6" unicode="&#x62e;" horiz-adv-x="1100" arabic-form="final" 
d="M1118 32h-114q-355 0 -410 399q-180 -46 -292 -207q-85 -124 -85 -216q0 -327 565 -327q79 0 274 12l-85 -113q-75 -26 -239 -48q-154 -21 -252 -21q-196 0 -324 88q-149 100 -149 286q0 179 172 362q139 148 292 212q-234 53 -259 53q-48 0 -107 -141q-43 0 -66 26
q80 196 99 234q57 118 103 118q66 0 238 -52q169 -52 264 -52h4l282 2l-119 -211h-223q27 -79 64 -109q62 -49 199 -49h168v-246zM719 1014l-145 -137l-142 142l147 135z" />
    <glyph glyph-name="uniFEA7" unicode="&#x62e;" horiz-adv-x="999" arabic-form="initial" 
d="M933 365l-121 -196q-127 25 -169 25q-71 0 -286 -81t-324 -81h-63v247h138q240 0 404 43q-89 49 -218 136q-82 56 -109 56t-98 -124h-2q-13 0 -32 10q-21 10 -27 22q139 302 225 302q56 0 182 -97q192 -148 238 -176q140 -86 246 -86h16zM531 1014l-145 -137l-142 142
l147 135z" />
    <glyph glyph-name="uniFEA8" unicode="&#x62e;" horiz-adv-x="1201" arabic-form="medial" 
d="M1223 32h-91q-152 0 -242 91q-72 73 -125 234q-288 -203 -343 -234q-163 -91 -330 -91h-122v247h162q147 0 240 29q64 20 241 108q-343 135 -387 135q-40 0 -64 -25q-22 -21 -60 -93q-14 -7 -26 -7q-24 0 -38 25q61 159 93 219q60 114 116 114q36 0 247 -94.5t308 -94.5
q106 0 331 43l-96 -218q-117 -13 -194 -29q54 -112 209 -112h171v-247zM684 1014l-145 -137l-142 142l147 135z" />
    <glyph glyph-name="uniFEA9" unicode="&#x62f;" horiz-adv-x="744" arabic-form="isolated" 
d="M676 423q0 -189 -53 -308q-37 -47 -163 -77q-104 -24 -186 -24q-111 0 -179 47q0 122 40 281h36q14 -40 28 -54q35 -39 107 -39q164 0 260 63q-56 227 -359 285l44 280q164 -49 285 -166q140 -135 140 -288z" />
    <glyph glyph-name="uniFEAA" unicode="&#x62f;" horiz-adv-x="901" arabic-form="final" 
d="M919 32h-100q-123 0 -190 196q-27 -88 -68 -164q-121 -57 -258 -57q-148 0 -210 62q13 101 44 284h51v-5q0 -56 42 -82q33 -20 89 -20h11q42 1 126 13q128 19 140 46q-69 256 -169 367l140 184q51 -50 89 -205l63 -250q42 -122 113 -122h87v-247z" />
    <glyph glyph-name="uniFEAB" unicode="&#x630;" horiz-adv-x="750" arabic-form="isolated" 
d="M682 423q0 -189 -53 -308q-37 -47 -163 -77q-104 -24 -186 -24q-111 0 -179 47q0 122 40 281h36q14 -40 28 -55q35 -38 107 -38q164 0 260 63q-56 227 -359 285l44 280q164 -50 285 -167q140 -135 140 -287zM430 1127l-144 -137l-143 143l148 135z" />
    <glyph glyph-name="uniFEAC" unicode="&#x630;" horiz-adv-x="901" arabic-form="final" 
d="M923 32h-110q-123 0 -190 196q-27 -89 -68 -164q-121 -57 -258 -57q-148 0 -210 62q13 101 44 284h51v-5q0 -57 42 -83q33 -19 89 -19h11q42 1 126 13q128 19 140 46q-69 256 -169 367l140 184q51 -50 89 -205l63 -251q42 -121 113 -121h97v-247zM692 1122l-145 -137
l-142 143l147 135z" />
    <glyph glyph-name="uniFEAD" unicode="&#x631;" horiz-adv-x="599" arabic-form="isolated" 
d="M518 72q0 -108 -95 -295q-91 -180 -186 -275q-62 0 -166.5 43t-149.5 87q163 74 291 173q150 117 178 210q-41 113 -167 197l125 241q66 -58 118 -175t52 -206z" />
    <glyph glyph-name="uniFEAE" unicode="&#x631;" horiz-adv-x="700" arabic-form="final" 
d="M727 32h-73q-65 0 -125 45q-61 -332 -306 -555q-36 0 -131 36q-109 41 -170 90q422 202 483 386q-37 105 -182 209l122 242q114 -129 154 -158q64 -48 151 -48h77v-247z" />
    <glyph glyph-name="uniFEAF" unicode="&#x632;" horiz-adv-x="599" arabic-form="isolated" 
d="M514 72q0 -108 -95 -295q-91 -180 -186 -275q-62 0 -166.5 43t-149.5 87q163 75 291 174q150 116 178 209q-41 113 -167 197l125 241q66 -58 118 -175t52 -206zM445 739l-145 -137l-142 142l147 135z" />
    <glyph glyph-name="uniFEB0" unicode="&#x632;" horiz-adv-x="700" arabic-form="final" 
d="M727 32h-73q-65 0 -125 45q-61 -332 -306 -556q-36 0 -131 36q-109 42 -170 91q422 201 483 386q-37 105 -182 209l122 242q114 -129 154 -159q64 -47 151 -47h77v-247zM445 739l-145 -137l-142 142l147 135z" />
    <glyph glyph-name="uniFEB1" unicode="&#x633;" horiz-adv-x="1900" arabic-form="isolated" 
d="M1827 445q0 -34 -31 -131q-29 -87 -50 -129q-28 -58 -90 -103q-65 -48 -126 -48q-145 0 -189 179q-71 -180 -200 -180q-57 0 -124 36q2 -19 2 -41q0 -54 -12 -139q-13 -99 -32 -131q-78 -92 -214 -157q-169 -82 -361 -82q-233 0 -333 124q-64 80 -64 196q0 167 192 445
q5 1 11 1q43 0 54 -36q-101 -162 -101 -275q0 -111 91 -166q74 -46 192 -46q159 0 305 57q131 52 173 112q-39 207 -165 330l95 237q97 -138 123 -163q61 -59 145 -59q110 0 159 95q31 61 31 141h81q0 -234 142 -234q106 0 172 56q0 24 -115 191l139 182q32 -35 64 -115
q36 -87 36 -147z" />
    <glyph glyph-name="uniFEB2" unicode="&#x633;" horiz-adv-x="2001" arabic-form="final" 
d="M2022 32h-128q-141 0 -182 170q-71 -169 -206 -169t-185 157q-54 -158 -197 -158q-60 0 -104 36q2 -18 2 -38q0 -56 -12 -139q-13 -98 -32 -133q-78 -92 -214 -157q-169 -82 -361 -82q-233 0 -333 124q-64 80 -64 196q0 167 192 444q5 2 11 2q43 0 54 -36
q-101 -162 -101 -275q0 -111 91 -167q74 -46 192 -46q159 0 305 58q131 51 173 111q-39 207 -165 331l95 236q97 -137 123 -162q61 -59 145 -59q97 0 144 89q33 61 33 134h81q0 -109 18 -152q30 -73 124 -73q86 0 129 88q32 63 32 136h81q0 -104 18 -148q30 -73 120 -73h121
v-245z" />
    <glyph glyph-name="uniFEB3" unicode="&#x633;" horiz-adv-x="1301" arabic-form="initial" 
d="M1213 444q0 -34 -31 -130q-15 -44 -50 -130q-31 -62 -92 -105q-66 -47 -132 -47q-71 0 -125 58q-51 53 -63 126q-50 -184 -223 -184q-127 0 -200 183q-93 -183 -223 -183h-84v247h101q91 0 134 89q30 61 30 132h80q0 -222 165 -222q110 0 159 85q33 59 33 137h81
q0 -221 145 -221q107 0 171 55q0 24 -115 190l138 182q33 -34 65 -114q36 -88 36 -148z" />
    <glyph glyph-name="uniFEB4" unicode="&#x633;" horiz-adv-x="1301" arabic-form="medial" 
d="M1323 32h-58q-75 0 -137 65q-55 60 -69 139q-15 -77 -71 -135q-66 -69 -156 -69q-144 0 -183 182q-74 -181 -204 -181q-76 0 -130 62q-40 46 -57 109q-74 -172 -214 -172h-54v246h69q83 0 131 78q39 65 39 143h81q0 -221 143 -221q96 0 140 86q30 60 30 135h81
q0 -102 20 -149q31 -73 118 -73q99 0 149 87q35 62 35 137h81q0 -224 155 -224h61v-245z" />
    <glyph glyph-name="uniFEB5" unicode="&#x634;" horiz-adv-x="1900" arabic-form="isolated" 
d="M1839 444q0 -34 -31 -130q-29 -87 -50 -130q-28 -57 -90 -102q-65 -48 -126 -48q-145 0 -189 178q-71 -179 -200 -179q-57 0 -124 35q2 -19 2 -40q0 -54 -12 -139q-13 -100 -32 -131q-78 -92 -214 -157q-169 -82 -361 -82q-233 0 -333 124q-64 80 -64 196q0 167 192 444
q5 2 11 2q43 0 54 -36q-101 -162 -101 -275q0 -111 91 -167q74 -46 192 -46q159 0 305 58q131 51 173 112q-39 207 -165 330l95 237q97 -138 123 -163q61 -59 145 -59q110 0 159 95q31 61 31 141h81q0 -234 142 -234q106 0 172 56q0 24 -115 191l139 181q32 -35 64 -114
q36 -87 36 -148zM1600 827l-124 -125l-126 111l-115 -116l-133 116l125 127l126 -113l115 118zM1472 1042l-133 -126l-130 132l135 122z" />
    <glyph glyph-name="uniFEB6" unicode="&#x634;" horiz-adv-x="2001" arabic-form="final" 
d="M2022 32h-128q-141 0 -182 170q-71 -169 -206 -169t-185 157q-54 -158 -197 -158q-60 0 -104 36q2 -18 2 -37q0 -57 -12 -140q-13 -98 -32 -133q-78 -92 -214 -157q-169 -82 -361 -82q-233 0 -333 124q-64 80 -64 196q0 167 192 444q5 2 11 2q43 0 54 -36
q-101 -162 -101 -275q0 -111 91 -167q74 -46 192 -46q159 0 305 58q131 51 173 112q-39 207 -165 330l95 237q97 -138 123 -163q61 -59 145 -59q97 0 144 89q33 62 33 134h81q0 -108 18 -152q30 -73 124 -73q86 0 129 88q32 63 32 137h81q0 -105 18 -149q30 -73 120 -73h121
v-245zM1600 827l-124 -125l-126 111l-115 -116l-133 116l125 127l126 -113l115 118zM1472 1042l-133 -126l-130 132l135 122z" />
    <glyph glyph-name="uniFEB7" unicode="&#x634;" horiz-adv-x="1301" arabic-form="initial" 
d="M1213 444q0 -34 -31 -130q-15 -44 -50 -130q-31 -62 -92 -105q-66 -47 -132 -47q-71 0 -125 58q-51 53 -63 126q-50 -184 -223 -184q-127 0 -200 183q-93 -183 -223 -183h-84v247h101q91 0 134 89q30 61 30 132h80q0 -222 165 -222q110 0 159 85q33 59 33 137h81
q0 -221 145 -221q107 0 171 55q0 24 -115 190l138 182q33 -34 65 -114q36 -88 36 -148zM968 827l-124 -125l-126 111l-115 -116l-133 116l125 127l126 -113l115 118zM840 1042l-133 -126l-130 132l135 122z" />
    <glyph glyph-name="uniFEB8" unicode="&#x634;" horiz-adv-x="1301" arabic-form="medial" 
d="M1323 32h-58q-75 0 -137 65q-55 60 -69 139q-15 -77 -71 -135q-66 -69 -156 -69q-144 0 -183 182q-74 -181 -204 -181q-76 0 -130 62q-40 46 -57 109q-74 -172 -214 -172h-54v246h69q83 0 131 78q39 65 39 143h81q0 -221 143 -221q96 0 140 86q30 60 30 135h81
q0 -102 20 -149q31 -73 118 -73q99 0 149 87q35 62 35 137h81q0 -224 155 -224h61v-245zM908 827l-124 -125l-126 111l-115 -116l-133 116l125 127l126 -113l115 118zM780 1042l-133 -126l-130 132l135 122z" />
    <glyph glyph-name="uniFEB9" unicode="&#x635;" horiz-adv-x="2001" arabic-form="isolated" 
d="M1938 438q0 -27 -81 -120q-250 -286 -673 -286q-118 0 -164 36q2 -16 2 -36q0 -71 -17 -168q-15 -87 -27 -106q-78 -92 -214 -157q-169 -82 -361 -82q-233 0 -333 124q-64 80 -64 196q0 167 192 444q5 2 11 2q43 0 54 -36q-101 -162 -101 -275q0 -111 91 -167
q74 -46 192 -46q159 0 305 58q131 51 173 112q-39 207 -165 330l95 237q98 -137 133 -168q63 -56 157 -56q143 173 228 248q167 145 312 145q108 0 186 -81q69 -71 69 -148zM1730 369q0 58 -44.5 95t-103.5 37q-84 0 -187 -87q-71 -60 -133 -145q358 0 468 100z" />
    <glyph glyph-name="uniFEBA" unicode="&#x635;" horiz-adv-x="2001" arabic-form="final" 
d="M2019 32h-52q-91 0 -175 51q-39 25 -106 91q-220 -142 -506 -142q-118 0 -164 36q2 -16 2 -36q0 -71 -17 -167q-15 -87 -27 -107q-78 -92 -214 -157q-169 -82 -361 -82q-233 0 -333 124q-64 79 -64 196q0 167 192 444q5 2 11 2q43 0 54 -36q-101 -162 -101 -275
q0 -111 91 -167q74 -46 192 -46q159 0 305 58q131 51 173 111q-39 207 -165 331l95 236q98 -136 133 -167q63 -56 157 -56q143 173 228 248q167 145 312 145q108 0 186 -81q69 -72 69 -148q0 -15 -45 -71q-37 -45 -59 -68q38 -20 151 -20h38v-247zM1726 369q0 58 -44.5 95
t-103.5 37q-84 0 -187 -87q-71 -61 -133 -145q358 0 468 100z" />
    <glyph glyph-name="uniFEBB" unicode="&#x635;" horiz-adv-x="1301" arabic-form="initial" 
d="M1243 438q0 -15 -72 -103q-87 -106 -172 -161q-134 -86 -242 -115q-100 -27 -269 -27q-133 0 -197 60q-37 35 -60 112q-69 -172 -206 -172h-55v247h52q86 0 130 68q37 57 37 148h76q0 -217 187 -217q135 167 226 246q165 143 309 143q108 0 186 -81q70 -71 70 -148z
M1035 369q0 60 -44 96t-105 36q-149 0 -320 -232q358 0 469 100z" />
    <glyph glyph-name="uniFEBC" unicode="&#x635;" horiz-adv-x="1301" arabic-form="medial" 
d="M1327 32h-51q-93 0 -176 51q-35 22 -106 91q-219 -142 -506 -142q-133 0 -197 60q-37 35 -60 112q-69 -172 -206 -172h-35v247h32q86 0 130 68q37 57 37 148h76q0 -217 187 -217q135 167 226 246q165 143 309 143q108 0 186 -81q70 -71 70 -148q0 -8 -32 -52
q-37 -51 -73 -87q38 -20 151 -20h38v-247zM1035 369q0 60 -44 96t-105 36q-149 0 -320 -232q358 0 469 100z" />
    <glyph glyph-name="uniFEBD" unicode="&#x636;" horiz-adv-x="2001" arabic-form="isolated" 
d="M1944 438q0 -27 -81 -120q-250 -286 -673 -286q-118 0 -164 36q2 -16 2 -36q0 -71 -17 -168q-15 -87 -27 -106q-78 -92 -214 -157q-169 -82 -361 -82q-233 0 -333 124q-64 80 -64 196q0 167 192 444q5 2 11 2q43 0 54 -36q-101 -162 -101 -275q0 -111 91 -167
q74 -46 192 -46q159 0 305 58q131 51 173 111q-39 207 -165 331l95 236q98 -136 133 -167q63 -56 157 -56q143 173 228 248q167 145 312 145q108 0 186 -81q69 -71 69 -148zM1736 369q0 58 -44.5 95t-103.5 37q-84 0 -187 -87q-71 -61 -133 -145q358 0 468 100zM1702 960
l-145 -137l-142 142l148 135z" />
    <glyph glyph-name="uniFEBE" unicode="&#x636;" horiz-adv-x="2001" arabic-form="final" 
d="M2019 33h-52q-91 0 -175 51q-39 24 -106 91q-220 -142 -506 -142q-118 0 -164 36q2 -17 2 -36q0 -72 -17 -168q-15 -86 -27 -107q-78 -92 -214 -157q-169 -82 -361 -82q-233 0 -333 124q-64 80 -64 196q0 167 192 445q5 1 11 1q43 0 54 -36q-101 -162 -101 -275
q0 -111 91 -166q74 -46 192 -46q159 0 305 57q131 52 173 112q-39 207 -165 330l95 237q98 -137 133 -168q63 -55 157 -55q143 172 228 247q167 145 312 145q108 0 186 -81q69 -71 69 -148q0 -15 -45 -71q-37 -45 -59 -67q38 -21 151 -21h38v-246zM1726 369q0 59 -44.5 95.5
t-103.5 36.5q-84 0 -187 -87q-71 -60 -133 -145q358 0 468 100zM1701 960l-145 -136l-142 142l148 135z" />
    <glyph glyph-name="uniFEBF" unicode="&#x636;" horiz-adv-x="1301" arabic-form="initial" 
d="M1243 438q0 -15 -72 -103q-87 -106 -172 -161q-134 -86 -242 -115q-100 -27 -269 -27q-133 0 -197 60q-37 35 -60 112q-69 -172 -206 -172h-55v247h52q86 0 130 68q37 57 37 148h76q0 -217 187 -217q135 167 226 246q165 143 309 143q108 0 186 -81q70 -71 70 -148z
M1035 369q0 60 -44 96t-105 36q-149 0 -320 -232q358 0 469 100zM1022 960l-145 -137l-142 142l148 135z" />
    <glyph glyph-name="uniFEC0" unicode="&#x636;" horiz-adv-x="1301" arabic-form="medial" 
d="M1327 32h-51q-93 0 -176 51q-35 22 -106 91q-219 -142 -506 -142q-133 0 -197 60q-37 35 -60 112q-69 -172 -206 -172h-35v247h32q86 0 130 68q37 57 37 148h76q0 -217 187 -217q135 167 226 246q165 143 309 143q108 0 186 -81q70 -71 70 -148q0 -8 -32 -52
q-37 -51 -73 -87q38 -20 151 -20h38v-247zM1035 369q0 60 -44 96t-105 36q-149 0 -320 -232q358 0 469 100zM1022 960l-145 -137l-142 142l148 135z" />
    <glyph glyph-name="uniFEC1" unicode="&#x637;" horiz-adv-x="1201" arabic-form="isolated" 
d="M1110 448q0 -37 -76 -126q-100 -117 -249 -191q-199 -98 -456 -98q-159 0 -205 61q-32 41 -95 275h57q32 -61 102 -81q44 -12 136 -12v173q0 431 -99 659l162 144l133 -261h-67v-572q196 252 402 252q104 0 183 -79q72 -71 72 -144zM907 371q0 60 -43.5 96t-104.5 36
q-149 0 -320 -232q358 0 468 100z" />
    <glyph glyph-name="uniFEC2" unicode="&#x637;" horiz-adv-x="1201" arabic-form="final" 
d="M1214 33h-65q-149 0 -273 143q-222 -143 -548 -143q-159 0 -205 61q-32 41 -95 275h57q32 -61 102 -81q44 -12 136 -12v173q0 431 -99 659l162 144l133 -261h-67v-572q196 252 402 252q104 0 183 -79q72 -71 72 -144q0 -45 -95 -140q45 -29 132 -29h68v-246zM906 371
q0 60 -43.5 96t-104.5 36q-149 0 -320 -232q358 0 468 100z" />
    <glyph glyph-name="uniFEC3" unicode="&#x637;" horiz-adv-x="999" arabic-form="initial" 
d="M934 447q0 -36 -77 -126q-99 -118 -249 -191q-201 -98 -455 -98h-183v246h178v171q0 430 -99 659l162 144l133 -261h-67v-573q196 252 402 252q104 0 183 -78q72 -71 72 -145zM731 371q0 60 -43.5 96t-104.5 36q-85 0 -187 -87q-73 -63 -133 -145q358 0 468 100z" />
    <glyph glyph-name="uniFEC4" unicode="&#x637;" horiz-adv-x="999" arabic-form="medial" 
d="M1019 32h-65q-54 0 -141 50q-74 43 -112 93q-222 -143 -548 -143h-183v247h178v170q0 430 -99 659l162 144l133 -261h-67v-573q196 252 402 252q104 0 183 -78q72 -71 72 -145q0 -44 -95 -139q45 -29 112 -29h68v-247zM731 371q0 60 -43.5 96t-104.5 36q-85 0 -187 -87
q-73 -63 -133 -145q358 0 468 100z" />
    <glyph glyph-name="uniFEC5" unicode="&#x638;" horiz-adv-x="1201" arabic-form="isolated" 
d="M1106 447q0 -37 -76 -126q-100 -117 -249 -191q-199 -98 -456 -98q-159 0 -205 62q-32 41 -95 275h57q32 -61 102 -81q44 -13 136 -13v174q0 430 -99 659l162 144l133 -261h-67v-573q196 252 402 252q104 0 183 -78q72 -71 72 -145zM903 371q0 60 -43.5 96t-104.5 36
q-149 0 -320 -232q358 0 468 100zM958 971l-145 -137l-142 142l148 135z" />
    <glyph glyph-name="uniFEC6" unicode="&#x638;" horiz-adv-x="1201" arabic-form="final" 
d="M1215 32h-65q-149 0 -273 143q-222 -143 -548 -143q-159 0 -205 61q-32 41 -95 275h57q32 -61 102 -81q44 -12 136 -12v174q0 430 -99 658l162 144l133 -261h-67v-572q196 252 402 252q104 0 183 -78q72 -71 72 -145q0 -44 -95 -140q45 -29 132 -29h68v-246zM907 370
q0 61 -43.5 97t-104.5 36q-149 0 -320 -233q358 0 468 100zM962 971l-145 -137l-142 142l148 135z" />
    <glyph glyph-name="uniFEC7" unicode="&#x638;" horiz-adv-x="999" arabic-form="initial" 
d="M934 447q0 -36 -77 -126q-99 -118 -249 -191q-201 -98 -455 -98h-183v246h178v171q0 430 -99 659l162 144l133 -261h-67v-573q196 252 402 252q104 0 183 -78q72 -71 72 -145zM731 371q0 60 -43.5 96t-104.5 36q-85 0 -187 -87q-73 -63 -133 -145q358 0 468 100zM786 971
l-145 -137l-142 142l148 135z" />
    <glyph glyph-name="uniFEC8" unicode="&#x638;" horiz-adv-x="999" arabic-form="medial" 
d="M1019 32h-45q-74 0 -161 50q-74 43 -112 93q-222 -143 -548 -143h-163v247h158v170q0 430 -99 659l162 144l133 -261h-67v-573q196 252 402 252q104 0 183 -78q72 -71 72 -145q0 -44 -95 -139q45 -29 132 -29h48v-247zM731 371q0 60 -43.5 96t-104.5 36q-85 0 -187 -87
q-73 -63 -133 -145q358 0 468 100zM786 971l-145 -137l-142 142l148 135z" />
    <glyph glyph-name="uniFEC9" unicode="&#x639;" horiz-adv-x="901" arabic-form="isolated" 
d="M910 -327l-72 -113q-196 -67 -403 -67q-184 0 -297 65q-140 82 -140 252q0 151 131 299q89 100 194 163q-81 60 -97 78q-70 73 -70 162q0 81 116 203q121 127 220 127q134 0 237 -159q12 -19 12 -24q0 -4 -5 -4q-7 0 -33 10q-67 25 -144 25q-123 0 -211 -60
q16 -172 182 -219l313 77l-77 -203q-169 -12 -309 -67q-247 -97 -247 -291q0 -155 179 -223q121 -46 308 -46q102 0 213 15z" />
    <glyph glyph-name="uniFECA" unicode="&#x639;" horiz-adv-x="999" arabic-form="final" 
d="M1016 32h-96q-140 0 -229 105q-6 7 -169 219q-288 -181 -288 -376q0 -177 184 -254q130 -55 335 -55q118 0 217 16l-75 -117q-206 -64 -403 -64q-183 0 -321 89q-152 98 -152 259q0 277 423 562q-85 81 -201 139q127 186 318 186q239 0 239 -238q-62 -25 -180 -85
q138 -140 286 -140h112v-246zM680 549q-25 62 -101 62q-61 0 -154 -39l127 -87z" />
    <glyph glyph-name="uniFECB" unicode="&#x639;" horiz-adv-x="901" arabic-form="initial" 
d="M849 416l-105 -226q-177 -40 -470 -114q-175 -44 -226 -44h-58v247h134q24 0 100 8q-108 66 -108 189q0 124 133 242q123 109 220 109q154 0 252 -168q9 -15 9 -22q0 -5 -6 -5q-8 0 -25 6q-52 19 -129 19q-165 0 -263 -75q19 -175 202 -254z" />
    <glyph glyph-name="uniFECC" unicode="&#x639;" horiz-adv-x="800" arabic-form="medial" 
d="M821 32h-104q-77 0 -158 43q-106 57 -147 161q-96 -204 -353 -204h-79v247h124q152 0 214 82q-79 77 -196 137q130 187 317 187q239 0 239 -238q-61 -25 -173 -92q47 -76 206 -76h110v-247zM537 503q-9 57 -71 57q-55 0 -152 -46l122 -77z" />
    <glyph glyph-name="uniFECD" unicode="&#x63a;" horiz-adv-x="901" arabic-form="isolated" 
d="M910 -327l-72 -113q-196 -67 -403 -67q-184 0 -297 65q-140 82 -140 252q0 151 131 299q89 100 194 163q-81 60 -97 78q-70 73 -70 162q0 81 116 203q121 127 220 127q134 0 237 -159q12 -19 12 -24q0 -4 -5 -4q-7 0 -33 10q-67 25 -144 25q-123 0 -211 -60
q16 -172 182 -219l313 77l-77 -203q-169 -12 -309 -67q-247 -97 -247 -291q0 -155 179 -223q121 -46 308 -46q102 0 213 15zM619 1084l-145 -137l-142 142l148 135z" />
    <glyph glyph-name="uniFECE" unicode="&#x63a;" horiz-adv-x="999" arabic-form="final" 
d="M1016 32h-96q-140 0 -229 105q-6 7 -169 219q-288 -181 -288 -376q0 -177 184 -254q130 -55 335 -55q118 0 217 16l-75 -117q-206 -64 -403 -64q-183 0 -321 89q-152 98 -152 259q0 277 423 562q-85 81 -201 139q127 186 318 186q239 0 239 -238q-62 -25 -180 -85
q138 -140 286 -140h112v-246zM650 1024l-145 -136l-142 142l147 135zM680 549q-25 62 -101 62q-61 0 -154 -39l127 -87z" />
    <glyph glyph-name="uniFECF" unicode="&#x63a;" horiz-adv-x="901" arabic-form="initial" 
d="M849 416l-105 -226q-177 -40 -470 -114q-175 -44 -226 -44h-58v247h134q24 0 100 8q-108 66 -108 189q0 124 133 242q123 109 220 109q154 0 252 -168q9 -15 9 -22q0 -5 -6 -5q-8 0 -25 6q-52 19 -129 19q-165 0 -263 -75q19 -175 202 -254zM587 1106l-145 -137l-142 142
l147 135z" />
    <glyph glyph-name="uniFED0" unicode="&#x63a;" horiz-adv-x="800" arabic-form="medial" 
d="M821 32h-104q-77 0 -158 43q-106 57 -147 161q-96 -204 -353 -204h-79v247h124q152 0 214 82q-79 77 -196 137q130 187 317 187q239 0 239 -238q-61 -25 -173 -92q47 -76 206 -76h110v-247zM570 1025l-145 -137l-142 142l147 135zM537 503q-9 57 -71 57q-55 0 -152 -46
l122 -77z" />
    <glyph glyph-name="uniFED1" unicode="&#x641;" horiz-adv-x="1301" arabic-form="isolated" 
d="M1212 496q0 -129 -30 -341q-173 -123 -680 -123q-268 0 -360 38q-133 55 -133 232q0 159 111 333h9q34 0 45 -30q-52 -85 -52 -164q0 -119 147 -149q71 -14 348 -14q367 0 484 60v92q-68 -28 -152 -28q-140 0 -216 63q0 198 73 327q51 87 120 126q156 0 230 -141
q56 -108 56 -281zM1090 596q-64 137 -173 137q-28 0 -51 -38q-21 -34 -21 -64q0 -53 146 -53q72 0 99 18zM1084 1142l-131 -123l-128 128l133 122z" />
    <glyph glyph-name="uniFED2" unicode="&#x641;" horiz-adv-x="1301" arabic-form="final" 
d="M1316 32h-62q-139 0 -275 111q-91 -64 -150 -81q-101 -30 -323 -30q-270 0 -363 38q-137 55 -137 232q0 159 111 333h9q34 0 45 -30q-52 -85 -52 -164q0 -119 128 -149q62 -14 304 -14q227 0 298 21q-109 99 -109 242q0 109 91 221q80 97 117 97q52 0 130 -67
q103 -88 103 -216q0 -72 -32 -155q-27 -70 -60 -111q48 -31 151 -31h76v-247zM1049 483q0 40 -31.5 76t-70.5 36q-32 0 -61 -45q-26 -42 -26 -76q0 -63 110 -117q28 13 53.5 54t25.5 72zM1090 1133l-131 -123l-128 128l133 122z" />
    <glyph glyph-name="uniFED3" unicode="&#x641;" horiz-adv-x="666" arabic-form="initial" 
d="M589 496q0 -129 -30 -347q-78 -54 -236 -88q-135 -29 -254 -29h-99v247h132q270 0 376 59v92q-68 -28 -152 -28q-140 0 -216 63q0 199 72 327q51 87 121 126q156 0 230 -141q56 -108 56 -281zM467 596q-33 73 -92 110q-43 27 -81 27q-28 0 -51 -38q-21 -34 -21 -64
q0 -53 146 -53q72 0 99 18zM455 1144l-130 -124l-128 129l132 122z" />
    <glyph glyph-name="uniFED4" unicode="&#x641;" horiz-adv-x="700" arabic-form="medial" 
d="M726 32h-91q-141 0 -275 111q-92 -65 -131 -81q-68 -30 -167 -30h-82v247h88q104 0 162 20q-110 99 -110 242q0 109 92 221q79 97 117 97q52 0 131 -67q101 -88 101 -216q0 -73 -31 -155q-26 -68 -60 -111q48 -31 151 -31h105v-247zM430 483q0 40 -31.5 76t-71.5 36
q-32 0 -60 -45q-26 -41 -26 -76q0 -62 110 -117q28 13 53.5 54t25.5 72zM474 1135l-130 -124l-128 129l132 122z" />
    <glyph glyph-name="uniFED5" unicode="&#x642;" horiz-adv-x="1134" arabic-form="isolated" 
d="M1062 136q0 -72 -13 -192q-16 -138 -36 -184q-70 -70 -223 -141q-207 -96 -405 -96q-170 0 -265 82q-102 87 -102 254q0 88 40 220q42 140 100 221q45 -3 56 -29q-65 -138 -65 -258q0 -246 287 -246q118 0 271 51q159 51 247 122v113q-72 -19 -145 -19q-155 0 -254 88
q0 142 53 268q62 144 171 209q283 -37 283 -463zM923 250q-46 135 -177 152q-51 -37 -70 -111q44 -65 162 -65q56 0 85 24zM1023 859l-133 -125l-130 131l136 123zM694 842l-133 -126l-131 132l136 122z" />
    <glyph glyph-name="uniFED6" unicode="&#x642;" horiz-adv-x="1201" arabic-form="final" 
d="M1223 32h-159q-18 -210 -45 -272q-70 -71 -223 -141q-207 -97 -405 -97q-170 0 -265 82q-102 87 -102 255q0 88 40 219q42 141 100 222q45 -3 56 -29q-65 -138 -65 -259q0 -245 287 -245q118 0 271 50q159 51 247 123v113q-72 -20 -145 -20q-155 0 -254 88q0 143 53 269
q62 144 171 208q232 -30 273 -319h165v-247zM929 249q-46 135 -177 152q-51 -37 -70 -110q44 -65 162 -65q56 0 85 23zM1022 858l-133 -125l-131 132l137 122zM693 841l-133 -126l-131 133l136 121z" />
    <glyph glyph-name="uniFED7" unicode="&#x642;" horiz-adv-x="660" arabic-form="initial" 
d="M589 496q0 -129 -30 -347q-78 -54 -236 -88q-135 -29 -254 -29h-99v247h132q270 0 376 59v92q-68 -28 -152 -28q-140 0 -216 63q0 199 72 327q51 87 121 126q156 0 230 -141q56 -108 56 -281zM467 596q-33 73 -92 110q-43 27 -81 27q-28 0 -51 -38q-21 -34 -21 -64
q0 -53 146 -53q72 0 99 18zM564 1145l-124 -125l-126 111l-115 -116l-133 116l125 127l126 -113l115 118z" />
    <glyph glyph-name="uniFED8" unicode="&#x642;" horiz-adv-x="700" arabic-form="medial" 
d="M716 32h-81q-141 0 -275 111q-92 -65 -131 -81q-68 -30 -167 -30h-82v247h88q104 0 162 20q-110 99 -110 242q0 109 92 221q79 97 117 97q52 0 131 -67q101 -88 101 -216q0 -73 -31 -155q-26 -68 -60 -111q48 -31 151 -31h95v-247zM430 483q0 40 -31.5 76t-71.5 36
q-32 0 -60 -45q-26 -41 -26 -76q0 -62 110 -117q28 13 53.5 54t25.5 72zM574 1145l-124 -125l-126 111l-115 -116l-133 116l125 127l126 -113l115 118z" />
    <glyph glyph-name="uniFED9" unicode="&#x643;" horiz-adv-x="1255" arabic-form="isolated" 
d="M821 34q-261 -2 -312 -2q-269 0 -363 38q-137 55 -137 232q0 159 111 333h9q34 0 45 -30q-52 -85 -52 -164q0 -114 129 -145q72 -18 303 -18h326q80 0 118 57v192q0 121 -27 290q-29 176 -73 276l168 146l129 -263h-63v-642q-19 -119 -78 -201q-72 -102 -179 -102h-54v3z
M756 852l-48 -59q-36 10 -74 12q-85 -4 -92 -47q5 -17 33 -27q69 -16 144 -33q54 -17 59 -70q-4 -84 -85 -121q-80 -36 -190 -36h-133q12 51 59 74h121q43 0 80 9.5t40 28.5q-4 21 -15 21h-3q-66 7 -149 20q-68 17 -74 85q3 62 76.5 120.5t172.5 61.5q61 0 78 -27q2 -2 2 -5
t-2 -7z" />
    <glyph glyph-name="uniFEDA" unicode="&#x643;" horiz-adv-x="1300" arabic-form="final" 
d="M848 34q-283 -2 -339 -2q-269 0 -363 38q-137 55 -137 232q0 159 111 333h9q34 0 45 -30q-52 -85 -52 -164q0 -114 129 -145q72 -18 303 -18h336q89 0 122 37v288q0 306 -71 469l165 173q32 -52 43 -127q12 -82 12 -285v-286q0 -153 18 -205q22 -64 94 -64h47v-246h-55
q-136 0 -171 161q-39 -161 -192 -161h-54v2zM756 852l-48 -59q-36 10 -74 12q-85 -4 -92 -47q5 -17 33 -27q69 -16 144 -33q54 -17 59 -70q-4 -84 -85 -121q-80 -36 -190 -36h-133q12 51 59 74h121q43 0 80 9.5t40 28.5q-4 21 -15 21h-3q-66 7 -149 20q-68 17 -74 85
q3 62 76.5 120.5t172.5 61.5q61 0 78 -27q2 -2 2 -5t-2 -7z" />
    <glyph glyph-name="uniFEDB" unicode="&#x643;" horiz-adv-x="599" arabic-form="initial" 
d="M782 1248l-102 -241q-292 -91 -530 -209q241 -79 341 -261q1 -26 1 -51q0 -160 -39 -292q-143 -161 -388 -161h-73v246h77q136 0 174 6q88 12 156 65q-79 180 -350 289q8 192 30 320q142 79 349 167q238 102 354 122z" />
    <glyph glyph-name="uniFEDC" unicode="&#x643;" horiz-adv-x="999" arabic-form="medial" 
d="M1019 33h-75q-99 0 -189 70q-50 39 -128.5 139.5t-125.5 137.5q2 -10 2 -24q0 -47 -20 -137q-60 -92 -172 -141q-102 -45 -221 -45h-99v246h126q227 0 305 74q-107 180 -355 293q5 180 29 306q392 221 748 297l-108 -232q-130 -31 -326 -112q-155 -64 -230 -104
q140 -53 324 -194q71 -55 169 -156q92 -94 130 -122q69 -50 143 -50h73v-246z" />
    <glyph glyph-name="uniFEDD" unicode="&#x644;" horiz-adv-x="957" arabic-form="isolated" 
d="M905 965h-73q12 -271 12 -638q0 -108 -1 -224q-6 -48 -28 -123q-25 -85 -48 -114q-70 -66 -176 -121q-162 -84 -322 -84q-257 0 -257 250q0 164 107 395q39 -2 63 -23q-39 -86 -39 -207q0 -177 185 -177q174 0 376 119v351q0 187 -26 387q-29 222 -75 329l164 147z" />
    <glyph glyph-name="uniFEDE" unicode="&#x644;" horiz-adv-x="999" arabic-form="final" 
d="M1023 32h-94q-85 0 -125 92q-23 -178 -69 -269q-45 -56 -148 -112q-152 -82 -323 -82q-257 0 -257 250q0 164 107 395q39 -2 63 -23q-39 -86 -39 -207q0 -177 185 -177q174 0 353 105v521q0 366 -79 544l168 175q58 -72 58 -327v-447q0 -86 14 -125q23 -67 92 -67h94
v-246z" />
    <glyph glyph-name="uniFEDF" unicode="&#x644;" horiz-adv-x="501" arabic-form="initial" 
d="M430 977h-63v-642q-19 -119 -78 -201q-72 -102 -179 -102h-124v247h129q81 0 118 56v203q0 121 -27 280q-29 175 -73 276l168 146z" />
    <glyph glyph-name="uniFEE0" unicode="&#x644;" horiz-adv-x="501" arabic-form="medial" 
d="M523 32h-85q-136 0 -171 161q-40 -161 -192 -161h-84v247h71q90 0 123 37v288q0 286 -71 449l164 173q33 -53 44 -127q11 -82 11 -286v-265q0 -154 18 -205q23 -64 95 -64h77v-247z" />
    <glyph glyph-name="uniFEE1" unicode="&#x645;" horiz-adv-x="949" arabic-form="isolated" 
d="M872 371q-8 -69 -74 -187q-61 -108 -112 -159q-281 98 -420 98q-69 0 -123 -19q22 -167 37 -574l-132 -156q0 407 -36 687q97 171 174 236q23 10 128 31q-19 58 -19 97q0 8 1 16q58 87 169 227q333 -12 407 -297zM737 238q-24 96 -95 161q-76 68 -171 68q-33 0 -66 -10
l40 -138q143 -19 292 -81z" />
    <glyph glyph-name="uniFEE2" unicode="&#x645;" horiz-adv-x="901" arabic-form="final" 
d="M919 32h-39q-53 0 -126 39q3 -21 3 -43q0 -85 -49 -166q-57 -93 -137 -93q-120 0 -195 151q-62 124 -62 257q-92 0 -195 -52q45 -159 45 -378q0 -86 -4 -239l-116 -135q-2 419 -41 667q37 172 84 266q120 78 235 88l19 110q5 27 13 27q6 0 22 -12q105 -86 235 -155
q162 -87 251 -87h57v-245zM686 101q-156 56 -281 154q0 -86 39 -170q49 -105 123 -105q87 0 119 121z" />
    <glyph glyph-name="uniFEE3" unicode="&#x645;" horiz-adv-x="699" arabic-form="initial" 
d="M631 260q-80 -194 -164 -256q-149 0 -296 146q-65 -118 -147 -118h-54v247h80q34 0 105 126q87 156 141 211q182 0 261 -88q74 -84 74 -268zM494 184q2 18 2 34q0 171 -182 209q-51 -35 -70 -104q70 -97 250 -139z" />
    <glyph glyph-name="uniFEE4" unicode="&#x645;" horiz-adv-x="799" arabic-form="medial" 
d="M834 32h-54q-58 0 -103 42q-29 26 -72 96q-85 -157 -189 -187q-113 21 -178 87q-32 32 -72 111q-85 -149 -141 -149h-35v247h30q46 0 99 65q29 39 108 141q67 85 161 113q112 -19 183 -113q28 -39 100 -140q50 -67 98 -67h65v-246zM532 256q-51 99 -197 168
q-43 -39 -72 -87q15 -57 71 -111q51 -51 111 -73q70 34 87 103z" />
    <glyph glyph-name="uniFEE5" unicode="&#x646;" horiz-adv-x="1100" arabic-form="isolated" 
d="M1038 61q0 -112 -59 -304q-78 -91 -214 -157q-169 -82 -361 -82q-233 0 -333 125q-64 79 -64 195q0 168 192 445q5 2 11 2q43 0 54 -36q-101 -162 -101 -276q0 -110 91 -166q74 -46 192 -46q159 0 305 58q131 51 173 111q-39 207 -165 330l98 246q65 -76 120 -203
q61 -140 61 -242zM702 620l-145 -137l-142 142l147 135z" />
    <glyph glyph-name="uniFEE6" unicode="&#x646;" horiz-adv-x="1201" arabic-form="final" 
d="M1228 32h-88q-48 0 -115 36q1 -12 1 -26q0 -103 -43 -285q-78 -91 -214 -157q-169 -82 -361 -82q-233 0 -333 125q-64 79 -64 195q0 168 192 445q5 2 11 2q43 0 54 -36q-101 -162 -101 -276q0 -110 91 -166q74 -46 192 -46q159 0 305 58q131 51 173 111q-39 207 -165 330
l95 237q89 -125 130 -162q62 -57 138 -57h102v-246zM706 620l-145 -137l-142 142l147 135z" />
    <glyph glyph-name="uniFEE7" unicode="&#x646;" horiz-adv-x="501" arabic-form="initial" 
d="M419 418q-31 -191 -86 -259q-102 -127 -284 -127h-58v247h94q195 0 195 58q0 41 -102 178l139 189q102 -137 102 -286zM347 971l-144 -137l-143 142l148 135z" />
    <glyph glyph-name="uniFEE8" unicode="&#x646;" horiz-adv-x="501" arabic-form="medial" 
d="M529 32h-74q-73 0 -136 64q-58 59 -73 134q-10 -69 -76 -132q-69 -66 -137 -66h-43v247h34q91 0 143 81q42 65 42 148h77q0 -96 40 -157q47 -72 139 -72h64v-247zM367 881l-145 -137l-142 142l147 135z" />
    <glyph glyph-name="uniFEE9" unicode="&#x647;" horiz-adv-x="700" arabic-form="isolated" 
d="M616 386q0 -142 -55 -280q-86 -74 -221 -74q-163 0 -266 105q0 222 129 404l-52 22l73 222q163 -44 244 -103q148 -106 148 -296zM527 302q0 74 -85 142q-72 58 -151 75q-76 -125 -96 -209q66 -68 180 -68q102 0 152 60z" />
    <glyph glyph-name="uniFEEA" unicode="&#x647;" horiz-adv-x="900" arabic-form="final" 
d="M917 32h-150q-157 0 -214 261q-28 -106 -81 -178q-283 0 -375 127q37 138 65 216q110 98 315 175q-7 34 -31 97l107 160q48 -69 72 -238q33 -223 42 -254q34 -119 113 -119h137v-247zM545 328l-39 200q-139 -29 -260 -138q54 -66 221 -66q42 0 78 4z" />
    <glyph glyph-name="uniFEEB" unicode="&#x647;" horiz-adv-x="901" arabic-form="initial" 
d="M811 467q3 -32 3 -63q0 -124 -50 -230q-34 -73 -73 -109q-184 24 -341 92q-201 -125 -301 -125h-55v246h180q-95 67 -95 136q0 120 242 203l-106 62l22 254q106 -66 214 -144q241 -175 360 -322zM719 323q-30 45 -178 165q3 -20 3 -39q0 -111 -66 -146q136 -52 202 -69
q34 28 39 89zM432 535q-28 5 -51 5q-91 0 -141 -96q40 -71 136 -100q76 48 76 117q0 34 -20 74z" />
    <glyph glyph-name="uniFEEC" unicode="&#x647;" horiz-adv-x="900" arabic-form="medial" 
d="M924 32h-46q-85 0 -159 -21q-99 -27 -130 -81q49 -104 186 -156l-80 -257q-432 152 -522 531q-55 -16 -129 -16h-74v247h176q-8 46 -8 96q0 105 34 221q42 147 111 186q232 -70 259 -586q-79 -83 -230 -116q20 -55 72 -108t107 -78q11 69 46 148q38 86 83 130
q110 107 249 107h55v-247zM433 330q-35 152 -132 207q-56 -67 -56 -199q0 -28 2 -57q118 0 186 49z" />
    <glyph glyph-name="uniFEED" unicode="&#x648;" horiz-adv-x="700" arabic-form="isolated" 
d="M605 154q0 -318 -273 -639q-75 0 -181 34q-101 32 -167 76q189 77 304 167q135 106 220 265q-76 -28 -157 -28q-149 0 -251 87q0 203 87 343q59 94 135 135q107 0 186 -98q97 -120 97 -342zM470 246q-25 55 -67 99q-51 55 -100 55q-26 0 -55 -45q-25 -38 -32 -69
q10 -29 71 -46q45 -13 89 -13q57 0 94 19z" />
    <glyph glyph-name="uniFEEE" unicode="&#x648;" horiz-adv-x="700" arabic-form="final" 
d="M470 247q-25 55 -67 99q-51 55 -101 55q-25 0 -55 -45q-25 -38 -31 -69q10 -29 71 -47q45 -12 89 -12q57 0 94 19zM596 33q-38 -253 -264 -517q-76 0 -181 34q-102 32 -167 76q213 86 327 182q103 85 177 225q-297 0 -388 84q0 203 87 343q59 94 134 135q89 0 162 -71
q88 -86 113 -245h116v-246h-116z" />
    <glyph glyph-name="uniFEEF" unicode="&#x649;" horiz-adv-x="1252" arabic-form="isolated" 
d="M1194 720l-109 -241q-51 19 -96 19q-151 0 -243 -218q4 -33 101 -61l177 -50q94 -37 94 -91q0 -127 -76 -333q-330 -196 -676 -196q-160 0 -252 73q-100 80 -100 236q0 100 49 242q40 118 94 209h9q39 0 59 -32q-72 -134 -72 -266q0 -217 285 -217q118 0 293 41
q189 45 279 102q-75 53 -230 87q-126 28 -166 87q0 49 37 180q129 459 403 459q66 0 140 -30z" />
    <glyph glyph-name="uniFEF0" unicode="&#x649;" horiz-adv-x="1101" arabic-form="final" 
d="M1122 32h-44q-39 0 -116.5 23t-117.5 23q-71 0 -98 -51q29 -21 170 -64q29 -9 65 -30q48 -27 48 -49q0 -46 -29 -132q-27 -82 -55 -124q-370 -116 -608 -116q-100 0 -195 47q-140 69 -140 210q0 205 162 441q38 0 58 -29q-27 -46 -50 -120q-23 -78 -23 -128
q0 -182 299 -182q251 0 475 35q-48 37 -168 74q-98 31 -115 68q33 158 74 234q69 132 187 132q29 0 86.5 -7.5t86.5 -7.5h48v-247z" />
    <glyph glyph-name="uniFEF1" unicode="&#x64a;" horiz-adv-x="1252" arabic-form="isolated" 
d="M1194 720l-109 -241q-51 19 -96 19q-151 0 -243 -218q4 -33 101 -61l177 -50q94 -37 94 -91q0 -127 -76 -333q-330 -196 -676 -196q-160 0 -252 73q-100 80 -100 236q0 100 49 242q40 118 94 209h9q39 0 59 -32q-72 -134 -72 -266q0 -217 285 -217q118 0 293 41
q189 45 279 102q-75 53 -230 87q-126 28 -166 87q0 49 37 180q129 459 403 459q66 0 140 -30zM837 -626l-124 -125l-126 111l-115 -116l-133 116l125 127l126 -113l115 118z" />
    <glyph glyph-name="uniFEF2" unicode="&#x64a;" horiz-adv-x="1128" arabic-form="final" 
d="M1142 32h-54q-39 0 -116.5 23t-117.5 23q-71 0 -98 -51q29 -21 170 -64q29 -9 65 -30q48 -27 48 -49q0 -46 -29 -132q-27 -82 -55 -124q-370 -116 -608 -116q-100 0 -195 47q-140 69 -140 210q0 205 162 441q38 0 58 -29q-27 -46 -50 -120q-23 -78 -23 -128
q0 -182 299 -182q251 0 475 35q-48 37 -168 74q-98 31 -115 68q33 158 74 234q69 132 187 132q29 0 86.5 -7.5t86.5 -7.5h58v-247zM780 -641l-124 -125l-126 111l-115 -116l-133 116l125 127l126 -113l115 118z" />
    <glyph glyph-name="uniFEF3" unicode="&#x64a;" horiz-adv-x="599" arabic-form="initial" 
d="M526 418q-32 -191 -87 -259q-101 -127 -284 -127h-165v247h201q195 0 195 58q0 41 -102 178l139 189q103 -136 103 -286zM524 -210l-125 -124l-126 111l-115 -117l-132 117l124 126l126 -112l115 118z" />
    <glyph glyph-name="uniFEF4" unicode="&#x64a;" horiz-adv-x="501" arabic-form="medial" 
d="M498 -210l-125 -124l-126 111l-115 -117l-132 117l124 126l126 -112l115 118zM519 32h-64q-73 0 -136 64q-58 59 -73 134q-10 -69 -76 -132q-69 -66 -137 -66h-53v247h44q91 0 143 81q42 65 42 148h77q0 -96 40 -157q47 -72 139 -72h54v-247z" />
    <glyph glyph-name=".notdef" horiz-adv-x="748" 
d="M68 0v1365h544v-1365h-544zM136 68h408v1229h-408v-1229z" />
    <glyph glyph-name=".null" horiz-adv-x="0" 
 />
    <glyph glyph-name="nonmarkingreturn" horiz-adv-x="682" 
 />
    <glyph glyph-name="uni00A0" unicode=" " horiz-adv-x="512" 
 />
    <glyph glyph-name="uni00A0" unicode="&#xa0;" horiz-adv-x="512" 
 />
    <glyph glyph-name="exclam" unicode="!" horiz-adv-x="682" 
d="M397 420h-115l-92 921h299zM340 -29q-35 0 -65 13t-52.5 35.5t-35.5 52.5t-13 65q0 34 13 64.5t35.5 53t52.5 35.5t65 13q34 0 64.5 -13t53 -35.5t35.5 -53t13 -64.5q0 -35 -13 -65t-35.5 -52.5t-53 -35.5t-64.5 -13z" />
    <glyph glyph-name="quotedbl" unicode="&#x22;" horiz-adv-x="1137" 
d="M653 1341h258l-78 -481h-104zM227 1341h258l-78 -481h-104z" />
    <glyph glyph-name="numbersign" unicode="#" 
d="M741 411l-76 -411h-143l76 411h-270l-74 -411h-146l76 411h-157v123h182l53 287h-235v123h258l73 397h144l-74 -397h270l74 397h143l-74 -397h156v-123h-178l-51 -287h229v-123h-256zM405 821l-53 -287h270l54 287h-271z" />
    <glyph glyph-name="dollar" unicode="$" 
d="M466 -20q-56 1 -113.5 7.5t-110 16.5t-96.5 22t-73 25v320h93l36 -186q15 -20 44.5 -38.5t66.5 -33t77 -24.5t76 -11v488q-69 27 -136.5 58.5t-121 80t-86.5 122.5t-33 187q0 73 27 132.5t76.5 103t119 70.5t154.5 34v129h102v-127q81 -3 162.5 -15.5t143.5 -27.5v-279
h-91l-32 143q-29 29 -79 51.5t-104 27.5v-415q47 -19 94.5 -39t92 -44.5t83 -57t67 -76.5t45 -102.5t16.5 -134.5q0 -86 -27 -157t-78 -123t-125 -84t-168 -39v-140h-102v136zM752 330q0 45 -14.5 76.5t-39.5 54t-58.5 38t-71.5 29.5v-451q89 16 136.5 79.5t47.5 173.5z
M303 1067q0 -43 12.5 -72.5t34.5 -50.5t52 -36t64 -29v375q-79 -12 -121 -61.5t-42 -125.5z" />
    <glyph glyph-name="percent" unicode="%" horiz-adv-x="2048" 
d="M640 -20h-150l948 1382h151zM861 995q0 -179 -80.5 -275.5t-249.5 -96.5q-161 0 -241 95t-80 277q0 178 80.5 272.5t246.5 94.5q159 0 241.5 -92t82.5 -275zM645 995q0 65 -5.5 116t-19 86t-35.5 53t-54 18t-52.5 -18t-32.5 -53t-16.5 -86t-4.5 -116q0 -66 4.5 -117.5
t16.5 -87.5t32.5 -55t52.5 -19t54 19t35.5 55t19 87.5t5.5 117.5zM1856 346q0 -180 -80 -276.5t-249 -96.5q-161 0 -241.5 95t-80.5 278q0 178 81 272.5t247 94.5q159 0 241 -92t82 -275zM1641 346q0 65 -5.5 116t-19 86t-35.5 53t-54 18t-52.5 -18t-32.5 -53t-16.5 -86
t-4.5 -116q0 -66 4.5 -117.5t16.5 -87.5t32.5 -55t52.5 -19t54 19t35.5 55t19 87.5t5.5 117.5z" />
    <glyph glyph-name="ampersand" unicode="&#x26;" horiz-adv-x="1706" 
d="M1043 1073q0 -70 -24 -120t-64 -87t-92.5 -63.5t-110.5 -49.5l380 -343q31 79 43.5 159t15.5 148l-111 26v64h477v-64l-110 -26q-12 -40 -27 -91t-35.5 -107.5t-48.5 -116t-66 -116.5l220 -198l116 -25v-63h-384l-119 110q-80 -59 -189 -94.5t-254 -35.5
q-142 0 -244.5 24.5t-168.5 72.5t-97.5 118t-31.5 161q0 90 28.5 154t73.5 109.5t100.5 75t109.5 50.5q-27 31 -50 66t-40 74.5t-26.5 84.5t-9.5 97q0 58 20 111.5t65 94.5t116.5 65t175.5 24q101 0 170 -23t112 -62.5t61.5 -92t18.5 -111.5zM660 86q114 0 197 33t142 87
l-477 444q-25 -17 -48 -40t-41 -56.5t-28.5 -79t-10.5 -107.5q0 -143 71 -212t195 -69zM554 1089q0 -42 8 -76t22 -63.5t34 -55t43 -50.5q30 16 54.5 35t42 47t26.5 67t9 96q0 173 -112 173q-68 0 -97.5 -43.5t-29.5 -129.5z" />
    <glyph glyph-name="quotesingle" unicode="'" horiz-adv-x="569" 
d="M156 1341h258l-78 -481h-104z" />
    <glyph glyph-name="parenleft" unicode="(" horiz-adv-x="682" 
d="M363 494q0 -122 8.5 -241.5t35.5 -226t76.5 -196t132.5 -152.5v-114q-134 71 -232.5 154.5t-164 193t-97.5 252t-32 331.5q0 188 32 329.5t97.5 250.5t164 192t232.5 154v-114q-83 -63 -132.5 -152t-76.5 -195.5t-35.5 -225t-8.5 -240.5z" />
    <glyph glyph-name="parenright" unicode=")" horiz-adv-x="682" 
d="M66 -436v114q82 63 132 152.5t77 196t35.5 226t8.5 241.5t-8.5 240.5t-35.5 225t-77 195.5t-132 152v114q133 -71 232 -154t164.5 -192t97.5 -250.5t32 -329.5q0 -189 -32 -331.5t-97.5 -252t-164.5 -193t-232 -154.5z" />
    <glyph glyph-name="asterisk" unicode="*" 
d="M556 895l73 -316h-233l70 320l-287 -236l-94 213l307 88l-307 90l94 213l287 -233l-70 317h233l-73 -317l288 227l95 -209l-312 -88l312 -86l-95 -211z" />
    <glyph glyph-name="plus" unicode="+" horiz-adv-x="1167" 
d="M655 608v-405h-143v405h-404v143h404v406h143v-406h405v-143h-405z" />
    <glyph glyph-name="comma" unicode="," horiz-adv-x="512" 
d="M434 106q0 -71 -22.5 -134.5t-71.5 -118t-126.5 -98t-186.5 -72.5v92q57 17 95.5 41.5t62 51t34 52.5t10.5 45q0 20 -11 33.5t-28 24t-36.5 21t-36.5 26.5t-28 39t-11 59q0 65 45 99t114 34q38 0 73.5 -12.5t63 -37.5t44 -61t16.5 -84z" />
    <glyph glyph-name="uni00AD" unicode="-" horiz-adv-x="1099" 
d="M203 195v174h696v-174h-696z" />
    <glyph glyph-name="uni00AD" unicode="&#xad;" horiz-adv-x="1099" 
d="M203 195v174h696v-174h-696z" />
    <glyph glyph-name="period" unicode="." horiz-adv-x="512" 
d="M256 -29q-35 0 -65 13t-52.5 35.5t-35.5 52.5t-13 65q0 34 13 64.5t35.5 53t52.5 35.5t65 13q34 0 64.5 -13t53 -35.5t35.5 -53t13 -64.5q0 -35 -13 -65t-35.5 -52.5t-53 -35.5t-64.5 -13z" />
    <glyph glyph-name="slash" unicode="/" horiz-adv-x="569" 
d="M121 -20h-141l470 1369h140z" />
    <glyph glyph-name="zero" unicode="0" 
d="M946 676q0 -168 -26.5 -298t-80.5 -218.5t-137 -134t-196 -45.5q-212 0 -320 178t-108 518q0 333 108 509.5t328 176.5q212 0 322 -174.5t110 -511.5zM653 676q0 139 -7 248t-24 184t-44.5 114t-69.5 39t-68.5 -39t-41.5 -114t-21 -184t-6 -248q0 -140 6 -250.5t21 -187
t41.5 -117.5t68.5 -41t69.5 41t44.5 117.5t24 187t7 250.5z" />
    <glyph glyph-name="one" unicode="1" 
d="M685 110l233 -24v-86h-754v86l232 24v1011l-231 -76v85l378 222h142v-1242z" />
    <glyph glyph-name="two" unicode="2" 
d="M936 0h-850v189q86 92 159 164.5t132.5 135t105.5 119t76.5 117t46.5 129.5t16 157q0 61 -16 106.5t-42.5 76t-61.5 45.5t-74 15q-62 0 -99 -13t-68 -39l-43 -194h-87v305q80 18 156.5 30.5t166.5 12.5q221 0 338.5 -91t117.5 -259q0 -80 -19 -144.5t-55.5 -121.5
t-90.5 -111t-124.5 -114t-156.5 -130t-186 -159h658v-226z" />
    <glyph glyph-name="three" unicode="3" 
d="M954 365q0 -91 -33 -162.5t-96.5 -121t-155.5 -75.5t-210 -26q-102 0 -197 11.5t-173 28.5l-12 325h92l52 -215q32 -18 79.5 -33.5t102.5 -15.5q66 0 114 22t80 61t47.5 93t15.5 118q0 72 -18 120.5t-49 78t-73.5 43t-90.5 16.5l-116 7v121l112 8q89 6 131.5 65.5
t42.5 179.5q0 61 -14.5 106t-40 75t-61.5 44.5t-78 14.5q-54 0 -88.5 -16.5t-65.5 -35.5l-43 -194h-87v305q36 9 72 17t75 13.5t82 9t93 3.5q221 0 336 -81t115 -249q0 -63 -16.5 -117.5t-50.5 -96.5t-86.5 -70.5t-124.5 -39.5q172 -21 255 -105t83 -232z" />
    <glyph glyph-name="four" unicode="4" 
d="M852 265v-265h-269v265h-555v163l604 920h220v-878h134v-205h-134zM583 867q0 26 1 55t2.5 57.5t3 54t3.5 45.5l-399 -609h389v397z" />
    <glyph glyph-name="five" unicode="5" 
d="M480 793q115 0 202.5 -23t146.5 -71t89.5 -122.5t30.5 -177.5q0 -95 -29 -172t-89 -132t-151.5 -85t-215.5 -30q-102 0 -197 11.5t-173 28.5l-12 325h92l52 -215q16 -9 39 -18t49.5 -15.5t55 -11t55.5 -4.5q63 0 106.5 22.5t71 63t40 97t12.5 125.5q0 75 -13 132t-42 95
t-75.5 57t-114.5 19q-30 0 -53.5 -3.5t-42 -9.5t-34.5 -13t-31 -13h-100v688h700v-223h-589v-352q18 4 39 8.5t47.5 8.5t59.5 7t74 3z" />
    <glyph glyph-name="six" unicode="6" 
d="M964 416q0 -104 -27 -185t-80.5 -137t-131.5 -85t-180 -29q-112 0 -200.5 43t-149.5 128.5t-93 213t-32 297.5q0 182 42.5 313t113.5 216t163.5 125t192.5 40q78 0 157.5 -12t143.5 -31v-305h-87l-43 194q-32 24 -70.5 38t-80.5 14q-46 0 -86.5 -30t-71.5 -90
t-51.5 -151.5t-26.5 -214.5q51 22 103.5 34.5t112.5 12.5q87 0 157.5 -24.5t120.5 -74t77 -124.5t27 -176zM541 81q73 0 101 79t28 237q0 85 -13 141.5t-34.5 90.5t-49.5 47.5t-58 13.5q-46 0 -80 -6t-71 -17v-5q0 -140 10 -248t31.5 -182t55 -112.5t80.5 -38.5z" />
    <glyph glyph-name="seven" unicode="7" 
d="M204 958h-87v383h857v-79l-521 -1262h-239l565 1118h-529z" />
    <glyph glyph-name="eight" unicode="8" 
d="M925 1011q0 -110 -54 -187.5t-152 -112.5q53 -20 97 -52t75 -75.5t48 -99t17 -122.5q0 -190 -109.5 -286t-340.5 -96q-219 0 -328.5 94.5t-109.5 287.5q0 66 16.5 121.5t47 99t73.5 76t97 52.5q-97 37 -150 114t-53 189q0 79 26.5 143.5t78.5 110t130 70t180 24.5
q99 0 175.5 -24.5t129 -70.5t79.5 -110.5t27 -145.5zM672 362q0 71 -8.5 125.5t-28 92t-51 57t-78.5 19.5q-46 0 -75.5 -19.5t-47 -57t-24.5 -92t-7 -125.5q0 -68 7 -120.5t24.5 -88t47 -54t75.5 -18.5q47 0 78.5 18.5t51 54t28 88t8.5 120.5zM641 1011q0 54 -6 100
t-21.5 79.5t-41 52t-64.5 18.5q-38 0 -62 -18.5t-38 -52t-19.5 -79.5t-5.5 -100q0 -58 5.5 -104t19.5 -78t38 -49t62 -17q39 0 64.5 17t41 49t21.5 78t6 104z" />
    <glyph glyph-name="nine" unicode="9" 
d="M56 932q0 103 30.5 182.5t88 133t139.5 81t184 27.5q116 0 201.5 -40t141 -123.5t82.5 -212.5t27 -306q0 -194 -43.5 -326.5t-117 -214t-170 -117.5t-201.5 -36q-92 0 -166 11t-145 32v305h87l43 -194q35 -25 83.5 -39t93.5 -14q47 0 88 25.5t72.5 82.5t52 147.5
t26.5 221.5q-48 -17 -99 -27t-108 -10q-87 0 -158.5 26.5t-123 78t-80 128.5t-28.5 178zM350 928q0 -78 11.5 -132.5t32 -88.5t49 -49.5t63.5 -15.5q76 0 150 18v14q0 289 -34.5 435t-121.5 146q-78 0 -114 -84t-36 -243z" />
    <glyph glyph-name="colon" unicode=":" horiz-adv-x="682" 
d="M333 -29q-35 0 -65.5 13t-52.5 35.5t-34.5 52.5t-12.5 65q0 34 12.5 64.5t34.5 53t52.5 35.5t65.5 13t65 -13t52.5 -35.5t35.5 -53t13 -64.5q0 -35 -13 -65t-35.5 -52.5t-52.5 -35.5t-65 -13zM333 628q-35 0 -65.5 13t-52.5 35.5t-34.5 52.5t-12.5 65t12.5 65.5t34.5 53
t52.5 35t65.5 12.5t65 -12.5t52.5 -35t35.5 -53t13 -65.5t-13 -65t-35.5 -52.5t-52.5 -35.5t-65 -13z" />
    <glyph glyph-name="uni037E" unicode=";" horiz-adv-x="682" 
d="M335 628q-35 0 -65.5 13t-52.5 35.5t-34.5 52.5t-12.5 65t12.5 65.5t34.5 53t52.5 35t65.5 12.5t65 -12.5t52.5 -35t35.5 -53t13 -65.5t-13 -65t-35.5 -52.5t-52.5 -35.5t-65 -13zM514 106q0 -71 -22.5 -134.5t-71.5 -118t-126.5 -98t-187.5 -72.5v92q57 17 96 41.5
t62.5 51t34 52.5t10.5 45q0 20 -11.5 33.5t-28.5 24t-37 21t-37 26.5t-28.5 39t-11.5 59q0 32 12.5 57t34 42t51 25.5t64.5 8.5q37 0 72 -12.5t63 -37.5t45 -61t17 -84z" />
    <glyph glyph-name="uni037E" unicode="&#x37e;" horiz-adv-x="682" 
d="M335 628q-35 0 -65.5 13t-52.5 35.5t-34.5 52.5t-12.5 65t12.5 65.5t34.5 53t52.5 35t65.5 12.5t65 -12.5t52.5 -35t35.5 -53t13 -65.5t-13 -65t-35.5 -52.5t-52.5 -35.5t-65 -13zM514 106q0 -71 -22.5 -134.5t-71.5 -118t-126.5 -98t-187.5 -72.5v92q57 17 96 41.5
t62.5 51t34 52.5t10.5 45q0 20 -11.5 33.5t-28.5 24t-37 21t-37 26.5t-28.5 39t-11.5 59q0 32 12.5 57t34 42t51 25.5t64.5 8.5q37 0 72 -12.5t63 -37.5t45 -61t17 -84z" />
    <glyph glyph-name="less" unicode="&#x3c;" horiz-adv-x="1167" 
d="M102 635v90l952 468v-143l-767 -370l767 -371v-143z" />
    <glyph glyph-name="equal" unicode="=" horiz-adv-x="1167" 
d="M1054 547v-144h-952v144h952zM1054 956v-143h-952v143h952z" />
    <glyph glyph-name="greater" unicode="&#x3e;" horiz-adv-x="1167" 
d="M104 166v143l768 371l-768 370v143l952 -468v-90z" />
    <glyph glyph-name="question" unicode="?" 
d="M445 -29q-35 0 -65.5 13t-52.5 35.5t-34.5 52.5t-12.5 65q0 34 12.5 64.5t34.5 53t52.5 35.5t65.5 13t65 -13t52.5 -35.5t35.5 -53t13 -64.5q0 -35 -13 -65t-35.5 -52.5t-52.5 -35.5t-65 -13zM491 390h-103l-57 313l95 25q38 10 72 26.5t59.5 46.5t40.5 76.5t15 116.5
t-12 119.5t-37.5 81t-64.5 45.5t-94 14q-48 0 -84.5 -12t-64.5 -30l-43 -194h-89v295q77 20 154.5 31.5t169.5 11.5q225 0 339.5 -88.5t114.5 -266.5q0 -67 -18 -128t-55 -111t-93 -87.5t-131 -58.5l-87 -24z" />
    <glyph glyph-name="at" unicode="@" horiz-adv-x="1905" 
d="M1798 752q0 -103 -28.5 -197t-78 -174.5t-117.5 -146.5t-147 -112.5t-166.5 -71.5t-175.5 -25q-65 0 -95.5 34t-32.5 91q-25 -21 -52.5 -43.5t-60.5 -40.5t-71.5 -29.5t-86.5 -11.5q-43 0 -77.5 18t-58.5 51.5t-37 81t-13 107.5q0 70 16.5 143t49.5 141.5t82.5 129.5
t115.5 108q51 37 99.5 60t99 36t105 18t116.5 5q48 0 98 -3.5t85 -7.5l-121 -541q-5 -20 -9 -42t-7 -43.5t-5 -40.5t-2 -31q0 -23 8.5 -39.5t41.5 -16.5q53 0 99 24.5t84 67t67.5 99.5t49.5 123t30.5 137t10.5 141q0 124 -37.5 219.5t-107.5 160.5t-168.5 98.5t-221.5 33.5
t-229 -32.5t-194 -92t-155.5 -142t-114.5 -182.5t-71 -214.5t-24 -236.5q0 -128 36.5 -245t111.5 -206.5t188.5 -142.5t267.5 -53q91 0 168.5 14t143.5 38t122.5 56t106.5 67l44 -64q-56 -45 -119 -84t-138 -68.5t-164 -46.5t-195 -17q-184 0 -325.5 58.5t-237.5 160.5
t-145 239t-49 293q0 143 33 273t94.5 241t148.5 201.5t195.5 154t235.5 98t269 34.5q178 0 312 -43.5t223.5 -123.5t134.5 -193t45 -252zM740 316q0 -72 21.5 -109.5t49.5 -37.5q20 0 42 6.5t43 16.5t39 22t30 23l120 561q-7 2 -26.5 3.5t-34.5 1.5q-49 0 -92.5 -13.5
t-79.5 -56.5q-20 -24 -40 -67t-36 -98.5t-26 -120t-10 -131.5z" />
    <glyph glyph-name="A" unicode="A" horiz-adv-x="1479" 
d="M428 73v-73h-408v73l100 27l477 1252h290l475 -1252l102 -27v-73h-597v73l155 27l-128 347h-515l-123 -347zM641 1150l-221 -593h436z" />
    <glyph glyph-name="B" unicode="B" horiz-adv-x="1366" 
d="M878 1010q0 57 -11.5 98.5t-37.5 69t-67.5 40.5t-100.5 13h-139v-467h147q61 0 101.5 17t64.5 48.5t33.5 77t9.5 103.5zM979 391q0 133 -66.5 198t-217.5 65h-173v-544q48 -2 92 -3q37 -2 75 -2.5t60 -0.5q63 0 107 20t71 57t39.5 90t12.5 120zM34 0v73l173 27v1142
l-173 26v73h651q149 0 249 -21t160.5 -60t86 -95t25.5 -127q0 -67 -22.5 -121t-60.5 -94.5t-88 -67t-105 -38.5q99 -10 170.5 -37t118 -69t68.5 -97.5t22 -122.5q0 -87 -31 -160t-98.5 -125.5t-173 -82t-254.5 -29.5q-120 0 -238 3t-218 3h-262z" />
    <glyph glyph-name="C" unicode="C" horiz-adv-x="1479" 
d="M815 -20q-169 0 -301.5 46t-224.5 133t-140.5 212.5t-48.5 283.5q0 180 48.5 312t140 218.5t224 128.5t301.5 42q143 0 264.5 -20.5t218.5 -46.5l6 -322h-90l-28 194q-63 43 -142 66.5t-165 23.5q-105 0 -188 -30.5t-140.5 -100.5t-87.5 -183t-30 -279q0 -146 30 -254
t86 -179t137.5 -106.5t184.5 -35.5q113 0 197.5 30t132.5 71l32 220h91l-6 -340q-43 -17 -101.5 -32t-125 -26.5t-137.5 -18.5t-138 -7z" />
    <glyph glyph-name="D" unicode="D" horiz-adv-x="1479" 
d="M1047 670q0 157 -29.5 264.5t-86.5 173.5t-141 94.5t-194 28.5h-74v-1117q24 -2 43.5 -3t39 -2.5t41 -2t50.5 -0.5q100 0 167 32.5t108 101.5t58.5 175.5t17.5 254.5zM673 1341q162 0 292.5 -34.5t222.5 -112.5t141.5 -204.5t49.5 -311.5q0 -164 -38 -291t-119 -214
t-206.5 -132t-300.5 -45q-57 0 -120 0.5t-123 1.5t-113.5 1.5t-92.5 0.5h-230v73l172 27v1142l-172 26v73h637z" />
    <glyph glyph-name="E" unicode="E" horiz-adv-x="1366" 
d="M35 73l172 27v1142l-172 26v73h1142v-341h-91l-32 217q-32 4 -77.5 7t-92.5 4.5t-89 2t-65 0.5h-208v-492h351l31 148h89v-412h-89l-31 152h-351v-517h253q62 0 117 1.5t99 3.5t75.5 5t46.5 6l57 248h91l-19 -374h-1207v73z" />
    <glyph glyph-name="F" unicode="F" horiz-adv-x="1251" 
d="M522 572v-472l223 -27v-73h-697v73l159 27v1142l-172 26v73h1118v-361h-94l-32 237q-21 3 -53.5 5t-70 4t-77 2.5t-75 1.5t-64.5 1h-44h-121v-549h327l31 170h89v-452h-89l-31 172h-327z" />
    <glyph glyph-name="G" unicode="G" horiz-adv-x="1593" 
d="M1406 70q-58 -19 -129.5 -35.5t-148.5 -28.5t-155 -19t-150 -7q-159 0 -292 43.5t-228.5 129t-149 211.5t-53.5 291q0 176 52 307.5t148.5 219t234 131t307.5 43.5q87 0 158.5 -7t133.5 -19t117 -27.5t111 -31.5v-308h-90l-24 174q-35 24 -77 45t-89.5 36.5t-99 24
t-104.5 8.5q-102 0 -184 -28.5t-140.5 -97t-90 -183t-31.5 -285.5q0 -116 18 -203t49 -151t73.5 -106.5t91 -67.5t101.5 -35.5t105 -10.5q57 0 115 9.5t106 25.5v388l-172 26v74h618v-74l-131 -26v-436z" />
    <glyph glyph-name="H" unicode="H" horiz-adv-x="1593" 
d="M35 0v74l172 26v1141l-172 27v73h659v-73l-172 -27v-496h548v496l-172 27v73h661v-73l-173 -27v-1141l173 -26v-74h-661v74l172 26v535h-548v-535l172 -26v-74h-659z" />
    <glyph glyph-name="I" unicode="I" horiz-adv-x="797" 
d="M556 100l172 -26v-74h-659v74l172 26v1141l-172 27v73h659v-73l-172 -27v-1141z" />
    <glyph glyph-name="J" unicode="J" 
d="M501 1242l-172 26v73h639v-73l-152 -26v-810q0 -91 -20 -160t-54 -119t-79 -83.5t-96.5 -53.5t-106 -28t-106.5 -8q-34 0 -70.5 2t-71.5 6t-66.5 9.5t-54.5 12.5v304h89l30 -179q19 -23 54 -36t77 -13q69 0 114.5 48t45.5 142v966z" />
    <glyph glyph-name="K" unicode="K" horiz-adv-x="1593" 
d="M1469 1341v-73l-164 -26l-443 -391l590 -751l125 -27v-73h-438l-501 646l-116 -100v-446l193 -27v-73h-680v73l172 27v1142l-172 26v73h660v-73l-173 -26v-546l611 546l-123 26v73h459z" />
    <glyph glyph-name="L" unicode="L" horiz-adv-x="1366" 
d="M729 1268l-207 -26v-1136h273q125 0 204 7t109 13l82 279h90l-38 -405h-1207v73l172 27v1142l-171 26v73h693v-73z" />
    <glyph glyph-name="M" unicode="M" horiz-adv-x="1933" 
d="M882 0h-55l-495 1133v-1033l180 -27v-73h-477v73l172 27v1142l-172 26v73h527l383 -882l391 882h538v-73l-172 -26v-1142l172 -27v-73h-667v73l180 27v1033z" />
    <glyph glyph-name="N" unicode="N" horiz-adv-x="1479" 
d="M1155 1242l-180 26v73h477v-73l-172 -26v-1242h-117l-827 1078v-978l180 -27v-73h-477v73l172 27v1142l-172 26v73h459l657 -857v758z" />
    <glyph glyph-name="O" unicode="O" horiz-adv-x="1593" 
d="M432 672q0 -140 17 -250t59 -186t112.5 -116t176.5 -40t176 40t112 116t59 186t17 250q0 139 -17 248t-59 183t-112 113t-176 39t-176.5 -39t-112.5 -113t-59 -183t-17 -248zM100 672q0 178 46 307t135 213t218.5 124t297.5 40q162 0 291 -40t219 -124t138 -213t48 -307
t-48 -308.5t-138 -215.5t-219 -126.5t-291 -41.5t-291 41.5t-219.5 126.5t-138.5 215.5t-48 308.5z" />
    <glyph glyph-name="P" unicode="P" horiz-adv-x="1251" 
d="M871 944q0 80 -14 135t-45.5 88.5t-83 48.5t-126.5 15h-79v-595h83q76 0 126.5 19.5t81.5 58t44 96t13 134.5zM523 526v-426l223 -27v-73h-698v73l159 27v1142l-172 26v73h591q168 0 277.5 -30.5t174 -84t90 -125.5t25.5 -155q0 -82 -21.5 -158t-77 -134t-150.5 -93
t-241 -35h-180z" />
    <glyph glyph-name="Q" unicode="Q" horiz-adv-x="1593" 
d="M100 672q0 178 46 307t135 213t218.5 124t297.5 40q162 0 291 -40t219 -124t138 -213t48 -307q0 -128 -25 -231.5t-73 -183t-117.5 -135.5t-158.5 -90l50 -61q43 -54 80 -89.5t68 -56.5t56.5 -29.5t47.5 -8.5q52 0 82 8v-86q-11 -5 -36.5 -11.5t-58.5 -13.5t-70 -11.5
t-71 -4.5q-81 0 -141 16.5t-110 49.5t-95.5 82.5t-97.5 115.5l-38 48q-159 1 -286 43.5t-215.5 127.5t-136 214.5t-47.5 306.5zM432 672q0 -140 17 -250t59 -186t112.5 -116t176.5 -40t176 40t112 116t59 186t17 250q0 139 -17 248t-59 183t-112 113t-176 39t-176.5 -39
t-112.5 -113t-59 -183t-17 -248z" />
    <glyph glyph-name="R" unicode="R" horiz-adv-x="1479" 
d="M523 568v-468l172 -27v-73h-647v73l159 27v1142l-172 26v73h641q168 0 281 -27.5t181 -77t97 -118.5t29 -152q0 -63 -14 -120t-45.5 -105t-83 -85t-127.5 -60l358 -496l145 -27v-73h-434l-374 568h-166zM952 964q0 80 -16 131.5t-51 81.5t-90 42t-132 12h-140v-553h145
q79 0 133.5 16t88 50.5t48 88.5t14.5 131z" />
    <glyph glyph-name="S" unicode="S" horiz-adv-x="1139" 
d="M109 411h88l45 -215q21 -24 53 -44.5t72 -36.5t85.5 -25t92.5 -9q78 0 133 17.5t89 48.5t49.5 74.5t15.5 95.5q0 60 -30.5 99t-81 67t-114.5 49.5t-131.5 45.5t-131.5 55t-114.5 78.5t-81 115.5t-30.5 167q0 177 120.5 269.5t352.5 92.5q49 0 99.5 -3.5t98.5 -9.5t92 -14
t82 -16v-319h-89l-45 184q-44 32 -101 53t-137 21q-68 0 -116.5 -13.5t-79.5 -37.5t-45 -58t-14 -76q0 -54 31 -90t81 -62t114.5 -47t132 -45.5t132 -56t114.5 -79t81 -115.5t31 -165q0 -98 -28 -177t-89 -134.5t-156 -85.5t-230 -30q-65 0 -129 6t-121.5 16t-106.5 23
t-83 26v360z" />
    <glyph glyph-name="T" unicode="T" horiz-adv-x="1366" 
d="M310 0v73l213 27v1135h-51q-131 0 -208 -6t-114 -14l-27 -249h-91v375h1303v-375h-92l-27 249q-37 8 -123.5 13t-204.5 5h-49v-1133l213 -27v-73h-742z" />
    <glyph glyph-name="U" unicode="U" horiz-adv-x="1479" 
d="M838 122q82 0 141.5 24.5t98 68t56.5 104.5t18 134v789l-180 26v73h456v-73l-152 -26v-781q0 -89 -24.5 -175t-83.5 -154t-159 -109.5t-250 -41.5q-140 0 -244 33.5t-173.5 96.5t-104 153.5t-34.5 204.5v773l-152 26v73h639v-73l-172 -26v-787q0 -76 19 -137.5t58 -105
t99.5 -67t143.5 -23.5z" />
    <glyph glyph-name="V" unicode="V" horiz-adv-x="1479" 
d="M1456 1341v-73l-127 -27l-518 -1272h-133l-545 1272l-110 27v73h583v-73l-139 -27l377 -879l352 879l-135 27v73h395z" />
    <glyph glyph-name="W" unicode="W" horiz-adv-x="2048" 
d="M1899 1242l-398 -1273h-123l-334 827l-331 -827h-123l-444 1273l-117 26v73h602v-73l-157 -26l286 -799l314 784h125l315 -782l237 797l-169 26v73h434v-73z" />
    <glyph glyph-name="X" unicode="X" horiz-adv-x="1479" 
d="M330 100l166 -27v-73h-458v73l148 27l431 548l-384 594l-151 26v73h653v-73l-170 -26l234 -362l285 362l-166 26v73h459v-73l-148 -26l-365 -463l439 -679l152 -27v-73h-653v73l170 27l-290 447z" />
    <glyph glyph-name="Y" unicode="Y" horiz-adv-x="1479" 
d="M911 528v-428l213 -27v-73h-742v73l213 27v422l-408 720l-151 26v73h690v-73l-180 -26l306 -562l296 562l-164 26v73h456v-73l-142 -26z" />
    <glyph glyph-name="Z" unicode="Z" horiz-adv-x="1366" 
d="M98 114l742 1121h-240q-131 0 -207 -6t-113 -14l-31 -211h-89v337h1036v-106l-747 -1131h280q65 0 126.5 3.5t112.5 9t89 11t56 9.5l59 256h90l-27 -393h-1137v114z" />
    <glyph glyph-name="bracketleft" unicode="[" horiz-adv-x="682" 
d="M152 -274v1695h456v-67l-203 -41v-1479l203 -41v-67h-456z" />
    <glyph glyph-name="backslash" unicode="\" horiz-adv-x="569" 
d="M-20 1349h140l470 -1369h-141z" />
    <glyph glyph-name="bracketright" unicode="]" horiz-adv-x="682" 
d="M74 -274v67l203 41v1479l-203 41v67h456v-1695h-456z" />
    <glyph glyph-name="asciicircum" unicode="^" horiz-adv-x="1190" 
d="M925 389l-330 761l-330 -761h-143l428 952h90l428 -952h-143z" />
    <glyph glyph-name="underscore" unicode="_" 
d="M-16 -285v144h1056v-144h-1056z" />
    <glyph glyph-name="grave" unicode="`" horiz-adv-x="682" 
d="M452 1118l-364 268v37h285l165 -273v-32h-86z" />
    <glyph glyph-name="a" unicode="a" 
d="M546 961q77 0 142 -13t112 -43.5t73 -80.5t26 -123v-611l94 -24v-66h-346l-22 72q-19 -13 -44.5 -29t-58.5 -30t-74 -23.5t-91 -9.5q-82 0 -137.5 21t-89.5 58.5t-49 89t-15 111.5q0 97 34 155t91.5 89.5t134 41.5t162.5 12l122 3v137q0 83 -34 126.5t-105 43.5
q-55 0 -100.5 -15.5t-87.5 -36.5l-38 -117h-66v227q46 7 87.5 13t84.5 11t90.5 8t104.5 3zM610 472l-84 -3q-44 -2 -76 -12t-53.5 -33.5t-32 -61.5t-10.5 -96q0 -85 30 -125t78 -40t82 10.5t66 24.5v336z" />
    <glyph glyph-name="b" unicode="b" horiz-adv-x="1139" 
d="M763 497q0 102 -13 170.5t-38 110t-61.5 59t-82.5 17.5q-38 0 -83 -8.5t-74 -25.5v-719q32 -8 74.5 -12t82.5 -4q54 0 91 27t60.5 79.5t33.5 129.5t10 176zM122 1333l-96 23v65h385v-345q0 -37 -2.5 -89t-7.5 -100q22 18 52.5 32t66 24.5t72.5 16t72 5.5q105 0 179 -28.5
t121.5 -86.5t69.5 -146t22 -208q0 -114 -28.5 -208.5t-85.5 -163t-143.5 -106.5t-202.5 -38q-96 0 -218.5 19.5t-255.5 48.5v1285z" />
    <glyph glyph-name="c" unicode="c" horiz-adv-x="909" 
d="M858 57q-24 -19 -56.5 -33t-71 -23.5t-79.5 -14.5t-81 -5q-134 0 -229 33.5t-155 96.5t-88 154t-28 207q0 129 37 222.5t100.5 153.5t147.5 88.5t177 28.5q86 0 162.5 -10.5t142.5 -24.5v-278h-72l-42 165q-16 12 -31.5 20.5t-33.5 14t-39.5 8t-49.5 2.5q-39 0 -76 -22.5
t-66.5 -69t-47.5 -119.5t-18 -173q0 -84 11.5 -153t40.5 -118t80 -75.5t129 -26.5q65 0 128.5 8t107.5 21v-77z" />
    <glyph glyph-name="d" unicode="d" horiz-adv-x="1139" 
d="M733 53q-23 -15 -45.5 -28.5t-50 -23t-62 -15.5t-80.5 -6q-208 0 -310 119.5t-102 367.5q0 114 25 206t77.5 157t133 100t191.5 35q109 0 220 -27q-2 11 -3 31t-1.5 42.5t-1 44.5t-0.5 37v238l-96 24v66h385v-1331l103 -24v-66h-362zM376 475q0 -110 15 -183.5t40.5 -118
t58.5 -63.5t68 -19q51 0 89.5 12t76.5 31v708q-41 11 -77 16t-81 5q-90 0 -140 -98.5t-50 -289.5z" />
    <glyph glyph-name="e" unicode="e" horiz-adv-x="909" 
d="M494 963q83 0 150 -20t114 -68.5t72.5 -129t25.5 -201.5v-82h-493v-16q0 -67 5.5 -128.5t30 -109t75 -75.5t139.5 -28q59 0 115 9t107 20v-77q-23 -14 -58 -28t-76.5 -24.5t-87.5 -17t-91 -6.5q-121 0 -207 32t-140.5 95t-79.5 155t-25 212q0 246 105.5 367t318.5 121z
M483 862q-36 0 -59 -21t-36.5 -59t-18.5 -93t-5 -122h218q0 67 -2.5 122t-12 93t-29.5 59t-55 21z" />
    <glyph glyph-name="f" unicode="f" horiz-adv-x="682" 
d="M157 836h-142v69l142 39v101q0 99 26 173.5t74.5 124t119 74.5t159.5 25q22 0 45.5 -1.5t46 -4t41.5 -6t33 -7.5v-224h-64l-29 109q-9 9 -24.5 16.5t-38.5 7.5q-22 0 -40.5 -13.5t-31.5 -44t-20.5 -79t-7.5 -118.5v-137h191v-104h-191v-746l153 -24v-66h-544v66l102 24
v746z" />
    <glyph glyph-name="g" unicode="g" 
d="M257 347q-178 75 -178 293q0 80 28.5 140.5t82.5 101.5t132.5 62t177.5 21q32 0 65 -3t61.5 -6.5t50.5 -8t32 -7.5l225 111l35 -43l-114 -162q31 -38 46.5 -91t15.5 -115q0 -81 -28 -142.5t-81.5 -103.5t-132 -63t-179.5 -21q-40 0 -81 3.5t-72 8.5l-24 -76q1 -15 11 -29
t26 -25.5t38 -18.5t48 -7h219q165 0 254 -64t89 -200q0 -62 -24.5 -125t-84.5 -114t-160.5 -83t-252.5 -32q-114 0 -195 17.5t-132.5 47.5t-76 70t-24.5 84q0 29 13.5 54t37.5 48t56.5 44.5t70.5 43.5q-18 7 -42.5 23.5t-46.5 42t-37.5 59.5t-15.5 75zM785 -166q0 47 -33 71
t-94 24h-317q-41 -30 -64.5 -67t-23.5 -78q0 -23 10 -46t36 -41t70.5 -29.5t113.5 -11.5q79 0 136 13.5t94 37.5t54.5 56.5t17.5 70.5zM494 410q74 0 107 57.5t33 172.5t-32.5 169.5t-107.5 54.5q-69 0 -100.5 -54.5t-31.5 -169.5t31 -172.5t101 -57.5z" />
    <glyph glyph-name="h" unicode="h" horiz-adv-x="1139" 
d="M436 1014q0 -15 -0.5 -35.5t-1.5 -42.5t-2 -42.5t-2 -35.5q31 16 68.5 35t79.5 35t86.5 26.5t89.5 10.5q57 0 105 -15t82.5 -48t53.5 -86t19 -128v-598l94 -24v-66h-467v66l84 24v559q0 84 -35.5 131t-101.5 47q-76 0 -152 -34v-703l86 -24v-66h-467v66l92 24v1241
l-96 24v66h385v-407z" />
    <glyph glyph-name="i" unicode="i" horiz-adv-x="569" 
d="M436 90l103 -24v-66h-494v66l102 24v760l-96 24v66h385v-850zM137 1268q0 32 12 60t33 48.5t49 32.5t60 12t60 -12t48.5 -32.5t32.5 -48.5t12 -60t-12 -60t-32.5 -49t-48.5 -33t-60 -12t-60 12t-49 33t-33 49t-12 60z" />
    <glyph glyph-name="j" unicode="j" horiz-adv-x="682" 
d="M553 1268q0 -32 -12 -60t-33 -49t-49 -33t-59 -12q-32 0 -60 12t-49 33t-33 49t-12 60q0 31 12 59t33 49t49 33t60 12q31 0 59 -12t49 -33t33 -49t12 -59zM545 -39q0 -106 -31 -181.5t-84 -123.5t-124 -70t-151 -22q-45 0 -90 5t-82 13v225h64l43 -114q10 -8 20 -13.5
t29 -5.5q22 0 43 13.5t37.5 43.5t26.5 78.5t10 119.5v911l-166 34v66h455v-979z" />
    <glyph glyph-name="k" unicode="k" horiz-adv-x="1139" 
d="M436 451l367 400l-100 23v66h358v-66l-108 -22l-224 -236l323 -526l84 -24v-66h-452v66l55 24l-188 329l-115 -80v-249l93 -24v-66h-471v66l89 24v1241l-96 24v66h385v-970z" />
    <glyph glyph-name="l" unicode="l" horiz-adv-x="569" 
d="M431 90l103 -24v-66h-494v66l102 24v1241l-96 24v66h385v-1331z" />
    <glyph glyph-name="m" unicode="m" horiz-adv-x="1706" 
d="M434 858q31 16 68 35t78 35t84.5 26.5t88.5 10.5q78 0 136 -28.5t88 -93.5q32 19 73.5 40.5t87 39.5t93.5 30t92 12q57 0 104 -15t80.5 -48t51.5 -86t18 -128v-598l94 -24v-66h-467v66l84 24v559q0 84 -32.5 131t-98.5 47q-36 0 -78.5 -11.5t-81.5 -30.5q5 -21 7.5 -45.5
t2.5 -51.5v-598l94 -24v-66h-467v66l84 24v559q0 84 -32.5 131t-98.5 47q-37 0 -75.5 -11t-75.5 -28v-698l86 -24v-66h-467v66l92 24v760l-92 24v66h365z" />
    <glyph glyph-name="n" unicode="n" horiz-adv-x="1139" 
d="M434 858q31 16 68 35t78 35t85 26.5t89 10.5q57 0 105 -15t82.5 -48t53.5 -86t19 -128v-598l94 -24v-66h-467v66l84 24v559q0 84 -35.5 131t-101.5 47q-76 0 -152 -34v-703l86 -24v-66h-467v66l92 24v760l-92 24v66h365z" />
    <glyph glyph-name="o" unicode="o" 
d="M946 475q0 -120 -24.5 -212t-77.5 -155t-136.5 -95.5t-201.5 -32.5q-111 0 -192 32t-133.5 95t-77.5 155.5t-25 212.5q0 119 25 210.5t78 153.5t135.5 94t197.5 32q223 0 327.5 -124.5t104.5 -365.5zM653 475q0 97 -6 170t-22 122t-44 73t-73 24q-44 0 -71 -24t-41.5 -73
t-19.5 -122t-5 -170q0 -98 5 -171.5t19.5 -123.5t41.5 -75t71 -25q45 0 73 25t44 75t22 123.5t6 171.5z" />
    <glyph glyph-name="p" unicode="p" horiz-adv-x="1139" 
d="M409 892q22 15 48.5 28.5t58 23t69.5 15.5t84 6q196 0 291.5 -115t95.5 -363q0 -114 -25.5 -207.5t-78.5 -160t-134 -103t-192 -36.5q-54 0 -106 6.5t-108 20.5q1 -11 2.5 -30t2 -40.5t1 -42t0.5 -35.5v-205l138 -24v-66h-529v66l102 24v1196l-103 24v66h381zM763 480
q0 109 -14 181.5t-38 115t-55.5 60t-66.5 17.5q-51 0 -94.5 -11t-76.5 -27v-709q81 -21 169 -21q90 0 133 99t43 295z" />
    <glyph glyph-name="q" unicode="q" horiz-adv-x="1139" 
d="M377 448q0 -102 14 -170.5t39.5 -110t62.5 -59t84 -17.5q38 0 80.5 10.5t71.5 27.5v716q-32 8 -72 12.5t-80 4.5q-54 0 -92 -27.5t-62 -80t-35 -130t-11 -176.5zM1018 -346l102 -24v-66h-529v66l138 24v215q0 37 2.5 89t7.5 100q-44 -35 -106 -56.5t-139 -21.5
q-209 0 -309.5 123.5t-100.5 370.5q0 114 26 204.5t80.5 154.5t138.5 98t200 34q30 0 67 -2.5t75 -6t74 -7.5l63 -7l119 43h91v-1331z" />
    <glyph glyph-name="r" unicode="r" horiz-adv-x="909" 
d="M461 745q26 29 64.5 68t84 74t97 59t104.5 24h54v-343h-56l-59 126q-33 0 -72 -8t-77 -21.5t-73.5 -30t-61.5 -32.5v-571l151 -24v-66h-562v66l122 24v760l-122 24v66h395z" />
    <glyph glyph-name="s" unicode="s" horiz-adv-x="797" 
d="M747 298q0 -74 -22.5 -133t-69 -100t-117.5 -63t-168 -22q-48 0 -97 6t-91 14.5t-73.5 17t-44.5 13.5v256h66l38 -132q15 -15 37 -29.5t49 -26.5t58 -19t64 -7q87 0 129.5 37.5t42.5 95.5q0 32 -12.5 55t-39.5 41t-68.5 34t-99.5 34q-48 15 -96 37.5t-85.5 58.5t-61 89
t-23.5 130q0 68 26.5 120t72.5 87.5t108 54t133 18.5q70 0 140.5 -9t136.5 -20v-241h-66l-32 110q-13 13 -33 25t-44.5 21t-51.5 14.5t-52 5.5q-72 0 -106.5 -29.5t-34.5 -80.5q0 -33 14.5 -56t43 -41t69 -33t93.5 -31q55 -17 104 -40.5t85.5 -59t57.5 -84.5t21 -118z" />
    <glyph glyph-name="t" unicode="t" horiz-adv-x="682" 
d="M438 -20q-75 0 -128.5 18t-87.5 49.5t-50 75t-16 94.5v619h-123v65l145 39l117 213h150v-213h198v-104h-198v-601q0 -65 27 -98t71 -33q34 0 67.5 5t62.5 11v-85q-14 -10 -41 -20t-59.5 -17.5t-68 -12.5t-66.5 -5z" />
    <glyph glyph-name="u" unicode="u" horiz-adv-x="1139" 
d="M705 82q-31 -16 -68 -35t-78 -35t-85 -26.5t-89 -10.5q-57 0 -105 15t-82.5 48t-53.5 86t-19 128v598l-94 24v66h383v-649q0 -84 35.5 -131t101.5 -47q76 0 152 34v703l-86 24v66h375v-850l92 -24v-66h-365z" />
    <glyph glyph-name="v" unicode="v" 
d="M956 854l-376 -874h-121l-393 870l-66 24v66h481v-66l-112 -26l241 -536l217 538l-110 24v66h307v-66z" />
    <glyph glyph-name="w" unicode="w" horiz-adv-x="1479" 
d="M874 846l217 -535l182 539l-110 24v66h305v-66l-72 -20l-316 -874h-121l-215 527l-214 -527h-121l-333 870l-70 24v66h465v-66l-112 -26l202 -537l218 535h95z" />
    <glyph glyph-name="x" unicode="x" 
d="M31 875v65h502v-65l-105 -27l137 -211l181 213l-94 25v65h320v-65l-83 -21l-264 -310l298 -458l90 -21v-65h-502v65l105 23l-164 253l-218 -255l94 -21v-65h-320v65l84 16l300 352l-270 417z" />
    <glyph glyph-name="y" unicode="y" 
d="M462 -29l-376 879l-66 24v66h481v-66l-112 -26l221 -520l197 522l-110 24v66h307v-66l-68 -20l-371 -913q-32 -82 -65 -152t-73.5 -121.5t-92.5 -80.5t-121 -29q-28 0 -48.5 1t-39 3.5t-37 6t-40.5 8.5v242h60l43 -126q14 -11 31.5 -17t42.5 -6q41 0 71.5 21t55.5 56.5
t46.5 83t45.5 100.5z" />
    <glyph glyph-name="z" unicode="z" horiz-adv-x="909" 
d="M40 0v45l432 805h-107q-28 0 -55.5 -2.5t-52 -7t-43.5 -11t-29 -14.5l-31 -155h-72v280h730v-49l-432 -801h150q27 0 57.5 3.5t59 9.5t53 14.5t39.5 19.5l53 217h72l-27 -354h-797z" />
    <glyph glyph-name="braceleft" unicode="{" horiz-adv-x="807" 
d="M592 -274q-77 0 -135.5 20.5t-97.5 59t-58.5 92.5t-19.5 122v295q0 58 -14.5 98.5t-42 66.5t-67.5 38.5t-91 14.5v85q102 3 158.5 52.5t56.5 163.5v294q0 141 78 217t233 76h135v-87h-62q-69 0 -98.5 -44t-29.5 -131v-330q0 -50 -15.5 -92t-42.5 -74.5t-64 -54t-80 -30.5
v-3q45 -10 82 -31.5t64 -54t41.5 -74.5t14.5 -93v-334q0 -86 29.5 -130.5t98.5 -44.5h62v-87h-135z" />
    <glyph glyph-name="bar" unicode="|" horiz-adv-x="451" 
d="M154 -442v1863h143v-1863h-143z" />
    <glyph glyph-name="braceright" unicode="}" horiz-adv-x="807" 
d="M80 -274v87h62q69 0 98.5 44.5t29.5 130.5v334q0 51 14.5 93t41.5 74.5t64 54t82 31.5v3q-44 9 -81 30.5t-64 54t-42 74.5t-15 92v330q0 87 -29.5 131t-98.5 44h-62v87h135q155 0 233 -76t78 -217v-294q0 -114 56.5 -163.5t158.5 -52.5v-85q-51 -2 -91 -14.5t-67.5 -38.5
t-42 -66.5t-14.5 -98.5v-295q0 -68 -19.5 -122t-58.5 -92.5t-97.5 -59t-135.5 -20.5h-135z" />
    <glyph glyph-name="asciitilde" unicode="~" horiz-adv-x="1065" 
d="M761 481q-48 0 -92 18t-84 45t-77 58t-71.5 58t-67 45t-63.5 18q-34 0 -59 -12t-42.5 -40.5t-29 -75t-18.5 -114.5h-141q7 69 21 138t45 123.5t84.5 89t139.5 34.5q39 0 74 -11t67 -28.5t62 -39.5t57 -44q17 -15 40.5 -35t50 -39t53.5 -32t51 -13q33 0 57 13.5t41 42.5
t29 75t20 111h144q-9 -68 -24.5 -137t-47 -124t-84 -89.5t-135.5 -34.5z" />
    <glyph glyph-name="cent" unicode="&#xa2;" 
d="M927 262q-44 -32 -114 -51t-144 -24v-187h-92v187q-129 5 -221.5 40.5t-152 98.5t-87 151.5t-27.5 199.5q0 129 39 222.5t105.5 153.5t154.5 88.5t187 28.5h2v171h92v-175q65 -5 125.5 -13t111.5 -18v-278h-72l-54 165q-26 17 -51 27t-60 15v-754q34 0 70 2t70 6
t64.5 9.5t53.5 11.5v-77zM380 683q0 -72 9.5 -132.5t32 -107.5t60.5 -78.5t95 -44.5v743q-39 -8 -74.5 -34t-62.5 -72.5t-43.5 -114.5t-16.5 -159z" />
    <glyph glyph-name="sterling" unicode="&#xa3;" 
d="M960 223v-223h-873v123q33 30 71 62t69.5 69t52.5 80t21 96q0 45 -16.5 91.5t-39.5 98.5h-163v101h88q-28 63 -47.5 133t-19.5 152q0 168 118.5 259t354.5 91q46 0 85.5 -3.5t76 -9t73 -13.5t76.5 -17v-305h-87l-43 194q-33 20 -78.5 36.5t-102.5 16.5q-91 0 -135 -63
t-44 -186q0 -92 8 -159.5t18 -125.5h251v-101h-238q6 -38 10 -73.5t4 -79.5q0 -84 -27 -142t-63 -103z" />
    <glyph glyph-name="yen" unicode="&#xa5;" 
d="M2 1275v66h499v-66l-112 -26l206 -540l212 542l-110 24v66h325v-66l-86 -20l-257 -616h226v-102h-244v-138h244v-102h-244v-207l143 -24v-66h-574v66l142 24v207h-257v102h257v138h-257v102h233l-262 612z" />
    <glyph glyph-name="brokenbar" unicode="&#xa6;" horiz-adv-x="451" 
d="M154 801v620h142v-620h-142zM154 -442v622h142v-622h-142z" />
    <glyph glyph-name="section" unicode="&#xa7;" 
d="M855 42q0 -66 -22.5 -120.5t-69 -94t-117.5 -61t-168 -21.5q-48 0 -97 6t-91 14.5t-73.5 17t-44.5 13.5v261h66l38 -132q15 -15 37 -30.5t49 -28t58 -20.5t64 -8q81 0 125 37.5t44 95.5q0 47 -22.5 82t-59 63.5t-83.5 53t-96.5 50.5t-96.5 56t-83.5 70t-59 92t-22.5 122
q0 52 16 96.5t45 79t69 59.5t88 39q-37 20 -69.5 45t-57 58t-38.5 75.5t-14 97.5q0 68 26.5 120t72.5 87.5t108 54t133 18.5q70 0 140.5 -9t136.5 -20v-241h-66l-32 110q-13 13 -33 25t-44.5 21t-51.5 14.5t-52 5.5q-72 0 -106.5 -29.5t-34.5 -80.5q0 -46 22.5 -78.5t60 -57
t84.5 -45t96.5 -42.5t97 -48.5t85 -63.5t60 -88t22.5 -121q0 -51 -14 -98t-42 -85.5t-71 -68t-101 -46.5q39 -24 73 -53t60 -65.5t41 -81.5t15 -102zM692 571q0 41 -17 71t-46.5 53.5t-67.5 42t-80 36.5q-32 -4 -60 -17t-49 -32.5t-33 -42.5t-12 -46q0 -40 17.5 -71.5
t47 -57.5t68.5 -48.5t81 -44.5q33 6 61 21.5t48 37.5t31 47t11 51z" />
    <glyph glyph-name="copyright" unicode="&#xa9;" horiz-adv-x="1530" 
d="M88 670q0 96 24.5 184.5t69.5 165.5t107.5 140t139.5 108t165 69.5t184 24.5t184.5 -24.5t165.5 -69.5t140 -108t108 -140t69.5 -165.5t24.5 -184.5t-24.5 -184t-69.5 -165t-108 -139.5t-140 -107.5t-165.5 -69.5t-184.5 -24.5q-144 0 -269.5 54t-219 147.5t-147.5 219
t-54 269.5zM813 254q-99 0 -178 28.5t-134 82t-84.5 129t-29.5 170.5q0 108 29.5 188t85 132.5t134.5 78.5t179 26q82 0 147.5 -9.5t120.5 -20.5l4 -207h-69l-19 105q-41 25 -82 38t-98 13q-66 0 -112 -18.5t-75 -59t-42 -106t-13 -158.5q0 -165 53.5 -248.5t182.5 -83.5
q75 0 119.5 17t75.5 42l22 119h70l-4 -219q-26 -8 -58 -15t-69 -12.5t-76.5 -8.5t-79.5 -3zM778 1278q-125 0 -234.5 -48t-190.5 -130.5t-128 -193t-47 -236.5t47 -236.5t128 -193t190.5 -130t234.5 -47.5q124 0 234 47.5t191.5 130t129 193t47.5 236.5q0 84 -21.5 161.5
t-61 145.5t-94 123t-121.5 95t-144 61.5t-160 21.5z" />
    <glyph glyph-name="guillemotleft" unicode="&#xab;" 
d="M106 496l330 356h101l-183 -389l183 -389h-101l-330 356v66zM516 496l330 356h100l-182 -389l182 -389h-100l-330 356v66z" />
    <glyph glyph-name="registered" unicode="&#xae;" horiz-adv-x="1530" 
d="M1470 670q0 -96 -24.5 -184t-69.5 -165t-108 -139.5t-140 -107.5t-165.5 -69.5t-184.5 -24.5q-144 0 -269.5 54t-219 147.5t-147.5 219t-54 269.5q0 96 24.5 184.5t69.5 165.5t107.5 140t139.5 108t165 69.5t184 24.5t184.5 -24.5t165.5 -69.5t140 -108t108 -140
t69.5 -165.5t24.5 -184.5zM967 276l-230 343h-49v-269l94 -16v-58h-346v58l76 16v660l-84 16v55h350q84 0 143.5 -16t98 -45.5t56.5 -70t18 -89.5q0 -77 -45.5 -135t-133.5 -86l207 -289l70 -16v-58h-225zM911 858q0 48 -13 77t-38.5 44.5t-63.5 21t-89 5.5h-19v-312h23
q104 0 152 36t48 128zM778 1278q-125 0 -234.5 -48t-190.5 -130.5t-128 -193t-47 -236.5t47 -236.5t128 -193t190.5 -130t234.5 -47.5q124 0 234 47.5t191.5 130t129 193t47.5 236.5q0 84 -21.5 161.5t-61 145.5t-94 123t-121.5 95t-144 61.5t-160 21.5z" />
    <glyph glyph-name="guillemotright" unicode="&#xbb;" 
d="M918 430l-330 -356h-101l183 389l-183 389h101l330 -356v-66zM508 430l-330 -356h-100l182 389l-182 389h100l330 -356v-66z" />
    <glyph glyph-name="onequarter" unicode="&#xbc;" horiz-adv-x="1536" 
d="M386 0h-123l965 1341h120zM403 616l140 -14v-67h-457v67l139 14v577l-139 -46v66l227 134h90v-731zM1318 157v-159h-168v159h-327v98l361 552h134v-527h80v-123h-80zM1150 613h-3l-215 -333h218v333z" />
    <glyph glyph-name="onehalf" unicode="&#xbd;" horiz-adv-x="1536" 
d="M389 0h-123l965 1341h120zM396 616l140 -14v-67h-457v67l139 14v577l-139 -46v66l227 134h90v-731zM1457 2h-510v113q77 83 136 141t99 110t60.5 108t20.5 135q0 36 -8.5 62t-23.5 42t-35.5 23.5t-43.5 7.5q-53 0 -90 -31l-26 -116h-62v193q48 11 93.5 18.5t99.5 7.5
q133 0 203.5 -55t70.5 -155q0 -48 -10 -86.5t-29.5 -72t-49.5 -65.5t-70 -67.5t-90 -77t-110 -94.5h375v-141z" />
    <glyph glyph-name="threequarters" unicode="&#xbe;" horiz-adv-x="1536" 
d="M386 0h-123l965 1341h120zM622 754q0 -109 -77 -170t-220 -61q-61 0 -118 6.5t-104 17.5l-7 205h65l32 -132q19 -11 44.5 -18.5t54.5 -7.5q79 0 114 44t35 122q0 43 -11 71.5t-29.5 45t-44 24t-54.5 9.5l-64 4v83l62 4q54 4 79 37t25 105q0 74 -30 104t-81 30
q-26 0 -44.5 -8t-37.5 -20l-26 -119h-62v193q43 11 87.5 18.5t105.5 7.5q133 0 201.5 -49t68.5 -149q0 -76 -39.5 -128.5t-126.5 -66.5q104 -13 153 -62.5t49 -139.5zM1339 157v-159h-168v159h-327v98l361 552h134v-527h80v-123h-80zM1171 613h-3l-215 -333h218v333z" />
    <glyph glyph-name="Agrave" unicode="&#xc0;" horiz-adv-x="1479" 
d="M428 73v-73h-408v73l100 27l477 1252h290l475 -1252l102 -27v-73h-597v73l155 27l-128 347h-515l-123 -347zM641 1150l-221 -593h436zM815 1452l-364 268v37h285l165 -273v-32h-86z" />
    <glyph glyph-name="Aacute" unicode="&#xc1;" horiz-adv-x="1479" 
d="M428 73v-73h-408v73l100 27l477 1252h290l475 -1252l102 -27v-73h-597v73l155 27l-128 347h-515l-123 -347zM641 1150l-221 -593h436zM602 1452v33l166 272h285v-37l-365 -268h-86z" />
    <glyph glyph-name="Acircumflex" unicode="&#xc2;" horiz-adv-x="1479" 
d="M428 73v-73h-408v73l100 27l477 1252h290l475 -1252l102 -27v-73h-597v73l155 27l-128 347h-515l-123 -347zM641 1150l-221 -593h436zM416 1452v33l218 293h213l217 -293v-33h-76l-248 162l-248 -162h-76z" />
    <glyph glyph-name="Adieresis" unicode="&#xc4;" horiz-adv-x="1479" 
d="M428 73v-73h-408v73l100 27l477 1252h290l475 -1252l102 -27v-73h-597v73l155 27l-128 347h-515l-123 -347zM641 1150l-221 -593h436zM905 1464q-25 0 -47 10t-38.5 26.5t-26 38.5t-9.5 46q0 25 9.5 46.5t26 37.5t38.5 25.5t47 9.5t47 -9.5t38 -25.5t25 -37.5t9 -46.5
q0 -24 -9 -46t-25 -38.5t-38 -26.5t-47 -10zM569 1464q-24 0 -46 10t-38.5 26.5t-26.5 38.5t-10 46q0 25 10 46.5t26.5 37.5t38.5 25.5t46 9.5q25 0 46.5 -9.5t37.5 -25.5t25.5 -37.5t9.5 -46.5q0 -24 -9 -46t-25 -38.5t-38 -26.5t-47 -10z" />
    <glyph glyph-name="Ccedilla" unicode="&#xc7;" horiz-adv-x="1479" 
d="M815 -20q-169 0 -301.5 46t-224.5 133t-140.5 212.5t-48.5 283.5q0 180 48.5 312t140 218.5t224 128.5t301.5 42q143 0 264.5 -20.5t218.5 -46.5l6 -322h-90l-28 194q-63 43 -142 66.5t-165 23.5q-105 0 -188 -30.5t-140.5 -100.5t-87.5 -183t-30 -279q0 -146 30 -254
t86 -179t137.5 -106.5t184.5 -35.5q113 0 197.5 30t132.5 71l32 220h91l-6 -340q-43 -17 -101.5 -32t-125 -26.5t-137.5 -18.5t-138 -7zM740 -422q-38 0 -82 8t-78 23v90q34 -9 72 -14t63 -5q51 0 71.5 25t20.5 61q0 44 -31 67.5t-100 28.5l51 195h111l-23 -110
q41 -6 75 -18t58.5 -32.5t38 -49.5t13.5 -68q0 -50 -20 -87.5t-55 -62.5t-82.5 -38t-102.5 -13z" />
    <glyph glyph-name="Egrave" unicode="&#xc8;" horiz-adv-x="1366" 
d="M35 73l172 27v1142l-172 26v73h1142v-341h-91l-32 217q-32 4 -77.5 7t-92.5 4.5t-89 2t-65 0.5h-208v-492h351l31 148h89v-412h-89l-31 152h-351v-517h253q62 0 117 1.5t99 3.5t75.5 5t46.5 6l57 248h91l-19 -374h-1207v73zM794 1452l-364 268v37h285l165 -273v-32h-86z
" />
    <glyph glyph-name="Eacute" unicode="&#xc9;" horiz-adv-x="1366" 
d="M35 73l172 27v1142l-172 26v73h1142v-341h-91l-32 217q-32 4 -77.5 7t-92.5 4.5t-89 2t-65 0.5h-208v-492h351l31 148h89v-412h-89l-31 152h-351v-517h253q62 0 117 1.5t99 3.5t75.5 5t46.5 6l57 248h91l-19 -374h-1207v73zM538 1452v33l166 272h285v-37l-365 -268h-86z
" />
    <glyph glyph-name="Ecircumflex" unicode="&#xca;" horiz-adv-x="1366" 
d="M35 73l172 27v1142l-172 26v73h1142v-341h-91l-32 217q-32 4 -77.5 7t-92.5 4.5t-89 2t-65 0.5h-208v-492h351l31 148h89v-412h-89l-31 152h-351v-517h253q62 0 117 1.5t99 3.5t75.5 5t46.5 6l57 248h91l-19 -374h-1207v73zM358 1452v33l218 293h213l217 -293v-33h-76
l-248 162l-248 -162h-76z" />
    <glyph glyph-name="Edieresis" unicode="&#xcb;" horiz-adv-x="1366" 
d="M35 73l172 27v1142l-172 26v73h1142v-341h-91l-32 217q-32 4 -77.5 7t-92.5 4.5t-89 2t-65 0.5h-208v-492h351l31 148h89v-412h-89l-31 152h-351v-517h253q62 0 117 1.5t99 3.5t75.5 5t46.5 6l57 248h91l-19 -374h-1207v73zM852 1464q-25 0 -47 10t-38.5 26.5t-26 38.5
t-9.5 46q0 25 9.5 46.5t26 37.5t38.5 25.5t47 9.5t47 -9.5t38 -25.5t25 -37.5t9 -46.5q0 -24 -9 -46t-25 -38.5t-38 -26.5t-47 -10zM516 1464q-24 0 -46 10t-38.5 26.5t-26.5 38.5t-10 46q0 25 10 46.5t26.5 37.5t38.5 25.5t46 9.5q25 0 46.5 -9.5t37.5 -25.5t25.5 -37.5
t9.5 -46.5q0 -24 -9 -46t-25 -38.5t-38 -26.5t-47 -10z" />
    <glyph glyph-name="Igrave" unicode="&#xcc;" horiz-adv-x="797" 
d="M556 100l172 -26v-74h-659v74l172 26v1141l-172 27v73h659v-73l-172 -27v-1141zM503 1452l-364 268v37h285l165 -273v-32h-86z" />
    <glyph glyph-name="Iacute" unicode="&#xcd;" horiz-adv-x="797" 
d="M556 100l172 -26v-74h-659v74l172 26v1141l-172 27v73h659v-73l-172 -27v-1141zM238 1452v33l166 272h285v-37l-365 -268h-86z" />
    <glyph glyph-name="Icircumflex" unicode="&#xce;" horiz-adv-x="797" 
d="M556 100l172 -26v-74h-659v74l172 26v1141l-172 27v73h659v-73l-172 -27v-1141zM71 1452v33l218 293h213l217 -293v-33h-76l-248 162l-248 -162h-76z" />
    <glyph glyph-name="Idieresis" unicode="&#xcf;" horiz-adv-x="797" 
d="M556 100l172 -26v-74h-659v74l172 26v1141l-172 27v73h659v-73l-172 -27v-1141zM565 1464q-25 0 -47 10t-38.5 26.5t-26 38.5t-9.5 46q0 25 9.5 46.5t26 37.5t38.5 25.5t47 9.5t47 -9.5t38 -25.5t25 -37.5t9 -46.5q0 -24 -9 -46t-25 -38.5t-38 -26.5t-47 -10zM229 1464
q-24 0 -46 10t-38.5 26.5t-26.5 38.5t-10 46q0 25 10 46.5t26.5 37.5t38.5 25.5t46 9.5q25 0 46.5 -9.5t37.5 -25.5t25.5 -37.5t9.5 -46.5q0 -24 -9 -46t-25 -38.5t-38 -26.5t-47 -10z" />
    <glyph glyph-name="Ntilde" unicode="&#xd1;" horiz-adv-x="1479" 
d="M1155 1242l-180 26v73h477v-73l-172 -26v-1242h-117l-827 1078v-978l180 -27v-73h-477v73l172 27v1142l-172 26v73h459l657 -857v758zM874 1454q-26 0 -49.5 6.5t-45 16t-40.5 22t-37 24.5q-11 8 -25 19t-29.5 21t-31 17t-29.5 7q-19 0 -30.5 -6t-18.5 -20t-11.5 -36
t-8.5 -53h-105q4 56 15 108t35 91.5t63.5 63.5t101.5 24q53 0 95 -21.5t77 -46.5q11 -8 25.5 -18.5t30 -20.5t31 -17t28.5 -7q18 0 29.5 6t19 19.5t11.5 35t9 51.5h105q-4 -56 -15 -107.5t-35 -91.5t-64 -63.5t-101 -23.5z" />
    <glyph glyph-name="Ograve" unicode="&#xd2;" horiz-adv-x="1593" 
d="M432 672q0 -140 17 -250t59 -186t112.5 -116t176.5 -40t176 40t112 116t59 186t17 250q0 139 -17 248t-59 183t-112 113t-176 39t-176.5 -39t-112.5 -113t-59 -183t-17 -248zM100 672q0 178 46 307t135 213t218.5 124t297.5 40q162 0 291 -40t219 -124t138 -213t48 -307
t-48 -308.5t-138 -215.5t-219 -126.5t-291 -41.5t-291 41.5t-219.5 126.5t-138.5 215.5t-48 308.5zM855 1452l-364 268v37h285l165 -273v-32h-86z" />
    <glyph glyph-name="Oacute" unicode="&#xd3;" horiz-adv-x="1593" 
d="M432 672q0 -140 17 -250t59 -186t112.5 -116t176.5 -40t176 40t112 116t59 186t17 250q0 139 -17 248t-59 183t-112 113t-176 39t-176.5 -39t-112.5 -113t-59 -183t-17 -248zM100 672q0 178 46 307t135 213t218.5 124t297.5 40q162 0 291 -40t219 -124t138 -213t48 -307
t-48 -308.5t-138 -215.5t-219 -126.5t-291 -41.5t-291 41.5t-219.5 126.5t-138.5 215.5t-48 308.5zM695 1452v33l166 272h285v-37l-365 -268h-86z" />
    <glyph glyph-name="Ocircumflex" unicode="&#xd4;" horiz-adv-x="1593" 
d="M432 672q0 -140 17 -250t59 -186t112.5 -116t176.5 -40t176 40t112 116t59 186t17 250q0 139 -17 248t-59 183t-112 113t-176 39t-176.5 -39t-112.5 -113t-59 -183t-17 -248zM100 672q0 178 46 307t135 213t218.5 124t297.5 40q162 0 291 -40t219 -124t138 -213t48 -307
t-48 -308.5t-138 -215.5t-219 -126.5t-291 -41.5t-291 41.5t-219.5 126.5t-138.5 215.5t-48 308.5zM473 1452v33l218 293h213l217 -293v-33h-76l-248 162l-248 -162h-76z" />
    <glyph glyph-name="Odieresis" unicode="&#xd6;" horiz-adv-x="1593" 
d="M432 672q0 -140 17 -250t59 -186t112.5 -116t176.5 -40t176 40t112 116t59 186t17 250q0 139 -17 248t-59 183t-112 113t-176 39t-176.5 -39t-112.5 -113t-59 -183t-17 -248zM100 672q0 178 46 307t135 213t218.5 124t297.5 40q162 0 291 -40t219 -124t138 -213t48 -307
t-48 -308.5t-138 -215.5t-219 -126.5t-291 -41.5t-291 41.5t-219.5 126.5t-138.5 215.5t-48 308.5zM971 1464q-25 0 -47 10t-38.5 26.5t-26 38.5t-9.5 46q0 25 9.5 46.5t26 37.5t38.5 25.5t47 9.5t47 -9.5t38 -25.5t25 -37.5t9 -46.5q0 -24 -9 -46t-25 -38.5t-38 -26.5
t-47 -10zM635 1464q-24 0 -46 10t-38.5 26.5t-26.5 38.5t-10 46q0 25 10 46.5t26.5 37.5t38.5 25.5t46 9.5q25 0 46.5 -9.5t37.5 -25.5t25.5 -37.5t9.5 -46.5q0 -24 -9 -46t-25 -38.5t-38 -26.5t-47 -10z" />
    <glyph glyph-name="multiply" unicode="&#xd7;" horiz-adv-x="1167" 
d="M578 578l-325 -324l-101 102l324 326l-324 322l104 104l322 -324l326 324l101 -102l-324 -324l324 -326l-101 -102z" />
    <glyph glyph-name="Ugrave" unicode="&#xd9;" horiz-adv-x="1479" 
d="M838 122q82 0 141.5 24.5t98 68t56.5 104.5t18 134v789l-180 26v73h456v-73l-152 -26v-781q0 -89 -24.5 -175t-83.5 -154t-159 -109.5t-250 -41.5q-140 0 -244 33.5t-173.5 96.5t-104 153.5t-34.5 204.5v773l-152 26v73h639v-73l-172 -26v-787q0 -76 19 -137.5t58 -105
t99.5 -67t143.5 -23.5zM849 1452l-364 268v37h285l165 -273v-32h-86z" />
    <glyph glyph-name="Uacute" unicode="&#xda;" horiz-adv-x="1479" 
d="M838 122q82 0 141.5 24.5t98 68t56.5 104.5t18 134v789l-180 26v73h456v-73l-152 -26v-781q0 -89 -24.5 -175t-83.5 -154t-159 -109.5t-250 -41.5q-140 0 -244 33.5t-173.5 96.5t-104 153.5t-34.5 204.5v773l-152 26v73h639v-73l-172 -26v-787q0 -76 19 -137.5t58 -105
t99.5 -67t143.5 -23.5zM706 1452v33l166 272h285v-37l-365 -268h-86z" />
    <glyph glyph-name="Ucircumflex" unicode="&#xdb;" horiz-adv-x="1479" 
d="M838 122q82 0 141.5 24.5t98 68t56.5 104.5t18 134v789l-180 26v73h456v-73l-152 -26v-781q0 -89 -24.5 -175t-83.5 -154t-159 -109.5t-250 -41.5q-140 0 -244 33.5t-173.5 96.5t-104 153.5t-34.5 204.5v773l-152 26v73h639v-73l-172 -26v-787q0 -76 19 -137.5t58 -105
t99.5 -67t143.5 -23.5zM478 1452v33l218 293h213l217 -293v-33h-76l-248 162l-248 -162h-76z" />
    <glyph glyph-name="Udieresis" unicode="&#xdc;" horiz-adv-x="1479" 
d="M838 122q82 0 141.5 24.5t98 68t56.5 104.5t18 134v789l-180 26v73h456v-73l-152 -26v-781q0 -89 -24.5 -175t-83.5 -154t-159 -109.5t-250 -41.5q-140 0 -244 33.5t-173.5 96.5t-104 153.5t-34.5 204.5v773l-152 26v73h639v-73l-172 -26v-787q0 -76 19 -137.5t58 -105
t99.5 -67t143.5 -23.5zM965 1464q-25 0 -47 10t-38.5 26.5t-26 38.5t-9.5 46q0 25 9.5 46.5t26 37.5t38.5 25.5t47 9.5t47 -9.5t38 -25.5t25 -37.5t9 -46.5q0 -24 -9 -46t-25 -38.5t-38 -26.5t-47 -10zM629 1464q-24 0 -46 10t-38.5 26.5t-26.5 38.5t-10 46q0 25 10 46.5
t26.5 37.5t38.5 25.5t46 9.5q25 0 46.5 -9.5t37.5 -25.5t25.5 -37.5t9.5 -46.5q0 -24 -9 -46t-25 -38.5t-38 -26.5t-47 -10z" />
    <glyph glyph-name="Yacute" unicode="&#xdd;" horiz-adv-x="1479" 
d="M911 528v-428l213 -27v-73h-742v73l213 27v422l-408 720l-151 26v73h690v-73l-180 -26l306 -562l296 562l-164 26v73h456v-73l-142 -26zM643 1452v33l166 272h285v-37l-365 -268h-86z" />
    <glyph glyph-name="agrave" unicode="&#xe0;" 
d="M546 961q77 0 142 -13t112 -43.5t73 -80.5t26 -123v-611l94 -24v-66h-346l-22 72q-19 -13 -44.5 -29t-58.5 -30t-74 -23.5t-91 -9.5q-82 0 -137.5 21t-89.5 58.5t-49 89t-15 111.5q0 97 34 155t91.5 89.5t134 41.5t162.5 12l122 3v137q0 83 -34 126.5t-105 43.5
q-55 0 -100.5 -15.5t-87.5 -36.5l-38 -117h-66v227q46 7 87.5 13t84.5 11t90.5 8t104.5 3zM610 472l-84 -3q-44 -2 -76 -12t-53.5 -33.5t-32 -61.5t-10.5 -96q0 -85 30 -125t78 -40t82 10.5t66 24.5v336zM622 1118l-364 268v37h285l165 -273v-32h-86z" />
    <glyph glyph-name="aacute" unicode="&#xe1;" 
d="M546 961q77 0 142 -13t112 -43.5t73 -80.5t26 -123v-611l94 -24v-66h-346l-22 72q-19 -13 -44.5 -29t-58.5 -30t-74 -23.5t-91 -9.5q-82 0 -137.5 21t-89.5 58.5t-49 89t-15 111.5q0 97 34 155t91.5 89.5t134 41.5t162.5 12l122 3v137q0 83 -34 126.5t-105 43.5
q-55 0 -100.5 -15.5t-87.5 -36.5l-38 -117h-66v227q46 7 87.5 13t84.5 11t90.5 8t104.5 3zM610 472l-84 -3q-44 -2 -76 -12t-53.5 -33.5t-32 -61.5t-10.5 -96q0 -85 30 -125t78 -40t82 10.5t66 24.5v336zM363 1118v33l166 272h285v-37l-365 -268h-86z" />
    <glyph glyph-name="acircumflex" unicode="&#xe2;" 
d="M546 961q77 0 142 -13t112 -43.5t73 -80.5t26 -123v-611l94 -24v-66h-346l-22 72q-19 -13 -44.5 -29t-58.5 -30t-74 -23.5t-91 -9.5q-82 0 -137.5 21t-89.5 58.5t-49 89t-15 111.5q0 97 34 155t91.5 89.5t134 41.5t162.5 12l122 3v137q0 83 -34 126.5t-105 43.5
q-55 0 -100.5 -15.5t-87.5 -36.5l-38 -117h-66v227q46 7 87.5 13t84.5 11t90.5 8t104.5 3zM610 472l-84 -3q-44 -2 -76 -12t-53.5 -33.5t-32 -61.5t-10.5 -96q0 -85 30 -125t78 -40t82 10.5t66 24.5v336zM186 1118v33l218 293h213l217 -293v-33h-76l-248 162l-248 -162h-76z
" />
    <glyph glyph-name="adieresis" unicode="&#xe4;" 
d="M546 961q77 0 142 -13t112 -43.5t73 -80.5t26 -123v-611l94 -24v-66h-346l-22 72q-19 -13 -44.5 -29t-58.5 -30t-74 -23.5t-91 -9.5q-82 0 -137.5 21t-89.5 58.5t-49 89t-15 111.5q0 97 34 155t91.5 89.5t134 41.5t162.5 12l122 3v137q0 83 -34 126.5t-105 43.5
q-55 0 -100.5 -15.5t-87.5 -36.5l-38 -117h-66v227q46 7 87.5 13t84.5 11t90.5 8t104.5 3zM610 472l-84 -3q-44 -2 -76 -12t-53.5 -33.5t-32 -61.5t-10.5 -96q0 -85 30 -125t78 -40t82 10.5t66 24.5v336zM682 1130q-25 0 -47 10t-38.5 26.5t-26 38.5t-9.5 46q0 25 9.5 46.5
t26 37.5t38.5 25.5t47 9.5t47 -9.5t38 -25.5t25 -37.5t9 -46.5q0 -24 -9 -46t-25 -38.5t-38 -26.5t-47 -10zM346 1130q-24 0 -46 10t-38.5 26.5t-26.5 38.5t-10 46q0 25 10 46.5t26.5 37.5t38.5 25.5t46 9.5q25 0 46.5 -9.5t37.5 -25.5t25.5 -37.5t9.5 -46.5q0 -24 -9 -46
t-25 -38.5t-38 -26.5t-47 -10z" />
    <glyph glyph-name="ccedilla" unicode="&#xe7;" horiz-adv-x="909" 
d="M858 57q-24 -19 -56.5 -33t-71 -23.5t-79.5 -14.5t-81 -5q-134 0 -229 33.5t-155 96.5t-88 154t-28 207q0 129 37 222.5t100.5 153.5t147.5 88.5t177 28.5q86 0 162.5 -10.5t142.5 -24.5v-278h-72l-42 165q-16 12 -31.5 20.5t-33.5 14t-39.5 8t-49.5 2.5q-39 0 -76 -22.5
t-66.5 -69t-47.5 -119.5t-18 -173q0 -84 11.5 -153t40.5 -118t80 -75.5t129 -26.5q65 0 128.5 8t107.5 21v-77zM440 -422q-38 0 -82 8t-78 23v90q34 -9 72 -14t63 -5q51 0 71.5 25t20.5 61q0 44 -31 67.5t-100 28.5l51 195h111l-23 -110q41 -6 75 -18t58.5 -32.5t38 -49.5
t13.5 -68q0 -50 -20 -87.5t-55 -62.5t-82.5 -38t-102.5 -13z" />
    <glyph glyph-name="egrave" unicode="&#xe8;" horiz-adv-x="909" 
d="M494 963q83 0 150 -20t114 -68.5t72.5 -129t25.5 -201.5v-82h-493v-16q0 -67 5.5 -128.5t30 -109t75 -75.5t139.5 -28q59 0 115 9t107 20v-77q-23 -14 -58 -28t-76.5 -24.5t-87.5 -17t-91 -6.5q-121 0 -207 32t-140.5 95t-79.5 155t-25 212q0 246 105.5 367t318.5 121z
M483 862q-36 0 -59 -21t-36.5 -59t-18.5 -93t-5 -122h218q0 67 -2.5 122t-12 93t-29.5 59t-55 21zM571 1118l-364 268v37h285l165 -273v-32h-86z" />
    <glyph glyph-name="eacute" unicode="&#xe9;" horiz-adv-x="909" 
d="M494 963q83 0 150 -20t114 -68.5t72.5 -129t25.5 -201.5v-82h-493v-16q0 -67 5.5 -128.5t30 -109t75 -75.5t139.5 -28q59 0 115 9t107 20v-77q-23 -14 -58 -28t-76.5 -24.5t-87.5 -17t-91 -6.5q-121 0 -207 32t-140.5 95t-79.5 155t-25 212q0 246 105.5 367t318.5 121z
M483 862q-36 0 -59 -21t-36.5 -59t-18.5 -93t-5 -122h218q0 67 -2.5 122t-12 93t-29.5 59t-55 21zM358 1118v33l166 272h285v-37l-365 -268h-86z" />
    <glyph glyph-name="ecircumflex" unicode="&#xea;" horiz-adv-x="909" 
d="M494 963q83 0 150 -20t114 -68.5t72.5 -129t25.5 -201.5v-82h-493v-16q0 -67 5.5 -128.5t30 -109t75 -75.5t139.5 -28q59 0 115 9t107 20v-77q-23 -14 -58 -28t-76.5 -24.5t-87.5 -17t-91 -6.5q-121 0 -207 32t-140.5 95t-79.5 155t-25 212q0 246 105.5 367t318.5 121z
M483 862q-36 0 -59 -21t-36.5 -59t-18.5 -93t-5 -122h218q0 67 -2.5 122t-12 93t-29.5 59t-55 21zM154 1118v33l218 293h213l217 -293v-33h-76l-248 162l-248 -162h-76z" />
    <glyph glyph-name="edieresis" unicode="&#xeb;" horiz-adv-x="909" 
d="M494 963q83 0 150 -20t114 -68.5t72.5 -129t25.5 -201.5v-82h-493v-16q0 -67 5.5 -128.5t30 -109t75 -75.5t139.5 -28q59 0 115 9t107 20v-77q-23 -14 -58 -28t-76.5 -24.5t-87.5 -17t-91 -6.5q-121 0 -207 32t-140.5 95t-79.5 155t-25 212q0 246 105.5 367t318.5 121z
M483 862q-36 0 -59 -21t-36.5 -59t-18.5 -93t-5 -122h218q0 67 -2.5 122t-12 93t-29.5 59t-55 21zM642 1130q-25 0 -47 10t-38.5 26.5t-26 38.5t-9.5 46q0 25 9.5 46.5t26 37.5t38.5 25.5t47 9.5t47 -9.5t38 -25.5t25 -37.5t9 -46.5q0 -24 -9 -46t-25 -38.5t-38 -26.5
t-47 -10zM306 1130q-24 0 -46 10t-38.5 26.5t-26.5 38.5t-10 46q0 25 10 46.5t26.5 37.5t38.5 25.5t46 9.5q25 0 46.5 -9.5t37.5 -25.5t25.5 -37.5t9.5 -46.5q0 -24 -9 -46t-25 -38.5t-38 -26.5t-47 -10z" />
    <glyph glyph-name="igrave" unicode="&#xec;" horiz-adv-x="569" 
d="M436 90l103 -24v-66h-494v66l102 24v760l-96 24v66h385v-850zM352 1118l-364 268v37h285l165 -273v-32h-86z" />
    <glyph glyph-name="iacute" unicode="&#xed;" horiz-adv-x="569" 
d="M436 90l103 -24v-66h-494v66l102 24v760l-96 24v66h385v-850zM143 1118v33l166 272h285v-37l-365 -268h-86z" />
    <glyph glyph-name="icircumflex" unicode="&#xee;" horiz-adv-x="569" 
d="M436 90l103 -24v-66h-494v66l102 24v760l-96 24v66h385v-850zM-36 1118v33l218 293h213l217 -293v-33h-76l-248 162l-248 -162h-76z" />
    <glyph glyph-name="idieresis" unicode="&#xef;" horiz-adv-x="569" 
d="M436 90l103 -24v-66h-494v66l102 24v760l-96 24v66h385v-850zM460 1130q-25 0 -47 10t-38.5 26.5t-26 38.5t-9.5 46q0 25 9.5 46.5t26 37.5t38.5 25.5t47 9.5t47 -9.5t38 -25.5t25 -37.5t9 -46.5q0 -24 -9 -46t-25 -38.5t-38 -26.5t-47 -10zM124 1130q-24 0 -46 10
t-38.5 26.5t-26.5 38.5t-10 46q0 25 10 46.5t26.5 37.5t38.5 25.5t46 9.5q25 0 46.5 -9.5t37.5 -25.5t25.5 -37.5t9.5 -46.5q0 -24 -9 -46t-25 -38.5t-38 -26.5t-47 -10z" />
    <glyph glyph-name="ntilde" unicode="&#xf1;" horiz-adv-x="1139" 
d="M434 858q31 16 68 35t78 35t85 26.5t89 10.5q57 0 105 -15t82.5 -48t53.5 -86t19 -128v-598l94 -24v-66h-467v66l84 24v559q0 84 -35.5 131t-101.5 47q-76 0 -152 -34v-703l86 -24v-66h-467v66l92 24v760l-92 24v66h365zM707 1122q-26 0 -49.5 6.5t-45 16t-40.5 22
t-37 24.5q-11 8 -25 19t-29.5 21t-31 17t-29.5 7q-19 0 -30.5 -6t-18.5 -20t-11.5 -36t-8.5 -53h-105q4 56 15 108t35 91.5t63.5 63.5t101.5 24q53 0 95 -21.5t77 -46.5q11 -8 25.5 -18.5t30 -20.5t31 -17t28.5 -7q18 0 29.5 6t19 19.5t11.5 35t9 51.5h105
q-4 -56 -15 -107.5t-35 -91.5t-64 -63.5t-101 -23.5z" />
    <glyph glyph-name="ograve" unicode="&#xf2;" 
d="M946 475q0 -120 -24.5 -212t-77.5 -155t-136.5 -95.5t-201.5 -32.5q-111 0 -192 32t-133.5 95t-77.5 155.5t-25 212.5q0 119 25 210.5t78 153.5t135.5 94t197.5 32q223 0 327.5 -124.5t104.5 -365.5zM653 475q0 97 -6 170t-22 122t-44 73t-73 24q-44 0 -71 -24t-41.5 -73
t-19.5 -122t-5 -170q0 -98 5 -171.5t19.5 -123.5t41.5 -75t71 -25q45 0 73 25t44 75t22 123.5t6 171.5zM591 1118l-364 268v37h285l165 -273v-32h-86z" />
    <glyph glyph-name="oacute" unicode="&#xf3;" 
d="M946 475q0 -120 -24.5 -212t-77.5 -155t-136.5 -95.5t-201.5 -32.5q-111 0 -192 32t-133.5 95t-77.5 155.5t-25 212.5q0 119 25 210.5t78 153.5t135.5 94t197.5 32q223 0 327.5 -124.5t104.5 -365.5zM653 475q0 97 -6 170t-22 122t-44 73t-73 24q-44 0 -71 -24t-41.5 -73
t-19.5 -122t-5 -170q0 -98 5 -171.5t19.5 -123.5t41.5 -75t71 -25q45 0 73 25t44 75t22 123.5t6 171.5zM375 1118v33l166 272h285v-37l-365 -268h-86z" />
    <glyph glyph-name="ocircumflex" unicode="&#xf4;" 
d="M946 475q0 -120 -24.5 -212t-77.5 -155t-136.5 -95.5t-201.5 -32.5q-111 0 -192 32t-133.5 95t-77.5 155.5t-25 212.5q0 119 25 210.5t78 153.5t135.5 94t197.5 32q223 0 327.5 -124.5t104.5 -365.5zM653 475q0 97 -6 170t-22 122t-44 73t-73 24q-44 0 -71 -24t-41.5 -73
t-19.5 -122t-5 -170q0 -98 5 -171.5t19.5 -123.5t41.5 -75t71 -25q45 0 73 25t44 75t22 123.5t6 171.5zM186 1118v33l218 293h213l217 -293v-33h-76l-248 162l-248 -162h-76z" />
    <glyph glyph-name="odieresis" unicode="&#xf6;" 
d="M946 475q0 -120 -24.5 -212t-77.5 -155t-136.5 -95.5t-201.5 -32.5q-111 0 -192 32t-133.5 95t-77.5 155.5t-25 212.5q0 119 25 210.5t78 153.5t135.5 94t197.5 32q223 0 327.5 -124.5t104.5 -365.5zM653 475q0 97 -6 170t-22 122t-44 73t-73 24q-44 0 -71 -24t-41.5 -73
t-19.5 -122t-5 -170q0 -98 5 -171.5t19.5 -123.5t41.5 -75t71 -25q45 0 73 25t44 75t22 123.5t6 171.5zM680 1130q-25 0 -47 10t-38.5 26.5t-26 38.5t-9.5 46q0 25 9.5 46.5t26 37.5t38.5 25.5t47 9.5t47 -9.5t38 -25.5t25 -37.5t9 -46.5q0 -24 -9 -46t-25 -38.5t-38 -26.5
t-47 -10zM344 1130q-24 0 -46 10t-38.5 26.5t-26.5 38.5t-10 46q0 25 10 46.5t26.5 37.5t38.5 25.5t46 9.5q25 0 46.5 -9.5t37.5 -25.5t25.5 -37.5t9.5 -46.5q0 -24 -9 -46t-25 -38.5t-38 -26.5t-47 -10z" />
    <glyph glyph-name="divide" unicode="&#xf7;" horiz-adv-x="1124" 
d="M1038 751v-143h-952v143h952zM561 183q-28 0 -52.5 10.5t-42.5 28.5t-28.5 42.5t-10.5 52.5t10.5 52.5t28.5 42.5t42.5 28.5t52.5 10.5t52.5 -10.5t42.5 -28.5t28.5 -42.5t10.5 -52.5t-10.5 -52.5t-28.5 -42.5t-42.5 -28.5t-52.5 -10.5zM561 909q-28 0 -52.5 10.5
t-42.5 28.5t-28.5 42.5t-10.5 52.5t10.5 52.5t28.5 42.5t42.5 28.5t52.5 10.5t52.5 -10.5t42.5 -28.5t28.5 -42.5t10.5 -52.5t-10.5 -52.5t-28.5 -42.5t-42.5 -28.5t-52.5 -10.5z" />
    <glyph glyph-name="ugrave" unicode="&#xf9;" horiz-adv-x="1139" 
d="M705 82q-31 -16 -68 -35t-78 -35t-85 -26.5t-89 -10.5q-57 0 -105 15t-82.5 48t-53.5 86t-19 128v598l-94 24v66h383v-649q0 -84 35.5 -131t101.5 -47q76 0 152 34v703l-86 24v66h375v-850l92 -24v-66h-365zM631 1118l-364 268v37h285l165 -273v-32h-86z" />
    <glyph glyph-name="uacute" unicode="&#xfa;" horiz-adv-x="1139" 
d="M705 82q-31 -16 -68 -35t-78 -35t-85 -26.5t-89 -10.5q-57 0 -105 15t-82.5 48t-53.5 86t-19 128v598l-94 24v66h383v-649q0 -84 35.5 -131t101.5 -47q76 0 152 34v703l-86 24v66h375v-850l92 -24v-66h-365zM416 1118v33l166 272h285v-37l-365 -268h-86z" />
    <glyph glyph-name="ucircumflex" unicode="&#xfb;" horiz-adv-x="1139" 
d="M705 82q-31 -16 -68 -35t-78 -35t-85 -26.5t-89 -10.5q-57 0 -105 15t-82.5 48t-53.5 86t-19 128v598l-94 24v66h383v-649q0 -84 35.5 -131t101.5 -47q76 0 152 34v703l-86 24v66h375v-850l92 -24v-66h-365zM239 1118v33l218 293h213l217 -293v-33h-76l-248 162
l-248 -162h-76z" />
    <glyph glyph-name="udieresis" unicode="&#xfc;" horiz-adv-x="1139" 
d="M705 82q-31 -16 -68 -35t-78 -35t-85 -26.5t-89 -10.5q-57 0 -105 15t-82.5 48t-53.5 86t-19 128v598l-94 24v66h383v-649q0 -84 35.5 -131t101.5 -47q76 0 152 34v703l-86 24v66h375v-850l92 -24v-66h-365zM735 1130q-25 0 -47 10t-38.5 26.5t-26 38.5t-9.5 46
q0 25 9.5 46.5t26 37.5t38.5 25.5t47 9.5t47 -9.5t38 -25.5t25 -37.5t9 -46.5q0 -24 -9 -46t-25 -38.5t-38 -26.5t-47 -10zM399 1130q-24 0 -46 10t-38.5 26.5t-26.5 38.5t-10 46q0 25 10 46.5t26.5 37.5t38.5 25.5t46 9.5q25 0 46.5 -9.5t37.5 -25.5t25.5 -37.5t9.5 -46.5
q0 -24 -9 -46t-25 -38.5t-38 -26.5t-47 -10z" />
    <glyph glyph-name="yacute" unicode="&#xfd;" 
d="M462 -29l-376 879l-66 24v66h481v-66l-112 -26l221 -520l197 522l-110 24v66h307v-66l-68 -20l-371 -913q-32 -82 -65 -152t-73.5 -121.5t-92.5 -80.5t-121 -29q-28 0 -48.5 1t-39 3.5t-37 6t-40.5 8.5v242h60l43 -126q14 -11 31.5 -17t42.5 -6q41 0 71.5 21t55.5 56.5
t46.5 83t45.5 100.5zM412 1118v33l166 272h285v-37l-365 -268h-86z" />
    <glyph glyph-name="Gbreve" unicode="&#x11e;" horiz-adv-x="1593" 
d="M1406 70q-58 -19 -129.5 -35.5t-148.5 -28.5t-155 -19t-150 -7q-159 0 -292 43.5t-228.5 129t-149 211.5t-53.5 291q0 176 52 307.5t148.5 219t234 131t307.5 43.5q87 0 158.5 -7t133.5 -19t117 -27.5t111 -31.5v-308h-90l-24 174q-35 24 -77 45t-89.5 36.5t-99 24
t-104.5 8.5q-102 0 -184 -28.5t-140.5 -97t-90 -183t-31.5 -285.5q0 -116 18 -203t49 -151t73.5 -106.5t91 -67.5t101.5 -35.5t105 -10.5q57 0 115 9.5t106 25.5v388l-172 26v74h618v-74l-131 -26v-436zM848 1454q-77 0 -133 24.5t-93 67.5t-55.5 102t-19.5 129h101
q17 -83 68 -117t132 -34q40 0 72.5 7.5t57 25t42 46.5t28.5 72h101q-2 -70 -20 -129t-55 -102t-93 -67.5t-133 -24.5z" />
    <glyph glyph-name="gbreve" unicode="&#x11f;" 
d="M257 347q-178 75 -178 293q0 80 28.5 140.5t82.5 101.5t132.5 62t177.5 21q32 0 65 -3t61.5 -6.5t50.5 -8t32 -7.5l225 111l35 -43l-114 -162q31 -38 46.5 -91t15.5 -115q0 -81 -28 -142.5t-81.5 -103.5t-132 -63t-179.5 -21q-40 0 -81 3.5t-72 8.5l-24 -76q1 -15 11 -29
t26 -25.5t38 -18.5t48 -7h219q165 0 254 -64t89 -200q0 -62 -24.5 -125t-84.5 -114t-160.5 -83t-252.5 -32q-114 0 -195 17.5t-132.5 47.5t-76 70t-24.5 84q0 29 13.5 54t37.5 48t56.5 44.5t70.5 43.5q-18 7 -42.5 23.5t-46.5 42t-37.5 59.5t-15.5 75zM785 -166q0 47 -33 71
t-94 24h-317q-41 -30 -64.5 -67t-23.5 -78q0 -23 10 -46t36 -41t70.5 -29.5t113.5 -11.5q79 0 136 13.5t94 37.5t54.5 56.5t17.5 70.5zM494 410q74 0 107 57.5t33 172.5t-32.5 169.5t-107.5 54.5q-69 0 -100.5 -54.5t-31.5 -169.5t31 -172.5t101 -57.5zM509 1120
q-77 0 -133 24.5t-93 67.5t-55.5 102t-19.5 129h101q17 -83 68 -117t132 -34q40 0 72.5 7.5t57 25t42 46.5t28.5 72h101q-2 -70 -20 -129t-55 -102t-93 -67.5t-133 -24.5z" />
    <glyph glyph-name="Idotaccent" unicode="&#x130;" horiz-adv-x="797" 
d="M556 100l172 -26v-74h-659v74l172 26v1141l-172 27v73h659v-73l-172 -27v-1141zM245 1602q0 32 12 60t33 48.5t49 32.5t60 12t60 -12t48.5 -32.5t32.5 -48.5t12 -60t-12 -60t-32.5 -49t-48.5 -33t-60 -12t-60 12t-49 33t-33 49t-12 60z" />
    <glyph glyph-name="dotlessi" unicode="&#x131;" horiz-adv-x="569" 
d="M436 90l103 -24v-66h-494v66l102 24v760l-96 24v66h385v-850z" />
    <glyph glyph-name="Jcircumflex" unicode="&#x134;" 
d="M501 1242l-172 26v73h639v-73l-152 -26v-810q0 -91 -20 -160t-54 -119t-79 -83.5t-96.5 -53.5t-106 -28t-106.5 -8q-34 0 -70.5 2t-71.5 6t-66.5 9.5t-54.5 12.5v304h89l30 -179q19 -23 54 -36t77 -13q69 0 114.5 48t45.5 142v966zM328 1452v33l218 293h213l217 -293v-33
h-76l-248 162l-248 -162h-76z" />
    <glyph glyph-name="jcircumflex" unicode="&#x135;" horiz-adv-x="682" 
d="M545 -39q0 -106 -31 -181.5t-84 -123.5t-124 -70t-151 -22q-45 0 -90 5t-82 13v225h64l43 -114q10 -8 20 -13.5t29 -5.5q22 0 43 13.5t37.5 43.5t26.5 78.5t10 119.5v911l-166 34v66h455v-979zM64 1118v33l218 293h213l217 -293v-33h-76l-248 162l-248 -162h-76z" />
    <glyph glyph-name="Ncaron" unicode="&#x147;" horiz-adv-x="1479" 
d="M1155 1242l-180 26v73h477v-73l-172 -26v-1242h-117l-827 1078v-978l180 -27v-73h-477v73l172 27v1142l-172 26v73h459l657 -857v758zM1063 1778v-33l-218 -293h-213l-217 293v33h76l248 -162l248 162h76z" />
    <glyph glyph-name="ncaron" unicode="&#x148;" horiz-adv-x="1139" 
d="M434 858q31 16 68 35t78 35t85 26.5t89 10.5q57 0 105 -15t82.5 -48t53.5 -86t19 -128v-598l94 -24v-66h-467v66l84 24v559q0 84 -35.5 131t-101.5 47q-76 0 -152 -34v-703l86 -24v-66h-467v66l92 24v760l-92 24v66h365zM901 1444v-33l-218 -293h-213l-217 293v33h76
l248 -162l248 162h76z" />
    <glyph glyph-name="Eng" unicode="&#x14a;" horiz-adv-x="1575" 
d="M1085 985q0 69 -18.5 114.5t-48 71.5t-66.5 36.5t-75 10.5q-70 0 -158.5 -25.5t-191.5 -78.5v-1014l101 -15v-85h-588v74l171 26v1141l-171 27v73h473l14 -122q60 34 115 58.5t108 41t105.5 24.5t106.5 8q104 0 185.5 -22t138 -68.5t86 -119t29.5 -173.5v-536
q0 -137 -37.5 -224.5t-99 -138t-140.5 -70t-163 -19.5q-65 0 -123 8t-100 22v274h89l33 -157q20 -20 44 -30.5t61 -10.5q64 0 92 51t28 145v703z" />
    <glyph glyph-name="eng" unicode="&#x14b;" horiz-adv-x="1139" 
d="M434 858q31 16 68 35t78 35t85 26.5t89 10.5q57 0 103.5 -15t79 -48t50 -86t17.5 -128v-727q0 -106 -31 -181.5t-84 -123.5t-124 -70t-151 -22q-45 0 -90 5t-82 13v225h64l43 -114q10 -8 20 -13.5t29 -5.5q22 0 43 13.5t37.5 43.5t26.5 78.5t10 119.5v720
q0 99 -30.5 138.5t-96.5 39.5q-76 0 -152 -34v-703l86 -24v-66h-467v66l92 24v760l-92 24v66h365z" />
    <glyph glyph-name="Scedilla" unicode="&#x15e;" horiz-adv-x="1139" 
d="M109 411h88l45 -215q21 -24 53 -44.5t72 -36.5t85.5 -25t92.5 -9q78 0 133 17.5t89 48.5t49.5 74.5t15.5 95.5q0 60 -30.5 99t-81 67t-114.5 49.5t-131.5 45.5t-131.5 55t-114.5 78.5t-81 115.5t-30.5 167q0 177 120.5 269.5t352.5 92.5q49 0 99.5 -3.5t98.5 -9.5t92 -14
t82 -16v-319h-89l-45 184q-44 32 -101 53t-137 21q-68 0 -116.5 -13.5t-79.5 -37.5t-45 -58t-14 -76q0 -54 31 -90t81 -62t114.5 -47t132 -45.5t132 -56t114.5 -79t81 -115.5t31 -165q0 -98 -28 -177t-89 -134.5t-156 -85.5t-230 -30q-65 0 -129 6t-121.5 16t-106.5 23
t-83 26v360zM519 -422q-38 0 -82 8t-78 23v90q34 -9 72 -14t63 -5q51 0 71.5 25t20.5 61q0 44 -31 67.5t-100 28.5l51 195h111l-23 -110q41 -6 75 -18t58.5 -32.5t38 -49.5t13.5 -68q0 -50 -20 -87.5t-55 -62.5t-82.5 -38t-102.5 -13z" />
    <glyph glyph-name="scedilla" unicode="&#x15f;" horiz-adv-x="797" 
d="M747 298q0 -74 -22.5 -133t-69 -100t-117.5 -63t-168 -22q-48 0 -97 6t-91 14.5t-73.5 17t-44.5 13.5v256h66l38 -132q15 -15 37 -29.5t49 -26.5t58 -19t64 -7q87 0 129.5 37.5t42.5 95.5q0 32 -12.5 55t-39.5 41t-68.5 34t-99.5 34q-48 15 -96 37.5t-85.5 58.5t-61 89
t-23.5 130q0 68 26.5 120t72.5 87.5t108 54t133 18.5q70 0 140.5 -9t136.5 -20v-241h-66l-32 110q-13 13 -33 25t-44.5 21t-51.5 14.5t-52 5.5q-72 0 -106.5 -29.5t-34.5 -80.5q0 -33 14.5 -56t43 -41t69 -33t93.5 -31q55 -17 104 -40.5t85.5 -59t57.5 -84.5t21 -118z
M348 -422q-38 0 -82 8t-78 23v90q34 -9 72 -14t63 -5q51 0 71.5 25t20.5 61q0 44 -31 67.5t-100 28.5l51 195h111l-23 -110q41 -6 75 -18t58.5 -32.5t38 -49.5t13.5 -68q0 -50 -20 -87.5t-55 -62.5t-82.5 -38t-102.5 -13z" />
    <glyph glyph-name="Zcaron" unicode="&#x17d;" horiz-adv-x="1366" 
d="M98 114l742 1121h-240q-131 0 -207 -6t-113 -14l-31 -211h-89v337h1036v-106l-747 -1131h280q65 0 126.5 3.5t112.5 9t89 11t56 9.5l59 256h90l-27 -393h-1137v114zM1015 1778v-33l-218 -293h-213l-217 293v33h76l248 -162l248 162h76z" />
    <glyph glyph-name="zcaron" unicode="&#x17e;" horiz-adv-x="909" 
d="M40 0v45l432 805h-107q-28 0 -55.5 -2.5t-52 -7t-43.5 -11t-29 -14.5l-31 -155h-72v280h730v-49l-432 -801h150q27 0 57.5 3.5t59 9.5t53 14.5t39.5 19.5l53 217h72l-27 -354h-797zM781 1444v-33l-218 -293h-213l-217 293v33h76l248 -162l248 162h76z" />
    <glyph glyph-name="uni018F" unicode="&#x18f;" horiz-adv-x="1501" 
d="M1411 665q0 -305 -189 -500.5t-492 -195.5q-306 0 -481 193q-169 188 -169 505q0 21 3 57h979q-7 229 -83 369q-98 183 -303 183q-156 0 -263 -95t-136 -251h-35v427h35q25 -84 86 -84q28 0 149 42t239 42q288 0 474 -198.5t186 -493.5zM1062 638h-629q0 -272 34 -384
q63 -212 260 -212q335 0 335 596z" />
    <glyph glyph-name="uni018F" unicode="&#x4d8;" horiz-adv-x="1501" 
d="M1411 665q0 -305 -189 -500.5t-492 -195.5q-306 0 -481 193q-169 188 -169 505q0 21 3 57h979q-7 229 -83 369q-98 183 -303 183q-156 0 -263 -95t-136 -251h-35v427h35q25 -84 86 -84q28 0 149 42t239 42q288 0 474 -198.5t186 -493.5zM1062 638h-629q0 -272 34 -384
q63 -212 260 -212q335 0 335 596z" />
    <glyph glyph-name="uni04E8" unicode="&#x19f;" horiz-adv-x="1593" 
d="M1160 719q-2 111 -16 201q-17 109 -59 183t-112 113t-176 39t-176.5 -39t-112.5 -113t-59 -183q-14 -90 -16 -201h727zM433 621q2 -109 16 -199q17 -110 59 -186t112.5 -116t176.5 -40t176 40t112 116t59 186q14 90 16 199h-727zM100 672q0 178 46 307t135 213t218.5 124
t297.5 40q162 0 291 -40t219 -124t138 -213t48 -307t-48 -308.5t-138 -215.5t-219 -126.5t-291 -41.5t-291 41.5t-219.5 126.5t-138.5 215.5t-48 308.5z" />
    <glyph glyph-name="uni04E8" unicode="&#x4e8;" horiz-adv-x="1593" 
d="M1160 719q-2 111 -16 201q-17 109 -59 183t-112 113t-176 39t-176.5 -39t-112.5 -113t-59 -183q-14 -90 -16 -201h727zM433 621q2 -109 16 -199q17 -110 59 -186t112.5 -116t176.5 -40t176 40t112 116t59 186q14 90 16 199h-727zM100 672q0 178 46 307t135 213t218.5 124
t297.5 40q162 0 291 -40t219 -124t138 -213t48 -307t-48 -308.5t-138 -215.5t-219 -126.5t-291 -41.5t-291 41.5t-219.5 126.5t-138.5 215.5t-48 308.5z" />
    <glyph glyph-name="uni01A2" unicode="&#x1a2;" horiz-adv-x="2101" 
d="M2093 -438h-698v36h45q103 0 133 68q10 26 10 124v1257q0 80 -3 97q-9 51 -51 76q-32 19 -89 19h-83v-1128q-272 -149 -551 -149q-205 0 -365 79q-176 86 -269 253q-91 161 -91 341q0 193 101 364t270 265t359 94q83 0 255.5 -25t290.5 -25q384 0 509 50h38v-1568
q0 -79 4 -97q9 -50 52 -75q34 -20 89 -20h44v-36zM1036 81v1158q-74 30 -157 30q-125 0 -229.5 -71.5t-152.5 -188.5q-62 -148 -62 -330q0 -403 187 -548q98 -76 250 -76q87 0 164 26z" />
    <glyph glyph-name="uni01A3" unicode="&#x1a3;" horiz-adv-x="1551" 
d="M1499 -438h-498v36q61 2 90 35q20 23 20 120v906q0 98 -23 125q-25 30 -87 30h-62v-359q0 -196 -99 -329q-121 -159 -333 -159q-200 0 -320 144q-113 136 -113 340q0 203 112 343q120 151 318 151q93 0 222 -34t213 -34q213 0 397 68h51v-1192q0 -84 15 -112
q23 -39 97 -43v-36zM649 532v282q-67 61 -141 61q-114 0 -133 -188q-12 -116 -12 -312q0 -106 14 -197q22 -143 127 -143q101 0 126 118q19 94 19 379z" />
    <glyph glyph-name="uni01DD" unicode="&#x1dd;" horiz-adv-x="909" 
d="M432 -19q-83 0 -150 20t-114 68.5t-72.5 129t-25.5 201.5v82h493v16q0 67 -5.5 128.5t-30 109t-75 75.5t-139.5 28q-59 0 -115 -9t-107 -20v77q23 14 58 28t76.5 24.5t87.5 17t91 6.5q121 0 207 -32t140.5 -95t79.5 -155t25 -212q0 -246 -105.5 -367t-318.5 -121zM443 82
q36 0 59 21t36.5 59t18.5 93t5 122h-218q0 -67 2.5 -122t12 -93t29.5 -59t55 -21z" />
    <glyph glyph-name="uni01DD" unicode="&#x4d9;" horiz-adv-x="909" 
d="M432 -19q-83 0 -150 20t-114 68.5t-72.5 129t-25.5 201.5v82h493v16q0 67 -5.5 128.5t-30 109t-75 75.5t-139.5 28q-59 0 -115 -9t-107 -20v77q23 14 58 28t76.5 24.5t87.5 17t91 6.5q121 0 207 -32t140.5 -95t79.5 -155t25 -212q0 -246 -105.5 -367t-318.5 -121zM443 82
q36 0 59 21t36.5 59t18.5 93t5 122h-218q0 -67 2.5 -122t12 -93t29.5 -59t55 -21z" />
    <glyph glyph-name="uni01DD" unicode="&#x259;" horiz-adv-x="909" 
d="M432 -19q-83 0 -150 20t-114 68.5t-72.5 129t-25.5 201.5v82h493v16q0 67 -5.5 128.5t-30 109t-75 75.5t-139.5 28q-59 0 -115 -9t-107 -20v77q23 14 58 28t76.5 24.5t87.5 17t91 6.5q121 0 207 -32t140.5 -95t79.5 -155t25 -212q0 -246 -105.5 -367t-318.5 -121zM443 82
q36 0 59 21t36.5 59t18.5 93t5 122h-218q0 -67 2.5 -122t12 -93t29.5 -59t55 -21z" />
    <glyph glyph-name="uni04E9" unicode="&#x275;" 
d="M371 426q1 -68 5 -122q5 -74 19.5 -124t41.5 -75t71 -25q45 0 73 25t44 75t22 124q4 54 6 122h-282zM653 524q-2 67 -6 121q-6 73 -22 122t-44 73t-73 24q-44 0 -71 -24t-41.5 -73t-19.5 -122q-4 -54 -5 -121h282zM946 475q0 -120 -24.5 -212t-77.5 -155t-136.5 -95.5
t-201.5 -32.5q-111 0 -192 32t-133.5 95t-77.5 155.5t-25 212.5q0 119 25 210.5t78 153.5t135.5 94t197.5 32q223 0 327.5 -124.5t104.5 -365.5z" />
    <glyph glyph-name="uni04E9" unicode="&#x4e9;" 
d="M371 426q1 -68 5 -122q5 -74 19.5 -124t41.5 -75t71 -25q45 0 73 25t44 75t22 124q4 54 6 122h-282zM653 524q-2 67 -6 121q-6 73 -22 122t-44 73t-73 24q-44 0 -71 -24t-41.5 -73t-19.5 -122q-4 -54 -5 -121h282zM946 475q0 -120 -24.5 -212t-77.5 -155t-136.5 -95.5
t-201.5 -32.5q-111 0 -192 32t-133.5 95t-77.5 155.5t-25 212.5q0 119 25 210.5t78 153.5t135.5 94t197.5 32q223 0 327.5 -124.5t104.5 -365.5z" />
    <glyph glyph-name="afii10023" unicode="&#x401;" horiz-adv-x="1366" 
d="M35 73l172 27v1142l-172 26v73h1142v-341h-91l-32 217q-32 4 -77.5 7t-92.5 4.5t-89 2t-65 0.5h-208v-492h351l31 148h89v-412h-89l-31 152h-351v-517h253q62 0 117 1.5t99 3.5t75.5 5t46.5 6l57 248h91l-19 -374h-1207v73zM852 1464q-25 0 -47 10t-38.5 26.5t-26 38.5
t-9.5 46q0 25 9.5 46.5t26 37.5t38.5 25.5t47 9.5t47 -9.5t38 -25.5t25 -37.5t9 -46.5q0 -24 -9 -46t-25 -38.5t-38 -26.5t-47 -10zM516 1464q-24 0 -46 10t-38.5 26.5t-26.5 38.5t-10 46q0 25 10 46.5t26.5 37.5t38.5 25.5t46 9.5q25 0 46.5 -9.5t37.5 -25.5t25.5 -37.5
t9.5 -46.5q0 -24 -9 -46t-25 -38.5t-38 -26.5t-47 -10z" />
    <glyph glyph-name="afii10062" unicode="&#x40e;" horiz-adv-x="1503" 
d="M209 1242l-151 26v73h690v-73l-180 -26l306 -562l296 562l-164 26v73h456v-73l-142 -26l-436 -808q-59 -110 -109 -194.5t-102.5 -142t-111.5 -87.5t-136 -30q-22 0 -47 3t-49 9t-45 14t-36 17l-12 281h65l52 -117q17 -23 39.5 -36t50.5 -13q36 0 67 12.5t62 41.5
t63 76.5t68 117.5zM830 1453q-111 0 -184.5 24t-118 64t-63.5 92.5t-21 109.5h209q6 -102 54.5 -150.5t123.5 -48.5t123.5 48.5t54.5 150.5h209q-2 -57 -21 -109.5t-63.5 -92.5t-118 -64t-184.5 -24z" />
    <glyph glyph-name="afii10017" unicode="&#x410;" horiz-adv-x="1479" 
d="M428 73v-73h-408v73l100 27l477 1252h290l475 -1252l102 -27v-73h-597v73l155 27l-128 347h-515l-123 -347zM641 1150l-221 -593h436z" />
    <glyph glyph-name="afii10018" unicode="&#x411;" horiz-adv-x="1354" 
d="M692 0h-656v73l171 26v1142l-172 27v73h1117l11 -330h-90l-55 204q-30 6 -109 13t-204 7h-183v-472h170q149 0 254.5 -27t173 -77.5t98.5 -121.5t31 -158t-31 -157.5t-98.5 -119.5t-173 -75.5t-254.5 -26.5zM919 379q0 134 -71.5 204t-198.5 70h-127v-549h137
q127 0 193.5 70.5t66.5 204.5z" />
    <glyph glyph-name="afii10019" unicode="&#x412;" horiz-adv-x="1366" 
d="M878 1010q0 57 -11.5 98.5t-37.5 69t-67.5 40.5t-100.5 13h-139v-467h147q61 0 101.5 17t64.5 48.5t33.5 77t9.5 103.5zM979 391q0 133 -66.5 198t-217.5 65h-173v-544q48 -2 92 -3q37 -2 75 -2.5t60 -0.5q63 0 107 20t71 57t39.5 90t12.5 120zM34 0v73l173 27v1142
l-173 26v73h651q149 0 249 -21t160.5 -60t86 -95t25.5 -127q0 -67 -22.5 -121t-60.5 -94.5t-88 -67t-105 -38.5q99 -10 170.5 -37t118 -69t68.5 -97.5t22 -122.5q0 -87 -31 -160t-98.5 -125.5t-173 -82t-254.5 -29.5q-120 0 -238 3t-218 3h-262z" />
    <glyph glyph-name="afii10020" unicode="&#x413;" horiz-adv-x="1303" 
d="M731 0h-693v73l171 26v1142l-172 27v73h1137l18 -405h-90l-62 279q-30 6 -109 13t-204 7h-203v-1136l207 -26v-73z" />
    <glyph glyph-name="afii10021" unicode="&#x414;" horiz-adv-x="1409" 
d="M275 1341h1080v-73l-173 -27v-1141l200 -27l-35 -510h-125l-129 437h-788l-133 -437h-125l-35 510l200 25q54 106 99.5 234t78.5 273.5t51.5 305.5t20.5 329l-187 28v73zM867 1231h-283q-1 -164 -18.5 -321.5t-47.5 -301t-71.5 -270t-90.5 -228.5h511v1121z" />
    <glyph glyph-name="afii10022" unicode="&#x415;" horiz-adv-x="1366" 
d="M35 73l172 27v1142l-172 26v73h1142v-341h-91l-32 217q-32 4 -77.5 7t-92.5 4.5t-89 2t-65 0.5h-208v-492h351l31 148h89v-412h-89l-31 152h-351v-517h253q62 0 117 1.5t99 3.5t75.5 5t46.5 6l57 248h91l-19 -374h-1207v73z" />
    <glyph glyph-name="afii10024" unicode="&#x416;" horiz-adv-x="2025" 
d="M712 1341h601v-73l-153 -26v-558l478 558l-113 26v73h412v-73l-144 -26l-341 -398l454 -744l115 -27v-73h-400l-353 638l-108 -87v-451l159 -27v-73h-613v73l159 27v451l-109 87l-352 -638h-400v73l115 27l453 744l-340 398l-144 26v73h412v-73l-113 -26l478 -558v558
l-153 26v73z" />
    <glyph glyph-name="afii10025" unicode="&#x417;" horiz-adv-x="1081" 
d="M1025 365q0 -91 -37.5 -162.5t-108 -121t-172.5 -75.5t-231 -26q-102 0 -194.5 10t-175.5 30l-12 325h92l52 -215q16 -9 40 -18t51.5 -15.5t57.5 -11t57 -4.5q73 0 123.5 20.5t82.5 58.5t46.5 92.5t14.5 122.5q0 72 -19.5 120.5t-52.5 78t-77 43t-92 16.5l-120 7v121
l116 8q44 3 80.5 19.5t62.5 46.5t40 74.5t14 104.5q0 67 -15 113t-42.5 74.5t-65.5 40.5t-84 12q-27 0 -55.5 -4t-55 -11t-49 -16.5t-38.5 -20.5l-43 -194h-87v305q72 18 163.5 30.5t192.5 12.5q239 0 365 -81.5t126 -248.5q0 -63 -19.5 -117.5t-57.5 -96.5t-93.5 -70.5
t-127.5 -39.5q174 -21 261 -104.5t87 -232.5z" />
    <glyph glyph-name="afii10026" unicode="&#x418;" horiz-adv-x="1593" 
d="M35 0v74l172 26v1141l-172 27v73h659v-73l-172 -27v-867l548 810v57l-172 27v73h661v-73l-173 -27v-1141l173 -26v-74h-661v74l172 26v893l-548 -810v-83l172 -26v-74h-659z" />
    <glyph glyph-name="afii10027" unicode="&#x419;" horiz-adv-x="1593" 
d="M35 0v74l172 26v1141l-172 27v73h659v-73l-172 -27v-867l548 810v57l-172 27v73h661v-73l-173 -27v-1141l173 -26v-74h-661v74l172 26v893l-548 -810v-83l172 -26v-74h-659zM799 1454q-111 0 -184.5 24t-118 64t-63.5 92.5t-21 109.5h209q6 -102 54.5 -150.5t123.5 -48.5
t123.5 48.5t54.5 150.5h209q-2 -57 -21 -109.5t-63.5 -92.5t-118 -64t-184.5 -24z" />
    <glyph glyph-name="afii10028" unicode="&#x41a;" horiz-adv-x="1485" 
d="M1439 1341v-73l-164 -26l-413 -391l500 -751l105 -27v-73h-411l-410 651l-124 -95v-456l193 -27v-73h-680v73l172 27v1142l-172 26v73h660v-73l-173 -26v-561l581 561l-123 26v73h459z" />
    <glyph glyph-name="afii10029" unicode="&#x41b;" horiz-adv-x="1526" 
d="M272 1268v73h1220v-73l-173 -27v-1141l173 -26v-74h-661v74l172 26v1131h-421l-25 -291q-22 -253 -52 -434.5t-75 -298.5t-109 -172t-152 -55q-45 0 -84.5 12t-68.5 35l-11 261h71l44 -109q8 -18 21.5 -29.5t38.5 -11.5q36 0 72.5 39t70.5 133t63 251t49 392l25 287z" />
    <glyph glyph-name="afii10030" unicode="&#x41c;" horiz-adv-x="1933" 
d="M882 0h-55l-495 1133v-1033l180 -27v-73h-477v73l172 27v1142l-172 26v73h527l383 -882l391 882h538v-73l-172 -26v-1142l172 -27v-73h-667v73l180 27v1033z" />
    <glyph glyph-name="afii10031" unicode="&#x41d;" horiz-adv-x="1593" 
d="M35 0v74l172 26v1141l-172 27v73h659v-73l-172 -27v-496h548v496l-172 27v73h661v-73l-173 -27v-1141l173 -26v-74h-661v74l172 26v535h-548v-535l172 -26v-74h-659z" />
    <glyph glyph-name="afii10032" unicode="&#x41e;" horiz-adv-x="1593" 
d="M432 672q0 -140 17 -250t59 -186t112.5 -116t176.5 -40t176 40t112 116t59 186t17 250q0 139 -17 248t-59 183t-112 113t-176 39t-176.5 -39t-112.5 -113t-59 -183t-17 -248zM100 672q0 178 46 307t135 213t218.5 124t297.5 40q162 0 291 -40t219 -124t138 -213t48 -307
t-48 -308.5t-138 -215.5t-219 -126.5t-291 -41.5t-291 41.5t-219.5 126.5t-138.5 215.5t-48 308.5z" />
    <glyph glyph-name="afii10033" unicode="&#x41f;" horiz-adv-x="1593" 
d="M40 0v74l172 26v1141l-172 27v73h1513v-73l-173 -27v-1141l173 -26v-74h-661v74l172 26v1131h-537v-1131l172 -26v-74h-659z" />
    <glyph glyph-name="afii10034" unicode="&#x420;" horiz-adv-x="1251" 
d="M871 944q0 80 -14 135t-45.5 88.5t-83 48.5t-126.5 15h-79v-595h83q76 0 126.5 19.5t81.5 58t44 96t13 134.5zM523 526v-426l223 -27v-73h-698v73l159 27v1142l-172 26v73h591q168 0 277.5 -30.5t174 -84t90 -125.5t25.5 -155q0 -82 -21.5 -158t-77 -134t-150.5 -93
t-241 -35h-180z" />
    <glyph glyph-name="afii10035" unicode="&#x421;" horiz-adv-x="1479" 
d="M815 -20q-169 0 -301.5 46t-224.5 133t-140.5 212.5t-48.5 283.5q0 180 48.5 312t140 218.5t224 128.5t301.5 42q143 0 264.5 -20.5t218.5 -46.5l6 -322h-90l-28 194q-63 43 -142 66.5t-165 23.5q-105 0 -188 -30.5t-140.5 -100.5t-87.5 -183t-30 -279q0 -146 30 -254
t86 -179t137.5 -106.5t184.5 -35.5q113 0 197.5 30t132.5 71l32 220h91l-6 -340q-43 -17 -101.5 -32t-125 -26.5t-137.5 -18.5t-138 -7z" />
    <glyph glyph-name="afii10036" unicode="&#x422;" horiz-adv-x="1366" 
d="M310 0v73l213 27v1135h-51q-131 0 -208 -6t-114 -14l-27 -249h-91v375h1303v-375h-92l-27 249q-37 8 -123.5 13t-204.5 5h-49v-1133l213 -27v-73h-742z" />
    <glyph glyph-name="afii10037" unicode="&#x423;" horiz-adv-x="1503" 
d="M209 1242l-151 26v73h690v-73l-180 -26l306 -562l296 562l-164 26v73h456v-73l-142 -26l-436 -808q-59 -110 -109 -194.5t-102.5 -142t-111.5 -87.5t-136 -30q-22 0 -47 3t-49 9t-45 14t-36 17l-12 281h65l52 -117q17 -23 39.5 -36t50.5 -13q36 0 67 12.5t62 41.5
t63 76.5t68 117.5z" />
    <glyph glyph-name="afii10038" unicode="&#x424;" horiz-adv-x="1759" 
d="M742 324v710h-96q-54 0 -102 -21t-84 -64t-56.5 -107.5t-20.5 -151.5q0 -84 19.5 -151.5t54 -115.5t81 -73.5t99.5 -25.5h105zM1122 324q53 0 99.5 25.5t81 73.5t54 115.5t19.5 151.5q0 87 -20.5 151.5t-56.5 107.5t-84 64t-102 21h-96v-710h105zM570 0v74l172 26v121
h-140q-98 0 -175 19.5t-135 54t-98.5 80t-66 98t-37 108.5t-11.5 111q0 83 27 163t89 142.5t163 101t249 38.5h135v104l-172 27v73h619v-73l-172 -27v-104h135q148 0 249 -38.5t163 -101t89 -142.5t27 -163q0 -55 -11.5 -111t-37 -108.5t-66 -98t-98.5 -80t-135 -54
t-175 -19.5h-140v-121l172 -26v-74h-619z" />
    <glyph glyph-name="afii10039" unicode="&#x425;" horiz-adv-x="1479" 
d="M330 100l166 -27v-73h-458v73l148 27l431 548l-384 594l-151 26v73h653v-73l-170 -26l234 -362l285 362l-166 26v73h459v-73l-148 -26l-365 -463l439 -679l152 -27v-73h-653v73l170 27l-290 447z" />
    <glyph glyph-name="afii10040" unicode="&#x426;" horiz-adv-x="1593" 
d="M1361 100l200 -27l-35 -510h-125l-129 437h-1232v73l173 27v1141l-173 26v74h661v-74l-172 -26v-1131h517v1131l-172 26v74h659v-74l-172 -26v-1141z" />
    <glyph glyph-name="afii10041" unicode="&#x427;" horiz-adv-x="1503" 
d="M168 1241l-143 27v73h591v-73l-133 -27v-424q0 -61 17.5 -103t47 -68.5t67.5 -38.5t79 -12q26 0 59.5 4t70.5 11.5t76.5 18.5t78.5 24v588l-163 27v73h652v-73l-173 -27v-1141l159 -27v-73h-658v73l183 27v428q-51 -18 -102 -33t-98.5 -25t-89.5 -15.5t-74 -5.5
q-52 0 -105.5 5t-103 20.5t-93 44t-76 74t-51 111.5t-18.5 157v380z" />
    <glyph glyph-name="afii10042" unicode="&#x428;" horiz-adv-x="2249" 
d="M2214 1341v-74l-172 -26v-1141l172 -27v-73h-2179v73l173 27v1141l-173 26v74h641v-74l-152 -26v-1131h443v1131l-152 26v74h620v-74l-152 -26v-1131h443v1131l-152 26v74h640z" />
    <glyph glyph-name="afii10043" unicode="&#x429;" horiz-adv-x="2249" 
d="M1933 0h-1898v73l173 27v1141l-173 26v74h641v-74l-152 -26v-1131h433v1131l-152 26v74h620v-74l-152 -26v-1131h433v1131l-152 26v74h640v-74l-172 -26v-1141l200 -27l-35 -510h-125z" />
    <glyph glyph-name="afii10044" unicode="&#x42a;" horiz-adv-x="1567" 
d="M802 1241v-478h112q149 0 254.5 -27t173 -77.5t98.5 -121.5t31 -158t-31 -157.5t-98.5 -119.5t-173 -75.5t-254.5 -26.5h-598v73l171 26v1136h-51q-39 0 -79 -2t-76 -5t-64.5 -6.5t-43.5 -6.5l-44 -204h-90v330h995v-73zM1141 379q0 134 -71.5 204t-198.5 70h-69v-549h79
q127 0 193.5 70.5t66.5 204.5z" />
    <glyph glyph-name="afii10045" unicode="&#x42b;" horiz-adv-x="2011" 
d="M909 379q0 134 -71.5 204t-198.5 70h-117v-549h127q127 0 193.5 70.5t66.5 204.5zM522 1241v-478h160q149 0 254.5 -27t173 -77.5t98.5 -121.5t31 -158t-31 -157.5t-98.5 -119.5t-173 -75.5t-254.5 -26.5h-646v73l171 26v1142l-172 27v73h719v-73zM1804 100l172 -26v-74
h-659v74l172 26v1141l-172 27v73h659v-73l-172 -27v-1141z" />
    <glyph glyph-name="afii10046" unicode="&#x42c;" horiz-adv-x="1354" 
d="M929 379q0 134 -71.5 204t-198.5 70h-137v-549h147q127 0 193.5 70.5t66.5 204.5zM522 1241v-478h180q149 0 254.5 -27t173 -77.5t98.5 -121.5t31 -158t-31 -157.5t-98.5 -119.5t-173 -75.5t-254.5 -26.5h-666v73l171 26v1142l-172 27v73h719v-73z" />
    <glyph glyph-name="afii10047" unicode="&#x42d;" horiz-adv-x="1389" 
d="M463 746h498q-6 140 -32.5 236.5t-74 156t-115.5 86t-158 26.5q-78 0 -150.5 -23.5t-130.5 -66.5l-28 -194h-90l6 322q96 26 212 46.5t250 20.5q318 0 481.5 -170.5t163.5 -530.5q0 -158 -44.5 -283.5t-129.5 -212.5t-209 -133t-283 -46q-64 0 -131 7t-130.5 18.5
t-120 26.5t-99.5 32l-6 340h91l32 -220q44 -41 122 -71t182 -30q186 0 287 136t106 415h-499v112z" />
    <glyph glyph-name="afii10048" unicode="&#x42e;" horiz-adv-x="2306" 
d="M522 100l172 -26v-74h-659v74l172 26v1141l-172 27v73h659v-73l-172 -27v-495h373q9 159 55.5 274t129.5 189.5t201 110.5t269 36q154 0 275.5 -40t206 -124t129.5 -213t45 -307t-45 -308.5t-129.5 -215.5t-206 -126.5t-275.5 -41.5q-150 0 -269.5 39t-204 119.5
t-131.5 204t-52 291.5h-371v-534zM1225 672q0 -140 15 -250t51.5 -186t99.5 -116t159 -40t158.5 40t99 116t51.5 186t15 250q0 139 -15 248t-51.5 183t-99 113t-158.5 39t-159 -39t-99.5 -113t-51.5 -183t-15 -248z" />
    <glyph glyph-name="afii10049" unicode="&#x42f;" horiz-adv-x="1479" 
d="M186 966q0 83 29 152t97 118.5t181 77t281 27.5h671v-73l-172 -26v-1142l159 -27v-73h-647v73l172 27v468h-216l-304 -568h-434v73l145 27l285 503q-63 21 -109.5 57.5t-77 84.5t-45.5 104.5t-15 116.5zM498 964q0 -77 19 -131t58 -88.5t98 -50.5t139 -16h145v553h-140
q-77 0 -136.5 -12t-100 -42t-61.5 -81.5t-21 -131.5z" />
    <glyph glyph-name="afii10065" unicode="&#x430;" 
d="M546 961q77 0 142 -13t112 -43.5t73 -80.5t26 -123v-611l94 -24v-66h-346l-22 72q-19 -13 -44.5 -29t-58.5 -30t-74 -23.5t-91 -9.5q-82 0 -137.5 21t-89.5 58.5t-49 89t-15 111.5q0 97 34 155t91.5 89.5t134 41.5t162.5 12l122 3v137q0 83 -34 126.5t-105 43.5
q-55 0 -100.5 -15.5t-87.5 -36.5l-38 -117h-66v227q46 7 87.5 13t84.5 11t90.5 8t104.5 3zM610 472l-84 -3q-44 -2 -76 -12t-53.5 -33.5t-32 -61.5t-10.5 -96q0 -85 30 -125t78 -40t82 10.5t66 24.5v336z" />
    <glyph glyph-name="afii10066" unicode="&#x431;" 
d="M80 578q0 176 20.5 315t72 238.5t138 159t218.5 75.5q60 7 115.5 14t99.5 17.5t73.5 26.5t37.5 42h70q-3 -104 -29 -165.5t-76 -96.5t-124 -51.5t-173 -29.5q-94 -13 -150.5 -32.5t-88 -55t-44 -92t-18.5 -143.5h7q37 75 110 120t190 45q215 0 317 -124.5t102 -365.5
q0 -239 -107 -367t-333 -128q-212 0 -320 146.5t-108 451.5zM656 475q0 97 -6 170t-22 122t-44 73t-73 24q-44 0 -71 -24t-41.5 -73t-19.5 -122t-5 -170q0 -98 5 -171.5t19.5 -123.5t41.5 -75t71 -25q45 0 73 25t44 75t22 123.5t6 171.5z" />
    <glyph glyph-name="afii10067" unicode="&#x432;" horiz-adv-x="1106" 
d="M53 0v66l95 24v760l-95 24v66h481q100 0 183 -10.5t141.5 -37t91 -71t32.5 -113.5q0 -48 -16 -83.5t-45.5 -61t-71.5 -42.5t-93 -26v-8q140 -11 213 -65.5t73 -157.5q0 -68 -24.5 -117.5t-81 -82t-149.5 -48.5t-230 -16h-504zM751 274q0 49 -16 81t-43 51t-64 26t-79 7
h-112v-349h111q98 0 150.5 43t52.5 141zM437 529h93q87 0 124 45t37 122q0 72 -41 113t-130 41h-83v-321z" />
    <glyph glyph-name="afii10068" unicode="&#x433;" horiz-adv-x="930" 
d="M877 632h-75l-43 186q-35 6 -88.5 12.5t-110.5 6.5h-122v-747l153 -24v-66h-537v66l95 24v760l-95 24v66h823v-308z" />
    <glyph glyph-name="afii10069" unicode="&#x434;" horiz-adv-x="1036" 
d="M207 875v65h776v-66l-95 -24v-760l125 -24l-16 -422h-105l-137 356h-471l-137 -356h-105l-17 430l113 19q37 70 66 155.5t51 182t36 202.5t22 217zM263 103h336v747h-180q-7 -111 -19.5 -217t-32 -201.5t-45.5 -178.5t-59 -150z" />
    <glyph glyph-name="afii10070" unicode="&#x435;" horiz-adv-x="909" 
d="M494 963q83 0 150 -20t114 -68.5t72.5 -129t25.5 -201.5v-82h-493v-16q0 -67 5.5 -128.5t30 -109t75 -75.5t139.5 -28q59 0 115 9t107 20v-77q-23 -14 -58 -28t-76.5 -24.5t-87.5 -17t-91 -6.5q-121 0 -207 32t-140.5 95t-79.5 155t-25 212q0 246 105.5 367t318.5 121z
M483 862q-36 0 -59 -21t-36.5 -59t-18.5 -93t-5 -122h218q0 67 -2.5 122t-12 93t-29.5 59t-55 21z" />
    <glyph glyph-name="afii10072" unicode="&#x436;" horiz-adv-x="1485" 
d="M958 444l-92 -55v-299l75 -24v-66h-398v66l75 24v299l-94 57l-217 -446h-303v64l82 20l277 528l-218 239l-95 23v66h304v-66l-65 -23l329 -379v378l-75 24v66h398v-66l-75 -24v-378l329 379l-65 23v66h304v-66l-95 -23l-219 -239l278 -528l82 -20v-64h-303z" />
    <glyph glyph-name="afii10073" unicode="&#x437;" horiz-adv-x="823" 
d="M559 492q41 -6 79.5 -23t68.5 -44.5t48 -65t18 -85.5q0 -147 -112 -220.5t-344 -73.5q-42 0 -87 6.5t-85 18t-72 25.5t-48 29v80q45 -14 109.5 -24.5t131.5 -10.5q64 0 106 13t66.5 36t34.5 54t10 67t-9.5 66t-30.5 51t-55.5 32.5t-85.5 11.5h-74v101h87q47 0 76.5 14.5
t46.5 39t23.5 56.5t6.5 67q0 75 -39 113.5t-117 38.5q-35 0 -73.5 -13t-63.5 -35l-34 -125h-72v242q60 12 128.5 21.5t149.5 9.5q205 0 304.5 -57.5t99.5 -181.5q0 -41 -14.5 -76.5t-40 -64t-61 -50.5t-76.5 -37v-6z" />
    <glyph glyph-name="afii10074" unicode="&#x438;" horiz-adv-x="1180" 
d="M657 0v66l85 24v499l-304 -396v-103l85 -24v-66h-469v66l95 24v760l-95 24v66h469v-66l-85 -24v-504l304 396v108l-85 24v66h469v-66l-95 -24v-760l95 -24v-66h-469z" />
    <glyph glyph-name="afii10075" unicode="&#x439;" horiz-adv-x="1180" 
d="M657 0v66l85 24v499l-304 -396v-103l85 -24v-66h-469v66l95 24v760l-95 24v66h469v-66l-85 -24v-504l304 396v108l-85 24v66h469v-66l-95 -24v-760l95 -24v-66h-469zM593 1120q-111 0 -184.5 24t-118 64t-63.5 92.5t-21 109.5h209q6 -102 54.5 -150.5t123.5 -48.5
t123.5 48.5t54.5 150.5h209q-2 -57 -21 -109.5t-63.5 -92.5t-118 -64t-184.5 -24z" />
    <glyph glyph-name="afii10076" unicode="&#x43a;" horiz-adv-x="1180" 
d="M428 464l410 383l-96 29v63h360v-63l-100 -25l-273 -246l356 -517l92 -25v-63h-497v63l86 27l-231 346l-107 -72v-274l85 -24v-66h-469v66l95 24v760l-95 24v66h469v-66l-85 -24v-386z" />
    <glyph glyph-name="afii10077" unicode="&#x43b;" horiz-adv-x="1149" 
d="M162 106q18 0 40 20.5t45 74.5t47 148t47 240l41 260l-117 25v66h830v-66l-95 -24v-760l95 -24v-66h-479v66l95 24v747h-215l-40 -259q-22 -143 -46 -254t-58.5 -187.5t-84 -116.5t-122.5 -40q-33 0 -64 8t-48 19l-8 219h64l33 -88q5 -11 14.5 -21.5t25.5 -10.5z" />
    <glyph glyph-name="afii10078" unicode="&#x43c;" horiz-adv-x="1395" 
d="M635 0h-48l-322 752v-662l92 -24v-66h-303v66l95 24v761l-95 23v66h372l249 -582l260 582h396v-66l-85 -24v-760l85 -24v-66h-457v66l92 24v670z" />
    <glyph glyph-name="afii10079" unicode="&#x43d;" horiz-adv-x="1180" 
d="M742 429h-304v-339l95 -24v-66h-479v66l95 24v760l-95 24v66h479v-66l-95 -24v-318h304v318l-95 24v66h479v-66l-95 -24v-760l95 -24v-66h-479v66l95 24v339z" />
    <glyph glyph-name="afii10080" unicode="&#x43e;" 
d="M946 475q0 -120 -24.5 -212t-77.5 -155t-136.5 -95.5t-201.5 -32.5q-111 0 -192 32t-133.5 95t-77.5 155.5t-25 212.5q0 119 25 210.5t78 153.5t135.5 94t197.5 32q223 0 327.5 -124.5t104.5 -365.5zM653 475q0 97 -6 170t-22 122t-44 73t-73 24q-44 0 -71 -24t-41.5 -73
t-19.5 -122t-5 -170q0 -98 5 -171.5t19.5 -123.5t41.5 -75t71 -25q45 0 73 25t44 75t22 123.5t6 171.5z" />
    <glyph glyph-name="afii10081" unicode="&#x43f;" horiz-adv-x="1180" 
d="M742 837h-304v-747l95 -24v-66h-479v66l95 24v760l-95 24v66h1072v-66l-95 -24v-760l95 -24v-66h-479v66l95 24v747z" />
    <glyph glyph-name="afii10082" unicode="&#x440;" horiz-adv-x="1139" 
d="M409 892q22 15 48.5 28.5t58 23t69.5 15.5t84 6q196 0 291.5 -115t95.5 -363q0 -114 -25.5 -207.5t-78.5 -160t-134 -103t-192 -36.5q-54 0 -106 6.5t-108 20.5q1 -11 2.5 -30t2 -40.5t1 -42t0.5 -35.5v-205l138 -24v-66h-529v66l102 24v1196l-103 24v66h381zM763 480
q0 109 -14 181.5t-38 115t-55.5 60t-66.5 17.5q-51 0 -94.5 -11t-76.5 -27v-709q81 -21 169 -21q90 0 133 99t43 295z" />
    <glyph glyph-name="afii10083" unicode="&#x441;" horiz-adv-x="909" 
d="M858 57q-24 -19 -56.5 -33t-71 -23.5t-79.5 -14.5t-81 -5q-134 0 -229 33.5t-155 96.5t-88 154t-28 207q0 129 37 222.5t100.5 153.5t147.5 88.5t177 28.5q86 0 162.5 -10.5t142.5 -24.5v-278h-72l-42 165q-16 12 -31.5 20.5t-33.5 14t-39.5 8t-49.5 2.5q-39 0 -76 -22.5
t-66.5 -69t-47.5 -119.5t-18 -173q0 -84 11.5 -153t40.5 -118t80 -75.5t129 -26.5q65 0 128.5 8t107.5 21v-77z" />
    <glyph glyph-name="afii10084" unicode="&#x442;" horiz-adv-x="1006" 
d="M981 940v-288h-75l-43 166q-35 6 -83.5 12.5t-105.5 6.5h-27v-747l153 -25v-65h-606v65l164 25v747h-26q-57 0 -105.5 -6.5t-83.5 -12.5l-43 -166h-75v288h956z" />
    <glyph glyph-name="afii10085" unicode="&#x443;" 
d="M462 -29l-376 879l-66 24v66h481v-66l-112 -26l221 -520l197 522l-110 24v66h307v-66l-68 -20l-371 -913q-32 -82 -65 -152t-73.5 -121.5t-92.5 -80.5t-121 -29q-28 0 -48.5 1t-39 3.5t-37 6t-40.5 8.5v242h60l43 -126q14 -11 31.5 -17t42.5 -6q41 0 71.5 21t55.5 56.5
t46.5 83t45.5 100.5z" />
    <glyph glyph-name="afii10086" unicode="&#x444;" horiz-adv-x="1417" 
d="M576 49q-15 -11 -34.5 -23t-44.5 -22t-54 -17t-63 -7q-159 0 -234 119t-75 362q0 117 20.5 210.5t63 159t107 100t152.5 34.5q41 0 85.5 -12t81.5 -26q0 13 -1 37.5t-2 51t-1.5 52t-0.5 40.5v223l-97 25v65h366v-343q0 -12 -0.5 -41.5t-1.5 -59.5q-1 -35 -1 -76
q35 25 89.5 44.5t117.5 19.5q145 0 221 -123t76 -361q0 -115 -21 -207.5t-64 -158t-107 -100.5t-150 -35q-20 0 -43 3.5t-45 9t-42 12.5t-35 14q1 -12 2.5 -31.5t2 -40.5t1 -39t0.5 -27v-227l102 -24v-66h-476v66l105 24v395zM339 461q0 -105 9.5 -175t27 -112t42.5 -60
t56 -18q23 0 49.5 10.5t52.5 26.5v704q-27 10 -53.5 15t-42.5 5q-31 0 -57 -23t-44.5 -71.5t-29 -123.5t-10.5 -178zM1078 481q0 102 -10 172.5t-27.5 113.5t-41.5 62t-53 19q-18 0 -45.5 -7.5t-55.5 -23.5v-704q22 -12 50 -20t51 -8q71 0 101.5 96.5t30.5 299.5z" />
    <glyph glyph-name="afii10087" unicode="&#x445;" 
d="M31 875v65h502v-65l-105 -27l137 -211l181 213l-94 25v65h320v-65l-83 -21l-264 -310l298 -458l90 -21v-65h-502v65l105 23l-164 253l-218 -255l94 -21v-65h-320v65l84 16l300 352l-270 417z" />
    <glyph glyph-name="afii10088" unicode="&#x446;" horiz-adv-x="1180" 
d="M888 0h-834v66l95 24v760l-95 24v66h479v-66l-95 -24v-747h304v747l-95 24v66h479v-66l-95 -24v-760l115 -24l-16 -422h-115z" />
    <glyph glyph-name="afii10089" unicode="&#x447;" horiz-adv-x="1155" 
d="M414 568q0 -29 4 -55.5t16 -46t33.5 -31t56.5 -11.5q55 0 99.5 11.5t93.5 27.5v387l-95 24v66h479v-66l-95 -24v-760l95 -24v-66h-479v66l95 24v289q-75 -38 -157.5 -64t-162.5 -26q-78 0 -130.5 21.5t-84 58t-44.5 85t-13 101.5v295l-95 24v66h479v-66l-95 -24v-282z
" />
    <glyph glyph-name="afii10090" unicode="&#x448;" horiz-adv-x="1729" 
d="M438 103h282v747l-95 24v66h479v-66l-95 -24v-747h282v747l-95 24v66h479v-66l-95 -24v-760l95 -24v-66h-1621v66l95 24v760l-95 24v66h479v-66l-95 -24v-747z" />
    <glyph glyph-name="afii10091" unicode="&#x449;" horiz-adv-x="1729" 
d="M1458 -1v1h-1404v66l95 24v760l-95 24v66h479v-66l-95 -24v-747h282v747l-95 24v66h479v-66l-95 -24v-747h282v747l-95 24v66h479v-66l-95 -24v-760l136 -24l-2 -65v-2l-14 -355h-115z" />
    <glyph glyph-name="afii10092" unicode="&#x44a;" horiz-adv-x="1194" 
d="M629 850v-306h56q137 0 226 -17t140.5 -51.5t72 -85.5t20.5 -118q0 -68 -21.5 -118.5t-74.5 -85t-142.5 -51.5t-226.5 -17h-434v66l95 24v747h-18q-57 0 -105.5 -6.5t-83.5 -12.5l-43 -166h-75v288h729v-66zM670 90q92 0 137.5 42t45.5 141t-49 140t-133 41h-42v-364h41z
" />
    <glyph glyph-name="afii10093" unicode="&#x44b;" horiz-adv-x="1599" 
d="M724 273q0 49 -13.5 83.5t-38 56.5t-59 31.5t-76.5 9.5h-99v-364h91q99 0 147 42t48 141zM438 850v-306h116q137 0 226 -17t141.5 -51.5t73 -85.5t20.5 -118q0 -68 -22 -118.5t-75.5 -85t-143.5 -51.5t-227 -17h-493v66l95 24v760l-95 24v66h499v-66zM1161 850l-95 24v66
h479v-66l-95 -24v-760l95 -24v-66h-479v66l95 24v760z" />
    <glyph glyph-name="afii10094" unicode="&#x44c;" horiz-adv-x="1083" 
d="M742 273q0 49 -13.5 83.5t-38 56.5t-59 31.5t-76.5 9.5h-117v-364h109q99 0 147 42t48 141zM438 850v-306h134q137 0 226 -17t141.5 -51.5t73 -85.5t20.5 -118q0 -68 -22 -118.5t-75.5 -85t-143.5 -51.5t-227 -17h-511v66l95 24v760l-95 24v66h499v-66z" />
    <glyph glyph-name="afii10095" unicode="&#x44d;" horiz-adv-x="885" 
d="M220 536h302q-2 86 -17 147.5t-39.5 101.5t-56.5 58.5t-68 18.5q-48 0 -83 -11t-67 -34l-42 -165h-72v278q66 14 146 24.5t155 10.5q93 0 173 -27t138.5 -85.5t92 -150.5t33.5 -221q0 -116 -29 -208.5t-89 -157t-152.5 -99.5t-219.5 -35q-38 0 -77 5t-75 14.5t-67 23.5
t-55 33v77q22 -6 49 -11.5t56.5 -9.5t59.5 -6t57 -2q126 0 185.5 82.5t64.5 245.5h-303v103z" />
    <glyph glyph-name="afii10096" unicode="&#x44e;" horiz-adv-x="1565" 
d="M620 532q6 105 34 186t81 136t132.5 83t187.5 28q223 0 327.5 -124.5t104.5 -365.5q0 -120 -24.5 -212t-77.5 -155t-136.5 -95.5t-201.5 -32.5q-212 0 -315 115t-112 334h-182v-339l95 -24v-66h-479v66l95 24v760l-95 24v66h479v-66l-95 -24v-318h182zM1194 475
q0 97 -6 170t-22 122t-44 73t-73 24q-44 0 -71 -24t-41.5 -73t-19.5 -122t-5 -170q0 -98 5 -171.5t19.5 -123.5t41.5 -75t71 -25q45 0 73 25t44 75t22 123.5t6 171.5z" />
    <glyph glyph-name="afii10097" unicode="&#x44f;" horiz-adv-x="1108" 
d="M670 90v304h-139l-165 -394h-345v64l82 20l180 365q-87 29 -132.5 91t-45.5 140q0 137 99.5 198.5t305.5 61.5h544v-66l-95 -24v-760l95 -24v-66h-479v66zM670 850h-103q-35 0 -66.5 -9.5t-54.5 -31t-36.5 -55.5t-13.5 -83q0 -41 9 -75t29 -59t51.5 -39t75.5 -14h109v366
z" />
    <glyph glyph-name="afii10071" unicode="&#x451;" horiz-adv-x="909" 
d="M494 963q83 0 150 -20t114 -68.5t72.5 -129t25.5 -201.5v-82h-493v-16q0 -67 5.5 -128.5t30 -109t75 -75.5t139.5 -28q59 0 115 9t107 20v-77q-23 -14 -58 -28t-76.5 -24.5t-87.5 -17t-91 -6.5q-121 0 -207 32t-140.5 95t-79.5 155t-25 212q0 246 105.5 367t318.5 121z
M483 862q-36 0 -59 -21t-36.5 -59t-18.5 -93t-5 -122h218q0 67 -2.5 122t-12 93t-29.5 59t-55 21zM642 1130q-25 0 -47 10t-38.5 26.5t-26 38.5t-9.5 46q0 25 9.5 46.5t26 37.5t38.5 25.5t47 9.5t47 -9.5t38 -25.5t25 -37.5t9 -46.5q0 -24 -9 -46t-25 -38.5t-38 -26.5
t-47 -10zM306 1130q-24 0 -46 10t-38.5 26.5t-26.5 38.5t-10 46q0 25 10 46.5t26.5 37.5t38.5 25.5t46 9.5q25 0 46.5 -9.5t37.5 -25.5t25.5 -37.5t9.5 -46.5q0 -24 -9 -46t-25 -38.5t-38 -26.5t-47 -10z" />
    <glyph glyph-name="afii10110" unicode="&#x45e;" 
d="M462 -29l-376 879l-66 24v66h481v-66l-112 -26l221 -520l197 522l-110 24v66h307v-66l-68 -20l-371 -913q-32 -82 -65 -152t-73.5 -121.5t-92.5 -80.5t-121 -29q-28 0 -48.5 1t-39 3.5t-37 6t-40.5 8.5v242h60l43 -126q14 -11 31.5 -17t42.5 -6q41 0 71.5 21t55.5 56.5
t46.5 83t45.5 100.5zM514 1120q-111 0 -184.5 24t-118 64t-63.5 92.5t-21 109.5h209q6 -102 54.5 -150.5t123.5 -48.5t123.5 48.5t54.5 150.5h209q-2 -57 -21 -109.5t-63.5 -92.5t-118 -64t-184.5 -24z" />
    <glyph glyph-name="uni0492" unicode="&#x492;" horiz-adv-x="1303" 
d="M524 557v-458l207 -26v-73h-693v73l171 26v458h-171v103h171v581l-172 27v73h1137l18 -405h-90l-62 279q-30 6 -109 13t-204 7h-203v-575h275v-103h-275z" />
    <glyph glyph-name="uni0493" unicode="&#x493;" horiz-adv-x="930" 
d="M149 500v350l-95 24v66h823v-308h-75l-43 186q-35 6 -88.5 12.5t-110.5 6.5h-122v-337h180v-81h-180v-329l153 -24v-66h-537v66l95 24v329h-129v81h129z" />
    <glyph glyph-name="uni0496" unicode="&#x496;" horiz-adv-x="2025" 
d="M1892 -349h115l14 349v73l-115 27l-454 744l341 398l144 26v73h-412v-73l113 -26l-478 -558v558l153 26v73h-601v-73l153 -26v-558l-478 558l113 26v73h-412v-73l144 -26l340 -398l-453 -744l-115 -27v-73h400l352 638l109 -87v-451l-159 -27v-73h613v73l-159 27v451
l108 87l353 -638h146z" />
    <glyph glyph-name="uni0497" unicode="&#x497;" horiz-adv-x="1485" 
d="M1225 0h-48l-219 444l-92 -55v-299l75 -24v-66h-398v66l75 24v299l-94 57l-217 -446h-303v64l82 20l277 528l-218 239l-95 23v66h304v-66l-65 -23l329 -379v378l-75 24v66h398v-66l-75 -24v-378l329 379l-65 23v66h304v-66l-95 -23l-219 -239l278 -528l82 -20v-64h-1
l-14 -349h-115z" />
    <glyph glyph-name="uni049A" unicode="&#x49a;" horiz-adv-x="1485" 
d="M1212 0h-156l-410 651l-124 -95v-456l193 -27v-73h-680v73l172 27v1142l-172 26v73h660v-73l-173 -26v-561l581 561l-123 26v73h459v-73l-164 -26l-413 -391l500 -751l105 -27v-73h-1l-14 -349h-115z" />
    <glyph glyph-name="uni049B" unicode="&#x49b;" horiz-adv-x="1180" 
d="M920 0h-240v63l86 27l-231 346l-107 -72v-274l85 -24v-66h-469v66l95 24v760l-95 24v66h469v-66l-85 -24v-386l410 383l-96 29v63h360v-63l-100 -25l-273 -246l356 -517l92 -25v-63h-3l-14 -349h-115z" />
    <glyph glyph-name="uni04A2" unicode="&#x4a2;" horiz-adv-x="1593" 
d="M1303 0h-405v74l172 26v535h-548v-535l172 -26v-74h-659v74l172 26v1141l-172 27v73h659v-73l-172 -27v-496h548v496l-172 27v73h661v-73l-173 -27v-1141l173 -26v-74h-2l-14 -349h-115z" />
    <glyph glyph-name="uni04A3" unicode="&#x4a3;" horiz-adv-x="1180" 
d="M873 0h-226v66l95 24v339h-304v-339l95 -24v-66h-479v66l95 24v760l-95 24v66h479v-66l-95 -24v-318h304v318l-95 24v66h479v-66l-95 -24v-760l95 -24v-60h1l-14 -355h-115z" />
    <glyph glyph-name="uni04AE" unicode="&#x4ae;" horiz-adv-x="1479" 
d="M911 528v-428l213 -27v-73h-742v73l213 27v422l-408 720l-151 26v73h690v-73l-180 -26l306 -562l296 562l-164 26v73h456v-73l-142 -26z" />
    <glyph glyph-name="uni04AF" unicode="&#x4af;" 
d="M1006 898q-61 -8 -101 -72q-12 -19 -45 -120l-204 -596v-354q0 -86 15 -114q22 -39 98 -44v-36h-505v36q62 2 92 36q20 23 20 122v341l-210 600q-46 130 -79 166q-24 26 -68 35v37h497v-37q-46 0 -64 -17q-24 -23 -24 -52q0 -39 34 -139l164 -491l133 443q43 131 43 184
q0 68 -102 72v37h306v-37z" />
    <glyph glyph-name="uni04B0" unicode="&#x4b0;" horiz-adv-x="1479" 
d="M595 433v89l-408 720l-151 26v73h690v-73l-180 -26l306 -562l296 562l-164 26v73h456v-73l-142 -26l-387 -714v-95h237v-109h-237v-224l213 -27v-73h-742v73l213 27v224h-252v109h252z" />
    <glyph glyph-name="uni04B1" unicode="&#x4b1;" 
d="M1006 0h-350v-244q0 -86 15 -114q22 -39 98 -44v-36h-505v36q62 2 92 36q20 23 20 122v244h-357v74h357v23l-210 600q-46 130 -79 166q-24 26 -68 35v37h497v-37q-46 0 -64 -17q-24 -23 -24 -52q0 -39 34 -139l164 -491l133 443q43 131 43 184q0 68 -102 72v37h306v-37
q-61 -8 -101 -72q-12 -19 -45 -120l-204 -596v-36h350v-74z" />
    <glyph glyph-name="uni04B2" unicode="&#x4b2;" horiz-adv-x="1479" 
d="M1200 0h-398v73l170 27l-290 447l-352 -447l166 -27v-73h-458v73l148 27l431 548l-384 594l-151 26v73h653v-73l-170 -26l234 -362l285 362l-166 26v73h459v-73l-148 -26l-365 -463l439 -679l152 -27v-73h-1l-14 -349h-115z" />
    <glyph glyph-name="uni04B3" unicode="&#x4b3;" 
d="M758 0h-247v65l105 23l-164 253l-218 -255l94 -21v-65h-320v65l84 16l300 352l-270 417l-91 25v65h502v-65l-105 -27l137 -211l181 213l-94 25v65h320v-65l-83 -21l-264 -310l298 -458l90 -21v-65h-1l-14 -349h-115z" />
    <glyph glyph-name="uni04BA" unicode="&#x4ba;" horiz-adv-x="1503" 
d="M1491 0h-652v37q140 0 140 142v364q0 112 -59 149q-38 24 -101 24q-126 0 -262 -70v-417q0 -74 3 -95q9 -56 44 -78q30 -19 92 -19v-37h-653v37q119 0 149 20q40 27 40 134v957q0 66 -4 86q-9 47 -46 67q-31 17 -94 17q-11 0 -45 1v37h705v-37q-73 -2 -97 -7
q-58 -11 -78 -50q-16 -31 -16 -93v-438q238 123 430 123q222 0 287 -133q31 -63 31 -189v-317q0 -109 38 -143.5t148 -34.5v-37z" />
    <glyph glyph-name="uni04BB" unicode="&#x4bb;" horiz-adv-x="1139" 
d="M436 1014q0 -15 -0.5 -35.5t-1.5 -42.5t-2 -42.5t-2 -35.5q31 16 68.5 35t79.5 35t86.5 26.5t89.5 10.5q57 0 105 -15t82.5 -48t53.5 -86t19 -128v-598l94 -24v-66h-467v66l84 24v559q0 84 -35.5 131t-101.5 47q-76 0 -152 -34v-703l86 -24v-66h-467v66l92 24v1241
l-96 24v66h385v-407z" />
    <glyph glyph-name="uni060C" unicode="&#x60c;" horiz-adv-x="499" 
d="M339 109q0 -54 -44 -91q-41 -35 -97 -35q-76 0 -115 67q-32 55 -32 136q0 110 81 224q62 88 108 112l75 -42q-158 -126 -158 -248q27 11 55 11q58 0 92.5 -38t34.5 -96z" />
    <glyph glyph-name="uni061B" unicode="&#x61b;" horiz-adv-x="499" 
d="M342 119q0 -56 -39.5 -95.5t-95.5 -39.5t-95.5 39.5t-39.5 95.5t39 95.5t96 39.5q56 0 95.5 -40t39.5 -95zM349 568q0 -55 -44 -92q-41 -35 -97 -35q-76 0 -115 67q-32 55 -32 136q0 110 81 224q63 89 108 112l75 -41q-158 -126 -158 -249q28 10 55 10q58 0 92.5 -37.5
t34.5 -94.5z" />
    <glyph glyph-name="uni061F" unicode="&#x61f;" horiz-adv-x="700" 
d="M560 1182l-83 -182q-63 25 -137 25q-163 0 -163 -108q0 -43 81 -113q43 -36 150 -131q80 -73 80 -143q0 -97 -62 -162l-141 73q54 44 54 93q0 41 -81 105q-121 96 -151 129q-81 90 -81 197q0 121 95 201q89 76 212 76q133 0 227 -60zM490 112q0 -54 -37.5 -90.5
t-91.5 -36.5q-53 0 -91 37t-38 90t38 91t91 38t91 -38t38 -91z" />
    <glyph glyph-name="uni0621" unicode="&#x621;" horiz-adv-x="676" 
d="M600 337l1 -12q0 -37 -28 -136q-208 -34 -495 -169v110q28 17 131 74q-102 53 -102 144q0 62 101 164q106 108 192 108q62 0 161 -65l-98 -124q-75 45 -113 45q-73 0 -132 -72q53 -118 172 -118q20 0 76 16q76 22 134 35z" />
    <glyph glyph-name="uni0622" unicode="&#x622;" horiz-adv-x="400" 
d="M415 1447q0 -35 -95 -69q-76 -29 -125 -33q-76 -5 -131 -6q-13 -19 -26 -68q-8 -33 -21 -33q-58 0 -58 17q0 55 14 120q21 92 55 92q19 0 56.5 -9.5t57.5 -9.5q122 0 269 75q4 -16 4 -76zM295 1226q24 -115 24 -330q0 -355 -65 -777l-91 -137l-1 339q0 471 -80 720z" />
    <glyph glyph-name="uni0623" unicode="&#x623;" horiz-adv-x="400" 
d="M382 1367v-5q0 -13 -10 -49q-15 -41 -23 -43q-50 -7 -95 -17q-105 -24 -246 -111q2 37 6 75q26 22 110 63q-91 47 -91 107q0 47 70.5 112t119.5 65q67 0 133 -62l-69 -66q-42 39 -77 39q-24 0 -59 -19q-40 -20 -40 -43q0 -25 43 -55.5t70 -30.5q53 16 158 40zM298 1146
q23 -115 23 -330q0 -275 -64 -697l-91 -137l-1 339q0 391 -80 640z" />
    <glyph glyph-name="uni0624" unicode="&#x624;" horiz-adv-x="700" 
d="M608 154q0 -318 -273 -639q-75 0 -181 34q-101 33 -167 77q189 77 304 167q135 105 220 264q-76 -28 -157 -28q-149 0 -251 88q0 202 87 343q59 93 135 135q107 0 186 -99q97 -119 97 -342zM473 246q-25 55 -67 99q-51 55 -100 55q-26 0 -55 -45q-25 -38 -32 -68
q10 -30 71 -47q45 -13 89 -13q57 0 94 19zM454 880v-5q0 -13 -10 -49q-15 -41 -23 -43q-50 -7 -95 -17q-105 -24 -246 -111q2 37 6 75q26 22 110 63q-91 47 -91 107q0 47 70.5 112t119.5 65q67 0 133 -62l-69 -66q-42 39 -77 39q-24 0 -59 -19q-40 -20 -40 -43
q0 -25 43 -55.5t70 -30.5q53 16 158 40z" />
    <glyph glyph-name="uni0625" unicode="&#x625;" horiz-adv-x="400" 
d="M292 1226q23 -115 23 -330q0 -355 -65 -777l-90 -136l-1 338q0 472 -80 720zM387 -298v-5q0 -13 -10 -49q-15 -41 -23 -43q-50 -7 -95 -17q-105 -24 -246 -111q2 37 6 75q26 22 110 63q-91 47 -91 107q0 47 70.5 112t119.5 65q67 0 133 -62l-69 -66q-42 39 -77 39
q-24 0 -59 -19q-40 -20 -40 -43q0 -25 43 -55.5t70 -30.5q53 16 158 40z" />
    <glyph glyph-name="uni0626" unicode="&#x626;" horiz-adv-x="1252" 
d="M1194 720l-109 -241q-51 19 -96 19q-151 0 -243 -218q4 -33 101 -61l177 -50q94 -37 94 -91q0 -127 -76 -333q-330 -196 -676 -196q-160 0 -252 73q-100 80 -100 236q0 100 49 242q40 118 94 209h9q39 0 59 -32q-72 -134 -72 -266q0 -217 285 -217q118 0 293 41
q189 45 279 102q-75 53 -230 87q-126 28 -166 87q0 49 37 180q129 459 403 459q66 0 140 -30zM650 662l1 -10q0 -32 -24 -117q-179 -29 -425 -145v94q24 15 112 64q-87 45 -87 124q0 53 87 140q91 93 164 93q54 0 139 -56l-84 -106q-65 38 -97 38q-63 0 -114 -61
q46 -102 148 -102q17 0 65 14q65 19 115 30z" />
    <glyph glyph-name="uni0627" unicode="&#x627;" horiz-adv-x="400" 
d="M293 1227q24 -115 24 -330q0 -355 -65 -777l-91 -137l-1 339q0 471 -80 720z" />
    <glyph glyph-name="uni0628" unicode="&#x628;" horiz-adv-x="1360" 
d="M1303 456q0 -42 -51.5 -152t-83.5 -136q-40 -31 -248 -79q-247 -57 -458 -57q-282 0 -388 111q-68 70 -68 208q0 187 107 353h10q40 0 55 -30q-55 -130 -55 -198q0 -199 428 -199q389 0 610 93q-38 98 -99 180l137 185q41 -51 74 -148q30 -87 30 -131zM771 -257
l-145 -136l-142 142l148 135z" />
    <glyph glyph-name="uni0629" unicode="&#x629;" horiz-adv-x="700" 
d="M616 386q0 -142 -55 -280q-87 -74 -222 -74q-163 0 -265 105q0 222 129 404l-53 22l74 222q163 -44 244 -103q148 -106 148 -296zM527 302q0 74 -85 142q-72 58 -151 75q-76 -125 -97 -209q67 -68 180 -68q103 0 153 60zM632 1064l-133 -126l-131 132l137 122zM303 1046
l-133 -126l-131 133l136 121z" />
    <glyph glyph-name="uni062A" unicode="&#x62a;" horiz-adv-x="1359" 
d="M1309 456q0 -42 -51.5 -152t-83.5 -136q-40 -31 -248 -79q-247 -57 -458 -57q-282 0 -388 111q-68 70 -68 208q0 187 107 353q5 1 10 1q40 0 55 -31q-55 -130 -55 -198q0 -199 428 -199q389 0 610 93q-38 98 -99 180l137 185q41 -51 74 -148q30 -87 30 -131zM923 900
l-124 -125l-126 111l-115 -116l-133 116l125 127l126 -113l115 118z" />
    <glyph glyph-name="uni062B" unicode="&#x62b;" horiz-adv-x="1359" 
d="M1309 456q0 -42 -51.5 -152t-83.5 -136q-40 -31 -248 -79q-247 -57 -458 -57q-282 0 -388 111q-68 70 -68 208q0 187 107 353q5 1 10 1q40 0 55 -31q-55 -130 -55 -198q0 -199 428 -199q389 0 610 93q-38 98 -99 180l137 185q41 -51 74 -148q30 -87 30 -131zM923 900
l-124 -125l-126 111l-115 -116l-133 116l125 127l126 -113l115 118zM795 1115l-133 -126l-130 132l135 122z" />
    <glyph glyph-name="uni062C" unicode="&#x62c;" horiz-adv-x="1063" 
d="M1090 -307l-85 -113q-75 -25 -252 -47q-166 -21 -266 -21q-196 0 -324 87q-149 100 -149 287q0 188 172 367q136 141 292 207q-234 52 -259 52q-48 0 -107 -140q-43 0 -66 26q80 195 99 234q57 118 103 118q67 0 239.5 -52.5t266.5 -52.5h252l-133 -209q-31 1 -61 1
q-312 0 -474 -175q-114 -124 -114 -253q0 -328 587 -328q84 0 279 12zM735 32l-145 -137l-142 142l147 135z" />
    <glyph glyph-name="uni062D" unicode="&#x62d;" horiz-adv-x="1066" 
d="M1086 -307l-85 -113q-75 -25 -252 -47q-166 -21 -266 -21q-196 0 -324 87q-149 100 -149 287q0 188 172 367q136 141 292 207q-234 52 -259 52q-48 0 -107 -140q-43 0 -66 26q80 195 99 234q57 118 103 118q67 0 239.5 -52.5t266.5 -52.5h252l-133 -209q-31 1 -61 1
q-312 0 -474 -175q-114 -124 -114 -253q0 -328 587 -328q84 0 279 12z" />
    <glyph glyph-name="uni062E" unicode="&#x62e;" horiz-adv-x="1066" 
d="M1089 -307l-85 -113q-75 -25 -252 -47q-166 -21 -266 -21q-196 0 -324 87q-149 101 -149 287q0 188 172 367q136 141 292 207q-234 52 -259 52q-48 0 -107 -140q-43 0 -66 26q80 195 99 234q57 118 103 118q67 0 239.5 -52t266.5 -52h252l-133 -210q-31 2 -61 2
q-312 0 -474 -176q-114 -124 -114 -253q0 -327 587 -327q84 0 279 11zM725 1015l-145 -137l-142 142l147 135z" />
    <glyph glyph-name="uni062F" unicode="&#x62f;" horiz-adv-x="744" 
d="M676 423q0 -189 -53 -308q-37 -47 -163 -77q-104 -24 -186 -24q-111 0 -179 47q0 122 40 281h36q14 -40 28 -54q35 -39 107 -39q164 0 260 63q-56 227 -359 285l44 280q164 -49 285 -166q140 -135 140 -288z" />
    <glyph glyph-name="uni0630" unicode="&#x630;" horiz-adv-x="750" 
d="M682 423q0 -189 -53 -308q-37 -47 -163 -77q-104 -24 -186 -24q-111 0 -179 47q0 122 40 281h36q14 -40 28 -55q35 -38 107 -38q164 0 260 63q-56 227 -359 285l44 280q164 -50 285 -167q140 -135 140 -287zM430 1127l-144 -137l-143 143l148 135z" />
    <glyph glyph-name="uni0631" unicode="&#x631;" horiz-adv-x="599" 
d="M518 72q0 -108 -95 -295q-91 -180 -186 -275q-62 0 -166.5 43t-149.5 87q163 74 291 173q150 117 178 210q-41 113 -167 197l125 241q66 -58 118 -175t52 -206z" />
    <glyph glyph-name="uni0632" unicode="&#x632;" horiz-adv-x="599" 
d="M514 72q0 -108 -95 -295q-91 -180 -186 -275q-62 0 -166.5 43t-149.5 87q163 75 291 174q150 116 178 209q-41 113 -167 197l125 241q66 -58 118 -175t52 -206zM445 739l-145 -137l-142 142l147 135z" />
    <glyph glyph-name="uni0633" unicode="&#x633;" horiz-adv-x="1900" 
d="M1827 445q0 -34 -31 -131q-29 -87 -50 -129q-28 -58 -90 -103q-65 -48 -126 -48q-145 0 -189 179q-71 -180 -200 -180q-57 0 -124 36q2 -19 2 -41q0 -54 -12 -139q-13 -99 -32 -131q-78 -92 -214 -157q-169 -82 -361 -82q-233 0 -333 124q-64 80 -64 196q0 167 192 445
q5 1 11 1q43 0 54 -36q-101 -162 -101 -275q0 -111 91 -166q74 -46 192 -46q159 0 305 57q131 52 173 112q-39 207 -165 330l95 237q97 -138 123 -163q61 -59 145 -59q110 0 159 95q31 61 31 141h81q0 -234 142 -234q106 0 172 56q0 24 -115 191l139 182q32 -35 64 -115
q36 -87 36 -147z" />
    <glyph glyph-name="uni0634" unicode="&#x634;" horiz-adv-x="1900" 
d="M1839 444q0 -34 -31 -130q-29 -87 -50 -130q-28 -57 -90 -102q-65 -48 -126 -48q-145 0 -189 178q-71 -179 -200 -179q-57 0 -124 35q2 -19 2 -40q0 -54 -12 -139q-13 -100 -32 -131q-78 -92 -214 -157q-169 -82 -361 -82q-233 0 -333 124q-64 80 -64 196q0 167 192 444
q5 2 11 2q43 0 54 -36q-101 -162 -101 -275q0 -111 91 -167q74 -46 192 -46q159 0 305 58q131 51 173 112q-39 207 -165 330l95 237q97 -138 123 -163q61 -59 145 -59q110 0 159 95q31 61 31 141h81q0 -234 142 -234q106 0 172 56q0 24 -115 191l139 181q32 -35 64 -114
q36 -87 36 -148zM1600 827l-124 -125l-126 111l-115 -116l-133 116l125 127l126 -113l115 118zM1472 1042l-133 -126l-130 132l135 122z" />
    <glyph glyph-name="uni0635" unicode="&#x635;" horiz-adv-x="2001" 
d="M1938 438q0 -27 -81 -120q-250 -286 -673 -286q-118 0 -164 36q2 -16 2 -36q0 -71 -17 -168q-15 -87 -27 -106q-78 -92 -214 -157q-169 -82 -361 -82q-233 0 -333 124q-64 80 -64 196q0 167 192 444q5 2 11 2q43 0 54 -36q-101 -162 -101 -275q0 -111 91 -167
q74 -46 192 -46q159 0 305 58q131 51 173 112q-39 207 -165 330l95 237q98 -137 133 -168q63 -56 157 -56q143 173 228 248q167 145 312 145q108 0 186 -81q69 -71 69 -148zM1730 369q0 58 -44.5 95t-103.5 37q-84 0 -187 -87q-71 -60 -133 -145q358 0 468 100z" />
    <glyph glyph-name="uni0636" unicode="&#x636;" horiz-adv-x="2001" 
d="M1944 438q0 -27 -81 -120q-250 -286 -673 -286q-118 0 -164 36q2 -16 2 -36q0 -71 -17 -168q-15 -87 -27 -106q-78 -92 -214 -157q-169 -82 -361 -82q-233 0 -333 124q-64 80 -64 196q0 167 192 444q5 2 11 2q43 0 54 -36q-101 -162 -101 -275q0 -111 91 -167
q74 -46 192 -46q159 0 305 58q131 51 173 111q-39 207 -165 331l95 236q98 -136 133 -167q63 -56 157 -56q143 173 228 248q167 145 312 145q108 0 186 -81q69 -71 69 -148zM1736 369q0 58 -44.5 95t-103.5 37q-84 0 -187 -87q-71 -61 -133 -145q358 0 468 100zM1702 960
l-145 -137l-142 142l148 135z" />
    <glyph glyph-name="uni0637" unicode="&#x637;" horiz-adv-x="1201" 
d="M1110 448q0 -37 -76 -126q-100 -117 -249 -191q-199 -98 -456 -98q-159 0 -205 61q-32 41 -95 275h57q32 -61 102 -81q44 -12 136 -12v173q0 431 -99 659l162 144l133 -261h-67v-572q196 252 402 252q104 0 183 -79q72 -71 72 -144zM907 371q0 60 -43.5 96t-104.5 36
q-149 0 -320 -232q358 0 468 100z" />
    <glyph glyph-name="uni0638" unicode="&#x638;" horiz-adv-x="1201" 
d="M1106 447q0 -37 -76 -126q-100 -117 -249 -191q-199 -98 -456 -98q-159 0 -205 62q-32 41 -95 275h57q32 -61 102 -81q44 -13 136 -13v174q0 430 -99 659l162 144l133 -261h-67v-573q196 252 402 252q104 0 183 -78q72 -71 72 -145zM903 371q0 60 -43.5 96t-104.5 36
q-149 0 -320 -232q358 0 468 100zM958 971l-145 -137l-142 142l148 135z" />
    <glyph glyph-name="uni0639" unicode="&#x639;" horiz-adv-x="901" 
d="M910 -327l-72 -113q-196 -67 -403 -67q-184 0 -297 65q-140 82 -140 252q0 151 131 299q89 100 194 163q-81 60 -97 78q-70 73 -70 162q0 81 116 203q121 127 220 127q134 0 237 -159q12 -19 12 -24q0 -4 -5 -4q-7 0 -33 10q-67 25 -144 25q-123 0 -211 -60
q16 -172 182 -219l313 77l-77 -203q-169 -12 -309 -67q-247 -97 -247 -291q0 -155 179 -223q121 -46 308 -46q102 0 213 15z" />
    <glyph glyph-name="uni063A" unicode="&#x63a;" horiz-adv-x="901" 
d="M910 -327l-72 -113q-196 -67 -403 -67q-184 0 -297 65q-140 82 -140 252q0 151 131 299q89 100 194 163q-81 60 -97 78q-70 73 -70 162q0 81 116 203q121 127 220 127q134 0 237 -159q12 -19 12 -24q0 -4 -5 -4q-7 0 -33 10q-67 25 -144 25q-123 0 -211 -60
q16 -172 182 -219l313 77l-77 -203q-169 -12 -309 -67q-247 -97 -247 -291q0 -155 179 -223q121 -46 308 -46q102 0 213 15zM619 1084l-145 -137l-142 142l148 135z" />
    <glyph glyph-name="uni0640" unicode="&#x640;" horiz-adv-x="501" 
d="M513 32h-528v247h528v-247z" />
    <glyph glyph-name="uni0641" unicode="&#x641;" horiz-adv-x="1301" 
d="M1212 496q0 -129 -30 -341q-173 -123 -680 -123q-268 0 -360 38q-133 55 -133 232q0 159 111 333h9q34 0 45 -30q-52 -85 -52 -164q0 -119 147 -149q71 -14 348 -14q367 0 484 60v92q-68 -28 -152 -28q-140 0 -216 63q0 198 73 327q51 87 120 126q156 0 230 -141
q56 -108 56 -281zM1090 596q-64 137 -173 137q-28 0 -51 -38q-21 -34 -21 -64q0 -53 146 -53q72 0 99 18zM1084 1142l-131 -123l-128 128l133 122z" />
    <glyph glyph-name="uni0642" unicode="&#x642;" horiz-adv-x="1134" 
d="M1062 136q0 -72 -13 -192q-16 -138 -36 -184q-70 -70 -223 -141q-207 -96 -405 -96q-170 0 -265 82q-102 87 -102 254q0 88 40 220q42 140 100 221q45 -3 56 -29q-65 -138 -65 -258q0 -246 287 -246q118 0 271 51q159 51 247 122v113q-72 -19 -145 -19q-155 0 -254 88
q0 142 53 268q62 144 171 209q283 -37 283 -463zM923 250q-46 135 -177 152q-51 -37 -70 -111q44 -65 162 -65q56 0 85 24zM1023 859l-133 -125l-130 131l136 123zM694 842l-133 -126l-131 132l136 122z" />
    <glyph glyph-name="uni0643" unicode="&#x643;" horiz-adv-x="1255" 
d="M821 34q-261 -2 -312 -2q-269 0 -363 38q-137 55 -137 232q0 159 111 333h9q34 0 45 -30q-52 -85 -52 -164q0 -114 129 -145q72 -18 303 -18h326q80 0 118 57v192q0 121 -27 290q-29 176 -73 276l168 146l129 -263h-63v-642q-19 -119 -78 -201q-72 -102 -179 -102h-54v3z
M756 852l-48 -59q-36 10 -74 12q-85 -4 -92 -47q5 -17 33 -27q69 -16 144 -33q54 -17 59 -70q-4 -84 -85 -121q-80 -36 -190 -36h-133q12 51 59 74h121q43 0 80 9.5t40 28.5q-4 21 -15 21h-3q-66 7 -149 20q-68 17 -74 85q3 62 76.5 120.5t172.5 61.5q61 0 78 -27q2 -2 2 -5
t-2 -7z" />
    <glyph glyph-name="uni0644" unicode="&#x644;" horiz-adv-x="957" 
d="M905 965h-73q12 -271 12 -638q0 -108 -1 -224q-6 -48 -28 -123q-25 -85 -48 -114q-70 -66 -176 -121q-162 -84 -322 -84q-257 0 -257 250q0 164 107 395q39 -2 63 -23q-39 -86 -39 -207q0 -177 185 -177q174 0 376 119v351q0 187 -26 387q-29 222 -75 329l164 147z" />
    <glyph glyph-name="uni0645" unicode="&#x645;" horiz-adv-x="949" 
d="M872 371q-8 -69 -74 -187q-61 -108 -112 -159q-281 98 -420 98q-69 0 -123 -19q22 -167 37 -574l-132 -156q0 407 -36 687q97 171 174 236q23 10 128 31q-19 58 -19 97q0 8 1 16q58 87 169 227q333 -12 407 -297zM737 238q-24 96 -95 161q-76 68 -171 68q-33 0 -66 -10
l40 -138q143 -19 292 -81z" />
    <glyph glyph-name="uni0646" unicode="&#x646;" horiz-adv-x="1100" 
d="M1038 61q0 -112 -59 -304q-78 -91 -214 -157q-169 -82 -361 -82q-233 0 -333 125q-64 79 -64 195q0 168 192 445q5 2 11 2q43 0 54 -36q-101 -162 -101 -276q0 -110 91 -166q74 -46 192 -46q159 0 305 58q131 51 173 111q-39 207 -165 330l98 246q65 -76 120 -203
q61 -140 61 -242zM702 620l-145 -137l-142 142l147 135z" />
    <glyph glyph-name="uni0647" unicode="&#x647;" horiz-adv-x="700" 
d="M616 386q0 -142 -55 -280q-86 -74 -221 -74q-163 0 -266 105q0 222 129 404l-52 22l73 222q163 -44 244 -103q148 -106 148 -296zM527 302q0 74 -85 142q-72 58 -151 75q-76 -125 -96 -209q66 -68 180 -68q102 0 152 60z" />
    </font>
</defs>
</svg>
