<?xml version="1.0" standalone="no"?>
<!DOCTYPE svg PUBLIC "-//W3C//DTD SVG 1.1//EN" "http://www.w3.org/Graphics/SVG/1.1/DTD/svg11.dtd" >
<svg xmlns="http://www.w3.org/2000/svg" xmlns:xlink="http://www.w3.org/1999/xlink" version="1.1">
<metadata>
Created by FontForge 20170924 at Thu Jul 15 21:32:08 2004
 By www-data
Uyghur Computer Science Association. Free distributed and all rights reserved. http://www.ukij.org
</metadata>
<defs>
<font id="UKIJRuqi" horiz-adv-x="1983" >
  <font-face 
    font-family="UKIJ Ruqi"
    font-weight="400"
    font-stretch="normal"
    units-per-em="2048"
    panose-1="2 2 6 3 7 5 5 2 3 4"
    ascent="1638"
    descent="-410"
    x-height="913"
    cap-height="1292"
    bbox="-431 -998 2766 1955"
    underline-thickness="180"
    underline-position="-1005"
    unicode-range="U+0020-FEFC"
  />
<missing-glyph horiz-adv-x="1620" 
d="M284 248v1313h1051v-1313h-1051zM318 280h984v1247h-984v-1247z" />
    <glyph glyph-name="uni2163" unicode="&#x651;&#x64b;" horiz-adv-x="1931" 
d="M1804 1552q-130 0 -157 -106l-407 -1268l-388 1202q-66 172 -167 172v51h432v-51q-173 0 -124 -148l283 -896l266 846q14 68 35 133t-119 65v51h346v-51zM273 291v1203q-18 58 -175 58v51h497v-51q-148 0 -175 -49v-1194q19 -48 175 -48v-51h-497v51q157 0 175 30z" />
    <glyph glyph-name="uni2467" unicode="&#x651;&#x64c;" 
d="M992 1594q220 0 412 -111.5t302.5 -303t110.5 -411.5q0 -219 -111 -410.5t-303 -302t-411 -110.5q-220 0 -412 110.5t-303 302t-111 410.5q0 220 110.5 412t302.5 303t413 111zM992 69q286 0 494 206.5t208 492.5q0 187 -95 350t-257.5 257.5t-349.5 94.5
q-290 0 -496 -207t-206 -495q0 -286 207.5 -492.5t494.5 -206.5zM1118 813q171 -55 171 -234q0 -120 -83.5 -199t-216.5 -79q-134 0 -218 80.5t-84 201.5q0 87 47.5 151t127.5 79v3q-139 42 -139 184q0 101 72.5 169t190.5 68q120 0 193.5 -69t73.5 -170q0 -136 -135 -182
v-3zM989 856q64 0 106.5 41t42.5 101q0 62 -44 105.5t-106 43.5q-64 0 -106.5 -42.5t-42.5 -99.5q0 -68 44 -108.5t106 -40.5zM989 394q79 0 132 51t53 134q0 82 -54.5 133.5t-133.5 51.5q-81 0 -132.5 -54t-51.5 -130q0 -79 52 -132.5t135 -53.5z" />
    <glyph glyph-name="uni2468" unicode="&#x651;&#x64d;" 
d="M992 1594q220 0 412 -111.5t302.5 -303t110.5 -411.5q0 -219 -111 -410.5t-303 -302t-411 -110.5q-220 0 -412 110.5t-303 302t-111 410.5q0 220 110.5 412t302.5 303t413 111zM992 69q286 0 494 206.5t208 492.5q0 187 -95 350t-257.5 257.5t-349.5 94.5
q-290 0 -496 -207t-206 -495q0 -286 207.5 -492.5t494.5 -206.5zM1188 748q-79 -121 -216 -121q-114 0 -193 83t-79 218q0 136 80.5 222.5t207.5 86.5q128 0 220.5 -98t92.5 -346q0 -246 -81.5 -369t-244.5 -123q-105 0 -174.5 56.5t-84.5 172.5l108 7q25 -143 152 -143
q102 0 158.5 93t56.5 261h-3zM998 727q82 0 131 58t49 148q0 91 -50 152.5t-127 61.5q-79 0 -133 -65.5t-54 -157.5q0 -87 53.5 -142t130.5 -55z" />
    <glyph glyph-name="uni2469" unicode="&#x651;&#x64e;" 
d="M992 1594q220 0 412 -111.5t302.5 -303t110.5 -411.5q0 -219 -111 -410.5t-303 -302t-411 -110.5q-220 0 -412 110.5t-303 302t-111 410.5q0 220 110.5 412t302.5 303t413 111zM992 69q286 0 494 206.5t208 492.5q0 187 -95 350t-257.5 257.5t-349.5 94.5
q-290 0 -496 -207t-206 -495q0 -286 207.5 -492.5t494.5 -206.5zM1197 1237q147 0 222 -117.5t75 -351.5q0 -233 -75 -350t-222 -117q-150 0 -225 117t-75 350q0 234 75 351.5t225 117.5zM1197 394q91 0 136.5 93t45.5 281q0 202 -46.5 290.5t-138.5 88.5q-90 0 -135.5 -90
t-45.5 -289q0 -200 46.5 -287t137.5 -87zM785 316h-113v718q-85 -79 -226 -136v108q194 95 266 231h73v-921z" />
    <glyph glyph-name="uni246A" unicode="&#x651;&#x64f;" 
d="M992 1594q220 0 412 -111.5t302.5 -303t110.5 -411.5q0 -219 -111 -410.5t-303 -302t-411 -110.5q-220 0 -412 110.5t-303 302t-111 410.5q0 220 110.5 412t302.5 303t413 111zM992 69q286 0 494 206.5t208 492.5q0 187 -95 350t-257.5 257.5t-349.5 94.5
q-290 0 -496 -207t-206 -495q0 -286 207.5 -492.5t494.5 -206.5zM1329 316h-113v718q-85 -79 -227 -136v108q195 95 267 231h73v-921zM839 316h-111v718q-86 -79 -227 -136v108q193 95 266 231h72v-921z" />
    <glyph glyph-name="uni246B" unicode="&#x651;&#x650;" 
d="M992 1594q220 0 412 -111.5t302.5 -303t110.5 -411.5q0 -219 -111 -410.5t-303 -302t-411 -110.5q-220 0 -412 110.5t-303 302t-111 410.5q0 220 110.5 412t302.5 303t413 111zM992 69q286 0 494 206.5t208 492.5q0 187 -95 350t-257.5 257.5t-349.5 94.5
q-290 0 -496 -207t-206 -495q0 -286 207.5 -492.5t494.5 -206.5zM1490 316h-608q0 78 53.5 156t204.5 202q99 79 165.5 154.5t66.5 156.5q0 69 -48.5 115.5t-123.5 46.5t-126.5 -47t-51.5 -142l-117 15q11 125 90 194.5t208 69.5q134 0 209.5 -74t75.5 -181
q0 -90 -55 -168.5t-169 -173.5q-148 -123 -175 -149.5t-51 -66.5h452v-108zM770 316h-113v718q-85 -79 -227 -136v108q193 95 266 231h74v-921z" />
    <glyph glyph-name="afii64184" unicode="&#xfedf;&#xfee0;&#xfeea;" horiz-adv-x="1536" arabic-form="isolated" 
d="M898 1558q-13 33 -33.5 64t-47.5 59q-16 19 -75 67q7 46 51 46q40 0 64 -41q16 -34 26 -51.5t14 -25.5q19 -46 26 -108zM1094.5 1456q-6.5 -36 -21 -62t-32.5 -41t-42 -15q-26 0 -44 5t-47 19q-13 -32 -39 -58q-38 -32 -72 -32q-44 0 -67.5 29t-23.5 76q0 23 3.5 46.5
t6.5 38.5l36 11q0 -53 15 -71.5t47 -18.5q12 0 26 13.5t26 33t20.5 43t11.5 46.5l24 6q5 -21 10 -33.5t8 -18.5q21 -20 59 -20q30 0 50 47q8 15 14 32t8 40l26 6q3 -14 3.5 -24t0.5 -22q0 -40 -6.5 -76zM1401 606.5q-1 -18.5 -4 -34.5q-4 -55 -30 -98l-13 -26
q-127 0 -213 38q-35 15 -64.5 39.5t-54.5 56.5q-45 -75 -105 -108q-51 -26 -121 -26q-73 0 -139 42t-92 105q-41 -63 -103 -105t-122 -42q-121 0 -193 17.5t-72 47.5q0 93 125 209q62 59 137.5 107.5t165.5 90.5q-3 17 -10.5 45.5t-7.5 45.5q0 40 29 83q10 17 23.5 36.5
t30.5 42.5l14 -90t16 -90q25 -134 47 -252q16 -57 52 -84t97 -27q54 0 77 14q26 12 72 79l-65 299q-5 18 -7 32.5t-3 23.5q-5 23 -6.5 38t-1.5 25q0 38 27 81q20 41 51 82q5 -28 11.5 -56.5t13.5 -64.5t16 -83.5t20 -107.5l40 -192q19 -77 55 -120q41 -48 113 -48
q31 0 49.5 24t24.5 67l-61 299q-5 23 -6 37.5t-7 18.5q-6 44 -6 63q0 32 26 81q26 46 54 82q0 -17 10 -59.5t25 -116.5q21 -90 35.5 -158t23.5 -112q18 -82 22.5 -133.5t4.5 -78.5q0 -21 -1 -39.5zM524 795q-101 -36 -148 -66q-59 -44 -96 -102q25 -8 54.5 -13.5t86.5 -5.5
q64 0 122 67z" />
    <glyph glyph-name="afii62834" unicode="&#xfedf;&#xfe82;" horiz-adv-x="952" arabic-form="isolated" 
 />
    <glyph glyph-name="afii62835" unicode="&#xfee0;&#xfe82;" horiz-adv-x="1033" arabic-form="final" 
 />
    <glyph glyph-name="afii62836" unicode="&#xfedf;&#xfe84;" horiz-adv-x="1019" arabic-form="isolated" 
d="M139 -65q-37 0 -75 14t-62 26q-4 1 -9 3.5t-8 4.5q-4 3 -9 4t-8 3q-15 6 -35 14.5t-46 19.5q75 13 148 26.5t148 24.5q81 23 140.5 69t92.5 110q-11 11 -38.5 17.5t-71.5 6.5q-53 0 -88 41q22 95 52 185q50 138 105 138q60 0 92 -64q4 -13 9.5 -25.5t10.5 -26.5
q6 -13 9.5 -33.5t6.5 -46.5q16 2 31 6.5t31 6.5l-92 -177q-24 -18 -66 -125q-21 -52 -41.5 -89t-39.5 -58q-35 -35 -82 -55t-105 -20zM366 896q-4 7 -15 28q-10 18 -27 48t-39 68q-33 54 -50.5 85t-17.5 37q0 64 65 177q35 -24 66.5 -68.5t59.5 -108.5q5 9 11 19t12 21
q13 24 32 56.5t42 68.5zM917 665q2 -34 -50 -142q-26 -53 -46 -87t-34 -47q-20 -19 -62 -41t-97 -41q-47 -18 -91 -30.5t-78 -17.5l47 191q37 4 80 16t91 31q137 51 134 101l-57 799q-2 33 91 177z" />
    <glyph glyph-name="afii62837" unicode="&#xfee0;&#xfe84;" horiz-adv-x="1066" arabic-form="final" 
d="M139 -65q-37 0 -75 14t-62 26q-4 1 -9 3.5t-8 4.5q-4 3 -9 4t-8 3q-15 6 -35 14.5t-46 19.5q75 13 148 26.5t148 24.5q81 23 140.5 69t92.5 110q-11 11 -38.5 17.5t-71.5 6.5q-53 0 -88 41q22 95 52 185q50 138 105 138q60 0 92 -64q4 -13 9.5 -25.5t10.5 -26.5
q6 -13 9.5 -33.5t6.5 -46.5q16 2 31 6.5t31 6.5l-92 -177q-24 -18 -66 -125q-21 -52 -41.5 -89t-39.5 -58q-35 -35 -82 -55t-105 -20zM366 896q-4 7 -15 28q-10 18 -27 48t-39 68q-33 54 -50.5 85t-17.5 37q0 64 65 177q35 -24 66.5 -68.5t59.5 -108.5q5 9 11 19t12 21
q13 24 32 56.5t42 68.5zM876 488q0 -22 23 -39t59 -27q46 11 94.5 23t93.5 23l-38 -194q-18 -6 -62 -14.5t-116 -20.5q-30 19 -69 33q-15 5 -28 24.5t-24 49.5q-5 12 -9 23t-5 23q-6 -8 -9 -9q-19 -19 -61.5 -41t-97.5 -41q-52 -19 -98 -31t-81 -17l47 191q37 4 84 16.5
t97 30.5q67 25 94 51t12 50l-39 799q-2 33 91 177q22 -288 33.5 -498.5t11.5 -342.5q0 -41 -0.5 -73t-3.5 -59l4 4v-16t-1 -21v-20q-2 -18 -2 -31v-23z" />
    <glyph glyph-name="afii62838" unicode="&#xfedf;&#xfe88;" horiz-adv-x="1019" arabic-form="isolated" 
d="M139 -65q-37 0 -75 14t-62 26q-4 1 -9 3.5t-8 4.5q-4 3 -9 4t-8 3q-15 6 -35 14.5t-46 19.5q75 13 148 26.5t148 24.5q81 23 140.5 69t92.5 110q-11 11 -38.5 17.5t-71.5 6.5q-53 0 -88 41q22 95 52 185q50 138 105 138q60 0 92 -64q4 -13 9.5 -25.5t10.5 -26.5
q6 -13 9.5 -33.5t6.5 -46.5q16 2 31 6.5t31 6.5l-92 -177q-24 -18 -66 -125q-21 -52 -41.5 -89t-39.5 -58q-35 -35 -82 -55t-105 -20zM917 665q2 -34 -50 -142q-26 -53 -46 -87t-34 -47q-20 -19 -62 -41t-97 -41q-47 -18 -91 -30.5t-78 -17.5l47 191q37 4 80 16t91 31
q137 51 134 101l-57 799q-2 33 91 177zM546 1143q0 -27 -92 -145q-108 113 -120 113q-50 0 -148 -198q112 383 237 383q33 0 80 -58q43 -56 43 -95z" />
    <glyph glyph-name="afii62839" unicode="&#xfee0;&#xfe88;" horiz-adv-x="1066" arabic-form="final" 
d="M139 -65q-37 0 -75 14t-62 26q-4 1 -9 3.5t-8 4.5q-4 3 -9 4t-8 3q-15 6 -35 14.5t-46 19.5q75 13 148 26.5t148 24.5q81 23 140.5 69t92.5 110q-11 11 -38.5 17.5t-71.5 6.5q-53 0 -88 41q22 95 52 185q50 138 105 138q60 0 92 -64q4 -13 9.5 -25.5t10.5 -26.5
q6 -13 9.5 -33.5t6.5 -46.5q16 2 31 6.5t31 6.5l-92 -177q-24 -18 -66 -125q-21 -52 -41.5 -89t-39.5 -58q-35 -35 -82 -55t-105 -20zM876 488q0 -22 23 -39t59 -27q46 11 94.5 23t93.5 23l-38 -194q-18 -6 -62 -14.5t-116 -20.5q-30 19 -69 33q-15 5 -28 24.5t-24 49.5
q-5 12 -9 23t-5 23q-6 -8 -9 -9q-19 -19 -61.5 -41t-97.5 -41q-52 -19 -98 -31t-81 -17l47 191q37 4 84 16.5t97 30.5q67 25 94 51t12 50l-39 799q-2 33 91 177q22 -288 33.5 -498.5t11.5 -342.5q0 -41 -0.5 -73t-3.5 -59l4 4v-16t-1 -21v-20q-2 -18 -2 -31v-23zM546 1143
q0 -27 -92 -145q-108 113 -120 113q-50 0 -148 -198q112 383 237 383q33 0 80 -58q43 -56 43 -95z" />
    <glyph glyph-name="afii62840" unicode="&#xfedf;&#xfe8e;" horiz-adv-x="689" arabic-form="isolated" 
d="M285 1008q0 14 2.5 35t7.5 47q4 28 6.5 48t2.5 33q0 29 1.5 47.5t2.5 23.5q5 22 15 50.5t27 63.5l65 128v-17q0 -19 -9 -59q-7 -42 -7 -57v-21q7 -44 10 -76t3 -52q0 -73 3 -218q2 -69 2.5 -126t0.5 -92q0 -67 -33 -201q-40 -159 -84 -163zM561 675q0 54 -4 135t-12 190
q-7 110 -11 190t-4 133q0 24 11.5 52.5t32.5 59.5q37 54 82 90l17 -732q1 -139 -95 -333q-111 -217 -235 -217h-244q54 54 185 118q135 63 186 113q91 81 91 201z" />
    <glyph glyph-name="afii62841" unicode="&#xfee0;&#xfe8e;" horiz-adv-x="691" arabic-form="final" 
d="M388 961q0 -358 -99 -497q-1 16 0 40.5t4 54.5q2 30 4 54t2 37q0 118 -21 356q-9 120 -14 208.5t-5 148.5q0 18 31 85q5 6 44 95q2 -23 10.5 -95t22.5 -197q21 -174 21 -290zM694 243q-34 5 -60 53t-39 137q-5 26 -8 57.5t-4.5 64.5t-3 66.5t-1.5 62.5
q-51 -134 -92.5 -221.5t-72.5 -125.5q-113 -137 -341 -156v30q240 165 368 345t146 369q1 13 1.5 31t0.5 35q0 19 -0.5 39t-1.5 42q-3 52 -4.5 90.5t-1.5 57.5q0 142 20 236l71 64v-365q0 -663 71 -722z" />
    <glyph glyph-name="afii62882" unicode="&#xfc5e;" horiz-adv-x="403" arabic-form="isolated" 
 />
    <glyph glyph-name="afii62883" unicode="&#xfc5f;" horiz-adv-x="381" arabic-form="isolated" 
 />
    <glyph glyph-name="afii62884" unicode="&#xfc60;" horiz-adv-x="381" arabic-form="isolated" 
 />
    <glyph glyph-name="afii57506" unicode="&#x67e;" horiz-adv-x="1267" arabic-form="isolated" 
d="M813 15q-28 -45 -57.5 -86.5t-61.5 -82.5q-52 83 -117 83q-63 0 -109 -89q27 62 42.5 96t20.5 41q33 63 69.5 98.5t72.5 35.5q14 0 34 -9.5t44 -26.5q22 -14 37.5 -30.5t24.5 -29.5zM1221 637q-3 -40 -13 -80t-26 -79q-15 -37 -31 -75.5t-30 -74.5l14 78q-2 2 -5.5 3.5
t-6.5 1.5q-57 -25 -155.5 -57.5t-228.5 -67.5q-141 -40 -240 -62.5t-142 -22.5q-256 0 -256 243q0 9 23 69.5t73 185.5q-14 -38 -21 -64t-7 -41q0 -168 309 -168q72 0 168.5 21t203.5 57z" />
    <glyph glyph-name="afii62958" unicode="&#x67e;" horiz-adv-x="1202" arabic-form="final" 
d="M812 -43q-56 -93 -118 -169q-52 81 -117 81q-63 0 -109 -87q26 61 41 95t20 41q35 65 71.5 100.5t72.5 35.5q28 0 77 -36q47 -35 62 -61zM1152 381q-56 -27 -150.5 -59t-232.5 -69q-283 -76 -398 -76q-105 0 -178 57q-79 60 -79 162q0 24 8.5 61t22.5 87q16 50 32 84
t31 47q-38 -74 -38 -117q0 -88 102 -134q75 -36 176 -36q194 0 417 59q226 60 388 154l-27 -185z" />
    <glyph glyph-name="afii62956" unicode="&#x67e;" horiz-adv-x="600" arabic-form="initial" 
d="M430 603q-48 -192 -76 -294v88q-88 -24 -177 -52.5t-177 -53.5l47 191zM420 86q-28 -46 -58 -89t-62 -81q-24 40 -54.5 61.5t-60.5 21.5q-63 0 -111 -90q29 63 44 97t19 40q71 134 144 134q30 0 77 -35q43 -31 62 -59zM48 -155q7 19 13 35t13 29q-4 -15 -11.5 -30.5
t-14.5 -33.5z" />
    <glyph glyph-name="afii52957" unicode="&#x67e;" horiz-adv-x="368" arabic-form="medial" 
d="M521 86q-57 -93 -115 -170q-54 83 -119 83q-61 0 -107 -85q25 60 40.5 92.5t20.5 39.5q35 64 71 99t72 35q30 0 78 -35q44 -33 59 -59zM47 482l383 121l-48 -192l-382 -120z" />
    <glyph glyph-name="afii57507" unicode="&#x686;" horiz-adv-x="1013" arabic-form="isolated" 
d="M576 822q-93 79 -138 79q-65 0 -65 -60q0 -24 45 -169q47 -147 57 -158q9 -12 24 -13q19 21 206 210zM1232 -400q-116 -70 -193 -115t-113 -61q-119 -55 -203.5 -83.5t-131.5 -28.5q-79 0 -168.5 29.5t-180.5 83.5q-83 53 -125.5 127t-42.5 168q0 154 92.5 331.5
t271.5 374.5q-53 115 -80.5 210.5t-27.5 167.5q0 44 16 89.5t46 90.5q34 49 72 74t82 25q99 0 226 -125q136 -129 225 -139q-18 -17 -50.5 -54.5t-81.5 -98.5q-48 -10 -100.5 -36.5t-108.5 -68.5t-114 -98.5t-118 -123.5q-120 -143 -181.5 -265t-61.5 -220q0 -202 293 -270
q151 -38 453 -38q132 0 305 54zM835 146q-28 -46 -57.5 -87t-61.5 -82q-52 83 -116 83t-110 -89q27 61 42.5 95t20.5 42q33 63 70 98.5t73 35.5q13 0 33.5 -9.5t44.5 -26.5q21 -14 36.5 -30.5t24.5 -29.5z" />
    <glyph glyph-name="afii62961" unicode="&#x686;" horiz-adv-x="918" arabic-form="final" 
d="M576 822q-93 79 -138 79q-65 0 -65 -60q0 -24 45 -169q47 -147 57 -158q9 -12 24 -13q19 21 206 210zM1232 -400q-116 -70 -193 -115t-113 -61q-119 -55 -203.5 -83.5t-131.5 -28.5q-79 0 -168.5 29.5t-180.5 83.5q-83 53 -125.5 127t-42.5 168q0 154 92.5 331.5
t271.5 374.5q-53 115 -80.5 210.5t-27.5 167.5q0 44 16 89.5t46 90.5q34 49 72 74t82 25q99 0 226 -125q136 -129 225 -139q-18 -17 -50.5 -54.5t-81.5 -98.5q-71 -15 -150 -65q-1 -6 -1 -12.5t-2 -14.5q0 -3 -0.5 -8.5t-0.5 -9.5q-1 -10 -1 -19v-15q0 -23 24 -40.5
t59 -27.5l209 27l-50 -174q-44 -21 -186 -35q-13 8 -30.5 16t-38.5 15q-16 6 -29 26t-24 49q-8 24 -13.5 48.5t-5.5 43.5q0 17 3.5 33t8.5 29q1 10 3 17q-51 -41 -105.5 -94t-110.5 -116q-120 -143 -181.5 -265t-61.5 -220q0 -202 293 -270q151 -38 453 -38q132 0 305 54z
M753 10q-27 -45 -56.5 -86.5t-62.5 -81.5q-51 82 -116 82q-64 0 -109 -88q26 61 41.5 95t20.5 41q34 64 70.5 99t72.5 35q13 0 33.5 -9.5t44.5 -26.5q22 -14 37.5 -30t23.5 -30z" />
    <glyph glyph-name="afii62959" unicode="&#x686;" horiz-adv-x="995" arabic-form="initial" 
d="M631 609q-114 138 -165 138q-40 0 -92 -68q-51 -70 -51 -112v-35q69 11 145 24.5t150 29.5q5 5 9 11t4 12zM960 716q-13 -28 -37 -68t-60 -93q-81 -83 -405 -159q-112 -26 -458 -105l47 191q37 11 94 23.5t130 26.5q23 46 44.5 88.5t40.5 81.5l35 70q79 160 179 160
q19 0 54.5 -23t85.5 -67q54 -46 119.5 -80t130.5 -46zM697 109q-27 -46 -56.5 -87t-62.5 -82q-51 82 -116 82q-64 0 -109 -88q26 61 41.5 95t20.5 41q34 64 70.5 99.5t72.5 35.5q13 0 33.5 -9.5t44.5 -26.5q22 -15 37.5 -31t23.5 -29z" />
    <glyph glyph-name="afii62960" unicode="&#x686;" horiz-adv-x="959" arabic-form="medial" 
d="M631 609q-114 138 -165 138q-40 0 -92 -68q-51 -70 -51 -112v-35q69 11 145 24.5t150 29.5q5 5 9 11t4 12zM960 716q-13 -28 -37 -68t-60 -93q-35 -35 -117 -72q23 -19 68 -30l199 35l-18 -187q-66 -19 -208 -34q-29 19 -69 34q-15 5 -28.5 24t-24.5 48q-6 19 -10.5 38
t-6.5 36q-41 -13 -88.5 -25.5t-101.5 -25.5q-112 -26 -458 -105l47 191q37 11 94 23.5t130 26.5q23 46 44.5 88.5t40.5 81.5l35 70q79 160 179 160q19 0 54.5 -23t85.5 -67q54 -46 119.5 -80t130.5 -46zM682 15q-28 -45 -57.5 -86.5t-61.5 -82.5q-52 83 -117 83
q-63 0 -109 -89q27 62 42.5 96t20.5 41q33 63 69.5 98.5t72.5 35.5q14 0 34 -9.5t44 -26.5q22 -14 37.5 -30.5t24.5 -29.5z" />
    <glyph glyph-name="afii57508" unicode="&#x698;" horiz-adv-x="563" arabic-form="isolated" 
d="M467 586q-2 -21 -4.5 -48t-5.5 -58q-4 -40 -8 -86t-10 -100q-21 -166 -92 -262q-88 -114 -261 -114q-47 0 -185 46q106 12 226 82q117 68 189 155q61 73 95 186q4 12 7.5 26t8.5 32q8 27 18 64t22 77zM705 1023q-6 -7 -21 -26t-40 -51q-11 -14 -24 -31t-29 -36
q-18 7 -62 60q-20 23 -40 35.5t-40 12.5q-25 0 -55 -29.5t-55 -72.5q-10 -19 -30 -57.5t-49 -93.5q27 96 52 163t41 102q40 84 87 129t99 45q46 0 105 -54q29 -25 45 -49.5t16 -46.5z" />
    <glyph glyph-name="afii62962" unicode="&#x698;" horiz-adv-x="534" arabic-form="final" 
d="M590 486q-8 -173 -16 -180l-148 -38q-47 -20 -89 -116q-25 -60 -48 -100t-40 -62q-36 -39 -82.5 -60.5t-102.5 -21.5q-60 0 -206 81q27 6 72 6q82 0 214 68q68 35 110.5 71t61.5 71q12 31 25 63t26 62q36 81 79 110q14 10 33.5 16.5t38.5 11.5q17 4 35.5 8.5t36.5 9.5z
M754 1011q-1 -1 -6 -9q-12 -16 -37 -50t-67 -86q-20 10 -64 60q-38 44 -78 44q-55 0 -110 -102q-12 -15 -31 -53.5t-47 -96.5q25 96 49.5 164t41.5 104q41 83 88 128.5t98 45.5q23 0 49.5 -14.5t53.5 -41.5q29 -26 44.5 -50t15.5 -43z" />
    <glyph glyph-name="afii57567" unicode="&#x6a9;" horiz-adv-x="1501" arabic-form="isolated" 
 />
    <glyph glyph-name="afii62964" unicode="&#x6a9;" horiz-adv-x="1732" arabic-form="final" 
 />
    <glyph glyph-name="afii52305" unicode="&#x6a9;" horiz-adv-x="946" arabic-form="initial" 
 />
    <glyph glyph-name="afii52306" unicode="&#x6a9;" horiz-adv-x="1248" arabic-form="medial" 
 />
    <glyph glyph-name="afii57509" unicode="&#x6af;" horiz-adv-x="1324" arabic-form="isolated" 
d="M1401 1518q-3 -26 -20 -68q-22 -32 -164 -121q-18 -11 -40 -23t-48 -28q-47 -28 -107 -64q3 13 4.5 32.5t4.5 44.5q94 61 186 117.5t184 109.5zM1393 1388q-11 -59 -30.5 -119.5t-49.5 -122.5l-27 14q-67 -43 -144 -98.5t-156 -117.5q5 -55 53 -149q52 -96 52 -150
q0 -198 -210 -296q-161 -76 -382 -76q-175 0 -257 34q-127 55 -127 201q0 78 66 245q0 -23 -6 -63q-5 -44 -5 -64q0 -47 35.5 -84t99.5 -61q48 -17 104 -25.5t120 -8.5q146 0 267 27.5t208 75.5q0 4 0.5 7.5t0.5 6.5q0 44 -45 130q-46 86 -46 134q0 84 17.5 153t49.5 118
q26 37 73 78t117 84q110 65 222 127z" />
    <glyph glyph-name="afii62967" unicode="&#x6af;" horiz-adv-x="1207" arabic-form="final" 
d="M1448 1530v-4t-1 -4q-4 -12 -8.5 -28t-11.5 -35q-8 -16 -50.5 -47t-110.5 -73q-53 -31 -101.5 -60t-90.5 -52v29q0 83 374 274zM1016 919q0 -40 23 -99.5t67 -135.5q43 -76 86.5 -127t78.5 -64q-10 -47 -22.5 -96t-23.5 -96q-31 1 -55.5 18t-39.5 50q-19 40 -33 69.5
t-21 49.5q-243 -223 -650 -223q-112 0 -204 69q-101 72 -101 182q0 63 22 146q24 106 61 128q-28 -62 -28 -132q0 -52 41 -93t115 -67q55 -18 119 -28.5t127 -10.5q221 0 448 125q-4 14 -15.5 42t-27.5 65q-15 32 -23.5 60.5t-8.5 49.5q0 13 20 79l25 83q20 94 59.5 162.5
t97.5 111.5q73 39 147.5 80.5t147.5 82.5l6 -16t5 -16q-24 -66 -39 -106t-20 -44q-9 -14 -64.5 -53t-147.5 -100q-82 -54 -127 -92.5t-45 -53.5z" />
    <glyph glyph-name="afii62965" unicode="&#x6af;" horiz-adv-x="678" arabic-form="initial" 
d="M761 1632q-19 -62 -48 -88q-63 -53 -173 -106q-161 -75 -187 -91q12 54 33 82q32 35 176 105zM578 770q0 -84 -23 -150t-67 -116q-38 -40 -94 -74t-123 -57q-90 -28 -157.5 -48.5t-113.5 -33.5q12 47 24 95.5t23 95.5q171 53 259 78q208 64 208 108q0 56 -119 132
q-37 20 -70 39.5t-59 32.5q-9 7 -20.5 13t-19.5 11q13 102 34 179t48 125q50 90 158 147q36 18 69 34q61 31 116 57.5t91 44.5q-14 -43 -31 -84.5t-37 -77t-42 -63t-45 -45.5l-288 -149q43 -29 89 -59t91 -57q47 -39 73 -84.5t26 -93.5z" />
    <glyph glyph-name="afii62966" unicode="&#x6af;" horiz-adv-x="590" arabic-form="medial" 
d="M770 1599q-8 -37 -49.5 -84.5t-103.5 -94.5q-34 -25 -85 -61t-119 -81q-3 48 25 88q24 39 151 119zM605 291q-25 4 -59.5 55.5t-72.5 145.5q-51 -42 -108 -73.5t-118 -50.5q-33 -11 -80 -24.5t-107 -33.5q-14 -4 -29 -9t-31 -10l47 191q49 12 86 23q40 11 67 18t34 9
q107 34 172 82q-16 31 -34 64t-34 64q-51 100 -51 118q0 86 17.5 157.5t48.5 125.5q25 39 72.5 82t118.5 89q57 34 113 69t113 69l-10 -45t-15 -65q-13 -58 -42 -100q-18 -24 -189 -136q-153 -97 -153 -131q0 -86 291 -493z" />
    <glyph glyph-name="afii57555" unicode="&#x6cc;" horiz-adv-x="1028" arabic-form="isolated" 
d="M1023 838q-35 -86 -71.5 -138t-70.5 -68q-53 -24 -96 -56t-72 -68q11 -10 49.5 -36.5t98.5 -65.5q49 -32 75.5 -65t26.5 -64q0 -91 -47.5 -177.5t-140.5 -167.5q-91 -76 -184 -115.5t-186 -39.5q-119 0 -220 77q-108 82 -108 202q0 56 13 120.5t37 133.5q48 135 122 231
q-104 -262 -104 -329q0 -108 122 -180q108 -66 220 -66q70 0 216 58q164 62 164 114q0 3 -125 96t-125 136q0 72 35 146t98 145q60 66 129 111t144 66z" />
    <glyph glyph-name="afii52364" unicode="&#x6cc;" horiz-adv-x="910" arabic-form="final" 
d="M725 193q7 -9 44.5 -34.5t100.5 -68.5q52 -32 78.5 -64t26.5 -63q0 -91 -48 -179t-140 -168q-91 -77 -184 -117t-186 -40q-123 0 -221 79q-107 84 -107 200q0 58 12.5 123.5t37.5 133.5q48 134 120 230q-104 -259 -104 -328q0 -105 124 -181q105 -64 219 -64q69 0 215 56
q164 62 164 116q0 2 -124 98q-124 92 -124 134q0 145 95 266q91 114 237 160l-48 -191q-6 0 -14 1.5t-17 3.5q-8 1 -16.5 3t-14.5 2q-44 0 -126 -108z" />
    <glyph glyph-name="afii62885" unicode="&#xfc61;" horiz-adv-x="379" arabic-form="isolated" 
 />
    <glyph glyph-name="afii62886" unicode="&#xfc62;" horiz-adv-x="381" arabic-form="isolated" 
 />
    <glyph glyph-name="afii52399" unicode="&#x621;" horiz-adv-x="464" arabic-form="isolated" 
d="M113 1166q14 61 48 114t79.5 80t56 32.5t30.5 14.5q12 -69 -35 -175q-92 -18 -129 -101q2 -27 37 -31t68 -2t67 15q60 19 149 54q-18 -55 -63 -174q-65 -32 -136 -55t-145 18q-37 36 -42 69t-3 65t18 76z" />
    <glyph glyph-name="afii52400" unicode="&#x622;" horiz-adv-x="417" arabic-form="isolated" 
 />
    <glyph glyph-name="afii62753" unicode="&#x622;" horiz-adv-x="558" arabic-form="final" 
 />
    <glyph glyph-name="afii57411" unicode="&#x623;" horiz-adv-x="499" arabic-form="isolated" 
d="M338 914q-5 10 -24.5 46t-55.5 97q-33 54 -51 86.5t-18 36.5q0 64 66 177q31 -24 63.5 -68.5t63.5 -108.5q14 29 38 70.5t56 96.5zM453 422q0 -74 -25 -157t-70 -163q-54 -94 -116 -144t-132 -50q-65 0 -252 78q75 3 152 22t160 52q212 84 212 199q0 17 -21 17
q-13 0 -37 -12q-26 -10 -35 -10q-25 0 -69 16q-45 20 -45 44q0 50 49 175q53 133 95 133q62 0 101 -69q15 -30 24 -63t9 -68z" />
    <glyph glyph-name="afii62754" unicode="&#x623;" horiz-adv-x="454" arabic-form="final" 
d="M139 -65q-37 0 -75 14t-62 26q-4 1 -9 3.5t-8 4.5q-4 3 -9 4t-8 3q-15 6 -35 14.5t-46 19.5q75 13 148 26.5t148 24.5q81 23 140.5 69t92.5 110q-11 11 -38.5 17.5t-71.5 6.5q-53 0 -88 41q22 95 52 185q50 138 105 138q60 0 92 -64q4 -13 9.5 -25.5t10.5 -26.5
q6 -13 9.5 -33.5t6.5 -46.5q16 2 31 6.5t31 6.5l-92 -177q-24 -18 -66 -125q-21 -52 -41.5 -89t-39.5 -58q-35 -35 -82 -55t-105 -20zM366 896q-4 7 -15 28q-10 18 -27 48t-39 68q-33 54 -50.5 85t-17.5 37q0 64 65 177q35 -24 66.5 -68.5t59.5 -108.5q5 9 11 19t12 21
q13 24 32 56.5t42 68.5z" />
    <glyph glyph-name="afii57412" unicode="&#x624;" horiz-adv-x="486" arabic-form="isolated" 
d="M186 703h3v0h-3zM186 703l-2 5l5 -5h-3zM348 802q-17 -22 -52 -48q-65 -45 -107 -51q72 18 159 99zM465 994q0 -78 -102 -177q-3 -4 -7.5 -7.5t-7.5 -7.5q19 24 19 44q0 21 -143 129q12 31 35.5 77t56.5 106q149 -76 149 -164zM453 422q0 -74 -25 -157t-70 -163
q-54 -94 -116 -144t-132 -50q-65 0 -252 78q75 3 152 22t160 52q212 84 212 199q0 17 -21 17q-13 0 -37 -12q-26 -10 -35 -10q-25 0 -69 16q-45 20 -45 44q0 50 49 175q53 133 95 133q62 0 101 -69q15 -30 24 -63t9 -68z" />
    <glyph glyph-name="afii62755" unicode="&#x624;" horiz-adv-x="436" arabic-form="final" 
d="M120 -65q-41 0 -73.5 12t-59.5 25q-6 4 -11.5 6.5t-11.5 4.5q-9 4 -21 8.5t-27 11.5q-9 5 -21 10.5t-26 10.5q74 13 145.5 26.5t148.5 24.5q82 23 140.5 69t92.5 110q-11 10 -38.5 17t-70.5 7q-54 0 -87 41q7 45 21 92.5t30 92.5q25 66 51.5 102t53.5 36q58 0 89 -64
l14 -36q2 -4 3.5 -8.5t4.5 -7.5q7 -13 10.5 -33.5t4.5 -46.5q16 2 31.5 6.5t31.5 6.5l-93 -177q-25 -18 -67 -125q-19 -52 -39.5 -89t-39.5 -58q-36 -35 -82.5 -55t-103.5 -20zM337 1190q-34 -60 -58 -105t-32 -76q142 -108 142 -130q0 -15 -9 -31l3 4q105 105 105 175
q0 86 -151 163zM206 735q77 18 174 113q-18 -30 -63 -60q-34 -24 -61.5 -36.5t-49.5 -16.5z" />
    <glyph glyph-name="afii57413" unicode="&#x625;" horiz-adv-x="504" arabic-form="isolated" 
d="M536 1131q0 -37 -110 -157q-56 137 -126 137q-41 0 -86 -96l-62 -131q14 67 34.5 130.5t45.5 121.5q36 83 77 128.5t83 45.5q41 0 94 -70q50 -67 50 -109zM453 422q0 -74 -25 -157t-70 -163q-54 -94 -116 -144t-132 -50q-65 0 -252 78q75 3 152 22t160 52q212 84 212 199
q0 17 -21 17q-13 0 -37 -12q-26 -10 -35 -10q-25 0 -69 16q-45 20 -45 44q0 50 49 175q53 133 95 133q62 0 101 -69q15 -30 24 -63t9 -68z" />
    <glyph glyph-name="afii62756" unicode="&#x625;" horiz-adv-x="419" arabic-form="final" 
d="M112 -65q-38 0 -76 14t-63 26q-5 1 -9.5 3.5t-8.5 4.5q-11 4 -25 12q-13 5 -31 12.5t-39 16.5l22 4t20 4q64 11 125.5 21.5t126.5 21.5q80 25 141 70t92 109q-11 10 -38.5 17t-69.5 7q-55 0 -88 41q10 47 22.5 93.5t28.5 91.5q25 66 51.5 102t53.5 36q60 0 91 -64
q4 -12 9 -25t12 -27q6 -13 10 -33.5t5 -46.5q16 2 31.5 6.5t31.5 6.5l-94 -177q-25 -20 -67 -125q-40 -105 -78 -147q-34 -35 -81 -55t-105 -20zM546 1143q0 -27 -92 -145q-108 113 -120 113q-50 0 -148 -198q112 383 237 383q33 0 80 -58q43 -56 43 -95z" />
    <glyph glyph-name="afii57414" unicode="&#x626;" horiz-adv-x="589" arabic-form="isolated" 
d="M422 1012q0 -43 70 -43q38 0 179 42l-42 -108q-36 -21 -88.5 -43t-115.5 -44q-84 -30 -137.5 -49.5t-72.5 -28.5q14 25 35 58.5t49 77.5q9 3 23.5 7t30.5 9h-15q-27 0 -27 42q0 25 25.5 58.5t66.5 65.5q33 26 68 47.5t73 37.5q-24 -17 -40.5 -30t-25.5 -23
q-38 -37 -53 -65zM430 555q-24 -95 -43.5 -168.5t-32.5 -125.5v88q-88 -24 -177 -52.5t-177 -53.5q12 47 24 95.5t23 95.5z" />
    <glyph glyph-name="afii62759" unicode="&#x626;" horiz-adv-x="360" arabic-form="final" 
d="M422 1012q0 -43 70 -43q38 0 179 42l-42 -108q-36 -21 -88.5 -43t-115.5 -44q-84 -30 -137.5 -49.5t-72.5 -28.5q14 25 35 58.5t49 77.5q9 3 23.5 7t30.5 9h-15q-27 0 -27 42q0 25 25.5 58.5t66.5 65.5q33 26 68 47.5t73 37.5q-24 -17 -40.5 -30t-25.5 -23
q-38 -37 -53 -65zM47 434l383 121l-48 -192l-382 -120z" />
    <glyph glyph-name="afii62757" unicode="&#x626;" horiz-adv-x="589" arabic-form="initial" 
d="M422 1012q0 -43 70 -43q38 0 179 42l-42 -108q-36 -21 -88.5 -43t-115.5 -44q-84 -30 -137.5 -49.5t-72.5 -28.5q14 25 35 58.5t49 77.5q9 3 23.5 7t30.5 9h-15q-27 0 -27 42q0 25 25.5 58.5t66.5 65.5q33 26 68 47.5t73 37.5q-24 -17 -40.5 -30t-25.5 -23
q-38 -37 -53 -65zM430 555q-24 -95 -43.5 -168.5t-32.5 -125.5v88q-88 -24 -177 -52.5t-177 -53.5q12 47 24 95.5t23 95.5z" />
    <glyph glyph-name="afii62758" unicode="&#x626;" horiz-adv-x="360" arabic-form="medial" 
d="M422 1012q0 -43 70 -43q38 0 179 42l-42 -108q-36 -21 -88.5 -43t-115.5 -44q-84 -30 -137.5 -49.5t-72.5 -28.5q14 25 35 58.5t49 77.5q9 3 23.5 7t30.5 9h-15q-27 0 -27 42q0 25 25.5 58.5t66.5 65.5q33 26 68 47.5t73 37.5q-24 -17 -40.5 -30t-25.5 -23
q-38 -37 -53 -65zM47 434l383 121l-48 -192l-382 -120z" />
    <glyph glyph-name="afii57415" unicode="&#x627;" horiz-adv-x="593" arabic-form="isolated" 
d="M526 584q0 -26 -9.5 -69t-28.5 -97q-17 -54 -35 -94.5t-35 -57.5l-38 1012q0 36 26 130q15 50 25.5 80.5t20.5 45.5l46 -476q28 -299 28 -474z" />
    <glyph glyph-name="afii62760" unicode="&#x627;" horiz-adv-x="413" arabic-form="final" 
d="M367 963q-1 -77 -1 -144v-125q0 -110 2 -179.5t5 -98.5l107 24l-47 -191l-107 -17q-50 18 -64 70q-4 11 -4 32q0 29 8 72v996q0 41 100 178z" />
    <glyph glyph-name="afii57416" unicode="&#x628;" horiz-adv-x="1227" arabic-form="isolated" 
d="M195 642zM807 -101q-29 -48 -119 -162q-16 6 -35 20.5t-40 34.5q-49 44 -49 72q0 30 121 154q64 -86 122 -119zM1221 586q-3 -39 -13 -78.5t-26 -79.5q-15 -36 -31 -74.5t-30 -74.5l14 79l-12 3q-57 -24 -157.5 -56.5t-226.5 -68.5q-141 -41 -240 -63t-142 -22
q-256 0 -256 243q0 17 92 243q-12 -31 -18 -56.5t-6 -37.5q0 -167 309 -167q72 0 168.5 21t203.5 57z" />
    <glyph glyph-name="afii62763" unicode="&#x628;" horiz-adv-x="1220" arabic-form="final" 
d="M782 -83q-17 -24 -44.5 -61t-66.5 -88q-129 78 -129 119q0 7 109 150q22 -22 54 -51.5t77 -68.5zM1149 333q-56 -27 -150.5 -59t-232.5 -69q-283 -76 -398 -76q-105 0 -178 57q-79 60 -79 162q0 24 8.5 61t22.5 87q16 50 32 84t31 47q-38 -74 -38 -117q0 -88 102 -134
q75 -36 176 -36q194 0 417 59q226 60 388 154l-27 -185z" />
    <glyph glyph-name="afii62761" unicode="&#x628;" horiz-adv-x="587" arabic-form="initial" 
d="M430 555q-48 -192 -76 -294v88q-88 -24 -177 -52.5t-177 -53.5l47 191zM458 14q-15 -19 -40.5 -53.5t-55.5 -81.5q-9 8 -38 29.5t-72 54.5q5 26 37 82q16 27 31 43t26 16q6 0 21 -11t34 -27z" />
    <glyph glyph-name="afii62762" unicode="&#x628;" horiz-adv-x="370" arabic-form="medial" 
d="M458 14q-32 -39 -96 -135q-9 8 -37.5 29t-72.5 55q5 27 37 82q36 59 57 59q10 0 55 -38zM47 434l383 121l-48 -192l-382 -120z" />
    <glyph glyph-name="afii57417" unicode="&#x629;" horiz-adv-x="779" arabic-form="isolated" 
d="M622 560q0 43 -49 86q-48 42 -93 42h-74q-9 -13 -19 -32t-22 -43q-1 -18 -4.5 -43.5t-9.5 -53.5q63 -56 105 -56q52 0 101 24q65 32 65 76zM714 704q0 -121 -77 -280q-90 -182 -198 -182q-73 0 -124 40q-58 46 -58 115q0 48 16 111.5t44 133.5q24 57 50.5 117.5
t50.5 118.5q36 28 79 28q83 0 150 -63q32 -29 49.5 -65t17.5 -74z" />
    <glyph glyph-name="afii62764" unicode="&#x629;" horiz-adv-x="520" arabic-form="final" 
d="M227 38q72 308 192 344q11 3 29.5 10.5t44.5 19.5q22 11 40.5 17.5t33.5 10.5l9 1q-15 -69 -26 -118.5t-18 -79.5q-36 -6 -61.5 -11.5t-39.5 -8.5q-50 -25 -80 -42t-35 -24q-24 -23 -36 -34q-15 -15 -28.5 -37t-24.5 -48z" />
    <glyph glyph-name="afii57418" unicode="&#x62a;" horiz-adv-x="1276" arabic-form="isolated" 
d="M910 1010q-16 -66 -70 -192l-9 41l16 3q-33 -4 -78.5 -11t-100.5 -14.5t-115 -16t-123 -18.5q25 45 43.5 85t30.5 79zM1221 591q-3 -38 -13 -77.5t-26 -80.5q-15 -36 -31 -75t-30 -76l14 81q-2 0 -5.5 2t-6.5 3q-58 -26 -155 -58.5t-229 -69.5q-295 -83 -382 -83
q-256 0 -256 242q0 9 25 77t77 194q-34 -86 -34 -120q0 -171 309 -171q149 0 372 80z" />
    <glyph glyph-name="afii62767" unicode="&#x62a;" horiz-adv-x="1199" arabic-form="final" 
d="M935 1010q-16 -68 -69 -192l-10 41l17 3q-35 -4 -80.5 -11t-99.5 -14.5t-114 -16t-122 -18.5q24 45 42 85t32 79zM1149 333q-56 -27 -150.5 -59t-232.5 -69q-283 -76 -398 -76q-105 0 -178 57q-79 60 -79 162q0 24 8.5 61t22.5 87q16 50 32 84t31 47q-38 -74 -38 -117
q0 -88 102 -134q75 -36 176 -36q194 0 417 59q226 60 388 154l-27 -185z" />
    <glyph glyph-name="afii62765" unicode="&#x62a;" horiz-adv-x="595" arabic-form="initial" 
d="M156 781q44 84 72 164l304 42q-17 -68 -70 -191l-8 41zM430 555q-24 -95 -43.5 -168.5t-32.5 -125.5v88q-88 -24 -177 -52.5t-177 -53.5q12 47 24 95.5t23 95.5z" />
    <glyph glyph-name="afii62766" unicode="&#x62a;" horiz-adv-x="365" arabic-form="medial" 
d="M228 781q48 86 72 164l305 42q-7 -33 -25 -80.5t-45 -110.5l-9 41zM47 434l383 121l-48 -192l-382 -120z" />
    <glyph glyph-name="afii57419" unicode="&#x62b;" horiz-adv-x="1222" arabic-form="isolated" 
d="M783 1384q0 -37 -89 -169q-102 83 -147 83q-29 0 -56.5 -21t-53.5 -58q-33 -58 -54.5 -91t-24.5 -35v31q1 5 15 35.5t38 80.5q58 120 112.5 185t103.5 65q14 0 39.5 -12t50.5 -29q31 -19 48.5 -35t17.5 -30zM1162 728q0 -53 -13 -106.5t-38.5 -103.5t-62.5 -97t-86 -85
q-91 -72 -199 -112t-225 -40q-427 0 -427 232q0 224 150 414q154 197 370 223q0 -35 6 -102q3 -33 4.5 -58.5t1.5 -40.5q0 -222 -251 -318l-61 13l21 89l168 85v119q-5 3 -9 7.5t-9 8.5q-57 -4 -112 -30.5t-103 -72.5q-99 -99 -99 -213q0 -156 325 -156q170 0 306 42.5
t235 123.5q0 12 1.5 27t1.5 26q1 25 2 44.5t1 32.5q0 54 -6 134.5t-19 187.5q-12 106 -18 186.5t-6 134.5q0 30 121 163z" />
    <glyph glyph-name="afii62770" unicode="&#x62b;" horiz-adv-x="1131" arabic-form="final" 
d="M798 1460q0 -43 -87 -176q-76 103 -139 103q-29 0 -59 -22.5t-58 -62.5q-5 -11 -23.5 -44.5t-47.5 -92.5l44 122t44 125q71 150 187 150q12 0 34.5 -11t48.5 -29q26 -19 41 -35t15 -27zM1154 282q-18 0 -32.5 11t-25.5 35q-5 8 -11 27t-14 49q-39 -43 -104 -80.5
t-155 -67.5q-81 -26 -156.5 -41t-139.5 -15q-374 0 -374 233q0 231 149 427q79 104 178 156.5t208 53.5v-238q0 -19 -56 -110q-28 -47 -47 -74t-29 -36q-32 -29 -86 -45q-3 -2 -27 -7.5t-68 -16.5q1 41 6.5 74t16.5 49q7 9 23 18.5t39 18.5q30 11 56 23.5t45 26.5v126l-16 6
q-318 -107 -318 -287q0 -105 110 -160q87 -44 204 -44q121 0 308 45q234 60 230 139q-12 180 -24 365.5t-24 364.5q2 14 25 59.5t67 118.5q4 -51 10 -111.5t11 -125t10 -131t8 -132.5l17 -502q6 -2 15 -6t16 -7z" />
    <glyph glyph-name="afii62768" unicode="&#x62b;" horiz-adv-x="697" arabic-form="initial" 
d="M708 1700q0 -24 -80 -158q-70 78 -112 78q-70 0 -121 -68q-7 -8 -14.5 -19t-12.5 -20q11 33 23.5 71.5t22.5 72.5q64 146 168 146q32 0 79 -35q22 -16 34.5 -33.5t12.5 -34.5zM571 652q-51 86 -284 278q0 106 17.5 186t49.5 132q24 37 73 73t113 63q115 52 186.5 85.5
t95.5 45.5l-2.5 -5t-2.5 -7q-19 -71 -56 -198q-66 -35 -162 -88t-223 -127q9 -16 48 -48t100 -72q50 -33 77.5 -78t27.5 -98q0 -12 -17 -73q-50 -178 -84 -232q-61 -98 -192 -133q-8 -1 -35 -8q-37 -10 -112 -29t-189 -47l47 188l379 120z" />
    <glyph glyph-name="afii62769" unicode="&#x62b;" horiz-adv-x="554" arabic-form="medial" 
d="M544 1456q-93 52 -141 52q-97 0 -129 -258q-17 8 -17 31q0 61 42 198q44 136 77 192q25 46 90 46q32 0 142 -57zM382 572q-14 22 -32.5 56.5t-43.5 81.5q-28 50 -43.5 85t-15.5 47q3 14 10 52.5t19 101.5q1 8 2.5 15t2.5 16q14 79 35 135t49 81q33 20 82 50t113 72
q51 34 105.5 68t112.5 65q-39 -214 -166 -310l-304 -184q21 -47 57 -116t85 -160q10 -26 24 -66.5t34 -94.5q8 -19 17.5 -37t20.5 -31h1h-1l78 -33q-11 -45 -23 -95t-24 -95q-29 1 -53.5 16t-39.5 45q-20 32 -33.5 58.5t-22.5 45.5q-85 -59 -193 -99t-235 -60
q12 45 23.5 94.5t23.5 94.5q7 -1 16 -1h16q76 0 153.5 26.5t149.5 75.5z" />
    <glyph glyph-name="afii57420" unicode="&#x62c;" horiz-adv-x="1013" arabic-form="isolated" 
d="M814 51q-28 -38 -78 -103q-12 -16 -26 -35.5t-29 -38.5q-146 128 -146 151t113 158q4 -2 166 -132zM576 774q-93 79 -138 79q-65 0 -65 -60q0 -24 45 -169q47 -147 57 -158q9 -12 24 -13q19 21 206 210zM1232 -448q-116 -70 -193 -115t-113 -61q-119 -55 -203.5 -83.5
t-131.5 -28.5q-79 0 -168.5 29.5t-180.5 83.5q-83 53 -125.5 127t-42.5 168q0 154 92.5 331.5t271.5 374.5q-53 115 -80.5 210.5t-27.5 167.5q0 44 16 89.5t46 90.5q34 49 72 74t82 25q99 0 226 -125q136 -129 225 -139q-18 -17 -50.5 -54.5t-81.5 -98.5
q-48 -10 -100.5 -36.5t-108.5 -68.5t-114 -98.5t-118 -123.5q-120 -143 -181.5 -265t-61.5 -220q0 -202 293 -270q151 -38 453 -38q132 0 305 54z" />
    <glyph glyph-name="afii62773" unicode="&#x62c;" horiz-adv-x="918" arabic-form="final" 
d="M652 -76q-22 -25 -53.5 -61.5t-73.5 -89.5q-119 91 -119 130q0 35 117 148q57 -38 129 -127zM576 774q-93 79 -138 79q-65 0 -65 -60q0 -24 45 -169q47 -147 57 -158q9 -12 24 -13q19 21 206 210zM1232 -448q-116 -70 -193 -115t-113 -61q-119 -55 -203.5 -83.5
t-131.5 -28.5q-79 0 -168.5 29.5t-180.5 83.5q-83 53 -125.5 127t-42.5 168q0 154 92.5 331.5t271.5 374.5q-53 115 -80.5 210.5t-27.5 167.5q0 44 16 89.5t46 90.5q34 49 72 74t82 25q99 0 226 -125q136 -129 225 -139q-18 -17 -50.5 -54.5t-81.5 -98.5q-71 -15 -150 -65
q-1 -6 -1 -12.5t-2 -14.5q0 -3 -0.5 -8.5t-0.5 -9.5q-1 -10 -1 -19v-15q0 -23 24 -40.5t59 -27.5l209 27l-50 -174q-44 -21 -186 -35q-13 8 -30.5 16t-38.5 15q-16 6 -29 26t-24 49q-8 24 -13.5 48.5t-5.5 43.5q0 17 3.5 33t8.5 29q1 10 3 17q-51 -41 -105.5 -94
t-110.5 -116q-120 -143 -181.5 -265t-61.5 -220q0 -202 293 -270q151 -38 453 -38q132 0 305 54z" />
    <glyph glyph-name="afii62771" unicode="&#x62c;" horiz-adv-x="995" arabic-form="initial" 
d="M652 -76q-22 -25 -53 -61.5t-73 -89.5q-120 91 -120 130q0 35 117 148q58 -38 129 -127zM631 561q-114 138 -165 138q-40 0 -92 -68q-51 -70 -51 -112v-35q69 11 145 24.5t150 29.5q5 5 9 11t4 12zM960 668q-13 -28 -37 -68t-60 -93q-81 -83 -405 -159
q-112 -26 -458 -105l47 191q37 11 94 23.5t130 26.5q23 46 44.5 88.5t40.5 81.5l35 70q79 160 179 160q19 0 54.5 -23t85.5 -67q54 -46 119.5 -80t130.5 -46z" />
    <glyph glyph-name="afii62772" unicode="&#x62c;" horiz-adv-x="981" arabic-form="medial" 
d="M652 -76q-22 -25 -53 -61.5t-73 -89.5q-120 91 -120 130q0 35 117 148q58 -38 129 -127zM631 561q-114 138 -165 138q-40 0 -92 -68q-51 -70 -51 -112v-35q69 11 145 24.5t150 29.5q5 5 9 11t4 12zM960 668q-13 -28 -37 -68t-60 -93q-35 -35 -117 -72q23 -19 68 -30
l199 35l-18 -187q-66 -19 -208 -34q-29 19 -69 34q-15 5 -28.5 24t-24.5 48q-6 19 -10.5 38t-6.5 36q-41 -13 -88.5 -25.5t-101.5 -25.5q-112 -26 -458 -105l47 191q37 11 94 23.5t130 26.5q23 46 44.5 88.5t40.5 81.5l35 70q79 160 179 160q19 0 54.5 -23t85.5 -67
q54 -46 119.5 -80t130.5 -46z" />
    <glyph glyph-name="afii57421" unicode="&#x62d;" horiz-adv-x="1013" arabic-form="isolated" 
d="M576 774q-93 79 -138 79q-65 0 -65 -60q0 -24 45 -169q47 -147 57 -158q9 -12 24 -13q19 21 206 210zM1232 -448q-116 -70 -193 -115t-113 -61q-119 -55 -203.5 -83.5t-131.5 -28.5q-79 0 -168.5 29.5t-180.5 83.5q-83 53 -125.5 127t-42.5 168q0 154 92.5 331.5
t271.5 374.5q-53 115 -80.5 210.5t-27.5 167.5q0 44 16 89.5t46 90.5q34 49 72 74t82 25q99 0 226 -125q136 -129 225 -139q-18 -17 -50.5 -54.5t-81.5 -98.5q-48 -10 -100.5 -36.5t-108.5 -68.5t-114 -98.5t-118 -123.5q-120 -143 -181.5 -265t-61.5 -220q0 -202 293 -270
q151 -38 453 -38q132 0 305 54z" />
    <glyph glyph-name="afii62776" unicode="&#x62d;" horiz-adv-x="918" arabic-form="final" 
d="M576 774q-93 79 -138 79q-65 0 -65 -60q0 -24 45 -169q47 -147 57 -158q9 -12 24 -13q19 21 206 210zM1232 -448q-116 -70 -193 -115t-113 -61q-119 -55 -203.5 -83.5t-131.5 -28.5q-79 0 -168.5 29.5t-180.5 83.5q-83 53 -125.5 127t-42.5 168q0 154 92.5 331.5
t271.5 374.5q-53 115 -80.5 210.5t-27.5 167.5q0 44 16 89.5t46 90.5q34 49 72 74t82 25q99 0 226 -125q136 -129 225 -139q-18 -17 -50.5 -54.5t-81.5 -98.5q-71 -15 -150 -65q-1 -6 -1 -12.5t-2 -14.5q0 -3 -0.5 -8.5t-0.5 -9.5q-1 -10 -1 -19v-15q0 -23 24 -40.5
t59 -27.5l209 27l-50 -174q-44 -21 -186 -35q-13 8 -30.5 16t-38.5 15q-16 6 -29 26t-24 49q-8 24 -13.5 48.5t-5.5 43.5q0 17 3.5 33t8.5 29q1 10 3 17q-51 -41 -105.5 -94t-110.5 -116q-120 -143 -181.5 -265t-61.5 -220q0 -202 293 -270q151 -38 453 -38q132 0 305 54z
" />
    <glyph glyph-name="afii62774" unicode="&#x62d;" horiz-adv-x="995" arabic-form="initial" 
d="M631 561q-114 138 -165 138q-40 0 -92 -68q-51 -70 -51 -112v-35q69 11 145 24.5t150 29.5q5 5 9 11t4 12zM960 668q-13 -28 -37 -68t-60 -93q-81 -83 -405 -159q-112 -26 -458 -105l47 191q37 11 94 23.5t130 26.5q23 46 44.5 88.5t40.5 81.5l35 70q79 160 179 160
q19 0 54.5 -23t85.5 -67q54 -46 119.5 -80t130.5 -46z" />
    <glyph glyph-name="afii62775" unicode="&#x62d;" horiz-adv-x="981" arabic-form="medial" 
d="M631 561q-114 138 -165 138q-40 0 -92 -68q-51 -70 -51 -112v-35q69 11 145 24.5t150 29.5q5 5 9 11t4 12zM960 668q-13 -28 -37 -68t-60 -93q-35 -35 -117 -72q23 -19 68 -30l199 35l-18 -187q-66 -19 -208 -34q-29 19 -69 34q-15 5 -28.5 24t-24.5 48q-6 19 -10.5 38
t-6.5 36q-41 -13 -88.5 -25.5t-101.5 -25.5q-112 -26 -458 -105l47 191q37 11 94 23.5t130 26.5q23 46 44.5 88.5t40.5 81.5l35 70q79 160 179 160q19 0 54.5 -23t85.5 -67q54 -46 119.5 -80t130.5 -46z" />
    <glyph glyph-name="afii57422" unicode="&#x62e;" horiz-adv-x="1009" arabic-form="isolated" 
d="M640 1312q-28 -39 -92 -135q-12 8 -40 29.5t-72 55.5q2 13 12 34.5t27 49.5q17 29 31 45t24 16q8 0 54 -42zM576 774q-93 79 -138 79q-65 0 -65 -60q0 -24 45 -169q47 -147 57 -158q9 -12 24 -13q19 21 206 210zM1232 -448q-116 -70 -193 -115t-113 -61
q-119 -55 -203.5 -83.5t-131.5 -28.5q-79 0 -168.5 29.5t-180.5 83.5q-83 53 -125.5 127t-42.5 168q0 154 92.5 331.5t271.5 374.5q-53 115 -80.5 210.5t-27.5 167.5q0 44 16 89.5t46 90.5q34 49 72 74t82 25q99 0 226 -125q136 -129 225 -139q-18 -17 -50.5 -54.5
t-81.5 -98.5q-48 -10 -100.5 -36.5t-108.5 -68.5t-114 -98.5t-118 -123.5q-120 -143 -181.5 -265t-61.5 -220q0 -202 293 -270q151 -38 453 -38q132 0 305 54z" />
    <glyph glyph-name="afii62779" unicode="&#x62e;" horiz-adv-x="891" arabic-form="final" 
d="M640 1312q-28 -39 -92 -135q-12 8 -40 29.5t-72 55.5q2 13 12 34.5t27 49.5q17 29 31 45t24 16q8 0 54 -42zM576 774q-93 79 -138 79q-65 0 -65 -60q0 -24 45 -169q47 -147 57 -158q9 -12 24 -13q19 21 206 210zM1232 -448q-116 -70 -193 -115t-113 -61
q-119 -55 -203.5 -83.5t-131.5 -28.5q-79 0 -168.5 29.5t-180.5 83.5q-83 53 -125.5 127t-42.5 168q0 154 92.5 331.5t271.5 374.5q-53 115 -80.5 210.5t-27.5 167.5q0 44 16 89.5t46 90.5q34 49 72 74t82 25q99 0 226 -125q136 -129 225 -139q-18 -17 -50.5 -54.5
t-81.5 -98.5q-71 -15 -150 -65q-1 -6 -1 -12.5t-2 -14.5q0 -3 -0.5 -8.5t-0.5 -9.5q-1 -10 -1 -19v-15q0 -23 24 -40.5t59 -27.5l181 38l-31 -185q-36 -22 -177 -35q-13 8 -30.5 16t-38.5 15q-16 6 -29 26t-24 49q-8 24 -13.5 48.5t-5.5 43.5q0 17 3.5 33t8.5 29q1 10 3 17
q-51 -41 -105.5 -94t-110.5 -116q-120 -143 -181.5 -265t-61.5 -220q0 -202 293 -270q151 -38 453 -38q132 0 305 54z" />
    <glyph glyph-name="afii62777" unicode="&#x62e;" horiz-adv-x="1004" arabic-form="initial" 
d="M617 1256q-15 -19 -38 -52.5t-56 -81.5q-7 6 -23 17t-39 29q-11 8 -23.5 18t-27.5 21q6 24 40 83q36 61 55 61q11 0 55 -41zM631 561q-114 138 -165 138q-40 0 -92 -68q-51 -70 -51 -112v-35q69 11 145 24.5t150 29.5q5 5 9 11t4 12zM962 675q-27 -62 -99 -168
q-36 -36 -138.5 -75.5t-266.5 -82.5q-22 -7 -136 -33t-322 -73l47 191q37 11 94 23.5t130 26.5q23 46 44.5 88.5t40.5 81.5l35 70q79 160 179 160q49 0 157 -104q117 -113 197 -107z" />
    <glyph glyph-name="afii62778" unicode="&#x62e;" horiz-adv-x="974" arabic-form="medial" 
d="M617 1256q-15 -19 -38 -52.5t-56 -81.5q-7 6 -23 17t-39 29q-11 8 -23.5 18t-27.5 21q6 24 40 83q36 61 55 61q11 0 55 -41zM631 561q-114 138 -165 138q-40 0 -92 -68q-51 -70 -51 -112v-35q69 11 145 24.5t150 29.5q5 5 9 11t4 12zM962 675q-27 -62 -99 -168
q-34 -33 -120 -67q11 -12 29.5 -20.5t41.5 -14.5l199 35l-18 -187q-66 -19 -208 -34q-29 19 -69 34q-15 5 -28.5 24t-24.5 48q-15 43 -18 79q-81 -26 -189 -55q-22 -7 -136 -33t-322 -73l47 191q37 11 94 23.5t130 26.5q23 46 44.5 88.5t40.5 81.5l35 70q79 160 179 160
q49 0 157 -104q117 -113 197 -107z" />
    <glyph glyph-name="afii57423" unicode="&#x62f;" horiz-adv-x="611" arabic-form="isolated" 
d="M517 645q0 -27 -15 -114q-11 -38 -20 -65.5t-16 -45.5q-29 -63 -69 -93q-98 -68 -275 -77l-17 11q12 60 49 179q5 0 10.5 2t12.5 3q20 5 53 12.5t79 18.5q38 11 76.5 27.5t67.5 37.5q-19 33 -64.5 76.5t-117.5 93.5q0 77 48 192q49 -35 82 -61t52 -46q64 -67 64 -151z
" />
    <glyph glyph-name="afii62780" unicode="&#x62f;" horiz-adv-x="461" arabic-form="final" 
d="M472 250q-51 32 -72 129q-3 23 -8.5 53.5t-13.5 69.5q-1 5 -2.5 13t-2.5 15q-7 -25 -17 -60.5t-24 -81.5q-3 -10 -6.5 -22t-7.5 -26q-36 -102 -142 -102q-88 0 -170 11q164 42 271 229q101 166 113 350q2 -8 4 -18t6 -27q7 -26 15.5 -64.5t18.5 -91.5q15 -62 36 -112
t47 -80z" />
    <glyph glyph-name="afii57424" unicode="&#x630;" horiz-adv-x="508" arabic-form="isolated" 
d="M392 1158q0 -209 -96 -353q0 23 -3 57.5t-10 81.5q-6 47 -9 81.5t-3 58.5q0 38 37 102q36 64 68 88q16 -43 16 -116zM453 422q0 -74 -25 -157t-70 -163q-54 -94 -116 -144t-132 -50q-65 0 -252 78q75 3 152 22t160 52q212 84 212 199q0 17 -21 17q-13 0 -37 -12
q-26 -10 -35 -10q-25 0 -69 16q-45 20 -45 44q0 50 49 175q53 133 95 133q62 0 101 -69q15 -30 24 -63t9 -68z" />
    <glyph glyph-name="afii62781" unicode="&#x630;" horiz-adv-x="450" arabic-form="final" 
d="M127 -65q-42 0 -77 14t-62 27q-5 1 -8.5 3t-8.5 4q-6 3 -14.5 6.5t-17.5 8.5q-15 5 -28.5 11.5t-33.5 14.5l22 4t20 4q64 11 125.5 21.5t126.5 21.5q80 25 141 70t92 109q-11 10 -38.5 17t-70.5 7q-54 0 -89 41q11 45 24.5 92.5t29.5 92.5q24 68 50.5 103t53.5 35
q59 0 89 -64l16 -36q1 -4 2.5 -8.5t4.5 -7.5q11 -27 15 -80q16 2 31 6.5t31 6.5l-93 -177q-24 -18 -66 -125q-19 -52 -40 -89t-39 -58q-36 -35 -83 -55t-105 -20zM425 1161q0 -213 -94 -354q0 23 -4 58t-10 80q-12 91 -12 143q0 32 39 102q20 32 37 54t31 31q13 -43 13 -114
z" />
    <glyph glyph-name="afii57425" unicode="&#x631;" horiz-adv-x="542" arabic-form="isolated" 
d="M459 451q-1 -7 -3.5 -26t-6.5 -49q-3 -31 -8 -72.5t-12 -96.5q-14 -87 -43 -156.5t-74 -118t-104 -74.5t-133 -26q-50 0 -186 46q111 13 228 82q118 66 190 155q45 55 94 186q18 33 58 150z" />
    <glyph glyph-name="afii62782" unicode="&#x631;" horiz-adv-x="522" arabic-form="final" 
d="M582 447q-20 -175 -32 -183l-145 -35q-23 -10 -44.5 -39.5t-44.5 -75.5q-25 -58 -49 -101.5t-38 -61.5q-73 -83 -188 -83q-55 0 -204 83q16 2 34.5 3.5t39.5 1.5q85 0 212 70q67 35 110 70.5t62 68.5q5 13 11.5 28t11.5 27q12 36 29 72q16 38 35.5 66t42.5 41
q13 10 30.5 18.5t40.5 12.5z" />
    <glyph glyph-name="afii57426" unicode="&#x632;" horiz-adv-x="547" arabic-form="isolated" 
d="M473 894q-15 -20 -38 -53.5t-55 -82.5q-11 10 -38.5 31t-72.5 54q2 13 11.5 34t26.5 49q15 29 29.5 45t25.5 16q13 0 56 -39zM449 451q-2 -40 -8.5 -113.5t-18.5 -180.5q-23 -185 -111 -281t-242 -96q-54 0 -186 47q108 12 228 84q54 33 103 72t85 80q30 37 55 85t39 102
z" />
    <glyph glyph-name="afii62783" unicode="&#x632;" horiz-adv-x="553" arabic-form="final" 
d="M583 864q-14 -20 -37.5 -53.5t-57.5 -82.5q-10 10 -38 31t-72 53q1 13 10 34t26 50q16 28 31.5 45t26.5 17q10 0 55 -40q7 -8 16 -17t21 -19l9.5 -9.5t9.5 -8.5zM589 441q-11 -174 -17 -180l-148 -38q-23 -10 -45.5 -40t-43.5 -79q-53 -120 -87 -162q-68 -82 -186 -82
q-60 0 -206 82q28 8 71 8q84 0 215 69q68 33 112 68.5t63 69.5l14 38t15 37q4 14 10 27.5t11 26.5q36 82 78 108q15 9 33.5 16t37.5 12z" />
    <glyph glyph-name="afii57427" unicode="&#x633;" horiz-adv-x="1735" arabic-form="isolated" 
d="M1680 570q-3 -56 -110 -243l-10 27q-42 -10 -104.5 -28.5t-141.5 -43.5l17 58q-5 2 -9 3t-8 1q-68 -16 -140.5 -31t-141.5 -24q-85 -270 -237 -412t-369 -142q-137 0 -204 48q-48 36 -127 168v103l2 2q72 250 202 433q-116 -186 -116 -338q0 -105 97 -173q89 -63 197 -63
q259 0 361 116q61 68 89 255q25 200 72 267q49 -82 87 -82q179 0 351 82l-34 -75q0 -1 2.5 -1.5t4.5 -2.5q3 -2 6 -3q21 1 55 10t81 29q87 33 128 60z" />
    <glyph glyph-name="afii62786" unicode="&#x633;" horiz-adv-x="1411" arabic-form="final" 
d="M1374 243l5 37q0 11 -1 23t-1 22q-5 -3 -10.5 -6t-10.5 -5q-32 -19 -76.5 -45t-99.5 -57v18l-2 85q-63 -29 -130 -60t-131 -60q-31 -96 -79 -178t-112 -143q-148 -144 -337 -144q-125 0 -207 77t-82 201q0 90 52 204l91 194q-6 -31 -46 -127q-33 -80 -33 -131
q0 -105 92 -178q76 -61 178 -61q116 0 261 83q154 83 177 190q3 12 3 142q0 99 40 172q29 -114 66 -114q13 0 269 114l-17 -66q2 -2 7 -4t6 -4q64 26 119 49.5t89 40.5v-14q0 -80 -51 -240z" />
    <glyph glyph-name="afii62784" unicode="&#x633;" horiz-adv-x="987" arabic-form="initial" 
d="M334 249q4 28 4 47q0 10 -1 22t-3 19q-107 -35 -191.5 -58.5t-142.5 -35.5l47 191l195 50q99 24 188 87l-20 -91q4 -2 9 -3.5t7 -2.5q29 1 87.5 28t144.5 80l-22 -84q5 -2 11.5 -3t11.5 -2q29 1 100 32t184 95q-51 -136 -83 -215.5t-48 -107.5q6 25 10.5 45.5t5.5 35.5
q-40 -15 -77.5 -27.5t-71 -25.5t-60.5 -24.5t-47 -21.5q0 3 1 5t1 6q1 16 2.5 29.5t3.5 20.5q-3 3 -7.5 3.5t-8.5 2.5q-29 -2 -110 -42z" />
    <glyph glyph-name="afii62785" unicode="&#x633;" horiz-adv-x="723" arabic-form="medial" 
d="M353 543q-25 -81 -35 -92q2 -1 7 -2.5t9 -2.5q40 2 102 29t142 80q-9 -15 -18.5 -44.5t-19.5 -69.5q24 9 53.5 19t54.5 18q48 15 155 93q-1 -13 -14 -48t-31 -77l-12.5 -50l-12.5 -50l-222 -88q-2 9 -5 23.5t-7 33.5q-2 7 -3.5 15.5t-3.5 18.5q-86 -52 -147 -81.5
t-81 -29.5h-7v15q0 71 8 81q-19 -9 -86 -32t-179 -59l47 191l236 76z" />
    <glyph glyph-name="afii57428" unicode="&#x634;" horiz-adv-x="1709" arabic-form="isolated" 
d="M1614 1024q0 -10 -9.5 -30.5t-28.5 -45.5q-34 -51 -58 -71l-73 89q-42 38 -110 38q-20 0 -81 -89q-14 -24 -29 -45.5t-30 -44.5q-3 -5 -6.5 -11.5t-7.5 -11.5q160 362 245 362q71 0 117 -39q9 -7 19.5 -19t22.5 -28q29 -40 29 -54zM1680 570q-3 -56 -110 -243l-10 27
q-42 -10 -104.5 -28.5t-141.5 -43.5l17 58q-5 2 -9 3t-8 1q-68 -16 -140.5 -31t-141.5 -24q-85 -270 -237 -412t-369 -142q-137 0 -204 48q-48 36 -127 168v103l2 2q72 250 202 433q-116 -186 -116 -338q0 -105 97 -173q89 -63 197 -63q259 0 361 116q61 68 89 255
q25 200 72 267q49 -82 87 -82q179 0 351 82l-34 -75q0 -1 2.5 -1.5t4.5 -2.5q3 -2 6 -3q21 1 55 10t81 29q87 33 128 60z" />
    <glyph glyph-name="afii62789" unicode="&#x634;" horiz-adv-x="1397" arabic-form="final" 
d="M1487 1024q0 -10 -11.5 -30.5t-29.5 -45.5q-18 -26 -31.5 -44t-24.5 -27l-76 89q-38 38 -108 38q-19 0 -78 -89q-20 -29 -38.5 -57t-36.5 -56q158 362 245 362q70 0 117 -39q15 -12 42 -47q30 -39 30 -54zM1374 243l5 37q0 11 -1 23t-1 22q-5 -3 -10.5 -6t-10.5 -5
q-32 -19 -76.5 -45t-99.5 -57v18l-2 85q-63 -29 -130 -60t-131 -60q-31 -96 -79 -178t-112 -143q-148 -144 -337 -144q-125 0 -207 77t-82 201q0 90 52 204l91 194q-6 -31 -46 -127q-33 -80 -33 -131q0 -106 97 -180q75 -59 173 -59q116 0 261 83q154 83 177 190q3 12 3 142
q0 99 40 172q29 -114 66 -114q13 0 269 114l-17 -66q2 -2 7 -4t6 -4q64 26 119 49.5t89 40.5v-14q0 -80 -51 -240z" />
    <glyph glyph-name="afii62787" unicode="&#x634;" horiz-adv-x="979" arabic-form="initial" 
d="M810 1024q0 -10 -11.5 -30.5t-28.5 -45.5q-16 -26 -31 -44t-26 -27q-18 23 -36.5 45t-38.5 44q-38 38 -108 38q-10 0 -30 -23t-49 -66l-17 -25q-15 -23 -30 -44.5t-30 -43.5q162 362 246 362q72 0 119 -39q16 -13 41 -47q30 -39 30 -54zM334 249q4 24 4 47q0 22 -4 41
q-108 -35 -192 -58.5t-142 -35.5q12 47 24 95.5t23 95.5q49 12 97.5 25t97.5 25q48 12 96 35t92 52l-20 -91l16 -6q28 0 87 27.5t145 80.5l-22 -84l23 -5q27 0 98.5 31.5t185.5 95.5q-49 -132 -82 -213.5t-49 -109.5q6 25 10.5 45.5t5.5 35.5q-85 -29 -150 -53.5t-106 -45.5
q0 3 1 5t1 6q1 17 2.5 30t3.5 20l-16 6q-26 -1 -110 -42z" />
    <glyph glyph-name="afii62788" unicode="&#x634;" horiz-adv-x="705" arabic-form="medial" 
d="M810 1024q0 -10 -11.5 -30.5t-28.5 -45.5q-16 -26 -31 -44t-26 -27q-18 23 -36.5 45t-38.5 44q-38 38 -108 38q-10 0 -30 -23t-49 -66l-17 -25q-15 -23 -30 -44.5t-30 -43.5q162 362 246 362q72 0 119 -39q16 -13 41 -47q30 -39 30 -54zM353 543q-25 -81 -35 -92
q2 -1 7 -2.5t9 -2.5q40 2 102 29t142 80q-2 -11 -3 -26.5t-4 -34.5q0 -4 -0.5 -7t-0.5 -6h16q93 0 217 90q-1 -13 -14 -48t-31 -77q-7 -22 -17.5 -50t-18.5 -50l-219 -79q-1 13 -3.5 31t-6.5 41q0 3 -0.5 5t-0.5 5q-86 -52 -147 -81.5t-81 -29.5h-7v15q0 71 8 81
q-19 -9 -86 -32t-179 -59l47 191l236 76z" />
    <glyph glyph-name="afii57429" unicode="&#x635;" horiz-adv-x="1028" arabic-form="isolated" 
d="M1023 790q-35 -86 -71.5 -138t-70.5 -68q-53 -24 -96 -56t-72 -68q11 -10 49.5 -36.5t98.5 -65.5q49 -32 75.5 -65t26.5 -64q0 -91 -47.5 -177.5t-140.5 -167.5q-91 -76 -184 -115.5t-186 -39.5q-119 0 -220 77q-108 82 -108 202q0 56 13 120.5t37 133.5q48 135 122 231
q-104 -262 -104 -329q0 -108 122 -180q108 -66 220 -66q70 0 216 58q164 62 164 114q0 3 -125 96t-125 136q0 72 35 146t98 145q60 66 129 111t144 66z" />
    <glyph glyph-name="afii62792" unicode="&#x635;" horiz-adv-x="910" arabic-form="final" 
d="M725 145q7 -9 44.5 -34.5t100.5 -68.5q52 -32 78.5 -64t26.5 -63q0 -91 -48 -178t-140 -169q-91 -77 -184 -117t-186 -40q-123 0 -221 79q-107 84 -107 200q0 58 12.5 123.5t37.5 133.5q48 134 120 230q-104 -259 -104 -328q0 -105 124 -180q105 -65 219 -65q69 0 215 56
q164 62 164 116q0 2 -124 98q-124 92 -124 134q0 145 95 266q91 114 237 160l-48 -191q-6 0 -14 1.5t-17 3.5q-8 1 -16.5 3t-14.5 2q-44 0 -126 -108z" />
    <glyph glyph-name="afii62790" unicode="&#x635;" horiz-adv-x="596" arabic-form="initial" 
d="M426 580q-48 -190 -74 -291v87q-87 -25 -176.5 -52.5t-175.5 -51.5l36 188z" />
    <glyph glyph-name="afii62791" unicode="&#x635;" horiz-adv-x="368" arabic-form="medial" 
d="M47 460l379 120l-48 -189l-378 -119z" />
    <glyph glyph-name="afii57430" unicode="&#x636;" horiz-adv-x="1075" arabic-form="isolated" 
d="M515 -428q0 -209 -97 -354q0 24 -2.5 59t-9.5 82q-12 93 -12 139q0 18 10 44t29 58q17 29 35 52.5t33 34.5q14 -45 14 -115zM1015 814q-33 -86 -69.5 -137.5t-70.5 -67.5q-52 -23 -95 -54.5t-71 -67.5q10 -11 48.5 -37t97.5 -64q49 -32 75.5 -65t26.5 -65
q0 -90 -47.5 -175.5t-140.5 -165.5q-88 -76 -180.5 -115.5t-186.5 -39.5q-119 0 -217 77q-108 83 -108 200q0 56 12.5 120.5t37.5 132.5q48 133 120 228q-103 -259 -103 -325q0 -107 121 -180q107 -65 220 -65q68 0 214 58q162 62 162 114q0 2 -124 94q-125 93 -125 136
q0 71 35 144.5t98 143.5q60 65 128 110t142 66z" />
    <glyph glyph-name="afii62795" unicode="&#x636;" horiz-adv-x="900" arabic-form="final" 
d="M519 -659q0 -161 -93 -271q0 17 -3 44.5t-9 62.5q-12 72 -12 108q0 15 9 35t28 44q16 22 33 40.5t33 27.5q14 -33 14 -91zM721 174q6 -9 43 -34.5t100 -67.5q52 -32 77.5 -64t25.5 -63q0 -90 -46.5 -177t-139.5 -168q-88 -75 -180.5 -114.5t-186.5 -39.5q-121 0 -219 78
q-106 82 -106 198q0 57 12.5 122t36.5 133q48 133 120 229q-103 -258 -103 -327q0 -103 122 -179q105 -64 218 -64q68 0 213 57q163 61 163 114q0 2 -123 97q-124 92 -124 133q0 145 95 265q90 114 236 158l-48 -188q-6 0 -14 0.5t-17 3.5q-8 1 -16.5 2.5t-13.5 1.5
q-44 0 -125 -106z" />
    <glyph glyph-name="afii62793" unicode="&#x636;" horiz-adv-x="596" arabic-form="initial" 
d="M426 580q-48 -190 -74 -291v87q-87 -25 -176.5 -52.5t-175.5 -51.5l47 188zM270 68q0 -104 -25 -193.5t-71 -161.5q-1 24 -4 61.5t-8 80.5q-12 92 -12 140q0 36 38 99q18 30 35.5 52.5t33.5 35.5q7 -22 10 -51t3 -63z" />
    <glyph glyph-name="afii62794" unicode="&#x636;" horiz-adv-x="369" arabic-form="medial" 
d="M416 68q0 -211 -96 -355q0 24 -3 59t-9 83q-12 92 -12 140q0 18 10.5 43t29.5 56q16 30 33 53t34 35q13 -46 13 -114zM47 460l379 120l-48 -189l-378 -119z" />
    <glyph glyph-name="afii57431" unicode="&#x637;" horiz-adv-x="1081" arabic-form="isolated" 
d="M566 582q0 45 -40 102q-44 60 -88 60q-26 0 -48 -28q-22 -26 -22 -55q0 -36 53 -82q25 -19 50 -31t40 -13q9 1 17 2q7 3 16.5 4.5t21.5 4.5v36zM954 872q0 -200 -142 -368q-151 -177 -346 -177q-17 0 -50 16q-6 2 -12 4.5t-12 4.5q-3 -6 -40.5 -19t-103.5 -31
q-99 -29 -162.5 -44t-85.5 -15l47 191q181 12 236 64q12 12 36 75.5t61 174.5q30 96 67.5 145.5t80.5 49.5q64 0 103 -66q34 -57 34 -124q0 -30 -19 -90q-10 -27 -15 -51t-6 -41q6 -1 13.5 -2.5t13.5 -2.5q16 0 46 11t68 27q33 17 61.5 34t47.5 32q-17 74 -43 148t-57 136
q-43 79 -95 133t-106 73q-48 -38 -63 -97l-30 -111v17q-3 76 55 227q66 163 135 163q53 0 104.5 -50.5t96.5 -143.5q40 -82 61 -157t21 -136z" />
    <glyph glyph-name="afii62798" unicode="&#x637;" horiz-adv-x="538" arabic-form="final" 
d="M544 243q-35 0 -62.5 -48t-43.5 -132q-11 -54 -18.5 -100t-13.5 -82l-10 -54q-125 64 -125 221q0 19 2.5 46.5t7.5 63.5q12 71 9 113l-1 44q-75 -35 -148.5 -53.5t-140.5 -18.5l47 189q212 9 381 118q-74 -248 -74 -291q0 -49 12 -90.5t31 -69.5q29 36 72 165
q37 109 120 170z" />
    <glyph glyph-name="afii62796" unicode="&#x637;" horiz-adv-x="1081" arabic-form="initial" 
d="M566 582q0 45 -40 102q-44 60 -88 60q-26 0 -48 -28q-22 -26 -22 -55q0 -36 53 -82q25 -19 50 -31t40 -13q9 1 17 2q7 3 16.5 4.5t21.5 4.5v36zM954 872q0 -200 -142 -368q-151 -177 -346 -177q-17 0 -50 16q-6 2 -12 4.5t-12 4.5q-3 -6 -40.5 -19t-103.5 -31
q-99 -29 -162.5 -44t-85.5 -15l47 191q181 12 236 64q12 12 36 75.5t61 174.5q30 96 67.5 145.5t80.5 49.5q64 0 103 -66q34 -57 34 -124q0 -30 -19 -90q-10 -27 -15 -51t-6 -41q6 -1 13.5 -2.5t13.5 -2.5q16 0 46 11t68 27q33 17 61.5 34t47.5 32q-17 74 -43 148t-57 136
q-43 79 -95 133t-106 73q-48 -38 -63 -97l-30 -111v17q-3 76 55 227q66 163 135 163q53 0 104.5 -50.5t96.5 -143.5q40 -82 61 -157t21 -136z" />
    <glyph glyph-name="afii62797" unicode="&#x637;" horiz-adv-x="538" arabic-form="medial" 
d="M544 243q-35 0 -62.5 -48t-43.5 -132q-11 -54 -18.5 -100t-13.5 -82l-10 -54q-125 64 -125 221q0 19 2.5 46.5t7.5 63.5q12 71 9 113l-1 44q-75 -35 -148.5 -53.5t-140.5 -18.5l47 189q212 9 381 118q-74 -248 -74 -291q0 -49 12 -90.5t31 -69.5q29 36 72 165
q37 109 120 170z" />
    <glyph glyph-name="afii57432" unicode="&#x638;" horiz-adv-x="589" arabic-form="isolated" 
d="M422 1012q0 -43 70 -43q38 0 179 42l-42 -108q-36 -21 -88.5 -43t-115.5 -44q-84 -30 -137.5 -49.5t-72.5 -28.5q14 25 35 58.5t49 77.5q9 3 23.5 7t30.5 9h-15q-27 0 -27 42q0 25 25.5 58.5t66.5 65.5q33 26 68 47.5t73 37.5q-24 -17 -40.5 -30t-25.5 -23
q-38 -37 -53 -65zM430 555q-24 -95 -43.5 -168.5t-32.5 -125.5v88q-88 -24 -177 -52.5t-177 -53.5q12 47 24 95.5t23 95.5z" />
    <glyph glyph-name="afii62801" unicode="&#x638;" horiz-adv-x="360" arabic-form="final" 
d="M422 1012q0 -43 70 -43q38 0 179 42l-42 -108q-36 -21 -88.5 -43t-115.5 -44q-84 -30 -137.5 -49.5t-72.5 -28.5q14 25 35 58.5t49 77.5q9 3 23.5 7t30.5 9h-15q-27 0 -27 42q0 25 25.5 58.5t66.5 65.5q33 26 68 47.5t73 37.5q-24 -17 -40.5 -30t-25.5 -23
q-38 -37 -53 -65zM47 434l383 121l-48 -192l-382 -120z" />
    <glyph glyph-name="afii62799" unicode="&#x638;" horiz-adv-x="589" arabic-form="initial" 
d="M422 1012q0 -43 70 -43q38 0 179 42l-42 -108q-36 -21 -88.5 -43t-115.5 -44q-84 -30 -137.5 -49.5t-72.5 -28.5q14 25 35 58.5t49 77.5q9 3 23.5 7t30.5 9h-15q-27 0 -27 42q0 25 25.5 58.5t66.5 65.5q33 26 68 47.5t73 37.5q-24 -17 -40.5 -30t-25.5 -23
q-38 -37 -53 -65zM430 555q-24 -95 -43.5 -168.5t-32.5 -125.5v88q-88 -24 -177 -52.5t-177 -53.5q12 47 24 95.5t23 95.5z" />
    <glyph glyph-name="afii62800" unicode="&#x638;" horiz-adv-x="360" arabic-form="medial" 
d="M422 1012q0 -43 70 -43q38 0 179 42l-42 -108q-36 -21 -88.5 -43t-115.5 -44q-84 -30 -137.5 -49.5t-72.5 -28.5q14 25 35 58.5t49 77.5q9 3 23.5 7t30.5 9h-15q-27 0 -27 42q0 25 25.5 58.5t66.5 65.5q33 26 68 47.5t73 37.5q-24 -17 -40.5 -30t-25.5 -23
q-38 -37 -53 -65zM47 434l383 121l-48 -192l-382 -120z" />
    <glyph glyph-name="afii57433" unicode="&#x639;" horiz-adv-x="821" arabic-form="isolated" 
d="M1026 -415q-143 -113 -184 -141q-111 -68 -216 -68q-529 0 -529 330q0 41 24 101t69 135.5t111.5 164.5t150.5 190q-43 36 -67.5 65.5t-24.5 48.5q0 149 66 264q74 125 211 166v-71l-34 -112l-24 8q-16 -3 -53.5 -33t-90.5 -83q34 -49 75.5 -76.5t84.5 -28.5q37 24 90 63
t120 89q-14 -68 -18 -150q-140 -104 -230 -176.5t-134 -114.5q-216 -210 -216 -388q0 -132 204 -190q137 -41 320 -41q170 0 295 48z" />
    <glyph glyph-name="afii62804" unicode="&#x639;" horiz-adv-x="615" arabic-form="final" 
d="M636 243q-34 3 -61.5 45.5t-49.5 123.5q-52 -56 -104 -121.5t-100 -137.5q-124 -184 -124 -287q0 -71 63.5 -129.5t186.5 -104.5q4 2 9.5 4.5t8.5 4.5l22 -17q22 0 47.5 -0.5t52.5 -0.5t53 -0.5t47 -0.5q202 -1 381 43q-160 -123 -241 -162q-119 -55 -282 -55h-116
q-60 0 -117.5 21t-108.5 62q-53 43 -82.5 95t-29.5 111q0 143 99 330t289 413q-6 78 -213 75v55q0 40 58 125q221 73 264 73q61 0 123 -32q74 -40 74 -94q0 -55 -69 -121l-105 -99q1 -3 6.5 -14.5t8.5 -15.5q5 -4 11 -7t12 -3q16 0 35 12z" />
    <glyph glyph-name="afii62802" unicode="&#x639;" horiz-adv-x="710" arabic-form="initial" 
d="M196 555q0 10 4 26.5t11 34.5q58 159 145.5 241.5t206.5 82.5q-59 -157 -90 -176l-174 -74q6 -50 78 -96q67 -48 120 -48q29 0 188 105q-6 -31 -22 -73.5t-43 -97.5q-62 -81 -286 -144q-10 -2 -93 -25t-241 -68l47 191l194 59q-21 24 -33 39.5t-12 22.5z" />
    <glyph glyph-name="afii62803" unicode="&#x639;" horiz-adv-x="558" arabic-form="medial" 
d="M574 243q-22 10 -40.5 28.5t-35.5 43.5q-2 5 -11 24t-25 55l-8 21q-50 -30 -106 -55.5t-115 -44.5l-233 -72l47 191l383 121q-50 49 -119 63q-28 7 -132 28q20 154 104 204q63 40 232 40q103 0 203 -88q14 -42 14 -60q0 -88 -80 -157q-40 -35 -64 -59.5t-28 -32.5
q14 -12 31 -30t29 -29z" />
    <glyph glyph-name="afii57434" unicode="&#x63a;" horiz-adv-x="821" arabic-form="isolated" 
d="M483 909q-106 102 -106 131q0 32 88 140q105 -82 105 -127zM1026 -415q-143 -113 -184 -141q-111 -68 -216 -68q-529 0 -529 330q0 41 24 101t69 135.5t111.5 164.5t150.5 190q-43 36 -67.5 65.5t-24.5 48.5q0 149 66 264q74 125 211 166v-71l-34 -112l-24 8
q-16 -3 -53.5 -33t-90.5 -83q34 -49 75.5 -76.5t84.5 -28.5q37 24 90 63t120 89q-14 -68 -18 -150q-140 -104 -230 -176.5t-134 -114.5q-216 -210 -216 -388q0 -132 204 -190q137 -41 320 -41q170 0 295 48z" />
    <glyph glyph-name="afii62807" unicode="&#x63a;" horiz-adv-x="615" arabic-form="final" 
d="M571 966q-17 21 -44.5 50t-65.5 67q4 29 100 157q101 -82 101 -115q0 -42 -91 -159zM636 243q-34 3 -61.5 45.5t-49.5 123.5q-52 -56 -104 -121.5t-100 -137.5q-124 -184 -124 -287q0 -71 63.5 -129.5t186.5 -104.5q4 2 9.5 4.5t8.5 4.5l22 -17q22 0 47.5 -0.5t52.5 -0.5
t53 -0.5t47 -0.5q202 -1 381 43q-160 -123 -241 -162q-119 -55 -282 -55h-116q-60 0 -117.5 21t-108.5 62q-53 43 -82.5 95t-29.5 111q0 143 99 330t289 413q-6 78 -213 75v55q0 40 58 125q221 73 264 73q61 0 123 -32q74 -40 74 -94q0 -55 -69 -121l-105 -99
q1 -3 6.5 -14.5t8.5 -15.5q5 -4 11 -7t12 -3q16 0 35 12z" />
    <glyph glyph-name="afii62805" unicode="&#x63a;" horiz-adv-x="710" arabic-form="initial" 
d="M528 1174q-17 -21 -41 -57.5t-57 -88.5q-26 22 -119 92q3 29 38 88q41 66 61 66zM196 555q0 10 4 26.5t11 34.5q58 159 145.5 241.5t206.5 82.5q-59 -157 -90 -176l-174 -74q6 -50 78 -96q67 -48 120 -48q29 0 188 105q-6 -31 -22 -73.5t-43 -97.5q-62 -81 -286 -144
q-10 -2 -93 -25t-241 -68l47 191l194 59q-21 24 -33 39.5t-12 22.5z" />
    <glyph glyph-name="afii62806" unicode="&#x63a;" horiz-adv-x="558" arabic-form="medial" 
d="M602 1256q-22 -29 -53.5 -72.5t-73.5 -103.5q-117 136 -117 157q0 24 117 167q41 -47 127 -148zM574 243q-22 10 -40.5 28.5t-35.5 43.5q-2 5 -11 24t-25 55l-8 21q-50 -30 -106 -55.5t-115 -44.5l-233 -72l47 191l383 121q-50 49 -119 63q-28 7 -132 28q20 154 104 204
q63 40 232 40q103 0 203 -88q14 -42 14 -60q0 -88 -80 -157q-40 -35 -64 -59.5t-28 -32.5q14 -12 31 -30t29 -29z" />
    <glyph glyph-name="afii57441" unicode="&#x641;" horiz-adv-x="1219" arabic-form="isolated" 
d="M1138 1105q0 -17 -131 -167q-68 90 -110 174q25 22 121 160q120 -149 120 -167zM1138 451q0 -85 -35.5 -187t-100.5 -213q-66 -110 -139 -189t-150 -122q-136 -75 -331 -75q-4 0 -9.5 3.5t-11.5 8.5q-10 9 -13 9q-103 0 -167 91q-56 84 -56 191q0 135 70 327
q79 207 175 287q-163 -238 -163 -440q0 -269 328 -269q159 0 296 108q69 53 114.5 118.5t67.5 140.5q-5 6 -8.5 13.5t-8.5 13.5q-25 -9 -49.5 -14t-43.5 -5q-24 0 -58 24q-31 26 -31 53q0 72 72 204q77 138 141 138q34 0 76 -93q35 -80 35 -123z" />
    <glyph glyph-name="afii62810" unicode="&#x641;" horiz-adv-x="1109" arabic-form="final" 
d="M1147 1066q-49 -64 -129 -184q-123 122 -123 168q0 48 144 190q5 -13 32 -56t76 -118zM1039 63q-264 -411 -604 -411q-106 0 -204 74q-106 81 -106 182q0 167 55 330q61 178 171 285q-3 -4 -23.5 -46.5t-60.5 -124.5q-45 -94 -45 -187q0 -315 306 -315q127 0 271 97
q62 42 115 95.5t91 108.5v56q-6 -2 -14 -6.5t-4 -0.5q-32 -14 -33 -14q-25 0 -48.5 7.5t-44.5 23.5q-23 17 -35.5 37t-12.5 43q0 66 58 205q70 148 125 148q88 0 132 -197l-2 -3q11 -2 22 -3.5t22 -1.5l-47 -192q-7 -19 -28 -66.5t-56 -123.5z" />
    <glyph glyph-name="afii62808" unicode="&#x641;" horiz-adv-x="595" arabic-form="initial" 
d="M535 1303q-23 -28 -53.5 -66.5t-71.5 -90.5q-104 130 -104 160q0 28 104 160q21 -28 51.5 -68.5t73.5 -94.5zM526 748q0 -111 -54 -229q-62 -137 -154 -167q-77 -26 -159 -54t-159 -55q12 47 24 95.5t23 95.5q93 25 149 40.5t75 21.5q51 17 101 50t92 79l-6 33
q-91 -69 -142 -69q-15 0 -69 29q0 4 -1 9.5t-2 10.5q0 31 12 75.5t33 98.5q25 60 52 93t55 33q52 0 95 -71q15 -30 25 -60.5t10 -58.5z" />
    <glyph glyph-name="afii62809" unicode="&#x641;" horiz-adv-x="515" arabic-form="medial" 
d="M560 637q-45 80 -98 80q-97 0 -97 -66q0 -26 36 -65q37 -36 65 -36q7 3 94 87zM580 1294q0 -25 -114 -136q-112 117 -112 136q0 9 100 149q39 -5 82 -55q20 -24 32 -48.5t12 -45.5zM528 243q-41 17 -74.5 49.5t-56.5 80.5q-98 -31 -198.5 -65t-198.5 -65q12 47 24 95.5
t23 95.5q61 17 100.5 27.5t51.5 12.5q112 33 112 79q0 5 -0.5 12t-3.5 14q-2 10 -3.5 17t-1.5 12q0 38 16.5 85.5t46.5 100.5q35 58 70 88.5t70 30.5q59 0 107 -46q47 -47 47 -107q0 -61 -111 -241q0 -25 7.5 -47t20.5 -38z" />
    <glyph glyph-name="afii57442" unicode="&#x642;" horiz-adv-x="1201" arabic-form="isolated" 
d="M1239 483q0 -11 -2 -31t-6 -50q-7 -52 -4 -82q-23 -24 -36 -54q-66 -152 -131 -259t-124 -164q-85 -78 -201 -120.5t-258 -42.5q-116 0 -192 91q-71 85 -71 199q0 19 3.5 43.5t9 51t13 53.5t16.5 52q27 74 43.5 124t21.5 67q-2 2 -3.5 7.5t-4.5 9.5q-51 -40 -104.5 -80
t-105.5 -79l-14 27q14 70 76 200q73 88 324 196v-39l-90 -175q-90 -176 -90 -272q0 -120 99 -200q95 -74 219 -74q170 0 314 110q66 48 117 116t88 147q-7 6 -15 12t-12 12q-9 -1 -27 -3.5t-43 -7.5q-19 -3 -36.5 -4.5t-31.5 -1.5q-9 0 -17.5 9t-15.5 25q-13 29 -13 48
q0 60 68 186q77 133 126 133q50 0 84 -68q26 -57 26 -112z" />
    <glyph glyph-name="afii62813" unicode="&#x642;" horiz-adv-x="1167" arabic-form="final" 
d="M1186 253q-44 -25 -81 -100q-6 -11 -25.5 -51.5t-51.5 -107.5q-33 -73 -85.5 -141.5t-120.5 -126.5q-154 -128 -462 -128q-107 0 -187 108q-73 102 -73 211q0 22 7 58.5t20 84.5t32 105.5t40 120.5q-1 4 -3.5 9.5t-4.5 8.5q-25 -13 -54 -30.5t-59 -39.5
q-26 -20 -53.5 -39.5t-54.5 -38.5l77 228q191 159 369 240l9 -30q-36 -53 -71.5 -113t-67.5 -125q-41 -84 -64 -149t-23 -103q0 -136 119 -216q102 -69 250 -69q122 0 294 113q180 117 198 230q-8 -2 -26.5 -2h-51.5q-50 0 -89 26q-42 31 -42 78q0 70 67 220q76 162 136 162
q58 0 100 -85l45 -137q7 4 17 9l16 8z" />
    <glyph glyph-name="afii62811" unicode="&#x642;" horiz-adv-x="590" arabic-form="initial" 
d="M664 1318q-21 -43 -55.5 -104.5t-87.5 -142.5l2 18q1 29 -25 29q-38 0 -246 -59v23q0 38 47 138q50 106 83 110v-13q0 -17 -10 -30q18 -6 38 -6q29 0 86 15q55 14 84 14q49 0 84 8zM544 765q0 -272 -147 -384q-99 -77 -397 -138l47 191q85 7 152 23.5t119 40.5
q16 9 35.5 21.5t42.5 30.5q25 20 40.5 36.5t17.5 26.5q-3 1 -4 5t-4 7q-14 -11 -29 -23t-29 -23q-28 -14 -72 -14q-14 0 -26 6t-21.5 16t-15 22.5t-5.5 26.5q0 60 63 176q68 126 120 126q39 0 79 -70q34 -58 34 -103z" />
    <glyph glyph-name="afii62812" unicode="&#x642;" horiz-adv-x="602" arabic-form="medial" 
d="M559 627q0 9 -7 19t-20 22q-28 26 -41 26h-31q-63 0 -63 -38q0 -10 65 -103h43q54 48 54 74zM790 1323q-17 -39 -31.5 -71t-25.5 -50q-19 -41 -37 -68t-32 -36q-5 27 -23 27q-23 0 -118 -36q-57 -20 -89.5 -31.5t-39.5 -12.5l-26 11v43q0 27 82 185l23 10l21 -28
q42 7 109 25t153 47q14 -15 34 -15zM618 242q-26 1 -57 13t-58 29q-13 10 -97 77q-101 -29 -203 -59t-203 -59q12 47 24 95.5t23 95.5l259 68q6 63 21.5 123t40.5 117q35 74 79 114t93 40q50 0 96 -43q44 -43 44 -95q0 -50 -51 -131l-79 -120q74 -67 117 -73z" />
    <glyph glyph-name="afii57443" unicode="&#x643;" horiz-adv-x="1217" arabic-form="isolated" 
d="M1157 714q0 -53 -13.5 -106.5t-39 -105t-62.5 -99t-86 -88.5q-94 -73 -201.5 -111.5t-227.5 -38.5q-427 0 -427 234q0 225 149 417q153 199 372 225q0 -36 6 -103q6 -68 6 -101q0 -224 -252 -320l-63 14l22 91l169 86v120q-3 2 -8.5 7.5t-8.5 7.5q-55 -5 -109.5 -32
t-103.5 -76q-105 -99 -105 -210q0 -159 330 -159q170 0 306.5 43t236.5 127q1 13 1.5 26.5t1.5 26.5q3 26 3.5 44.5t0.5 32.5q0 54 -6 135t-19 189q-12 108 -18 189t-6 135q0 28 121 165z" />
    <glyph glyph-name="afii62816" unicode="&#x643;" horiz-adv-x="1112" arabic-form="final" 
d="M1116 250q-18 2 -32.5 14.5t-24.5 33.5q-4 8 -11 29t-14 49q-39 -42 -106 -80t-154 -70q-82 -27 -158 -42t-141 -15q-378 0 -378 234q0 116 38.5 224t112.5 207q81 103 180 157.5t210 53.5v-239q0 -20 -59 -114q-55 -89 -75 -108q-31 -29 -88 -46q-3 -1 -26.5 -6.5
t-68.5 -15.5q0 91 23 122q17 22 63 37q30 10 56 23t46 26v128q-2 0 -6.5 3.5t-7.5 5.5q-158 -55 -240 -127.5t-82 -163.5q0 -106 112 -164q87 -43 206 -43q126 0 307 48q239 57 233 141l-48 732q-2 26 91 182q14 -113 23.5 -238.5t15.5 -266.5l18 -505q6 -3 15 -7t15 -8z
" />
    <glyph glyph-name="afii57410" unicode="&#x643;" horiz-adv-x="744" arabic-form="initial" 
d="M575 627q-52 87 -286 280q0 107 17.5 187t49.5 133q26 37 75 74t113 64q116 52 188 85.5t96 45.5l-2.5 -5t-2.5 -7q-19 -71 -57 -199q-66 -35 -163 -89t-225 -127q10 -17 49.5 -49.5t100.5 -71.5q50 -34 78 -79.5t28 -98.5q0 -13 -17 -74q-52 -179 -85 -233
q-62 -100 -194 -133q-8 -3 -34 -10q-38 -10 -114 -29t-190 -48l47 191l383 121z" />
    <glyph glyph-name="afii62815" unicode="&#x643;" horiz-adv-x="563" arabic-form="medial" 
d="M384 535q-11 20 -26 48.5t-34 64.5q-4 4 -8 13t-6 14q-29 51 -45.5 85.5t-16.5 45.5q4 18 13.5 65.5t22.5 122.5q30 167 83 219q34 19 83.5 49.5t115.5 72.5q52 35 108 68.5t113 63.5q-43 -216 -170 -312q-77 -47 -152.5 -92.5t-153.5 -90.5q21 -47 57 -116.5t86 -161.5
q9 -27 23 -64.5t33 -87.5q1 -7 4 -11q16 -44 42 -72l73 -31q-12 -46 -24 -94.5t-23 -95.5q-28 2 -53 17.5t-42 41.5q-5 9 -9.5 18t-9.5 18q-10 17 -19 35t-18 35q-85 -60 -194 -100.5t-237 -59.5q12 47 24 95.5t24 95.5q7 -1 16 -1h16q78 0 155 26.5t149 75.5z" />
    <glyph glyph-name="afii57444" unicode="&#x644;" horiz-adv-x="1102" arabic-form="isolated" 
d="M1036 402q0 -208 -191 -427q-199 -229 -400 -229q-67 0 -124.5 21t-100.5 59q-46 41 -70 95t-24 119q0 140 113 444q-65 -204 -65 -273q0 -123 101 -190q89 -62 213 -62q95 0 175 27.5t143 79.5q65 57 98.5 131.5t33.5 168.5q0 98 -6.5 223t-18.5 254q-11 117 -23 238.5
t-22 238.5q-5 55 32 123q24 45 64 115l45 -460q27 -266 27 -461v-235z" />
    <glyph glyph-name="afii62819" unicode="&#x644;" horiz-adv-x="1044" arabic-form="final" 
d="M1099 453q-8 -99 -46 -189q-21 -16 -47.5 -28t-53.5 -17q-40 -102 -92.5 -185t-120.5 -147q-160 -150 -360 -150q-290 0 -290 301q0 186 112 426q-66 -190 -66 -252q0 -66 26 -119.5t71 -89.5q43 -28 102 -44.5t129 -16.5q167 0 300 116q65 60 97.5 136.5t32.5 154.5
q-10 248 -19.5 506.5t-18.5 506.5l106 183l50 -1101q3 -4 8 -9t8 -7q10 2 24 7t32 12z" />
    <glyph glyph-name="afii62817" unicode="&#x644;" horiz-adv-x="511" arabic-form="initial" 
d="M458 649q2 -34 -50 -142q-26 -53 -46 -87t-34 -47q-20 -19 -62 -41t-97 -41q-47 -18 -91 -30.5t-78 -17.5l47 191q37 4 80 16t91 31q137 51 134 101l-57 799q-2 33 91 177z" />
    <glyph glyph-name="afii62818" unicode="&#x644;" horiz-adv-x="641" arabic-form="medial" 
d="M428 478q0 -22 23 -39t59 -27q46 11 94.5 23t93.5 23l-38 -194q-18 -6 -62 -14.5t-116 -20.5q-30 19 -69 33q-15 5 -28 24.5t-24 49.5q-5 12 -9 23t-5 23q-6 -8 -9 -9q-19 -19 -61.5 -41t-97.5 -41q-52 -19 -98 -31t-81 -17l47 191q37 4 84 16.5t97 30.5q67 25 94 51
t12 50l-39 799q-2 33 91 177q22 -288 33.5 -498.5t11.5 -342.5q0 -41 -0.5 -73t-3.5 -59l4 4v-16t-1 -21v-20q-2 -18 -2 -31v-23z" />
    <glyph glyph-name="afii57445" unicode="&#x645;" horiz-adv-x="767" arabic-form="isolated" 
d="M704 723q-23 -84 -48 -143.5t-47 -86.5q-28 -29 -87 -60t-145 -60q-214 -72 -214 -169q0 -90 54 -254q56 -167 56 -257q0 -22 -10 -66q-14 -51 -15 -69q-5 40 -26 127t-59 221q-60 212 -60 349q0 144 88 205l201 93q13 36 26.5 72t26.5 72q40 77 118 77q82 0 141 -51z
" />
    <glyph glyph-name="afii62822" unicode="&#x645;" horiz-adv-x="753" arabic-form="final" 
d="M759 264q-10 -4 -27.5 -13.5t-41.5 -26.5q-43 -32 -73 -35q-5 12 -5 60q0 53 13 65q-3 1 -7.5 1.5t-8.5 2.5q-54 0 -240 -105q-190 -105 -190 -144q0 -85 60 -251t60 -252q0 -58 -35 -148q-157 509 -157 686q0 128 134 211l238 113q10 36 20 71.5t21 66.5q26 77 105 77
q34 0 183 -77q-12 -22 -30.5 -55t-44.5 -77q8 -6 28 -6q17 0 44 6z" />
    <glyph glyph-name="afii62820" unicode="&#x645;" horiz-adv-x="659" arabic-form="initial" 
d="M208 297q-95 -25 -146 -38t-62 -16l47 191q56 -2 116 13.5t118 44.5q-4 14 -4 37q0 96 57 167q57 75 148 75q54 0 94 -31q42 -35 42 -85q0 -138 -86 -205q-11 -10 -54.5 -31.5t-111.5 -54.5q-72 -33 -112 -50.5t-46 -17.5v1z" />
    <glyph glyph-name="afii62821" unicode="&#x645;" horiz-adv-x="502" arabic-form="medial" 
d="M395 361q-3 -1 -18 -6.5t-43 -15.5q-24 -9 -58 -21t-77 -27q-60 -23 -111 -35.5t-88 -12.5l47 191q41 5 100 18.5t133 35.5q18 10 63 125q39 101 115 101q29 0 171 -53q-12 -25 -27 -58q-13 -31 -30.5 -68t-36.5 -84q5 -5 13 -8.5t14 -8.5l-47 -191q-49 0 -120 118z" />
    <glyph glyph-name="afii57446" unicode="&#x646;" horiz-adv-x="1138" arabic-form="isolated" 
d="M1020 614q43 -190 43 -313q0 -18 -6 -41.5t-17 -51.5t-26 -59t-33 -63q-111 -186 -257.5 -283t-325.5 -97q-125 0 -207 89q-82 87 -82 214q0 83 30.5 175t90.5 190q66 107 140 165t149 58q45 0 92 -51q45 -51 45 -96q0 -18 -132 -148q-19 52 -56 90q-41 48 -91 48
q-59 0 -122 -96q-61 -91 -61 -152q0 -131 79 -208q78 -78 208 -78q151 0 317 86q194 95 194 232q0 35 -41 163q-27 87 -34 91q6 11 15.5 26t26.5 34q54 65 61 76zM917 478q-5 -10 -5 -15q0 15 3 17z" />
    <glyph glyph-name="afii62825" unicode="&#x646;" horiz-adv-x="1080" arabic-form="final" 
d="M1089 253q-15 -41 -35 -90t-45 -109q-36 -82 -97 -150t-147 -122q-171 -107 -354 -107q-123 0 -206 90q-84 90 -84 213q0 83 30.5 174t90.5 191q66 105 139.5 163.5t149.5 58.5q39 0 88 -54t49 -93q0 -20 -132 -147q-19 50 -55 90q-43 45 -92 45q-59 0 -122 -96
q-61 -88 -61 -150q0 -123 82 -204q83 -82 206 -82q165 0 325 89q188 101 188 251q0 15 -1.5 36.5t-4.5 50.5q-4 29 -6 50.5t-2 34.5t8 36t20 47q7 17 18 38.5t23 45.5q15 -65 15 -112v-14t-1 -12q12 6 29.5 15t30.5 15z" />
    <glyph glyph-name="afii62823" unicode="&#x646;" horiz-adv-x="600" arabic-form="initial" 
d="M395 858q-16 -20 -39.5 -53t-56.5 -82q-5 5 -13 10.5t-20 13.5q-13 11 -32 25.5t-44 33.5q1 13 10 34.5t26 50.5q16 29 31 45t26 16q6 0 20.5 -11t34.5 -31zM430 555q-24 -95 -43.5 -168.5t-32.5 -125.5v88q-88 -24 -177 -52.5t-177 -53.5q12 47 24 95.5t23 95.5z" />
    <glyph glyph-name="afii62824" unicode="&#x646;" horiz-adv-x="368" arabic-form="medial" 
d="M497 858q-33 -39 -94 -135q-11 9 -38.5 29t-71.5 54q1 13 10.5 34.5t25.5 50.5q17 28 32 44.5t23 16.5q13 0 58 -42zM47 434l383 121l-48 -192l-382 -120z" />
    <glyph glyph-name="afii57447" unicode="&#x647;" horiz-adv-x="779" arabic-form="isolated" 
d="M622 560q0 43 -49 86q-48 42 -93 42h-74q-9 -13 -19 -32t-22 -43q-1 -18 -4.5 -43.5t-9.5 -53.5q63 -56 105 -56q52 0 101 24q65 32 65 76zM714 704q0 -121 -77 -280q-90 -182 -198 -182q-73 0 -124 40q-58 46 -58 115q0 48 16 111.5t44 133.5q24 57 50.5 117.5
t50.5 118.5q36 28 79 28q83 0 150 -63q32 -29 49.5 -65t17.5 -74z" />
    <glyph glyph-name="afii62828" unicode="&#x647;" horiz-adv-x="520" arabic-form="final" 
d="M227 38q72 308 192 344q11 3 29.5 10.5t44.5 19.5q22 11 40.5 17.5t33.5 10.5l9 1q-15 -69 -26 -118.5t-18 -79.5q-36 -6 -61.5 -11.5t-39.5 -8.5q-50 -25 -80 -42t-35 -24q-24 -23 -36 -34q-15 -15 -28.5 -37t-24.5 -48z" />
    <glyph glyph-name="afii57470" unicode="&#x647;" horiz-adv-x="1081" arabic-form="initial" 
d="M566 582q0 45 -40 102q-44 60 -88 60q-26 0 -48 -28q-22 -26 -22 -55q0 -36 53 -82q25 -19 50 -31t40 -13q9 1 17 2q7 3 16.5 4.5t21.5 4.5v36zM954 872q0 -200 -142 -368q-151 -177 -346 -177q-17 0 -50 16q-6 2 -12 4.5t-12 4.5q-3 -6 -40.5 -19t-103.5 -31
q-99 -29 -162.5 -44t-85.5 -15l47 191q181 12 236 64q12 12 36 75.5t61 174.5q30 96 67.5 145.5t80.5 49.5q64 0 103 -66q34 -57 34 -124q0 -30 -19 -90q-10 -27 -15 -51t-6 -41q6 -1 13.5 -2.5t13.5 -2.5q16 0 46 11t68 27q33 17 61.5 34t47.5 32q-17 74 -43 148t-57 136
q-43 79 -95 133t-106 73q-48 -38 -63 -97l-30 -111v17q-3 76 55 227q66 163 135 163q53 0 104.5 -50.5t96.5 -143.5q40 -82 61 -157t21 -136z" />
    <glyph glyph-name="afii62827" unicode="&#x6be;" horiz-adv-x="538" arabic-form="final" 
d="M544 243q-35 0 -62.5 -48t-43.5 -132q-11 -54 -18.5 -100t-13.5 -82l-10 -54q-125 64 -125 221q0 19 2.5 46.5t7.5 63.5q12 71 9 113l-1 44q-75 -35 -148.5 -53.5t-140.5 -18.5l47 189q212 9 381 118q-74 -248 -74 -291q0 -49 12 -90.5t31 -69.5q29 36 72 165
q37 109 120 170z" />
    <glyph glyph-name="afii57448" unicode="&#x648;" horiz-adv-x="517" arabic-form="isolated" 
d="M458 396q0 -76 -25 -159.5t-71 -164.5q-54 -92 -117 -143t-134 -51q-65 0 -253 78q76 3 154 22.5t160 52.5q214 84 214 199q0 18 -22 18q-13 0 -37 -12q-25 -11 -35 -11q-26 0 -69 17q-46 20 -46 44q0 51 49 177q54 134 95 134q64 0 102 -71q17 -28 26 -62t9 -68z" />
    <glyph glyph-name="afii62829" unicode="&#x648;" horiz-adv-x="437" arabic-form="final" 
d="M111 -96q-38 0 -75.5 14t-63.5 27q-4 1 -9 3.5l-9 4.5q-10 4 -26 12q-13 5 -31 13t-39 16l22 4l22 4q62 11 124 22.5t128 21.5q81 24 142 70t92 109q-10 11 -38.5 18t-70.5 7q-54 0 -87 41q9 48 21.5 95t29.5 92q25 66 51.5 102t54.5 36q60 0 92 -63q4 -12 8.5 -26
t10.5 -27q8 -13 11.5 -33.5t5.5 -46.5q16 2 31.5 6t31.5 7l-94 -180q-25 -19 -67 -125q-41 -106 -81 -147q-33 -36 -80.5 -56.5t-106.5 -20.5z" />
    <glyph glyph-name="afii57449" unicode="&#x649;" horiz-adv-x="1028" arabic-form="isolated" 
d="M1023 790q-35 -86 -71.5 -138t-70.5 -68q-53 -24 -96 -56t-72 -68q11 -10 49.5 -36.5t98.5 -65.5q49 -32 75.5 -65t26.5 -64q0 -91 -47.5 -177.5t-140.5 -167.5q-91 -76 -184 -115.5t-186 -39.5q-119 0 -220 77q-108 82 -108 202q0 56 13 120.5t37 133.5q48 135 122 231
q-104 -262 -104 -329q0 -108 122 -180q108 -66 220 -66q70 0 216 58q164 62 164 114q0 3 -125 96t-125 136q0 72 35 146t98 145q60 66 129 111t144 66z" />
    <glyph glyph-name="afii62830" unicode="&#x649;" horiz-adv-x="910" arabic-form="final" 
d="M725 145q7 -9 44.5 -34.5t100.5 -68.5q52 -32 78.5 -64t26.5 -63q0 -91 -48 -178t-140 -169q-91 -77 -184 -117t-186 -40q-123 0 -221 79q-107 84 -107 200q0 58 12.5 123.5t37.5 133.5q48 134 120 230q-104 -259 -104 -328q0 -105 124 -180q105 -65 219 -65q69 0 215 56
q164 62 164 116q0 2 -124 98q-124 92 -124 134q0 145 95 266q91 114 237 160l-48 -191q-6 0 -14 1.5t-17 3.5q-8 1 -16.5 3t-14.5 2q-44 0 -126 -108z" />
    <glyph glyph-name="afii57450" unicode="&#x64a;" horiz-adv-x="1013" arabic-form="isolated" 
d="M301 -589q51 91 75 164l303 43q-8 -33 -25.5 -80t-43.5 -109l-9 39zM1023 790q-35 -86 -71.5 -138t-70.5 -68q-53 -24 -96 -56t-72 -68q11 -10 49.5 -36.5t98.5 -65.5q49 -32 75.5 -65t26.5 -64q0 -91 -47.5 -177.5t-140.5 -167.5q-91 -76 -184 -115.5t-186 -39.5
q-119 0 -220 77q-108 82 -108 202q0 56 13 120.5t37 133.5q48 135 122 231q-104 -262 -104 -329q0 -108 122 -180q108 -66 220 -66q70 0 216 58q164 62 164 114q0 3 -125 96t-125 136q0 72 35 146t98 145q60 66 129 111t144 66z" />
    <glyph glyph-name="afii62833" unicode="&#x64a;" horiz-adv-x="910" arabic-form="final" 
d="M351 -863q24 43 42 84t31 81l302 43q-15 -66 -68 -191l-10 41zM725 145q7 -9 44.5 -34.5t100.5 -68.5q52 -32 78.5 -64t26.5 -63q0 -91 -48 -178t-140 -169q-91 -77 -184 -117t-186 -40q-123 0 -221 79q-107 84 -107 200q0 58 12.5 123.5t37.5 133.5q48 134 120 230
q-104 -259 -104 -328q0 -105 124 -180q105 -65 219 -65q69 0 215 56q164 62 164 116q0 2 -124 98q-124 92 -124 134q0 145 95 266q91 114 237 160l-52 -191q-5 0 -13 -1.5t-16 -3.5q-9 -2 -16.5 -4t-12.5 -2q-59 0 -126 -87z" />
    <glyph glyph-name="afii62831" unicode="&#x6cc;" horiz-adv-x="589" arabic-form="initial" 
d="M430 555q-48 -192 -76 -294v88q-88 -24 -177 -52.5t-177 -53.5l47 191zM22 -100q24 44 42.5 85.5t30.5 77.5q72 10 152.5 20.5t152.5 20.5q-9 -31 -27.5 -79t-43.5 -108l-9 40z" />
    <glyph glyph-name="afii62832" unicode="&#x6cc;" horiz-adv-x="359" arabic-form="medial" 
d="M137 -100q24 45 42 85t30 78l305 41q-10 -32 -27.5 -78t-42.5 -109l-11 40zM47 434l383 121l-48 -192l-382 -120z" />
    <glyph glyph-name="uniFBEA" unicode="&#xfbea;" horiz-adv-x="898" arabic-form="isolated" 
d="M845 555q-48 -192 -76 -294v88q-86 -24 -176 -52.5t-178 -53.5l1 4l-90 -15q-50 18 -64 70q-4 11 -4 32q0 29 8 72v996q0 41 100 178l1 -617q-1 -77 -1 -144v-125q0 -110 2 -179.5t5 -98.5l107 24v-1zM838 1021v-9q0 -43 70 -43q18 0 67 11.5t111 30.5q-11 -25 -21 -53
t-21 -55q-36 -20 -88 -42.5t-116 -44.5q-84 -30 -136 -49.5t-74 -28.5q14 24 36 58.5t48 77.5q22 3 55 17q-2 -1 -15 -1q-28 0 -28 42q0 55 92 124q33 26 69 47.5t72 37.5q-19 -15 -37 -29t-28 -24q-18 -17 -32.5 -33.5t-21.5 -31.5z" />
    <glyph glyph-name="uniFBEB" unicode="&#xfbeb;" horiz-adv-x="790" arabic-form="final" 
d="M416 247l-90 -15q-50 18 -64 70q-4 11 -4 32q0 29 8 72v996q0 41 100 178l1 -617q-1 -77 -1 -144v-125q0 -110 2 -179.5t5 -98.5l89 18q106 34 200.5 63t182.5 58q-12 -47 -24.5 -96t-23.5 -96q-85 -25 -180.5 -55.5t-200.5 -60.5zM838 1021v-9q0 -43 70 -43
q18 0 67 11.5t111 30.5q-11 -25 -21 -53t-21 -55q-36 -20 -88 -42.5t-116 -44.5q-84 -30 -136 -49.5t-74 -28.5q14 24 36 58.5t48 77.5q22 3 55 17q-2 -1 -15 -1q-28 0 -28 42q0 55 92 124q33 26 69 47.5t72 37.5q-19 -15 -37 -29t-28 -24q-18 -17 -32.5 -33.5t-21.5 -31.5z
" />
    <glyph glyph-name="uniFBEC" unicode="&#xfbec;" horiz-adv-x="946" arabic-form="isolated" 
d="M930 1012q0 -43 71 -43q36 0 176 42l-40 -108q-38 -21 -89.5 -43t-116.5 -44q-82 -30 -135 -49.5t-72 -28.5q13 25 34 58.5t49 77.5q8 3 23.5 7t28.5 9h-14q-26 0 -26 42q0 25 25.5 58.5t66.5 65.5q32 25 69 47t71 38q-45 -34 -66 -53q-37 -37 -54 -65zM227 38
q36 152 85 238t107 106q11 3 29.5 10.5t44.5 19.5q22 11 40.5 17.5t33.5 10.5q2 0 5 0.5t4 0.5v-1l361 115q-24 -96 -42.5 -169t-32.5 -125v88q-81 -24 -164 -49.5t-165 -49.5q0 -2 -0.5 -3t-0.5 -4q-36 -6 -61.5 -11.5t-39.5 -8.5q-101 -49 -115 -66q-24 -23 -36 -34
q-29 -30 -53 -85z" />
    <glyph glyph-name="uniFBED" unicode="&#xfbed;" horiz-adv-x="880" arabic-form="final" 
d="M930 1012q0 -43 71 -43q36 0 176 42l-40 -108q-38 -21 -89.5 -43t-116.5 -44q-82 -30 -135 -49.5t-72 -28.5q13 25 34 58.5t49 77.5q8 3 23.5 7t28.5 9h-14q-26 0 -26 42q0 25 25.5 58.5t66.5 65.5q32 25 69 47t71 38q-45 -34 -66 -53q-37 -37 -54 -65zM576 440l361 115
l-49 -192l-354 -111q-37 -12 -63 -19t-40 -10q-101 -49 -115 -66q-24 -23 -36 -34q-29 -30 -53 -85q36 152 85 238t107 106q11 3 29.5 10.5t44.5 19.5q82 29 83 29v-1z" />
    <glyph glyph-name="uniFBEE" unicode="&#xfbee;" horiz-adv-x="884" arabic-form="isolated" 
d="M852 1012q0 -43 69 -43q37 0 178 42l-42 -108q-36 -21 -87.5 -43t-115.5 -44q-168 -59 -210 -78q14 25 35 58.5t49 77.5q10 3 24 7t30 9h-16q-27 0 -27 42q0 26 24 58t69 66q33 26 68.5 47.5t71.5 37.5q-23 -17 -39.5 -30t-25.5 -23q-37 -37 -53 -65zM111 -96
q-53 0 -90 18q-17 7 -31 14q-8 5 -18 9.5t-18 7.5q-10 4 -26 12q-13 5 -31 13t-39 16q11 2 22.5 4t21.5 4q62 11 124 22.5t128 21.5q171 48 234 179q-19 25 -109 25q-26 0 -48.5 11t-38.5 30q4 21 10 45t12 49t13.5 49t15.5 44q25 66 51.5 102t54.5 36q30 0 52.5 -16
t39.5 -47q4 -12 9.5 -26t9.5 -27q5 -12 10 -28t6 -38l383 121q-23 -95 -43 -168.5t-33 -125.5v88q-84 -24 -172 -51t-173 -52q-11 -14 -26.5 -44t-32.5 -74q-43 -110 -81 -147q-68 -77 -187 -77z" />
    <glyph glyph-name="uniFBEF" unicode="&#xfbef;" horiz-adv-x="802" arabic-form="final" 
d="M852 1012q0 -43 69 -43q37 0 178 42l-42 -108q-36 -21 -87.5 -43t-115.5 -44q-168 -59 -210 -78q14 25 35 58.5t49 77.5q10 3 24 7t30 9h-16q-27 0 -27 42q0 26 24 58t69 66q33 26 68.5 47.5t71.5 37.5q-23 -17 -39.5 -30t-25.5 -23q-37 -37 -53 -65zM439 247
q-27 -29 -60 -119q-43 -110 -81 -147q-68 -77 -187 -77q-53 0 -90 18q-17 7 -31 14q-8 5 -18 9.5t-18 7.5q-10 4 -26 12q-13 5 -31 13t-39 16q11 2 22.5 4t21.5 4q62 11 124 22.5t128 21.5q171 48 234 179q-19 25 -109 25q-26 0 -48.5 11t-38.5 30q4 21 10 45t12 49t13.5 49
t15.5 44q25 66 51.5 102t54.5 36q30 0 52.5 -16t39.5 -47q4 -12 9.5 -26t9.5 -27q5 -12 10 -28t6 -38h-1l384 121l-48 -192z" />
    <glyph glyph-name="uniFBF0" unicode="&#xfbf0;" horiz-adv-x="884" arabic-form="isolated" 
d="M859 555q-24 -96 -43.5 -169t-32.5 -125v88q-84 -24 -172 -51t-173 -52q-24 -27 -59 -118q-41 -106 -81 -147q-33 -36 -80.5 -56.5t-106.5 -20.5q-38 0 -75.5 14t-63.5 27q-4 1 -9 3.5l-9 4.5q-10 4 -26 12q-13 5 -31 13t-39 16l22 4l22 4q62 11 124 22.5t128 21.5
q81 24 142 70t92 109q-10 11 -38.5 18t-70.5 7q-54 0 -87 41q9 48 21.5 95t29.5 92q25 66 51.5 102t54.5 36q60 0 92 -63q4 -12 8.5 -26t10.5 -27q5 -12 10 -28t6 -38zM852 1021v-9q0 -43 69 -43q19 0 68 12t110 30q-10 -25 -20.5 -53t-21.5 -55q-36 -20 -88.5 -42.5
t-114.5 -44.5q-85 -30 -136.5 -49.5t-73.5 -28.5q13 24 34.5 58.5t49.5 77.5q20 3 55 17q-3 -1 -17 -1q-27 0 -27 42q0 55 93 124q33 26 68.5 47.5t71.5 37.5q-18 -15 -37 -29t-28 -24q-16 -17 -31 -33.5t-22 -31.5zM340 1170q-33 -62 -57 -107.5t-34 -75.5
q143 -110 143 -132q0 -15 -8 -31l2 4q107 106 107 176q0 88 -153 166zM208 711q77 17 176 113q-18 -30 -64 -60q-34 -24 -62 -37t-50 -16z" />
    <glyph glyph-name="uniFBF1" unicode="&#xfbf1;" horiz-adv-x="802" arabic-form="final" 
d="M852 1021v-9q0 -43 69 -43q19 0 68 12t110 30q-10 -25 -20.5 -53t-21.5 -55q-36 -20 -88.5 -42.5t-114.5 -44.5q-85 -30 -136.5 -49.5t-73.5 -28.5q13 24 34.5 58.5t49.5 77.5q20 3 55 17q-3 -1 -17 -1q-27 0 -27 42q0 55 93 124q33 26 68.5 47.5t71.5 37.5
q-18 -15 -37 -29t-28 -24q-16 -17 -31 -33.5t-22 -31.5zM340 1170q-33 -62 -57 -107.5t-34 -75.5q143 -110 143 -132q0 -15 -8 -31l2 4q107 106 107 176q0 88 -153 166zM208 711q77 17 176 113q-18 -30 -64 -60q-34 -24 -62 -37t-50 -16zM439 247q-27 -29 -60 -119
q-43 -110 -81 -147q-68 -77 -187 -77q-53 0 -90 18q-17 7 -31 14q-8 5 -18 9.5t-18 7.5q-10 4 -26 12q-13 5 -31 13t-39 16q11 2 22.5 4t21.5 4q62 11 124 22.5t128 21.5q171 48 234 179q-19 25 -109 25q-26 0 -48.5 11t-38.5 30q4 21 10 45t12 49t13.5 49t15.5 44
q25 66 51.5 102t54.5 36q30 0 52.5 -16t39.5 -47q4 -12 9.5 -26t9.5 -27q5 -12 10 -28t6 -38h-1l384 121l-48 -192z" />
    <glyph glyph-name="uniFBF2" unicode="&#xfbf2;" horiz-adv-x="884" arabic-form="isolated" 
d="M859 555q-24 -96 -43.5 -169t-32.5 -125v88q-84 -24 -172 -51t-173 -52q-24 -27 -59 -118q-41 -106 -81 -147q-33 -36 -80.5 -56.5t-106.5 -20.5q-38 0 -75.5 14t-63.5 27q-4 1 -9 3.5l-9 4.5q-10 4 -26 12q-13 5 -31 13t-39 16l22 4l22 4q62 11 124 22.5t128 21.5
q81 24 142 70t92 109q-10 11 -38.5 18t-70.5 7q-54 0 -87 41q9 48 21.5 95t29.5 92q25 66 51.5 102t54.5 36q60 0 92 -63q4 -12 8.5 -26t10.5 -27q5 -12 10 -28t6 -38zM852 1021v-9q0 -43 69 -43q19 0 68 12t110 30q-10 -25 -20.5 -53t-21.5 -55q-36 -20 -88.5 -42.5
t-114.5 -44.5q-85 -30 -136.5 -49.5t-73.5 -28.5q13 24 34.5 58.5t49.5 77.5q20 3 55 17q-3 -1 -17 -1q-27 0 -27 42q0 55 93 124q33 26 68.5 47.5t71.5 37.5q-18 -15 -37 -29t-28 -24q-16 -17 -31 -33.5t-22 -31.5zM369 872q-5 8 -15 29q-11 18 -28 48t-38 68
q-34 55 -52 86.5t-18 37.5q0 63 65 177q36 -24 68.5 -69t59.5 -108q5 8 10.5 18.5t11.5 20.5q13 26 33 58t42 68z" />
    <glyph glyph-name="uniFBF3" unicode="&#xfbf3;" horiz-adv-x="802" arabic-form="final" 
d="M852 1021v-9q0 -43 69 -43q19 0 68 12t110 30q-10 -25 -20.5 -53t-21.5 -55q-36 -20 -88.5 -42.5t-114.5 -44.5q-85 -30 -136.5 -49.5t-73.5 -28.5q13 24 34.5 58.5t49.5 77.5q20 3 55 17q-3 -1 -17 -1q-27 0 -27 42q0 55 93 124q33 26 68.5 47.5t71.5 37.5
q-18 -15 -37 -29t-28 -24q-16 -17 -31 -33.5t-22 -31.5zM369 872q-5 8 -15 29q-11 18 -28 48t-38 68q-34 55 -52 86.5t-18 37.5q0 63 65 177q36 -24 68.5 -69t59.5 -108q5 8 10.5 18.5t11.5 20.5q13 26 33 58t42 68zM439 247q-27 -29 -60 -119q-43 -110 -81 -147
q-68 -77 -187 -77q-53 0 -90 18q-17 7 -31 14q-8 5 -18 9.5t-18 7.5q-10 4 -26 12q-13 5 -31 13t-39 16q11 2 22.5 4t21.5 4q62 11 124 22.5t128 21.5q171 48 234 179q-19 25 -109 25q-26 0 -48.5 11t-38.5 30q4 21 10 45t12 49t13.5 49t15.5 44q25 66 51.5 102t54.5 36
q30 0 52.5 -16t39.5 -47q4 -12 9.5 -26t9.5 -27q5 -12 10 -28t6 -38h-1l384 121l-48 -192z" />
    <glyph glyph-name="uniFBF4" unicode="&#xfbf4;" horiz-adv-x="884" arabic-form="isolated" 
d="M859 555q-24 -96 -43.5 -169t-32.5 -125v88q-84 -24 -172 -51t-173 -52q-24 -27 -59 -118q-41 -106 -81 -147q-33 -36 -80.5 -56.5t-106.5 -20.5q-38 0 -75.5 14t-63.5 27q-4 1 -9 3.5l-9 4.5q-10 4 -26 12q-13 5 -31 13t-39 16l22 4l22 4q62 11 124 22.5t128 21.5
q81 24 142 70t92 109q-10 11 -38.5 18t-70.5 7q-54 0 -87 41q9 48 21.5 95t29.5 92q25 66 51.5 102t54.5 36q60 0 92 -63q4 -12 8.5 -26t10.5 -27q5 -12 10 -28t6 -38zM852 1021v-9q0 -43 69 -43q19 0 68 12t110 30q-10 -25 -20.5 -53t-21.5 -55q-36 -20 -88.5 -42.5
t-114.5 -44.5q-85 -30 -136.5 -49.5t-73.5 -28.5q13 24 34.5 58.5t49.5 77.5q20 3 55 17q-3 -1 -17 -1q-27 0 -27 42q0 55 93 124q33 26 68.5 47.5t71.5 37.5q-18 -15 -37 -29t-28 -24q-16 -17 -31 -33.5t-22 -31.5zM430 1140q0 -215 -94 -357q0 23 -4 58.5t-11 80.5
q-11 93 -11 144q0 33 39 104q20 32 37 53.5t31 31.5q13 -43 13 -115z" />
    <glyph glyph-name="uniFBF5" unicode="&#xfbf5;" horiz-adv-x="802" arabic-form="final" 
d="M852 1021v-9q0 -43 69 -43q19 0 68 12t110 30q-10 -25 -20.5 -53t-21.5 -55q-36 -20 -88.5 -42.5t-114.5 -44.5q-85 -30 -136.5 -49.5t-73.5 -28.5q13 24 34.5 58.5t49.5 77.5q20 3 55 17q-3 -1 -17 -1q-27 0 -27 42q0 55 93 124q33 26 68.5 47.5t71.5 37.5
q-18 -15 -37 -29t-28 -24q-16 -17 -31 -33.5t-22 -31.5zM430 1140q0 -215 -94 -357q0 23 -4 58.5t-11 80.5q-11 93 -11 144q0 33 39 104q20 32 37 53.5t31 31.5q13 -43 13 -115zM439 247q-27 -29 -60 -119q-43 -110 -81 -147q-68 -77 -187 -77q-53 0 -90 18q-17 7 -31 14
q-8 5 -18 9.5t-18 7.5q-10 4 -26 12q-13 5 -31 13t-39 16q11 2 22.5 4t21.5 4q62 11 124 22.5t128 21.5q171 48 234 179q-19 25 -109 25q-26 0 -48.5 11t-38.5 30q4 21 10 45t12 49t13.5 49t15.5 44q25 66 51.5 102t54.5 36q30 0 52.5 -16t39.5 -47q4 -12 9.5 -26t9.5 -27
q5 -12 10 -28t6 -38h-1l384 121l-48 -192z" />
    <glyph glyph-name="uniFBF6" unicode="&#xfbf6;" horiz-adv-x="1332" arabic-form="isolated" 
d="M904 243h-1h1zM532 -712q0 -169 -81 -286q0 20 -2 48t-7 65q-10 76 -10 114q0 15 8 36t22 47q15 24 29.5 43.5t27.5 27.5q13 -35 13 -95zM1325 1012q0 -43 71 -43q35 0 176 42l-42 -108q-36 -21 -87.5 -43t-116.5 -44q-84 -30 -136 -49.5t-71 -28.5q13 25 34 58.5
t48 77.5q9 3 24 7t29 9h-15q-26 0 -26 42q0 25 26 58.5t67 65.5q32 25 68.5 47t70.5 38q-24 -17 -39.5 -30t-25.5 -23q-37 -37 -54 -65zM903 243q-5 1 -10.5 2.5t-10.5 2.5q-8 1 -16.5 3t-14.5 2q-44 0 -126 -108q7 -9 44.5 -34.5t100.5 -68.5q52 -32 78.5 -64t26.5 -63
q0 -91 -48 -178t-140 -169q-91 -77 -184 -117t-186 -40q-123 0 -221 79q-107 84 -107 200q0 58 12.5 123.5t37.5 133.5q48 134 120 230q-104 -259 -104 -328q0 -105 124 -180q105 -65 219 -65q69 0 215 56q164 62 164 116q0 2 -124 98q-124 92 -124 134q0 145 95 266
q86 108 225 160l383 121q-24 -96 -42.5 -169t-32.5 -125v88q-86 -24 -172 -50.5t-182 -55.5z" />
    <glyph glyph-name="uniFBF7" unicode="&#xfbf7;" horiz-adv-x="1255" arabic-form="final" 
d="M519 -695q0 -170 -103 -288q0 20 -3 48t-10 67q-12 75 -12 114q0 14 10.5 35t29.5 47q19 24 36.5 44t34.5 28q17 -34 17 -95zM1325 1012q0 -43 71 -43q35 0 176 42l-42 -108q-36 -21 -87.5 -43t-116.5 -44q-84 -30 -136 -49.5t-71 -28.5q13 25 34 58.5t48 77.5q9 3 24 7
t29 9h-15q-26 0 -26 42q0 25 26 58.5t67 65.5q32 25 68.5 47t70.5 38q-24 -17 -39.5 -30t-25.5 -23q-37 -37 -54 -65zM725 145q7 -9 44.5 -34.5t100.5 -68.5q52 -32 78.5 -64t26.5 -63q0 -91 -48 -178t-140 -169q-91 -77 -184 -117t-186 -40q-123 0 -221 79
q-107 84 -107 200q0 58 12.5 123.5t37.5 133.5q48 134 120 230q-104 -259 -104 -328q0 -105 124 -180q105 -65 219 -65q69 0 215 56q164 62 164 116q0 2 -124 98q-124 92 -124 134q0 145 95 266q87 111 224 155l1 5l383 121l-49 -192l-368 -115l-2 -5h-10v0q-5 1 -10.5 2.5
t-10.5 2.5q-8 1 -16.5 3t-14.5 2q-44 0 -126 -108z" />
    <glyph glyph-name="uniFBF8" unicode="&#xfbf8;" horiz-adv-x="789" arabic-form="initial" 
d="M420 38q0 -212 -97 -356q0 24 -3 59t-10 83q-11 93 -11 141q0 18 10 43t29 58q16 28 34 51.5t34 35.5q14 -45 14 -115zM756 1012q0 -43 72 -43q35 0 176 42l-42 -108q-37 -21 -88 -43t-116 -44q-84 -30 -136.5 -49.5t-71.5 -28.5q14 25 35 58.5t49 77.5q8 3 23 7t29 9
h-15q-25 0 -25 42q0 25 25.5 58.5t65.5 65.5q33 25 69 47t71 38q-24 -17 -39.5 -30t-25.5 -23q-37 -37 -54 -65zM398 434l382 121q-23 -95 -42 -168.5t-32 -125.5v88q-88 -24 -177.5 -52.5t-176.5 -53.5q7 29 13.5 59t14.5 61h2l-382 -120l47 191l383 121z" />
    <glyph glyph-name="uniFBF9" unicode="&#xfbf9;" horiz-adv-x="1332" arabic-form="isolated" 
d="M1325 1012q0 -43 71 -43q35 0 176 42l-42 -108q-36 -21 -87.5 -43t-116.5 -44q-84 -30 -136 -49.5t-71 -28.5q13 25 34 58.5t48 77.5q9 3 24 7t29 9h-15q-26 0 -26 42q0 25 26 58.5t67 65.5q32 25 68.5 47t70.5 38q-24 -17 -39.5 -30t-25.5 -23q-37 -37 -54 -65zM903 243
q-5 1 -10.5 2.5t-10.5 2.5q-8 1 -16.5 3t-14.5 2q-44 0 -126 -108q7 -9 44.5 -34.5t100.5 -68.5q52 -32 78.5 -64t26.5 -63q0 -91 -48 -178t-140 -169q-91 -77 -184 -117t-186 -40q-123 0 -221 79q-107 84 -107 200q0 58 12.5 123.5t37.5 133.5q48 134 120 230
q-104 -259 -104 -328q0 -105 124 -180q105 -65 219 -65q69 0 215 56q164 62 164 116q0 2 -124 98q-124 92 -124 134q0 145 95 266q86 108 225 160l383 121q-24 -96 -42.5 -169t-32.5 -125v88q-86 -24 -172 -50.5t-182 -55.5z" />
    <glyph glyph-name="uniFBFA" unicode="&#xfbfa;" horiz-adv-x="1255" arabic-form="final" 
d="M1325 1012q0 -43 71 -43q35 0 176 42l-42 -108q-36 -21 -87.5 -43t-116.5 -44q-84 -30 -136 -49.5t-71 -28.5q13 25 34 58.5t48 77.5q9 3 24 7t29 9h-15q-26 0 -26 42q0 25 26 58.5t67 65.5q32 25 68.5 47t70.5 38q-24 -17 -39.5 -30t-25.5 -23q-37 -37 -54 -65zM725 145
q7 -9 44.5 -34.5t100.5 -68.5q52 -32 78.5 -64t26.5 -63q0 -91 -48 -178t-140 -169q-91 -77 -184 -117t-186 -40q-123 0 -221 79q-107 84 -107 200q0 58 12.5 123.5t37.5 133.5q48 134 120 230q-104 -259 -104 -328q0 -105 124 -180q105 -65 219 -65q69 0 215 56
q164 62 164 116q0 2 -124 98q-124 92 -124 134q0 145 95 266q87 111 224 155l1 5l383 121l-49 -192l-368 -115l-2 -5h-10v0q-5 1 -10.5 2.5t-10.5 2.5q-8 1 -16.5 3t-14.5 2q-44 0 -126 -108z" />
    <glyph glyph-name="uniFBFB" unicode="&#xfbfb;" horiz-adv-x="789" arabic-form="initial" 
d="M756 1012q0 -43 72 -43q35 0 176 42l-42 -108q-37 -21 -88 -43t-116 -44q-84 -30 -136.5 -49.5t-71.5 -28.5q14 25 35 58.5t49 77.5q8 3 23 7t29 9h-15q-25 0 -25 42q0 25 25.5 58.5t65.5 65.5q33 25 69 47t71 38q-24 -17 -39.5 -30t-25.5 -23q-37 -37 -54 -65zM398 434
l382 121q-23 -95 -42 -168.5t-32 -125.5v88q-88 -24 -177.5 -52.5t-176.5 -53.5q7 29 13.5 59t14.5 61h2l-382 -120l47 191l383 121z" />
    <glyph glyph-name="uni0677" unicode="&#x677;" horiz-adv-x="962" arabic-form="isolated" 
d="M369 1144q24 -63 6 -132t-62.5 -116t-93 -60t-39.5 8t69 58q77 56 63 114q-33 28 -130 31q-10 115 31 181q9 2 19 2q101 0 137 -86zM105 -94h-15q-74 0 -170 65q122 32 242 108q119 78 165 169l-15 50l-106 3q-54 14 -64 52.5t0.5 95t25 92t42 80.5t80.5 43q57 -1 88 -61
q20 -36 33 -115q7 -53 7 -115q0 -34 -1 -71q-5 -116 -101 -248q-77 -97 -211 -148zM542 1261q13 57 45.5 107.5t75.5 77t53 31.5t30 14q12 -67 -33 -167q-89 -16 -123 -96q1 -26 34.5 -30t64.5 -2t65 14q56 20 142 52q-17 -53 -62 -166q-61 -31 -128.5 -53t-138.5 17
q-35 35 -40 66.5t-2.5 62t17.5 72.5z" />
    <glyph glyph-name="afii57543-3" unicode="&#x6ad;" horiz-adv-x="1222" arabic-form="isolated" 
d="M783 1384q0 -37 -89 -169q-102 83 -147 83q-29 0 -56.5 -21t-53.5 -58q-33 -58 -54.5 -91t-24.5 -35v31q1 5 15 35.5t38 80.5q58 120 112.5 185t103.5 65q14 0 39.5 -12t50.5 -29q31 -19 48.5 -35t17.5 -30zM1162 728q0 -53 -13 -106.5t-38.5 -103.5t-62.5 -97t-86 -85
q-91 -72 -199 -112t-225 -40q-427 0 -427 232q0 224 150 414q154 197 370 223q0 -35 6 -102q3 -33 4.5 -58.5t1.5 -40.5q0 -222 -251 -318l-61 13l21 89l168 85v119q-5 3 -9 7.5t-9 8.5q-57 -4 -112 -30.5t-103 -72.5q-99 -99 -99 -213q0 -156 325 -156q170 0 306 42.5
t235 123.5q0 12 1.5 27t1.5 26q1 25 2 44.5t1 32.5q0 54 -6 134.5t-19 187.5q-12 106 -18 186.5t-6 134.5q0 30 121 163z" />
    <glyph glyph-name="afii57454-3" unicode="&#x6ad;" horiz-adv-x="1131" arabic-form="final" 
d="M798 1460q0 -43 -87 -176q-76 103 -139 103q-29 0 -59 -22.5t-58 -62.5q-5 -11 -23.5 -44.5t-47.5 -92.5l44 122t44 125q71 150 187 150q12 0 34.5 -11t48.5 -29q26 -19 41 -35t15 -27zM1154 282q-18 0 -32.5 11t-25.5 35q-5 8 -11 27t-14 49q-39 -43 -104 -80.5
t-155 -67.5q-81 -26 -156.5 -41t-139.5 -15q-374 0 -374 233q0 231 149 427q79 104 178 156.5t208 53.5v-238q0 -19 -56 -110q-28 -47 -47 -74t-29 -36q-32 -29 -86 -45q-3 -2 -27 -7.5t-68 -16.5q1 41 6.5 74t16.5 49q7 9 23 18.5t39 18.5q30 11 56 23.5t45 26.5v126l-16 6
q-318 -107 -318 -287q0 -105 110 -160q87 -44 204 -44q121 0 308 45q234 60 230 139q-12 180 -24 365.5t-24 364.5q2 14 25 59.5t67 118.5q4 -51 10 -111.5t11 -125t10 -131t8 -132.5l17 -502q6 -2 15 -6t16 -7z" />
    <glyph glyph-name="afii57451-3" unicode="&#x6ad;" horiz-adv-x="697" arabic-form="initial" 
d="M708 1700q0 -24 -80 -158q-70 78 -112 78q-70 0 -121 -68q-7 -8 -14.5 -19t-12.5 -20q11 33 23.5 71.5t22.5 72.5q64 146 168 146q32 0 79 -35q22 -16 34.5 -33.5t12.5 -34.5zM571 652q-51 86 -284 278q0 106 17.5 186t49.5 132q24 37 73 73t113 63q115 52 186.5 85.5
t95.5 45.5l-2.5 -5t-2.5 -7q-19 -71 -56 -198q-66 -35 -162 -88t-223 -127q9 -16 48 -48t100 -72q50 -33 77.5 -78t27.5 -98q0 -12 -17 -73q-50 -178 -84 -232q-61 -98 -192 -133q-8 -1 -35 -8q-37 -10 -112 -29t-189 -47l47 188l379 120z" />
    <glyph glyph-name="glyph1051" unicode="&#x6ad;" horiz-adv-x="554" arabic-form="medial" 
d="M544 1456q-93 52 -141 52q-97 0 -129 -258q-17 8 -17 31q0 61 42 198q44 136 77 192q25 46 90 46q32 0 142 -57zM382 572q-14 22 -32.5 56.5t-43.5 81.5q-28 50 -43.5 85t-15.5 47q3 14 10 52.5t19 101.5q1 8 2.5 15t2.5 16q14 79 35 135t49 81q33 20 82 50t113 72
q51 34 105.5 68t112.5 65q-39 -214 -166 -310l-304 -184q21 -47 57 -116t85 -160q10 -26 24 -66.5t34 -94.5q8 -19 17.5 -37t20.5 -31h1h-1l78 -33q-11 -45 -23 -95t-24 -95q-29 1 -53.5 16t-39.5 45q-20 32 -33.5 58.5t-22.5 45.5q-85 -59 -193 -99t-235 -60
q12 45 23.5 94.5t23.5 94.5q7 -1 16 -1h16q76 0 153.5 26.5t149.5 75.5z" />
    <glyph glyph-name="glyph1052" unicode="&#x6c7;" horiz-adv-x="486" arabic-form="isolated" 
d="M186 703h3v0h-3zM186 703l-2 5l5 -5h-3zM348 802q-17 -22 -52 -48q-65 -45 -107 -51q72 18 159 99zM465 994q0 -78 -102 -177q-3 -4 -7.5 -7.5t-7.5 -7.5q19 24 19 44q0 21 -143 129q12 31 35.5 77t56.5 106q149 -76 149 -164zM453 422q0 -74 -25 -157t-70 -163
q-54 -94 -116 -144t-132 -50q-65 0 -252 78q75 3 152 22t160 52q212 84 212 199q0 17 -21 17q-13 0 -37 -12q-26 -10 -35 -10q-25 0 -69 16q-45 20 -45 44q0 50 49 175q53 133 95 133q62 0 101 -69q15 -30 24 -63t9 -68z" />
    <glyph glyph-name="afii57471-3" unicode="&#x6c7;" horiz-adv-x="436" arabic-form="final" 
d="M120 -65q-41 0 -73.5 12t-59.5 25q-6 4 -11.5 6.5t-11.5 4.5q-9 4 -21 8.5t-27 11.5q-9 5 -21 10.5t-26 10.5q74 13 145.5 26.5t148.5 24.5q82 23 140.5 69t92.5 110q-11 10 -38.5 17t-70.5 7q-54 0 -87 41q7 45 21 92.5t30 92.5q25 66 51.5 102t53.5 36q58 0 89 -64
l14 -36q2 -4 3.5 -8.5t4.5 -7.5q7 -13 10.5 -33.5t4.5 -46.5q16 2 31.5 6.5t31.5 6.5l-93 -177q-25 -18 -67 -125q-19 -52 -39.5 -89t-39.5 -58q-36 -35 -82.5 -55t-103.5 -20zM337 1190q-34 -60 -58 -105t-32 -76q142 -108 142 -130q0 -15 -9 -31l3 4q105 105 105 175
q0 86 -151 163zM206 735q77 18 174 113q-18 -30 -63 -60q-34 -24 -61.5 -36.5t-49.5 -16.5z" />
    <glyph glyph-name="afii57458-3" unicode="&#x6c6;" horiz-adv-x="499" arabic-form="isolated" 
d="M338 914q-5 10 -24.5 46t-55.5 97q-33 54 -51 86.5t-18 36.5q0 64 66 177q31 -24 63.5 -68.5t63.5 -108.5q14 29 38 70.5t56 96.5zM453 422q0 -74 -25 -157t-70 -163q-54 -94 -116 -144t-132 -50q-65 0 -252 78q75 3 152 22t160 52q212 84 212 199q0 17 -21 17
q-13 0 -37 -12q-26 -10 -35 -10q-25 0 -69 16q-45 20 -45 44q0 50 49 175q53 133 95 133q62 0 101 -69q15 -30 24 -63t9 -68z" />
    <glyph glyph-name="afii57457-3" unicode="&#x6c6;" horiz-adv-x="454" arabic-form="final" 
d="M139 -65q-37 0 -75 14t-62 26q-4 1 -9 3.5t-8 4.5q-4 3 -9 4t-8 3q-15 6 -35 14.5t-46 19.5q75 13 148 26.5t148 24.5q81 23 140.5 69t92.5 110q-11 11 -38.5 17.5t-71.5 6.5q-53 0 -88 41q22 95 52 185q50 138 105 138q60 0 92 -64q4 -13 9.5 -25.5t10.5 -26.5
q6 -13 9.5 -33.5t6.5 -46.5q16 2 31 6.5t31 6.5l-92 -177q-24 -18 -66 -125q-21 -52 -41.5 -89t-39.5 -58q-35 -35 -82 -55t-105 -20zM366 896q-4 7 -15 28q-10 18 -27 48t-39 68q-33 54 -50.5 85t-17.5 37q0 64 65 177q35 -24 66.5 -68.5t59.5 -108.5q5 9 11 19t12 21
q13 24 32 56.5t42 68.5z" />
    <glyph glyph-name="afii57494-3" unicode="&#x6c8;" horiz-adv-x="508" arabic-form="isolated" 
d="M392 1158q0 -209 -96 -353q0 23 -3 57.5t-10 81.5q-6 47 -9 81.5t-3 58.5q0 38 37 102q36 64 68 88q16 -43 16 -116zM453 422q0 -74 -25 -157t-70 -163q-54 -94 -116 -144t-132 -50q-65 0 -252 78q75 3 152 22t160 52q212 84 212 199q0 17 -21 17q-13 0 -37 -12
q-26 -10 -35 -10q-25 0 -69 16q-45 20 -45 44q0 50 49 175q53 133 95 133q62 0 101 -69q15 -30 24 -63t9 -68z" />
    <glyph glyph-name="afii57459-3" unicode="&#x6c8;" horiz-adv-x="450" arabic-form="final" 
d="M127 -65q-42 0 -77 14t-62 27q-5 1 -8.5 3t-8.5 4q-6 3 -14.5 6.5t-17.5 8.5q-15 5 -28.5 11.5t-33.5 14.5l22 4t20 4q64 11 125.5 21.5t126.5 21.5q80 25 141 70t92 109q-11 10 -38.5 17t-70.5 7q-54 0 -89 41q11 45 24.5 92.5t29.5 92.5q24 68 50.5 103t53.5 35
q59 0 89 -64l16 -36q1 -4 2.5 -8.5t4.5 -7.5q11 -27 15 -80q16 2 31 6.5t31 6.5l-93 -177q-24 -18 -66 -125q-19 -52 -40 -89t-39 -58q-36 -35 -83 -55t-105 -20zM425 1161q0 -213 -94 -354q0 23 -4 58t-10 80q-12 91 -12 143q0 32 39 102q20 32 37 54t31 31q13 -43 13 -114
z" />
    <glyph glyph-name="afii57455-3" unicode="&#x6c5;" horiz-adv-x="503" arabic-form="isolated" 
d="M132 -64q-34 -6 -67 -6q-43 0 -80 28q-43 37 -60 92q-5 26 -5 50q2 35 21 68q27 48 95 67q58 9 108 11q122 -2 191 -20q16 17 18 50l-14 50l-107 2q-54 15 -63.5 52.5t0.5 94t24.5 91.5t42.5 80q26 44 75 44h5q56 -2 88 -62q19 -36 32 -114q7 -51 7 -115q0 -33 -2 -69
q-4 -116 -100 -248q-75 -95 -209 -146zM122 177q-74 -11 -102 -44q-16 -28 -10 -59q11 -29 37 -30q48 -1 135 44q60 35 124 90q-114 11 -184 -1z" />
    <glyph glyph-name="afii57452-3" unicode="&#x6c5;" horiz-adv-x="484" arabic-form="final" 
d="M134 -64q-35 -7 -69 -7q-42 0 -79 29q-44 36 -61 92q-5 28 -5 50q3 35 22 68q26 48 96 67q56 9 106 11q123 -2 192 -21q16 18 17 51l-14 50l-106 2q-54 15 -63.5 52.5t0.5 94t24.5 91.5t42.5 80q26 44 75 44h4q58 -2 88 -62q19 -36 26 -75l6 -25v-4l104 1
q-22 -122 -44 -193l-54 -2q-4 -116 -100 -248q-76 -95 -208 -146zM123 177q-73 -11 -103 -44q-16 -28 -9 -59q11 -29 36 -30q49 -1 135 44q61 35 124 90q-112 11 -183 -1z" />
    <glyph glyph-name="glyph1060" unicode="&#x6c9;" horiz-adv-x="499" arabic-form="isolated" 
d="M328 1357q5 -10 25 -46t56 -97q32 -54 49.5 -86t17.5 -38q0 -63 -65 -176q-32 24 -64.5 68.5t-62.5 107.5q-13 -28 -37 -69.5t-58 -95.5zM453 422q0 -74 -25 -157t-70 -163q-54 -94 -116 -144t-132 -50q-65 0 -252 78q75 3 152 22t160 52q212 84 212 199q0 17 -21 17
q-13 0 -37 -12q-26 -10 -35 -10q-25 0 -69 16q-45 20 -45 44q0 50 49 175q53 133 95 133q62 0 101 -69q15 -30 24 -63t9 -68z" />
    <glyph glyph-name="glyph1061" unicode="&#x6c9;" horiz-adv-x="454" arabic-form="final" 
d="M139 -65q-37 0 -75 14t-62 26q-4 1 -9 3.5t-8 4.5q-4 3 -9 4t-8 3q-15 6 -35 14.5t-46 19.5q75 13 148 26.5t148 24.5q81 23 140.5 69t92.5 110q-11 11 -38.5 17.5t-71.5 6.5q-53 0 -88 41q22 95 52 185q50 138 105 138q60 0 92 -64q4 -13 9.5 -25.5t10.5 -26.5
q6 -13 9.5 -33.5t6.5 -46.5q16 2 31 6.5t31 6.5l-92 -177q-24 -18 -66 -125q-21 -52 -41.5 -89t-39.5 -58q-35 -35 -82 -55t-105 -20zM355 1339q5 -7 16 -28q9 -18 26 -48t38 -68q34 -54 52 -85.5t18 -37.5q0 -63 -65 -176q-36 25 -67.5 69t-59.5 107q-5 -8 -10.5 -18
t-11.5 -21q-13 -24 -32.5 -56.5t-41.5 -68.5z" />
    <glyph glyph-name="glyph1062" unicode="&#x6cb;" horiz-adv-x="504" arabic-form="isolated" 
d="M536 1131q0 -37 -110 -157q-56 137 -126 137q-41 0 -86 -96l-62 -131q14 67 34.5 130.5t45.5 121.5q36 83 77 128.5t83 45.5q41 0 94 -70q50 -67 50 -109zM453 422q0 -74 -25 -157t-70 -163q-54 -94 -116 -144t-132 -50q-65 0 -252 78q75 3 152 22t160 52q212 84 212 199
q0 17 -21 17q-13 0 -37 -12q-26 -10 -35 -10q-25 0 -69 16q-45 20 -45 44q0 50 49 175q53 133 95 133q62 0 101 -69q15 -30 24 -63t9 -68z" />
    <glyph glyph-name="afii62884-3" unicode="&#x6cb;" horiz-adv-x="419" arabic-form="final" 
d="M112 -65q-38 0 -76 14t-63 26q-5 1 -9.5 3.5t-8.5 4.5q-11 4 -25 12q-13 5 -31 12.5t-39 16.5l22 4t20 4q64 11 125.5 21.5t126.5 21.5q80 25 141 70t92 109q-11 10 -38.5 17t-69.5 7q-55 0 -88 41q10 47 22.5 93.5t28.5 91.5q25 66 51.5 102t53.5 36q60 0 91 -64
q4 -12 9 -25t12 -27q6 -13 10 -33.5t5 -46.5q16 2 31.5 6.5t31.5 6.5l-94 -177q-25 -20 -67 -125q-40 -105 -78 -147q-34 -35 -81 -55t-105 -20zM546 1143q0 -27 -92 -145q-108 113 -120 113q-50 0 -148 -198q112 383 237 383q33 0 80 -58q43 -56 43 -95z" />
    <glyph glyph-name="afii62881-3" unicode="&#x6d0;" horiz-adv-x="1075" arabic-form="isolated" 
d="M515 -428q0 -209 -97 -354q0 24 -2.5 59t-9.5 82q-12 93 -12 139q0 18 10 44t29 58q17 29 35 52.5t33 34.5q14 -45 14 -115zM1015 814q-33 -86 -69.5 -137.5t-70.5 -67.5q-52 -23 -95 -54.5t-71 -67.5q10 -11 48.5 -37t97.5 -64q49 -32 75.5 -65t26.5 -65
q0 -90 -47.5 -175.5t-140.5 -165.5q-88 -76 -180.5 -115.5t-186.5 -39.5q-119 0 -217 77q-108 83 -108 200q0 56 12.5 120.5t37.5 132.5q48 133 120 228q-103 -259 -103 -325q0 -107 121 -180q107 -65 220 -65q68 0 214 58q162 62 162 114q0 2 -124 94q-125 93 -125 136
q0 71 35 144.5t98 143.5q60 65 128 110t142 66z" />
    <glyph glyph-name="afii62886-3" unicode="&#x6d0;" horiz-adv-x="900" arabic-form="final" 
d="M519 -659q0 -161 -93 -271q0 17 -3 44.5t-9 62.5q-12 72 -12 108q0 15 9 35t28 44q16 22 33 40.5t33 27.5q14 -33 14 -91zM721 174q6 -9 43 -34.5t100 -67.5q52 -32 77.5 -64t25.5 -63q0 -90 -46.5 -177t-139.5 -168q-88 -75 -180.5 -114.5t-186.5 -39.5q-121 0 -219 78
q-106 82 -106 198q0 57 12.5 122t36.5 133q48 133 120 229q-103 -258 -103 -327q0 -103 122 -179q105 -64 218 -64q68 0 213 57q163 61 163 114q0 2 -123 97q-124 92 -124 133q0 145 95 265q90 114 236 158l-48 -188q-6 0 -14 0.5t-17 3.5q-8 1 -16.5 2.5t-13.5 1.5
q-44 0 -125 -106z" />
    <glyph glyph-name="afii62883-3" unicode="&#x6d0;" horiz-adv-x="596" arabic-form="initial" 
d="M426 580q-48 -190 -74 -291v87q-87 -25 -176.5 -52.5t-175.5 -51.5l47 188zM270 68q0 -104 -25 -193.5t-71 -161.5q-1 24 -4 61.5t-8 80.5q-12 92 -12 140q0 36 38 99q18 30 35.5 52.5t33.5 35.5q7 -22 10 -51t3 -63z" />
    <glyph glyph-name="afii62885-3" unicode="&#x6d0;" horiz-adv-x="369" arabic-form="medial" 
d="M416 68q0 -211 -96 -355q0 24 -3 59t-9 83q-12 92 -12 140q0 18 10.5 43t29.5 56q16 30 33 53t34 35q13 -46 13 -114zM47 460l379 120l-48 -189l-378 -119z" />
    <glyph glyph-name="afii62882-3" unicode="&#x649;" horiz-adv-x="596" arabic-form="initial" 
d="M426 580q-48 -190 -74 -291v87q-87 -25 -176.5 -52.5t-175.5 -51.5l36 188z" />
    <glyph glyph-name="afii57504-3" unicode="&#x649;" horiz-adv-x="368" arabic-form="medial" 
d="M47 460l379 120l-48 -189l-378 -119z" />
    <glyph glyph-name=".notdef" horiz-adv-x="1620" 
d="M284 248v1313h1051v-1313h-1051zM318 280h984v1247h-984v-1247z" />
    <glyph glyph-name=".null" horiz-adv-x="0" 
 />
    <glyph glyph-name="nonmarkingreturn" horiz-adv-x="512" 
 />
    <glyph glyph-name="space" unicode=" " horiz-adv-x="512" 
 />
    <glyph glyph-name="space" unicode="&#xa0;" horiz-adv-x="512" 
 />
    <glyph glyph-name="exclam" unicode="!" horiz-adv-x="522" 
d="M161 524l124 697q6 33 12 51.5t14 24.5q9 8 33 12.5t66 4.5q66 0 83 -6t17 -23q0 -9 -2.5 -22t-7.5 -27l-249 -712h-90zM25 294q0 54 35.5 90t88.5 36q52 0 88 -37t36 -89t-36 -88t-88 -36q-53 0 -88.5 35.5t-35.5 88.5z" />
    <glyph glyph-name="quotedbl" unicode="&#x22;" horiz-adv-x="580" 
d="M435 834h-31l-61 354q-1 8 -2.5 15t-1.5 12q0 41 21.5 64.5t59.5 23.5q37 0 58.5 -22.5t21.5 -61.5q0 -5 -0.5 -11.5l-1.5 -19.5zM175 834h-33l-61 354q0 4 -0.5 10t-0.5 17q0 41 21.5 64.5t56.5 23.5q37 0 58 -22.5t21 -61.5v-18.5t-1 -12.5z" />
    <glyph glyph-name="numbersign" unicode="#" horiz-adv-x="1230" 
d="M551 834l-69 -195h204l67 195h-202zM556 1303h166l-114 -318h195l116 318h163l-114 -318h217l-56 -154h-214l-67 -189h224l-55 -152h-223l-114 -319h-165l113 319h-194l-115 -319h-166l114 319h-222l56 152h221l67 189h-232l56 154h230z" />
    <glyph glyph-name="dollar" unicode="$" horiz-adv-x="777" 
d="M371 896l87 296q-4 0 -8 1t-13 1q-62 0 -101 -42t-39 -108q0 -40 18 -75.5t56 -72.5zM111 -10l54 193q-90 27 -144 80t-54 117q0 46 21 70.5t58 24.5q36 0 56 -19.5t28 -63.5q3 -6 4 -17q13 -71 60 -90l115 395q-97 89 -139 165t-42 161q0 123 89.5 201t233.5 78
q4 0 15.5 -0.5t16.5 -0.5l36 127h94l-40 -139q91 -20 144.5 -69t53.5 -113q0 -43 -19 -65.5t-54 -22.5t-54 19.5t-29 66.5q-10 42 -25 59.5t-46 25.5l-98 -343q123 -107 169.5 -182t46.5 -161q0 -145 -96.5 -235t-255.5 -90q-9 0 -20.5 0.5t-35.5 1.5l-52 -174h-91zM280 260
q13 -2 20.5 -3.5t10.5 -1.5q71 0 118 50t47 124q0 45 -23.5 90t-71.5 93z" />
    <glyph glyph-name="percent" unicode="%" horiz-adv-x="1361" 
d="M1025 710q-39 0 -58 -55t-19 -181q0 -128 19 -183.5t58 -55.5q41 0 60 56.5t19 182.5q0 122 -19 179t-60 57zM1269 464q0 -139 -62.5 -213t-181.5 -74q-117 0 -179 75t-62 219q0 147 61 220t183 73q120 0 180.5 -75t60.5 -225zM268 159l701 1125h116l-702 -1125h-115z
M330 1210q-40 0 -59.5 -57t-19.5 -181q0 -125 19.5 -182t59.5 -57q41 0 60.5 57t19.5 182q0 122 -19.5 180t-60.5 58zM573 964q0 -139 -62.5 -212.5t-180.5 -73.5t-180 75t-62 219q0 146 60.5 219t181.5 73q122 0 182.5 -75t60.5 -225z" />
    <glyph glyph-name="ampersand" unicode="&#x26;" horiz-adv-x="1480" 
d="M296 889q-33 32 -48.5 68.5t-15.5 76.5q0 119 117.5 200t294.5 81q137 0 218 -42t81 -111q0 -38 -25 -61.5t-64 -23.5q-53 0 -96 65q-6 10 -10 14q-27 40 -55.5 55t-72.5 15q-75 0 -128 -50t-53 -118q0 -48 30.5 -82t92.5 -55l-19 -83q-106 -4 -170.5 -74t-64.5 -180
q0 -142 95.5 -226.5t258.5 -84.5q194 0 312.5 84t118.5 223q0 92 -70.5 150.5t-177.5 58.5q-38 0 -61.5 -16t-23.5 -41q0 -24 40 -52q5 -2 6 -4q47 -32 59 -50t12 -44q0 -40 -24 -63t-66 -23q-58 0 -95 52t-37 131q0 109 67 180.5t173 71.5q86 0 225 -66q30 -15 46 -21
q51 -24 84 -34t59 -10q28 0 47.5 19t19.5 49q0 39 -54 56q-9 3 -13 6q-30 10 -44 25t-14 37q0 31 18.5 48.5t52.5 17.5q59 0 98 -56t39 -141q0 -101 -49.5 -156.5t-138.5 -55.5q-19 0 -41 3.5t-47 10.5q2 -17 4 -35.5t2 -39.5q0 -202 -166.5 -324t-445.5 -122
q-249 0 -390.5 110.5t-141.5 300.5q0 128 66.5 217t184.5 119z" />
    <glyph glyph-name="quotesingle" unicode="'" horiz-adv-x="317" 
d="M174 834h-31l-61 354q-3 8 -3.5 15t-0.5 12q0 41 21.5 64.5t58.5 23.5q36 0 57 -22.5t21 -61.5v-18.5t-1 -12.5z" />
    <glyph glyph-name="parenleft" unicode="(" horiz-adv-x="628" 
d="M571 1254q-176 -188 -264.5 -390t-88.5 -420q0 -134 35 -258t108 -244l-83 -48q-110 169 -163.5 318t-53.5 289q0 214 110.5 414.5t338.5 402.5z" />
    <glyph glyph-name="parenright" unicode=")" horiz-adv-x="628" 
d="M-35 -41q176 187 264.5 389t88.5 421q0 133 -35 256.5t-107 244.5l82 48q110 -169 163.5 -318.5t53.5 -289.5q0 -214 -110.5 -414t-338.5 -402z" />
    <glyph glyph-name="asterisk" unicode="*" horiz-adv-x="819" 
d="M467 757l-190 -111q-5 -3 -10.5 -5t-9.5 -2q-16 0 -27 11t-11 26q0 6 1.5 10t2.5 7l83 203l-163 120q-8 6 -12 14t-4 15q0 15 11.5 24t28.5 9h194l70 208q4 14 14 21.5t22 7.5t21.5 -8t14.5 -21l69 -208h197q16 0 26 -9t10 -24q0 -7 -4 -15t-12 -14l-164 -120l85 -203
q3 -3 3.5 -7t0.5 -10q0 -15 -10.5 -26t-25.5 -11q-6 0 -11.5 2t-11.5 5z" />
    <glyph glyph-name="plus" unicode="+" horiz-adv-x="1427" 
d="M637 1117h155v-391h382v-154h-382v-394h-155v394h-383v154h383v391z" />
    <glyph glyph-name="comma" unicode="," horiz-adv-x="407" 
d="M-131 -31q93 29 145.5 75.5t52.5 96.5q0 18 -6.5 33.5t-16.5 23.5q-8 6 -25 16q-68 45 -68 99q0 49 31.5 80t82.5 31q63 0 104.5 -53t41.5 -136q0 -124 -85 -209.5t-239 -115.5z" />
    <glyph glyph-name="hyphen" unicode="-" horiz-adv-x="797" 
d="M197 271l53 192h386l-51 -192h-388z" />
    <glyph glyph-name="hyphen" unicode="&#xad;" horiz-adv-x="797" 
d="M197 271l53 192h386l-51 -192h-388z" />
    <glyph glyph-name="period" unicode="." horiz-adv-x="435" 
d="M-18 289q0 54 36 90t89 36t89 -36.5t36 -89.5q0 -52 -36 -88t-89 -36t-89 35.5t-36 88.5z" />
    <glyph glyph-name="slash" unicode="/" horiz-adv-x="428" 
d="M74 33h-101l379 1296h102z" />
    <glyph glyph-name="zero" unicode="0" horiz-adv-x="798" 
d="M516 1186q-47 0 -90.5 -63t-92.5 -203q-58 -161 -91.5 -315.5t-33.5 -242.5q0 -49 18 -74.5t53 -25.5q45 0 83.5 57t93.5 215q60 170 96.5 329.5t36.5 222.5q0 46 -19 73t-54 27zM29 490q0 132 36 262.5t107 250.5q79 137 172 208t193 71q110 0 169 -77t59 -221
q0 -134 -37 -272t-105 -265q-76 -138 -168 -211.5t-191 -73.5q-110 0 -172.5 86t-62.5 242z" />
    <glyph glyph-name="one" unicode="1" horiz-adv-x="835" 
d="M33 178l16 75q66 2 100.5 37t65.5 148l164 601q7 25 10 40t3 23q0 33 -22.5 47.5t-101.5 23.5l15 66l338 49q4 0 8.5 1t5.5 1q6 0 9 -3t5 -8q0 -1 -2 -8t-3 -8l-235 -873q-6 -21 -8.5 -36.5t-2.5 -26.5q0 -37 25 -54t85 -20l-18 -75h-457z" />
    <glyph glyph-name="two" unicode="2" horiz-adv-x="788" 
d="M-51 178v69q377 402 474 538t97 219q0 66 -42 105.5t-110 39.5q-60 0 -115.5 -31.5t-129.5 -111.5l-54 44q92 116 188 174t198 58q122 0 191.5 -64t69.5 -176q0 -80 -44 -155.5t-163 -188.5q-18 -16 -56 -52q-197 -181 -311 -312h292q59 0 92.5 22t52.5 73l71 -19
l-78 -232h-623z" />
    <glyph glyph-name="three" unicode="3" horiz-adv-x="786" 
d="M422 805q98 -22 147 -78.5t49 -148.5q0 -88 -41 -166t-121 -141q-68 -55 -146 -82t-170 -27q-100 0 -161 35t-61 91q0 30 20.5 50t50.5 20q21 0 39 -9t45 -34l8 -8q59 -54 109 -54q88 0 154 89.5t66 211.5q0 97 -59.5 150.5t-168.5 53.5l19 83q129 2 213 62t84 147
q0 60 -37 94.5t-99 34.5q-47 0 -92.5 -19t-97.5 -62l-39 55q74 71 156.5 105t173.5 34q104 0 168.5 -54t64.5 -142q0 -96 -70 -170t-204 -121z" />
    <glyph glyph-name="four" unicode="4" horiz-adv-x="797" 
d="M373 612l138 487l-406 -487h268zM247 159l83 295h-322v173l553 665h185l-182 -680h151l-43 -158h-150l-80 -295h-195z" />
    <glyph glyph-name="five" unicode="5" horiz-adv-x="783" 
d="M121 858l185 417h240q70 0 95.5 13.5t46.5 44.5h72l-93 -214h-334l-58 -128q185 -66 276 -172.5t91 -253.5q0 -174 -112.5 -288.5t-284.5 -114.5q-109 0 -189.5 30t-80.5 62q0 14 12 42t31 60q7 14 16 21.5t19 7.5q17 0 55 -35q15 -14 24 -22q40 -36 76.5 -52.5
t74.5 -16.5q84 0 146.5 66.5t62.5 158.5q0 102 -67.5 176.5t-303.5 197.5z" />
    <glyph glyph-name="six" unicode="6" horiz-adv-x="802" 
d="M267 768q-43 -106 -64.5 -193t-21.5 -153q0 -71 35.5 -113.5t93.5 -42.5q81 0 142.5 95.5t61.5 228.5q0 91 -41 141t-117 50q-18 0 -40 -3.5t-49 -9.5zM319 866q26 6 53 9.5t55 3.5q135 0 214 -78.5t79 -216.5q0 -86 -36 -166t-105 -146q-57 -56 -121.5 -84.5
t-132.5 -28.5q-142 0 -229.5 108.5t-87.5 285.5q0 255 186 455.5t504 285.5l32 -74q-151 -49 -253.5 -137.5t-157.5 -216.5z" />
    <glyph glyph-name="seven" unicode="7" horiz-adv-x="814" 
d="M139 159l325 594q52 93 96.5 178.5t82.5 166.5h-266q-64 0 -97 -20t-55 -69l-66 23l99 243h564l-136 -296q-101 -222 -185 -426.5t-151 -393.5h-211z" />
    <glyph glyph-name="eight" unicode="8" horiz-adv-x="792" 
d="M334 669q-89 -38 -137 -101.5t-48 -139.5q0 -77 43 -122.5t118 -45.5q74 0 121.5 46t47.5 118q0 52 -31.5 106t-113.5 139zM456 849q88 49 124.5 98t36.5 115q0 67 -38 106t-103 39q-63 0 -104 -43.5t-41 -112.5q0 -53 29.5 -100t95.5 -102zM272 748q-57 64 -85.5 127.5
t-28.5 128.5q0 128 89 207.5t233 79.5q120 0 196 -66.5t76 -171.5q0 -89 -57 -157t-175 -121q72 -71 106 -142.5t34 -150.5q0 -140 -98 -229t-256 -89q-136 0 -221 75t-85 195q0 94 69 173.5t203 140.5z" />
    <glyph glyph-name="nine" unicode="9" horiz-adv-x="808" 
d="M508 674q43 115 65.5 210t22.5 158q0 74 -32 115t-90 41q-34 0 -63 -18t-56 -54q-32 -45 -54.5 -123t-22.5 -150q0 -96 37.5 -147.5t105.5 -51.5q19 1 41 5.5t46 14.5zM66 223q138 54 238 141.5t163 208.5q-25 -2 -49 -4t-47 -2q-129 0 -211 85.5t-82 219.5
q0 62 18 124.5t53 121.5q50 84 133 130t184 46q145 0 223 -97.5t78 -278.5q0 -266 -178.5 -473t-482.5 -293z" />
    <glyph glyph-name="colon" unicode=":" horiz-adv-x="552" 
d="M145 787q0 53 37 89.5t90 36.5t89 -36t36 -90q0 -53 -36 -89.5t-89 -36.5t-90 36.5t-37 89.5zM14 289q0 54 36 90t90 36q52 0 88.5 -36.5t36.5 -89.5q0 -52 -36.5 -88t-88.5 -36q-53 0 -89.5 35.5t-36.5 88.5z" />
    <glyph glyph-name="semicolon" unicode=";" horiz-adv-x="528" 
d="M386 789q0 -54 -36 -88.5t-90 -34.5q-52 0 -87.5 35t-35.5 88t36 89.5t87 36.5q54 0 90 -36.5t36 -89.5zM-80 -31q92 29 145 75.5t53 96.5q0 18 -6.5 33.5t-17.5 23.5q-7 6 -24 16q-67 45 -67 99q0 49 30.5 80t82.5 31q63 0 105 -53t42 -136q0 -124 -85.5 -209.5
t-239.5 -115.5z" />
    <glyph glyph-name="semicolon" unicode="&#x37e;" horiz-adv-x="528" 
d="M386 789q0 -54 -36 -88.5t-90 -34.5q-52 0 -87.5 35t-35.5 88t36 89.5t87 36.5q54 0 90 -36.5t36 -89.5zM-80 -31q92 29 145 75.5t53 96.5q0 18 -6.5 33.5t-17.5 23.5q-7 6 -24 16q-67 45 -67 99q0 49 30.5 80t82.5 31q63 0 105 -53t42 -136q0 -124 -85.5 -209.5
t-239.5 -115.5z" />
    <glyph glyph-name="less" unicode="&#x3c;" horiz-adv-x="1433" 
d="M1169 1096v-169l-687 -279l687 -280v-168l-905 372v154z" />
    <glyph glyph-name="equal" unicode="=" horiz-adv-x="1427" 
d="M254 560h920v-152h-920v152zM254 890h920v-152h-920v152z" />
    <glyph glyph-name="greater" unicode="&#x3e;" horiz-adv-x="1433" 
d="M264 1096l905 -370v-154l-905 -372v168l688 280l-688 279v169z" />
    <glyph glyph-name="question" unicode="?" horiz-adv-x="721" 
d="M190 517q15 48 24.5 97.5t16.5 108.5q1 17 1 41q3 42 30 48q11 2 31 6q81 13 132 36q57 25 84.5 68.5t27.5 105.5q0 58 -32 96t-76 38q-11 0 -42 -5t-53 -5q-39 0 -59.5 18t-20.5 54q0 42 31.5 66.5t88.5 24.5q107 0 186 -103.5t79 -250.5q0 -123 -59.5 -204t-169.5 -111
q-66 -16 -86.5 -42t-33.5 -87h-100zM63 294q0 54 36 90t90 36q52 0 87 -36t35 -90q0 -52 -35 -88t-87 -36q-53 0 -89.5 35.5t-36.5 88.5z" />
    <glyph glyph-name="at" unicode="@" horiz-adv-x="1612" 
d="M935 424q-48 -76 -104 -113.5t-123 -37.5q-109 0 -171 70.5t-62 192.5q0 88 38.5 170.5t110.5 151.5q53 49 113.5 74t123.5 25q74 0 116 -34t55 -106l37 126h146l-134 -474l-1 -6q-11 -45 -11 -66q0 -36 15.5 -57t42.5 -21q25 0 65 19t75 48q79 68 121.5 167t42.5 219
q0 212 -145 342.5t-375 130.5q-107 0 -202 -28.5t-175 -86.5q-133 -92 -204.5 -236t-71.5 -321q0 -257 161.5 -408t433.5 -151q128 0 246 39t236 119l30 -38q-116 -88 -244.5 -131t-267.5 -43q-143 0 -266.5 35.5t-213.5 102.5q-115 85 -177.5 212.5t-62.5 279.5
q0 119 40 229.5t117 202.5q112 134 266.5 205.5t334.5 71.5q268 0 429 -145t161 -386q0 -124 -45 -231t-131 -183q-45 -41 -97.5 -62t-104.5 -21q-76 0 -120 39.5t-48 113.5zM889 907q-47 0 -86 -34.5t-77 -109.5q-43 -88 -66.5 -165.5t-23.5 -140.5q0 -60 26.5 -96
t70.5 -36q49 0 96 47.5t89 139.5q31 71 48.5 143t17.5 125q0 61 -24.5 94t-70.5 33z" />
    <glyph glyph-name="A" unicode="A" horiz-adv-x="1135" 
d="M325 691h291l20 427zM-162 178v82q42 12 94.5 61t117.5 142l621 853h222l-37 -872v-35q0 -76 21 -108.5t70 -40.5l-17 -82h-485l17 81q70 2 100.5 41t36.5 133l12 153h-359l-106 -146q-19 -29 -29.5 -56.5t-10.5 -49.5q0 -32 19.5 -51t56.5 -23v-82h-344z" />
    <glyph glyph-name="B" unicode="B" horiz-adv-x="1114" 
d="M409 718l-88 -318q-3 -16 -6 -29t-3 -22q0 -42 33 -62.5t96 -20.5q134 0 206 68t72 195q0 105 -50 149.5t-168 44.5q-20 0 -43 -1t-49 -4zM439 812q32 -1 54.5 -2.5t33.5 -1.5q121 0 188 62.5t67 174.5q0 84 -40 121.5t-130 37.5q-25 0 -39 -0.5t-26 -2.5zM-125 178
l20 84q75 6 114.5 42t62.5 118l173 625q7 29 11 50.5t4 34.5q0 35 -29.5 54.5t-87.5 22.5l24 83h480q112 0 161.5 -9.5t88.5 -30.5q53 -30 83.5 -85.5t30.5 -125.5q0 -101 -73.5 -178t-199.5 -109q115 -14 177 -76t62 -162q0 -75 -33 -142t-92 -116q-52 -42 -124.5 -61
t-211.5 -19h-641z" />
    <glyph glyph-name="C" unicode="C" horiz-adv-x="1138" 
d="M1002 554l-73 -301q-82 -51 -177 -76t-203 -25q-226 0 -360 131.5t-134 353.5q0 125 45 241t130 212q100 113 226 170.5t275 57.5q108 0 202 -27.5t174 -83.5l-36 -256l-91 10v7q0 121 -63 189t-174 68q-87 0 -156.5 -39.5t-118.5 -117.5q-35 -53 -62 -122t-49 -165
q-18 -72 -26 -132t-8 -108q0 -138 61.5 -213.5t175.5 -75.5q115 0 203.5 82t141.5 237z" />
    <glyph glyph-name="D" unicode="D" horiz-adv-x="1263" 
d="M325 418q-4 -15 -5.5 -29.5t-1.5 -27.5q0 -47 31.5 -67t106.5 -20q99 0 173.5 29t132.5 90q77 78 126 216.5t49 280.5q0 152 -74 231t-218 79q-21 0 -81 -5q-15 0 -24 -1zM-137 178l20 84q81 6 120.5 40t63.5 120l173 625q11 36 14.5 55.5t3.5 29.5q0 35 -29.5 54.5
t-89.5 22.5l24 83h511q265 0 399.5 -113.5t134.5 -337.5q0 -297 -192.5 -480t-504.5 -183h-648z" />
    <glyph glyph-name="E" unicode="E" horiz-adv-x="1044" 
d="M-127 178l20 84q76 9 115 43t62 117l173 625q7 29 11 50.5t4 34.5q0 35 -29.5 54.5t-87.5 22.5l24 83h870l-59 -265l-76 7v19q0 81 -42.5 114t-146.5 33h-176l-102 -388h112q80 0 129.5 32t79.5 101h78l-94 -398h-83v6q3 25 3 37q0 67 -36.5 99t-114.5 32h-100l-80 -307
q-8 -28 -9.5 -40.5t-1.5 -24.5q0 -43 33 -62t112 -19q83 0 136.5 10t90.5 30q39 23 77.5 65.5t85.5 114.5h88l-108 -310h-958z" />
    <glyph glyph-name="F" unicode="F" horiz-adv-x="981" 
d="M-115 178l18 84q78 9 117 43.5t62 116.5l171 625q9 29 12.5 50.5t3.5 34.5q0 35 -29.5 54.5t-88.5 22.5l23 83h883l-60 -265l-76 7v19q0 81 -43 114t-148 33h-173l-103 -388h113q80 0 129 32t79 101h80l-96 -398h-84q1 1 1 6q1 25 2 37q0 67 -36.5 99t-114.5 32h-97
l-83 -295v-4q-16 -53 -16 -80q0 -36 31 -56t89 -24l-24 -84h-542z" />
    <glyph glyph-name="G" unicode="G" horiz-adv-x="1228" 
d="M999 241q-100 -45 -207 -67t-220 -22q-255 0 -388 128t-133 369q0 151 59 282t167 222q96 81 216 122t266 41q125 0 227.5 -22t187.5 -69l-31 -257l-90 5q-4 121 -78 187t-206 66q-99 0 -175.5 -41t-129.5 -122q-66 -100 -105.5 -239.5t-39.5 -276.5q0 -144 64.5 -219
t189.5 -75q84 0 133 32.5t60 94.5l24 126q3 16 3.5 23.5t0.5 12.5q0 49 -28.5 75t-83.5 27l11 79h496l-12 -79q-56 -2 -82 -32t-43 -113z" />
    <glyph glyph-name="H" unicode="H" horiz-adv-x="1255" 
d="M-137 178l20 84q81 6 121.5 40.5t64.5 119.5l173 625q7 29 11.5 50.5t4.5 34.5q0 35 -29.5 54.5t-89.5 22.5l24 83h521l-24 -83q-66 -6 -99 -36.5t-60 -122.5l-64 -234h424l65 231q7 25 11 48t4 37q0 35 -29.5 54.5t-89.5 22.5l24 83h546l-19 -83q-82 -6 -123 -40
t-65 -119l-169 -617q-9 -36 -13.5 -57.5t-4.5 -33.5q0 -38 28.5 -57t88.5 -23l-24 -84h-521l24 84q66 6 99 35.5t60 124.5l80 288h-426l-78 -283q-6 -22 -9 -41t-3 -36q0 -43 26 -63.5t89 -24.5l-24 -84h-545z" />
    <glyph glyph-name="I" unicode="I" horiz-adv-x="629" 
d="M-100 178l20 84q76 9 115 43.5t62 116.5l173 625q7 29 11 50.5t4 34.5q0 35 -29.5 54.5t-87.5 22.5l24 83h532l-19 -83q-77 -8 -116.5 -43t-60.5 -116l-172 -623q-8 -28 -12 -48.5t-4 -36.5q0 -38 29 -57t89 -23l-24 -84h-534z" />
    <glyph glyph-name="J" unicode="J" horiz-adv-x="879" 
d="M387 733h-174l17 91h187q35 88 73 153t79 109q-24 -11 -47.5 -16.5t-44.5 -5.5q-31 0 -59.5 9.5t-57.5 28.5q-20 14 -54 41q-49 43 -74 43q-17 0 -27 -9.5t-10 -27.5q0 -17 27 -54t27 -67q0 -41 -26 -66.5t-65 -25.5q-47 0 -78.5 37t-31.5 95q0 103 80 175.5t199 72.5
q63 0 130 -26t170 -94q41 62 75.5 90t75.5 28t64.5 -23.5t23.5 -62.5q0 -46 -36 -78t-113 -52q0 -60 -11 -128.5t-31 -145.5h156l-19 -91h-161q-63 -234 -126 -401.5t-115 -250.5q-72 -106 -161 -157t-203 -51q-98 0 -157 39.5t-59 103.5q0 39 24 61t65 22q22 0 41.5 -12.5
t44.5 -42.5q5 -5 13 -14q44 -53 90 -53q72 0 129 213v2q13 48 38 148q64 256 112 393z" />
    <glyph glyph-name="K" unicode="K" horiz-adv-x="1212" 
d="M-125 178l20 84q81 6 121.5 40.5t64.5 119.5l172 625q7 29 11.5 50.5t4.5 34.5q0 35 -30 54.5t-88 22.5l24 83h521l-24 -83q-66 -6 -99 -36.5t-60 -122.5l-172 -623q-10 -33 -13 -51.5t-3 -33.5q0 -36 30.5 -56t88.5 -24l-23 -84h-546zM443 753q265 165 374 253t109 137
q0 33 -24.5 49t-73.5 17l21 83h452l-21 -83q-71 -2 -311 -191q-168 -132 -276 -210q185 -303 284.5 -422t163.5 -121l-16 -87h-309q-120 147 -214.5 291.5t-158.5 283.5z" />
    <glyph glyph-name="L" unicode="L" horiz-adv-x="1029" 
d="M-113 178l20 84q78 9 116 43t61 117l173 625q8 29 11.5 50.5t3.5 34.5q0 35 -29.5 54.5t-87.5 22.5l24 83h541l-19 -83q-77 -8 -116.5 -43t-61.5 -116l-172 -636q-7 -27 -8.5 -40.5t-1.5 -24.5q0 -43 31.5 -62t110.5 -19q70 0 114.5 5.5t75.5 18.5q54 21 101 72.5
t91 141.5l77 -22l-85 -306h-970z" />
    <glyph glyph-name="M" unicode="M" horiz-adv-x="1552" 
d="M-139 178l21 84q56 3 99 56.5t106 212.5l178 465q0 2 3 7q30 78 30 127q0 40 -21.5 59t-66.5 20l21 83h360q-2 -12 -2 -27v-45q0 -55 4.5 -109.5t15.5 -108.5l85 -478l335 482q32 46 61.5 118t55.5 168h355l-9 -83q-57 -5 -85 -42.5t-34 -121.5l-58 -601q0 -16 -3 -43.5
t-3 -36.5q0 -25 5 -41t18 -28q11 -12 29 -20.5t41 -12.5l-7 -84h-482l12 81q64 6 96.5 51.5t41.5 146.5l51 524l-349 -515q-62 -90 -152 -262l-13 -26h-120q-6 77 -12 130.5t-13 90.5l-98 582l-192 -493q-17 -42 -26 -75t-9 -55q0 -44 24.5 -68.5t72.5 -30.5l-19 -81h-347z
" />
    <glyph glyph-name="N" unicode="N" horiz-adv-x="1177" 
d="M-96 178l27 84q68 9 104.5 50.5t78.5 194.5l162 575q-26 66 -62 95t-94 32l19 83h307l402 -778l130 472q11 41 17.5 77.5t6.5 58.5q0 46 -23 66t-89 30l14 74h362l-20 -83h-8q-62 0 -99 -48t-75 -188l-157 -576l107 -219h-277l-401 786l-139 -490q-10 -35 -14.5 -62.5
t-4.5 -48.5q0 -49 30 -73.5t94 -29.5l-24 -82h-374z" />
    <glyph glyph-name="O" unicode="O" horiz-adv-x="1240" 
d="M707 1219q-77 0 -140 -44.5t-110 -132.5q-66 -123 -103 -267.5t-37 -281.5q0 -109 59.5 -174.5t157.5 -65.5q87 0 153.5 52t117.5 159q56 116 86.5 246.5t30.5 250.5q0 125 -56 191.5t-159 66.5zM53 619q0 128 44.5 246.5t130.5 217.5q95 113 220 172.5t264 59.5
q215 0 347 -126.5t132 -329.5q0 -129 -43 -246.5t-124 -215.5q-97 -118 -222 -179t-268 -61q-217 0 -349 127t-132 335z" />
    <glyph glyph-name="P" unicode="P" horiz-adv-x="1040" 
d="M-121 178l20 84q76 9 115 43.5t62 116.5l173 625q7 25 10.5 44.5t3.5 34.5q0 41 -27 60.5t-89 22.5l24 83h391q157 0 226.5 -8.5t109.5 -27.5q80 -37 118 -96.5t38 -143.5q0 -155 -116.5 -246.5t-313.5 -91.5q-95 0 -129 12t-34 43q0 19 13 30t37 11q11 0 27.5 -2
t19.5 -2q102 0 167 72.5t65 187.5q0 90 -45 133.5t-140 43.5h-27t-17 -1l-221 -779q-9 -33 -12 -51t-3 -34q0 -36 31 -56t89 -24l-24 -84h-542z" />
    <glyph glyph-name="Q" unicode="Q" horiz-adv-x="1240" 
d="M707 1219q-77 0 -140 -44.5t-110 -132.5q-66 -123 -103 -267.5t-37 -281.5q0 -109 59.5 -174.5t157.5 -65.5q87 0 153.5 52t117.5 159q56 116 86.5 246.5t30.5 250.5q0 125 -56 191.5t-159 66.5zM401 171q-164 40 -256 158t-92 291q0 126 45 245t129 217q96 113 221 173
t264 60q215 0 347 -126.5t132 -329.5q0 -130 -43 -247t-123 -213q-100 -120 -221.5 -180t-270.5 -62l-114 -91q78 12 111.5 15.5t54.5 3.5q57 0 161 -22.5t152 -22.5t109 14.5t137 44.5l26 -83q-127 -72 -220.5 -105t-172.5 -33q-62 0 -189.5 21.5t-196.5 21.5
q-46 0 -99.5 -10.5t-116.5 -31.5l-50 80z" />
    <glyph glyph-name="R" unicode="R" horiz-adv-x="1204" 
d="M444 789q15 -2 32.5 -3.5t33.5 -1.5q143 0 227.5 72t84.5 189q0 84 -54.5 123t-172.5 39q-6 0 -18.5 -0.5t-18.5 -0.5zM-125 178l20 84q81 6 121.5 40.5t64.5 119.5l173 625q9 29 12.5 50.5t3.5 34.5q0 35 -29.5 54.5t-88.5 22.5l23 83h508q213 0 303.5 -60t90.5 -198
q0 -125 -79.5 -204t-229.5 -104q19 -6 69 -134q33 -81 56 -133q54 -127 87 -160t84 -37l-15 -84h-306q-90 172 -172 387q-17 48 -24 65h-1q-30 69 -94 69h-20t-15 -1l-76 -272q-8 -26 -11.5 -47t-3.5 -37q0 -38 30 -57t90 -23l-24 -84h-547z" />
    <glyph glyph-name="S" unicode="S" horiz-adv-x="1049" 
d="M4 267l62 274l87 -17v-13q0 -123 67.5 -190.5t191.5 -67.5q90 0 146 43t56 113q0 89 -158 241l-48 48l-10 10q-179 180 -179 315q0 141 99 216.5t282 75.5q110 0 202 -27t174 -84l-49 -217l-83 9q-1 111 -58 169.5t-166 58.5q-77 0 -121 -35t-44 -93q0 -44 38.5 -97.5
t170.5 -174.5q126 -115 164 -183.5t38 -147.5q0 -157 -121.5 -249t-330.5 -92q-118 0 -219 28t-191 87z" />
    <glyph glyph-name="T" unicode="T" horiz-adv-x="990" 
d="M96 178l19 84q81 6 122 40.5t65 119.5l219 787h-7q-126 0 -191.5 -42t-101.5 -146h-85l76 271h914l-52 -271h-79q0 7 0.5 13.5t0.5 21.5q0 81 -47.5 116t-164.5 37l-219 -782q-7 -25 -10.5 -47.5t-3.5 -42.5q0 -35 34 -54t99 -21l-24 -84h-564z" />
    <glyph glyph-name="U" unicode="U" horiz-adv-x="1293" 
d="M209 1209l24 83h524l-19 -79h-4q-67 0 -106.5 -41.5t-64.5 -138.5l-101 -387q-14 -57 -22 -102.5t-8 -77.5q0 -97 60.5 -149t171.5 -52q142 0 225.5 81.5t132.5 271.5l94 367q10 33 14.5 65.5t4.5 59.5q0 48 -25.5 73.5t-76.5 29.5l22 79h336l-17 -83q-59 -3 -94.5 -50.5
t-72.5 -186.5l-97 -372q-61 -238 -180 -340.5t-331 -102.5q-207 0 -316 76.5t-109 222.5q0 37 7 82t22 104l101 388q6 23 9 45.5t3 41.5q0 43 -26.5 66.5t-80.5 25.5z" />
    <glyph glyph-name="V" unicode="V" horiz-adv-x="1135" 
d="M1317 1294v-81q-67 -17 -277 -275q-51 -61 -78 -96q-87 -104 -239 -284q-250 -296 -324 -401h-144q5 66 9 119.5t5 84.5l30 669v32q0 75 -21 108t-71 39l18 85h485l-17 -79q-68 -2 -100 -42.5t-37 -131.5l-35 -607q332 383 431 518t99 188q0 32 -21 50.5t-59 22.5v81h346
z" />
    <glyph glyph-name="W" unicode="W" horiz-adv-x="1581" 
d="M407 157h-144q0 7 2 20q8 126 9 184l18 669v23q0 83 -21 118t-70 38l17 85h445l-17 -79q-45 -6 -69 -49t-27 -125l-19 -540q58 73 129 178t181 281v70q0 95 -20 137t-64 48l18 79h451l-13 -79q-59 -1 -91.5 -47t-33.5 -127l-5 -540q214 298 303 444.5t89 195.5
q0 35 -20 53.5t-58 18.5v79h345v-79q-101 -30 -262 -277q-32 -48 -49 -75q-106 -158 -277.5 -403.5t-192.5 -300.5l-134 1q5 70 8 122.5t3 80.5l3 439q-173 -244 -299 -432t-126 -198z" />
    <glyph glyph-name="X" unicode="X" horiz-adv-x="1164" 
d="M-129 178v84q35 9 87 42.5t116 88.5l371 317l-190 380q-36 70 -64 95t-66 25q-2 0 -7.5 -0.5t-7.5 -0.5l19 83h492l-17 -79h-8q-39 0 -56 -13.5t-17 -41.5q0 -16 9.5 -44t26.5 -62l82 -170l197 171q28 24 41.5 47t13.5 44q0 29 -19.5 46t-58.5 23l15 79h375v-83
q-40 -9 -87 -38.5t-103 -78.5l-330 -293l189 -378q45 -87 82 -120.5t90 -38.5l-16 -84h-535l16 84q51 4 73.5 22t22.5 54q0 19 -8 46t-21 56l-91 186l-191 -167q-57 -48 -74 -73t-17 -49q0 -31 25.5 -50t77.5 -25l-12 -84h-425z" />
    <glyph glyph-name="Y" unicode="Y" horiz-adv-x="1109" 
d="M171 178l19 84q80 6 121.5 40.5t65.5 119.5l58 209l-161 435q-27 72 -58.5 106t-78.5 37l18 83h480l-19 -79q-42 -1 -63.5 -21.5t-21.5 -57.5q0 -15 3.5 -31.5t11.5 -42.5l118 -331q146 157 214 252.5t68 142.5q0 40 -23.5 64t-63.5 25l16 79h334v-79q-80 -25 -166 -143
q-11 -14 -16 -22q-74 -102 -155 -202.5t-178 -212.5l-59 -206q-6 -24 -9.5 -46.5t-3.5 -41.5q0 -36 33.5 -55.5t98.5 -21.5l-24 -84h-559z" />
    <glyph glyph-name="Z" unicode="Z" horiz-adv-x="1111" 
d="M-43 178v94l805 938h-219q-125 0 -195.5 -44t-121.5 -152l-87 18l77 260h869v-96l-798 -929h275q110 0 202 55.5t179 173.5l71 -26l-110 -292h-947z" />
    <glyph glyph-name="bracketleft" unicode="[" horiz-adv-x="601" 
d="M-104 -107l400 1399h372l-22 -77h-16q-99 0 -150.5 -47.5t-89.5 -177.5l-218 -762q-13 -51 -21.5 -91.5t-8.5 -62.5q0 -53 33.5 -75t130.5 -27l-22 -79h-388z" />
    <glyph glyph-name="backslash" unicode="\" horiz-adv-x="511" 
d="M264 33l-106 1296h101l107 -1296h-102z" />
    <glyph glyph-name="bracketright" unicode="]" horiz-adv-x="601" 
d="M601 1292l-401 -1399h-372l23 77h16q98 0 149.5 47t89.5 179l216 761q15 54 23.5 95t8.5 61q0 52 -37.5 76.5t-114.5 24.5h-14l23 78h390z" />
    <glyph glyph-name="asciicircum" unicode="^" horiz-adv-x="1765" 
d="M791 1302h181l377 -434h-86l-383 286l-382 -286h-86z" />
    <glyph glyph-name="underscore" unicode="_" horiz-adv-x="786" 
d="M9 466h786v-187h-786v187z" />
    <glyph glyph-name="grave" unicode="`" horiz-adv-x="925" 
d="M694 1000h-81l-201 148q-27 19 -37 33.5t-10 28.5q0 30 17.5 49.5t44.5 19.5q20 0 38 -11.5t38 -36.5z" />
    <glyph glyph-name="a" unicode="a" horiz-adv-x="866" 
d="M439 838q-36 0 -71.5 -31.5t-75.5 -103.5q-46 -81 -72 -159t-26 -128q0 -49 17.5 -75t52.5 -26q41 0 79.5 33.5t80.5 107.5q43 75 69.5 153.5t26.5 129.5q0 45 -22 72t-59 27zM395 283q-55 -60 -108 -88.5t-111 -28.5q-88 0 -138 57t-50 158q0 77 32.5 159t94.5 164
q78 102 167.5 158.5t172.5 56.5q44 0 81.5 -15t70.5 -46l46 49h137l-174 -497q-9 -23 -13.5 -41.5t-4.5 -29.5q0 -12 7.5 -21.5t17.5 -9.5q20 0 45.5 26t56.5 80l53 -44q-76 -115 -136.5 -160.5t-132.5 -45.5q-51 0 -79 29.5t-35 89.5z" />
    <glyph glyph-name="b" unicode="b" horiz-adv-x="812" 
d="M446 795q-43 0 -81 -34.5t-75 -110.5q-33 -68 -53.5 -144t-20.5 -132q0 -58 23.5 -89t66.5 -31q33 0 64.5 25t64.5 79q47 75 74 163.5t27 165.5q0 48 -25 78t-65 30zM199 1071q7 23 10.5 40.5t3.5 28.5q0 39 -24.5 56t-83.5 17l16 73q146 4 289 32q27 6 31 6q8 0 11 -4
t3 -15q0 -5 -2 -11t-4 -16l-124 -444q55 40 106.5 60.5t101.5 20.5q97 0 152 -60t55 -164q0 -107 -47.5 -208.5t-135.5 -188.5q-68 -65 -143 -97.5t-154 -32.5q-113 0 -174 59t-61 168q0 39 12 103.5t36 143.5z" />
    <glyph glyph-name="c" unicode="c" horiz-adv-x="711" 
d="M588 375q-78 -108 -161.5 -159.5t-180.5 -51.5q-118 0 -181 64t-63 186q0 86 35.5 174t100.5 163q68 79 150 123t164 44q78 0 130 -41t52 -99q0 -36 -22 -57.5t-58 -21.5q-29 0 -50 15t-35 45q-4 9 -10 25q-20 50 -55 50q-67 0 -135 -118.5t-68 -261.5q0 -84 31.5 -130
t88.5 -46q46 0 99.5 35.5t113.5 104.5z" />
    <glyph glyph-name="d" unicode="d" horiz-adv-x="858" 
d="M423 835q-35 0 -73.5 -30.5t-74.5 -86.5q-38 -60 -62 -139.5t-24 -144.5q0 -54 22.5 -84t66.5 -30q36 0 74 32t71 89q38 67 60.5 143.5t22.5 133.5q0 56 -22.5 86.5t-60.5 30.5zM429 308q-61 -73 -118 -106t-122 -33q-94 0 -148.5 61.5t-54.5 167.5q0 70 26.5 149
t74.5 152q68 107 152.5 163t177.5 56q38 0 71.5 -14t65.5 -40l58 216q6 25 10 42.5t4 25.5q0 40 -25 56t-83 16l15 74q147 4 288 33q28 5 33 5q7 0 10 -4.5t3 -13.5q-1 -5 -3 -14t-4 -16l-220 -884q-1 -3 -2 -12q-9 -37 -9 -46q0 -18 6.5 -26.5t20.5 -8.5q22 0 99 83l11 13
l46 -42q-87 -107 -147 -151t-116 -44q-52 0 -80.5 34t-39.5 108z" />
    <glyph glyph-name="e" unicode="e" horiz-adv-x="693" 
d="M564 391q-72 -114 -159.5 -170t-192.5 -56q-108 0 -167 58.5t-59 162.5q0 79 30.5 160t93.5 166q72 96 162.5 151.5t175.5 55.5q80 0 124 -37.5t44 -105.5q0 -107 -110 -189t-312 -123q-2 -12 -3 -24t-1 -30q0 -59 27.5 -93.5t74.5 -34.5q50 0 106 39t111 112zM201 543
q126 21 204.5 82.5t78.5 133.5q0 33 -21 52.5t-53 19.5q-72 0 -132 -81t-77 -207z" />
    <glyph glyph-name="f" unicode="f" horiz-adv-x="352" 
d="M87 808h-133l21 81h130q62 215 161 323t236 108q66 0 108 -28t42 -72q0 -30 -19 -49t-48 -19q-23 0 -38.5 8t-31.5 29q-4 5 -9 14q-22 33 -49 33q-44 0 -80.5 -82t-75.5 -265h139l-18 -81h-137q-92 -524 -196.5 -725.5t-271.5 -201.5q-52 0 -86 27.5t-34 71.5
q0 30 17.5 49.5t45.5 19.5q19 0 34.5 -7.5t27.5 -20.5q4 -6 12 -19q18 -30 36 -30q49 0 129 403q51 263 88 433z" />
    <glyph glyph-name="g" unicode="g" horiz-adv-x="755" 
d="M120 162q-38 -30 -58.5 -58.5t-20.5 -52.5q0 -43 48 -65t145 -22q82 0 128 25t46 68q0 70 -186 91q-64 8 -102 14zM366 836q-55 0 -94.5 -71t-39.5 -169q0 -50 18 -73t56 -23q61 0 101.5 65.5t40.5 167.5q0 50 -21 76.5t-61 26.5zM155 450q-57 34 -82.5 81.5t-25.5 114.5
q0 111 90 191.5t218 80.5q42 0 81 -11.5t78 -34.5q33 26 68 39t73 13q47 0 70 -22t23 -64q0 -34 -12 -51t-38 -17q-19 0 -29.5 8t-14.5 24q-1 4 -2 12q-8 33 -24 33q-10 0 -21 -8t-26 -27q26 -29 38.5 -63t12.5 -73q0 -112 -87 -186.5t-215 -74.5q-13 0 -32.5 2.5t-45.5 6.5
q-36 -30 -52 -47t-16 -28q0 -23 111 -39q21 -2 33 -3q134 -19 191.5 -63.5t57.5 -127.5q0 -114 -94.5 -177t-264.5 -63q-139 0 -223.5 46t-84.5 118q0 40 29 77t87 76q-24 19 -35 39.5t-11 41.5q0 46 43 89t132 87z" />
    <glyph glyph-name="h" unicode="h" horiz-adv-x="865" 
d="M224 1078q7 24 10.5 41.5t3.5 28.5q0 40 -25 56t-84 16l18 74q150 4 295 33q25 5 33 5q6 0 9 -4.5t3 -13.5t-1.5 -15.5t-3.5 -13.5l-187 -601q87 114 165 172.5t142 58.5q57 0 90 -36.5t33 -100.5q0 -25 -5 -53.5t-17 -67.5l-88 -253q-6 -19 -9 -30.5t-3 -18.5
q0 -10 5 -16t11 -6q13 0 35 23t56 68l59 -39q-77 -117 -137.5 -168.5t-118.5 -51.5t-89 34.5t-31 97.5q0 23 8.5 59t23.5 83l83 249q11 32 13.5 43t2.5 17q0 11 -5.5 19t-12.5 8q-48 0 -131.5 -102t-130.5 -244l-85 -251h-198z" />
    <glyph glyph-name="i" unicode="i" horiz-adv-x="501" 
d="M250 1215q0 47 32.5 79t80.5 32q44 0 74.5 -32t30.5 -79t-30.5 -78.5t-74.5 -31.5q-48 0 -80.5 31.5t-32.5 78.5zM267 391q-7 -22 -11 -38t-4 -25q0 -13 6 -21.5t15 -8.5q14 0 37 22t62 73l57 -45q-73 -100 -133 -144.5t-124 -44.5q-55 0 -88 36.5t-33 94.5q0 32 7 69.5
t29 104.5l73 221q7 23 10.5 38t3.5 25q0 14 -6.5 20.5t-18.5 6.5q-15 0 -36 -20t-60 -75l-55 46q61 93 124 139.5t134 46.5q59 0 90 -31.5t31 -87.5q0 -31 -9 -72.5t-26 -94.5z" />
    <glyph glyph-name="j" unicode="j" horiz-adv-x="421" 
d="M99 685q2 6 5 17q11 36 11 46q0 14 -7 20.5t-20 6.5q-14 0 -34.5 -20t-59.5 -75l-54 46q61 93 124 139.5t133 46.5q57 0 88 -31t31 -87q0 -19 -4 -45t-17 -73l-111 -411q-57 -219 -128 -303t-188 -84q-78 0 -124.5 32t-46.5 88q0 35 19.5 55t54.5 20q25 0 44 -11t36 -35
q7 -9 17 -29q17 -36 35 -36q21 0 43 114q24 131 49 226zM193 1215q0 47 32 79t80 32q45 0 75.5 -32t30.5 -79t-30.5 -78.5t-75.5 -31.5q-48 0 -80 31.5t-32 78.5z" />
    <glyph glyph-name="k" unicode="k" horiz-adv-x="862" 
d="M259 566q133 10 208 55t75 117q0 36 -20 56t-52 20q-69 0 -129.5 -69.5t-81.5 -178.5zM-45 178l240 900l2 8q15 50 15 62q0 38 -25.5 55t-85.5 17l17 74q148 4 291 33q26 5 32 5t8.5 -4t2.5 -14q0 -6 -1.5 -13t-3.5 -16l-121 -457q56 44 117.5 67.5t122.5 23.5
q77 0 120 -41.5t43 -115.5q0 -82 -61 -142.5t-183 -99.5l36 -102q23 -63 37.5 -83t31.5 -20q18 0 42 27.5t49 77.5l58 -36q-52 -108 -109.5 -163t-118.5 -55q-65 0 -108.5 61.5t-105.5 256.5l-62 -7l-81 -299h-199z" />
    <glyph glyph-name="l" unicode="l" horiz-adv-x="479" 
d="M245 391q-8 -25 -10 -38.5t-2 -20.5q0 -17 5 -24t19 -7q13 0 32 18t65 78l59 -47q-76 -101 -137 -146t-121 -45t-95 35.5t-35 94.5q0 56 28 150q4 15 7 24l179 615q7 23 10 41t4 29q0 40 -25 56t-84 16l18 74q150 4 295 33q25 5 32 5q6 0 9 -4.5t3 -13.5q0 -4 -3 -14
t-3 -15z" />
    <glyph glyph-name="m" unicode="m" horiz-adv-x="1273" 
d="M287 429l-84 -251h-197l149 527q3 13 5 24t2 17q0 12 -5 19t-11 7q-12 0 -30.5 -16t-61.5 -65l-54 41q80 98 138 140.5t107 42.5q48 0 73.5 -30t25.5 -86q0 -18 -3 -44.5t-12 -78.5q103 126 173 182.5t126 56.5q54 0 85 -35.5t31 -95.5q0 -16 -3 -36.5t-10 -44.5
q74 99 149.5 155.5t137.5 56.5q57 0 90.5 -36.5t33.5 -100.5q0 -25 -6.5 -53.5t-18.5 -67.5l-84 -254l-3 -12q-9 -27 -9 -36q0 -10 3.5 -16t11.5 -6q12 0 33 20.5t57 70.5l57 -39q-75 -117 -134.5 -168.5t-117.5 -51.5q-57 0 -87 33.5t-30 98.5q0 24 7.5 60.5t22.5 81.5
l82 249q10 32 13 43t3 17q0 11 -5.5 19t-13.5 8q-47 0 -129 -102.5t-130 -243.5l-83 -251h-186l156 507q6 21 9.5 38t3.5 22q0 12 -5.5 19.5t-12.5 7.5q-50 0 -131 -100.5t-128 -242.5z" />
    <glyph glyph-name="n" unicode="n" horiz-adv-x="897" 
d="M6 178l149 527q3 13 5 24t2 17q0 12 -5 19t-11 7q-12 0 -30.5 -16t-61.5 -65l-54 41q80 98 138 140.5t107 42.5q48 0 73.5 -30t25.5 -86q0 -18 -3 -44.5t-12 -78.5q92 119 171.5 179t141.5 60q56 0 89 -36.5t33 -100.5q0 -27 -6 -56.5t-16 -64.5l-86 -253q-2 -5 -4 -14
q-9 -24 -9 -35q0 -10 4.5 -16t10.5 -6q13 0 33.5 20.5t57.5 70.5l56 -39q-75 -117 -134.5 -168.5t-117.5 -51.5q-57 0 -87 33.5t-30 98.5q0 24 7.5 60.5t22.5 81.5l84 249q8 32 11 43t3 17q0 11 -5.5 19t-12.5 8q-47 0 -129.5 -102.5t-129.5 -243.5l-84 -251h-197z" />
    <glyph glyph-name="o" unicode="o" horiz-adv-x="799" 
d="M425 830q-53 0 -94 -42.5t-80 -141.5q-31 -76 -48.5 -152t-17.5 -127q0 -59 24 -89t72 -30t88 37t74 113q35 82 56 169.5t21 150.5q0 54 -25 83t-70 29zM-12 424q0 88 34 173t98 157q70 78 154.5 119.5t174.5 41.5q125 0 196 -70.5t71 -196.5q0 -80 -30.5 -159.5
t-87.5 -149.5q-70 -85 -159.5 -130t-186.5 -45q-124 0 -194 69.5t-70 190.5z" />
    <glyph glyph-name="p" unicode="p" horiz-adv-x="813" 
d="M196 249q145 5 234 113.5t89 281.5q0 94 -35.5 137t-113.5 43h-21zM-223 -119l21 77h6q66 0 99 32t71 169l157 586q-40 -25 -73.5 -55t-64.5 -65l-56 43q54 59 109 105.5t113 81.5l39 149l209 37l-36 -133q19 4 38.5 5.5t40.5 1.5q130 0 201.5 -70.5t71.5 -198.5
q0 -196 -155.5 -333.5t-392.5 -143.5l-21 -79q-4 -15 -5.5 -27.5t-1.5 -22.5q0 -41 28.5 -60.5t97.5 -21.5l-21 -77h-475z" />
    <glyph glyph-name="q" unicode="q" horiz-adv-x="827" 
d="M449 840q-38 0 -77.5 -31t-79.5 -94q-48 -75 -73 -151.5t-25 -143.5q0 -52 19 -81.5t53 -29.5q42 0 81.5 32t76.5 98q44 77 70 160t26 141q0 48 -18.5 74t-52.5 26zM399 279q-46 -54 -101 -81.5t-115 -27.5q-88 0 -136.5 56t-48.5 158q0 82 35 171t102 173
q69 89 155.5 139.5t169.5 50.5q40 0 74.5 -14t73.5 -43l28 46h142l-218 -796q-2 -3 -4 -13q-11 -43 -11 -58q0 -39 23.5 -57t85.5 -25l-18 -77h-471l19 77h5q67 0 103.5 31.5t58.5 108.5z" />
    <glyph glyph-name="r" unicode="r" horiz-adv-x="602" 
d="M252 367l-48 -189h-193l123 509q3 12 4.5 23t1.5 24q0 16 -3.5 23t-11.5 7q-16 0 -32 -16t-43 -61l-62 39q65 105 111.5 147t97.5 42t76 -27.5t25 -85.5q0 -18 -10 -88q-5 -38 -7 -58q62 151 110 206.5t109 55.5q44 0 67 -32.5t23 -91.5q0 -54 -20 -84.5t-56 -30.5
q-26 0 -38.5 8.5t-19.5 28.5q-1 6 -4 19q-4 28 -18 28q-27 0 -84 -116.5t-98 -279.5z" />
    <glyph glyph-name="s" unicode="s" horiz-adv-x="619" 
d="M-35 313q0 35 21 55t55 20q24 0 43.5 -12t41.5 -42q6 -7 17 -22q43 -63 85 -63q29 0 47 17t18 43q0 23 -11.5 47t-48.5 73q-8 10 -22 28q-125 165 -125 259q0 89 66 147t166 58q84 0 138.5 -39t54.5 -98q0 -31 -18 -49.5t-48 -18.5q-23 0 -39.5 11t-36.5 38q-4 7 -10 17
q-40 58 -80 58q-25 0 -40.5 -13.5t-15.5 -34.5q0 -28 64 -111q22 -32 37 -50l15 -21q100 -135 100 -231t-68 -155.5t-177 -59.5q-99 0 -164 42.5t-65 106.5z" />
    <glyph glyph-name="t" unicode="t" horiz-adv-x="506" 
d="M411 361q-80 -106 -142 -149t-127 -43q-57 0 -89.5 31.5t-32.5 88.5q0 26 8 65.5t23 95.5l107 358h-125l21 81q80 9 143 48t101 102h112l-35 -150h113v-81h-134l-117 -405q-7 -28 -10 -43t-3 -21q0 -18 6 -26.5t22 -8.5q13 0 39.5 25t69.5 76z" />
    <glyph glyph-name="u" unicode="u" horiz-adv-x="897" 
d="M793 900l-147 -526q-4 -13 -6.5 -24t-2.5 -18q0 -12 4.5 -18.5t11.5 -6.5q12 0 30.5 16t62.5 65l53 -40q-80 -100 -137.5 -142t-107.5 -42q-48 0 -73 29.5t-25 85.5q0 22 3.5 52t10.5 71q-93 -118 -171.5 -178t-141.5 -60q-57 0 -89.5 35.5t-32.5 98.5q0 28 6 58.5
t18 64.5l85 254q0 4 4 12q8 27 8 36q0 11 -3.5 16.5t-10.5 5.5q-12 0 -33 -20.5t-59 -70.5l-56 39q76 118 134.5 169t117.5 51q56 0 87 -33.5t31 -98.5q0 -24 -8 -60t-22 -82l-83 -249q-11 -32 -14 -43t-3 -16q0 -12 6 -20t13 -8q47 0 130 102.5t131 243.5l82 251h197z" />
    <glyph glyph-name="v" unicode="v" horiz-adv-x="846" 
d="M308 757h-142q-46 0 -60.5 -3.5t-14.5 -13.5l17.5 -30t17.5 -58q0 -30 -18 -47t-48 -17q-35 0 -55.5 30.5t-20.5 83.5q0 66 33.5 116t91.5 71q53 19 156 24h21q57 2 116 7q15 1 18 1q22 0 29.5 -3t7.5 -10q0 -20 -45 -124q-24 -54 -37 -86q-51 -125 -73.5 -189.5
t-22.5 -94.5q0 -48 27 -73.5t79 -25.5q105 0 181.5 81.5t76.5 194.5q0 31 -7.5 59t-29.5 70q-4 6 -9 14q-33 56 -33 97q0 43 19 65.5t57 22.5q54 0 84 -50t30 -141q0 -110 -31 -208t-93 -183q-60 -85 -137 -128t-171 -43q-112 0 -174 50t-62 139q0 44 18.5 88.5t57.5 92.5
q14 18 44 53q88 99 102 168z" />
    <glyph glyph-name="w" unicode="w" horiz-adv-x="1224" 
d="M586 351q-86 -98 -158 -140t-150 -42q-82 0 -136.5 56.5t-54.5 141.5q0 42 24.5 93.5t68.5 95.5q10 14 33 36q101 104 112 165h-180q-31 0 -42.5 -4.5t-11.5 -13.5l17.5 -29.5t17.5 -57.5q0 -30 -18 -47t-48 -17q-35 0 -55.5 30.5t-20.5 83.5q0 66 33.5 116t91.5 72
q55 19 159 22h20q79 2 153 8q16 1 18 1q10 0 16.5 -3.5t6.5 -10.5q0 -13 -23.5 -68t-78.5 -166q-65 -133 -83 -182t-18 -77q0 -45 24 -68.5t69 -23.5q79 0 149 73t112 200q-8 90 -10 121.5t-2 45.5q0 70 25.5 113t67.5 43q36 0 56 -27t20 -75q0 -44 -21.5 -102.5
t-65.5 -135.5q-4 -22 -4.5 -40t-0.5 -33q0 -85 30.5 -129.5t87.5 -44.5q75 0 139.5 80.5t64.5 179.5q0 58 -36 125l-3 4q-2 4 -7 12q-32 57 -32 99q0 43 18.5 65.5t55.5 22.5q58 0 87 -52.5t29 -156.5q0 -98 -36 -200t-99 -190q-57 -73 -120.5 -113.5t-125.5 -40.5
q-70 0 -113.5 50t-51.5 135z" />
    <glyph glyph-name="x" unicode="x" horiz-adv-x="831" 
d="M296 420q-84 -143 -142.5 -198.5t-117.5 -55.5q-46 0 -75 25.5t-29 67.5q0 39 19.5 61.5t51.5 22.5q24 0 51.5 -29t39.5 -29q20 0 62 60t104 172l-54 151q-4 10 -10 29q-29 84 -56 84q-20 0 -62 -52q-10 -14 -16 -21l-58 37q50 91 100.5 132t108.5 41q60 0 97 -40.5
t86 -173.5q75 121 127 167.5t110 46.5q48 0 75 -25.5t27 -69.5q0 -37 -17 -57.5t-48 -20.5q-24 0 -51 29.5t-40 29.5q-29 0 -132 -167l-15 -24l95 -244q15 -37 25 -49t22 -12q14 0 28 14t48 66l62 -40q-54 -95 -106 -142t-104 -47q-60 0 -106 58.5t-100 202.5z" />
    <glyph glyph-name="y" unicode="y" horiz-adv-x="738" 
d="M238 115l-134 553q-11 41 -20 58.5t-20 17.5q-13 0 -32.5 -23.5t-47.5 -76.5l-58 34q54 123 108 180t118 57q54 0 85 -44.5t67 -201.5l84 -362q67 87 106.5 175t39.5 140q0 47 -25.5 116t-25.5 93q0 41 22 64.5t61 23.5q49 0 75.5 -39t26.5 -112q0 -102 -59 -242.5
t-168 -289.5q-130 -181 -259 -270.5t-259 -89.5q-85 0 -134 28t-49 76q0 33 22 53.5t59 20.5q39 0 99 -35.5t97 -35.5q48 0 102.5 32.5t118.5 99.5z" />
    <glyph glyph-name="z" unicode="z" horiz-adv-x="773" 
d="M130 368q27 2 48.5 3.5t36.5 1.5q85 0 171.5 -42.5t88.5 -42.5q12 0 18 6t6 18q0 4 -7.5 29.5t-7.5 43.5q0 35 19 53.5t55 18.5q32 0 52.5 -24.5t20.5 -65.5q0 -87 -75.5 -144.5t-188.5 -57.5q-45 0 -97 13.5t-132 45.5q-19 8 -45.5 21t-33.5 13q-9 0 -12 -27
q-3 -17 -4 -26q-3 -17 -17.5 -28.5t-33.5 -11.5q-29 0 -46.5 18t-17.5 49q0 102 370 351l24 17l172 115q-27 -4 -39.5 -5t-22.5 -1q-36 0 -68.5 6t-61.5 18q-27 9 -59.5 35t-46.5 26q-8 0 -12.5 -8t-4.5 -18q0 -9 4 -28.5t4 -30.5q0 -27 -15.5 -42t-45.5 -15
q-35 0 -53.5 20.5t-18.5 61.5q0 74 65.5 129t158.5 55q71 0 172.5 -43.5t124.5 -43.5q13 0 19 37q1 12 2 21q4 14 17 22.5t35 8.5q30 0 47.5 -18.5t17.5 -51.5q0 -87 -268 -267l-30 -21z" />
    <glyph glyph-name="braceleft" unicode="{" horiz-adv-x="867" 
d="M695 1344v-47q-92 -3 -125.5 -43t-33.5 -161v-102q0 -173 -41.5 -236t-150.5 -88q109 -25 150.5 -87t41.5 -236v-103q0 -121 33.5 -161.5t125.5 -42.5v-45q-180 0 -245.5 55.5t-65.5 210.5v147q0 127 -43 174.5t-163 58.5v59q120 11 163 58t43 175v147q0 154 65.5 210.5
t245.5 56.5z" />
    <glyph glyph-name="bar" unicode="|" horiz-adv-x="976" 
d="M410 1381h158v-1573h-158v1573z" />
    <glyph glyph-name="braceright" unicode="}" horiz-adv-x="868" 
d="M172 1344q181 0 247 -56.5t66 -210.5v-147q0 -128 43.5 -175t163.5 -58v-59q-120 -11 -163.5 -58.5t-43.5 -174.5v-147q0 -153 -65.5 -209.5t-237.5 -56.5h-10v45q91 1 126 42t35 162v103q0 174 40.5 236t151.5 87q-111 25 -151.5 88t-40.5 236v102q0 120 -35 160.5
t-126 43.5v47z" />
    <glyph glyph-name="asciitilde" unicode="~" horiz-adv-x="1393" 
d="M1216 795v-169q-79 -54 -150.5 -80t-139.5 -26q-36 0 -71.5 6t-70.5 17q-18 7 -54 19q-169 58 -257 58q-65 0 -135.5 -29t-159.5 -91v169q82 57 157 84t141 27q90 0 223 -45l2 -1q15 -5 43 -14q119 -42 184 -42q66 0 135 28t153 89z" />
    <glyph glyph-name="Adieresis" unicode="&#xc4;" horiz-adv-x="1103" 
d="M325 691h291l20 427zM-162 178v82q42 12 94.5 61t117.5 142l621 853h222l-37 -872v-35q0 -76 21 -108.5t70 -40.5l-17 -82h-485l17 81q70 2 100.5 41t36.5 133l12 153h-359l-106 -146q-19 -29 -29.5 -56.5t-10.5 -49.5q0 -32 19.5 -51t56.5 -23v-82h-344zM866 1527
q0 35 29 63t64 28q38 0 65 -27t27 -64q0 -42 -25.5 -68.5t-66.5 -26.5q-37 0 -65 28t-28 67zM588 1527q0 35 28 63t63 28q39 0 66 -27.5t27 -63.5q0 -42 -26 -68.5t-67 -26.5q-37 0 -64 28t-27 67z" />
    <glyph glyph-name="Aring" unicode="&#xc5;" horiz-adv-x="1122" 
d="M707 1510q0 -43 28.5 -71.5t72.5 -28.5q42 0 71 28.5t29 71.5q0 41 -30 70.5t-70 29.5q-44 0 -72.5 -29t-28.5 -71zM623 1510q0 77 52.5 130.5t132.5 53.5q76 0 129.5 -53.5t53.5 -130.5q0 -79 -53.5 -131.5t-129.5 -52.5q-80 0 -132.5 52.5t-52.5 131.5zM325 691h291
l20 427zM-162 178v82q42 13 95 63t117 140l602 829l240 -29l-36 -819v-35q0 -76 21 -108.5t70 -40.5l-17 -82h-485l17 81q70 2 100.5 41t36.5 133l12 153h-359l-106 -146q-19 -29 -29.5 -56.5t-10.5 -49.5q0 -32 19.5 -51t56.5 -23v-82h-344z" />
    <glyph glyph-name="Ccedilla" unicode="&#xc7;" horiz-adv-x="1138" 
d="M1002 554l-73 -301q-82 -51 -177 -76t-203 -25q-226 0 -360 131.5t-134 353.5q0 125 45 241t130 212q100 113 226 170.5t275 57.5q108 0 202 -27.5t174 -83.5l-36 -256l-91 10v7q0 121 -63 189t-174 68q-87 0 -156.5 -39.5t-118.5 -117.5q-35 -53 -62 -122t-49 -165
q-18 -72 -26 -132t-8 -108q0 -138 61.5 -213.5t175.5 -75.5q115 0 203.5 82t141.5 237zM306 -109l30 68q55 -30 99 -43t86 -13q36 0 54 16.5t18 50.5q0 30 -20 45.5t-58 15.5q-14 0 -30.5 -2.5t-39.5 -7.5l50 157h54l-26 -87q11 2 24 3.5t25 1.5q66 0 104.5 -35.5
t38.5 -95.5q0 -63 -46 -100t-129 -37q-45 0 -100.5 15t-133.5 48z" />
    <glyph glyph-name="Eacute" unicode="&#xc9;" horiz-adv-x="1044" 
d="M-127 178l20 84q76 9 115 43t62 117l173 625q7 29 11 50.5t4 34.5q0 35 -29.5 54.5t-87.5 22.5l24 83h870l-59 -265l-76 7v19q0 81 -42.5 114t-146.5 33h-176l-102 -388h112q80 0 129.5 32t79.5 101h78l-94 -398h-83v6q3 25 3 37q0 67 -36.5 99t-114.5 32h-100l-80 -307
q-8 -28 -9.5 -40.5t-1.5 -24.5q0 -43 33 -62t112 -19q83 0 136.5 10t90.5 30q39 23 77.5 65.5t85.5 114.5h88l-108 -310h-958zM587 1401h-82l236 233q22 22 45 33t43 11q26 0 44.5 -20t18.5 -47q0 -19 -12.5 -35t-41.5 -34z" />
    <glyph glyph-name="Ntilde" unicode="&#xd1;" horiz-adv-x="1177" 
d="M-96 178l27 84q68 9 104.5 50.5t78.5 194.5l162 575q-26 66 -62 95t-94 32l19 83h307l402 -778l130 472q11 41 17.5 77.5t6.5 58.5q0 46 -23 66t-89 30l14 74h362l-20 -83h-8q-62 0 -99 -48t-75 -188l-157 -576l107 -219h-277l-401 786l-139 -490q-10 -35 -14.5 -62.5
t-4.5 -48.5q0 -49 30 -73.5t94 -29.5l-24 -82h-374zM1003 1636q-17 -88 -56 -134.5t-97 -46.5q-9 0 -17.5 0.5t-24.5 5.5l-83 21q-10 2 -19.5 4t-17.5 2q-30 0 -47.5 -16t-28.5 -52h-50q15 88 54.5 135t98.5 47q12 0 23 -1.5t22 -4.5l67 -17q3 -1 13 -4q25 -6 34 -6
q32 0 50.5 16.5t27.5 50.5h51z" />
    <glyph glyph-name="Odieresis" unicode="&#xd6;" horiz-adv-x="1240" 
d="M707 1219q-77 0 -140 -44.5t-110 -132.5q-66 -123 -103 -267.5t-37 -281.5q0 -109 59.5 -174.5t157.5 -65.5q87 0 153.5 52t117.5 159q56 116 86.5 246.5t30.5 250.5q0 125 -56 191.5t-159 66.5zM53 619q0 128 44.5 246.5t130.5 217.5q95 113 220 172.5t264 59.5
q215 0 347 -126.5t132 -329.5q0 -129 -43 -246.5t-124 -215.5q-97 -118 -222 -179t-268 -61q-217 0 -349 127t-132 335zM822 1527q0 35 29 63t64 28q38 0 64.5 -27t26.5 -64q0 -42 -26 -68.5t-65 -26.5q-38 0 -65.5 28t-27.5 67zM544 1527q0 35 28 63t63 28q38 0 65 -27.5
t27 -63.5q0 -42 -26 -68.5t-66 -26.5q-37 0 -64 28t-27 67z" />
    <glyph glyph-name="Udieresis" unicode="&#xdc;" horiz-adv-x="1293" 
d="M209 1209l24 83h524l-19 -79h-4q-67 0 -106.5 -41.5t-64.5 -138.5l-101 -387q-14 -57 -22 -102.5t-8 -77.5q0 -97 60.5 -149t171.5 -52q142 0 225.5 81.5t132.5 271.5l94 367q10 33 14.5 65.5t4.5 59.5q0 48 -25.5 73.5t-76.5 29.5l22 79h336l-17 -83q-59 -3 -94.5 -50.5
t-72.5 -186.5l-97 -372q-61 -238 -180 -340.5t-331 -102.5q-207 0 -316 76.5t-109 222.5q0 37 7 82t22 104l101 388q6 23 9 45.5t3 41.5q0 43 -26.5 66.5t-80.5 25.5zM998 1527q0 35 29 63t64 28q38 0 64.5 -27t26.5 -64q0 -42 -26 -68.5t-65 -26.5q-37 0 -65 28t-28 67z
M720 1527q0 35 28 63t63 28q39 0 66 -27.5t27 -63.5q0 -42 -26.5 -68.5t-66.5 -26.5q-37 0 -64 28t-27 67z" />
    <glyph glyph-name="aacute" unicode="&#xe1;" horiz-adv-x="866" 
d="M439 838q-36 0 -71.5 -31.5t-75.5 -103.5q-46 -81 -72 -159t-26 -128q0 -49 17.5 -75t52.5 -26q41 0 79.5 33.5t80.5 107.5q43 75 69.5 153.5t26.5 129.5q0 45 -22 72t-59 27zM395 283q-55 -60 -108 -88.5t-111 -28.5q-88 0 -138 57t-50 158q0 77 32.5 159t94.5 164
q78 102 167.5 158.5t172.5 56.5q44 0 81.5 -15t70.5 -46l46 49h137l-174 -497q-9 -23 -13.5 -41.5t-4.5 -29.5q0 -12 7.5 -21.5t17.5 -9.5q20 0 45.5 26t56.5 80l53 -44q-76 -115 -136.5 -160.5t-132.5 -45.5q-51 0 -79 29.5t-35 89.5zM444 1000h-82l236 233
q22 22 44.5 33.5t43.5 11.5q26 0 44.5 -20.5t18.5 -47.5q0 -19 -12.5 -35.5t-41.5 -33.5z" />
    <glyph glyph-name="agrave" unicode="&#xe0;" horiz-adv-x="866" 
d="M439 838q-36 0 -71.5 -31.5t-75.5 -103.5q-46 -81 -72 -159t-26 -128q0 -49 17.5 -75t52.5 -26q41 0 79.5 33.5t80.5 107.5q43 75 69.5 153.5t26.5 129.5q0 45 -22 72t-59 27zM395 283q-55 -60 -108 -88.5t-111 -28.5q-88 0 -138 57t-50 158q0 77 32.5 159t94.5 164
q78 102 167.5 158.5t172.5 56.5q44 0 81.5 -15t70.5 -46l46 49h137l-174 -497q-9 -23 -13.5 -41.5t-4.5 -29.5q0 -12 7.5 -21.5t17.5 -9.5q20 0 45.5 26t56.5 80l53 -44q-76 -115 -136.5 -160.5t-132.5 -45.5q-51 0 -79 29.5t-35 89.5zM646 1000h-81l-201 148
q-27 19 -37 33.5t-10 28.5q0 30 17.5 49.5t44.5 19.5q19 0 37 -11.5t39 -36.5z" />
    <glyph glyph-name="acircumflex" unicode="&#xe2;" horiz-adv-x="866" 
d="M439 838q-36 0 -71.5 -31.5t-75.5 -103.5q-46 -81 -72 -159t-26 -128q0 -49 17.5 -75t52.5 -26q41 0 79.5 33.5t80.5 107.5q43 75 69.5 153.5t26.5 129.5q0 45 -22 72t-59 27zM395 283q-55 -60 -108 -88.5t-111 -28.5q-88 0 -138 57t-50 158q0 77 32.5 159t94.5 164
q78 102 167.5 158.5t172.5 56.5q44 0 81.5 -15t70.5 -46l46 49h137l-174 -497q-9 -23 -13.5 -41.5t-4.5 -29.5q0 -12 7.5 -21.5t17.5 -9.5q20 0 45.5 26t56.5 80l53 -44q-76 -115 -136.5 -160.5t-132.5 -45.5q-51 0 -79 29.5t-35 89.5zM719 1000h-61l-128 137l-189 -137h-79
l235 267h96z" />
    <glyph glyph-name="adieresis" unicode="&#xe4;" horiz-adv-x="866" 
d="M439 838q-36 0 -71.5 -31.5t-75.5 -103.5q-46 -81 -72 -159t-26 -128q0 -49 17.5 -75t52.5 -26q41 0 79.5 33.5t80.5 107.5q43 75 69.5 153.5t26.5 129.5q0 45 -22 72t-59 27zM395 283q-55 -60 -108 -88.5t-111 -28.5q-88 0 -138 57t-50 158q0 77 32.5 159t94.5 164
q78 102 167.5 158.5t172.5 56.5q44 0 81.5 -15t70.5 -46l46 49h137l-174 -497q-9 -23 -13.5 -41.5t-4.5 -29.5q0 -12 7.5 -21.5t17.5 -9.5q20 0 45.5 26t56.5 80l53 -44q-76 -115 -136.5 -160.5t-132.5 -45.5q-51 0 -79 29.5t-35 89.5zM572 1126q0 35 29 63.5t64 28.5
q38 0 65 -27t27 -65q0 -42 -25.5 -68t-66.5 -26q-37 0 -65 27.5t-28 66.5zM294 1126q0 35 28 63.5t64 28.5q39 0 65.5 -28t26.5 -64q0 -42 -26 -68t-66 -26q-38 0 -65 27.5t-27 66.5z" />
    <glyph glyph-name="atilde" unicode="&#xe3;" horiz-adv-x="866" 
d="M439 838q-36 0 -71.5 -31.5t-75.5 -103.5q-46 -81 -72 -159t-26 -128q0 -49 17.5 -75t52.5 -26q41 0 79.5 33.5t80.5 107.5q43 75 69.5 153.5t26.5 129.5q0 45 -22 72t-59 27zM395 283q-55 -60 -108 -88.5t-111 -28.5q-88 0 -138 57t-50 158q0 77 32.5 159t94.5 164
q78 102 167.5 158.5t172.5 56.5q44 0 81.5 -15t70.5 -46l46 49h137l-174 -497q-9 -23 -13.5 -41.5t-4.5 -29.5q0 -12 7.5 -21.5t17.5 -9.5q20 0 45.5 26t56.5 80l53 -44q-76 -115 -136.5 -160.5t-132.5 -45.5q-51 0 -79 29.5t-35 89.5zM748 1236q-17 -89 -56 -136t-99 -47
q-7 0 -16 1.5t-26 5.5l-82 21q-11 2 -20.5 4t-17.5 2q-29 0 -46.5 -15.5t-28.5 -51.5h-51q15 87 55.5 134t99.5 47q12 0 22 -1.5t21 -4.5l67 -18q5 0 14 -3q24 -6 33 -6q33 0 51 16.5t27 51.5h53z" />
    <glyph glyph-name="aring" unicode="&#xe5;" horiz-adv-x="866" 
d="M442 1147q0 -43 28.5 -72.5t70.5 -29.5q43 0 72 29.5t29 72.5q0 41 -29.5 71t-71.5 30t-70.5 -29.5t-28.5 -71.5zM358 1147q0 78 52.5 130.5t130.5 52.5t131 -52.5t53 -130.5t-53 -131.5t-131 -53.5t-130.5 53.5t-52.5 131.5zM395 283q-55 -60 -108 -88.5t-111 -28.5
q-88 0 -138 57t-50 158q0 77 32.5 159t94.5 164q78 102 167.5 158.5t172.5 56.5q44 0 81.5 -15t70.5 -46l46 49h137l-165 -474l-2 -9q-24 -67 -24 -90q1 -10 4.5 -15t12.5 -5q34 0 106 94l5 6l51 -44q-76 -115 -136.5 -160.5t-132.5 -45.5q-51 0 -79 29.5t-35 89.5zM439 838
q-36 0 -71.5 -31.5t-75.5 -103.5q-46 -81 -72 -159t-26 -128q0 -49 17.5 -75t52.5 -26q41 0 79.5 33.5t80.5 107.5q43 75 69.5 153.5t26.5 129.5q0 45 -22 72t-59 27z" />
    <glyph glyph-name="ccedilla" unicode="&#xe7;" horiz-adv-x="711" 
d="M588 375q-78 -108 -161.5 -159.5t-180.5 -51.5q-118 0 -181 64t-63 186q0 86 35.5 174t100.5 163q68 79 150 123t164 44q78 0 130 -41t52 -99q0 -36 -22 -57.5t-58 -21.5q-29 0 -50 15t-35 45q-4 9 -10 25q-20 50 -55 50q-67 0 -135 -118.5t-68 -261.5q0 -84 31.5 -130
t88.5 -46q46 0 99.5 35.5t113.5 104.5zM33 -109l30 68q55 -30 99.5 -43t85.5 -13q37 0 55 16.5t18 50.5q0 30 -20.5 45.5t-58.5 15.5q-12 0 -29.5 -2.5t-38.5 -7.5l49 157h54l-27 -87q12 2 25.5 3.5t25.5 1.5q66 0 104.5 -35.5t38.5 -95.5q0 -63 -46.5 -100t-130.5 -37
q-44 0 -99.5 15t-134.5 48z" />
    <glyph glyph-name="eacute" unicode="&#xe9;" horiz-adv-x="670" 
d="M564 391q-72 -114 -159.5 -170t-192.5 -56q-108 0 -167 58.5t-59 162.5q0 79 30.5 160t93.5 166q72 96 162.5 151.5t175.5 55.5q80 0 124 -37.5t44 -105.5q0 -107 -110 -189t-312 -123q-2 -12 -3 -24t-1 -30q0 -59 27.5 -93.5t74.5 -34.5q50 0 106 39t111 112zM201 543
q126 21 204.5 82.5t78.5 133.5q0 33 -21 52.5t-53 19.5q-72 0 -132 -81t-77 -207zM384 1000h-81l236 233q23 22 45 33.5t43 11.5q26 0 44.5 -20.5t18.5 -47.5q0 -19 -12.5 -35.5t-41.5 -33.5z" />
    <glyph glyph-name="egrave" unicode="&#xe8;" horiz-adv-x="693" 
d="M564 391q-72 -114 -159.5 -170t-192.5 -56q-108 0 -167 58.5t-59 162.5q0 79 30.5 160t93.5 166q72 96 162.5 151.5t175.5 55.5q80 0 124 -37.5t44 -105.5q0 -107 -110 -189t-312 -123q-2 -12 -3 -24t-1 -30q0 -59 27.5 -93.5t74.5 -34.5q50 0 106 39t111 112zM201 543
q126 21 204.5 82.5t78.5 133.5q0 33 -21 52.5t-53 19.5q-72 0 -132 -81t-77 -207zM586 1000h-80l-201 148q-26 19 -36.5 33.5t-10.5 28.5q0 30 17.5 49.5t44.5 19.5q20 0 37.5 -11.5t38.5 -36.5z" />
    <glyph glyph-name="ecircumflex" unicode="&#xea;" horiz-adv-x="679" 
d="M564 391q-72 -114 -159.5 -170t-192.5 -56q-108 0 -167 58.5t-59 162.5q0 79 30.5 160t93.5 166q72 96 162.5 151.5t175.5 55.5q80 0 124 -37.5t44 -105.5q0 -107 -110 -189t-312 -123q-2 -12 -3 -24t-1 -30q0 -59 27.5 -93.5t74.5 -34.5q50 0 106 39t111 112zM201 543
q126 21 204.5 82.5t78.5 133.5q0 33 -21 52.5t-53 19.5q-72 0 -132 -81t-77 -207zM660 1000h-61l-128 137l-189 -137h-80l236 267h96z" />
    <glyph glyph-name="edieresis" unicode="&#xeb;" horiz-adv-x="669" 
d="M564 391q-72 -114 -159.5 -170t-192.5 -56q-108 0 -167 58.5t-59 162.5q0 79 30.5 160t93.5 166q72 96 162.5 151.5t175.5 55.5q80 0 124 -37.5t44 -105.5q0 -107 -110 -189t-312 -123q-2 -12 -3 -24t-1 -30q0 -59 27.5 -93.5t74.5 -34.5q50 0 106 39t111 112zM201 543
q126 21 204.5 82.5t78.5 133.5q0 33 -21 52.5t-53 19.5q-72 0 -132 -81t-77 -207zM514 1126q0 35 29 63.5t63 28.5q39 0 65.5 -27t26.5 -65q0 -42 -26 -68t-66 -26q-37 0 -64.5 27.5t-27.5 66.5zM236 1126q0 35 28 63.5t63 28.5q38 0 65 -28t27 -64q0 -42 -26.5 -68
t-65.5 -26q-37 0 -64 27.5t-27 66.5z" />
    <glyph glyph-name="iacute" unicode="&#xed;" horiz-adv-x="477" 
d="M267 391q-7 -22 -11 -38t-4 -25q0 -13 6 -21.5t15 -8.5q14 0 37 22t62 73l57 -45q-73 -100 -133 -144.5t-124 -44.5q-55 0 -88 36.5t-33 94.5q0 32 7 69.5t29 104.5l73 221q7 23 10.5 38t3.5 25q0 14 -6.5 20.5t-18.5 6.5q-15 0 -36 -20t-60 -75l-55 46q61 93 124 139.5
t134 46.5q59 0 90 -31.5t31 -87.5q0 -31 -9 -72.5t-26 -94.5zM240 1000h-81l235 233q23 22 45.5 33.5t43.5 11.5q25 0 43.5 -20.5t18.5 -47.5q0 -19 -12.5 -35.5t-40.5 -33.5z" />
    <glyph glyph-name="igrave" unicode="&#xec;" horiz-adv-x="509" 
d="M267 391q-7 -22 -11 -38t-4 -25q0 -13 6 -21.5t15 -8.5q14 0 37 22t62 73l57 -45q-73 -100 -133 -144.5t-124 -44.5q-55 0 -88 36.5t-33 94.5q0 32 7 69.5t29 104.5l73 221q7 23 10.5 38t3.5 25q0 14 -6.5 20.5t-18.5 6.5q-15 0 -36 -20t-60 -75l-55 46q61 93 124 139.5
t134 46.5q59 0 90 -31.5t31 -87.5q0 -31 -9 -72.5t-26 -94.5zM442 1000h-80l-202 148q-26 19 -36.5 33.5t-10.5 28.5q0 30 17.5 49.5t45.5 19.5q19 0 37 -11.5t38 -36.5z" />
    <glyph glyph-name="icircumflex" unicode="&#xee;" horiz-adv-x="486" 
d="M267 391q-7 -22 -11 -38t-4 -25q0 -13 6 -21.5t15 -8.5q14 0 37 22t62 73l57 -45q-73 -100 -133 -144.5t-124 -44.5q-55 0 -88 36.5t-33 94.5q0 32 7 69.5t29 104.5l73 221q7 23 10.5 38t3.5 25q0 14 -6.5 20.5t-18.5 6.5q-15 0 -36 -20t-60 -75l-55 46q61 93 124 139.5
t134 46.5q59 0 90 -31.5t31 -87.5q0 -31 -9 -72.5t-26 -94.5zM515 1000h-61l-127 137l-190 -137h-79l235 267h96z" />
    <glyph glyph-name="idieresis" unicode="&#xef;" horiz-adv-x="475" 
d="M267 391q-7 -22 -11 -38t-4 -25q0 -13 6 -21.5t15 -8.5q14 0 37 22t62 73l57 -45q-73 -100 -133 -144.5t-124 -44.5q-55 0 -88 36.5t-33 94.5q0 32 7 69.5t29 104.5l73 221q7 23 10.5 38t3.5 25q0 14 -6.5 20.5t-18.5 6.5q-15 0 -36 -20t-60 -75l-55 46q61 93 124 139.5
t134 46.5q59 0 90 -31.5t31 -87.5q0 -31 -9 -72.5t-26 -94.5zM369 1126q0 35 28.5 63.5t64.5 28.5q39 0 65.5 -27t26.5 -65q0 -42 -26 -68t-66 -26q-38 0 -65.5 27.5t-27.5 66.5zM90 1126q0 35 28.5 63.5t64.5 28.5q38 0 64.5 -28t26.5 -64q0 -42 -26 -68t-65 -26t-66 27.5
t-27 66.5z" />
    <glyph glyph-name="ntilde" unicode="&#xf1;" horiz-adv-x="897" 
d="M6 178l149 527q3 13 5 24t2 17q0 12 -5 19t-11 7q-12 0 -30.5 -16t-61.5 -65l-54 41q80 98 138 140.5t107 42.5q48 0 73.5 -30t25.5 -86q0 -18 -3 -44.5t-12 -78.5q92 119 171.5 179t141.5 60q56 0 89 -36.5t33 -100.5q0 -27 -6 -56.5t-16 -64.5l-86 -253q-2 -5 -4 -14
q-9 -24 -9 -35q0 -10 4.5 -16t10.5 -6q13 0 33.5 20.5t57.5 70.5l56 -39q-75 -117 -134.5 -168.5t-117.5 -51.5q-57 0 -87 33.5t-30 98.5q0 24 7.5 60.5t22.5 81.5l84 249q8 32 11 43t3 17q0 11 -5.5 19t-12.5 8q-47 0 -129.5 -102.5t-129.5 -243.5l-84 -251h-197zM738 1236
q-17 -89 -56 -136t-99 -47q-7 0 -16 1.5t-26 5.5l-81 21q-11 2 -20.5 4t-18.5 2q-29 0 -46 -15.5t-28 -51.5h-52q16 87 56 134t99 47q12 0 23 -1.5t21 -4.5l66 -18q5 0 15 -3q24 -6 32 -6q34 0 52 16.5t27 51.5h52z" />
    <glyph glyph-name="oacute" unicode="&#xf3;" horiz-adv-x="798" 
d="M425 830q-53 0 -94 -42.5t-80 -141.5q-31 -76 -48.5 -152t-17.5 -127q0 -59 24 -89t72 -30t88 37t74 113q35 82 56 169.5t21 150.5q0 54 -25 83t-70 29zM-12 424q0 88 34 173t98 157q70 78 154.5 119.5t174.5 41.5q125 0 196 -70.5t71 -196.5q0 -80 -30.5 -159.5
t-87.5 -149.5q-70 -85 -159.5 -130t-186.5 -45q-124 0 -194 69.5t-70 190.5zM418 1000h-81l235 233q23 22 45.5 33.5t43.5 11.5q25 0 44 -20.5t19 -47.5q0 -19 -13 -35.5t-41 -33.5z" />
    <glyph glyph-name="ograve" unicode="&#xf2;" horiz-adv-x="799" 
d="M425 830q-53 0 -94 -42.5t-80 -141.5q-31 -76 -48.5 -152t-17.5 -127q0 -59 24 -89t72 -30t88 37t74 113q35 82 56 169.5t21 150.5q0 54 -25 83t-70 29zM-12 424q0 88 34 173t98 157q70 78 154.5 119.5t174.5 41.5q125 0 196 -70.5t71 -196.5q0 -80 -30.5 -159.5
t-87.5 -149.5q-70 -85 -159.5 -130t-186.5 -45q-124 0 -194 69.5t-70 190.5zM620 1000h-80l-202 148q-26 19 -36 33.5t-10 28.5q0 30 17 49.5t45 19.5q19 0 37 -11.5t39 -36.5z" />
    <glyph glyph-name="ocircumflex" unicode="&#xf4;" horiz-adv-x="799" 
d="M425 830q-53 0 -94 -42.5t-80 -141.5q-31 -76 -48.5 -152t-17.5 -127q0 -59 24 -89t72 -30t88 37t74 113q35 82 56 169.5t21 150.5q0 54 -25 83t-70 29zM-12 424q0 88 34 173t98 157q70 78 154.5 119.5t174.5 41.5q125 0 196 -70.5t71 -196.5q0 -80 -30.5 -159.5
t-87.5 -149.5q-70 -85 -159.5 -130t-186.5 -45q-124 0 -194 69.5t-70 190.5zM694 1000h-62l-127 137l-189 -137h-80l236 267h96z" />
    <glyph glyph-name="odieresis" unicode="&#xf6;" horiz-adv-x="795" 
d="M425 830q-53 0 -94 -42.5t-80 -141.5q-31 -76 -48.5 -152t-17.5 -127q0 -59 24 -89t72 -30t88 37t74 113q35 82 56 169.5t21 150.5q0 54 -25 83t-70 29zM-12 424q0 88 34 173t98 157q70 78 154.5 119.5t174.5 41.5q125 0 196 -70.5t71 -196.5q0 -80 -30.5 -159.5
t-87.5 -149.5q-70 -85 -159.5 -130t-186.5 -45q-124 0 -194 69.5t-70 190.5zM547 1126q0 35 29 63.5t64 28.5q38 0 65 -27t27 -65q0 -42 -26 -68t-66 -26q-38 0 -65.5 27.5t-27.5 66.5zM269 1126q0 35 28 63.5t63 28.5q38 0 65 -28t27 -64q0 -42 -25.5 -68t-66.5 -26
q-37 0 -64 27.5t-27 66.5z" />
    <glyph glyph-name="otilde" unicode="&#xf5;" horiz-adv-x="798" 
d="M425 830q-53 0 -94 -42.5t-80 -141.5q-31 -76 -48.5 -152t-17.5 -127q0 -59 24 -89t72 -30t88 37t74 113q35 82 56 169.5t21 150.5q0 54 -25 83t-70 29zM-12 424q0 88 34 173t98 157q70 78 154.5 119.5t174.5 41.5q125 0 196 -70.5t71 -196.5q0 -80 -30.5 -159.5
t-87.5 -149.5q-70 -85 -159.5 -130t-186.5 -45q-124 0 -194 69.5t-70 190.5zM722 1236q-16 -89 -56 -136t-98 -47q-8 0 -17 1.5t-25 5.5l-82 21q-11 2 -20.5 4t-17.5 2q-29 0 -47 -15.5t-29 -51.5h-50q15 87 55.5 134t98.5 47q11 0 22 -1.5t22 -4.5l67 -18q5 0 14 -3
q24 -6 33 -6q33 0 51 16.5t27 51.5h52z" />
    <glyph glyph-name="uacute" unicode="&#xfa;" horiz-adv-x="897" 
d="M793 900l-147 -526q-4 -13 -6.5 -24t-2.5 -18q0 -12 4.5 -18.5t11.5 -6.5q12 0 30.5 16t62.5 65l53 -40q-80 -100 -137.5 -142t-107.5 -42q-48 0 -73 29.5t-25 85.5q0 22 3.5 52t10.5 71q-93 -118 -171.5 -178t-141.5 -60q-57 0 -89.5 35.5t-32.5 98.5q0 28 6 58.5
t18 64.5l85 254q0 4 4 12q8 27 8 36q0 11 -3.5 16.5t-10.5 5.5q-12 0 -33 -20.5t-59 -70.5l-56 39q76 118 134.5 169t117.5 51q56 0 87 -33.5t31 -98.5q0 -24 -8 -60t-22 -82l-83 -249q-11 -32 -14 -43t-3 -16q0 -12 6 -20t13 -8q47 0 130 102.5t131 243.5l82 251h197z
M432 1000h-80l235 233q23 22 45 33.5t44 11.5q25 0 43.5 -20.5t18.5 -47.5q0 -19 -12.5 -35.5t-41.5 -33.5z" />
    <glyph glyph-name="ugrave" unicode="&#xf9;" horiz-adv-x="897" 
d="M793 900l-147 -526q-4 -13 -6.5 -24t-2.5 -18q0 -12 4.5 -18.5t11.5 -6.5q12 0 30.5 16t62.5 65l53 -40q-80 -100 -137.5 -142t-107.5 -42q-48 0 -73 29.5t-25 85.5q0 22 3.5 52t10.5 71q-93 -118 -171.5 -178t-141.5 -60q-57 0 -89.5 35.5t-32.5 98.5q0 28 6 58.5
t18 64.5l85 254q0 4 4 12q8 27 8 36q0 11 -3.5 16.5t-10.5 5.5q-12 0 -33 -20.5t-59 -70.5l-56 39q76 118 134.5 169t117.5 51q56 0 87 -33.5t31 -98.5q0 -24 -8 -60t-22 -82l-83 -249q-11 -32 -14 -43t-3 -16q0 -12 6 -20t13 -8q47 0 130 102.5t131 243.5l82 251h197z
M635 1000h-81l-201 148q-27 19 -37 33.5t-10 28.5q0 30 17.5 49.5t44.5 19.5q20 0 38 -11.5t38 -36.5z" />
    <glyph glyph-name="ucircumflex" unicode="&#xfb;" horiz-adv-x="897" 
d="M793 900l-147 -526q-4 -13 -6.5 -24t-2.5 -18q0 -12 4.5 -18.5t11.5 -6.5q12 0 30.5 16t62.5 65l53 -40q-80 -100 -137.5 -142t-107.5 -42q-48 0 -73 29.5t-25 85.5q0 22 3.5 52t10.5 71q-93 -118 -171.5 -178t-141.5 -60q-57 0 -89.5 35.5t-32.5 98.5q0 28 6 58.5
t18 64.5l85 254q0 4 4 12q8 27 8 36q0 11 -3.5 16.5t-10.5 5.5q-12 0 -33 -20.5t-59 -70.5l-56 39q76 118 134.5 169t117.5 51q56 0 87 -33.5t31 -98.5q0 -24 -8 -60t-22 -82l-83 -249q-11 -32 -14 -43t-3 -16q0 -12 6 -20t13 -8q47 0 130 102.5t131 243.5l82 251h197z
M708 1000h-61l-127 137l-190 -137h-79l235 267h96z" />
    <glyph glyph-name="udieresis" unicode="&#xfc;" horiz-adv-x="897" 
d="M793 900l-147 -526q-4 -13 -6.5 -24t-2.5 -18q0 -12 4.5 -18.5t11.5 -6.5q12 0 30.5 16t62.5 65l53 -40q-80 -100 -137.5 -142t-107.5 -42q-48 0 -73 29.5t-25 85.5q0 22 3.5 52t10.5 71q-93 -118 -171.5 -178t-141.5 -60q-57 0 -89.5 35.5t-32.5 98.5q0 28 6 58.5
t18 64.5l85 254q0 4 4 12q8 27 8 36q0 11 -3.5 16.5t-10.5 5.5q-12 0 -33 -20.5t-59 -70.5l-56 39q76 118 134.5 169t117.5 51q56 0 87 -33.5t31 -98.5q0 -24 -8 -60t-22 -82l-83 -249q-11 -32 -14 -43t-3 -16q0 -12 6 -20t13 -8q47 0 130 102.5t131 243.5l82 251h197z
M562 1126q0 35 28.5 63.5t63.5 28.5q38 0 65 -27t27 -65q0 -42 -25.5 -68t-66.5 -26q-37 0 -64.5 27.5t-27.5 66.5zM283 1126q0 35 28.5 63.5t62.5 28.5q39 0 66 -28t27 -64q0 -42 -26 -68t-67 -26q-37 0 -64 27.5t-27 66.5z" />
    <glyph glyph-name="dagger" unicode="&#x2020;" horiz-adv-x="798" 
d="M343 793l-207 -49q-15 -4 -27 -6.5t-20 -2.5q-25 0 -34.5 17t-9.5 64q0 69 15 106.5t43 37.5q12 0 26.5 -2.5t31.5 -7.5l216 -65l40 359q6 50 25 63.5t103 13.5q74 0 96 -8t22 -27q0 -8 -4.5 -20t-10.5 -24l-165 -354l247 73q3 1 8 2q16 4 22 4q17 0 24 -13.5t7 -46.5
q0 -93 -14 -130t-48 -37q-9 0 -12.5 0.5t-7.5 1.5l-254 52l-160 -816q-10 -61 -29 -77t-81 -16q-71 0 -107.5 10.5t-36.5 30.5q0 7 5.5 25.5t14.5 46.5z" />
    <glyph glyph-name="degree" unicode="&#xb0;" horiz-adv-x="534" 
d="M268 1204q-57 0 -96.5 -39t-39.5 -94q0 -57 39.5 -96t96.5 -39q55 0 94 39.5t39 95.5q0 55 -39 94t-94 39zM268 1303q97 0 165 -68.5t68 -165.5q0 -96 -68.5 -164.5t-165.5 -68.5q-98 0 -165 68t-67 165q0 98 68 166t165 68z" />
    <glyph glyph-name="cent" unicode="&#xa2;" horiz-adv-x="828" 
d="M276 318l201 505q-7 5 -14 6.5t-18 1.5q-67 0 -135 -118t-68 -263q0 -40 8.5 -72.5t25.5 -59.5zM630 373q-78 -108 -162 -161t-178 -53h-8l-77 -195h-73l80 206q-83 19 -126 80.5t-43 160.5q0 120 64 237.5t171 193.5q48 35 97.5 51.5t98.5 16.5q15 0 22 -0.5t13 -1.5
l75 191h75l-82 -201q47 -20 72.5 -52t25.5 -70q0 -36 -21.5 -57.5t-58.5 -21.5q-26 0 -46 13t-34 40l-189 -468q6 -3 12.5 -3.5t18.5 -0.5q50 0 103 34t115 104z" />
    <glyph glyph-name="sterling" unicode="&#xa3;" horiz-adv-x="763" 
d="M144 355q-19 18 -37 26.5t-36 8.5q-35 0 -56.5 -19.5t-21.5 -48.5q0 -32 15.5 -50t43.5 -18q31 0 53.5 25t38.5 76zM221 277q-41 -60 -79 -84t-84 -24q-62 0 -102 41.5t-40 108.5q0 71 45 114.5t118 43.5q22 0 43 -3.5t42 -10.5q5 31 7 64.5t2 75.5q0 37 -1.5 56t-2.5 34
h-164l24 95h133v20v32q0 212 101 337t271 125q96 0 163 -58t67 -137q0 -36 -21.5 -58.5t-53.5 -22.5q-40 0 -59 19.5t-28 72.5q-10 60 -28 76t-59 16q-77 0 -110.5 -92t-33.5 -312v-18h175l-24 -95h-157q0 -68 -18 -136.5t-53 -140.5q50 -25 100 -39t88 -14q41 0 71.5 20.5
t69.5 76.5l67 -42q-55 -121 -126 -187t-145 -66q-43 0 -89 25.5t-109 86.5z" />
    <glyph glyph-name="section" unicode="&#xa7;" horiz-adv-x="776" 
d="M215 1056q-34 -47 -50.5 -99.5t-16.5 -110.5q0 -113 87 -306q23 -50 33 -75q37 -89 55.5 -166t19.5 -145q34 48 51 100t17 109q0 111 -89 311q-21 46 -30 70q-37 88 -56 167t-21 145zM441 1215q-46 0 -79 -42t-33 -104q0 -45 20.5 -113t75.5 -202q59 -140 79.5 -219
t20.5 -151q0 -123 -59.5 -229t-173.5 -186q-58 -41 -122.5 -61.5t-133.5 -20.5q-82 0 -122.5 26.5t-40.5 82.5q0 36 22.5 57.5t57.5 21.5q37 0 89.5 -40t78.5 -40q45 0 77.5 42t32.5 103q0 46 -20.5 113t-75.5 201q-60 141 -80 220t-20 151q0 124 59.5 229.5t174.5 185.5
q56 40 123 61t135 21q83 0 125 -26.5t42 -77.5q0 -40 -23 -61.5t-64 -21.5q-38 0 -90 40t-76 40z" />
    <glyph glyph-name="bullet" unicode="&#x2022;" horiz-adv-x="1071" 
d="M307 764q0 95 66.5 161t161.5 66q94 0 160.5 -66.5t66.5 -160.5t-67.5 -161t-160.5 -67q-95 0 -161 66.5t-66 161.5z" />
    <glyph glyph-name="paragraph" unicode="&#xb6;" horiz-adv-x="806" 
d="M765 1315v-85h-87v-1052h-116v1052h-121v-1052h-118v603q-128 5 -205 78t-77 188q0 121 82 194.5t218 73.5h424z" />
    <glyph glyph-name="germandbls" unicode="&#xdf;" horiz-adv-x="915" 
d="M-133 -119l257 923h-118l22 81h115q52 225 146.5 331t244.5 106q130 0 203.5 -58t73.5 -162q0 -72 -44 -129.5t-134 -101.5q94 -13 142 -75t48 -170q0 -94 -36 -179t-106 -158q-57 -58 -119.5 -88t-128.5 -30q-69 0 -107 39t-38 110q0 5 1.5 12.5t1.5 11.5l76 -1v-10
q0 -36 17 -55t49 -19q68 0 123.5 99t55.5 232q0 89 -38.5 136.5t-111.5 48.5l-15 79q75 20 124.5 98t49.5 180q0 52 -24 82.5t-65 30.5q-49 0 -83.5 -51.5t-77.5 -207.5l-298 -1105h-206z" />
    <glyph glyph-name="registered" unicode="&#xae;" horiz-adv-x="1344" 
d="M609 734q6 0 12.5 -0.5t21.5 -0.5q73 0 110 34.5t37 103.5q0 47 -33 80t-82 33q-34 0 -50 -13.5t-16 -38.5v-198zM383 1022h309q113 0 180.5 -42.5t67.5 -109.5q0 -66 -49.5 -103.5t-165.5 -57.5q74 -17 115 -53.5t53 -95.5q5 -19 9 -56q3 -65 35 -65q21 0 32 22.5
t11 67.5v8h39v-17q0 -68 -33.5 -103.5t-98.5 -35.5q-36 0 -63 11t-43 32q-22 30 -26 102q-1 35 -4 52q-11 61 -41.5 90t-86.5 29h-14v-190q0 -35 15.5 -49t60.5 -20v-40h-302v38q47 3 64 18.5t17 52.5v401q0 38 -17 54t-64 19v41zM674 1184q-97 0 -185.5 -37t-156.5 -106
q-69 -69 -104 -157t-35 -185q0 -98 35 -185t104 -156q69 -68 155 -104t186 -36q97 0 184 36t153 104q68 70 104.5 158t36.5 183q0 96 -37 186.5t-104 156.5q-67 68 -155 105t-181 37zM674 1264q111 0 218 -45.5t186 -126.5q75 -78 115.5 -182t40.5 -219q0 -107 -46.5 -213
t-132.5 -188q-75 -73 -174 -112t-208 -39q-86 0 -163 23.5t-146 68.5q-121 81 -187 203t-66 265q0 113 42 215.5t121 183.5q79 79 183 122.5t217 43.5z" />
    <glyph glyph-name="copyright" unicode="&#xa9;" horiz-adv-x="1343" 
d="M891 1026h34v-251h-36q-24 101 -77 155.5t-126 54.5q-90 0 -134.5 -69.5t-44.5 -211.5t48 -215.5t140 -73.5q62 0 114.5 33.5t95.5 99.5l35 -22q-49 -81 -116 -122.5t-151 -41.5q-143 0 -238 94t-95 232q0 148 93 244t235 96q61 0 117.5 -25t61.5 -25q18 0 28.5 11
t15.5 37zM674 1184q-97 0 -185.5 -36.5t-156.5 -106.5q-69 -69 -104 -157t-35 -185q0 -98 35 -185t104 -156q69 -68 155 -104t186 -36q97 0 184 36t153 104q68 70 104.5 158t36.5 183q0 99 -36.5 188t-102.5 155q-67 68 -156 105t-182 37zM674 1264q108 0 211.5 -43
t183.5 -122q78 -78 122 -183.5t44 -216.5q0 -109 -43 -212t-123 -185q-78 -80 -180 -121.5t-216 -41.5t-215 41.5t-181 121.5q-82 79 -124 181.5t-42 215.5q0 114 42 216.5t121 182.5q79 79 183.5 122.5t216.5 43.5z" />
    <glyph glyph-name="trademark" unicode="&#x2122;" horiz-adv-x="1405" 
d="M634 1296h162l101 -284l100 284h151v-21l-21 -3q-14 -3 -20.5 -12t-6.5 -27v-291q0 -18 6.5 -28t22.5 -12l19 -2v-26h-195v26l24 2q14 2 21 12.5t7 27.5v280l-120 -350h-28l-127 356v-286q0 -17 7.5 -27.5t21.5 -12.5l26 -2v-26h-151v26l27 2q14 2 21 12.5t7 27.5v286
q0 17 -7 26.5t-20 12.5l-28 3v26zM235 1296h345l10 -148h-24q-7 61 -31 88.5t-70 27.5h-6v-322q1 -18 7.5 -28t20.5 -12l22 -2v-26h-204v26l23 2q13 2 20.5 12.5t7.5 27.5v322h-9q-44 0 -67.5 -27.5t-29.5 -88.5h-25z" />
    <glyph glyph-name="acute" unicode="&#xb4;" horiz-adv-x="907" 
d="M506 1000h-82l235 233q24 22 46.5 33.5t42.5 11.5q25 0 44.5 -20.5t19.5 -47.5q0 -19 -13.5 -35.5t-40.5 -33.5z" />
    <glyph glyph-name="dieresis" unicode="&#xa8;" horiz-adv-x="885" 
d="M614 1126q0 35 29 63.5t64 28.5q38 0 64.5 -27t26.5 -65q0 -42 -26 -68t-65 -26q-37 0 -65 27.5t-28 66.5zM336 1126q0 35 28 63.5t63 28.5q39 0 66 -28t27 -64q0 -42 -26.5 -68t-66.5 -26q-37 0 -64 27.5t-27 66.5z" />
    <glyph glyph-name="notequal" unicode="&#x2260;" horiz-adv-x="1427" 
d="M979 1126l114 -92l-119 -146h200v-148h-298l-147 -184h445v-147h-543l-189 -238l-112 91l117 147h-193v147h289l147 184h-436v148h534z" />
    <glyph glyph-name="AE" unicode="&#xc6;" horiz-adv-x="1510" 
d="M337 691h299l138 509h-35zM-178 178v82q41 13 89.5 57t125.5 140l473 595q20 26 31 49t11 40q0 32 -26.5 48.5t-84.5 19.5l24 83h1037l-60 -265l-76 7v19q0 81 -42 114t-148 33h-156l-104 -388h102q81 0 130 32t80 101h78l-94 -398h-83v5q3 26 3 38q0 67 -36.5 99
t-114.5 32h-87l-81 -307q-7 -24 -9 -39t-2 -26q0 -43 32 -62t108 -19q148 0 225.5 47t153.5 173h86l-108 -310h-935l18 84q77 9 116.5 43.5t62.5 116.5l46 164h-351l-118 -147q-24 -31 -36 -57t-12 -49q0 -32 20 -51.5t56 -21.5v-82h-344z" />
    <glyph glyph-name="Oslash" unicode="&#xd8;" horiz-adv-x="1239" 
d="M189 -60l124 260q-126 58 -194 167.5t-68 258.5q0 152 69 295t190 246q88 72 187.5 109.5t211.5 37.5q32 0 62.5 -3t61.5 -9l53 114h100l-65 -138q132 -58 200.5 -166.5t68.5 -261.5q0 -157 -68.5 -299.5t-195.5 -249.5q-84 -71 -182 -107t-208 -36q-39 0 -72.5 3
t-64.5 10l-109 -231h-101zM860 1160l-421 -888q32 -10 58 -14.5t44 -4.5q80 0 146.5 54t117.5 158q18 39 34.5 84t32.5 97q27 96 42 176t15 138q0 68 -16.5 116t-52.5 84zM376 319l419 884q-22 7 -45 11.5t-47 4.5q-75 0 -138 -45t-107 -132q-66 -121 -104.5 -265.5
t-38.5 -269.5q0 -68 15 -114.5t46 -73.5z" />
    <glyph glyph-name="infinity" unicode="&#x221e;" horiz-adv-x="1404" 
d="M771 610q34 -57 81.5 -86.5t107.5 -29.5q72 0 117 42.5t45 111.5q0 66 -41.5 109t-103.5 43q-57 0 -105 -44t-101 -146zM636 685q-35 59 -82 87t-107 28q-72 0 -117 -43t-45 -111q0 -66 41.5 -109t104.5 -43q57 0 105 44.5t100 146.5zM707 530q-53 -102 -113 -150
t-135 -48q-105 0 -179.5 90t-74.5 226q0 141 65.5 227.5t172.5 86.5q70 0 129 -45t127 -153q52 102 113 151t135 49q106 0 180.5 -90.5t74.5 -225.5q0 -141 -66 -228t-171 -87q-72 0 -130 43.5t-128 153.5z" />
    <glyph glyph-name="plusminus" unicode="&#xb1;" horiz-adv-x="1427" 
d="M254 331h920v-154h-920v154zM637 1118h155v-250h382v-153h-382v-250h-155v250h-383v153h383v250z" />
    <glyph glyph-name="lessequal" unicode="&#x2264;" horiz-adv-x="1430" 
d="M258 328h916v-151h-916v151zM1172 1132v-160l-640 -203l640 -202v-159l-914 295v133z" />
    <glyph glyph-name="greaterequal" unicode="&#x2265;" horiz-adv-x="1430" 
d="M258 328h916v-151h-916v151zM259 1132l913 -296v-133l-913 -295v159l640 202l-640 203v160z" />
    <glyph glyph-name="yen" unicode="&#xa5;" horiz-adv-x="1068" 
d="M601 608l-55 -188q-8 -23 -11.5 -44.5t-3.5 -37.5q0 -37 32 -56.5t94 -21.5l-23 -82h-487l17 82q78 6 117 39t63 117l56 192h-410l20 76h375l-42 115h-301l20 75h251l-60 168q-25 71 -56 103.5t-75 37.5l16 81h399l-19 -78q-38 -2 -59 -21t-21 -55q1 -18 4.5 -37t9.5 -37
l121 -333q149 163 213 256t64 140q0 38 -22 61.5t-59 25.5l15 78h316v-78q-72 -18 -215 -213q-45 -64 -71 -99h266l-20 -75h-307l-104 -115h380l-20 -76h-408z" />
    <glyph glyph-name="mu1" unicode="&#xb5;" horiz-adv-x="913" 
d="M108 339q-8 -73 -21 -193q-32 -292 -119 -292q-41 0 -65 23t-24 65q0 36 53 210t81 313l83 394h197l-76 -353q-8 -41 -12 -68.5t-4 -44.5q0 -45 23 -70.5t64 -25.5q55 0 89.5 41t52.5 127l84 394h195l-87 -409q-7 -32 -10 -51.5t-3 -34.5q0 -36 13 -51.5t43 -15.5
q31 0 51 14t34 45q7 14 17 38q20 53 42 53q12 0 18.5 -7t6.5 -22q0 -26 -13 -68t-32 -78q-32 -56 -77 -84.5t-105 -28.5q-66 0 -100 37.5t-41 116.5q-31 -82 -76 -118t-115 -36q-71 0 -114.5 47.5t-52.5 132.5z" />
    <glyph glyph-name="partialdiff" unicode="&#x2202;" horiz-adv-x="875" 
d="M603 687q14 77 22 145.5t8 118.5q0 77 -20 121.5t-53 44.5q-35 0 -113 -56.5t-123 -56.5q-32 0 -54 23.5t-22 55.5q0 49 66 90.5t162 41.5q147 0 236.5 -123.5t89.5 -332.5q0 -260 -120 -430t-304 -170q-132 0 -217 88.5t-85 223.5q0 153 89 253.5t221 100.5
q78 0 130 -33t87 -105zM555 577q0 89 -29.5 137t-84.5 48q-78 0 -129 -103.5t-51 -261.5q0 -90 30 -137t85 -47q78 0 128.5 102.5t50.5 261.5z" />
    <glyph glyph-name="summation" unicode="&#x2211;" horiz-adv-x="1198" 
d="M24 1310h949l107 -329h-69l-71 192q-14 40 -46 56t-129 16h-427l511 -601v-31l-564 -522h681q37 0 49.5 10t20.5 39l56 175h67l-133 -437h-1006v54l631 580l-627 748v50z" />
    <glyph glyph-name="product" unicode="&#x220f;" horiz-adv-x="1347" 
d="M47 1310h1247v-65h-145v-1303h145v-64h-535v64h136v1303h-447v-1303h135v-64h-536v64h146v1303h-146v65z" />
    <glyph glyph-name="pi1" horiz-adv-x="1145" 
d="M1112 859l-46 -211h-267q-3 -50 -4.5 -90.5t-1.5 -62.5q0 -36 3 -94.5t3 -81.5q0 -89 -29.5 -131t-93.5 -42q-39 0 -62 25t-23 67q0 57 56.5 189t78.5 221h-288q-4 -53 -5 -93.5t-1 -59.5q0 -37 1.5 -95t1.5 -81q0 -89 -29.5 -131t-92.5 -42q-39 0 -61 24.5t-22 67.5
q0 58 55 190t77 220h-120q-90 0 -128 -25t-51 -89h-49q35 182 106.5 253.5t217.5 71.5h774z" />
    <glyph glyph-name="integral" unicode="&#x222b;" horiz-adv-x="933" 
d="M275 -14q78 0 92 490q2 104 5 162q12 390 94 562t251 172q76 0 121.5 -37.5t45.5 -98.5q0 -46 -28.5 -74t-76.5 -28q-35 0 -59 18.5t-33 51.5q-3 16 -4 41q-3 36 -23 37q-77 0 -91 -487q-4 -89 -5 -137q-9 -226 -24.5 -340t-45.5 -192q-43 -114 -114 -173.5t-164 -59.5
q-75 0 -121 37.5t-46 96.5q0 48 30 76.5t80 28.5q39 0 66 -24t27 -54q0 -46 4.5 -57t18.5 -11z" />
    <glyph glyph-name="ordfeminine" unicode="&#xaa;" horiz-adv-x="649" 
d="M330 1236q-28 0 -54.5 -22t-57.5 -73q-34 -55 -53 -109t-19 -90q0 -35 13 -53t40 -18q31 0 58.5 23.5t60.5 73.5q32 53 52 107.5t20 91.5q0 31 -16.5 50t-43.5 19zM296 847q-42 -42 -81.5 -62t-81.5 -20q-67 0 -105 40.5t-38 112.5q0 51 24.5 108.5t71.5 116.5
q59 71 125.5 110t128.5 39q35 0 62 -9.5t54 -32.5l34 35h102l-130 -348q-6 -16 -9 -28.5t-3 -20.5q0 -9 5 -16t13 -7q14 0 32.5 18.5t42.5 54.5l40 -30q-55 -79 -101 -111.5t-101 -32.5q-37 0 -58.5 21t-26.5 62z" />
    <glyph glyph-name="ordmasculine" unicode="&#xba;" horiz-adv-x="601" 
d="M319 1231q-40 0 -70.5 -30t-60.5 -99q-24 -55 -37 -107t-13 -89q0 -40 18.5 -61t53.5 -21q37 0 67 25t54 78q27 58 43 119.5t16 106.5q0 37 -19 57.5t-52 20.5zM-10 946q0 63 26.5 123t74.5 108q51 56 115 85t130 29q94 0 147.5 -49.5t53.5 -137.5q0 -56 -22.5 -111.5
t-64.5 -104.5q-54 -60 -121 -92t-140 -32q-92 0 -145.5 48.5t-53.5 133.5z" />
    <glyph glyph-name="Ohm" unicode="&#x2126;" horiz-adv-x="1217" 
d="M877 378v-11h222l33 110h60l-90 -299h-407q76 167 114 332t38 325q0 215 -59 320.5t-178 105.5t-178 -106.5t-59 -319.5q0 -160 38 -324.5t114 -332.5h-409l-89 299h58l34 -110h222v11q-126 67 -194 182.5t-68 263.5q0 218 150.5 361.5t380.5 143.5q231 0 381 -143.5
t150 -361.5q0 -146 -68.5 -261.5t-195.5 -184.5z" />
    <glyph glyph-name="ae" unicode="&#xe6;" horiz-adv-x="1136" 
d="M451 296q-73 -67 -141.5 -97t-142.5 -30q-90 0 -143 57.5t-53 157.5q0 98 52 188t152 162q60 43 130 75t158 55q100 26 209 41t205 15t141 -35t45 -109q0 -107 -111.5 -189.5t-312.5 -122.5q-1 -12 -1.5 -24t-0.5 -30q0 -59 27.5 -93.5t74.5 -34.5q49 0 105.5 39
t110.5 112l56 -42q-73 -114 -160 -170t-194 -56q-78 0 -130 32.5t-76 98.5zM650 543q125 22 203 83t78 133q0 33 -21.5 52.5t-54.5 19.5q-68 0 -124 -77.5t-81 -210.5zM444 394v10q0 114 51.5 215.5t163.5 204.5q-219 -37 -352.5 -150.5t-133.5 -253.5q0 -54 26 -85t74 -31
q34 0 69.5 18t101.5 72z" />
    <glyph glyph-name="oslash" unicode="&#xf8;" horiz-adv-x="800" 
d="M512 909l100 179h92l-114 -203q63 -35 95 -94t32 -141q0 -102 -48.5 -202t-134.5 -175q-61 -54 -132.5 -81t-147.5 -27q-17 0 -34 1.5t-32 3.5l-111 -196h-91l124 220q-62 36 -91 93.5t-29 139.5q0 108 51 211t144 179q57 48 123.5 72t138.5 24q15 0 31.5 -1.5t33.5 -2.5
zM184 308l292 517q-14 6 -27.5 8.5t-28.5 2.5q-40 0 -78.5 -33t-69.5 -94q-44 -87 -70 -184.5t-26 -157.5q1 -16 2.5 -30.5t5.5 -28.5zM518 776l-293 -522q14 -5 28.5 -8t27.5 -3q57 0 102.5 51t87.5 162q29 70 44 140t15 122q0 17 -2.5 31.5t-9.5 26.5z" />
    <glyph glyph-name="questiondown" unicode="&#xbf;" horiz-adv-x="721" 
d="M504 955q-15 -48 -24.5 -98t-15.5 -109q-1 -14 -2 -36q-3 -46 -33 -54q-8 -1 -30 -4q-80 -14 -132 -36q-55 -26 -83 -69t-28 -105q0 -58 31 -96.5t78 -38.5q11 0 42 5.5t52 5.5q40 0 60.5 -18t20.5 -54q0 -42 -31.5 -66.5t-88.5 -24.5q-107 0 -186 102.5t-79 250.5
q0 122 59.5 203.5t169.5 111.5q67 17 87 43t33 87h100zM631 1190q0 -53 -36 -89.5t-90 -36.5q-52 0 -88.5 36.5t-36.5 89.5q0 52 36.5 88.5t88.5 36.5q53 0 89.5 -35.5t36.5 -89.5z" />
    <glyph glyph-name="exclamdown" unicode="&#xa1;" horiz-adv-x="520" 
d="M368 946l-123 -698q-6 -30 -12.5 -48.5t-14.5 -27.5q-9 -8 -33.5 -11.5t-65.5 -3.5q-66 0 -83.5 6t-17.5 23q0 8 3 20.5t9 28.5l247 711h91zM505 1189q0 -54 -34.5 -90t-88.5 -36q-52 0 -88 36.5t-36 89.5q0 51 36 88t88 37q54 0 88.5 -36t34.5 -89z" />
    <glyph glyph-name="logicalnot" unicode="&#xac;" horiz-adv-x="1427" 
d="M254 842h920v-385h-153v235h-767v150z" />
    <glyph glyph-name="radical" unicode="&#x221a;" horiz-adv-x="1050" 
d="M893 1480h159v-99h-79l-455 -1234h-76l-239 659l-108 -38l-23 86l254 89l182 -508z" />
    <glyph glyph-name="florin" unicode="&#x192;" horiz-adv-x="793" 
d="M292 794h-155v95h166q23 217 99 328.5t204 111.5q69 0 110.5 -28t41.5 -73q0 -36 -20.5 -57.5t-54.5 -21.5q-21 0 -35.5 9t-33.5 39q0 1 -5 9q-22 34 -45 34q-54 0 -63 -279q-3 -48 -3 -72h160v-95h-163q-16 -517 -94 -710.5t-255 -193.5q-64 0 -103 28t-39 72
q0 35 21.5 57.5t55.5 22.5q15 0 30 -7t23 -18q6 -9 15 -24q24 -40 48 -40q54 0 69 351q10 276 26 462z" />
    <glyph glyph-name="approxequal" unicode="&#x2248;" horiz-adv-x="1393" 
d="M1216 637v-168q-82 -55 -152 -81t-138 -26q-74 0 -221 51t-232 51q-63 0 -133 -28t-162 -93v168q85 56 158.5 82.5t139.5 26.5q94 0 241 -50t211 -50q66 0 134 27t154 90zM1216 954v-170q-82 -55 -151 -80t-138 -25q-72 0 -219.5 50.5t-234.5 50.5q-62 0 -130 -27
t-165 -95v170q82 54 157 81.5t141 27.5q96 0 243 -50.5t209 -50.5q65 0 131.5 27t156.5 91z" />
    <glyph glyph-name="glyph168" unicode="&#x2206;" horiz-adv-x="1011" 
d="M408 1036l-293 -636h587zM485 1329h52l531 -1151h-1121z" />
    <glyph glyph-name="guillemotleft" unicode="&#xab;" horiz-adv-x="765" 
d="M477 238q-28 75 -68 150.5t-93 152.5q61 67 114.5 141.5t98.5 155.5h132q-46 -84 -99 -158t-113 -139q53 -77 93 -152.5t68 -150.5h-133zM220 238q-28 75 -67.5 150.5t-93.5 152.5q62 67 115.5 141.5t99.5 155.5h133q-46 -81 -99 -155.5t-116 -141.5q54 -77 94.5 -152.5
t66.5 -150.5h-133z" />
    <glyph glyph-name="guillemotright" unicode="&#xbb;" horiz-adv-x="765" 
d="M459 838q26 -74 66.5 -149.5t92.5 -152.5q-60 -65 -112 -139.5t-100 -158.5h-133q47 84 99.5 158.5t112.5 139.5q-53 77 -93 152.5t-68 149.5h135zM202 838q26 -74 66.5 -149.5t94.5 -152.5q-60 -65 -113 -139.5t-101 -158.5h-133q48 84 100 158.5t112 139.5
q-52 77 -92.5 152.5t-66.5 149.5h133z" />
    <glyph glyph-name="ellipsis" unicode="&#x2026;" horiz-adv-x="1655" 
d="M68 289q0 54 36 90t89 36t89 -36.5t36 -89.5q0 -52 -36 -88t-89 -36t-89 35.5t-36 88.5zM591 289q0 54 36 90t90 36q52 0 88 -36.5t36 -89.5q0 -52 -36 -88t-88 -36q-53 0 -89.5 35.5t-36.5 88.5zM1117 289q0 54 36 90t90 36q51 0 87 -36.5t36 -89.5q0 -52 -36 -88
t-87 -36q-54 0 -90 35.5t-36 88.5z" />
    <glyph glyph-name="Agrave" unicode="&#xc0;" horiz-adv-x="1135" 
d="M325 691h291l20 427zM-162 178v82q42 12 94.5 61t117.5 142l621 853h222l-37 -872v-35q0 -76 21 -108.5t70 -40.5l-17 -82h-485l17 81q70 2 100.5 41t36.5 133l12 153h-359l-106 -146q-19 -29 -29.5 -56.5t-10.5 -49.5q0 -32 19.5 -51t56.5 -23v-82h-344zM940 1401h-81
l-201 148q-27 19 -37 33.5t-10 28.5q0 30 17.5 49.5t44.5 19.5q19 0 37 -11.5t39 -36.5z" />
    <glyph glyph-name="Atilde" unicode="&#xc3;" horiz-adv-x="1107" 
d="M325 691h291l20 427zM-162 178v82q42 12 94.5 61t117.5 142l621 853h222l-37 -872v-35q0 -76 21 -108.5t70 -40.5l-17 -82h-485l17 81q70 2 100.5 41t36.5 133l12 153h-359l-106 -146q-19 -29 -29.5 -56.5t-10.5 -49.5q0 -32 19.5 -51t56.5 -23v-82h-344zM1042 1636
q-17 -88 -56 -134.5t-99 -46.5q-7 0 -16 0.5t-26 5.5l-82 21q-11 2 -20.5 4t-17.5 2q-29 0 -47 -16t-29 -52h-50q15 88 55.5 135t99.5 47q10 0 21 -1.5t22 -4.5l67 -17q5 -1 14 -4q24 -6 33 -6q33 0 51 16.5t27 50.5h53z" />
    <glyph glyph-name="Otilde" unicode="&#xd5;" horiz-adv-x="1240" 
d="M707 1219q-77 0 -140 -44.5t-110 -132.5q-66 -123 -103 -267.5t-37 -281.5q0 -109 59.5 -174.5t157.5 -65.5q87 0 153.5 52t117.5 159q56 116 86.5 246.5t30.5 250.5q0 125 -56 191.5t-159 66.5zM53 619q0 128 44.5 246.5t130.5 217.5q95 113 220 172.5t264 59.5
q215 0 347 -126.5t132 -329.5q0 -129 -43 -246.5t-124 -215.5q-97 -118 -222 -179t-268 -61q-217 0 -349 127t-132 335zM997 1636q-18 -88 -57 -134.5t-97 -46.5q-8 0 -17 0.5t-25 5.5l-83 21q-10 2 -19.5 4t-17.5 2q-29 0 -47 -16t-29 -52h-50q15 88 54.5 135t99.5 47
q11 0 22 -1.5t22 -4.5l67 -17q5 -1 13 -4q25 -6 34 -6q32 0 50.5 16.5t27.5 50.5h52z" />
    <glyph glyph-name="OE" unicode="&#x152;" horiz-adv-x="1703" 
d="M682 1200q-73 0 -134.5 -43t-105.5 -125q-64 -118 -99.5 -257t-35.5 -274q0 -104 57 -166t151 -62q83 0 147 50.5t113 152.5q53 110 82.5 236t29.5 243t-53 181t-152 64zM1494 178h-877q-138 0 -211 13.5t-130 43.5q-107 55 -165 157.5t-58 234.5q0 151 68 290.5
t189 238.5q62 51 130.5 82t140.5 42q47 6 101.5 9t139.5 3h141h735l-61 -265l-76 7v19q0 81 -42 114t-148 33h-387q82 -65 121 -152.5t39 -206.5v-29h62q81 0 131 32t80 101h77l-95 -398h-82v5q2 26 2 38q0 67 -36 99t-115 32h-36q-30 -148 -105 -257.5t-199 -190.5h339
q92 0 138 15.5t93 54.5q19 15 47.5 51t67.5 94h86z" />
    <glyph glyph-name="oe" unicode="&#x153;" horiz-adv-x="1156" 
d="M668 543q125 22 203 83t78 133q0 33 -21.5 52.5t-53.5 19.5q-70 0 -126.5 -77.5t-79.5 -210.5zM425 830q-53 0 -94 -42.5t-80 -141.5q-31 -76 -48.5 -152t-17.5 -127q0 -59 24 -89t72 -30t88 37t74 113q35 82 56 169.5t21 150.5q0 54 -25 83t-70 29zM499 248
q-60 -43 -120 -63.5t-123 -20.5q-126 0 -197 69t-71 194q0 85 35 171t97 156q67 76 153.5 117.5t174.5 41.5q69 0 122.5 -26t93.5 -81q57 55 122.5 84t133.5 29q75 0 118 -38.5t43 -104.5q0 -108 -109.5 -189.5t-312.5 -123.5q-3 -17 -3.5 -30t-0.5 -23q0 -59 27.5 -93.5
t74.5 -34.5q49 0 107 39t112 112l52 -42q-69 -111 -155.5 -168.5t-183.5 -57.5q-69 0 -114.5 20t-75.5 63z" />
    <glyph glyph-name="endash" unicode="&#x2013;" horiz-adv-x="1237" 
d="M213 285l35 174h785l-35 -174h-785z" />
    <glyph glyph-name="emdash" unicode="&#x2014;" horiz-adv-x="1655" 
d="M213 285l35 174h1219l-35 -174h-1219z" />
    <glyph glyph-name="quotedblleft" unicode="&#x201c;" horiz-adv-x="793" 
d="M873 1255q-97 -37 -153 -81t-56 -81q0 -12 8.5 -26.5t20.5 -24.5q9 -6 25 -18q68 -50 68 -100q0 -47 -29 -74t-80 -27q-61 0 -102 48t-41 125q0 103 80 182.5t238 136.5zM528 1255q-97 -37 -152.5 -81t-55.5 -81q0 -13 7 -27t21 -24q8 -6 24 -19q70 -49 70 -99
q0 -47 -29.5 -74t-78.5 -27q-64 0 -104 48t-40 125q0 103 79 183.5t238 135.5z" />
    <glyph glyph-name="quotedblright" unicode="&#x201d;" horiz-adv-x="793" 
d="M188 884q97 37 152.5 79.5t55.5 80.5q0 14 -7.5 28t-20.5 24q-10 8 -28 20q-67 49 -67 98q0 46 29.5 73.5t78.5 27.5q64 0 104 -48.5t40 -125.5q0 -103 -79 -183t-238 -135zM532 884q99 37 154 79.5t55 80.5q0 13 -7.5 27.5t-22.5 24.5q-8 6 -25 20q-66 48 -66 98
q0 46 29 73.5t79 27.5q62 0 102.5 -48.5t40.5 -125.5q0 -103 -79.5 -183t-236.5 -135z" />
    <glyph glyph-name="quoteleft" unicode="&#x2018;" horiz-adv-x="408" 
d="M519 1255q-97 -37 -153.5 -81t-56.5 -81q0 -12 8.5 -26.5t21.5 -24.5q10 -7 27 -19q68 -49 68 -99q0 -47 -29.5 -74t-78.5 -27q-64 0 -104 48t-40 125q0 103 79 183.5t238 135.5z" />
    <glyph glyph-name="quoteright" unicode="&#x2019;" horiz-adv-x="408" 
d="M164 884q97 37 152.5 79.5t55.5 80.5q0 14 -8 28t-21 24q-10 8 -27 20q-68 49 -68 98q0 46 30 73.5t79 27.5q63 0 103 -48.5t40 -125.5q0 -103 -79 -183t-237 -135z" />
    <glyph glyph-name="divide" unicode="&#xf7;" horiz-adv-x="1427" 
d="M715 463q48 0 82 -35t34 -83q0 -47 -34 -80.5t-82 -33.5t-82.5 33t-34.5 81q0 49 34.5 83.5t82.5 34.5zM254 726h920v-154h-920v154zM715 1066q48 0 82 -34t34 -82t-34 -82t-82 -34t-82.5 34t-34.5 82t34.5 82t82.5 34z" />
    <glyph glyph-name="lozenge" unicode="&#x25ca;" horiz-adv-x="780" 
d="M390 1261l-295 -628l295 -633l295 633zM390 1448l384 -815l-384 -820l-384 820z" />
    <glyph glyph-name="ydieresis" unicode="&#xff;" horiz-adv-x="738" 
d="M238 115l-134 553q-11 41 -20 58.5t-20 17.5q-13 0 -32.5 -23.5t-47.5 -76.5l-58 34q54 123 108 180t118 57q54 0 85 -44.5t67 -201.5l84 -362q67 87 106.5 175t39.5 140q0 47 -25.5 116t-25.5 93q0 41 22 64.5t61 23.5q49 0 75.5 -39t26.5 -112q0 -102 -59 -242.5
t-168 -289.5q-130 -181 -259 -270.5t-259 -89.5q-85 0 -134 28t-49 76q0 33 22 53.5t59 20.5q39 0 99 -35.5t97 -35.5q48 0 102.5 32.5t118.5 99.5zM474 1126q0 35 29 63.5t64 28.5q38 0 64.5 -27t26.5 -65q0 -42 -25 -68t-66 -26q-37 0 -65 27.5t-28 66.5zM196 1126
q0 35 28 63.5t63 28.5q39 0 66 -28t27 -64q0 -42 -26 -68t-67 -26q-37 0 -64 27.5t-27 66.5z" />
    <glyph glyph-name="Ydieresis" unicode="&#x178;" horiz-adv-x="1109" 
d="M171 178l19 84q80 6 121.5 40.5t65.5 119.5l58 209l-161 435q-27 72 -58.5 106t-78.5 37l18 83h480l-19 -79q-42 -1 -63.5 -21.5t-21.5 -57.5q0 -15 3.5 -31.5t11.5 -42.5l118 -331q146 157 214 252.5t68 142.5q0 40 -23.5 64t-63.5 25l16 79h334v-79q-80 -25 -166 -143
q-11 -14 -16 -22q-74 -102 -155 -202.5t-178 -212.5l-59 -206q-6 -24 -9.5 -46.5t-3.5 -41.5q0 -36 33.5 -55.5t98.5 -21.5l-24 -84h-559zM823 1527q0 35 29 63t64 28q38 0 64.5 -27t26.5 -64q0 -42 -26 -68.5t-65 -26.5q-37 0 -65 28t-28 67zM545 1527q0 35 28 63t63 28
q39 0 66 -27.5t27 -63.5q0 -42 -26.5 -68.5t-66.5 -26.5q-37 0 -64 28t-27 67z" />
    <glyph glyph-name="fraction" unicode="&#x2044;" horiz-adv-x="131" 
d="M-342 159l676 1125h110l-672 -1125h-114z" />
    <glyph glyph-name="fraction" unicode="&#x2215;" horiz-adv-x="131" 
d="M-342 159l676 1125h110l-672 -1125h-114z" />
    <glyph glyph-name="Euro" unicode="&#x20ac;" horiz-adv-x="753" 
d="M802 1174l-36 -244l-76 8q0 124 -38 186t-110 62q-81 0 -144.5 -83t-109.5 -249h271l-32 -76h-258q-6 -24 -12 -50t-13 -65h230l-32 -73h-212q-4 -36 -6.5 -64t-2.5 -52q0 -99 42 -155.5t114 -56.5q75 0 130 67t109 227l86 -15l-85 -295q-60 -44 -122.5 -64t-127.5 -20
q-158 0 -245.5 112t-89.5 315l-116 1l34 73h86q7 46 10.5 70t8.5 45h-101l32 76h92q74 202 196.5 314t267.5 112q72 0 138 -27t122 -79z" />
    <glyph glyph-name="guilsinglleft" unicode="&#x2039;" horiz-adv-x="512" 
d="M219 238q-27 80 -67.5 155.5t-90.5 148.5q60 66 113 140t99 158h135q-47 -84 -100.5 -158t-112.5 -140q51 -73 90.5 -148.5t68.5 -155.5h-135z" />
    <glyph glyph-name="guilsinglright" unicode="&#x203a;" horiz-adv-x="512" 
d="M202 838q26 -74 66.5 -149.5t94.5 -152.5q-60 -65 -113 -139.5t-101 -158.5h-133q48 84 100 158.5t112 139.5q-52 77 -92.5 152.5t-66.5 149.5h133z" />
    <glyph glyph-name="fi" unicode="&#xf001;" horiz-adv-x="849" 
d="M87 808h-133l21 81h130q61 213 175 324t277 111q95 0 158.5 -37t63.5 -91q0 -32 -18 -51t-50 -19q-22 0 -40 8.5t-42 32.5q-6 6 -16 18q-51 55 -106 55q-74 0 -119 -73.5t-87 -277.5h237q51 0 110 5.5t68 5.5q11 0 17.5 -4.5t6.5 -11.5q0 -8 -2.5 -20t-7.5 -29l-126 -444
q-6 -21 -9 -37.5t-3 -25.5q0 -13 5.5 -21.5t15.5 -8.5q13 0 36.5 22t61.5 73l58 -45q-74 -100 -134.5 -144.5t-122.5 -44.5q-55 0 -89 36.5t-34 94.5q0 52 30 162l3 12l95 344h-232q-102 -529 -204.5 -728t-258.5 -199q-56 0 -90.5 27t-34.5 72q0 30 17.5 49.5t45.5 19.5
q19 0 34.5 -7.5t27.5 -20.5q4 -6 12 -19q18 -30 36 -30q49 0 129 403q51 263 88 433z" />
    <glyph glyph-name="fi" unicode="&#xfb01;" horiz-adv-x="849" 
d="M87 808h-133l21 81h130q61 213 175 324t277 111q95 0 158.5 -37t63.5 -91q0 -32 -18 -51t-50 -19q-22 0 -40 8.5t-42 32.5q-6 6 -16 18q-51 55 -106 55q-74 0 -119 -73.5t-87 -277.5h237q51 0 110 5.5t68 5.5q11 0 17.5 -4.5t6.5 -11.5q0 -8 -2.5 -20t-7.5 -29l-126 -444
q-6 -21 -9 -37.5t-3 -25.5q0 -13 5.5 -21.5t15.5 -8.5q13 0 36.5 22t61.5 73l58 -45q-74 -100 -134.5 -144.5t-122.5 -44.5q-55 0 -89 36.5t-34 94.5q0 52 30 162l3 12l95 344h-232q-102 -529 -204.5 -728t-258.5 -199q-56 0 -90.5 27t-34.5 72q0 30 17.5 49.5t45.5 19.5
q19 0 34.5 -7.5t27.5 -20.5q4 -6 12 -19q18 -30 36 -30q49 0 129 403q51 263 88 433z" />
    <glyph glyph-name="fl" unicode="&#xf002;" horiz-adv-x="839" 
d="M532 889l76 275q-35 4 -73.5 41t-57.5 37q-55 0 -93.5 -74t-82.5 -279h231zM87 808h-133l21 81h130q66 227 171 332t265 105q31 0 70 -6t92 -20q38 6 82.5 15t50.5 9t8.5 -4t2.5 -15q0 -6 -1.5 -13.5t-3.5 -13.5l-244 -887q-6 -25 -9.5 -39t-3.5 -20q0 -16 6.5 -23.5
t19.5 -7.5q12 0 29.5 15.5t66.5 80.5l60 -47q-76 -101 -137.5 -146t-122.5 -45q-59 0 -93.5 35.5t-34.5 94.5q0 56 26 147q6 18 7 27l99 345h-226q-120 -579 -216 -753t-252 -174q-52 0 -86 27.5t-34 71.5q0 30 17.5 49.5t45.5 19.5q19 0 34.5 -7.5t27.5 -20.5q4 -6 12 -19
q18 -30 36 -30q49 0 129 403q51 263 88 433z" />
    <glyph glyph-name="fl" unicode="&#xfb02;" horiz-adv-x="839" 
d="M532 889l76 275q-35 4 -73.5 41t-57.5 37q-55 0 -93.5 -74t-82.5 -279h231zM87 808h-133l21 81h130q66 227 171 332t265 105q31 0 70 -6t92 -20q38 6 82.5 15t50.5 9t8.5 -4t2.5 -15q0 -6 -1.5 -13.5t-3.5 -13.5l-244 -887q-6 -25 -9.5 -39t-3.5 -20q0 -16 6.5 -23.5
t19.5 -7.5q12 0 29.5 15.5t66.5 80.5l60 -47q-76 -101 -137.5 -146t-122.5 -45q-59 0 -93.5 35.5t-34.5 94.5q0 56 26 147q6 18 7 27l99 345h-226q-120 -579 -216 -753t-252 -174q-52 0 -86 27.5t-34 71.5q0 30 17.5 49.5t45.5 19.5q19 0 34.5 -7.5t27.5 -20.5q4 -6 12 -19
q18 -30 36 -30q49 0 129 403q51 263 88 433z" />
    <glyph glyph-name="daggerdbl" unicode="&#x2021;" horiz-adv-x="760" 
d="M224 600q41 72 74.5 138t62.5 128l-235 -54q-8 -1 -14.5 -1.5t-15.5 -0.5q-15 0 -21.5 3.5t-6.5 11.5q0 90 18.5 136.5t53.5 46.5q6 0 14 -3q3 0 4 -1l223 -61l28 291q2 28 5.5 43.5t8.5 21.5q11 11 29.5 15t73.5 4q75 0 97.5 -9.5t22.5 -35.5q0 -9 -2 -17t-8 -20
l-143 -291l199 51q19 4 35.5 7t26.5 3q12 0 17 -9.5t5 -39.5q0 -85 -14.5 -118.5t-50.5 -33.5q-9 0 -18 1.5t-20 4.5l-204 55q-9 -49 -13 -106.5t-4 -126.5v-33q-41 -74 -75 -140t-62 -128l234 53q7 1 13 2t17 1q13 0 20 -4t7 -11q0 -89 -19 -135t-53 -46q-3 0 -6.5 0.5
l-10.5 1.5l-223 60l-28 -290q-2 -25 -6 -42.5t-8 -22.5q-10 -9 -31.5 -13.5t-76.5 -4.5q-72 0 -93 9t-21 34q0 10 1.5 19.5t6.5 18.5l145 291l-199 -48q-19 -6 -35.5 -9t-27.5 -3t-16 8.5t-5 39.5q0 85 14.5 118.5t50.5 33.5q10 0 19 -1.5t19 -5.5l202 -54q9 55 14 115
t5 124v29z" />
    <glyph glyph-name="periodcentered" unicode="&#xb7;" horiz-adv-x="433" 
d="M78 727q0 53 36.5 89.5t89.5 36.5q52 0 89.5 -37.5t37.5 -88.5q0 -53 -37.5 -90t-89.5 -37q-53 0 -89.5 36.5t-36.5 90.5z" />
    <glyph glyph-name="periodcentered" unicode="&#x2219;" horiz-adv-x="433" 
d="M78 727q0 53 36.5 89.5t89.5 36.5q52 0 89.5 -37.5t37.5 -88.5q0 -53 -37.5 -90t-89.5 -37q-53 0 -89.5 36.5t-36.5 90.5z" />
    <glyph glyph-name="quotesinglbase" unicode="&#x201a;" horiz-adv-x="408" 
d="M-211 -2q99 38 154.5 80.5t55.5 79.5q0 13 -8 27t-22 23q-8 8 -26 20q-67 50 -67 100q0 46 28.5 73.5t79.5 27.5q61 0 101 -48.5t40 -125.5q0 -103 -78.5 -182.5t-235.5 -134.5z" />
    <glyph glyph-name="quotedblbase" unicode="&#x201e;" horiz-adv-x="793" 
d="M164 -2q99 38 154 80.5t55 79.5q0 13 -7 27t-20 23q-10 8 -27 20q-68 50 -68 100q0 46 29.5 73.5t78.5 27.5q63 0 103.5 -48.5t40.5 -125.5q0 -103 -79.5 -182.5t-237.5 -134.5zM-180 -2q99 38 154.5 80.5t55.5 79.5q0 13 -8.5 26.5t-21.5 23.5q-8 8 -25 20
q-68 49 -68 100q0 46 29.5 73.5t79.5 27.5q61 0 101.5 -48.5t40.5 -125.5q0 -103 -79.5 -182.5t-237.5 -134.5z" />
    <glyph glyph-name="perthousand" unicode="&#x2030;" horiz-adv-x="1946" 
d="M1607 710q-39 0 -58 -55t-19 -181q0 -128 19 -183.5t58 -55.5q42 0 60.5 56.5t18.5 182.5q0 122 -19 179t-60 57zM1854 464q0 -139 -63 -213t-180 -74q-119 0 -180 75t-61 219q0 147 60.5 220t182.5 73q120 0 180.5 -75t60.5 -225zM1019 710q-41 0 -59.5 -56.5
t-18.5 -179.5q0 -126 18.5 -182.5t59.5 -56.5t60 56.5t19 182.5q0 122 -19 179t-60 57zM1262 464q0 -140 -62.5 -213.5t-180.5 -73.5q-119 0 -180.5 75t-61.5 219q0 145 61.5 219t183.5 74q120 0 180 -75t60 -225zM261 159l701 1125h115l-700 -1125h-116zM322 1210
q-40 0 -58.5 -55.5t-18.5 -182.5q0 -128 18.5 -183.5t58.5 -55.5q42 0 60.5 57t18.5 182q0 122 -19 180t-60 58zM567 964q0 -139 -63 -212.5t-182 -73.5q-118 0 -179 75t-61 219q0 146 60.5 219t181.5 73q122 0 182.5 -75t60.5 -225z" />
    <glyph glyph-name="Acircumflex" unicode="&#xc2;" horiz-adv-x="1115" 
d="M325 691h291l20 427zM-162 178v82q42 12 94.5 61t117.5 142l621 853h222l-37 -872v-35q0 -76 21 -108.5t70 -40.5l-17 -82h-485l17 81q70 2 100.5 41t36.5 133l12 153h-359l-106 -146q-19 -29 -29.5 -56.5t-10.5 -49.5q0 -32 19.5 -51t56.5 -23v-82h-344zM1013 1401h-61
l-128 137l-189 -137h-79l235 267h96z" />
    <glyph glyph-name="Ecircumflex" unicode="&#xca;" horiz-adv-x="1044" 
d="M-127 178l20 84q76 9 115 43t62 117l173 625q7 29 11 50.5t4 34.5q0 35 -29.5 54.5t-87.5 22.5l24 83h870l-59 -265l-76 7v19q0 81 -42.5 114t-146.5 33h-176l-102 -388h112q80 0 129.5 32t79.5 101h78l-94 -398h-83v6q3 25 3 37q0 67 -36.5 99t-114.5 32h-100l-80 -307
q-8 -28 -9.5 -40.5t-1.5 -24.5q0 -43 33 -62t112 -19q83 0 136.5 10t90.5 30q39 23 77.5 65.5t85.5 114.5h88l-108 -310h-958zM862 1401h-61l-128 137l-189 -137h-79l235 267h96z" />
    <glyph glyph-name="Aacute" unicode="&#xc1;" horiz-adv-x="1106" 
d="M325 691h291l20 427zM-162 178v82q42 12 94.5 61t117.5 142l621 853h222l-37 -872v-35q0 -76 21 -108.5t70 -40.5l-17 -82h-485l17 81q70 2 100.5 41t36.5 133l12 153h-359l-106 -146q-19 -29 -29.5 -56.5t-10.5 -49.5q0 -32 19.5 -51t56.5 -23v-82h-344zM737 1401h-81
l236 233q22 22 44.5 33t43.5 11q26 0 44.5 -20t18.5 -47q0 -19 -12.5 -35t-41.5 -34z" />
    <glyph glyph-name="Edieresis" unicode="&#xcb;" horiz-adv-x="1044" 
d="M-127 178l20 84q76 9 115 43t62 117l173 625q7 29 11 50.5t4 34.5q0 35 -29.5 54.5t-87.5 22.5l24 83h870l-59 -265l-76 7v19q0 81 -42.5 114t-146.5 33h-176l-102 -388h112q80 0 129.5 32t79.5 101h78l-94 -398h-83v6q3 25 3 37q0 67 -36.5 99t-114.5 32h-100l-80 -307
q-8 -28 -9.5 -40.5t-1.5 -24.5q0 -43 33 -62t112 -19q83 0 136.5 10t90.5 30q39 23 77.5 65.5t85.5 114.5h88l-108 -310h-958zM715 1527q0 35 29 63t65 28q38 0 64.5 -27t26.5 -64q0 -42 -25.5 -68.5t-65.5 -26.5q-38 0 -66 28t-28 67zM437 1527q0 35 28 63t64 28
q39 0 65.5 -27.5t26.5 -63.5q0 -42 -26 -68.5t-66 -26.5q-38 0 -65 28t-27 67z" />
    <glyph glyph-name="Egrave" unicode="&#xc8;" horiz-adv-x="1044" 
d="M-127 178l20 84q76 9 115 43t62 117l173 625q7 29 11 50.5t4 34.5q0 35 -29.5 54.5t-87.5 22.5l24 83h870l-59 -265l-76 7v19q0 81 -42.5 114t-146.5 33h-176l-102 -388h112q80 0 129.5 32t79.5 101h78l-94 -398h-83v6q3 25 3 37q0 67 -36.5 99t-114.5 32h-100l-80 -307
q-8 -28 -9.5 -40.5t-1.5 -24.5q0 -43 33 -62t112 -19q83 0 136.5 10t90.5 30q39 23 77.5 65.5t85.5 114.5h88l-108 -310h-958zM789 1401h-81l-201 148q-27 19 -37 33.5t-10 28.5q0 30 17.5 49.5t44.5 19.5q19 0 37 -11.5t39 -36.5z" />
    <glyph glyph-name="Iacute" unicode="&#xcd;" horiz-adv-x="628" 
d="M-100 178l20 84q76 9 115 43.5t62 116.5l173 625q7 29 11 50.5t4 34.5q0 35 -29.5 54.5t-87.5 22.5l24 83h532l-19 -83q-77 -8 -116.5 -43t-60.5 -116l-172 -623q-8 -28 -12 -48.5t-4 -36.5q0 -38 29 -57t89 -23l-24 -84h-534zM426 1401h-81l235 233q23 22 45.5 33
t43.5 11q25 0 44 -20t19 -47q0 -19 -13 -35t-41 -34z" />
    <glyph glyph-name="Icircumflex" unicode="&#xce;" horiz-adv-x="629" 
d="M-100 178l20 84q76 9 115 43.5t62 116.5l173 625q7 29 11 50.5t4 34.5q0 35 -29.5 54.5t-87.5 22.5l24 83h532l-19 -83q-77 -8 -116.5 -43t-60.5 -116l-172 -623q-8 -28 -12 -48.5t-4 -36.5q0 -38 29 -57t89 -23l-24 -84h-534zM702 1401h-62l-127 137l-189 -137h-80
l236 267h96z" />
    <glyph glyph-name="Idieresis" unicode="&#xcf;" horiz-adv-x="625" 
d="M-100 178l20 84q76 9 115 43.5t62 116.5l173 625q7 29 11 50.5t4 34.5q0 35 -29.5 54.5t-87.5 22.5l24 83h532l-19 -83q-77 -8 -116.5 -43t-60.5 -116l-172 -623q-8 -28 -12 -48.5t-4 -36.5q0 -38 29 -57t89 -23l-24 -84h-534zM555 1527q0 35 29 63t64 28q38 0 65 -27
t27 -64q0 -42 -26 -68.5t-66 -26.5q-38 0 -65.5 28t-27.5 67zM277 1527q0 35 28 63t63 28q38 0 65 -27.5t27 -63.5q0 -42 -25.5 -68.5t-66.5 -26.5q-37 0 -64 28t-27 67z" />
    <glyph glyph-name="Igrave" unicode="&#xcc;" horiz-adv-x="629" 
d="M-100 178l20 84q76 9 115 43.5t62 116.5l173 625q7 29 11 50.5t4 34.5q0 35 -29.5 54.5t-87.5 22.5l24 83h532l-19 -83q-77 -8 -116.5 -43t-60.5 -116l-172 -623q-8 -28 -12 -48.5t-4 -36.5q0 -38 29 -57t89 -23l-24 -84h-534zM628 1401h-80l-202 148q-26 19 -36 33.5
t-10 28.5q0 30 17 49.5t45 19.5q19 0 37 -11.5t39 -36.5z" />
    <glyph glyph-name="Oacute" unicode="&#xd3;" horiz-adv-x="1240" 
d="M707 1219q-77 0 -140 -44.5t-110 -132.5q-66 -123 -103 -267.5t-37 -281.5q0 -109 59.5 -174.5t157.5 -65.5q87 0 153.5 52t117.5 159q56 116 86.5 246.5t30.5 250.5q0 125 -56 191.5t-159 66.5zM53 619q0 128 44.5 246.5t130.5 217.5q95 113 220 172.5t264 59.5
q215 0 347 -126.5t132 -329.5q0 -129 -43 -246.5t-124 -215.5q-97 -118 -222 -179t-268 -61q-217 0 -349 127t-132 335zM693 1401h-82l236 233q23 22 45.5 33t42.5 11q25 0 44.5 -20t19.5 -47q0 -19 -13 -35t-41 -34z" />
    <glyph glyph-name="Ocircumflex" unicode="&#xd4;" horiz-adv-x="1240" 
d="M707 1219q-77 0 -140 -44.5t-110 -132.5q-66 -123 -103 -267.5t-37 -281.5q0 -109 59.5 -174.5t157.5 -65.5q87 0 153.5 52t117.5 159q56 116 86.5 246.5t30.5 250.5q0 125 -56 191.5t-159 66.5zM53 619q0 128 44.5 246.5t130.5 217.5q95 113 220 172.5t264 59.5
q215 0 347 -126.5t132 -329.5q0 -129 -43 -246.5t-124 -215.5q-97 -118 -222 -179t-268 -61q-217 0 -349 127t-132 335zM969 1401h-62l-128 137l-188 -137h-81l237 267h96z" />
    <glyph glyph-name="Ograve" unicode="&#xd2;" horiz-adv-x="1240" 
d="M707 1219q-77 0 -140 -44.5t-110 -132.5q-66 -123 -103 -267.5t-37 -281.5q0 -109 59.5 -174.5t157.5 -65.5q87 0 153.5 52t117.5 159q56 116 86.5 246.5t30.5 250.5q0 125 -56 191.5t-159 66.5zM53 619q0 128 44.5 246.5t130.5 217.5q95 113 220 172.5t264 59.5
q215 0 347 -126.5t132 -329.5q0 -129 -43 -246.5t-124 -215.5q-97 -118 -222 -179t-268 -61q-217 0 -349 127t-132 335zM894 1401h-80l-201 148q-26 19 -36 33.5t-10 28.5q0 30 17 49.5t44 19.5q20 0 37.5 -11.5t39.5 -36.5z" />
    <glyph glyph-name="Uacute" unicode="&#xda;" horiz-adv-x="1293" 
d="M209 1209l24 83h524l-19 -79h-4q-67 0 -106.5 -41.5t-64.5 -138.5l-101 -387q-14 -57 -22 -102.5t-8 -77.5q0 -97 60.5 -149t171.5 -52q142 0 225.5 81.5t132.5 271.5l94 367q10 33 14.5 65.5t4.5 59.5q0 48 -25.5 73.5t-76.5 29.5l22 79h336l-17 -83q-59 -3 -94.5 -50.5
t-72.5 -186.5l-97 -372q-61 -238 -180 -340.5t-331 -102.5q-207 0 -316 76.5t-109 222.5q0 37 7 82t22 104l101 388q6 23 9 45.5t3 41.5q0 43 -26.5 66.5t-80.5 25.5zM869 1401h-82l237 233q22 22 44.5 33t42.5 11q27 0 45.5 -20t18.5 -47q0 -19 -12.5 -35t-41.5 -34z" />
    <glyph glyph-name="Ucircumflex" unicode="&#xdb;" horiz-adv-x="1293" 
d="M209 1209l24 83h524l-19 -79h-4q-67 0 -106.5 -41.5t-64.5 -138.5l-101 -387q-14 -57 -22 -102.5t-8 -77.5q0 -97 60.5 -149t171.5 -52q142 0 225.5 81.5t132.5 271.5l94 367q10 33 14.5 65.5t4.5 59.5q0 48 -25.5 73.5t-76.5 29.5l22 79h336l-17 -83q-59 -3 -94.5 -50.5
t-72.5 -186.5l-97 -372q-61 -238 -180 -340.5t-331 -102.5q-207 0 -316 76.5t-109 222.5q0 37 7 82t22 104l101 388q6 23 9 45.5t3 41.5q0 43 -26.5 66.5t-80.5 25.5zM1145 1401h-61l-128 137l-189 -137h-79l235 267h96z" />
    <glyph glyph-name="Ugrave" unicode="&#xd9;" horiz-adv-x="1293" 
d="M209 1209l24 83h524l-19 -79h-4q-67 0 -106.5 -41.5t-64.5 -138.5l-101 -387q-14 -57 -22 -102.5t-8 -77.5q0 -97 60.5 -149t171.5 -52q142 0 225.5 81.5t132.5 271.5l94 367q10 33 14.5 65.5t4.5 59.5q0 48 -25.5 73.5t-76.5 29.5l22 79h336l-17 -83q-59 -3 -94.5 -50.5
t-72.5 -186.5l-97 -372q-61 -238 -180 -340.5t-331 -102.5q-207 0 -316 76.5t-109 222.5q0 37 7 82t22 104l101 388q6 23 9 45.5t3 41.5q0 43 -26.5 66.5t-80.5 25.5zM1072 1401h-82l-200 148q-27 19 -37 33.5t-10 28.5q0 30 17.5 49.5t43.5 19.5q20 0 38 -11.5t39 -36.5z
" />
    <glyph glyph-name="dotlessi" unicode="&#x131;" horiz-adv-x="513" 
d="M267 391q-7 -22 -11 -38t-4 -25q0 -13 6 -21.5t15 -8.5q14 0 37 22t62 73l57 -45q-73 -100 -133 -144.5t-124 -44.5q-55 0 -88 36.5t-33 94.5q0 32 7 69.5t29 104.5l73 221q7 23 10.5 38t3.5 25q0 14 -6.5 20.5t-18.5 6.5q-15 0 -36 -20t-60 -75l-55 46q61 93 124 139.5
t134 46.5q59 0 90 -31.5t31 -87.5q0 -31 -9 -72.5t-26 -94.5z" />
    <glyph glyph-name="circumflex" unicode="&#x2c6;" horiz-adv-x="886" 
d="M750 1000h-61l-127 137l-189 -137h-80l235 267h96z" />
    <glyph glyph-name="tilde" unicode="&#x2dc;" horiz-adv-x="891" 
d="M793 1236q-17 -89 -56.5 -136t-98.5 -47q-7 0 -16 1.5t-26 5.5l-83 21q-9 2 -19 4t-18 2q-29 0 -47 -15.5t-29 -51.5h-50q16 87 55.5 134t99.5 47q11 0 21.5 -1.5t21.5 -4.5l67 -18q5 0 13 -3q26 -6 34 -6q32 0 51 16.5t27 51.5h53z" />
    <glyph glyph-name="macron" unicode="&#x2c9;" horiz-adv-x="889" 
d="M346 1068l24 114h425l-25 -114h-424z" />
    <glyph glyph-name="breve" unicode="&#x2d8;" horiz-adv-x="880" 
d="M360 1245h59q7 -51 37.5 -74.5t89.5 -23.5q70 0 124.5 23.5t103.5 74.5h62q-68 -116 -141 -170t-160 -54t-131 55.5t-44 168.5z" />
    <glyph glyph-name="dotaccent" unicode="&#x2d9;" horiz-adv-x="966" 
d="M512 1126q0 36 29.5 66t66.5 30q40 0 68.5 -28.5t28.5 -67.5q0 -42 -27.5 -70t-69.5 -28q-40 0 -68 29t-28 69z" />
    <glyph glyph-name="ring" unicode="&#x2da;" horiz-adv-x="907" 
d="M484 1177q0 -45 32 -76.5t79 -31.5q45 0 75.5 31t30.5 77q0 47 -31 79t-75 32q-47 0 -79 -32t-32 -79zM399 1179q0 82 56 137.5t137 55.5q83 0 139.5 -55.5t56.5 -137.5q0 -80 -57 -137t-139 -57q-80 0 -136.5 56.5t-56.5 137.5z" />
    <glyph glyph-name="cedilla" unicode="&#xb8;" horiz-adv-x="900" 
d="M115 -109l30 68q55 -30 99.5 -43t85.5 -13q36 0 54 16.5t18 50.5q0 30 -20 45.5t-58 15.5q-12 0 -29.5 -2.5t-40.5 -7.5l51 157h54l-27 -87q12 2 24.5 3.5t26.5 1.5q66 0 104 -35.5t38 -95.5q0 -63 -46.5 -100t-129.5 -37q-44 0 -100 15t-134 48z" />
    <glyph glyph-name="hungarumlaut" unicode="&#x2dd;" horiz-adv-x="872" 
d="M755 1213q23 31 45 46.5t45 15.5q25 0 42.5 -17.5t17.5 -43.5q0 -16 -11.5 -32.5t-36.5 -37.5l-188 -144h-68zM516 1204q19 36 41.5 55t45.5 19q26 0 43 -17.5t17 -42.5q0 -16 -10.5 -33.5t-29.5 -35.5l-152 -149h-70z" />
    <glyph glyph-name="ogonek" unicode="&#x2db;" horiz-adv-x="934" 
d="M447 201q-68 -56 -100.5 -104.5t-32.5 -98.5q0 -40 19 -63t53 -23q27 0 48 13.5t41 42.5l25 -15q-33 -65 -78 -95.5t-107 -30.5q-49 0 -81.5 33t-32.5 84q0 64 51 127.5t155 129.5h40z" />
    <glyph glyph-name="caron" unicode="&#x2c7;" horiz-adv-x="886" 
d="M377 1267h61l127 -137l189 137h80l-235 -267h-97z" />
    <glyph glyph-name="Lslash" unicode="&#x141;" horiz-adv-x="1040" 
d="M-100 178l20 84q76 9 115 43.5t62 116.5l42 156l-239 -137l38 130l237 137l93 339q8 29 11.5 50.5t3.5 34.5q0 35 -29 54.5t-89 22.5l27 83h538l-18 -83q-78 -8 -117 -43.5t-61 -115.5l-68 -252l395 223l-35 -127l-394 -225l-62 -228q-6 -21 -9.5 -41t-3.5 -38
q0 -49 33.5 -69t119.5 -20q60 0 104 5.5t77 17.5q49 17 93.5 67.5t91.5 142.5l76 -22l-85 -306h-967z" />
    <glyph glyph-name="lslash" unicode="&#x142;" horiz-adv-x="470" 
d="M365 847l175 103l-30 -110l-175 -101l-99 -348q-7 -27 -9.5 -39.5t-2.5 -19.5q0 -17 6 -24t17 -7q13 0 32.5 18t65.5 78l60 -47q-75 -101 -137 -146t-123 -45q-58 0 -93 35.5t-35 94.5q0 57 28 156q4 12 6 17l62 207l-172 -98l33 109l170 100l86 298q6 23 10.5 41t4.5 29
q0 40 -25.5 56t-82.5 16l16 74q150 4 294 33q28 5 33 5q7 0 10 -4.5t3 -13.5q0 -6 -4 -20q-2 -6 -3 -10z" />
    <glyph glyph-name="Scaron" unicode="&#x160;" horiz-adv-x="1049" 
d="M4 267l62 274l87 -17v-13q0 -123 67.5 -190.5t191.5 -67.5q90 0 146 43t56 113q0 89 -158 241l-48 48l-10 10q-179 180 -179 315q0 141 99 216.5t282 75.5q110 0 202 -27t174 -84l-49 -217l-83 9q-1 111 -58 169.5t-166 58.5q-77 0 -121 -35t-44 -93q0 -44 38.5 -97.5
t170.5 -174.5q126 -115 164 -183.5t38 -147.5q0 -157 -121.5 -249t-330.5 -92q-118 0 -219 28t-191 87zM510 1668h63l127 -136l188 136h81l-237 -267h-97z" />
    <glyph glyph-name="scaron" unicode="&#x161;" horiz-adv-x="578" 
d="M-35 313q0 35 21 55t55 20q24 0 43.5 -12t41.5 -42q6 -7 17 -22q43 -63 85 -63q29 0 47 17t18 43q0 23 -11.5 47t-48.5 73q-8 10 -22 28q-125 165 -125 259q0 89 66 147t166 58q84 0 138.5 -39t54.5 -98q0 -31 -18 -49.5t-48 -18.5q-23 0 -39.5 11t-36.5 38q-4 7 -10 17
q-40 58 -80 58q-25 0 -40.5 -13.5t-15.5 -34.5q0 -28 64 -111q22 -32 37 -50l15 -21q100 -135 100 -231t-68 -155.5t-177 -59.5q-99 0 -164 42.5t-65 106.5zM191 1267h61l127 -137l188 137h81l-237 -267h-97z" />
    <glyph glyph-name="Zcaron" unicode="&#x17d;" horiz-adv-x="1111" 
d="M-43 178v94l805 938h-219q-125 0 -195.5 -44t-121.5 -152l-87 18l77 260h869v-96l-798 -929h275q110 0 202 55.5t179 173.5l71 -26l-110 -292h-947zM543 1668h61l127 -136l188 136h81l-235 -267h-99z" />
    </font>
</defs>
</svg>
