<?xml version="1.0" standalone="no"?>
<!DOCTYPE svg PUBLIC "-//W3C//DTD SVG 1.1//EN" "http://www.w3.org/Graphics/SVG/1.1/DTD/svg11.dtd" >
<svg xmlns="http://www.w3.org/2000/svg" xmlns:xlink="http://www.w3.org/1999/xlink" version="1.1">
<metadata>
Created by FontForge 20170924 at Sun Nov  6 03:35:03 2011
 By www-data
Uyghur Computer Science Association. Free distributed and all rights reserved. http://www.ukij.org
</metadata>
<defs>
<font id="UKIJTuzXet" horiz-adv-x="1024" >
  <font-face 
    font-family="UKIJ Tuz Xet"
    font-weight="400"
    font-stretch="normal"
    units-per-em="2048"
    panose-1="2 2 6 3 5 4 5 2 3 4"
    ascent="1638"
    descent="-410"
    x-height="940"
    cap-height="1341"
    bbox="-362 -788 2250 1846"
    underline-thickness="100"
    underline-position="-730"
    unicode-range="U+0020-FEFC"
  />
<missing-glyph horiz-adv-x="748" 
d="M68 0v1365h544v-1365h-544zM136 68h408v1229h-408v-1229z" />
    <glyph glyph-name="uni0675" unicode="&#x674;&#xfe8d;" horiz-adv-x="641" 
d="M217 537v-19q0 -125 -12 -212q-21 -158 -82 -208l-28 1133v1q0 23 57 102q17 25 57 76zM617 1101q-6 -7 -24 -43q-11 -23 -24 -23q-11 0 -31.5 1.5t-29.5 1.5h-2q-80 0 -191 -89q-3 17 -3 26q0 15 4 26q9 28 9 34q0 17 -12 36q-27 44 -27 59q0 37 81.5 103t120.5 66
q20 0 36 -15.5t16 -36.5q0 -50 -26 -50q-12 0 -36 8t-37 8q-51 0 -79 -74q29 -22 40 -27q24 -12 89 -12h83q5 0 15 1h28z" />
    <glyph glyph-name="uni0676" unicode="&#x674;&#xfeed;" horiz-adv-x="901" 
d="M517 326q0 -139 -44 -260q-49 -138 -144 -216q-107 -89 -259 -89q-94 0 -171 26q-23 7 -125 49q440 0 624 235q62 81 62 146q0 34 -18 72q-67 -85 -145 -85q-100 0 -100 127q0 77 52 176q58 111 119 111q49 0 93 -66q56 -84 56 -226zM395 383q0 51 -74 85
q-25 -47 -32 -65l-16 -39q55 -28 57 -28q17 0 38 11q27 15 27 36zM897 900q-6 -7 -24 -43q-11 -23 -24 -23q-11 0 -31.5 1.5t-29.5 1.5h-2q-80 0 -191 -89q-3 17 -3 26q0 15 4 26q9 28 9 34q0 17 -12 36q-27 44 -27 59q0 37 81.5 103t120.5 66q20 0 36 -15.5t16 -36.5
q0 -50 -26 -50q-12 0 -36 8t-37 8q-51 0 -79 -74q29 -22 40 -27q24 -12 89 -12h83q5 0 15 1h28z" />
    <glyph glyph-name="uni0677" unicode="&#x674;&#xfbd7;" horiz-adv-x="901" 
d="M517 326q0 -139 -44 -260q-49 -138 -144 -216q-107 -89 -259 -89q-94 0 -171 26q-23 7 -125 49q440 0 624 235q62 81 62 146q0 34 -18 72q-67 -85 -145 -85q-100 0 -100 127q0 77 52 176q58 111 119 111q49 0 93 -66q56 -84 56 -226zM395 383q0 51 -74 85
q-25 -47 -32 -65l-16 -39q55 -28 57 -28q17 0 38 11q27 15 27 36zM453 914q6 -20 6 -44q0 -11 -1 -22q-7 -49 -42 -83q-30 -29 -69 -29q-7 0 -15 1q-29 2 -39 17q30 4 61 20q37 22 39 46q0 8 -4.5 11.5t-11.5 3.5q-7 -1 -13 -1q-44 0 -61 32q-9 15 -9 33q0 11 4 22
q14 55 64 59h6q33 0 60 -22q17 -15 25 -44zM897 900q-6 -7 -24 -43q-11 -23 -24 -23q-11 0 -31.5 1.5t-29.5 1.5h-2q-80 0 -191 -89q-3 17 -3 26q0 15 4 26q9 28 9 34q0 17 -12 36q-27 44 -27 59q0 37 81.5 103t120.5 66q20 0 36 -15.5t16 -36.5q0 -50 -26 -50q-12 0 -36 8
t-37 8q-51 0 -79 -74q29 -22 40 -27q24 -12 89 -12h83q5 0 15 1h28z" />
    <glyph glyph-name="uni0678" unicode="&#x674;&#xfeef;" horiz-adv-x="1301" 
d="M1062 729q0 -44 -18 -79q-43 -89 -47 -100l-35 37q-20 20 -41 20q-32 0 -112 -56q-66 -46 -101 -82q-61 -61 -61 -103q0 -59 100 -77q19 -3 186 -33q100 -32 100 -124q0 -74 -82 -175q-91 -113 -229 -185q-166 -87 -352 -87q-366 0 -366 385q0 80 38 187q44 125 103 152
q-47 -162 -47 -239q0 -279 319 -279q33 0 125 19q128 26 223 65q128 54 165 124q-80 5 -161 10q-111 12 -148 39q-49 36 -49 120q0 105 83 242q72 116 167 200q107 94 188 94q24 0 39 -26q13 -22 13 -49zM1295 1051q-6 -7 -24 -43q-11 -23 -24 -23q-11 0 -31.5 1.5
t-29.5 1.5h-2q-80 0 -191 -89q-3 17 -3 26q0 15 4 26q9 28 9 34q0 17 -12 36q-27 44 -27 59q0 37 81.5 103t120.5 66q20 0 36 -15.5t16 -36.5q0 -50 -26 -50q-12 0 -36 8t-37 8q-51 0 -79 -74q29 -22 40 -27q24 -12 89 -12h83q5 0 15 1h28z" />
    <glyph glyph-name="uniFEF5" unicode="&#xfedf;&#xfe82;" horiz-adv-x="999" arabic-form="isolated" 
d="M778.5 251q-64.5 -145 -151.5 -229q-159 -25 -289 -25q-81 0 -150 10q17 5 137 90q66 48 192 145q45 34 98 90q72 76 72 109q0 27 -28 97q-90 220 -273 374q-25 21 -70 54q-4 3 -16 11q-19 -7 -32 -10q-42 -10 -78 -10q-182 0 -182 205q0 37 19 73q25 44 61 44
q71 0 208 -111q101 -81 179 -168q122 -136 184 -268q23 -50 66 -226q39 67 57.5 186t18.5 144v387q0 7 70 84q23 26 70 76l-31 -377q-7 -213 -37 -411.5t-94.5 -343.5zM488 1618q0 -81 -106 -151q-95 -62 -170 -62q-67 0 -105 14q-7 3 -75 33q-30 0 -61 -41q-65 -87 -71 -93
q13 54 42 160q32 104 125 104q30 0 65 -19q82 -42 104 -42q63 0 147 43z" />
    <glyph glyph-name="uniFEF6" unicode="&#xfee0;&#xfe82;" horiz-adv-x="1201" arabic-form="final" 
d="M517 242q45 34 98 90q72 76 72 109q0 27 -28 97q-90 220 -273 374q-25 21 -70 54q-4 3 -16 11q-19 -7 -32 -10q-42 -10 -78 -10q-182 0 -182 205q0 37 19 73q25 44 61 44q71 0 208 -111q101 -81 179 -168q122 -136 184 -268q23 -50 66 -226q17 42 57 222q19 83 19 108
v387q0 7 70 84q23 27 70 76v-491q0 -118 19 -247q19 -134 33 -181q36 -117 105 -138q38 -13 124 -13v-213h-139q-169 0 -211 326q-13 101 -13 220q0 56 2 86q-4 -32 -14 -95q-15 -98 -45 -204q-35 -129 -77 -191q-70 -106 -241 -174q-154 -61 -296 -61q18 5 137 90
q66 48 192 145zM488 1618q0 -81 -106 -151q-95 -62 -170 -62q-67 0 -105 14q-7 3 -75 33q-30 0 -61 -41q-65 -87 -71 -93q13 54 42 160q32 104 125 104q30 0 65 -19q82 -42 104 -42q63 0 147 43z" />
    <glyph glyph-name="uniFEF7" unicode="&#xfedf;&#xfe84;" horiz-adv-x="999" arabic-form="isolated" 
d="M778.5 251q-64.5 -145 -151.5 -229q-159 -25 -289 -25q-81 0 -150 10q17 5 137 90q66 48 192 145q45 34 98 90q72 76 72 109q0 27 -28 97q-90 220 -273 374q-25 21 -70 54q-4 3 -16 11q-19 -7 -32 -10q-42 -10 -78 -10q-182 0 -182 205q0 37 19 73q25 44 61 44
q71 0 208 -111q101 -81 179 -168q122 -136 184 -268q23 -50 66 -226q39 67 57.5 186t18.5 144v387q0 7 70 84q23 26 70 76l-31 -377q-7 -213 -37 -411.5t-94.5 -343.5zM303 1490q-6 -7 -24 -43q-11 -23 -24 -23q-11 0 -31.5 1.5t-29.5 1.5h-2q-80 0 -191 -89q-3 17 -3 26
q0 15 4 26q9 28 9 34q0 17 -12 36q-27 44 -27 59q0 37 81.5 103t120.5 66q20 0 36 -15.5t16 -36.5q0 -50 -26 -50q-12 0 -36 8t-37 8q-51 0 -79 -74q29 -22 40 -27q24 -12 89 -12h83q5 0 15 1h28z" />
    <glyph glyph-name="uniFEF8" unicode="&#xfee0;&#xfe84;" horiz-adv-x="1201" arabic-form="final" 
d="M517 242q45 34 98 90q72 76 72 109q0 27 -28 97q-90 220 -273 374q-25 21 -70 54q-4 3 -16 11q-19 -7 -32 -10q-42 -10 -78 -10q-182 0 -182 205q0 37 19 73q25 44 61 44q71 0 208 -111q101 -81 179 -168q122 -136 184 -268q23 -50 66 -226q17 42 57 222q19 83 19 108
v387q0 7 70 84q23 27 70 76v-491q0 -118 19 -247q19 -134 33 -181q36 -117 105 -138q38 -13 124 -13v-213h-139q-169 0 -211 326q-13 101 -13 220q0 56 2 86q-4 -32 -14 -95q-15 -98 -45 -204q-35 -129 -77 -191q-70 -106 -241 -174q-154 -61 -296 -61q18 5 137 90
q66 48 192 145zM303 1490q-6 -7 -24 -43q-11 -23 -24 -23q-11 0 -31.5 1.5t-29.5 1.5h-2q-80 0 -191 -89q-3 17 -3 26q0 15 4 26q9 28 9 34q0 17 -12 36q-27 44 -27 59q0 37 81.5 103t120.5 66q20 0 36 -15.5t16 -36.5q0 -50 -26 -50q-12 0 -36 8t-37 8q-51 0 -79 -74
q29 -22 40 -27q24 -12 89 -12h83q5 0 15 1h28z" />
    <glyph glyph-name="uniFEF9" unicode="&#xfedf;&#xfe88;" horiz-adv-x="999" arabic-form="isolated" 
d="M778.5 251q-64.5 -145 -151.5 -229q-159 -25 -289 -25q-81 0 -150 10q17 5 137 90q66 48 192 145q45 34 98 90q72 76 72 109q0 27 -28 97q-90 220 -273 374q-25 21 -70 54q-4 3 -16 11q-19 -7 -32 -10q-42 -10 -78 -10q-182 0 -182 205q0 37 19 73q25 44 61 44
q71 0 208 -111q101 -81 179 -168q122 -136 184 -268q23 -50 66 -226q39 67 57.5 186t18.5 144v387q0 7 70 84q23 26 70 76l-31 -377q-7 -213 -37 -411.5t-94.5 -343.5zM423 -289q-6 -7 -24 -43q-11 -23 -24 -23q-11 0 -31.5 1.5t-29.5 1.5h-2q-80 0 -191 -89q-3 17 -3 26
q0 15 4 26q9 28 9 34q0 17 -12 36q-27 44 -27 59q0 37 81.5 103t120.5 66q20 0 36 -15.5t16 -36.5q0 -50 -26 -50q-12 0 -36 8t-37 8q-51 0 -79 -74q29 -22 40 -27q24 -12 89 -12h83q5 0 15 1h28z" />
    <glyph glyph-name="uniFEFA" unicode="&#xfee0;&#xfe88;" horiz-adv-x="1201" arabic-form="final" 
d="M517 242q45 34 98 90q72 76 72 109q0 27 -28 97q-90 220 -273 374q-25 21 -70 54q-4 3 -16 11q-19 -7 -32 -10q-42 -10 -78 -10q-182 0 -182 205q0 37 19 73q25 44 61 44q71 0 208 -111q101 -81 179 -168q122 -136 184 -268q23 -50 66 -226q17 42 57 222q19 83 19 108
v387q0 7 70 84q23 27 70 76v-491q0 -118 19 -247q19 -134 33 -181q36 -117 105 -138q38 -13 124 -13v-213h-139q-169 0 -211 326q-13 101 -13 220q0 56 2 86q-4 -32 -14 -95q-15 -98 -45 -204q-35 -129 -77 -191q-70 -106 -241 -174q-154 -61 -296 -61q18 5 137 90
q66 48 192 145zM423 -289q-6 -7 -24 -43q-11 -23 -24 -23q-11 0 -31.5 1.5t-29.5 1.5h-2q-80 0 -191 -89q-3 17 -3 26q0 15 4 26q9 28 9 34q0 17 -12 36q-27 44 -27 59q0 37 81.5 103t120.5 66q20 0 36 -15.5t16 -36.5q0 -50 -26 -50q-12 0 -36 8t-37 8q-51 0 -79 -74
q29 -22 40 -27q24 -12 89 -12h83q5 0 15 1h28z" />
    <glyph glyph-name="uniFEFB" unicode="&#xfedf;&#xfe8e;" horiz-adv-x="999" arabic-form="isolated" 
d="M778.5 251q-64.5 -145 -151.5 -229q-159 -25 -289 -25q-81 0 -150 10q17 5 137 90q66 48 192 145q45 34 98 90q72 76 72 109q0 27 -28 97q-90 220 -273 374q-25 21 -70 54q-4 3 -16 11q-19 -7 -32 -10q-42 -10 -78 -10q-182 0 -182 205q0 37 19 73q25 44 61 44
q71 0 208 -111q101 -81 179 -168q122 -136 184 -268q23 -50 66 -226q39 67 57.5 186t18.5 144v387q0 7 70 84q23 26 70 76l-31 -377q-7 -213 -37 -411.5t-94.5 -343.5z" />
    <glyph glyph-name="uniFEFC" unicode="&#xfee0;&#xfe8e;" horiz-adv-x="1201" arabic-form="final" 
d="M517 242q45 34 98 90q72 76 72 109q0 27 -28 97q-90 220 -273 374q-25 21 -70 54q-4 3 -16 11q-19 -7 -32 -10q-42 -10 -78 -10q-182 0 -182 205q0 37 19 73q25 44 61 44q71 0 208 -111q101 -81 179 -168q122 -136 184 -268q23 -50 66 -226q17 42 57 222q19 83 19 108
v387q0 7 70 84q23 27 70 76v-491q0 -118 19 -247q19 -134 33 -181q36 -117 105 -138q38 -13 124 -13v-213h-139q-169 0 -211 326q-13 101 -13 220q0 56 2 86q-4 -32 -14 -95q-15 -98 -45 -204q-35 -129 -77 -191q-70 -106 -241 -174q-154 -61 -296 -61q18 5 137 90
q66 48 192 145z" />
    <glyph glyph-name="uniFB56" unicode="&#x67e;" horiz-adv-x="1399" arabic-form="isolated" 
d="M1318 528q0 -333 -446 -419q-156 -30 -363 -30q-367 0 -462 165q-35 61 -35 149q0 127 132 264h16q-24 -58 -33 -84q-20 -59 -20 -85q0 -126 197 -187q134 -42 296 -42q171 0 329 35q26 6 87 23q215 63 215 95q0 80 -95 150q16 40 28 72q31 87 41 135q113 -75 113 -241z
M892 -177l-112 110l-218 -217l-110 107l110 110l218 -217zM788 -405l-111 112l-109 -112l109 -109z" />
    <glyph glyph-name="uniFB57" unicode="&#x67e;" horiz-adv-x="1354" arabic-form="final" 
d="M1370 100h-80q-60 0 -120 79q-19 27 -47 80q-29 -17 -89 -50q-107 -56 -243 -95q-180 -51 -356 -51q-172 0 -289 79q-134 91 -134 256q0 91 52 174q39 62 88 95q-56 -111 -56 -168q0 -130 191 -195q135 -45 297 -45q185 0 321 51q144 54 269 180q16 -109 52 -143t144 -34
v-213zM818 -175l-112 111l-218 -218l-110 107l110 111l218 -218zM714 -402l-111 111l-109 -111l109 -109z" />
    <glyph glyph-name="uniFB58" unicode="&#x67e;" horiz-adv-x="501" arabic-form="initial" 
d="M434 435q0 -266 -197 -319q-61 -16 -166 -16h-84v213h90q242 0 290 60q0 13 -29 73q-8 15 -29 57q17 33 34 67q38 79 45 102l30 -121q16 -65 16 -116zM437 -165l-111 110l-219 -217l-110 107l110 110l219 -217zM333 -393l-111 112l-108 -112l108 -108z" />
    <glyph glyph-name="uniFB59" unicode="&#x67e;" horiz-adv-x="599" arabic-form="medial" 
d="M614 100h-164q-44 0 -105 53q-51 46 -79 93q-16 -29 -50 -86q-37 -60 -113 -60h-116v213h162q65 0 106 65q10 15 68 112q2 -53 5 -79q12 -98 132 -98h154v-213zM512 -177l-111 110l-218 -217l-110 107l110 110l218 -217zM408 -405l-110 112l-109 -112l109 -109z" />
    <glyph glyph-name="uniFB6A" unicode="&#x6a4;" horiz-adv-x="1399" arabic-form="isolated" 
d="M1334 593q0 -392 -442 -484q-149 -30 -368 -30q-510 0 -510 324q0 61 37 145q46 106 115 124q-14 -20 -35.5 -83.5t-21.5 -85.5q0 -130 201 -193q139 -44 303 -44q141 0 260 22q106 19 234 63q35 11 106 33q54 24 54 71q0 26 -5 45q-3 8 -13 30q-65 -56 -128 -56
q-118 0 -118 123q0 92 69 200q66 101 111 101q51 0 106 -104q45 -84 45 -201zM1211 659q0 21 -22 45t-44 24q-11 0 -39 -28q-8 -7 -26 -28q13 -22 26 -45q18 -20 48 -20q57 0 57 52zM1332 1110l-112 110l-218 -217l-110 107l110 110l218 -217zM1218 1339l-111 112l-108 -112
l108 -108z" />
    <glyph glyph-name="uniFB6B" unicode="&#x6a4;" horiz-adv-x="1500" arabic-form="final" 
d="M1514 100h-182q-41 0 -94 32q-48 36 -95 72l-91 -39q-266 -112 -557 -112q-269 0 -395 128q-80 80 -80 202q0 77 32 160q39 99 100 124q-11 -31 -28 -81q-20 -57 -20 -84q0 -138 174 -204q125 -47 289 -47q165 0 351 38l130 28q0 21 -12 75q-6 29 -6 48q0 110 82 240
q88 139 176 139q46 0 80 -78q29 -69 29 -135q0 -48 -24 -115q-31 -89 -89 -156q44 -26 97 -26q21 0 66 2t67 2v-213zM1293 507q0 30 -29 57t-60 27q-37 0 -80 -54q-38 -46 -38 -64q0 -26 48 -61q15 -11 47 -29q8 0 57 44q55 50 55 80zM1410 1054l-112 110l-218 -217
l-110 107l110 110l218 -217zM1296 1283l-111 112l-108 -112l108 -108z" />
    <glyph glyph-name="uniFB6C" unicode="&#x6a4;" horiz-adv-x="599" arabic-form="initial" 
d="M537 434q0 -196 -196 -297q-73 -37 -132 -37h-254v213h338q32 0 102 20q87 24 87 50q-5 12 -13 33q-16 40 -34 70q-76 -57 -142 -57q-64 0 -100 44q-33 42 -33 108q0 75 48 171q55 112 123 112q18 0 59 -35q147 -123 147 -395zM378 581v27l-23 39q-13 17 -52 46
q-21 -14 -41 -27q-16 -16 -34 -77l37 -17q24 -11 38 -11q20 0 75 20zM512 1110l-112 110l-218 -217l-110 107l110 110l218 -217zM398 1339l-111 112l-108 -112l108 -108z" />
    <glyph glyph-name="uniFB6D" unicode="&#x6a4;" horiz-adv-x="700" arabic-form="medial" 
d="M714 100h-212q-52 0 -125 47q-26 15 -64 47q-48 -32 -77 -47q-89 -47 -149 -47h-102v213h9q80 0 187 13q-9 56 -9 103q0 103 70 240q79 157 169 157q61 0 98 -83q30 -67 30 -135q0 -58 -25.5 -137.5t-58.5 -128.5q30 -30 106 -30q20 0 61 0.5t92 0.5v-213zM435 504
q0 26 -22.5 55.5t-47.5 29.5q-40 0 -80 -32q-47 -38 -47 -90q0 -29 42 -59q14 -10 43 -25q28 0 70 46t42 75zM594 1051l-112 110l-218 -217l-110 107l110 110l218 -217zM480 1280l-111 112l-108 -112l108 -108z" />
    <glyph glyph-name="uniFB7A" unicode="&#x686;" horiz-adv-x="999" arabic-form="isolated" 
d="M1065 -520q-81 -33 -174 -81q-73 -38 -115 -51q-61 -18 -158 -18q-344 0 -480 139q-118 121 -118 394q0 271 166 497q60 82 163 185q-41 30 -55 36q-24 10 -64 10q-87 0 -163 -103v37q48 144 98 190q59 56 189 56q214 -39 551 -39q-48 -120 -52 -127q-46 -93 -90 -93
q-13 0 -39.5 2.5t-39.5 2.5q-106 0 -250 -67q-209 -99 -287 -266q-51 -110 -51 -252q0 -204 152 -321q133 -103 318 -103h499v-28zM733 66l-111 111l-219 -218l-109 107l109 111l219 -218zM629 -161l-110 111l-109 -111l109 -109z" />
    <glyph glyph-name="uniFB7B" unicode="&#x686;" horiz-adv-x="999" arabic-form="final" 
d="M1130 -541q-9 -15 -67 -54q-212 -143 -474 -143q-329 0 -450 127q-110 115 -110 409q0 207 80 377q74 154 230 311q-57 29 -94 29q-109 0 -197 -133q-1 12 -1 19q0 124 80.5 212.5t202.5 88.5q7 0 153 -25q76 -13 148 -13q107 0 217 38q-47 -177 -84 -210
q-16 -15 -123 -25v-85q22 -38 30 -46q20 -23 64 -23h284v-213h-246q-65 0 -112 48q-42 44 -59 112q-12 50 -12 97q0 29 4 51l5 37q0 13 -15 13q-39 0 -143 -68q-133 -86 -216 -206q-112 -161 -112 -352q0 -288 347 -367q121 -28 282 -28q162 0 276 22h112zM737 -55l-111 110
l-218 -218l-110 108l110 110l218 -218zM633 -283l-110 111l-109 -111l109 -109z" />
    <glyph glyph-name="uniFB7C" unicode="&#x686;" horiz-adv-x="901" arabic-form="initial" 
d="M852 537q-14 -74 -38 -148q-10 -29 -20 -56q-112 -3 -120 -3q-70 -4 -117 -17q-22 -5 -100 -63q-94 -70 -149 -99q-97 -51 -179 -51h-154v213h233q74 0 120 21q38 18 123 87l-128 73q-81 43 -125 43q-34 0 -80 -26q-39 -22 -65 -33q21 76 40 118q60 136 169 136
q58 0 135 -51q108 -70 164 -93q125 -51 291 -51zM739 -150l-111 110l-219 -217l-109 107l109 110l219 -217zM635 -378l-110 112l-109 -112l109 -108z" />
    <glyph glyph-name="uniFB7D" unicode="&#x686;" horiz-adv-x="1100" arabic-form="medial" 
d="M1122 100h-207q-169 0 -169 282q-10 4 -20 9q-38 0 -145 -75q-154 -109 -213 -141q-138 -75 -253 -75h-130v213q102 0 164 7q171 18 323 136q-124 77 -202 77q-28 0 -90 -22q-46 -18 -93 -35v28q6 21 20 63q23 61 65 100q57 53 140 53q35 0 111 -35q114 -52 153 -65
q103 -36 199 -36q85 0 168 24q-15 -67 -22 -117q0 -1 -6 -44q-13 -21 -53 -31q-14 -3 -79 -15q-1 -2 -1 -6v-5q1 -8 1 -13q0 -13 26 -36q31 -28 69 -28h244v-213zM739 -150l-111 110l-219 -217l-109 107l109 110l219 -217zM635 -378l-110 112l-109 -112l109 -108z" />
    <glyph glyph-name="uniFB8A" unicode="&#x698;" horiz-adv-x="599" arabic-form="isolated" 
d="M512 266q0 -126 -52 -260q-53 -138 -139 -224q-98 -97 -211 -97q-95 0 -186 38q-56 23 -119 66q115 0 262 48q164 53 266 135q123 99 123 214q0 34 -53 100q-40 44 -80 89l47 178q78 -78 106 -128q36 -65 36 -159zM377 785l111 111l-111 107l-219 -218l-109 111l109 107z
M274 1232l110 -109l-110 -111l-109 111z" />
    <glyph glyph-name="uniFB8B" unicode="&#x698;" horiz-adv-x="599" arabic-form="final" 
d="M612 100h-54q-12 1 -15 1q-39 0 -46 -13q-7 -64 -56 -167q-23 -50 -62 -106q-117 -167 -231 -167q-84 0 -176 52q-83 47 -144 117q34 -7 90 -19q98 -19 103 -19q69 0 179 69q89 56 155 123q77 75 77 116q0 9 -47.5 80.5t-47.5 75.5q26 58 38 140q57 -56 106 -66
q16 -4 131 -4v-213zM407 627l111 110l-111 108l-218 -218l-110 110l109 108zM304 1074l110 -109l-110 -112l-109 112z" />
    <glyph glyph-name="uniFB8E" unicode="&#x6a9;" horiz-adv-x="1500" arabic-form="isolated" 
d="M1039 100q151 0 245 117q84 106 84 247q0 121 -83 220q-59 69 -168 137q-121 75 -126 80q52 52 217 140q103 55 289 141l146 69q2 2 36 179q-112 -23 -307 -130q-56 -31 -135 -78q-112 -66 -152 -94q-189 -132 -189 -278q0 -95 97 -165q61 -36 183 -109q98 -62 98 -146
q0 -54 -89 -89q-71 -28 -128 -28h-509q-135 0 -201 8q-225 28 -225 179q0 50 15 117q12 57 24 85q-57 -26 -102 -145q-39 -103 -39 -180q0 -148 119 -220q97 -57 258 -57h642z" />
    <glyph glyph-name="uniFB8F" unicode="&#x6a9;" horiz-adv-x="1900" arabic-form="final" 
d="M377 100q-161 0 -258 57q-119 72 -119 220q0 78 39 181q44 118 102 144q-12 -28 -24 -85q-15 -67 -15 -117q0 -150 225 -178q73 -9 201 -9h482q52 0 123 33q93 43 93 108t-95 135q-58 44 -176 131q-96 86 -96 182q0 26 9 82q10 62 19 78q23 42 227 166q137 83 257 147
q193 102 308 140q-19 -85 -38 -171q-5 -6 -159 -83q-208 -104 -313 -161q-186 -103 -263 -170q113 -64 335 -201q118 -79 250 -186l204 -165q59 -46 110 -57q32 -8 118 -8v-213h-130q-64 29 -135 89q-55 47 -145 138l-183 188q-39 -140 -72 -210q-94 -205 -277 -205h-604z
" />
    <glyph glyph-name="uniFB90" unicode="&#x6a9;" horiz-adv-x="700" arabic-form="initial" 
d="M871 1430q-34 -177 -36 -179l-146 -68q-166 -78 -265 -130q-186 -96 -241 -152q8 -8 125 -80q110 -68 168 -136q84 -100 84 -221q0 -141 -84 -247q-94 -117 -245 -117h-236v213h254q60 0 128 27q89 35 89 90q0 85 -97 146q-62 35 -183 108q-98 65 -98 166q0 146 188 277
q37 25 153 95q171 103 294 157q88 39 148 51z" />
    <glyph glyph-name="uniFB91" unicode="&#x6a9;" horiz-adv-x="1100" arabic-form="medial" 
d="M1125 100h-130q-64 29 -135 89q-55 47 -145 138l-183 188q-39 -140 -72 -210q-94 -205 -277 -205h-198v213h227q52 0 123 33q93 43 93 108t-95 135q-58 44 -176 131q-96 86 -96 182q0 26 9 82q10 62 19 78q23 42 227 166q137 83 257 147q193 102 308 140
q-19 -85 -38 -171q-5 -6 -159 -83q-208 -104 -313 -161q-186 -103 -263 -170q113 -64 335 -201q118 -79 250 -186l204 -165q59 -46 110 -57q32 -8 118 -8v-213z" />
    <glyph glyph-name="uniFB92" unicode="&#x6af;" horiz-adv-x="1500" arabic-form="isolated" 
d="M1039 100q151 0 245 117q84 106 84 247q0 121 -83 220q-59 69 -168 137q-121 75 -126 80q52 52 217 140q103 55 289 141l146 69q2 2 36 179q-112 -23 -307 -130q-56 -31 -135 -78q-112 -66 -152 -94q-189 -132 -189 -278q0 -95 97 -165q61 -36 183 -109q98 -62 98 -146
q0 -54 -89 -89q-71 -28 -128 -28h-509q-135 0 -201 8q-225 28 -225 179q0 50 15 117q12 57 24 85q-57 -26 -102 -145q-39 -103 -39 -180q0 -148 119 -220q97 -57 258 -57h642zM1071 1369q37 25 153 95q171 103 294 157q88 39 148 51q-34 -137 -36 -139l-146 -68
q-166 -78 -265 -140q-186 -116 -252 -170l-100 -89q-6 17 -6 37q0 42 29 94q41 75 181 172z" />
    <glyph glyph-name="uniFB93" unicode="&#x6af;" horiz-adv-x="1900" arabic-form="final" 
d="M377 100q-161 0 -258 57q-119 72 -119 220q0 78 39 181q44 118 102 144q-12 -28 -24 -85q-15 -67 -15 -117q0 -150 225 -178q73 -9 201 -9h482q52 0 123 33q93 43 93 108t-95 135q-58 44 -176 131q-96 86 -96 182q0 26 9 82q10 62 19 78q23 42 227 166q137 83 257 147
q193 102 308 140q-19 -85 -38 -171q-5 -6 -159 -83q-208 -104 -313 -161q-186 -103 -263 -170q113 -64 335 -201q118 -79 250 -186l204 -165q59 -46 110 -57q32 -8 118 -8v-213h-130q-64 29 -135 89q-55 47 -145 138l-183 188q-39 -140 -72 -210q-94 -205 -277 -205h-604z
M1071 1447q37 25 153 95q171 103 294 157q88 39 148 51q-34 -137 -36 -139l-146 -68q-166 -78 -265 -140q-186 -116 -252 -170l-100 -89q-6 17 -6 37q0 42 29 94q41 75 181 172z" />
    <glyph glyph-name="uniFB94" unicode="&#x6af;" horiz-adv-x="700" arabic-form="initial" 
d="M184 900q13 -11 124 -79q110 -68 168 -136q84 -100 84 -221q0 -141 -84 -247q-94 -117 -245 -117h-236v213h254q60 0 128 27q89 35 89 90q0 85 -97 146q-62 35 -183 108q-98 65 -98 166q0 38 12 74q36 106 176 203q37 25 153 95q171 103 294 157q88 39 148 51
q-34 -177 -36 -179l-146 -68q-166 -78 -265 -130q-186 -96 -241 -152zM265 1355q37 25 153 95q171 103 294 157q88 39 148 51q-34 -137 -36 -139l-146 -68q-166 -78 -265 -140q-186 -116 -252 -170l-100 -89q-6 17 -6 37q0 42 29 94q41 75 181 172z" />
    <glyph glyph-name="uniFB95" unicode="&#x6af;" horiz-adv-x="1100" arabic-form="medial" 
d="M1115 100h-110q-64 29 -135 89q-55 47 -145 138l-183 188q-39 -140 -72 -210q-94 -205 -277 -205h-198v213h227q52 0 123 33q93 43 93 108t-95 135q-58 44 -176 131q-96 86 -96 182q0 26 9 82q10 62 19 78q23 42 227 166q137 83 257 147q193 102 308 140
q-19 -85 -38 -171q-5 -6 -159 -83q-208 -104 -313 -161q-186 -103 -263 -170q113 -64 335 -201q118 -79 250 -186l204 -165q59 -46 110 -57q32 -8 98 -8v-213zM281 1439q37 25 153 95q171 103 294 157q88 39 148 51q-34 -137 -36 -139l-146 -68q-166 -78 -265 -140
q-186 -116 -252 -170l-100 -89q-6 17 -6 37q0 42 29 94q41 75 181 172z" />
    <glyph glyph-name="uniFBA4" unicode="&#x6c0;" horiz-adv-x="501" arabic-form="isolated" 
d="M477 416q0 -122 -56 -212q-65 -104 -181 -104q-141 0 -141 174q0 73 63 227q20 49 22 52v1q0 4 -4 21q-5 20 -5 27q0 61 47 177q21 -25 186 -175q69 -62 69 -188zM401 369q0 13 -78 79q-58 49 -82 67q-58 -58 -58 -132q0 -94 76 -94q31 0 84 28q58 30 58 52zM432 1186
q-6 -8 -24 -43q-11 -23 -24 -23q-10 0 -31 1t-30 1h-2q-80 0 -191 -88q-3 16 -3 26q0 14 4 25q9 28 9 35q0 17 -12 36q-27 43 -27 58q0 37 81.5 103t120.5 66q20 0 36 -15.5t16 -35.5q0 -50 -26 -50q-12 0 -36 7.5t-36 7.5q-52 0 -80 -74q29 -21 41 -27q23 -11 88 -11h83
q5 0 15 1h28z" />
    <glyph glyph-name="uniFBA5" unicode="&#x6c0;" horiz-adv-x="800" arabic-form="final" 
d="M814 100h-177q-74 0 -105 81q-46 119 -55 136q-64 -89 -122 -113q-45 -19 -147 -19h-10q-117 0 -117 52q0 198 217 335q36 22 79 46q7 3 35 18l-13 143q23 56 69 113q0 -61 16 -177q47 -352 136 -392q21 -10 109 -10h85v-213zM439 450q0 11 -9 46q-3 12 -9 37
q-63 -28 -122 -63q-27 -16 -77 -49q52 -19 85 -19q27 0 75 13q57 16 57 35zM491 1186q-5 -8 -23 -43q-12 -23 -25 -23q-10 0 -31 1t-30 1h-2q-80 0 -191 -88q-2 16 -2 26q0 14 3 25q9 28 9 35q0 17 -12 36q-26 43 -26 58q0 37 81 103t120 66q20 0 36 -15.5t16 -35.5
q0 -50 -26 -50q-11 0 -35.5 7.5t-36.5 7.5q-51 0 -80 -74q29 -21 41 -27q23 -11 88 -11h83q5 0 16 1h27z" />
    <glyph glyph-name="uniFBAA" unicode="&#x6be;" horiz-adv-x="901" arabic-form="isolated" 
d="M820 421q0 -121 -23 -164q-34 -61 -142 -61q-68 0 -124 11l-112 26q-16 -13 -31 -24q-46 -35 -79 -57q-95 -65 -336 -124q-74 -18 -81 -18l292 149q117 79 117 142q0 23 -26.5 79.5t-26.5 90.5q0 36 16 73q21 48 33 69q20 38 43 63q0 10 -18 24q-9 8 -11 13q-1 4 -1 9
q0 31 34 109q39 91 61 91q5 0 62 -51l202 -177q95 -79 129 -141q22 -42 22 -99v-33zM754 364q-12 44 -72 104q-81 81 -126 104q19 -39 19 -78q0 -41 -28 -111q49 -6 99 -14q68 -9 89 -24zM509 487q0 25 -23 59q-30 44 -80 64q-6 -9 -54 -64q-28 -32 -41 -78q72 -38 108 -38
q25 0 55 17q35 17 35 40z" />
    <glyph glyph-name="uniFBAB" unicode="&#x6be;" horiz-adv-x="1100" arabic-form="final" 
d="M774 364q-26 26 -51 53l-95 100q-41 44 -52 55q19 -39 19 -77q0 -44 -28 -112l188 -38zM505 547q-29 43 -79 63q-6 -9 -54 -64q-28 -32 -41 -78q71 -38 108 -38q25 0 55 17q35 18 35 40q0 25 -24 60zM772 205q-23 -9 -97 -9q-108 0 -236 37q-21 -16 -31 -24
q-40 -30 -79 -57q-95 -67 -337 -125q-70 -17 -80 -17l292 149q117 77 117 141q0 21 -26.5 77.5t-26.5 90.5q0 39 16 76q44 100 76 132q0 9 -14 21.5t-15 15.5q-1 4 -1 9q0 31 34 109q39 91 61 91q5 0 52 -42l101 -91q79 -70 108 -95q134 -112 173 -239q7 -26 10 -40
q50 -69 88 -87q32 -15 173 -15v-213h-134q-36 0 -93 32q-73 42 -98 107q-23 -30 -33 -34z" />
    <glyph glyph-name="uniFBAC" unicode="&#x6be;" horiz-adv-x="800" arabic-form="initial" 
d="M720 421q0 -121 -23 -164q-34 -61 -142 -61q-68 0 -124 11l-112 26q-10 -11 -32 -34q-101 -99 -179 -99h-113v213q84 0 94 1q76 7 76 37q0 13 -10.5 49t-10.5 56q0 43 20 88q41 95 75 132q0 10 -17 24q-9 8 -11 13q-1 4 -1 9q0 31 34 109q39 91 61 91q5 0 62 -51
l201 -177q96 -79 130 -141q22 -42 22 -99v-33zM654 364q-12 44 -72 104q-81 81 -126 104q19 -39 19 -78q0 -41 -28 -111q49 -6 99 -14q68 -9 89 -24zM409 487q0 25 -23 59q-30 44 -80 64q-6 -9 -54 -64q-28 -32 -41 -78q72 -38 108 -38q25 0 55 17q35 17 35 40z" />
    <glyph glyph-name="uniFBAD" unicode="&#x6be;" horiz-adv-x="999" arabic-form="medial" 
d="M654 364q-12 44 -72 104q-81 81 -126 104q19 -39 19 -78q0 -41 -28 -111q49 -6 99 -14q68 -9 89 -24zM409 487q0 25 -23 59q-30 44 -80 64q-6 -9 -54 -64q-28 -32 -41 -78q72 -38 108 -38q25 0 55 17q35 17 35 40zM685 239q-35 -43 -130 -43q-68 0 -124 11l-112 26
q-10 -11 -32 -34q-101 -99 -179 -99h-113v213q84 0 94 1q76 7 76 37q0 13 -10.5 49t-10.5 56q0 43 20 88q41 95 75 132q0 10 -17 24q-9 8 -11 13q-1 4 -1 9q0 31 34 109q39 91 61 91q5 0 53 -38q128 -102 209 -190q63 -69 112 -144q36 -56 55 -99l15 -36q21 -30 31 -42
q41 -51 102 -57q24 -3 138 -3v-213h-144q-37 0 -92 31q-73 43 -99 108z" />
    <glyph glyph-name="uniFBD3" unicode="&#x6ad;" horiz-adv-x="1128" arabic-form="isolated" 
d="M1064 454q0 -89 -136 -198q-104 -82 -216 -130q-173 -76 -349 -76q-281 0 -345 169q-18 47 -18 109q0 73 41 179q45 119 100 144q-37 -96 -37 -206q0 -154 188 -193q66 -14 155 -14q165 0 336 68q178 71 178 148q0 94 -3 264l-7 507q0 21 42 80q39 52 62 72
q0 -195 3 -328l4 -298q2 -165 2 -297zM613 809q0 -43 -27 -71q-9 -9 -28 -18q-7 5 -10 7q-14 7 -29 7q-46 0 -84 -75q-4 -8 -4 -14q0 -10 46 -19q58 -12 84 -26q45 -24 45 -73q0 -72 -48 -110q-44 -36 -118 -36q-52 0 -80 21q-10 7 -37 45q47 -11 84 -11q53 0 90 23
q19 11 52 44q-31 31 -111 31q-42 0 -55 5q-23 8 -23 40q0 28 48 115q40 70 69 109q50 68 81 68q20 0 37.5 -21t17.5 -41zM718 1006l-112 110l-218 -217l-110 107l110 110l218 -217zM604 1235l-111 112l-108 -112l108 -108z" />
    <glyph glyph-name="uniFBD4" unicode="&#x6ad;" horiz-adv-x="1301" arabic-form="final" 
d="M1330 100h-151q-109 50 -128 83q-11 20 -70 124q-23 -33 -92 -83q-235 -171 -512 -171q-161 0 -258 57q-119 72 -119 220q0 78 39 181q44 117 102 144q-12 -28 -24 -85q-15 -67 -15 -117q0 -156 225 -197q82 -16 201 -16q48 0 145 30q117 37 192 88q97 66 97 135v7
l-48 708q9 45 55 107q37 49 69 76q0 -301 14 -585q2 -31 5 -94q2 -261 52 -341q37 -59 141 -59q13 0 40 0.5t40 0.5v-213zM633 809q0 -43 -27 -71q-9 -9 -28 -18q-7 5 -10 7q-14 7 -29 7q-46 0 -84 -75q-4 -8 -4 -14q0 -10 46 -19q58 -12 84 -26q45 -24 45 -73
q0 -72 -48 -110q-44 -36 -118 -36q-52 0 -80 21q-10 7 -37 45q47 -11 84 -11q53 0 90 23q19 11 52 44q-31 31 -111 31q-42 0 -55 5q-23 8 -23 40q0 28 48 115q40 70 69 109q50 68 81 68q20 0 37.5 -21t17.5 -41zM738 1006l-112 110l-218 -217l-110 107l110 110l218 -217z
M624 1235l-111 112l-108 -112l108 -108z" />
    <glyph glyph-name="uniFBD5" unicode="&#x6ad;" horiz-adv-x="700" arabic-form="initial" 
d="M871 1290q-34 -177 -36 -179l-146 -48q-166 -58 -265 -100q-186 -86 -241 -142q8 -8 125 -80q110 -68 168 -136q84 -100 84 -201q0 -91 -84 -187q-94 -117 -245 -117h-236v213h254q60 0 128 7q89 15 89 50q0 65 -97 126q-62 35 -183 108q-98 65 -98 166q0 146 188 267
q37 25 153 85q171 83 294 127q88 29 148 41zM642 1350l-112 110l-218 -217l-110 107l110 110l218 -217zM528 1579l-111 112l-108 -112l108 -108z" />
    <glyph glyph-name="uniFBD6" unicode="&#x6ad;" horiz-adv-x="1100" arabic-form="medial" 
d="M1125 100h-130q-64 29 -135 89q-55 47 -145 138l-183 158q-39 -130 -72 -180q-94 -205 -277 -205h-198v213h227q52 0 123 13q93 43 93 108q0 55 -95 115q-58 44 -176 131q-96 86 -96 182q0 26 9 82q10 62 19 78q23 42 227 146q137 63 257 107q193 62 308 100
q-19 -85 -38 -171q-5 -6 -159 -43q-208 -84 -313 -121q-186 -83 -263 -150q113 -64 335 -201q118 -79 250 -176q68 -55 204 -155q59 -26 110 -37q32 -8 118 -8v-213zM586 1409l-112 110l-218 -217l-110 107l110 110l218 -217zM472 1638l-111 112l-108 -112l108 -108z" />
    <glyph glyph-name="uniFBD7" unicode="&#x6c7;" horiz-adv-x="599" arabic-form="isolated" 
d="M517 326q0 -139 -44 -260q-49 -138 -144 -216q-107 -89 -259 -89q-94 0 -171 26q-23 7 -125 49q440 0 624 235q62 81 62 146q0 34 -18 72q-67 -85 -145 -85q-100 0 -100 127q0 77 52 176q58 111 119 111q49 0 93 -66q56 -84 56 -226zM395 383q0 51 -74 85
q-25 -47 -32 -65l-16 -39q55 -28 57 -28q17 0 38 11q27 15 27 36zM453 914q6 -20 6 -44q0 -11 -1 -22q-7 -49 -42 -83q-30 -29 -69 -29q-7 0 -15 1q-29 2 -39 17q30 4 61 20q37 22 39 46q0 8 -4.5 11.5t-11.5 3.5q-7 -1 -13 -1q-44 0 -61 32q-9 15 -9 33q0 11 4 22
q14 55 64 59h6q33 0 60 -22q17 -15 25 -44z" />
    <glyph glyph-name="uniFBD8" unicode="&#x6c7;" horiz-adv-x="700" arabic-form="final" 
d="M453 850q6 -20 6 -44q0 -11 -1 -22q-7 -49 -42 -83q-30 -29 -69 -29q-7 0 -15 1q-29 2 -39 17q30 4 61 20q37 22 39 46q0 8 -4.5 11.5t-11.5 3.5q-7 -1 -13 -1q-44 0 -61 32q-9 15 -9 33q0 11 4 22q14 55 64 59h6q33 0 60 -22q17 -15 25 -44zM718 100h-199
q-14 -37 -44 -109q-53 -117 -138 -198q-113 -108 -251 -108q-189 0 -331 141q153 -12 223 -12h54q17 2 25 3q81 0 171 55q113 70 208 228h-128q-110 26 -110 133q0 140 74 247q67 96 105 96q46 0 84 -63q33 -73 67 -205q4 -1 17 -1h121q47 0 52 1v-208zM415 301
q-7 44 -19 68q-41 46 -61 46q-3 0 -5 -1q-19 -25 -28 -48q-7 -15 -7 -28q0 -21 8 -29t34 -8h78z" />
    <glyph glyph-name="uniFBD9" unicode="&#x6c6;" horiz-adv-x="599" arabic-form="isolated" 
d="M517 326q0 -139 -44 -260q-49 -138 -144 -216q-107 -89 -259 -89q-94 0 -171 26q-23 7 -125 49q440 0 624 235q62 81 62 146q0 34 -18 72q-67 -85 -145 -85q-100 0 -100 127q0 77 52 176q58 111 119 111q49 0 93 -66q56 -84 56 -226zM395 383q0 51 -74 85
q-25 -47 -32 -65l-16 -39q55 -28 57 -28q17 0 38 11q27 15 27 36zM504 955q-122 -203 -145 -203h-5q-37 31 -88 97q-19 21 -46 67q14 46 57 81q18 -11 109 -129q74 124 84 126q19 -9 34 -39z" />
    <glyph glyph-name="uniFBDA" unicode="&#x6c6;" horiz-adv-x="700" arabic-form="final" 
d="M513 855q-122 -203 -145 -203h-5q-37 31 -88 97q-19 21 -46 67q14 46 57 81q18 -11 109 -129q74 124 84 126q19 -9 34 -39zM718 100h-199q-14 -37 -44 -109q-53 -117 -138 -198q-113 -108 -251 -108q-189 0 -331 141q153 -12 223 -12h54q17 2 25 3q81 0 171 55
q113 70 208 228h-128q-110 26 -110 133q0 140 74 247q67 96 105 96q46 0 84 -63q33 -73 67 -205q4 -1 17 -1h121q47 0 52 1v-208zM415 301q-7 44 -19 68q-41 46 -61 46q-3 0 -5 -1q-19 -25 -28 -48q-7 -15 -7 -28q0 -21 8 -29t34 -8h78z" />
    <glyph glyph-name="uniFBDB" unicode="&#x6c8;" horiz-adv-x="599" arabic-form="isolated" 
d="M517 326q0 -139 -44 -260q-49 -138 -144 -216q-107 -89 -259 -89q-94 0 -171 26q-23 7 -125 49q440 0 624 235q62 81 62 146q0 34 -18 72q-67 -85 -145 -85q-100 0 -100 127q0 77 52 176q58 111 119 111q49 0 93 -66q56 -84 56 -226zM395 383q0 51 -74 85
q-25 -47 -32 -65l-16 -39q55 -28 57 -28q17 0 38 11q27 15 27 36zM395 813q-23 -67 -54 -70l-18 275q40 87 65 87h7v-292z" />
    <glyph glyph-name="uniFBDC" unicode="&#x6c8;" horiz-adv-x="700" arabic-form="final" 
d="M398 740q-23 -67 -54 -70l-18 275q40 87 65 87h7v-292zM718 100h-199q-14 -37 -44 -109q-53 -117 -138 -198q-113 -108 -251 -108q-189 0 -331 141q153 -12 223 -12h54q17 2 25 3q81 0 171 55q113 70 208 228h-128q-110 26 -110 133q0 140 74 247q67 96 105 96
q46 0 84 -63q33 -73 67 -205q4 -1 17 -1h121q47 0 52 1v-208zM415 301q-7 44 -19 68q-41 46 -61 46q-3 0 -5 -1q-19 -25 -28 -48q-7 -15 -7 -28q0 -21 8 -29t34 -8h78z" />
    <glyph glyph-name="uniFBDD" unicode="&#x677;" horiz-adv-x="901" arabic-form="isolated" 
d="M517 326q0 -139 -44 -260q-49 -138 -144 -216q-107 -89 -259 -89q-94 0 -171 26q-23 7 -125 49q440 0 624 235q62 81 62 146q0 34 -18 72q-67 -85 -145 -85q-100 0 -100 127q0 77 52 176q58 111 119 111q49 0 93 -66q56 -84 56 -226zM395 383q0 51 -74 85
q-25 -47 -32 -65l-16 -39q55 -28 57 -28q17 0 38 11q27 15 27 36zM453 914q6 -20 6 -44q0 -11 -1 -22q-7 -49 -42 -83q-30 -29 -69 -29q-7 0 -15 1q-29 2 -39 17q30 4 61 20q37 22 39 46q0 8 -4.5 11.5t-11.5 3.5q-7 -1 -13 -1q-44 0 -61 32q-9 15 -9 33q0 11 4 22
q14 55 64 59h6q33 0 60 -22q17 -15 25 -44zM897 900q-6 -7 -24 -43q-11 -23 -24 -23q-11 0 -31.5 1.5t-29.5 1.5h-2q-80 0 -191 -89q-3 17 -3 26q0 15 4 26q9 28 9 34q0 17 -12 36q-27 44 -27 59q0 37 81.5 103t120.5 66q20 0 36 -15.5t16 -36.5q0 -50 -26 -50q-12 0 -36 8
t-37 8q-51 0 -79 -74q29 -22 40 -27q24 -12 89 -12h83q5 0 15 1h28z" />
    <glyph glyph-name="uniFBDE" unicode="&#x6cb;" horiz-adv-x="599" arabic-form="isolated" 
d="M517 326q0 -139 -44 -260q-49 -138 -144 -216q-107 -89 -259 -89q-94 0 -171 26q-23 7 -125 49q440 0 624 235q62 81 62 146q0 34 -18 72q-67 -85 -145 -85q-100 0 -100 127q0 77 52 176q58 111 119 111q49 0 93 -66q56 -84 56 -226zM395 383q0 51 -74 85
q-25 -47 -32 -65l-16 -39q55 -28 57 -28q17 0 38 11q27 15 27 36zM524 821l-112 110l-218 -217l-110 107l110 110l218 -217zM410 1050l-111 112l-108 -112l108 -108z" />
    <glyph glyph-name="uniFBDF" unicode="&#x6cb;" horiz-adv-x="700" arabic-form="final" 
d="M558 782l-112 110l-218 -217l-110 107l110 110l218 -217zM444 1011l-111 112l-108 -112l108 -108zM718 100h-199q-14 -37 -44 -109q-53 -117 -138 -198q-113 -108 -251 -108q-189 0 -331 141q153 -12 223 -12h54q17 2 25 3q81 0 171 55q113 70 208 228h-128
q-110 26 -110 133q0 140 74 247q67 96 105 96q46 0 84 -63q33 -73 67 -205q4 -1 17 -1h121q47 0 52 1v-208zM415 301q-7 44 -19 68q-41 46 -61 46q-3 0 -5 -1q-19 -25 -28 -48q-7 -15 -7 -28q0 -21 8 -29t34 -8h78z" />
    <glyph glyph-name="uniFBE0" unicode="&#x6c5;" horiz-adv-x="599" arabic-form="isolated" 
d="M461 552q-44 66 -93 66q-61 0 -119 -111q-52 -99 -52 -176q0 -127 100 -127q78 0 145 85q18 -38 18 -72q0 -65 -62 -146q-184 -235 -404 -235q192 201 394 206l25 35h-19q-282 0 -414 -113q-122 -104 -122 -137q0 -4 2 -6q16 -27 39 -34q77 -26 171 -26q152 0 259 89
q95 78 144 216q44 121 44 260q0 142 -56 226zM368 347q-21 -11 -38 -11q-2 0 -57 28l16 39q7 18 32 65q74 -34 74 -85q0 -21 -27 -36z" />
    <glyph glyph-name="uniFBE1" unicode="&#x6c5;" horiz-adv-x="700" arabic-form="final" 
d="M312 -64q-294 -26 -294 -91q0 -15 14 -31q14 -2 28 -2q74 0 168 60q43 27 84 64zM415 241q-7 44 -19 68q-41 46 -61 46q-3 0 -5 -1q-19 -25 -28 -48q-7 -15 -7 -28q0 -21 8 -29t34 -8h78zM350 -26q44 47 84 107l-152 24q-84 21 -84 108q0 100 74 207q67 96 105 96
q46 0 84 -63q33 -73 67 -145q4 -1 17 -1h121q47 0 52 1v-208h-199q-14 -37 -44 -109q-53 -117 -138 -198q-113 -108 -251 -108h-9q-142 0 -181 88q-11 25 -11 50q0 67 79 136q59 51 168 51q91 0 218 -36z" />
    <glyph glyph-name="uniFBE2" unicode="&#x6c9;" horiz-adv-x="599" arabic-form="isolated" 
d="M517 326q0 -139 -44 -260q-49 -138 -144 -216q-107 -89 -259 -89q-94 0 -171 26q-23 7 -125 49q440 0 624 235q62 81 62 146q0 34 -18 72q-67 -85 -145 -85q-100 0 -100 127q0 77 52 176q58 111 119 111q49 0 93 -66q56 -84 56 -226zM395 383q0 51 -74 85
q-25 -47 -32 -65l-16 -39q55 -28 57 -28q17 0 38 11q27 15 27 36zM220 794q122 203 145 203h5q37 -31 88 -97q19 -21 46 -67q-14 -46 -57 -81q-18 10 -109 129q-74 -125 -84 -126q-19 9 -34 39z" />
    <glyph glyph-name="uniFBE3" unicode="&#x6c9;" horiz-adv-x="700" arabic-form="final" 
d="M229 694q122 203 145 203h5q37 -31 88 -97q19 -21 46 -67q-14 -46 -57 -81q-18 10 -109 129q-74 -125 -84 -126q-19 9 -34 39zM718 100h-199q-14 -37 -44 -109q-53 -117 -138 -198q-113 -108 -251 -108q-189 0 -331 141q153 -12 223 -12h54q17 2 25 3q81 0 171 55
q113 70 208 228h-128q-110 26 -110 133q0 140 74 247q67 96 105 96q46 0 84 -63q33 -73 67 -205q4 -1 17 -1h121q47 0 52 1v-208zM415 301q-7 44 -19 68q-41 46 -61 46q-3 0 -5 -1q-19 -25 -28 -48q-7 -15 -7 -28q0 -21 8 -29t34 -8h78z" />
    <glyph glyph-name="uniFBE4" unicode="&#x6d0;" horiz-adv-x="1119" arabic-form="isolated" 
d="M1062 729q0 -44 -18 -79q-43 -89 -47 -100l-35 37q-20 20 -41 20q-32 0 -112 -56q-66 -46 -101 -82q-61 -61 -61 -103q0 -59 100 -77q19 -3 186 -33q100 -32 100 -124q0 -74 -82 -175q-91 -113 -229 -185q-166 -87 -352 -87q-366 0 -366 385q0 80 38 187q44 125 103 152
q-47 -162 -47 -239q0 -279 319 -279q33 0 125 19q128 26 223 65q128 54 165 124q-80 5 -161 10q-111 12 -148 39q-49 36 -49 120q0 105 83 242q72 116 167 200q107 94 188 94q24 0 39 -26q13 -22 13 -49zM598 -778l111 111l-218 219l107 109l111 -109l-218 -219z" />
    <glyph glyph-name="uniFBE5" unicode="&#x6d0;" horiz-adv-x="1201" arabic-form="final" 
d="M1217 100l-384 1q-6 -7 -6 -13q0 -22 85 -35q120 -16 134 -21q85 -27 85 -83q0 -42 -61 -118q-197 -249 -607 -249q-189 0 -308 69q-143 83 -143 246q0 78 67 192q71 131 149 182q-6 -30 -79 -195q-26 -29 -26 -99q0 -178 227 -214q66 -11 170 -11q100 0 251 32
q175 39 229 90q8 7 8 13q0 13 -80 23q-105 13 -149 30q-81 30 -81 96q0 106 119 195q108 82 248 82h152v-213zM600 -782l111 91l-218 179l107 90l111 -90l-218 -179z" />
    <glyph glyph-name="uniFBE6" unicode="&#x6d0;" horiz-adv-x="501" arabic-form="initial" 
d="M434 435q0 -266 -197 -319q-61 -16 -166 -16h-84v213h90q242 0 290 60q0 13 -29 73q-8 15 -29 57q17 33 34 67q38 79 45 102l30 -121q16 -65 16 -116zM203 -464l111 111l-218 219l107 109l111 -109l-218 -219z" />
    <glyph glyph-name="uniFBE7" unicode="&#x6d0;" horiz-adv-x="501" arabic-form="medial" 
d="M519 100h-116q-56 0 -94 41q-5 6 -71 104q-15 -26 -45 -77q-43 -68 -118 -68h-88v213q140 0 198 25q30 13 51 68q25 64 59 92q0 -123 41 -158q33 -27 141 -27h42v-213zM248 -464l111 111l-218 219l107 109l111 -109l-218 -219z" />
    <glyph glyph-name="uniFBE8" unicode="&#x649;" horiz-adv-x="400" arabic-form="initial" 
d="M344 435q0 -266 -197 -319q-71 -16 -96 -16h-54v213h60q172 0 220 60q0 13 -29 73q-8 15 -39 57q27 33 44 67q38 79 45 102l30 -121q16 -65 16 -116z" />
    <glyph glyph-name="uniFBE9" unicode="&#x649;" horiz-adv-x="501" arabic-form="medial" 
d="M519 100h-116q-56 0 -94 41q-5 6 -71 104q-15 -26 -45 -77q-43 -68 -118 -68h-88v213q140 0 198 25q30 13 51 68q25 64 59 92q0 -123 41 -158q33 -27 141 -27h42v-213z" />
    <glyph glyph-name="uniFBFC" unicode="&#x6cc;" horiz-adv-x="1119" arabic-form="isolated" 
d="M1062 729q0 -44 -18 -79q-43 -89 -47 -100l-35 37q-20 20 -41 20q-32 0 -112 -56q-66 -46 -101 -82q-61 -61 -61 -103q0 -59 100 -77q19 -3 186 -33q100 -32 100 -124q0 -74 -82 -175q-91 -113 -229 -185q-166 -87 -352 -87q-366 0 -366 385q0 80 38 187q44 125 103 152
q-47 -162 -47 -239q0 -279 319 -279q33 0 125 19q128 26 223 65q128 54 165 124q-80 5 -161 10q-111 12 -148 39q-49 36 -49 120q0 105 83 242q72 116 167 200q107 94 188 94q24 0 39 -26q13 -22 13 -49z" />
    <glyph glyph-name="uniFBFD" unicode="&#x6cc;" horiz-adv-x="1201" arabic-form="final" 
d="M1217 100h-208q-55 -9 -86 -15q-118 -22 -118 -40q0 -6 107 -22q120 -16 134 -21q85 -27 85 -83q0 -42 -61 -118q-197 -249 -607 -249q-189 0 -308 69q-143 83 -143 246q0 78 67 202q71 131 149 182q-6 -30 -79 -195q-26 -59 -26 -109q0 -178 227 -214q66 -11 170 -11
q100 0 251 32q175 39 229 90q8 7 8 13q0 13 -80 23q-105 13 -149 30q-81 30 -81 96q0 136 119 225q108 82 248 82h152v-213z" />
    <glyph glyph-name="uniFBFE" unicode="&#x6cc;" horiz-adv-x="501" arabic-form="initial" 
d="M434 435q0 -266 -197 -319q-61 -16 -166 -16h-84v213h90q242 0 290 60q0 13 -29 73q-8 15 -29 57q17 33 34 67q38 79 45 102l30 -121q16 -65 16 -116zM469 -153l-112 110l-218 -217l-110 107l110 110l218 -217z" />
    <glyph glyph-name="uniFBFF" unicode="&#x6cc;" horiz-adv-x="599" arabic-form="medial" 
d="M614 100h-164q-44 0 -105 53q-51 46 -79 93q-16 -29 -50 -86q-37 -60 -113 -60h-116v213h162q65 0 106 65q10 15 68 112q2 -53 5 -79q12 -98 132 -98h154v-213zM530 -153l-112 110l-218 -217l-110 107l110 110l218 -217z" />
    <glyph glyph-name="uniFC5E" unicode="&#xfc5e;" horiz-adv-x="0" arabic-form="isolated" 
d="M474 1724q0 -40 -12.5 -75t-35.5 -71q16 -11 25 -24t9 -26q0 -51 -7 -96l-93 73q-50 -58 -112 -90q-76 -39 -170 -39q43 71 47 80q13 29 13 56q0 25 -11 45.5t-30 20.5q-22 0 -42 -27q-7 -11 -29 -48q8 75 20 109q21 59 70 59q37 0 58 -35.5t21 -80.5q0 -24 -5 -46
q-7 -31 -11 -47q74 21 142 72q-18 17 -35 36q-28 31 -28 65q0 51 41 101q47 57 104 57q30 0 50.5 -20.5t20.5 -48.5zM396 1660q0 25 -12.5 45t-34.5 20q-23 0 -23 -29q0 -20 19 -41q5 -7 38 -35q13 19 13 40zM449 1298q0 -82 -27 -134q-32 -58 -87 -58q-19 0 -35.5 6.5
t-36.5 21.5q-23 -39 -42 -59q-35 -34 -73 -34q-45 0 -67.5 30.5t-22.5 84.5q0 28 7.5 55t21.5 61l23 10q0 -8 -2.5 -27.5t-2.5 -32.5q0 -23 10 -42.5t29 -19.5q46 0 75 61q12 28 32 109l23 6q8 -53 13 -65q14 -33 43 -33q42 0 65 54q20 43 20 90l22 6q5 -21 8.5 -46t3.5 -44
z" />
    <glyph glyph-name="uniFC5F" unicode="&#xfc5f;" horiz-adv-x="0" arabic-form="isolated" 
d="M431 1714q0 -82 -27 -134q-32 -58 -87 -58q-19 0 -35.5 6.5t-36.5 21.5q-23 -39 -42 -59q-35 -34 -73 -34q-45 0 -67.5 30.5t-22.5 84.5q0 28 7.5 55t21.5 61l23 10q0 -8 -2.5 -27.5t-2.5 -32.5q0 -23 10 -42.5t29 -19.5q46 0 75 61q12 28 32 109l23 6q8 -53 13 -65
q14 -33 43 -33q42 0 65 54q20 43 20 90l22 6q5 -21 8.5 -46t3.5 -44zM414 1457q0 -50 -54 -96q-98 -40 -314 -126q0 46 47 89q90 38 321 133zM414 1296q0 -52 -14 -64.5t-39 -33.5q-99 -41 -315 -127q0 46 47 89q90 39 321 136z" />
    <glyph glyph-name="uniFC60" unicode="&#xfc60;" horiz-adv-x="0" arabic-form="isolated" 
d="M426 1779q0 -50 -55 -99q-97 -37 -313 -124q0 47 47 90q90 38 321 133zM431 1500q0 -82 -27 -134q-32 -58 -87 -58q-19 0 -35.5 6.5t-36.5 21.5q-23 -39 -42 -59q-35 -34 -73 -34q-45 0 -67.5 30.5t-22.5 84.5q0 28 7.5 55t21.5 61l23 10q0 -8 -2.5 -27.5t-2.5 -32.5
q0 -23 10 -42.5t29 -19.5q46 0 75 61q12 28 32 109l23 6q8 -53 13 -65q14 -33 43 -33q42 0 65 54q20 43 20 90l22 6q5 -21 8.5 -46t3.5 -44z" />
    <glyph glyph-name="uniFC61" unicode="&#xfc61;" horiz-adv-x="0" arabic-form="isolated" 
d="M419 1503q0 -18 -3.5 -38t-6.5 -39l-89 54q-54 -59 -73 -79q-81 -77 -135 -77h-78q57 26 133 87q70 55 105 97q-33 21 -51 43q-21 29 -21 62q0 71 41.5 125t90.5 54q27 0 49.5 -29.5t22.5 -73.5q0 -20 -5.5 -42t-27.5 -82q18 -15 36 -28q12 -12 12 -34zM338 1625
q0 29 -20.5 53.5t-39.5 24.5q-11 0 -17 -7.5t-6 -14.5q0 -24 27 -50l47 -37q9 22 9 31zM429 1278q0 -82 -27 -134q-32 -58 -87 -58q-19 0 -35.5 6.5t-36.5 21.5q-23 -39 -42 -59q-35 -34 -73 -34q-45 0 -67.5 30.5t-22.5 84.5q0 28 7.5 55t21.5 61l23 10q0 -8 -2.5 -27.5
t-2.5 -32.5q0 -23 10 -42.5t29 -19.5q46 0 75 61q12 28 32 109l23 6q8 -53 13 -65q14 -33 43 -33q42 0 65 54q20 43 20 90l22 6q5 -21 8.5 -46t3.5 -44z" />
    <glyph glyph-name="uniFC62" unicode="&#xfc62;" horiz-adv-x="0" arabic-form="isolated" 
d="M431 1704q0 -82 -27 -134q-32 -58 -87 -58q-19 0 -35.5 6.5t-36.5 21.5q-23 -39 -42 -59q-35 -34 -73 -34q-45 0 -67.5 30.5t-22.5 84.5q0 28 7.5 55t21.5 61l23 10q0 -8 -2.5 -27.5t-2.5 -32.5q0 -23 10 -42.5t29 -19.5q46 0 75 61q12 28 32 109l23 6q8 -53 13 -65
q14 -33 43 -33q42 0 65 54q20 43 20 90l22 6q5 -21 8.5 -46t3.5 -44zM420 1466q0 -50 -55 -99q-97 -37 -313 -124q0 47 47 90q90 38 321 133z" />
    <glyph glyph-name="$FDF2" unicode="&#xfdf2;" horiz-adv-x="1500" arabic-form="isolated" 
d="M629 1334q-1 -2 -1 -3q0 -2 3.5 -3t3.5 -5q0 -13 -32 -66q5 32 5 48q0 12 -5 22.5t-5 27.5q0 40 -7 84q-16 102 -16 107q0 53 29 84q7 7 39 37q0 -37 -7 -107.5t-7 -105.5q0 -32 4 -60q0 -52 -4 -60zM669 1033q-46 -59 -99 -59q-38 0 -62 33q-21 29 -21 67q0 56 62 115
l17 -76q6 -27 12 -27q15 0 28 31q4 10 30 108q47 -50 57 -73q6 -13 9 -13q20 0 30 21q12 26 12 101h58q0 -34 10 -85q0 -146 -114 -146q-14 0 -29 3zM1198 783q0 -13 4 -78q14 -232 14 -267q0 -265 -136 -336q-42 -22 -92 -22q-24 0 -34 3q-112 1 -156 48q-16 18 -48 70
q-36 -55 -55 -76q-39 -42 -157 -42q-93 0 -120 18q-31 21 -85 122l-69 -62q-36 -16 -117 -16q-64 0 -83 6q-44 13 -44 60q0 154 176 255q81 47 81 67q0 4 -7.5 23t-7.5 32q0 45 82 136q0 -275 66 -384q45 -74 115 -74q88 0 122 26.5t34 96.5l-53 439q15 41 40 70q7 8 79 72
q51 -613 79 -649q43 -55 126 -55h16q145 0 145 50q0 384 -57 533q-22 57 -22 74q52 138 150 192q-5 -60 -5 -81q0 -61 41 -92q23 -18 23 -41q0 -17 -45 -118zM281 367q-2 16 -4 41q-8 1 -17 1q-65 0 -73 -60q4 -10 15 -20h8q9 0 19 -1q14 -2 15 -2q17 0 39 30q-1 4 -2 11z
M1440 537v-19q0 -125 -12 -212q-21 -158 -82 -208l-28 1133v1q0 23 57 102q17 25 57 76z" />
    <glyph glyph-name="uniFE80" unicode="&#x621;" horiz-adv-x="599" arabic-form="isolated" 
d="M531 343q-34 -70 -43 -86q-11 -19 -22 -19q-34 11 -50 11q-89 0 -272 -123q-7 32 -7 49q0 22 7 35q18 31 18 35q0 13 -28.5 53.5t-28.5 72.5q11 18 35 54q109 154 221 154q21 0 52.5 -21t31.5 -41q0 -52 -55 -52q-22 0 -52 10q-9 3 -25 10q-23 0 -58.5 -29.5t-35.5 -51.5
q0 -18 48 -39q56 -25 126 -25q20 0 43 3h95z" />
    <glyph glyph-name="uniFE81" unicode="&#x622;" horiz-adv-x="299" arabic-form="isolated" 
d="M217 537v-19q0 -125 -12 -212q-21 -158 -82 -208l-28 1133v1q0 23 57 102q17 25 57 76zM451 1713q0 -81 -106 -151q-95 -62 -170 -62q-67 0 -105 14q-7 3 -75 33q-30 0 -61 -41q-65 -87 -71 -93q13 54 42 160q32 104 125 104q30 0 65 -19q82 -42 104 -42q63 0 147 43z
" />
    <glyph glyph-name="uniFE82" unicode="&#x622;" horiz-adv-x="501" arabic-form="final" 
d="M512 100h-170q-177 0 -213 245q-13 89 -13 235q0 34 -2 174l-9 336q0 57 -1 134v4q0 51 23 82q33 31 65 62v-688q0 -139 18 -209q33 -121 129 -149q45 -13 173 -13v-213zM451 1713q0 -81 -106 -151q-95 -62 -170 -62q-67 0 -105 14q-7 3 -75 33q-30 0 -61 -41
q-65 -87 -71 -93q13 54 42 160q32 104 125 104q30 0 65 -19q82 -42 104 -42q63 0 147 43z" />
    <glyph glyph-name="uniFE83" unicode="&#x623;" horiz-adv-x="299" arabic-form="isolated" 
d="M217 537v-19q0 -125 -12 -212q-21 -158 -82 -208l-28 1133v1q0 23 57 102q17 25 57 76zM303 1535q-6 -7 -24 -43q-11 -23 -24 -23q-11 0 -31.5 1.5t-29.5 1.5h-2q-80 0 -191 -89q-3 17 -3 26q0 15 4 26q9 28 9 34q0 17 -12 36q-27 44 -27 59q0 37 81.5 103t120.5 66
q20 0 36 -15.5t16 -36.5q0 -50 -26 -50q-12 0 -36 8t-37 8q-51 0 -79 -74q29 -22 40 -27q24 -12 89 -12h83q5 0 15 1h28z" />
    <glyph glyph-name="uniFE84" unicode="&#x623;" horiz-adv-x="501" arabic-form="final" 
d="M512 100h-170q-177 0 -213 245q-13 89 -13 235q0 34 -2 174l-9 336q0 57 -1 134v4q0 51 23 82q33 31 65 62v-688q0 -139 18 -209q33 -121 129 -149q45 -13 173 -13v-213zM303 1535q-6 -7 -24 -43q-11 -23 -24 -23q-11 0 -31.5 1.5t-29.5 1.5h-2q-80 0 -191 -89
q-3 17 -3 26q0 15 4 26q9 28 9 34q0 17 -12 36q-27 44 -27 59q0 37 81.5 103t120.5 66q20 0 36 -15.5t16 -36.5q0 -50 -26 -50q-12 0 -36 8t-37 8q-51 0 -79 -74q29 -22 40 -27q24 -12 89 -12h83q5 0 15 1h28z" />
    <glyph glyph-name="uniFE85" unicode="&#x624;" horiz-adv-x="599" arabic-form="isolated" 
d="M517 326q0 -139 -44 -260q-49 -138 -144 -216q-107 -89 -259 -89q-94 0 -171 26q-23 7 -125 49q440 0 624 235q62 81 62 146q0 34 -18 72q-67 -85 -145 -85q-100 0 -100 127q0 77 52 176q58 111 119 111q49 0 93 -66q56 -84 56 -226zM395 383q0 51 -74 85
q-25 -47 -32 -65l-16 -39q55 -28 57 -28q17 0 38 11q27 15 27 36zM404 844q-6 -7 -24 -43q-11 -23 -24 -23q-11 0 -31.5 1.5t-29.5 1.5h-2q-80 0 -191 -89q-3 17 -3 26q0 15 4 26q9 28 9 34q0 17 -12 36q-27 44 -27 59q0 37 81.5 103t120.5 66q20 0 36 -15.5t16 -36.5
q0 -50 -26 -50q-12 0 -36 8t-37 8q-51 0 -79 -74q29 -22 40 -27q24 -12 89 -12h83q5 0 15 1h28z" />
    <glyph glyph-name="uniFE86" unicode="&#x624;" horiz-adv-x="700" arabic-form="final" 
d="M404 743q-6 -7 -24 -43q-11 -23 -24 -23q-11 0 -31.5 1.5t-29.5 1.5h-2q-80 0 -191 -89q-3 17 -3 26q0 15 4 26q9 28 9 34q0 17 -12 36q-27 44 -27 59q0 37 81.5 103t120.5 66q20 0 36 -15.5t16 -36.5q0 -50 -26 -50q-12 0 -36 8t-37 8q-51 0 -79 -74q29 -22 40 -27
q24 -12 89 -12h83q5 0 15 1h28zM718 100h-199q-14 -37 -44 -109q-53 -117 -138 -198q-113 -108 -251 -108q-189 0 -331 141q153 -12 223 -12h54q17 2 25 3q81 0 171 55q113 70 208 228h-128q-110 26 -110 133q0 140 74 247q67 96 105 96q46 0 84 -63q33 -73 67 -205
q4 -1 17 -1h121q47 0 52 1v-208zM415 301q-7 44 -19 68q-41 46 -61 46q-3 0 -5 -1q-19 -25 -28 -48q-7 -15 -7 -28q0 -21 8 -29t34 -8h78z" />
    <glyph glyph-name="uniFE87" unicode="&#x625;" horiz-adv-x="299" arabic-form="isolated" 
d="M217 537v-19q0 -125 -12 -212q-21 -158 -82 -208l-28 1133v1q0 23 57 102q17 25 57 76zM306 -200q-6 -7 -24 -43q-11 -23 -24 -23q-11 0 -31.5 1.5t-29.5 1.5h-2q-80 0 -191 -89q-3 17 -3 26q0 15 4 26q9 28 9 34q0 17 -12 36q-27 44 -27 59q0 37 81.5 103t120.5 66
q20 0 36 -15.5t16 -36.5q0 -50 -26 -50q-12 0 -36 8t-37 8q-51 0 -79 -74q29 -22 40 -27q24 -12 89 -12h83q5 0 15 1h28z" />
    <glyph glyph-name="uniFE88" unicode="&#x625;" horiz-adv-x="501" arabic-form="final" 
d="M512 100h-170q-177 0 -213 245q-13 89 -13 235q0 34 -2 174l-9 336q0 57 -1 134v4q0 51 23 82q33 31 65 62v-688q0 -139 18 -209q33 -121 129 -149q45 -13 173 -13v-213zM365 -200q-6 -7 -24 -43q-11 -23 -24 -23q-11 0 -31.5 1.5t-29.5 1.5h-2q-80 0 -191 -89
q-3 17 -3 26q0 15 4 26q9 28 9 34q0 17 -12 36q-27 44 -27 59q0 37 81.5 103t120.5 66q20 0 36 -15.5t16 -36.5q0 -50 -26 -50q-12 0 -36 8t-37 8q-51 0 -79 -74q29 -22 40 -27q24 -12 89 -12h83q5 0 15 1h28z" />
    <glyph glyph-name="uniFE89" unicode="&#x626;" horiz-adv-x="1119" arabic-form="isolated" 
d="M1062 729q0 -44 -18 -79q-43 -89 -47 -100l-35 37q-20 20 -41 20q-32 0 -112 -56q-66 -46 -101 -82q-61 -61 -61 -103q0 -59 100 -77q19 -3 186 -33q100 -32 100 -124q0 -74 -82 -175q-91 -113 -229 -185q-166 -87 -352 -87q-366 0 -366 385q0 80 38 187q44 125 103 152
q-47 -162 -47 -239q0 -279 319 -279q33 0 125 19q128 26 223 65q128 54 165 124q-80 5 -161 10q-111 12 -148 39q-49 36 -49 120q0 105 83 242q72 116 167 200q107 94 188 94q24 0 39 -26q13 -22 13 -49zM508 751q-6 -7 -24 -43q-11 -23 -24 -23q-11 0 -31.5 1.5t-29.5 1.5
h-2q-80 0 -191 -89q-3 17 -3 26q0 15 4 26q9 28 9 34q0 17 -12 36q-27 44 -27 59q0 37 81.5 103t120.5 66q20 0 36 -15.5t16 -36.5q0 -50 -26 -50q-12 0 -36 8t-37 8q-51 0 -79 -74q29 -22 40 -27q24 -12 89 -12h83q5 0 15 1h28z" />
    <glyph glyph-name="uniFE8A" unicode="&#x626;" horiz-adv-x="1201" arabic-form="final" 
d="M1217 100h-208q-55 -9 -86 -15q-118 -22 -118 -40q0 -6 107 -22q120 -16 134 -21q85 -27 85 -83q0 -42 -61 -118q-197 -249 -607 -249q-189 0 -308 69q-143 83 -143 246q0 78 67 202q71 131 149 182q-6 -30 -79 -195q-26 -59 -26 -109q0 -178 227 -214q66 -11 170 -11
q100 0 251 32q175 39 229 90q8 7 8 13q0 13 -80 23q-105 13 -149 30q-81 30 -81 96q0 136 119 225q108 82 248 82h152v-213zM634 609q-6 -7 -24 -43q-11 -23 -24 -23q-11 0 -31.5 1.5t-29.5 1.5h-2q-80 0 -191 -89q-3 17 -3 26q0 15 4 26q9 28 9 34q0 17 -12 36
q-27 44 -27 59q0 37 81.5 103t120.5 66q20 0 36 -15.5t16 -36.5q0 -50 -26 -50q-12 0 -36 8t-37 8q-51 0 -79 -74q29 -22 40 -27q24 -12 89 -12h83q5 0 15 1h28z" />
    <glyph glyph-name="uniFE8B" unicode="&#x626;" horiz-adv-x="400" arabic-form="initial" 
d="M344 435q0 -266 -197 -319q-61 -16 -106 -16h-54v213h60q182 0 230 60q0 13 -29 73q-8 15 -29 57q17 33 34 67q38 79 45 102l30 -121q16 -65 16 -116zM354 900q-6 -7 -24 -43q-11 -23 -24 -23q-11 0 -31.5 1.5t-29.5 1.5h-2q-80 0 -191 -89q-3 17 -3 26q0 15 4 26
q9 28 9 34q0 17 -12 36q-27 44 -27 59q0 37 81.5 103t120.5 66q20 0 36 -15.5t16 -36.5q0 -50 -26 -50q-12 0 -36 8t-37 8q-51 0 -79 -74q29 -22 40 -27q24 -12 89 -12h83q5 0 15 1h28z" />
    <glyph glyph-name="uniFE8C" unicode="&#x626;" horiz-adv-x="501" arabic-form="medial" 
d="M519 100h-116q-56 0 -94 41q-5 6 -71 104q-15 -26 -45 -77q-43 -68 -118 -68h-88v213q140 0 198 25q30 13 51 68q25 64 59 92q0 -123 41 -158q33 -27 141 -27h42v-213zM427 802q-6 -7 -24 -43q-11 -23 -24 -23q-11 0 -31.5 1.5t-29.5 1.5h-2q-80 0 -191 -89q-3 17 -3 26
q0 15 4 26q9 28 9 34q0 17 -12 36q-27 44 -27 59q0 37 81.5 103t120.5 66q20 0 36 -15.5t16 -36.5q0 -50 -26 -50q-12 0 -36 8t-37 8q-51 0 -79 -74q29 -22 40 -27q24 -12 89 -12h83q5 0 15 1h28z" />
    <glyph glyph-name="uniFE8D" unicode="&#x627;" horiz-adv-x="299" arabic-form="isolated" 
d="M217 537v-19q0 -125 -12 -212q-21 -158 -82 -208l-28 1133v1q0 23 57 102q17 25 57 76z" />
    <glyph glyph-name="uniFE8E" unicode="&#x627;" horiz-adv-x="501" arabic-form="final" 
d="M512 100h-170q-177 0 -213 245q-13 89 -13 235q0 34 -2 174l-9 336q0 57 -1 134v4q0 51 23 82q33 31 65 62v-688q0 -139 18 -209q33 -121 129 -149q45 -13 173 -13v-213z" />
    <glyph glyph-name="uniFE8F" unicode="&#x628;" horiz-adv-x="1399" arabic-form="isolated" 
d="M1318 528q0 -333 -446 -419q-156 -30 -363 -30q-367 0 -462 165q-35 61 -35 149q0 127 140 261q-17 -40 -29 -82q-16 -56 -16 -84q0 -126 197 -187q134 -42 296 -42q171 0 329 35q26 6 87 23q215 63 215 95q0 80 -95 150q16 40 28 72q31 87 41 135q113 -75 113 -241z
M576 -129l126 -126l-126 -124l-126 124z" />
    <glyph glyph-name="uniFE90" unicode="&#x628;" horiz-adv-x="1354" arabic-form="final" 
d="M1370 100h-80q-60 0 -120 79q-19 27 -47 80q-29 -17 -89 -50q-107 -56 -243 -95q-180 -51 -356 -51q-172 0 -289 79q-134 91 -134 256q0 91 52 174q39 62 88 95q-56 -111 -56 -168q0 -130 191 -195q135 -45 297 -45q185 0 321 51q144 54 269 180q16 -109 52 -143t144 -34
v-213zM540 -109l126 -126l-126 -123l-126 123z" />
    <glyph glyph-name="uniFE91" unicode="&#x628;" horiz-adv-x="400" arabic-form="initial" 
d="M344 435q0 -266 -197 -319q-71 -16 -96 -16h-54v213h60q172 0 220 60q0 13 -29 73q-8 15 -39 57q27 33 44 67q38 79 45 102l30 -121q16 -65 16 -116zM174 -109l126 -126l-126 -123l-126 123z" />
    <glyph glyph-name="uniFE92" unicode="&#x628;" horiz-adv-x="501" arabic-form="medial" 
d="M519 100h-116q-56 0 -94 41q-5 6 -71 104q-15 -26 -45 -77q-43 -68 -118 -68h-88v213q140 0 198 25q30 13 51 68q25 64 59 92q0 -123 41 -158q33 -27 141 -27h42v-213zM263 -109l126 -126l-126 -123l-126 123z" />
    <glyph glyph-name="uniFE93" unicode="&#x629;" horiz-adv-x="501" arabic-form="isolated" 
d="M475 416q0 -122 -55 -212q-66 -104 -181 -104q-141 0 -141 174q0 73 62 227q21 49 23 52v1q0 4 -4 21q-6 20 -6 27q0 61 48 177q20 -25 186 -175q68 -62 68 -188zM400 369q0 13 -78 79q-59 49 -82 67q-58 -58 -58 -132q0 -94 76 -94q31 0 84 28q58 30 58 52zM342 927
l112 111l-111 108l-219 -219l-110 111l110 108z" />
    <glyph glyph-name="uniFE94" unicode="&#x629;" horiz-adv-x="800" arabic-form="final" 
d="M814 100h-177q-74 0 -105 81q-46 119 -55 136q-64 -89 -122 -113q-45 -19 -147 -19h-10q-117 0 -117 52q0 198 217 335q36 22 79 46q7 3 35 18l-13 143q23 56 69 113q0 -61 16 -177q47 -352 136 -392q21 -10 109 -10h85v-213zM439 450q0 11 -9 46q-3 12 -9 37
q-63 -28 -122 -63q-27 -16 -77 -49q52 -19 85 -19q27 0 75 13q57 16 57 35zM496 1009l112 110l-111 108l-219 -218l-110 110l110 108z" />
    <glyph glyph-name="uniFE95" unicode="&#x62a;" horiz-adv-x="1399" arabic-form="isolated" 
d="M1318 528q0 -333 -446 -419q-156 -30 -363 -30q-367 0 -462 165q-35 61 -35 149q0 127 132 264h16q-24 -58 -33 -84q-20 -59 -20 -85q0 -126 197 -187q134 -42 296 -42q171 0 329 35q26 6 87 23q215 63 215 95q0 80 -95 150q16 40 28 72q31 87 41 135q113 -75 113 -241z
M892 908l-112 110l-218 -217l-110 107l110 110l218 -217z" />
    <glyph glyph-name="uniFE96" unicode="&#x62a;" horiz-adv-x="1354" arabic-form="final" 
d="M1370 100h-80q-60 0 -120 79q-19 27 -47 80q-29 -17 -89 -50q-107 -56 -243 -95q-180 -51 -356 -51q-172 0 -289 79q-134 91 -134 256q0 91 52 174q39 62 88 95q-56 -111 -56 -168q0 -130 191 -195q135 -45 297 -45q185 0 321 51q144 54 269 180q16 -109 52 -143t144 -34
v-213zM892 908l-112 110l-218 -217l-110 107l110 110l218 -217z" />
    <glyph glyph-name="uniFE97" unicode="&#x62a;" horiz-adv-x="501" arabic-form="initial" 
d="M434 435q0 -266 -197 -319q-61 -16 -166 -16h-84v213h90q242 0 290 60q0 13 -29 73q-8 15 -29 57q17 33 34 67q38 79 45 102l30 -121q16 -65 16 -116zM469 908l-112 110l-218 -217l-110 107l110 110l218 -217z" />
    <glyph glyph-name="uniFE98" unicode="&#x62a;" horiz-adv-x="599" arabic-form="medial" 
d="M614 100h-164q-44 0 -105 53q-51 46 -79 93q-16 -29 -50 -86q-37 -60 -113 -60h-116v213h162q65 0 106 65q10 15 68 112q2 -53 5 -79q12 -98 132 -98h154v-213zM537 813l-112 110l-218 -217l-110 107l110 110l218 -217z" />
    <glyph glyph-name="uniFE99" unicode="&#x62b;" horiz-adv-x="1399" arabic-form="isolated" 
d="M1318 528q0 -333 -446 -419q-156 -30 -363 -30q-367 0 -462 165q-35 61 -35 149q0 127 132 264h16q-24 -58 -33 -84q-20 -59 -20 -85q0 -126 197 -187q134 -42 296 -42q171 0 329 35q26 6 87 23q215 63 215 95q0 80 -95 150q16 40 28 72q31 87 41 135q113 -75 113 -241z
M892 908l-112 110l-218 -217l-110 107l110 110l218 -217zM778 1137l-111 112l-108 -112l108 -108z" />
    <glyph glyph-name="uniFE9A" unicode="&#x62b;" horiz-adv-x="1354" arabic-form="final" 
d="M1370 100h-80q-60 0 -120 79q-19 27 -47 80q-29 -17 -89 -50q-107 -56 -243 -95q-180 -51 -356 -51q-172 0 -289 79q-134 91 -134 256q0 91 52 174q39 62 88 95q-56 -111 -56 -168q0 -130 191 -195q135 -45 297 -45q185 0 321 51q144 54 269 180q16 -109 52 -143t144 -34
v-213zM892 908l-112 110l-218 -217l-110 107l110 110l218 -217zM778 1137l-111 112l-108 -112l108 -108z" />
    <glyph glyph-name="uniFE9B" unicode="&#x62b;" horiz-adv-x="501" arabic-form="initial" 
d="M434 435q0 -266 -197 -319q-61 -16 -166 -16h-84v213h90q242 0 290 60q0 13 -29 73q-8 15 -29 57q17 33 34 67q38 79 45 102l30 -121q16 -65 16 -116zM469 908l-112 110l-218 -217l-110 107l110 110l218 -217zM361 1140l-111 112l-108 -112l108 -108z" />
    <glyph glyph-name="uniFE9C" unicode="&#x62b;" horiz-adv-x="599" arabic-form="medial" 
d="M614 100h-164q-44 0 -105 53q-51 46 -79 93q-16 -29 -50 -86q-37 -60 -113 -60h-116v213h162q65 0 106 65q10 15 68 112q2 -53 5 -79q12 -98 132 -98h154v-213zM537 813l-112 110l-218 -217l-110 107l110 110l218 -217zM425 1061l-111 112l-108 -112l108 -108z" />
    <glyph glyph-name="uniFE9D" unicode="&#x62c;" horiz-adv-x="999" arabic-form="isolated" 
d="M1065 -520q-81 -33 -174 -81q-73 -38 -115 -51q-61 -18 -158 -18q-344 0 -480 139q-118 121 -118 394q0 271 166 497q60 82 163 185q-41 30 -55 36q-24 10 -64 10q-87 0 -163 -103v37q48 144 98 190q59 56 189 56q214 -39 551 -39q-48 -120 -52 -127q-46 -93 -90 -93
q-13 0 -39.5 2.5t-39.5 2.5q-106 0 -250 -67q-209 -99 -287 -266q-51 -110 -51 -252q0 -204 152 -321q133 -103 318 -103h499v-28zM539 98l125 -125l-125 -124l-126 124z" />
    <glyph glyph-name="uniFE9E" unicode="&#x62c;" horiz-adv-x="999" arabic-form="final" 
d="M1130 -541q-9 -15 -67 -54q-212 -143 -474 -143q-329 0 -450 127q-110 115 -110 409q0 207 80 377q74 154 230 311q-57 29 -94 29q-109 0 -197 -133q-1 12 -1 19q0 124 80.5 212.5t202.5 88.5q7 0 153 -25q76 -13 148 -13q107 0 217 38q-47 -177 -84 -210
q-16 -15 -123 -25v-85q22 -38 30 -46q20 -23 64 -23h284v-213h-246q-65 0 -112 48q-42 44 -59 112q-12 50 -12 97q0 29 4 51l5 37q0 13 -15 13q-39 0 -143 -68q-133 -86 -216 -206q-112 -161 -112 -352q0 -288 347 -367q121 -28 282 -28q162 0 276 22h112zM500 -36l125 -125
l-125 -124l-126 124z" />
    <glyph glyph-name="uniFE9F" unicode="&#x62c;" horiz-adv-x="901" arabic-form="initial" 
d="M852 537q-14 -74 -38 -148q-10 -29 -20 -56q-112 -3 -120 -3q-70 -4 -117 -17q-22 -5 -100 -63q-94 -70 -149 -99q-97 -51 -179 -51h-154v213h233q74 0 120 21q38 18 123 87l-128 73q-81 43 -125 43q-34 0 -80 -26q-39 -22 -65 -33q21 76 40 118q60 136 169 136
q58 0 135 -51q108 -70 164 -93q125 -51 291 -51zM402 -53l125 -125l-125 -124l-126 124z" />
    <glyph glyph-name="uniFEA0" unicode="&#x62c;" horiz-adv-x="1100" arabic-form="medial" 
d="M1122 100h-207q-169 0 -169 282q-10 4 -20 9q-38 0 -145 -75q-154 -109 -213 -141q-138 -75 -253 -75h-130v213q102 0 164 7q171 18 323 136q-124 77 -202 77q-28 0 -90 -22q-46 -18 -93 -35v28q6 21 20 63q23 61 65 100q57 53 140 53q35 0 111 -35q114 -52 153 -65
q103 -36 199 -36q85 0 168 24q-15 -67 -22 -117q0 -1 -6 -44q-13 -21 -53 -31q-14 -3 -79 -15q-1 -2 -1 -6v-5q1 -8 1 -13q0 -13 26 -36q31 -28 69 -28h244v-213zM500 -53l125 -125l-125 -124l-126 124z" />
    <glyph glyph-name="uniFEA1" unicode="&#x62d;" horiz-adv-x="999" arabic-form="isolated" 
d="M1065 -520q-81 -33 -174 -81q-73 -38 -115 -51q-61 -18 -158 -18q-344 0 -480 139q-118 121 -118 394q0 271 166 497q60 82 163 185q-41 30 -55 36q-24 10 -64 10q-87 0 -163 -103v37q48 144 98 190q59 56 189 56q214 -39 551 -39q-48 -120 -52 -127q-46 -93 -90 -93
q-13 0 -39.5 2.5t-39.5 2.5q-106 0 -250 -67q-209 -99 -287 -266q-51 -110 -51 -252q0 -204 152 -321q133 -103 318 -103h499v-28z" />
    <glyph glyph-name="uniFEA2" unicode="&#x62d;" horiz-adv-x="999" arabic-form="final" 
d="M1130 -541q-9 -15 -67 -54q-212 -143 -474 -143q-329 0 -450 127q-110 115 -110 409q0 207 80 377q74 154 230 311q-57 29 -94 29q-109 0 -197 -133q-1 12 -1 19q0 124 80.5 212.5t202.5 88.5q7 0 153 -25q76 -13 148 -13q107 0 217 38q-47 -177 -84 -210
q-16 -15 -123 -25v-85q22 -38 30 -46q20 -23 64 -23h284v-213h-246q-65 0 -112 48q-42 44 -59 112q-12 50 -12 97q0 29 4 51l5 37q0 13 -15 13q-39 0 -143 -68q-133 -86 -216 -206q-112 -161 -112 -352q0 -288 347 -367q121 -28 282 -28q162 0 276 22h112z" />
    <glyph glyph-name="uniFEA3" unicode="&#x62d;" horiz-adv-x="901" arabic-form="initial" 
d="M852 537q-14 -74 -38 -148q-10 -29 -20 -56q-112 -3 -120 -3q-70 -4 -117 -17q-22 -5 -100 -63q-94 -70 -149 -99q-97 -51 -179 -51h-154v213h233q74 0 120 21q38 18 123 87l-128 73q-81 43 -125 43q-34 0 -80 -26q-39 -22 -65 -33q21 76 40 118q60 136 169 136
q58 0 135 -51q108 -70 164 -93q125 -51 291 -51z" />
    <glyph glyph-name="uniFEA4" unicode="&#x62d;" horiz-adv-x="1100" arabic-form="medial" 
d="M1122 100h-207q-169 0 -169 282q-10 4 -20 9q-38 0 -145 -75q-154 -109 -213 -141q-138 -75 -253 -75h-130v213q102 0 164 7q171 18 323 136q-124 77 -202 77q-28 0 -90 -22q-46 -18 -93 -35v28q6 21 20 63q23 61 65 100q57 53 140 53q35 0 111 -35q114 -52 153 -65
q103 -36 199 -36q85 0 168 24q-15 -67 -22 -117q0 -1 -6 -44q-13 -21 -53 -31q-14 -3 -79 -15q-1 -2 -1 -6v-5q1 -8 1 -13q0 -13 26 -36q31 -28 69 -28h244v-213z" />
    <glyph glyph-name="uniFEA5" unicode="&#x62e;" horiz-adv-x="999" arabic-form="isolated" 
d="M1065 -520q-81 -33 -174 -81q-73 -38 -115 -51q-61 -18 -158 -18q-344 0 -480 139q-118 121 -118 394q0 271 166 497q60 82 163 185q-41 30 -55 36q-24 10 -64 10q-87 0 -163 -103v37q48 144 98 190q59 56 189 56q214 -39 551 -39q-48 -120 -52 -127q-46 -93 -90 -93
q-13 0 -39.5 2.5t-39.5 2.5q-106 0 -250 -67q-209 -99 -287 -266q-51 -110 -51 -252q0 -204 152 -321q133 -103 318 -103h499v-28zM402 1151l125 -125l-125 -124l-126 124z" />
    <glyph glyph-name="uniFEA6" unicode="&#x62e;" horiz-adv-x="999" arabic-form="final" 
d="M1130 -541q-9 -15 -67 -54q-212 -143 -474 -143q-329 0 -450 127q-110 115 -110 409q0 207 80 377q74 154 230 311q-57 29 -94 29q-109 0 -197 -133q-1 12 -1 19q0 124 80.5 212.5t202.5 88.5q7 0 153 -25q76 -13 148 -13q107 0 217 38q-47 -177 -84 -210
q-16 -15 -123 -25v-85q22 -38 30 -46q20 -23 64 -23h284v-213h-246q-65 0 -112 48q-42 44 -59 112q-12 50 -12 97q0 29 4 51l5 37q0 13 -15 13q-39 0 -143 -68q-133 -86 -216 -206q-112 -161 -112 -352q0 -288 347 -367q121 -28 282 -28q162 0 276 22h112zM402 1151
l125 -125l-125 -124l-126 124z" />
    <glyph glyph-name="uniFEA7" unicode="&#x62e;" horiz-adv-x="901" arabic-form="initial" 
d="M852 537q-14 -74 -38 -148q-10 -29 -20 -56q-112 -3 -120 -3q-70 -4 -117 -17q-22 -5 -100 -63q-94 -70 -149 -99q-97 -51 -179 -51h-154v213h233q74 0 120 21q38 18 123 87l-128 73q-81 43 -125 43q-34 0 -80 -26q-39 -22 -65 -33q21 76 40 118q60 136 169 136
q58 0 135 -51q108 -70 164 -93q125 -51 291 -51zM402 1151l125 -125l-125 -124l-126 124z" />
    <glyph glyph-name="uniFEA8" unicode="&#x62e;" horiz-adv-x="1100" arabic-form="medial" 
d="M1122 100h-207q-169 0 -169 282q-10 4 -20 9q-38 0 -145 -75q-154 -109 -213 -141q-138 -75 -253 -75h-130v213q102 0 164 7q171 18 323 136q-124 77 -202 77q-28 0 -90 -22q-46 -18 -93 -35v28q6 21 20 63q23 61 65 100q57 53 140 53q35 0 111 -35q114 -52 153 -65
q103 -36 199 -36q85 0 168 24q-15 -67 -22 -117q0 -1 -6 -44q-13 -21 -53 -31q-14 -3 -79 -15q-1 -2 -1 -6v-5q1 -8 1 -13q0 -13 26 -36q31 -28 69 -28h244v-213zM402 1151l125 -125l-125 -124l-126 124z" />
    <glyph glyph-name="uniFEA9" unicode="&#x62f;" horiz-adv-x="700" arabic-form="isolated" 
d="M597 355q0 -141 -71 -219q-73 -82 -211 -82q-110 0 -141 13q-58 24 -58 113q0 19 3 51l8 76q84 -46 169 -46q53 0 142 17q121 22 121 58q0 21 -29 73q-93 172 -262 172q0 37 -1 86l-1 64q0 68 12 114q65 -22 125 -68q194 -148 194 -422z" />
    <glyph glyph-name="uniFEAA" unicode="&#x62f;" horiz-adv-x="901" arabic-form="final" 
d="M921 100h-167q-65 0 -94 76q-2 7 -47 141q-7 -8 -57 -91q-40 -65 -91 -97q-74 -46 -191 -46h-26q-65 0 -95 9q-49 14 -49 55v217q37 -37 54 -47q44 -28 106 -28q65 0 157 28q122 36 172 99l-76 410q5 28 26 108q6 23 22 79q0 -8 33 -161q39 -185 68 -304t31 -123
q28 -88 66 -105q19 -9 47 -9q23 0 40 1l71 1v-213z" />
    <glyph glyph-name="uniFEAB" unicode="&#x630;" horiz-adv-x="700" arabic-form="isolated" 
d="M594 355q0 -141 -71 -219q-73 -82 -211 -82q-110 0 -141 13q-58 24 -58 113q0 19 3 51l8 76q84 -46 169 -46q53 0 142 17q121 22 121 58q0 21 -29 73q-93 172 -262 172q0 37 -1 86l-1 64q0 68 12 114q65 -22 125 -68q194 -148 194 -422zM349 1316l125 -125l-125 -124
l-126 124z" />
    <glyph glyph-name="uniFEAC" unicode="&#x630;" horiz-adv-x="901" arabic-form="final" 
d="M921 100h-167q-65 0 -94 76q-2 7 -47 141q-7 -8 -57 -91q-40 -65 -91 -97q-74 -46 -191 -46h-26q-65 0 -95 9q-49 14 -49 55v217q37 -37 54 -47q44 -28 106 -28q65 0 157 28q122 36 172 99l-76 410q5 28 26 108q6 23 22 79q0 -8 33 -161q39 -185 68 -304t31 -123
q28 -88 66 -105q19 -9 47 -9q23 0 40 1l71 1v-213zM547 1365l126 -126l-126 -123l-126 123z" />
    <glyph glyph-name="uniFEAD" unicode="&#x631;" horiz-adv-x="599" arabic-form="isolated" 
d="M512 266q0 -126 -52 -260q-53 -138 -139 -224q-98 -97 -211 -97q-95 0 -186 38q-56 23 -119 66q115 0 262 48q164 53 266 135q123 99 123 214q0 34 -53 100q-40 44 -80 89l47 178q78 -78 106 -128q36 -65 36 -159z" />
    <glyph glyph-name="uniFEAE" unicode="&#x631;" horiz-adv-x="599" arabic-form="final" 
d="M612 100h-54q-12 1 -15 1q-39 0 -46 -13q-7 -64 -56 -167q-23 -50 -62 -106q-117 -167 -231 -167q-84 0 -176 52q-83 47 -144 117q34 -7 90 -19q98 -19 103 -19q69 0 179 69q89 56 155 123q77 75 77 116q0 9 -47.5 80.5t-47.5 75.5q26 58 38 140q57 -56 106 -66
q16 -4 131 -4v-213z" />
    <glyph glyph-name="uniFEAF" unicode="&#x632;" horiz-adv-x="599" arabic-form="isolated" 
d="M512 266q0 -126 -52 -260q-53 -138 -139 -224q-98 -97 -211 -97q-95 0 -186 38q-56 23 -119 66q115 0 262 48q164 53 266 135q123 99 123 214q0 34 -53 100q-40 44 -80 89l47 178q78 -78 106 -128q36 -65 36 -159zM301 962l126 -126l-126 -123l-126 123z" />
    <glyph glyph-name="uniFEB0" unicode="&#x632;" horiz-adv-x="599" arabic-form="final" 
d="M612 100h-54q-12 1 -15 1q-39 0 -46 -13q-7 -64 -56 -167q-23 -50 -62 -106q-117 -167 -231 -167q-84 0 -176 52q-83 47 -144 117q34 -7 90 -19q98 -19 103 -19q69 0 179 69q89 56 155 123q77 75 77 116q0 9 -47.5 80.5t-47.5 75.5q26 58 38 140q57 -56 106 -66
q16 -4 131 -4v-213zM340 800l126 -126l-126 -123l-126 123z" />
    <glyph glyph-name="uniFEB1" unicode="&#x633;" horiz-adv-x="1540" arabic-form="isolated" 
d="M1496 494q0 -51 -12 -120q-41 -234 -148 -234q-36 0 -94.5 38.5t-70.5 38.5q-6 0 -33 -26q-33 -32 -64 -47q-49 -26 -109 -26q-66 0 -155 21q0 -237 -120 -377q-128 -149 -360 -149q-329 0 -329 335q0 73 28 173q35 130 95 179q-13 -43 -28 -105q-20 -87 -20 -120
q0 -254 330 -254q102 0 208 41q129 48 129 118q0 143 -76 277q-23 41 -27 43q18 26 34 52q39 65 60 117q44 -92 85 -124q46 -36 136 -36t147 43q33 25 74 90t66 84q0 -45 -6 -74l-13 -44q0 -14 40 -39q51 -31 120 -31q61 0 61 35q0 15 -17 54q-15 35 -15 49v3q27 34 57 123
q28 -54 28 -80v-2l-1 -27v1z" />
    <glyph glyph-name="uniFEB2" unicode="&#x633;" horiz-adv-x="1699" arabic-form="final" 
d="M1713 100h-173q-29 0 -68 33q-19 16 -36 33q-61 -66 -123 -66q-25 0 -86 28.5t-70 28.5q-92 -66 -180 -66q-54 0 -117 36q-2 -9 -15 -120q-5 -53 -13 -77q-19 -65 -72 -136q-159 -212 -430 -212q-234 0 -289 177q-20 66 -20 175q0 76 28 178q36 127 94 176
q-48 -176 -48 -226q0 -194 176 -239q63 -17 155 -17q117 0 233 48q126 51 126 113q0 143 -76 275q-9 15 -28 47q24 37 37 59q41 70 58 111q23 -72 77 -115q56 -45 129 -45q91 0 146 41q35 26 68 85q34 65 51 80q0 -70 -9 -115q-3 -17 -10 -30q0 -13 28 -30q34 -22 81 -22
q65 0 107 73q22 41 67 124q6 -20 6 -43q0 -21 -4 -43l-9 -50q0 -56 157 -56h52v-213z" />
    <glyph glyph-name="uniFEB3" unicode="&#x633;" horiz-adv-x="999" arabic-form="initial" 
d="M940 454q0 -50 -11 -114q-39 -222 -140 -222q-28 0 -96 43t-73 43q-106 -104 -218 -104q-47 0 -107 26q-50 25 -101 49q-92 -75 -121 -75h-82v213h58q86 0 121 49q37 66 72 124q4 -11 4 -48q0 -69 19 -99q33 -51 132 -51q87 0 150 50q35 27 80.5 97t58.5 80q0 -17 -5 -51
t-5 -51q0 -96 150 -96q60 0 60 44q0 17 -31 93q16 40 66 135q22 -73 22 -93q0 -7 -1.5 -21t-1.5 -21z" />
    <glyph glyph-name="uniFEB4" unicode="&#x633;" horiz-adv-x="1201" arabic-form="medial" 
d="M1216 100h-180q-23 0 -98 65q-59 -65 -119 -65q-33 0 -70 20q-85 45 -90 45q-98 -65 -193 -65q-46 0 -111 26q-53 25 -106 49q-78 -75 -127 -75h-127v213h45q108 0 166 34l95 121q0 -94 48 -130q41 -30 141 -30q92 0 145 39q36 26 64 82q32 63 45 76q0 -65 -6 -95
q-4 -19 -13 -55q0 -12 30 -28q37 -19 79 -19q72 0 109 69q22 43 65 128q14 -37 14 -67q0 -22 -7 -41q-2 -6 -7 -15q0 -43 44 -58q30 -11 89 -11h75v-213z" />
    <glyph glyph-name="uniFEB5" unicode="&#x634;" horiz-adv-x="1540" arabic-form="isolated" 
d="M1496 494q0 -51 -12 -120q-41 -234 -148 -234q-36 0 -94.5 38.5t-70.5 38.5q-6 0 -33 -26q-33 -32 -64 -47q-49 -26 -109 -26q-66 0 -155 21q0 -237 -120 -377q-128 -149 -360 -149q-329 0 -329 335q0 73 28 173q35 130 95 179q-13 -43 -28 -105q-20 -87 -20 -120
q0 -254 330 -254q102 0 208 41q129 48 129 118q0 143 -76 277q-23 41 -27 43q18 26 34 52q39 65 60 117q44 -92 85 -124q46 -36 136 -36t147 43q33 25 74 90t66 84q0 -45 -6 -74l-13 -44q0 -14 40 -39q51 -31 120 -31q61 0 61 35q0 15 -17 54q-15 35 -15 49v3q27 34 57 123
q28 -54 28 -80v-2l-1 -27v1zM1275 783l112 110l-112 107l-218 -217l-110 110l109 107zM1172 1230l111 -109l-111 -112l-109 112z" />
    <glyph glyph-name="uniFEB6" unicode="&#x634;" horiz-adv-x="1699" arabic-form="final" 
d="M1713 100h-173q-29 0 -68 33q-19 16 -36 33q-61 -66 -123 -66q-25 0 -86 28.5t-70 28.5q-92 -66 -180 -66q-54 0 -117 36q-2 -9 -15 -120q-5 -53 -13 -77q-19 -65 -72 -136q-159 -212 -430 -212q-234 0 -289 177q-20 66 -20 175q0 76 28 178q36 127 94 176
q-48 -176 -48 -226q0 -194 176 -239q63 -17 155 -17q117 0 233 48q126 51 126 113q0 143 -76 275q-9 15 -28 47q24 37 37 59q41 70 58 111q23 -72 77 -115q56 -45 129 -45q91 0 146 41q35 26 68 85q34 65 51 80q0 -70 -9 -115q-3 -17 -10 -30q0 -13 28 -30q34 -22 81 -22
q65 0 107 73q22 41 67 124q6 -20 6 -43q0 -21 -4 -43l-9 -50q0 -56 157 -56h52v-213zM1247 783l111 110l-111 107l-219 -217l-109 110l108 107zM1144 1230l110 -109l-110 -112l-109 112z" />
    <glyph glyph-name="uniFEB7" unicode="&#x634;" horiz-adv-x="999" arabic-form="initial" 
d="M940 454q0 -50 -11 -114q-39 -222 -140 -222q-28 0 -96 43t-73 43q-106 -104 -218 -104q-47 0 -107 26q-50 25 -101 49q-92 -75 -121 -75h-92v213h58q96 0 131 49q37 66 72 124q4 -11 4 -48q0 -69 19 -99q33 -51 132 -51q87 0 150 50q35 27 80.5 97t58.5 80q0 -17 -5 -51
t-5 -51q0 -96 150 -96q60 0 60 44q0 17 -31 93q16 40 66 135q22 -73 22 -93q0 -7 -1.5 -21t-1.5 -21zM698 771l111 110l-111 107l-218 -217l-110 110l109 107zM595 1217l110 -108l-110 -112l-109 112z" />
    <glyph glyph-name="uniFEB8" unicode="&#x634;" horiz-adv-x="1201" arabic-form="medial" 
d="M1216 100h-180q-23 0 -98 65q-59 -65 -119 -65q-33 0 -70 20q-85 45 -90 45q-98 -65 -193 -65q-46 0 -111 26q-53 25 -106 49q-78 -75 -127 -75h-127v213h45q108 0 166 34l95 121q0 -94 48 -130q41 -30 141 -30q92 0 145 39q36 26 64 82q32 63 45 76q0 -65 -6 -95
q-4 -19 -13 -55q0 -12 30 -28q37 -19 79 -19q72 0 109 69q22 43 65 128q14 -37 14 -67q0 -22 -7 -41q-2 -6 -7 -15q0 -43 44 -58q30 -11 89 -11h75v-213zM813 779l111 110l-111 107l-219 -217l-109 110l108 107zM710 1225l110 -108l-110 -112l-109 112z" />
    <glyph glyph-name="uniFEB9" unicode="&#x635;" horiz-adv-x="1850" arabic-form="isolated" 
d="M1790 587q0 -95 -84 -204q-95 -121 -250 -196q-183 -87 -410 -87h-227q-22 -222 -139 -350q-128 -140 -345 -140q-323 0 -323 334q0 69 32 175q39 126 91 179l-24 -111q-23 -109 -23 -121q0 -145 98 -203q75 -45 225 -45q146 0 252 62q91 53 91 102q0 98 -30 174
q-22 48 -65 147q4 21 8 36q15 47 48 120q47 -87 70 -111q42 -40 118 -40q24 0 155 117q168 151 265 217q171 118 288 118q76 0 127.5 -48.5t51.5 -124.5zM1649 468q0 36 -95 73q-81 31 -121 31q-84 0 -290 -156q-75 -58 -116 -99h216q80 0 229 43q177 52 177 108z" />
    <glyph glyph-name="uniFEBA" unicode="&#x635;" horiz-adv-x="1900" arabic-form="final" 
d="M1931 100q-94 0 -576 19l-169 7q-207 -29 -320 -29h-20q-13 1 -19 1q-27 -278 -204 -407q-115 -84 -280 -84q-322 0 -322 336q0 71 31 175q37 125 92 179q-11 -43 -24 -101q-23 -107 -23 -130q0 -251 321 -251q110 0 221 48q122 53 122 118q0 92 -30 171q-22 50 -65 151
l3 18q12 46 54 136q51 -96 92 -126q33 -24 97 -24q28 0 158 117q173 155 262 217q169 118 288 118q78 0 128.5 -43.5t50.5 -121.5q0 -130 -151 -281q25 -7 67 -7q35 0 107.5 3.5t108.5 3.5v-213zM1658 466q0 37 -95 73q-79 31 -123 31q-64 0 -213 -102q-123 -83 -192 -152
h217q79 0 228 43q178 51 178 107z" />
    <glyph glyph-name="uniFEBB" unicode="&#x635;" horiz-adv-x="1399" arabic-form="initial" 
d="M1342 533q0 -121 -127 -234q-100 -90 -237 -143q-190 -75 -419 -75q-143 0 -206 20q-87 28 -162 121q-41 -60 -56 -79q-31 -43 -85 -43h-65v213q21 0 28 -1q42 -2 59 -2h4q52 0 83 28q23 22 51 82q21 -63 76.5 -107t120.5 -44q17 0 165 114q190 146 302 215
q190 115 303 115q43 0 95 -41q70 -53 70 -139zM1200 429q0 33 -92 66q-79 29 -114 29q-76 0 -195 -65q-90 -50 -184 -122l-84 -68h245q93 0 253 55q171 59 171 105z" />
    <glyph glyph-name="uniFEBC" unicode="&#x635;" horiz-adv-x="1500" arabic-form="medial" 
d="M1520 100l-976 -3q-114 0 -182 26q-84 32 -141 115q-7 -9 -52 -81q-36 -57 -91 -57h-93v213h62q88 0 118 17q35 21 73 106q17 -62 75 -106.5t122 -44.5q14 0 164 114q193 147 303 214q188 115 301 115q47 0 100 -46q65 -55 65 -133q0 -69 -72 -154q-28 -33 -78 -83
q31 -6 43 -6q77 7 259 7v-213zM1226 446q0 30 -88 63q-78 30 -123 30q-111 0 -313 -147q-72 -53 -143 -116h122q46 15 197 32.5t219 38.5q129 40 129 99z" />
    <glyph glyph-name="uniFEBD" unicode="&#x636;" horiz-adv-x="1850" arabic-form="isolated" 
d="M1790 587q0 -95 -84 -204q-95 -121 -250 -196q-183 -87 -410 -87h-227q-22 -222 -139 -350q-128 -140 -345 -140q-323 0 -323 334q0 69 32 175q39 126 91 179l-24 -111q-23 -109 -23 -121q0 -145 98 -203q75 -45 225 -45q146 0 252 62q91 53 91 102q0 98 -30 174
q-22 48 -65 147q4 21 8 36q15 47 48 120q47 -87 70 -111q42 -40 118 -40q24 0 155 117q168 151 265 217q171 118 288 118q76 0 127.5 -48.5t51.5 -124.5zM1649 468q0 36 -95 73q-81 31 -121 31q-84 0 -290 -156q-75 -58 -116 -99h216q80 0 229 43q177 52 177 108zM1112 1093
l126 -126l-126 -123l-126 123z" />
    <glyph glyph-name="uniFEBE" unicode="&#x636;" horiz-adv-x="1900" arabic-form="final" 
d="M1921 100q-94 0 -566 19l-169 7q-207 -29 -320 -29h-20q-13 1 -19 1q-27 -278 -204 -407q-115 -84 -280 -84q-322 0 -322 336q0 71 31 175q37 125 92 179q-11 -43 -24 -101q-23 -107 -23 -130q0 -251 321 -251q110 0 221 48q122 53 122 118q0 92 -30 171q-22 50 -65 151
l3 18q12 46 54 136q51 -96 92 -126q33 -24 97 -24q28 0 158 117q173 155 262 217q169 118 288 118q78 0 128.5 -43.5t50.5 -121.5q0 -130 -151 -281q25 -7 67 -7q35 0 102.5 3.5t103.5 3.5v-213zM1658 466q0 37 -95 73q-79 31 -123 31q-64 0 -213 -102q-123 -83 -192 -152
h217q79 0 228 43q178 51 178 107zM1113 1093l126 -126l-126 -123l-126 123z" />
    <glyph glyph-name="uniFEBF" unicode="&#x636;" horiz-adv-x="1399" arabic-form="initial" 
d="M1342 533q0 -121 -127 -234q-100 -90 -237 -143q-190 -75 -419 -75q-143 0 -206 20q-87 28 -162 121q-41 -60 -56 -79q-31 -43 -85 -43h-75v213q21 0 38 -1q42 -2 59 -2h4q52 0 83 28q23 22 51 82q21 -63 76.5 -107t120.5 -44q17 0 165 114q190 146 302 215
q190 115 303 115q43 0 95 -41q70 -53 70 -139zM1200 429q0 33 -92 66q-79 29 -114 29q-76 0 -195 -65q-90 -50 -184 -122l-84 -68h245q93 0 253 55q171 59 171 105zM626 1052l126 -125l-126 -124l-126 124z" />
    <glyph glyph-name="uniFEC0" unicode="&#x636;" horiz-adv-x="1500" arabic-form="medial" 
d="M1520 100l-966 -3q-114 0 -182 26q-84 32 -141 115q-7 -9 -52 -81q-36 -57 -91 -57h-93v213h62q88 0 118 17q35 21 73 106q17 -62 75 -106.5t122 -44.5q14 0 164 114q193 147 303 214q188 115 301 115q47 0 100 -46q65 -55 65 -133q0 -69 -72 -154q-28 -33 -78 -83
q31 -6 43 -6q77 7 249 7v-213zM1236 446q0 30 -88 63q-78 30 -123 30q-111 0 -313 -147q-72 -53 -143 -116h122q46 15 197 32.5t219 38.5q129 40 129 99zM666 1052l126 -125l-126 -124l-126 124z" />
    <glyph glyph-name="uniFEC1" unicode="&#x637;" horiz-adv-x="1301" arabic-form="isolated" 
d="M1250 567q0 -59 -58 -151q-199 -316 -711 -316q-194 0 -287 39q-110 46 -203 187l343 -37q36 11 103 73q71 65 71 96v714q0 13 -38 62q-18 24 -18 48q0 41 59 128q49 71 73 92q-7 -48 -7 -80q0 -51 26 -80q21 -21 74 -47q-17 -69 -26 -91q-28 -74 -67 -97l10 -603
q29 18 143 98q97 69 159 101q88 46 147 46q73 0 138 -54q69 -57 69 -128zM1089 458q0 44 -79 72q-62 22 -108 22q-126 0 -298 -146q-43 -37 -96 -90q71 -17 86 -17q51 0 164 21q131 24 221 57q110 41 110 81z" />
    <glyph glyph-name="uniFEC2" unicode="&#x637;" horiz-adv-x="1399" arabic-form="final" 
d="M1416 100l-1076 -8q-111 0 -214 74q-71 51 -125 134l339 -29q32 7 105 74t73 95v706q0 18 -28 49.5t-28 58.5q0 37 51 118q47 75 82 104q-9 -61 -9 -82q0 -78 102 -125q-6 -22 -17 -63q-30 -98 -76 -126l8 -602q32 18 146 96q102 69 166 102q92 47 150 47q67 0 132 -51
q74 -57 74 -133q0 -105 -150 -259q20 -2 32 -2q18 0 34.5 9l27.5 15l201 11v-213zM1112 432q0 48 -94 75q-32 9 -95 18q-128 0 -302 -143q-54 -44 -103 -92q39 -10 80 -10q64 0 180 19q134 22 224 52q110 39 110 81z" />
    <glyph glyph-name="uniFEC3" unicode="&#x637;" horiz-adv-x="999" arabic-form="initial" 
d="M797 495q-105 76 -190 76q-119 0 -304 -169q-29 -26 -90 -89h169q325 0 415 182zM-5 313h87q53 55 131 140q44 49 46 52v669q-67 61 -67 86q30 82 63 134q36 57 80 91q0 -109 11 -137q16 -40 92 -71q-32 -98 -38 -114q-21 -54 -56 -73l9 -528q51 32 150 105q76 56 116 75
q57 28 121 28q189 0 189 -166q0 -132 -113 -258q-94 -105 -231 -173q-148 -73 -279 -73h-311v213z" />
    <glyph glyph-name="uniFEC4" unicode="&#x637;" horiz-adv-x="1100" arabic-form="medial" 
d="M806 432q0 48 -95 75q-31 9 -95 18q-127 0 -302 -143q-53 -44 -102 -92q39 -10 79 -10q65 0 180 19q135 22 224 52q111 39 111 81zM212 440v706q0 18 -28.5 49.5t-28.5 58.5q0 37 51 118q47 75 82 104q-9 -61 -9 -82q0 -78 103 -125q-6 -22 -17 -63q-30 -98 -77 -126
l8 -602q32 18 147 96q102 69 165 102q93 47 151 47q67 0 132 -51q74 -57 74 -133q0 -105 -150 -259q19 -2 31 -2q18 0 34.5 9t28.5 15l211 11v-213h-1125v213h87q43 46 107 104q22 21 23 23z" />
    <glyph glyph-name="uniFEC5" unicode="&#x638;" horiz-adv-x="1301" arabic-form="isolated" 
d="M1250 567q0 -59 -58 -151q-199 -316 -711 -316q-194 0 -287 39q-110 46 -203 187l343 -37q36 11 103 73q71 65 71 96v714q0 13 -38 62q-18 24 -18 48q0 41 59 128q49 71 73 92q-7 -48 -7 -80q0 -51 26 -80q21 -21 74 -47q-17 -69 -26 -91q-28 -74 -67 -97l10 -603
q29 18 143 98q97 69 159 101q88 46 147 46q73 0 138 -54q69 -57 69 -128zM1089 458q0 44 -79 72q-62 22 -108 22q-126 0 -298 -146q-43 -37 -96 -90q71 -17 86 -17q51 0 164 21q131 24 221 57q110 41 110 81zM889 1142l126 -126l-126 -124l-126 124z" />
    <glyph glyph-name="uniFEC6" unicode="&#x638;" horiz-adv-x="1399" arabic-form="final" 
d="M1416 100l-1076 -8q-111 0 -214 74q-71 51 -125 134l339 -29q32 7 105 74t73 95v706q0 18 -28 49.5t-28 58.5q0 37 51 118q47 75 82 104q-9 -61 -9 -82q0 -78 102 -125q-6 -22 -17 -63q-30 -98 -76 -126l8 -602q32 18 146 96q102 69 166 102q92 47 150 47q67 0 132 -51
q74 -57 74 -133q0 -105 -150 -259q20 -2 32 -2q18 0 34.5 9l27.5 15l201 11v-213zM1112 432q0 48 -94 75q-32 9 -95 18q-128 0 -302 -143q-54 -44 -103 -92q39 -10 80 -10q64 0 180 19q134 22 224 52q110 39 110 81zM916 1154l125 -126l-125 -123l-126 123z" />
    <glyph glyph-name="uniFEC7" unicode="&#x638;" horiz-adv-x="999" arabic-form="initial" 
d="M797 495q-105 76 -190 76q-119 0 -304 -169q-29 -26 -90 -89h169q325 0 415 182zM-5 313h87q53 55 131 140q44 49 46 52v669q-67 61 -67 86q30 82 63 134q36 57 80 91q0 -109 11 -137q16 -40 92 -71q-32 -98 -38 -114q-21 -54 -56 -73l9 -528q51 32 150 105q76 56 116 75
q57 28 121 28q189 0 189 -166q0 -132 -113 -258q-94 -105 -231 -173q-148 -73 -279 -73h-311v213zM621 1170l126 -126l-126 -123l-126 123z" />
    <glyph glyph-name="uniFEC8" unicode="&#x638;" horiz-adv-x="1100" arabic-form="medial" 
d="M806 432q0 48 -95 75q-31 9 -95 18q-127 0 -302 -143q-53 -44 -102 -92q39 -10 79 -10q65 0 180 19q135 22 224 52q111 39 111 81zM212 440v706q0 18 -28.5 49.5t-28.5 58.5q0 37 51 118q47 75 82 104q-9 -61 -9 -82q0 -78 103 -125q-6 -22 -17 -63q-30 -98 -77 -126
l8 -602q32 18 147 96q102 69 165 102q93 47 151 47q67 0 132 -51q74 -57 74 -133q0 -105 -150 -259q19 -2 31 -2q18 0 34.5 9t28.5 15l211 11v-213h-1125v213h87q43 46 107 104q22 21 23 23zM621 1170l126 -126l-126 -123l-126 123z" />
    <glyph glyph-name="uniFEC9" unicode="&#x639;" horiz-adv-x="800" arabic-form="isolated" 
d="M1139 -562q-7 -8 -94 -53q-108 -57 -213 -93q-144 -51 -246 -51q-523 0 -523 495q0 98 42.5 229t99.5 208l-124 96q-56 44 -56 169q0 143 45 247q58 130 173 130q140 0 245 -96q-99 0 -235 -43q-171 -54 -171 -130q0 -15 35 -56q106 -127 248 -127q31 0 206 136
q76 60 134 89v-94q-11 -32 -11 -55q0 -5 2 -11v-4q0 -4 -1 -6q-9 -16 -159 -118q-167 -114 -254 -217q-134 -158 -134 -333q0 -164 153 -246q122 -66 301 -66h537z" />
    <glyph glyph-name="uniFECA" unicode="&#x639;" horiz-adv-x="800" arabic-form="final" 
d="M966 -531q-27 -31 -85 -70q-199 -136 -443 -136q-302 0 -396 265q-37 106 -37 247q0 160 79 334q75 164 195 283q-31 30 -40 36q-19 11 -50 11h-30q-21 -1 -31 -1v57q37 79 59 110q63 89 205 89q225 0 225 -132q0 -44 -30 -89q-22 -31 -82 -91q88 -69 151 -69h163v-213
h-154q-112 0 -189 112q-9 13 -75 114q-113 -61 -210 -218q-102 -165 -102 -305q0 -276 349 -346q81 -16 142 -16h189q97 0 197 28z" />
    <glyph glyph-name="uniFECB" unicode="&#x639;" horiz-adv-x="901" arabic-form="initial" 
d="M840 430q-9 -18 -26 -94q-14 -59 -40 -85q-21 -17 -120 -52q-282 -99 -492 -99h-177v213h262q-39 75 -39 174q0 122 75 225q82 114 200 114q182 0 254 -179q-42 16 -73 25q-49 13 -115 13q-93 0 -180 -51q-75 -45 -75 -71q0 -58 70 -133q60 -64 146 -75z" />
    <glyph glyph-name="uniFECC" unicode="&#x639;" horiz-adv-x="800" arabic-form="medial" 
d="M820 100h-142q-93 0 -172 78q-42 40 -83 82q-61 -42 -168 -118q-46 -33 -74 -40q-14 -2 -87 -2h-99v213l97 -1q132 0 228 71q-40 60 -117 84q-62 19 -62 44q0 15 26 61q88 152 247 152q84 0 157 -40q88 -48 88 -126q0 -55 -33 -100q-25 -33 -89 -85q74 -60 283 -60v-213z
" />
    <glyph glyph-name="uniFECD" unicode="&#x63a;" horiz-adv-x="800" arabic-form="isolated" 
d="M1139 -562q-7 -8 -94 -53q-108 -57 -213 -93q-144 -51 -246 -51q-523 0 -523 495q0 98 42.5 229t99.5 208l-124 96q-56 44 -56 169q0 143 45 247q58 130 173 130q140 0 245 -96q-99 0 -235 -43q-171 -54 -171 -130q0 -15 35 -56q106 -127 248 -127q31 0 206 136
q76 60 134 89v-94q-11 -32 -11 -55q0 -5 2 -11v-4q0 -4 -1 -6q-9 -16 -159 -118q-167 -114 -254 -217q-134 -158 -134 -333q0 -164 153 -246q122 -66 301 -66h537zM265 1227l126 -126l-126 -123l-126 123z" />
    <glyph glyph-name="uniFECE" unicode="&#x63a;" horiz-adv-x="800" arabic-form="final" 
d="M966 -531q-27 -31 -85 -70q-199 -136 -443 -136q-302 0 -396 265q-37 106 -37 247q0 160 79 334q75 164 195 283q-31 30 -40 36q-19 11 -50 11h-30q-21 -1 -31 -1v57q37 79 59 110q63 89 205 89q225 0 225 -132q0 -44 -30 -89q-22 -31 -82 -91q88 -69 151 -69h163v-213
h-154q-112 0 -189 112q-9 13 -75 114q-113 -61 -210 -218q-102 -165 -102 -305q0 -276 349 -346q81 -16 142 -16h189q97 0 197 28zM403 1191l126 -126l-126 -124l-126 124z" />
    <glyph glyph-name="uniFECF" unicode="&#x63a;" horiz-adv-x="901" arabic-form="initial" 
d="M840 430q-9 -18 -26 -94q-14 -59 -40 -85q-21 -17 -120 -52q-282 -99 -492 -99h-177v213h262q-39 75 -39 174q0 122 75 225q82 114 200 114q182 0 254 -179q-42 16 -73 25q-49 13 -115 13q-93 0 -180 -51q-75 -45 -75 -71q0 -58 70 -133q60 -64 146 -75zM423 1191
l126 -126l-126 -124l-126 124z" />
    <glyph glyph-name="uniFED0" unicode="&#x63a;" horiz-adv-x="800" arabic-form="medial" 
d="M820 100h-142q-93 0 -172 78q-42 40 -83 82q-61 -42 -168 -118q-46 -33 -74 -40q-14 -2 -87 -2h-99v213l97 -1q132 0 228 71q-40 60 -117 84q-62 19 -62 44q0 15 26 61q88 152 247 152q84 0 157 -40q88 -48 88 -126q0 -55 -33 -100q-25 -33 -89 -85q74 -60 283 -60v-213z
M383 1191l126 -126l-126 -124l-126 124z" />
    <glyph glyph-name="uniFED1" unicode="&#x641;" horiz-adv-x="1399" arabic-form="isolated" 
d="M1334 593q0 -392 -442 -484q-149 -30 -368 -30q-510 0 -510 324q0 61 37 145q46 106 115 124q-14 -20 -35.5 -83.5t-21.5 -85.5q0 -130 201 -193q139 -44 303 -44q141 0 260 22q106 19 234 63q35 11 106 33q54 24 54 71q0 26 -5 45q-3 8 -13 30q-65 -56 -128 -56
q-118 0 -118 123q0 92 69 200q66 101 111 101q51 0 106 -104q45 -84 45 -201zM1211 659q0 21 -22 45t-44 24q-11 0 -39 -28q-8 -7 -26 -28q13 -22 26 -45q18 -20 48 -20q57 0 57 52zM1116 1272l126 -126l-126 -124l-126 124z" />
    <glyph glyph-name="uniFED2" unicode="&#x641;" horiz-adv-x="1500" arabic-form="final" 
d="M1514 100h-182q-41 0 -94 32q-48 36 -95 72l-91 -39q-266 -112 -557 -112q-269 0 -395 128q-80 80 -80 202q0 77 32 160q39 99 100 124q-11 -31 -28 -81q-20 -57 -20 -84q0 -138 174 -204q125 -47 289 -47q165 0 351 38l130 28q0 21 -12 75q-6 29 -6 48q0 110 82 240
q88 139 176 139q46 0 80 -78q29 -69 29 -135q0 -48 -24 -115q-31 -89 -89 -156q44 -26 97 -26q21 0 66 2t67 2v-213zM1293 507q0 30 -29 57t-60 27q-37 0 -80 -54q-38 -46 -38 -64q0 -26 48 -61q15 -11 47 -29q8 0 57 44q55 50 55 80zM1179 1260l126 -126l-126 -124
l-126 124z" />
    <glyph glyph-name="uniFED3" unicode="&#x641;" horiz-adv-x="599" arabic-form="initial" 
d="M537 434q0 -196 -196 -297q-73 -37 -132 -37h-254v213h338q32 0 102 20q87 24 87 50q-5 12 -13 33q-16 40 -34 70q-76 -57 -142 -57q-64 0 -100 44q-33 42 -33 108q0 75 48 171q55 112 123 112q18 0 59 -35q147 -123 147 -395zM378 581v27l-23 39q-13 17 -52 46
q-21 -14 -41 -27q-16 -16 -34 -77l37 -17q24 -11 38 -11q20 0 75 20zM321 1276l126 -126l-126 -124l-126 124z" />
    <glyph glyph-name="uniFED4" unicode="&#x641;" horiz-adv-x="700" arabic-form="medial" 
d="M714 100h-212q-52 0 -125 47q-26 15 -64 47q-48 -32 -77 -47q-89 -47 -149 -47h-102v213h9q80 0 187 13q-9 56 -9 103q0 103 70 240q79 157 169 157q61 0 98 -83q30 -67 30 -135q0 -58 -25.5 -137.5t-58.5 -128.5q30 -30 106 -30q20 0 61 0.5t92 0.5v-213zM435 504
q0 26 -22.5 55.5t-47.5 29.5q-40 0 -80 -32q-47 -38 -47 -90q0 -29 42 -59q14 -10 43 -25q28 0 70 46t42 75zM321 1276l126 -126l-126 -124l-126 124z" />
    <glyph glyph-name="uniFED5" unicode="&#x642;" horiz-adv-x="999" arabic-form="isolated" 
d="M923 243q0 -155 -95 -278q-87 -113 -238 -179q-117 -52 -210 -52q-175 0 -269 95t-94 269q0 90 29 188q37 122 95 146q-14 -50 -29 -114q-19 -87 -19 -122q0 -254 320 -254q129 0 244 46q127 49 201 142v75q-6 -1 -42 -5q-23 -4 -48 -4q-202 0 -202 161q0 72 51 166
q59 106 124 106q87 0 141 -157q41 -121 41 -229zM783 365v48q-19 32 -28 44q-25 31 -43 31q-10 0 -41 -37q-6 -8 -29 -38v-28l43 -20q18 -8 32 -8zM798 868l112 111l-111 108l-219 -219l-110 111l111 108z" />
    <glyph glyph-name="uniFED6" unicode="&#x642;" horiz-adv-x="999" arabic-form="final" 
d="M1022 100h-102q0 -109 -83 -224q-74 -102 -178 -165q-136 -81 -294 -81q-185 0 -277 106q-82 95 -82 253v8q0 22 7 77q10 86 34 152q32 87 83 109q-48 -153 -48 -239q0 -259 315 -259q137 0 258 46q137 53 209 152v65q-7 1 -26 1q-11 0 -34 -1t-35 -1q-88 0 -131 24
q-65 37 -65 133q0 63 42 152q54 116 131 116q70 0 112 -73q35 -61 35 -138h129v-213zM789 279v28q-23 44 -38 62q-20 24 -43 24q-10 0 -23.5 -17.5t-37.5 -49.5v-28q58 -28 75 -28q23 9 67 9zM784 779l112 110l-111 108l-220 -218l-109 110l110 108z" />
    <glyph glyph-name="uniFED7" unicode="&#x642;" horiz-adv-x="599" arabic-form="initial" 
d="M537 434q0 -196 -196 -297q-73 -37 -132 -37h-214v213h298q32 0 102 20q87 24 87 50q-5 12 -13 33q-16 40 -34 70q-76 -57 -142 -57q-64 0 -100 44q-33 42 -33 108q0 75 48 171q55 112 123 112q18 0 59 -35q147 -123 147 -395zM378 581v27l-23 39q-13 17 -52 46
q-21 -14 -41 -27q-16 -16 -34 -77l37 -17q24 -11 38 -11q20 0 75 20zM435 953l112 111l-112 108l-219 -219l-110 111l111 108z" />
    <glyph glyph-name="uniFED8" unicode="&#x642;" horiz-adv-x="599" arabic-form="medial" 
d="M614 100h-152q-52 0 -125 47q-26 15 -64 47q-48 -32 -77 -47q-89 -47 -129 -47h-82v213h9q60 0 147 13q-9 56 -9 103q0 103 70 240q79 157 169 157q61 0 98 -83q30 -67 30 -135q0 -58 -25.5 -137.5t-58.5 -128.5q30 -30 106 -30q20 0 46 0.5t47 0.5v-213zM395 504
q0 26 -22.5 55.5t-47.5 29.5q-40 0 -80 -32q-47 -38 -47 -90q0 -29 42 -59q14 -10 43 -25q28 0 70 46t42 75zM415 953l112 111l-112 108l-219 -219l-110 111l111 108z" />
    <glyph glyph-name="uniFED9" unicode="&#x643;" horiz-adv-x="1128" arabic-form="isolated" 
d="M1064 454q0 -89 -136 -198q-104 -82 -216 -130q-173 -76 -349 -76q-281 0 -345 169q-18 47 -18 109q0 73 41 179q45 119 100 144q-37 -96 -37 -206q0 -154 188 -193q66 -14 155 -14q165 0 336 68q178 71 178 148q0 94 -3 264l-7 507q0 21 42 80q39 52 62 72
q0 -195 3 -328l4 -298q2 -165 2 -297zM686 882q0 -43 -27 -71q-9 -9 -28 -18q-7 5 -10 7q-14 7 -29 7q-46 0 -84 -75q-4 -8 -4 -14q0 -10 46 -19q58 -12 84 -26q45 -24 45 -73q0 -72 -48 -110q-44 -36 -118 -36q-52 0 -80 21q-10 7 -37 45q47 -11 84 -11q53 0 90 23
q19 11 52 44q-31 31 -111 31q-42 0 -55 5q-23 8 -23 40q0 28 48 115q40 70 69 109q50 68 81 68q20 0 37.5 -21t17.5 -41z" />
    <glyph glyph-name="uniFEDA" unicode="&#x643;" horiz-adv-x="1301" arabic-form="final" 
d="M1330 100h-151q-109 50 -128 83q-11 20 -70 124q-23 -33 -92 -83q-235 -171 -512 -171q-161 0 -258 57q-119 72 -119 220q0 78 39 181q44 117 102 144q-12 -28 -24 -85q-15 -67 -15 -117q0 -156 225 -197q82 -16 201 -16q48 0 145 30q117 37 192 88q97 66 97 135v7
l-48 708q9 45 55 107q37 49 69 76q0 -301 14 -585q2 -31 5 -94q2 -261 52 -341q37 -59 141 -59q13 0 40 0.5t40 0.5v-213zM686 882q0 -43 -27 -71q-9 -9 -28 -18q-7 5 -10 7q-14 7 -29 7q-46 0 -84 -75q-4 -8 -4 -14q0 -10 46 -19q58 -12 84 -26q45 -24 45 -73
q0 -72 -48 -110q-44 -36 -118 -36q-52 0 -80 21q-10 7 -37 45q47 -11 84 -11q53 0 90 23q19 11 52 44q-31 31 -111 31q-42 0 -55 5q-23 8 -23 40q0 28 48 115q40 70 69 109q50 68 81 68q20 0 37.5 -21t17.5 -41z" />
    <glyph glyph-name="uniFEDB" unicode="&#x643;" horiz-adv-x="700" arabic-form="initial" 
d="M871 1430q-34 -177 -36 -179l-146 -68q-166 -78 -265 -130q-186 -96 -241 -152q8 -8 125 -80q110 -68 168 -136q84 -100 84 -221q0 -141 -84 -247q-94 -117 -245 -117h-236v213h254q60 0 128 27q89 35 89 90q0 85 -97 146q-62 35 -183 108q-98 65 -98 166q0 146 188 277
q37 25 153 95q171 103 294 157q88 39 148 51z" />
    <glyph glyph-name="uniFEDC" unicode="&#x643;" horiz-adv-x="1100" arabic-form="medial" 
d="M1125 100h-130q-64 29 -135 89q-55 47 -145 138l-183 188q-39 -140 -72 -210q-94 -205 -277 -205h-198v213h227q52 0 123 33q93 43 93 108t-95 135q-58 44 -176 131q-96 86 -96 182q0 26 9 82q10 62 19 78q23 42 227 166q137 83 257 147q193 102 308 140
q-19 -85 -38 -171q-5 -6 -159 -83q-208 -104 -313 -161q-186 -103 -263 -170q113 -64 335 -201q118 -79 250 -186l204 -165q59 -46 110 -57q32 -8 118 -8v-213z" />
    <glyph glyph-name="uniFEDD" unicode="&#x644;" horiz-adv-x="800" arabic-form="isolated" 
d="M726 1232q-8 -53 -25 -157q-4 -26 -42 -42q3 -8 17 -99q49 -308 49 -546q0 -608 -425 -608q-176 0 -243 91q-50 68 -50 215q0 84 27 182q31 113 78 153q0 -7 -16 -106q-8 -52 -8 -85q0 -224 260 -224q40 0 98 13q194 45 194 150v1q-2 76 -15 240q-9 63 -23 200l-27 499
q-2 4 -48 52q-20 21 -20 29q0 23 55 151q31 74 50 88q0 -103 16 -137q22 -50 98 -60z" />
    <glyph glyph-name="uniFEDE" unicode="&#x644;" horiz-adv-x="1100" arabic-form="final" 
d="M114 57q0 -108 90 -160q72 -42 188 -42q43 0 101 12q192 37 216 134l-85 1203q15 40 44 90q38 63 69 88l51 -663q19 -242 79 -321q64 -85 155 -85h92v-213h-161q-40 0 -72 23q-40 37 -69 62q-11 -60 -37 -179q-39 -163 -131 -266q-124 -137 -336 -137q-224 0 -271 182
q-17 65 -17 174q3 25 10 75q13 81 37 152q32 91 75 122q-28 -117 -28 -251z" />
    <glyph glyph-name="uniFEDF" unicode="&#x644;" horiz-adv-x="501" arabic-form="initial" 
d="M429 1181q0 -42 -27 -103q-10 -22 -28 -53q-3 -10 -3 -34q0 -30 5 -91l11 -127q6 -65 6 -107v-198q0 -142 -40 -237q-55 -131 -177 -131h-201v213l180 1h17q43 0 74 12q52 20 52 72q0 365 -26 615q-9 83 -12 87q-67 78 -67 109l15 42q51 121 138 179q1 -10 1 -25
q0 -20 -4 -34q-10 -37 -10 -42q0 -11 3 -21q10 -35 69 -87q24 -21 24 -40z" />
    <glyph glyph-name="uniFEE0" unicode="&#x644;" horiz-adv-x="501" arabic-form="medial" 
d="M521 100h-103q-46 0 -73 24q-20 18 -45 66q-38 74 -53 98q-23 -23 -82 -125q-37 -63 -96 -63h-84v213q102 0 144 27q53 34 53 123q0 9 -1 19l-47 736v14q0 51 27 99q25 42 86 90q0 -70 30 -507q12 -192 18 -238v-87q0 -76 11 -121q40 -155 215 -155v-213z" />
    <glyph glyph-name="uniFEE1" unicode="&#x645;" horiz-adv-x="700" arabic-form="isolated" 
d="M136 56l2 -683q0 -102 -37 -161l-67 735q0 136 71 209q52 54 142 73l109 19q-60 78 -121 78q-39 0 -96 -31q22 78 64 134q56 74 129 74q50 0 163 -74q117 -78 117 -120l-48 -108q-5 -12 -47 -104q-4 -2 -14 -2q-24 0 -79 12l-254 1q-20 0 -29 -26q-1 -6 -5 -26z" />
    <glyph glyph-name="uniFEE2" unicode="&#x645;" horiz-adv-x="800" arabic-form="final" 
d="M821 100h-141q-39 0 -79 25q-25 15 -62 41q0 -207 -105 -207q-58 0 -96 73q-45 86 -45 163l-27 9q-95 0 -142 -94l56 -730q-9 -88 -56 -147l-76 825q0 80 60 185t129 140q41 20 80 30q23 6 71 17q4 4 4 8q-4 7 -4 13q0 18 37 55q28 -22 66 -86q32 -53 84 -75
q76 -32 246 -32v-213z" />
    <glyph glyph-name="uniFEE3" unicode="&#x645;" horiz-adv-x="742" arabic-form="initial" 
d="M675 402q0 -89 -34 -152q-43 -78 -125 -78q-57 0 -126 41q-10 6 -95 62q-74 -116 -91 -141q-21 -29 -79 -29h-140v214h76q52 0 85 13q41 16 85 72q22 29 124 182q35 51 56 74q46 50 91 50q40 0 103 -95q70 -106 70 -213zM563 360v47q-30 66 -36 75q-33 57 -77 57
q-2 1 -5 1t-5 -2q-29 -15 -76 -103q129 -85 159 -85q0 2 40 10z" />
    <glyph glyph-name="uniFEE4" unicode="&#x645;" horiz-adv-x="800" arabic-form="medial" 
d="M822 105h-141q-25 0 -60 19l-34 20q-10 0 -30 -43t-74 -43q-120 0 -254 132q-6 -6 -48 -62q-17 -23 -46 -23h-150v214q85 0 103 2q74 10 116 56q36 42 110 125q51 56 79 56h14q65 0 104 -62q59 -93 86 -114q78 -63 156 -63h69v-214zM474 247v38q-14 47 -25 82
q-18 56 -51 97l-49 -49q-36 -36 -36 -51q0 -25 63 -65q50 -33 98 -52z" />
    <glyph glyph-name="uniFEE5" unicode="&#x646;" horiz-adv-x="848" arabic-form="isolated" 
d="M782 201q0 -175 -117 -310q-128 -148 -326 -148q-322 0 -322 297q0 65 23 147q31 112 87 171q0 -34 -13.5 -101.5t-13.5 -101.5q0 -210 252 -210q52 0 126 21q223 60 223 175q0 106 -95 229q-11 14 -33 43q4 16 12 44q29 97 61 157q99 -123 127 -305q9 -57 9 -108z
M333 943l126 -126l-126 -124l-126 124z" />
    <glyph glyph-name="uniFEE6" unicode="&#x646;" horiz-adv-x="999" arabic-form="final" 
d="M1020 100h-183q0 -220 -135.5 -353t-354.5 -133q-326 0 -326 326q0 29 11 92q39 215 117 251q-45 -174 -45 -220q0 -247 316 -247q123 0 217 42q118 52 118 151q0 75 -34 152l-76 123l83 156q44 -54 87 -106q31 -21 128 -21h77v-213zM426 740l126 -126l-126 -124
l-126 124z" />
    <glyph glyph-name="uniFEE7" unicode="&#x646;" horiz-adv-x="400" arabic-form="initial" 
d="M344 435q0 -266 -197 -319q-71 -16 -96 -16h-54v213h60q172 0 220 60q0 13 -29 73q-8 15 -39 57q27 33 44 67q38 79 45 102l30 -121q16 -65 16 -116zM174 1052l126 -126l-126 -123l-126 123z" />
    <glyph glyph-name="uniFEE8" unicode="&#x646;" horiz-adv-x="501" arabic-form="medial" 
d="M519 100h-116q-56 0 -94 41q-5 6 -71 104q-15 -26 -45 -77q-43 -68 -118 -68h-88v213q140 0 198 25q30 13 51 68q25 64 59 92q0 -123 41 -158q33 -27 141 -27h42v-213zM263 904l126 -126l-126 -123l-126 123z" />
    <glyph glyph-name="uniFEE9" unicode="&#x647;" horiz-adv-x="501" arabic-form="isolated" 
d="M477 416q0 -122 -56 -212q-65 -104 -181 -104q-141 0 -141 174q0 73 63 227q20 49 22 52v1q0 4 -4 21q-5 20 -5 27q0 61 47 177q21 -25 186 -175q69 -62 69 -188zM401 369q0 13 -78 79q-58 49 -82 67q-58 -58 -58 -132q0 -94 76 -94q31 0 84 28q58 30 58 52z" />
    <glyph glyph-name="uniFEEA" unicode="&#x647;" horiz-adv-x="800" arabic-form="final" 
d="M814 100h-177q-74 0 -105 81q-46 119 -55 136q-64 -89 -122 -113q-45 -19 -147 -19h-10q-117 0 -117 52q0 198 217 335q36 22 79 46q7 3 35 18l-13 143q23 56 69 113q0 -61 16 -177q47 -352 136 -392q21 -10 109 -10h85v-213zM439 450q0 11 -9 46q-3 12 -9 37
q-63 -28 -122 -63q-27 -16 -77 -49q52 -19 85 -19q27 0 75 13q57 16 57 35z" />
    <glyph glyph-name="uniFEEB" unicode="&#x647;" horiz-adv-x="800" arabic-form="initial" 
d="M710 421q0 -121 -23 -164q-34 -61 -142 -61q-68 0 -124 11l-112 26q-10 -11 -32 -34q-101 -99 -179 -99h-113v213q84 0 94 1q76 7 76 37q0 13 -10.5 49t-10.5 56q0 43 20 88q41 95 75 132q0 10 -17 24q-9 8 -11 13q-1 4 -1 9q0 31 34 109q39 91 61 91q5 0 62 -51
l201 -177q96 -79 130 -141q22 -42 22 -99v-33zM644 364q-12 44 -72 104q-81 81 -126 104q19 -39 19 -78q0 -41 -28 -111q49 -6 99 -14q68 -9 89 -24zM399 487q0 25 -23 59q-30 44 -80 64q-6 -9 -54 -64q-28 -32 -41 -78q72 -38 108 -38q25 0 55 17q35 17 35 40z" />
    <glyph glyph-name="uniFEEC" unicode="&#x647;" horiz-adv-x="901" arabic-form="medial" 
d="M883 100q-181 0 -251 -27q-103 -39 -171 -174q-23 -45 -23 -120q0 -33 3 -64l7 -102q0 -126 -110 -126q-85 0 -108 221q-8 69 -8 150q0 63 11 140q14 99 38 158q-101 -56 -157 -56h-119v213h45q171 0 262 28l118 61q41 0 41 -42q-53 -106 -59 -119q-35 -76 -41 -123
q-4 -22 -4 -52q0 -42 6 -95q2 -20 6 -44q38 61 113 181q61 96 126 145q80 60 182 60h138l-1 -213h-44z" />
    <glyph glyph-name="uniFEED" unicode="&#x648;" horiz-adv-x="599" arabic-form="isolated" 
d="M517 326q0 -139 -44 -260q-49 -138 -144 -216q-107 -89 -259 -89q-94 0 -171 26q-23 7 -125 49q440 0 624 235q62 81 62 146q0 34 -18 72q-67 -85 -145 -85q-100 0 -100 127q0 77 52 176q58 111 119 111q49 0 93 -66q56 -84 56 -226zM395 383q0 51 -74 85
q-25 -47 -32 -65l-16 -39q55 -28 57 -28q17 0 38 11q27 15 27 36z" />
    <glyph glyph-name="uniFEEE" unicode="&#x648;" horiz-adv-x="700" arabic-form="final" 
d="M718 100h-199q-14 -37 -44 -109q-53 -117 -138 -198q-113 -108 -251 -108q-189 0 -331 141q153 -12 223 -12h54q17 2 25 3q81 0 171 55q113 70 208 228h-128q-110 26 -110 133q0 140 74 247q67 96 105 96q46 0 84 -63q33 -73 67 -205q4 -1 17 -1h121q47 0 52 1v-208z
M415 301q-7 44 -19 68q-41 46 -61 46q-3 0 -5 -1q-19 -25 -28 -48q-7 -15 -7 -28q0 -21 8 -29t34 -8h78z" />
    <glyph glyph-name="uniFEEF" unicode="&#x649;" horiz-adv-x="1119" arabic-form="isolated" 
d="M1062 729q0 -44 -18 -79q-43 -89 -47 -100l-35 37q-20 20 -41 20q-32 0 -112 -56q-66 -46 -101 -82q-61 -61 -61 -103q0 -59 100 -77q19 -3 186 -33q100 -32 100 -124q0 -74 -82 -175q-91 -113 -229 -185q-166 -87 -352 -87q-366 0 -366 385q0 80 38 187q44 125 103 152
q-47 -162 -47 -239q0 -279 319 -279q33 0 125 19q128 26 223 65q128 54 165 124q-80 5 -161 10q-111 12 -148 39q-49 36 -49 120q0 105 83 242q72 116 167 200q107 94 188 94q24 0 39 -26q13 -22 13 -49z" />
    <glyph glyph-name="uniFEF0" unicode="&#x649;" horiz-adv-x="1201" arabic-form="final" 
d="M1217 100h-208q-55 -9 -86 -15q-118 -22 -118 -40q0 -6 107 -22q120 -16 134 -21q85 -27 85 -83q0 -42 -61 -118q-197 -249 -607 -249q-189 0 -308 69q-143 83 -143 246q0 78 67 202q71 131 149 182q-6 -30 -79 -195q-26 -59 -26 -109q0 -178 227 -214q66 -11 170 -11
q100 0 251 32q175 39 229 90q8 7 8 13q0 13 -80 23q-105 13 -149 30q-81 30 -81 96q0 136 119 225q108 82 248 82h152v-213z" />
    <glyph glyph-name="uniFEF1" unicode="&#x64a;" horiz-adv-x="1119" arabic-form="isolated" 
d="M1059 729q0 -44 -18 -79q-43 -89 -47 -100l-35 37q-20 20 -41 20q-32 0 -112 -56q-66 -46 -101 -82q-61 -61 -61 -103q0 -59 100 -77q19 -3 186 -33q100 -32 100 -124q0 -74 -82 -175q-91 -113 -229 -185q-166 -87 -352 -87q-366 0 -366 385q0 80 38 187q44 125 103 152
q-47 -162 -47 -239q0 -279 319 -279q33 0 125 19q128 26 223 65q128 54 165 124q-80 5 -161 10q-111 12 -148 39q-49 36 -49 120q0 105 83 242q72 116 167 200q107 94 188 94q24 0 39 -26q13 -22 13 -49zM596 -667l112 110l-111 108l-219 -218l-110 110l111 108z" />
    <glyph glyph-name="uniFEF2" unicode="&#x64a;" horiz-adv-x="1201" arabic-form="final" 
d="M1217 100h-208q-55 -9 -86 -15q-118 -22 -118 -40q0 -6 107 -22q120 -16 134 -21q85 -27 85 -83q0 -42 -61 -118q-197 -249 -607 -249q-189 0 -308 69q-143 83 -143 246q0 78 67 202q71 131 149 182q-11 -26 -45 -101q-60 -126 -60 -203q0 -178 227 -214q66 -11 170 -11
q100 0 251 32q175 39 229 90q8 7 8 13q0 13 -80 23q-105 13 -149 30q-81 30 -81 96q0 136 119 225q108 82 248 82h152v-213zM690 -739l112 111l-112 108l-219 -219l-110 111l111 108z" />
    <glyph glyph-name="uniFEF3" unicode="&#x64a;" horiz-adv-x="501" arabic-form="initial" 
d="M434 435q0 -266 -197 -319q-61 -16 -166 -16h-84v213h90q242 0 290 60q0 13 -29 73q-8 15 -29 57q17 33 34 67q38 79 45 102l30 -121q16 -65 16 -116zM469 -153l-112 110l-218 -217l-110 107l110 110l218 -217z" />
    <glyph glyph-name="uniFEF4" unicode="&#x64a;" horiz-adv-x="599" arabic-form="medial" 
d="M614 100h-164q-44 0 -105 53q-51 46 -79 93q-16 -29 -50 -86q-37 -60 -113 -60h-116v213h162q65 0 106 65q10 15 68 112q2 -53 5 -79q12 -98 132 -98h154v-213zM530 -153l-112 110l-218 -217l-110 107l110 110l218 -217z" />
    <glyph glyph-name=".notdef" horiz-adv-x="748" 
d="M68 0v1365h544v-1365h-544zM136 68h408v1229h-408v-1229z" />
    <glyph glyph-name=".null" horiz-adv-x="0" 
 />
    <glyph glyph-name="nonmarkingreturn" horiz-adv-x="682" 
 />
    <glyph glyph-name="uni00A0" unicode=" " horiz-adv-x="512" 
 />
    <glyph glyph-name="uni00A0" unicode="&#xa0;" horiz-adv-x="512" 
 />
    <glyph glyph-name="exclam" unicode="!" horiz-adv-x="682" 
d="M461 92q0 -25 -9.5 -47t-25.5 -38.5t-38.5 -26t-47.5 -9.5q-26 0 -48 9.5t-38 26t-25.5 38.5t-9.5 47t9.5 47.5t25.5 38.5t38 25.5t48 9.5q25 0 47.5 -9.5t38.5 -25.5t25.5 -38.5t9.5 -47.5zM231 1341h218l-62 -952h-94z" />
    <glyph glyph-name="quotedbl" unicode="&#x22;" horiz-adv-x="836" 
d="M512 1341h197l-62 -481h-74zM127 1341h197l-62 -481h-74z" />
    <glyph glyph-name="numbersign" unicode="#" 
d="M987 524v-102h-260l-78 -422h-104l78 422h-310l-77 -422h-105l78 422h-172v102h192l58 307h-250v103h268l76 407h104l-75 -407h309l76 407h104l-76 -407h164v-103h-182l-57 -307h239zM334 524h309l57 307h-309z" />
    <glyph glyph-name="dollar" unicode="$" 
d="M481 -20q-56 1 -113.5 7.5t-110 16.5t-96.5 22t-73 25v320h66l34 -191q17 -23 50 -43.5t73.5 -37t85 -26.5t84.5 -12v566q-46 16 -91 32.5t-87 38t-78 49t-62.5 65.5t-41.5 87.5t-15 114.5q0 73 27 132.5t76 103t118.5 70.5t153.5 34v129h82v-127q81 -3 163 -15.5
t144 -27.5v-279h-65l-29 164q-16 15 -40 27.5t-52 22t-59 16t-62 8.5v-477q47 -17 94.5 -34.5t92 -40t83 -51.5t67 -69t45 -92t16.5 -121q0 -86 -27 -157t-78 -123t-125 -84t-168 -39v-140h-82v136zM791 330q0 61 -18 103t-49 72t-72.5 51.5t-88.5 39.5v-530q110 17 169 83
t59 181zM274 1067q0 -55 16 -93t44 -65.5t65.5 -46.5t81.5 -37v443q-100 -13 -153.5 -66t-53.5 -135z" />
    <glyph glyph-name="percent" unicode="%" horiz-adv-x="1706" 
d="M440 -20h-110l948 1382h111zM721 995q0 -179 -80.5 -275.5t-249.5 -96.5q-161 0 -241 95t-80 277q0 178 80.5 272.5t246.5 94.5q159 0 241.5 -92t82.5 -275zM565 995q0 70 -9 124.5t-29 92t-53.5 57t-82.5 19.5t-81 -19.5t-51 -57t-26.5 -92t-7.5 -124.5
q0 -71 7.5 -126.5t26.5 -93.5t51 -58.5t81 -20.5t82.5 20.5t53.5 58.5t29 93.5t9 126.5zM1636 346q0 -180 -80 -276.5t-249 -96.5q-161 0 -241.5 95t-80.5 278q0 178 81 272.5t247 94.5q159 0 241 -92t82 -275zM1481 346q0 70 -9 124.5t-29 92t-53.5 57t-82.5 19.5
t-81 -19.5t-51 -57t-26.5 -92t-7.5 -124.5q0 -71 7.5 -126.5t26.5 -93.5t51 -58.5t81 -20.5t82.5 20.5t53.5 58.5t29 93.5t9 126.5z" />
    <glyph glyph-name="ampersand" unicode="&#x26;" horiz-adv-x="1593" 
d="M989 1083q0 -74 -28.5 -126t-75 -90.5t-106.5 -66.5t-122 -52l422 -384q46 94 73 186.5t30 176.5l-142 27v53h457v-53l-139 -27q-12 -42 -29.5 -93.5t-41 -109t-54 -118.5t-70.5 -120l228 -208l165 -25v-53h-344l-171 155q-39 -35 -85.5 -67t-103.5 -56t-125.5 -38
t-151.5 -14q-248 0 -372.5 96.5t-124.5 279.5q0 93 31 157.5t79 108.5t106.5 72t113.5 49q-28 27 -55 60.5t-48.5 74t-34.5 88.5t-13 104q0 63 20.5 116.5t65.5 92.5t116 61t172 22q98 0 166.5 -21.5t111 -59t61.5 -88.5t19 -110zM602 66q64 0 118.5 12t99.5 33t82.5 48.5
t69.5 59.5l-499 457q-37 -16 -72.5 -39.5t-63.5 -59.5t-45.5 -87t-17.5 -123q0 -76 23 -132.5t65.5 -94t103 -56t136.5 -18.5zM434 1090q0 -54 15 -97.5t37.5 -77.5t50 -60t51.5 -44q51 19 93 40.5t71 52.5t45 75.5t16 110.5q0 192 -182 192q-105 0 -151 -48t-46 -144z" />
    <glyph glyph-name="quotesingle" unicode="'" horiz-adv-x="369" 
d="M86 1341h197l-62 -481h-74z" />
    <glyph glyph-name="parenleft" unicode="(" horiz-adv-x="682" 
d="M283 494q0 -84 4 -167.5t15.5 -163t34 -154t59.5 -140t91 -122t129 -99.5v-84q-134 71 -232.5 154.5t-164 193t-97.5 251.5t-32 331t32 330.5t97.5 250.5t164 192t232.5 154v-84q-113 -65 -179 -157.5t-100.5 -203t-44 -233.5t-9.5 -249z" />
    <glyph glyph-name="parenright" unicode=")" horiz-adv-x="682" 
d="M66 -436v84q75 43 129 99.5t91 122t59.5 140t34 154t15.5 163t4 167.5q0 126 -9.5 249t-44 233.5t-100.5 203t-179 157.5v84q133 -71 232 -154t164.5 -192t97.5 -250.5t32 -330.5t-32 -331t-97.5 -251.5t-164.5 -193t-232 -154.5z" />
    <glyph glyph-name="asterisk" unicode="*" 
d="M100 1065l64 143l315 -194l-43 327h156l-47 -327l317 190l64 -141l-332 -98l332 -97l-64 -141l-317 188l47 -325h-156l43 328l-315 -195l-64 143l328 99z" />
    <glyph glyph-name="plus" unicode="+" horiz-adv-x="1155" 
d="M629 629v-426h-103v426h-424v102h424v426h103v-426h426v-102h-426z" />
    <glyph glyph-name="comma" unicode="," horiz-adv-x="512" 
d="M383 49q0 -59 -16.5 -114.5t-53 -102.5t-94.5 -85t-141 -62v77q91 29 133.5 71t42.5 97q0 18 -10 30.5t-25 22t-32.5 18.5t-32.5 21.5t-25 31t-10 46.5q0 54 34 82.5t87 28.5q28 0 54 -10.5t45.5 -31t31.5 -51t12 -69.5z" />
    <glyph glyph-name="uni00AD" unicode="-" horiz-adv-x="900" 
d="M183 219v153h532v-153h-532z" />
    <glyph glyph-name="uni00AD" unicode="&#xad;" horiz-adv-x="900" 
d="M183 219v153h532v-153h-532z" />
    <glyph glyph-name="period" unicode="." horiz-adv-x="512" 
d="M377 92q0 -25 -9.5 -47t-25.5 -38.5t-38.5 -26t-47.5 -9.5q-26 0 -48 9.5t-38 26t-25.5 38.5t-9.5 47t9.5 47.5t25.5 38.5t38 25.5t48 9.5q25 0 47.5 -9.5t38.5 -25.5t25.5 -38.5t9.5 -47.5z" />
    <glyph glyph-name="slash" unicode="/" horiz-adv-x="569" 
d="M100 -20h-100l471 1370h98z" />
    <glyph glyph-name="zero" unicode="0" 
d="M946 676q0 -168 -26.5 -298t-80.5 -218.5t-137 -134t-196 -45.5q-212 0 -320 178t-108 518q0 333 108 509.5t328 176.5q212 0 322 -174.5t110 -511.5zM762 676q0 144 -12.5 257t-42 190.5t-79 118t-122.5 40.5q-74 0 -121.5 -40.5t-74.5 -118t-37.5 -190.5t-10.5 -257
t10.5 -258.5t37.5 -194t74.5 -122t121.5 -42.5q73 0 122.5 42.5t79 122t42 194t12.5 258.5z" />
    <glyph glyph-name="one" unicode="1" 
d="M627 80l274 -27v-53h-721v53l275 27v1094l-271 -97v53l391 222h52v-1272z" />
    <glyph glyph-name="two" unicode="2" 
d="M911 0h-821v147q101 94 185.5 168.5t152 139t118 123.5t84 123t50 138t16.5 167q0 130 -59 198t-193 68q-30 0 -59.5 -4.5t-56.5 -12t-50.5 -17t-41.5 -19.5l-35 -164h-66v258q76 18 149.5 30.5t159.5 12.5q220 0 330.5 -91.5t110.5 -258.5q0 -82 -21.5 -152
t-61.5 -134.5t-98 -127t-132 -129.5t-162.5 -142.5t-188.5 -166.5h690v-154z" />
    <glyph glyph-name="three" unicode="3" 
d="M944 365q0 -91 -32 -162.5t-92.5 -121t-149 -75.5t-201.5 -26q-99 0 -192 12t-168 31l-11 282h66l45 -188q18 -10 47 -20t62.5 -17.5t69 -12t65.5 -4.5q93 0 152.5 23t94 64.5t47.5 99t13 125.5q0 78 -22 129.5t-60.5 83t-90 46t-110.5 17.5l-143 8v82l143 9
q113 6 167 70t54 194q0 65 -13.5 113.5t-42.5 80.5t-75.5 48t-113.5 16q-30 0 -60.5 -4.5t-58.5 -12t-52 -17t-42 -19.5l-35 -164h-66v258q35 9 70 17t73 13.5t80 9t91 3.5q211 0 320.5 -81t109.5 -249q0 -63 -17 -117.5t-53 -96.5t-91.5 -70.5t-131.5 -39.5
q182 -21 268 -104.5t86 -232.5z" />
    <glyph glyph-name="four" unicode="4" 
d="M810 295v-295h-172v295h-598v133l655 920h115v-910h182v-143h-182zM638 1113h-5l-480 -675h485v675z" />
    <glyph glyph-name="five" unicode="5" 
d="M485 784q112 0 198 -22.5t144 -69.5t87.5 -119.5t29.5 -173.5q0 -95 -28.5 -172t-87.5 -132t-148.5 -85t-210.5 -30q-94 0 -178.5 10.5t-160.5 32.5l-11 282h66l45 -188q18 -10 43.5 -20t55.5 -17.5t62 -12t62 -4.5q93 0 152.5 23.5t94 66.5t47.5 103t13 133
q0 78 -13.5 136t-49.5 97t-98.5 58.5t-160.5 19.5q-59 0 -104 -8t-74 -16h-96v665h680v-153h-590v-428q18 4 40.5 8t50 7.5t62 6t78.5 2.5z" />
    <glyph glyph-name="six" unicode="6" 
d="M963 416q0 -104 -26.5 -185t-78.5 -137t-128.5 -85t-176.5 -29q-110 0 -196.5 43t-146 128.5t-91 213t-31.5 297.5q0 182 41.5 313t111 216t160.5 125t189 40q75 0 152 -10t139 -25v-231h-66l-35 137q-18 10 -41.5 18t-49 14t-51 9.5t-48.5 3.5q-71 0 -127.5 -34
t-97.5 -103t-64.5 -173t-27.5 -245q72 38 157.5 62t169.5 24t151.5 -23.5t114.5 -71.5t72 -121t25 -171zM549 59q64 0 108 21t71 63.5t38.5 106t11.5 147.5q0 164 -51.5 237t-163.5 73q-68 0 -142.5 -13t-148.5 -37q0 -144 15.5 -255t49.5 -187.5t86 -116t126 -39.5z" />
    <glyph glyph-name="seven" unicode="7" 
d="M201 1024h-66v317h830v-77l-598 -1264h-129l587 1188h-589z" />
    <glyph glyph-name="eight" unicode="8" 
d="M905 1014q0 -110 -53.5 -186.5t-144.5 -116.5q54 -20 98 -52t75.5 -75.5t48.5 -99t17 -122.5q0 -190 -107 -286t-333 -96q-214 0 -321 94.5t-107 287.5q0 133 64 220.5t173 128.5q-87 40 -141.5 116t-54.5 187q0 79 24.5 143.5t73.5 110t123 70t174 24.5q96 0 169 -24
t122.5 -69t74.5 -109.5t25 -145.5zM766 362q0 73 -13 129.5t-43.5 95.5t-80.5 59t-123 20q-74 0 -122 -20t-76 -59t-39 -95.5t-11 -129.5q0 -74 11 -130.5t39 -94.5t76 -58t122 -20q73 0 123 20t80.5 58t43.5 94.5t13 130.5zM725 1014q0 59 -10.5 108t-35.5 84.5t-67 55.5
t-104 20t-102.5 -20t-64 -55.5t-33 -84.5t-9.5 -108q0 -60 9.5 -108t33 -82t64 -52t102.5 -18t104 18t67 52t35.5 82t10.5 108z" />
    <glyph glyph-name="nine" unicode="9" 
d="M66 932q0 103 30 182.5t86 133t136 81t180 27.5q114 0 197 -40t137.5 -123.5t81 -212.5t26.5 -306q0 -129 -19.5 -230.5t-54.5 -178.5t-83.5 -131.5t-106.5 -88.5t-123.5 -49.5t-134.5 -15.5q-88 0 -159.5 8.5t-139.5 25.5v232h65l35 -144q19 -9 42.5 -16t49 -12.5t52 -8
t51.5 -2.5q70 0 130.5 29.5t105.5 95.5t72.5 171.5t32.5 257.5q-66 -37 -143 -61t-166 -24q-84 0 -154 25.5t-120.5 76t-78 125.5t-27.5 173zM500 1276q-129 0 -189.5 -89.5t-60.5 -258.5q0 -82 16.5 -139t48 -92.5t77 -51.5t104.5 -16q66 0 132 14t128 39q0 147 -14 258.5
t-44 186t-79 112t-119 37.5z" />
    <glyph glyph-name="colon" unicode=":" horiz-adv-x="569" 
d="M403 92q0 -25 -9.5 -47t-25.5 -38.5t-38 -26t-47 -9.5q-26 0 -48 9.5t-38 26t-25.5 38.5t-9.5 47t9.5 47.5t25.5 38.5t38 25.5t48 9.5q25 0 47 -9.5t38 -25.5t25.5 -38.5t9.5 -47.5zM403 840q0 -26 -9.5 -48t-25.5 -38t-38 -25.5t-47 -9.5q-26 0 -48 9.5t-38 25.5
t-25.5 38t-9.5 48q0 25 9.5 47t25.5 38.5t38 26t48 9.5q25 0 47 -9.5t38 -26t25.5 -38.5t9.5 -47z" />
    <glyph glyph-name="uni037E" unicode=";" horiz-adv-x="569" 
d="M403 840q0 -26 -9.5 -48t-25.5 -38t-38 -25.5t-47 -9.5q-26 0 -48 9.5t-38 25.5t-25.5 38t-9.5 48q0 25 9.5 47t25.5 38.5t38 26t48 9.5q25 0 47 -9.5t38 -26t25.5 -38.5t9.5 -47zM412 49q0 -59 -16.5 -114.5t-53 -102.5t-95 -85t-141.5 -62v77q91 29 134 71t43 97
q0 18 -10 30.5t-25 22t-33 18.5t-33 21.5t-25 31t-10 46.5q0 54 34.5 82.5t86.5 28.5q28 0 54.5 -10.5t46 -31t31.5 -51t12 -69.5z" />
    <glyph glyph-name="uni037E" unicode="&#x37e;" horiz-adv-x="569" 
d="M403 840q0 -26 -9.5 -48t-25.5 -38t-38 -25.5t-47 -9.5q-26 0 -48 9.5t-38 25.5t-25.5 38t-9.5 48q0 25 9.5 47t25.5 38.5t38 26t48 9.5q25 0 47 -9.5t38 -26t25.5 -38.5t9.5 -47zM412 49q0 -59 -16.5 -114.5t-53 -102.5t-95 -85t-141.5 -62v77q91 29 134 71t43 97
q0 18 -10 30.5t-25 22t-33 18.5t-33 21.5t-25 31t-10 46.5q0 54 34.5 82.5t86.5 28.5q28 0 54.5 -10.5t46 -31t31.5 -51t12 -69.5z" />
    <glyph glyph-name="less" unicode="&#x3c;" horiz-adv-x="1155" 
d="M102 655v50l953 469v-103l-809 -391l809 -391v-103z" />
    <glyph glyph-name="equal" unicode="=" horiz-adv-x="1155" 
d="M1055 526v-102h-953v102h953zM1055 936v-102h-953v102h953z" />
    <glyph glyph-name="greater" unicode="&#x3e;" horiz-adv-x="1155" 
d="M104 186v103l809 391l-809 391v103l953 -469v-50z" />
    <glyph glyph-name="question" unicode="?" horiz-adv-x="909" 
d="M440 350h-80l-26 334l143 29q36 7 66 24.5t52 51t34 86t12 129.5q0 73 -12.5 124t-40.5 83t-74 46.5t-113 14.5q-60 0 -109.5 -14t-84.5 -35l-35 -164h-66v254q70 19 140.5 31t154.5 12q212 0 318 -86t106 -254q0 -70 -16.5 -133.5t-54 -115t-97.5 -89t-147 -55.5
l-57 -13zM530 92q0 -25 -9.5 -47t-25.5 -38.5t-38 -26t-47 -9.5q-26 0 -48 9.5t-38 26t-25.5 38.5t-9.5 47t9.5 47.5t25.5 38.5t38 25.5t48 9.5q25 0 47 -9.5t38 -25.5t25.5 -38.5t9.5 -47.5z" />
    <glyph glyph-name="at" unicode="@" horiz-adv-x="1886" 
d="M1458 -184q-54 -42 -114.5 -79t-133 -65t-158 -44.5t-188.5 -16.5q-181 0 -321.5 58.5t-237 160.5t-146.5 239t-50 293q0 143 32.5 273t93 241t147 201.5t193.5 154t232.5 98t265.5 34.5q175 0 307 -43.5t220.5 -123.5t133 -193t44.5 -252q0 -103 -28 -197t-77 -174.5
t-116 -146.5t-145 -112.5t-164 -71.5t-173 -25q-12 0 -23.5 2t-20.5 8t-15 16t-6 25q0 28 2.5 62.5t5.5 62.5q-27 -27 -63.5 -58t-78.5 -57t-88 -43.5t-92 -17.5q-72 0 -111.5 54.5t-39.5 145.5q0 83 15 164.5t44 155.5t73 137t101 109q48 38 92 62.5t90.5 38t98.5 18.5
t115 5h35.5t29.5 -0.5t27.5 -2t29.5 -3.5l-114 -530q-5 -21 -9 -46t-7 -48.5t-5 -44.5t-2 -35q0 -12 2 -23.5t9.5 -20t22 -13.5t40.5 -5q65 0 122 25t103.5 68.5t83 102.5t61 126.5t37.5 140t13 144.5q0 129 -41 228t-117.5 166.5t-185 102.5t-242.5 35q-128 0 -238.5 -33.5
t-202 -93.5t-162 -144.5t-119 -186t-74 -218t-25.5 -241.5q0 -132 39 -253t119.5 -213.5t202.5 -148t288 -55.5q95 0 171.5 14t139.5 37.5t116.5 54.5t102.5 66zM1139 807q-10 1 -19 2q-8 1 -16 1.5t-14 0.5q-29 0 -63.5 -3t-70 -11.5t-70.5 -23.5t-63 -40
q-29 -26 -55 -69.5t-45.5 -99.5t-31 -121t-11.5 -134q0 -71 20 -110t60 -39q36 0 73.5 11t73 27.5t66 37t51.5 38.5z" />
    <glyph glyph-name="A" unicode="A" horiz-adv-x="1479" 
d="M461 53v-53h-441v53l152 27l457 1272h190l475 -1272l170 -27v-53h-567v53l180 27l-133 387h-528l-135 -387zM676 1208l-230 -651h467z" />
    <glyph glyph-name="B" unicode="B" horiz-adv-x="1366" 
d="M958 1016q0 59 -17.5 103t-56.5 73.5t-101 44t-152 14.5h-207v-507h219q93 0 154 19.5t96.5 55t50 85.5t14.5 112zM1059 382q0 70 -22.5 121t-70 84.5t-122.5 50t-180 16.5h-240v-564q46 -2 96 -3q43 -2 95 -2.5t103 -0.5q94 0 159 21t105.5 59.5t58.5 93.5t18 124zM59 0
v53l172 27v1182l-172 26v53h613q141 0 235 -21.5t151 -62.5t81 -99.5t24 -131.5q0 -63 -20.5 -115t-57 -91.5t-87.5 -66t-111 -39.5q87 -9 157.5 -35t119.5 -67.5t75.5 -98.5t26.5 -127q0 -87 -29.5 -159.5t-92.5 -124t-162 -80t-239 -28.5q-112 0 -223 3t-205 3h-256z" />
    <glyph glyph-name="C" unicode="C" horiz-adv-x="1366" 
d="M774 -20q-164 0 -292.5 46t-217 133t-134.5 212.5t-46 283.5q0 180 46.5 312t135 218.5t217.5 128.5t295 42q69 0 130 -4.5t116.5 -11.5t105.5 -16t97 -19l6 -293h-66l-30 174q-70 43 -162.5 66.5t-188.5 23.5q-117 0 -208.5 -32t-154.5 -104.5t-96.5 -191t-33.5 -291.5
q0 -152 33 -264.5t95 -187t151.5 -111.5t203.5 -37q62 0 118.5 8t105 22t87 32.5t64.5 38.5l37 200h65l-6 -315q-42 -12 -96 -23.5t-115 -20.5t-128 -14t-134 -5z" />
    <glyph glyph-name="D" unicode="D" horiz-adv-x="1479" 
d="M1188 680q0 148 -41 255.5t-117.5 177.5t-184.5 104t-241 34h-180v-1157q30 -2 65 -3t72 -2.5t74.5 -2t73.5 -0.5q127 0 217.5 37.5t148.5 112t85.5 185.5t27.5 259zM668 1341q167 0 301.5 -35t229.5 -114t146.5 -205t51.5 -309q0 -164 -42 -291t-127 -214t-214.5 -132
t-304.5 -45q-57 0 -124.5 0.5t-132.5 1.5t-123.5 1.5t-97.5 0.5h-172v53l172 27v1182l-172 26v53h609z" />
    <glyph glyph-name="E" unicode="E" horiz-adv-x="1251" 
d="M59 53l172 27v1182l-172 26v53h1006v-321h-66l-32 217q-32 4 -77.5 7t-92.5 4.5t-89 2t-65 0.5h-219v-524h362l31 160h64v-412h-64l-31 162h-362v-547h264q62 0 117 1.5t99 3.5t75.5 5t46.5 6l57 248h66l-19 -354h-1071v53z" />
    <glyph glyph-name="F" unicode="F" horiz-adv-x="1139" 
d="M424 602v-522l223 -27v-53h-575v53l159 27v1182l-172 26v53h1006v-321h-66l-32 217q-32 4 -77.5 7t-92.5 4.5t-89 2t-65 0.5h-219v-559h395l31 160h61v-412h-61l-31 162h-395z" />
    <glyph glyph-name="G" unicode="G" horiz-adv-x="1479" 
d="M1284 70q-116 -38 -241 -64t-269 -26q-159 0 -286.5 43.5t-217.5 129t-138 211.5t-48 291q0 352 176.5 526.5t517.5 174.5q130 0 247.5 -16t223.5 -44v-288h-67l-27 166q-69 49 -165.5 75.5t-203.5 26.5q-117 0 -208.5 -32.5t-154.5 -105.5t-96.5 -191.5t-33.5 -289.5
q0 -173 39 -288.5t105.5 -184.5t154 -98t184.5 -29q49 0 97.5 6.5t91 16.5t75.5 22t52 23v381l-172 26v54h495v-54l-131 -26v-436z" />
    <glyph glyph-name="H" unicode="H" horiz-adv-x="1479" 
d="M59 0v53l172 27v1182l-172 26v53h537v-53l-172 -26v-527h631v527l-172 26v53h536v-53l-172 -26v-1182l172 -27v-53h-536v53l172 27v565h-631v-565l172 -27v-53h-537z" />
    <glyph glyph-name="I" unicode="I" horiz-adv-x="682" 
d="M438 80l172 -27v-53h-536v53l172 27v1182l-172 26v53h536v-53l-172 -26v-1182z" />
    <glyph glyph-name="J" unicode="J" horiz-adv-x="797" 
d="M410 1262l-172 26v53h516v-53l-152 -26v-830q0 -91 -17 -160t-45 -119t-64.5 -83.5t-75.5 -53.5t-78 -28t-72 -8q-65 0 -117.5 8t-89.5 22v244h66l30 -139q19 -23 54 -36t77 -13q140 0 140 190v1006z" />
    <glyph glyph-name="K" unicode="K" horiz-adv-x="1479" 
d="M1353 1341v-53l-155 -26l-458 -448l573 -734l145 -27v-53h-328l-525 678l-181 -145v-453l192 -27v-53h-557v53l172 27v1182l-172 26v53h537v-53l-172 -26v-632l642 632l-133 26v53h420z" />
    <glyph glyph-name="L" unicode="L" horiz-adv-x="1251" 
d="M631 1288l-207 -26v-1176h264q125 0 204 7t109 13l62 279h65l-18 -385h-1051v53l172 27v1182l-172 26v53h572v-53z" />
    <glyph glyph-name="M" unicode="M" horiz-adv-x="1821" 
d="M862 0h-35l-491 1153v-1073l180 -27v-53h-457v53l172 27v1182l-172 26v53h406l436 -1020l476 1020h384v-53l-172 -26v-1182l172 -27v-53h-544v53l180 27v1073z" />
    <glyph glyph-name="N" unicode="N" horiz-adv-x="1479" 
d="M1155 1262l-180 26v53h457v-53l-172 -26v-1262h-97l-827 1206v-1126l180 -27v-53h-457v53l172 27v1182l-172 26v53h406l690 -993v914z" />
    <glyph glyph-name="O" unicode="O" horiz-adv-x="1479" 
d="M293 672q0 -140 21 -253t72 -193t137 -123.5t216 -43.5t216 43.5t137.5 123.5t72.5 193t21 253q0 139 -21 251t-72.5 190.5t-137.5 120.5t-216 42t-216 -42t-137 -120.5t-72 -190.5t-21 -251zM84 672q0 178 43.5 307t126.5 213t205 124t280 40q153 0 274.5 -40
t206.5 -124t130 -213t45 -307t-45 -308.5t-130 -215.5t-206.5 -126.5t-274.5 -41.5t-274 41.5t-206 126.5t-130 215.5t-45 308.5z" />
    <glyph glyph-name="P" unicode="P" horiz-adv-x="1139" 
d="M858 944q0 80 -17.5 138t-57 95.5t-103.5 55.5t-158 18h-98v-635h104q94 0 157.5 22.5t102 64.5t54.5 103t16 138zM424 526v-446l213 -27v-53h-565v53l159 27v1182l-172 26v53h506q141 0 235.5 -30.5t151.5 -84t81 -125.5t24 -155q0 -82 -23.5 -158t-79 -134t-148.5 -93
t-231 -35h-151z" />
    <glyph glyph-name="Q" unicode="Q" horiz-adv-x="1479" 
d="M293 670q0 -140 21 -253t72 -192.5t137 -122.5t216 -43t216 43t137.5 122.5t72.5 192.5t21 253q0 139 -21 251.5t-72.5 191t-137.5 121t-216 42.5t-216 -42.5t-137 -121t-72 -191t-21 -251.5zM84 670q0 178 43.5 307.5t126.5 213.5t205 124.5t280 40.5q153 0 274.5 -40.5
t206.5 -124.5t130 -213.5t45 -307.5q0 -128 -23.5 -230.5t-69 -181t-111.5 -134.5t-151 -91l50 -62q43 -54 80 -93t69.5 -63.5t62.5 -36t60 -11.5q7 0 19 0.5l24 1t23 1t16 1.5v-66q-11 -5 -33 -11t-49.5 -12t-57.5 -10t-57 -4q-57 0 -102.5 14.5t-89 46t-89 82
t-102.5 121.5l-41 52q-18 -2 -38.5 -3t-45.5 -1q-153 0 -274 41t-206 126t-130 215t-45 308z" />
    <glyph glyph-name="R" unicode="R" horiz-adv-x="1366" 
d="M424 588v-508l203 -27v-53h-555v53l159 27v1182l-172 26v53h579q141 0 235.5 -25t151.5 -71.5t81 -112.5t24 -149q0 -77 -22.5 -137.5t-60.5 -106.5t-88 -76.5t-104 -46.5l363 -536l145 -27v-53h-321l-377 588h-241zM931 969q0 80 -19 134t-59.5 87t-104 47t-153.5 14
h-171v-573h177q92 0 155 16.5t102 52t56 90.5t17 132z" />
    <glyph glyph-name="S" unicode="S" horiz-adv-x="1139" 
d="M139 361h65l35 -181q19 -24 53 -45.5t75.5 -38t87.5 -26t90 -9.5q76 0 132 20.5t92.5 56.5t54.5 85t18 107q0 72 -30.5 119t-80 79.5t-112.5 55t-129.5 45.5t-129.5 51t-112.5 71t-80 106.5t-30.5 156.5q0 78 30 141.5t88 108t142.5 68.5t192.5 24q99 0 188 -13t164 -30
v-279h-65l-35 164q-44 32 -108 53t-144 21q-74 0 -127.5 -16t-88.5 -43.5t-52 -65t-17 -80.5q0 -65 30.5 -108t80 -73.5t113 -52.5t130 -45.5t130 -53t113 -75t80 -111t30.5 -161.5q0 -93 -28.5 -168t-86 -128.5t-144 -82t-203.5 -28.5q-62 0 -122 6t-113 16t-98 23t-78 26
v310z" />
    <glyph glyph-name="T" unicode="T" horiz-adv-x="1251" 
d="M315 0v53l213 27v1175h-51q-131 0 -220 -6t-126 -14l-27 -209h-67v315h1180v-315h-68l-27 209q-18 4 -53.5 7t-82.5 5.5t-102.5 4t-113.5 1.5h-49v-1173l213 -27v-53h-619z" />
    <glyph glyph-name="U" unicode="U" horiz-adv-x="1479" 
d="M1159 1262l-180 26v53h457v-53l-172 -26v-801q0 -92 -23 -178.5t-81 -153.5t-158.5 -108t-254.5 -41q-267 0 -399.5 120.5t-132.5 341.5v820l-172 26v53h536v-53l-172 -26v-805q0 -82 19.5 -149.5t62 -115.5t110 -74t163.5 -26q105 0 180 26t123.5 73t71 114t22.5 148
v809z" />
    <glyph glyph-name="V" unicode="V" horiz-adv-x="1479" 
d="M1456 1341v-53l-147 -26l-539 -1293h-51l-545 1293l-151 26v53h542v-53l-180 -26l406 -987l405 987l-176 26v53h436z" />
    <glyph glyph-name="W" unicode="W" horiz-adv-x="1933" 
d="M1812 1262l-438 -1293h-53l-348 924l-357 -924h-53l-444 1293l-117 26v53h512v-53l-197 -26l319 -945l361 930h45l348 -930l304 945l-209 26v53h444v-53z" />
    <glyph glyph-name="X" unicode="X" horiz-adv-x="1479" 
d="M317 80l166 -27v-53h-438v53l148 27l456 606l-389 576l-151 26v53h553v-53l-170 -26l278 -414l311 414l-166 26v53h439v-53l-148 -26l-377 -502l461 -680l152 -27v-53h-553v53l170 27l-352 520z" />
    <glyph glyph-name="Y" unicode="Y" horiz-adv-x="1479" 
d="M838 528v-448l213 -27v-53h-619v53l213 27v442l-471 740l-151 26v53h567v-53l-180 -26l385 -619l366 619l-170 26v53h436v-53l-147 -26z" />
    <glyph glyph-name="Z" unicode="Z" horiz-adv-x="1251" 
d="M98 94l752 1161h-250q-131 0 -217 -6t-123 -14l-31 -211h-69v317h913v-86l-757 -1171h290q65 0 129.5 3.5t119.5 9t96 11t59 9.5l59 256h70l-27 -373h-1014v94z" />
    <glyph glyph-name="bracketleft" unicode="[" horiz-adv-x="682" 
d="M152 -274v1695h456v-47l-297 -41v-1519l297 -41v-47h-456z" />
    <glyph glyph-name="backslash" unicode="\" horiz-adv-x="569" 
d="M0 1350h98l471 -1370h-100z" />
    <glyph glyph-name="bracketright" unicode="]" horiz-adv-x="682" 
d="M74 -274v47l297 41v1519l-297 41v47h456v-1695h-456z" />
    <glyph glyph-name="asciicircum" unicode="^" horiz-adv-x="961" 
d="M457 1341h49l428 -952h-103l-350 809l-350 -809h-102z" />
    <glyph glyph-name="underscore" unicode="_" 
d="M-16 -264v102h1056v-102h-1056z" />
    <glyph glyph-name="grave" unicode="`" horiz-adv-x="682" 
d="M473 1119l-354 268v37h213l196 -272v-33h-55z" />
    <glyph glyph-name="a" unicode="a" horiz-adv-x="909" 
d="M465 961q64 0 119 -12t95 -41t62.5 -78.5t22.5 -124.5v-635l117 -25v-45h-258l-19 94q-15 -15 -40.5 -35t-61.5 -37.5t-83.5 -29.5t-105.5 -12q-68 0 -114.5 21t-74.5 58.5t-40 89t-12 111.5q0 62 15 107.5t42 76.5t63.5 50.5t79 30.5t90 15t95.5 5l141 4v147
q0 42 -7 76.5t-23.5 59.5t-44.5 39t-70 14q-48 0 -97 -13t-86 -34l-34 -117h-56v205q65 14 134.5 24.5t150.5 10.5zM598 479l-131 -4q-59 -2 -102 -11.5t-71 -32.5t-42 -63t-14 -102q0 -176 143 -176q68 0 117.5 15.5t99.5 39.5v334z" />
    <glyph glyph-name="b" unicode="b" 
d="M766 496q0 102 -18.5 171.5t-53 112.5t-83 61.5t-107.5 18.5q-24 0 -51.5 -2t-54.5 -6.5t-52 -10.5t-43 -14v-745q42 -8 96 -12t105 -4q138 0 200 108t62 322zM137 1352l-137 24v45h303v-336q0 -19 -0.5 -43.5t-1 -51t-2 -53t-2.5 -50.5q45 35 109.5 56.5t142.5 21.5
q192 0 294.5 -116.5t102.5 -352.5q0 -119 -26 -214.5t-80 -162.5t-136.5 -103t-195.5 -36q-48 0 -97.5 5.5t-97.5 14.5t-93 21.5t-83 27.5v1303z" />
    <glyph glyph-name="c" unicode="c" horiz-adv-x="909" 
d="M846 57q-26 -19 -62 -33.5t-77 -24t-85.5 -14.5t-86.5 -5q-122 0 -208.5 33.5t-141.5 97.5t-81 156.5t-26 209.5q0 128 33.5 220.5t93.5 152t142.5 87.5t180.5 28q81 0 157 -9.5t138 -21.5v-262h-55l-43 166q-37 21 -89.5 34t-109.5 13q-65 0 -114.5 -23.5t-84 -73.5
t-52 -127t-17.5 -184q0 -90 15 -162.5t53 -123.5t102.5 -79t163.5 -28q34 0 69.5 2.5t69 7t63 10.5t52.5 13v-60z" />
    <glyph glyph-name="d" unicode="d" 
d="M723 70q-44 -35 -109.5 -62.5t-154.5 -27.5q-385 0 -385 481q0 117 25.5 210.5t78.5 159t134 100t192 34.5q51 0 108.5 -6t110.5 -17q-2 11 -3 32.5t-1.5 46t-1 48.5t-0.5 39v244l-158 24v45h324v-1351l116 -25v-45h-264zM254 461q0 -105 18.5 -177t52.5 -116.5t82 -64
t107 -19.5q60 0 113 11.5t90 27.5v743q-42 8 -97 12.5t-106 4.5q-133 0 -196.5 -107t-63.5 -315z" />
    <glyph glyph-name="e" unicode="e" horiz-adv-x="909" 
d="M260 473v-18q0 -73 10.5 -140t42 -118.5t88.5 -82t150 -30.5q30 0 63 2.5t66 6.5t64 9t57 11v-56q-23 -15 -55.5 -28.5t-71.5 -24.5t-83 -17.5t-89 -6.5q-117 0 -197.5 32t-130.5 95t-72 156t-22 214q0 246 103 367t294 121q75 0 140.5 -20t114.5 -67t77.5 -126
t28.5 -197v-82h-578zM477 885q-56 0 -96.5 -23.5t-67 -66.5t-39 -104.5t-12.5 -137.5h402q0 76 -8.5 137.5t-30 104.5t-57.5 66.5t-91 23.5z" />
    <glyph glyph-name="f" unicode="f" horiz-adv-x="682" 
d="M225 856h-162v49l162 39v66q0 106 21.5 186.5t62 135t99 82.5t131.5 28q45 0 80 -5.5t63 -13.5v-205h-49l-45 123q-16 10 -35 15.5t-47 5.5q-35 0 -57 -15.5t-35 -48t-18 -82.5t-5 -120v-156h250v-84h-250v-778l203 -33v-45h-508v45l139 33v778z" />
    <glyph glyph-name="g" unicode="g" 
d="M870 643q0 -162 -97 -245t-279 -83q-41 0 -82.5 4.5t-69.5 10.5l-63 -131q3 -17 39 -32t90 -15h278q152 0 225.5 -66t73.5 -182q0 -65 -26.5 -127.5t-86 -111t-155.5 -78t-236 -29.5q-107 0 -182 17.5t-122 48.5t-68 72t-21 89q0 33 12.5 62.5t35 57t53.5 53.5t67 52
q-18 6 -41.5 19.5t-44.5 34.5t-35 48.5t-14 61.5l158 178q-158 74 -158 291q0 79 26 139.5t74.5 101t119.5 61t161 20.5q28 0 57 -3t54.5 -6.5t44.5 -8t28 -7.5l221 111l35 -43l-139 -144q34 -38 50.5 -95.5t16.5 -125.5zM829 -127q0 57 -35 89t-106 32h-364
q-21 -18 -38.5 -41.5t-30 -49.5t-19.5 -52.5t-7 -51.5q0 -36 11.5 -65.5t40 -50.5t77.5 -33t123 -12q90 0 155.5 17.5t108.5 49t63.5 74.5t20.5 94zM496 391q109 0 154.5 62.5t45.5 189.5q0 63 -10.5 109.5t-34 76.5t-61.5 45t-92 15q-55 0 -93.5 -15t-63 -45t-35.5 -76.5
t-11 -109.5t11 -110.5t35 -79t62 -47t93 -15.5z" />
    <glyph glyph-name="h" unicode="h" 
d="M326 1014q0 -14 -0.5 -34t-1 -41.5t-2 -41.5t-3.5 -33q28 16 68 34t83.5 33t87 24.5t79.5 9.5q54 0 99 -15t77.5 -48t51 -86t18.5 -128v-618l114 -25v-45h-405v45l125 25v606q0 83 -40.5 127.5t-125.5 44.5q-28 0 -59.5 -3t-62.5 -7t-58 -9.5t-45 -9.5v-749l127 -25v-45
h-412v45l119 25v1282l-140 24v45h306v-407z" />
    <glyph glyph-name="i" unicode="i" horiz-adv-x="569" 
d="M379 1247q0 -22 -8.5 -41.5t-23.5 -34.5t-35 -23.5t-42 -8.5t-41.5 8.5t-34.5 23.5t-23.5 34.5t-8.5 41.5t8.5 42t23.5 35t34.5 23.5t41.5 8.5t42 -8.5t35 -23.5t23.5 -35t8.5 -42zM369 70l161 -25v-45h-487v45l160 25v800l-133 25v45h299v-870z" />
    <glyph glyph-name="j" unicode="j" horiz-adv-x="569" 
d="M393 1247q0 -22 -8.5 -41.5t-23.5 -34.5t-34.5 -23.5t-41.5 -8.5q-23 0 -42.5 8.5t-34.5 23.5t-23.5 34.5t-8.5 41.5t8.5 42t23.5 35t34.5 23.5t42.5 8.5q22 0 41.5 -8.5t34.5 -23.5t23.5 -35t8.5 -42zM383 -39q0 -106 -21.5 -181.5t-61 -123.5t-94 -70t-120.5 -22
q-44 0 -76 5t-69 13v199h47l27 -109q33 -28 83 -28q59 0 89 63t30 203v960l-141 25v45h307v-979z" />
    <glyph glyph-name="k" unicode="k" 
d="M344 453l385 415l-98 27v45h332v-45l-117 -23l-268 -274l344 -530l102 -23v-45h-385v45l86 25l-258 405l-123 -135v-270l100 -25v-45h-385v45l119 25v1282l-139 24v45h305v-968z" />
    <glyph glyph-name="l" unicode="l" horiz-adv-x="569" 
d="M367 70l161 -25v-45h-487v45l160 25v1282l-160 24v45h326v-1351z" />
    <glyph glyph-name="m" unicode="m" horiz-adv-x="1593" 
d="M326 864q28 16 66.5 34t79.5 33t83 24.5t78 9.5q69 0 127.5 -26t87.5 -83q32 18 77 37.5t93.5 35.5t96 26t85.5 10q54 0 98 -15t75.5 -48t49 -86t17.5 -128v-618l121 -25v-45h-427v45l140 25v600q0 83 -37.5 127.5t-122.5 44.5q-26 0 -60.5 -4t-69 -9t-66 -11.5
t-52.5 -10.5q17 -54 17 -119v-618l141 -25v-45h-446v45l139 25v600q0 83 -42.5 127.5t-127.5 44.5q-28 0 -58.5 -3t-60 -7t-56 -9.5t-44.5 -9.5v-743l141 -25v-45h-426v45l119 25v800l-119 25v45h275z" />
    <glyph glyph-name="n" unicode="n" 
d="M324 864q28 16 66.5 34t80.5 33t84 24.5t78 9.5q54 0 99 -15t77.5 -48t51 -86t18.5 -128v-618l114 -25v-45h-405v45l125 25v600q0 83 -40.5 130.5t-125.5 47.5q-28 0 -59 -3t-61 -7t-56.5 -9.5t-44.5 -9.5v-749l127 -25v-45h-406v45l113 25v800l-113 25v45h268z" />
    <glyph glyph-name="o" unicode="o" 
d="M946 475q0 -239 -107 -367t-333 -128q-212 0 -320 127t-108 368q0 238 108 364t328 126q214 0 323 -123.5t109 -366.5zM766 475q0 97 -13 173.5t-43.5 129t-80.5 80t-123 27.5q-74 0 -122 -27.5t-76 -80t-39 -129t-11 -173.5q0 -98 11 -175t39 -130.5t76 -82t122 -28.5
q73 0 123 28.5t80.5 82t43.5 130.5t13 175z" />
    <glyph glyph-name="p" unicode="p" 
d="M152 870l-107 25v45h264l2 -55q21 18 49.5 32.5t61.5 25t70 16.5t75 6q88 0 158 -31t119 -92.5t74.5 -152t25.5 -208.5q0 -115 -26 -207.5t-78 -158t-130.5 -100.5t-183.5 -35q-51 0 -107.5 5.5t-107.5 16.5q1 -12 2.5 -27.5t2 -32t1 -30.5t0.5 -23v-254l164 -24v-47
h-448v47l119 24v1235zM764 481q0 102 -17 174t-49.5 117.5t-79.5 66.5t-106 21q-48 0 -102.5 -8.5t-92.5 -24.5v-751q42 -8 93 -12.5t102 -4.5q132 0 192 109.5t60 312.5z" />
    <glyph glyph-name="q" unicode="q" 
d="M813 985h70v-1350l104 -24v-47h-399v47l129 24v261q0 38 2 81.5t8 85.5q-45 -35 -111.5 -59t-156.5 -24q-197 0 -291 125.5t-94 361.5q0 115 26 207.5t78.5 157t133 99t188.5 34.5q51 0 110.5 -6t112.5 -17zM254 467q0 -102 17.5 -174.5t50.5 -119t81.5 -68t110.5 -21.5
q24 0 52 2t55.5 6.5t52.5 10.5t43 14v749q-42 8 -97 12.5t-106 4.5q-132 0 -196 -107t-64 -309z" />
    <glyph glyph-name="r" unicode="r" horiz-adv-x="682" 
d="M664 965v-254h-43l-58 110q-28 0 -60 -4t-64 -10.5t-61.5 -15.5t-51.5 -19v-702l161 -25v-45h-446v45l119 25v800l-119 25v45h274l9 -117q23 19 63 43.5t86.5 46.5t93 37t82.5 15h15z" />
    <glyph glyph-name="s" unicode="s" horiz-adv-x="797" 
d="M723 264q0 -63 -19.5 -115.5t-61.5 -90t-108.5 -58t-160.5 -20.5q-47 0 -92.5 5.5t-84.5 13t-68 15.5t-42 13v231h45l49 -131q31 -28 80 -48t115 -20q93 0 143.5 40.5t50.5 125.5q0 50 -21 82.5t-55 54.5t-77.5 36.5t-89 29.5t-89 34t-77.5 49t-55 75t-21 112
q0 64 23 114t64.5 84t99 51.5t126.5 17.5q68 0 133 -9.5t125 -21.5v-205h-47l-42 109q-26 23 -71 35t-96 12q-81 0 -123.5 -40t-42.5 -108q0 -46 21 -75.5t55.5 -50t78.5 -35.5t90 -31t90 -36.5t78.5 -52.5t55.5 -78t21 -114z" />
    <glyph glyph-name="t" unicode="t" horiz-adv-x="569" 
d="M334 -20q-96 0 -143.5 57t-47.5 160v659h-123v45l125 39l101 213h63v-213h215v-84h-215v-641q0 -65 29.5 -98t77.5 -33q37 0 73.5 5t67.5 11v-65q-15 -10 -39.5 -20t-54 -17.5t-62.5 -12.5t-67 -5z" />
    <glyph glyph-name="u" unicode="u" 
d="M313 268q0 -83 37.5 -127.5t122.5 -44.5q56 0 116 7.5t116 23.5v743l-142 25v45h307v-870l119 -25v-45h-274l-8 76q-29 -16 -69 -33t-83.5 -31t-87.5 -23t-80 -9q-54 0 -98 15t-75.5 48t-49 85.5t-17.5 127.5v614l-120 25v45h286v-672z" />
    <glyph glyph-name="v" unicode="v" 
d="M934 874l-377 -894h-74l-387 890l-96 25v45h438v-45l-149 -27l274 -649l262 651l-149 25v45h348v-45z" />
    <glyph glyph-name="w" unicode="w" horiz-adv-x="1479" 
d="M1366 874l-315 -894h-78l-232 620l-229 -620h-74l-325 890l-111 25v45h447v-45l-156 -27l223 -635l227 613h84l226 -617l213 641l-154 25v45h358v-45z" />
    <glyph glyph-name="x" unicode="x" 
d="M889 66l110 -21v-45h-426v45l125 23l-217 333l-254 -335l129 -21v-45h-338v45l109 16l309 408l-272 401l-111 25v45h426v-45l-125 -27l181 -270l208 272l-129 25v45h338v-45l-108 -21l-264 -342z" />
    <glyph glyph-name="y" unicode="y" 
d="M918 874l-367 -933q-32 -81 -65 -151t-73.5 -121.5t-92.5 -81t-121 -29.5q-26 0 -45.5 1t-36.5 3.5t-34 5.5t-38 8v203h47l33 -96q31 -23 86 -23q43 0 78 19t64.5 53.5t53.5 81.5t46 104l26 72l-358 880l-96 25v45h436v-45l-148 -27l254 -657l246 659l-147 25v45h350v-45
z" />
    <glyph glyph-name="z" unicode="z" horiz-adv-x="909" 
d="M55 0v45l516 815h-221q-28 0 -55.5 -2.5t-52 -7t-43.5 -11t-29 -14.5l-31 -135h-47v250h694v-49l-516 -811h275q27 0 57.5 3.5t59 9.5t53 14.5t39.5 19.5l51 197h47l-25 -324h-772z" />
    <glyph glyph-name="braceleft" unicode="{" horiz-adv-x="983" 
d="M662 -274q-65 0 -114 20.5t-81.5 59t-49 92.5t-16.5 122v295q0 63 -14.5 107t-42 72.5t-67.5 42.5t-91 16v45q51 1 91 15t67.5 42.5t42 72.5t14.5 106v294q0 141 65 217t196 76h135v-47h-62q-91 0 -129.5 -54.5t-38.5 -160.5v-330q0 -50 -14.5 -92t-40 -74.5t-61 -54
t-76.5 -30.5v-3q43 -10 78 -31.5t60.5 -54t39.5 -74.5t14 -93v-334q0 -106 38.5 -160.5t129.5 -54.5h62v-47h-135z" />
    <glyph glyph-name="bar" unicode="|" horiz-adv-x="410" 
d="M154 -442v1863h102v-1863h-102z" />
    <glyph glyph-name="braceright" unicode="}" horiz-adv-x="983" 
d="M186 -274v47h62q91 0 129.5 54.5t38.5 160.5v334q0 51 14 93t39.5 74.5t60.5 54t78 31.5v3q-41 9 -76.5 30.5t-61 54t-40 74.5t-14.5 92v330q0 106 -38.5 160.5t-129.5 54.5h-62v47h136q130 0 195 -76t65 -217v-294q0 -62 14.5 -106t42.5 -72.5t67.5 -42.5t90.5 -15v-45
q-51 -2 -90.5 -16t-67.5 -42.5t-42.5 -72.5t-14.5 -107v-295q0 -68 -16.5 -122t-49 -92.5t-81.5 -59t-113 -20.5h-136z" />
    <glyph glyph-name="asciitilde" unicode="~" horiz-adv-x="1108" 
d="M780 502q-46 0 -88 18t-81.5 44.5t-76 58t-71.5 58t-69 44.5t-68 18q-41 0 -70 -14.5t-49 -44.5t-31.5 -75.5t-17.5 -106.5h-101q6 61 19.5 122.5t42.5 111t78.5 80t128.5 30.5q48 0 91 -18t82.5 -45t76.5 -58t71.5 -58t67.5 -45t65 -18q40 0 68 16t47.5 47t31 76
t19.5 103h103q-8 -61 -22.5 -122t-44 -110.5t-78 -80.5t-124.5 -31z" />
    <glyph glyph-name="cent" unicode="&#xa2;" 
d="M536 186q-109 7 -186.5 43.5t-127 100.5t-72.5 153t-23 201q0 121 30.5 210t84.5 148.5t129 90.5t165 36v172h82v-170q70 -3 135 -11t119 -19v-262h-55l-43 165q-31 17 -71 29t-85 17v-799h23q34 0 69.5 2.5t69 7t63 10.5t52.5 13v-60q-23 -18 -55 -31t-68.5 -23
t-75.5 -15.5t-78 -8.5v-186h-82v186zM307 684q0 -77 10.5 -141t36.5 -113.5t70 -82t112 -46.5v789q-110 -14 -169.5 -112t-59.5 -294z" />
    <glyph glyph-name="sterling" unicode="&#xa3;" 
d="M961 154v-154h-838v117q34 31 71.5 63.5t69.5 70t53 81.5t21 98q0 47 -16.5 96t-38.5 103h-162v82h127q-28 65 -47.5 137.5t-19.5 157.5q0 168 104.5 259t312.5 91q43 0 80 -3.5t72 -9t69 -13.5t72 -17v-258h-65l-35 164q-35 20 -84 36.5t-109 16.5q-115 0 -172 -67.5
t-57 -198.5q0 -95 9 -165t20 -130h278v-82h-262q6 -41 11 -82.5t5 -87.5q0 -54 -12 -97.5t-33.5 -80t-50.5 -67.5t-63 -60h690z" />
    <glyph glyph-name="yen" unicode="&#xa5;" 
d="M885 393v-82h-279v-231l172 -27v-53h-536v53l172 27v231h-279v82h279v129l-15 35h-264v82h230l-263 623l-100 26v53h453v-53l-131 -26l239 -619l246 619l-123 26v53h336v-53l-104 -26l-265 -623h232v-82h-267l-12 -29v-135h279z" />
    <glyph glyph-name="brokenbar" unicode="&#xa6;" horiz-adv-x="410" 
d="M154 801v620h102v-620h-102zM154 -442v622h102v-622h-102z" />
    <glyph glyph-name="section" unicode="&#xa7;" 
d="M842 29q0 -63 -21 -115.5t-65 -90t-112.5 -58.5t-162.5 -21q-47 0 -94.5 5.5t-88 13.5t-71 15.5t-43.5 12.5v232h45l39 -132q15 -14 38.5 -26t51.5 -21t60 -14.5t65 -5.5q46 0 84 10t65 30.5t41.5 52t14.5 73.5q0 50 -22.5 88t-59.5 68t-84.5 56t-96.5 52.5t-96.5 56
t-84.5 68t-59.5 88t-22.5 115.5q0 51 18.5 93.5t50.5 75t75 55t93 32.5q-41 21 -78.5 47.5t-66 61t-45 78t-16.5 97.5q0 64 23 114t64.5 84t99 51.5t126.5 17.5q68 0 131.5 -7t126.5 -18v-211h-47l-33 109q-13 11 -33 20t-43 15t-49 9t-51 3q-82 0 -124 -40t-42 -108
q0 -47 23 -81t60 -60.5t84.5 -49t97.5 -45.5t97.5 -49.5t84.5 -62t60 -81.5t23 -109q0 -56 -19 -102.5t-53.5 -82.5t-82 -60t-103.5 -36q45 -26 86 -55t72.5 -66.5t50.5 -84.5t19 -107zM719 580q0 40 -17.5 70t-47 54.5t-68 44.5t-80.5 39q-39 -2 -74.5 -14.5t-62.5 -35
t-42.5 -53t-15.5 -67.5q0 -45 17 -77t46.5 -57t67.5 -46.5t80 -44.5q40 5 76 19t63 37.5t42.5 56t15.5 74.5z" />
    <glyph glyph-name="copyright" unicode="&#xa9;" horiz-adv-x="1556" 
d="M88 670q0 96 24.5 184.5t69.5 165.5t107.5 140t139.5 108t165 69.5t184 24.5t184.5 -24.5t165.5 -69.5t140 -108t108 -140t69.5 -165.5t24.5 -184.5t-24.5 -184t-69.5 -165t-108 -139.5t-140 -107.5t-165.5 -69.5t-184.5 -24.5q-144 0 -269.5 54t-219 147.5t-147.5 219
t-54 269.5zM158 670q0 -129 48.5 -242t132.5 -197.5t197 -133t242 -48.5t242.5 48.5t198 133t133.5 197.5t49 242q0 86 -22.5 165.5t-63 148.5t-97 126t-126 97.5t-149 62.5t-165.5 22q-129 0 -242 -49t-197 -133t-132.5 -197.5t-48.5 -242.5zM795 258q-99 0 -176.5 28
t-131 80.5t-81 127.5t-27.5 170q0 108 28 187.5t81 131t131 77t178 25.5q81 0 146.5 -9.5t121.5 -20.5l4 -187h-49l-19 105q-42 26 -92.5 38.5t-107.5 12.5q-66 0 -117 -17t-86.5 -58.5t-53.5 -110.5t-18 -172q0 -183 70 -266t199 -83q75 0 129.5 17.5t85.5 42.5l22 119h49
l-4 -199q-51 -16 -126.5 -27.5t-155.5 -11.5z" />
    <glyph glyph-name="guillemotleft" unicode="&#xab;" 
d="M117 496l334 356h81l-227 -389l227 -389h-81l-334 356v66zM526 496l335 356h81l-228 -389l228 -389h-81l-335 356v66z" />
    <glyph glyph-name="registered" unicode="&#xae;" horiz-adv-x="1556" 
d="M88 670q0 96 24.5 184.5t69.5 165.5t107.5 140t139.5 108t165 69.5t184 24.5t184.5 -24.5t165.5 -69.5t140 -108t108 -140t69.5 -165.5t24.5 -184.5t-24.5 -184t-69.5 -165t-108 -139.5t-140 -107.5t-165.5 -69.5t-184.5 -24.5q-144 0 -269.5 54t-219 147.5t-147.5 219
t-54 269.5zM158 670q0 -129 48.5 -242t132.5 -197.5t197 -133t242 -48.5t242.5 48.5t198 133t133.5 197.5t49 242q0 86 -22.5 165.5t-63 148.5t-97 126t-126 97.5t-149 62.5t-165.5 22q-129 0 -242 -49t-197 -133t-132.5 -197.5t-48.5 -242.5zM668 625v-289l114 -17v-43
h-346v43l96 17v688l-104 16v41h330q84 0 143.5 -16t97.5 -45.5t56 -70t18 -89.5q0 -77 -45 -133t-133 -84l213 -307l84 -17v-43h-205l-229 349h-90zM932 858q0 48 -11.5 79t-35.5 49.5t-62 26t-92 7.5h-63v-332h67q55 0 93 9.5t61 29.5t33 52.5t10 78.5z" />
    <glyph glyph-name="guillemotright" unicode="&#xbb;" 
d="M907 430l-334 -356h-81l227 389l-227 389h81l334 -356v-66zM498 430l-335 -356h-81l228 389l-228 389h81l335 -356v-66z" />
    <glyph glyph-name="onequarter" unicode="&#xbc;" horiz-adv-x="1536" 
d="M336 0h-102l964 1341h100zM375 598l166 -14v-49h-475v49l165 14v625l-161 -58v47l233 134h72v-748zM1293 160v-159h-137v159h-361v97l391 550h107v-544h101v-103h-101zM1156 652h-2l-277 -389h279v389z" />
    <glyph glyph-name="onehalf" unicode="&#xbd;" horiz-adv-x="1536" 
d="M336 0h-102l964 1341h100zM375 598l166 -14v-49h-475v49l165 14v625l-161 -58v47l233 134h72v-748zM1458 1h-499v96q61 56 109.5 100t86.5 82t65 72.5t44.5 72t26 81.5t8.5 100q0 74 -33.5 108.5t-98.5 34.5q-35 0 -64 -10t-50 -23l-21 -98h-55v172q45 11 92 19t98 8
q134 0 204.5 -55.5t70.5 -155.5q0 -75 -24 -131t-71.5 -109.5t-116.5 -113.5t-159 -142h387v-108z" />
    <glyph glyph-name="threequarters" unicode="&#xbe;" horiz-adv-x="1536" 
d="M336 0h-102l964 1341h100zM606 754q0 -55 -23 -98t-64.5 -73t-98.5 -45.5t-125 -15.5q-59 0 -114.5 8t-100.5 19l-6 186h55l27 -112q22 -13 58 -23t73 -10q55 0 89.5 11t53.5 33t26 53.5t7 72.5q0 47 -12 77t-33.5 47t-51 24.5t-65.5 9.5l-86 6v65l86 4q68 3 96.5 37.5
t28.5 112.5q0 39 -7 65.5t-23 43t-42.5 23.5t-66.5 7q-32 0 -61.5 -8t-51.5 -21l-20 -102h-55v172q41 10 84.5 18.5t103.5 8.5q63 0 115 -12.5t89.5 -37t58 -62t20.5 -87.5q0 -75 -49 -128t-140 -67q110 -12 167.5 -62.5t57.5 -139.5zM1264 160v-159h-137v159h-361v97
l391 550h107v-544h101v-103h-101zM1127 652h-2l-277 -389h279v389z" />
    <glyph glyph-name="Agrave" unicode="&#xc0;" horiz-adv-x="1479" 
d="M461 53v-53h-441v53l152 27l457 1272h190l475 -1272l170 -27v-53h-567v53l180 27l-133 387h-528l-135 -387zM676 1208l-230 -651h467zM797 1453l-354 268v37h213l196 -272v-33h-55z" />
    <glyph glyph-name="Aacute" unicode="&#xc1;" horiz-adv-x="1479" 
d="M461 53v-53h-441v53l152 27l457 1272h190l475 -1272l170 -27v-53h-567v53l180 27l-133 387h-528l-135 -387zM676 1208l-230 -651h467zM611 1453v33l196 272h213v-37l-354 -268h-55z" />
    <glyph glyph-name="Acircumflex" unicode="&#xc2;" horiz-adv-x="1479" 
d="M461 53v-53h-441v53l152 27l457 1272h190l475 -1272l170 -27v-53h-567v53l180 27l-133 387h-528l-135 -387zM676 1208l-230 -651h467zM395 1453v33l218 273h213l217 -273v-33h-56l-268 183l-268 -183h-56z" />
    <glyph glyph-name="Adieresis" unicode="&#xc4;" horiz-adv-x="1479" 
d="M461 53v-53h-441v53l152 27l457 1272h190l475 -1272l170 -27v-53h-567v53l180 27l-133 387h-528l-135 -387zM676 1208l-230 -651h467zM1003 1559q0 -42 -28 -71.5t-70 -29.5q-21 0 -39 8t-31.5 22t-21.5 32t-8 39q0 42 29 71t71 29t70 -29t28 -71zM647 1559
q0 -42 -28 -71.5t-70 -29.5q-21 0 -39 8t-32 22t-22 32t-8 39t8 39t22 31.5t32 21.5t39 8q42 0 70 -29t28 -71z" />
    <glyph glyph-name="Ccedilla" unicode="&#xc7;" horiz-adv-x="1366" 
d="M774 -20q-164 0 -292.5 46t-217 133t-134.5 212.5t-46 283.5q0 180 46.5 312t135 218.5t217.5 128.5t295 42q69 0 130 -4.5t116.5 -11.5t105.5 -16t97 -19l6 -293h-66l-30 174q-70 43 -162.5 66.5t-188.5 23.5q-117 0 -208.5 -32t-154.5 -104.5t-96.5 -191t-33.5 -291.5
q0 -152 33 -264.5t95 -187t151.5 -111.5t203.5 -37q62 0 118.5 8t105 22t87 32.5t64.5 38.5l37 200h65l-6 -315q-42 -12 -96 -23.5t-115 -20.5t-128 -14t-134 -5zM957 -234q0 -46 -18 -83t-51 -63.5t-78.5 -41t-99.5 -14.5q-32 0 -69.5 5.5t-68.5 16.5v74q9 -3 23.5 -6
t31 -5t34 -3.5t31.5 -1.5q60 0 87 29.5t27 74.5q0 32 -15 53.5t-37.5 35t-49 20t-50.5 8.5l41 153h86l-18 -82q91 -9 142.5 -53t51.5 -117z" />
    <glyph glyph-name="Egrave" unicode="&#xc8;" horiz-adv-x="1251" 
d="M59 53l172 27v1182l-172 26v53h1006v-321h-66l-32 217q-32 4 -77.5 7t-92.5 4.5t-89 2t-65 0.5h-219v-524h362l31 160h64v-412h-64l-31 162h-362v-547h264q62 0 117 1.5t99 3.5t75.5 5t46.5 6l57 248h66l-19 -354h-1071v53zM758 1453l-354 268v37h213l196 -272v-33h-55z
" />
    <glyph glyph-name="Eacute" unicode="&#xc9;" horiz-adv-x="1251" 
d="M59 53l172 27v1182l-172 26v53h1006v-321h-66l-32 217q-32 4 -77.5 7t-92.5 4.5t-89 2t-65 0.5h-219v-524h362l31 160h64v-412h-64l-31 162h-362v-547h264q62 0 117 1.5t99 3.5t75.5 5t46.5 6l57 248h66l-19 -354h-1071v53zM470 1453v33l196 272h213v-37l-354 -268h-55z
" />
    <glyph glyph-name="Ecircumflex" unicode="&#xca;" horiz-adv-x="1251" 
d="M59 53l172 27v1182l-172 26v53h1006v-321h-66l-32 217q-32 4 -77.5 7t-92.5 4.5t-89 2t-65 0.5h-219v-524h362l31 160h64v-412h-64l-31 162h-362v-547h264q62 0 117 1.5t99 3.5t75.5 5t46.5 6l57 248h66l-19 -354h-1071v53zM303 1453v33l218 273h213l217 -273v-33h-56
l-268 183l-268 -183h-56z" />
    <glyph glyph-name="Edieresis" unicode="&#xcb;" horiz-adv-x="1251" 
d="M59 53l172 27v1182l-172 26v53h1006v-321h-66l-32 217q-32 4 -77.5 7t-92.5 4.5t-89 2t-65 0.5h-219v-524h362l31 160h64v-412h-64l-31 162h-362v-547h264q62 0 117 1.5t99 3.5t75.5 5t46.5 6l57 248h66l-19 -354h-1071v53zM913 1559q0 -42 -28 -71.5t-70 -29.5
q-21 0 -39 8t-31.5 22t-21.5 32t-8 39q0 42 29 71t71 29t70 -29t28 -71zM557 1559q0 -42 -28 -71.5t-70 -29.5q-21 0 -39 8t-32 22t-22 32t-8 39t8 39t22 31.5t32 21.5t39 8q42 0 70 -29t28 -71z" />
    <glyph glyph-name="Igrave" unicode="&#xcc;" horiz-adv-x="682" 
d="M438 80l172 -27v-53h-536v53l172 27v1182l-172 26v53h536v-53l-172 -26v-1182zM408 1453l-354 268v37h213l196 -272v-33h-55z" />
    <glyph glyph-name="Iacute" unicode="&#xcd;" horiz-adv-x="682" 
d="M438 80l172 -27v-53h-536v53l172 27v1182l-172 26v53h536v-53l-172 -26v-1182zM209 1453v33l196 272h213v-37l-354 -268h-55z" />
    <glyph glyph-name="Icircumflex" unicode="&#xce;" horiz-adv-x="682" 
d="M438 80l172 -27v-53h-536v53l172 27v1182l-172 26v53h536v-53l-172 -26v-1182zM18 1453v33l218 273h213l217 -273v-33h-56l-268 183l-268 -183h-56z" />
    <glyph glyph-name="Idieresis" unicode="&#xcf;" horiz-adv-x="682" 
d="M438 80l172 -27v-53h-536v53l172 27v1182l-172 26v53h536v-53l-172 -26v-1182zM618 1559q0 -42 -28 -71.5t-70 -29.5q-21 0 -39 8t-31.5 22t-21.5 32t-8 39q0 42 29 71t71 29t70 -29t28 -71zM262 1559q0 -42 -28 -71.5t-70 -29.5q-21 0 -39 8t-32 22t-22 32t-8 39t8 39
t22 31.5t32 21.5t39 8q42 0 70 -29t28 -71z" />
    <glyph glyph-name="Ntilde" unicode="&#xd1;" horiz-adv-x="1479" 
d="M1155 1262l-180 26v53h457v-53l-172 -26v-1262h-97l-827 1206v-1126l180 -27v-53h-457v53l172 27v1182l-172 26v53h406l690 -993v914zM879 1452q-48 0 -88.5 21.5t-76.5 48t-69.5 48t-66.5 21.5q-31 0 -49 -10.5t-28.5 -28t-15 -38.5t-7.5 -42h-52q3 47 13.5 90.5
t33 77.5t58.5 54t90 20q48 0 88.5 -21.5t77 -48t70 -48t65.5 -21.5q30 0 48 10.5t28.5 27.5t15.5 38t8 42h52q-3 -47 -13.5 -90t-33 -77t-58.5 -54t-90 -20z" />
    <glyph glyph-name="Ograve" unicode="&#xd2;" horiz-adv-x="1479" 
d="M293 672q0 -140 21 -253t72 -193t137 -123.5t216 -43.5t216 43.5t137.5 123.5t72.5 193t21 253q0 139 -21 251t-72.5 190.5t-137.5 120.5t-216 42t-216 -42t-137 -120.5t-72 -190.5t-21 -251zM84 672q0 178 43.5 307t126.5 213t205 124t280 40q153 0 274.5 -40
t206.5 -124t130 -213t45 -307t-45 -308.5t-130 -215.5t-206.5 -126.5t-274.5 -41.5t-274 41.5t-206 126.5t-130 215.5t-45 308.5zM840 1453l-354 268v37h213l196 -272v-33h-55z" />
    <glyph glyph-name="Oacute" unicode="&#xd3;" horiz-adv-x="1479" 
d="M293 672q0 -140 21 -253t72 -193t137 -123.5t216 -43.5t216 43.5t137.5 123.5t72.5 193t21 253q0 139 -21 251t-72.5 190.5t-137.5 120.5t-216 42t-216 -42t-137 -120.5t-72 -190.5t-21 -251zM84 672q0 178 43.5 307t126.5 213t205 124t280 40q153 0 274.5 -40
t206.5 -124t130 -213t45 -307t-45 -308.5t-130 -215.5t-206.5 -126.5t-274.5 -41.5t-274 41.5t-206 126.5t-130 215.5t-45 308.5zM627 1453v33l196 272h213v-37l-354 -268h-55z" />
    <glyph glyph-name="Ocircumflex" unicode="&#xd4;" horiz-adv-x="1479" 
d="M293 672q0 -140 21 -253t72 -193t137 -123.5t216 -43.5t216 43.5t137.5 123.5t72.5 193t21 253q0 139 -21 251t-72.5 190.5t-137.5 120.5t-216 42t-216 -42t-137 -120.5t-72 -190.5t-21 -251zM84 672q0 178 43.5 307t126.5 213t205 124t280 40q153 0 274.5 -40
t206.5 -124t130 -213t45 -307t-45 -308.5t-130 -215.5t-206.5 -126.5t-274.5 -41.5t-274 41.5t-206 126.5t-130 215.5t-45 308.5zM417 1453v33l218 273h213l217 -273v-33h-56l-268 183l-268 -183h-56z" />
    <glyph glyph-name="Odieresis" unicode="&#xd6;" horiz-adv-x="1479" 
d="M293 672q0 -140 21 -253t72 -193t137 -123.5t216 -43.5t216 43.5t137.5 123.5t72.5 193t21 253q0 139 -21 251t-72.5 190.5t-137.5 120.5t-216 42t-216 -42t-137 -120.5t-72 -190.5t-21 -251zM84 672q0 178 43.5 307t126.5 213t205 124t280 40q153 0 274.5 -40
t206.5 -124t130 -213t45 -307t-45 -308.5t-130 -215.5t-206.5 -126.5t-274.5 -41.5t-274 41.5t-206 126.5t-130 215.5t-45 308.5zM1013 1559q0 -42 -28 -71.5t-70 -29.5q-21 0 -39 8t-31.5 22t-21.5 32t-8 39q0 42 29 71t71 29t70 -29t28 -71zM657 1559q0 -42 -28 -71.5
t-70 -29.5q-21 0 -39 8t-32 22t-22 32t-8 39t8 39t22 31.5t32 21.5t39 8q42 0 70 -29t28 -71z" />
    <glyph glyph-name="multiply" unicode="&#xd7;" horiz-adv-x="1155" 
d="M578 608l-345 -344l-71 72l344 346l-344 342l74 74l342 -344l346 344l71 -72l-344 -344l344 -346l-71 -72z" />
    <glyph glyph-name="Ugrave" unicode="&#xd9;" horiz-adv-x="1479" 
d="M1159 1262l-180 26v53h457v-53l-172 -26v-801q0 -92 -23 -178.5t-81 -153.5t-158.5 -108t-254.5 -41q-267 0 -399.5 120.5t-132.5 341.5v820l-172 26v53h536v-53l-172 -26v-805q0 -82 19.5 -149.5t62 -115.5t110 -74t163.5 -26q105 0 180 26t123.5 73t71 114t22.5 148
v809zM844 1453l-354 268v37h213l196 -272v-33h-55z" />
    <glyph glyph-name="Uacute" unicode="&#xda;" horiz-adv-x="1479" 
d="M1159 1262l-180 26v53h457v-53l-172 -26v-801q0 -92 -23 -178.5t-81 -153.5t-158.5 -108t-254.5 -41q-267 0 -399.5 120.5t-132.5 341.5v820l-172 26v53h536v-53l-172 -26v-805q0 -82 19.5 -149.5t62 -115.5t110 -74t163.5 -26q105 0 180 26t123.5 73t71 114t22.5 148
v809zM652 1453v33l196 272h213v-37l-354 -268h-55z" />
    <glyph glyph-name="Ucircumflex" unicode="&#xdb;" horiz-adv-x="1479" 
d="M1159 1262l-180 26v53h457v-53l-172 -26v-801q0 -92 -23 -178.5t-81 -153.5t-158.5 -108t-254.5 -41q-267 0 -399.5 120.5t-132.5 341.5v820l-172 26v53h536v-53l-172 -26v-805q0 -82 19.5 -149.5t62 -115.5t110 -74t163.5 -26q105 0 180 26t123.5 73t71 114t22.5 148
v809zM444 1453v33l218 273h213l217 -273v-33h-56l-268 183l-268 -183h-56z" />
    <glyph glyph-name="Udieresis" unicode="&#xdc;" horiz-adv-x="1479" 
d="M1159 1262l-180 26v53h457v-53l-172 -26v-801q0 -92 -23 -178.5t-81 -153.5t-158.5 -108t-254.5 -41q-267 0 -399.5 120.5t-132.5 341.5v820l-172 26v53h536v-53l-172 -26v-805q0 -82 19.5 -149.5t62 -115.5t110 -74t163.5 -26q105 0 180 26t123.5 73t71 114t22.5 148
v809zM1017 1559q0 -42 -28 -71.5t-70 -29.5q-21 0 -39 8t-31.5 22t-21.5 32t-8 39q0 42 29 71t71 29t70 -29t28 -71zM661 1559q0 -42 -28 -71.5t-70 -29.5q-21 0 -39 8t-32 22t-22 32t-8 39t8 39t22 31.5t32 21.5t39 8q42 0 70 -29t28 -71z" />
    <glyph glyph-name="Yacute" unicode="&#xdd;" horiz-adv-x="1479" 
d="M838 528v-448l213 -27v-53h-619v53l213 27v442l-471 740l-151 26v53h567v-53l-180 -26l385 -619l366 619l-170 26v53h436v-53l-147 -26zM641 1453v33l196 272h213v-37l-354 -268h-55z" />
    <glyph glyph-name="agrave" unicode="&#xe0;" horiz-adv-x="909" 
d="M465 961q64 0 119 -12t95 -41t62.5 -78.5t22.5 -124.5v-635l117 -25v-45h-258l-19 94q-15 -15 -40.5 -35t-61.5 -37.5t-83.5 -29.5t-105.5 -12q-68 0 -114.5 21t-74.5 58.5t-40 89t-12 111.5q0 62 15 107.5t42 76.5t63.5 50.5t79 30.5t90 15t95.5 5l141 4v147
q0 42 -7 76.5t-23.5 59.5t-44.5 39t-70 14q-48 0 -97 -13t-86 -34l-34 -117h-56v205q65 14 134.5 24.5t150.5 10.5zM598 479l-131 -4q-59 -2 -102 -11.5t-71 -32.5t-42 -63t-14 -102q0 -176 143 -176q68 0 117.5 15.5t99.5 39.5v334zM544 1119l-354 268v37h213l196 -272v-33
h-55z" />
    <glyph glyph-name="aacute" unicode="&#xe1;" horiz-adv-x="909" 
d="M465 961q64 0 119 -12t95 -41t62.5 -78.5t22.5 -124.5v-635l117 -25v-45h-258l-19 94q-15 -15 -40.5 -35t-61.5 -37.5t-83.5 -29.5t-105.5 -12q-68 0 -114.5 21t-74.5 58.5t-40 89t-12 111.5q0 62 15 107.5t42 76.5t63.5 50.5t79 30.5t90 15t95.5 5l141 4v147
q0 42 -7 76.5t-23.5 59.5t-44.5 39t-70 14q-48 0 -97 -13t-86 -34l-34 -117h-56v205q65 14 134.5 24.5t150.5 10.5zM598 479l-131 -4q-59 -2 -102 -11.5t-71 -32.5t-42 -63t-14 -102q0 -176 143 -176q68 0 117.5 15.5t99.5 39.5v334zM342 1119v33l196 272h213v-37l-354 -268
h-55z" />
    <glyph glyph-name="acircumflex" unicode="&#xe2;" horiz-adv-x="909" 
d="M465 961q64 0 119 -12t95 -41t62.5 -78.5t22.5 -124.5v-635l117 -25v-45h-258l-19 94q-15 -15 -40.5 -35t-61.5 -37.5t-83.5 -29.5t-105.5 -12q-68 0 -114.5 21t-74.5 58.5t-40 89t-12 111.5q0 62 15 107.5t42 76.5t63.5 50.5t79 30.5t90 15t95.5 5l141 4v147
q0 42 -7 76.5t-23.5 59.5t-44.5 39t-70 14q-48 0 -97 -13t-86 -34l-34 -117h-56v205q65 14 134.5 24.5t150.5 10.5zM598 479l-131 -4q-59 -2 -102 -11.5t-71 -32.5t-42 -63t-14 -102q0 -176 143 -176q68 0 117.5 15.5t99.5 39.5v334zM143 1119v33l218 273h213l217 -273v-33
h-56l-268 183l-268 -183h-56z" />
    <glyph glyph-name="adieresis" unicode="&#xe4;" horiz-adv-x="909" 
d="M465 961q64 0 119 -12t95 -41t62.5 -78.5t22.5 -124.5v-635l117 -25v-45h-258l-19 94q-15 -15 -40.5 -35t-61.5 -37.5t-83.5 -29.5t-105.5 -12q-68 0 -114.5 21t-74.5 58.5t-40 89t-12 111.5q0 62 15 107.5t42 76.5t63.5 50.5t79 30.5t90 15t95.5 5l141 4v147
q0 42 -7 76.5t-23.5 59.5t-44.5 39t-70 14q-48 0 -97 -13t-86 -34l-34 -117h-56v205q65 14 134.5 24.5t150.5 10.5zM598 479l-131 -4q-59 -2 -102 -11.5t-71 -32.5t-42 -63t-14 -102q0 -176 143 -176q68 0 117.5 15.5t99.5 39.5v334zM733 1194q0 -42 -28 -71.5t-70 -29.5
q-21 0 -39 8t-31.5 22t-21.5 32t-8 39q0 42 29 71t71 29t70 -29t28 -71zM377 1194q0 -42 -28 -71.5t-70 -29.5q-21 0 -39 8t-32 22t-22 32t-8 39t8 39t22 31.5t32 21.5t39 8q42 0 70 -29t28 -71z" />
    <glyph glyph-name="ccedilla" unicode="&#xe7;" horiz-adv-x="909" 
d="M846 57q-26 -19 -62 -33.5t-77 -24t-85.5 -14.5t-86.5 -5q-122 0 -208.5 33.5t-141.5 97.5t-81 156.5t-26 209.5q0 128 33.5 220.5t93.5 152t142.5 87.5t180.5 28q81 0 157 -9.5t138 -21.5v-262h-55l-43 166q-37 21 -89.5 34t-109.5 13q-65 0 -114.5 -23.5t-84 -73.5
t-52 -127t-17.5 -184q0 -90 15 -162.5t53 -123.5t102.5 -79t163.5 -28q34 0 69.5 2.5t69 7t63 10.5t52.5 13v-60zM706 -234q0 -46 -18 -83t-51 -63.5t-78.5 -41t-99.5 -14.5q-32 0 -69.5 5.5t-68.5 16.5v74q9 -3 23.5 -6t31 -5t34 -3.5t31.5 -1.5q60 0 87 29.5t27 74.5
q0 32 -15 53.5t-37.5 35t-49 20t-50.5 8.5l41 153h86l-18 -82q91 -9 142.5 -53t51.5 -117z" />
    <glyph glyph-name="egrave" unicode="&#xe8;" horiz-adv-x="909" 
d="M260 473v-18q0 -73 10.5 -140t42 -118.5t88.5 -82t150 -30.5q30 0 63 2.5t66 6.5t64 9t57 11v-56q-23 -15 -55.5 -28.5t-71.5 -24.5t-83 -17.5t-89 -6.5q-117 0 -197.5 32t-130.5 95t-72 156t-22 214q0 246 103 367t294 121q75 0 140.5 -20t114.5 -67t77.5 -126
t28.5 -197v-82h-578zM477 885q-56 0 -96.5 -23.5t-67 -66.5t-39 -104.5t-12.5 -137.5h402q0 76 -8.5 137.5t-30 104.5t-57.5 66.5t-91 23.5zM594 1119l-354 268v37h213l196 -272v-33h-55z" />
    <glyph glyph-name="eacute" unicode="&#xe9;" horiz-adv-x="909" 
d="M260 473v-18q0 -73 10.5 -140t42 -118.5t88.5 -82t150 -30.5q30 0 63 2.5t66 6.5t64 9t57 11v-56q-23 -15 -55.5 -28.5t-71.5 -24.5t-83 -17.5t-89 -6.5q-117 0 -197.5 32t-130.5 95t-72 156t-22 214q0 246 103 367t294 121q75 0 140.5 -20t114.5 -67t77.5 -126
t28.5 -197v-82h-578zM477 885q-56 0 -96.5 -23.5t-67 -66.5t-39 -104.5t-12.5 -137.5h402q0 76 -8.5 137.5t-30 104.5t-57.5 66.5t-91 23.5zM382 1119v33l196 272h213v-37l-354 -268h-55z" />
    <glyph glyph-name="ecircumflex" unicode="&#xea;" horiz-adv-x="909" 
d="M260 473v-18q0 -73 10.5 -140t42 -118.5t88.5 -82t150 -30.5q30 0 63 2.5t66 6.5t64 9t57 11v-56q-23 -15 -55.5 -28.5t-71.5 -24.5t-83 -17.5t-89 -6.5q-117 0 -197.5 32t-130.5 95t-72 156t-22 214q0 246 103 367t294 121q75 0 140.5 -20t114.5 -67t77.5 -126
t28.5 -197v-82h-578zM477 885q-56 0 -96.5 -23.5t-67 -66.5t-39 -104.5t-12.5 -137.5h402q0 76 -8.5 137.5t-30 104.5t-57.5 66.5t-91 23.5zM151 1119v33l218 273h213l217 -273v-33h-56l-268 183l-268 -183h-56z" />
    <glyph glyph-name="edieresis" unicode="&#xeb;" horiz-adv-x="909" 
d="M260 473v-18q0 -73 10.5 -140t42 -118.5t88.5 -82t150 -30.5q30 0 63 2.5t66 6.5t64 9t57 11v-56q-23 -15 -55.5 -28.5t-71.5 -24.5t-83 -17.5t-89 -6.5q-117 0 -197.5 32t-130.5 95t-72 156t-22 214q0 246 103 367t294 121q75 0 140.5 -20t114.5 -67t77.5 -126
t28.5 -197v-82h-578zM477 885q-56 0 -96.5 -23.5t-67 -66.5t-39 -104.5t-12.5 -137.5h402q0 76 -8.5 137.5t-30 104.5t-57.5 66.5t-91 23.5zM743 1194q0 -42 -28 -71.5t-70 -29.5q-21 0 -39 8t-31.5 22t-21.5 32t-8 39q0 42 29 71t71 29t70 -29t28 -71zM387 1194
q0 -42 -28 -71.5t-70 -29.5q-21 0 -39 8t-32 22t-22 32t-8 39t8 39t22 31.5t32 21.5t39 8q42 0 70 -29t28 -71z" />
    <glyph glyph-name="igrave" unicode="&#xec;" horiz-adv-x="569" 
d="M369 70l161 -25v-45h-487v45l160 25v800l-133 25v45h299v-870zM376 1119l-354 268v37h213l196 -272v-33h-55z" />
    <glyph glyph-name="iacute" unicode="&#xed;" horiz-adv-x="569" 
d="M369 70l161 -25v-45h-487v45l160 25v800l-133 25v45h299v-870zM138 1119v33l196 272h213v-37l-354 -268h-55z" />
    <glyph glyph-name="icircumflex" unicode="&#xee;" horiz-adv-x="569" 
d="M369 70l161 -25v-45h-487v45l160 25v800l-133 25v45h299v-870zM-40 1119v33l218 273h213l217 -273v-33h-56l-268 183l-268 -183h-56z" />
    <glyph glyph-name="idieresis" unicode="&#xef;" horiz-adv-x="569" 
d="M369 70l161 -25v-45h-487v45l160 25v800l-133 25v45h299v-870zM549 1194q0 -42 -28 -71.5t-70 -29.5q-21 0 -39 8t-31.5 22t-21.5 32t-8 39q0 42 29 71t71 29t70 -29t28 -71zM193 1194q0 -42 -28 -71.5t-70 -29.5q-21 0 -39 8t-32 22t-22 32t-8 39t8 39t22 31.5t32 21.5
t39 8q42 0 70 -29t28 -71z" />
    <glyph glyph-name="ntilde" unicode="&#xf1;" 
d="M324 864q28 16 66.5 34t80.5 33t84 24.5t78 9.5q54 0 99 -15t77.5 -48t51 -86t18.5 -128v-618l114 -25v-45h-405v45l125 25v600q0 83 -40.5 130.5t-125.5 47.5q-28 0 -59 -3t-61 -7t-56.5 -9.5t-44.5 -9.5v-749l127 -25v-45h-406v45l113 25v800l-113 25v45h268zM645 1118
q-48 0 -88.5 21.5t-76.5 48t-69.5 48t-66.5 21.5q-31 0 -49 -10.5t-28.5 -28t-15 -38.5t-7.5 -42h-52q3 47 13.5 90.5t33 77.5t58.5 54t90 20q48 0 88.5 -21.5t77 -48t70 -48t65.5 -21.5q30 0 48 10.5t28.5 27.5t15.5 38t8 42h52q-3 -47 -13.5 -90t-33 -77t-58.5 -54
t-90 -20z" />
    <glyph glyph-name="ograve" unicode="&#xf2;" 
d="M946 475q0 -239 -107 -367t-333 -128q-212 0 -320 127t-108 368q0 238 108 364t328 126q214 0 323 -123.5t109 -366.5zM766 475q0 97 -13 173.5t-43.5 129t-80.5 80t-123 27.5q-74 0 -122 -27.5t-76 -80t-39 -129t-11 -173.5q0 -98 11 -175t39 -130.5t76 -82t122 -28.5
q73 0 123 28.5t80.5 82t43.5 130.5t13 175zM603 1119l-354 268v37h213l196 -272v-33h-55z" />
    <glyph glyph-name="oacute" unicode="&#xf3;" 
d="M946 475q0 -239 -107 -367t-333 -128q-212 0 -320 127t-108 368q0 238 108 364t328 126q214 0 323 -123.5t109 -366.5zM766 475q0 97 -13 173.5t-43.5 129t-80.5 80t-123 27.5q-74 0 -122 -27.5t-76 -80t-39 -129t-11 -173.5q0 -98 11 -175t39 -130.5t76 -82t122 -28.5
q73 0 123 28.5t80.5 82t43.5 130.5t13 175zM404 1119v33l196 272h213v-37l-354 -268h-55z" />
    <glyph glyph-name="ocircumflex" unicode="&#xf4;" 
d="M946 475q0 -239 -107 -367t-333 -128q-212 0 -320 127t-108 368q0 238 108 364t328 126q214 0 323 -123.5t109 -366.5zM766 475q0 97 -13 173.5t-43.5 129t-80.5 80t-123 27.5q-74 0 -122 -27.5t-76 -80t-39 -129t-11 -173.5q0 -98 11 -175t39 -130.5t76 -82t122 -28.5
q73 0 123 28.5t80.5 82t43.5 130.5t13 175zM187 1119v33l218 273h213l217 -273v-33h-56l-268 183l-268 -183h-56z" />
    <glyph glyph-name="odieresis" unicode="&#xf6;" 
d="M946 475q0 -239 -107 -367t-333 -128q-212 0 -320 127t-108 368q0 238 108 364t328 126q214 0 323 -123.5t109 -366.5zM766 475q0 97 -13 173.5t-43.5 129t-80.5 80t-123 27.5q-74 0 -122 -27.5t-76 -80t-39 -129t-11 -173.5q0 -98 11 -175t39 -130.5t76 -82t122 -28.5
q73 0 123 28.5t80.5 82t43.5 130.5t13 175zM786 1194q0 -42 -28 -71.5t-70 -29.5q-21 0 -39 8t-31.5 22t-21.5 32t-8 39q0 42 29 71t71 29t70 -29t28 -71zM430 1194q0 -42 -28 -71.5t-70 -29.5q-21 0 -39 8t-32 22t-22 32t-8 39t8 39t22 31.5t32 21.5t39 8q42 0 70 -29
t28 -71z" />
    <glyph glyph-name="divide" unicode="&#xf7;" horiz-adv-x="1124" 
d="M657 1063q0 -40 -28 -68t-68 -28q-41 0 -69 28t-28 68t28 68t69 28q40 0 68 -28t28 -68zM657 297q0 -40 -28 -68t-68 -28q-41 0 -69 28t-28 68t28 68t69 28q40 0 68 -28t28 -68zM1038 731v-102h-953v102h953z" />
    <glyph glyph-name="ugrave" unicode="&#xf9;" 
d="M313 268q0 -83 37.5 -127.5t122.5 -44.5q56 0 116 7.5t116 23.5v743l-142 25v45h307v-870l119 -25v-45h-274l-8 76q-29 -16 -69 -33t-83.5 -31t-87.5 -23t-80 -9q-54 0 -98 15t-75.5 48t-49 85.5t-17.5 127.5v614l-120 25v45h286v-672zM559 1119l-354 268v37h213
l196 -272v-33h-55z" />
    <glyph glyph-name="uacute" unicode="&#xfa;" 
d="M313 268q0 -83 37.5 -127.5t122.5 -44.5q56 0 116 7.5t116 23.5v743l-142 25v45h307v-870l119 -25v-45h-274l-8 76q-29 -16 -69 -33t-83.5 -31t-87.5 -23t-80 -9q-54 0 -98 15t-75.5 48t-49 85.5t-17.5 127.5v614l-120 25v45h286v-672zM420 1119v33l196 272h213v-37
l-354 -268h-55z" />
    <glyph glyph-name="ucircumflex" unicode="&#xfb;" 
d="M313 268q0 -83 37.5 -127.5t122.5 -44.5q56 0 116 7.5t116 23.5v743l-142 25v45h307v-870l119 -25v-45h-274l-8 76q-29 -16 -69 -33t-83.5 -31t-87.5 -23t-80 -9q-54 0 -98 15t-75.5 48t-49 85.5t-17.5 127.5v614l-120 25v45h286v-672zM185 1119v33l218 273h213l217 -273
v-33h-56l-268 183l-268 -183h-56z" />
    <glyph glyph-name="udieresis" unicode="&#xfc;" 
d="M313 268q0 -83 37.5 -127.5t122.5 -44.5q56 0 116 7.5t116 23.5v743l-142 25v45h307v-870l119 -25v-45h-274l-8 76q-29 -16 -69 -33t-83.5 -31t-87.5 -23t-80 -9q-54 0 -98 15t-75.5 48t-49 85.5t-17.5 127.5v614l-120 25v45h286v-672zM790 1194q0 -42 -28 -71.5
t-70 -29.5q-21 0 -39 8t-31.5 22t-21.5 32t-8 39q0 42 29 71t71 29t70 -29t28 -71zM434 1194q0 -42 -28 -71.5t-70 -29.5q-21 0 -39 8t-32 22t-22 32t-8 39t8 39t22 31.5t32 21.5t39 8q42 0 70 -29t28 -71z" />
    <glyph glyph-name="yacute" unicode="&#xfd;" 
d="M918 874l-367 -933q-32 -81 -65 -151t-73.5 -121.5t-92.5 -81t-121 -29.5q-26 0 -45.5 1t-36.5 3.5t-34 5.5t-38 8v203h47l33 -96q31 -23 86 -23q43 0 78 19t64.5 53.5t53.5 81.5t46 104l26 72l-358 880l-96 25v45h436v-45l-148 -27l254 -657l246 659l-147 25v45h350v-45
zM404 1119v33l196 272h213v-37l-354 -268h-55z" />
    <glyph glyph-name="Gbreve" unicode="&#x11e;" horiz-adv-x="1479" 
d="M1284 70q-116 -38 -241 -64t-269 -26q-159 0 -286.5 43.5t-217.5 129t-138 211.5t-48 291q0 352 176.5 526.5t517.5 174.5q130 0 247.5 -16t223.5 -44v-288h-67l-27 166q-69 49 -165.5 75.5t-203.5 26.5q-117 0 -208.5 -32.5t-154.5 -105.5t-96.5 -191.5t-33.5 -289.5
q0 -173 39 -288.5t105.5 -184.5t154 -98t184.5 -29q49 0 97.5 6.5t91 16.5t75.5 22t52 23v381l-172 26v54h495v-54l-131 -26v-436zM769 1453q-73 0 -126.5 22t-88.5 60.5t-53 89.5t-19 108h74q9 -37 29 -63t48.5 -43t63 -25t72.5 -8q37 0 72 8t63.5 25t48.5 43t29 63h74
q-2 -57 -19.5 -108t-52.5 -89.5t-88.5 -60.5t-126.5 -22z" />
    <glyph glyph-name="gbreve" unicode="&#x11f;" 
d="M870 643q0 -162 -97 -245t-279 -83q-41 0 -82.5 4.5t-69.5 10.5l-63 -131q3 -17 39 -32t90 -15h278q152 0 225.5 -66t73.5 -182q0 -65 -26.5 -127.5t-86 -111t-155.5 -78t-236 -29.5q-107 0 -182 17.5t-122 48.5t-68 72t-21 89q0 33 12.5 62.5t35 57t53.5 53.5t67 52
q-18 6 -41.5 19.5t-44.5 34.5t-35 48.5t-14 61.5l158 178q-158 74 -158 291q0 79 26 139.5t74.5 101t119.5 61t161 20.5q28 0 57 -3t54.5 -6.5t44.5 -8t28 -7.5l221 111l35 -43l-139 -144q34 -38 50.5 -95.5t16.5 -125.5zM829 -127q0 57 -35 89t-106 32h-364
q-21 -18 -38.5 -41.5t-30 -49.5t-19.5 -52.5t-7 -51.5q0 -36 11.5 -65.5t40 -50.5t77.5 -33t123 -12q90 0 155.5 17.5t108.5 49t63.5 74.5t20.5 94zM496 391q109 0 154.5 62.5t45.5 189.5q0 63 -10.5 109.5t-34 76.5t-61.5 45t-92 15q-55 0 -93.5 -15t-63 -45t-35.5 -76.5
t-11 -109.5t11 -110.5t35 -79t62 -47t93 -15.5zM484 1119q-73 0 -126.5 22t-88.5 60.5t-53 89.5t-19 108h74q9 -37 29 -63t48.5 -43t63 -25t72.5 -8q37 0 72 8t63.5 25t48.5 43t29 63h74q-2 -57 -19.5 -108t-52.5 -89.5t-88.5 -60.5t-126.5 -22z" />
    <glyph glyph-name="Idotaccent" unicode="&#x130;" horiz-adv-x="682" 
d="M438 80l172 -27v-53h-536v53l172 27v1182l-172 26v53h536v-53l-172 -26v-1182zM451 1581q0 -22 -8.5 -41.5t-23.5 -34.5t-35 -23.5t-42 -8.5t-41.5 8.5t-34.5 23.5t-23.5 34.5t-8.5 41.5t8.5 42t23.5 35t34.5 23.5t41.5 8.5t42 -8.5t35 -23.5t23.5 -35t8.5 -42z" />
    <glyph glyph-name="dotlessi" unicode="&#x131;" horiz-adv-x="569" 
d="M369 70l161 -25v-45h-487v45l160 25v800l-133 25v45h299v-870z" />
    <glyph glyph-name="Jcircumflex" unicode="&#x134;" horiz-adv-x="797" 
d="M410 1262l-172 26v53h516v-53l-152 -26v-830q0 -91 -17 -160t-45 -119t-64.5 -83.5t-75.5 -53.5t-78 -28t-72 -8q-65 0 -117.5 8t-89.5 22v244h66l30 -139q19 -23 54 -36t77 -13q140 0 140 190v1006zM180 1453v33l218 273h213l217 -273v-33h-56l-268 183l-268 -183h-56z
" />
    <glyph glyph-name="jcircumflex" unicode="&#x135;" horiz-adv-x="569" 
d="M383 -39q0 -106 -21.5 -181.5t-61 -123.5t-94 -70t-120.5 -22q-44 0 -76 5t-69 13v199h47l27 -109q33 -28 83 -28q59 0 89 63t30 203v960l-141 25v45h307v-979zM-39 1119v33l218 273h213l217 -273v-33h-56l-268 183l-268 -183h-56z" />
    <glyph glyph-name="Ncaron" unicode="&#x147;" horiz-adv-x="1479" 
d="M1155 1262l-180 26v53h457v-53l-172 -26v-1262h-97l-827 1206v-1126l180 -27v-53h-457v53l172 27v1182l-172 26v53h406l690 -993v914zM471 1759l268 -183l268 183h56v-33l-217 -273h-213l-218 273v33h56z" />
    <glyph glyph-name="ncaron" unicode="&#x148;" 
d="M324 864q28 16 66.5 34t80.5 33t84 24.5t78 9.5q54 0 99 -15t77.5 -48t51 -86t18.5 -128v-618l114 -25v-45h-405v45l125 25v600q0 83 -40.5 130.5t-125.5 47.5q-28 0 -59 -3t-61 -7t-56.5 -9.5t-44.5 -9.5v-749l127 -25v-45h-406v45l113 25v800l-113 25v45h268zM246 1425
l268 -183l268 183h56v-33l-217 -273h-213l-218 273v33h56z" />
    <glyph glyph-name="Eng" unicode="&#x14a;" horiz-adv-x="1437" 
d="M1090 950q0 86 -20.5 141t-55 86t-80.5 42.5t-97 11.5q-50 0 -104 -9.5t-107.5 -25.5t-105 -37.5t-96.5 -44.5v-1034l172 -27v-53h-537v53l172 27v1182l-172 26v53h363l2 -140q41 23 98 49t122.5 48.5t134.5 37.5t134 15q102 0 172 -24.5t113.5 -73.5t63 -122.5
t19.5 -171.5v-527q0 -91 -17 -160t-45 -119t-64.5 -83.5t-75.5 -53.5t-78 -28t-72 -8q-65 0 -117.5 8t-89.5 22v244h66l30 -139q19 -23 54 -36t77 -13q69 0 105 48t36 142v694z" />
    <glyph glyph-name="eng" unicode="&#x14b;" horiz-adv-x="1013" 
d="M833 -39q0 -106 -21.5 -181.5t-61 -123.5t-94 -70t-120.5 -22q-44 0 -76 5t-69 13v199h47l27 -109q33 -28 83 -28q59 0 89 63t30 203v760q0 83 -35 130.5t-110 47.5q-24 0 -51.5 -3t-54.5 -7t-50.5 -9.5t-39.5 -9.5v-749l127 -25v-45h-406v45l113 25v800l-113 25v45h268
l9 -76q25 16 60.5 34t74.5 33t78 24.5t72 9.5q49 0 90 -15t71 -48t46.5 -86t16.5 -128v-727z" />
    <glyph glyph-name="Scedilla" unicode="&#x15e;" horiz-adv-x="1139" 
d="M139 361h65l35 -181q19 -24 53 -45.5t75.5 -38t87.5 -26t90 -9.5q76 0 132 20.5t92.5 56.5t54.5 85t18 107q0 72 -30.5 119t-80 79.5t-112.5 55t-129.5 45.5t-129.5 51t-112.5 71t-80 106.5t-30.5 156.5q0 78 30 141.5t88 108t142.5 68.5t192.5 24q99 0 188 -13t164 -30
v-279h-65l-35 164q-44 32 -108 53t-144 21q-74 0 -127.5 -16t-88.5 -43.5t-52 -65t-17 -80.5q0 -65 30.5 -108t80 -73.5t113 -52.5t130 -45.5t130 -53t113 -75t80 -111t30.5 -161.5q0 -93 -28.5 -168t-86 -128.5t-144 -82t-203.5 -28.5q-62 0 -122 6t-113 16t-98 23t-78 26
v310zM748 -234q0 -46 -18 -83t-51 -63.5t-78.5 -41t-99.5 -14.5q-32 0 -69.5 5.5t-68.5 16.5v74q9 -3 23.5 -6t31 -5t34 -3.5t31.5 -1.5q60 0 87 29.5t27 74.5q0 32 -15 53.5t-37.5 35t-49 20t-50.5 8.5l41 153h86l-18 -82q91 -9 142.5 -53t51.5 -117z" />
    <glyph glyph-name="scedilla" unicode="&#x15f;" horiz-adv-x="797" 
d="M723 264q0 -63 -19.5 -115.5t-61.5 -90t-108.5 -58t-160.5 -20.5q-47 0 -92.5 5.5t-84.5 13t-68 15.5t-42 13v231h45l49 -131q31 -28 80 -48t115 -20q93 0 143.5 40.5t50.5 125.5q0 50 -21 82.5t-55 54.5t-77.5 36.5t-89 29.5t-89 34t-77.5 49t-55 75t-21 112
q0 64 23 114t64.5 84t99 51.5t126.5 17.5q68 0 133 -9.5t125 -21.5v-205h-47l-42 109q-26 23 -71 35t-96 12q-81 0 -123.5 -40t-42.5 -108q0 -46 21 -75.5t55.5 -50t78.5 -35.5t90 -31t90 -36.5t78.5 -52.5t55.5 -78t21 -114zM558 -234q0 -46 -18 -83t-51 -63.5t-78.5 -41
t-99.5 -14.5q-32 0 -69.5 5.5t-68.5 16.5v74q9 -3 23.5 -6t31 -5t34 -3.5t31.5 -1.5q60 0 87 29.5t27 74.5q0 32 -15 53.5t-37.5 35t-49 20t-50.5 8.5l41 153h86l-18 -82q91 -9 142.5 -53t51.5 -117z" />
    <glyph glyph-name="Zcaron" unicode="&#x17d;" horiz-adv-x="1251" 
d="M98 94l752 1161h-250q-131 0 -217 -6t-123 -14l-31 -211h-69v317h913v-86l-757 -1171h290q65 0 129.5 3.5t119.5 9t96 11t59 9.5l59 256h70l-27 -373h-1014v94zM363 1759l268 -183l268 183h56v-33l-217 -273h-213l-218 273v33h56z" />
    <glyph glyph-name="zcaron" unicode="&#x17e;" horiz-adv-x="909" 
d="M55 0v45l516 815h-221q-28 0 -55.5 -2.5t-52 -7t-43.5 -11t-29 -14.5l-31 -135h-47v250h694v-49l-516 -811h275q27 0 57.5 3.5t59 9.5t53 14.5t39.5 19.5l51 197h47l-25 -324h-772zM189 1425l268 -183l268 183h56v-33l-217 -273h-213l-218 273v33h56z" />
    <glyph glyph-name="uni018F" unicode="&#x18f;" horiz-adv-x="1469" 
d="M1384 665q0 -296 -187 -495q-190 -201 -484 -201q-293 0 -481.5 202.5t-188.5 493.5q0 20 3 57h1110q-16 233 -113 387q-119 191 -331 191q-160 0 -287 -111.5t-152 -269.5h-36l22 448h34q39 -70 75 -70q15 0 56 15q158 57 287 57q361 0 572 -333q101 -159 101 -371z
M1156 649h-886q0 -220 110 -398q127 -206 333 -206q209 0 335 206q108 177 108 398z" />
    <glyph glyph-name="uni018F" unicode="&#x4d8;" horiz-adv-x="1469" 
d="M1384 665q0 -296 -187 -495q-190 -201 -484 -201q-293 0 -481.5 202.5t-188.5 493.5q0 20 3 57h1110q-16 233 -113 387q-119 191 -331 191q-160 0 -287 -111.5t-152 -269.5h-36l22 448h34q39 -70 75 -70q15 0 56 15q158 57 287 57q361 0 572 -333q101 -159 101 -371z
M1156 649h-886q0 -220 110 -398q127 -206 333 -206q209 0 335 206q108 177 108 398z" />
    <glyph glyph-name="uni04E8" unicode="&#x19f;" horiz-adv-x="1444" 
d="M1374 672q0 -290 -180 -492q-188 -211 -474 -211q-290 0 -473 207q-175 199 -175 493q0 317 216 517q187 173 448 173q276 0 461 -208q177 -199 177 -479zM1149 712q-10 245 -98 391q-110 185 -334 185q-216 0 -325 -189q-88 -151 -95 -387h852zM1149 640h-852
q6 -302 139 -468q106 -133 282 -133q231 0 342 195q89 157 89 406z" />
    <glyph glyph-name="uni04E8" unicode="&#x4e8;" horiz-adv-x="1444" 
d="M1374 672q0 -290 -180 -492q-188 -211 -474 -211q-290 0 -473 207q-175 199 -175 493q0 317 216 517q187 173 448 173q276 0 461 -208q177 -199 177 -479zM1149 712q-10 245 -98 391q-110 185 -334 185q-216 0 -325 -189q-88 -151 -95 -387h852zM1149 640h-852
q6 -302 139 -468q106 -133 282 -133q231 0 342 195q89 157 89 406z" />
    <glyph glyph-name="uni01A2" unicode="&#x1a2;" horiz-adv-x="1801" 
d="M1766 -438h-553v36h46q80 0 116 48q23 30 23 150v1263q0 82 -14 116q-22 60 -94 60h-103v-1187q-147 -50 -157 -52q-146 -37 -328 -37q-321 0 -497 244q-131 182 -131 428q0 193 83 356q85 172 242 265q152 91 332 91q56 0 206 -25t250 -25q180 0 346 50h47v-1547
q0 -100 13 -133q25 -65 126 -65h47v-36zM1005 107v1128q-165 38 -259 38q-281 0 -395 -280q-60 -148 -60 -364q0 -373 226 -514q113 -70 256 -70q142 0 232 62z" />
    <glyph glyph-name="uni01A3" unicode="&#x1a3;" horiz-adv-x="1416" 
d="M1407 -438h-449v36q98 0 122 56q13 30 13 115v931q0 112 -79 112h-80v-376q0 -275 -202 -400q-104 -64 -231 -64q-207 0 -329 165q-103 139 -103 312q0 203 114 342q123 152 329 152q76 0 221 -43t201 -43q154 0 280 86h45v-1174q0 -128 51 -156q27 -15 97 -15v-36z
M768 409v400q-144 69 -287 69q-123 0 -182 -119q-44 -90 -44 -226q0 -169 61 -309q80 -181 228 -181q97 0 160.5 80.5t63.5 285.5z" />
    <glyph glyph-name="uni01DD" unicode="&#x1dd;" horiz-adv-x="909" 
d="M658 472v18q0 73 -10.5 140t-42 118.5t-88.5 82t-150 30.5q-30 0 -63 -2.5t-66 -6.5t-64 -9t-57 -11v56q23 15 55.5 28.5t71.5 24.5t83 17.5t89 6.5q117 0 197.5 -32t130.5 -95t72 -156t22 -214q0 -246 -103 -367t-294 -121q-75 0 -140.5 20t-114.5 67t-77.5 126
t-28.5 197v82h578zM441 60q56 0 96.5 23.5t67 66.5t39 104.5t12.5 137.5h-402q0 -76 8.5 -137.5t30 -104.5t57.5 -66.5t91 -23.5z" />
    <glyph glyph-name="uni01DD" unicode="&#x4d9;" horiz-adv-x="909" 
d="M658 472v18q0 73 -10.5 140t-42 118.5t-88.5 82t-150 30.5q-30 0 -63 -2.5t-66 -6.5t-64 -9t-57 -11v56q23 15 55.5 28.5t71.5 24.5t83 17.5t89 6.5q117 0 197.5 -32t130.5 -95t72 -156t22 -214q0 -246 -103 -367t-294 -121q-75 0 -140.5 20t-114.5 67t-77.5 126
t-28.5 197v82h578zM441 60q56 0 96.5 23.5t67 66.5t39 104.5t12.5 137.5h-402q0 -76 8.5 -137.5t30 -104.5t57.5 -66.5t91 -23.5z" />
    <glyph glyph-name="uni01DD" unicode="&#x259;" horiz-adv-x="909" 
d="M658 472v18q0 73 -10.5 140t-42 118.5t-88.5 82t-150 30.5q-30 0 -63 -2.5t-66 -6.5t-64 -9t-57 -11v56q23 15 55.5 28.5t71.5 24.5t83 17.5t89 6.5q117 0 197.5 -32t130.5 -95t72 -156t22 -214q0 -246 -103 -367t-294 -121q-75 0 -140.5 20t-114.5 67t-77.5 126
t-28.5 197v82h578zM441 60q56 0 96.5 23.5t67 66.5t39 104.5t12.5 137.5h-402q0 -76 8.5 -137.5t30 -104.5t57.5 -66.5t91 -23.5z" />
    <glyph glyph-name="uni04E9" unicode="&#x275;" 
d="M953 475q0 -127 -58 -247q-61 -129 -164 -192.5t-230 -63.5q-207 0 -329 165q-103 139 -103 312q0 125 60 246q64 129 166 188.5t217 59.5q208 0 334 -158q107 -135 107 -310zM760 520q-18 139 -79 235q-77 123 -200 123q-134 0 -193 -142q-34 -81 -33 -203v-13h505z
M767 398q0 20 -2 57h-507q13 -150 77 -267q79 -145 209 -145q223 0 223 355z" />
    <glyph glyph-name="uni04E9" unicode="&#x4e9;" 
d="M953 475q0 -127 -58 -247q-61 -129 -164 -192.5t-230 -63.5q-207 0 -329 165q-103 139 -103 312q0 125 60 246q64 129 166 188.5t217 59.5q208 0 334 -158q107 -135 107 -310zM760 520q-18 139 -79 235q-77 123 -200 123q-134 0 -193 -142q-34 -81 -33 -203v-13h505z
M767 398q0 20 -2 57h-507q13 -150 77 -267q79 -145 209 -145q223 0 223 355z" />
    <glyph glyph-name="afii10023" unicode="&#x401;" horiz-adv-x="1251" 
d="M59 53l172 27v1182l-172 26v53h1006v-321h-66l-32 217q-32 4 -77.5 7t-92.5 4.5t-89 2t-65 0.5h-219v-524h362l31 160h64v-412h-64l-31 162h-362v-547h264q62 0 117 1.5t99 3.5t75.5 5t46.5 6l57 248h66l-19 -354h-1071v53zM905 1565q0 -42 -28 -71.5t-70 -29.5
q-21 0 -39 8t-31.5 22t-21.5 32t-8 39q0 42 29 71t71 29t70 -29t28 -71zM549 1565q0 -42 -28 -71.5t-70 -29.5q-21 0 -39 8t-32 22t-22 32t-8 39t8 39t22 31.5t32 21.5t39 8q42 0 70 -29t28 -71z" />
    <glyph glyph-name="afii10062" unicode="&#x40e;" horiz-adv-x="1450" 
d="M216 1262l-151 26v53h557v-53l-170 -26l395 -692l356 692l-150 26v53h396v-53l-127 -26l-439 -828q-58 -110 -107.5 -194.5t-100.5 -142.5t-108.5 -87.5t-132.5 -29.5q-45 0 -89 12t-73 31l-9 241h45l49 -97q17 -23 44.5 -36t55.5 -13q36 0 69.5 15t67 47t67.5 81.5
t70 119.5zM780 1456q-111 0 -181.5 22t-111 60.5t-56.5 89.5t-18 108h164q6 -103 58 -156t145 -53t145 53t58 156h164q-2 -57 -18 -108t-56.5 -89.5t-111 -60.5t-181.5 -22z" />
    <glyph glyph-name="afii10017" unicode="&#x410;" horiz-adv-x="1479" 
d="M461 53v-53h-441v53l152 27l457 1272h190l475 -1272l170 -27v-53h-567v53l180 27l-133 387h-528l-135 -387zM676 1208l-230 -651h467z" />
    <glyph glyph-name="afii10018" unicode="&#x411;" horiz-adv-x="1176" 
d="M575 745q138 0 231 -30t148.5 -81.5t79 -119t23.5 -142.5q0 -76 -24 -143.5t-81 -118.5t-151.5 -80.5t-235.5 -29.5h-506v53l172 26v1182l-159 27v53h901l13 -309h-65l-57 203q-15 3 -43 6.5t-65.5 6.5t-82 5t-92.5 2h-157v-510h151zM858 363q0 69 -16 123t-54.5 91.5
t-102 57.5t-157.5 20h-104v-565h98q94 0 158 16t103.5 49.5t57 85t17.5 122.5z" />
    <glyph glyph-name="afii10019" unicode="&#x412;" horiz-adv-x="1366" 
d="M958 1016q0 59 -17.5 103t-56.5 73.5t-101 44t-152 14.5h-207v-507h219q93 0 154 19.5t96.5 55t50 85.5t14.5 112zM1059 382q0 70 -22.5 121t-70 84.5t-122.5 50t-180 16.5h-240v-564q46 -2 96 -3q43 -2 95 -2.5t103 -0.5q94 0 159 21t105.5 59.5t58.5 93.5t18 124zM59 0
v53l172 27v1182l-172 26v53h613q141 0 235 -21.5t151 -62.5t81 -99.5t24 -131.5q0 -63 -20.5 -115t-57 -91.5t-87.5 -66t-111 -39.5q87 -9 157.5 -35t119.5 -67.5t75.5 -98.5t26.5 -127q0 -87 -29.5 -159.5t-92.5 -124t-162 -80t-239 -28.5q-112 0 -223 3t-205 3h-256z" />
    <glyph glyph-name="afii10020" unicode="&#x413;" horiz-adv-x="1184" 
d="M631 0h-572v53l172 26v1182l-172 27v53h1041l18 -385h-65l-62 279q-30 6 -109 13t-204 7h-254v-1176l207 -26v-53z" />
    <glyph glyph-name="afii10021" unicode="&#x414;" horiz-adv-x="1397" 
d="M975 90v1161h-404q0 -171 -21 -334.5t-56 -313t-82 -280t-98 -233.5h661zM193 0l-97 -436h-65l-17 496l176 20q57 108 107.5 240t89 283t60.5 317t22 342l-172 26v53h1042v-53l-172 -26v-1182l180 -20l-17 -496h-65l-97 436h-975z" />
    <glyph glyph-name="afii10022" unicode="&#x415;" horiz-adv-x="1251" 
d="M59 53l172 27v1182l-172 26v53h1006v-321h-66l-32 217q-32 4 -77.5 7t-92.5 4.5t-89 2t-65 0.5h-219v-524h362l31 160h64v-412h-64l-31 162h-362v-547h264q62 0 117 1.5t99 3.5t75.5 5t46.5 6l57 248h66l-19 -354h-1071v53z" />
    <glyph glyph-name="afii10024" unicode="&#x416;" horiz-adv-x="1835" 
d="M821 543l-147 133l-378 -676h-296v53l121 27l430 736l-364 446l-136 26v53h352v-53l-84 -26l502 -626v626l-132 26v53h457v-53l-132 -26v-626l502 626l-84 26v53h352v-53l-136 -26l-364 -446l430 -736l121 -27v-53h-296l-376 676l-149 -133v-463l152 -27v-53h-477v53
l132 27v463z" />
    <glyph glyph-name="afii10025" unicode="&#x417;" horiz-adv-x="1026" 
d="M933 365q0 -91 -34 -162.5t-96.5 -121t-150.5 -75.5t-196 -26q-95 0 -184.5 12t-163.5 31l-11 282h66l43 -188q16 -10 43.5 -20t60 -17.5t65.5 -12t62 -4.5q88 0 144.5 23t89.5 64.5t45.5 99t12.5 125.5q0 78 -22 129.5t-60.5 83t-90 46t-110.5 17.5l-143 8v82l143 9
q56 3 101.5 20.5t77.5 50.5t49 81t17 113q0 130 -52.5 194t-177.5 64q-28 0 -58.5 -4.5t-59 -12t-53.5 -17t-41 -19.5l-33 -164h-66v258q70 18 145.5 30.5t169.5 12.5q100 0 180 -20t136 -61t85.5 -103t29.5 -146q0 -63 -20 -117.5t-59 -97t-96 -71t-130 -39.5
q174 -21 258 -104.5t84 -232.5z" />
    <glyph glyph-name="afii10026" unicode="&#x418;" horiz-adv-x="1479" 
d="M59 0v53l172 27v1182l-172 26v53h537v-53l-172 -26v-969l631 929v40l-172 26v53h536v-53l-172 -26v-1182l172 -27v-53h-536v53l172 27v982l-631 -929v-53l172 -27v-53h-537z" />
    <glyph glyph-name="afii10027" unicode="&#x419;" horiz-adv-x="1479" 
d="M59 0v53l172 27v1182l-172 26v53h537v-53l-172 -26v-969l631 929v40l-172 26v53h536v-53l-172 -26v-1182l172 -27v-53h-536v53l172 27v982l-631 -929v-53l172 -27v-53h-537zM742 1456q-111 0 -181.5 22t-111 60.5t-56.5 89.5t-18 108h164q6 -103 58 -156t145 -53t145 53
t58 156h164q-2 -57 -18 -108t-56.5 -89.5t-111 -60.5t-181.5 -22z" />
    <glyph glyph-name="afii10028" unicode="&#x41a;" horiz-adv-x="1366" 
d="M1315 1341v-53l-155 -26l-425 -452l493 -730l145 -27v-53h-338l-440 670l-171 -153v-437l192 -27v-53h-557v53l172 27v1182l-172 26v53h537v-53l-172 -26v-637l599 637l-128 26v53h420z" />
    <glyph glyph-name="afii10029" unicode="&#x41b;" horiz-adv-x="1389" 
d="M179 -20q-45 0 -84.5 12t-68.5 35l-7 217h45l47 -89q15 -19 35.5 -28t43.5 -9q42 0 77.5 42.5t66 140t56 257.5t45.5 395l27 309l-172 26v53h1040v-53l-172 -26v-1182l172 -27v-53h-536v53l172 27v1171h-402l-27 -311q-21 -242 -48.5 -422t-68.5 -299.5t-99.5 -179
t-141.5 -59.5z" />
    <glyph glyph-name="afii10030" unicode="&#x41c;" horiz-adv-x="1821" 
d="M862 0h-35l-491 1153v-1073l180 -27v-53h-457v53l172 27v1182l-172 26v53h406l436 -1020l476 1020h384v-53l-172 -26v-1182l172 -27v-53h-544v53l180 27v1073z" />
    <glyph glyph-name="afii10031" unicode="&#x41d;" horiz-adv-x="1479" 
d="M59 0v53l172 27v1182l-172 26v53h537v-53l-172 -26v-527h631v527l-172 26v53h536v-53l-172 -26v-1182l172 -27v-53h-536v53l172 27v565h-631v-565l172 -27v-53h-537z" />
    <glyph glyph-name="afii10032" unicode="&#x41e;" horiz-adv-x="1479" 
d="M293 672q0 -140 21 -253t72 -193t137 -123.5t216 -43.5t216 43.5t137.5 123.5t72.5 193t21 253q0 139 -21 251t-72.5 190.5t-137.5 120.5t-216 42t-216 -42t-137 -120.5t-72 -190.5t-21 -251zM84 672q0 178 43.5 307t126.5 213t205 124t280 40q153 0 274.5 -40
t206.5 -124t130 -213t45 -307t-45 -308.5t-130 -215.5t-206.5 -126.5t-274.5 -41.5t-274 41.5t-206 126.5t-130 215.5t-45 308.5z" />
    <glyph glyph-name="afii10033" unicode="&#x41f;" horiz-adv-x="1479" 
d="M59 0v53l172 27v1182l-172 26v53h1360v-53l-172 -26v-1182l172 -27v-53h-536v53l172 27v1171h-631v-1171l172 -27v-53h-537z" />
    <glyph glyph-name="afii10034" unicode="&#x420;" horiz-adv-x="1139" 
d="M858 944q0 80 -17.5 138t-57 95.5t-103.5 55.5t-158 18h-98v-635h104q94 0 157.5 22.5t102 64.5t54.5 103t16 138zM424 526v-446l213 -27v-53h-565v53l159 27v1182l-172 26v53h506q141 0 235.5 -30.5t151.5 -84t81 -125.5t24 -155q0 -82 -23.5 -158t-79 -134t-148.5 -93
t-231 -35h-151z" />
    <glyph glyph-name="afii10035" unicode="&#x421;" horiz-adv-x="1366" 
d="M774 -20q-164 0 -292.5 46t-217 133t-134.5 212.5t-46 283.5q0 180 46.5 312t135 218.5t217.5 128.5t295 42q69 0 130 -4.5t116.5 -11.5t105.5 -16t97 -19l6 -293h-66l-30 174q-70 43 -162.5 66.5t-188.5 23.5q-117 0 -208.5 -32t-154.5 -104.5t-96.5 -191t-33.5 -291.5
q0 -152 33 -264.5t95 -187t151.5 -111.5t203.5 -37q62 0 118.5 8t105 22t87 32.5t64.5 38.5l37 200h65l-6 -315q-42 -12 -96 -23.5t-115 -20.5t-128 -14t-134 -5z" />
    <glyph glyph-name="afii10036" unicode="&#x422;" horiz-adv-x="1251" 
d="M315 0v53l213 27v1175h-51q-131 0 -220 -6t-126 -14l-27 -209h-67v315h1180v-315h-68l-27 209q-18 4 -53.5 7t-82.5 5.5t-102.5 4t-113.5 1.5h-49v-1173l213 -27v-53h-619z" />
    <glyph glyph-name="afii10037" unicode="&#x423;" horiz-adv-x="1450" 
d="M216 1262l-151 26v53h557v-53l-170 -26l395 -692l356 692l-150 26v53h396v-53l-127 -26l-439 -828q-58 -110 -107.5 -194.5t-100.5 -142.5t-108.5 -87.5t-132.5 -29.5q-45 0 -89 12t-73 31l-9 241h45l49 -97q17 -23 44.5 -36t55.5 -13q36 0 69.5 15t67 47t67.5 81.5
t70 119.5z" />
    <glyph glyph-name="afii10038" unicode="&#x424;" horiz-adv-x="1618" 
d="M905 80l172 -27v-53h-536v53l172 27v142h-97q-102 0 -181 19.5t-138.5 53.5t-100 80t-66 98t-36.5 108t-11 111t11.5 109.5t37.5 104t67.5 92t102 73.5t141 48.5t184.5 17.5h86v125l-172 26v53h536v-53l-172 -26v-125h87q104 0 184.5 -17.5t141 -48.5t102 -73.5t67.5 -92
t37.5 -104t11.5 -109.5t-11 -111t-36.5 -108t-66 -98t-100 -80t-138.5 -53.5t-181 -19.5h-98v-142zM954 300q109 0 183 32t118 86t63 124.5t19 147.5q0 80 -20 147.5t-66 117t-120.5 77.5t-183.5 28h-42v-760h49zM282 690q0 -77 19 -147.5t63 -124.5t117.5 -86t183.5 -32h48
v760h-41q-109 0 -183.5 -28t-120.5 -77.5t-66 -117t-20 -147.5z" />
    <glyph glyph-name="afii10039" unicode="&#x425;" horiz-adv-x="1479" 
d="M317 80l166 -27v-53h-438v53l148 27l456 606l-389 576l-151 26v53h553v-53l-170 -26l278 -414l311 414l-166 26v53h439v-53l-148 -26l-377 -502l461 -680l152 -27v-53h-553v53l170 27l-352 520z" />
    <glyph glyph-name="afii10040" unicode="&#x426;" horiz-adv-x="1479" 
d="M1247 80l180 -20l-17 -496h-65l-107 436h-1179v53l172 27v1182l-172 26v53h537v-53l-172 -26v-1172h631v1172l-172 26v53h536v-53l-172 -26v-1182z" />
    <glyph glyph-name="afii10041" unicode="&#x427;" horiz-adv-x="1331" 
d="M1272 0h-556v53l192 27v449q-27 -10 -68.5 -23.5t-89.5 -26t-99 -21.5t-97 -9q-103 0 -175.5 24t-118 74.5t-66.5 128.5t-21 186v400l-152 26v53h516v-53l-172 -26v-399q0 -75 13 -130.5t43.5 -91.5t81 -54t124.5 -18q36 0 74.5 4.5t76 11.5t71 15t59.5 14v648l-172 26
v53h536v-53l-172 -26v-1182l172 -27v-53z" />
    <glyph glyph-name="afii10042" unicode="&#x428;" horiz-adv-x="2066" 
d="M59 0v53l172 27v1182l-172 26v53h537v-53l-172 -26v-1172h513v1172l-172 26v53h536v-53l-172 -26v-1172h514v1172l-172 26v53h536v-53l-172 -26v-1182l172 -27v-53h-1948z" />
    <glyph glyph-name="afii10043" unicode="&#x429;" horiz-adv-x="2066" 
d="M1835 80l180 -20l-17 -496h-65l-107 436h-1767v53l172 27v1182l-172 26v53h537v-53l-172 -26v-1172h513v1172l-172 26v53h536v-53l-172 -26v-1172h514v1172l-172 26v53h536v-53l-172 -26v-1182z" />
    <glyph glyph-name="afii10044" unicode="&#x42a;" horiz-adv-x="1446" 
d="M1378 371q0 -76 -24 -143.5t-81 -118t-151.5 -80t-235.5 -29.5h-506v53l172 26v1176h-51q-131 -2 -220 -7t-126 -13l-27 -209h-67v315h897v-53l-213 -27v-516h151q138 0 231 -30.5t148.5 -81.5t79 -119t23.5 -143zM1179 363q0 69 -16 123t-54.5 91.5t-102 57.5t-157.5 20
h-104v-565h98q94 0 158 16t103.5 49.5t57 85t17.5 122.5z" />
    <glyph glyph-name="afii10045" unicode="&#x42b;" horiz-adv-x="1786" 
d="M908 363q0 69 -16 123t-54.5 91.5t-102 57.5t-157.5 20h-154v-565h148q94 0 158 16t103.5 49.5t57 85t17.5 122.5zM625 745q138 0 231 -31t149 -83t79.5 -120.5t23.5 -143.5q0 -76 -24.5 -142.5t-81.5 -116.5t-151.5 -79t-235.5 -29h-556v53l172 26v1182l-159 27v53h565
v-53l-213 -27v-516h201zM1552 80l172 -27v-53h-536v53l172 27v1182l-172 26v53h536v-53l-172 -26v-1182z" />
    <glyph glyph-name="afii10046" unicode="&#x42c;" horiz-adv-x="1176" 
d="M908 363q0 69 -16 123t-54.5 91.5t-102 57.5t-157.5 20h-154v-565h148q94 0 158 16t103.5 49.5t57 85t17.5 122.5zM625 745q138 0 231 -31t149 -83t79.5 -120.5t23.5 -143.5q0 -76 -24.5 -142.5t-81.5 -116.5t-151.5 -79t-235.5 -29h-556v53l172 26v1182l-159 27v53h565
v-53l-213 -27v-516h201z" />
    <glyph glyph-name="afii10047" unicode="&#x42d;" horiz-adv-x="1352" 
d="M578 -20q-136 0 -255 19t-204 44l-6 315h65l37 -200q53 -41 144.5 -71t216.5 -30q112 0 200 36.5t150 110t95.5 184t35.5 257.5h-580v90h580q-6 152 -38.5 255.5t-91 167t-143 91t-194.5 27.5q-96 0 -188.5 -23.5t-162.5 -66.5l-30 -174h-66l6 293q47 10 97 19t105.5 16
t116.5 11.5t130 4.5q166 0 291 -40t209 -123.5t126.5 -213.5t42.5 -310q0 -158 -46 -285.5t-134 -217t-216.5 -138t-292.5 -48.5z" />
    <glyph glyph-name="afii10048" unicode="&#x42e;" horiz-adv-x="2105" 
d="M424 735h367q7 161 51 278.5t122 193.5t189 112.5t252 36.5q144 0 258 -40t193.5 -124t122 -213t42.5 -307t-42.5 -308.5t-122 -215.5t-193.5 -126.5t-258 -41.5q-141 0 -253 40t-191.5 121.5t-123.5 207t-47 296.5h-366v-565l172 -27v-53h-537v53l172 27v1182l-172 26
v53h537v-53l-172 -26v-527zM999 672q0 -140 19 -253t65.5 -193t125 -123.5t196.5 -43.5t196.5 43.5t125 123.5t66 193t19.5 253q0 139 -19.5 251t-66 190.5t-125 120.5t-196.5 42t-196.5 -42t-125 -120.5t-65.5 -190.5t-19 -251z" />
    <glyph glyph-name="afii10049" unicode="&#x42f;" horiz-adv-x="1366" 
d="M653 588l-324 -588h-321v53l151 27l306 534q-54 16 -102 47t-83 77t-55.5 107t-20.5 138q0 83 27 149t87 112.5t157 71.5t238 25h594v-53l-172 -26v-1182l159 -27v-53h-555v53l203 27v508h-289zM403 969q0 -77 17 -132t56 -90.5t102 -52t155 -16.5h209v573h-186
q-90 0 -156.5 -14t-110 -47t-65 -87t-21.5 -134z" />
    <glyph glyph-name="afii10065" unicode="&#x430;" horiz-adv-x="909" 
d="M465 961q64 0 119 -12t95 -41t62.5 -78.5t22.5 -124.5v-635l117 -25v-45h-258l-19 94q-15 -15 -40.5 -35t-61.5 -37.5t-83.5 -29.5t-105.5 -12q-68 0 -114.5 21t-74.5 58.5t-40 89t-12 111.5q0 62 15 107.5t42 76.5t63.5 50.5t79 30.5t90 15t95.5 5l141 4v147
q0 42 -7 76.5t-23.5 59.5t-44.5 39t-70 14q-48 0 -97 -13t-86 -34l-34 -117h-56v205q65 14 134.5 24.5t150.5 10.5zM598 479l-131 -4q-59 -2 -102 -11.5t-71 -32.5t-42 -63t-14 -102q0 -176 143 -176q68 0 117.5 15.5t99.5 39.5v334z" />
    <glyph glyph-name="afii10066" unicode="&#x431;" horiz-adv-x="1042" 
d="M96 578q0 176 20.5 316t72 240.5t138 160.5t218.5 76q62 7 118.5 13.5t101 16.5t74.5 25t41 40h50q-3 -79 -28 -123.5t-73.5 -69.5t-120.5 -36t-169 -23q-108 -13 -170 -41t-95 -80t-44.5 -133t-17.5 -200h7q15 42 42.5 79.5t68 65t92.5 44t116 16.5q212 0 319 -124.5
t107 -365.5q0 -239 -107 -367t-333 -128q-212 0 -320 146.5t-108 451.5zM784 475q0 97 -13 173.5t-43.5 129t-80.5 80t-123 27.5q-74 0 -122 -27.5t-76 -80t-39 -129t-11 -173.5q0 -98 14.5 -175t44.5 -130.5t77 -82t112 -28.5q73 0 123 28.5t80.5 82t43.5 130.5t13 175z
" />
    <glyph glyph-name="afii10067" unicode="&#x432;" horiz-adv-x="967" 
d="M37 0v45l125 25v800l-125 25v45h402q91 0 165.5 -9.5t127.5 -35t82 -69.5t29 -113q0 -96 -54.5 -148t-154.5 -75v-8q127 -14 195 -65t68 -153q0 -68 -23 -117.5t-74.5 -82t-134.5 -48.5t-203 -16h-425zM447 80q65 0 115.5 8.5t85 30t52 58t17.5 91.5q0 52 -18.5 86.5
t-54.5 54t-89 27.5t-121 8h-106v-364h119zM328 524h106q68 0 112.5 12t70.5 35t36 55.5t10 73.5q0 81 -55.5 120.5t-177.5 39.5h-102v-336z" />
    <glyph glyph-name="afii10068" unicode="&#x433;" horiz-adv-x="840" 
d="M787 672h-55l-43 166q-35 6 -88.5 12.5t-110.5 6.5h-162v-787l154 -25v-45h-445v45l125 25v800l-125 25v45h750v-268z" />
    <glyph glyph-name="afii10069" unicode="&#x434;" horiz-adv-x="1042" 
d="M232 895v45h732v-45l-114 -25v-800l146 -16l-17 -450h-65l-87 396h-658l-87 -396h-65l-17 450l148 19q39 74 73.5 164t62.5 191.5t47 213t27 228.5zM253 83h431v787h-240q-7 -116 -24 -226.5t-42 -211t-57 -189t-68 -160.5z" />
    <glyph glyph-name="afii10070" unicode="&#x435;" horiz-adv-x="909" 
d="M260 473v-18q0 -73 10.5 -140t42 -118.5t88.5 -82t150 -30.5q30 0 63 2.5t66 6.5t64 9t57 11v-56q-23 -15 -55.5 -28.5t-71.5 -24.5t-83 -17.5t-89 -6.5q-117 0 -197.5 32t-130.5 95t-72 156t-22 214q0 246 103 367t294 121q75 0 140.5 -20t114.5 -67t77.5 -126
t28.5 -197v-82h-578zM477 885q-56 0 -96.5 -23.5t-67 -66.5t-39 -104.5t-12.5 -137.5h402q0 76 -8.5 137.5t-30 104.5t-57.5 66.5t-91 23.5z" />
    <glyph glyph-name="afii10072" unicode="&#x436;" horiz-adv-x="1415" 
d="M630 371l-128 102l-288 -473h-222v45l76 23l330 519l-254 285l-101 23v45h306v-45l-88 -27l369 -414v416l-85 25v45h325v-45l-84 -25v-416l369 414l-88 27v45h306v-45l-101 -23l-254 -285l330 -519l76 -23v-45h-222l-288 473l-128 -102v-301l84 -25v-45h-325v45l85 25
v301z" />
    <glyph glyph-name="afii10073" unicode="&#x437;" horiz-adv-x="809" 
d="M545 486q43 -7 78.5 -25.5t61.5 -45.5t40.5 -61t14.5 -72q0 -148 -103 -225t-313 -77q-39 0 -80 6t-77 15.5t-65 22.5t-44 27v60q41 -12 100 -19.5t121 -7.5q83 0 137.5 15t86.5 41t44.5 61.5t12.5 76.5q0 43 -17 74t-45 51t-64.5 30t-75.5 10h-120v83h121q49 0 84 14
t58 37.5t34 55t11 67.5q0 91 -44.5 138t-150.5 47q-41 0 -85 -13t-73 -34l-36 -136h-55v232q56 12 118.5 21.5t137.5 9.5q189 0 275 -61t86 -191q0 -81 -48 -136.5t-126 -84.5v-6z" />
    <glyph glyph-name="afii10074" unicode="&#x438;" horiz-adv-x="1096" 
d="M162 870l-125 25v45h405v-45l-114 -25v-591l440 476v115l-125 25v45h405v-45l-114 -25v-800l114 -25v-45h-405v45l125 25v572l-440 -476v-96l114 -25v-45h-405v45l125 25v800z" />
    <glyph glyph-name="afii10075" unicode="&#x439;" horiz-adv-x="1096" 
d="M162 870l-125 25v45h405v-45l-114 -25v-591l440 476v115l-125 25v45h405v-45l-114 -25v-800l114 -25v-45h-405v45l125 25v572l-440 -476v-96l114 -25v-45h-405v45l125 25v800zM544 1122q-111 0 -181.5 22t-111 60.5t-56.5 89.5t-18 108h164q6 -103 58 -156t145 -53
t145 53t58 156h164q-2 -57 -18 -108t-56.5 -89.5t-111 -60.5t-181.5 -22z" />
    <glyph glyph-name="afii10076" unicode="&#x43a;" horiz-adv-x="995" 
d="M162 870l-125 25v45h405v-45l-114 -25v-416l384 414l-98 27v45h332v-45l-117 -23l-268 -274l344 -530l92 -23v-45h-375v45l86 25l-258 405l-122 -104v-301l114 -25v-45h-405v45l125 25v800z" />
    <glyph glyph-name="afii10077" unicode="&#x43b;" horiz-adv-x="1022" 
d="M145 86q21 0 40 26t38.5 87t40 160.5t43.5 245.5l42 265l-131 25v45h756v-45l-114 -25v-800l114 -25v-45h-405v45l125 25v787h-255l-43 -279q-21 -136 -41.5 -246.5t-49 -188.5t-71 -120.5t-106.5 -42.5q-33 0 -60.5 10.5t-41.5 22.5l-6 163h45l31 -53q6 -11 19.5 -24
t29.5 -13z" />
    <glyph glyph-name="afii10078" unicode="&#x43c;" horiz-adv-x="1296" 
d="M162 870l-115 25v45h333l270 -681l276 681h322v-45l-114 -25v-800l114 -25v-45h-385v45l105 25v749l-332 -819h-54l-324 816v-746l94 -25v-45h-305v45l115 25v800z" />
    <glyph glyph-name="afii10079" unicode="&#x43d;" horiz-adv-x="1096" 
d="M162 870l-125 25v45h405v-45l-114 -25v-348h440v348l-125 25v45h405v-45l-114 -25v-800l114 -25v-45h-405v45l125 25v369h-440v-369l114 -25v-45h-405v45l125 25v800z" />
    <glyph glyph-name="afii10080" unicode="&#x43e;" 
d="M946 475q0 -239 -107 -367t-333 -128q-212 0 -320 127t-108 368q0 238 108 364t328 126q214 0 323 -123.5t109 -366.5zM766 475q0 97 -13 173.5t-43.5 129t-80.5 80t-123 27.5q-74 0 -122 -27.5t-76 -80t-39 -129t-11 -173.5q0 -98 11 -175t39 -130.5t76 -82t122 -28.5
q73 0 123 28.5t80.5 82t43.5 130.5t13 175z" />
    <glyph glyph-name="afii10081" unicode="&#x43f;" horiz-adv-x="1096" 
d="M162 870l-125 25v45h1011v-45l-114 -25v-800l114 -25v-45h-405v45l125 25v787h-440v-787l114 -25v-45h-405v45l125 25v800z" />
    <glyph glyph-name="afii10082" unicode="&#x440;" 
d="M152 870l-107 25v45h264l2 -55q21 18 49.5 32.5t61.5 25t70 16.5t75 6q88 0 158 -31t119 -92.5t74.5 -152t25.5 -208.5q0 -115 -26 -207.5t-78 -158t-130.5 -100.5t-183.5 -35q-51 0 -107.5 5.5t-107.5 16.5q1 -12 2.5 -27.5t2 -32t1 -30.5t0.5 -23v-254l164 -24v-47
h-448v47l119 24v1235zM764 481q0 102 -17 174t-49.5 117.5t-79.5 66.5t-106 21q-48 0 -102.5 -8.5t-92.5 -24.5v-751q42 -8 93 -12.5t102 -4.5q132 0 192 109.5t60 312.5z" />
    <glyph glyph-name="afii10083" unicode="&#x441;" horiz-adv-x="909" 
d="M846 57q-26 -19 -62 -33.5t-77 -24t-85.5 -14.5t-86.5 -5q-122 0 -208.5 33.5t-141.5 97.5t-81 156.5t-26 209.5q0 128 33.5 220.5t93.5 152t142.5 87.5t180.5 28q81 0 157 -9.5t138 -21.5v-262h-55l-43 166q-37 21 -89.5 34t-109.5 13q-65 0 -114.5 -23.5t-84 -73.5
t-52 -127t-17.5 -184q0 -90 15 -162.5t53 -123.5t102.5 -79t163.5 -28q34 0 69.5 2.5t69 7t63 10.5t52.5 13v-60z" />
    <glyph glyph-name="afii10084" unicode="&#x442;" horiz-adv-x="895" 
d="M865 940v-268h-55l-43 166q-35 6 -88.5 12.5t-110.5 6.5h-38v-787l134 -25v-45h-445v45l145 25v787h-37q-57 0 -110.5 -6.5t-88.5 -12.5l-43 -166h-55v268h835z" />
    <glyph glyph-name="afii10085" unicode="&#x443;" 
d="M918 874l-367 -933q-32 -81 -65 -151t-73.5 -121.5t-92.5 -81t-121 -29.5q-26 0 -45.5 1t-36.5 3.5t-34 5.5t-38 8v203h47l33 -96q31 -23 86 -23q43 0 78 19t64.5 53.5t53.5 81.5t46 104l26 72l-358 880l-96 25v45h436v-45l-148 -27l254 -657l246 659l-147 25v45h350v-45
z" />
    <glyph glyph-name="afii10086" unicode="&#x444;" horiz-adv-x="1327" 
d="M900 -20q-41 0 -85.5 13t-74.5 30q1 -12 2.5 -32t2 -42t1 -40.5t0.5 -27.5v-246l124 -24v-47h-406v47l119 24v245q0 45 1 89.5t3 79.5q-15 -11 -34.5 -23t-44 -22t-53.5 -17t-63 -7q-317 0 -317 481q0 117 22 210.5t65.5 159t109.5 100t154 34.5q41 0 84.5 -12t77.5 -26
q0 13 -1 37.5t-2 51t-1.5 52t-0.5 40.5v244l-115 24v45h278v-343q0 -12 -0.5 -41.5t-1.5 -59.5q-1 -35 -1 -76q35 25 87 44.5t115 19.5q144 0 225.5 -123.5t81.5 -360.5q0 -115 -23 -207.5t-67.5 -158t-110 -100.5t-151.5 -35zM255 461q0 -105 13 -178.5t37.5 -120t59 -67.5
t76.5 -21q44 0 79.5 10.5t62.5 25.5v749q-32 10 -65.5 15t-70.5 5q-95 0 -143.5 -105t-48.5 -313zM1074 481q0 102 -13 176t-37 121t-58.5 69.5t-78.5 22.5q-35 0 -73.5 -8.5t-67.5 -22.5v-746q11 -6 27 -11.5t35 -9.5t39.5 -6.5t39.5 -2.5q98 0 142.5 107.5t44.5 310.5z
" />
    <glyph glyph-name="afii10087" unicode="&#x445;" 
d="M889 66l110 -21v-45h-426v45l125 23l-217 333l-254 -335l129 -21v-45h-338v45l109 16l309 408l-272 401l-111 25v45h426v-45l-125 -27l181 -270l208 272l-129 25v45h338v-45l-108 -21l-264 -342z" />
    <glyph glyph-name="afii10088" unicode="&#x446;" horiz-adv-x="1096" 
d="M37 0v45l125 25v800l-125 25v45h405v-45l-114 -25v-787h440v787l-125 25v45h405v-45l-114 -25v-800l116 -16l-17 -450h-65l-97 396h-834z" />
    <glyph glyph-name="afii10089" unicode="&#x447;" horiz-adv-x="1030" 
d="M322 552q0 -29 9.5 -55t27.5 -45.5t45 -30.5t62 -11q56 0 117 9.5t118 23.5v427l-125 25v45h405v-45l-114 -25v-800l114 -25v-45h-405v45l125 25v317q-35 -17 -73.5 -34t-78 -30.5t-79.5 -21.5t-79 -8q-69 0 -114.5 22.5t-72 58.5t-37.5 82t-11 93v321l-125 25v45h405
v-45l-114 -25v-318z" />
    <glyph glyph-name="afii10090" unicode="&#x448;" horiz-adv-x="1577" 
d="M35 0v45l125 25v800l-125 25v45h405v-45l-114 -25v-787h378v787l-125 25v45h405v-45l-114 -25v-787h377v787l-125 25v45h405v-45l-114 -25v-800l125 -25v-45h-1503z" />
    <glyph glyph-name="afii10091" unicode="&#x449;" horiz-adv-x="1577" 
d="M1527 -1l-15 -425h-65l-97 425v1h-1315v45l125 25v800l-125 25v45h405v-45l-114 -25v-787h378v787l-125 25v45h405v-45l-114 -25v-787h377v787l-125 25v45h405v-45l-114 -25v-800l116 -16z" />
    <glyph glyph-name="afii10092" unicode="&#x44a;" horiz-adv-x="1059" 
d="M597 940v-45l-125 -25v-346h99q112 0 192 -15t132 -45.5t76.5 -78t24.5 -112.5q0 -71 -21.5 -122.5t-72 -85t-132.5 -49.5t-202 -16h-387v45l125 25v787q-50 -1 -93.5 -3t-78.5 -7l-43 -175h-55v268h561zM553 80q62 0 111 8.5t82.5 30t51.5 58t18 91.5q0 52 -17 86.5
t-50 54t-82.5 27.5t-113.5 8h-81v-364h81z" />
    <glyph glyph-name="afii10093" unicode="&#x44b;" horiz-adv-x="1376" 
d="M429 80q62 0 111 8.5t82.5 30t51.5 58t18 91.5q0 52 -17 86.5t-50 54t-82.5 27.5t-113.5 8h-101v-364h101zM453 940v-45l-125 -25v-346h119q112 0 192 -15t132 -45.5t76.5 -78t24.5 -112.5q0 -71 -21.5 -122.5t-72 -85t-132.5 -49.5t-202 -16h-407v45l125 25v800l-125 25
v45h416zM1048 870l-125 25v45h405v-45l-114 -25v-800l114 -25v-45h-405v45l125 25v800z" />
    <glyph glyph-name="afii10094" unicode="&#x44c;" horiz-adv-x="934" 
d="M429 80q62 0 111 8.5t82.5 30t51.5 58t18 91.5q0 52 -17 86.5t-50 54t-82.5 27.5t-113.5 8h-101v-364h101zM453 940v-45l-125 -25v-346h119q112 0 192 -15t132 -45.5t76.5 -78t24.5 -112.5q0 -71 -21.5 -122.5t-72 -85t-132.5 -49.5t-202 -16h-407v45l125 25v800l-125 25
v45h416z" />
    <glyph glyph-name="afii10095" unicode="&#x44d;" horiz-adv-x="879" 
d="M218 526h402q-7 180 -68.5 269.5t-183.5 89.5q-52 0 -99 -13t-79 -34l-40 -166h-55v262q62 12 130 21.5t149 9.5q97 0 176 -27.5t135 -86t86 -150t30 -219.5q0 -117 -30.5 -210.5t-91 -158t-152 -99t-212.5 -34.5q-84 0 -149 21.5t-97 49.5v60q46 -13 104 -20t126 -7
q87 0 147 25.5t97.5 72.5t55.5 113.5t21 147.5h-402v83z" />
    <glyph glyph-name="afii10096" unicode="&#x44e;" horiz-adv-x="1530" 
d="M1452 475q0 -239 -107 -367t-333 -128q-205 0 -312 117t-115 342h-258v-369l114 -25v-45h-405v45l125 25v800l-125 25v45h405v-45l-114 -25v-348h258q10 216 118 329.5t317 113.5q214 0 323 -123.5t109 -366.5zM1272 475q0 97 -13 173.5t-43.5 129t-80.5 80t-123 27.5
q-74 0 -122 -27.5t-76 -80t-39 -129t-11 -173.5q0 -98 11 -175t39 -130.5t76 -82t122 -28.5q73 0 123 28.5t80.5 82t43.5 130.5t13 175z" />
    <glyph glyph-name="afii10097" unicode="&#x44f;" horiz-adv-x="942" 
d="M234 0h-228v45l81 23l223 366q-100 23 -155.5 89t-55.5 162q0 72 29 120.5t81.5 78.5t126 43t161.5 13h408v-45l-125 -25v-800l125 -25v-45h-414v45l123 26v333h-146zM614 860h-102q-122 0 -177.5 -45.5t-55.5 -134.5q0 -41 10.5 -76.5t36 -62t67 -42t104.5 -15.5h117
v376z" />
    <glyph glyph-name="afii10071" unicode="&#x451;" horiz-adv-x="909" 
d="M260 473v-18q0 -73 10.5 -140t42 -118.5t88.5 -82t150 -30.5q30 0 63 2.5t66 6.5t64 9t57 11v-56q-23 -15 -55.5 -28.5t-71.5 -24.5t-83 -17.5t-89 -6.5q-117 0 -197.5 32t-130.5 95t-72 156t-22 214q0 246 103 367t294 121q75 0 140.5 -20t114.5 -67t77.5 -126
t28.5 -197v-82h-578zM477 885q-56 0 -96.5 -23.5t-67 -66.5t-39 -104.5t-12.5 -137.5h402q0 76 -8.5 137.5t-30 104.5t-57.5 66.5t-91 23.5zM771 1194q0 -42 -28 -71.5t-70 -29.5q-21 0 -39 8t-31.5 22t-21.5 32t-8 39q0 42 29 71t71 29t70 -29t28 -71zM415 1194
q0 -42 -28 -71.5t-70 -29.5q-21 0 -39 8t-32 22t-22 32t-8 39t8 39t22 31.5t32 21.5t39 8q42 0 70 -29t28 -71z" />
    <glyph glyph-name="afii10110" unicode="&#x45e;" 
d="M918 874l-367 -933q-32 -81 -65 -151t-73.5 -121.5t-92.5 -81t-121 -29.5q-26 0 -45.5 1t-36.5 3.5t-34 5.5t-38 8v203h47l33 -96q31 -23 86 -23q43 0 78 19t64.5 53.5t53.5 81.5t46 104l26 72l-358 880l-96 25v45h436v-45l-148 -27l254 -657l246 659l-147 25v45h350v-45
zM523 1122q-111 0 -181.5 22t-111 60.5t-56.5 89.5t-18 108h164q6 -103 58 -156t145 -53t145 53t58 156h164q-2 -57 -18 -108t-56.5 -89.5t-111 -60.5t-181.5 -22z" />
    <glyph glyph-name="uni0492" unicode="&#x492;" horiz-adv-x="1184" 
d="M424 573v-494l207 -26v-53h-572v53l172 26v494h-198v84h198v604l-172 27v53h1041l18 -385h-65l-62 279q-30 6 -109 13t-204 7h-254v-598h284v-84h-284z" />
    <glyph glyph-name="uni0493" unicode="&#x493;" horiz-adv-x="840" 
d="M162 469v401l-125 25v45h750v-268h-55l-43 166q-35 6 -88.5 12.5t-110.5 6.5h-162v-388h221v-84h-221v-315l154 -25v-45h-445v45l125 25v315h-128v84h128z" />
    <glyph glyph-name="uni0496" unicode="&#x496;" horiz-adv-x="1835" 
d="M1660 0h-121l-376 676l-149 -133v-463l152 -27v-53h-477v53l132 27v463l-147 133l-378 -676h-296v53l121 27l430 736l-364 446l-136 26v53h352v-53l-84 -26l502 -626v626l-132 26v53h457v-53l-132 -26v-626l502 626l-84 26v53h352v-53l-136 -26l-364 -446l430 -736
l121 -27v-49h1l-15 -425h-65z" />
    <glyph glyph-name="uni0497" unicode="&#x497;" horiz-adv-x="1415" 
d="M1245 0h-43l-288 473l-128 -102v-301l84 -25v-45h-325v45l85 25v301l-128 102l-288 -473h-222v45l76 23l330 519l-254 285l-101 23v45h306v-45l-88 -27l369 -414v416l-85 25v45h325v-45l-84 -25v-416l369 414l-88 27v45h306v-45l-101 -23l-254 -285l330 -519l76 -23v-45
h-3l-15 -421h-65z" />
    <glyph glyph-name="uni049A" unicode="&#x49a;" horiz-adv-x="1366" 
d="M1195 0h-160l-440 670l-171 -153v-437l192 -27v-53h-557v53l172 27v1182l-172 26v53h537v-53l-172 -26v-637l599 637l-128 26v53h420v-53l-155 -26l-425 -452l493 -730l145 -27v-53h-2l-15 -421h-65z" />
    <glyph glyph-name="uni049B" unicode="&#x49b;" horiz-adv-x="995" 
d="M818 0h-196v45l86 25l-258 405l-122 -104v-301l114 -25v-45h-405v45l125 25v800l-125 25v45h405v-45l-114 -25v-416l384 414l-98 27v45h332v-45l-117 -23l-268 -274l344 -530l92 -23v-45h-3l-15 -421h-65z" />
    <glyph glyph-name="uni04A2" unicode="&#x4a2;" horiz-adv-x="1479" 
d="M1241 0h-358v53l172 27v565h-631v-565l172 -27v-53h-537v53l172 27v1182l-172 26v53h537v-53l-172 -26v-527h631v527l-172 26v53h536v-53l-172 -26v-1182l172 -27v-53h-2l-15 -421h-65z" />
    <glyph glyph-name="uni04A3" unicode="&#x4a3;" horiz-adv-x="1096" 
d="M874 0h-231v45l125 25v369h-440v-369l114 -25v-45h-405v45l125 25v800l-125 25v45h405v-45l-114 -25v-348h440v348l-125 25v45h405v-45l-114 -25v-800l114 -25v-41h2l-15 -425h-65z" />
    <glyph glyph-name="uni04AE" unicode="&#x4ae;" horiz-adv-x="1479" 
d="M838 528v-448l213 -27v-53h-619v53l213 27v442l-471 740l-151 26v53h567v-53l-180 -26l385 -619l366 619l-170 26v53h436v-53l-147 -26z" />
    <glyph glyph-name="uni04AF" unicode="&#x4af;" 
d="M1021 900q-59 0 -87 -23q-44 -36 -83 -132l-256 -615v-302q0 -114 11 -143q8 -22 34 -38q36 -22 85 -22h41v-41h-515v41h32q118 0 137 83q4 18 4 120v283l-263 645q-29 74 -56 102q-39 41 -105 42v38h442v-38q-121 -8 -121 -62q0 -15 15 -59l217 -560l216 545
q18 50 18 75q0 21 -21 41q-14 14 -64 17q-7 1 -27 3v38h346v-38z" />
    <glyph glyph-name="uni04B0" unicode="&#x4b0;" horiz-adv-x="1479" 
d="M645 419v103l-471 740l-151 26v53h567v-53l-180 -26l385 -619l366 619l-170 26v53h436v-53l-147 -26l-442 -734v-109h227v-84h-227v-255l213 -27v-53h-619v53l213 27v255h-255v84h255z" />
    <glyph glyph-name="uni04B1" unicode="&#x4b1;" 
d="M1023 22h-426v-194q0 -114 11 -143q8 -22 34 -38q36 -22 85 -22h41v-41h-515v41h32q118 0 137 83q4 18 4 120v194h-424v73h424v16l-263 645q-29 74 -56 102q-39 41 -105 42v38h442v-38q-121 -8 -121 -62q0 -15 15 -59l217 -559l216 544q18 50 18 75q0 21 -21 41
q-14 14 -64 17q-7 1 -27 3v38h346v-38q-59 0 -87 -23q-44 -36 -83 -132l-256 -615v-35h426v-73z" />
    <glyph glyph-name="uni04B2" unicode="&#x4b2;" horiz-adv-x="1479" 
d="M1362 -421h65l15 421v53l-152 27l-461 680l377 502l148 26v53h-439v-53l166 -26l-311 -414l-278 414l170 26v53h-553v-53l151 -26l389 -576l-456 -606l-148 -27v-53h438v53l-166 27l390 520l352 -520l-170 -27v-53h377z" />
    <glyph glyph-name="uni04B3" unicode="&#x4b3;" 
d="M821 0h-248v45l125 23l-217 333l-254 -335l129 -21v-45h-338v45l109 16l309 408l-272 401l-111 25v45h426v-45l-125 -27l181 -270l208 272l-129 25v45h338v-45l-108 -21l-264 -342l309 -466l110 -21v-45h-2l-15 -421h-65z" />
    <glyph glyph-name="uni04BA" unicode="&#x4ba;" horiz-adv-x="1331" 
d="M1337 0h-586v37q164 0 187 76q11 36 11 139v188q0 111 -6 149q-15 89 -70 124q-45 29 -117 29q-150 0 -331 -82v-408q0 -92 5 -114q12 -62 66 -83q43 -17 125 -18v-37h-584v37q154 2 182 70q14 35 14 145v852q0 89 -5 115q-14 64 -67 83q-38 14 -124 17v37h584v-37
q-68 -2 -102 -10q-59 -15 -79 -57q-15 -32 -15 -148v-364q252 113 411 113q90 0 168 -34q94 -40 119 -115q18 -54 18 -222v-230q0 -90 5 -115q14 -61 68 -82q45 -17 123 -18v-37z" />
    <glyph glyph-name="uni04BB" unicode="&#x4bb;" 
d="M326 1014q0 -14 -0.5 -34t-1 -41.5t-2 -41.5t-3.5 -33q28 16 68 34t83.5 33t87 24.5t79.5 9.5q54 0 99 -15t77.5 -48t51 -86t18.5 -128v-618l114 -25v-45h-405v45l125 25v606q0 83 -40.5 127.5t-125.5 44.5q-28 0 -59.5 -3t-62.5 -7t-58 -9.5t-45 -9.5v-749l127 -25v-45
h-412v45l119 25v1282l-140 24v45h306v-407z" />
    <glyph glyph-name="uni060C" unicode="&#x60c;" horiz-adv-x="701" 
d="M457 516v-35q-74 -24 -123 -78q-52 -57 -52 -131q0 -33 18 -33q9 0 39 16q14 7 31 7q87 0 87 -88q0 -42 -31 -69.5t-74 -27.5q-53 0 -95 47.5t-42 123.5q0 186 242 268z" />
    <glyph glyph-name="uni061B" unicode="&#x61b;" horiz-adv-x="701" 
d="M343 77q-37 0 -63.5 26t-26.5 63t27 63.5t63 26.5q39 0 64.5 -26t25.5 -64q0 -37 -26 -63t-64 -26zM457 962v-35q-74 -24 -123 -78q-52 -57 -52 -131q0 -33 18 -33q9 0 39 16q14 7 31 7q87 0 87 -88q0 -42 -31 -69.5t-74 -27.5q-53 0 -95 47.5t-42 122.5q0 187 242 269z
" />
    <glyph glyph-name="uni061F" unicode="&#x61f;" horiz-adv-x="740" 
d="M634 993q0 -46 -21 -83q-25 -44 -69 -44q-29 0 -46.5 20t-17.5 49q0 21 24 67.5t24 72.5q0 51 -52 81q-45 25 -99 25q-91 0 -143 -70q-47 -63 -47 -155q0 -94 78 -241q63 -118 83 -186q25 -87 25 -169h-33q0 87 -32 152q-27 56 -144 190q-127 143 -127 268q0 87 58 159
q81 97 247 97q113 0 197 -58q95 -65 95 -175zM442 168q0 -38 -26 -64t-65 -26q-38 0 -64.5 26.5t-26.5 63.5q0 38 26.5 64.5t64.5 26.5q39 0 65 -26.5t26 -64.5z" />
    <glyph glyph-name="uni0621" unicode="&#x621;" horiz-adv-x="599" 
d="M531 343q-34 -70 -43 -86q-11 -19 -22 -19q-34 11 -50 11q-89 0 -272 -123q-7 32 -7 49q0 22 7 35q18 31 18 35q0 13 -28.5 53.5t-28.5 72.5q11 18 35 54q109 154 221 154q21 0 52.5 -21t31.5 -41q0 -52 -55 -52q-22 0 -52 10q-9 3 -25 10q-23 0 -58.5 -29.5t-35.5 -51.5
q0 -18 48 -39q56 -25 126 -25q20 0 43 3h95z" />
    <glyph glyph-name="uni0622" unicode="&#x622;" horiz-adv-x="299" 
d="M217 537v-19q0 -125 -12 -212q-21 -158 -82 -208l-28 1133v1q0 23 57 102q17 25 57 76zM451 1713q0 -81 -106 -151q-95 -62 -170 -62q-67 0 -105 14q-7 3 -75 33q-30 0 -61 -41q-65 -87 -71 -93q13 54 42 160q32 104 125 104q30 0 65 -19q82 -42 104 -42q63 0 147 43z
" />
    <glyph glyph-name="uni0623" unicode="&#x623;" horiz-adv-x="299" 
d="M217 537v-19q0 -125 -12 -212q-21 -158 -82 -208l-28 1133v1q0 23 57 102q17 25 57 76zM303 1535q-6 -7 -24 -43q-11 -23 -24 -23q-11 0 -31.5 1.5t-29.5 1.5h-2q-80 0 -191 -89q-3 17 -3 26q0 15 4 26q9 28 9 34q0 17 -12 36q-27 44 -27 59q0 37 81.5 103t120.5 66
q20 0 36 -15.5t16 -36.5q0 -50 -26 -50q-12 0 -36 8t-37 8q-51 0 -79 -74q29 -22 40 -27q24 -12 89 -12h83q5 0 15 1h28z" />
    <glyph glyph-name="uni0624" unicode="&#x624;" horiz-adv-x="599" 
d="M517 326q0 -139 -44 -260q-49 -138 -144 -216q-107 -89 -259 -89q-94 0 -171 26q-23 7 -125 49q440 0 624 235q62 81 62 146q0 34 -18 72q-67 -85 -145 -85q-100 0 -100 127q0 77 52 176q58 111 119 111q49 0 93 -66q56 -84 56 -226zM395 383q0 51 -74 85
q-25 -47 -32 -65l-16 -39q55 -28 57 -28q17 0 38 11q27 15 27 36zM404 844q-6 -7 -24 -43q-11 -23 -24 -23q-11 0 -31.5 1.5t-29.5 1.5h-2q-80 0 -191 -89q-3 17 -3 26q0 15 4 26q9 28 9 34q0 17 -12 36q-27 44 -27 59q0 37 81.5 103t120.5 66q20 0 36 -15.5t16 -36.5
q0 -50 -26 -50q-12 0 -36 8t-37 8q-51 0 -79 -74q29 -22 40 -27q24 -12 89 -12h83q5 0 15 1h28z" />
    <glyph glyph-name="uni0625" unicode="&#x625;" horiz-adv-x="299" 
d="M217 537v-19q0 -125 -12 -212q-21 -158 -82 -208l-28 1133v1q0 23 57 102q17 25 57 76zM306 -200q-6 -7 -24 -43q-11 -23 -24 -23q-11 0 -31.5 1.5t-29.5 1.5h-2q-80 0 -191 -89q-3 17 -3 26q0 15 4 26q9 28 9 34q0 17 -12 36q-27 44 -27 59q0 37 81.5 103t120.5 66
q20 0 36 -15.5t16 -36.5q0 -50 -26 -50q-12 0 -36 8t-37 8q-51 0 -79 -74q29 -22 40 -27q24 -12 89 -12h83q5 0 15 1h28z" />
    <glyph glyph-name="uni0626" unicode="&#x626;" horiz-adv-x="1119" 
d="M1062 729q0 -44 -18 -79q-43 -89 -47 -100l-35 37q-20 20 -41 20q-32 0 -112 -56q-66 -46 -101 -82q-61 -61 -61 -103q0 -59 100 -77q19 -3 186 -33q100 -32 100 -124q0 -74 -82 -175q-91 -113 -229 -185q-166 -87 -352 -87q-366 0 -366 385q0 80 38 187q44 125 103 152
q-47 -162 -47 -239q0 -279 319 -279q33 0 125 19q128 26 223 65q128 54 165 124q-80 5 -161 10q-111 12 -148 39q-49 36 -49 120q0 105 83 242q72 116 167 200q107 94 188 94q24 0 39 -26q13 -22 13 -49zM508 751q-6 -7 -24 -43q-11 -23 -24 -23q-11 0 -31.5 1.5t-29.5 1.5
h-2q-80 0 -191 -89q-3 17 -3 26q0 15 4 26q9 28 9 34q0 17 -12 36q-27 44 -27 59q0 37 81.5 103t120.5 66q20 0 36 -15.5t16 -36.5q0 -50 -26 -50q-12 0 -36 8t-37 8q-51 0 -79 -74q29 -22 40 -27q24 -12 89 -12h83q5 0 15 1h28z" />
    <glyph glyph-name="uni0627" unicode="&#x627;" horiz-adv-x="299" 
d="M217 537v-19q0 -125 -12 -212q-21 -158 -82 -208l-28 1133v1q0 23 57 102q17 25 57 76z" />
    <glyph glyph-name="uni0628" unicode="&#x628;" horiz-adv-x="1399" 
d="M1318 528q0 -333 -446 -419q-156 -30 -363 -30q-367 0 -462 165q-35 61 -35 149q0 127 140 261q-17 -40 -29 -82q-16 -56 -16 -84q0 -126 197 -187q134 -42 296 -42q171 0 329 35q26 6 87 23q215 63 215 95q0 80 -95 150q16 40 28 72q31 87 41 135q113 -75 113 -241z
M576 -129l126 -126l-126 -124l-126 124z" />
    </font>
</defs>
</svg>
