<?xml version="1.0" standalone="no"?>
<!DOCTYPE svg PUBLIC "-//W3C//DTD SVG 1.1//EN" "http://www.w3.org/Graphics/SVG/1.1/DTD/svg11.dtd" >
<svg xmlns="http://www.w3.org/2000/svg" xmlns:xlink="http://www.w3.org/1999/xlink" version="1.1">
<metadata>
Created by FontForge 20170924 at Thu Feb 12 22:24:31 2004
 By www-data
Uyghur Computer Science Association. Free distributed and all rights reserved. http://www.ukij.org
</metadata>
<defs>
<font id="UKIJKufiTar" horiz-adv-x="1983" >
  <font-face 
    font-family="UKIJ Kufi Tar"
    font-weight="400"
    font-stretch="normal"
    units-per-em="2048"
    panose-1="2 2 6 3 5 4 5 2 3 4"
    ascent="1638"
    descent="-410"
    x-height="897"
    cap-height="1436"
    bbox="-431 -917 3289 2082"
    underline-thickness="180"
    underline-position="-900"
    unicode-range="U+0020-FEFC"
  />
<missing-glyph horiz-adv-x="1620" 
d="M284 118v1313h1051v-1313h-1051zM318 150h984v1247h-984v-1247z" />
    <glyph glyph-name="uni2163" unicode="&#x651;&#x64b;" horiz-adv-x="1931" 
d="M1804 1490q-130 0 -157 -107l-407 -1267l-388 1201q-66 173 -167 173v50h432v-50q-173 0 -124 -149l283 -895l266 846q14 67 35 132.5t-119 65.5v50h346v-50zM273 228v1203q-18 59 -175 59v50h497v-50q-148 0 -175 -50v-1194q19 -48 175 -48v-51h-497v51q157 0 175 30z
" />
    <glyph glyph-name="uni2467" unicode="&#x651;&#x64c;" 
d="M992 1532q220 0 412 -112t302.5 -303t110.5 -412q0 -219 -111 -410t-303 -302t-411 -111q-220 0 -412 111t-303 302t-111 410q0 221 110.5 413t302.5 303t413 111zM992 6q286 0 494 206.5t208 492.5q0 187 -95 350t-257.5 257.5t-349.5 94.5q-290 0 -496 -207t-206 -495
q0 -286 207.5 -492.5t494.5 -206.5zM1118 750q171 -55 171 -234q0 -120 -83.5 -199t-216.5 -79q-134 0 -218 80.5t-84 201.5q0 88 47.5 151.5t127.5 78.5v3q-139 42 -139 185q0 100 72.5 168t190.5 68q120 0 193.5 -69t73.5 -170q0 -135 -135 -182v-3zM989 794
q64 0 106.5 40.5t42.5 100.5q0 63 -44 106t-106 43q-64 0 -106.5 -42.5t-42.5 -99.5q0 -68 44 -108t106 -40zM989 332q79 0 132 51t53 133t-54.5 133.5t-133.5 51.5q-81 0 -132.5 -54t-51.5 -129q0 -80 52 -133t135 -53z" />
    <glyph glyph-name="uni2468" unicode="&#x651;&#x64d;" 
d="M992 1532q220 0 412 -112t302.5 -303t110.5 -412q0 -219 -111 -410t-303 -302t-411 -111q-220 0 -412 111t-303 302t-111 410q0 221 110.5 413t302.5 303t413 111zM992 6q286 0 494 206.5t208 492.5q0 187 -95 350t-257.5 257.5t-349.5 94.5q-290 0 -496 -207t-206 -495
q0 -286 207.5 -492.5t494.5 -206.5zM1188 686q-79 -122 -216 -122q-114 0 -193 83t-79 219q0 135 80.5 221.5t207.5 86.5q128 0 220.5 -98t92.5 -346q0 -246 -81.5 -369t-244.5 -123q-105 0 -174.5 56.5t-84.5 172.5l108 7q25 -142 152 -142q102 0 158.5 93t56.5 261h-3z
M998 664q82 0 131 58t49 148q0 92 -50 153t-127 61q-79 0 -133 -65.5t-54 -157.5q0 -87 53.5 -142t130.5 -55z" />
    <glyph glyph-name="uni2469" unicode="&#x651;&#x64e;" 
d="M992 1532q220 0 412 -112t302.5 -303t110.5 -412q0 -219 -111 -410t-303 -302t-411 -111q-220 0 -412 111t-303 302t-111 410q0 221 110.5 413t302.5 303t413 111zM992 6q286 0 494 206.5t208 492.5q0 187 -95 350t-257.5 257.5t-349.5 94.5q-290 0 -496 -207t-206 -495
q0 -286 207.5 -492.5t494.5 -206.5zM1197 1174q147 0 222 -117.5t75 -351.5q0 -233 -75 -350t-222 -117q-150 0 -225 117t-75 350q0 234 75 351.5t225 117.5zM1197 332q91 0 136.5 93t45.5 280q0 203 -46.5 291t-138.5 88q-90 0 -135.5 -90t-45.5 -289t46.5 -286t137.5 -87z
M785 254h-113v717q-85 -79 -226 -135v108q194 94 266 230h73v-920z" />
    <glyph glyph-name="uni246A" unicode="&#x651;&#x64f;" 
d="M992 1532q220 0 412 -112t302.5 -303t110.5 -412q0 -219 -111 -410t-303 -302t-411 -111q-220 0 -412 111t-303 302t-111 410q0 221 110.5 413t302.5 303t413 111zM992 6q286 0 494 206.5t208 492.5q0 187 -95 350t-257.5 257.5t-349.5 94.5q-290 0 -496 -207t-206 -495
q0 -286 207.5 -492.5t494.5 -206.5zM1329 254h-113v717q-85 -79 -227 -135v108q195 94 267 230h73v-920zM839 254h-111v717q-86 -79 -227 -135v108q193 94 266 230h72v-920z" />
    <glyph glyph-name="uni246B" unicode="&#x651;&#x650;" 
d="M992 1532q220 0 412 -112t302.5 -303t110.5 -412q0 -219 -111 -410t-303 -302t-411 -111q-220 0 -412 111t-303 302t-111 410q0 221 110.5 413t302.5 303t413 111zM992 6q286 0 494 206.5t208 492.5q0 187 -95 350t-257.5 257.5t-349.5 94.5q-290 0 -496 -207t-206 -495
q0 -286 207.5 -492.5t494.5 -206.5zM1490 254h-608q0 78 53.5 156t204.5 201q99 79 165.5 155t66.5 156q0 70 -48.5 116t-123.5 46t-126.5 -47t-51.5 -141l-117 14q11 125 90 194.5t208 69.5q134 0 209.5 -74t75.5 -180q0 -90 -55 -169t-169 -173q-148 -124 -175 -150.5
t-51 -65.5h452v-108zM770 254h-113v717q-85 -79 -227 -135v108q193 94 266 230h74v-920z" />
    <glyph glyph-name="afii64184" unicode="&#xfedf;&#xfee0;&#xfeea;" horiz-adv-x="2053" arabic-form="isolated" 
d="M1218 694q0 -40 -23 -85q-22 -39 -66 -93q-16 14 -59 65q-12 19 -40 53q22 31 35 61t13 55v504q0 64 -31 119q-23 41 -50 63v43q23 0 62 31t58.5 72.5t48.5 71.5q8 10 22 20h30v-980zM1218 -201q0 -120 -60 -199t-150 -79q-92 0 -150.5 78t-58.5 200v55h-701v119
q0 113 30.5 194.5t108.5 147.5q57 48 115 97q71 68 111 126q55 82 55 156v29q0 56 -20.5 102.5t-61.5 78.5v42q24 0 63 31t58.5 72.5t48.5 72.5q9 8 21 21h31v-1030h141v161q0 37 24 83q18 35 60 91q29 -35 56 -68q31 -35 40 -54q-19 -32 -30 -60t-11 -48v-419q0 -56 28 -99
q21 -40 42 -40q20 0 42 37q28 46 28 102v419q0 52 -73 147q-67 85 -134 173q-72 98 -72 156v322q0 63 -33 120q-22 39 -50 62v40q25 0 63 32t58.5 73t47.5 71q9 10 23 22h30v-686q0 -58 71 -154q67 -84 134 -167q75 -97 75 -155v-475zM518 113v288q-23 -39 -86 -93
q-53 -45 -111 -94q-45 -46 -84 -101h281zM1316 1529q74 -102 174 -175l142 -77l-40 -63q-41 -78 -41 -138v-933l24 -14l27 -11l33 -2q42 0 78.5 28.5t69.5 103.5q41 -147 86 -239l77 -141h-630v1661z" />
    <glyph glyph-name="afii62834" unicode="&#xfedf;&#xfe82;" horiz-adv-x="952" arabic-form="isolated" 
 />
    <glyph glyph-name="afii62835" unicode="&#xfee0;&#xfe82;" horiz-adv-x="1033" arabic-form="final" 
 />
    <glyph glyph-name="afii62836" unicode="&#xfedf;&#xfe84;" horiz-adv-x="1704" arabic-form="isolated" 
d="M681 -195l-26 -61q-37 -72 -107 -137q-53 -42 -114 -75.5t-133 -56.5l-159 -2l159 126q36 31 68.5 69t57.5 84v106h-341v376q0 104 56 158q17 19 53 35t100 37l221 61q25 7 68.5 44t96.5 52v-517h126v-246h-126v-53zM460 114q24 32 29 66q0 18 -9 30q-5 17 -17 32
q-21 24 -64 24q-21 0 -35 -5t-27 -17l-19 -29l-8 -39q0 -27 24 -62q21 -25 62 -25q24 0 37 5t27 20zM538 1113q75 72 144 83l-199 -354l-117 -2l-177 254q24 132 144 61l113 -193zM777 -142v246h539v960q0 134 -59 194l-58 34l23 6q129 33 219 115q30 30 126 173l-3 -766
v-962h-787z" />
    <glyph glyph-name="afii62837" unicode="&#xfee0;&#xfe84;" horiz-adv-x="1647" arabic-form="final" 
d="M681 -195l-26 -61q-37 -72 -107 -137q-53 -42 -114 -75.5t-133 -56.5l-159 -2l159 126q36 31 68.5 69t57.5 84v106h-341v376q0 104 56 158q17 19 53 35t100 37l221 61q25 7 68.5 44t96.5 52v-517h126v-246h-126v-53zM460 114q24 32 29 66q0 18 -9 30q-5 17 -17 32
q-21 24 -64 24q-21 0 -35 -5t-27 -17l-19 -29l-8 -39q0 -27 24 -62q21 -25 62 -25q24 0 37 5t27 20zM538 1113q75 72 144 83l-199 -354l-117 -2l-177 254q24 132 144 61l113 -193zM776 -142v246h539v960q0 134 -59 194l-58 34l23 6q129 33 219 115q30 30 126 173l-3 -766
l-1 -716h115v-246h-901z" />
    <glyph glyph-name="afii62838" unicode="&#xfedf;&#xfe88;" horiz-adv-x="1704" arabic-form="isolated" 
d="M681 -195l-26 -61q-37 -72 -107 -137q-53 -42 -114 -75.5t-133 -56.5l-159 -2l159 126q36 31 68.5 69t57.5 84v106h-341v376q0 104 56 158q17 19 53 35t100 37l221 61q25 7 68.5 44t96.5 52v-517h126v-246h-126v-53zM460 114q24 32 29 66q0 18 -9 30q-5 17 -17 32
q-21 24 -64 24q-21 0 -35 -5t-27 -17l-19 -29l-8 -39q0 -27 24 -62q21 -25 62 -25q24 0 37 5t27 20zM777 -142v246h539v960q0 134 -59 194l-58 34l23 6q129 33 219 115q30 30 126 173l-3 -766v-962h-787zM570 1154q27 14 58 14q26 0 38 -6q44 -13 69 -62q13 -34 13 -54
q0 -35 -14 -58q-8 -18 -24 -30l-34 -26q-21 -11 -48 -11q-33 0 -57 15q-36 20 -53 50.5t-17 63.5q0 29 7.5 44.5t22.5 30t39 29.5zM201 1154q28 14 59 14q24 0 37 -6q45 -13 70 -62q13 -34 13 -54q0 -35 -14 -58q-9 -18 -24 -30l-34 -26q-22 -11 -48 -11q-35 0 -58 15
q-37 20 -53 50.5t-16 63.5q0 29 6.5 44.5t22 30t39.5 29.5zM386 1426q26 16 59 16q24 0 36 -8q45 -12 69 -61q15 -35 15 -55q0 -34 -16 -56q-8 -18 -23 -30l-34 -27q-22 -11 -47 -11q-35 0 -58 15q-37 19 -53 50t-16 65q0 29 6.5 44.5t21.5 30t40 27.5z" />
    <glyph glyph-name="afii62839" unicode="&#xfee0;&#xfe88;" horiz-adv-x="1647" arabic-form="final" 
d="M681 -195l-26 -61q-37 -72 -107 -137q-53 -42 -114 -75.5t-133 -56.5l-159 -2l159 126q36 31 68.5 69t57.5 84v106h-341v376q0 104 56 158q17 19 53 35t100 37l221 61q25 7 68.5 44t96.5 52v-517h126v-246h-126v-53zM460 114q24 32 29 66q0 18 -9 30q-5 17 -17 32
q-21 24 -64 24q-21 0 -35 -5t-27 -17l-19 -29l-8 -39q0 -27 24 -62q21 -25 62 -25q24 0 37 5t27 20zM776 -142v246h539v960q0 134 -59 194l-58 34l23 6q129 33 219 115q30 30 126 173l-3 -766l-1 -716h115v-246h-901zM570 1154q27 14 58 14q26 0 38 -6q44 -13 69 -62
q13 -34 13 -54q0 -35 -14 -58q-8 -18 -24 -30l-34 -26q-21 -11 -48 -11q-33 0 -57 15q-36 20 -53 50.5t-17 63.5q0 29 7.5 44.5t22.5 30t39 29.5zM201 1154q28 14 59 14q24 0 37 -6q45 -13 70 -62q13 -34 13 -54q0 -35 -14 -58q-9 -18 -24 -30l-34 -26q-22 -11 -48 -11
q-35 0 -58 15q-37 20 -53 50.5t-16 63.5q0 29 6.5 44.5t22 30t39.5 29.5zM386 1426q26 16 59 16q24 0 36 -8q45 -12 69 -61q15 -35 15 -55q0 -34 -16 -56q-8 -18 -23 -30l-34 -27q-22 -11 -47 -11q-35 0 -58 15q-37 19 -53 50t-16 65q0 29 6.5 44.5t21.5 30t40 27.5z" />
    <glyph glyph-name="afii62840" unicode="&#xfedf;&#xfe8e;" horiz-adv-x="1012" arabic-form="isolated" 
d="M536.5 468.5q11.5 3.5 26.5 10.5q24 23 24 39l1 998h74q12 -98 78 -141t144 -59l-8 -11q-30 -30 -42 -58q-7 -15 -8.5 -28t-1.5 -41v-610q0 -149 -16.5 -235.5t-36.5 -122.5l92 -145q41 -81 41 -181q0 -81 -96 -148q-24 -21 -146 -88q-16 -19 -36 -31l-40 -30
q-26 -22 -54 -54l-24 -28l-13 19q-39 46 -65 69l-41 31l-33 30q-244 144 -244 235q0 52 11 96t31 83q46 81 92 147l-37 120q-17 87 -17 238v611q0 38 -14 72t-38 55l-8 11l69 30l75 30q71 50 80 140h72v-1003l19 -28q27 -26 56 -26q22 0 33.5 3.5zM361 22.5
q-16 -36.5 -16 -66.5q0 -55 29 -91q55 -65 123 -65q28 0 51 8l45 22q64 46 64 123q0 26 -9 50l-21 44q-55 66 -133 66q-24 0 -45 -8l-41 -22q-31 -24 -47 -60.5z" />
    <glyph glyph-name="afii62841" unicode="&#xfee0;&#xfe8e;" horiz-adv-x="1283" arabic-form="final" 
d="M467 911q-12 48 -29 93l-8 14q76 28 106 49q74 53 191 204l-1 -1167h206v973q0 12 -49 117l-50 92q51 0 142.5 70.5t200.5 232.5l4 -741v-744h129v-246h-1237q8 19 36 56l77 104q95 130 119 138q10 -21 35 -36.5t63 -15.5q46 0 67 82l11 75v545v42q0 18 -2 21z" />
    <glyph glyph-name="afii62882" unicode="&#xfc5e;" horiz-adv-x="403" arabic-form="isolated" 
 />
    <glyph glyph-name="afii62883" unicode="&#xfc5f;" horiz-adv-x="381" arabic-form="isolated" 
 />
    <glyph glyph-name="afii62884" unicode="&#xfc60;" horiz-adv-x="381" arabic-form="isolated" 
 />
    <glyph glyph-name="afii57506" unicode="&#x67e;" horiz-adv-x="2357" arabic-form="isolated" 
d="M2229 -164q0 -62 -69.5 -150t-168.5 -109l-13 -9l-26 -29q-23 -31 -40 -40l-9 9l-26 30q-24 34 -36 39q-80 9 -146 82q-36 45 -88 199h-1598q71 24 121 71q33 32 66 101q29 58 72 168q29 -36 70 -61l84 -33h1425l-4 -51l1 -53l3 -35l-2 -30v-28q0 -31 12.5 -51t54.5 -20
q25 0 54 17q40 21 48 58v466q0 19 -15 61l-10 17l-30 48q100 33 128 57q42 31 142 176v-900zM1160 -334q27 16 59 16q25 0 37 -8q44 -12 69 -61q14 -35 14 -55q0 -34 -15 -58q-8 -16 -24 -30l-33 -25q-22 -11 -48 -11q-34 0 -58 15q-36 19 -53 49.5t-17 65.5q0 29 7.5 44.5
t22.5 30t39 27.5zM791 -334q28 16 59 16q24 0 37 -8q45 -12 70 -61q13 -35 13 -55q0 -34 -14 -58q-9 -16 -24 -30l-34 -25q-21 -11 -48 -11q-33 0 -57 15q-38 19 -54 49.5t-16 65.5q0 29 7 44.5t22 30t39 27.5zM973 -654q27 14 58 14q26 0 38 -6q45 -13 69 -62
q13 -34 13 -54q0 -35 -14 -58q-8 -18 -23 -30l-35 -26q-21 -11 -48 -11q-33 0 -56 15q-37 20 -54 50.5t-17 63.5q0 29 7.5 44.5t22.5 30t39 29.5z" />
    <glyph glyph-name="afii62958" unicode="&#x67e;" horiz-adv-x="2389" arabic-form="final" 
d="M2229 -142q-22 0 -32.5 -71t-32.5 -99q-74 -90 -173 -111l-13 -9l-26 -29q-23 -31 -40 -40l-9 9l-26 30q-24 34 -36 39q-80 9 -146 82q-36 45 -88 199h-1598q71 24 121 71q33 32 66 101q29 58 72 168q29 -36 70 -61l84 -33h1425v-193q12 -22 24 -42q22 -33 41 -33
q25 0 54 17q40 21 48 58v466q0 10 -6 29.5t-17 48.5l-32 48l77 30q31 17 51 35q11 10 25 24t37 44l80 116v-648h178v-246h-178zM1160 -334q27 16 59 16q25 0 37 -8q44 -12 69 -61q14 -35 14 -55q0 -34 -15 -58q-8 -16 -24 -30l-33 -25q-22 -11 -48 -11q-34 0 -58 15
q-36 19 -53 49.5t-17 65.5q0 29 7.5 44.5t22.5 30t39 27.5zM791 -334q28 16 59 16q24 0 37 -8q45 -12 70 -61q13 -35 13 -55q0 -34 -14 -58q-9 -16 -24 -30l-34 -25q-21 -11 -48 -11q-33 0 -57 15q-38 19 -54 49.5t-16 65.5q0 29 7 44.5t22 30t39 27.5zM973 -654
q27 14 58 14q26 0 38 -6q45 -13 69 -62q13 -34 13 -54q0 -35 -14 -58q-8 -18 -23 -30l-35 -26q-21 -11 -48 -11q-33 0 -56 15q-37 20 -54 50.5t-17 63.5q0 29 7.5 44.5t22.5 30t39 29.5z" />
    <glyph glyph-name="afii62956" unicode="&#x67e;" horiz-adv-x="899" arabic-form="initial" 
d="M776 -142h-796v246h581v226q-36 24 -59 51l-12 27q82 33 130 96l97 130h59v-776zM474 -341q27 15 58 15q25 0 37 -7q46 -12 70 -61q14 -34 14 -55q0 -34 -15 -57q-9 -18 -23 -30l-35 -26q-22 -11 -48 -11q-34 0 -56 15q-38 19 -54 50t-16 65q0 29 6.5 44.5t21.5 30
t40 27.5zM105 -341q27 15 59 15q25 0 37 -7q45 -12 69 -61q14 -34 14 -55q0 -34 -15 -57q-8 -18 -23 -30l-34 -26q-22 -11 -48 -11q-34 0 -58 15q-36 19 -53 50t-17 65q0 29 7.5 44.5t22.5 30t39 27.5zM287 -662q27 16 59 16q24 0 36 -7q46 -12 70 -61q14 -35 14 -56
q0 -33 -16 -57q-8 -17 -22 -30l-35 -25q-22 -11 -47 -11q-35 0 -58 14q-37 19 -53 50t-16 65q0 29 6.5 44.5t21.5 30t40 27.5z" />
    <glyph glyph-name="afii52957" unicode="&#x67e;" horiz-adv-x="863" arabic-form="medial" 
d="M884 -142h-895v246h582v226l-31 23l-28 29l-12 26l33 17l48 21l12 24l30 31l103 133h59v-530h99v-246zM605 -334q27 16 58 16q26 0 38 -8q44 -12 69 -61q13 -35 13 -55q0 -34 -14 -58q-8 -16 -24 -30l-34 -25q-21 -11 -48 -11q-33 0 -57 15q-36 19 -53 49.5t-17 65.5
q0 29 7.5 44.5t22.5 30t39 27.5zM236 -334q28 16 59 16q24 0 37 -8q45 -12 70 -61q13 -35 13 -55q0 -34 -16 -58q-7 -16 -22 -30l-34 -25q-23 -11 -48 -11q-35 0 -58 15q-37 19 -53 49.5t-16 65.5q0 29 6.5 44.5t21.5 30t40 27.5zM417 -654q28 14 59 14q25 0 37 -6
q45 -13 70 -62q13 -34 13 -54q0 -35 -14 -58q-9 -18 -24 -30l-34 -26q-21 -11 -48 -11q-33 0 -57 15q-36 20 -53 50.5t-17 63.5q0 29 7 44.5t22 30t39 29.5z" />
    <glyph glyph-name="afii57507" unicode="&#x686;" horiz-adv-x="1127" arabic-form="isolated" 
d="M909 -142h-360l-66 1l-60 1q-75 0 -110 -11t-52 -56t-16 -101.5t61 -147t206 -98.5q-125 -124 12 -254q-294 100 -389 242q-89 140 -89 350q0 159 108 236q62 49 224 73l96 5l100 6l-19 93q-21 109 -21 155q0 86 10 170l4 51l7 42q0 59 -59 109q-44 34 -82 34l-45 -12
q-43 -17 -91 -58q-20 72 -57 121q-54 73 -175 161h486q16 0 64 -25q74 -37 120 -108q66 -95 66 -233l-27 -98l-20 -107l-6 -63v-25q0 -128 95 -179q61 -28 225 -28zM875 -232q28 16 59 16q25 0 37 -8q46 -12 70 -61q13 -33 13 -54q0 -35 -14 -57q-9 -18 -23 -30l-35 -27
q-22 -11 -48 -11q-34 0 -56 15q-38 19 -54 50t-16 65q0 29 6.5 44.5t21.5 30t39 27.5zM507 -232q27 16 59 16q25 0 37 -8q44 -12 69 -61q14 -33 14 -54q0 -35 -15 -57q-8 -18 -24 -30l-33 -27q-22 -11 -48 -11q-34 0 -58 15q-36 19 -53 50t-17 65q0 29 7.5 44.5t22.5 30
t39 27.5zM689 -552q27 15 58 15q25 0 37 -7q46 -12 70 -61q14 -35 14 -55q0 -34 -16 -58q-8 -17 -22 -30l-35 -25q-22 -11 -48 -11q-34 0 -57 14q-37 20 -53 50.5t-16 65.5q0 28 6.5 44t21.5 30t40 28z" />
    <glyph glyph-name="afii62961" unicode="&#x686;" horiz-adv-x="1081" arabic-form="final" 
d="M1107 -142h-504l-66 1l-60 1q-75 0 -110 -11t-52 -56t-16 -101.5t61 -147t206 -98.5q-125 -124 12 -254q-294 100 -389 242q-89 140 -89 350q0 159 108 236q62 49 224 73l96 5l100 6l-19 93q-21 109 -21 155q0 86 10 170l4 51l7 42q0 59 -59 109q-44 34 -82 34l-45 -12
q-43 -17 -91 -58q-20 72 -57 121q-54 73 -175 161h486q16 0 64 -25q74 -37 120 -108q66 -95 66 -233l-27 -98l-20 -107l-6 -63v-25q0 -128 95 -179q61 -28 228 -28zM929 -232q28 16 59 16q25 0 37 -8q46 -12 70 -61q13 -33 13 -54q0 -35 -14 -57q-9 -18 -23 -30l-35 -27
q-22 -11 -48 -11q-34 0 -56 15q-38 19 -54 50t-16 65q0 29 6.5 44.5t21.5 30t39 27.5zM561 -232q27 16 59 16q25 0 37 -8q44 -12 69 -61q14 -33 14 -54q0 -35 -15 -57q-8 -18 -24 -30l-33 -27q-22 -11 -48 -11q-34 0 -58 15q-36 19 -53 50t-17 65q0 29 7.5 44.5t22.5 30
t39 27.5zM743 -552q27 15 58 15q25 0 37 -7q46 -12 70 -61q14 -35 14 -55q0 -34 -16 -58q-8 -17 -22 -30l-35 -25q-22 -11 -48 -11q-34 0 -57 14q-37 20 -53 50.5t-16 65.5q0 28 6.5 44t21.5 30t40 28z" />
    <glyph glyph-name="afii62959" unicode="&#x686;" horiz-adv-x="1201" arabic-form="initial" 
d="M0 -142v246h692l-15 72l-11 70l-4 62q0 58 14 126l30 168q7 66 -65 115q-65 38 -96 38l-46 -13q-43 -16 -91 -58q-19 65 -55 114q-55 74 -177 170h486q16 0 64 -27q73 -39 119 -107q66 -97 66 -232l-7 -35q-21 -112 -41 -259l-4 -60q0 -89 66 -125q21 -9 63.5 -14
t108.5 -5l-109 -246h-988zM671 -327q26 15 59 15q24 0 36 -6q45 -14 69 -63q15 -33 15 -54q0 -35 -16 -57q-8 -18 -23 -30l-35 -27q-21 -11 -46 -11q-35 0 -58 16q-37 19 -53.5 49.5t-16.5 64.5q0 29 7 44.5t22 30t40 28.5zM301 -327q28 15 59 15q25 0 37 -6q46 -14 70 -63
q13 -33 13 -54q0 -35 -14 -57q-9 -18 -23 -30l-35 -27q-22 -11 -48 -11q-34 0 -56 16q-38 19 -54 49.5t-16 64.5q0 29 6.5 44.5t21.5 30t39 28.5zM484 -648q27 15 58 15q24 0 36 -7q46 -12 70 -61q14 -34 14 -55q0 -34 -15 -57q-9 -18 -23 -30l-34 -26q-22 -11 -48 -11
q-34 0 -57 14q-37 20 -53.5 51t-16.5 65q0 28 6.5 44t21.5 30t41 28z" />
    <glyph glyph-name="afii62960" unicode="&#x686;" horiz-adv-x="1077" arabic-form="medial" 
d="M0 -142v246h692l-15 72l-11 70l-4 62q0 58 14 126l30 168q7 66 -65 115q-65 38 -96 38l-46 -13q-43 -16 -91 -58q-19 65 -55 114q-55 74 -177 170h486q16 0 64 -27q73 -39 119 -107q66 -97 66 -232l-7 -35q-21 -112 -41 -259l-4 -60q0 -89 66 -125q47 -19 185 -19v-246
h-1110zM671 -327q26 15 59 15q24 0 36 -6q45 -14 69 -63q15 -33 15 -54q0 -35 -16 -57q-8 -18 -23 -30l-35 -27q-21 -11 -46 -11q-35 0 -58 16q-37 19 -53.5 49.5t-16.5 64.5q0 29 7 44.5t22 30t40 28.5zM301 -327q28 15 59 15q25 0 37 -6q46 -14 70 -63q13 -33 13 -54
q0 -35 -14 -57q-9 -18 -23 -30l-35 -27q-22 -11 -48 -11q-34 0 -56 16q-38 19 -54 49.5t-16 64.5q0 29 6.5 44.5t21.5 30t39 28.5zM484 -648q27 15 58 15q24 0 36 -7q46 -12 70 -61q14 -34 14 -55q0 -34 -15 -57q-9 -18 -23 -30l-34 -26q-22 -11 -48 -11q-34 0 -57 14
q-37 20 -53.5 51t-16.5 65q0 28 6.5 44t21.5 30t41 28z" />
    <glyph glyph-name="afii57508" unicode="&#x698;" horiz-adv-x="681" arabic-form="isolated" 
d="M590 -114q0 -200 -128 -342t-321 -142q-17 0 -30 7l-34 15q21 44 101 104q86 66 119 110q57 83 57 213q0 105 -46 173l-105 105q0 23 16 72q29 63 93 92q27 61 63.5 104.5t112.5 52.5l-16 -130q0 -95 30 -122q52 -44 56 -56q32 -76 32 -256zM458 976q27 14 58 14
q26 0 38 -6q44 -13 69 -62q13 -34 13 -54q0 -34 -14 -58q-8 -18 -24 -30l-34 -25q-21 -12 -48 -12q-33 0 -57 16q-36 19 -53 49.5t-17 65.5q0 28 7.5 44t22.5 30t39 28zM89 976q28 14 59 14q25 0 37 -6q45 -13 70 -62q13 -34 13 -54q0 -34 -14 -58q-9 -18 -24 -30l-34 -25
q-22 -12 -48 -12q-34 0 -58 16q-36 19 -52 49.5t-16 65.5q0 28 6.5 44t21.5 30t39 28zM274 1248q26 16 59 16q24 0 36 -7q45 -12 69 -61q15 -34 15 -54q0 -35 -16 -58q-8 -18 -23 -30l-34 -26q-22 -11 -47 -11q-35 0 -58 14q-37 19 -53 50.5t-16 64.5q0 29 6.5 44.5t21.5 30
t40 27.5z" />
    <glyph glyph-name="afii62962" unicode="&#x698;" horiz-adv-x="646" arabic-form="final" 
d="M665 -142h-98q0 -86 -33.5 -165t-94.5 -148q-127 -143 -320 -143q-17 0 -30 7l-34 15q20 44 101 104q86 66 119 110q57 83 57 213q0 105 -47 173l-104 105q0 23 16 72q28 63 93 92q15 37 31 76q11 24 23.5 39t36 24.5t84.5 17.5l-15 -130q0 -95 30 -122q51 -44 56 -56
q-2 -25 0 -38h129v-246zM504 976q27 14 59 14q25 0 37 -6q44 -13 69 -62q14 -34 14 -54q0 -34 -15 -58q-8 -18 -24 -30l-33 -25q-22 -12 -48 -12q-34 0 -58 16q-36 19 -53 49.5t-17 65.5q0 28 7.5 44t22.5 30t39 28zM135 976q28 14 59 14q24 0 37 -6q45 -13 70 -62
q13 -34 13 -54q0 -34 -14 -58q-9 -18 -24 -30l-34 -25q-21 -12 -48 -12q-35 0 -57 16q-38 19 -54 49.5t-16 65.5q0 28 6.5 44t22 30t39.5 28zM320 1248q27 16 59 16q24 0 36 -7q46 -12 70 -61q14 -34 14 -54q0 -35 -16 -58q-8 -18 -22 -30l-35 -26q-22 -11 -47 -11
q-35 0 -58 14q-37 19 -53 50.5t-16 64.5q0 29 6.5 44.5t21.5 30t40 27.5z" />
    <glyph glyph-name="afii57567" unicode="&#x6a9;" horiz-adv-x="1501" arabic-form="isolated" 
 />
    <glyph glyph-name="afii62964" unicode="&#x6a9;" horiz-adv-x="1732" arabic-form="final" 
 />
    <glyph glyph-name="afii52305" unicode="&#x6a9;" horiz-adv-x="946" arabic-form="initial" 
 />
    <glyph glyph-name="afii52306" unicode="&#x6a9;" horiz-adv-x="1248" arabic-form="medial" 
 />
    <glyph glyph-name="afii57509" unicode="&#x6af;" horiz-adv-x="2416" arabic-form="isolated" 
d="M266 484q-3 109 34.5 197.5t175.5 228t59 223t-233 -72.5q9 118 -24 216l-94 42l-43 115q377 61 535 -75l29 -273l169 124q68 -11 12 -119.5t-265.5 -240.5t-354.5 -365zM1917 228h-1410q-89 0 -115 27q-27 30 -27 107q0 180 246 370l160 110q252 154 252 302
q0 50 -27 91q-36 52 -98 52q-38 0 -67.5 -25.5t-66.5 -45.5q0 139 -41 197l-130 91v7h366q167 -11 235 -111q64 -96 64 -256q0 -200 -196 -346l-123 -90q-274 -165 -232 -229h1075q239 0 340 -97q53 -48 98 -181q34 -97 101 -97l-54 -246h-2263q85 98 136 195q60 118 90 118
q27 -17 68 -30l137 -37h1475l49 1h13l6 29q0 32 -30 68z" />
    <glyph glyph-name="afii62967" unicode="&#x6af;" horiz-adv-x="2379" arabic-form="final" 
d="M266 484q-3 109 34.5 197.5t175.5 228t59 223t-233 -72.5q9 118 -24 216l-94 42l-43 115q377 61 535 -75l29 -273l169 124q68 -11 12 -119.5t-265.5 -240.5t-354.5 -365zM1917 228h-1410q-89 0 -115 27q-27 30 -27 107q0 180 246 370l160 110q252 154 252 302
q0 50 -27 91q-36 52 -98 52q-38 0 -67.5 -25.5t-66.5 -45.5q0 139 -41 197l-130 91v7h366q167 -11 235 -111q64 -96 64 -256q0 -200 -196 -346l-123 -90q-274 -165 -232 -229h1075q239 0 340 -97q53 -48 98 -181q34 -97 101 -97h85v-246h-2402q85 98 136 195q60 118 90 118
q27 -17 68 -30l137 -37h1475l49 1h13l6 29q0 32 -30 68z" />
    <glyph glyph-name="afii62965" unicode="&#x6af;" horiz-adv-x="2269" arabic-form="initial" 
d="M1825 579q-31 0 -55 -37q-5 -21 -9 -43.5t-4 -36.5v-16l1 -6l1 -80v-28l4 -30q0 -41 -26 -60q-38 -10 -122 -10h-1385v260l833 1036q12 -96 26 -150q12 -56 30 -84q9 -13 78 -77l44 -36q-14 4 -53 -6l-83 -19q-47 0 -130 -122q-31 -42 -378 -443l-73 -112h1002l10 75
q5 87 61 157.5t161 103.5q8 0 41 54.5t46 56.5l12 -41l20 -27q19 -32 34 -43q83 -27 147 -113q77 -99 77 -193v-651h-2146v246h1895v316q0 70 -29 125q-8 16 -30 34zM188 644q-1 98 26 178t167 235t108 238t-121 73t-159 -202q8 106 -21 195l-86 39l-39 103q342 56 485 -69
q130 -162 9 -325q-323 -410 -369 -465z" />
    <glyph glyph-name="afii62966" unicode="&#x6af;" horiz-adv-x="2200" arabic-form="medial" 
d="M1814 579q-31 0 -55 -37q-5 -21 -9 -43.5t-4 -36.5v-16l1 -6l1 -80v-28l4 -30q0 -41 -26 -60q-38 -10 -122 -10h-1385v260l805 1022q14 -96 27 -149q12 -58 30 -84q8 -15 78 -77l43 -37q-13 5 -53 -5l-81 -19q-48 0 -131 -124q-31 -41 -351 -441l-73 -99h1002l10 75
q5 87 61 157.5t161 103.5q8 0 41 54.5t46 56.5l12 -41l20 -27q19 -32 34 -43q83 -27 147 -113q77 -99 77 -193v-405h96v-246h-2242v246h1895v316q0 70 -29 125q-8 16 -30 34zM177 630q-1 99 26 178.5t167 234.5t108 238.5t-121 73t-159 -202.5q8 106 -21 195l-86 38l-39 105
q342 55 485 -69q130 -163 9 -325q-323 -412 -369 -466z" />
    <glyph glyph-name="afii57555" unicode="&#x6cc;" horiz-adv-x="1671" arabic-form="isolated" 
d="M762 770q357 -672 495 -653q19 -9 30 -9q31 0 77 33l38 30l-1 -27q0 -85 70 -158q63 -67 161 -128h-472q-90 12 -254 258q-16 21 -51 76q-18 29 -141 250t-158 221q-22 0 -47 -38t-25 -53q0 -63 80 -185l120 -202q102 -195 102 -325q0 -68 -36 -156q-44 -109 -126 -175
q-111 -81 -252 -81q-123 0 -227 100q-34 35 -75 100l-2 18v16q0 36 12 67l12 24q30 -19 107 -84t173 -65q78 0 118 70q45 63 45 183q0 102 -100 282l-129 225q-59 104 -59 215t69 191l146 139q26 30 38 72l29 99q60 -47 233 -330z" />
    <glyph glyph-name="afii52364" unicode="&#x6cc;" horiz-adv-x="1247" arabic-form="final" 
d="M744 770q357 -672 495 -666h30l-3 -246h-124q-90 12 -254 258q-16 21 -51 76q-18 29 -141 250t-158 221q-22 0 -47 -38t-25 -53q0 -63 80 -185l120 -202q102 -195 102 -325q0 -68 -36 -156q-44 -109 -126 -175q-111 -81 -252 -81q-123 0 -227 100q-34 35 -75 100l-2 18
v16q0 36 12 67l12 24q30 -19 107 -84t173 -65q78 0 118 70q45 63 45 183q0 102 -100 282l-129 225q-59 104 -59 215t69 191l146 139q26 30 38 72l29 99q60 -47 233 -330z" />
    <glyph glyph-name="afii62885" unicode="&#xfc61;" horiz-adv-x="379" arabic-form="isolated" 
 />
    <glyph glyph-name="afii62886" unicode="&#xfc62;" horiz-adv-x="381" arabic-form="isolated" 
 />
    <glyph glyph-name="afii52399" unicode="&#x621;" horiz-adv-x="825" arabic-form="isolated" 
d="M809 764h-760q38 82 78 123t152 54q-8 48 -8 113q0 110 23 157q53 102 240 213l86 22l-51 -123l80 -154q-95 33 -146 9q-94 -40 -94 -111l5 -30q18 -75 73 -96q37 -9 85 -12t131 30q24 -104 106 -195z" />
    <glyph glyph-name="afii52400" unicode="&#x622;" horiz-adv-x="417" arabic-form="isolated" 
 />
    <glyph glyph-name="afii62753" unicode="&#x622;" horiz-adv-x="558" arabic-form="final" 
 />
    <glyph glyph-name="afii57411" unicode="&#x623;" horiz-adv-x="774" arabic-form="isolated" 
d="M516 1113q74 72 144 83l-199 -354l-118 -2l-176 254q24 132 144 61l112 -193zM684 -195l-23 -61q-23 -40 -48.5 -73t-63.5 -64q-48 -42 -108 -75.5t-134 -56.5l-161 -2l161 126q70 60 125 153v106h-341v376q0 53 12.5 91.5t42.5 66.5q36 34 155 72l221 61q14 5 35 18
q20 17 32 25q41 35 95 53v-816zM318 117q30 -43 80 -43q24 0 48 13q47 29 47 80q0 30 -13 48q-24 48 -82 48q-14 0 -26 -3t-23 -10q-46 -30 -46 -85q0 -13 2.5 -20t12.5 -28z" />
    <glyph glyph-name="afii62754" unicode="&#x623;" horiz-adv-x="782" arabic-form="final" 
d="M679 -195l-26 -61q-37 -72 -107 -137q-53 -42 -114 -75.5t-133 -56.5l-159 -2l159 126q36 31 68.5 69t57.5 84v106h-341v376q0 104 56 158q17 19 53 35t100 37l221 61q25 7 68.5 44t96.5 52v-517h126v-246h-126v-53zM458 114q24 32 29 66q0 18 -9 30q-5 17 -17 32
q-21 24 -64 24q-21 0 -35 -5t-27 -17l-19 -29l-8 -39q0 -27 24 -62q21 -25 62 -25q24 0 37 5t27 20zM536 1113q75 72 144 83l-199 -354l-117 -2l-177 254q24 132 144 61l113 -193z" />
    <glyph glyph-name="afii57412" unicode="&#x624;" horiz-adv-x="795" arabic-form="isolated" 
d="M580.5 1044q-8.5 -70 -46.5 -119t-83.5 -72t-100.5 -18t-73 33q84 12 133.5 52t50.5 70t-28.5 26.5t-71 4t-66 53.5t-9 105t52 81.5t65.5 24.5t60.5 -6t62.5 -35t46.5 -78.5t7 -121.5zM685 -195l-23 -61q-23 -40 -48.5 -73t-63.5 -64q-48 -42 -108 -75.5t-134 -56.5
l-161 -2l161 126q70 60 125 153v106h-341v376q0 53 12.5 91.5t42.5 66.5q36 34 155 72l221 61q14 5 35 18q20 17 32 25q41 35 95 53v-816zM319 117q30 -43 80 -43q24 0 48 13q47 29 47 80q0 30 -13 48q-24 48 -82 48q-14 0 -26 -3t-23 -10q-46 -30 -46 -85q0 -13 2.5 -20
t12.5 -28z" />
    <glyph glyph-name="afii62755" unicode="&#x624;" horiz-adv-x="803" arabic-form="final" 
d="M549 1068q-8 -70 -46 -119t-83 -71.5t-101 -17t-72 31.5q82 13 132 53.5t50.5 70.5t-29 25.5t-70.5 3.5t-66 54t-9 105t53 81t65 24.5t60 -6t62.5 -35t46 -78.5t7.5 -122zM706 -195l-26 -61q-37 -72 -107 -137q-53 -42 -114 -75.5t-133 -56.5l-159 -2l159 126
q36 31 68.5 69t57.5 84v106h-341v376q0 104 56 158q17 19 53 35t100 37l221 61q25 7 68.5 44t96.5 52v-517h126v-246h-126v-53zM485 114q24 32 29 66q0 18 -9 30q-5 17 -17 32q-21 24 -64 24q-21 0 -35 -5t-27 -17l-19 -29l-8 -39q0 -27 24 -62q21 -25 62 -25q24 0 37 5
t27 20z" />
    <glyph glyph-name="afii57413" unicode="&#x625;" horiz-adv-x="808" arabic-form="isolated" 
d="M718 -195l-23 -61q-23 -40 -49 -73t-63 -64q-48 -42 -108 -75.5t-134 -56.5l-161 -2l161 126q69 60 125 153v106h-341v376q0 53 12.5 91.5t42.5 66.5q36 34 155 72l221 61q14 5 34 18q21 17 33 25q41 35 95 53v-816zM352 117q30 -43 80 -43q24 0 48 13q47 29 47 80
q0 30 -13 48q-24 48 -82 48q-14 0 -26 -3t-23 -10q-46 -30 -46 -85q0 -13 2.5 -20t12.5 -28zM545 1154q27 14 59 14q25 0 37 -6q44 -13 69 -62q14 -34 14 -54q0 -35 -15 -58q-8 -18 -24 -30l-33 -26q-22 -11 -48 -11q-34 0 -58 15q-36 20 -53 50.5t-17 63.5q0 29 7.5 44.5
t22.5 30t39 29.5zM176 1154q28 14 59 14q24 0 37 -6q45 -13 70 -62q13 -34 13 -54q0 -35 -14 -58q-9 -18 -24 -30l-34 -26q-21 -11 -48 -11q-35 0 -57 15q-38 20 -54 50.5t-16 63.5q0 29 6.5 44.5t22 30t39.5 29.5zM361 1426q27 16 59 16q24 0 36 -8q46 -12 70 -61
q14 -35 14 -55q0 -34 -16 -56q-8 -18 -22 -30l-35 -27q-22 -11 -47 -11q-35 0 -58 15q-37 19 -53 50t-16 65q0 29 6.5 44.5t21.5 30t40 27.5z" />
    <glyph glyph-name="afii62756" unicode="&#x625;" horiz-adv-x="812" arabic-form="final" 
d="M715 -195l-26 -61q-37 -72 -107 -137q-53 -42 -114 -75.5t-133 -56.5l-159 -2l159 126q36 31 68.5 69t57.5 84v106h-341v376q0 104 56 158q17 19 53 35t100 37l221 61q25 7 68.5 44t96.5 52v-517h126v-246h-126v-53zM494 114q24 32 29 66q0 18 -9 30q-5 17 -17 32
q-21 24 -64 24q-21 0 -35 -5t-27 -17l-19 -29l-8 -39q0 -27 24 -62q21 -25 62 -25q24 0 37 5t27 20zM568 1154q27 14 58 14q26 0 38 -6q44 -13 69 -62q13 -34 13 -54q0 -35 -14 -58q-8 -18 -24 -30l-34 -26q-21 -11 -48 -11q-33 0 -57 15q-36 20 -53 50.5t-17 63.5
q0 29 7.5 44.5t22.5 30t39 29.5zM199 1154q28 14 59 14q24 0 37 -6q45 -13 70 -62q13 -34 13 -54q0 -35 -14 -58q-9 -18 -24 -30l-34 -26q-22 -11 -48 -11q-35 0 -58 15q-37 20 -53 50.5t-16 63.5q0 29 6.5 44.5t22 30t39.5 29.5zM384 1426q26 16 59 16q24 0 36 -8
q45 -12 69 -61q15 -35 15 -55q0 -34 -16 -56q-8 -18 -23 -30l-34 -27q-22 -11 -47 -11q-35 0 -58 15q-37 19 -53 50t-16 65q0 29 6.5 44.5t21.5 30t40 27.5z" />
    <glyph glyph-name="afii57414" unicode="&#x626;" horiz-adv-x="936" arabic-form="isolated" 
d="M771 -142h-782v246h568l-2 226l3 14q0 16 -53 51l-19 13q101 36 135 71q22 17 96 155h54v-510v-266zM821 764h-760q38 82 78 123t151 54q-8 48 -8 113q0 110 24 157q53 102 240 213l86 22l-53 -123l82 -154q-95 33 -146 9q-95 -40 -95 -111l6 -30q18 -75 72 -96
q38 -9 86 -12t131 30q23 -104 106 -195z" />
    <glyph glyph-name="afii62759" unicode="&#x626;" horiz-adv-x="865" arabic-form="final" 
d="M883 -142h-895v246h582v226l-31 23l-28 29l-12 26l33 17l38 27l22 18l30 31l103 133h59v-530h99v-246zM821 764h-760q39 82 78.5 123t152.5 54q-9 48 -9 113q0 110 23 157q53 102 240 213l86 22l-51 -123l80 -154q-95 33 -146 9q-94 -40 -94 -111l5 -30q18 -75 73 -96
q37 -9 85 -12t131 30q24 -104 106 -195z" />
    <glyph glyph-name="afii62757" unicode="&#x626;" horiz-adv-x="936" arabic-form="initial" 
d="M771 -142h-782v246h568l-2 226l3 14q0 16 -53 51l-19 13q101 36 135 71q22 17 96 155h54v-510v-266zM821 764h-760q38 82 78 123t151 54q-8 48 -8 113q0 110 24 157q53 102 240 213l86 22l-53 -123l82 -154q-95 33 -146 9q-95 -40 -95 -111l6 -30q18 -75 72 -96
q38 -9 86 -12t131 30q23 -104 106 -195z" />
    <glyph glyph-name="afii62758" unicode="&#x626;" horiz-adv-x="865" arabic-form="medial" 
d="M883 -142h-895v246h582v226l-31 23l-28 29l-12 26l33 17l38 27l22 18l30 31l103 133h59v-530h99v-246zM821 764h-760q39 82 78.5 123t152.5 54q-9 48 -9 113q0 110 23 157q53 102 240 213l86 22l-51 -123l80 -154q-95 33 -146 9q-94 -40 -94 -111l5 -30q18 -75 73 -96
q37 -9 85 -12t131 30q24 -104 106 -195z" />
    <glyph glyph-name="afii57415" unicode="&#x627;" horiz-adv-x="800" arabic-form="isolated" 
d="M103 1520q74 -102 174 -176l142 -76l-40 -64q-41 -78 -41 -138v-932l24 -15l27 -11l33 -2q42 0 78.5 29t69.5 103q41 -146 86 -238l77 -142h-630v1662z" />
    <glyph glyph-name="afii62760" unicode="&#x627;" horiz-adv-x="437" arabic-form="final" 
d="M454 -142h-300v1207q0 20 -49 98l-52 72q182 83 214 118l121 162v-1411h66v-246z" />
    <glyph glyph-name="afii57416" unicode="&#x628;" horiz-adv-x="2334" arabic-form="isolated" 
d="M2229 -164q0 -62 -69.5 -150t-168.5 -109l-13 -9l-26 -29q-23 -31 -40 -40l-9 9l-26 30q-24 34 -36 39q-80 9 -146 82q-36 45 -88 199h-1598q71 24 121 71q33 32 66 101q29 58 72 168q29 -36 70 -61l84 -33h1425l-2 -197q0 -31 12.5 -51t54.5 -20q25 0 54 17q40 21 48 58
v466q0 19 -15 61l-10 17l-30 48l77 30q31 17 51 35q11 10 25 24t37 44l80 116v-916zM1025 -333q27 16 59 16q24 0 36 -7q46 -15 70 -62q14 -34 14 -55q0 -33 -15 -56q-9 -18 -23.5 -31.5t-34.5 -24.5t-47 -11q-35 0 -57 14q-39 17 -54 48q-16 29 -16 67q0 29 6.5 43.5
t22 30.5t39.5 28z" />
    <glyph glyph-name="afii62763" unicode="&#x628;" horiz-adv-x="2374" arabic-form="final" 
d="M2229 -142q-22 0 -32.5 -71t-32.5 -99q-74 -90 -173 -111l-13 -9l-26 -29q-23 -31 -40 -40l-9 9l-26 30q-24 34 -36 39q-80 9 -146 82q-36 45 -88 199h-1598q71 24 121 71q33 32 66 101q29 58 72 168q29 -36 70 -61l84 -33h1425v-193q12 -22 24 -42q22 -33 41 -33
q25 0 54 17q40 21 48 58v466q0 10 -6 29.5t-17 48.5l-32 48l77 30q31 17 51 35q11 10 25 24t37 44l80 116v-648h178v-246h-178zM1025 -333q27 16 59 16q24 0 36 -7q46 -15 70 -62q14 -34 14 -55q0 -33 -15 -56q-9 -18 -23.5 -31.5t-34.5 -24.5t-47 -11q-35 0 -57 14
q-39 17 -54 48q-16 29 -16 67q0 29 6.5 43.5t22 30.5t39.5 28z" />
    <glyph glyph-name="afii62761" unicode="&#x628;" horiz-adv-x="916" arabic-form="initial" 
d="M413 -333q26 16 59 16q24 0 36 -7q45 -15 69 -62q15 -34 15 -55q0 -33 -16 -56q-8 -18 -22.5 -31.5t-35 -24.5t-46.5 -11q-35 0 -58 14q-38 17 -54 48q-16 29 -16 67q0 29 7 43.5t22.5 30.5t39.5 28zM796 -142h-796v246h582v226q-37 24 -59 51l-12 27q82 33 130 96
l96 130h59v-776z" />
    <glyph glyph-name="afii62762" unicode="&#x628;" horiz-adv-x="872" arabic-form="medial" 
d="M411 -333q26 16 59 16q24 0 36 -7q45 -15 69 -62q15 -34 15 -55q0 -33 -16 -56q-8 -18 -22.5 -31.5t-35 -24.5t-46.5 -11q-35 0 -58 14q-38 17 -54 48q-16 29 -16 67q0 29 7 43.5t22.5 30.5t39.5 28zM893 -142h-895v246h582v226l-31 23l-28 29l-12 26l33 17l48 21l12 24
l30 31l103 133h59v-530h99v-246z" />
    <glyph glyph-name="afii57417" unicode="&#x629;" horiz-adv-x="815" arabic-form="isolated" 
d="M718 -144h-602l-4 189l-2 143q0 150 155 207l318 78q26 9 62 52q77 92 100 109v-19v-16l-3 -17l-9 -54l-15 -99v-573zM334 116q28 -46 81 -46q25 0 49 14q46 30 46 81q0 26 -14 49q-27 47 -80 47q-28 0 -50 -16q-46 -29 -46 -81q0 -26 14 -48z" />
    <glyph glyph-name="afii62764" unicode="&#x629;" horiz-adv-x="837" arabic-form="final" 
d="M847 -142h-738v315q31 154 118 217t277 63v117q-12 90 -43 131q-5 7 -29 30q114 33 150 69q41 61 98 122l57 -2v-815h87h23v-139v-108zM354 136q29 -44 80 -44q27 0 49 13q47 30 47 80q0 27 -14 49q-27 47 -81 47q-27 0 -50 -15q-44 -29 -44 -82q0 -25 13 -48z" />
    <glyph glyph-name="afii57418" unicode="&#x62a;" horiz-adv-x="2354" arabic-form="isolated" 
d="M2229 -164q0 -62 -69.5 -150t-168.5 -109l-13 -9l-26 -29q-23 -31 -40 -40l-9 9l-26 30q-24 34 -36 39q-80 9 -146 82q-36 45 -88 199h-1598q71 24 121 71q33 32 66 101q29 58 72 168q29 -36 70 -61l84 -33h1425l-4 -51l1 -53l3 -35l-2 -30v-28q0 -31 12.5 -51t54.5 -20
q25 0 54 17q40 21 48 58v466q0 19 -15 61l-10 17l-30 48q100 33 128 57q42 31 142 176v-900zM1178 916q27 14 59 14q24 0 37 -6q44 -13 69 -62q14 -34 14 -54q0 -35 -15 -58q-8 -18 -24 -30l-33 -26q-22 -11 -48 -11q-34 0 -58 16q-37 19 -53.5 49.5t-16.5 64.5q0 29 7.5 45
t22.5 30t39 28zM809 916q28 14 59 14q24 0 36 -6q46 -13 71 -62q13 -34 13 -54q0 -35 -15 -58q-8 -18 -23 -30l-34 -26q-23 -11 -48 -11q-35 0 -57 16q-38 19 -54 49.5t-16 64.5q0 29 6.5 45t21.5 30t40 28z" />
    <glyph glyph-name="afii62767" unicode="&#x62a;" horiz-adv-x="2391" arabic-form="final" 
d="M1178 916q27 14 59 14q24 0 37 -6q44 -13 69 -62q14 -34 14 -54q0 -35 -15 -58q-8 -18 -24 -30l-33 -26q-22 -11 -48 -11q-34 0 -58 16q-37 19 -53.5 49.5t-16.5 64.5q0 29 7.5 45t22.5 30t39 28zM809 916q28 14 59 14q24 0 36 -6q46 -13 71 -62q13 -34 13 -54
q0 -35 -15 -58q-8 -18 -23 -30l-34 -26q-23 -11 -48 -11q-35 0 -57 16q-38 19 -54 49.5t-16 64.5q0 29 6.5 45t21.5 30t40 28zM2229 -142q-22 0 -32.5 -71t-32.5 -99q-74 -90 -173 -111l-13 -9l-26 -29q-23 -31 -40 -40l-9 9l-26 30q-24 34 -36 39q-80 9 -146 82
q-36 45 -88 199h-1598q71 24 121 71q33 32 66 101q29 58 72 168q29 -36 70 -61l84 -33h1425v-193q12 -22 24 -42q22 -33 41 -33q25 0 54 17q40 21 48 58v466q0 10 -6 29.5t-17 48.5l-32 48l77 30q31 17 51 35q11 10 25 24t37 44l80 116v-648h178v-246h-178z" />
    <glyph glyph-name="afii62765" unicode="&#x62a;" horiz-adv-x="921" arabic-form="initial" 
d="M786 -142h-796v246h582v226q-37 24 -59 51l-12 27q82 33 130 96l96 130h59v-776zM548 984q28 15 59 15q25 0 37 -7q46 -12 70 -62q13 -33 13 -54q0 -34 -15 -57q-8 -18 -22 -30l-35 -27q-22 -10 -48 -10q-34 0 -58 15q-36 19 -52.5 50t-16.5 64q0 29 7 44.5t22 30
t39 28.5zM180 984q27 15 58 15q26 0 38 -7q44 -12 69 -62q13 -33 13 -54q0 -34 -14 -57q-8 -18 -24 -30l-34 -27q-21 -10 -48 -10q-33 0 -57 15q-36 19 -53 50t-17 64q0 29 7.5 44.5t22.5 30t39 28.5z" />
    <glyph glyph-name="afii62766" unicode="&#x62a;" horiz-adv-x="857" arabic-form="medial" 
d="M539 984q28 15 59 15q25 0 37 -7q46 -12 70 -62q13 -33 13 -54q0 -34 -15 -57q-8 -18 -22 -30l-35 -27q-22 -10 -48 -10q-34 0 -58 15q-36 19 -52.5 50t-16.5 64q0 29 7 44.5t22 30t39 28.5zM171 984q27 15 58 15q26 0 38 -7q44 -12 69 -62q13 -33 13 -54q0 -34 -14 -57
q-8 -18 -24 -30l-34 -27q-21 -10 -48 -10q-33 0 -57 15q-36 19 -53 50t-17 64q0 29 7.5 44.5t22.5 30t39 28.5zM876 -142h-895v246h582v226l-31 23l-28 29l-12 26l33 17l48 21l12 24l30 31l103 133h59v-530h99v-246z" />
    <glyph glyph-name="afii57419" unicode="&#x62b;" horiz-adv-x="2391" arabic-form="isolated" 
d="M1917 228h-1410q-89 0 -115 27q-27 30 -27 107q0 180 246 370l160 110q252 154 252 302q0 50 -27 91q-36 52 -98 52q-38 0 -67.5 -25.5t-66.5 -45.5q0 139 -41 197l-130 37v61h366q167 -66 235 -111q64 -96 64 -256q0 -200 -196 -346l-123 -90q-274 -165 -232 -229h1075
q239 0 340 -97q53 -48 98 -181q34 -97 101 -97l-54 -246h-2263q85 98 136 195q60 118 90 118q27 -17 68 -30l137 -37h1475l49 1h13l6 29q0 32 -30 68zM546 1142q28 14 59 14q25 0 37 -7q46 -12 70 -61q13 -34 13 -54q0 -35 -14 -58q-9 -18 -23 -30l-35 -26q-21 -11 -48 -11
q-33 0 -56 15q-37 20 -54 50.5t-17 63.5q0 29 7 44.5t22 30t39 29.5zM178 1142q28 14 59 14q25 0 37 -7q44 -12 70 -61q13 -34 13 -54q0 -35 -15 -58q-8 -18 -24 -30l-33 -26q-22 -11 -48 -11q-34 0 -58 15q-36 20 -52.5 50.5t-16.5 63.5q0 29 7 44.5t22 30t39 29.5z
M363 1414q27 16 59 16q24 0 36 -8q45 -12 69 -61q15 -35 15 -55q0 -34 -16 -58q-8 -16 -23 -30l-33 -25q-23 -11 -48 -11q-35 0 -58 15q-37 19 -53.5 49.5t-16.5 65.5q0 29 7 44.5t22 30t40 27.5z" />
    <glyph glyph-name="afii62770" unicode="&#x62b;" horiz-adv-x="2376" arabic-form="final" 
d="M1917 228h-1410q-89 0 -115 27q-27 30 -27 107q0 180 246 370l160 110q252 154 252 302q0 50 -27 91q-36 52 -98 52q-38 0 -67.5 -25.5t-66.5 -45.5q0 139 -41 197l-130 91v7h366q167 -11 235 -111q64 -96 64 -256q0 -200 -196 -346l-123 -90q-274 -165 -232 -229h1075
q239 0 340 -97q53 -48 98 -181q34 -97 101 -97h85v-246h-2402q85 98 136 195q60 118 90 118q27 -17 68 -30l137 -37h1475l49 1h13l6 29q0 32 -30 68zM546 1142q28 14 59 14q25 0 37 -7q46 -12 70 -61q13 -34 13 -54q0 -35 -14 -58q-9 -18 -23 -30l-35 -26q-21 -11 -48 -11
q-33 0 -56 15q-37 20 -54 50.5t-17 63.5q0 29 7 44.5t22 30t39 29.5zM178 1142q28 14 59 14q25 0 37 -7q44 -12 70 -61q13 -34 13 -54q0 -35 -15 -58q-8 -18 -24 -30l-33 -26q-22 -11 -48 -11q-34 0 -58 15q-36 20 -52.5 50.5t-16.5 63.5q0 29 7 44.5t22 30t39 29.5z
M363 1414q27 16 59 16q24 0 36 -8q45 -12 69 -61q15 -35 15 -55q0 -34 -16 -58q-8 -16 -23 -30l-33 -25q-23 -11 -48 -11q-35 0 -58 15q-37 19 -53.5 49.5t-16.5 65.5q0 29 7 44.5t22 30t40 27.5z" />
    <glyph glyph-name="afii62768" unicode="&#x62b;" horiz-adv-x="2362" arabic-form="initial" 
d="M1908 228h-1410q-89 0 -115 27q-27 30 -27 107q0 180 246 370l160 110q252 154 252 302q0 50 -26 91q-36 52 -99 52q-38 0 -67.5 -25.5t-66.5 -45.5q0 139 -41 197l-130 37v61h366q167 -66 236 -111q63 -96 63 -256q0 -200 -195 -346l-124 -90q-274 -165 -232 -229h1076
q238 0 339 -97q53 -48 99 -181l33 -97l13 -246h-2276v246h1919l49 1h13l6 29q0 32 -30 68zM538 1142q27 14 58 14q26 0 38 -7q45 -12 69 -61q13 -34 13 -54q0 -35 -14 -58q-8 -18 -23 -30l-35 -26q-21 -11 -48 -11q-33 0 -56 15q-37 20 -54 50.5t-17 63.5q0 29 7.5 44.5
t22.5 30t39 29.5zM169 1142q28 14 59 14q25 0 37 -7q45 -12 70 -61q13 -34 13 -54q0 -35 -14 -58q-9 -18 -24 -30l-34 -26q-22 -11 -48 -11q-34 0 -58 15q-36 20 -52.5 50.5t-16.5 63.5q0 29 7 44.5t22 30t39 29.5zM354 1414q28 16 59 16q24 0 36 -8q45 -12 69 -61
q15 -35 15 -55q0 -34 -16 -58q-8 -16 -23 -30l-33 -25q-23 -11 -48 -11q-35 0 -58 15q-37 19 -53 49.5t-16 65.5q0 29 6.5 44.5t21.5 30t40 27.5z" />
    <glyph glyph-name="afii62769" unicode="&#x62b;" horiz-adv-x="2364" arabic-form="medial" 
d="M1916 228h-1410q-89 0 -115 27q-27 30 -27 107q0 180 246 370l160 110q252 154 252 302q0 50 -26 91q-36 52 -99 52q-38 0 -67.5 -25.5t-66.5 -45.5q0 139 -41 197l-130 91v7h366q167 -11 236 -111q63 -96 63 -256q0 -200 -195 -346l-124 -90q-274 -165 -232 -229h1076
q238 0 339 -97q53 -48 99 -181q33 -97 100 -97h86v-246h-2416v246h1919l49 1h13l6 29q0 32 -30 68zM546 1142q27 14 58 14q26 0 38 -7q45 -12 69 -61q13 -34 13 -54q0 -35 -14 -58q-8 -18 -23 -30l-35 -26q-21 -11 -48 -11q-33 0 -56 15q-37 20 -54 50.5t-17 63.5
q0 29 7.5 44.5t22.5 30t39 29.5zM177 1142q28 14 59 14q25 0 37 -7q45 -12 70 -61q13 -34 13 -54q0 -35 -14 -58q-9 -18 -24 -30l-34 -26q-22 -11 -48 -11q-34 0 -58 15q-36 20 -52.5 50.5t-16.5 63.5q0 29 7 44.5t22 30t39 29.5zM362 1414q28 16 59 16q24 0 36 -8
q45 -12 69 -61q15 -35 15 -55q0 -34 -16 -58q-8 -16 -23 -30l-33 -25q-23 -11 -48 -11q-35 0 -58 15q-37 19 -53 49.5t-16 65.5q0 29 6.5 44.5t21.5 30t40 27.5z" />
    <glyph glyph-name="afii57420" unicode="&#x62c;" horiz-adv-x="1110" arabic-form="isolated" 
d="M899 -142h-360l-66 1l-60 1q-75 0 -110 -13.5t-35 -62.5q0 -76 36 -130q38 -55 90 -55q36 0 91 24q53 20 79 23l-4 -27q0 -65 113 -156l46 -32l69 -45h-468q-124 0 -195 83q-89 105 -89 315q0 159 108 236q62 49 224 73l96 5l100 6l-19 93q-21 109 -21 155q0 86 10 170
l4 51l7 42q0 59 -59 109q-44 34 -82 34l-45 -12q-43 -17 -91 -58q-20 72 -57 121q-54 73 -175 161h486q16 0 64 -25q74 -37 120 -108q66 -95 66 -233l-27 -98l-20 -107l-6 -63v-25q0 -128 95 -179q61 -28 225 -28zM840 -298q28 14 59 14q24 0 36 -7q45 -14 69 -61
q15 -34 15 -54q0 -35 -16 -58q-7 -18 -21.5 -30.5t-35.5 -24.5t-47 -12q-35 0 -58 16q-38 15 -53 48q-16 27 -16 66q0 29 6.5 43t22 30.5t39.5 29.5z" />
    <glyph glyph-name="afii62773" unicode="&#x62c;" horiz-adv-x="1007" arabic-form="final" 
d="M1030 -142h-500l-66 1l-60 1q-75 0 -110 -13.5t-35 -62.5q0 -76 36 -130q38 -55 90 -55q36 0 91 24q53 20 79 23l-4 -27q0 -65 113 -156l46 -32l69 -45h-468q-124 0 -195 83q-89 105 -89 315q0 159 108 236q62 49 224 73l96 5l100 6l-19 93q-21 109 -21 155q0 86 10 170
l4 51l7 42q0 59 -59 109q-44 34 -82 34l-45 -12q-43 -17 -91 -58q-20 72 -57 121q-54 73 -175 161h486q16 0 64 -25q74 -37 120 -108q66 -95 66 -233l-27 -98l-20 -107l-6 -63v-25q0 -128 95 -179q61 -28 225 -28v-246zM831 -298q28 14 59 14q24 0 36 -7q45 -14 69 -61
q15 -34 15 -54q0 -35 -16 -58q-7 -18 -21.5 -30.5t-35.5 -24.5t-47 -12q-35 0 -58 16q-38 15 -53 48q-16 27 -16 66q0 29 6.5 43t22 30.5t39.5 29.5z" />
    <glyph glyph-name="afii62771" unicode="&#x62c;" horiz-adv-x="1180" arabic-form="initial" 
d="M0 -142v246h692l-15 72l-11 70l-4 62q0 58 14 126l30 168q7 66 -65 115q-65 38 -96 38l-46 -13q-43 -16 -91 -58q-19 65 -55 114q-55 74 -177 170h486q16 0 64 -27q73 -39 119 -107q66 -97 66 -232l-7 -35q-21 -112 -41 -259l-4 -60q0 -89 66 -125q21 -9 63.5 -14
t108.5 -5l-109 -246h-988zM494 -353q28 15 59 15q24 0 37 -7q45 -15 70 -61q13 -35 13 -55q0 -34 -15 -58q-8 -17 -22 -30t-34.5 -24.5t-48.5 -11.5q-35 0 -57 15q-39 16 -53 48q-17 28 -17 67q0 29 6.5 43t23 30.5t38.5 28.5z" />
    <glyph glyph-name="afii62772" unicode="&#x62c;" horiz-adv-x="1077" arabic-form="medial" 
d="M0 -142v246h692l-15 72l-11 70l-4 62q0 58 14 126l30 168q7 66 -65 115q-65 38 -96 38l-46 -13q-43 -16 -91 -58q-19 65 -55 114q-55 74 -177 170h486q16 0 64 -27q73 -39 119 -107q66 -97 66 -232l-7 -35q-21 -112 -41 -259l-4 -60q0 -89 66 -125q47 -19 185 -19v-246
h-1110zM494 -353q28 15 59 15q24 0 37 -7q45 -15 70 -61q13 -35 13 -55q0 -34 -15 -58q-8 -17 -22 -30t-34.5 -24.5t-48.5 -11.5q-35 0 -57 15q-39 16 -53 48q-17 28 -17 67q0 29 6.5 43t23 30.5t38.5 28.5z" />
    <glyph glyph-name="afii57421" unicode="&#x62d;" horiz-adv-x="1110" arabic-form="isolated" 
d="M899 -142h-360l-66 1l-60 1q-75 0 -110 -13.5t-35 -62.5q0 -76 36 -130q38 -55 90 -55q36 0 91 24q53 20 79 23l-4 -27q0 -65 113 -156l46 -32l69 -45h-468q-124 0 -195 83q-89 105 -89 315q0 159 108 236q62 49 224 73l96 5l100 6l-19 93q-21 109 -21 155q0 86 10 170
l4 51l7 42q0 59 -59 109q-44 34 -82 34l-45 -12q-43 -17 -91 -58q-20 72 -57 121q-54 73 -175 161h486q16 0 64 -25q74 -37 120 -108q66 -95 66 -233l-27 -98l-20 -107l-6 -63v-25q0 -128 95 -179q61 -28 225 -28z" />
    <glyph glyph-name="afii62776" unicode="&#x62d;" horiz-adv-x="1007" arabic-form="final" 
d="M1030 -142h-500l-66 1l-60 1q-75 0 -110 -13.5t-35 -62.5q0 -76 36 -130q38 -55 90 -55q36 0 91 24q53 20 79 23l-4 -27q0 -65 113 -156l46 -32l69 -45h-468q-124 0 -195 83q-89 105 -89 315q0 159 108 236q62 49 224 73l96 5l100 6l-19 93q-21 109 -21 155q0 86 10 170
l4 51l7 42q0 59 -59 109q-44 34 -82 34l-45 -12q-43 -17 -91 -58q-20 72 -57 121q-54 73 -175 161h486q16 0 64 -25q74 -37 120 -108q66 -95 66 -233l-27 -98l-20 -107l-6 -63v-25q0 -128 95 -179q61 -28 225 -28v-246z" />
    <glyph glyph-name="afii62774" unicode="&#x62d;" horiz-adv-x="1180" arabic-form="initial" 
d="M0 -142v246h692l-15 72l-11 70l-4 62q0 58 14 126l30 168q7 66 -65 115q-65 38 -96 38l-46 -13q-43 -16 -91 -58q-19 65 -55 114q-55 74 -177 170h486q16 0 64 -27q73 -39 119 -107q66 -97 66 -232l-7 -35q-21 -112 -41 -259l-4 -60q0 -89 66 -125q21 -9 63.5 -14
t108.5 -5l-109 -246h-988z" />
    <glyph glyph-name="afii62775" unicode="&#x62d;" horiz-adv-x="1077" arabic-form="medial" 
d="M0 -142v246h692l-15 72l-11 70l-4 62q0 58 14 126l30 168q7 66 -65 115q-65 38 -96 38l-46 -13q-43 -16 -91 -58q-19 65 -55 114q-55 74 -177 170h486q16 0 64 -27q73 -39 119 -107q66 -97 66 -232l-7 -35q-21 -112 -41 -259l-4 -60q0 -89 66 -125q47 -19 185 -19v-246
h-1110z" />
    <glyph glyph-name="afii57422" unicode="&#x62e;" horiz-adv-x="1165" arabic-form="isolated" 
d="M972 -142h-368l-66 1l-61 1q-73 0 -108.5 -13.5t-35.5 -62.5q0 -76 35 -130q38 -55 91 -55q36 0 91 24q53 20 79 23l-5 -27q0 -65 118 -149l119 -70l-83 -3l-107 -3l-168 -4l-117 -4q-125 0 -197 83q-89 105 -89 315q0 159 108 236q64 49 226 73l96 5l99 6l-19 93
q-20 109 -20 155q0 86 9 170l4 51l7 42q0 59 -59 109q-45 34 -81 34l-46 -12q-43 -17 -91 -58q-19 72 -57 121q-54 73 -176 161h486q17 0 65 -25q73 -37 120 -108q66 -95 66 -233l-27 -98l-20 -107l-7 -63v-25q0 -128 96 -179q61 -28 225 -28zM362 1548q26 15 58 15
q24 0 36 -7q46 -12 70 -62q14 -33 14 -54q0 -34 -15 -57q-9 -18 -23 -30l-35 -27q-21 -10 -47 -10q-34 0 -57 15q-37 19 -53.5 50t-16.5 64q0 29 6.5 44.5t21.5 30t41 28.5z" />
    <glyph glyph-name="afii62779" unicode="&#x62e;" horiz-adv-x="1035" arabic-form="final" 
d="M1051 -142h-500l-66 1l-61 1q-73 0 -108.5 -13.5t-35.5 -62.5q0 -76 35 -130q38 -55 91 -55q36 0 91 24q53 20 79 23l-5 -27q0 -65 118 -149l119 -70l-83 -3l-107 -3l-168 -4l-117 -4q-125 0 -197 83q-89 105 -89 315q0 159 108 236q64 49 226 73l96 5l99 6l-19 93
q-20 109 -20 155q0 86 9 170l4 51l7 42q0 59 -59 109q-45 34 -81 34l-46 -12q-43 -17 -91 -58q-19 72 -57 121q-54 73 -176 161h486q17 0 65 -25q73 -37 120 -108q66 -95 66 -233l-27 -98l-20 -107l-7 -63v-25q0 -128 96 -179q61 -28 225 -28v-246zM309 1548q26 15 58 15
q24 0 36 -7q46 -12 70 -62q14 -33 14 -54q0 -34 -15 -57q-9 -18 -23 -30l-35 -27q-21 -10 -47 -10q-34 0 -57 15q-37 19 -53.5 50t-16.5 64q0 29 6.5 44.5t21.5 30t41 28.5z" />
    <glyph glyph-name="afii62777" unicode="&#x62e;" horiz-adv-x="1178" arabic-form="initial" 
d="M0 -142v246h718l-27 92q-29 107 -29 154v63v27l3 30l5 55q2 26 4.5 42.5t9.5 44.5q0 64 -54 110q-46 33 -85 33l-46 -13q-43 -16 -91 -58q-19 65 -55 114q-55 74 -177 170h486q15 0 68 -22q76 -32 123 -84q69 -74 69 -174v-20q0 -21 -3 -27l-8 -39l-41 -159
q-12 -53 -12 -135q0 -140 60 -177q43 -27 192 -27l-115 -246h-995zM408 1554q28 16 59 16q25 0 37 -7q44 -12 70 -61q13 -35 13 -56q0 -33 -15 -56q-8 -18 -24 -30l-33 -26q-22 -11 -48 -11q-34 0 -58 14q-36 19 -52.5 50t-16.5 65q0 29 7 44.5t22 30t39 27.5z" />
    <glyph glyph-name="afii62778" unicode="&#x62e;" horiz-adv-x="1064" arabic-form="medial" 
d="M0 -142v246h718l-27 92q-29 107 -29 154v63v27l3 30l5 55q2 26 4.5 42.5t9.5 44.5q0 64 -54 110q-46 33 -85 33l-46 -13q-43 -16 -91 -58q-19 65 -55 114q-55 74 -177 170h486q15 0 68 -22q76 -32 123 -84q69 -74 69 -174v-20q0 -21 -3 -27l-8 -39l-41 -159
q-12 -53 -12 -135q0 -140 60 -177q43 -27 192 -27v-246h-1110zM408 1554q28 16 59 16q25 0 37 -7q44 -12 70 -61q13 -35 13 -56q0 -33 -15 -56q-8 -18 -24 -30l-33 -26q-22 -11 -48 -11q-34 0 -58 14q-36 19 -52.5 50t-16.5 65q0 29 7 44.5t22 30t39 27.5z" />
    <glyph glyph-name="afii57423" unicode="&#x62f;" horiz-adv-x="1438" arabic-form="isolated" 
d="M992 532q-62 0 -62 -308h-834v584q31 0 46 -7q19 -6 32 -19l74 -71q22 -13 95 -41q45 -16 45 -47q0 -12 -38 -48q-37 -24 -37 -55q0 -20 7 -32h371q0 116 53 200.5t142 119.5l13 10l38 31q41 41 55 41q10 0 29 -23q45 -54 58 -59q83 -29 155 -124q78 -110 78 -270v-556
h-1208v246h975v132q0 189 -13 243q-12 55 -42 55z" />
    <glyph glyph-name="afii62780" unicode="&#x62f;" horiz-adv-x="1413" arabic-form="final" 
d="M940 532q-61 0 -61 -308h-766v584q31 0 44 -7q20 -6 34 -19l73 -71q22 -13 96 -41q43 -16 43 -47q0 -12 -37 -48q-36 -24 -36 -55q0 -20 6 -32h304q0 116 52.5 200.5t141.5 119.5l13 10l39 31q41 41 54 41q9 0 29 -23q45 -54 58 -59q82 -29 155 -124q78 -110 78 -270
v-310h175v-246h-1314v246h906v132q0 189 -13 243q-13 55 -43 55z" />
    <glyph glyph-name="afii57424" unicode="&#x630;" horiz-adv-x="815" arabic-form="isolated" 
d="M477 1060q-50 -209 -147 -217l1 241q-1 139 -118 180q67 101 154 13q25 198 183 126q-79 -47 -75 -128zM703 -195l-23 -61q-23 -40 -48.5 -73t-63.5 -64q-48 -42 -108 -75.5t-134 -56.5l-161 -2l161 126q70 60 125 153v106h-341v376q0 53 12.5 91.5t42.5 66.5
q36 34 155 72l221 61q14 5 35 18q20 17 32 25q41 35 95 53v-816zM337 117q30 -43 80 -43q24 0 48 13q47 29 47 80q0 30 -13 48q-24 48 -82 48q-14 0 -26 -3t-23 -10q-46 -30 -46 -85q0 -13 2.5 -20t12.5 -28z" />
    <glyph glyph-name="afii62781" unicode="&#x630;" horiz-adv-x="796" arabic-form="final" 
d="M696 -195l-26 -61q-37 -72 -107 -137q-53 -42 -114 -75.5t-133 -56.5l-159 -2l159 126q36 31 68.5 69t57.5 84v106h-341v376q0 104 56 158q17 19 53 35t100 37l221 61q25 7 68.5 44t96.5 52v-517h126v-246h-126v-53zM475 114q24 32 29 66q0 18 -9 30q-5 17 -17 32
q-21 24 -64 24q-21 0 -35 -5t-27 -17l-19 -29l-8 -39q0 -27 24 -62q21 -25 62 -25q24 0 37 5t27 20zM496 1060q-51 -209 -148 -217l1 241q-1 139 -117 180q67 101 153 13q26 198 184 126q-79 -47 -76 -128z" />
    <glyph glyph-name="afii57425" unicode="&#x631;" horiz-adv-x="637" arabic-form="isolated" 
d="M555 -114q0 -200 -127.5 -342t-320.5 -142q-17 0 -30 7l-34 15q20 44 101 104q86 66 119 110q57 83 57 213q0 105 -47 173l-104 105q0 23 16 72q28 63 93 92q27 61 63.5 104.5t111.5 52.5l-15 -130q0 -95 30 -122q51 -44 56 -56q31 -76 31 -256z" />
    <glyph glyph-name="afii62782" unicode="&#x631;" horiz-adv-x="636" arabic-form="final" 
d="M656 -142h-98q0 -86 -33.5 -165t-94.5 -148q-127 -143 -320 -143q-17 0 -30 7l-34 15q20 44 101 104q86 66 119 110q57 83 57 213q0 105 -47 173l-104 105q0 23 16 72q28 63 93 92q15 37 31 76q11 24 23.5 39t36 24.5t84.5 17.5l-15 -130q0 -95 30 -122q51 -44 56 -56
q-2 -25 0 -38h129v-246z" />
    <glyph glyph-name="afii57426" unicode="&#x632;" horiz-adv-x="622" arabic-form="isolated" 
d="M543 -114q0 -200 -127.5 -342t-320.5 -142q-17 0 -30 7l-34 15q20 44 101 104q86 66 119 110q57 83 57 213q0 105 -47 173l-104 105q0 23 16 72q28 63 93 92q27 61 63.5 104.5t111.5 52.5l-15 -130q0 -95 30 -122q51 -44 56 -56q31 -76 31 -256zM207 872q27 15 59 15
q24 0 36 -7q46 -12 70 -61q14 -34 14 -55q0 -34 -15 -57q-9 -18 -23 -30l-35 -26q-22 -11 -47 -11q-35 0 -57 14q-38 20 -54 51t-16 65q0 28 6.5 44t21.5 30t40 28z" />
    <glyph glyph-name="afii62783" unicode="&#x632;" horiz-adv-x="615" arabic-form="final" 
d="M207 872q27 15 59 15q24 0 36 -7q46 -12 70 -61q14 -34 14 -55q0 -34 -15 -57q-9 -18 -23 -30l-35 -26q-22 -11 -47 -11q-35 0 -57 14q-38 20 -54 51t-16 65q0 28 6.5 44t21.5 30t40 28zM641 -142h-98q0 -86 -33.5 -165t-94.5 -148q-127 -143 -320 -143q-17 0 -30 7
l-34 15q20 44 101 104q86 66 119 110q57 83 57 213q0 105 -47 173l-104 105q0 23 16 72q28 63 93 92q15 37 31 76q11 24 23.5 39t36 24.5t84.5 17.5l-15 -130q0 -95 30 -122q51 -44 56 -56q-2 -25 0 -38h129v-246z" />
    <glyph glyph-name="afii57427" unicode="&#x633;" horiz-adv-x="1611" arabic-form="isolated" 
d="M1480 -142h-681q-81 -181 -125 -248q-65 -102 -143 -149q-35 -21 -88 -33.5t-111 -12.5q-91 0 -178 58q-62 43 -128 151v109l102 -54l67 -31q65 -24 137 -24q86 0 143 110q36 87 36 214q0 146 -22 235l-49 141q8 -3 29 -3q45 0 92 43q67 60 151 233h56l-14 -91l-4 -90
l-3 -72q0 -102 12.5 -171t39.5 -69q39 0 65.5 25.5t26.5 66.5q0 70 -17 146l-39 117q0 12 48 21q119 20 183 183h46v-559q83 0 119 28.5t36 103.5q0 84 -31 212q-4 31 -14 55l-18 61q0 20 40 26q115 12 236 228v-960z" />
    <glyph glyph-name="afii62786" unicode="&#x633;" horiz-adv-x="1549" arabic-form="final" 
d="M1564 -142h-788q-81 -181 -125 -248q-65 -102 -143 -149q-35 -21 -88 -33.5t-111 -12.5q-91 0 -178 58q-62 43 -128 151v109l102 -54l67 -31q65 -24 137 -24q86 0 143 110q36 87 36 214q0 146 -22 235l-49 141q8 -3 29 -3q45 0 92 43q67 60 151 233h56l-14 -91l-4 -90
l-3 -72q0 -102 12.5 -171t39.5 -69q39 0 65.5 25.5t26.5 66.5q0 70 -17 146l-39 117q0 12 48 21q119 20 183 183h46v-559q83 0 119 28.5t36 103.5q0 84 -31 212q-4 31 -14 55l-18 61q0 20 40 26q115 12 236 228v-714h107v-246z" />
    <glyph glyph-name="afii62784" unicode="&#x633;" horiz-adv-x="1399" arabic-form="initial" 
d="M-19 -142v246h298l2 38q0 35 -16 91l-37 91q81 21 157 85.5t114 187.5h57q-9 -17 -21 -115l-8 -95l-2 -100q0 -90 10 -136.5t34 -46.5q42 0 75.5 26t33.5 66q0 70 -15 146l-40 117l25 12l79 32q107 37 128 160h44v-559q83 0 118.5 28.5t35.5 101.5q0 92 -30 214
q-4 31 -14 55l-18 61q0 17 42 23q58 0 117 58.5t119 170.5v-958h-1288z" />
    <glyph glyph-name="afii62785" unicode="&#x633;" horiz-adv-x="1424" arabic-form="medial" 
d="M-7 -142v246h298l2 38q0 35 -16 91l-37 91q81 21 157 85.5t114 187.5h57q-9 -17 -21 -115l-8 -95l-2 -100q0 -90 10 -136.5t34 -46.5q42 0 75.5 26t33.5 66q0 70 -15 146l-40 117l25 12l79 32q107 37 128 160h44v-559q83 0 118.5 28.5t35.5 101.5q0 92 -30 214
q-4 31 -14 55l-18 61q0 17 42 23q58 0 117 58.5t119 170.5l-2 -712h164v-246h-1450z" />
    <glyph glyph-name="afii57428" unicode="&#x634;" horiz-adv-x="1577" arabic-form="isolated" 
d="M1457 -142h-681q-81 -181 -125 -248q-65 -102 -143 -149q-35 -21 -88 -33.5t-111 -12.5q-91 0 -178 58q-62 43 -128 151v109l102 -54l67 -31q65 -24 137 -24q86 0 143 110q36 87 36 214q0 146 -22 235l-49 141q24 0 56 13t68 45q30 24 72 83l37 59l39 73h56l-14 -91
l-4 -90l-3 -72q0 -102 12.5 -171t39.5 -69q39 0 65.5 25.5t26.5 66.5q0 70 -17 146l-39 117q6 3 9 5q14 8 30 14q107 16 192 185h46v-559q83 0 119 28.5t36 103.5q0 84 -31 212q-4 31 -14 55l-18 61q0 17 30 23q102 12 246 231v-960zM1129 1154q27 14 58 14q24 0 38 -6
q44 -13 69 -62q13 -34 13 -54q0 -35 -15 -58q-7 -18 -23 -30l-34 -26q-22 -11 -48 -11q-34 0 -57 15q-37 20 -53.5 50.5t-16.5 63.5q0 29 6.5 44.5t21.5 30t41 29.5zM760 1154q27 14 59 14q24 0 36 -6q46 -13 70 -62q14 -34 14 -54q0 -35 -16 -58q-8 -18 -22 -30l-35 -26
q-22 -11 -47 -11q-35 0 -58 15q-37 20 -53 50.5t-16 63.5q0 29 6.5 44.5t21.5 30t40 29.5zM944 1426q27 16 59 16q25 0 37 -8q45 -12 69 -61q14 -35 14 -55q0 -34 -15 -56q-8 -18 -23 -30l-34 -27q-22 -11 -48 -11q-34 0 -58 15q-36 19 -53 50t-17 65q0 29 7.5 44.5t22.5 30
t39 27.5z" />
    <glyph glyph-name="afii62789" unicode="&#x634;" horiz-adv-x="1546" arabic-form="final" 
d="M1129 1154q27 14 58 14q24 0 38 -6q44 -13 69 -62q13 -34 13 -54q0 -35 -15 -58q-7 -18 -23 -30l-34 -26q-22 -11 -48 -11q-34 0 -57 15q-37 20 -53.5 50.5t-16.5 63.5q0 29 6.5 44.5t21.5 30t41 29.5zM760 1154q27 14 59 14q24 0 36 -6q46 -13 70 -62q14 -34 14 -54
q0 -35 -16 -58q-8 -18 -22 -30l-35 -26q-22 -11 -47 -11q-35 0 -58 15q-37 20 -53 50.5t-16 63.5q0 29 6.5 44.5t21.5 30t40 29.5zM944 1426q27 16 59 16q25 0 37 -8q45 -12 69 -61q14 -35 14 -55q0 -34 -15 -56q-8 -18 -23 -30l-34 -27q-22 -11 -48 -11q-34 0 -58 15
q-36 19 -53 50t-17 65q0 29 7.5 44.5t22.5 30t39 27.5zM1564 -142h-788q-81 -181 -125 -248q-65 -102 -143 -149q-35 -21 -88 -33.5t-111 -12.5q-91 0 -178 58q-62 43 -128 151v109l102 -54l67 -31q65 -24 137 -24q86 0 143 110q36 87 36 214q0 146 -22 235l-49 141
q8 -3 29 -3q45 0 92 43q67 60 151 233h56l-14 -91l-4 -90l-3 -72q0 -102 12.5 -171t39.5 -69q39 0 65.5 25.5t26.5 66.5q0 70 -17 146l-39 117q0 12 48 21q119 20 183 183h46v-559q83 0 119 28.5t36 103.5q0 84 -31 212q-4 31 -14 55l-18 61q0 20 40 26q115 12 236 228v-714
h107v-246z" />
    <glyph glyph-name="afii62787" unicode="&#x634;" horiz-adv-x="1386" arabic-form="initial" 
d="M-15 -142v246h298l2 33q0 46 -41 150q-12 34 -8 37q98 36 158 111l109 162h57q-9 -17 -21 -115l-8 -95l-2 -100q0 -90 10 -136.5t34 -46.5q42 0 75.5 26t33.5 66q0 90 -36 185l-29 73q110 20 177 107l69 102h40v-559q83 0 118.5 28.5t35.5 101.5q0 92 -30 214
q-4 31 -14 55l-18 61q78 34 146 105l132 147v-958h-1288zM827 1154q28 14 59 14q24 0 37 -6q45 -13 70 -62q13 -34 13 -54q0 -35 -14 -58q-9 -18 -24 -30l-34 -26q-21 -11 -48 -11q-35 0 -57 15q-38 20 -54 50.5t-16 63.5q0 29 6.5 44.5t22 30t39.5 29.5zM459 1154
q28 14 59 14q24 0 36 -6q45 -13 69 -62q15 -34 15 -54q0 -35 -16 -58q-7 -18 -23 -30l-33 -26q-23 -11 -48 -11q-35 0 -58 15q-37 20 -53 50.5t-16 63.5q0 29 6.5 44.5t21.5 30t40 29.5zM643 1426q27 16 58 16q26 0 38 -8q45 -12 69 -61q13 -35 13 -55q0 -34 -14 -56
q-8 -18 -23 -30l-35 -27q-21 -11 -48 -11q-33 0 -56 15q-37 19 -53.5 50t-16.5 65q0 29 7 44.5t22 30t39 27.5z" />
    <glyph glyph-name="afii62788" unicode="&#x634;" horiz-adv-x="1409" arabic-form="medial" 
d="M824 1154q27 14 59 14q24 0 36 -6q46 -13 70 -62q14 -34 14 -54q0 -35 -15 -58q-9 -18 -23 -30l-35 -26q-22 -11 -47 -11q-35 0 -57 15q-38 20 -54 50.5t-16 63.5q0 29 6.5 44.5t21.5 30t40 29.5zM455 1154q27 14 59 14q25 0 37 -6q45 -13 69 -62q15 -34 15 -54
q0 -35 -16 -58q-8 -18 -23 -30l-34 -26q-22 -11 -48 -11q-34 0 -57 15q-37 20 -53 50.5t-16 63.5q0 29 6.5 44.5t21.5 30t39 29.5zM640 1426q27 16 58 16q24 0 38 -8q44 -12 69 -61q13 -35 13 -55q0 -34 -14 -56q-8 -18 -24 -30l-34 -27q-21 -11 -48 -11q-33 0 -57 15
q-37 19 -53.5 50t-16.5 65q0 29 7.5 44.5t22.5 30t39 27.5zM-18 -142v246h298l2 38q0 35 -17 91l-36 91q81 21 157 85.5t114 187.5h57q-9 -17 -21 -115l-8 -95l-4 -100q0 -90 11 -136.5t35 -46.5q41 0 75 26t34 66q0 70 -17 146l-39 117l26 12l79 32q107 37 128 160h43v-559
q84 0 119.5 28.5t35.5 101.5q0 92 -30 214q-5 31 -15 55l-17 61q0 17 42 23q58 0 117 58.5t119 170.5l-3 -712h165v-246h-1450z" />
    <glyph glyph-name="afii57429" unicode="&#x635;" horiz-adv-x="1671" arabic-form="isolated" 
d="M762 770q357 -672 495 -653q19 -9 30 -9q31 0 77 33l38 30l-1 -27q0 -85 70 -158q63 -67 161 -128h-472q-90 12 -254 258q-16 21 -51 76q-18 29 -141 250t-158 221q-22 0 -47 -38t-25 -53q0 -63 80 -185l120 -202q102 -195 102 -325q0 -68 -36 -156q-44 -109 -126 -175
q-111 -81 -252 -81q-123 0 -227 100q-34 35 -75 100l-2 18v16q0 36 12 67l12 24q30 -19 107 -84t173 -65q78 0 118 70q45 63 45 183q0 102 -100 282l-129 225q-59 104 -59 215t69 191l146 139q26 30 38 72l29 99q60 -47 233 -330z" />
    <glyph glyph-name="afii62792" unicode="&#x635;" horiz-adv-x="1247" arabic-form="final" 
d="M744 770q357 -672 495 -666h30l-3 -246h-124q-90 12 -254 258q-16 21 -51 76q-18 29 -141 250t-158 221q-22 0 -47 -38t-25 -53q0 -63 80 -185l120 -202q102 -195 102 -325q0 -68 -36 -156q-44 -109 -126 -175q-111 -81 -252 -81q-123 0 -227 100q-34 35 -75 100l-2 18
v16q0 36 12 67l12 24q30 -19 107 -84t173 -65q78 0 118 70q45 63 45 183q0 102 -100 282l-129 225q-59 104 -59 215t69 191l146 139q26 30 38 72l29 99q60 -47 233 -330z" />
    <glyph glyph-name="afii62790" unicode="&#x635;" horiz-adv-x="936" arabic-form="initial" 
d="M818 -142h-823v246h608v226q0 36 -18 56l-45 22q0 21 99.5 70t125.5 156h53v-510v-101v-165z" />
    <glyph glyph-name="afii62791" unicode="&#x635;" horiz-adv-x="854" arabic-form="medial" 
d="M865 -142h-895v246h582v226l-31 23l-28 29l-12 26l33 17l32 23l28 22l30 31l103 133h59v-530h99v-246z" />
    <glyph glyph-name="afii57430" unicode="&#x636;" horiz-adv-x="1652" arabic-form="isolated" 
d="M762 770q357 -672 495 -653q19 -9 30 -9q31 0 77 33l38 30l-1 -27q0 -85 70 -158q63 -67 161 -128h-472q-90 12 -254 258q-16 21 -51 76q-18 29 -141 250t-158 221q-22 0 -47 -38t-25 -53q0 -63 80 -185l120 -202q102 -195 102 -325q0 -68 -36 -156q-44 -109 -126 -175
q-111 -81 -252 -81q-123 0 -227 100q-34 35 -75 100l-2 18v16q0 36 12 67l12 24q30 -19 107 -84t173 -65q78 0 118 70q45 63 45 183q0 102 -100 282l-129 225q-59 104 -59 215t69 191l146 139q26 30 38 72l29 99q60 -47 233 -330zM1002 -645q27 15 58 15q24 0 36 -6
q46 -16 70 -63q14 -33 14 -54q0 -33 -15 -57q-7 -18 -21.5 -31t-35 -25t-48.5 -12q-34 0 -57 16q-39 17 -53 48q-17 29 -17 67q0 28 6.5 42.5t22.5 31t40 28.5zM1002 -293q27 15 58 15q24 0 36 -7q46 -14 70 -61q14 -34 14 -55q0 -34 -15 -57q-7 -18 -21.5 -31t-35 -24.5
t-48.5 -11.5q-34 0 -57 15q-39 16 -53 48q-17 28 -17 67q0 29 6.5 43t22.5 30.5t40 28.5z" />
    <glyph glyph-name="afii62795" unicode="&#x636;" horiz-adv-x="1244" arabic-form="final" 
d="M984 -645q27 15 58 15q24 0 36 -6q46 -16 70 -63q14 -33 14 -54q0 -33 -15 -57q-7 -18 -21.5 -31t-35 -25t-48.5 -12q-34 0 -57 16q-39 17 -53 48q-17 29 -17 67q0 28 6.5 42.5t22.5 31t40 28.5zM984 -293q27 15 58 15q24 0 36 -7q46 -14 70 -61q14 -34 14 -55
q0 -34 -15 -57q-7 -18 -21.5 -31t-35 -24.5t-48.5 -11.5q-34 0 -57 15q-39 16 -53 48q-17 28 -17 67q0 29 6.5 43t22.5 30.5t40 28.5zM744 770q357 -672 495 -666h30l-9 -246h-118q-90 12 -254 258q-16 21 -51 76q-18 29 -141 250t-158 221q-22 0 -47 -38t-25 -53
q0 -63 80 -185l120 -202q102 -195 102 -325q0 -68 -36 -156q-44 -109 -126 -175q-111 -81 -252 -81q-123 0 -227 100q-34 35 -75 100l-2 18v16q0 36 12 67l12 24q30 -19 107 -84t173 -65q78 0 118 70q45 63 45 183q0 102 -100 282l-129 225q-59 104 -59 215t69 191l146 139
q26 30 38 72l29 99q60 -47 233 -330z" />
    <glyph glyph-name="afii62793" unicode="&#x636;" horiz-adv-x="864" arabic-form="initial" 
d="M398 -684q26 14 59 14q24 0 36 -7q45 -15 69 -61q15 -34 15 -54q0 -35 -16 -58q-8 -18 -22.5 -30.5t-35 -24.5t-46.5 -12q-35 0 -58 15q-38 16 -54 48q-16 28 -16 66q0 29 7 43.5t22.5 30.5t39.5 30zM781 -142h-796v246h582v226q-37 24 -59 51l-12 27q82 33 130 96
l96 130h59v-776zM398 -333q26 16 59 16q24 0 36 -7q45 -15 69 -62q15 -34 15 -55q0 -33 -16 -56q-8 -18 -22.5 -31.5t-35 -24.5t-46.5 -11q-35 0 -58 14q-38 17 -54 48q-16 29 -16 67q0 29 7 43.5t22.5 30.5t39.5 28z" />
    <glyph glyph-name="afii62794" unicode="&#x636;" horiz-adv-x="871" arabic-form="medial" 
d="M399 -672q27 14 58 14q26 0 38 -6q44 -16 69 -61q13 -35 13 -55q0 -34 -14 -58q-8 -18 -22.5 -30.5t-35 -24.5t-48.5 -12q-33 0 -57 15q-37 17 -53 48q-17 29 -17 68q0 27 7.5 41.5t23 31.5t38.5 29zM882 -142h-895v246h581v226l-31 23l-28 29l-12 26l32 17l48 21l14 24
l30 31l103 133h59v-530h99v-246zM399 -333q27 16 58 16q26 0 38 -7q44 -15 69 -62q13 -34 13 -55q0 -33 -14 -56q-8 -18 -22.5 -31.5t-35 -24.5t-48.5 -11q-33 0 -57 14q-37 17 -53 48q-17 29 -17 67q0 29 7.5 43.5t23 30.5t38.5 28z" />
    <glyph glyph-name="afii57431" unicode="&#x637;" horiz-adv-x="1841" arabic-form="isolated" 
d="M447 -142l-10 -16l4 -39q0 -70 36 -122t138 -69q90 0 148.5 58t58.5 152v16l-3 20h-372zM999 -142q-2 -13 -1 -27t5 -28q0 -120 -53 -219q-81 -142 -270 -142l-13 -9l-31 -31q-30 -31 -43 -40q-6 5 -10 9q-11 9 -26 29q-24 37 -34 42q-116 15 -180 88q-58 66 -72 172
l-11 83l-2 73h-257v246h374l30 52l59 111l28 50l13 25l18 28q-74 122 -108 191q-47 111 -32 175q0 126 97 233q155 163 312 54l91 -103l136 144q139 141 71.5 214.5t-263.5 39.5q-137 -32 -191 -65l-58 -35q-9 10 -9 33l8 44l5 35q0 42 -28 77q-27 43 -113 95l-16 61h682
q177 -29 244 -151q19 -41 23.5 -161.5t-135.5 -261t-236 -283.5l194 -310q89 -156 89 -270q0 -7 16 -21l48 -6l98 5q21 0 81 32l48 35q54 -145 116 -217l113 -96h-807zM757 719q-73 107 -100 107q-22 0 -44.5 -32.5t-22.5 -55.5q0 -26 10.5 -64t26.5 -61t33 -51zM746 104
l-39 70l-44 83l-40 -86l-30 -67h153zM1004 104q29 15 38.5 29t18.5 44l-4 33q-8 42 -23 75q-11 35 -25 57l-44 64l-90 125l-94 -156l176 -274z" />
    <glyph glyph-name="afii62798" unicode="&#x637;" horiz-adv-x="1801" arabic-form="final" 
d="M1065 -142h-314q0 -52 12 -98t32 -77q41 -61 117 -61q85 0 121 55q17 25 24.5 74t7.5 107zM913 1036l1 4q7 34 11 40l18 34q36 67 101.5 107.5t148.5 40.5l34 -3q14 0 42 -8q29 -6 62 -25q66 -33 106.5 -99.5t40.5 -150.5q0 -38 -9 -73.5t-27 -66.5q-35 -64 -101 -104
l-37 -16l-32 -15l114 -174l119 -182l153 -241h161v-246h-547q0 -144 -32.5 -229t-95 -134.5t-153.5 -49.5l-44 -41q-41 -42 -51 -42q-8 0 -40.5 37.5t-44.5 45.5q-132 16 -204 143q-53 103 -53 270h-565v246h122h50l112 190l123 208l117 190l-34 27l-30 27q-42 37 -53 60
l-18 31l-12 35l-10 39l-3 43q0 36 7 67.5t11 37.5l18 33q36 66 101 106.5t148 40.5l35 -1q13 0 42 -10q29 -5 61 -24q66 -32 107 -100q20 -31 30 -68zM737 999q-12 32 -40 51.5t-62 19.5l-30 -4q-34 -8 -59 -40q-24 -31 -24 -68l5 -28q8 -36 38 -61l34 -18q15 -3 36 -3
q18 0 32 4q32 9 54.5 39t22.5 68q0 27 -7 40zM1291 1007q-8 29 -38 50.5t-63 21.5q-20 0 -39 -6q-21 -5 -43 -35.5t-22 -63.5q0 -26 6.5 -42.5t36.5 -39.5t64 -23q22 0 38 7q20 4 43 34.5t23 65.5q0 16 -6 31zM918 882l-3 -15q-9 -36 -27 -67q-35 -63 -101 -102l5 -18
l31 -47q52 -66 89 -99q30 26 62 74q41 60 70 90q-18 9 -63 69l-31 46l-18 30l-12 36zM787 372l-83 111l-48 66q-56 -76 -120 -183l-87 -159l-27 -54q-12 -25 -12 -34q3 -2 6 -3q10 -8 21 -11l52 -1h116l32 60l22 33l30 41zM997 104l-32 62l-69 90l-99 -152h200zM1370 207
l-120 199l-45 72l-50 71l-132 -177l14 -28l9 -17l25 -37l118 -186h185q14 0 24.5 3t14.5 18q0 18 -43 82z" />
    <glyph glyph-name="afii62796" unicode="&#x637;" horiz-adv-x="1841" arabic-form="initial" 
d="M447 -142l-10 -16l4 -39q0 -70 36 -122t138 -69q90 0 148.5 58t58.5 152v16l-3 20h-372zM999 -142q-2 -13 -1 -27t5 -28q0 -120 -53 -219q-81 -142 -270 -142l-13 -9l-31 -31q-30 -31 -43 -40q-6 5 -10 9q-11 9 -26 29q-24 37 -34 42q-116 15 -180 88q-58 66 -72 172
l-11 83l-2 73h-257v246h374l30 52l59 111l28 50l13 25l18 28q-74 122 -108 191q-47 111 -32 175q0 126 97 233q155 163 312 54l91 -103l136 144q139 141 71.5 214.5t-263.5 39.5q-137 -32 -191 -65l-58 -35q-9 10 -9 33l8 44l5 35q0 42 -28 77q-27 43 -113 95l-16 61h682
q177 -29 244 -151q19 -41 23.5 -161.5t-135.5 -261t-236 -283.5l194 -310q89 -156 89 -270q0 -7 16 -21l48 -6l98 5q21 0 81 32l48 35q54 -145 116 -217l113 -96h-807zM757 719q-73 107 -100 107q-22 0 -44.5 -32.5t-22.5 -55.5q0 -26 10.5 -64t26.5 -61t33 -51zM746 104
l-39 70l-44 83l-40 -86l-30 -67h153zM1004 104q29 15 38.5 29t18.5 44l-4 33q-8 42 -23 75q-11 35 -25 57l-44 64l-90 125l-94 -156l176 -274z" />
    <glyph glyph-name="afii62797" unicode="&#x637;" horiz-adv-x="1801" arabic-form="medial" 
d="M1065 -142h-314q0 -52 12 -98t32 -77q41 -61 117 -61q85 0 121 55q17 25 24.5 74t7.5 107zM913 1036l1 4q7 34 11 40l18 34q36 67 101.5 107.5t148.5 40.5l34 -3q14 0 42 -8q29 -6 62 -25q66 -33 106.5 -99.5t40.5 -150.5q0 -38 -9 -73.5t-27 -66.5q-35 -64 -101 -104
l-37 -16l-32 -15l114 -174l119 -182l153 -241h161v-246h-547q0 -144 -32.5 -229t-95 -134.5t-153.5 -49.5l-44 -41q-41 -42 -51 -42q-8 0 -40.5 37.5t-44.5 45.5q-132 16 -204 143q-53 103 -53 270h-565v246h122h50l112 190l123 208l117 190l-34 27l-30 27q-42 37 -53 60
l-18 31l-12 35l-10 39l-3 43q0 36 7 67.5t11 37.5l18 33q36 66 101 106.5t148 40.5l35 -1q13 0 42 -10q29 -5 61 -24q66 -32 107 -100q20 -31 30 -68zM737 999q-12 32 -40 51.5t-62 19.5l-30 -4q-34 -8 -59 -40q-24 -31 -24 -68l5 -28q8 -36 38 -61l34 -18q15 -3 36 -3
q18 0 32 4q32 9 54.5 39t22.5 68q0 27 -7 40zM1291 1007q-8 29 -38 50.5t-63 21.5q-20 0 -39 -6q-21 -5 -43 -35.5t-22 -63.5q0 -26 6.5 -42.5t36.5 -39.5t64 -23q22 0 38 7q20 4 43 34.5t23 65.5q0 16 -6 31zM918 882l-3 -15q-9 -36 -27 -67q-35 -63 -101 -102l5 -18
l31 -47q52 -66 89 -99q30 26 62 74q41 60 70 90q-18 9 -63 69l-31 46l-18 30l-12 36zM787 372l-83 111l-48 66q-56 -76 -120 -183l-87 -159l-27 -54q-12 -25 -12 -34q3 -2 6 -3q10 -8 21 -11l52 -1h116l32 60l22 33l30 41zM997 104l-32 62l-69 90l-99 -152h200zM1370 207
l-120 199l-45 72l-50 71l-132 -177l14 -28l9 -17l25 -37l118 -186h185q14 0 24.5 3t14.5 18q0 18 -43 82z" />
    <glyph glyph-name="afii57432" unicode="&#x638;" horiz-adv-x="936" arabic-form="isolated" 
d="M771 -142h-782v246h568l-2 226l3 14q0 16 -53 51l-19 13q101 36 135 71q22 17 96 155h54v-510v-266zM821 764h-760q38 82 78 123t151 54q-8 48 -8 113q0 110 24 157q53 102 240 213l86 22l-53 -123l82 -154q-95 33 -146 9q-95 -40 -95 -111l6 -30q18 -75 72 -96
q38 -9 86 -12t131 30q23 -104 106 -195z" />
    <glyph glyph-name="afii62801" unicode="&#x638;" horiz-adv-x="865" arabic-form="final" 
d="M883 -142h-895v246h582v226l-31 23l-28 29l-12 26l33 17l38 27l22 18l30 31l103 133h59v-530h99v-246zM821 764h-760q39 82 78.5 123t152.5 54q-9 48 -9 113q0 110 23 157q53 102 240 213l86 22l-51 -123l80 -154q-95 33 -146 9q-94 -40 -94 -111l5 -30q18 -75 73 -96
q37 -9 85 -12t131 30q24 -104 106 -195z" />
    <glyph glyph-name="afii62799" unicode="&#x638;" horiz-adv-x="936" arabic-form="initial" 
d="M771 -142h-782v246h568l-2 226l3 14q0 16 -53 51l-19 13q101 36 135 71q22 17 96 155h54v-510v-266zM821 764h-760q38 82 78 123t151 54q-8 48 -8 113q0 110 24 157q53 102 240 213l86 22l-53 -123l82 -154q-95 33 -146 9q-95 -40 -95 -111l6 -30q18 -75 72 -96
q38 -9 86 -12t131 30q23 -104 106 -195z" />
    <glyph glyph-name="afii62800" unicode="&#x638;" horiz-adv-x="865" arabic-form="medial" 
d="M883 -142h-895v246h582v226l-31 23l-28 29l-12 26l33 17l38 27l22 18l30 31l103 133h59v-530h99v-246zM821 764h-760q39 82 78.5 123t152.5 54q-9 48 -9 113q0 110 23 157q53 102 240 213l86 22l-51 -123l80 -154q-95 33 -146 9q-94 -40 -94 -111l5 -30q18 -75 73 -96
q37 -9 85 -12t131 30q24 -104 106 -195z" />
    <glyph glyph-name="afii57433" unicode="&#x639;" horiz-adv-x="1248" arabic-form="isolated" 
d="M499 -264h40h14q54 0 67 7l149 43l-5 -38q0 -66 72 -126l173 -118h-347h-84l-80 -1l-85 1l-68 1q-40 0 -56.5 2t-42.5 9q-112 19 -160 77q-55 63 -55 193q0 210 110 300l184 73l6 53l-1 45l-1 54q0 151 66 247q50 74 206 166l227 198q0 -125 13 -190q4 -16 8.5 -33
t15 -44.5t20.5 -51.5t28 -60q-202 0 -286 -63q-67 -50 -67 -153q0 -82 41 -139q55 -75 168 -75q16 0 93 39t86 36l1 -34q0 -18 6 -32l12 -47l20 -39q42 -83 207 -178h-777h-34q-57 0 -75 -7t-18 -36q0 -51 27 -66t87 -15l39 2h42h14z" />
    <glyph glyph-name="afii62804" unicode="&#x639;" horiz-adv-x="1086" arabic-form="final" 
d="M1132 -142h-533h-58l-60 1q-180 0 -251 -37q-61 -34 -61 -100q0 -69 114 -127l190 -89l-32 -13l-19 -7l-15 1h-22q-203 0 -300 83q-82 70 -82 187q0 132 109 238q117 109 277 109l3 19l3 31q0 19 -6 31l-56 136q-94 215 -164 333l-9 63q232 0 292 42q39 21 103 21
q29 0 148 -38q74 -18 273 -18q5 -46 -68 -248q-17 -53 -35.5 -98.5t-31.5 -75.5q-29 -60 -63 -114v-84h354v-246zM583 519q-33 0 -71.5 -30t-38.5 -57q0 -28 31.5 -59.5t61.5 -31.5q26 0 57.5 33.5t31.5 57.5q0 32 -21 59.5t-51 27.5z" />
    <glyph glyph-name="afii62802" unicode="&#x639;" horiz-adv-x="1170" arabic-form="initial" 
d="M1111 -142h-1116v246l73 -2h67q77 0 88 11q13 4 21.5 22.5t8.5 49.5l-4 70l-2 62q0 84 22 144q28 82 100 154l114 73l75 52l36 28l42 40q45 43 86 98l19 -72q9 -56 9 -110q0 -25 23 -56q50 -74 67 -128l-268 -39q-111 -58 -111 -196q0 -69 76.5 -135t195.5 -66
q23 0 44 21q46 43 74 52l39 -45l99 -116q85 -103 122 -158z" />
    <glyph glyph-name="afii62803" unicode="&#x639;" horiz-adv-x="1128" arabic-form="medial" 
d="M1 -142v246h421l3 15l2 25l-4 23l-46 100l-78 167l-99 216l-8 61q233 0 291 42q30 23 102 23q29 0 148 -39q76 -18 276 -18q0 -23 -7 -43l-25 -84l-83 -210l-84 -208v-70h341v-246h-1150zM597 500q-28 0 -56 -34.5t-28 -65.5q0 -29 28 -55q26 -23 56 -23q24 0 56.5 24.5
t32.5 53.5t-29.5 64.5t-59.5 35.5z" />
    <glyph glyph-name="afii57434" unicode="&#x63a;" horiz-adv-x="1248" arabic-form="isolated" 
d="M499 -264h40h14q54 0 67 7l149 43l-5 -38q0 -66 72 -126l173 -118h-347h-84l-80 -1l-85 1l-68 1q-40 0 -56.5 2t-42.5 9q-112 19 -160 77q-55 63 -55 193q0 210 110 300l184 73l6 53l-1 45l-1 54q0 151 66 247q50 74 206 166l227 198q0 -125 13 -190q4 -16 8.5 -33
t15 -44.5t20.5 -51.5t28 -60q-202 0 -286 -63q-67 -50 -67 -153q0 -82 41 -139q55 -75 168 -75q16 0 93 39t86 36l1 -34q0 -18 6 -32l12 -47l20 -39q42 -83 207 -178h-777h-34q-57 0 -75 -7t-18 -36q0 -51 27 -66t87 -15l39 2h42h14zM503 1316q27 15 58 15q26 0 38 -7
q44 -12 69 -61q13 -35 13 -55q0 -34 -14 -58q-8 -17 -24 -30l-34 -25q-21 -11 -48 -11q-33 0 -57 14q-36 20 -53 50.5t-17 65.5q0 28 7.5 44t22.5 30t39 28z" />
    <glyph glyph-name="afii62807" unicode="&#x63a;" horiz-adv-x="1086" arabic-form="final" 
d="M1132 -142h-533h-58l-60 1q-180 0 -251 -37q-61 -34 -61 -100q0 -69 114 -127l190 -89l-32 -13l-19 -7l-15 1h-22q-203 0 -300 83q-82 70 -82 187q0 132 109 238q117 109 277 109l3 19l3 31q0 19 -6 31l-56 136q-94 215 -164 333l-9 63q232 0 292 42q39 21 103 21
q29 0 148 -38q74 -18 273 -18q5 -46 -68 -248q-17 -53 -35.5 -98.5t-31.5 -75.5q-29 -60 -63 -114v-84h354v-246zM583 519q-33 0 -71.5 -30t-38.5 -57q0 -28 31.5 -59.5t61.5 -31.5q26 0 57.5 33.5t31.5 57.5q0 32 -21 59.5t-51 27.5zM479 1193q28 15 59 15q25 0 37 -6
q45 -14 70 -63q13 -33 13 -54q0 -35 -14 -57q-9 -18 -24 -30l-34 -27q-21 -11 -48 -11q-33 0 -57 16q-36 19 -53 49.5t-17 64.5q0 29 7 44.5t22 30t39 28.5z" />
    <glyph glyph-name="afii62805" unicode="&#x63a;" horiz-adv-x="1170" arabic-form="initial" 
d="M1111 -142h-1116v246l73 -2h67q77 0 88 11q13 4 21.5 22.5t8.5 49.5l-4 70l-2 62q0 84 22 144q28 82 100 154l114 73l75 52l36 28l42 40q45 43 86 98l19 -72q9 -56 9 -110q0 -25 23 -56q50 -74 67 -128l-268 -39q-111 -58 -111 -196q0 -69 76.5 -135t195.5 -66
q23 0 44 21q46 43 74 52l39 -45l99 -116q85 -103 122 -158zM415 1316q28 15 59 15q24 0 36 -7q45 -12 69 -61q15 -35 15 -55q0 -34 -16 -58q-8 -17 -23 -30l-34 -25q-22 -11 -47 -11q-35 0 -58 14q-37 20 -53 50.5t-16 65.5q0 28 6.5 44t21.5 30t40 28z" />
    <glyph glyph-name="afii62806" unicode="&#x63a;" horiz-adv-x="1128" arabic-form="medial" 
d="M518 1221q28 14 59 14q25 0 37 -7q46 -12 70 -61q13 -34 13 -54q0 -35 -14 -58q-9 -18 -23 -30l-35 -26q-22 -11 -48 -11q-34 0 -58 16q-36 19 -52.5 49.5t-16.5 64.5q0 28 7 44t22 30t39 29zM1 -142v246h421l3 15l2 25l-4 23l-46 100l-78 167l-99 216l-8 61
q233 0 291 42q30 23 102 23q29 0 148 -39q76 -18 276 -18q0 -23 -7 -43l-25 -84l-83 -210l-84 -208v-70h341v-246h-1150zM597 500q-28 0 -56 -34.5t-28 -65.5q0 -29 28 -55q26 -23 56 -23q24 0 56.5 24.5t32.5 53.5t-29.5 64.5t-59.5 35.5z" />
    <glyph glyph-name="afii57441" unicode="&#x641;" horiz-adv-x="2494" arabic-form="isolated" 
d="M2102 449q26 30 26 65q0 37 -23 60q-27 29 -67 29q-29 0 -59 -26t-30 -67q0 -32 24 -61q27 -26 64 -26q39 0 65 26zM2343 -186q0 -86 -54 -162t-162 -94l-12 -12l-33 -38q-26 -44 -45 -52l-13 12l-34 37q-32 49 -46 53q-110 12 -171 103q-18 28 -81 197h-1688l112 67
q127 80 182 317q35 -66 59.5 -105t54.5 -39l14 3h1518l-1 -54l-1 -52q0 -79 16 -109q20 -46 79 -46q41 0 65.5 36.5t24.5 88.5v277h-397v208v15q0 11 -4 14v21q0 69 25 139q17 50 40 74q44 53 138 83l203 43q37 4 102 42l109 63v-1130zM1989 1314q27 16 61 16q10 0 23 -2.5
t30 -13.5q18 -8 37 -27l2 -3q9 -15 15 -21q13 -35 13 -55q0 -34 -14 -58q-9 -17 -24 -30l-34 -25q-22 -11 -48 -11q-34 0 -58 14q-36 20 -52.5 50.5t-16.5 65.5q0 28 7 44t21.5 29.5t37.5 26.5zM2140 1287l2 -3l10 -10l12 -23q6 -18 6 -42q0 -25 -14 -54q-11 -28 -41 -48
l-24 -12l-41 -6q-24 0 -30 3l-29 12q-20 11 -43 42l-11 27q-5 11 -7 36l1 30l13 29q17 28 44 45l3 3q28 15 59 15q25 0 37 -7q33 -8 53 -37z" />
    <glyph glyph-name="afii62810" unicode="&#x641;" horiz-adv-x="2429" arabic-form="final" 
d="M2102 449q26 30 26 65q0 37 -23 60q-27 29 -67 29q-29 0 -59 -26t-30 -67q0 -32 24 -61q27 -26 64 -26q39 0 65 26zM2343 -186q0 -86 -54 -162t-162 -94l-12 -12l-33 -38q-26 -44 -45 -52l-13 12l-34 37q-32 49 -46 53q-110 12 -171 103q-18 28 -81 197h-1688l112 67
q127 80 182 317q35 -66 59.5 -105t54.5 -39l14 3h1518l-1 -54l-1 -52q0 -79 16 -109q20 -46 79 -46q41 0 65.5 36.5t24.5 88.5v277h-397v208v15q0 11 -4 14v21q0 69 25 139q17 50 40 74q44 53 138 83l203 43q37 4 102 42l109 63v-843h114v-243h-114v-44zM1989 1314
q27 16 61 16q10 0 23 -2.5t30 -13.5q18 -8 37 -27l2 -3q9 -15 15 -21q13 -35 13 -55q0 -34 -14 -58q-9 -17 -24 -30l-34 -25q-22 -11 -48 -11q-34 0 -58 14q-36 20 -52.5 50.5t-16.5 65.5q0 28 7 44t21.5 29.5t37.5 26.5zM2140 1287l2 -3l10 -10l12 -23q6 -18 6 -42
q0 -25 -14 -54q-11 -28 -41 -48l-24 -12l-41 -6q-24 0 -30 3l-29 12q-20 11 -43 42l-11 27q-5 11 -7 36l1 30l13 29q17 28 44 45l3 3q28 15 59 15q25 0 37 -7q33 -8 53 -37z" />
    <glyph glyph-name="afii62808" unicode="&#x641;" horiz-adv-x="943" arabic-form="initial" 
d="M-22 -142v246h656l-2 72l2 124h-386v416q0 141 166 200q110 34 228 34h15q19 4 79 66q23 27 88 60v-1313l-56 48q-64 47 -107 47h-683zM591 552q27 30 27 66q0 18 -8 32q-3 16 -15 28q-24 28 -65 28q-38 0 -61 -24l-21 -29l-9 -38q0 -27 24 -63q26 -25 63 -25q40 0 65 25
zM454 1316q28 15 59 15q25 0 37 -7q46 -12 70 -61q14 -35 14 -55q0 -34 -15 -58q-9 -17 -23 -30l-35 -25q-21 -11 -48 -11q-33 0 -56 14q-37 20 -53.5 50.5t-16.5 65.5q0 28 6.5 44t21.5 30t39 28z" />
    <glyph glyph-name="afii62809" unicode="&#x641;" horiz-adv-x="909" arabic-form="medial" 
d="M0 -142v246h656l-1 72l1 56h-386v415q0 142 167 201q110 33 228 33h15q20 5 80 66q22 28 86 60v-903h76v-246h-922zM631 479q25 30 25 65q0 18 -6 31q-4 17 -16 29q-23 28 -65 28q-37 0 -61 -23l-21 -29l-9 -38q0 -28 25 -63q25 -26 62 -26q40 0 66 26zM478 1316
q27 15 58 15q26 0 38 -7q44 -12 69 -61q13 -35 13 -55q0 -34 -14 -58q-8 -17 -24 -30l-34 -25q-21 -11 -48 -11q-33 0 -57 14q-36 20 -53 50.5t-17 65.5q0 28 7.5 44t22.5 30t39 28z" />
    <glyph glyph-name="afii57442" unicode="&#x642;" horiz-adv-x="889" arabic-form="isolated" 
d="M754 -168q0 -39 -21 -100q-37 -109 -118 -178q-111 -96 -290 -96q-96 0 -205 77q-68 47 -118 111v100l109 -93q47 -31 139 -31q78 0 159 45q95 54 95 133q0 36 -52.5 48t-145.5 12l-95 -1l-89 -1v86l-1 86l-1 83q0 125 30 190q39 83 150 139l60 26l60 17l52 7l59 3h23
q61 0 90.5 12.5t57.5 46.5h52v-722zM501 107q27 30 27 67q0 33 -26.5 59.5t-65.5 26.5q-34 0 -58 -23l-21 -29l-9 -37q0 -28 25 -64q25 -25 62 -25q40 0 66 25zM531 944q27 14 59 14q24 0 36 -7q46 -12 70 -61q14 -34 14 -54q0 -35 -16 -58q-8 -18 -22 -30l-35 -26
q-22 -11 -47 -11q-35 0 -58 15q-37 20 -53 50.5t-16 63.5q0 29 6.5 44.5t21.5 30t40 29.5zM162 944q27 14 58 14q26 0 38 -7q45 -12 69 -61q13 -34 13 -54q0 -35 -14 -58q-8 -18 -23 -30l-35 -26q-21 -11 -48 -11q-33 0 -56 15q-37 20 -53.5 50.5t-16.5 63.5q0 29 7 44.5
t22 30t39 29.5z" />
    <glyph glyph-name="afii62813" unicode="&#x642;" horiz-adv-x="861" arabic-form="final" 
d="M754 -168q0 -39 -21 -100q-37 -109 -118 -178q-111 -96 -290 -96q-96 0 -205 77q-68 47 -118 111v100l109 -93q47 -31 139 -31q78 0 159 45q95 54 95 133q0 36 -52.5 48t-145.5 12l-95 -1l-89 -1v86l-1 86l-1 83q0 125 30 190q39 83 150 139l60 26l60 17l52 7l59 3h23
q61 0 90.5 12.5t57.5 46.5h52v-450h119v-246h-119v-26zM501 107q27 30 27 67q0 33 -26.5 59.5t-65.5 26.5q-34 0 -58 -23l-21 -29l-9 -37q0 -28 25 -64q25 -25 62 -25q40 0 66 25zM531 944q27 14 59 14q24 0 36 -7q46 -12 70 -61q14 -34 14 -54q0 -35 -16 -58
q-8 -18 -22 -30l-35 -26q-22 -11 -47 -11q-35 0 -58 15q-37 20 -53 50.5t-16 63.5q0 29 6.5 44.5t21.5 30t40 29.5zM162 944q27 14 58 14q26 0 38 -7q45 -12 69 -61q13 -34 13 -54q0 -35 -14 -58q-8 -18 -23 -30l-35 -26q-21 -11 -48 -11q-33 0 -56 15q-37 20 -53.5 50.5
t-16.5 63.5q0 29 7 44.5t22 30t39 29.5z" />
    <glyph glyph-name="afii62811" unicode="&#x642;" horiz-adv-x="965" arabic-form="initial" 
d="M0 -142v246h656l-1 72l1 56h-386v415q0 142 167 201q110 33 228 33h15q20 5 80 66q22 28 86 60v-1149h-846zM625 495q27 30 27 66q0 18 -8 31q-3 17 -16 29q-23 27 -64 27q-38 0 -61 -24l-21 -27l-9 -39q0 -27 24 -63q26 -25 62 -25q40 0 66 25zM626 1373q28 15 59 15
q25 0 37 -6q45 -12 70 -62q13 -34 13 -55q0 -33 -14 -57q-9 -18 -24 -30l-34 -26q-21 -10 -48 -10q-33 0 -57 14q-36 19 -53 49.5t-17 65.5q0 28 7 44t22 30.5t39 27.5zM258 1373q28 15 59 15q24 0 37 -6q44 -12 70 -62q13 -34 13 -55q0 -33 -15 -57q-8 -18 -24 -30l-33 -26
q-22 -10 -48 -10q-34 0 -58 14q-37 19 -53 49.5t-16 65.5q0 28 7 44t22 30.5t39 27.5z" />
    <glyph glyph-name="afii62812" unicode="&#x642;" horiz-adv-x="914" arabic-form="medial" 
d="M626 1373q28 15 59 15q25 0 37 -6q45 -12 70 -62q13 -34 13 -55q0 -33 -14 -57q-9 -18 -24 -30l-34 -26q-21 -10 -48 -10q-33 0 -57 14q-36 19 -53 49.5t-17 65.5q0 28 7 44t22 30.5t39 27.5zM258 1373q28 15 59 15q24 0 37 -6q44 -12 70 -62q13 -34 13 -55
q0 -33 -15 -57q-8 -18 -24 -30l-33 -26q-22 -10 -48 -10q-34 0 -58 14q-37 19 -53 49.5t-16 65.5q0 28 7 44t22 30.5t39 27.5zM0 -142v246h656l-1 72l1 56h-386v415q0 142 167 201q110 33 228 33h15q20 5 80 66q22 28 86 60v-903h76v-246h-922zM631 479q25 30 25 65
q0 18 -6 31q-4 17 -16 29q-23 28 -65 28q-37 0 -61 -23l-21 -29l-9 -38q0 -28 25 -63q25 -26 62 -26q40 0 66 26z" />
    <glyph glyph-name="afii57443" unicode="&#x643;" horiz-adv-x="2411" arabic-form="isolated" 
d="M1917 228h-1410q-89 0 -115 27q-27 30 -27 107q0 180 246 370l160 110q252 154 252 302q0 50 -27 91q-36 52 -98 52q-38 0 -67.5 -25.5t-66.5 -45.5q0 139 -41 197l-130 91v7h366q167 -11 235 -111q64 -96 64 -256q0 -200 -196 -346l-123 -90q-274 -165 -232 -229h1075
q239 0 340 -97q53 -48 98 -181q34 -97 101 -97l-54 -246h-2263q85 98 136 195q60 118 90 118q27 -17 68 -30l137 -37h1475l49 1h13l6 29q0 32 -30 68z" />
    <glyph glyph-name="afii62816" unicode="&#x643;" horiz-adv-x="2376" arabic-form="final" 
d="M1917 228h-1410q-89 0 -115 27q-27 30 -27 107q0 180 246 370l160 110q252 154 252 302q0 50 -27 91q-36 52 -98 52q-38 0 -67.5 -25.5t-66.5 -45.5q0 139 -41 197l-130 91v7h366q167 -11 235 -111q64 -96 64 -256q0 -200 -196 -346l-123 -90q-274 -165 -232 -229h1075
q239 0 340 -97q53 -48 98 -181q34 -97 101 -97h85v-246h-2402q85 98 136 195q60 118 90 118q27 -17 68 -30l137 -37h1475l49 1h13l6 29q0 32 -30 68z" />
    <glyph glyph-name="afii57410" unicode="&#x643;" horiz-adv-x="2286" arabic-form="initial" 
d="M1825 579q-31 0 -55 -37q-5 -21 -9 -43.5t-4 -36.5v-16l1 -6l1 -80v-28l4 -30q0 -41 -26 -60q-38 -10 -122 -10h-1385v260l861 1049q12 -96 25 -149q13 -57 30 -85q8 -13 78 -75l44 -38q-14 4 -54 -6l-81 -19q-48 0 -130 -122q-31 -41 -406 -484l-73 -84h1002l10 75
q5 87 61 157.5t161 103.5q8 0 41 54.5t46 56.5l12 -41l20 -27q19 -32 34 -43q83 -27 147 -113q77 -99 77 -193v-651h-2146v246h1895v316q0 70 -29 125q-8 16 -30 34z" />
    <glyph glyph-name="afii62815" unicode="&#x643;" horiz-adv-x="2200" arabic-form="medial" 
d="M1814 579q-31 0 -55 -37q-5 -21 -9 -43.5t-4 -36.5v-16l1 -6l1 -80v-28l4 -30q0 -41 -26 -60q-38 -10 -122 -10h-1385v260l874 1036q12 -96 26 -150q12 -56 30 -84q9 -13 78 -77l43 -36q-13 4 -52 -6l-83 -19q-47 0 -130 -122q-31 -42 -419 -471l-73 -84h1002l10 75
q5 87 61 157.5t161 103.5q8 0 41 54.5t46 56.5l12 -41l20 -27q19 -32 34 -43q83 -27 147 -113q77 -99 77 -193v-405h96v-246h-2242v246h1895v316q0 70 -29 125q-8 16 -30 34z" />
    <glyph glyph-name="afii57444" unicode="&#x644;" horiz-adv-x="1134" arabic-form="isolated" 
d="M671 -275q53 0 75 47q16 34 16 93l-1 25v27v1215q-12 37 -42 64l-90 43q126 33 235 144q17 20 76 107h56v-1554v-25v-21v-15l-1 -53v-24q-5 -16 -6 -24q0 -29 -6 -54t-18 -58q-58 -172 -227 -172l-14 -15l-20 -27q-19 -36 -33 -44l-3 5l-18 37q-12 34 -21 44
q-124 0 -205 128q-34 58 -53 119q-18 65 -18 121l-201 1l-146 1v51q95 42 163 116q36 37 54 81q3 10 10.5 39t7.5 57q30 -57 73 -85q42 -18 113 -18l66 1l85 2l-3 -38l-4 -89q0 -141 30 -202q27 -50 70 -50z" />
    <glyph glyph-name="afii62819" unicode="&#x644;" horiz-adv-x="1088" arabic-form="final" 
d="M671 -275q53 0 75 47q16 34 16 93l-1 25v27v1228q-12 39 -42 64l-90 44q126 33 235 143q17 20 76 107h56l1 -1399h114v-246h-114q-9 0 -9 -6q0 -5 3.5 -16.5t3.5 -13.5v-24q-5 -16 -6 -24q0 -29 -6 -54t-18 -58q-58 -172 -227 -172l-14 -15l-20 -27q-19 -36 -33 -44l-3 5
l-18 37q-12 34 -21 44q-124 0 -205 128q-34 58 -53 119q-18 65 -18 121l-201 1l-146 1v51q95 42 163 116q36 37 54 81q3 10 10.5 39t7.5 57q30 -57 73 -85q42 -18 113 -18l66 1l85 2l-3 -38l-4 -89q0 -141 30 -202q27 -50 70 -50z" />
    <glyph glyph-name="afii62817" unicode="&#x644;" horiz-adv-x="909" arabic-form="initial" 
d="M-17 -142v246h539v960q0 134 -59 194l-58 34l23 6q129 33 219 115q30 30 126 173l-3 -766v-962h-787z" />
    <glyph glyph-name="afii62818" unicode="&#x644;" horiz-adv-x="842" arabic-form="medial" 
d="M-29 -142v246h539v960q0 134 -59 194l-58 34l23 6q129 33 219 115q30 30 126 173l-3 -766l-1 -716h115v-246h-901z" />
    <glyph glyph-name="afii57445" unicode="&#x645;" horiz-adv-x="863" arabic-form="isolated" 
d="M750 -142h-213h-62l-41 -1q-13 -3 -17 -17q0 -76 -43 -154q-66 -111 -217 -193h-162q127 198 163.5 312.5t36.5 318.5q0 180 70 260q36 38 181 77l75 18q32 6 35.5 8t31.5 14q54 20 108 53h54v-696zM545 102q25 30 25 65q0 18 -6 31q-5 17 -17 29q-23 28 -64 28
q-38 0 -62 -23l-20 -29l-10 -38q0 -28 25 -63q27 -26 63 -26q39 0 66 26z" />
    <glyph glyph-name="afii62822" unicode="&#x645;" horiz-adv-x="851" arabic-form="final" 
d="M870 -142h-333h-62l-41 -1q-13 -3 -17 -17q0 -76 -43 -154q-66 -111 -217 -193h-162q127 198 163.5 312.5t36.5 318.5q0 180 70 260q36 38 181 77l75 18q32 6 35.5 8t31.5 14q54 20 108 53h54l1 -450h119v-246zM545 102q25 30 25 65q0 18 -6 31q-5 17 -17 29
q-23 28 -64 28q-38 0 -62 -23l-20 -29l-10 -38q0 -28 25 -63q27 -26 63 -26q39 0 66 26z" />
    <glyph glyph-name="afii62820" unicode="&#x645;" horiz-adv-x="932" arabic-form="initial" 
d="M-32 -142v246h305q0 196 62 272q36 47 175 94q90 25 154.5 51.5t108.5 57.5h54v-384l-1 -337h-858zM622 110q26 31 26 66q0 18 -7 31q-3 17 -17 29q-22 27 -63 27q-39 0 -61 -23l-21 -28l-9 -39q0 -27 24 -63q26 -26 63 -26q40 0 65 26z" />
    <glyph glyph-name="afii62821" unicode="&#x645;" horiz-adv-x="923" arabic-form="medial" 
d="M-32 -142v246h305q0 196 62 272q36 47 175 94q90 25 154.5 51.5t108.5 57.5h54l-1 -475h114v-246h-972zM622 110q26 31 26 66q0 18 -7 31q-3 17 -17 29q-22 27 -63 27q-39 0 -61 -23l-21 -28l-9 -39q0 -27 24 -63q26 -26 63 -26q40 0 65 26z" />
    <glyph glyph-name="afii57446" unicode="&#x646;" horiz-adv-x="937" arabic-form="isolated" 
d="M789 -108l-27 -84q-41 -99 -119 -160q-106 -85 -269 -85q-62 0 -107.5 8.5t-98.5 34.5q-90 41 -155 119v53h53q37 -29 117 -52l48 -8l53 -3l35 1q139 0 202 108q49 86 49 241q0 94 -25 175l-56 112q114 0 191 104l109 154l2 -98v-36l2 -40l-1 -332l-1 -106zM209 148
q27 16 58 16q26 0 38 -8q45 -12 69 -61q15 -33 15 -55q0 -34 -16 -56q-8 -18 -23 -30l-35 -26q-21 -11 -48 -11q-33 0 -56 14q-37 19 -53.5 50t-16.5 65q0 29 7 44.5t22 30t39 27.5z" />
    <glyph glyph-name="afii62825" unicode="&#x646;" horiz-adv-x="876" arabic-form="final" 
d="M894 -142h-119l-13 -50q-41 -99 -119 -160q-106 -85 -269 -85q-62 0 -107.5 8.5t-98.5 34.5q-90 41 -155 119v53h53q37 -29 117 -52l48 -8l53 -3l35 1q139 0 202 108q49 86 49 241q0 94 -25 175l-56 112q114 0 191 104l109 154l2 -98v-36l2 -40l-1 -332h102v-246z
M209 148q27 16 58 16q26 0 38 -8q45 -12 69 -61q15 -33 15 -55q0 -34 -16 -56q-8 -18 -23 -30l-35 -26q-21 -11 -48 -11q-33 0 -56 14q-37 19 -53.5 50t-16.5 65q0 29 7 44.5t22 30t39 27.5z" />
    <glyph glyph-name="afii62823" unicode="&#x646;" horiz-adv-x="946" arabic-form="initial" 
d="M817 -142h-839v246h630l1 226q0 33 -23 56l-50 22q0 15 59 44q139 48 168 182h54v-510v-101v-165zM660 1124l38 -8q49 -16 70 -61q13 -27 13 -54q0 -24 -13 -55q-15 -24 -27 -36t-29 -20l-25 -11q-3 -3 -25 -3q-31 0 -59 15q-38 25 -54 54q-9 17 -12 29t-3 30l9 45l23 35
l14 11l22 13q23 16 58 16z" />
    <glyph glyph-name="afii62824" unicode="&#x646;" horiz-adv-x="868" arabic-form="medial" 
d="M877 -142h-895v246h582v226l-31 23l-28 29l-12 26l33 17l60 45l30 31l103 133h59v-530h99v-246zM664 1124l38 -8q49 -16 70 -61q13 -27 13 -54q0 -24 -13 -55q-15 -24 -27 -36t-29 -20l-25 -11q-3 -3 -25 -3q-31 0 -59 15q-38 25 -54 54q-9 17 -12 29t-3 30l9 45l23 35
l14 11l22 13q23 16 58 16z" />
    <glyph glyph-name="afii57447" unicode="&#x647;" horiz-adv-x="815" arabic-form="isolated" 
d="M718 -144h-602l-4 189l-2 143q0 150 155 207l318 78q26 9 62 52q77 92 100 109v-19v-16l-3 -17l-9 -54l-15 -99v-573zM334 116q28 -46 81 -46q25 0 49 14q46 30 46 81q0 26 -14 49q-27 47 -80 47q-28 0 -50 -16q-46 -29 -46 -81q0 -26 14 -48z" />
    <glyph glyph-name="afii62828" unicode="&#x647;" horiz-adv-x="837" arabic-form="final" 
d="M847 -142h-738v315q31 154 118 217t277 63v117q-12 90 -43 131q-5 7 -29 30q114 33 150 69q41 61 98 122l57 -2v-815h87h23v-139v-108zM354 136q29 -44 80 -44q27 0 49 13q47 30 47 80q0 27 -14 49q-27 47 -81 47q-27 0 -50 -15q-44 -29 -44 -82q0 -25 13 -48z" />
    <glyph glyph-name="afii57470" unicode="&#x647;" horiz-adv-x="1841" arabic-form="initial" 
d="M447 -142l-10 -16l4 -39q0 -70 36 -122t138 -69q90 0 148.5 58t58.5 152v16l-3 20h-372zM999 -142q-2 -13 -1 -27t5 -28q0 -120 -53 -219q-81 -142 -270 -142l-13 -9l-31 -31q-30 -31 -43 -40q-6 5 -10 9q-11 9 -26 29q-24 37 -34 42q-116 15 -180 88q-58 66 -72 172
l-11 83l-2 73h-257v246h374l30 52l59 111l28 50l13 25l18 28q-74 122 -108 191q-47 111 -32 175q0 126 97 233q155 163 312 54l91 -103l136 144q139 141 71.5 214.5t-263.5 39.5q-137 -32 -191 -65l-58 -35q-9 10 -9 33l8 44l5 35q0 42 -28 77q-27 43 -113 95l-16 61h682
q177 -29 244 -151q19 -41 23.5 -161.5t-135.5 -261t-236 -283.5l194 -310q89 -156 89 -270q0 -7 16 -21l48 -6l98 5q21 0 81 32l48 35q54 -145 116 -217l113 -96h-807zM757 719q-73 107 -100 107q-22 0 -44.5 -32.5t-22.5 -55.5q0 -26 10.5 -64t26.5 -61t33 -51zM746 104
l-39 70l-44 83l-40 -86l-30 -67h153zM1004 104q29 15 38.5 29t18.5 44l-4 33q-8 42 -23 75q-11 35 -25 57l-44 64l-90 125l-94 -156l176 -274z" />
    <glyph glyph-name="afii62827" unicode="&#x6be;" horiz-adv-x="1801" arabic-form="final" 
d="M1065 -142h-314q0 -52 12 -98t32 -77q41 -61 117 -61q85 0 121 55q17 25 24.5 74t7.5 107zM913 1036l1 4q7 34 11 40l18 34q36 67 101.5 107.5t148.5 40.5l34 -3q14 0 42 -8q29 -6 62 -25q66 -33 106.5 -99.5t40.5 -150.5q0 -38 -9 -73.5t-27 -66.5q-35 -64 -101 -104
l-37 -16l-32 -15l114 -174l119 -182l153 -241h161v-246h-547q0 -144 -32.5 -229t-95 -134.5t-153.5 -49.5l-44 -41q-41 -42 -51 -42q-8 0 -40.5 37.5t-44.5 45.5q-132 16 -204 143q-53 103 -53 270h-565v246h122h50l112 190l123 208l117 190l-34 27l-30 27q-42 37 -53 60
l-18 31l-12 35l-10 39l-3 43q0 36 7 67.5t11 37.5l18 33q36 66 101 106.5t148 40.5l35 -1q13 0 42 -10q29 -5 61 -24q66 -32 107 -100q20 -31 30 -68zM737 999q-12 32 -40 51.5t-62 19.5l-30 -4q-34 -8 -59 -40q-24 -31 -24 -68l5 -28q8 -36 38 -61l34 -18q15 -3 36 -3
q18 0 32 4q32 9 54.5 39t22.5 68q0 27 -7 40zM1291 1007q-8 29 -38 50.5t-63 21.5q-20 0 -39 -6q-21 -5 -43 -35.5t-22 -63.5q0 -26 6.5 -42.5t36.5 -39.5t64 -23q22 0 38 7q20 4 43 34.5t23 65.5q0 16 -6 31zM918 882l-3 -15q-9 -36 -27 -67q-35 -63 -101 -102l5 -18
l31 -47q52 -66 89 -99q30 26 62 74q41 60 70 90q-18 9 -63 69l-31 46l-18 30l-12 36zM787 372l-83 111l-48 66q-56 -76 -120 -183l-87 -159l-27 -54q-12 -25 -12 -34q3 -2 6 -3q10 -8 21 -11l52 -1h116l32 60l22 33l30 41zM997 104l-32 62l-69 90l-99 -152h200zM1370 207
l-120 199l-45 72l-50 71l-132 -177l14 -28l9 -17l25 -37l118 -186h185q14 0 24.5 3t14.5 18q0 18 -43 82z" />
    <glyph glyph-name="afii57448" unicode="&#x648;" horiz-adv-x="799" arabic-form="isolated" 
d="M682 -195l-23 -61q-23 -40 -48.5 -73t-63.5 -64q-48 -42 -108 -75.5t-134 -56.5l-161 -2l161 126q70 60 125 153v106h-341v376q0 53 12.5 91.5t42.5 66.5q36 34 155 72l221 61q14 5 35 18q20 17 32 25q41 35 95 53v-816zM316 117q30 -43 80 -43q24 0 48 13q47 29 47 80
q0 30 -13 48q-24 48 -82 48q-14 0 -26 -3t-23 -10q-46 -30 -46 -85q0 -13 2.5 -20t12.5 -28z" />
    <glyph glyph-name="afii62829" unicode="&#x648;" horiz-adv-x="790" arabic-form="final" 
d="M689 -195l-26 -61q-37 -72 -107 -137q-53 -42 -114 -75.5t-133 -56.5l-159 -2l159 126q36 31 68.5 69t57.5 84v106h-341v376q0 104 56 158q17 19 53 35t100 37l221 61q25 7 68.5 44t96.5 52v-517h126v-246h-126v-53zM468 114q24 32 29 66q0 18 -9 30q-5 17 -17 32
q-21 24 -64 24q-21 0 -35 -5t-27 -17l-19 -29l-8 -39q0 -27 24 -62q21 -25 62 -25q24 0 37 5t27 20z" />
    <glyph glyph-name="afii57449" unicode="&#x649;" horiz-adv-x="1671" arabic-form="isolated" 
d="M762 770q357 -672 495 -653q19 -9 30 -9q31 0 77 33l38 30l-1 -27q0 -85 70 -158q63 -67 161 -128h-472q-90 12 -254 258q-16 21 -51 76q-18 29 -141 250t-158 221q-22 0 -47 -38t-25 -53q0 -63 80 -185l120 -202q102 -195 102 -325q0 -68 -36 -156q-44 -109 -126 -175
q-111 -81 -252 -81q-123 0 -227 100q-34 35 -75 100l-2 18v16q0 36 12 67l12 24q30 -19 107 -84t173 -65q78 0 118 70q45 63 45 183q0 102 -100 282l-129 225q-59 104 -59 215t69 191l146 139q26 30 38 72l29 99q60 -47 233 -330z" />
    <glyph glyph-name="afii62830" unicode="&#x649;" horiz-adv-x="1247" arabic-form="final" 
d="M744 770q357 -672 495 -666h30l-3 -246h-124q-90 12 -254 258q-16 21 -51 76q-18 29 -141 250t-158 221q-22 0 -47 -38t-25 -53q0 -63 80 -185l120 -202q102 -195 102 -325q0 -68 -36 -156q-44 -109 -126 -175q-111 -81 -252 -81q-123 0 -227 100q-34 35 -75 100l-2 18
v16q0 36 12 67l12 24q30 -19 107 -84t173 -65q78 0 118 70q45 63 45 183q0 102 -100 282l-129 225q-59 104 -59 215t69 191l146 139q26 30 38 72l29 99q60 -47 233 -330z" />
    <glyph glyph-name="afii57450" unicode="&#x64a;" horiz-adv-x="1546" arabic-form="isolated" 
d="M1237 -381q26 16 58 16q24 0 36 -7q46 -15 70 -62q14 -33 14 -54q0 -34 -15 -57q-9 -18 -22.5 -31.5t-34.5 -24.5t-48 -11q-34 0 -57 14q-39 17 -54 48q-16 29 -16 67q0 29 6.5 43.5t22.5 30.5t40 28zM867 -381q28 16 59 16q25 0 37 -7q46 -15 70 -62q14 -33 14 -54
q0 -34 -16 -57q-8 -18 -22.5 -31.5t-35 -24.5t-47.5 -11q-34 0 -57 14q-38 17 -54 48q-15 29 -15 67q0 29 6.5 43.5t22 30.5t38.5 28zM691 770q357 -672 495 -653q19 -9 30 -9q31 0 77 33l38 30l-1 -27q0 -85 70 -158q63 -67 161 -128h-472q-90 12 -254 258q-16 21 -51 76
q-18 29 -141 250t-158 221q-22 0 -47 -38t-25 -53q0 -63 80 -185l120 -202q102 -195 102 -325q0 -68 -36 -156q-44 -109 -126 -175q-111 -81 -252 -81q-123 0 -227 100q-34 35 -74 100l-3 18v16q0 36 12 67l12 24q30 -19 107 -84t173 -65q78 0 118 70q45 63 45 183
q0 102 -100 282l-129 225q-59 104 -59 215t69 191l146 139q26 30 38 72l29 99q60 -47 233 -330z" />
    <glyph glyph-name="afii62833" unicode="&#x64a;" horiz-adv-x="1341" arabic-form="final" 
d="M697 770q357 -672 495 -666h153l-2 -246h-248q-90 12 -254 258q-16 21 -51 76q-18 29 -141 250t-158 221q-22 0 -47 -38t-25 -53q0 -63 80 -185l120 -202q102 -195 102 -325q0 -68 -36 -156q-44 -109 -126 -175q-111 -81 -252 -81q-123 0 -227 100q-34 35 -75 100l-2 18
v16q0 36 12 67l12 24q30 -19 107 -84t173 -65q78 0 118 70q45 63 45 183q0 102 -100 282l-129 225q-59 104 -59 215t69 191l146 139q26 30 38 72l29 99q60 -47 233 -330zM1243 -381q26 16 58 16q24 0 36 -7q46 -15 70 -62q14 -33 14 -54q0 -34 -15 -57q-9 -18 -22.5 -31.5
t-34.5 -24.5t-48 -11q-34 0 -57 14q-39 17 -54 48q-16 29 -16 67q0 29 6.5 43.5t22.5 30.5t40 28zM873 -381q28 16 59 16q25 0 37 -7q46 -15 70 -62q14 -33 14 -54q0 -34 -16 -57q-8 -18 -22.5 -31.5t-35 -24.5t-47.5 -11q-34 0 -57 14q-38 17 -54 48q-15 29 -15 67
q0 29 6.5 43.5t22 30.5t38.5 28z" />
    <glyph glyph-name="afii62831" unicode="&#x6cc;" horiz-adv-x="935" arabic-form="initial" 
d="M813 -142h-823v246h608v226q0 36 -18 56l-45 22q0 21 99.5 70t125.5 156h53v-510v-101v-165zM522 -336q26 14 58 14q24 0 36 -6q46 -16 70 -62q14 -34 14 -54q0 -35 -15 -58q-9 -18 -23 -30.5t-34.5 -24.5t-47.5 -12q-34 0 -57 15q-39 17 -54 48q-16 29 -16 66
q0 29 6.5 43.5t22.5 31.5t40 29zM152 -336q28 14 59 14q25 0 37 -6q46 -16 70 -62q13 -34 13 -54q0 -35 -15 -58q-8 -18 -22.5 -30.5t-35 -24.5t-47.5 -12q-34 0 -57 15q-38 17 -54 48q-15 29 -15 66q0 29 6.5 43.5t22 31.5t38.5 29z" />
    <glyph glyph-name="afii62832" unicode="&#x6cc;" horiz-adv-x="860" arabic-form="medial" 
d="M511 -336q26 14 58 14q24 0 36 -6q46 -16 70 -62q14 -34 14 -54q0 -35 -15 -58q-9 -18 -23 -30.5t-34.5 -24.5t-47.5 -12q-34 0 -57 15q-39 17 -54 48q-16 29 -16 66q0 29 6.5 43.5t22.5 31.5t40 29zM141 -336q28 14 59 14q25 0 37 -6q46 -16 70 -62q13 -34 13 -54
q0 -35 -15 -58q-8 -18 -22.5 -30.5t-35 -24.5t-47.5 -12q-34 0 -57 15q-38 17 -54 48q-15 29 -15 66q0 29 6.5 43.5t22 31.5t38.5 29zM874 -142h-895v246h582v226l-31 23l-28 29l-12 26l33 17l60 45l30 31l103 133h59v-530h99v-246z" />
    <glyph glyph-name="uniFBEA" unicode="&#xfbea;" horiz-adv-x="1241" arabic-form="isolated" 
d="M457 764q38 80 78 123q20 21 60 34.5t92 19.5q-5 24 -7 53t-2 60q0 109 24 157q52 102 240 213l87 22l-53 -123q20 -37 41 -77t40 -77q-54 18 -94 18q-33 0 -52 -9q-95 -40 -95 -111q1 -7 3 -15t3 -15q10 -35 29 -60t43 -36q41 -9 87 -13q50 -2 130 31q24 -104 106 -195
h-760zM154 -142v1207q0 9 -14 36t-35 62q-14 18 -26.5 36t-25.5 36q86 39 140 70t74 48q30 39 60.5 80.5t60.5 81.5v-1411h565v51t-0.5 62t-0.5 62v51l2 14q0 15 -53 51q-4 3 -9 7t-10 6q101 36 136 71q23 17 96 155h54v-776h-1014z" />
    <glyph glyph-name="uniFBEB" unicode="&#xfbeb;" horiz-adv-x="1242" arabic-form="final" 
d="M459 764q37 80 78 123q19 21 59 34.5t93 19.5q-5 24 -6.5 53t-1.5 60q0 112 22 157q52 102 240 213l87 22l-52 -123q21 -39 40.5 -78t40.5 -76q-54 18 -95 18q-33 0 -52 -9q-93 -40 -93 -111q1 -7 2 -15t2 -15q10 -35 28.5 -60t45.5 -36q38 -9 85 -13q50 -2 131 31
q22 -102 105 -195h-759zM1281 -142h-1127v1207q0 9 -14 36t-35 62q-14 18 -26.5 36t-25.5 36q86 39 140 70t74 48q30 39 60.5 80.5t60.5 81.5v-1411h579v226q-6 6 -15.5 12t-15.5 11l-27 29l-12 26l32 17q8 6 19 13.5t19 13.5l22 18q6 6 15 15.5t15 15.5q24 32 51.5 66.5
t51.5 66.5h59v-530h100v-246z" />
    <glyph glyph-name="uniFBEC" unicode="&#xfbec;" horiz-adv-x="1599" arabic-form="isolated" 
d="M354 136q29 -44 80 -44q25 0 49 13q47 30 47 80q0 25 -14 49q-28 47 -81 47q-27 0 -50 -15q-44 -29 -44 -82q0 -24 13 -48zM815 764q37 80 78 123q19 21 59 34.5t92 19.5q-5 24 -7 53t-2 60q0 109 24 157q52 102 240 213l87 22l-53 -123q20 -37 41 -77t41 -77
q-54 18 -95 18q-33 0 -52 -9q-95 -40 -95 -111q2 -7 3.5 -15t2.5 -15q10 -35 29 -60t43 -36q41 -9 87 -13q50 -2 131 31q24 -104 105 -195h-759zM109 -142v315q30 153 118 216q42 31 114.5 47t162.5 17v117q-6 42 -17.5 76.5t-25.5 54.5q-3 4 -10.5 11.5l-18.5 18.5
q110 33 150 69q20 30 45.5 61t52.5 61l57 -2v-815h110v-1h463v51t-0.5 62t-0.5 62v51l2 14q0 15 -52 51q-5 3 -10 7t-10 6q101 36 136 71q23 17 96 155h54v-776h-1416z" />
    <glyph glyph-name="uniFBED" unicode="&#xfbed;" horiz-adv-x="1618" arabic-form="final" 
d="M354 136q29 -44 80 -44q25 0 49 13q47 30 47 80q0 25 -14 49q-28 47 -81 47q-27 0 -50 -15q-44 -29 -44 -82q0 -24 13 -48zM828 764q37 80 78 123q19 21 59 34.5t93 19.5q-5 24 -6.5 53t-1.5 60q0 112 23 157q51 102 240 213l86 22l-52 -123q21 -39 40.5 -78t40.5 -76
q-54 18 -95 18q-32 0 -52 -9q-93 -40 -93 -111q1 -7 2 -15t3 -15q9 -35 27.5 -60t45.5 -36q38 -9 85 -13q50 -2 131 31q23 -102 105 -195h-759zM1650 -142h-1541v315q30 153 118 216q42 31 114.5 47t162.5 17v117q-6 42 -17.5 76.5t-25.5 54.5q-3 4 -10.5 11.5l-18.5 18.5
q110 33 150 69q20 30 45.5 61t52.5 61l57 -2v-815h110v-1h490v226q-6 6 -16 12t-16 11l-27 29l-12 26l32 17q9 6 19.5 13.5t19.5 13.5l21 18q6 6 15 15.5t15 15.5q24 32 51.5 66.5t51.5 66.5h59v-530h100v-246z" />
    <glyph glyph-name="uniFBEE" unicode="&#xfbee;" horiz-adv-x="1549" arabic-form="isolated" 
d="M468 114q23 30 29 66q0 17 -9 30q-6 20 -17 32q-21 24 -64 24q-20 0 -34.5 -5.5t-27.5 -16.5q-5 -6 -10 -14.5t-9 -14.5l-8 -39q0 -27 24 -62q22 -25 62 -25q24 0 37 5t27 20zM762 764q38 80 78 123q20 21 60 34.5t92 19.5q-5 24 -7 53t-2 60q0 109 24 157
q52 102 240 213l87 22l-53 -123q20 -37 41 -77t40 -77q-54 18 -94 18q-33 0 -52 -9q-95 -40 -95 -111q1 -7 3 -15t3 -15q10 -35 29 -60t43 -36q41 -9 87 -13q50 -2 130 31q24 -104 106 -195h-760zM689 -195l-26 -61q-39 -74 -107 -137q-54 -42 -114.5 -75.5t-132.5 -56.5
l-159 -2l159 126q33 31 67.5 70.5t58.5 82.5v106h-341v376q0 50 15.5 90t40.5 68q17 19 53 35t100 37l221 61q26 7 68 44q44 37 97 52v-517h569v51t-0.5 62t-0.5 62v51l2 14q0 15 -53 51q-4 3 -9 7t-10 6q101 36 136 71q23 17 96 155h54v-776h-784v-53z" />
    <glyph glyph-name="uniFBEF" unicode="&#xfbef;" horiz-adv-x="1556" arabic-form="final" 
d="M468 114q23 30 29 66q0 17 -9 30q-6 20 -17 32q-21 24 -64 24q-20 0 -34.5 -5.5t-27.5 -16.5q-5 -6 -10 -14.5t-9 -14.5l-8 -39q0 -27 24 -62q22 -25 62 -25q24 0 37 5t27 20zM764 764q37 80 78 123q19 21 59 34.5t93 19.5q-5 24 -6.5 53t-1.5 60q0 112 22 157
q52 102 240 213l87 22l-52 -123q21 -39 40.5 -78t40.5 -76q-54 18 -95 18q-33 0 -52 -9q-93 -40 -93 -111q1 -7 2 -15t2 -15q10 -35 28.5 -60t45.5 -36q38 -9 85 -13q50 -2 131 31q22 -102 105 -195h-759zM689 -195l-26 -61q-39 -74 -107 -137q-54 -42 -114.5 -75.5
t-132.5 -56.5l-159 -2l159 126q33 31 67.5 70.5t58.5 82.5v106h-341v376q0 50 15.5 90t40.5 68q17 19 53 35t100 37l221 61q26 7 68 44q44 37 97 52v-517h583v226q-6 6 -15.5 12t-15.5 11l-27 29l-12 26l32 17q8 6 19 13.5t19 13.5l22 18q6 6 15 15.5t15 15.5
q24 32 51.5 66.5t51.5 66.5h59v-530h100v-246h-897v-53z" />
    <glyph glyph-name="uniFBF0" unicode="&#xfbf0;" horiz-adv-x="1549" arabic-form="isolated" 
d="M468 114q23 30 29 66q0 17 -9 30q-6 20 -17 32q-21 24 -64 24q-20 0 -34.5 -5.5t-27.5 -16.5q-5 -6 -10 -14.5t-9 -14.5l-8 -39q0 -27 24 -62q22 -25 62 -25q24 0 37 5t27 20zM230 892q82 13 132 53q24 20 37 37.5t13 33.5q1 30 -29 25q-29 -4 -71 3q-40 9 -66 54
q-14 29 -14 62q0 10 2 21t4 23q17 60 53 80q17 10 34 17t31 9q27 2 60.5 -7t61.5 -34q26 -22 41 -62t15 -94q0 -11 -0.5 -22.5t-1.5 -23.5q-8 -69 -46 -118t-84 -71q-45 -24 -100 -18q-57 4 -72 32zM762 764q38 80 78 123q20 21 60 34.5t92 19.5q-5 24 -7 53t-2 60
q0 109 24 157q52 102 240 213l87 22l-53 -123q20 -37 41 -77t40 -77q-54 18 -94 18q-33 0 -52 -9q-95 -40 -95 -111q1 -7 3 -15t3 -15q10 -35 29 -60t43 -36q41 -9 87 -13q50 -2 130 31q24 -104 106 -195h-760zM689 -195l-26 -61q-39 -74 -107 -137q-54 -42 -114.5 -75.5
t-132.5 -56.5l-159 -2l159 126q33 31 67.5 70.5t58.5 82.5v106h-341v376q0 50 15.5 90t40.5 68q17 19 53 35t100 37l221 61q26 7 68 44q44 37 97 52v-517h569v51t-0.5 62t-0.5 62v51l2 14q0 15 -53 51q-4 3 -9 7t-10 6q101 36 136 71q23 17 96 155h54v-776h-784v-53z" />
    <glyph glyph-name="uniFBF1" unicode="&#xfbf1;" horiz-adv-x="1556" arabic-form="final" 
d="M468 114q23 30 29 66q0 17 -9 30q-6 20 -17 32q-21 24 -64 24q-20 0 -34.5 -5.5t-27.5 -16.5q-5 -6 -10 -14.5t-9 -14.5l-8 -39q0 -27 24 -62q22 -25 62 -25q24 0 37 5t27 20zM230 892q82 13 132 53q24 20 37 37.5t13 33.5q1 30 -29 25q-29 -4 -71 3q-40 9 -66 54
q-14 29 -14 62q0 10 2 21t4 23q17 60 53 80q17 10 34 17t31 9q27 2 60.5 -7t61.5 -34q26 -22 41 -62t15 -94q0 -11 -0.5 -22.5t-1.5 -23.5q-8 -69 -46 -118t-84 -71q-45 -24 -100 -18q-57 4 -72 32zM764 764q37 80 78 123q19 21 59 34.5t93 19.5q-5 24 -6.5 53t-1.5 60
q0 112 22 157q52 102 240 213l87 22l-52 -123q21 -39 40.5 -78t40.5 -76q-54 18 -95 18q-33 0 -52 -9q-93 -40 -93 -111q1 -7 2 -15t2 -15q10 -35 28.5 -60t45.5 -36q38 -9 85 -13q50 -2 131 31q22 -102 105 -195h-759zM689 -195l-26 -61q-39 -74 -107 -137
q-54 -42 -114.5 -75.5t-132.5 -56.5l-159 -2l159 126q33 31 67.5 70.5t58.5 82.5v106h-341v376q0 50 15.5 90t40.5 68q17 19 53 35t100 37l221 61q26 7 68 44q44 37 97 52v-517h583v226q-6 6 -15.5 12t-15.5 11l-27 29l-12 26l32 17q8 6 19 13.5t19 13.5l22 18q6 6 15 15.5
t15 15.5q24 32 51.5 66.5t51.5 66.5h59v-530h100v-246h-897v-53z" />
    <glyph glyph-name="uniFBF2" unicode="&#xfbf2;" horiz-adv-x="1549" arabic-form="isolated" 
d="M468 114q23 30 29 66q0 17 -9 30q-6 20 -17 32q-21 24 -64 24q-20 0 -34.5 -5.5t-27.5 -16.5q-5 -6 -10 -14.5t-9 -14.5l-8 -39q0 -27 24 -62q22 -25 62 -25q24 0 37 5t27 20zM546 1113q74 72 144 83l-199 -354l-117 -2l-177 254q15 85 72 85q33 0 72 -24l113 -193z
M762 764q38 80 78 123q20 21 60 34.5t92 19.5q-5 24 -7 53t-2 60q0 109 24 157q52 102 240 213l87 22l-53 -123q20 -37 41 -77t40 -77q-54 18 -94 18q-33 0 -52 -9q-95 -40 -95 -111q1 -7 3 -15t3 -15q10 -35 29 -60t43 -36q41 -9 87 -13q50 -2 130 31q24 -104 106 -195
h-760zM689 -195l-26 -61q-39 -74 -107 -137q-54 -42 -114.5 -75.5t-132.5 -56.5l-159 -2l159 126q33 31 67.5 70.5t58.5 82.5v106h-341v376q0 50 15.5 90t40.5 68q17 19 53 35t100 37l221 61q26 7 68 44q44 37 97 52v-517h569v51t-0.5 62t-0.5 62v51l2 14q0 15 -53 51
q-4 3 -9 7t-10 6q101 36 136 71q23 17 96 155h54v-776h-784v-53z" />
    <glyph glyph-name="uniFBF3" unicode="&#xfbf3;" horiz-adv-x="1556" arabic-form="final" 
d="M468 114q23 30 29 66q0 17 -9 30q-6 20 -17 32q-21 24 -64 24q-20 0 -34.5 -5.5t-27.5 -16.5q-5 -6 -10 -14.5t-9 -14.5l-8 -39q0 -27 24 -62q22 -25 62 -25q24 0 37 5t27 20zM546 1113q74 72 144 83l-199 -354l-117 -2l-177 254q15 85 72 85q33 0 72 -24l113 -193z
M764 764q37 80 78 123q19 21 59 34.5t93 19.5q-5 24 -6.5 53t-1.5 60q0 112 22 157q52 102 240 213l87 22l-52 -123q21 -39 40.5 -78t40.5 -76q-54 18 -95 18q-33 0 -52 -9q-93 -40 -93 -111q1 -7 2 -15t2 -15q10 -35 28.5 -60t45.5 -36q38 -9 85 -13q50 -2 131 31
q22 -102 105 -195h-759zM689 -195l-26 -61q-39 -74 -107 -137q-54 -42 -114.5 -75.5t-132.5 -56.5l-159 -2l159 126q33 31 67.5 70.5t58.5 82.5v106h-341v376q0 50 15.5 90t40.5 68q17 19 53 35t100 37l221 61q26 7 68 44q44 37 97 52v-517h583v226q-6 6 -15.5 12t-15.5 11
l-27 29l-12 26l32 17q8 6 19 13.5t19 13.5l22 18q6 6 15 15.5t15 15.5q24 32 51.5 66.5t51.5 66.5h59v-530h100v-246h-897v-53z" />
    <glyph glyph-name="uniFBF4" unicode="&#xfbf4;" horiz-adv-x="1549" arabic-form="isolated" 
d="M468 114q23 30 29 66q0 17 -9 30q-6 20 -17 32q-21 24 -64 24q-20 0 -34.5 -5.5t-27.5 -16.5q-5 -6 -10 -14.5t-9 -14.5l-8 -39q0 -27 24 -62q22 -25 62 -25q24 0 37 5t27 20zM489 1060q-51 -208 -148 -217l1 241q-2 139 -117 180q36 54 77 54q16 0 36.5 -11.5
t39.5 -29.5q10 69 37.5 107t70.5 38q17 0 36.5 -4.5t39.5 -14.5q-79 -47 -76 -128zM762 764q38 80 78 123q20 21 60 34.5t92 19.5q-5 24 -7 53t-2 60q0 109 24 157q52 102 240 213l87 22l-53 -123q20 -37 41 -77t40 -77q-54 18 -94 18q-33 0 -52 -9q-95 -40 -95 -111
q1 -7 3 -15t3 -15q10 -35 29 -60t43 -36q41 -9 87 -13q50 -2 130 31q24 -104 106 -195h-760zM689 -195l-26 -61q-39 -74 -107 -137q-54 -42 -114.5 -75.5t-132.5 -56.5l-159 -2l159 126q33 31 67.5 70.5t58.5 82.5v106h-341v376q0 50 15.5 90t40.5 68q17 19 53 35t100 37
l221 61q26 7 68 44q44 37 97 52v-517h569v51t-0.5 62t-0.5 62v51l2 14q0 15 -53 51q-4 3 -9 7t-10 6q101 36 136 71q23 17 96 155h54v-776h-784v-53z" />
    <glyph glyph-name="uniFBF5" unicode="&#xfbf5;" horiz-adv-x="1556" arabic-form="final" 
d="M468 114q23 30 29 66q0 17 -9 30q-6 20 -17 32q-21 24 -64 24q-20 0 -34.5 -5.5t-27.5 -16.5q-5 -6 -10 -14.5t-9 -14.5l-8 -39q0 -27 24 -62q22 -25 62 -25q24 0 37 5t27 20zM489 1060q-51 -208 -148 -217l1 241q-2 139 -117 180q36 54 77 54q16 0 36.5 -11.5
t39.5 -29.5q10 69 37.5 107t70.5 38q17 0 36.5 -4.5t39.5 -14.5q-79 -47 -76 -128zM764 764q37 80 78 123q19 21 59 34.5t93 19.5q-5 24 -6.5 53t-1.5 60q0 112 22 157q52 102 240 213l87 22l-52 -123q21 -39 40.5 -78t40.5 -76q-54 18 -95 18q-33 0 -52 -9
q-93 -40 -93 -111q1 -7 2 -15t2 -15q10 -35 28.5 -60t45.5 -36q38 -9 85 -13q50 -2 131 31q22 -102 105 -195h-759zM689 -195l-26 -61q-39 -74 -107 -137q-54 -42 -114.5 -75.5t-132.5 -56.5l-159 -2l159 126q33 31 67.5 70.5t58.5 82.5v106h-341v376q0 50 15.5 90t40.5 68
q17 19 53 35t100 37l221 61q26 7 68 44q44 37 97 52v-517h583v226q-6 6 -15.5 12t-15.5 11l-27 29l-12 26l32 17q8 6 19 13.5t19 13.5l22 18q6 6 15 15.5t15 15.5q24 32 51.5 66.5t51.5 66.5h59v-530h100v-246h-897v-53z" />
    <glyph glyph-name="uniFBF6" unicode="&#xfbf6;" horiz-adv-x="2101" arabic-form="isolated" 
d="M984 -293q26 15 58 15q11 0 20.5 -2t15.5 -5q46 -15 70 -61q14 -35 14 -55q0 -34 -15 -57q-12 -21 -40.5 -44t-64.5 -23q-16 0 -31 4.5t-26 10.5q-37 16 -53 48q-17 30 -17 67q-1 39 15 59t54 43zM984 -645q26 15 58 15q22 0 36 -6q22 -9 40.5 -24.5t29.5 -38.5
q14 -35 14 -54q0 -35 -15 -57q-5 -11 -15 -23t-24 -21.5t-31 -16.5t-35 -7q-34 0 -57 16q-37 17 -53 48q-17 30 -17 67q-1 39 15 59t54 43zM1314 764q37 80 78 123q19 21 59 34.5t92 19.5q-5 24 -7 53t-2 60q0 109 24 157q52 102 240 213l87 22l-53 -123q20 -37 41 -77
t41 -77q-54 18 -95 18q-33 0 -52 -9q-95 -40 -95 -111q2 -7 3.5 -15t2.5 -15q10 -35 29 -60t43 -36q41 -9 87 -13q50 -2 131 31q24 -104 105 -195h-759zM1142 -142q-44 12 -110 76t-144 182q-9 10 -21.5 29.5t-29.5 46.5q-3 8 -16 29t-31.5 54t-42.5 75.5t-51 91.5
q-58 103 -99.5 162t-58.5 59q-22 0 -48 -39q-24 -38 -24 -52q0 -32 21 -80t59 -105q30 -51 60 -101t60 -101q102 -195 102 -325q0 -68 -36 -156q-21 -54 -54 -97.5t-72 -77.5q-54 -38 -118.5 -59.5t-133.5 -21.5q-123 0 -227 100q-17 17 -35.5 43t-39.5 57l-2 18v16
q0 38 12 67l5.5 11l6.5 13q16 -10 42 -31.5t65 -52.5q77 -65 173 -65q37 0 67.5 18.5t50.5 51.5q45 64 45 183q0 101 -100 282q-31 53 -64.5 113t-64.5 112q-28 51 -43.5 106t-15.5 109q0 108 69 191l146 139q25 29 38 72l29 99q30 -24 89.5 -108t143.5 -222
q86 -160 161 -285t138 -210t113 -129t83 -42h3h567v51t-0.5 62t-0.5 62v51l2 14q0 15 -52 51q-5 3 -10 7t-10 6q101 36 136 71q23 17 96 155h54v-776h-882z" />
    <glyph glyph-name="uniFBF7" unicode="&#xfbf7;" horiz-adv-x="2099" arabic-form="final" 
d="M984 -293q26 15 58 15q11 0 20.5 -2t15.5 -5q46 -15 70 -61q14 -35 14 -55q0 -34 -15 -57q-12 -21 -40.5 -44t-64.5 -23q-16 0 -31 4.5t-26 10.5q-37 16 -53 48q-17 30 -17 67q-1 39 15 59t54 43zM984 -645q26 15 58 15q22 0 36 -6q22 -9 40.5 -24.5t29.5 -38.5
q14 -35 14 -54q0 -35 -15 -57q-5 -11 -15 -23t-24 -21.5t-31 -16.5t-35 -7q-34 0 -57 16q-37 17 -53 48q-17 30 -17 67q-1 39 15 59t54 43zM1291 764q37 80 78 123q19 21 59 34.5t93 19.5q-5 24 -6.5 53t-1.5 60q0 112 23 157q51 102 240 213l86 22l-52 -123
q21 -39 40.5 -78t40.5 -76q-54 18 -95 18q-32 0 -52 -9q-93 -40 -93 -111q1 -7 2 -15t3 -15q9 -35 27.5 -60t45.5 -36q38 -9 85 -13q50 -2 131 31q23 -102 105 -195h-759zM1142 -142q-44 12 -110 76t-144 182q-9 10 -21.5 29.5t-29.5 46.5q-3 8 -16 29t-31.5 54t-42.5 75.5
t-51 91.5q-58 103 -99.5 162t-58.5 59q-22 0 -48 -39q-24 -38 -24 -52q0 -32 21 -80t59 -105q30 -51 60 -101t60 -101q102 -195 102 -325q0 -68 -36 -156q-21 -54 -54 -97.5t-72 -77.5q-54 -38 -118.5 -59.5t-133.5 -21.5q-123 0 -227 100q-17 17 -35.5 43t-39.5 57l-2 18
v16q0 38 12 67l5.5 11l6.5 13q16 -10 42 -31.5t65 -52.5q77 -65 173 -65q37 0 67.5 18.5t50.5 51.5q45 64 45 183q0 101 -100 282q-31 53 -64.5 113t-64.5 112q-28 51 -43.5 106t-15.5 109q0 108 69 191l146 139q25 29 38 72l29 99q30 -24 89.5 -108t143.5 -222
q84 -156 157.5 -278.5t135.5 -208t111 -131t84 -48.5h568v226q-6 6 -16 12t-16 11l-27 29l-12 26l32 17q9 6 19.5 13.5t19.5 13.5l21 18q6 6 15 15.5t15 15.5q24 32 51.5 66.5t51.5 66.5h59v-530h100v-246h-971z" />
    <glyph glyph-name="uniFBF8" unicode="&#xfbf8;" horiz-adv-x="1690" arabic-form="initial" 
d="M399 -333q26 16 58 16q12 0 22 -2.5t16 -4.5q43 -15 69 -62q13 -36 13 -55q0 -17 -4 -31t-10 -25q-13 -23 -40.5 -45t-65.5 -22q-16 0 -31 4t-26 10q-18 8 -31.5 21t-21.5 27q-17 30 -17 67q-1 40 16.5 59.5t52.5 42.5zM399 -672q26 14 58 14q23 0 38 -6q20 -8 38.5 -24
t30.5 -37q13 -36 13 -55q0 -17 -4 -32t-10 -26q-11 -22 -39.5 -44.5t-66.5 -22.5q-34 0 -57 15q-18 9 -31.5 21.5t-21.5 26.5q-17 30 -17 68q-1 38 16.5 58.5t52.5 43.5zM912 764q37 80 78 123q19 21 59.5 34.5t91.5 19.5q-4 24 -6 53t-2 60q0 109 24 157q52 102 240 213
l86 22l-52 -123q20 -37 41 -77t40 -77q-54 18 -95 18q-32 0 -51 -9q-95 -40 -95 -111q1 -7 3 -15t3 -15q10 -35 29 -60t43 -36q41 -9 86 -13q51 -2 131 31q24 -104 106 -195h-760zM1408 104v51t-0.5 62t-0.5 62v51l2 14q0 15 -53 51q-5 3 -9.5 7t-9.5 6q101 36 136 71
q22 17 96 155h54v-776h-1636v246h581v226q-6 6 -15.5 12t-15.5 11l-28 29l-12 26l32 17l48 21q3 4 7 11.5t7 12.5l30 31q24 32 51.5 66.5t51.5 66.5h59v-530h625z" />
    <glyph glyph-name="uniFBF9" unicode="&#xfbf9;" horiz-adv-x="2101" arabic-form="isolated" 
d="M1314 764q37 80 78 123q19 21 59 34.5t92 19.5q-5 24 -7 53t-2 60q0 109 24 157q52 102 240 213l87 22l-53 -123q20 -37 41 -77t41 -77q-54 18 -95 18q-33 0 -52 -9q-95 -40 -95 -111q2 -7 3.5 -15t2.5 -15q10 -35 29 -60t43 -36q41 -9 87 -13q50 -2 131 31
q24 -104 105 -195h-759zM1142 -142q-44 12 -110 76t-144 182q-9 10 -21.5 29.5t-29.5 46.5q-3 8 -16 29t-31.5 54t-42.5 75.5t-51 91.5q-58 103 -99.5 162t-58.5 59q-22 0 -48 -39q-24 -38 -24 -52q0 -32 21 -80t59 -105q30 -51 60 -101t60 -101q102 -195 102 -325
q0 -68 -36 -156q-21 -54 -54 -97.5t-72 -77.5q-54 -38 -118.5 -59.5t-133.5 -21.5q-123 0 -227 100q-17 17 -35.5 43t-39.5 57l-2 18v16q0 38 12 67l5.5 11l6.5 13q16 -10 42 -31.5t65 -52.5q77 -65 173 -65q37 0 67.5 18.5t50.5 51.5q45 64 45 183q0 101 -100 282
q-31 53 -64.5 113t-64.5 112q-28 51 -43.5 106t-15.5 109q0 108 69 191l146 139q25 29 38 72l29 99q30 -24 89.5 -108t143.5 -222q86 -160 161 -285t138 -210t113 -129t83 -42h3h567v51t-0.5 62t-0.5 62v51l2 14q0 15 -52 51q-5 3 -10 7t-10 6q101 36 136 71q23 17 96 155
h54v-776h-882z" />
    <glyph glyph-name="uniFBFA" unicode="&#xfbfa;" horiz-adv-x="2099" arabic-form="final" 
d="M1291 764q37 80 78 123q19 21 59 34.5t93 19.5q-5 24 -6.5 53t-1.5 60q0 112 23 157q51 102 240 213l86 22l-52 -123q21 -39 40.5 -78t40.5 -76q-54 18 -95 18q-32 0 -52 -9q-93 -40 -93 -111q1 -7 2 -15t3 -15q9 -35 27.5 -60t45.5 -36q38 -9 85 -13q50 -2 131 31
q23 -102 105 -195h-759zM1142 -142q-44 12 -110 76t-144 182q-9 10 -21.5 29.5t-29.5 46.5q-3 8 -16 29t-31.5 54t-42.5 75.5t-51 91.5q-58 103 -99.5 162t-58.5 59q-22 0 -48 -39q-24 -38 -24 -52q0 -32 21 -80t59 -105q30 -51 60 -101t60 -101q102 -195 102 -325
q0 -68 -36 -156q-21 -54 -54 -97.5t-72 -77.5q-54 -38 -118.5 -59.5t-133.5 -21.5q-123 0 -227 100q-17 17 -35.5 43t-39.5 57l-2 18v16q0 38 12 67l5.5 11l6.5 13q16 -10 42 -31.5t65 -52.5q77 -65 173 -65q37 0 67.5 18.5t50.5 51.5q45 64 45 183q0 101 -100 282
q-31 53 -64.5 113t-64.5 112q-28 51 -43.5 106t-15.5 109q0 108 69 191l146 139q25 29 38 72l29 99q30 -24 89.5 -108t143.5 -222q84 -156 157.5 -278.5t135.5 -208t111 -131t84 -48.5h568v226q-6 6 -16 12t-16 11l-27 29l-12 26l32 17q9 6 19.5 13.5t19.5 13.5l21 18
q6 6 15 15.5t15 15.5q24 32 51.5 66.5t51.5 66.5h59v-530h100v-246h-971z" />
    <glyph glyph-name="uniFBFB" unicode="&#xfbfb;" horiz-adv-x="1690" arabic-form="initial" 
d="M912 764q37 80 78 123q19 21 59.5 34.5t91.5 19.5q-4 24 -6 53t-2 60q0 109 24 157q52 102 240 213l86 22l-52 -123q20 -37 41 -77t40 -77q-54 18 -95 18q-32 0 -51 -9q-95 -40 -95 -111q1 -7 3 -15t3 -15q10 -35 29 -60t43 -36q41 -9 86 -13q51 -2 131 31
q24 -104 106 -195h-760zM1408 104v51t-0.5 62t-0.5 62v51l2 14q0 15 -53 51q-5 3 -9.5 7t-9.5 6q101 36 136 71q22 17 96 155h54v-776h-1636v246h581v226q-6 6 -15.5 12t-15.5 11l-28 29l-12 26l32 17l48 21q3 4 7 11.5t7 12.5l30 31q24 32 51.5 66.5t51.5 66.5h59v-530h625
z" />
    <glyph glyph-name="uni0677" unicode="&#x677;" horiz-adv-x="1567" arabic-form="isolated" 
d="M580.5 1044q-8.5 -70 -46.5 -119t-83.5 -72t-100.5 -18t-73 33q84 12 133.5 52t50.5 70t-28.5 26.5t-71 4t-66 53.5t-9 105t52 81.5t65.5 24.5t60.5 -6t62.5 -35t46.5 -78.5t7 -121.5zM685 -195l-23 -61q-23 -40 -48.5 -73t-63.5 -64q-48 -42 -108 -75.5t-134 -56.5
l-161 -2l161 126q70 60 125 153v106h-341v376q0 53 12.5 91.5t42.5 66.5q36 34 155 72l221 61q14 5 35 18q20 17 32 25q41 35 95 53v-816zM319 117q30 -43 80 -43q24 0 48 13q47 29 47 80q0 30 -13 48q-24 48 -82 48q-14 0 -26 -3t-23 -10q-46 -30 -46 -85q0 -13 2.5 -20
t12.5 -28zM763 764q37 80 78 123q19 21 59 34.5t92 19.5q-5 24 -6.5 53t-1.5 60q0 109 24 157q51 102 240 213l86 22l-53 -123q21 -37 42 -77t40 -77q-54 18 -95 18q-32 0 -52 -9q-94 -40 -94 -111q1 -7 2.5 -15t3.5 -15q9 -35 28.5 -60t43.5 -36q40 -9 86 -13q50 -2 131 31
q24 -104 105 -195h-759z" />
    <glyph glyph-name="afii57543-3" unicode="&#x6ad;" horiz-adv-x="2391" arabic-form="isolated" 
d="M1917 228h-1410q-89 0 -115 27q-27 30 -27 107q0 180 246 370l160 110q252 154 252 302q0 50 -27 91q-36 52 -98 52q-38 0 -67.5 -25.5t-66.5 -45.5q0 139 -41 197l-130 37v61h366q167 -66 235 -111q64 -96 64 -256q0 -200 -196 -346l-123 -90q-274 -165 -232 -229h1075
q239 0 340 -97q53 -48 98 -181q34 -97 101 -97l-54 -246h-2263q85 98 136 195q60 118 90 118q27 -17 68 -30l137 -37h1475l49 1h13l6 29q0 32 -30 68zM546 1142q28 14 59 14q25 0 37 -7q46 -12 70 -61q13 -34 13 -54q0 -35 -14 -58q-9 -18 -23 -30l-35 -26q-21 -11 -48 -11
q-33 0 -56 15q-37 20 -54 50.5t-17 63.5q0 29 7 44.5t22 30t39 29.5zM178 1142q28 14 59 14q25 0 37 -7q44 -12 70 -61q13 -34 13 -54q0 -35 -15 -58q-8 -18 -24 -30l-33 -26q-22 -11 -48 -11q-34 0 -58 15q-36 20 -52.5 50.5t-16.5 63.5q0 29 7 44.5t22 30t39 29.5z
M363 1414q27 16 59 16q24 0 36 -8q45 -12 69 -61q15 -35 15 -55q0 -34 -16 -58q-8 -16 -23 -30l-33 -25q-23 -11 -48 -11q-35 0 -58 15q-37 19 -53.5 49.5t-16.5 65.5q0 29 7 44.5t22 30t40 27.5z" />
    <glyph glyph-name="afii57454-3" unicode="&#x6ad;" horiz-adv-x="2376" arabic-form="final" 
d="M1917 228h-1410q-89 0 -115 27q-27 30 -27 107q0 180 246 370l160 110q252 154 252 302q0 50 -27 91q-36 52 -98 52q-38 0 -67.5 -25.5t-66.5 -45.5q0 139 -41 197l-130 91v7h366q167 -11 235 -111q64 -96 64 -256q0 -200 -196 -346l-123 -90q-274 -165 -232 -229h1075
q239 0 340 -97q53 -48 98 -181q34 -97 101 -97h85v-246h-2402q85 98 136 195q60 118 90 118q27 -17 68 -30l137 -37h1475l49 1h13l6 29q0 32 -30 68zM546 1142q28 14 59 14q25 0 37 -7q46 -12 70 -61q13 -34 13 -54q0 -35 -14 -58q-9 -18 -23 -30l-35 -26q-21 -11 -48 -11
q-33 0 -56 15q-37 20 -54 50.5t-17 63.5q0 29 7 44.5t22 30t39 29.5zM178 1142q28 14 59 14q25 0 37 -7q44 -12 70 -61q13 -34 13 -54q0 -35 -15 -58q-8 -18 -24 -30l-33 -26q-22 -11 -48 -11q-34 0 -58 15q-36 20 -52.5 50.5t-16.5 63.5q0 29 7 44.5t22 30t39 29.5z
M363 1414q27 16 59 16q24 0 36 -8q45 -12 69 -61q15 -35 15 -55q0 -34 -16 -58q-8 -16 -23 -30l-33 -25q-23 -11 -48 -11q-35 0 -58 15q-37 19 -53.5 49.5t-16.5 65.5q0 29 7 44.5t22 30t40 27.5z" />
    <glyph glyph-name="afii57451-3" unicode="&#x6ad;" horiz-adv-x="2362" arabic-form="initial" 
d="M1908 228h-1410q-89 0 -115 27q-27 30 -27 107q0 180 246 370l160 110q252 154 252 302q0 50 -26 91q-36 52 -99 52q-38 0 -67.5 -25.5t-66.5 -45.5q0 139 -41 197l-130 37v61h366q167 -66 236 -111q63 -96 63 -256q0 -200 -195 -346l-124 -90q-274 -165 -232 -229h1076
q238 0 339 -97q53 -48 99 -181l33 -97l13 -246h-2276v246h1919l49 1h13l6 29q0 32 -30 68zM538 1142q27 14 58 14q26 0 38 -7q45 -12 69 -61q13 -34 13 -54q0 -35 -14 -58q-8 -18 -23 -30l-35 -26q-21 -11 -48 -11q-33 0 -56 15q-37 20 -54 50.5t-17 63.5q0 29 7.5 44.5
t22.5 30t39 29.5zM169 1142q28 14 59 14q25 0 37 -7q45 -12 70 -61q13 -34 13 -54q0 -35 -14 -58q-9 -18 -24 -30l-34 -26q-22 -11 -48 -11q-34 0 -58 15q-36 20 -52.5 50.5t-16.5 63.5q0 29 7 44.5t22 30t39 29.5zM354 1414q28 16 59 16q24 0 36 -8q45 -12 69 -61
q15 -35 15 -55q0 -34 -16 -58q-8 -16 -23 -30l-33 -25q-23 -11 -48 -11q-35 0 -58 15q-37 19 -53 49.5t-16 65.5q0 29 6.5 44.5t21.5 30t40 27.5z" />
    <glyph glyph-name="glyph1051" unicode="&#x6ad;" horiz-adv-x="2364" arabic-form="medial" 
d="M1916 228h-1410q-89 0 -115 27q-27 30 -27 107q0 180 246 370l160 110q252 154 252 302q0 50 -26 91q-36 52 -99 52q-38 0 -67.5 -25.5t-66.5 -45.5q0 139 -41 197l-130 91v7h366q167 -11 236 -111q63 -96 63 -256q0 -200 -195 -346l-124 -90q-274 -165 -232 -229h1076
q238 0 339 -97q53 -48 99 -181q33 -97 100 -97h86v-246h-2416v246h1919l49 1h13l6 29q0 32 -30 68zM546 1142q27 14 58 14q26 0 38 -7q45 -12 69 -61q13 -34 13 -54q0 -35 -14 -58q-8 -18 -23 -30l-35 -26q-21 -11 -48 -11q-33 0 -56 15q-37 20 -54 50.5t-17 63.5
q0 29 7.5 44.5t22.5 30t39 29.5zM177 1142q28 14 59 14q25 0 37 -7q45 -12 70 -61q13 -34 13 -54q0 -35 -14 -58q-9 -18 -24 -30l-34 -26q-22 -11 -48 -11q-34 0 -58 15q-36 20 -52.5 50.5t-16.5 63.5q0 29 7 44.5t22 30t39 29.5zM362 1414q28 16 59 16q24 0 36 -8
q45 -12 69 -61q15 -35 15 -55q0 -34 -16 -58q-8 -16 -23 -30l-33 -25q-23 -11 -48 -11q-35 0 -58 15q-37 19 -53 49.5t-16 65.5q0 29 6.5 44.5t21.5 30t40 27.5z" />
    <glyph glyph-name="glyph1052" unicode="&#x6c7;" horiz-adv-x="795" arabic-form="isolated" 
d="M580.5 1044q-8.5 -70 -46.5 -119t-83.5 -72t-100.5 -18t-73 33q84 12 133.5 52t50.5 70t-28.5 26.5t-71 4t-66 53.5t-9 105t52 81.5t65.5 24.5t60.5 -6t62.5 -35t46.5 -78.5t7 -121.5zM685 -195l-23 -61q-23 -40 -48.5 -73t-63.5 -64q-48 -42 -108 -75.5t-134 -56.5
l-161 -2l161 126q70 60 125 153v106h-341v376q0 53 12.5 91.5t42.5 66.5q36 34 155 72l221 61q14 5 35 18q20 17 32 25q41 35 95 53v-816zM319 117q30 -43 80 -43q24 0 48 13q47 29 47 80q0 30 -13 48q-24 48 -82 48q-14 0 -26 -3t-23 -10q-46 -30 -46 -85q0 -13 2.5 -20
t12.5 -28z" />
    <glyph glyph-name="afii57471-3" unicode="&#x6c7;" horiz-adv-x="803" arabic-form="final" 
d="M549 1068q-8 -70 -46 -119t-83 -71.5t-101 -17t-72 31.5q82 13 132 53.5t50.5 70.5t-29 25.5t-70.5 3.5t-66 54t-9 105t53 81t65 24.5t60 -6t62.5 -35t46 -78.5t7.5 -122zM706 -195l-26 -61q-37 -72 -107 -137q-53 -42 -114 -75.5t-133 -56.5l-159 -2l159 126
q36 31 68.5 69t57.5 84v106h-341v376q0 104 56 158q17 19 53 35t100 37l221 61q25 7 68.5 44t96.5 52v-517h126v-246h-126v-53zM485 114q24 32 29 66q0 18 -9 30q-5 17 -17 32q-21 24 -64 24q-21 0 -35 -5t-27 -17l-19 -29l-8 -39q0 -27 24 -62q21 -25 62 -25q24 0 37 5
t27 20z" />
    <glyph glyph-name="afii57458-3" unicode="&#x6c6;" horiz-adv-x="774" arabic-form="isolated" 
d="M516 1113q74 72 144 83l-199 -354l-118 -2l-176 254q24 132 144 61l112 -193zM684 -195l-23 -61q-23 -40 -48.5 -73t-63.5 -64q-48 -42 -108 -75.5t-134 -56.5l-161 -2l161 126q70 60 125 153v106h-341v376q0 53 12.5 91.5t42.5 66.5q36 34 155 72l221 61q14 5 35 18
q20 17 32 25q41 35 95 53v-816zM318 117q30 -43 80 -43q24 0 48 13q47 29 47 80q0 30 -13 48q-24 48 -82 48q-14 0 -26 -3t-23 -10q-46 -30 -46 -85q0 -13 2.5 -20t12.5 -28z" />
    <glyph glyph-name="afii57457-3" unicode="&#x6c6;" horiz-adv-x="782" arabic-form="final" 
d="M679 -195l-26 -61q-37 -72 -107 -137q-53 -42 -114 -75.5t-133 -56.5l-159 -2l159 126q36 31 68.5 69t57.5 84v106h-341v376q0 104 56 158q17 19 53 35t100 37l221 61q25 7 68.5 44t96.5 52v-517h126v-246h-126v-53zM458 114q24 32 29 66q0 18 -9 30q-5 17 -17 32
q-21 24 -64 24q-21 0 -35 -5t-27 -17l-19 -29l-8 -39q0 -27 24 -62q21 -25 62 -25q24 0 37 5t27 20zM536 1113q75 72 144 83l-199 -354l-117 -2l-177 254q24 132 144 61l113 -193z" />
    <glyph glyph-name="afii57494-3" unicode="&#x6c8;" horiz-adv-x="815" arabic-form="isolated" 
d="M477 1060q-50 -209 -147 -217l1 241q-1 139 -118 180q67 101 154 13q25 198 183 126q-79 -47 -75 -128zM703 -195l-23 -61q-23 -40 -48.5 -73t-63.5 -64q-48 -42 -108 -75.5t-134 -56.5l-161 -2l161 126q70 60 125 153v106h-341v376q0 53 12.5 91.5t42.5 66.5
q36 34 155 72l221 61q14 5 35 18q20 17 32 25q41 35 95 53v-816zM337 117q30 -43 80 -43q24 0 48 13q47 29 47 80q0 30 -13 48q-24 48 -82 48q-14 0 -26 -3t-23 -10q-46 -30 -46 -85q0 -13 2.5 -20t12.5 -28z" />
    <glyph glyph-name="afii57459-3" unicode="&#x6c8;" horiz-adv-x="796" arabic-form="final" 
d="M696 -195l-26 -61q-37 -72 -107 -137q-53 -42 -114 -75.5t-133 -56.5l-159 -2l159 126q36 31 68.5 69t57.5 84v106h-341v376q0 104 56 158q17 19 53 35t100 37l221 61q25 7 68.5 44t96.5 52v-517h126v-246h-126v-53zM475 114q24 32 29 66q0 18 -9 30q-5 17 -17 32
q-21 24 -64 24q-21 0 -35 -5t-27 -17l-19 -29l-8 -39q0 -27 24 -62q21 -25 62 -25q24 0 37 5t27 20zM496 1060q-51 -209 -148 -217l1 241q-1 139 -117 180q67 101 153 13q26 198 184 126q-79 -47 -76 -128z" />
    <glyph glyph-name="afii57455-3" unicode="&#x6c5;" horiz-adv-x="799" arabic-form="isolated" 
d="M682 -195l-23 -61q-23 -40 -48.5 -73t-63.5 -64q-48 -42 -108 -75.5t-134 -56.5l-161 -2l161 126q70 60 125 153v106h-341v376q0 53 12.5 91.5t42.5 66.5q36 34 155 72l221 61q14 5 35 18q20 17 32 25q41 35 95 53v-816zM316 117q30 -43 80 -43q24 0 48 13q47 29 47 80
q0 30 -13 48q-24 48 -82 48q-14 0 -26 -3t-23 -10q-46 -30 -46 -85q0 -13 2.5 -20t12.5 -28z" />
    <glyph glyph-name="afii57452-3" unicode="&#x6c5;" horiz-adv-x="790" arabic-form="final" 
d="M689 -195l-26 -61q-37 -72 -107 -137q-53 -42 -114 -75.5t-133 -56.5l-159 -2l159 126q36 31 68.5 69t57.5 84v106h-341v376q0 104 56 158q17 19 53 35t100 37l221 61q25 7 68.5 44t96.5 52v-517h126v-246h-126v-53zM468 114q24 32 29 66q0 18 -9 30q-5 17 -17 32
q-21 24 -64 24q-21 0 -35 -5t-27 -17l-19 -29l-8 -39q0 -27 24 -62q21 -25 62 -25q24 0 37 5t27 20z" />
    <glyph glyph-name="glyph1060" unicode="&#x6c9;" horiz-adv-x="774" arabic-form="isolated" 
d="M311 923q-75 -72 -144 -83l199 354l117 2l177 -254q-24 -132 -144 -61l-113 193zM684 -195l-23 -61q-23 -40 -48.5 -73t-63.5 -64q-48 -42 -108 -75.5t-134 -56.5l-161 -2l161 126q70 60 125 153v106h-341v376q0 53 12.5 91.5t42.5 66.5q36 34 155 72l221 61q14 5 35 18
q20 17 32 25q41 35 95 53v-816zM318 117q30 -43 80 -43q24 0 48 13q47 29 47 80q0 30 -13 48q-24 48 -82 48q-14 0 -26 -3t-23 -10q-46 -30 -46 -85q0 -13 2.5 -20t12.5 -28z" />
    <glyph glyph-name="glyph1061" unicode="&#x6c9;" horiz-adv-x="782" arabic-form="final" 
d="M679 -195l-26 -61q-37 -72 -107 -137q-53 -42 -114 -75.5t-133 -56.5l-159 -2l159 126q36 31 68.5 69t57.5 84v106h-341v376q0 104 56 158q17 19 53 35t100 37l221 61q25 7 68.5 44t96.5 52v-517h126v-246h-126v-53zM458 114q24 32 29 66q0 18 -9 30q-5 17 -17 32
q-21 24 -64 24q-21 0 -35 -5t-27 -17l-19 -29l-8 -39q0 -27 24 -62q21 -25 62 -25q24 0 37 5t27 20zM312 923q-74 -72 -144 -83l199 354l118 2l176 -254q-24 -132 -144 -61l-113 193z" />
    <glyph glyph-name="glyph1062" unicode="&#x6cb;" horiz-adv-x="808" arabic-form="isolated" 
d="M718 -195l-23 -61q-23 -40 -49 -73t-63 -64q-48 -42 -108 -75.5t-134 -56.5l-161 -2l161 126q69 60 125 153v106h-341v376q0 53 12.5 91.5t42.5 66.5q36 34 155 72l221 61q14 5 34 18q21 17 33 25q41 35 95 53v-816zM352 117q30 -43 80 -43q24 0 48 13q47 29 47 80
q0 30 -13 48q-24 48 -82 48q-14 0 -26 -3t-23 -10q-46 -30 -46 -85q0 -13 2.5 -20t12.5 -28zM545 1154q27 14 59 14q25 0 37 -6q44 -13 69 -62q14 -34 14 -54q0 -35 -15 -58q-8 -18 -24 -30l-33 -26q-22 -11 -48 -11q-34 0 -58 15q-36 20 -53 50.5t-17 63.5q0 29 7.5 44.5
t22.5 30t39 29.5zM176 1154q28 14 59 14q24 0 37 -6q45 -13 70 -62q13 -34 13 -54q0 -35 -14 -58q-9 -18 -24 -30l-34 -26q-21 -11 -48 -11q-35 0 -57 15q-38 20 -54 50.5t-16 63.5q0 29 6.5 44.5t22 30t39.5 29.5zM361 1426q27 16 59 16q24 0 36 -8q46 -12 70 -61
q14 -35 14 -55q0 -34 -16 -56q-8 -18 -22 -30l-35 -27q-22 -11 -47 -11q-35 0 -58 15q-37 19 -53 50t-16 65q0 29 6.5 44.5t21.5 30t40 27.5z" />
    <glyph glyph-name="afii62884-3" unicode="&#x6cb;" horiz-adv-x="812" arabic-form="final" 
d="M715 -195l-26 -61q-37 -72 -107 -137q-53 -42 -114 -75.5t-133 -56.5l-159 -2l159 126q36 31 68.5 69t57.5 84v106h-341v376q0 104 56 158q17 19 53 35t100 37l221 61q25 7 68.5 44t96.5 52v-517h126v-246h-126v-53zM494 114q24 32 29 66q0 18 -9 30q-5 17 -17 32
q-21 24 -64 24q-21 0 -35 -5t-27 -17l-19 -29l-8 -39q0 -27 24 -62q21 -25 62 -25q24 0 37 5t27 20zM568 1154q27 14 58 14q26 0 38 -6q44 -13 69 -62q13 -34 13 -54q0 -35 -14 -58q-8 -18 -24 -30l-34 -26q-21 -11 -48 -11q-33 0 -57 15q-36 20 -53 50.5t-17 63.5
q0 29 7.5 44.5t22.5 30t39 29.5zM199 1154q28 14 59 14q24 0 37 -6q45 -13 70 -62q13 -34 13 -54q0 -35 -14 -58q-9 -18 -24 -30l-34 -26q-22 -11 -48 -11q-35 0 -58 15q-37 20 -53 50.5t-16 63.5q0 29 6.5 44.5t22 30t39.5 29.5zM384 1426q26 16 59 16q24 0 36 -8
q45 -12 69 -61q15 -35 15 -55q0 -34 -16 -56q-8 -18 -23 -30l-34 -27q-22 -11 -47 -11q-35 0 -58 15q-37 19 -53 50t-16 65q0 29 6.5 44.5t21.5 30t40 27.5z" />
    <glyph glyph-name="afii62881-3" unicode="&#x6d0;" horiz-adv-x="1652" arabic-form="isolated" 
d="M762 770q357 -672 495 -653q19 -9 30 -9q31 0 77 33l38 30l-1 -27q0 -85 70 -158q63 -67 161 -128h-472q-90 12 -254 258q-16 21 -51 76q-18 29 -141 250t-158 221q-22 0 -47 -38t-25 -53q0 -63 80 -185l120 -202q102 -195 102 -325q0 -68 -36 -156q-44 -109 -126 -175
q-111 -81 -252 -81q-123 0 -227 100q-34 35 -75 100l-2 18v16q0 36 12 67l12 24q30 -19 107 -84t173 -65q78 0 118 70q45 63 45 183q0 102 -100 282l-129 225q-59 104 -59 215t69 191l146 139q26 30 38 72l29 99q60 -47 233 -330zM1002 -645q27 15 58 15q24 0 36 -6
q46 -16 70 -63q14 -33 14 -54q0 -33 -15 -57q-7 -18 -21.5 -31t-35 -25t-48.5 -12q-34 0 -57 16q-39 17 -53 48q-17 29 -17 67q0 28 6.5 42.5t22.5 31t40 28.5zM1002 -293q27 15 58 15q24 0 36 -7q46 -14 70 -61q14 -34 14 -55q0 -34 -15 -57q-7 -18 -21.5 -31t-35 -24.5
t-48.5 -11.5q-34 0 -57 15q-39 16 -53 48q-17 28 -17 67q0 29 6.5 43t22.5 30.5t40 28.5z" />
    <glyph glyph-name="afii62886-3" unicode="&#x6d0;" horiz-adv-x="1244" arabic-form="final" 
d="M984 -645q27 15 58 15q24 0 36 -6q46 -16 70 -63q14 -33 14 -54q0 -33 -15 -57q-7 -18 -21.5 -31t-35 -25t-48.5 -12q-34 0 -57 16q-39 17 -53 48q-17 29 -17 67q0 28 6.5 42.5t22.5 31t40 28.5zM984 -293q27 15 58 15q24 0 36 -7q46 -14 70 -61q14 -34 14 -55
q0 -34 -15 -57q-7 -18 -21.5 -31t-35 -24.5t-48.5 -11.5q-34 0 -57 15q-39 16 -53 48q-17 28 -17 67q0 29 6.5 43t22.5 30.5t40 28.5zM744 770q357 -672 495 -666h30l-9 -246h-118q-90 12 -254 258q-16 21 -51 76q-18 29 -141 250t-158 221q-22 0 -47 -38t-25 -53
q0 -63 80 -185l120 -202q102 -195 102 -325q0 -68 -36 -156q-44 -109 -126 -175q-111 -81 -252 -81q-123 0 -227 100q-34 35 -75 100l-2 18v16q0 36 12 67l12 24q30 -19 107 -84t173 -65q78 0 118 70q45 63 45 183q0 102 -100 282l-129 225q-59 104 -59 215t69 191l146 139
q26 30 38 72l29 99q60 -47 233 -330z" />
    <glyph glyph-name="afii62883-3" unicode="&#x6d0;" horiz-adv-x="864" arabic-form="initial" 
d="M398 -684q26 14 59 14q24 0 36 -7q45 -15 69 -61q15 -34 15 -54q0 -35 -16 -58q-8 -18 -22.5 -30.5t-35 -24.5t-46.5 -12q-35 0 -58 15q-38 16 -54 48q-16 28 -16 66q0 29 7 43.5t22.5 30.5t39.5 30zM781 -142h-796v246h582v226q-37 24 -59 51l-12 27q82 33 130 96
l96 130h59v-776zM398 -333q26 16 59 16q24 0 36 -7q45 -15 69 -62q15 -34 15 -55q0 -33 -16 -56q-8 -18 -22.5 -31.5t-35 -24.5t-46.5 -11q-35 0 -58 14q-38 17 -54 48q-16 29 -16 67q0 29 7 43.5t22.5 30.5t39.5 28z" />
    <glyph glyph-name="afii62885-3" unicode="&#x6d0;" horiz-adv-x="871" arabic-form="medial" 
d="M399 -672q27 14 58 14q26 0 38 -6q44 -16 69 -61q13 -35 13 -55q0 -34 -14 -58q-8 -18 -22.5 -30.5t-35 -24.5t-48.5 -12q-33 0 -57 15q-37 17 -53 48q-17 29 -17 68q0 27 7.5 41.5t23 31.5t38.5 29zM882 -142h-895v246h581v226l-31 23l-28 29l-12 26l32 17l48 21l14 24
l30 31l103 133h59v-530h99v-246zM399 -333q27 16 58 16q26 0 38 -7q44 -15 69 -62q13 -34 13 -55q0 -33 -14 -56q-8 -18 -22.5 -31.5t-35 -24.5t-48.5 -11q-33 0 -57 14q-37 17 -53 48q-17 29 -17 67q0 29 7.5 43.5t23 30.5t38.5 28z" />
    <glyph glyph-name="afii62882-3" unicode="&#x649;" horiz-adv-x="936" arabic-form="initial" 
d="M818 -142h-823v246h608v226q0 36 -18 56l-45 22q0 21 99.5 70t125.5 156h53v-510v-101v-165z" />
    <glyph glyph-name="afii57504-3" unicode="&#x649;" horiz-adv-x="854" arabic-form="medial" 
d="M865 -142h-895v246h582v226l-31 23l-28 29l-12 26l33 17l32 23l28 22l30 31l103 133h59v-530h99v-246z" />
    <glyph glyph-name=".notdef" horiz-adv-x="1620" 
d="M284 118v1313h1051v-1313h-1051zM318 150h984v1247h-984v-1247z" />
    <glyph glyph-name=".null" horiz-adv-x="0" 
 />
    <glyph glyph-name="nonmarkingreturn" horiz-adv-x="512" 
 />
    <glyph glyph-name="space" unicode=" " horiz-adv-x="512" 
 />
    <glyph glyph-name="space" unicode="&#xa0;" horiz-adv-x="512" 
 />
    <glyph glyph-name="exclam" unicode="!" horiz-adv-x="646" 
d="M118 1236l214 222l213 -222q-151 -303 -187 -967h-50q-29 383 -76 606t-114 361zM332 -179l-183 182l183 183l183 -183z" />
    <glyph glyph-name="quotedbl" unicode="&#x22;" horiz-adv-x="1277" 
d="M340 480h-58q-83 222 -104.5 392.5t-16.5 230.5v175h293v-175q0 -56 -20.5 -226t-93.5 -397zM916 480h-58q-83 222 -104.5 392.5t-16.5 230.5v175h293v-175q0 -56 -20.5 -226t-93.5 -397z" />
    <glyph glyph-name="numbersign" unicode="#" horiz-adv-x="1609" 
d="M81 819h378l101 469h198l-102 -469h455l99 469h199l-100 -469h216v-198h-255l-81 -393h336v-199h-375l-99 -465h-200l101 465h-458l-96 -465h-199l98 465h-216v199h257l81 393h-338v198zM617 621l-81 -391h456l81 391h-456z" />
    <glyph glyph-name="dollar" unicode="$" horiz-adv-x="1230" 
d="M705 1380v-105q161 -27 347 -106l-96 -218l-251 72v-454l308 161q160 -176 160 -426q0 -158 -79 -294q-119 -207 -389 -392v-214h-132v239l-515 144l137 219l378 -102v536l-287 -148q-137 137 -183 232.5t-46 217.5q0 146 71.5 271.5t202.5 197.5q96 54 242 67v102h132z
M573 1060l-260 74q-72 -124 -72 -242q0 -125 63 -225.5t205 -199.5l64 33v560zM705 -134l166 -44q61 77 91.5 160.5t30.5 176.5q0 121 -60 228.5t-162 155.5l-66 -34v-643z" />
    <glyph glyph-name="percent" unicode="%" horiz-adv-x="2317" 
d="M675 -464h-158l1092 1750h159zM589 380q-163 51 -256.5 168.5t-93.5 254.5q0 139 95 270.5t255 204.5q112 -45 168 -90q88 -69 134 -153.5t46 -177.5q0 -95 -49 -192t-131 -173q-56 -51 -168 -112zM702 542q47 67 64.5 117.5t17.5 110.5q0 105 -77.5 199.5t-231.5 143.5
q-84 -90 -84 -228q0 -108 73 -197.5t238 -145.5zM1737 -382q-164 52 -257.5 169.5t-93.5 253.5q0 139 95 270.5t256 204.5q110 -45 168 -90q87 -68 133.5 -153t46.5 -178q0 -95 -49.5 -191t-130.5 -173q-57 -52 -168 -113zM1849 -220q47 67 64.5 117.5t17.5 110.5
q0 105 -77.5 199.5t-230.5 143.5q-84 -90 -84 -228q0 -108 72 -197.5t238 -145.5z" />
    <glyph glyph-name="ampersand" unicode="&#x26;" horiz-adv-x="1916" 
d="M446 -382l-360 549l580 382l-231 411q-30 53 -30 98q0 38 27 68q40 48 104 70q17 6 23 8l547 232q89 -41 150 -133.5t61 -200.5q0 -83 -36 -151.5t-113 -131.5q-48 -41 -230 -159l253 -454l359 250q88 -68 138 -91t92 -23q16 0 36 4q10 1 16 1l11 -3q6 -9 6 -18
q0 -33 -77.5 -94t-166.5 -61q-115 0 -213 110l-174 -122q74 -135 117 -188t117 -92.5t169 -39.5q68 0 156 42q9 5 15 5t10 -5q6 -6 6 -13q0 -36 -44 -100t-128.5 -107t-181.5 -43q-108 0 -193 44.5t-151 122.5q-48 56 -134 204zM912 712q115 64 162 137q32 51 32 127
q0 112 -77 200.5t-155 88.5q-66 0 -114.5 -46.5t-48.5 -105.5q0 -46 45 -125zM656 -170l294 206l-258 464l-330 -216z" />
    <glyph glyph-name="quotesingle" unicode="'" horiz-adv-x="619" 
d="M340 480h-58q-83 222 -104.5 392.5t-16.5 230.5v175h293v-175q0 -56 -20.5 -226t-93.5 -397z" />
    <glyph glyph-name="parenleft" unicode="(" horiz-adv-x="793" 
d="M725 -822q-289 186 -463 480t-174 634q0 358 187 666q155 254 456 468l23 -41q-176 -129 -284 -372q-128 -284 -128 -691q0 -435 135 -741q95 -211 277 -367z" />
    <glyph glyph-name="parenright" unicode=")" horiz-adv-x="793" 
d="M68 -822l-28 36q182 156 276 367q136 306 136 741q0 407 -128 691q-109 243 -284 372l22 41q302 -214 456 -468q188 -308 188 -666q0 -340 -174 -634t-464 -480z" />
    <glyph glyph-name="asterisk" unicode="*" horiz-adv-x="1221" 
d="M466 534q82 132 120 375q-25 -13 -68 -36q-156 -81 -249 -190l-188 90l100 187q72 -24 172 -24q94 0 215 24q-110 104 -183 156q-44 30 -130 70l30 204l209 -36q2 -70 26.5 -152.5t88.5 -212.5q113 210 119 365l206 36l31 -204q-86 -35 -135 -71q-87 -62 -177 -155
q132 -24 220 -24q113 0 170 24l99 -187l-193 -90q-75 94 -311 226q25 -150 45 -213q34 -102 74 -162l-148 -150z" />
    <glyph glyph-name="plus" unicode="+" horiz-adv-x="1587" 
d="M130 533h551v553h222v-553h553v-222h-553v-548h-222v548h-551v222z" />
    <glyph glyph-name="comma" unicode="," horiz-adv-x="634" 
d="M138 -192l178 176l176 -166q-66 -291 -325 -416l-29 42q79 65 96 92q28 46 28 92q0 38 -25 78t-99 102z" />
    <glyph glyph-name="hyphen" unicode="-" horiz-adv-x="843" 
d="M202 18h499v-155h-499v155z" />
    <glyph glyph-name="hyphen" unicode="&#xad;" horiz-adv-x="843" 
d="M202 18h499v-155h-499v155z" />
    <glyph glyph-name="period" unicode="." horiz-adv-x="636" 
d="M309 -170l-182 182l182 184l184 -184z" />
    <glyph glyph-name="slash" unicode="/" horiz-adv-x="1354" 
d="M208 -464h-156l1092 1750h157z" />
    <glyph glyph-name="zero" unicode="0" horiz-adv-x="1007" 
d="M494 1278q217 -93 338.5 -299t121.5 -484q0 -274 -113 -497.5t-306 -379.5q-137 41 -249 153.5t-171 280.5t-59 349q0 259 120 504t318 373zM327 1058q-133 -189 -133 -454q0 -187 64 -352.5t184 -273.5t245 -131q69 119 98 222.5t29 229.5q0 173 -56 329.5t-168.5 265
t-262.5 164.5z" />
    <glyph glyph-name="one" unicode="1" horiz-adv-x="1017" 
d="M197 1026l240 252q88 -44 129 -119.5t41 -195.5v-1004q0 -42 12 -63q21 -37 75 -87l105 107l30 -41l-253 -257l-233 191l64 107v898q0 91 -10 126q-15 58 -45 91q-23 23 -39 23q-19 0 -52 -35q-21 -20 -35 -33z" />
    <glyph glyph-name="two" unicode="2" horiz-adv-x="1006" 
d="M75 904l400 374l463 -348q3 -69 3 -116q0 -197 -86 -336t-388 -352q-134 -96 -189 -154t-100 -142q117 65 204 91t172 26q72 0 147 -13.5t114 -26.5l149 -60l-167 -229q-150 65 -205 78q-86 23 -163 23q-145 0 -317 -83q-37 -18 -43 -18q-5 0 -8 5q-4 6 -4 18
q0 57 31 140q43 113 123 222q56 79 184 208.5t177 196.5q68 95 104.5 198.5t36.5 219.5q0 174 -103 287l-398 -382z" />
    <glyph glyph-name="three" unicode="3" horiz-adv-x="1007" 
d="M422 1278l451 -246q6 -44 6 -79q0 -145 -71 -253.5t-189 -179.5q160 -46 241.5 -158.5t81.5 -242.5q0 -137 -91 -248q-116 -144 -429 -253l-385 372l138 171l428 -411q54 60 79.5 130t25.5 172q0 196 -89.5 311.5t-240.5 115.5q-48 0 -103 -11v88h19q167 0 258.5 113
t91.5 309q0 80 -19 111.5t-46 31.5q-26 0 -64 -37l-16 -14l-263 -234l-126 162z" />
    <glyph glyph-name="four" unicode="4" horiz-adv-x="1005" 
d="M932 363l36 -215h-234v-248l59 -36q31 -18 43 -18q16 0 34 18l33 36l29 -42l-230 -240l-231 179l63 103v248h-456l-41 233l536 897q69 -12 115 -85t46 -205v-625h198zM534 363v501q0 70 -14 107t-41 58l-398 -666h453z" />
    <glyph glyph-name="five" unicode="5" horiz-adv-x="1008" 
d="M264 1257h597l-73 -231h-508l-73 -564l405 341q161 -87 244 -230t83 -312q0 -216 -114.5 -397.5t-388.5 -245.5l-366 275l137 185l439 -318q65 67 90 128q40 91 40 190q0 166 -81 298t-259 209l-288 -240z" />
    <glyph glyph-name="six" unicode="6" horiz-adv-x="1007" 
d="M880 1066l-137 -215l-354 208q-73 -131 -104 -252q-42 -171 -42 -333q0 -42 4 -99l435 361q135 -67 201 -178.5t66 -254.5q0 -175 -81 -315q-115 -201 -359 -370q-229 97 -340.5 284t-111.5 450q0 198 54 348t167 306t241 272zM254 311q37 -188 155 -312.5t286 -158.5
q95 127 95 286q0 122 -70.5 228t-218.5 164z" />
    <glyph glyph-name="seven" unicode="7" horiz-adv-x="1006" 
d="M249 1257h721v-65q-139 -198 -216 -354q-119 -244 -185.5 -522t-73.5 -584l-270 -114q1 131 25 256q44 216 130 434q66 166 180 361q40 71 237 356h-384q-116 0 -179 -48.5t-115 -172.5h-49z" />
    <glyph glyph-name="eight" unicode="8" horiz-adv-x="1007" 
d="M410 1278h73q210 0 314 -103t104 -229q0 -84 -47 -165.5t-150 -172.5q106 -47 160 -122q80 -111 80 -246q0 -142 -80.5 -276t-341.5 -346h-35q-198 0 -309 123t-111 288q0 111 59 211.5t140 177.5q-78 35 -120.5 107.5t-42.5 158.5q0 116 64 250t243 344zM291 1049
q-30 -43 -44 -89t-14 -97q0 -89 57 -140q39 -35 139 -52q72 -12 218 -45q56 42 87 97t31 108q0 61 -42.5 115t-133.5 76q-68 16 -298 27zM321 400q-60 -64 -89 -124.5t-29 -117.5q0 -104 84 -182q110 -105 306 -105q130 0 197 71.5t67 161.5q0 58 -34 113t-131 97
q-66 28 -215 54q-110 19 -156 32z" />
    <glyph glyph-name="nine" unicode="9" horiz-adv-x="1006" 
d="M132 -174l136 213l355 -204q73 138 102 255q43 176 43 339q0 37 -6 96l-436 -369q-99 62 -135 99q-59 59 -98 149t-39 198q0 176 103 337q125 195 334 339q222 -79 340 -270.5t118 -459.5q0 -203 -60 -375q-45 -131 -152.5 -277.5t-245.5 -277.5zM752 582
q-73 380 -441 473q-47 -69 -71 -139t-24 -140q0 -86 34 -168.5t99 -141.5q49 -44 156 -92z" />
    <glyph glyph-name="colon" unicode=":" horiz-adv-x="638" 
d="M327 -170l-182 182l182 184l184 -184zM317 531l-182 182l182 184l184 -184z" />
    <glyph glyph-name="semicolon" unicode=";" horiz-adv-x="636" 
d="M139 -192l177 176l177 -166q-66 -291 -326 -416l-28 42q79 65 96 92q27 46 27 92q0 38 -24.5 78t-98.5 102zM317 531l-182 182l182 184l184 -184z" />
    <glyph glyph-name="semicolon" unicode="&#x37e;" horiz-adv-x="636" 
d="M139 -192l177 176l177 -166q-66 -291 -326 -416l-28 42q79 65 96 92q27 46 27 92q0 38 -24.5 78t-98.5 102zM317 531l-182 182l182 184l184 -184z" />
    <glyph glyph-name="less" unicode="&#x3c;" horiz-adv-x="1587" 
d="M1455 -230l-1324 553v201l1324 554v-240l-1023 -414l1023 -414v-240z" />
    <glyph glyph-name="equal" unicode="=" horiz-adv-x="1587" 
d="M131 821h1324v-222h-1324v222zM131 252h1324v-222h-1324v222z" />
    <glyph glyph-name="greater" unicode="&#x3e;" horiz-adv-x="1587" 
d="M131 1078l1324 -554v-201l-1324 -553v239l1022 414l-1022 414v241z" />
    <glyph glyph-name="question" unicode="?" horiz-adv-x="795" 
d="M34 933l180 323h42q215 0 336 -106t121 -253q0 -76 -34 -152t-143.5 -204.5t-143.5 -218.5t-34 -252h-53q-2 50 -2 74q0 89 19.5 184t82.5 268q47 129 47 216q0 42 -25.5 92t-72 78t-97.5 28q-98 0 -188 -98zM329 -382l-182 182l182 184l184 -184z" />
    <glyph glyph-name="at" unicode="@" horiz-adv-x="2240" 
d="M1385 728l293 12l-219 -754q-38 -124 -38 -189q0 -36 29 -64.5t66 -28.5q87 0 217.5 95.5t216.5 272.5t86 377q0 331 -213 544t-555 213q-295 0 -536.5 -138.5t-383 -402.5t-141.5 -566q0 -415 264.5 -679.5t673.5 -264.5q338 0 605.5 181t378.5 480h74
q-144 -353 -419.5 -540.5t-640.5 -187.5q-462 0 -762 298t-300 755q0 314 149.5 582.5t417.5 413.5t595 145q265 0 463.5 -106t298 -298t99.5 -406q0 -250 -107.5 -454t-267.5 -302t-345 -98q-119 0 -181 59t-62 147q0 70 28 173q-99 -165 -153 -228q-76 -85 -150 -125
q-49 -26 -112 -26q-84 0 -142 68t-58 196q0 200 79 379t186 295t232 185q57 32 123 32q67 0 111 -42t60 -146zM1202 687q-24 0 -60.5 -26t-100.5 -138.5t-121 -289t-57 -286.5q0 -52 23 -80.5t48 -28.5q34 0 93 56q102 97 182 287t80 350q0 81 -31 123q-23 33 -56 33z" />
    <glyph glyph-name="A" unicode="A" horiz-adv-x="1764" 
d="M1649 1436l23 -56q-86 -42 -127.5 -83t-58.5 -92t-17 -152q0 -33 1 -87l21 -896q2 -147 31 -193q20 -32 49 -32q35 0 108 69l35 -44l-223 -191l-75 -61q-94 44 -134.5 117.5t-45.5 234.5l-464 -352q-388 256 -528 256q-35 0 -59 -22q-18 -16 -18 -44q0 -32 23 -69
q30 -50 30 -66q0 -23 -17 -39t-41 -16q-30 0 -48 24q-26 32 -26 84q0 58 33 129t98 155q13 18 24 34l171 234q-174 130 -244 250t-70 269q0 173 88 320.5t265 233t365 85.5q286 0 553 -200q65 69 125 112.5t153 87.5zM1059 1157q-151 75 -301 75q-160 0 -300.5 -70.5
t-210 -181.5t-69.5 -227q0 -246 266 -436l401 549q-90 49 -162 49q-99 0 -163 -94q-12 -19 -24 -19q-7 0 -13.5 7t-6.5 18q0 37 37.5 103t111.5 107t155 41q84 0 191 -41zM1214 1034q-35 38 -47 49q-9 8 -60 44l-525 -715h646zM453 237l-108 -150l609 -263l284 209l-5 204
h-780z" />
    <glyph glyph-name="B" unicode="B" horiz-adv-x="2035" 
d="M1599 1436q125 -34 188 -99q90 -91 90 -210q0 -97 -70 -201t-258 -246q160 -15 235 -53.5t105 -98.5t30 -200v-412q-427 -48 -728 -298q-104 72 -198 102q-151 50 -324 50q-212 0 -341 -86q-86 -58 -86 -115q0 -22 24.5 -64.5t24.5 -67.5q0 -24 -18 -42t-40 -18
q-33 0 -60 31.5t-27 82.5q0 47 33 106t142.5 171t140.5 163.5t31 95.5q0 53 -35.5 87t-89.5 34q-49 0 -80.5 -27.5t-42.5 -91.5h-43q-1 23 -1 34q0 101 68 165.5t180 64.5q14 0 41 -1q-1 118 -35 170q-52 86 -160 86q-68 0 -119 -35q-28 -18 -55 -75l-46 16
q12 115 89.5 183.5t197.5 68.5q44 0 110 -7q5 169 31.5 246.5t89 141.5t236.5 178q-165 -54 -279 -54q-73 0 -192 29q-68 16 -97 16q-54 0 -91 -37t-49 -130h-46q4 109 40.5 183t112 119t159.5 45q62 0 207.5 -36t235.5 -36q66 0 127.5 14t162.5 58l24 -52
q-259 -126 -345 -245.5t-86 -317.5v-493q0 -162 -36 -252t-145 -205q213 90 286 193t73 304v354q0 247 43 348.5t159 174t506 191.5zM1391 1319q-129 -59 -174 -99.5t-62.5 -96.5t-17.5 -189v-492q0 -132 -24 -198.5t-92.5 -131t-277.5 -186.5q113 17 210 17q166 0 314 -45
v999h52v-312q166 99 245 204t79 228q0 101 -61.5 173.5t-190.5 128.5zM1319 412q99 -35 178 -35t178 35q0 83 -37.5 133.5t-140.5 94.5q-131 -86 -178 -112v-116zM1675 359q-101 -35 -178 -35q-83 0 -178 35v-213q93 33 173 33q78 0 183 -33v213zM1675 90q-111 40 -188 40
q-80 0 -168 -40v-213q52 -23 98 -51q122 63 258 99v165z" />
    <glyph glyph-name="C" unicode="C" horiz-adv-x="1761" 
d="M671 1262l29 -34q-179 -121 -267 -259q-112 -178 -112 -387q0 -253 166 -468q72 59 86.5 99.5t14.5 220.5v537l514 429q180 -71 283 -92t242 -21h28l19 -43l-198 -190q-200 22 -452 146l13 -1370l46 -1q172 0 314.5 59t294.5 190l36 -34q-111 -154 -218.5 -239t-259 -136
t-299.5 -51q-221 0 -416 107t-305.5 306t-110.5 410q0 260 156 482q122 174 396 339zM970 1208l-141 -122v-547q0 -102 -10 -135q-12 -45 -56 -95q-87 -102 -244 -233q96 -106 205.5 -163t257.5 -77z" />
    <glyph glyph-name="D" unicode="D" horiz-adv-x="2043" 
d="M37 1400h56q20 -60 64 -86q58 -33 187 -33q83 0 526 17q267 10 333 10q200 0 339.5 -68t227 -210t116.5 -390q21 -174 35 -766q-234 -148 -360 -256q-382 107 -673 107q-198 0 -367.5 -47.5t-358.5 -151.5l-35 45q246 127 432 260.5t245.5 238t59.5 266.5q0 59 -3 174
q-2 81 -2 167q0 153 17.5 225t73.5 165h-31q-146 -84 -195 -153t-49 -176l10 -426q0 -170 -102 -305t-490 -389l-34 47q195 137 257.5 224.5t62.5 182.5q0 83 -53 141.5t-116 58.5q-33 0 -60.5 -18t-74.5 -75l-38 39q41 103 108.5 151t162.5 48q28 0 61 -6t71 -18
q-2 69 -2 121q0 188 76 306.5t292 246.5q-198 -20 -342 -20q-152 0 -261 43q-82 34 -120.5 107.5t-45.5 202.5zM1009 1067q-52 -87 -70 -152q-24 -89 -24 -166l10 -473q0 -91 -46 -186q-34 -70 -130 -172q175 29 267 28l69 -2v1123h-76zM1146 606q73 -51 127.5 -70.5
t118.5 -19.5q63 0 118.5 20t129.5 70q-23 270 -139 365.5t-355 95.5v-461zM1146 210q81 47 139 64.5t126 17.5q66 0 122.5 -16t135.5 -61l-20 325q-77 -46 -133 -63.5t-122 -17.5q-63 0 -125.5 20.5t-122.5 60.5v-330zM1146 -59q146 -12 238 -29.5t287 -72.5q3 181 3 187
q0 14 -3 115q-76 53 -134.5 73t-126.5 20q-70 0 -129.5 -20t-134.5 -73v-200z" />
    <glyph glyph-name="E" unicode="E" horiz-adv-x="1763" 
d="M673 1260l24 -37q-200 -127 -294 -292t-94 -353q0 -243 166 -464q69 58 83.5 97t14.5 201v552l524 448q147 -71 247 -98.5t197 -27.5q51 0 125 10l30 -36l-414 -418h324l-131 -231h-456v-777l77 -4q171 0 339 86q127 63 261 198l29 -45q-139 -217 -307 -323
q-205 -128 -468 -128q-414 0 -654 286q-191 226 -191 531q0 189 78 353t220 294q100 91 270 178zM964 1202l-146 -123v-557q0 -92 -10.5 -128t-47.5 -78q-79 -94 -254 -239q104 -110 206.5 -164t251.5 -74v1363zM1424 1066q-126 18 -207 43t-198 83v-536z" />
    <glyph glyph-name="F" unicode="F" horiz-adv-x="2070" 
d="M1975 1412h53q-5 -106 -33 -161q-38 -73 -113.5 -116.5t-167.5 -43.5q-97 0 -231 53v-318h375l-68 -179h-307v-570q0 -169 -23.5 -246t-92 -148t-171.5 -119q-148 -70 -238 -100l-502 -168q-238 88 -276 88q-34 0 -60.5 -23.5t-37.5 -76.5l-50 12q0 83 20 131
q33 77 91.5 116.5t126.5 39.5q94 0 244 -65q106 -46 129.5 -53.5t44.5 -7.5q38 0 69 30.5t40 93.5t9 263v803l-74 1q-185 0 -274.5 -42.5t-154.5 -143.5l-47 20q48 158 126 228q132 117 366 117q20 0 58 -1v256l83 -4q134 0 265 54.5t220 130.5q58 51 124 149
q197 -126 323 -126q55 0 93.5 29t60.5 97zM1237 1095q-81 -43 -184 -66v-967q0 -51 -9 -190q-6 -81 -20 -123q-20 -63 -59.5 -118.5t-134.5 -144.5q157 58 250.5 142.5t125 182t31.5 293.5v991z" />
    <glyph glyph-name="G" unicode="G" horiz-adv-x="1916" 
d="M1723 1278l22 -39l-437 -324q129 0 262.5 -65t202 -180t68.5 -241q0 -201 -138.5 -386t-395 -305t-482.5 -120q-218 0 -397 97t-265 243.5t-86 322.5q0 198 96 368.5t356 376.5l485 386q203 -99 317 -131.5t224 -32.5q83 0 168 30zM831 1204l-21 -20v-568l562 422
q-263 66 -541 166zM561 983q-138 -141 -194 -266t-56 -291q0 -133 36.5 -235t108.5 -196q69 62 87 105t18 161v722zM1021 376q84 -58 154 -82t154 -24q76 0 141 19.5t165 75.5q-30 126 -111 204q-131 127 -326 127q-83 0 -177 -32v-288zM969 640q-96 -46 -159 -92v-202
q0 -92 -13 -124t-56 -67q-27 -20 -44 -33l-206 -173q108 -114 219.5 -168.5t258.5 -62.5v922zM1021 42q150 80 285 80q129 0 275 -72q61 127 61 242v16q-108 -54 -174 -72t-144 -18q-75 0 -150.5 22.5t-152.5 67.5v-266zM1021 -281q112 6 183 31q108 37 204 108
q72 53 146 146q-145 59 -257 59q-135 0 -276 -78v-266z" />
    <glyph glyph-name="H" unicode="H" horiz-adv-x="2045" 
d="M1463 1436l23 -51q-158 -55 -234 -111.5t-98.5 -119t-22.5 -202.5v-248l468 375q147 -93 223 -176t100.5 -166t24.5 -271v-179q0 -140 -17.5 -208.5t-70.5 -135.5q-77 -98 -264 -246q-134 -105 -165.5 -146t-31.5 -70q0 -15 12 -27t34 -12q13 0 36.5 5t36.5 5
q31 0 47 -15.5t16 -42.5q0 -34 -27 -56q-36 -30 -87 -30q-56 0 -95.5 44t-39.5 106q0 44 29.5 102t146 201.5t150.5 217t47 179.5q-148 69 -270 69q-154 0 -305.5 -70.5t-349.5 -250.5q83 4 124 4q95 0 254 -16q45 -5 78 -5q59 0 105 29t94 98l52 -28l-268 -377
q-164 69 -286 98t-246 29q-141 0 -250 -34t-154 -87q-33 -41 -33 -73q0 -23 29 -66q20 -29 20 -56q0 -30 -18 -49t-41 -19q-29 0 -56.5 32.5t-27.5 79.5q0 56 30.5 110.5t135.5 161t136.5 164t31.5 112.5q0 42 -23 66t-61 24q-72 0 -117 -104h-52q10 95 39 144.5t88 83.5
q45 27 122 33q-6 145 -58 201t-149 56q-60 0 -95 -22.5t-70 -84.5l-44 13q14 78 39 118q40 58 106 91t140 33q46 0 106 -6q-4 57 -4 95q0 144 80 275q57 94 193 196q-135 -44 -181 -44q-41 0 -216 32q-69 13 -92 13q-42 0 -76 -35.5t-51 -129.5h-61q19 111 53 170
q53 87 132 134.5t159 47.5q48 0 168 -34t191 -34q144 0 322 90l25 -51q-244 -95 -335 -235q-60 -92 -60 -302v-561q0 -149 -30.5 -231t-136.5 -212q147 82 225 166.5t99 158.5t21 255v408q0 191 43.5 283.5t151.5 163t383 157.5zM1131 634v-54q157 -62 291 -62
q81 0 141.5 15.5t140.5 56.5q-21 88 -77.5 155t-180.5 136zM1131 219q147 63 281 63q73 0 136 -13t156 -50v308q-90 -38 -151 -52t-137 -14q-136 0 -285 59v-301z" />
    <glyph glyph-name="I" unicode="I" horiz-adv-x="1488" 
d="M1403 1436l20 -41q-126 -37 -174 -99t-48 -166q0 -130 57 -459q45 -265 53.5 -335t8.5 -146q0 -190 -71 -318t-181 -187t-200 -59q-95 0 -316 70q-175 54 -250 54q-74 0 -125.5 -38t-76.5 -112l-46 18q29 113 76 175q61 82 130 114.5t201 39.5t180 56q48 48 48 152
q0 210 -83 319q-60 80 -158 80q-41 0 -83.5 -17.5t-114.5 -70.5l-35 29q63 108 148.5 162.5t199.5 54.5q17 0 41 -1q3 195 55.5 320.5t198.5 287.5q-143 -68 -182.5 -80.5t-85.5 -12.5q-37 0 -108.5 13t-107.5 13q-84 0 -128 -37t-56 -118l-46 10q20 133 86 209
q94 105 251 105q46 0 109 -14q119 -25 201 -25q63 0 111 10.5t117 43.5l30 -35q-126 -103 -174.5 -207.5t-48.5 -294.5q0 -99 7 -174q2 -33 31 -218q35 -233 35 -306q0 -137 -83 -212q-61 -55 -199 -84q140 -123 196 -153t112 -30q81 0 136.5 58.5t55.5 151.5q0 113 -54 428
q-65 372 -65 557q0 173 49 275.5t145 168.5q72 49 211 75z" />
    <glyph glyph-name="J" unicode="J" horiz-adv-x="1650" 
d="M1574 1436l42 -40q-155 -169 -212 -295.5t-57 -275.5q0 -75 5 -265q3 -101 3 -209q0 -333 -83 -497q-109 -216 -358 -379q-205 -135 -361 -135q-43 0 -76 7.5t-106 35.5q-100 39 -162 39q-53 0 -87 -22q-23 -16 -43 -66l-48 20q31 119 82 175q81 89 216 89q56 0 126 -23
q99 -32 147 -32q94 0 152 59.5t58 156.5q0 133 -92 261q-129 178 -316 178q-35 0 -86 -12l-27 43q113 67 213 67q54 0 99.5 -14t111.5 -53q-13 107 -43 162q-40 73 -106.5 114.5t-128.5 41.5q-57 0 -119 -43l-33 40q69 58 125.5 81t125.5 23q93 0 204 -64q5 137 36 218
t115 168t273 208q-172 -54 -287 -54q-119 0 -264 52t-223 52q-102 0 -161 -48.5t-59 -98.5q0 -16 9 -25.5t22 -9.5q12 0 37 11t44 11q41 0 69.5 -29.5t28.5 -72.5q0 -48 -31.5 -80.5t-81.5 -32.5q-63 0 -111.5 54.5t-48.5 144.5q0 131 120 240t294 109q109 0 369 -59
q209 -48 328 -48q111 0 190 28t166 94zM1403 1266q-171 -82 -251 -159q-107 -105 -161 -242t-54 -375l7 -531q0 -196 -49 -305q-35 -79 -149 -169q133 55 192 101q82 63 128.5 164.5t46.5 257.5l-8 544q0 245 83 432q56 130 215 282z" />
    <glyph glyph-name="K" unicode="K" horiz-adv-x="2057" 
d="M1182 1436l45 -28q-100 -170 -142 -301t-55 -306l459 365l280 -326l-478 -340q111 -59 193 -146t191.5 -271.5t133.5 -210.5t46 -26q23 0 70 47l62 59l38 -45l-299 -289q-63 43 -99 89.5t-157 263.5l-309 -353q-144 64 -260.5 91.5t-239.5 27.5q-120 0 -235 -27t-265 -92
l-38 55q235 187 337 332q50 72 50 139q0 64 -42 106t-99 42q-53 0 -94 -53l-42 19q22 71 73 110t115 39q42 0 88 -16.5t95 -51.5q2 38 2 67q0 128 -74.5 207.5t-178.5 79.5q-60 0 -120 -53l-40 16q29 76 85.5 115t130.5 39q40 0 86 -16t98 -48q-2 50 -2 87q0 112 45.5 197
t260.5 310q-128 -74 -201.5 -98.5t-145.5 -24.5q-39 0 -100 11t-87 11q-88 0 -148.5 -45t-115.5 -151l-40 10q25 121 61 181q57 96 141.5 149t170.5 53q67 0 167 -31.5t163 -31.5q105 0 225 63l43 -28q-99 -144 -148.5 -329.5t-49.5 -359.5l5 -342q0 -77 -24 -141t-69 -115
t-56 -61l-353 -294q92 49 198 94q192 82 274 142t126.5 153t44.5 235l-6 374q0 135 47.5 308.5t162.5 363.5zM1335 974l-305 -245v-36l2 -191l-2 -116l504 356zM1444 17q-112 179 -206.5 245.5t-207.5 71.5q-4 -136 -53.5 -226t-167.5 -172q185 -10 272.5 -31.5t194.5 -76.5
z" />
    <glyph glyph-name="L" unicode="L" horiz-adv-x="1776" 
d="M1415 1436l28 -44q-138 -20 -206.5 -79.5t-68.5 -175.5q0 -64 13 -184q24 -206 24 -337q0 -176 -78.5 -309t-367.5 -379q189 61 341 61q138 0 247.5 -38t244.5 -131l120 108l34 -42l-310 -268q-128 95 -254.5 138.5t-295.5 43.5q-157 0 -295.5 -37t-357.5 -145l-24 34
q217 160 288 256.5t71 181.5q0 82 -51.5 136.5t-118.5 54.5q-34 0 -77 -20l-36 35q44 39 81.5 54.5t86.5 15.5q29 0 59 -7.5t60 -24.5q2 28 2 44q0 77 -57.5 133.5t-141.5 56.5q-60 0 -124 -48l-42 29q45 59 91 83q75 39 159 39q18 0 39.5 -3t45.5 -9q-7 73 -7 123
q0 145 43.5 247t150.5 212q-115 -41 -195 -41t-201 38q-55 16 -87 16q-63 0 -105.5 -39.5t-42.5 -94.5q0 -20 11 -48l-52 -18q-13 56 -13 94q0 116 90 202t216 86q58 0 178.5 -43.5t187.5 -43.5q122 0 233 87l35 -44q-120 -90 -169 -177.5t-49 -212.5q0 -92 12 -213
q24 -228 24 -310q0 -174 -56 -315t-204 -325q224 159 322 327t98 378q0 119 -17 261t-17 239q0 87 41 171t108 132t149 69q61 16 187 20z" />
    <glyph glyph-name="M" unicode="M" horiz-adv-x="2472" 
d="M2308 1331l37 -38q-79 -88 -100.5 -143.5t-21.5 -168.5v-928q0 -142 24 -178.5t63 -36.5q33 0 94 55l35 -47l-291 -228q-104 53 -140.5 122t-36.5 242v1146l-202 155l-79 -49v-598h145l-145 -180v-504l93 76l36 -38l-444 -372q-100 120 -163 175q-45 40 -108 72v43
q57 20 75 62q13 30 13 146v340h-364v-516q0 -214 -108.5 -329t-283.5 -115q-39 0 -137 14q-67 10 -97 10q-61 0 -89.5 -28t-28.5 -94h-47q-14 52 -14 87q0 65 33.5 122t90.5 84q43 22 158 32.5t170.5 72.5t55.5 171q0 171 -80.5 282t-194.5 111q-89 0 -147 -84l-43 18
q33 89 75.5 137t114.5 76q53 20 153 21q-1 36 -1 54q0 202 81.5 340t254 254t495.5 260q114 -62 154 -123t45 -177l469 300l288 -215zM1192 636v358q0 131 -33.5 189.5t-120.5 94.5q-83 -42 -117 -76q-47 -50 -70 -118t-23 -197v-380l100 129h264zM1637 1198l-199 -131v-431
h199v562zM820 1152q-105 -81 -136 -155t-31 -257v-680q0 -166 -42.5 -233t-165.5 -117q54 -3 92 -3q88 0 144 30.5t73.5 75.5t17.5 158v904q0 103 13 172q8 42 35 105zM1637 456h-199v-310q0 -161 21 -206q35 -78 94 -78q31 0 84 46v548z" />
    <glyph glyph-name="N" unicode="N" horiz-adv-x="2467" 
d="M1582 1436q210 -52 327 -128q159 -102 241 -249.5t82 -314.5q0 -117 -40 -233.5t-132 -256.5q-32 -51 -314 -426q144 64 289 64q63 0 106.5 -9t66.5 -9q20 0 37.5 18.5t77.5 133.5l58 -22l-207 -386q-163 55 -270 55q-121 0 -199 -46.5t-151 -163.5l-48 24
q41 123 146 305q174 298 261 489q-109 72 -199 102.5t-191 30.5q-84 0 -158 -21t-173 -76v-211q0 -193 -20 -275.5t-89 -168.5t-177.5 -143t-225.5 -57q-46 0 -92 10q-26 4 -150.5 41t-139.5 40q-34 6 -72 6q-57 0 -100.5 -15.5t-103.5 -56.5l-34 30q122 217 332 217
q86 0 221 -30q83 -18 113 -18q65 0 111.5 52.5t46.5 135.5q0 105 -72.5 177t-177.5 72q-70 0 -149 -59l-34 30q54 67 107 96.5t119 29.5q38 0 79.5 -13t85.5 -40q-20 106 -72 162q-90 99 -225 99q-58 0 -95 -12q-29 -10 -72 -42l-29 42q65 66 119 91.5t119 25.5
q55 0 102 -16t126 -69q0 97 -32 154t-111.5 104t-155.5 47q-68 0 -138 -48l-29 39q54 59 101 81q59 30 127 30q59 0 109.5 -17.5t128.5 -69.5v268zM1192 790q114 -66 196.5 -92t172.5 -26q102 0 194 32.5t214 115.5q-67 172 -228 275.5t-361 103.5q-85 0 -188 -31v-378z
M1136 1151l-146 -72v-1033q0 -180 -36 -256.5t-139 -147.5q123 10 179 49q81 58 111.5 141.5t30.5 284.5v1034zM1192 382q105 50 179 69.5t159 19.5q108 0 201 -31.5t201 -104.5q34 85 50.5 163t16.5 149q0 51 -13 114q-132 -84 -225 -115t-194 -31q-87 0 -172.5 24.5
t-202.5 86.5v-344z" />
    <glyph glyph-name="O" unicode="O" horiz-adv-x="2046" 
d="M1051 1412q209 -22 327 -60q177 -57 311 -160.5t209 -245.5t75 -307q0 -154 -79.5 -302.5t-272 -334.5t-388 -285t-382.5 -99q-201 0 -388 99.5t-289 274t-102 385.5q0 121 25 233.5t88 259.5q119 59 278 162q85 57 431 274q70 43 157 106zM960 1173q-82 5 -161 7v-709
q0 -115 -15.5 -161t-57.5 -95l-222 -213q113 -96 213 -136t243 -50v1357zM1012 852q86 -74 163.5 -107t168.5 -33q84 0 155.5 33t150.5 107q-68 89 -127 132q-108 78 -232.5 122.5t-278.5 62.5v-317zM553 1023q-102 -76 -146 -127q-59 -69 -98.5 -167.5t-39.5 -215.5
q0 -255 195 -474q56 51 72.5 102t16.5 200v682zM1012 352q85 84 158.5 117.5t171.5 33.5q102 0 183.5 -36t174.5 -125q33 119 33 207q0 80 -12 140q-10 45 -40 111q-104 -84 -181 -115t-170 -31q-86 0 -156.5 28.5t-161.5 101.5v-432zM1012 -184q151 8 246 49
q144 61 249.5 168.5t173.5 259.5q-165 156 -338 156q-101 0 -192 -54q-67 -38 -139 -129v-450z" />
    <glyph glyph-name="P" unicode="P" horiz-adv-x="2039" 
d="M1010 1392h55v-217l332 217q254 -159 350.5 -255t127 -180t30.5 -247v-764l-370 -328q-147 60 -255 87.5t-215 36.5v-470h-448v491q-180 -11 -297.5 -54t-236.5 -138l-38 47q164 179 283 251t289 107q-1 162 -41.5 261t-147.5 180t-273 126v50q86 42 152 85l310 204v84
q0 118 -22.5 172.5t-85 90.5t-138.5 36q-82 0 -184 -61l-32 37q84 78 165 114.5t180 36.5q109 0 198.5 -46t127 -115t40.5 -187l144 98v250zM1065 723q90 -60 156.5 -83t142.5 -23q75 0 143 23t159 83q-1 103 -31 171.5t-128 147.5t-287 174l-155 -103v-390zM1010 1077
l-144 -96v-1656h144v1752zM617 815l-261 -173q81 -36 139 -76t122 -106v355zM1065 287q96 53 164 73.5t138 20.5q71 0 136.5 -20t162.5 -74v373q-99 -57 -166 -77t-145 -20q-74 0 -136.5 18t-153.5 71v-365zM1065 -24q142 -5 279 -41.5t322 -124.5v409q-90 61 -156 83
t-143 22q-76 0 -143 -22t-159 -83v-243z" />
    <glyph glyph-name="Q" unicode="Q" horiz-adv-x="2054" 
d="M1400 -180q-284 -202 -550 -202q-200 0 -387 99.5t-289 274t-102 385.5q0 121 25 233.5t88 259.5q119 59 278 162q85 57 431 274q70 43 157 106q209 -22 327 -60q177 -57 311 -160.5t209 -245.5t75 -307q0 -153 -72 -287q-102 -194 -306 -376l317 -230l78 64l32 -37
l-253 -216zM960 1173q-82 5 -161 7v-709q0 -113 -14.5 -157.5t-51.5 -89t-229 -220.5q104 -96 207.5 -138.5t248.5 -49.5v1357zM1012 852q86 -74 163.5 -107t168.5 -33q84 0 155.5 33t150.5 107q-68 89 -127 132q-108 78 -232.5 122.5t-278.5 62.5v-317zM553 1023
q-102 -76 -146 -127q-59 -69 -98.5 -167.5t-39.5 -215.5q0 -255 195 -474q56 51 72.5 102t16.5 200v682zM1012 352q85 84 158.5 117.5t171.5 33.5q102 0 183.5 -36t174.5 -125q33 119 33 207q0 80 -12 140q-10 45 -40 111q-104 -84 -181 -115t-170 -31q-86 0 -156.5 28.5
t-161.5 101.5v-432zM1012 -184q151 8 246 49q144 61 249.5 168.5t173.5 259.5q-165 156 -338 156q-101 0 -192 -54q-67 -38 -139 -129v-450z" />
    <glyph glyph-name="R" unicode="R" horiz-adv-x="2061" 
d="M1306 1401l414 -527l-385 -260q164 -99 263 -234t155 -348q25 -103 51 -151q18 -31 67 -75l120 102l41 -43l-290 -247q-88 55 -126 118q-28 42 -101 284q-40 128 -101 219t-129.5 137.5t-183.5 82.5l-82 -53v-498q110 -36 231 -102l125 111l38 -42l-312 -257
q-170 86 -295.5 121t-252.5 35q-160 0 -308 -53q-78 -29 -174 -103l-32 29q119 152 239.5 224t295.5 97v54q0 116 -30 190t-109 155t-167 133q-56 32 -158 64v50q97 36 239 132l225 151q0 155 -21.5 221.5t-84 111t-139.5 44.5q-46 0 -84.5 -14.5t-95.5 -54.5l-39 29
q93 96 168 130t186 34q123 0 205.5 -49t123.5 -134q24 -52 27 -149zM1147 1222l-128 -85v-664l470 313zM964 1098l-144 -100v-1039q72 -11 144 -33v1172zM574 830l-266 -180q75 -36 125 -72t141 -120v372z" />
    <glyph glyph-name="S" unicode="S" horiz-adv-x="2051" 
d="M765 1412l544 -182l39 71q22 39 31 48t21 9t19.5 -8.5t7.5 -19.5q0 -17 -28 -66l-254 -438l198 7q94 4 218 -26t213.5 -93t140.5 -149t51 -189q0 -190 -159 -372.5t-566 -385.5q-140 58 -326 121q-343 -164 -560 -164q-155 0 -238.5 67.5t-83.5 156.5q0 95 101 173.5
t299 78.5q78 0 194 -17l90 163l-169 -7q-63 -1 -168.5 17.5t-173 60.5t-101.5 103t-34 129q0 106 76 189q48 53 158 95l-1 14q0 112 99 256.5t362 357.5zM1199 1038q-188 94 -293.5 126t-186.5 32q-112 0 -183 -64t-71 -149q0 -84 60.5 -138t183.5 -54q81 0 367 30zM944 593
q-155 -19 -300 -19q-163 0 -231.5 38.5t-102.5 119.5q-86 -55 -86 -136q0 -75 67 -123q89 -62 304 -62q99 0 253 13zM915 429q287 32 398 32q153 0 233.5 -69t80.5 -165q0 -84 -79 -163t-331 -188l238 -73q157 97 242.5 209.5t85.5 248.5q0 89 -53.5 174.5t-164 136.5
t-254.5 51q-116 0 -298 -24zM682 24q119 -24 194 -44t267 -81q266 124 266 248q0 38 -34 69.5t-87 31.5q-65 0 -159 -15q-264 -36 -347 -36zM835 -236q-308 93 -498 93q-99 0 -156 -43q-40 -29 -40 -71q0 -45 40 -71q62 -43 181 -43q182 0 473 135z" />
    <glyph glyph-name="T" unicode="T" horiz-adv-x="1924" 
d="M1840 1412l44 -32q-25 -116 -68.5 -183t-128.5 -106t-195 -39q-59 0 -143 7v-1213q183 55 291 142t200 250l44 -22q-52 -160 -122 -257q-112 -157 -288 -249t-408 -92q-226 0 -422 86q-114 51 -209 142t-155.5 220.5t-60.5 293.5q0 166 66 317t194 289q82 87 231 191
l-152 9q-84 4 -186 -36t-159 -107t-99 -201l-44 27q41 170 106 265q86 126 227.5 195t322.5 69q126 0 445.5 -53t439.5 -53q80 0 122.5 25t106.5 115zM844 1145l-64 6q-160 -138 -236 -276q-102 -186 -102 -383q0 -336 276 -548q88 73 107 118.5t19 186.5v896zM1294 1070
q-114 15 -202 33v-717q0 -126 -10 -160.5t-47 -77.5q-67 -74 -269 -235q101 -49 163 -66q108 -29 208 -29q53 0 157 14v1238z" />
    <glyph glyph-name="U" unicode="U" horiz-adv-x="2055" 
d="M1939 1372l37 -36q-103 -127 -127.5 -186t-24.5 -173v-854q0 -177 30 -224t71 -47q31 0 66 36l18 -71l-253 -199q-105 65 -139 125.5t-44 206.5q-191 -181 -360 -256.5t-368 -75.5q-366 0 -562 264q-146 195 -146 454q0 192 84 358.5t253 321.5q115 104 308 220
q-151 -37 -226 -37q-54 0 -121.5 6t-111.5 6q-101 0 -159 -61t-58 -169q0 -40 7 -100h-51q-14 85 -14 139q0 191 99.5 303.5t235.5 112.5q38 0 72 -8q21 -4 143 -48t219 -44q87 0 163 32q40 17 92 68h54v-672q123 -68 234 -68q57 0 102 14t111 54v346l-135 100l-138 -150
l-40 37l290 323l256 -184zM1072 1317q-76 -81 -97 -144.5t-21 -250.5v-557q0 -91 -13 -135q-18 -57 -66 -112q-70 -80 -250 -211q87 -59 162.5 -83t178.5 -24q50 0 106 9v1508zM577 -54q81 84 105.5 158.5t24.5 265.5v356q0 138 7.5 180t39.5 96q54 94 186 248
q-191 -111 -304.5 -213t-186.5 -256.5t-73 -343.5q0 -168 62 -305q43 -93 139 -186zM1573 699q-72 -36 -117.5 -48t-101.5 -12q-106 0 -228 60v-280q128 57 231 57q99 0 216 -57v280zM1573 360q-120 60 -217 60q-59 0 -108.5 -13.5t-121.5 -53.5v-535q120 26 219 72t228 140
v330z" />
    <glyph glyph-name="V" unicode="V" horiz-adv-x="1770" 
d="M740 1040l750 396q209 -304 209 -632q0 -246 -108 -450q-147 -277 -591 -736q-78 52 -135.5 71.5t-119.5 19.5q-74 0 -140 -18.5t-168 -72.5l-36 31q98 181 131 283.5t33 186.5q0 127 -71 205t-162 78q-42 0 -66.5 -12.5t-47.5 -45.5l-40 28q29 82 83 121t126 39
q46 0 86.5 -15t109.5 -63q-12 406 -167 641q-87 132 -186 132q-51 0 -82 -35q-42 -47 -62 -167l-47 15q7 139 40.5 221.5t99 128.5t138.5 46q111 0 222.5 -89t200.5 -307zM758 983q41 -132 55 -253q162 -52 293 -52q168 0 351 82q-9 130 -50 250t-127 253zM1457 700
q-109 -46 -186.5 -62.5t-167.5 -16.5q-136 0 -286 53q4 -58 4 -87q0 -116 -38 -266q72 23 137 33.5t121 10.5q158 0 330 -78q79 228 86 413zM1348 237q-105 45 -168 59.5t-140 14.5q-60 0 -128.5 -12.5t-145.5 -38.5q-38 -128 -85 -225q-78 -160 -187 -325q129 99 221 136
q120 48 230 48q79 0 182 -32q84 110 131 190t90 185z" />
    <glyph glyph-name="W" unicode="W" horiz-adv-x="2451" 
d="M1527 1047l585 389q139 -200 199 -360.5t60 -314.5q0 -155 -50 -285q-82 -213 -235.5 -402.5t-447.5 -455.5q-56 67 -120.5 96.5t-121.5 29.5q-78 0 -165 -26t-238 -100q-57 64 -107 86q-67 32 -161 32q-92 0 -172 -25t-196 -93l-35 26q191 332 191 533q0 116 -68.5 191
t-152.5 75q-49 0 -102 -41l-35 27q68 140 205 140q46 0 93.5 -22.5t95.5 -69.5q-8 433 -147 663q-69 117 -161 117q-43 0 -76.5 -37.5t-50.5 -147.5l-43 12q8 167 77 259.5t189 92.5q111 0 218.5 -91.5t175.5 -297.5l581 389q117 -147 215 -389zM745 990q30 -108 40 -242
q85 -49 144 -66.5t127 -17.5q69 0 129.5 17.5t147.5 66.5q-25 149 -65 254t-131 252zM1542 999q21 -55 28.5 -97t17.5 -154q89 -46 144 -61t119 -15t122 16.5t139 59.5q-11 116 -43 210q-50 144 -139 294zM1333 690q-97 -49 -156.5 -65.5t-127.5 -16.5q-61 0 -126.5 18.5
t-135.5 55.5v-31q0 -159 -61 -352q71 30 132 45t113 15q79 0 146.5 -21.5t158.5 -77.5q60 186 60 360q0 24 -3 70zM2112 682q-91 -40 -145.5 -52.5t-118.5 -12.5q-60 0 -124.5 16.5t-133.5 48.5q-3 -109 -19 -178.5t-64 -183.5q56 20 107 29.5t96 9.5q90 0 163.5 -23.5
t155.5 -78.5q84 228 84 393q0 10 -1 32zM2005 197q-80 59 -145.5 82.5t-148.5 23.5q-55 0 -115 -13.5t-125 -39.5q-61 -113 -145.5 -222t-246.5 -276q188 101 312 139.5t233 38.5q84 0 188 -41q114 147 193 308zM1257 197q-90 61 -148 82t-126 21q-61 0 -132 -19t-151 -57
q-54 -137 -111.5 -243.5t-151.5 -238.5q181 96 302.5 132.5t235.5 36.5q54 0 126 -11q93 144 156 297z" />
    <glyph glyph-name="X" unicode="X" horiz-adv-x="1649" 
d="M937 728l323 708q154 -108 355 -200l-102 -193l-309 135l-232 -527h526l-81 -179h-359l214 -449q64 -135 92 -167q42 -48 71 -48q18 0 63 39l78 69l39 -41l-289 -257q-112 53 -153 95t-98 162l-248 521l-365 -778q-160 110 -379 192l96 213l350 -136l267 585h-518l83 179
h346l-178 374q-53 112 -73 139q-31 42 -78.5 66t-95.5 24q-56 0 -107 -33t-107 -108l-32 37q41 138 134.5 212t207.5 74q124 0 206 -64.5t161 -232.5z" />
    <glyph glyph-name="Y" unicode="Y" horiz-adv-x="1914" 
d="M134 1287l-25 45q84 70 136.5 91t121.5 21q97 0 182.5 -39t133.5 -103q37 -49 62 -147q177 131 300.5 181t237.5 50q213 0 370 -177.5t157 -490.5q0 -179 -59.5 -338.5t-176.5 -262t-274.5 -147.5t-268.5 -45l-509 11q-115 0 -215.5 -38t-146 -101.5t-45.5 -137.5
q0 -95 70.5 -162t169.5 -67q54 0 111.5 15.5t219.5 84.5q234 102 388 102q158 0 251 -74q69 -58 69 -150q0 -55 -31.5 -88t-78.5 -33q-40 0 -68 30t-28 77q0 37 26 84q17 28 17 40q0 17 -13 28q-20 14 -53 14q-41 0 -87.5 -16.5t-170.5 -87.5q-175 -100 -276 -134.5
t-183 -34.5q-162 0 -275 106.5t-113 250.5q0 140 107.5 239t332.5 112q2 25 2 37q0 136 -59 237t-154 150q-60 33 -155 34v43q53 8 89 8q78 0 141.5 -21.5t135.5 -72.5q3 34 3 61q0 146 -90.5 242t-215.5 96q-29 0 -75 -6v47q78 41 153 41q55 0 102.5 -15.5t122.5 -63.5
q2 62 2 105q0 229 -71 320.5t-171 91.5q-61 0 -126 -42zM935 875q74 -66 135.5 -91t137.5 -25q84 0 154 29.5t158 108.5q-36 111 -76 171q-63 92 -145 137t-171 45q-82 0 -193 -52v-323zM878 1169q-68 -41 -133 -87v-1087q45 -1 67 -1l66 1v1174zM935 440q91 61 157.5 84.5
t142.5 23.5q77 0 143.5 -23.5t155.5 -84.5q19 104 19 183q0 81 -19 210q-102 -77 -177 -105t-161 -28q-64 0 -123.5 22t-137.5 79v-361zM935 -5q174 3 283.5 43t179.5 117.5t122 221.5q-87 66 -149 89t-137 23q-77 0 -143.5 -24t-155.5 -88v-382z" />
    <glyph glyph-name="Z" unicode="Z" horiz-adv-x="1501" 
d="M1446 1436l36 -30q-107 -144 -181 -259.5t-257 -433.5h372l-46 -92h-382q-37 -65 -81 -131h397l-40 -89h-421q-83 -117 -174.5 -217t-418.5 -406q357 153 675 153q104 0 193.5 -22.5t197.5 -76.5l130 154l36 -34l-273 -334q-155 74 -279.5 105.5t-272.5 31.5
q-146 0 -281.5 -32t-306.5 -105l-31 42q140 156 229.5 282t287.5 459h-369l43 89h386l84 131h-407l45 92h429q96 125 191 226q129 137 347 343q-179 -89 -314.5 -123.5t-286.5 -34.5q-120 0 -221 25q-74 19 -174 73l-150 -180l-42 37l304 357q151 -76 269 -107t242 -31
q120 0 235.5 30t279.5 108z" />
    <glyph glyph-name="bracketleft" unicode="[" horiz-adv-x="658" 
d="M614 -738v-58h-496v2186h496v-59h-269v-2069h269z" />
    <glyph glyph-name="backslash" unicode="\" horiz-adv-x="1354" 
d="M1145 -464l-1093 1750h157l1092 -1750h-156z" />
    <glyph glyph-name="bracketright" unicode="]" horiz-adv-x="658" 
d="M45 -738h270v2069h-270v59h496v-2186h-496v58z" />
    <glyph glyph-name="asciicircum" unicode="^" horiz-adv-x="1369" 
d="M150 417l493 861h99l484 -861h-190l-354 614l-348 -614h-184z" />
    <glyph glyph-name="underscore" unicode="_" horiz-adv-x="1234" 
d="M-1 105h1237v-244h-1237v244z" />
    <glyph glyph-name="grave" unicode="`" horiz-adv-x="747" 
d="M440 987l-320 447h278l110 -447h-68z" />
    <glyph glyph-name="a" unicode="a" horiz-adv-x="1084" 
d="M929 845l44 -17q-65 -100 -82.5 -153.5t-17.5 -144.5v-512q0 -126 20 -158t47 -32q15 0 30 7q10 6 57 43l26 -39l-268 -221q-92 72 -123 129t-35 159l-365 -288q-205 168 -205 331q0 109 44 205q59 126 203 294l-144 307l17 34q47 -5 70 -5q141 0 249 113
q88 -52 191.5 -83t159.5 -31q25 0 38 9t44 53zM627 616l-410 126l146 -310l264 -123v307zM627 260l-290 135q-68 -146 -68 -257q0 -194 177 -320l181 147v295z" />
    <glyph glyph-name="b" unicode="b" horiz-adv-x="1074" 
d="M554 1337l10 -31q-93 -55 -122.5 -108.5t-29.5 -174.5v-423l382 297q107 -73 144 -143.5t37 -192.5v-723q-147 -58 -245 -114q-74 -45 -141 -106q-102 84 -203.5 129.5t-300.5 90.5v21q51 36 65 84q20 71 20 327v695q0 136 -27.5 196.5t-104.5 113.5l22 31
q91 -40 124.5 -61t64.5 -54q124 89 175.5 112t129.5 34zM412 -52l315 -124v676q0 93 -17.5 128.5t-83.5 79.5l-214 -164v-596z" />
    <glyph glyph-name="c" unicode="c" horiz-adv-x="798" 
d="M456 897l312 -178l-127 -188l-236 135v-764l236 -106l127 90l12 -51l-298 -217q-115 65 -196.5 95.5t-200.5 53.5v29q42 28 55 62q19 47 19 146v683q150 68 297 210z" />
    <glyph glyph-name="d" unicode="d" horiz-adv-x="1073" 
d="M52 1306l815 -560q19 44 42.5 67t71.5 43v-49q-24 -33 -31.5 -59t-7.5 -108v-807q-152 -58 -226.5 -100.5t-160.5 -114.5q-142 92 -251 134t-235 58v23q43 37 55.5 75t12.5 156v629q165 45 233 103l-318 217v293zM698 572l-246 170q-34 -28 -69 -48v-741l315 -139v758z
" />
    <glyph glyph-name="e" unicode="e" horiz-adv-x="952" 
d="M589 897l338 -395l-537 -377v-218l278 -110l188 128l27 -36l-389 -271q-119 64 -195.5 91.5t-218.5 57.5v30q41 24 54.5 59.5t13.5 152.5v686q113 41 188 75q54 25 253 127zM406 759l-16 -9v-543l315 221z" />
    <glyph glyph-name="f" unicode="f" horiz-adv-x="677" 
d="M646 1280l-37 -201l-220 52v-289h186v-135h-186v-805l136 -102l94 76l27 -34l-278 -224q-148 134 -304 182l-7 29q43 28 60 58q29 49 29 118v702h-113v135h113v289q180 122 271 206z" />
    <glyph glyph-name="g" unicode="g" horiz-adv-x="1216" 
d="M582 897l373 -175l223 112v-270l-216 42v-544q0 -132 16 -179q20 -61 85 -141q104 -134 104 -191q0 -58 -54.5 -110.5t-290.5 -163.5q-81 29 -154 43t-139 14q-159 0 -366 -57l-17 41l283 331l-283 204v869q238 50 436 175zM718 609l-328 113v-786l178 -130l150 180v623z
M357 -506q156 26 252 26q87 0 175 -23t178 -70l49 31q-162 152 -219.5 245.5t-73.5 203.5z" />
    <glyph glyph-name="h" unicode="h" horiz-adv-x="1074" 
d="M551 1337l12 -29q-85 -55 -116 -117.5t-31 -197.5v-391l370 295q119 -77 155 -148.5t36 -242.5v-544q0 -156 -32 -228q-52 -117 -191 -220q-182 -137 -464 -237l-17 45q229 94 319 172t118 166q20 66 20 343v503q0 84 -17 116q-25 44 -92 88l-205 -167v-668l85 -85
l-211 -172l-214 172l95 94v1092q0 149 -26.5 204t-104.5 100l13 28q64 -18 102.5 -40t100.5 -77q73 69 140.5 101.5t154.5 44.5z" />
    <glyph glyph-name="i" unicode="i" horiz-adv-x="661" 
d="M385 1307h153l-166 -259h-48zM294 897l214 -177l-95 -92v-652q0 -104 19 -135t40 -31q14 0 26 6q17 8 70 48l29 -37l-273 -209q-96 68 -123.5 129t-27.5 212v669l-90 92z" />
    <glyph glyph-name="j" unicode="j" horiz-adv-x="664" 
d="M451 1313h156l-163 -255h-54zM72 682l281 215q59 -70 107.5 -112t139.5 -103q-73 -104 -105.5 -198.5t-32.5 -209.5q0 -112 29 -291q20 -120 20 -179q0 -127 -54.5 -231t-158.5 -187q-62 -50 -189 -109l-20 46q107 69 158 161t51 192q0 68 -32 216q-49 227 -49 363
q0 96 16.5 175t58.5 184q-41 54 -102 98l-88 -65z" />
    <glyph glyph-name="k" unicode="k" horiz-adv-x="1185" 
d="M592 1337v-31q-92 -60 -123 -126.5t-31 -215.5v-414l358 347l243 -269l-278 -244q95 -67 142 -145.5t73.5 -230t42 -174.5t29.5 -23t79 49l23 -38l-280 -204q-49 50 -73 106.5t-36 164.5l-340 -271q-73 70 -141 109.5t-168 71.5v23q55 37 70.5 77.5t15.5 201.5v873
q0 103 -10 144q-13 60 -38.5 93t-83.5 60l18 35q72 -26 108.5 -48.5t90.5 -72.5q78 74 148.5 108.5t160.5 43.5zM655 699l-217 -210v-321l395 338zM438 106v-207l142 -99l175 144q-31 202 -175 287z" />
    <glyph glyph-name="l" unicode="l" horiz-adv-x="674" 
d="M593 1337v-31q-95 -49 -134 -120.5t-39 -216.5v-1067l137 -102l53 44l30 -44l-240 -182q-110 95 -164 126t-142 56v27q33 20 51.5 51.5t26.5 73.5q2 14 3 143v857q0 109 -8.5 151.5t-33.5 81.5t-85 87l19 24q109 -31 196 -127q90 95 162.5 130t167.5 38z" />
    <glyph glyph-name="m" unicode="m" horiz-adv-x="1778" 
d="M1663 827l35 -32q-68 -60 -91.5 -96t-30.5 -72t-7 -148v-499q0 -98 20 -130.5t38 -32.5q26 0 88 48l28 -35l-267 -212q-89 70 -115 115q-38 67 -38 143v723l-122 105l-192 -178v-650l92 -97l-210 -161l-213 161l88 97v596q0 104 -16 134q-21 41 -104 98l-190 -160v-668
l93 -97l-212 -161l-214 161l93 97v642q0 99 -27 144q-22 33 -40 33q-22 0 -88 -49l-26 40l262 211q81 -58 110.5 -94.5t41.5 -79.5q7 -31 7 -124l358 298q117 -94 153 -155t42 -156l338 311l196 -184z" />
    <glyph glyph-name="n" unicode="n" horiz-adv-x="1236" 
d="M809 897l197 -184l117 113l33 -32q-84 -77 -102 -117q-24 -53 -24 -145v-570q0 -79 25 -117q16 -25 35 -25q17 0 79 46l29 -37l-258 -211q-99 76 -127.5 134t-28.5 188v660l-131 113l-194 -155v-682l86 -86l-212 -172l-214 172l94 86v613q0 131 -26 176q-18 31 -41 31
q-24 0 -72 -37l-29 34l256 204q105 -75 131.5 -118t26.5 -120v-41z" />
    <glyph glyph-name="o" unicode="o" horiz-adv-x="1064" 
d="M940 722v-898q-180 -73 -261 -120q-61 -34 -117 -86q-174 106 -288 146q-87 32 -196 36l-12 24q46 39 58 70q16 41 16 138v658q220 74 376 207q170 -113 424 -175zM383 -59l313 -129v763q-148 69 -209 90q-43 16 -104 27v-751z" />
    <glyph glyph-name="p" unicode="p" horiz-adv-x="1078" 
d="M29 712l244 185q97 -67 128.5 -125t31.5 -158l311 283q157 -114 210 -196q34 -53 34 -157v-672q-157 -70 -354 -254q-71 46 -201 106v-86q0 -150 30 -214.5t108 -113.5l-15 -33q-133 47 -199 90q-47 31 -84 85q-87 -76 -164 -104l-15 24q51 49 72 101.5t21 144.5v175
q-67 13 -139 13q-6 0 -19 -1v101q86 20 158 28v597q0 97 -25 134t-51 37q-21 0 -54 -31zM433 551v-619q141 -28 192 -43t119 -47v673q0 55 -4 65.5t-35 36.5q-70 60 -108 87z" />
    <glyph glyph-name="q" unicode="q" horiz-adv-x="1066" 
d="M966 693l8 -28q-48 -25 -62.5 -59t-14.5 -156v-824q0 -106 18 -156.5t71 -99.5l-20 -26q-86 34 -160 108q-49 -67 -111.5 -106.5t-170.5 -68.5l-13 24q87 76 112.5 134.5t25.5 182.5v270l-337 -270q-106 71 -145.5 117t-54 94.5t-14.5 158.5v705q234 77 377 204
q173 -124 294 -171q89 -33 197 -33zM337 693v-646q0 -110 13.5 -134.5t119.5 -106.5l179 141v593z" />
    <glyph glyph-name="r" unicode="r" horiz-adv-x="956" 
d="M740 897l182 -217l-182 -161l-151 191l-119 -108v-700l137 -98l124 98l27 -38l-307 -246q-98 88 -164.5 126t-146.5 60v26q53 38 69.5 75.5t16.5 144.5v489q0 93 -21 123.5t-47 30.5q-27 0 -75 -48l-29 35l253 217q102 -78 139 -136q24 -36 24 -99z" />
    <glyph glyph-name="s" unicode="s" horiz-adv-x="1093" 
d="M701 452l277 -146v-504q-101 -10 -182.5 -49.5t-184.5 -134.5q-89 53 -154.5 73.5t-138.5 20.5q-113 0 -201 -69q-32 -25 -46 -25t-27 13t-13 27t25 38q15 14 49 55l110 136l154 205l-262 141v448q123 38 193.5 85.5t134.5 130.5q154 -65 248 -91q67 -18 128 -18
q67 0 104.5 29t37.5 62q0 21 -24 43q-47 42 -47 82q0 37 20.5 59t45.5 22q33 0 60 -30.5t27 -80.5q0 -52 -21.5 -101t-82.5 -127zM349 369l164 -85l262 348q-80 -23 -139 -23q-148 0 -287 98v-338zM555 260l-289 -388q53 18 98.5 26.5t82.5 8.5q138 0 287 -91v348z" />
    <glyph glyph-name="t" unicode="t" horiz-adv-x="675" 
d="M43 765l335 414h35l-12 -331h241v-136h-241v-807l134 -100l77 60l30 -36l-264 -211q-136 138 -307 187v24q48 33 63 67q21 45 21 128v688h-112v53z" />
    <glyph glyph-name="u" unicode="u" horiz-adv-x="1232" 
d="M904 897l215 -178l-98 -89v-630q0 -108 30 -155q20 -33 42 -33q17 0 65 40l31 -38l-253 -196q-96 67 -125.5 120.5t-31.5 169.5q-186 -120 -379 -290q-117 91 -153 160t-36 182v592q0 63 -9 82q-17 34 -46 34q-21 0 -65 -38l-32 34l266 233l218 -178l-89 -81v-638
q0 -70 18 -103t87 -83l220 162v654l-85 89z" />
    <glyph glyph-name="v" unicode="v" horiz-adv-x="1073" 
d="M395 604l369 293q122 -96 159 -166.5t37 -181.5v-720q-103 -25 -192.5 -71t-205.5 -140q-131 103 -241.5 145t-246.5 46v30q45 27 61.5 64t16.5 138v537q0 42 -8.5 66t-47 75t-53.5 91.5t-15 92.5q0 95 57 168.5t215 160.5l26 -33q-124 -90 -124 -171q0 -30 12 -52
q14 -29 72 -91.5t85 -129.5q21 -51 24 -151zM395 539v-581l318 -143v671q0 88 -22 130.5t-94 87.5z" />
    <glyph glyph-name="w" unicode="w" horiz-adv-x="1633" 
d="M994 608l357 289q111 -81 145 -143q47 -84 47 -196v-726q-126 -40 -212.5 -88t-175.5 -126q-203 128 -338 128q-128 0 -255 -128q-119 98 -227.5 142t-236.5 51v29q54 22 76 62t22 156v455q0 107 -6.5 130t-38.5 61q-52 60 -70 102.5t-18 97.5q0 101 62.5 177t219.5 153
l22 -31q-130 -90 -130 -175q0 -30 14 -57q8 -13 88 -102q54 -59 83 -131q17 -43 23 -123l349 282q96 -64 142 -132.5t58 -156.5zM445 555v-614l302 -126v653q0 104 -21.5 146t-98.5 91zM994 546v-599l305 -129v667q0 89 -17.5 122t-100.5 97z" />
    <glyph glyph-name="x" unicode="x" horiz-adv-x="1230" 
d="M871 897l246 -123l-99 -210l-207 101l-117 -247l117 -248q78 -156 134 -236.5t92 -100.5q20 -12 37 -12q24 0 69 36l25 -35l-229 -204q-81 28 -143 100q-100 114 -238 417l-246 -517l-252 128l103 215l209 -110l161 334q-116 262 -246 424q-66 84 -116 84q-35 0 -88 -46
l-30 37l259 213q101 -53 161 -121q80 -92 194 -306z" />
    <glyph glyph-name="y" unicode="y" horiz-adv-x="1080" 
d="M55 687l252 210q103 -70 133.5 -121.5t30.5 -141.5v-26l364 289q186 -196 186 -419q0 -120 -61 -239.5t-192 -226.5t-423 -281q-127 -77 -152 -97q-54 -42 -77 -82q-17 -29 -17 -65q0 -61 61 -113t160 -52q72 0 119 25q23 12 44.5 51t37 51t37.5 12q24 0 38.5 -13.5
t14.5 -34.5q0 -39 -57 -76q-86 -60 -218 -60q-138 0 -212.5 65.5t-74.5 155.5q0 89 83 173q39 41 49 57q26 46 36 85t10 110v573q0 120 -28 163q-22 34 -47 34q-20 0 -53 -31q-4 -5 -15 -15zM471 552v-681q170 123 241 255t71 252q0 162 -132 317z" />
    <glyph glyph-name="z" unicode="z" horiz-adv-x="796" 
d="M37 660l353 237l161 -155q37 -36 58.5 -47t46.5 -11q15 0 36 10l13 -22l-358 -324h33q150 0 246.5 -92t96.5 -222q0 -75 -39.5 -146t-118.5 -128q-58 -42 -206 -119t-183 -115t-35 -83q0 -43 29 -73t76 -30q17 0 49 8q17 4 29 4q15 0 25.5 -10t10.5 -23q0 -17 -13 -27
q-18 -15 -52 -15q-90 0 -144 48.5t-54 120.5q0 57 35 109.5t143.5 137.5t139.5 135q46 76 46 152q0 83 -61.5 141.5t-156.5 58.5q-68 0 -160 -52l-26 24l404 362l-237 214l-156 -101z" />
    <glyph glyph-name="braceleft" unicode="{" horiz-adv-x="922" 
d="M831 1282v-54q-120 -23 -177 -84.5t-57 -141.5t29 -199.5t29 -208.5q0 -81 -49 -165.5t-140 -144.5q-63 -42 -203 -80q149 -46 216 -92q89 -61 133.5 -143.5t44.5 -157.5q0 -72 -29.5 -192t-29.5 -209q0 -85 54.5 -146.5t178.5 -85.5v-57h-42q-212 0 -352 145
q-102 107 -102 236q0 82 38 226q27 107 27 191q0 95 -60 161.5t-175 85.5v73q115 19 175 89t60 169q0 82 -26 184q-37 143 -37 217q0 78 46.5 158.5t117.5 131t155 72.5q65 18 175 22z" />
    <glyph glyph-name="bar" unicode="|" horiz-adv-x="1196" 
d="M483 1329h223v-2043h-223v2043z" />
    <glyph glyph-name="braceright" unicode="}" horiz-adv-x="922" 
d="M91 -879v55q119 23 176.5 85t57.5 141t-29 198.5t-29 208.5q0 83 48 167t141 144q63 41 203 80q-149 46 -216 92q-90 61 -134.5 144t-44.5 157q0 72 29.5 192t29.5 208q0 86 -54 147.5t-178 86.5v55l42 1q212 0 352 -145q102 -107 102 -236q0 -82 -38 -226
q-27 -107 -27 -191q0 -95 59.5 -162t175.5 -85v-73q-116 -19 -175.5 -89t-59.5 -169q0 -81 26 -183q36 -143 36 -218q0 -79 -46 -158.5t-117 -130t-155 -73.5q-65 -18 -175 -23z" />
    <glyph glyph-name="asciitilde" unicode="~" horiz-adv-x="1586" 
d="M1376 630h76q-9 -205 -103.5 -308t-232.5 -103q-67 0 -141 21t-312 120q-170 72 -247 72q-81 0 -134.5 -49.5t-71.5 -162.5h-77q11 212 102 312t223 100q70 0 133 -18q120 -33 328 -124q115 -50 173 -66q36 -10 78 -10q81 0 137.5 55.5t68.5 160.5z" />
    <glyph glyph-name="Adieresis" unicode="&#xc4;" horiz-adv-x="1764" 
d="M1649 1436l23 -56q-86 -42 -127.5 -83t-58.5 -92t-17 -152q0 -33 1 -87l21 -896q2 -147 31 -193q20 -32 49 -32q35 0 108 69l35 -44l-223 -191l-75 -61q-94 44 -134.5 117.5t-45.5 234.5l-464 -352q-388 256 -528 256q-35 0 -59 -22q-18 -16 -18 -44q0 -32 23 -69
q30 -50 30 -66q0 -23 -17 -39t-41 -16q-30 0 -48 24q-26 32 -26 84q0 58 33 129t98 155q13 18 24 34l171 234q-174 130 -244 250t-70 269q0 173 88 320.5t265 233t365 85.5q286 0 553 -200q65 69 125 112.5t153 87.5zM1059 1157q-151 75 -301 75q-160 0 -300.5 -70.5
t-210 -181.5t-69.5 -227q0 -246 266 -436l401 549q-90 49 -162 49q-99 0 -163 -94q-12 -19 -24 -19q-7 0 -13.5 7t-6.5 18q0 37 37.5 103t111.5 107t155 41q84 0 191 -41zM1214 1034q-35 38 -47 49q-9 8 -60 44l-525 -715h646zM453 237l-108 -150l609 -263l284 209l-5 204
h-780zM1443 1497l-131 131l131 132l132 -132zM964 1497l-132 131l132 132l131 -132z" />
    <glyph glyph-name="Aring" unicode="&#xc5;" horiz-adv-x="1764" 
d="M1649 1436l23 -56q-86 -42 -127.5 -83t-58.5 -92t-17 -152q0 -33 1 -87l21 -896q2 -147 31 -193q20 -32 49 -32q35 0 108 69l35 -44l-223 -191l-75 -61q-94 44 -134.5 117.5t-45.5 234.5l-464 -352q-388 256 -528 256q-35 0 -59 -22q-18 -16 -18 -44q0 -32 23 -69
q30 -50 30 -66q0 -23 -17 -39t-41 -16q-30 0 -48 24q-26 32 -26 84q0 58 33 129t98 155q13 18 24 34l171 234q-174 130 -244 250t-70 269q0 173 88 320.5t265 233t365 85.5q286 0 553 -200q65 69 125 112.5t153 87.5zM1059 1157q-151 75 -301 75q-160 0 -300.5 -70.5
t-210 -181.5t-69.5 -227q0 -246 266 -436l401 549q-90 49 -162 49q-99 0 -163 -94q-12 -19 -24 -19q-7 0 -13.5 7t-6.5 18q0 37 37.5 103t111.5 107t155 41q84 0 191 -41zM1214 1034q-35 38 -47 49q-9 8 -60 44l-525 -715h646zM453 237l-108 -150l609 -263l284 209l-5 204
h-780zM1310 1773q84 0 142 -59t58 -142q0 -82 -59 -141t-141 -59q-83 0 -142 59t-59 141q0 83 58.5 142t142.5 59zM1310 1703q-56 0 -94 -38.5t-38 -92.5t39 -93t93 -39t93 39t39 93t-38.5 92.5t-93.5 38.5z" />
    <glyph glyph-name="Ccedilla" unicode="&#xc7;" horiz-adv-x="1761" 
d="M671 1262l29 -34q-179 -121 -267 -259q-112 -178 -112 -387q0 -253 166 -468q72 59 86.5 99.5t14.5 220.5v537l514 429q180 -71 283 -92t242 -21h28l19 -43l-198 -190q-200 22 -452 146l13 -1370l46 -1q172 0 314.5 59t294.5 190l36 -34q-111 -154 -218.5 -239t-259 -136
t-299.5 -51q-221 0 -416 107t-305.5 306t-110.5 410q0 260 156 482q122 174 396 339zM970 1208l-141 -122v-547q0 -102 -10 -135q-12 -45 -56 -95q-87 -102 -244 -233q96 -106 205.5 -163t257.5 -77zM729 -506l86 95q72 29 121 29q88 0 143 -53.5t55 -128.5q0 -92 -76 -155
t-241 -63q-88 0 -174 16l20 40q86 -8 102 -8q80 0 127.5 38.5t47.5 84.5q0 43 -41.5 77t-114.5 34q-19 0 -55 -6z" />
    <glyph glyph-name="Eacute" unicode="&#xc9;" horiz-adv-x="1763" 
d="M673 1260l24 -37q-200 -127 -294 -292t-94 -353q0 -243 166 -464q69 58 83.5 97t14.5 201v552l524 448q147 -71 247 -98.5t197 -27.5q51 0 125 10l30 -36l-414 -418h324l-131 -231h-456v-777l77 -4q171 0 339 86q127 63 261 198l29 -45q-139 -217 -307 -323
q-205 -128 -468 -128q-414 0 -654 286q-191 226 -191 531q0 189 78 353t220 294q100 91 270 178zM964 1202l-146 -123v-557q0 -92 -10.5 -128t-47.5 -78q-79 -94 -254 -239q104 -110 206.5 -164t251.5 -74v1363zM1424 1066q-126 18 -207 43t-198 83v-536zM813 1337h-66
l108 448h280z" />
    <glyph glyph-name="Ntilde" unicode="&#xd1;" horiz-adv-x="2467" 
d="M1582 1436q210 -52 327 -128q159 -102 241 -249.5t82 -314.5q0 -117 -40 -233.5t-132 -256.5q-32 -51 -314 -426q144 64 289 64q63 0 106.5 -9t66.5 -9q20 0 37.5 18.5t77.5 133.5l58 -22l-207 -386q-163 55 -270 55q-121 0 -199 -46.5t-151 -163.5l-48 24
q41 123 146 305q174 298 261 489q-109 72 -199 102.5t-191 30.5q-84 0 -158 -21t-173 -76v-211q0 -193 -20 -275.5t-89 -168.5t-177.5 -143t-225.5 -57q-46 0 -92 10q-26 4 -150.5 41t-139.5 40q-34 6 -72 6q-57 0 -100.5 -15.5t-103.5 -56.5l-34 30q122 217 332 217
q86 0 221 -30q83 -18 113 -18q65 0 111.5 52.5t46.5 135.5q0 105 -72.5 177t-177.5 72q-70 0 -149 -59l-34 30q54 67 107 96.5t119 29.5q38 0 79.5 -13t85.5 -40q-20 106 -72 162q-90 99 -225 99q-58 0 -95 -12q-29 -10 -72 -42l-29 42q65 66 119 91.5t119 25.5
q55 0 102 -16t126 -69q0 97 -32 154t-111.5 104t-155.5 47q-68 0 -138 -48l-29 39q54 59 101 81q59 30 127 30q59 0 109.5 -17.5t128.5 -69.5v268zM1192 790q114 -66 196.5 -92t172.5 -26q102 0 194 32.5t214 115.5q-67 172 -228 275.5t-361 103.5q-85 0 -188 -31v-378z
M1136 1151l-146 -72v-1033q0 -180 -36 -256.5t-139 -147.5q123 10 179 49q81 58 111.5 141.5t30.5 284.5v1034zM1192 382q105 50 179 69.5t159 19.5q108 0 201 -31.5t201 -104.5q34 85 50.5 163t16.5 149q0 51 -13 114q-132 -84 -225 -115t-194 -31q-87 0 -172.5 24.5
t-202.5 86.5v-344zM1211 1490h-49q18 130 63 193q71 99 178 99q31 0 74 -12q25 -6 100 -39q129 -59 191 -59q38 0 69 24t53 85h44q-14 -149 -83.5 -219.5t-166.5 -70.5q-74 0 -190 52.5t-167 52.5q-37 0 -66.5 -24t-49.5 -82z" />
    <glyph glyph-name="Odieresis" unicode="&#xd6;" horiz-adv-x="2046" 
d="M1051 1412q209 -22 327 -60q177 -57 311 -160.5t209 -245.5t75 -307q0 -154 -79.5 -302.5t-272 -334.5t-388 -285t-382.5 -99q-201 0 -388 99.5t-289 274t-102 385.5q0 121 25 233.5t88 259.5q119 59 278 162q85 57 431 274q70 43 157 106zM960 1173q-82 5 -161 7v-709
q0 -115 -15.5 -161t-57.5 -95l-222 -213q113 -96 213 -136t243 -50v1357zM1012 852q86 -74 163.5 -107t168.5 -33q84 0 155.5 33t150.5 107q-68 89 -127 132q-108 78 -232.5 122.5t-278.5 62.5v-317zM553 1023q-102 -76 -146 -127q-59 -69 -98.5 -167.5t-39.5 -215.5
q0 -255 195 -474q56 51 72.5 102t16.5 200v682zM1012 352q85 84 158.5 117.5t171.5 33.5q102 0 183.5 -36t174.5 -125q33 119 33 207q0 80 -12 140q-10 45 -40 111q-104 -84 -181 -115t-170 -31q-86 0 -156.5 28.5t-161.5 101.5v-432zM1012 -184q151 8 246 49
q144 61 249.5 168.5t173.5 259.5q-165 156 -338 156q-101 0 -192 -54q-67 -38 -139 -129v-450zM1241 1486l-131 131l131 132l132 -132zM762 1486l-132 131l132 132l131 -132z" />
    <glyph glyph-name="Udieresis" unicode="&#xdc;" horiz-adv-x="2055" 
d="M1939 1372l37 -36q-103 -127 -127.5 -186t-24.5 -173v-854q0 -177 30 -224t71 -47q31 0 66 36l18 -71l-253 -199q-105 65 -139 125.5t-44 206.5q-191 -181 -360 -256.5t-368 -75.5q-366 0 -562 264q-146 195 -146 454q0 192 84 358.5t253 321.5q115 104 308 220
q-151 -37 -226 -37q-54 0 -121.5 6t-111.5 6q-101 0 -159 -61t-58 -169q0 -40 7 -100h-51q-14 85 -14 139q0 191 99.5 303.5t235.5 112.5q38 0 72 -8q21 -4 143 -48t219 -44q87 0 163 32q40 17 92 68h54v-672q123 -68 234 -68q57 0 102 14t111 54v346l-135 100l-138 -150
l-40 37l290 323l256 -184zM1072 1317q-76 -81 -97 -144.5t-21 -250.5v-557q0 -91 -13 -135q-18 -57 -66 -112q-70 -80 -250 -211q87 -59 162.5 -83t178.5 -24q50 0 106 9v1508zM577 -54q81 84 105.5 158.5t24.5 265.5v356q0 138 7.5 180t39.5 96q54 94 186 248
q-191 -111 -304.5 -213t-186.5 -256.5t-73 -343.5q0 -168 62 -305q43 -93 139 -186zM1573 699q-72 -36 -117.5 -48t-101.5 -12q-106 0 -228 60v-280q128 57 231 57q99 0 216 -57v280zM1573 360q-120 60 -217 60q-59 0 -108.5 -13.5t-121.5 -53.5v-535q120 26 219 72t228 140
v330zM1324 1496l-131 130l131 132l132 -132zM845 1496l-132 130l132 132l131 -132z" />
    <glyph glyph-name="aacute" unicode="&#xe1;" horiz-adv-x="1084" 
d="M929 845l44 -17q-65 -100 -82.5 -153.5t-17.5 -144.5v-512q0 -126 20 -158t47 -32q15 0 30 7q10 6 57 43l26 -39l-268 -221q-92 72 -123 129t-35 159l-365 -288q-205 168 -205 331q0 109 44 205q59 126 203 294l-144 307l17 34q47 -5 70 -5q141 0 249 113
q88 -52 191.5 -83t159.5 -31q25 0 38 9t44 53zM627 616l-410 126l146 -310l264 -123v307zM627 260l-290 135q-68 -146 -68 -257q0 -194 177 -320l181 147v295zM523 987h-66l108 447h279z" />
    <glyph glyph-name="agrave" unicode="&#xe0;" horiz-adv-x="1084" 
d="M929 845l44 -17q-65 -100 -82.5 -153.5t-17.5 -144.5v-512q0 -126 20 -158t47 -32q15 0 30 7q10 6 57 43l26 -39l-268 -221q-92 72 -123 129t-35 159l-365 -288q-205 168 -205 331q0 109 44 205q59 126 203 294l-144 307l17 34q47 -5 70 -5q141 0 249 113
q88 -52 191.5 -83t159.5 -31q25 0 38 9t44 53zM627 616l-410 126l146 -310l264 -123v307zM627 260l-290 135q-68 -146 -68 -257q0 -194 177 -320l181 147v295zM669 987l-320 447h278l109 -447h-67z" />
    <glyph glyph-name="acircumflex" unicode="&#xe2;" horiz-adv-x="1084" 
d="M929 845l44 -17q-65 -100 -82.5 -153.5t-17.5 -144.5v-512q0 -126 20 -158t47 -32q15 0 30 7q10 6 57 43l26 -39l-268 -221q-92 72 -123 129t-35 159l-365 -288q-205 168 -205 331q0 109 44 205q59 126 203 294l-144 307l17 34q47 -5 70 -5q141 0 249 113
q88 -52 191.5 -83t159.5 -31q25 0 38 9t44 53zM627 616l-410 126l146 -310l264 -123v307zM627 260l-290 135q-68 -146 -68 -257q0 -194 177 -320l181 147v295zM296 989h-72l227 449h259l222 -449h-72l-280 258z" />
    <glyph glyph-name="adieresis" unicode="&#xe4;" horiz-adv-x="1084" 
d="M929 845l44 -17q-65 -100 -82.5 -153.5t-17.5 -144.5v-512q0 -126 20 -158t47 -32q15 0 30 7q10 6 57 43l26 -39l-268 -221q-92 72 -123 129t-35 159l-365 -288q-205 168 -205 331q0 109 44 205q59 126 203 294l-144 307l17 34q47 -5 70 -5q141 0 249 113
q88 -52 191.5 -83t159.5 -31q25 0 38 9t44 53zM627 616l-410 126l146 -310l264 -123v307zM627 260l-290 135q-68 -146 -68 -257q0 -194 177 -320l181 147v295zM818 1125l-131 131l131 132l132 -132zM339 1125l-132 131l132 132l131 -132z" />
    <glyph glyph-name="atilde" unicode="&#xe3;" horiz-adv-x="1084" 
d="M929 845l44 -17q-65 -100 -82.5 -153.5t-17.5 -144.5v-512q0 -126 20 -158t47 -32q15 0 30 7q10 6 57 43l26 -39l-268 -221q-92 72 -123 129t-35 159l-365 -288q-205 168 -205 331q0 109 44 205q59 126 203 294l-144 307l17 34q47 -5 70 -5q141 0 249 113
q88 -52 191.5 -83t159.5 -31q25 0 38 9t44 53zM627 616l-410 126l146 -310l264 -123v307zM627 260l-290 135q-68 -146 -68 -257q0 -194 177 -320l181 147v295zM241 1060h-50q18 131 64 193q71 100 178 100q31 0 74 -12q25 -6 100 -40q129 -59 190 -59q39 0 70 24t53 86h44
q-14 -149 -83.5 -220t-167.5 -71q-73 0 -189.5 53t-166.5 53q-37 0 -66.5 -24t-49.5 -83z" />
    <glyph glyph-name="aring" unicode="&#xe5;" horiz-adv-x="1084" 
d="M929 845l44 -17q-65 -100 -82.5 -153.5t-17.5 -144.5v-512q0 -126 20 -158t47 -32q15 0 30 7q10 6 57 43l26 -39l-268 -221q-92 72 -123 129t-35 159l-365 -288q-205 168 -205 331q0 109 44 205q59 126 203 294l-144 307l17 34q47 -5 70 -5q141 0 249 113
q88 -52 191.5 -83t159.5 -31q25 0 38 9t44 53zM627 616l-410 126l146 -310l264 -123v307zM627 260l-290 135q-68 -146 -68 -257q0 -194 177 -320l181 147v295zM530 1402q84 0 142 -59t58 -141q0 -83 -58.5 -142t-141.5 -59t-142 59t-59 142q0 82 58.5 141t142.5 59z
M530 1332q-55 0 -93.5 -38t-38.5 -92t39 -93t93 -39t93 39t39 93t-38.5 92t-93.5 38z" />
    <glyph glyph-name="ccedilla" unicode="&#xe7;" horiz-adv-x="798" 
d="M456 897l312 -178l-127 -188l-236 135v-764l236 -106l127 90l12 -51l-298 -217q-115 65 -196.5 95.5t-200.5 53.5v29q42 28 55 62q19 47 19 146v683q150 68 297 210zM371 -494l86 95q72 29 121 29q88 0 143 -53.5t55 -128.5q0 -92 -76 -155t-241 -63q-88 0 -174 16l20 40
q86 -8 102 -8q80 0 127.5 38.5t47.5 84.5q0 43 -41.5 77t-114.5 34q-19 0 -55 -6z" />
    <glyph glyph-name="eacute" unicode="&#xe9;" horiz-adv-x="952" 
d="M589 897l338 -395l-537 -377v-218l278 -110l188 128l27 -36l-389 -271q-119 64 -195.5 91.5t-218.5 57.5v30q41 24 54.5 59.5t13.5 152.5v686q113 41 188 75q54 25 253 127zM406 759l-16 -9v-543l315 221zM470 987h-66l108 447h280z" />
    <glyph glyph-name="egrave" unicode="&#xe8;" horiz-adv-x="952" 
d="M589 897l338 -395l-537 -377v-218l278 -110l188 128l27 -36l-389 -271q-119 64 -195.5 91.5t-218.5 57.5v30q41 24 54.5 59.5t13.5 152.5v686q113 41 188 75q54 25 253 127zM406 759l-16 -9v-543l315 221zM580 987l-320 447h278l110 -447h-68z" />
    <glyph glyph-name="ecircumflex" unicode="&#xea;" horiz-adv-x="952" 
d="M589 897l338 -395l-537 -377v-218l278 -110l188 128l27 -36l-389 -271q-119 64 -195.5 91.5t-218.5 57.5v30q41 24 54.5 59.5t13.5 152.5v686q113 41 188 75q54 25 253 127zM406 759l-16 -9v-543l315 221zM243 989h-72l227 449h259l222 -449h-72l-279 258z" />
    <glyph glyph-name="edieresis" unicode="&#xeb;" horiz-adv-x="952" 
d="M589 897l338 -395l-537 -377v-218l278 -110l188 128l27 -36l-389 -271q-119 64 -195.5 91.5t-218.5 57.5v30q41 24 54.5 59.5t13.5 152.5v686q113 41 188 75q54 25 253 127zM406 759l-16 -9v-543l315 221zM765 1125l-131 131l131 132l132 -132zM286 1125l-132 131
l132 132l131 -132z" />
    <glyph glyph-name="iacute" unicode="&#xed;" horiz-adv-x="661" 
d="M294 897l214 -177l-95 -92v-652q0 -104 19 -135t40 -31q14 0 26 6q17 8 70 48l29 -37l-273 -209q-96 68 -123.5 129t-27.5 212v669l-90 92zM269 987h-66l108 447h280z" />
    <glyph glyph-name="igrave" unicode="&#xec;" horiz-adv-x="665" 
d="M298 897l214 -177l-95 -92v-652q0 -104 19 -135t40 -31q14 0 26 6q17 8 70 48l29 -37l-273 -209q-96 68 -123.5 129t-27.5 212v669l-90 92zM383 987l-320 447h278l110 -447h-68z" />
    <glyph glyph-name="icircumflex" unicode="&#xee;" horiz-adv-x="693" 
d="M313 897l214 -177l-95 -92v-652q0 -104 19 -135t40 -31q14 0 26 6q17 8 70 48l28 -37l-272 -209q-96 68 -123.5 129t-27.5 212v669l-90 92zM61 989h-72l227 449h259l222 -449h-72l-280 258z" />
    <glyph glyph-name="idieresis" unicode="&#xef;" horiz-adv-x="699" 
d="M316 897l213 -177l-94 -92v-652q0 -104 19 -135t39 -31q15 0 27 6q17 8 69 48l29 -37l-272 -209q-96 68 -123.5 129t-27.5 212v669l-90 92zM586 1125l-131 131l131 132l132 -132zM107 1125l-132 131l132 132l131 -132z" />
    <glyph glyph-name="ntilde" unicode="&#xf1;" horiz-adv-x="1236" 
d="M809 897l197 -184l117 113l33 -32q-84 -77 -102 -117q-24 -53 -24 -145v-570q0 -79 25 -117q16 -25 35 -25q17 0 79 46l29 -37l-258 -211q-99 76 -127.5 134t-28.5 188v660l-131 113l-194 -155v-682l86 -86l-212 -172l-214 172l94 86v613q0 131 -26 176q-18 31 -41 31
q-24 0 -72 -37l-29 34l256 204q105 -75 131.5 -118t26.5 -120v-41zM338 1060h-49q18 131 63 193q71 100 178 100q31 0 74 -12q25 -6 100 -40q129 -59 191 -59q38 0 69 24t53 86h44q-14 -149 -83.5 -220t-166.5 -71q-74 0 -190 53t-167 53q-37 0 -66.5 -24t-49.5 -83z" />
    <glyph glyph-name="oacute" unicode="&#xf3;" horiz-adv-x="1064" 
d="M940 722v-898q-180 -73 -261 -120q-61 -34 -117 -86q-174 106 -288 146q-87 32 -196 36l-12 24q46 39 58 70q16 41 16 138v658q220 74 376 207q170 -113 424 -175zM383 -59l313 -129v763q-148 69 -209 90q-43 16 -104 27v-751zM473 987h-66l108 447h279z" />
    <glyph glyph-name="ograve" unicode="&#xf2;" horiz-adv-x="1064" 
d="M940 722v-898q-180 -73 -261 -120q-61 -34 -117 -86q-174 106 -288 146q-87 32 -196 36l-12 24q46 39 58 70q16 41 16 138v658q220 74 376 207q170 -113 424 -175zM383 -59l313 -129v763q-148 69 -209 90q-43 16 -104 27v-751zM583 987l-320 447h278l109 -447h-67z" />
    <glyph glyph-name="ocircumflex" unicode="&#xf4;" horiz-adv-x="1064" 
d="M940 722v-898q-180 -73 -261 -120q-61 -34 -117 -86q-174 106 -288 146q-87 32 -196 36l-12 24q46 39 58 70q16 41 16 138v658q220 74 376 207q170 -113 424 -175zM383 -59l313 -129v763q-148 69 -209 90q-43 16 -104 27v-751zM246 989h-72l227 449h259l222 -449h-72
l-280 258z" />
    <glyph glyph-name="odieresis" unicode="&#xf6;" horiz-adv-x="1064" 
d="M940 722v-898q-180 -73 -261 -120q-61 -34 -117 -86q-174 106 -288 146q-87 32 -196 36l-12 24q46 39 58 70q16 41 16 138v658q220 74 376 207q170 -113 424 -175zM383 -59l313 -129v763q-148 69 -209 90q-43 16 -104 27v-751zM768 1125l-131 131l131 132l132 -132z
M289 1125l-132 131l132 132l131 -132z" />
    <glyph glyph-name="otilde" unicode="&#xf5;" horiz-adv-x="1064" 
d="M940 722v-898q-180 -73 -261 -120q-61 -34 -117 -86q-174 106 -288 146q-87 32 -196 36l-12 24q46 39 58 70q16 41 16 138v658q220 74 376 207q170 -113 424 -175zM383 -59l313 -129v763q-148 69 -209 90q-43 16 -104 27v-751zM191 1060h-49q18 131 63 193
q71 100 178 100q31 0 74 -12q25 -6 100 -40q129 -59 191 -59q38 0 69 24t53 86h44q-14 -149 -83.5 -220t-166.5 -71q-74 0 -190 53t-167 53q-37 0 -66.5 -24t-49.5 -83z" />
    <glyph glyph-name="uacute" unicode="&#xfa;" horiz-adv-x="1232" 
d="M904 897l215 -178l-98 -89v-630q0 -108 30 -155q20 -33 42 -33q17 0 65 40l31 -38l-253 -196q-96 67 -125.5 120.5t-31.5 169.5q-186 -120 -379 -290q-117 91 -153 160t-36 182v592q0 63 -9 82q-17 34 -46 34q-21 0 -65 -38l-32 34l266 233l218 -178l-89 -81v-638
q0 -70 18 -103t87 -83l220 162v654l-85 89zM617 987h-66l108 447h280z" />
    <glyph glyph-name="ugrave" unicode="&#xf9;" horiz-adv-x="1232" 
d="M904 897l215 -178l-98 -89v-630q0 -108 30 -155q20 -33 42 -33q17 0 65 40l31 -38l-253 -196q-96 67 -125.5 120.5t-31.5 169.5q-186 -120 -379 -290q-117 91 -153 160t-36 182v592q0 63 -9 82q-17 34 -46 34q-21 0 -65 -38l-32 34l266 233l218 -178l-89 -81v-638
q0 -70 18 -103t87 -83l220 162v654l-85 89zM727 987l-320 447h278l110 -447h-68z" />
    <glyph glyph-name="ucircumflex" unicode="&#xfb;" horiz-adv-x="1232" 
d="M904 897l215 -178l-98 -89v-630q0 -108 30 -155q20 -33 42 -33q17 0 65 40l31 -38l-253 -196q-96 67 -125.5 120.5t-31.5 169.5q-186 -120 -379 -290q-117 91 -153 160t-36 182v592q0 63 -9 82q-17 34 -46 34q-21 0 -65 -38l-32 34l266 233l218 -178l-89 -81v-638
q0 -70 18 -103t87 -83l220 162v654l-85 89zM331 989h-72l227 449h259l222 -449h-72l-279 258z" />
    <glyph glyph-name="udieresis" unicode="&#xfc;" horiz-adv-x="1232" 
d="M904 897l215 -178l-98 -89v-630q0 -108 30 -155q20 -33 42 -33q17 0 65 40l31 -38l-253 -196q-96 67 -125.5 120.5t-31.5 169.5q-186 -120 -379 -290q-117 91 -153 160t-36 182v592q0 63 -9 82q-17 34 -46 34q-21 0 -65 -38l-32 34l266 233l218 -178l-89 -81v-638
q0 -70 18 -103t87 -83l220 162v654l-85 89zM853 1125l-130 131l130 132l132 -132zM375 1125l-132 131l132 132l130 -132z" />
    <glyph glyph-name="dagger" unicode="&#x2020;" horiz-adv-x="1232" 
d="M1006 552q-155 142 -355 153q5 -207 161 -347q-82 -185 -118 -432q-46 -310 -46 -655q0 -19 2 -57h-63q-8 496 -47 742q-30 193 -115 401q151 137 163 347q-180 -4 -361 -154l-175 186l176 180q172 -134 358 -151q-10 133 -48 241q-29 79 -110 205l190 179l194 -184
q-65 -74 -111.5 -191t-50.5 -250q99 8 194.5 50.5t161.5 100.5l174 -182z" />
    <glyph glyph-name="degree" unicode="&#xb0;" horiz-adv-x="957" 
d="M474 1278q173 0 294 -121t121 -294q0 -171 -121.5 -293t-293.5 -122q-171 0 -293 122t-122 293q0 173 121 294t294 121zM474 1122q-108 0 -183 -75.5t-75 -182.5q0 -106 75.5 -182t182.5 -76t182.5 76t75.5 182q0 107 -75.5 182.5t-182.5 75.5z" />
    <glyph glyph-name="cent" unicode="&#xa2;" horiz-adv-x="884" 
d="M313 -280q-70 25 -185 47v29q42 28 55 62q19 47 19 146v683q150 68 297 210l131 -75l93 326h79l-104 -364l113 -65l-127 -188l-50 29l-186 -658l236 -106l127 90l12 -51l-298 -217q-84 48 -140 72l-100 -349h-81zM448 190l118 409l-118 67v-476z" />
    <glyph glyph-name="sterling" unicode="&#xa3;" horiz-adv-x="1631" 
d="M103 321l75 210h316q-43 125 -43 237q0 114 43 213l597 297l433 -271l-174 -210l-494 305q-112 -144 -112 -314q0 -54 9.5 -101t46.5 -156h488l-75 -210h-372q3 -25 3 -37q0 -65 -28 -160.5t-96 -197.5q179 46 312 46q257 0 524 -106l-133 -248q-398 133 -685 133
q-282 0 -635 -133l-19 32q86 54 246 129t312 125q4 43 4 64q0 56 -23.5 157t-63.5 196h-456z" />
    <glyph glyph-name="section" unicode="&#xa7;" horiz-adv-x="1213" 
d="M207 -609l114 197l505 -180q59 77 59 131q0 45 -25 85t-99 92q-40 30 -273 174q-175 110 -229 156q-75 64 -117.5 148.5t-42.5 170.5q0 181 206 360q-43 46 -65 98t-22 111q0 96 66 206t225 250l500 -180l-119 -193l-503 180q-55 -85 -55 -131q0 -55 32 -96
q46 -61 184 -143q51 -30 215.5 -136t227.5 -168.5t93.5 -132.5t30.5 -141q0 -95 -46 -179.5t-160 -189.5q46 -50 68 -101t22 -103q0 -96 -47.5 -181.5t-239.5 -282.5zM875 -82q118 104 118 199q0 71 -61 146q-63 76 -258.5 197.5t-239 153t-93.5 73.5q-70 -66 -94 -110.5
t-24 -96.5q0 -69 64 -144q64 -74 296 -216q159 -97 292 -202z" />
    <glyph glyph-name="bullet" unicode="&#x2022;" horiz-adv-x="831" 
d="M420 772q143 0 242.5 -100t99.5 -243q0 -142 -100 -242.5t-242 -100.5q-143 0 -243 100.5t-100 242.5q0 143 100 243t243 100z" />
    <glyph glyph-name="paragraph" unicode="&#xb6;" horiz-adv-x="1106" 
d="M960 1179v-2091h-86v2091h-224v-2091h-88v1251q-229 9 -342.5 60t-173.5 157.5t-60 238.5t52 216q69 115 185 174.5t303 59.5h594v-66h-160z" />
    <glyph glyph-name="germandbls" unicode="&#xdf;" horiz-adv-x="1221" 
d="M204 710h-121v129h121v300q138 82 262 198l293 -68l-58 -197l-253 58v-471l362 237l169 -162q58 -56 94 -56q10 0 40 12l13 -19l-384 -331q41 4 59 4q150 0 246.5 -92t96.5 -223q0 -70 -32.5 -130.5t-114.5 -126.5q-54 -45 -176 -106q-175 -88 -216.5 -130.5t-41.5 -95.5
q0 -42 27.5 -70.5t62.5 -28.5q13 0 41.5 6.5t40.5 6.5q18 0 29 -11.5t11 -29.5q0 -12 -14 -24q-16 -12 -41 -12q-93 0 -147 50.5t-54 120.5q0 51 31 98.5t109 107.5q138 106 183 173.5t45 139.5q0 90 -63 151.5t-163 61.5q-60 0 -116 -24q-41 -18 -97 -68v-470l-130 -90
v-191l-86 -60h-28v1433zM448 609v-462l426 365l-232 224z" />
    <glyph glyph-name="registered" unicode="&#xae;" horiz-adv-x="1840" 
d="M920 1282q215 0 419 -110t318.5 -314.5t114.5 -426.5q0 -221 -113 -423.5t-315.5 -314.5t-423.5 -112t-423 112t-315 314.5t-113 423.5q0 222 114.5 426.5t318.5 314.5t418 110zM920 1209q-196 0 -382 -101t-290.5 -287.5t-104.5 -389.5q0 -201 103 -386t287.5 -288
t386.5 -103q201 0 386.5 103t288 288t102.5 386q0 203 -104 389.5t-290 287.5t-383 101zM449 954h464q174 0 265 -78.5t91 -189.5q0 -92 -62 -161t-204 -106l250 -357q46 -64 82 -88q23 -14 64 -18v-39h-221l-353 485h-91v-370q7 -40 34 -58t107 -18v-39h-440v39
q60 0 84.5 16t35.5 46q5 16 5 104v627q0 89 -4 105q-8 27 -30.5 42t-76.5 15v43zM734 454h36q159 0 232.5 62.5t73.5 155.5q0 98 -68 164t-173 66q-46 0 -101 -20v-428z" />
    <glyph glyph-name="copyright" unicode="&#xa9;" horiz-adv-x="1840" 
d="M920 1282q215 0 419 -110t318.5 -314.5t114.5 -426.5q0 -221 -113 -423.5t-315.5 -314.5t-423.5 -112t-423 112t-315 314.5t-113 423.5q0 222 114.5 426.5t318.5 314.5t418 110zM920 1209q-196 0 -382 -101t-290.5 -287.5t-104.5 -389.5q0 -201 103 -386t287.5 -288
t386.5 -103q201 0 386.5 103t288 288t102.5 386q0 203 -104 389.5t-290 287.5t-383 101zM1341 978l24 -336h-47q-43 143 -137 213.5t-226 70.5q-99 0 -175.5 -41t-126.5 -109q-36 -52 -60 -137t-24 -180q0 -255 109.5 -375t288.5 -120q234 0 374 194l44 -23
q-166 -243 -459 -243q-240 0 -398 155t-158 377q0 230 168 393t430 163q55 0 91.5 -7.5t130.5 -38.5q30 -10 44 -10q19 0 32.5 10.5t26.5 43.5h48z" />
    <glyph glyph-name="trademark" unicode="&#x2122;" horiz-adv-x="2396" 
d="M55 1245h874l26 -241h-41q-12 86 -63 127.5t-169 41.5h-90v-695q0 -101 24 -128t103 -30v-44h-449v44q78 7 99 32.5t21 124.5v696h-91q-114 0 -162 -38t-66 -131h-41zM1381 1245l328 -687l318 687h335v-45q-86 -2 -110 -30t-24 -132v-561q0 -102 23 -127.5t111 -29.5v-44
h-478v44q71 1 95.5 14t36 38.5t11.5 103.5v590l-369 -790h-38l-370 779v-578q0 -77 6 -97q11 -30 34 -45t72 -15h43v-44h-367v44q67 0 90.5 12t34.5 37t11 108v559q0 107 -23.5 135.5t-112.5 28.5v45h343z" />
    <glyph glyph-name="acute" unicode="&#xb4;" horiz-adv-x="747" 
d="M306 987h-66l108 447h280z" />
    <glyph glyph-name="dieresis" unicode="&#xa8;" horiz-adv-x="806" 
d="M643 1125l-131 131l131 132l132 -132zM164 1125l-132 131l132 132l131 -132z" />
    <glyph glyph-name="notequal" unicode="&#x2260;" horiz-adv-x="1587" 
d="M130 821h719l248 631h189l-244 -631h412v-222h-500l-135 -348h635v-221h-722l-249 -630h-190l249 630h-412v221h498l136 348h-634v222z" />
    <glyph glyph-name="AE" unicode="&#xc6;" horiz-adv-x="2870" 
d="M1750 1412l42 -45q-142 -85 -210.5 -168t-98.5 -195t-30 -321q0 -284 22 -383.5t86 -197.5q84 72 99.5 110.5t15.5 180.5v595l515 424q278 -118 455 -118q39 0 118 7l30 -37l-421 -428h333l-126 -228h-456v-773l62 -2q163 0 302.5 59.5t315.5 209.5l26 -38
q-130 -196 -288 -300q-222 -146 -499 -146q-187 0 -333 58t-254 159q-74 70 -154 195l-551 -412q-375 252 -529 252q-36 0 -55.5 -18.5t-19.5 -46.5q0 -21 27 -66t27 -65q0 -24 -16 -40t-41 -16q-27 0 -47 25q-29 36 -29 85q0 53 24 105q41 89 138 219l166 229
q-156 106 -238 230.5t-82 288.5q0 153 89 296.5t260 229.5t371 86q192 0 375 -78q121 -51 255 -166q70 83 142.5 138t181.5 106zM2068 1230l-145 -123v-569q0 -94 -9 -126q-14 -44 -52 -92q-62 -78 -268 -255q94 -95 186 -141q126 -62 288 -85v1391zM1035 1152
q-91 39 -150.5 52t-137.5 13q-266 0 -426.5 -140.5t-160.5 -322.5q0 -239 270 -436l393 545q-82 53 -147 53q-104 0 -172 -89q-17 -23 -30 -23q-8 0 -13 7t-5 16q0 46 38 107t117 100.5t165 39.5q72 0 173 -38zM2124 658l409 415q-162 28 -243 53t-166 70v-538zM1207 1017
q-54 60 -123 108l-519 -709h642v601zM430 234l-108 -152l617 -255l336 255q-37 97 -50 152h-795z" />
    <glyph glyph-name="Oslash" unicode="&#xd8;" horiz-adv-x="2046" 
d="M1354 1359l43 81h137l-65 -122q240 -100 372 -281t132 -398q0 -155 -80.5 -304.5t-273.5 -336t-388 -283.5t-381 -97q-131 0 -257 43l-40 -73h-137l64 120q-196 100 -302 276t-106 393q0 121 25 233.5t88 259.5q119 59 278 162q85 57 431 274q70 43 157 106
q195 -21 303 -53zM960 617v556q-82 5 -161 7l-193 -126v-666q0 -152 -5.5 -199t-27.5 -93t-69 -94q61 -52 92 -73zM1230 1127q-96 28 -218 42v-317q31 -26 50 -42zM1345 1085l-179 -337q88 -36 170 -36q88 0 161.5 33t152.5 107q-62 82 -114 122q-83 63 -191 111zM553 1023
q-102 -76 -146 -127q-59 -69 -98.5 -167.5t-39.5 -215.5q0 -255 195 -474q56 51 72.5 102t16.5 200v682zM1012 352q85 84 158.5 117.5t171.5 33.5q102 0 183.5 -36t174.5 -125q33 119 33 207q0 80 -12 140q-10 45 -40 111q-104 -84 -181 -115t-170 -31q-86 0 -156.5 28.5
t-161.5 101.5v-432zM1012 -184q151 8 246 49q144 61 249.5 168.5t173.5 259.5q-165 156 -338 156q-101 0 -192 -54q-67 -38 -139 -129v-450zM960 358l-257 -487q109 -45 257 -55v542z" />
    <glyph glyph-name="infinity" unicode="&#x221e;" horiz-adv-x="1722" 
d="M769 418q82 187 179 259.5t265 72.5q193 0 326.5 -139t133.5 -361q0 -220 -130 -362t-289 -142q-107 0 -194 66t-211 277q-76 -148 -167.5 -213.5t-220.5 -65.5q-173 0 -292.5 123.5t-119.5 318.5q0 198 110.5 319.5t257.5 121.5q111 0 188.5 -57.5t163.5 -217.5z
M884 174q85 -178 172 -246.5t203 -68.5q147 0 246 106t99 285q0 176 -104.5 291.5t-233.5 115.5q-83 0 -145 -42t-112 -135q-29 -54 -125 -306zM734 326q-59 132 -134.5 194t-185.5 62q-127 0 -213 -89t-86 -239q0 -160 84.5 -255t191.5 -95q114 0 202 101q56 67 141 321z
" />
    <glyph glyph-name="plusminus" unicode="&#xb1;" horiz-adv-x="1587" 
d="M130 743h551v553h222v-553h553v-221h-553v-550h-222v550h-551v221zM130 -225h1326v-222h-1326v222z" />
    <glyph glyph-name="lessequal" unicode="&#x2264;" horiz-adv-x="1587" 
d="M1455 14l-1324 553v200l1324 553v-238l-1023 -414l1023 -414v-240zM130 -250h1326v-222h-1326v222z" />
    <glyph glyph-name="greaterequal" unicode="&#x2265;" horiz-adv-x="1587" 
d="M131 1320l1324 -553v-200l-1324 -553v238l1021 414l-1021 414v240zM130 -250h1326v-222h-1326v222z" />
    <glyph glyph-name="yen" unicode="&#xa5;" horiz-adv-x="1771" 
d="M1719 1062l-87 -177l-318 128l-257 -609v-89h395l-62 -181h-333v-254q65 15 139 15q55 0 118 -15l-90 -201q-113 19 -155 19q-83 0 -235 -22.5t-264 -57.5l-17 50q80 48 261 132v334h-394l62 181h332v89l-278 465q-8 15 -19 33q-65 116 -113.5 153t-112.5 37
q-56 0 -110 -33q-36 -23 -97 -106l-34 39q52 141 146.5 213t199.5 72q63 0 125 -28t103 -77q57 -69 97 -136l315 -538l321 771q123 -83 254 -150z" />
    <glyph glyph-name="mu1" unicode="&#xb5;" horiz-adv-x="1232" 
d="M101 753h242v-676q0 -215 50.5 -282.5t131.5 -67.5q40 0 76 20t184 146v860h242v-821q0 -160 17 -188t48 -28q36 0 67.5 35.5t39.5 111.5h60q-7 -141 -76 -210t-177 -69q-94 0 -150.5 53.5t-70.5 174.5q-176 -166 -231.5 -197t-129.5 -31q-66 0 -119 26t-94 76
q-2 -36 -2 -55q0 -97 49 -287q19 -72 19 -124q0 -54 -38 -93t-96 -39q-62 0 -97 35t-35 94q0 57 42 199q28 95 32 128q17 124 17 202l-1 100v907z" />
    <glyph glyph-name="partialdiff" unicode="&#x2202;" horiz-adv-x="1189" 
d="M1098 478q14 136 14 223q0 216 -113 334.5t-302 118.5q-127 0 -211 -48t-150 -143h-55q92 189 199 275t258 86q108 0 210.5 -59t165.5 -189.5t63 -353.5q0 -425 -185 -763q-207 -378 -525 -378q-187 0 -297 108t-110 294q0 140 56 275t141 228.5t189 148.5q136 72 276 72
q99 0 178.5 -37.5t131.5 -91.5q32 -34 66 -100zM1078 371q-47 133 -140 201.5t-205 68.5q-108 0 -212.5 -74.5t-181 -261t-76.5 -371.5q0 -137 66 -211t168 -74q147 0 301 156q196 199 280 566z" />
    <glyph glyph-name="summation" unicode="&#x2211;" horiz-adv-x="1726" 
d="M1614 -627h-1576v43l803 997l-803 981v44h1534l32 -404h-48q-19 165 -93 236t-206 71h-888l675 -825l-755 -932h981q84 0 184 33q68 23 113 81t75 182l48 -9z" />
    </font>
</defs>
</svg>
